<svg width="184" height="117" viewBox="0 0 184 117" fill="none" xmlns="http://www.w3.org/2000/svg">
<mask id="mask0" mask-type="alpha" maskUnits="userSpaceOnUse" x="0" y="0" width="184" height="117">
<path d="M0.5 10C0.5 4.75329 4.75329 0.5 10 0.5H183.5V116.5H0.5V10Z" fill="#232325" stroke="url(#paint0_linear)"/>
</mask>
<g mask="url(#mask0)">
<path d="M288.405 -1097.63C288.385 -1097.7 288.3 -1097.71 288.253 -1097.66L164.214 -965.82C126.787 -925.986 126.787 -861.441 164.214 -821.607L288.132 -689.892C288.181 -689.84 288.267 -689.875 288.267 -689.946V-689.946C288.267 -690.017 288.354 -690.051 288.403 -690L451.679 -516.474C510.809 -453.609 510.809 -351.7 451.679 -288.835L288.267 -115.166L281.279 -107.851L119.798 67.5972C61.3119 131.154 -33.4981 131.154 -91.9841 67.5972L-253.432 -107.914C-253.48 -107.966 -253.443 -108.049 -253.373 -108.049V-108.049C-253.302 -108.049 -253.266 -108.133 -253.313 -108.185L-375.587 -240.995C-412.646 -281.224 -472.695 -281.224 -509.755 -240.995L-632.49 -107.589C-632.509 -107.567 -632.537 -107.555 -632.567 -107.555V-107.555C-632.596 -107.555 -632.624 -107.543 -632.644 -107.521L-793.725 67.5972C-852.211 131.154 -947.021 131.154 -1005.51 67.5972L-1167.08 -108.049L-1173.24 -114.178L-1336.65 -287.748C-1395.78 -350.613 -1395.78 -452.522 -1336.65 -515.387L-1173.15 -688.76L-1049 -820.717C-1011.58 -860.551 -1011.58 -925.096 -1049 -964.931L-1172.92 -1096.65C-1172.97 -1096.7 -1173.06 -1096.66 -1173.06 -1096.59V-1096.59C-1173.06 -1096.52 -1173.14 -1096.49 -1173.19 -1096.54L-1336.47 -1270.06C-1395.6 -1332.93 -1395.6 -1434.84 -1336.47 -1497.7L-1173.06 -1671.37L-1166.07 -1678.69L-1004.5 -1854.33C-946.01 -1917.89 -851.2 -1917.89 -792.714 -1854.33L-631.389 -1678.76C-631.329 -1678.69 -631.375 -1678.59 -631.463 -1678.59V-1678.59C-631.551 -1678.59 -631.597 -1678.48 -631.537 -1678.42L-509.295 -1545.64C-472.236 -1505.41 -412.186 -1505.41 -375.127 -1545.64L-252.454 -1678.98C-252.395 -1679.04 -252.311 -1679.08 -252.223 -1679.08V-1679.08C-252.135 -1679.08 -252.051 -1679.12 -251.992 -1679.18L-90.8806 -1854.23C-32.3946 -1917.79 62.4155 -1917.79 120.902 -1854.23L282.29 -1678.59L288.451 -1672.46L451.863 -1498.79C510.993 -1435.92 510.993 -1334.02 451.863 -1271.15L288.558 -1097.59C288.51 -1097.54 288.426 -1097.56 288.405 -1097.63V-1097.63Z" stroke="#FF6719" stroke-width="1.75" stroke-miterlimit="10" stroke-linecap="round"/>
<path d="M288.405 -1097.63C288.385 -1097.7 288.3 -1097.71 288.253 -1097.66L164.214 -965.82C126.787 -925.986 126.787 -861.441 164.214 -821.607L288.132 -689.892C288.181 -689.84 288.267 -689.875 288.267 -689.946V-689.946C288.267 -690.017 288.354 -690.051 288.403 -690L451.679 -516.474C510.809 -453.609 510.809 -351.7 451.679 -288.835L288.267 -115.166L281.279 -107.851L119.798 67.5972C61.3119 131.154 -33.4981 131.154 -91.9841 67.5972L-253.432 -107.914C-253.48 -107.966 -253.443 -108.049 -253.373 -108.049V-108.049C-253.302 -108.049 -253.266 -108.133 -253.313 -108.185L-375.587 -240.995C-412.646 -281.224 -472.695 -281.224 -509.755 -240.995L-632.49 -107.589C-632.509 -107.567 -632.537 -107.555 -632.567 -107.555V-107.555C-632.596 -107.555 -632.624 -107.543 -632.644 -107.521L-793.725 67.5972C-852.211 131.154 -947.021 131.154 -1005.51 67.5972L-1167.08 -108.049L-1173.24 -114.178L-1336.65 -287.748C-1395.78 -350.613 -1395.78 -452.522 -1336.65 -515.387L-1173.15 -688.76L-1049 -820.717C-1011.58 -860.551 -1011.58 -925.096 -1049 -964.931L-1172.92 -1096.65C-1172.97 -1096.7 -1173.06 -1096.66 -1173.06 -1096.59V-1096.59C-1173.06 -1096.52 -1173.14 -1096.49 -1173.19 -1096.54L-1336.47 -1270.06C-1395.6 -1332.93 -1395.6 -1434.84 -1336.47 -1497.7L-1173.06 -1671.37L-1166.07 -1678.69L-1004.5 -1854.33C-946.01 -1917.89 -851.2 -1917.89 -792.714 -1854.33L-631.389 -1678.76C-631.329 -1678.69 -631.375 -1678.59 -631.463 -1678.59V-1678.59C-631.551 -1678.59 -631.597 -1678.48 -631.537 -1678.42L-509.295 -1545.64C-472.236 -1505.41 -412.186 -1505.41 -375.127 -1545.64L-252.454 -1678.98C-252.395 -1679.04 -252.311 -1679.08 -252.223 -1679.08V-1679.08C-252.135 -1679.08 -252.051 -1679.12 -251.992 -1679.18L-90.8806 -1854.23C-32.3946 -1917.79 62.4155 -1917.79 120.902 -1854.23L282.29 -1678.59L288.451 -1672.46L451.863 -1498.79C510.993 -1435.92 510.993 -1334.02 451.863 -1271.15L288.558 -1097.59C288.51 -1097.54 288.426 -1097.56 288.405 -1097.63V-1097.63Z" stroke="#FF6719" stroke-width="1.75" stroke-miterlimit="10" stroke-linecap="round"/>
<path d="M281.92 -1095.8C281.876 -1095.9 281.75 -1095.92 281.679 -1095.84L158.879 -965.228C121.727 -925.789 121.727 -861.837 158.879 -822.398L281.693 -691.87C281.741 -691.818 281.828 -691.852 281.828 -691.923V-691.923C281.828 -691.994 281.915 -692.029 281.964 -691.977L443.768 -520.033C502.346 -457.761 502.346 -356.742 443.768 -294.47L281.828 -122.382L274.931 -115.167L114.738 58.9971C56.8038 121.961 -37.1785 121.961 -95.1129 58.9971L-255.089 -114.932C-255.137 -114.984 -255.1 -115.068 -255.03 -115.068V-115.068C-254.96 -115.068 -254.923 -115.151 -254.971 -115.203L-376.048 -246.827C-412.74 -286.76 -472.238 -286.76 -508.929 -246.827L-630.498 -114.774C-630.558 -114.709 -630.641 -114.672 -630.729 -114.672V-114.672C-630.817 -114.672 -630.901 -114.636 -630.961 -114.571L-790.601 58.9971C-848.535 121.961 -942.517 121.961 -1000.45 58.9971L-1160.55 -115.068L-1166.71 -121.097L-1328.56 -293.185C-1387.14 -355.457 -1387.14 -456.476 -1328.56 -518.748L-1166.53 -690.638L-1043.58 -821.409C-1006.43 -860.848 -1006.43 -924.801 -1043.58 -964.24L-1166.39 -1094.77C-1166.44 -1094.82 -1166.53 -1094.78 -1166.53 -1094.71V-1094.71C-1166.53 -1094.64 -1166.62 -1094.61 -1166.67 -1094.66L-1328.47 -1266.6C-1387.05 -1328.88 -1387.05 -1429.9 -1328.47 -1492.17L-1166.53 -1664.26L-1159.63 -1671.47L-999.532 -1845.54C-941.598 -1908.5 -847.615 -1908.5 -789.681 -1845.54L-629.704 -1671.61C-629.657 -1671.55 -629.693 -1671.47 -629.764 -1671.47V-1671.47C-629.834 -1671.47 -629.871 -1671.39 -629.823 -1671.34L-508.653 -1539.71C-471.962 -1499.78 -412.464 -1499.78 -375.772 -1539.71L-254.204 -1671.76C-254.144 -1671.83 -254.06 -1671.87 -253.972 -1671.87V-1671.87C-253.884 -1671.87 -253.801 -1671.9 -253.741 -1671.97L-94.1013 -1845.44C-36.167 -1908.4 57.8154 -1908.4 115.75 -1845.44L275.851 -1671.37L282.012 -1665.34L443.952 -1493.25C502.53 -1430.98 502.53 -1329.96 443.952 -1267.69L282.161 -1095.76C282.09 -1095.69 281.964 -1095.71 281.92 -1095.8V-1095.8Z" stroke="#FF6719" stroke-width="1.75" stroke-miterlimit="10" stroke-linecap="round"/>
<path d="M281.92 -1095.8C281.876 -1095.9 281.75 -1095.92 281.679 -1095.84L158.879 -965.228C121.727 -925.789 121.727 -861.837 158.879 -822.398L281.693 -691.87C281.741 -691.818 281.828 -691.852 281.828 -691.923V-691.923C281.828 -691.994 281.915 -692.029 281.964 -691.977L443.768 -520.033C502.346 -457.761 502.346 -356.742 443.768 -294.47L281.828 -122.382L274.931 -115.167L114.738 58.9971C56.8038 121.961 -37.1785 121.961 -95.1129 58.9971L-255.089 -114.932C-255.137 -114.984 -255.1 -115.068 -255.03 -115.068V-115.068C-254.96 -115.068 -254.923 -115.151 -254.971 -115.203L-376.048 -246.827C-412.74 -286.76 -472.238 -286.76 -508.929 -246.827L-630.498 -114.774C-630.558 -114.709 -630.641 -114.672 -630.729 -114.672V-114.672C-630.817 -114.672 -630.901 -114.636 -630.961 -114.571L-790.601 58.9971C-848.535 121.961 -942.517 121.961 -1000.45 58.9971L-1160.55 -115.068L-1166.71 -121.097L-1328.56 -293.185C-1387.14 -355.457 -1387.14 -456.476 -1328.56 -518.748L-1166.53 -690.638L-1043.58 -821.409C-1006.43 -860.848 -1006.43 -924.801 -1043.58 -964.24L-1166.39 -1094.77C-1166.44 -1094.82 -1166.53 -1094.78 -1166.53 -1094.71V-1094.71C-1166.53 -1094.64 -1166.62 -1094.61 -1166.67 -1094.66L-1328.47 -1266.6C-1387.05 -1328.88 -1387.05 -1429.9 -1328.47 -1492.17L-1166.53 -1664.26L-1159.63 -1671.47L-999.532 -1845.54C-941.598 -1908.5 -847.615 -1908.5 -789.681 -1845.54L-629.704 -1671.61C-629.657 -1671.55 -629.693 -1671.47 -629.764 -1671.47V-1671.47C-629.834 -1671.47 -629.871 -1671.39 -629.823 -1671.34L-508.653 -1539.71C-471.962 -1499.78 -412.464 -1499.78 -375.772 -1539.71L-254.204 -1671.76C-254.144 -1671.83 -254.06 -1671.87 -253.972 -1671.87V-1671.87C-253.884 -1671.87 -253.801 -1671.9 -253.741 -1671.97L-94.1013 -1845.44C-36.167 -1908.4 57.8154 -1908.4 115.75 -1845.44L275.851 -1671.37L282.012 -1665.34L443.952 -1493.25C502.53 -1430.98 502.53 -1329.96 443.952 -1267.69L282.161 -1095.76C282.09 -1095.69 281.964 -1095.71 281.92 -1095.8V-1095.8Z" stroke="#FF6719" stroke-width="1.75" stroke-miterlimit="10" stroke-linecap="round"/>
<path d="M275.303 -1093.97C275.256 -1094.05 275.152 -1094.06 275.091 -1093.99L153.365 -964.535C116.581 -925.393 116.581 -862.034 153.365 -822.99L275.075 -693.648C275.124 -693.596 275.211 -693.631 275.211 -693.702V-693.702C275.211 -693.773 275.298 -693.807 275.346 -693.755L435.68 -523.393C493.798 -461.615 493.798 -361.585 435.68 -299.807L275.211 -129.3L268.406 -122.184L109.684 50.2999C52.2095 112.77 -40.8532 112.77 -98.3277 50.2999L-256.833 -122.048C-256.881 -122.1 -256.844 -122.184 -256.774 -122.184V-122.184C-256.703 -122.184 -256.667 -122.267 -256.714 -122.319L-376.78 -252.757C-413.196 -292.295 -472.142 -292.295 -508.466 -252.757L-628.839 -121.791C-628.899 -121.726 -628.983 -121.689 -629.071 -121.689V-121.689C-629.159 -121.689 -629.242 -121.653 -629.302 -121.588L-787.47 50.2999C-844.945 112.77 -938.008 112.77 -995.482 50.2999L-1154.02 -122.085L-1160.09 -128.015L-1320.56 -298.621C-1378.68 -360.398 -1378.68 -460.429 -1320.56 -522.207L-1160 -692.516L-1038.15 -822.002C-1001.37 -861.144 -1001.37 -924.503 -1038.15 -963.547L-1159.86 -1092.89C-1159.91 -1092.94 -1160 -1092.91 -1160 -1092.84V-1092.84C-1160 -1092.76 -1160.08 -1092.73 -1160.13 -1092.78L-1320.47 -1263.14C-1378.58 -1324.92 -1378.58 -1424.95 -1320.47 -1486.73L-1160 -1657.24L-1153.19 -1664.35L-994.563 -1836.84C-937.088 -1899.31 -844.025 -1899.31 -786.551 -1836.84L-628.046 -1664.49C-627.998 -1664.44 -628.035 -1664.35 -628.105 -1664.35V-1664.35C-628.175 -1664.35 -628.212 -1664.27 -628.164 -1664.22L-508.098 -1533.78C-471.682 -1494.24 -412.736 -1494.24 -376.413 -1533.78L-255.947 -1664.65C-255.888 -1664.71 -255.804 -1664.75 -255.716 -1664.75V-1664.75C-255.628 -1664.75 -255.544 -1664.79 -255.485 -1664.85L-97.3162 -1836.84C-39.8416 -1899.31 53.2212 -1899.31 110.696 -1836.84L269.325 -1664.35L275.395 -1658.42L435.864 -1487.92C493.982 -1426.14 493.982 -1326.11 435.864 -1264.33L275.514 -1093.95C275.454 -1093.89 275.349 -1093.9 275.303 -1093.97V-1093.97Z" stroke="#FF6719" stroke-width="1.75" stroke-miterlimit="10" stroke-linecap="round"/>
<path d="M275.303 -1093.97C275.256 -1094.05 275.152 -1094.06 275.091 -1093.99L153.365 -964.535C116.581 -925.393 116.581 -862.034 153.365 -822.99L275.075 -693.648C275.124 -693.596 275.211 -693.631 275.211 -693.702V-693.702C275.211 -693.773 275.298 -693.807 275.346 -693.755L435.68 -523.393C493.798 -461.615 493.798 -361.585 435.68 -299.807L275.211 -129.3L268.406 -122.184L109.684 50.2999C52.2095 112.77 -40.8532 112.77 -98.3277 50.2999L-256.833 -122.048C-256.881 -122.1 -256.844 -122.184 -256.774 -122.184V-122.184C-256.703 -122.184 -256.667 -122.267 -256.714 -122.319L-376.78 -252.757C-413.196 -292.295 -472.142 -292.295 -508.466 -252.757L-628.839 -121.791C-628.899 -121.726 -628.983 -121.689 -629.071 -121.689V-121.689C-629.159 -121.689 -629.242 -121.653 -629.302 -121.588L-787.47 50.2999C-844.945 112.77 -938.008 112.77 -995.482 50.2999L-1154.02 -122.085L-1160.09 -128.015L-1320.56 -298.621C-1378.68 -360.398 -1378.68 -460.429 -1320.56 -522.207L-1160 -692.516L-1038.15 -822.002C-1001.37 -861.144 -1001.37 -924.503 -1038.15 -963.547L-1159.86 -1092.89C-1159.91 -1092.94 -1160 -1092.91 -1160 -1092.84V-1092.84C-1160 -1092.76 -1160.08 -1092.73 -1160.13 -1092.78L-1320.47 -1263.14C-1378.58 -1324.92 -1378.58 -1424.95 -1320.47 -1486.73L-1160 -1657.24L-1153.19 -1664.35L-994.563 -1836.84C-937.088 -1899.31 -844.025 -1899.31 -786.551 -1836.84L-628.046 -1664.49C-627.998 -1664.44 -628.035 -1664.35 -628.105 -1664.35V-1664.35C-628.175 -1664.35 -628.212 -1664.27 -628.164 -1664.22L-508.098 -1533.78C-471.682 -1494.24 -412.736 -1494.24 -376.413 -1533.78L-255.947 -1664.65C-255.888 -1664.71 -255.804 -1664.75 -255.716 -1664.75V-1664.75C-255.628 -1664.75 -255.544 -1664.79 -255.485 -1664.85L-97.3162 -1836.84C-39.8416 -1899.31 53.2212 -1899.31 110.696 -1836.84L269.325 -1664.35L275.395 -1658.42L435.864 -1487.92C493.982 -1426.14 493.982 -1326.11 435.864 -1264.33L275.514 -1093.95C275.454 -1093.89 275.349 -1093.9 275.303 -1093.97V-1093.97Z" stroke="#FF6719" stroke-width="1.75" stroke-miterlimit="10" stroke-linecap="round"/>
<path d="M268.727 -1092.19C268.702 -1092.22 268.66 -1092.22 268.635 -1092.19L147.939 -963.943C111.523 -925.196 111.523 -862.43 147.939 -823.683L268.546 -695.527C268.594 -695.475 268.681 -695.509 268.681 -695.58V-695.58C268.681 -695.651 268.768 -695.686 268.817 -695.634L427.679 -526.853C485.245 -465.668 485.245 -366.528 427.679 -305.343L268.681 -136.418L261.876 -129.301L104.626 41.6993C47.7029 103.576 -44.5322 103.576 -101.455 41.6993L-258.489 -129.067C-258.536 -129.119 -258.5 -129.203 -258.429 -129.203V-129.203C-258.359 -129.203 -258.322 -129.286 -258.37 -129.338L-377.333 -258.59C-413.381 -297.732 -471.775 -297.732 -507.823 -258.59L-627.092 -128.909C-627.152 -128.844 -627.236 -128.807 -627.324 -128.807V-128.807C-627.412 -128.807 -627.496 -128.77 -627.555 -128.706L-784.252 41.6993C-841.175 103.576 -933.41 103.576 -990.333 41.6993L-1147.58 -129.203L-1153.65 -135.133L-1312.56 -304.058C-1370.12 -365.243 -1370.12 -464.384 -1312.56 -525.568L-1153.47 -694.295L-1032.73 -822.694C-996.31 -861.441 -996.31 -924.207 -1032.73 -962.954L-1153.33 -1091.11C-1153.38 -1091.16 -1153.47 -1091.13 -1153.47 -1091.06V-1091.06C-1153.47 -1090.99 -1153.56 -1090.95 -1153.6 -1091L-1312.47 -1259.78C-1370.03 -1320.97 -1370.03 -1420.11 -1312.47 -1481.29L-1153.47 -1650.22L-1146.66 -1657.34L-989.413 -1828.24C-932.49 -1890.11 -840.255 -1890.11 -783.333 -1828.24L-626.299 -1657.57C-626.251 -1657.52 -626.288 -1657.43 -626.358 -1657.43V-1657.43C-626.429 -1657.43 -626.465 -1657.35 -626.418 -1657.3L-507.547 -1528.05C-471.499 -1488.9 -413.105 -1488.9 -377.057 -1528.05L-257.695 -1657.73C-257.635 -1657.79 -257.552 -1657.83 -257.464 -1657.83V-1657.83C-257.376 -1657.83 -257.292 -1657.87 -257.232 -1657.93L-100.535 -1828.34C-43.6125 -1890.21 48.6226 -1890.21 105.545 -1828.34L262.704 -1657.43L268.773 -1651.5L427.771 -1482.58C485.337 -1421.39 485.337 -1322.25 427.771 -1261.07L268.819 -1092.19C268.794 -1092.17 268.752 -1092.17 268.727 -1092.19V-1092.19Z" stroke="#FF6719" stroke-width="1.75" stroke-miterlimit="10" stroke-linecap="round"/>
<path d="M268.727 -1092.19C268.702 -1092.22 268.66 -1092.22 268.635 -1092.19L147.939 -963.943C111.523 -925.196 111.523 -862.43 147.939 -823.683L268.546 -695.527C268.594 -695.475 268.681 -695.509 268.681 -695.58V-695.58C268.681 -695.651 268.768 -695.686 268.817 -695.634L427.679 -526.853C485.245 -465.668 485.245 -366.528 427.679 -305.343L268.681 -136.418L261.876 -129.301L104.626 41.6993C47.7029 103.576 -44.5322 103.576 -101.455 41.6993L-258.489 -129.067C-258.536 -129.119 -258.5 -129.203 -258.429 -129.203V-129.203C-258.359 -129.203 -258.322 -129.286 -258.37 -129.338L-377.333 -258.59C-413.381 -297.732 -471.775 -297.732 -507.823 -258.59L-627.092 -128.909C-627.152 -128.844 -627.236 -128.807 -627.324 -128.807V-128.807C-627.412 -128.807 -627.496 -128.77 -627.555 -128.706L-784.252 41.6993C-841.175 103.576 -933.41 103.576 -990.333 41.6993L-1147.58 -129.203L-1153.65 -135.133L-1312.56 -304.058C-1370.12 -365.243 -1370.12 -464.384 -1312.56 -525.568L-1153.47 -694.295L-1032.73 -822.694C-996.31 -861.441 -996.31 -924.207 -1032.73 -962.954L-1153.33 -1091.11C-1153.38 -1091.16 -1153.47 -1091.13 -1153.47 -1091.06V-1091.06C-1153.47 -1090.99 -1153.56 -1090.95 -1153.6 -1091L-1312.47 -1259.78C-1370.03 -1320.97 -1370.03 -1420.11 -1312.47 -1481.29L-1153.47 -1650.22L-1146.66 -1657.34L-989.413 -1828.24C-932.49 -1890.11 -840.255 -1890.11 -783.333 -1828.24L-626.299 -1657.57C-626.251 -1657.52 -626.288 -1657.43 -626.358 -1657.43V-1657.43C-626.429 -1657.43 -626.465 -1657.35 -626.418 -1657.3L-507.547 -1528.05C-471.499 -1488.9 -413.105 -1488.9 -377.057 -1528.05L-257.695 -1657.73C-257.635 -1657.79 -257.552 -1657.83 -257.464 -1657.83V-1657.83C-257.376 -1657.83 -257.292 -1657.87 -257.232 -1657.93L-100.535 -1828.34C-43.6125 -1890.21 48.6226 -1890.21 105.545 -1828.34L262.704 -1657.43L268.773 -1651.5L427.771 -1482.58C485.337 -1421.39 485.337 -1322.25 427.771 -1261.07L268.819 -1092.19C268.794 -1092.17 268.752 -1092.17 268.727 -1092.19V-1092.19Z" stroke="#FF6719" stroke-width="1.75" stroke-miterlimit="10" stroke-linecap="round"/>
<path d="M262.292 -1090.36C262.213 -1090.42 262.105 -1090.41 262.038 -1090.34L142.515 -963.25C106.375 -924.898 106.375 -862.626 142.515 -824.275L262.019 -697.305C262.067 -697.253 262.154 -697.288 262.154 -697.359V-697.359C262.154 -697.43 262.241 -697.464 262.29 -697.412L419.68 -530.114C476.695 -469.522 476.695 -371.271 419.68 -310.68L262.154 -143.237L255.441 -136.219L99.5702 33.0023C43.1992 94.2858 -48.2083 94.2858 -104.579 33.0023L-260.234 -136.183C-260.281 -136.235 -260.245 -136.318 -260.174 -136.318V-136.318C-260.104 -136.318 -260.067 -136.402 -260.115 -136.453L-377.882 -264.42C-413.562 -303.266 -471.497 -303.266 -507.177 -264.42L-625.435 -135.925C-625.495 -135.861 -625.578 -135.824 -625.666 -135.824V-135.824C-625.754 -135.824 -625.838 -135.787 -625.898 -135.722L-781.215 33.1011C-837.586 94.3846 -928.994 94.3846 -985.365 33.1011L-1141.14 -136.219L-1147.12 -142.051L-1304.46 -309.493C-1361.48 -370.085 -1361.48 -468.336 -1304.46 -528.928L-1146.85 -696.074L-1027.21 -823.286C-991.066 -861.638 -991.066 -923.91 -1027.21 -962.262L-1146.71 -1089.33C-1146.76 -1089.38 -1146.85 -1089.35 -1146.85 -1089.28V-1089.28C-1146.85 -1089.21 -1146.93 -1089.17 -1146.98 -1089.22L-1304.37 -1256.52C-1361.39 -1317.11 -1361.39 -1415.36 -1304.37 -1475.96L-1146.85 -1643.4L-1140.13 -1650.42L-984.353 -1819.74C-927.982 -1881.02 -836.575 -1881.02 -780.204 -1819.74L-624.549 -1650.55C-624.502 -1650.5 -624.538 -1650.42 -624.609 -1650.42V-1650.42C-624.679 -1650.42 -624.716 -1650.33 -624.668 -1650.28L-506.809 -1522.21C-471.129 -1483.37 -413.194 -1483.37 -377.514 -1522.21L-259.256 -1650.71C-259.197 -1650.77 -259.113 -1650.81 -259.025 -1650.81V-1650.81C-258.937 -1650.81 -258.853 -1650.85 -258.793 -1650.91L-103.476 -1819.74C-47.1047 -1881.02 44.3028 -1881.02 100.674 -1819.74L256.453 -1650.42L262.43 -1644.58L419.956 -1477.14C476.971 -1416.55 476.971 -1318.3 419.956 -1257.71L262.546 -1090.39C262.48 -1090.32 262.371 -1090.31 262.292 -1090.36V-1090.36Z" stroke="#FF6719" stroke-width="1.75" stroke-miterlimit="10" stroke-linecap="round"/>
<path d="M262.292 -1090.36C262.213 -1090.42 262.105 -1090.41 262.038 -1090.34L142.515 -963.25C106.375 -924.898 106.375 -862.626 142.515 -824.275L262.019 -697.305C262.067 -697.253 262.154 -697.288 262.154 -697.359V-697.359C262.154 -697.43 262.241 -697.464 262.29 -697.412L419.68 -530.114C476.695 -469.522 476.695 -371.271 419.68 -310.68L262.154 -143.237L255.441 -136.219L99.5702 33.0023C43.1992 94.2858 -48.2083 94.2858 -104.579 33.0023L-260.234 -136.183C-260.281 -136.235 -260.245 -136.318 -260.174 -136.318V-136.318C-260.104 -136.318 -260.067 -136.402 -260.115 -136.453L-377.882 -264.42C-413.562 -303.266 -471.497 -303.266 -507.177 -264.42L-625.435 -135.925C-625.495 -135.861 -625.578 -135.824 -625.666 -135.824V-135.824C-625.754 -135.824 -625.838 -135.787 -625.898 -135.722L-781.215 33.1011C-837.586 94.3846 -928.994 94.3846 -985.365 33.1011L-1141.14 -136.219L-1147.12 -142.051L-1304.46 -309.493C-1361.48 -370.085 -1361.48 -468.336 -1304.46 -528.928L-1146.85 -696.074L-1027.21 -823.286C-991.066 -861.638 -991.066 -923.91 -1027.21 -962.262L-1146.71 -1089.33C-1146.76 -1089.38 -1146.85 -1089.35 -1146.85 -1089.28V-1089.28C-1146.85 -1089.21 -1146.93 -1089.17 -1146.98 -1089.22L-1304.37 -1256.52C-1361.39 -1317.11 -1361.39 -1415.36 -1304.37 -1475.96L-1146.85 -1643.4L-1140.13 -1650.42L-984.353 -1819.74C-927.982 -1881.02 -836.575 -1881.02 -780.204 -1819.74L-624.549 -1650.55C-624.502 -1650.5 -624.538 -1650.42 -624.609 -1650.42V-1650.42C-624.679 -1650.42 -624.716 -1650.33 -624.668 -1650.28L-506.809 -1522.21C-471.129 -1483.37 -413.194 -1483.37 -377.514 -1522.21L-259.256 -1650.71C-259.197 -1650.77 -259.113 -1650.81 -259.025 -1650.81V-1650.81C-258.937 -1650.81 -258.853 -1650.85 -258.793 -1650.91L-103.476 -1819.74C-47.1047 -1881.02 44.3028 -1881.02 100.674 -1819.74L256.453 -1650.42L262.43 -1644.58L419.956 -1477.14C476.971 -1416.55 476.971 -1318.3 419.956 -1257.71L262.546 -1090.39C262.48 -1090.32 262.371 -1090.31 262.292 -1090.36V-1090.36Z" stroke="#FF6719" stroke-width="1.75" stroke-miterlimit="10" stroke-linecap="round"/>
<path d="M255.622 -1088.49C255.572 -1088.54 255.488 -1088.54 255.438 -1088.49L136.995 -962.558C101.222 -924.503 101.222 -862.923 136.995 -824.868L255.395 -699.183C255.443 -699.131 255.53 -699.166 255.53 -699.237V-699.237C255.53 -699.308 255.617 -699.342 255.666 -699.29L411.585 -533.573C468.048 -473.575 468.048 -376.213 411.585 -316.215L255.53 -150.354L248.909 -143.435L94.6014 24.304C38.7821 84.9944 -51.7978 84.9944 -107.617 24.304L-261.892 -143.201C-261.94 -143.252 -261.903 -143.336 -261.833 -143.336V-143.336C-261.762 -143.336 -261.726 -143.42 -261.773 -143.471L-378.529 -270.351C-413.933 -308.801 -471.224 -308.801 -506.628 -270.351L-623.691 -143.042C-623.751 -142.977 -623.834 -142.941 -623.922 -142.941V-142.941C-624.01 -142.941 -624.094 -142.904 -624.154 -142.839L-777.908 24.4028C-833.727 85.0933 -924.307 85.0933 -980.127 24.4028L-1134.43 -143.336L-1140.32 -149.168L-1296.37 -315.029C-1352.84 -375.027 -1352.84 -472.389 -1296.37 -532.387L-1140.23 -698.05L-1021.69 -824.077C-985.92 -862.132 -985.92 -923.712 -1021.69 -961.767L-1140 -1087.55C-1140.05 -1087.6 -1140.14 -1087.57 -1140.14 -1087.5V-1087.5C-1140.14 -1087.43 -1140.22 -1087.39 -1140.27 -1087.44L-1296.19 -1253.16C-1352.65 -1313.16 -1352.65 -1410.52 -1296.19 -1470.52L-1140.14 -1636.38L-1133.51 -1643.3L-979.299 -1811.04C-923.48 -1871.73 -832.9 -1871.73 -777.08 -1811.04L-622.897 -1643.43C-622.85 -1643.38 -622.886 -1643.3 -622.957 -1643.3V-1643.3C-623.027 -1643.3 -623.064 -1643.22 -623.016 -1643.16L-506.26 -1516.28C-470.856 -1477.83 -413.566 -1477.83 -378.161 -1516.28L-261.007 -1643.59C-260.947 -1643.66 -260.863 -1643.69 -260.775 -1643.69V-1643.69C-260.687 -1643.69 -260.603 -1643.73 -260.544 -1643.8L-106.697 -1811.04C-50.8782 -1871.73 39.7017 -1871.73 95.521 -1811.04L249.829 -1643.3L255.714 -1637.47L411.769 -1471.61C468.232 -1411.61 468.232 -1314.25 411.769 -1254.25L255.806 -1088.49C255.756 -1088.43 255.672 -1088.43 255.622 -1088.49V-1088.49Z" stroke="#FF6719" stroke-width="1.75" stroke-miterlimit="10" stroke-linecap="round"/>
<path d="M255.622 -1088.49C255.572 -1088.54 255.488 -1088.54 255.438 -1088.49L136.995 -962.558C101.222 -924.503 101.222 -862.923 136.995 -824.868L255.395 -699.183C255.443 -699.131 255.53 -699.166 255.53 -699.237V-699.237C255.53 -699.308 255.617 -699.342 255.666 -699.29L411.585 -533.573C468.048 -473.575 468.048 -376.213 411.585 -316.215L255.53 -150.354L248.909 -143.435L94.6014 24.304C38.7821 84.9944 -51.7978 84.9944 -107.617 24.304L-261.892 -143.201C-261.94 -143.252 -261.903 -143.336 -261.833 -143.336V-143.336C-261.762 -143.336 -261.726 -143.42 -261.773 -143.471L-378.529 -270.351C-413.933 -308.801 -471.224 -308.801 -506.628 -270.351L-623.691 -143.042C-623.751 -142.977 -623.834 -142.941 -623.922 -142.941V-142.941C-624.01 -142.941 -624.094 -142.904 -624.154 -142.839L-777.908 24.4028C-833.727 85.0933 -924.307 85.0933 -980.127 24.4028L-1134.43 -143.336L-1140.32 -149.168L-1296.37 -315.029C-1352.84 -375.027 -1352.84 -472.389 -1296.37 -532.387L-1140.23 -698.05L-1021.69 -824.077C-985.92 -862.132 -985.92 -923.712 -1021.69 -961.767L-1140 -1087.55C-1140.05 -1087.6 -1140.14 -1087.57 -1140.14 -1087.5V-1087.5C-1140.14 -1087.43 -1140.22 -1087.39 -1140.27 -1087.44L-1296.19 -1253.16C-1352.65 -1313.16 -1352.65 -1410.52 -1296.19 -1470.52L-1140.14 -1636.38L-1133.51 -1643.3L-979.299 -1811.04C-923.48 -1871.73 -832.9 -1871.73 -777.08 -1811.04L-622.897 -1643.43C-622.85 -1643.38 -622.886 -1643.3 -622.957 -1643.3V-1643.3C-623.027 -1643.3 -623.064 -1643.22 -623.016 -1643.16L-506.26 -1516.28C-470.856 -1477.83 -413.566 -1477.83 -378.161 -1516.28L-261.007 -1643.59C-260.947 -1643.66 -260.863 -1643.69 -260.775 -1643.69V-1643.69C-260.687 -1643.69 -260.603 -1643.73 -260.544 -1643.8L-106.697 -1811.04C-50.8782 -1871.73 39.7017 -1871.73 95.521 -1811.04L249.829 -1643.3L255.714 -1637.47L411.769 -1471.61C468.232 -1411.61 468.232 -1314.25 411.769 -1254.25L255.806 -1088.49C255.756 -1088.43 255.672 -1088.43 255.622 -1088.49V-1088.49Z" stroke="#FF6719" stroke-width="1.75" stroke-miterlimit="10" stroke-linecap="round"/>
<path d="M249.046 -1086.66C249.025 -1086.72 248.941 -1086.74 248.893 -1086.69L131.568 -961.965C96.1636 -924.306 96.1636 -863.22 131.568 -825.56L248.772 -700.963C248.821 -700.911 248.908 -700.945 248.908 -701.016V-701.016C248.908 -701.087 248.995 -701.122 249.043 -701.07L403.491 -536.935C459.403 -477.43 459.403 -381.057 403.491 -321.553L248.908 -157.274L242.287 -150.355L89.4505 15.8027C34.091 75.9001 -55.5691 75.9001 -110.929 15.8027L-263.64 -150.219C-263.688 -150.271 -263.651 -150.355 -263.581 -150.355V-150.355C-263.511 -150.355 -263.474 -150.438 -263.522 -150.49L-379.174 -276.183C-414.21 -314.238 -471.041 -314.238 -506.078 -276.183L-621.945 -150.061C-622.004 -149.996 -622.088 -149.959 -622.176 -149.959V-149.959C-622.264 -149.959 -622.348 -149.922 -622.407 -149.858L-774.783 15.8027C-830.142 75.9001 -919.802 75.9001 -975.162 15.8027L-1128 -150.355L-1133.88 -156.088L-1288.47 -320.367C-1344.38 -379.871 -1344.38 -476.244 -1288.47 -535.749L-1133.79 -699.83L-1016.36 -824.671C-980.955 -862.33 -980.955 -923.416 -1016.36 -961.076L-1133.56 -1085.67C-1133.61 -1085.73 -1133.7 -1085.69 -1133.7 -1085.62V-1085.62C-1133.7 -1085.55 -1133.79 -1085.51 -1133.83 -1085.57L-1288.28 -1249.7C-1344.19 -1309.21 -1344.19 -1405.58 -1288.28 -1465.08L-1133.7 -1629.36L-1127.08 -1636.28L-974.242 -1802.44C-918.883 -1862.54 -829.222 -1862.54 -773.863 -1802.44L-621.151 -1636.42C-621.104 -1636.37 -621.14 -1636.28 -621.211 -1636.28V-1636.28C-621.281 -1636.28 -621.318 -1636.2 -621.27 -1636.15L-505.71 -1510.45C-470.673 -1472.4 -413.842 -1472.4 -378.806 -1510.45L-262.755 -1636.58C-262.695 -1636.64 -262.611 -1636.68 -262.523 -1636.68V-1636.68C-262.436 -1636.68 -262.352 -1636.71 -262.292 -1636.78L-109.917 -1802.44C-54.5576 -1862.54 35.1027 -1862.54 90.4622 -1802.44L243.298 -1636.28L249.184 -1630.55L403.767 -1466.27C459.679 -1406.76 459.679 -1310.39 403.767 -1250.89L249.198 -1086.62C249.151 -1086.57 249.066 -1086.59 249.046 -1086.66V-1086.66Z" stroke="#FF6719" stroke-width="1.75" stroke-miterlimit="10" stroke-linecap="round"/>
<path d="M249.046 -1086.66C249.025 -1086.72 248.941 -1086.74 248.893 -1086.69L131.568 -961.965C96.1636 -924.306 96.1636 -863.22 131.568 -825.56L248.772 -700.963C248.821 -700.911 248.908 -700.945 248.908 -701.016V-701.016C248.908 -701.087 248.995 -701.122 249.043 -701.07L403.491 -536.935C459.403 -477.43 459.403 -381.057 403.491 -321.553L248.908 -157.274L242.287 -150.355L89.4505 15.8027C34.091 75.9001 -55.5691 75.9001 -110.929 15.8027L-263.64 -150.219C-263.688 -150.271 -263.651 -150.355 -263.581 -150.355V-150.355C-263.511 -150.355 -263.474 -150.438 -263.522 -150.49L-379.174 -276.183C-414.21 -314.238 -471.041 -314.238 -506.078 -276.183L-621.945 -150.061C-622.004 -149.996 -622.088 -149.959 -622.176 -149.959V-149.959C-622.264 -149.959 -622.348 -149.922 -622.407 -149.858L-774.783 15.8027C-830.142 75.9001 -919.802 75.9001 -975.162 15.8027L-1128 -150.355L-1133.88 -156.088L-1288.47 -320.367C-1344.38 -379.871 -1344.38 -476.244 -1288.47 -535.749L-1133.79 -699.83L-1016.36 -824.671C-980.955 -862.33 -980.955 -923.416 -1016.36 -961.076L-1133.56 -1085.67C-1133.61 -1085.73 -1133.7 -1085.69 -1133.7 -1085.62V-1085.62C-1133.7 -1085.55 -1133.79 -1085.51 -1133.83 -1085.57L-1288.28 -1249.7C-1344.19 -1309.21 -1344.19 -1405.58 -1288.28 -1465.08L-1133.7 -1629.36L-1127.08 -1636.28L-974.242 -1802.44C-918.883 -1862.54 -829.222 -1862.54 -773.863 -1802.44L-621.151 -1636.42C-621.104 -1636.37 -621.14 -1636.28 -621.211 -1636.28V-1636.28C-621.281 -1636.28 -621.318 -1636.2 -621.27 -1636.15L-505.71 -1510.45C-470.673 -1472.4 -413.842 -1472.4 -378.806 -1510.45L-262.755 -1636.58C-262.695 -1636.64 -262.611 -1636.68 -262.523 -1636.68V-1636.68C-262.436 -1636.68 -262.352 -1636.71 -262.292 -1636.78L-109.917 -1802.44C-54.5576 -1862.54 35.1027 -1862.54 90.4622 -1802.44L243.298 -1636.28L249.184 -1630.55L403.767 -1466.27C459.679 -1406.76 459.679 -1310.39 403.767 -1250.89L249.198 -1086.62C249.151 -1086.57 249.066 -1086.59 249.046 -1086.66V-1086.66Z" stroke="#FF6719" stroke-width="1.75" stroke-miterlimit="10" stroke-linecap="round"/>
<path d="M242.426 -1084.83C242.404 -1084.88 242.341 -1084.89 242.305 -1084.85L126.052 -961.273C90.9233 -924.008 90.9233 -863.516 126.052 -826.152L242.153 -702.741C242.201 -702.689 242.288 -702.724 242.288 -702.795V-702.795C242.288 -702.866 242.375 -702.9 242.424 -702.849L395.4 -540.295C450.852 -481.384 450.852 -385.9 395.4 -326.989L242.38 -164.291L235.851 -157.471L84.4862 7.10505C29.6785 66.7082 -59.1542 66.7082 -113.962 7.10505L-265.202 -157.335C-265.25 -157.387 -265.213 -157.471 -265.143 -157.471V-157.471C-265.073 -157.471 -265.036 -157.554 -265.084 -157.606L-379.724 -282.015C-414.393 -319.773 -470.672 -319.773 -505.432 -282.015L-620.319 -157.143C-620.359 -157.1 -620.415 -157.075 -620.473 -157.075V-157.075C-620.532 -157.075 -620.588 -157.051 -620.628 -157.008L-771.654 7.10504C-826.462 66.7082 -915.295 66.7082 -970.102 7.10504L-1121.47 -157.471L-1127.26 -163.204L-1280.37 -325.901C-1335.82 -384.813 -1335.82 -480.296 -1280.37 -539.207L-1127.17 -701.708L-1010.84 -825.362C-975.712 -862.626 -975.712 -923.119 -1010.84 -960.482L-1126.98 -1083.93C-1127.01 -1083.97 -1127.08 -1083.94 -1127.08 -1083.89V-1083.89C-1127.08 -1083.84 -1127.14 -1083.81 -1127.18 -1083.85L-1280.19 -1246.44C-1335.64 -1305.35 -1335.64 -1400.83 -1280.19 -1459.74L-1127.08 -1622.44L-1120.55 -1629.26L-969.183 -1793.74C-914.375 -1853.34 -825.542 -1853.34 -770.735 -1793.74L-619.494 -1629.3C-619.447 -1629.25 -619.483 -1629.16 -619.554 -1629.16V-1629.16C-619.624 -1629.16 -619.661 -1629.08 -619.613 -1629.03L-505.064 -1504.52C-470.396 -1466.76 -414.117 -1466.76 -379.356 -1504.52L-264.377 -1629.49C-264.338 -1629.53 -264.282 -1629.56 -264.223 -1629.56V-1629.56C-264.165 -1629.56 -264.109 -1629.58 -264.069 -1629.63L-113.134 -1793.74C-58.3265 -1853.34 30.5061 -1853.34 85.3138 -1793.74L236.679 -1629.16L242.472 -1623.43L395.584 -1460.73C451.036 -1401.82 451.036 -1306.34 395.584 -1247.43L242.547 -1084.81C242.511 -1084.77 242.448 -1084.78 242.426 -1084.83V-1084.83Z" stroke="#FF6719" stroke-width="1.75" stroke-miterlimit="10" stroke-linecap="round"/>
<path d="M242.426 -1084.83C242.404 -1084.88 242.341 -1084.89 242.305 -1084.85L126.052 -961.273C90.9233 -924.008 90.9233 -863.516 126.052 -826.152L242.153 -702.741C242.201 -702.689 242.288 -702.724 242.288 -702.795V-702.795C242.288 -702.866 242.375 -702.9 242.424 -702.849L395.4 -540.295C450.852 -481.384 450.852 -385.9 395.4 -326.989L242.38 -164.291L235.851 -157.471L84.4862 7.10505C29.6785 66.7082 -59.1542 66.7082 -113.962 7.10505L-265.202 -157.335C-265.25 -157.387 -265.213 -157.471 -265.143 -157.471V-157.471C-265.073 -157.471 -265.036 -157.554 -265.084 -157.606L-379.724 -282.015C-414.393 -319.773 -470.672 -319.773 -505.432 -282.015L-620.319 -157.143C-620.359 -157.1 -620.415 -157.075 -620.473 -157.075V-157.075C-620.532 -157.075 -620.588 -157.051 -620.628 -157.008L-771.654 7.10504C-826.462 66.7082 -915.295 66.7082 -970.102 7.10504L-1121.47 -157.471L-1127.26 -163.204L-1280.37 -325.901C-1335.82 -384.813 -1335.82 -480.296 -1280.37 -539.207L-1127.17 -701.708L-1010.84 -825.362C-975.712 -862.626 -975.712 -923.119 -1010.84 -960.482L-1126.98 -1083.93C-1127.01 -1083.97 -1127.08 -1083.94 -1127.08 -1083.89V-1083.89C-1127.08 -1083.84 -1127.14 -1083.81 -1127.18 -1083.85L-1280.19 -1246.44C-1335.64 -1305.35 -1335.64 -1400.83 -1280.19 -1459.74L-1127.08 -1622.44L-1120.55 -1629.26L-969.183 -1793.74C-914.375 -1853.34 -825.542 -1853.34 -770.735 -1793.74L-619.494 -1629.3C-619.447 -1629.25 -619.483 -1629.16 -619.554 -1629.16V-1629.16C-619.624 -1629.16 -619.661 -1629.08 -619.613 -1629.03L-505.064 -1504.52C-470.396 -1466.76 -414.117 -1466.76 -379.356 -1504.52L-264.377 -1629.49C-264.338 -1629.53 -264.282 -1629.56 -264.223 -1629.56V-1629.56C-264.165 -1629.56 -264.109 -1629.58 -264.069 -1629.63L-113.134 -1793.74C-58.3265 -1853.34 30.5061 -1853.34 85.3138 -1793.74L236.679 -1629.16L242.472 -1623.43L395.584 -1460.73C451.036 -1401.82 451.036 -1306.34 395.584 -1247.43L242.547 -1084.81C242.511 -1084.77 242.448 -1084.78 242.426 -1084.83V-1084.83Z" stroke="#FF6719" stroke-width="1.75" stroke-miterlimit="10" stroke-linecap="round"/>
<path d="M-nan -nanL235.853 -1083.05L120.628 -960.581C85.8673 -923.613 85.8673 -863.714 120.628 -826.746L235.659 -704.485C235.696 -704.446 235.761 -704.472 235.761 -704.525V-704.525C235.761 -704.578 235.826 -704.604 235.863 -704.565L387.402 -543.557C442.301 -485.239 442.301 -390.645 387.402 -332.327L235.761 -171.21L229.324 -164.489L79.4302 -1.4946C25.1742 57.5155 -62.8309 57.5155 -117.087 -1.49461L-266.856 -164.354C-266.904 -164.405 -266.867 -164.489 -266.797 -164.489V-164.489C-266.726 -164.489 -266.69 -164.573 -266.737 -164.624L-380.182 -287.946C-414.575 -325.309 -470.302 -325.309 -504.695 -287.946L-618.57 -164.161C-618.61 -164.118 -618.666 -164.094 -618.725 -164.094V-164.094C-618.783 -164.094 -618.839 -164.069 -618.879 -164.026L-768.434 -1.49461C-822.69 57.5155 -910.695 57.5155 -964.951 -1.49461L-1114.84 -164.489L-1120.55 -170.123L-1272.19 -331.239C-1327.09 -389.557 -1327.09 -484.151 -1272.19 -542.47L-1120.45 -703.388L-1005.23 -825.856C-970.469 -862.824 -970.469 -922.724 -1005.23 -959.692L-1120.26 -1081.95C-1120.3 -1081.99 -1120.36 -1081.97 -1120.36 -1081.91V-1081.91C-1120.36 -1081.86 -1120.43 -1081.83 -1120.46 -1081.87L-1272 -1242.88C-1326.9 -1301.2 -1326.9 -1395.79 -1272 -1454.11L-1120.36 -1615.23L-1113.93 -1621.95L-964.032 -1784.94C-909.776 -1843.95 -821.771 -1843.95 -767.515 -1784.94L-617.745 -1622.08C-617.698 -1622.03 -617.735 -1621.95 -617.805 -1621.95V-1621.95C-617.875 -1621.95 -617.912 -1621.86 -617.864 -1621.81L-504.511 -1498.69C-470.118 -1461.33 -414.391 -1461.33 -379.998 -1498.69L-266.123 -1622.47C-266.083 -1622.52 -266.027 -1622.54 -265.969 -1622.54V-1622.54C-265.91 -1622.54 -265.854 -1622.57 -265.815 -1622.61L-116.259 -1785.14C-62.0032 -1844.15 26.0018 -1844.15 80.2577 -1785.14L230.151 -1622.15L235.853 -1616.51L387.494 -1455.4C442.393 -1397.08 442.393 -1302.48 387.494 -1244.17L235.853 -1083.05L-nan -nanL-nan -nanZ" stroke="#FF6719" stroke-width="1.75" stroke-miterlimit="10" stroke-linecap="round"/>
<path d="M-nan -nanL235.853 -1083.05L120.628 -960.581C85.8673 -923.613 85.8673 -863.714 120.628 -826.746L235.659 -704.485C235.696 -704.446 235.761 -704.472 235.761 -704.525V-704.525C235.761 -704.578 235.826 -704.604 235.863 -704.565L387.402 -543.557C442.301 -485.239 442.301 -390.645 387.402 -332.327L235.761 -171.21L229.324 -164.489L79.4302 -1.4946C25.1742 57.5155 -62.8309 57.5155 -117.087 -1.49461L-266.856 -164.354C-266.904 -164.405 -266.867 -164.489 -266.797 -164.489V-164.489C-266.726 -164.489 -266.69 -164.573 -266.737 -164.624L-380.182 -287.946C-414.575 -325.309 -470.302 -325.309 -504.695 -287.946L-618.57 -164.161C-618.61 -164.118 -618.666 -164.094 -618.725 -164.094V-164.094C-618.783 -164.094 -618.839 -164.069 -618.879 -164.026L-768.434 -1.49461C-822.69 57.5155 -910.695 57.5155 -964.951 -1.49461L-1114.84 -164.489L-1120.55 -170.123L-1272.19 -331.239C-1327.09 -389.557 -1327.09 -484.151 -1272.19 -542.47L-1120.45 -703.388L-1005.23 -825.856C-970.469 -862.824 -970.469 -922.724 -1005.23 -959.692L-1120.26 -1081.95C-1120.3 -1081.99 -1120.36 -1081.97 -1120.36 -1081.91V-1081.91C-1120.36 -1081.86 -1120.43 -1081.83 -1120.46 -1081.87L-1272 -1242.88C-1326.9 -1301.2 -1326.9 -1395.79 -1272 -1454.11L-1120.36 -1615.23L-1113.93 -1621.95L-964.032 -1784.94C-909.776 -1843.95 -821.771 -1843.95 -767.515 -1784.94L-617.745 -1622.08C-617.698 -1622.03 -617.735 -1621.95 -617.805 -1621.95V-1621.95C-617.875 -1621.95 -617.912 -1621.86 -617.864 -1621.81L-504.511 -1498.69C-470.118 -1461.33 -414.391 -1461.33 -379.998 -1498.69L-266.123 -1622.47C-266.083 -1622.52 -266.027 -1622.54 -265.969 -1622.54V-1622.54C-265.91 -1622.54 -265.854 -1622.57 -265.815 -1622.61L-116.259 -1785.14C-62.0032 -1844.15 26.0018 -1844.15 80.2577 -1785.14L230.151 -1622.15L235.853 -1616.51L387.494 -1455.4C442.393 -1397.08 442.393 -1302.48 387.494 -1244.17L235.853 -1083.05L-nan -nanL-nan -nanZ" stroke="#FF6719" stroke-width="1.75" stroke-miterlimit="10" stroke-linecap="round"/>
<path d="M229.318 -1081.07C229.274 -1081.17 229.148 -1081.19 229.077 -1081.11L115.197 -959.988C80.8037 -923.415 80.8037 -864.109 115.197 -827.536L229.124 -706.461C229.161 -706.422 229.226 -706.448 229.226 -706.501V-706.501C229.226 -706.554 229.291 -706.58 229.328 -706.542L379.396 -547.016C433.743 -489.192 433.743 -395.586 379.396 -337.762L229.226 -178.129L222.789 -171.407L74.2746 -9.99462C20.4785 48.4224 -66.6069 48.4224 -120.403 -9.99463L-268.793 -171.272C-268.84 -171.324 -268.804 -171.407 -268.733 -171.407V-171.407C-268.663 -171.407 -268.626 -171.491 -268.674 -171.543L-380.924 -293.777C-414.949 -330.745 -470.124 -330.745 -504.149 -293.777L-616.921 -171.277C-616.96 -171.234 -617.016 -171.21 -617.075 -171.21V-171.21C-617.134 -171.21 -617.19 -171.185 -617.229 -171.142L-765.313 -10.1923C-819.109 48.2247 -906.195 48.2247 -959.991 -10.1923L-1108.51 -171.605L-1114.21 -177.239L-1264.38 -336.873C-1318.72 -394.697 -1318.72 -488.302 -1264.38 -546.126L-1114.11 -705.562L-1000.09 -826.844C-965.693 -863.417 -965.693 -922.723 -1000.09 -959.296L-1114.01 -1080.37C-1114.05 -1080.41 -1114.11 -1080.38 -1114.11 -1080.33V-1080.33C-1114.11 -1080.28 -1114.18 -1080.25 -1114.22 -1080.29L-1264.28 -1239.82C-1318.63 -1297.64 -1318.63 -1391.25 -1264.28 -1449.07L-1114.02 -1608.41L-1107.59 -1615.13L-959.071 -1776.44C-905.275 -1834.86 -818.19 -1834.86 -764.394 -1776.44L-616.004 -1615.16C-615.956 -1615.11 -615.993 -1615.03 -616.063 -1615.03V-1615.03C-616.134 -1615.03 -616.17 -1614.95 -616.123 -1614.89L-503.873 -1492.86C-469.848 -1455.89 -414.673 -1455.89 -380.648 -1492.86L-267.876 -1615.36C-267.836 -1615.4 -267.78 -1615.42 -267.722 -1615.42V-1615.42C-267.663 -1615.42 -267.607 -1615.45 -267.568 -1615.49L-119.483 -1776.44C-65.6873 -1834.86 21.3981 -1834.86 75.1943 -1776.44L223.708 -1615.03L229.41 -1609.39L379.579 -1449.76C433.927 -1391.94 433.927 -1298.33 379.579 -1240.51L229.559 -1081.03C229.488 -1080.96 229.362 -1080.98 229.318 -1081.07V-1081.07Z" stroke="#FF6719" stroke-width="1.75" stroke-miterlimit="10" stroke-linecap="round"/>
<path d="M229.318 -1081.07C229.274 -1081.17 229.148 -1081.19 229.077 -1081.11L115.197 -959.988C80.8037 -923.415 80.8037 -864.109 115.197 -827.536L229.124 -706.461C229.161 -706.422 229.226 -706.448 229.226 -706.501V-706.501C229.226 -706.554 229.291 -706.58 229.328 -706.542L379.396 -547.016C433.743 -489.192 433.743 -395.586 379.396 -337.762L229.226 -178.129L222.789 -171.407L74.2746 -9.99462C20.4785 48.4224 -66.6069 48.4224 -120.403 -9.99463L-268.793 -171.272C-268.84 -171.324 -268.804 -171.407 -268.733 -171.407V-171.407C-268.663 -171.407 -268.626 -171.491 -268.674 -171.543L-380.924 -293.777C-414.949 -330.745 -470.124 -330.745 -504.149 -293.777L-616.921 -171.277C-616.96 -171.234 -617.016 -171.21 -617.075 -171.21V-171.21C-617.134 -171.21 -617.19 -171.185 -617.229 -171.142L-765.313 -10.1923C-819.109 48.2247 -906.195 48.2247 -959.991 -10.1923L-1108.51 -171.605L-1114.21 -177.239L-1264.38 -336.873C-1318.72 -394.697 -1318.72 -488.302 -1264.38 -546.126L-1114.11 -705.562L-1000.09 -826.844C-965.693 -863.417 -965.693 -922.723 -1000.09 -959.296L-1114.01 -1080.37C-1114.05 -1080.41 -1114.11 -1080.38 -1114.11 -1080.33V-1080.33C-1114.11 -1080.28 -1114.18 -1080.25 -1114.22 -1080.29L-1264.28 -1239.82C-1318.63 -1297.64 -1318.63 -1391.25 -1264.28 -1449.07L-1114.02 -1608.41L-1107.59 -1615.13L-959.071 -1776.44C-905.275 -1834.86 -818.19 -1834.86 -764.394 -1776.44L-616.004 -1615.16C-615.956 -1615.11 -615.993 -1615.03 -616.063 -1615.03V-1615.03C-616.134 -1615.03 -616.17 -1614.95 -616.123 -1614.89L-503.873 -1492.86C-469.848 -1455.89 -414.673 -1455.89 -380.648 -1492.86L-267.876 -1615.36C-267.836 -1615.4 -267.78 -1615.42 -267.722 -1615.42V-1615.42C-267.663 -1615.42 -267.607 -1615.45 -267.568 -1615.49L-119.483 -1776.44C-65.6873 -1834.86 21.3981 -1834.86 75.1943 -1776.44L223.708 -1615.03L229.41 -1609.39L379.579 -1449.76C433.927 -1391.94 433.927 -1298.33 379.579 -1240.51L229.559 -1081.03C229.488 -1080.96 229.362 -1080.98 229.318 -1081.07V-1081.07Z" stroke="#FF6719" stroke-width="1.75" stroke-miterlimit="10" stroke-linecap="round"/>
<path d="M222.745 -1079.29C222.723 -1079.34 222.66 -1079.35 222.624 -1079.31L109.773 -959.297C75.6561 -923.021 75.6561 -864.307 109.773 -828.13L222.505 -708.241C222.542 -708.203 222.607 -708.228 222.607 -708.282V-708.282C222.607 -708.335 222.672 -708.361 222.709 -708.322L371.305 -550.378C425.101 -493.147 425.101 -400.431 371.305 -343.2L222.607 -185.247L216.262 -178.624L69.2188 -18.793C15.9744 39.0309 -70.2833 39.0309 -123.528 -18.793L-270.446 -178.489C-270.494 -178.541 -270.457 -178.624 -270.387 -178.624V-178.624C-270.316 -178.624 -270.28 -178.708 -270.327 -178.76L-381.565 -299.61C-415.314 -336.281 -469.938 -336.281 -503.595 -299.61L-615.171 -178.297C-615.211 -178.253 -615.267 -178.229 -615.326 -178.229V-178.229C-615.384 -178.229 -615.44 -178.204 -615.48 -178.161L-762.185 -18.793C-815.429 39.0309 -901.687 39.0309 -954.931 -18.793L-1101.97 -178.624L-1107.58 -184.16L-1256.28 -342.212C-1310.08 -399.443 -1310.08 -492.158 -1256.28 -549.389L-1107.49 -707.244L-994.566 -827.34C-960.449 -863.615 -960.449 -922.329 -994.566 -958.506L-1107.39 -1078.4C-1107.43 -1078.43 -1107.49 -1078.41 -1107.49 -1078.35V-1078.35C-1107.49 -1078.3 -1107.56 -1078.28 -1107.59 -1078.31L-1256.1 -1236.16C-1309.89 -1293.39 -1309.89 -1386.11 -1256.1 -1443.34L-1107.4 -1601.39L-1101.05 -1608.01L-954.012 -1767.84C-900.767 -1825.67 -814.509 -1825.67 -761.265 -1767.84L-614.347 -1608.15C-614.299 -1608.1 -614.336 -1608.01 -614.406 -1608.01V-1608.01C-614.476 -1608.01 -614.513 -1607.93 -614.465 -1607.88L-503.227 -1487.03C-469.478 -1450.36 -414.855 -1450.36 -381.197 -1487.03L-269.529 -1608.34C-269.49 -1608.38 -269.434 -1608.41 -269.375 -1608.41V-1608.41C-269.316 -1608.41 -269.261 -1608.43 -269.221 -1608.48L-122.608 -1767.84C-69.3637 -1825.67 16.8941 -1825.67 70.1385 -1767.84L217.181 -1608.01L222.791 -1602.48L371.489 -1444.42C425.285 -1387.19 425.285 -1294.48 371.489 -1237.25L222.866 -1079.27C222.83 -1079.24 222.767 -1079.25 222.745 -1079.29V-1079.29Z" stroke="#FF6719" stroke-width="1.75" stroke-miterlimit="10" stroke-linecap="round"/>
<path d="M222.745 -1079.29C222.723 -1079.34 222.66 -1079.35 222.624 -1079.31L109.773 -959.297C75.6561 -923.021 75.6561 -864.307 109.773 -828.13L222.505 -708.241C222.542 -708.203 222.607 -708.228 222.607 -708.282V-708.282C222.607 -708.335 222.672 -708.361 222.709 -708.322L371.305 -550.378C425.101 -493.147 425.101 -400.431 371.305 -343.2L222.607 -185.247L216.262 -178.624L69.2188 -18.793C15.9744 39.0309 -70.2833 39.0309 -123.528 -18.793L-270.446 -178.489C-270.494 -178.541 -270.457 -178.624 -270.387 -178.624V-178.624C-270.316 -178.624 -270.28 -178.708 -270.327 -178.76L-381.565 -299.61C-415.314 -336.281 -469.938 -336.281 -503.595 -299.61L-615.171 -178.297C-615.211 -178.253 -615.267 -178.229 -615.326 -178.229V-178.229C-615.384 -178.229 -615.44 -178.204 -615.48 -178.161L-762.185 -18.793C-815.429 39.0309 -901.687 39.0309 -954.931 -18.793L-1101.97 -178.624L-1107.58 -184.16L-1256.28 -342.212C-1310.08 -399.443 -1310.08 -492.158 -1256.28 -549.389L-1107.49 -707.244L-994.566 -827.34C-960.449 -863.615 -960.449 -922.329 -994.566 -958.506L-1107.39 -1078.4C-1107.43 -1078.43 -1107.49 -1078.41 -1107.49 -1078.35V-1078.35C-1107.49 -1078.3 -1107.56 -1078.28 -1107.59 -1078.31L-1256.1 -1236.16C-1309.89 -1293.39 -1309.89 -1386.11 -1256.1 -1443.34L-1107.4 -1601.39L-1101.05 -1608.01L-954.012 -1767.84C-900.767 -1825.67 -814.509 -1825.67 -761.265 -1767.84L-614.347 -1608.15C-614.299 -1608.1 -614.336 -1608.01 -614.406 -1608.01V-1608.01C-614.476 -1608.01 -614.513 -1607.93 -614.465 -1607.88L-503.227 -1487.03C-469.478 -1450.36 -414.855 -1450.36 -381.197 -1487.03L-269.529 -1608.34C-269.49 -1608.38 -269.434 -1608.41 -269.375 -1608.41V-1608.41C-269.316 -1608.41 -269.261 -1608.43 -269.221 -1608.48L-122.608 -1767.84C-69.3637 -1825.67 16.8941 -1825.67 70.1385 -1767.84L217.181 -1608.01L222.791 -1602.48L371.489 -1444.42C425.285 -1387.19 425.285 -1294.48 371.489 -1237.25L222.866 -1079.27C222.83 -1079.24 222.767 -1079.25 222.745 -1079.29V-1079.29Z" stroke="#FF6719" stroke-width="1.75" stroke-miterlimit="10" stroke-linecap="round"/>
<path d="M216.13 -1077.52C216.108 -1077.56 216.045 -1077.57 216.009 -1077.53L104.262 -958.705C70.5126 -922.824 70.5126 -864.704 104.262 -828.823L215.983 -710.12C216.019 -710.081 216.084 -710.107 216.084 -710.16V-710.16C216.084 -710.214 216.149 -710.24 216.186 -710.201L363.311 -553.838C416.555 -497.2 416.555 -405.374 363.311 -348.736L216.084 -192.265L209.831 -185.742L64.2594 -27.492C11.5667 29.7389 -73.8635 29.7389 -126.556 -27.492L-272.003 -185.606C-272.051 -185.658 -272.014 -185.742 -271.944 -185.742V-185.742C-271.873 -185.742 -271.837 -185.825 -271.884 -185.877L-382.019 -305.541C-415.4 -341.817 -469.472 -341.817 -502.853 -305.541L-613.51 -185.414C-613.55 -185.371 -613.606 -185.346 -613.664 -185.346V-185.346C-613.723 -185.346 -613.779 -185.322 -613.819 -185.279L-758.96 -27.3931C-811.653 29.8378 -897.083 29.8378 -949.776 -27.3931L-1095.35 -185.643L-1100.96 -191.079L-1248.18 -347.55C-1301.43 -404.188 -1301.43 -496.014 -1248.18 -552.652L-1100.86 -708.925L-989.042 -827.835C-955.293 -863.715 -955.293 -921.836 -989.042 -957.716L-1100.76 -1076.52C-1100.8 -1076.56 -1100.86 -1076.53 -1100.86 -1076.48V-1076.48C-1100.86 -1076.42 -1100.93 -1076.4 -1100.97 -1076.44L-1248.09 -1232.8C-1301.34 -1289.44 -1301.34 -1381.26 -1248.09 -1437.9L-1100.86 -1594.37L-1094.61 -1600.9L-948.948 -1759.15C-896.255 -1816.38 -810.825 -1816.38 -758.132 -1759.15L-612.685 -1601.03C-612.638 -1600.98 -612.674 -1600.9 -612.745 -1600.9V-1600.9C-612.815 -1600.9 -612.852 -1600.81 -612.804 -1600.76L-502.67 -1481.1C-469.288 -1444.82 -415.216 -1444.82 -381.835 -1481.1L-271.27 -1601.22C-271.231 -1601.27 -271.175 -1601.29 -271.116 -1601.29V-1601.29C-271.058 -1601.29 -271.002 -1601.32 -270.962 -1601.36L-125.82 -1759.15C-73.1278 -1816.38 12.3024 -1816.38 64.995 -1759.15L210.659 -1600.9L216.268 -1595.46L363.495 -1438.99C416.739 -1382.35 416.739 -1290.53 363.495 -1233.89L216.251 -1077.5C216.215 -1077.46 216.152 -1077.47 216.13 -1077.52V-1077.52Z" stroke="#FF6719" stroke-width="1.75" stroke-miterlimit="10" stroke-linecap="round"/>
<path d="M216.13 -1077.52C216.108 -1077.56 216.045 -1077.57 216.009 -1077.53L104.262 -958.705C70.5126 -922.824 70.5126 -864.704 104.262 -828.823L215.983 -710.12C216.019 -710.081 216.084 -710.107 216.084 -710.16V-710.16C216.084 -710.214 216.149 -710.24 216.186 -710.201L363.311 -553.838C416.555 -497.2 416.555 -405.374 363.311 -348.736L216.084 -192.265L209.831 -185.742L64.2594 -27.492C11.5667 29.7389 -73.8635 29.7389 -126.556 -27.492L-272.003 -185.606C-272.051 -185.658 -272.014 -185.742 -271.944 -185.742V-185.742C-271.873 -185.742 -271.837 -185.825 -271.884 -185.877L-382.019 -305.541C-415.4 -341.817 -469.472 -341.817 -502.853 -305.541L-613.51 -185.414C-613.55 -185.371 -613.606 -185.346 -613.664 -185.346V-185.346C-613.723 -185.346 -613.779 -185.322 -613.819 -185.279L-758.96 -27.3931C-811.653 29.8378 -897.083 29.8378 -949.776 -27.3931L-1095.35 -185.643L-1100.96 -191.079L-1248.18 -347.55C-1301.43 -404.188 -1301.43 -496.014 -1248.18 -552.652L-1100.86 -708.925L-989.042 -827.835C-955.293 -863.715 -955.293 -921.836 -989.042 -957.716L-1100.76 -1076.52C-1100.8 -1076.56 -1100.86 -1076.53 -1100.86 -1076.48V-1076.48C-1100.86 -1076.42 -1100.93 -1076.4 -1100.97 -1076.44L-1248.09 -1232.8C-1301.34 -1289.44 -1301.34 -1381.26 -1248.09 -1437.9L-1100.86 -1594.37L-1094.61 -1600.9L-948.948 -1759.15C-896.255 -1816.38 -810.825 -1816.38 -758.132 -1759.15L-612.685 -1601.03C-612.638 -1600.98 -612.674 -1600.9 -612.745 -1600.9V-1600.9C-612.815 -1600.9 -612.852 -1600.81 -612.804 -1600.76L-502.67 -1481.1C-469.288 -1444.82 -415.216 -1444.82 -381.835 -1481.1L-271.27 -1601.22C-271.231 -1601.27 -271.175 -1601.29 -271.116 -1601.29V-1601.29C-271.058 -1601.29 -271.002 -1601.32 -270.962 -1601.36L-125.82 -1759.15C-73.1278 -1816.38 12.3024 -1816.38 64.995 -1759.15L210.659 -1600.9L216.268 -1595.46L363.495 -1438.99C416.739 -1382.35 416.739 -1290.53 363.495 -1233.89L216.251 -1077.5C216.215 -1077.46 216.152 -1077.47 216.13 -1077.52V-1077.52Z" stroke="#FF6719" stroke-width="1.75" stroke-miterlimit="10" stroke-linecap="round"/>
<path d="M209.641 -1075.64C209.591 -1075.69 209.507 -1075.69 209.457 -1075.64L98.8302 -958.011C65.4489 -922.526 65.4489 -864.899 98.8301 -829.414L209.355 -711.897C209.392 -711.859 209.457 -711.884 209.457 -711.938V-711.938C209.457 -711.991 209.522 -712.017 209.559 -711.978L355.213 -557.197C407.997 -501.152 407.997 -410.215 355.213 -354.072L209.457 -199.183L203.204 -192.659L59.1037 -35.9907C6.96275 20.7459 -77.6398 20.7459 -129.873 -35.9907L-273.848 -192.524C-273.896 -192.575 -273.859 -192.659 -273.789 -192.659V-192.659C-273.719 -192.659 -273.682 -192.743 -273.729 -192.794L-382.761 -311.272C-415.774 -347.153 -469.386 -347.153 -502.4 -311.272L-611.769 -192.43C-611.809 -192.387 -611.865 -192.362 -611.923 -192.362V-192.362C-611.982 -192.362 -612.038 -192.338 -612.077 -192.295L-755.839 -36.0896C-807.98 20.6471 -892.583 20.6471 -944.816 -36.0896L-1088.92 -192.758L-1094.43 -198.194L-1240.19 -353.083C-1292.97 -409.128 -1292.97 -500.065 -1240.19 -556.208L-1094.34 -710.9L-983.622 -828.525C-950.241 -864.01 -950.241 -921.636 -983.622 -957.121L-1094.24 -1074.64C-1094.28 -1074.68 -1094.34 -1074.65 -1094.34 -1074.6V-1074.6C-1094.34 -1074.54 -1094.41 -1074.52 -1094.44 -1074.56L-1240.1 -1229.34C-1292.88 -1285.38 -1292.88 -1376.32 -1240.1 -1432.46L-1094.25 -1587.35L-1088 -1593.88L-943.896 -1750.54C-891.755 -1807.28 -807.153 -1807.28 -754.92 -1750.54L-610.944 -1594.01C-610.896 -1593.96 -610.933 -1593.88 -611.003 -1593.88V-1593.88C-611.074 -1593.88 -611.11 -1593.79 -611.063 -1593.74L-502.032 -1475.26C-469.018 -1439.38 -415.406 -1439.38 -382.393 -1475.26L-272.932 -1594.2C-272.892 -1594.25 -272.836 -1594.27 -272.777 -1594.27V-1594.27C-272.719 -1594.27 -272.663 -1594.3 -272.623 -1594.34L-128.861 -1750.54C-76.7201 -1807.28 7.88247 -1807.28 60.1153 -1750.54L204.215 -1593.88L209.733 -1588.44L355.488 -1433.55C408.273 -1377.51 408.273 -1286.57 355.488 -1230.43L209.825 -1075.63C209.775 -1075.58 209.691 -1075.58 209.641 -1075.64V-1075.64Z" stroke="#FF6719" stroke-width="1.75" stroke-miterlimit="10" stroke-linecap="round"/>
<path d="M209.641 -1075.64C209.591 -1075.69 209.507 -1075.69 209.457 -1075.64L98.8302 -958.011C65.4489 -922.526 65.4489 -864.899 98.8301 -829.414L209.355 -711.897C209.392 -711.859 209.457 -711.884 209.457 -711.938V-711.938C209.457 -711.991 209.522 -712.017 209.559 -711.978L355.213 -557.197C407.997 -501.152 407.997 -410.215 355.213 -354.072L209.457 -199.183L203.204 -192.659L59.1037 -35.9907C6.96275 20.7459 -77.6398 20.7459 -129.873 -35.9907L-273.848 -192.524C-273.896 -192.575 -273.859 -192.659 -273.789 -192.659V-192.659C-273.719 -192.659 -273.682 -192.743 -273.729 -192.794L-382.761 -311.272C-415.774 -347.153 -469.386 -347.153 -502.4 -311.272L-611.769 -192.43C-611.809 -192.387 -611.865 -192.362 -611.923 -192.362V-192.362C-611.982 -192.362 -612.038 -192.338 -612.077 -192.295L-755.839 -36.0896C-807.98 20.6471 -892.583 20.6471 -944.816 -36.0896L-1088.92 -192.758L-1094.43 -198.194L-1240.19 -353.083C-1292.97 -409.128 -1292.97 -500.065 -1240.19 -556.208L-1094.34 -710.9L-983.622 -828.525C-950.241 -864.01 -950.241 -921.636 -983.622 -957.121L-1094.24 -1074.64C-1094.28 -1074.68 -1094.34 -1074.65 -1094.34 -1074.6V-1074.6C-1094.34 -1074.54 -1094.41 -1074.52 -1094.44 -1074.56L-1240.1 -1229.34C-1292.88 -1285.38 -1292.88 -1376.32 -1240.1 -1432.46L-1094.25 -1587.35L-1088 -1593.88L-943.896 -1750.54C-891.755 -1807.28 -807.153 -1807.28 -754.92 -1750.54L-610.944 -1594.01C-610.896 -1593.96 -610.933 -1593.88 -611.003 -1593.88V-1593.88C-611.074 -1593.88 -611.11 -1593.79 -611.063 -1593.74L-502.032 -1475.26C-469.018 -1439.38 -415.406 -1439.38 -382.393 -1475.26L-272.932 -1594.2C-272.892 -1594.25 -272.836 -1594.27 -272.777 -1594.27V-1594.27C-272.719 -1594.27 -272.663 -1594.3 -272.623 -1594.34L-128.861 -1750.54C-76.7201 -1807.28 7.88247 -1807.28 60.1153 -1750.54L204.215 -1593.88L209.733 -1588.44L355.488 -1433.55C408.273 -1377.51 408.273 -1286.57 355.488 -1230.43L209.825 -1075.63C209.775 -1075.58 209.691 -1075.58 209.641 -1075.64V-1075.64Z" stroke="#FF6719" stroke-width="1.75" stroke-miterlimit="10" stroke-linecap="round"/>
<path d="M203.066 -1073.76C203.044 -1073.81 202.981 -1073.82 202.945 -1073.78L93.4043 -957.32C60.299 -922.132 60.299 -865.197 93.4043 -830.009L202.826 -713.678C202.863 -713.639 202.928 -713.665 202.928 -713.718V-713.718C202.928 -713.772 202.993 -713.798 203.029 -713.759L347.212 -560.559C399.445 -505.009 399.445 -415.06 347.212 -359.51L202.928 -206.202L196.766 -199.777L54.1377 -44.6904C2.45662 11.4531 -81.2263 11.4531 -132.907 -44.6904L-275.412 -199.642C-275.459 -199.694 -275.423 -199.777 -275.352 -199.777V-199.777C-275.282 -199.777 -275.245 -199.861 -275.293 -199.913L-383.221 -317.204C-415.958 -352.788 -468.927 -352.788 -501.664 -317.204L-610.022 -199.548C-610.061 -199.505 -610.117 -199.481 -610.176 -199.481V-199.481C-610.235 -199.481 -610.291 -199.456 -610.33 -199.413L-752.713 -44.6905C-804.394 11.4531 -888.077 11.4531 -939.758 -44.6905L-1082.39 -199.777L-1087.81 -205.115L-1232.1 -358.422C-1284.33 -413.973 -1284.33 -503.921 -1232.1 -559.472L-1087.72 -712.582L-978.105 -829.119C-945 -864.308 -945 -921.242 -978.105 -956.431L-1087.53 -1072.76C-1087.56 -1072.8 -1087.63 -1072.77 -1087.63 -1072.72V-1072.72C-1087.63 -1072.67 -1087.69 -1072.64 -1087.73 -1072.68L-1231.91 -1225.88C-1284.15 -1281.43 -1284.15 -1371.38 -1231.91 -1426.93L-1087.63 -1580.24L-1081.47 -1586.66L-938.93 -1741.85C-887.249 -1797.99 -803.566 -1797.99 -751.885 -1741.85L-609.381 -1586.9C-609.333 -1586.84 -609.37 -1586.76 -609.44 -1586.76V-1586.76C-609.511 -1586.76 -609.547 -1586.68 -609.5 -1586.63L-501.572 -1469.33C-468.835 -1433.75 -415.866 -1433.75 -383.128 -1469.33L-274.771 -1587.09C-274.731 -1587.13 -274.675 -1587.16 -274.617 -1587.16V-1587.16C-274.558 -1587.16 -274.502 -1587.18 -274.462 -1587.22L-132.172 -1741.85C-80.4907 -1797.99 3.19226 -1797.99 54.8734 -1741.85L197.502 -1586.76L202.928 -1581.42L347.212 -1428.12C399.445 -1372.57 399.445 -1282.62 347.212 -1227.07L203.186 -1073.74C203.151 -1073.7 203.088 -1073.71 203.066 -1073.76V-1073.76Z" stroke="#FF6719" stroke-width="1.75" stroke-miterlimit="10" stroke-linecap="round"/>
<path d="M203.066 -1073.76C203.044 -1073.81 202.981 -1073.82 202.945 -1073.78L93.4043 -957.32C60.299 -922.132 60.299 -865.197 93.4043 -830.009L202.826 -713.678C202.863 -713.639 202.928 -713.665 202.928 -713.718V-713.718C202.928 -713.772 202.993 -713.798 203.029 -713.759L347.212 -560.559C399.445 -505.009 399.445 -415.06 347.212 -359.51L202.928 -206.202L196.766 -199.777L54.1377 -44.6904C2.45662 11.4531 -81.2263 11.4531 -132.907 -44.6904L-275.412 -199.642C-275.459 -199.694 -275.423 -199.777 -275.352 -199.777V-199.777C-275.282 -199.777 -275.245 -199.861 -275.293 -199.913L-383.221 -317.204C-415.958 -352.788 -468.927 -352.788 -501.664 -317.204L-610.022 -199.548C-610.061 -199.505 -610.117 -199.481 -610.176 -199.481V-199.481C-610.235 -199.481 -610.291 -199.456 -610.33 -199.413L-752.713 -44.6905C-804.394 11.4531 -888.077 11.4531 -939.758 -44.6905L-1082.39 -199.777L-1087.81 -205.115L-1232.1 -358.422C-1284.33 -413.973 -1284.33 -503.921 -1232.1 -559.472L-1087.72 -712.582L-978.105 -829.119C-945 -864.308 -945 -921.242 -978.105 -956.431L-1087.53 -1072.76C-1087.56 -1072.8 -1087.63 -1072.77 -1087.63 -1072.72V-1072.72C-1087.63 -1072.67 -1087.69 -1072.64 -1087.73 -1072.68L-1231.91 -1225.88C-1284.15 -1281.43 -1284.15 -1371.38 -1231.91 -1426.93L-1087.63 -1580.24L-1081.47 -1586.66L-938.93 -1741.85C-887.249 -1797.99 -803.566 -1797.99 -751.885 -1741.85L-609.381 -1586.9C-609.333 -1586.84 -609.37 -1586.76 -609.44 -1586.76V-1586.76C-609.511 -1586.76 -609.547 -1586.68 -609.5 -1586.63L-501.572 -1469.33C-468.835 -1433.75 -415.866 -1433.75 -383.128 -1469.33L-274.771 -1587.09C-274.731 -1587.13 -274.675 -1587.16 -274.617 -1587.16V-1587.16C-274.558 -1587.16 -274.502 -1587.18 -274.462 -1587.22L-132.172 -1741.85C-80.4907 -1797.99 3.19226 -1797.99 54.8734 -1741.85L197.502 -1586.76L202.928 -1581.42L347.212 -1428.12C399.445 -1372.57 399.445 -1282.62 347.212 -1227.07L203.186 -1073.74C203.151 -1073.7 203.088 -1073.71 203.066 -1073.76V-1073.76Z" stroke="#FF6719" stroke-width="1.75" stroke-miterlimit="10" stroke-linecap="round"/>
<path d="M196.448 -1071.93C196.427 -1072 196.343 -1072.01 196.295 -1071.96L87.8898 -956.726C55.1523 -921.933 55.1523 -865.493 87.8898 -830.699L196.208 -715.555C196.245 -715.516 196.31 -715.542 196.31 -715.595V-715.595C196.31 -715.648 196.375 -715.674 196.411 -715.635L339.122 -563.918C390.804 -508.961 390.804 -419.902 339.122 -364.945L196.31 -213.12L190.241 -206.794L48.991 -53.2886C-2.13833 2.2619 -84.9935 2.2619 -136.123 -53.2886L-277.248 -206.659C-277.295 -206.71 -277.259 -206.794 -277.188 -206.794V-206.794C-277.118 -206.794 -277.081 -206.877 -277.129 -206.929L-383.953 -323.035C-416.323 -358.223 -468.831 -358.223 -501.201 -323.035L-608.455 -206.466C-608.495 -206.423 -608.551 -206.398 -608.609 -206.398V-206.398C-608.668 -206.398 -608.724 -206.374 -608.764 -206.331L-749.491 -53.3875C-800.62 2.16305 -883.476 2.16305 -934.605 -53.3875L-1075.85 -206.893L-1081.28 -212.23L-1224.09 -363.956C-1275.77 -418.914 -1275.77 -507.973 -1224.09 -562.93L-1081.19 -714.557L-972.676 -829.909C-939.939 -864.702 -939.939 -921.142 -972.676 -955.935L-1080.99 -1071.08C-1081.03 -1071.12 -1081.1 -1071.09 -1081.1 -1071.04V-1071.04C-1081.1 -1070.99 -1081.16 -1070.96 -1081.2 -1071L-1223.91 -1222.62C-1275.59 -1277.57 -1275.59 -1366.63 -1223.91 -1421.59L-1081.1 -1573.42L-1075.03 -1579.74L-933.777 -1733.25C-882.648 -1788.8 -799.793 -1788.8 -748.663 -1733.25L-607.63 -1579.88C-607.583 -1579.83 -607.62 -1579.74 -607.69 -1579.74V-1579.74C-607.76 -1579.74 -607.797 -1579.66 -607.749 -1579.61L-500.925 -1463.5C-468.556 -1428.31 -416.047 -1428.31 -383.677 -1463.5L-276.423 -1580.07C-276.383 -1580.11 -276.327 -1580.14 -276.269 -1580.14V-1580.14C-276.21 -1580.14 -276.154 -1580.16 -276.115 -1580.2L-135.295 -1733.25C-84.1658 -1788.8 -1.31063 -1788.8 49.8187 -1733.25L191.068 -1579.74L196.494 -1574.4L339.306 -1422.58C390.988 -1367.62 390.988 -1278.56 339.306 -1223.61L196.6 -1071.89C196.553 -1071.84 196.468 -1071.86 196.448 -1071.93V-1071.93Z" stroke="#FF6719" stroke-width="1.75" stroke-miterlimit="10" stroke-linecap="round"/>
<path d="M196.448 -1071.93C196.427 -1072 196.343 -1072.01 196.295 -1071.96L87.8898 -956.726C55.1523 -921.933 55.1523 -865.493 87.8898 -830.699L196.208 -715.555C196.245 -715.516 196.31 -715.542 196.31 -715.595V-715.595C196.31 -715.648 196.375 -715.674 196.411 -715.635L339.122 -563.918C390.804 -508.961 390.804 -419.902 339.122 -364.945L196.31 -213.12L190.241 -206.794L48.991 -53.2886C-2.13833 2.2619 -84.9935 2.2619 -136.123 -53.2886L-277.248 -206.659C-277.295 -206.71 -277.259 -206.794 -277.188 -206.794V-206.794C-277.118 -206.794 -277.081 -206.877 -277.129 -206.929L-383.953 -323.035C-416.323 -358.223 -468.831 -358.223 -501.201 -323.035L-608.455 -206.466C-608.495 -206.423 -608.551 -206.398 -608.609 -206.398V-206.398C-608.668 -206.398 -608.724 -206.374 -608.764 -206.331L-749.491 -53.3875C-800.62 2.16305 -883.476 2.16305 -934.605 -53.3875L-1075.85 -206.893L-1081.28 -212.23L-1224.09 -363.956C-1275.77 -418.914 -1275.77 -507.973 -1224.09 -562.93L-1081.19 -714.557L-972.676 -829.909C-939.939 -864.702 -939.939 -921.142 -972.676 -955.935L-1080.99 -1071.08C-1081.03 -1071.12 -1081.1 -1071.09 -1081.1 -1071.04V-1071.04C-1081.1 -1070.99 -1081.16 -1070.96 -1081.2 -1071L-1223.91 -1222.62C-1275.59 -1277.57 -1275.59 -1366.63 -1223.91 -1421.59L-1081.1 -1573.42L-1075.03 -1579.74L-933.777 -1733.25C-882.648 -1788.8 -799.793 -1788.8 -748.663 -1733.25L-607.63 -1579.88C-607.583 -1579.83 -607.62 -1579.74 -607.69 -1579.74V-1579.74C-607.76 -1579.74 -607.797 -1579.66 -607.749 -1579.61L-500.925 -1463.5C-468.556 -1428.31 -416.047 -1428.31 -383.677 -1463.5L-276.423 -1580.07C-276.383 -1580.11 -276.327 -1580.14 -276.269 -1580.14V-1580.14C-276.21 -1580.14 -276.154 -1580.16 -276.115 -1580.2L-135.295 -1733.25C-84.1658 -1788.8 -1.31063 -1788.8 49.8187 -1733.25L191.068 -1579.74L196.494 -1574.4L339.306 -1422.58C390.988 -1367.62 390.988 -1278.56 339.306 -1223.61L196.6 -1071.89C196.553 -1071.84 196.468 -1071.86 196.448 -1071.93V-1071.93Z" stroke="#FF6719" stroke-width="1.75" stroke-miterlimit="10" stroke-linecap="round"/>
</g>
<defs>
<linearGradient id="paint0_linear" x1="-0.594555" y1="58.5139" x2="184.597" y2="58.5139" gradientUnits="userSpaceOnUse">
<stop stop-color="#B480FF"/>
<stop offset="0.604167" stop-color="#5F00E6"/>
<stop offset="0.859375" stop-color="#1AA4FF" stop-opacity="0.49"/>
<stop offset="1" stop-color="#28B86A" stop-opacity="0.27"/>
</linearGradient>
</defs>
</svg>
