<svg width="1117" height="381" viewBox="0 0 1117 381" fill="none" xmlns="http://www.w3.org/2000/svg">
<g clip-path="url(#clip0_12948_9)">
<mask id="mask0_12948_9" style="mask-type:luminance" maskUnits="userSpaceOnUse" x="0" y="0" width="381" height="381">
<path d="M293.363 0H87.2256C39.0522 0 0 39.0944 0 87.3198V293.68C0 341.906 39.0522 381 87.2256 381H293.363C341.537 381 380.589 341.906 380.589 293.68V87.3198C380.589 39.0944 341.537 0 293.363 0Z" fill="white"/>
</mask>
<g mask="url(#mask0_12948_9)">
<path d="M170.798 284.628C153.639 234.07 117.805 190.744 71.6914 164.404C69.6589 163.242 67.5102 162.719 65.3905 162.719L65.3339 162.66C58.6438 162.645 52.4619 168.066 52.5868 175.508C52.5897 233.726 75.3675 286.593 112.514 325.722C99.8396 342.091 92.081 361.222 89.0002 381H235.478C232.34 376.859 230.454 371.712 230.454 366.111C230.454 352.483 241.49 341.434 255.104 341.434C268.718 341.434 279.755 352.483 279.755 366.111C279.755 371.712 277.869 376.859 274.73 381H332.321C331.629 376.953 330.755 372.867 329.649 368.74C312.364 301.494 236.219 260.316 170.798 284.628Z" fill="#F87F2E"/>
<path d="M0 0V381H59.1549C60.2684 372.635 62.0469 364.393 64.5194 356.329C64.7256 355.637 64.9317 354.945 65.148 354.257C65.5473 353.021 65.9814 351.794 66.4126 350.566C69.0056 342.995 72.1096 335.622 75.8727 328.512C41.6705 285 23.087 231.518 23.087 175.595C22.9709 152.242 42.0044 133.152 65.3905 133.158H65.5647C72.8819 133.158 80.1121 135.105 86.5001 138.739C103.684 148.492 119.664 160.578 134.062 174.385C136.471 160.087 140.293 145.818 145.73 131.792C149.244 122.723 161.322 120.892 167.448 128.449C195.183 162.497 212.134 204.406 215.812 248.385C220.053 248.539 224.266 248.809 228.417 249.294C229.382 249.402 230.342 249.536 231.306 249.662C232.302 249.798 233.306 249.911 234.297 250.066C234.45 250.09 234.606 250.105 234.76 250.129C234.76 250.136 234.758 250.142 234.758 250.149C301.04 260.724 353.241 314.104 362.104 381H380.589V0H0Z" fill="#F87F2E"/>
</g>
<path d="M507.915 235.596C511.184 242.247 515.743 247.255 521.591 250.627C527.436 254.002 534.326 255.688 542.256 255.688C553.949 255.688 563.264 251.868 570.205 244.226C577.142 236.59 580.612 225.428 580.612 210.74V69.0566H615.103V209.847C615.103 226.12 612.028 240.014 605.886 251.519C599.74 263.03 591.168 271.663 580.166 277.416C569.164 283.174 556.528 286.046 542.256 286.046C527.784 286.046 515.05 283.174 504.048 277.416C493.048 271.663 484.47 263.129 478.329 251.816C472.182 240.505 469.111 226.916 469.111 211.039V204.49H503.007V210.74C503.007 220.667 504.644 228.948 507.915 235.596Z" fill="#F87F2E"/>
<path d="M677.985 275.779C666.19 268.931 657.023 259.457 650.482 247.351C643.941 235.25 640.67 221.559 640.67 206.275C640.67 190.996 643.987 177.355 650.631 165.347C657.27 153.345 666.436 143.915 678.135 137.07C689.828 130.224 703.11 126.8 717.977 126.8C732.844 126.8 746.173 130.224 757.969 137.07C769.76 143.915 779.028 153.394 785.769 165.495C792.505 177.602 795.88 191.197 795.88 206.275C795.88 221.559 792.505 235.25 785.769 247.351C779.028 259.457 769.76 268.931 757.969 275.779C746.173 282.625 732.844 286.046 717.977 286.046C703.11 286.046 689.777 282.625 677.985 275.779ZM741.318 251.222C747.957 246.859 753.161 240.758 756.928 232.915C760.692 225.079 762.577 216.201 762.577 206.275C762.577 196.354 760.692 187.523 756.928 179.785C753.161 172.044 747.859 165.995 741.021 161.626C734.183 157.263 726.498 155.077 717.977 155.077C709.252 155.077 701.522 157.263 694.786 161.626C688.043 165.995 682.84 172.096 679.176 179.933C675.505 187.773 673.675 196.554 673.675 206.275C673.675 216.396 675.505 225.326 679.176 233.064C682.84 240.804 688.043 246.859 694.786 251.222C701.522 255.588 709.355 257.769 718.275 257.769C726.994 257.769 734.675 255.588 741.318 251.222Z" fill="#F87F2E"/>
<path d="M857.722 244.374C865.848 253.705 876.85 258.364 890.726 258.364C900.436 258.364 908.716 256.184 915.554 251.815C922.392 247.455 926.704 241.397 928.488 233.66H960.302C958.52 244.575 954.402 254.001 947.963 261.937C941.52 269.875 933.292 275.881 923.285 279.945C913.273 284.011 902.123 286.046 889.835 286.046C874.174 286.046 860.593 282.378 849.099 275.035C837.601 267.695 828.83 257.969 822.785 245.862C816.737 233.761 813.717 220.562 813.717 206.275C813.717 191.988 816.588 178.794 822.339 166.687C828.087 154.586 836.612 144.912 847.91 137.665C859.208 130.425 872.687 126.8 888.348 126.8C903.61 126.8 916.79 130.224 927.893 137.07C938.992 143.915 947.369 152.996 953.019 164.306C958.668 175.617 961.39 187.819 961.195 200.917C961.195 204.69 960.995 209.056 960.6 214.015H832.448V188.415H926.406C925.813 181.471 923.978 175.274 920.905 169.812C917.83 164.356 913.519 160.091 907.973 157.013C902.421 153.938 895.879 152.4 888.348 152.4C879.428 152.4 871.744 154.534 865.305 158.798C858.86 163.068 853.954 169.216 850.586 177.253C847.213 185.29 845.532 194.769 845.532 205.679C845.532 222.154 849.591 235.049 857.722 244.374Z" fill="#F87F2E"/>
<path d="M968.035 129.184H1001.04L1044.75 250.327L1031.07 291.107L968.035 129.184ZM1117 129.184L1053.96 294.083C1048.21 309.161 1040.93 320.872 1032.11 329.206C1023.29 337.543 1011.34 341.708 996.282 341.708C992.909 341.708 989.49 341.412 986.024 340.816C982.553 340.22 979.432 339.522 976.657 338.732V310.754C979.037 311.545 981.564 312.19 984.24 312.687C986.916 313.181 990.037 313.431 993.606 313.431C999.352 313.431 1004.41 312.437 1008.77 310.455C1013.13 308.469 1016.99 305.344 1020.37 301.08C1023.73 296.81 1026.91 290.409 1029.88 281.881L1084 129.184H1117Z" fill="#F87F2E"/>
</g>
<defs>
<clipPath id="clip0_12948_9">
<rect width="1117" height="381" fill="white"/>
</clipPath>
</defs>
</svg>
