<svg width="1451" height="560" viewBox="0 0 1451 560" fill="none" xmlns="http://www.w3.org/2000/svg">
<g clip-path="url(#clip0_7282_5658)">
<path d="M373.077 264.699C388.353 325.805 376.381 366.788 342.176 377.597C307.97 388.406 266.142 364.505 250.777 303.927C235.413 243.349 249.044 201.923 283.25 191.115C317.456 180.306 357.8 203.593 373.077 264.699Z" stroke="url(#paint0_linear_7282_5658)" stroke-width="7.02466"/>
<path d="M389.485 247.143C404.703 299.068 404.554 357.564 357.801 374.667C313.338 394.435 260.161 381.906 234.958 321.016C209.755 260.126 220.901 212.828 265.474 190.487C310.048 168.147 374.267 195.218 389.485 247.143Z" stroke="url(#paint1_linear_7282_5658)" stroke-width="7.02466"/>
<path d="M384.441 210.321C421.4 243.125 436.267 325.937 394.067 361.816C351.867 397.694 282.615 397.695 240.139 361.454C197.662 325.214 184.7 252.728 225.575 208.265C266.45 163.803 347.482 177.518 384.441 210.321Z" stroke="url(#paint2_linear_7282_5658)" stroke-width="7.02466"/>
<path d="M351.216 182.479C423.796 200.3 460.413 278.059 433.35 331.499C406.288 384.939 343.339 402.966 273.068 385.654C202.797 368.342 162.513 306.785 184.106 245.219C205.699 183.654 278.635 164.658 351.216 182.479Z" stroke="url(#paint3_linear_7282_5658)" stroke-width="7.02466"/>
<path d="M354.637 178.606C444.49 196.978 480.135 272.342 455.697 326.321C431.259 380.3 352.829 405.757 271.356 390.481C189.883 375.204 138.979 315.802 161.365 251.975C183.752 188.149 264.783 160.233 354.637 178.606Z" stroke="url(#paint4_linear_7282_5658)" stroke-width="7.02466"/>
</g>
<path d="M579.556 306.435C570.599 306.435 562.619 304.655 555.614 301.096C548.724 297.536 543.327 292.483 539.423 285.938C535.634 279.278 533.739 271.527 533.739 262.685C533.739 253.958 535.691 246.265 539.595 239.605C543.5 232.944 548.897 227.777 555.786 224.103C562.791 220.428 570.714 218.591 579.556 218.591C588.398 218.591 596.264 220.428 603.154 224.103C610.158 227.777 615.612 232.944 619.517 239.605C623.421 246.265 625.373 253.958 625.373 262.685C625.373 271.527 623.421 279.278 619.517 285.938C615.727 292.483 610.33 297.536 603.326 301.096C596.436 304.655 588.513 306.435 579.556 306.435ZM579.556 295.928C589.431 295.928 597.297 292.943 603.154 286.972C609.125 280.886 612.11 272.79 612.11 262.685C612.11 252.465 609.125 244.37 603.154 238.399C597.297 232.313 589.431 229.27 579.556 229.27C569.681 229.27 561.758 232.313 555.786 238.399C549.93 244.37 547.002 252.465 547.002 262.685C547.002 272.79 549.93 280.886 555.786 286.972C561.758 292.943 569.681 295.928 579.556 295.928ZM646.014 221.174H658.932V237.365C665.592 226.571 678.051 221.174 696.309 221.174V231.854C676.329 231.854 663.985 238.456 659.277 251.662V303.852H646.014V221.174ZM754.824 306.435C746.097 306.435 738.231 304.713 731.226 301.268C724.337 297.708 718.94 292.656 715.035 286.11C711.131 279.45 709.179 271.642 709.179 262.685C709.179 253.843 711.131 246.092 715.035 239.432C719.054 232.657 724.566 227.49 731.571 223.93C738.575 220.371 746.499 218.591 755.341 218.591C761.656 218.591 767.225 219.165 772.048 220.313C776.871 221.461 781.177 223.299 784.967 225.825V237.021C777.732 231.854 768.259 229.27 756.546 229.27C746.441 229.27 738.231 232.198 731.915 238.054C725.6 243.911 722.442 252.121 722.442 262.685C722.442 273.25 725.6 281.46 731.915 287.316C738.231 293.058 746.269 295.928 756.03 295.928C762.115 295.928 767.57 295.239 772.393 293.861C777.216 292.483 781.809 290.359 786.172 287.488V298.684C782.153 301.44 777.617 303.392 772.565 304.541C767.627 305.804 761.714 306.435 754.824 306.435ZM806.82 176.563H820.083V233.232C828.006 223.471 838.972 218.591 852.981 218.591C863.89 218.591 871.986 221.461 877.268 227.203C882.665 232.944 885.363 240.638 885.363 250.284V303.852H872.1V251.489C872.1 244.37 870.378 238.916 866.933 235.126C863.488 231.222 857.976 229.27 850.398 229.27C837.652 229.27 827.547 235.011 820.083 246.494V303.852H806.82V176.563ZM953.024 306.435C937.982 306.435 926.212 302.588 917.714 294.895C909.332 287.201 905.14 276.465 905.14 262.685C905.14 249.135 908.93 238.399 916.508 230.476C924.087 222.552 934.881 218.591 948.89 218.591C958.306 218.591 966.287 220.428 972.832 224.103C979.378 227.662 984.315 232.6 987.645 238.916C990.975 245.231 992.64 252.408 992.64 260.446V267.68H917.542C918.001 277.096 921.446 284.158 927.877 288.866C934.422 293.574 943.264 295.928 954.402 295.928C959.799 295.928 965.081 295.469 970.249 294.55C975.531 293.517 980.239 292.139 984.373 290.417V301.612C980.928 302.99 976.22 304.139 970.249 305.057C964.392 305.976 958.651 306.435 953.024 306.435ZM980.239 258.207C980.009 249.25 977.253 242.188 971.971 237.021C966.689 231.854 958.938 229.27 948.718 229.27C938.728 229.27 931.092 231.968 925.81 237.365C920.527 242.648 917.772 249.595 917.542 258.207H980.239ZM1042.14 306.435C1036.75 306.435 1030.95 305.631 1024.75 304.024C1018.55 302.531 1013.72 300.636 1010.28 298.34V287.144C1014.64 289.785 1019.64 291.909 1025.26 293.517C1031 295.125 1036.52 295.928 1041.8 295.928C1048.92 295.928 1054.03 294.952 1057.13 293C1060.34 290.933 1061.95 287.89 1061.95 283.871C1061.95 280.771 1061.26 278.359 1059.88 276.637C1058.51 274.8 1056.21 273.192 1052.99 271.814C1049.78 270.436 1044.78 268.829 1038.01 266.991C1031.35 265.154 1026.01 263.259 1021.99 261.307C1018.09 259.24 1015.1 256.657 1013.03 253.556C1010.97 250.456 1009.93 246.494 1009.93 241.671C1009.93 234.208 1012.92 228.524 1018.89 224.619C1024.98 220.6 1033.01 218.591 1043 218.591C1048.4 218.591 1053.45 219.107 1058.16 220.141C1062.98 221.06 1067 222.38 1070.22 224.103V235.298C1066.89 233.461 1062.87 232.026 1058.16 230.992C1053.45 229.844 1048.57 229.27 1043.52 229.27C1036.86 229.27 1031.81 230.246 1028.36 232.198C1024.92 234.15 1023.2 237.308 1023.2 241.671C1023.2 244.657 1023.77 246.954 1024.92 248.561C1026.18 250.169 1028.42 251.662 1031.64 253.04C1034.97 254.303 1040.25 255.91 1047.48 257.862C1057.82 260.733 1064.99 264.121 1069.01 268.025C1073.15 271.814 1075.21 277.096 1075.21 283.871C1075.21 290.876 1072.46 296.388 1066.95 300.407C1061.55 304.426 1053.28 306.435 1042.14 306.435ZM1123.94 306.435C1116.13 306.435 1110.04 304.139 1105.68 299.545C1101.43 294.952 1099.31 288.407 1099.31 279.91V231.509H1086.39V221.174H1099.31V196.371H1112.57V221.174H1133.41V231.509H1112.57V280.254C1112.57 285.996 1113.72 290.072 1116.01 292.483C1118.31 294.78 1122.5 295.928 1128.59 295.928C1131.57 295.928 1134.73 295.239 1138.06 293.861V304.713C1134.27 305.861 1129.56 306.435 1123.94 306.435ZM1156.19 221.174H1169.1V237.365C1175.76 226.571 1188.22 221.174 1206.48 221.174V231.854C1186.5 231.854 1174.16 238.456 1169.45 251.662V303.852H1156.19V221.174ZM1244.84 306.435C1234.85 306.435 1226.92 303.966 1221.07 299.029C1215.33 293.976 1212.45 287.086 1212.45 278.359C1212.45 269.288 1215.27 262.341 1220.89 257.518C1226.52 252.58 1234.67 250.111 1245.35 250.111C1257.3 250.111 1267.57 252.58 1276.18 257.518V251.317C1276.18 243.853 1274.06 238.341 1269.81 234.782C1265.56 231.107 1258.85 229.27 1249.66 229.27C1239.9 229.27 1230.88 231.107 1222.62 234.782V223.586C1226.06 222.093 1230.43 220.887 1235.71 219.969C1240.99 219.05 1246.04 218.591 1250.87 218.591C1263.96 218.591 1273.66 221.576 1279.97 227.547C1286.29 233.404 1289.45 241.557 1289.45 252.006V303.852H1277.05V293.172C1269.81 302.014 1259.08 306.435 1244.84 306.435ZM1248.11 295.584C1254.31 295.584 1259.88 294.378 1264.82 291.967C1269.87 289.44 1273.66 285.938 1276.18 281.46V268.197C1271.71 265.556 1267.23 263.661 1262.75 262.513C1258.39 261.25 1253.45 260.618 1247.94 260.618C1240.13 260.618 1234.44 262.111 1230.88 265.097C1227.44 267.967 1225.72 272.388 1225.72 278.359C1225.72 289.842 1233.18 295.584 1248.11 295.584Z" fill="#13161B"/>
<path d="M546.589 374.019H567.316V378.957H546.589V374.019ZM547.163 395.205H541.422V355.015H569.784V360.01H547.163V395.205ZM618.057 395.205V355.015H623.798V395.205H618.057ZM676.021 395.205V355.015H680.729L707.312 388.028H704.843V355.015H710.585V395.205H705.877L679.294 362.192H681.762V395.205H676.021ZM756.719 395.205L774.919 355.015H780.603L798.861 395.205H792.832L776.584 358.23H778.881L762.632 395.205H756.719ZM764.47 385.158L766.02 380.564H788.641L790.306 385.158H764.47ZM845.047 395.205V355.015H849.755L876.338 388.028H873.869V355.015H879.61V395.205H874.902L848.319 362.192H850.788V395.205H845.047ZM949.801 395.664C946.739 395.664 943.906 395.167 941.304 394.172C938.739 393.138 936.5 391.703 934.586 389.866C932.711 387.99 931.237 385.808 930.165 383.32C929.094 380.832 928.558 378.096 928.558 375.11C928.558 372.124 929.094 369.388 930.165 366.9C931.237 364.412 932.73 362.249 934.644 360.412C936.557 358.536 938.797 357.101 941.361 356.106C943.964 355.072 946.796 354.555 949.858 354.555C952.959 354.555 955.81 355.091 958.413 356.163C961.054 357.197 963.294 358.747 965.131 360.814L961.399 364.431C959.868 362.823 958.145 361.637 956.232 360.871C954.318 360.067 952.27 359.665 950.088 359.665C947.83 359.665 945.725 360.048 943.773 360.814C941.859 361.579 940.194 362.651 938.777 364.029C937.361 365.407 936.251 367.053 935.447 368.967C934.682 370.842 934.299 372.89 934.299 375.11C934.299 377.33 934.682 379.397 935.447 381.311C936.251 383.186 937.361 384.813 938.777 386.191C940.194 387.569 941.859 388.641 943.773 389.406C945.725 390.172 947.83 390.554 950.088 390.554C952.27 390.554 954.318 390.172 956.232 389.406C958.145 388.602 959.868 387.378 961.399 385.732L965.131 389.349C963.294 391.416 961.054 392.985 958.413 394.057C955.81 395.129 952.94 395.664 949.801 395.664ZM1018.74 372.354H1039.41V377.234H1018.74V372.354ZM1019.25 390.21H1042.68V395.205H1013.51V355.015H1041.87V360.01H1019.25V390.21Z" fill="#13161B"/>
<defs>
<linearGradient id="paint0_linear_7282_5658" x1="473.897" y1="422.118" x2="184.122" y2="460.345" gradientUnits="userSpaceOnUse">
<stop offset="0.181592" stop-color="#D2532F"/>
<stop offset="0.508372" stop-color="#FF9262"/>
<stop offset="1" stop-color="#D99322"/>
</linearGradient>
<linearGradient id="paint1_linear_7282_5658" x1="532.4" y1="384.606" x2="155.742" y2="478.373" gradientUnits="userSpaceOnUse">
<stop offset="0.181592" stop-color="#D2532F"/>
<stop offset="0.508372" stop-color="#FF9262"/>
<stop offset="1" stop-color="#D99322"/>
</linearGradient>
<linearGradient id="paint2_linear_7282_5658" x1="589.172" y1="292.041" x2="200.41" y2="550.743" gradientUnits="userSpaceOnUse">
<stop offset="0.181592" stop-color="#D2532F"/>
<stop offset="0.508372" stop-color="#FF9262"/>
<stop offset="1" stop-color="#D99322"/>
</linearGradient>
<linearGradient id="paint3_linear_7282_5658" x1="603.701" y1="183.426" x2="344.507" y2="601.094" gradientUnits="userSpaceOnUse">
<stop offset="0.181592" stop-color="#D2532F"/>
<stop offset="0.508372" stop-color="#FF9262"/>
<stop offset="1" stop-color="#D99322"/>
</linearGradient>
<linearGradient id="paint4_linear_7282_5658" x1="640.291" y1="185.032" x2="372.401" y2="632.65" gradientUnits="userSpaceOnUse">
<stop offset="0.181592" stop-color="#D2532F"/>
<stop offset="0.508372" stop-color="#FF9262"/>
<stop offset="1" stop-color="#D99322"/>
</linearGradient>
<clipPath id="clip0_7282_5658">
<rect width="314.128" height="314.13" fill="white" transform="translate(152.746 124.463)"/>
</clipPath>
</defs>
</svg>
