<svg width="1447" height="666" viewBox="0 0 1447 666" fill="none" xmlns="http://www.w3.org/2000/svg">
<mask id="mask0" mask-type="alpha" maskUnits="userSpaceOnUse" x="0" y="0" width="1447" height="666">
<rect width="1447" height="666" fill="#C4C4C4"/>
</mask>
<g mask="url(#mask0)">
<path d="M1517.1 -24.5315C1509.7 -13.8913 1501.3 -3.84215 1491.8 5.4188L1227 263.05L1226.8 262.459L876.2 603.44C814.8 663.242 781 742.649 781 826.983C781 839.101 781.7 851.121 783.1 863.042C783.6 863.042 784.1 863.042 784.6 863.042C783.2 851.219 782.5 839.2 782.5 827.082C782.5 743.043 816.1 664.03 877.2 604.523L1226 265.218L1226.2 265.809L1492.7 6.50253C1502.5 -3.05398 1511.3 -13.4972 1518.8 -24.5315H1517.1V-24.5315Z" fill="url(#paint0_linear)"/>
<path d="M1517.1 -24.5315C1509.7 -13.8913 1501.3 -3.84215 1491.8 5.4188L1227 263.05L1226.8 262.459L876.2 603.44C814.8 663.242 781 742.649 781 826.983C781 839.101 781.7 851.121 783.1 863.042C783.6 863.042 784.1 863.042 784.6 863.042C783.2 851.219 782.5 839.2 782.5 827.082C782.5 743.043 816.1 664.03 877.2 604.523L1226 265.218L1226.2 265.809L1492.7 6.50253C1502.5 -3.05398 1511.3 -13.4972 1518.8 -24.5315H1517.1V-24.5315Z" fill="url(#paint1_linear)"/>
<path d="M1527.7 -24.5315C1520.5 -14.2853 1512.3 -4.63031 1503.1 4.23655L1240.7 259.602L1240.3 258.814L893.2 596.642C832.4 655.853 798.9 734.472 798.9 818.215C798.9 833.288 800 848.263 802.2 862.943C802.7 862.943 803.2 862.943 803.7 862.943C801.5 848.263 800.4 833.288 800.4 818.215C800.4 734.965 833.7 656.641 894.3 597.725L1240.1 261.376L1240.5 262.164L1504.3 5.32028C1513.8 -3.94067 1522.3 -13.8913 1529.6 -24.5315H1527.7V-24.5315Z" fill="url(#paint2_linear)"/>
<path d="M1527.7 -24.5315C1520.5 -14.2853 1512.3 -4.63031 1503.1 4.23655L1240.7 259.602L1240.3 258.814L893.2 596.642C832.4 655.853 798.9 734.472 798.9 818.215C798.9 833.288 800 848.263 802.2 862.943C802.7 862.943 803.2 862.943 803.7 862.943C801.5 848.263 800.4 833.288 800.4 818.215C800.4 734.965 833.7 656.641 894.3 597.725L1240.1 261.376L1240.5 262.164L1504.3 5.32028C1513.8 -3.94067 1522.3 -13.8913 1529.6 -24.5315H1527.7V-24.5315Z" fill="url(#paint3_linear)"/>
<path d="M1538.5 -24.5315C1531.6 -14.7779 1523.8 -5.61552 1515 2.85726L1254.9 256.055L1254.5 255.464L910.5 590.041C850.1 648.759 816.9 726.787 816.9 809.643C816.9 827.673 818.5 845.505 821.6 862.845C822.1 862.845 822.6 862.845 823.1 862.845C820 845.406 818.4 827.673 818.4 809.643C818.4 727.182 851.4 649.547 911.5 591.124L1254.2 257.829L1254.6 258.42L1516 4.03951C1525.1 -4.82735 1533.2 -14.3839 1540.3 -24.433H1538.5V-24.5315Z" fill="url(#paint4_linear)"/>
<path d="M1538.5 -24.5315C1531.6 -14.7779 1523.8 -5.61552 1515 2.85726L1254.9 256.055L1254.5 255.464L910.5 590.041C850.1 648.759 816.9 726.787 816.9 809.643C816.9 827.673 818.5 845.505 821.6 862.845C822.1 862.845 822.6 862.845 823.1 862.845C820 845.406 818.4 827.673 818.4 809.643C818.4 727.182 851.4 649.547 911.5 591.124L1254.2 257.829L1254.6 258.42L1516 4.03951C1525.1 -4.82735 1533.2 -14.3839 1540.3 -24.433H1538.5V-24.5315Z" fill="url(#paint5_linear)"/>
<path d="M1549.2 -24.5316C1542.5 -15.2707 1535 -6.50232 1526.6 1.6749L1268.7 252.509L1268.5 252.312L927.8 583.637C868 641.764 835.1 719.103 835.1 801.17C835.1 822.155 837.3 842.746 841.5 862.746C842 862.746 842.5 862.746 843 862.746C838.8 842.648 836.6 822.057 836.6 801.17C836.6 719.398 869.3 642.552 928.8 584.622L1268.5 254.282L1268.7 254.479L1527.6 2.66011C1536.3 -5.81267 1544.1 -14.9751 1551 -24.6301H1549.2V-24.5316Z" fill="url(#paint6_linear)"/>
<path d="M1549.2 -24.5316C1542.5 -15.2707 1535 -6.50232 1526.6 1.6749L1268.7 252.509L1268.5 252.312L927.8 583.637C868 641.764 835.1 719.103 835.1 801.17C835.1 822.155 837.3 842.746 841.5 862.746C842 862.746 842.5 862.746 843 862.746C838.8 842.648 836.6 822.057 836.6 801.17C836.6 719.398 869.3 642.552 928.8 584.622L1268.5 254.282L1268.7 254.479L1527.6 2.66011C1536.3 -5.81267 1544.1 -14.9751 1551 -24.6301H1549.2V-24.5316Z" fill="url(#paint7_linear)"/>
<path d="M1559.8 -24.5315C1553.4 -15.7632 1546.2 -7.38889 1538.1 0.394245L1282.5 249.159L1281.9 248.765L944.5 577.036C885.3 634.671 852.7 711.221 852.7 792.599C852.7 816.54 855.6 840.086 861.1 862.746C861.6 862.746 862.1 862.746 862.6 862.746C857.1 839.988 854.2 816.54 854.2 792.599C854.2 711.615 886.6 635.459 945.5 578.12L1282.1 250.637L1282.7 251.031L1539.2 1.47797C1547.5 -6.60073 1555 -15.2705 1561.6 -24.433H1559.8V-24.5315Z" fill="url(#paint8_linear)"/>
<path d="M1559.8 -24.5315C1553.4 -15.7632 1546.2 -7.38889 1538.1 0.394245L1282.5 249.159L1281.9 248.765L944.5 577.036C885.3 634.671 852.7 711.221 852.7 792.599C852.7 816.54 855.6 840.086 861.1 862.746C861.6 862.746 862.1 862.746 862.6 862.746C857.1 839.988 854.2 816.54 854.2 792.599C854.2 711.615 886.6 635.459 945.5 578.12L1282.1 250.637L1282.7 251.031L1539.2 1.47797C1547.5 -6.60073 1555 -15.2705 1561.6 -24.433H1559.8V-24.5315Z" fill="url(#paint9_linear)"/>
<path d="M1570.6 -24.5315C1564.5 -16.2558 1557.6 -8.3741 1550 -0.985044L1296.9 245.317L1296.5 244.923L962 570.238C903.3 627.281 871.1 703.142 871.1 783.732C871.1 810.727 874.8 837.229 881.8 862.647C882.3 862.647 882.8 862.647 883.4 862.647C876.3 837.229 872.6 810.826 872.6 783.732C872.6 703.537 904.7 628.07 963.1 571.322L1296.5 246.992L1296.9 247.386L1551.1 0.000162125C1559 -7.68445 1566.1 -15.8617 1572.5 -24.5315H1570.6V-24.5315Z" fill="url(#paint10_linear)"/>
<path d="M1570.6 -24.5315C1564.5 -16.2558 1557.6 -8.3741 1550 -0.985044L1296.9 245.317L1296.5 244.923L962 570.238C903.3 627.281 871.1 703.142 871.1 783.732C871.1 810.727 874.8 837.229 881.8 862.647C882.3 862.647 882.8 862.647 883.4 862.647C876.3 837.229 872.6 810.826 872.6 783.732C872.6 703.537 904.7 628.07 963.1 571.322L1296.5 246.992L1296.9 247.386L1551.1 0.000162125C1559 -7.68445 1566.1 -15.8617 1572.5 -24.5315H1570.6V-24.5315Z" fill="url(#paint11_linear)"/>
<path d="M1581.3 -24.5315C1575.4 -16.6498 1568.8 -9.16226 1561.6 -2.16729L1311.2 241.474L1311 240.883L979.1 563.637C921 620.188 889 695.359 889.1 775.161C889.1 805.21 893.7 834.569 902.4 862.45C902.9 862.45 903.4 862.45 904 862.45C895.2 834.569 890.6 805.21 890.6 775.161C890.6 695.753 922.4 620.976 980.2 564.622L1310.3 243.543L1310.5 244.134L1562.6 -1.18209C1570.1 -8.47262 1577 -16.3543 1583.1 -24.5315H1581.3V-24.5315Z" fill="url(#paint12_linear)"/>
<path d="M1581.3 -24.5315C1575.4 -16.6498 1568.8 -9.16226 1561.6 -2.16729L1311.2 241.474L1311 240.883L979.1 563.637C921 620.188 889 695.359 889.1 775.161C889.1 805.21 893.7 834.569 902.4 862.45C902.9 862.45 903.4 862.45 904 862.45C895.2 834.569 890.6 805.21 890.6 775.161C890.6 695.753 922.4 620.976 980.2 564.622L1310.3 243.543L1310.5 244.134L1562.6 -1.18209C1570.1 -8.47262 1577 -16.3543 1583.1 -24.5315H1581.3V-24.5315Z" fill="url(#paint13_linear)"/>
<path d="M1592 -24.5315C1586.4 -17.1424 1580.2 -10.1475 1573.4 -3.54658L1325.2 237.928L1325 237.534L996.6 556.839C939 612.897 907.3 687.281 907.3 766.393C907.3 799.594 912.9 831.909 923.7 862.45C924.2 862.45 924.8 862.45 925.3 862.45C914.5 832.008 908.8 799.594 908.8 766.393C908.8 687.675 940.3 613.686 997.6 557.923L1324.5 239.997L1324.7 240.391L1574.4 -2.46286C1581.5 -9.35931 1588 -16.7484 1593.9 -24.5315H1592V-24.5315Z" fill="url(#paint14_linear)"/>
<path d="M1592 -24.5315C1586.4 -17.1424 1580.2 -10.1475 1573.4 -3.54658L1325.2 237.928L1325 237.534L996.6 556.839C939 612.897 907.3 687.281 907.3 766.393C907.3 799.594 912.9 831.909 923.7 862.45C924.2 862.45 924.8 862.45 925.3 862.45C914.5 832.008 908.8 799.594 908.8 766.393C908.8 687.675 940.3 613.686 997.6 557.923L1324.5 239.997L1324.7 240.391L1574.4 -2.46286C1581.5 -9.35931 1588 -16.7484 1593.9 -24.5315H1592V-24.5315Z" fill="url(#paint15_linear)"/>
<path d="M1602.5 -24.5315C1597.2 -17.635 1591.3 -11.1327 1585 -4.92587L1338.4 234.972L1013.9 550.435C956.9 605.902 925.5 679.596 925.5 757.92C925.5 794.176 932.3 829.446 945.2 862.253C945.7 862.253 946.3 862.253 946.8 862.253C933.8 829.446 927 794.176 927 757.92C927 679.99 958.2 606.691 1015 551.519L1339.5 235.957L1586 -3.84215C1592.7 -10.3445 1598.8 -17.241 1604.4 -24.5315H1602.5Z" fill="url(#paint16_linear)"/>
<path d="M1602.5 -24.5315C1597.2 -17.635 1591.3 -11.1327 1585 -4.92587L1338.4 234.972L1013.9 550.435C956.9 605.902 925.5 679.596 925.5 757.92C925.5 794.176 932.3 829.446 945.2 862.253C945.7 862.253 946.3 862.253 946.8 862.253C933.8 829.446 927 794.176 927 757.92C927 679.99 958.2 606.691 1015 551.519L1339.5 235.957L1586 -3.84215C1592.7 -10.3445 1598.8 -17.241 1604.4 -24.5315H1602.5Z" fill="url(#paint17_linear)"/>
<path d="M1613.2 -24.5315C1608.1 -18.1276 1602.6 -11.9208 1596.6 -6.10812L1353.3 230.736L1352.9 229.947L1030.8 543.342C974.3 598.316 943.3 671.32 943.3 748.856C943.3 788.461 951.5 826.884 966.9 862.253C967.4 862.253 968 862.253 968.5 862.253C952.9 826.884 944.7 788.56 944.7 748.955C944.7 671.813 975.6 599.203 1031.8 544.426L1352.4 232.509L1352.8 233.297L1597.7 -5.02439C1604 -11.1327 1609.8 -17.635 1615.1 -24.5315H1613.2Z" fill="url(#paint18_linear)"/>
<path d="M1613.2 -24.5315C1608.1 -18.1276 1602.6 -11.9208 1596.6 -6.10812L1353.3 230.736L1352.9 229.947L1030.8 543.342C974.3 598.316 943.3 671.32 943.3 748.856C943.3 788.461 951.5 826.884 966.9 862.253C967.4 862.253 968 862.253 968.5 862.253C952.9 826.884 944.7 788.56 944.7 748.955C944.7 671.813 975.6 599.203 1031.8 544.426L1352.4 232.509L1352.8 233.297L1597.7 -5.02439C1604 -11.1327 1609.8 -17.635 1615.1 -24.5315H1613.2Z" fill="url(#paint19_linear)"/>
<path d="M1623.7 -24.5315C1618.9 -18.6203 1613.8 -12.9061 1608.2 -7.48741L1367.3 226.992L1367.1 226.598L1048.2 536.839C992.3 591.223 961.5 663.537 961.6 740.383C961.6 783.141 971.2 824.421 989.3 862.056C989.9 862.056 990.4 862.056 991 862.056C972.8 824.52 963.1 783.141 963.1 740.383C963.1 663.931 993.7 592.11 1049.3 537.923L1366.7 229.159L1366.9 229.553L1609.3 -6.40368C1615.2 -12.1179 1620.6 -18.2262 1625.6 -24.5315H1623.7V-24.5315Z" fill="url(#paint20_linear)"/>
<path d="M1623.7 -24.5315C1618.9 -18.6203 1613.8 -12.9061 1608.2 -7.48741L1367.3 226.992L1367.1 226.598L1048.2 536.839C992.3 591.223 961.5 663.537 961.6 740.383C961.6 783.141 971.2 824.421 989.3 862.056C989.9 862.056 990.4 862.056 991 862.056C972.8 824.52 963.1 783.141 963.1 740.383C963.1 663.931 993.7 592.11 1049.3 537.923L1366.7 229.159L1366.9 229.553L1609.3 -6.40368C1615.2 -12.1179 1620.6 -18.2262 1625.6 -24.5315H1623.7V-24.5315Z" fill="url(#paint21_linear)"/>
<path d="M1634.5 -24.5315C1630 -19.0143 1625.2 -13.6942 1620 -8.66966L1381.4 223.544L1381.2 223.15L1065.2 530.337C1009.9 584.228 979.4 655.754 979.5 731.812C979.5 777.821 990.7 822.254 1011.9 861.958C1012.5 861.958 1013 861.958 1013.6 861.958C992.4 822.254 981.1 777.92 981.1 731.812C981.1 656.148 1011.4 584.918 1066.4 531.421L1380.9 225.711L1381.1 226.105L1621.1 -7.48741C1626.6 -12.9061 1631.8 -18.5217 1636.5 -24.433H1634.5V-24.5315Z" fill="url(#paint22_linear)"/>
<path d="M1634.5 -24.5315C1630 -19.0143 1625.2 -13.6942 1620 -8.66966L1381.4 223.544L1381.2 223.15L1065.2 530.337C1009.9 584.228 979.4 655.754 979.5 731.812C979.5 777.821 990.7 822.254 1011.9 861.958C1012.5 861.958 1013 861.958 1013.6 861.958C992.4 822.254 981.1 777.92 981.1 731.812C981.1 656.148 1011.4 584.918 1066.4 531.421L1380.9 225.711L1381.1 226.105L1621.1 -7.48741C1626.6 -12.9061 1631.8 -18.5217 1636.5 -24.433H1634.5V-24.5315Z" fill="url(#paint23_linear)"/>
<path d="M1645 -24.5315C1640.8 -19.5069 1636.4 -14.6794 1631.6 -10.049L1395.2 219.997L1394.8 219.603L1082.4 523.441C1027.5 576.839 997.3 647.774 997.4 723.142C997.4 772.501 1010.5 819.889 1034.9 861.662C1035.5 861.662 1036.1 861.662 1036.6 861.662C1012 819.988 998.9 772.6 998.8 723.142C998.7 648.168 1028.8 577.627 1083.4 524.426L1394.8 221.77L1395.2 222.164L1632.7 -8.96522C1637.8 -13.8913 1642.5 -19.1129 1646.9 -24.5315H1645Z" fill="url(#paint24_linear)"/>
<path d="M1645 -24.5315C1640.8 -19.5069 1636.4 -14.6794 1631.6 -10.049L1395.2 219.997L1394.8 219.603L1082.4 523.441C1027.5 576.839 997.3 647.774 997.4 723.142C997.4 772.501 1010.5 819.889 1034.9 861.662C1035.5 861.662 1036.1 861.662 1036.6 861.662C1012 819.988 998.9 772.6 998.8 723.142C998.7 648.168 1028.8 577.627 1083.4 524.426L1394.8 221.77L1395.2 222.164L1632.7 -8.96522C1637.8 -13.8913 1642.5 -19.1129 1646.9 -24.5315H1645Z" fill="url(#paint25_linear)"/>
<path d="M1655.4 -24.5315C1651.6 -19.9995 1647.5 -15.5661 1643.2 -11.4282L1409.4 216.056L1409.2 215.662L1100.1 516.84C1045.8 569.647 1016 639.794 1016 714.374C1016 767.279 1031.1 817.821 1059.2 861.564C1059.8 861.564 1060.4 861.564 1061 861.564C1032.7 817.919 1017.5 767.279 1017.5 714.374C1017.5 640.188 1047.2 570.435 1101.2 517.924L1408.8 218.224L1409 218.618L1644.3 -10.3445C1649 -14.8765 1653.3 -19.6055 1657.4 -24.5315H1655.4V-24.5315Z" fill="url(#paint26_linear)"/>
<path d="M1655.4 -24.5315C1651.6 -19.9995 1647.5 -15.5661 1643.2 -11.4282L1409.4 216.056L1409.2 215.662L1100.1 516.84C1045.8 569.647 1016 639.794 1016 714.374C1016 767.279 1031.1 817.821 1059.2 861.564C1059.8 861.564 1060.4 861.564 1061 861.564C1032.7 817.919 1017.5 767.279 1017.5 714.374C1017.5 640.188 1047.2 570.435 1101.2 517.924L1408.8 218.224L1409 218.618L1644.3 -10.3445C1649 -14.8765 1653.3 -19.6055 1657.4 -24.5315H1655.4V-24.5315Z" fill="url(#paint27_linear)"/>
<path d="M1666.2 -24.5315C1662.7 -20.3936 1659 -16.4528 1655 -12.6105L1423.7 212.509L1423.5 211.918L1117 510.14C1063.3 562.455 1033.7 631.813 1033.8 705.605C1033.8 762.058 1051.2 815.949 1083.5 861.465C1084.1 861.465 1084.7 861.465 1085.3 861.465C1052.8 816.047 1035.3 762.156 1035.3 705.704C1035.3 632.306 1064.7 563.243 1118.1 511.224L1422.8 214.677L1423 215.268L1656.1 -11.5268C1660.4 -15.6646 1664.4 -19.9995 1668.2 -24.5315H1666.2V-24.5315Z" fill="url(#paint28_linear)"/>
<path d="M1666.2 -24.5315C1662.7 -20.3936 1659 -16.4528 1655 -12.6105L1423.7 212.509L1423.5 211.918L1117 510.14C1063.3 562.455 1033.7 631.813 1033.8 705.605C1033.8 762.058 1051.2 815.949 1083.5 861.465C1084.1 861.465 1084.7 861.465 1085.3 861.465C1052.8 816.047 1035.3 762.156 1035.3 705.704C1035.3 632.306 1064.7 563.243 1118.1 511.224L1422.8 214.677L1423 215.268L1656.1 -11.5268C1660.4 -15.6646 1664.4 -19.9995 1668.2 -24.5315H1666.2V-24.5315Z" fill="url(#paint29_linear)"/>
<path d="M1676.6 -24.5315C1673.4 -20.8862 1670.1 -17.3395 1666.6 -13.8913L1438 208.47V208.273L1134.3 503.737C1081.2 555.46 1051.9 624.129 1052 697.133C1052 757.132 1071.9 814.175 1108.5 861.17C1109.1 861.17 1109.8 861.17 1110.4 861.17C1073.6 814.274 1053.6 757.23 1053.6 697.133C1053.6 624.523 1082.7 556.15 1135.5 504.722L1436.7 211.721V211.918L1667.7 -12.906C1671.5 -16.6498 1675.2 -20.5907 1678.6 -24.5315H1676.6Z" fill="url(#paint30_linear)"/>
<path d="M1676.6 -24.5315C1673.4 -20.8862 1670.1 -17.3395 1666.6 -13.8913L1438 208.47V208.273L1134.3 503.737C1081.2 555.46 1051.9 624.129 1052 697.133C1052 757.132 1071.9 814.175 1108.5 861.17C1109.1 861.17 1109.8 861.17 1110.4 861.17C1073.6 814.274 1053.6 757.23 1053.6 697.133C1053.6 624.523 1082.7 556.15 1135.5 504.722L1436.7 211.721V211.918L1667.7 -12.906C1671.5 -16.6498 1675.2 -20.5907 1678.6 -24.5315H1676.6Z" fill="url(#paint31_linear)"/>
<path d="M1687.2 -24.5315C1684.3 -21.2803 1681.3 -18.1276 1678.2 -15.0735L1451.8 205.317L1451.6 204.726L1151.4 496.742C1098.7 547.972 1069.7 616.05 1069.8 688.463C1069.9 752.304 1092.6 812.796 1134.3 861.071C1135 861.071 1135.6 861.071 1136.3 861.071C1094.3 812.895 1071.4 752.403 1071.4 688.463C1071.3 616.543 1100.2 548.761 1152.6 497.825L1451.1 207.485L1451.3 208.076L1679.4 -13.9898C1682.9 -17.3395 1686.2 -20.8862 1689.3 -24.433H1687.2V-24.5315Z" fill="url(#paint32_linear)"/>
<path d="M1687.2 -24.5315C1684.3 -21.2803 1681.3 -18.1276 1678.2 -15.0735L1451.8 205.317L1451.6 204.726L1151.4 496.742C1098.7 547.972 1069.7 616.05 1069.8 688.463C1069.9 752.304 1092.6 812.796 1134.3 861.071C1135 861.071 1135.6 861.071 1136.3 861.071C1094.3 812.895 1071.4 752.403 1071.4 688.463C1071.3 616.543 1100.2 548.761 1152.6 497.825L1451.1 207.485L1451.3 208.076L1679.4 -13.9898C1682.9 -17.3395 1686.2 -20.8862 1689.3 -24.433H1687.2V-24.5315Z" fill="url(#paint33_linear)"/>
<path d="M1697.6 -24.5315C1695.1 -21.7729 1692.5 -19.1129 1689.9 -16.4528L1466.3 201.278V200.687L1168.9 489.944C1116.8 540.583 1088.2 607.873 1088.2 679.399C1088.2 747.28 1114.2 811.318 1161.5 860.874C1162.2 860.874 1162.9 860.874 1163.5 860.874C1115.9 811.515 1089.7 747.477 1089.7 679.497C1089.7 608.366 1118.2 541.47 1170 491.126L1464.7 204.234V204.825L1690.9 -15.4676C1693.9 -18.4232 1696.8 -21.4774 1699.6 -24.5315H1697.6Z" fill="url(#paint34_linear)"/>
<path d="M1697.6 -24.5315C1695.1 -21.7729 1692.5 -19.1129 1689.9 -16.4528L1466.3 201.278V200.687L1168.9 489.944C1116.8 540.583 1088.2 607.873 1088.2 679.399C1088.2 747.28 1114.2 811.318 1161.5 860.874C1162.2 860.874 1162.9 860.874 1163.5 860.874C1115.9 811.515 1089.7 747.477 1089.7 679.497C1089.7 608.366 1118.2 541.47 1170 491.126L1464.7 204.234V204.825L1690.9 -15.4676C1693.9 -18.4232 1696.8 -21.4774 1699.6 -24.5315H1697.6Z" fill="url(#paint35_linear)"/>
<path d="M1708.1 -24.5315C1706 -22.2655 1703.9 -19.9995 1701.6 -17.8321L1479.8 198.125L1479.6 197.731L1185.9 483.638C1134.4 533.785 1106 600.287 1106.1 671.123C1106.1 741.664 1134.4 807.968 1185.7 857.82L1188.7 860.776C1189.4 860.776 1190.1 860.776 1190.8 860.776L1186.7 856.835C1135.7 807.279 1107.5 741.368 1107.5 671.123C1107.5 600.779 1135.7 534.574 1186.9 484.722L1479.2 200.293L1479.4 200.687L1702.7 -16.7484C1705.3 -19.2114 1707.7 -21.8714 1710.1 -24.5315H1708.1Z" fill="url(#paint36_linear)"/>
<path d="M1708.1 -24.5315C1706 -22.2655 1703.9 -19.9995 1701.6 -17.8321L1479.8 198.125L1479.6 197.731L1185.9 483.638C1134.4 533.785 1106 600.287 1106.1 671.123C1106.1 741.664 1134.4 807.968 1185.7 857.82L1188.7 860.776C1189.4 860.776 1190.1 860.776 1190.8 860.776L1186.7 856.835C1135.7 807.279 1107.5 741.368 1107.5 671.123C1107.5 600.779 1135.7 534.574 1186.9 484.722L1479.2 200.293L1479.4 200.687L1702.7 -16.7484C1705.3 -19.2114 1707.7 -21.8714 1710.1 -24.5315H1708.1Z" fill="url(#paint37_linear)"/>
<path d="M1718.6 -24.5315C1716.8 -22.6596 1715.1 -20.7877 1713.2 -19.0143L1493.7 194.677L1493.3 194.086L1202.8 476.742C1151.8 526.396 1123.8 592.405 1123.9 662.453C1124 732.206 1151.9 797.821 1202.6 847.081L1216.3 860.48C1217 860.48 1217.7 860.48 1218.4 860.48L1203.6 846.096C1153.2 797.131 1125.4 731.911 1125.3 662.552C1125.2 592.898 1153.1 527.283 1203.8 477.924L1493 196.45L1493.4 197.042L1714.3 -17.9306C1716.5 -20.0981 1718.6 -22.2655 1720.7 -24.5315H1718.6Z" fill="url(#paint38_linear)"/>
<path d="M1718.6 -24.5315C1716.8 -22.6596 1715.1 -20.7877 1713.2 -19.0143L1493.7 194.677L1493.3 194.086L1202.8 476.742C1151.8 526.396 1123.8 592.405 1123.9 662.453C1124 732.206 1151.9 797.821 1202.6 847.081L1216.3 860.48C1217 860.48 1217.7 860.48 1218.4 860.48L1203.6 846.096C1153.2 797.131 1125.4 731.911 1125.3 662.552C1125.2 592.898 1153.1 527.283 1203.8 477.924L1493 196.45L1493.4 197.042L1714.3 -17.9306C1716.5 -20.0981 1718.6 -22.2655 1720.7 -24.5315H1718.6Z" fill="url(#paint39_linear)"/>
<path d="M1729.1 -24.5315C1727.7 -23.0537 1726.3 -21.5759 1724.8 -20.1966L1507.9 190.835L1507.7 190.441L1220.3 470.141C1169.9 519.204 1142.2 584.425 1142.2 653.587C1142.2 722.65 1169.9 787.575 1220.1 836.342L1244.6 860.184C1245.3 860.184 1246 860.184 1246.7 860.184L1221.1 835.357C1171.2 786.786 1143.7 722.255 1143.7 653.587C1143.7 584.721 1171.2 519.992 1221.3 471.126L1507.3 192.904L1507.5 193.298L1725.9 -19.1129C1727.7 -20.8862 1729.5 -22.6596 1731.2 -24.5315H1729.1Z" fill="url(#paint40_linear)"/>
<path d="M1729.1 -24.5315C1727.7 -23.0537 1726.3 -21.5759 1724.8 -20.1966L1507.9 190.835L1507.7 190.441L1220.3 470.141C1169.9 519.204 1142.2 584.425 1142.2 653.587C1142.2 722.65 1169.9 787.575 1220.1 836.342L1244.6 860.184C1245.3 860.184 1246 860.184 1246.7 860.184L1221.1 835.357C1171.2 786.786 1143.7 722.255 1143.7 653.587C1143.7 584.721 1171.2 519.992 1221.3 471.126L1507.3 192.904L1507.5 193.298L1725.9 -19.1129C1727.7 -20.8862 1729.5 -22.6596 1731.2 -24.5315H1729.1Z" fill="url(#paint41_linear)"/>
<path d="M1739.6 -24.5315C1738.6 -23.5463 1737.7 -22.5611 1736.7 -21.5759L1522 187.387L1521.8 186.992L1237.5 463.54C1187.6 512.012 1160.2 576.543 1160.2 645.015C1160.2 713.29 1187.6 777.526 1237.3 825.801L1272.6 860.086C1273.3 860.086 1274 860.086 1274.7 860.086L1238.4 824.816C1189 776.836 1161.8 712.995 1161.7 645.114C1161.7 577.036 1189 512.997 1238.6 464.722L1521.4 189.554L1521.6 189.948L1737.7 -20.4921C1739.1 -21.7729 1740.4 -23.1522 1741.7 -24.5315H1739.6Z" fill="url(#paint42_linear)"/>
<path d="M1739.6 -24.5315C1738.6 -23.5463 1737.7 -22.5611 1736.7 -21.5759L1522 187.387L1521.8 186.992L1237.5 463.54C1187.6 512.012 1160.2 576.543 1160.2 645.015C1160.2 713.29 1187.6 777.526 1237.3 825.801L1272.6 860.086C1273.3 860.086 1274 860.086 1274.7 860.086L1238.4 824.816C1189 776.836 1161.8 712.995 1161.7 645.114C1161.7 577.036 1189 512.997 1238.6 464.722L1521.4 189.554L1521.6 189.948L1737.7 -20.4921C1739.1 -21.7729 1740.4 -23.1522 1741.7 -24.5315H1739.6Z" fill="url(#paint43_linear)"/>
<path d="M1750 -24.5315C1749.5 -24.0389 1748.9 -23.4478 1748.4 -22.9552L1535.7 184.037L1535.3 183.84L1254.5 456.939C1205.2 504.919 1178 568.563 1178.1 636.345C1178.1 703.931 1205.2 767.378 1254.3 815.062L1300.3 859.79C1301 859.79 1301.7 859.79 1302.4 859.79L1255.3 814.077C1206.5 766.688 1179.5 703.537 1179.5 636.444C1179.5 569.154 1206.5 505.805 1255.5 458.121L1535.5 185.712L1535.9 185.909L1749.5 -21.8714C1750.4 -22.7581 1751.3 -23.6448 1752.1 -24.5315H1750Z" fill="url(#paint44_linear)"/>
<path d="M1750 -24.5315C1749.5 -24.0389 1748.9 -23.4478 1748.4 -22.9552L1535.7 184.037L1535.3 183.84L1254.5 456.939C1205.2 504.919 1178 568.563 1178.1 636.345C1178.1 703.931 1205.2 767.378 1254.3 815.062L1300.3 859.79C1301 859.79 1301.7 859.79 1302.4 859.79L1255.3 814.077C1206.5 766.688 1179.5 703.537 1179.5 636.444C1179.5 569.154 1206.5 505.805 1255.5 458.121L1535.5 185.712L1535.9 185.909L1749.5 -21.8714C1750.4 -22.7581 1751.3 -23.6448 1752.1 -24.5315H1750Z" fill="url(#paint45_linear)"/>
<path d="M1760.1 -24.5315C1760 -24.433 1759.9 -24.3345 1759.9 -24.3345L1550.2 179.8L1550 179.209L1271.9 449.944C1223.1 497.431 1196.3 560.583 1196.4 627.577C1196.5 694.374 1223.2 757.033 1271.8 804.225L1328.8 859.593C1329.5 859.593 1330.2 859.593 1330.9 859.593L1272.9 803.24C1224.7 756.442 1198.1 694.079 1198 627.676C1197.9 560.977 1224.6 498.318 1273.1 451.028L1549.5 181.968L1549.7 182.559L1760.9 -23.2507C1761.3 -23.6448 1761.7 -24.1374 1762.2 -24.5315H1760.1Z" fill="url(#paint46_linear)"/>
<path d="M1760.1 -24.5315C1760 -24.433 1759.9 -24.3345 1759.9 -24.3345L1550.2 179.8L1550 179.209L1271.9 449.944C1223.1 497.431 1196.3 560.583 1196.4 627.577C1196.5 694.374 1223.2 757.033 1271.8 804.225L1328.8 859.593C1329.5 859.593 1330.2 859.593 1330.9 859.593L1272.9 803.24C1224.7 756.442 1198.1 694.079 1198 627.676C1197.9 560.977 1224.6 498.318 1273.1 451.028L1549.5 181.968L1549.7 182.559L1760.9 -23.2507C1761.3 -23.6448 1761.7 -24.1374 1762.2 -24.5315H1760.1Z" fill="url(#paint47_linear)"/>
<path d="M1770.5 -24.5315L1564 176.451L1563.8 176.057L1288.9 443.54C1240.7 490.436 1214.2 552.8 1214.2 619.006C1214.2 685.015 1240.7 747.083 1288.7 793.781L1356.2 859.396C1356.9 859.396 1357.6 859.396 1358.3 859.396L1289.7 792.698C1242 746.295 1215.7 684.621 1215.7 619.006C1215.7 553.194 1242 491.224 1289.9 444.624L1563.3 178.618L1563.5 179.012L1772.5 -24.433L1772.6 -24.5315H1770.5Z" fill="url(#paint48_linear)"/>
<path d="M1770.5 -24.5315L1564 176.451L1563.8 176.057L1288.9 443.54C1240.7 490.436 1214.2 552.8 1214.2 619.006C1214.2 685.015 1240.7 747.083 1288.7 793.781L1356.2 859.396C1356.9 859.396 1357.6 859.396 1358.3 859.396L1289.7 792.698C1242 746.295 1215.7 684.621 1215.7 619.006C1215.7 553.194 1242 491.224 1289.9 444.624L1563.3 178.618L1563.5 179.012L1772.5 -24.433L1772.6 -24.5315H1770.5Z" fill="url(#paint49_linear)"/>
<path d="M1780.9 -24.5315L1578.2 172.805L1578 172.411L1306.3 436.742C1258.6 483.146 1232.3 544.721 1232.4 610.139C1232.4 675.458 1258.6 736.738 1306.1 782.944L1384.6 859.199C1385.3 859.199 1386 859.199 1386.7 859.199L1307.1 781.86C1259.9 736.048 1233.8 675.064 1233.8 610.139C1233.8 545.115 1259.9 483.835 1307.3 437.826L1577.5 174.874L1577.7 175.269L1783 -24.5315H1780.9Z" fill="url(#paint50_linear)"/>
<path d="M1780.9 -24.5315L1578.2 172.805L1578 172.411L1306.3 436.742C1258.6 483.146 1232.3 544.721 1232.4 610.139C1232.4 675.458 1258.6 736.738 1306.1 782.944L1384.6 859.199C1385.3 859.199 1386 859.199 1386.7 859.199L1307.1 781.86C1259.9 736.048 1233.8 675.064 1233.8 610.139C1233.8 545.115 1259.9 483.835 1307.3 437.826L1577.5 174.874L1577.7 175.269L1783 -24.5315H1780.9Z" fill="url(#paint51_linear)"/>
<path d="M1791.3 -24.5315L1592.1 169.357L1591.9 168.963L1323.3 430.24C1276.1 476.151 1250.2 537.135 1250.3 601.863C1250.4 666.394 1276.2 726.984 1323.1 772.501L1412.2 859.101C1412.9 859.101 1413.6 859.101 1414.3 859.101L1324.2 771.516C1277.6 726.295 1251.9 666.099 1251.8 601.962C1251.7 537.628 1277.5 477.037 1324.4 431.324L1591.5 171.426L1591.7 171.82L1793.4 -24.5315H1791.3Z" fill="url(#paint52_linear)"/>
<path d="M1791.3 -24.5315L1592.1 169.357L1591.9 168.963L1323.3 430.24C1276.1 476.151 1250.2 537.135 1250.3 601.863C1250.4 666.394 1276.2 726.984 1323.1 772.501L1412.2 859.101C1412.9 859.101 1413.6 859.101 1414.3 859.101L1324.2 771.516C1277.6 726.295 1251.9 666.099 1251.8 601.962C1251.7 537.628 1277.5 477.037 1324.4 431.324L1591.5 171.426L1591.7 171.82L1793.4 -24.5315H1791.3Z" fill="url(#paint53_linear)"/>
<path d="M1801.7 -24.5315L1606.3 165.613L1606.1 165.219L1340.7 423.442C1294.1 468.762 1268.5 528.958 1268.5 592.898C1268.5 656.641 1294.1 716.64 1340.5 761.664L1440.6 858.904C1441.3 858.904 1442 858.904 1442.7 858.904L1341.5 760.58C1295.4 715.753 1270 656.148 1270 592.799C1270 529.253 1295.4 469.451 1341.7 424.427L1605.7 167.682L1605.9 168.077L1803.8 -24.5315H1801.7Z" fill="url(#paint54_linear)"/>
<path d="M1801.7 -24.5315L1606.3 165.613L1606.1 165.219L1340.7 423.442C1294.1 468.762 1268.5 528.958 1268.5 592.898C1268.5 656.641 1294.1 716.64 1340.5 761.664L1440.6 858.904C1441.3 858.904 1442 858.904 1442.7 858.904L1341.5 760.58C1295.4 715.753 1270 656.148 1270 592.799C1270 529.253 1295.4 469.451 1341.7 424.427L1605.7 167.682L1605.9 168.077L1803.8 -24.5315H1801.7Z" fill="url(#paint55_linear)"/>
<path d="M1814 -24.5315H1811.9L1620.8 161.377V160.983L1358 416.841C1312 461.57 1286.7 521.076 1286.7 584.228C1286.7 647.281 1312 706.492 1357.8 751.024L1468.7 858.707C1469.4 858.707 1470.1 858.707 1470.8 858.707L1358.8 749.94C1313.3 705.704 1288.2 646.887 1288.2 584.228C1288.2 521.47 1313.3 462.358 1359 417.925L1619.2 164.628V165.022L1814 -24.5315Z" fill="url(#paint56_linear)"/>
<path d="M1814 -24.5315H1811.9L1620.8 161.377V160.983L1358 416.841C1312 461.57 1286.7 521.076 1286.7 584.228C1286.7 647.281 1312 706.492 1357.8 751.024L1468.7 858.707C1469.4 858.707 1470.1 858.707 1470.8 858.707L1358.8 749.94C1313.3 705.704 1288.2 646.887 1288.2 584.228C1288.2 521.47 1313.3 462.358 1359 417.925L1619.2 164.628V165.022L1814 -24.5315Z" fill="url(#paint57_linear)"/>
<path d="M1822.4 -24.5315L1634.1 158.717L1633.5 158.323L1374.7 410.24C1329.3 454.575 1304.3 513.392 1304.3 575.854C1304.4 638.119 1329.3 696.542 1374.5 740.482L1496 858.608C1496.7 858.608 1497.4 858.608 1498.1 858.608L1375.5 739.497C1330.6 695.852 1305.8 637.725 1305.7 575.952C1305.6 513.884 1330.5 455.363 1375.6 411.324L1633.7 160.195L1634.3 160.589L1824.6 -24.5315H1822.4Z" fill="url(#paint58_linear)"/>
<path d="M1822.4 -24.5315L1634.1 158.717L1633.5 158.323L1374.7 410.24C1329.3 454.575 1304.3 513.392 1304.3 575.854C1304.4 638.119 1329.3 696.542 1374.5 740.482L1496 858.608C1496.7 858.608 1497.4 858.608 1498.1 858.608L1375.5 739.497C1330.6 695.852 1305.8 637.725 1305.7 575.952C1305.6 513.884 1330.5 455.363 1375.6 411.324L1633.7 160.195L1634.3 160.589L1824.6 -24.5315H1822.4Z" fill="url(#paint59_linear)"/>
<path d="M1832.7 -24.5315L1648.4 154.776L1648.2 154.382L1392.2 403.442C1347.2 447.186 1322.5 505.313 1322.6 567.085C1322.7 628.562 1347.3 686.295 1392.1 729.743L1524.6 858.608C1525.3 858.608 1526 858.608 1526.7 858.608L1393.1 728.758C1348.7 685.704 1324.1 628.267 1324.1 567.184C1324 505.805 1348.6 448.072 1393.3 404.625L1647.8 156.944L1648 157.338L1834.8 -24.5315H1832.7Z" fill="url(#paint60_linear)"/>
<path d="M1832.7 -24.5315L1648.4 154.776L1648.2 154.382L1392.2 403.442C1347.2 447.186 1322.5 505.313 1322.6 567.085C1322.7 628.562 1347.3 686.295 1392.1 729.743L1524.6 858.608C1525.3 858.608 1526 858.608 1526.7 858.608L1393.1 728.758C1348.7 685.704 1324.1 628.267 1324.1 567.184C1324 505.805 1348.6 448.072 1393.3 404.625L1647.8 156.944L1648 157.338L1834.8 -24.5315H1832.7Z" fill="url(#paint61_linear)"/>
<path d="M1843.1 -24.5315L1662.5 151.328L1662.1 150.737L1409.4 396.645C1365 439.797 1340.6 497.136 1340.6 558.021C1340.6 618.809 1365 675.852 1409.2 718.807L1552.9 858.411C1553.6 858.411 1554.3 858.411 1555 858.411L1410.2 717.822C1366.3 675.163 1342.1 618.415 1342.1 558.12C1342.1 497.628 1366.3 440.683 1410.4 397.827L1661.8 153.2L1662.2 153.791L1845.2 -24.5315H1843.1Z" fill="url(#paint62_linear)"/>
<path d="M1843.1 -24.5315L1662.5 151.328L1662.1 150.737L1409.4 396.645C1365 439.797 1340.6 497.136 1340.6 558.021C1340.6 618.809 1365 675.852 1409.2 718.807L1552.9 858.411C1553.6 858.411 1554.3 858.411 1555 858.411L1410.2 717.822C1366.3 675.163 1342.1 618.415 1342.1 558.12C1342.1 497.628 1366.3 440.683 1410.4 397.827L1661.8 153.2L1662.2 153.791L1845.2 -24.5315H1843.1Z" fill="url(#paint63_linear)"/>
<path d="M1853.3 -24.5315L1676.5 147.584L1676.3 147.19L1426.8 390.438C1383 432.999 1358.9 489.648 1358.9 549.746C1358.9 609.745 1383 666.099 1426.6 708.463L1580.8 858.214C1581.5 858.214 1582.2 858.214 1582.9 858.214L1427.7 707.477C1384.4 665.409 1360.5 609.351 1360.5 549.746C1360.5 490.042 1384.4 433.787 1427.9 391.423L1675.9 149.555L1676.1 149.949L1855.4 -24.5315H1853.3Z" fill="url(#paint64_linear)"/>
<path d="M1853.3 -24.5315L1676.5 147.584L1676.3 147.19L1426.8 390.438C1383 432.999 1358.9 489.648 1358.9 549.746C1358.9 609.745 1383 666.099 1426.6 708.463L1580.8 858.214C1581.5 858.214 1582.2 858.214 1582.9 858.214L1427.7 707.477C1384.4 665.409 1360.5 609.351 1360.5 549.746C1360.5 490.042 1384.4 433.787 1427.9 391.423L1675.9 149.555L1676.1 149.949L1855.4 -24.5315H1853.3Z" fill="url(#paint65_linear)"/>
<path d="M1863.4 -24.5315L1690 144.234L1689.4 144.037L1443.3 383.64C1400 425.807 1376.3 481.766 1376.3 541.273C1376.4 600.484 1400.1 656.148 1443.1 697.921L1608.1 858.313C1608.8 858.313 1609.5 858.313 1610.2 858.313L1444.1 696.936C1401.4 655.458 1377.8 600.188 1377.7 541.371C1377.6 482.259 1401.3 426.693 1444.2 384.822L1689.7 145.909L1690.3 146.106L1865.6 -24.5315H1863.4Z" fill="url(#paint66_linear)"/>
<path d="M1863.4 -24.5315L1690 144.234L1689.4 144.037L1443.3 383.64C1400 425.807 1376.3 481.766 1376.3 541.273C1376.4 600.484 1400.1 656.148 1443.1 697.921L1608.1 858.313C1608.8 858.313 1609.5 858.313 1610.2 858.313L1444.1 696.936C1401.4 655.458 1377.8 600.188 1377.7 541.371C1377.6 482.259 1401.3 426.693 1444.2 384.822L1689.7 145.909L1690.3 146.106L1865.6 -24.5315H1863.4Z" fill="url(#paint67_linear)"/>
<path d="M1874 -24.5315L1704.2 140.786L1703.6 140.589L1460.6 377.039C1418 418.615 1394.5 473.786 1394.5 532.406C1394.5 590.829 1417.9 645.902 1460.4 687.182L1636.4 858.214C1637.1 858.214 1637.8 858.214 1638.5 858.214L1461.5 686.197C1419.3 645.114 1396 590.533 1396 532.406C1396 474.18 1419.3 419.403 1461.7 378.123L1704 142.264L1704.6 142.461L1876.2 -24.5315H1874Z" fill="url(#paint68_linear)"/>
<path d="M1874 -24.5315L1704.2 140.786L1703.6 140.589L1460.6 377.039C1418 418.615 1394.5 473.786 1394.5 532.406C1394.5 590.829 1417.9 645.902 1460.4 687.182L1636.4 858.214C1637.1 858.214 1637.8 858.214 1638.5 858.214L1461.5 686.197C1419.3 645.114 1396 590.533 1396 532.406C1396 474.18 1419.3 419.403 1461.7 378.123L1704 142.264L1704.6 142.461L1876.2 -24.5315H1874Z" fill="url(#paint69_linear)"/>
<path d="M1886.4 -24.5315H1884.3L1719.2 136.156V135.959L1478.4 370.241C1436.2 411.226 1413 465.708 1413 523.638C1413 581.371 1436.2 635.656 1478.2 676.443L1665.3 858.214C1666 858.214 1666.7 858.214 1667.4 858.214L1479.2 675.36C1437.5 634.868 1414.5 580.977 1414.5 523.638C1414.5 466.2 1437.5 412.112 1479.4 371.325L1717.6 139.505V139.703L1886.4 -24.5315Z" fill="url(#paint70_linear)"/>
<path d="M1886.4 -24.5315H1884.3L1719.2 136.156V135.959L1478.4 370.241C1436.2 411.226 1413 465.708 1413 523.638C1413 581.371 1436.2 635.656 1478.2 676.443L1665.3 858.214C1666 858.214 1666.7 858.214 1667.4 858.214L1479.2 675.36C1437.5 634.868 1414.5 580.977 1414.5 523.638C1414.5 466.2 1437.5 412.112 1479.4 371.325L1717.6 139.505V139.703L1886.4 -24.5315Z" fill="url(#paint71_linear)"/>
<path d="M1894.8 -24.5315L1732.7 133.2L1732.3 132.609L1495.1 363.246C1453.5 403.837 1430.6 457.629 1430.6 514.869C1430.7 571.814 1453.5 625.311 1494.9 665.508L1693.4 858.214C1694.1 858.214 1694.8 858.214 1695.5 858.214L1495.9 664.522C1454.8 624.621 1432.1 571.519 1432 514.968C1431.9 458.22 1454.7 404.723 1496 364.428L1731.9 135.072L1732.3 135.663L1897 -24.5315H1894.8Z" fill="url(#paint72_linear)"/>
<path d="M1894.8 -24.5315L1732.7 133.2L1732.3 132.609L1495.1 363.246C1453.5 403.837 1430.6 457.629 1430.6 514.869C1430.7 571.814 1453.5 625.311 1494.9 665.508L1693.4 858.214C1694.1 858.214 1694.8 858.214 1695.5 858.214L1495.9 664.522C1454.8 624.621 1432.1 571.519 1432 514.968C1431.9 458.22 1454.7 404.723 1496 364.428L1731.9 135.072L1732.3 135.663L1897 -24.5315H1894.8Z" fill="url(#paint73_linear)"/>
</g>
<defs>
<linearGradient id="paint0_linear" x1="1149.9" y1="-24.5315" x2="1149.9" y2="863.042" gradientUnits="userSpaceOnUse">
<stop offset="0.192708" stop-color="#19A3FF"/>
<stop offset="0.796875" stop-color="#7919FF"/>
</linearGradient>
<linearGradient id="paint1_linear" x1="1149.9" y1="-24.5315" x2="1149.9" y2="863.042" gradientUnits="userSpaceOnUse">
<stop offset="0.192708" stop-color="#19A3FF"/>
<stop offset="0.796875" stop-color="#7919FF"/>
</linearGradient>
<linearGradient id="paint2_linear" x1="1164.25" y1="-24.5315" x2="1164.25" y2="862.943" gradientUnits="userSpaceOnUse">
<stop offset="0.192708" stop-color="#19A3FF"/>
<stop offset="0.796875" stop-color="#7919FF"/>
</linearGradient>
<linearGradient id="paint3_linear" x1="1164.25" y1="-24.5315" x2="1164.25" y2="862.943" gradientUnits="userSpaceOnUse">
<stop offset="0.192708" stop-color="#19A3FF"/>
<stop offset="0.796875" stop-color="#7919FF"/>
</linearGradient>
<linearGradient id="paint4_linear" x1="1178.6" y1="-24.5315" x2="1178.6" y2="862.845" gradientUnits="userSpaceOnUse">
<stop offset="0.192708" stop-color="#19A3FF"/>
<stop offset="0.796875" stop-color="#7919FF"/>
</linearGradient>
<linearGradient id="paint5_linear" x1="1178.6" y1="-24.5315" x2="1178.6" y2="862.845" gradientUnits="userSpaceOnUse">
<stop offset="0.192708" stop-color="#19A3FF"/>
<stop offset="0.796875" stop-color="#7919FF"/>
</linearGradient>
<linearGradient id="paint6_linear" x1="1193.05" y1="-24.6301" x2="1193.05" y2="862.746" gradientUnits="userSpaceOnUse">
<stop offset="0.192708" stop-color="#19A3FF"/>
<stop offset="0.796875" stop-color="#7919FF"/>
</linearGradient>
<linearGradient id="paint7_linear" x1="1193.05" y1="-24.6301" x2="1193.05" y2="862.746" gradientUnits="userSpaceOnUse">
<stop offset="0.192708" stop-color="#19A3FF"/>
<stop offset="0.796875" stop-color="#7919FF"/>
</linearGradient>
<linearGradient id="paint8_linear" x1="1207.15" y1="-24.5315" x2="1207.15" y2="862.746" gradientUnits="userSpaceOnUse">
<stop offset="0.192708" stop-color="#19A3FF"/>
<stop offset="0.796875" stop-color="#7919FF"/>
</linearGradient>
<linearGradient id="paint9_linear" x1="1207.15" y1="-24.5315" x2="1207.15" y2="862.746" gradientUnits="userSpaceOnUse">
<stop offset="0.192708" stop-color="#19A3FF"/>
<stop offset="0.796875" stop-color="#7919FF"/>
</linearGradient>
<linearGradient id="paint10_linear" x1="1221.8" y1="-24.5315" x2="1221.8" y2="862.647" gradientUnits="userSpaceOnUse">
<stop offset="0.192708" stop-color="#19A3FF"/>
<stop offset="0.796875" stop-color="#7919FF"/>
</linearGradient>
<linearGradient id="paint11_linear" x1="1221.8" y1="-24.5315" x2="1221.8" y2="862.647" gradientUnits="userSpaceOnUse">
<stop offset="0.192708" stop-color="#19A3FF"/>
<stop offset="0.796875" stop-color="#7919FF"/>
</linearGradient>
<linearGradient id="paint12_linear" x1="1236.1" y1="-24.5315" x2="1236.1" y2="862.45" gradientUnits="userSpaceOnUse">
<stop offset="0.192708" stop-color="#19A3FF"/>
<stop offset="0.796875" stop-color="#7919FF"/>
</linearGradient>
<linearGradient id="paint13_linear" x1="1236.1" y1="-24.5315" x2="1236.1" y2="862.45" gradientUnits="userSpaceOnUse">
<stop offset="0.192708" stop-color="#19A3FF"/>
<stop offset="0.796875" stop-color="#7919FF"/>
</linearGradient>
<linearGradient id="paint14_linear" x1="1250.6" y1="-24.5315" x2="1250.6" y2="862.45" gradientUnits="userSpaceOnUse">
<stop offset="0.192708" stop-color="#19A3FF"/>
<stop offset="0.796875" stop-color="#7919FF"/>
</linearGradient>
<linearGradient id="paint15_linear" x1="1250.6" y1="-24.5315" x2="1250.6" y2="862.45" gradientUnits="userSpaceOnUse">
<stop offset="0.192708" stop-color="#19A3FF"/>
<stop offset="0.796875" stop-color="#7919FF"/>
</linearGradient>
<linearGradient id="paint16_linear" x1="1264.95" y1="-24.5315" x2="1264.95" y2="862.253" gradientUnits="userSpaceOnUse">
<stop offset="0.192708" stop-color="#19A3FF"/>
<stop offset="0.796875" stop-color="#7919FF"/>
</linearGradient>
<linearGradient id="paint17_linear" x1="1264.95" y1="-24.5315" x2="1264.95" y2="862.253" gradientUnits="userSpaceOnUse">
<stop offset="0.192708" stop-color="#19A3FF"/>
<stop offset="0.796875" stop-color="#7919FF"/>
</linearGradient>
<linearGradient id="paint18_linear" x1="1279.2" y1="-24.5315" x2="1279.2" y2="862.253" gradientUnits="userSpaceOnUse">
<stop offset="0.192708" stop-color="#19A3FF"/>
<stop offset="0.796875" stop-color="#7919FF"/>
</linearGradient>
<linearGradient id="paint19_linear" x1="1279.2" y1="-24.5315" x2="1279.2" y2="862.253" gradientUnits="userSpaceOnUse">
<stop offset="0.192708" stop-color="#19A3FF"/>
<stop offset="0.796875" stop-color="#7919FF"/>
</linearGradient>
<linearGradient id="paint20_linear" x1="1293.6" y1="-24.5315" x2="1293.6" y2="862.056" gradientUnits="userSpaceOnUse">
<stop offset="0.192708" stop-color="#19A3FF"/>
<stop offset="0.796875" stop-color="#7919FF"/>
</linearGradient>
<linearGradient id="paint21_linear" x1="1293.6" y1="-24.5315" x2="1293.6" y2="862.056" gradientUnits="userSpaceOnUse">
<stop offset="0.192708" stop-color="#19A3FF"/>
<stop offset="0.796875" stop-color="#7919FF"/>
</linearGradient>
<linearGradient id="paint22_linear" x1="1308" y1="-24.5315" x2="1308" y2="861.958" gradientUnits="userSpaceOnUse">
<stop offset="0.192708" stop-color="#19A3FF"/>
<stop offset="0.796875" stop-color="#7919FF"/>
</linearGradient>
<linearGradient id="paint23_linear" x1="1308" y1="-24.5315" x2="1308" y2="861.958" gradientUnits="userSpaceOnUse">
<stop offset="0.192708" stop-color="#19A3FF"/>
<stop offset="0.796875" stop-color="#7919FF"/>
</linearGradient>
<linearGradient id="paint24_linear" x1="1322.15" y1="-24.5315" x2="1322.15" y2="861.662" gradientUnits="userSpaceOnUse">
<stop offset="0.192708" stop-color="#19A3FF"/>
<stop offset="0.796875" stop-color="#7919FF"/>
</linearGradient>
<linearGradient id="paint25_linear" x1="1322.15" y1="-24.5315" x2="1322.15" y2="861.662" gradientUnits="userSpaceOnUse">
<stop offset="0.192708" stop-color="#19A3FF"/>
<stop offset="0.796875" stop-color="#7919FF"/>
</linearGradient>
<linearGradient id="paint26_linear" x1="1336.7" y1="-24.5315" x2="1336.7" y2="861.564" gradientUnits="userSpaceOnUse">
<stop offset="0.192708" stop-color="#19A3FF"/>
<stop offset="0.796875" stop-color="#7919FF"/>
</linearGradient>
<linearGradient id="paint27_linear" x1="1336.7" y1="-24.5315" x2="1336.7" y2="861.564" gradientUnits="userSpaceOnUse">
<stop offset="0.192708" stop-color="#19A3FF"/>
<stop offset="0.796875" stop-color="#7919FF"/>
</linearGradient>
<linearGradient id="paint28_linear" x1="1351" y1="-24.5315" x2="1351" y2="861.465" gradientUnits="userSpaceOnUse">
<stop offset="0.192708" stop-color="#19A3FF"/>
<stop offset="0.796875" stop-color="#7919FF"/>
</linearGradient>
<linearGradient id="paint29_linear" x1="1351" y1="-24.5315" x2="1351" y2="861.465" gradientUnits="userSpaceOnUse">
<stop offset="0.192708" stop-color="#19A3FF"/>
<stop offset="0.796875" stop-color="#7919FF"/>
</linearGradient>
<linearGradient id="paint30_linear" x1="1365.3" y1="-24.5315" x2="1365.3" y2="861.17" gradientUnits="userSpaceOnUse">
<stop offset="0.192708" stop-color="#19A3FF"/>
<stop offset="0.796875" stop-color="#7919FF"/>
</linearGradient>
<linearGradient id="paint31_linear" x1="1365.3" y1="-24.5315" x2="1365.3" y2="861.17" gradientUnits="userSpaceOnUse">
<stop offset="0.192708" stop-color="#19A3FF"/>
<stop offset="0.796875" stop-color="#7919FF"/>
</linearGradient>
<linearGradient id="paint32_linear" x1="1379.55" y1="-24.5315" x2="1379.55" y2="861.071" gradientUnits="userSpaceOnUse">
<stop offset="0.192708" stop-color="#19A3FF"/>
<stop offset="0.796875" stop-color="#7919FF"/>
</linearGradient>
<linearGradient id="paint33_linear" x1="1379.55" y1="-24.5315" x2="1379.55" y2="861.071" gradientUnits="userSpaceOnUse">
<stop offset="0.192708" stop-color="#19A3FF"/>
<stop offset="0.796875" stop-color="#7919FF"/>
</linearGradient>
<linearGradient id="paint34_linear" x1="1393.9" y1="-24.5315" x2="1393.9" y2="860.874" gradientUnits="userSpaceOnUse">
<stop offset="0.192708" stop-color="#19A3FF"/>
<stop offset="0.796875" stop-color="#7919FF"/>
</linearGradient>
<linearGradient id="paint35_linear" x1="1393.9" y1="-24.5315" x2="1393.9" y2="860.874" gradientUnits="userSpaceOnUse">
<stop offset="0.192708" stop-color="#19A3FF"/>
<stop offset="0.796875" stop-color="#7919FF"/>
</linearGradient>
<linearGradient id="paint36_linear" x1="1408.1" y1="-24.5315" x2="1408.1" y2="860.776" gradientUnits="userSpaceOnUse">
<stop offset="0.192708" stop-color="#19A3FF"/>
<stop offset="0.796875" stop-color="#7919FF"/>
</linearGradient>
<linearGradient id="paint37_linear" x1="1408.1" y1="-24.5315" x2="1408.1" y2="860.776" gradientUnits="userSpaceOnUse">
<stop offset="0.192708" stop-color="#19A3FF"/>
<stop offset="0.796875" stop-color="#7919FF"/>
</linearGradient>
<linearGradient id="paint38_linear" x1="1422.3" y1="-24.5315" x2="1422.3" y2="860.48" gradientUnits="userSpaceOnUse">
<stop offset="0.192708" stop-color="#19A3FF"/>
<stop offset="0.796875" stop-color="#7919FF"/>
</linearGradient>
<linearGradient id="paint39_linear" x1="1422.3" y1="-24.5315" x2="1422.3" y2="860.48" gradientUnits="userSpaceOnUse">
<stop offset="0.192708" stop-color="#19A3FF"/>
<stop offset="0.796875" stop-color="#7919FF"/>
</linearGradient>
<linearGradient id="paint40_linear" x1="1436.7" y1="-24.5315" x2="1436.7" y2="860.184" gradientUnits="userSpaceOnUse">
<stop offset="0.192708" stop-color="#19A3FF"/>
<stop offset="0.796875" stop-color="#7919FF"/>
</linearGradient>
<linearGradient id="paint41_linear" x1="1436.7" y1="-24.5315" x2="1436.7" y2="860.184" gradientUnits="userSpaceOnUse">
<stop offset="0.192708" stop-color="#19A3FF"/>
<stop offset="0.796875" stop-color="#7919FF"/>
</linearGradient>
<linearGradient id="paint42_linear" x1="1450.95" y1="-24.5315" x2="1450.95" y2="860.086" gradientUnits="userSpaceOnUse">
<stop offset="0.192708" stop-color="#19A3FF"/>
<stop offset="0.796875" stop-color="#7919FF"/>
</linearGradient>
<linearGradient id="paint43_linear" x1="1450.95" y1="-24.5315" x2="1450.95" y2="860.086" gradientUnits="userSpaceOnUse">
<stop offset="0.192708" stop-color="#19A3FF"/>
<stop offset="0.796875" stop-color="#7919FF"/>
</linearGradient>
<linearGradient id="paint44_linear" x1="1465.1" y1="-24.5315" x2="1465.1" y2="859.79" gradientUnits="userSpaceOnUse">
<stop offset="0.192708" stop-color="#19A3FF"/>
<stop offset="0.796875" stop-color="#7919FF"/>
</linearGradient>
<linearGradient id="paint45_linear" x1="1465.1" y1="-24.5315" x2="1465.1" y2="859.79" gradientUnits="userSpaceOnUse">
<stop offset="0.192708" stop-color="#19A3FF"/>
<stop offset="0.796875" stop-color="#7919FF"/>
</linearGradient>
<linearGradient id="paint46_linear" x1="1479.3" y1="-24.5315" x2="1479.3" y2="859.593" gradientUnits="userSpaceOnUse">
<stop offset="0.192708" stop-color="#19A3FF"/>
<stop offset="0.796875" stop-color="#7919FF"/>
</linearGradient>
<linearGradient id="paint47_linear" x1="1479.3" y1="-24.5315" x2="1479.3" y2="859.593" gradientUnits="userSpaceOnUse">
<stop offset="0.192708" stop-color="#19A3FF"/>
<stop offset="0.796875" stop-color="#7919FF"/>
</linearGradient>
<linearGradient id="paint48_linear" x1="1493.4" y1="-24.5315" x2="1493.4" y2="859.396" gradientUnits="userSpaceOnUse">
<stop offset="0.192708" stop-color="#19A3FF"/>
<stop offset="0.796875" stop-color="#7919FF"/>
</linearGradient>
<linearGradient id="paint49_linear" x1="1493.4" y1="-24.5315" x2="1493.4" y2="859.396" gradientUnits="userSpaceOnUse">
<stop offset="0.192708" stop-color="#19A3FF"/>
<stop offset="0.796875" stop-color="#7919FF"/>
</linearGradient>
<linearGradient id="paint50_linear" x1="1507.7" y1="-24.5315" x2="1507.7" y2="859.199" gradientUnits="userSpaceOnUse">
<stop offset="0.192708" stop-color="#19A3FF"/>
<stop offset="0.796875" stop-color="#7919FF"/>
</linearGradient>
<linearGradient id="paint51_linear" x1="1507.7" y1="-24.5315" x2="1507.7" y2="859.199" gradientUnits="userSpaceOnUse">
<stop offset="0.192708" stop-color="#19A3FF"/>
<stop offset="0.796875" stop-color="#7919FF"/>
</linearGradient>
<linearGradient id="paint52_linear" x1="1521.85" y1="-24.5315" x2="1521.85" y2="859.101" gradientUnits="userSpaceOnUse">
<stop offset="0.192708" stop-color="#19A3FF"/>
<stop offset="0.796875" stop-color="#7919FF"/>
</linearGradient>
<linearGradient id="paint53_linear" x1="1521.85" y1="-24.5315" x2="1521.85" y2="859.101" gradientUnits="userSpaceOnUse">
<stop offset="0.192708" stop-color="#19A3FF"/>
<stop offset="0.796875" stop-color="#7919FF"/>
</linearGradient>
<linearGradient id="paint54_linear" x1="1536.15" y1="-24.5315" x2="1536.15" y2="858.904" gradientUnits="userSpaceOnUse">
<stop offset="0.192708" stop-color="#19A3FF"/>
<stop offset="0.796875" stop-color="#7919FF"/>
</linearGradient>
<linearGradient id="paint55_linear" x1="1536.15" y1="-24.5315" x2="1536.15" y2="858.904" gradientUnits="userSpaceOnUse">
<stop offset="0.192708" stop-color="#19A3FF"/>
<stop offset="0.796875" stop-color="#7919FF"/>
</linearGradient>
<linearGradient id="paint56_linear" x1="1550.35" y1="-24.5315" x2="1550.35" y2="858.707" gradientUnits="userSpaceOnUse">
<stop offset="0.192708" stop-color="#19A3FF"/>
<stop offset="0.796875" stop-color="#7919FF"/>
</linearGradient>
<linearGradient id="paint57_linear" x1="1550.35" y1="-24.5315" x2="1550.35" y2="858.707" gradientUnits="userSpaceOnUse">
<stop offset="0.192708" stop-color="#19A3FF"/>
<stop offset="0.796875" stop-color="#7919FF"/>
</linearGradient>
<linearGradient id="paint58_linear" x1="1564.45" y1="-24.5315" x2="1564.45" y2="858.608" gradientUnits="userSpaceOnUse">
<stop offset="0.192708" stop-color="#19A3FF"/>
<stop offset="0.796875" stop-color="#7919FF"/>
</linearGradient>
<linearGradient id="paint59_linear" x1="1564.45" y1="-24.5315" x2="1564.45" y2="858.608" gradientUnits="userSpaceOnUse">
<stop offset="0.192708" stop-color="#19A3FF"/>
<stop offset="0.796875" stop-color="#7919FF"/>
</linearGradient>
<linearGradient id="paint60_linear" x1="1578.7" y1="-24.5315" x2="1578.7" y2="858.608" gradientUnits="userSpaceOnUse">
<stop offset="0.192708" stop-color="#19A3FF"/>
<stop offset="0.796875" stop-color="#7919FF"/>
</linearGradient>
<linearGradient id="paint61_linear" x1="1578.7" y1="-24.5315" x2="1578.7" y2="858.608" gradientUnits="userSpaceOnUse">
<stop offset="0.192708" stop-color="#19A3FF"/>
<stop offset="0.796875" stop-color="#7919FF"/>
</linearGradient>
<linearGradient id="paint62_linear" x1="1592.9" y1="-24.5315" x2="1592.9" y2="858.411" gradientUnits="userSpaceOnUse">
<stop offset="0.192708" stop-color="#19A3FF"/>
<stop offset="0.796875" stop-color="#7919FF"/>
</linearGradient>
<linearGradient id="paint63_linear" x1="1592.9" y1="-24.5315" x2="1592.9" y2="858.411" gradientUnits="userSpaceOnUse">
<stop offset="0.192708" stop-color="#19A3FF"/>
<stop offset="0.796875" stop-color="#7919FF"/>
</linearGradient>
<linearGradient id="paint64_linear" x1="1607.15" y1="-24.5315" x2="1607.15" y2="858.214" gradientUnits="userSpaceOnUse">
<stop offset="0.192708" stop-color="#19A3FF"/>
<stop offset="0.796875" stop-color="#7919FF"/>
</linearGradient>
<linearGradient id="paint65_linear" x1="1607.15" y1="-24.5315" x2="1607.15" y2="858.214" gradientUnits="userSpaceOnUse">
<stop offset="0.192708" stop-color="#19A3FF"/>
<stop offset="0.796875" stop-color="#7919FF"/>
</linearGradient>
<linearGradient id="paint66_linear" x1="1620.95" y1="-24.5315" x2="1620.95" y2="858.313" gradientUnits="userSpaceOnUse">
<stop offset="0.192708" stop-color="#19A3FF"/>
<stop offset="0.796875" stop-color="#7919FF"/>
</linearGradient>
<linearGradient id="paint67_linear" x1="1620.95" y1="-24.5315" x2="1620.95" y2="858.313" gradientUnits="userSpaceOnUse">
<stop offset="0.192708" stop-color="#19A3FF"/>
<stop offset="0.796875" stop-color="#7919FF"/>
</linearGradient>
<linearGradient id="paint68_linear" x1="1635.35" y1="-24.5315" x2="1635.35" y2="858.214" gradientUnits="userSpaceOnUse">
<stop offset="0.192708" stop-color="#19A3FF"/>
<stop offset="0.796875" stop-color="#7919FF"/>
</linearGradient>
<linearGradient id="paint69_linear" x1="1635.35" y1="-24.5315" x2="1635.35" y2="858.214" gradientUnits="userSpaceOnUse">
<stop offset="0.192708" stop-color="#19A3FF"/>
<stop offset="0.796875" stop-color="#7919FF"/>
</linearGradient>
<linearGradient id="paint70_linear" x1="1649.7" y1="-24.5315" x2="1649.7" y2="858.214" gradientUnits="userSpaceOnUse">
<stop offset="0.192708" stop-color="#19A3FF"/>
<stop offset="0.796875" stop-color="#7919FF"/>
</linearGradient>
<linearGradient id="paint71_linear" x1="1649.7" y1="-24.5315" x2="1649.7" y2="858.214" gradientUnits="userSpaceOnUse">
<stop offset="0.192708" stop-color="#19A3FF"/>
<stop offset="0.796875" stop-color="#7919FF"/>
</linearGradient>
<linearGradient id="paint72_linear" x1="1663.8" y1="-24.5315" x2="1663.8" y2="858.214" gradientUnits="userSpaceOnUse">
<stop offset="0.192708" stop-color="#19A3FF"/>
<stop offset="0.796875" stop-color="#7919FF"/>
</linearGradient>
<linearGradient id="paint73_linear" x1="1663.8" y1="-24.5315" x2="1663.8" y2="858.214" gradientUnits="userSpaceOnUse">
<stop offset="0.192708" stop-color="#19A3FF"/>
<stop offset="0.796875" stop-color="#7919FF"/>
</linearGradient>
</defs>
</svg>
