<svg width="19" height="14" viewBox="0 0 19 14" fill="none" xmlns="http://www.w3.org/2000/svg">
<path d="M18.2607 2.23396C18.0503 1.44189 17.4306 0.818106 16.6436 0.606411C15.2172 0.22168 9.49746 0.22168 9.49746 0.22168C9.49746 0.22168 3.7778 0.22168 2.35143 0.606411C1.56443 0.818106 0.944624 1.44189 0.734332 2.23396C0.352097 3.66968 0.352097 6.66507 0.352097 6.66507C0.352097 6.66507 0.352097 9.66045 0.734332 11.0962C0.944624 11.8882 1.56443 12.5119 2.35143 12.7237C3.7778 13.1084 9.49746 13.1084 9.49746 13.1084C9.49746 13.1084 15.2172 13.1084 16.6436 12.7237C17.4306 12.5119 18.0503 11.8882 18.2607 11.0963C18.6429 9.66037 18.6429 6.66507 18.6429 6.66507C18.6429 6.66507 18.6429 3.66968 18.2607 2.23396" fill="#E73621"/>
<path d="M7.62682 9.38444L12.4074 6.66499L7.62682 3.94531V9.38444Z" fill="white"/>
</svg>
