<svg width="60" height="25" viewBox="0 0 60 25" fill="none" xmlns="http://www.w3.org/2000/svg">
<path fill-rule="evenodd" clip-rule="evenodd" d="M55.3307 23.9626V1.23686C55.3307 0.149922 56.4213 0 57.4871 0C58.5654 0 59.6436 0.149922 59.6436 1.23686V23.9626C59.6436 24.7746 58.5654 24.987 57.4871 24.987C56.4089 24.987 55.3307 24.7746 55.3307 23.9626ZM48.3473 5.30735C49.8599 5.30735 51.0862 4.12712 51.0862 2.67123C51.0862 1.21533 49.8599 0.0350952 48.3473 0.0350952C46.8346 0.0350952 45.6083 1.21533 45.6083 2.67123C45.6083 4.12712 46.8346 5.30735 48.3473 5.30735ZM46.2662 8.94229V23.9595C46.2662 24.7716 47.3444 24.984 48.4226 24.984C49.5008 24.984 50.5791 24.7716 50.5791 23.9595V8.94229C50.5791 7.85536 49.5008 7.70543 48.4226 7.70543C47.3568 7.70543 46.2662 7.85536 46.2662 8.94229ZM24.3558 16.0671C24.3558 11.3446 28.0986 7.13425 33.5022 7.13425C38.881 7.13425 42.7105 11.2696 42.7105 16.0421C42.7105 21.1769 38.4596 25 33.5517 25C28.1111 24.9875 24.3558 20.7771 24.3558 16.0671ZM33.4898 21.3518C36.3651 21.3518 38.5215 18.9656 38.5215 16.0296C38.5215 13.0936 36.3651 10.7699 33.4898 10.7699C30.6145 10.7699 28.4953 13.1311 28.4953 16.0671C28.4953 19.0031 30.6145 21.3518 33.4898 21.3518ZM12.9059 24.9878C16.5867 24.9878 21.8787 22.6765 21.8787 20.3901C21.8787 19.3157 20.5526 17.5042 19.0653 18.1663C18.8587 18.2551 18.6328 18.4573 18.3482 18.712C17.4719 19.496 16.0398 20.7774 12.9059 20.7774C9.89422 20.7774 7.0933 19.1658 5.66806 16.5921C5.01121 15.3927 4.67658 14.031 4.67658 12.6691C4.67658 11.0825 5.12275 9.47081 6.01507 8.09652C6.7215 7.00959 8.04759 5.2605 10.4643 4.52337C11.6417 4.16107 12.658 4.01114 13.5255 4.01114C16.2397 4.01114 17.5162 5.46039 17.5162 6.54732C17.5162 7.12203 17.1568 7.58429 16.4751 7.68423C16.0486 7.74566 15.7999 7.6325 15.5882 7.53613C15.4554 7.4757 15.3371 7.42187 15.1986 7.42187C14.3434 7.42187 13.166 8.9086 13.166 10.1829C13.166 11.1325 13.823 11.957 15.7687 11.957C20.0196 11.957 21.7548 8.89611 21.7548 6.74723C21.7548 3.61136 18.5572 0.0257142 13.4759 0.0257142C11.6664 0.0257142 10.0553 0.450493 9.16301 0.750338C5.6061 1.92473 3.58597 4.12359 2.52013 5.77273C1.18164 7.83416 0.5 10.2454 0.5 12.6566C0.5 14.7305 0.995737 16.8045 2.012 18.6285C4.16846 22.5515 8.39461 24.9878 12.9059 24.9878Z" fill="white"/>
</svg>
