<svg width="137" height="40" viewBox="0 0 137 40" fill="none" xmlns="http://www.w3.org/2000/svg">
<path d="M63.6248 24.0533C63.6248 24.2365 63.5609 24.392 63.4333 24.5196C62.196 25.507 60.8006 26.001 59.2471 26.001C57.4107 26.001 55.842 25.3504 54.5415 24.0494C53.2404 22.7483 52.5898 21.1795 52.5898 19.3431C52.5898 17.5067 53.2404 15.938 54.5415 14.6369C55.842 13.3358 57.4107 12.6852 59.2471 12.6852C60.834 12.6852 62.2458 13.1929 63.4831 14.2079C63.6107 14.3413 63.6745 14.4995 63.6745 14.6829C63.6745 14.8663 63.6093 15.0227 63.4787 15.153C63.3482 15.2833 63.1919 15.3488 63.0087 15.3488C62.8255 15.3488 62.6675 15.2816 62.5343 15.1493C61.5969 14.3942 60.5013 14.0171 59.2471 14.0171C57.7773 14.0171 56.5218 14.5371 55.4818 15.5772C54.4413 16.6172 53.9213 17.8731 53.9213 19.3431C53.9213 20.8129 54.4413 22.069 55.4818 23.1091C56.5218 24.1491 57.7773 24.6691 59.2471 24.6691C60.3956 24.6691 61.4106 24.3525 62.2929 23.7202V20.6748H59.6634C59.4803 20.6748 59.3233 20.6095 59.1928 20.479C59.0629 20.3485 58.9976 20.1921 58.9976 20.0089C58.9976 19.8258 59.0629 19.6692 59.1928 19.5389C59.3233 19.4084 59.4801 19.3431 59.6634 19.3431H62.967C63.1444 19.3431 63.2999 19.4073 63.4333 19.5342C63.5609 19.6676 63.6248 19.8258 63.6248 20.0092V24.0533Z" fill="white"/>
<path d="M69.2376 21.3408L67.5807 25.5931C67.5477 25.6708 67.5002 25.7428 67.4392 25.8089C67.3064 25.9366 67.148 26.0008 66.9653 26.0008C66.7821 26.0008 66.6251 25.9355 66.4946 25.805C66.3647 25.6745 66.2994 25.5181 66.2994 25.335C66.2994 25.2294 66.3186 25.1355 66.3575 25.0518L70.984 13.1516C71.0185 13.0518 71.0761 12.9597 71.1587 12.8771C71.2874 12.7495 71.4427 12.6852 71.625 12.6852C71.8093 12.6852 71.9666 12.7495 72.099 12.8771C72.1777 12.9597 72.2332 13.0518 72.2659 13.1516L76.8924 25.0518C76.9327 25.1353 76.9519 25.2292 76.9519 25.335C76.9519 25.5181 76.8866 25.6747 76.7561 25.805C76.6256 25.9355 76.4682 26.0008 76.286 26.0008C76.1018 26.0008 75.9463 25.9366 75.8197 25.8089C75.7526 25.7426 75.7026 25.6708 75.67 25.5931L74.0139 21.3408H69.2376ZM73.4978 20.0089L71.6248 15.1906L69.7519 20.0089H73.4978Z" fill="white"/>
<path d="M78.3472 14.0169C78.164 14.0169 78.0067 13.9516 77.8772 13.8211C77.7467 13.6906 77.6814 13.5343 77.6814 13.3511C77.6814 13.1679 77.7467 13.0113 77.8772 12.881C78.0067 12.7505 78.164 12.6852 78.3472 12.6852H87.0016C87.1847 12.6852 87.3413 12.7505 87.4716 12.881C87.6019 13.0115 87.6674 13.1679 87.6674 13.3511C87.6674 13.5343 87.6021 13.6908 87.4716 13.8211C87.3411 13.9514 87.1847 14.0169 87.0016 14.0169H83.3403V25.3348C83.3403 25.5179 83.2751 25.6745 83.1445 25.8048C83.014 25.9353 82.8577 26.0006 82.6745 26.0006C82.4913 26.0006 82.3348 25.9353 82.2044 25.8048C82.0739 25.6743 82.0087 25.5179 82.0087 25.3348V14.0169H78.3472Z" fill="white"/>
<path d="M91.5004 12.6852H99.4889C99.6721 12.6852 99.8287 12.7505 99.959 12.881C100.089 13.0115 100.155 13.1679 100.155 13.3511C100.155 13.5343 100.089 13.6908 99.959 13.8211C99.8284 13.9514 99.6721 14.0169 99.4889 14.0169H92.1663V18.6771H97.4923C97.6746 18.6771 97.832 18.7423 97.9623 18.8729C98.0918 19.0034 98.1581 19.1597 98.1581 19.3429C98.1581 19.5261 98.0918 19.6826 97.9623 19.813C97.8318 19.9435 97.6744 20.0087 97.4923 20.0087H92.1663V24.6689H99.4889C99.6721 24.6689 99.8287 24.7342 99.959 24.8647C100.089 24.9952 100.155 25.1516 100.155 25.3348C100.155 25.5179 100.089 25.6745 99.959 25.8048C99.8284 25.9353 99.6721 26.0006 99.4889 26.0006H91.5004C91.3172 26.0006 91.1599 25.9353 91.0304 25.8048C90.8999 25.6743 90.8346 25.5179 90.8346 25.3348V13.3511C90.8346 13.1679 90.8999 13.0113 91.0304 12.881C91.1599 12.7505 91.3172 12.6852 91.5004 12.6852Z" fill="white"/>
<path d="M102.896 13.3511C102.896 13.1679 102.961 13.0113 103.091 12.881C103.221 12.7505 103.378 12.6852 103.561 12.6852C103.745 12.6852 103.901 12.7505 104.032 12.881C104.162 13.0115 104.227 13.1679 104.227 13.3511V18.6771H110.884V13.3511C110.884 13.1679 110.949 13.0113 111.08 12.881C111.21 12.7507 111.367 12.6852 111.55 12.6852C111.733 12.6852 111.89 12.7505 112.02 12.881C112.15 13.0115 112.216 13.1679 112.216 13.3511V25.3348C112.216 25.5179 112.151 25.6745 112.02 25.8048C111.889 25.9353 111.733 26.0006 111.55 26.0006C111.367 26.0006 111.21 25.9353 111.08 25.8048C110.949 25.6743 110.884 25.5179 110.884 25.3348V20.0087H104.227V25.3348C104.227 25.5179 104.162 25.6745 104.032 25.8048C103.901 25.9353 103.745 26.0006 103.561 26.0006C103.378 26.0006 103.221 25.9353 103.091 25.8048C102.961 25.6743 102.896 25.5179 102.896 25.3348V13.3511Z" fill="white"/>
<path d="M115.725 13.3511C115.725 13.1679 115.79 13.0113 115.921 12.881C116.05 12.7505 116.207 12.6852 116.391 12.6852C116.574 12.6852 116.73 12.7505 116.861 12.881C116.991 13.0115 117.057 13.1679 117.057 13.3511V21.3406C117.057 22.2617 117.381 23.0465 118.029 23.6952C118.679 24.3447 119.464 24.6689 120.385 24.6689C121.306 24.6689 122.091 24.3447 122.74 23.6952C123.389 23.0465 123.713 22.2617 123.713 21.3406V13.3511C123.713 13.1679 123.778 13.0113 123.909 12.881C124.039 12.7507 124.196 12.6852 124.379 12.6852C124.562 12.6852 124.719 12.7505 124.849 12.881C124.979 13.0115 125.045 13.1679 125.045 13.3511V21.3406C125.045 22.6272 124.59 23.7257 123.681 24.6355C122.77 25.546 121.671 26.0008 120.385 26.0008C119.097 26.0008 118 25.546 117.089 24.6355C116.18 23.7259 115.725 22.6272 115.725 21.3406V13.3511Z" fill="white"/>
<path d="M129.069 12.6852H131.731C132.653 12.6852 133.437 13.0105 134.087 13.659C134.736 14.3085 135.061 15.0933 135.061 16.0144C135.061 16.9355 134.736 17.7203 134.087 18.369C134.497 18.5637 134.877 18.8324 135.227 19.1769C136.004 19.9588 136.391 20.902 136.391 22.0054C136.391 23.1097 136.002 24.052 135.223 24.831C134.443 25.6111 133.501 26.0006 132.397 26.0006H129.069C128.886 26.0006 128.728 25.9353 128.599 25.8048C128.468 25.6743 128.403 25.5179 128.403 25.3348V13.3511C128.403 13.1679 128.468 13.0113 128.599 12.881C128.728 12.7505 128.886 12.6852 129.069 12.6852ZM129.735 14.0169V18.011H131.731C132.281 18.011 132.751 17.8153 133.142 17.4247C133.533 17.0334 133.729 16.5631 133.729 16.0144C133.729 15.4646 133.533 14.9946 133.142 14.603C132.751 14.2125 132.281 14.0167 131.731 14.0167H129.735V14.0169ZM129.735 19.3429V24.6689H132.397C133.135 24.6689 133.764 24.4099 134.283 23.8907C134.801 23.3718 135.061 22.7441 135.061 22.0054C135.061 21.2685 134.801 20.6401 134.283 20.1211C133.764 19.6021 133.135 19.3429 132.397 19.3429H129.735Z" fill="white"/>
<path d="M5.00134 24.4998C4.5978 24.4998 4.19446 24.4451 3.80248 24.3367C1.41157 23.6766 0.00246245 21.1955 0.662715 18.8044C1.19905 16.8585 2.98176 15.5 4.99804 15.5C5.40096 15.5 5.80389 15.5547 6.19545 15.6632C7.35446 15.9826 8.31871 16.734 8.91226 17.7798C9.50519 18.8246 9.65595 20.0383 9.33584 21.1965C8.79991 23.1411 7.01721 24.4998 5.00134 24.4998ZM4.99804 16.8308C3.57861 16.8308 2.32254 17.7874 1.94501 19.1575C1.48013 20.8413 2.47227 22.5895 4.15666 23.0548C4.4334 23.1306 4.71737 23.1698 5.00155 23.1698C6.42098 23.1698 7.67602 22.2132 8.05354 20.8432C8.27906 20.0266 8.17291 19.1718 7.75511 18.4359C7.33732 17.7001 6.65806 17.1704 5.84189 16.9448C5.56556 16.8692 5.28159 16.8308 4.99804 16.8308Z" fill="white"/>
<path d="M22.8949 19.3348H13.9475V20.6646H22.8949V19.3348Z" fill="white"/>
<path d="M27.9464 12.5812L26.7942 11.9153L22.3172 19.6631L23.4694 20.3289L27.9464 12.5812Z" fill="white"/>
<path d="M26.7935 28.0827L22.319 20.3321L23.4714 19.6663L27.9459 27.4169L26.7935 28.0827Z" fill="white"/>
<path d="M31.8463 8.99984C31.4428 8.99984 31.0394 8.94511 30.6474 8.83669C28.2565 8.17747 26.8474 5.69548 27.5066 3.30436C28.0434 1.35851 29.8261 0 31.8424 0C32.2453 0 32.6482 0.0547287 33.0398 0.163153C35.4313 0.822373 36.8402 3.30539 36.181 5.69631C35.6442 7.64113 33.8618 8.99984 31.8463 8.99984ZM31.8424 1.33083C30.4229 1.33083 29.1669 2.28744 28.7894 3.65751C28.3249 5.34129 29.317 7.08951 31.0014 7.5548C31.2782 7.6306 31.5621 7.67004 31.8463 7.67004C33.2653 7.67004 34.5204 6.7124 34.8989 5.34336C35.3628 3.65855 34.3706 1.91033 32.6864 1.44504C32.4099 1.36924 32.1259 1.33083 31.8424 1.33083Z" fill="white"/>
<path d="M31.8463 39.9998C31.4428 39.9998 31.0394 39.9451 30.6474 39.8367C28.2565 39.1775 26.8474 36.6955 27.5066 34.3044C28.0434 32.3585 29.8261 31 31.8424 31C32.2453 31 32.6482 31.0547 33.0398 31.1632C35.4313 31.8224 36.8402 34.3054 36.181 36.6963C35.6442 38.6411 33.8618 39.9998 31.8463 39.9998ZM31.8424 32.3308C30.4229 32.3308 29.1669 33.2874 28.7894 34.6575C28.3249 36.3413 29.317 38.0895 31.0014 38.5548C31.2782 38.6306 31.5621 38.6698 31.8463 38.6698C33.2653 38.6698 34.5204 37.7122 34.8989 36.3432C35.3634 34.6583 34.3706 32.9101 32.6864 32.4448C32.4099 32.3692 32.1259 32.3308 31.8424 32.3308Z" fill="white"/>
</svg>
