<svg width="40" height="40" viewBox="0 0 40 40" fill="none" xmlns="http://www.w3.org/2000/svg">
<rect width="40" height="40" fill="#D9CAFF"/>
<path d="M19.5601 13.9951V17.2495M12.9335 18.7351L16.2111 19.8001M15.3849 26.6353L17.5841 23.6084M23.7359 26.6354L21.5367 23.6084M26.1826 18.7366L22.909 19.8003M23.0601 20.7388C23.0601 22.6718 21.4931 24.2388 19.5601 24.2388C17.6271 24.2388 16.0601 22.6718 16.0601 20.7388C16.0601 18.8058 17.6271 17.2388 19.5601 17.2388C21.4931 17.2388 23.0601 18.8058 23.0601 20.7388ZM26.4682 27.1058C27.1175 27.9994 26.9194 29.2501 26.0257 29.8994C25.1321 30.5486 23.8814 30.3505 23.2321 29.4569C22.5829 28.5633 22.781 27.3125 23.6746 26.6633C24.5682 26.014 25.819 26.2121 26.4682 27.1058ZM11.6186 16.3167C12.6691 16.6581 13.244 17.7864 12.9026 18.8369C12.5613 19.8874 11.433 20.4623 10.3825 20.121C9.332 19.7796 8.7571 18.6513 9.09843 17.6008C9.43976 16.5503 10.5681 15.9754 11.6186 16.3167ZM27.5016 16.3165C28.5521 15.9752 29.6804 16.5501 30.0217 17.6006C30.363 18.6511 29.7881 19.7794 28.7376 20.1207C27.6871 20.4621 26.5588 19.8872 26.2175 18.8367C25.8762 17.7862 26.4511 16.6578 27.5016 16.3165ZM12.6519 27.1055C13.3012 26.2119 14.5519 26.0138 15.4455 26.6631C16.3392 27.3123 16.5372 28.5631 15.888 29.4567C15.2388 30.3503 13.988 30.5484 13.0944 29.8991C12.2008 29.2499 12.0027 27.9991 12.6519 27.1055ZM17.56 12C17.56 10.8954 18.4555 10 19.5601 10C20.6646 10 21.5601 10.8954 21.5601 12C21.5601 13.1046 20.6646 14 19.5601 14C18.4555 14 17.56 13.1046 17.56 12Z" stroke="#141414" stroke-width="2"/>
</svg>
