<svg width="40" height="40" viewBox="0 0 40 40" fill="none" xmlns="http://www.w3.org/2000/svg">
<rect width="40" height="40" fill="#D9CAFF"/>
<path d="M10.0001 21.9766H15.0002L15.0001 29.9977H10L10.0001 21.9766Z" stroke="#141414" stroke-width="2"/>
<path d="M12.5 21.9761V16.5" stroke="#141414" stroke-width="2"/>
<path d="M21.9995 10.0002C21.1639 10.2958 20.396 10.7756 19.7574 11.4142C18.6321 12.5395 18 14.0656 18 15.6569C18 17.2482 18.6321 18.7743 19.7574 19.8995C20.2665 20.4087 20.8578 20.8169 21.5 21.1112V30H26.5V21.1112C27.1422 20.8169 27.7335 20.4087 28.2426 19.8995C29.3679 18.7743 30 17.2482 30 15.6569C30 14.0656 29.3679 12.5395 28.2426 11.4142C27.6038 10.7754 26.8357 10.2955 25.9999 10V14.1569L23.9999 16.1569L21.9981 14.1569L21.9995 10.0002Z" stroke="#141414" stroke-width="2"/>
<path d="M14.0016 10L15.0015 14L12.5 16.5L10.0015 14L11.0016 10H14.0016Z" stroke="#141414" stroke-width="2"/>
</svg>
