<svg width="41" height="40" viewBox="0 0 41 40" fill="none" xmlns="http://www.w3.org/2000/svg">
<circle cx="20.5" cy="20" r="20" fill="#343437"/>
<path d="M13.982 12.1172H14.4156V11H13.982C13.5222 10.9996 13.067 11.09 12.6422 11.2661C12.2174 11.4422 11.8314 11.7005 11.5063 12.0262C11.1813 12.352 10.9235 12.7387 10.7478 13.1644C10.572 13.59 10.4818 14.0463 10.4822 14.5069V17.0517C10.4831 17.5906 10.2783 18.1094 9.90975 18.5017C9.5412 18.8941 9.03682 19.1304 8.5 19.1621L8.53097 19.7207L8.5 20.2793C9.03682 20.311 9.5412 20.5473 9.90975 20.9396C10.2783 21.332 10.4831 21.8508 10.4822 22.3897V25.3224C10.4805 26.2956 10.8646 27.2296 11.5498 27.9192C12.2351 28.6088 13.1656 28.9975 14.1368 29V27.8828C13.4634 27.8823 12.8176 27.6141 12.3415 27.1369C11.8653 26.6598 11.5976 26.0127 11.5972 25.3379V22.3897C11.5976 21.8633 11.4694 21.3448 11.2238 20.8796C10.9781 20.4143 10.6225 20.0164 10.1879 19.7207C10.6212 19.4237 10.9759 19.0255 11.2214 18.5606C11.4669 18.0956 11.5959 17.5778 11.5972 17.0517V14.5069C11.6 13.874 11.8522 13.2678 12.2988 12.8203C12.7454 12.3728 13.3503 12.1201 13.982 12.1172Z" fill="#F5F5F7"/>
<path d="M26.8672 12.1172H26.4336V11H26.8672C27.7932 11.0025 28.6804 11.3732 29.3337 12.0308C29.9871 12.6884 30.3531 13.579 30.3515 14.5069V17.0517C30.3506 17.5906 30.5554 18.1094 30.9239 18.5017C31.2925 18.8941 31.7968 19.1304 32.3337 19.1621L32.3027 19.7207L32.3337 20.2793C31.7968 20.311 31.2925 20.5473 30.9239 20.9396C30.5554 21.332 30.3506 21.8508 30.3515 22.3897V25.3224C30.3531 26.2956 29.9691 27.2296 29.2838 27.9192C28.5985 28.6088 27.668 28.9975 26.6969 29V27.8828C27.3703 27.8823 28.016 27.6141 28.4922 27.1369C28.9684 26.6598 29.2361 26.0127 29.2365 25.3379V22.3897C29.236 21.8633 29.3642 21.3448 29.6099 20.8796C29.8555 20.4143 30.2112 20.0164 30.6457 19.7207C30.2124 19.4237 29.8577 19.0255 29.6122 18.5606C29.3667 18.0956 29.2378 17.5778 29.2365 17.0517V14.5069C29.2381 14.1939 29.1781 13.8837 29.0598 13.5941C28.9415 13.3044 28.7673 13.041 28.5471 12.819C28.327 12.597 28.0653 12.4207 27.777 12.3003C27.4887 12.1798 27.1795 12.1176 26.8672 12.1172Z" fill="#F5F5F7"/>
<path fill-rule="evenodd" clip-rule="evenodd" d="M26.1828 15.271H24.6099L22.1239 17.7346C21.3736 18.4781 20.1573 18.4781 19.4071 17.7346L16.9211 15.271H15.3482L18.6206 18.514C19.8052 19.6879 21.7258 19.6879 22.9104 18.514L26.1828 15.271ZM15.3281 24.289H16.901L19.4072 21.8053C20.1575 21.0618 21.3738 21.0618 22.124 21.8053L24.6303 24.289H26.2032L22.9105 21.026C21.7259 19.8521 19.8054 19.8521 18.6208 21.026L15.3281 24.289Z" fill="white"/>
</svg>
