<svg width="40" height="40" viewBox="0 0 40 40" fill="none" xmlns="http://www.w3.org/2000/svg">
<circle cx="20" cy="20" r="20" fill="#343437"/>
<path d="M27.5088 13.34C26.1708 12.714 24.7402 12.2591 23.2446 12C23.0609 12.3321 22.8463 12.7788 22.6983 13.1341C21.1084 12.895 19.5331 12.895 17.9724 13.1341C17.8245 12.7788 17.605 12.3321 17.4197 12C15.9224 12.2591 14.4902 12.7157 13.1522 13.3433C10.4536 17.4214 9.72199 21.3981 10.0878 25.3184C11.8777 26.655 13.6123 27.467 15.3177 27.9984C15.7387 27.4189 16.1142 26.8028 16.4378 26.1536C15.8216 25.9195 15.2315 25.6306 14.6739 25.2952C14.8218 25.1856 14.9665 25.071 15.1063 24.9531C18.5073 26.5438 22.2025 26.5438 25.5628 24.9531C25.7043 25.071 25.849 25.1856 25.9953 25.2952C25.436 25.6322 24.8443 25.9211 24.2281 26.1553C24.5517 26.8028 24.9256 27.4205 25.3482 28C27.0552 27.4687 28.7915 26.6567 30.5814 25.3184C31.0106 20.7738 29.8482 16.8336 27.5088 13.34ZM16.9011 22.9075C15.8802 22.9075 15.0429 21.9543 15.0429 20.7937C15.0429 19.6331 15.8623 18.6783 16.9011 18.6783C17.9399 18.6783 18.7772 19.6314 18.7593 20.7937C18.7609 21.9543 17.9399 22.9075 16.9011 22.9075ZM23.7681 22.9075C22.7471 22.9075 21.9099 21.9543 21.9099 20.7937C21.9099 19.6331 22.7292 18.6783 23.7681 18.6783C24.8069 18.6783 25.6441 19.6314 25.6263 20.7937C25.6263 21.9543 24.8069 22.9075 23.7681 22.9075Z" fill="#4153E4"/>
</svg>
