<svg width="262" height="40" viewBox="0 0 262 40" fill="none" xmlns="http://www.w3.org/2000/svg">
<g clip-path="url(#clip0_1101_907)">
<path d="M8.05072 36.0001H7.83717C6.78011 35.8933 5.72306 35.4662 5.08242 34.6227C1.80447 30.4906 0 25.3014 0 20.0054C0 14.7095 1.80447 9.52027 5.08242 5.38814C5.72306 4.54463 6.78011 4.01076 7.83717 4.01076C8.89423 3.90399 9.95128 4.33108 10.8055 5.17459L19.3794 13.7485C21.4935 15.8626 24.8889 15.8626 27.003 13.7485L35.5876 5.18527C36.3243 4.44854 37.3921 4.02144 38.5559 4.02144C39.6129 4.12822 40.67 4.55531 41.3106 5.39882C44.5993 9.53095 46.3931 14.7201 46.3931 19.9093C46.3931 25.0985 44.5886 30.3945 41.3106 34.4198C40.67 35.2633 39.6129 35.7972 38.5559 35.7972C37.4988 35.904 36.4418 35.4769 35.5876 34.6334L27.0137 26.0595C24.8996 23.9454 21.5042 23.9454 19.3901 26.0595L10.8161 34.6334C9.97264 35.5837 9.01168 36.0108 8.06139 36.0108L8.05072 36.0001ZM8.05072 7.29939C7.97954 7.29939 7.97954 7.29939 8.05072 7.29939C7.94394 7.29939 7.7304 7.29939 7.62362 7.51293C4.7621 11.0044 3.17117 15.4569 3.17117 20.0054C3.17117 24.554 4.7621 28.8997 7.62362 32.4979C7.7304 32.6047 7.83717 32.7115 7.94394 32.7115C8.05072 32.7115 8.15749 32.7115 8.37104 32.6047L16.9449 24.0308C20.3297 20.6461 25.8392 20.6461 29.2346 24.0308L37.8085 32.6047C37.9152 32.7115 38.1288 32.7115 38.2356 32.7115C38.3423 32.7115 38.4491 32.7115 38.5559 32.4979C41.4174 29.0064 43.0083 24.554 43.0083 20.0054C43.0083 15.4569 41.4174 11.1112 38.5559 7.51293C38.4491 7.40616 38.3423 7.29939 38.2356 7.29939C38.1288 7.29939 38.022 7.29939 37.8085 7.40616L29.2346 15.9801C27.5369 17.6778 25.316 18.5213 23.0951 18.5213C20.8742 18.5213 18.6426 17.6778 16.9556 15.9801L8.37104 7.40616C8.26426 7.29939 8.05072 7.29939 8.05072 7.29939Z" fill="url(#paint0_linear_1101_907)"/>
</g>
<defs>
<linearGradient id="paint0_linear_1101_907" x1="-0.128128" y1="20.0054" x2="46.329" y2="20.0054" gradientUnits="userSpaceOnUse">
<stop stop-color="#0301F7"/>
<stop offset="0.1" stop-color="#2301EA"/>
<stop offset="0.3" stop-color="#5001D8"/>
<stop offset="0.5" stop-color="#7300CA"/>
<stop offset="0.7" stop-color="#8C00C0"/>
<stop offset="0.9" stop-color="#9C00BA"/>
<stop offset="1" stop-color="#A100B8"/>
</linearGradient>
<clipPath id="clip0_1101_907">
<rect width="46.3931" height="32" fill="white" transform="translate(0 4)"/>
</clipPath>
</defs>
</svg>
