<svg preserveAspectRatio="none" width="100%" height="100%" overflow="visible" style="display: block;" viewBox="0 0 170 96" fill="none" xmlns="http://www.w3.org/2000/svg">
<g id="Logo">
<path id="archax logo" d="M128.154 72.4226L131.482 60.8708H129.415C128.909 60.8708 128.471 61.2224 128.369 61.7198L126.611 68.2204L124.724 61.7198C124.621 61.231 124.192 60.8708 123.695 60.8708H121.619L125.084 72.3883L120.993 85.3723H124.055L126.713 76.4962L129.115 85.3723H131.996L128.154 72.4226ZM126.139 44.8424C126.165 44.5679 126.087 44.3021 125.942 44.0705C125.744 43.8218 125.693 43.8047 125.556 43.7532L125.29 43.6417C124.672 43.3158 124.072 42.9471 123.515 42.5269C122.949 42.0895 122.734 41.6435 122.391 41.4291C122.048 41.2147 122.16 41.129 121.628 41.069C121.285 41.0518 120.959 40.966 120.65 40.8203C120.256 40.7259 119.861 40.6916 119.458 40.7088C118.849 40.5372 118.215 40.4429 117.58 40.4258C116.362 40.34 115.144 40.5887 114.055 41.129C113.189 41.6435 113.344 41.7979 112.16 42.827C111.44 43.5131 110.668 44.1391 109.853 44.7052C109.261 45.1425 108.584 45.4513 107.863 45.6142C107.495 45.6142 106.852 45.5542 106.852 45.5542C106.671 44.8853 106.414 44.2421 106.071 43.6417C105.814 43.0671 105.514 42.5269 105.162 42.0037C105.025 41.9094 104.913 41.7808 104.845 41.6264C105.188 41.3005 105.428 40.8803 105.539 40.4172C105.702 39.4996 105.822 38.5819 105.891 37.6471C105.908 37.1755 105.96 36.7124 106.037 36.2493C106.243 35.4689 106.5 34.7056 106.8 33.9595C106.98 33.4878 107.237 32.999 107.246 32.9046C107.092 32.2872 106.886 31.6869 106.654 31.0951C106.363 30.289 106.165 29.4571 106.063 28.6167C106.063 28.0164 105.985 27.4075 105.84 26.8243C105.659 26.4298 105.702 26.3869 105.625 26.284L105.308 25.7952L104.382 25.2549C104.587 25.4436 104.768 25.658 104.922 25.8809C104.965 26.001 104.965 26.1382 104.939 26.2583L104.87 26.4641L105.248 27.133L105.368 27.5275C105.334 27.699 105.334 27.8791 105.368 28.0507C105.428 28.2651 105.471 28.488 105.505 28.711V28.8997C105.505 28.8997 105.136 28.085 104.879 27.4846C104.613 26.8843 103.901 24.8776 103.721 24.423C103.541 23.9685 103.421 23.4454 103.224 23.3082C103.07 23.2224 102.898 23.1709 102.726 23.1452H102.323C102.323 23.1452 100.9 20.4867 100.188 19.2775C99.5277 18.0511 98.7644 16.8762 97.9154 15.7699C97.2036 15.0152 97.0063 14.535 96.0287 13.583C95.051 12.6397 94.8366 12.2623 94.2792 11.825C93.7217 11.3876 93.5502 11.1046 93.1557 10.7873C92.7612 10.47 92.5211 10.2813 92.4439 10.47C92.2467 11.3104 92.1952 12.1852 92.3067 13.0427C92.5468 13.6774 92.8641 14.2777 93.2672 14.818C93.413 15.0152 93.5845 15.2039 93.7818 15.3583C93.9704 15.5126 94.1848 15.6327 94.4164 15.7184L93.6874 15.5555C93.6874 15.5555 93.8247 15.7613 93.9704 16.01C94.1162 16.2587 94.931 17.2364 95.3683 17.9739C95.7971 18.7114 96.8091 20.0664 97.0749 20.4266C97.2036 20.6325 97.3408 20.8211 97.4866 21.0098C97.7867 21.3185 98.2327 21.6702 98.3956 21.8245C98.5586 21.9789 98.9616 22.3133 98.9616 22.3133L97.8468 21.653C97.8468 21.653 97.7353 21.6444 97.8296 21.8417C97.9411 22.1418 98.0869 22.442 98.2413 22.725C98.4214 22.9909 98.6615 23.3939 98.6615 23.3939C98.3785 23.1366 98.1212 22.8536 97.8811 22.5621C97.5295 22.1247 95.84 20.1265 94.5536 18.8058C93.19 17.3993 91.7407 16.0701 90.2228 14.8265C89.2279 14.089 88.5333 13.5058 87.7014 12.9999C86.8696 12.4939 86.132 11.7907 85.4802 11.4476C85.1115 11.2504 84.7513 11.036 84.4083 10.8044C84.4083 10.8044 84.4597 10.8216 84.4083 11.2075C84.3568 12.0908 84.4511 12.9827 84.6913 13.8317C85.2144 14.6722 85.7976 15.4697 86.4493 16.2244C86.6123 16.5074 86.8524 16.7304 87.144 16.8676C87.5556 17.0992 88.0016 17.1849 88.1731 17.2878L88.3189 17.3993C88.1045 17.4251 87.8901 17.4079 87.6843 17.3479C87.5042 17.2793 87.3155 17.2364 87.1183 17.2107C87.3927 17.3993 87.6585 17.6137 87.8987 17.8539C88.1131 18.1197 88.8935 18.9344 89.0135 19.0545L89.2622 19.286C89.2622 19.286 88.5161 18.7972 87.9158 18.3084C87.3241 17.8196 85.9777 16.8762 85.1972 16.2673C84.5712 15.8128 83.8937 15.4269 83.1905 15.1095C82.4958 14.7322 82.0756 14.5178 82.0756 14.5178C82.0756 14.5178 81.9727 14.2177 81.9727 14.7837C82.0327 15.6756 82.2385 16.5503 82.5816 17.3822C83.0018 18.0425 83.4992 18.6428 84.0738 19.1745C84.3311 19.3804 84.5798 19.6033 84.8028 19.8435C84.8028 19.8435 83.9023 19.3546 83.1905 18.9602C82.7274 18.6943 82.2471 18.4713 81.7411 18.2827C81.4496 18.154 81.1408 18.0511 80.8321 17.9825C80.7463 17.9825 80.6863 17.9996 80.7463 18.3341C81.0979 19.3289 81.5782 20.2723 82.1699 21.147C82.9246 21.8846 83.7308 22.5621 84.5712 23.1881C84.9228 23.4111 85.4288 23.7713 85.4288 23.7713L85.7633 24.0971C85.1972 23.7455 84.6141 23.4368 84.0138 23.1538C83.3534 22.8708 82.5902 22.5621 81.9555 22.3219C81.3209 22.0818 80.8578 22.1333 80.592 22.0218C80.3261 21.9103 80.3776 22.1933 80.4891 22.4591C80.8149 23.231 81.2523 23.9514 81.7669 24.6117C82.067 24.8604 82.796 25.4007 83.1562 25.6665C83.0104 25.6237 82.8646 25.5979 82.7102 25.5722C82.2557 25.4865 81.8012 25.435 81.3466 25.4007C81.2609 25.4007 80.9436 25.3235 81.0465 25.718C81.278 26.3269 81.5868 26.8929 81.9727 27.416C82.4186 27.9049 82.9246 28.3422 83.4649 28.7196C83.9966 29.0798 86.2607 30.3233 86.5522 30.512C86.8438 30.7006 88.0788 31.2838 88.0788 31.2838C88.0788 31.2838 88.2503 31.3438 87.7014 31.3009C86.9039 31.138 86.1063 31.0351 85.3002 30.9922C84.7599 30.9751 84.2196 31.0094 83.6879 31.0951C83.3963 31.1637 83.1304 31.2924 82.9075 31.4896C82.8389 31.5496 82.8732 31.867 83.0704 32.0385C83.2677 32.21 84.1424 32.8103 84.3825 32.9647C84.6227 33.119 85.4803 33.5821 85.626 33.6336L85.9605 33.7622C85.9605 33.7622 85.5574 33.7794 85.283 33.7794C84.7341 33.7537 84.1767 33.8137 83.645 33.9509C83.3791 34.0624 83.1304 34.2168 82.916 34.4054C83.0704 34.637 83.2762 34.8257 83.5078 34.9715C84.1767 35.3659 84.8628 35.709 85.5832 36.0091C86.0463 36.1978 86.9296 36.4637 86.9296 36.4637C86.6552 36.6352 86.3293 36.7209 86.0034 36.6952C85.4545 36.7124 84.9142 36.8753 84.4426 37.1669C84.0738 37.3899 83.9452 37.4499 83.9623 37.6214C84.3397 37.9988 84.8113 38.256 85.3259 38.3761C86.0205 38.6077 87.0325 38.8649 87.0325 38.8649C86.7238 38.9335 86.415 39.0365 86.1234 39.1651C85.7204 39.3452 85.3259 39.551 84.9485 39.774C84.8456 39.8855 84.6655 40.0999 85.0343 40.2114C85.4031 40.3228 87.144 40.8546 87.4527 40.8803C87.7615 40.906 88.2503 41.0003 88.2503 41.0003C87.7615 41.0089 87.2726 41.1033 86.8095 41.2662C86.3636 41.4978 85.9948 41.6607 85.909 41.8322C85.8233 42.0037 85.7547 42.1324 86.0205 42.2267C86.2864 42.321 86.9382 42.5697 87.1354 42.6298C87.3927 42.6898 87.65 42.7327 87.9158 42.7584C87.65 42.8099 87.3927 42.8871 87.1354 42.99C86.9382 43.1015 86.4922 43.3673 86.4579 43.5131C86.4236 43.6589 86.295 43.7961 86.6552 43.9848C87.0668 44.1649 87.4956 44.3107 87.933 44.4136L88.3618 44.4393L87.7186 44.7052L87.2383 45.2969C87.5471 45.537 87.9244 45.6914 88.3103 45.7514H89.3823C89.1936 45.8458 89.0221 45.9658 88.8678 46.1116C88.6019 46.3603 88.3189 46.6605 88.7134 46.8063C89.1593 46.9435 89.6139 47.0207 90.077 47.0378C90.4114 47.055 90.7545 47.0378 90.7545 47.0378C90.7545 47.0378 90.6172 47.1322 90.4372 47.2694C90.2571 47.4152 90.3857 47.4066 90.077 47.5009C87.933 47.7153 85.7718 47.7668 83.6107 47.6639C81.218 47.5009 76.8957 47.2436 74.3744 47.2436C71.4671 47.2522 68.5599 47.4923 65.687 47.964C62.6253 48.5215 59.5895 49.2418 56.5964 50.1166C53.7921 50.9484 49.8643 52.4235 48.7066 52.8523C47.7804 53.1696 46.897 53.5984 46.0738 54.1301C45.5592 54.3874 45.0875 54.7133 44.6673 55.0992C44.6673 55.0992 46.4854 54.3445 47.2058 54.0615C47.9176 53.7785 48.5007 53.5898 48.5007 53.5898C48.5007 53.5898 47.5059 54.3102 47.2058 54.5675C46.9056 54.8162 46.7341 54.9877 46.9056 54.962C47.7118 54.7047 48.5007 54.4046 49.2812 54.0701C49.6757 53.8643 50.0959 53.6928 50.5247 53.5641C51.185 53.3583 51.6824 53.0924 52.2313 52.8695C52.6515 52.6894 53.0632 52.4921 53.4576 52.2691C53.8607 52.2263 54.2724 52.1491 54.6669 52.0462C55.2586 51.8746 56.2448 51.4973 56.5107 51.3858C56.7765 51.2743 56.9395 51.2315 56.9395 51.2315L56.5964 51.6259C56.5621 51.7031 56.3477 51.8747 56.7594 51.7803C57.334 51.6174 57.8914 51.4115 58.4317 51.1628C58.749 51.0256 59.092 50.8455 59.2378 50.7855L59.821 50.5968L59.0406 51.0342C59.0063 51.0514 59.1864 51.18 59.7695 51.0942C60.3527 51.0171 61.7935 50.6226 61.7935 50.6226L61.8449 50.7598C62.3509 50.7083 62.8569 50.614 63.3371 50.4596C63.6287 50.3739 63.9117 50.2795 64.1947 50.1595L64.0575 50.4082C64.0404 50.4596 63.7745 50.5454 64.3405 50.5454C65.0952 50.4682 65.8413 50.3138 66.5617 50.0737C66.7589 50.0051 66.9648 49.9622 67.1792 49.9365L67.0934 50.0737C67.162 50.0994 68.2683 49.9965 68.8 49.9365C69.1002 49.9365 69.3918 49.8936 69.6834 49.8078C70.0778 49.7135 70.9612 49.5248 71.0555 49.5077L71.673 49.3533L71.1584 49.765C71.0898 49.8421 71.1927 49.9193 71.6558 49.8936C72.1189 49.8593 73.2767 49.6535 73.5425 49.6106L74.16 49.4648L73.3796 49.9879C73.3281 50.048 73.2166 50.1252 73.5168 50.1252C73.817 50.1252 75.0262 49.9536 75.3606 49.9022C75.6865 49.8421 76.0124 49.7564 76.3211 49.6535C76.5527 49.5763 76.7928 49.5248 77.0329 49.4991L76.5698 49.8422C76.5184 49.9536 76.4841 49.9879 76.6813 49.9879C76.8786 49.9879 77.7276 49.8936 78.225 49.8164C78.7224 49.7392 79.3828 49.5163 79.7858 49.4134C80.1889 49.3104 80.2661 49.3533 80.2661 49.3533L80.2832 49.4991C80.6348 49.5248 80.9865 49.5334 81.3466 49.5163C81.561 49.482 81.9641 49.3876 82.0584 49.379L82.2728 49.3019L82.2042 49.4477C82.2042 49.5077 82.0584 49.6792 82.6673 49.6964C83.1819 49.6792 83.6964 49.6106 84.1939 49.4734C84.3568 49.4219 84.5369 49.3962 84.7084 49.3962C85.7375 49.4648 86.7666 49.6192 87.77 49.8679C88.5676 50.1852 89.3394 50.5797 90.077 51.0342C90.3771 51.1628 90.6344 51.3601 90.8231 51.6174C90.9603 52.0462 91.0289 52.4921 91.0375 52.9381C91.0804 53.3926 91.1833 53.8471 91.3376 54.2845L91.4748 54.6447L91.4234 54.7733C91.269 54.7733 90.5572 54.9191 90.2999 54.9277C89.974 54.9791 89.6482 55.0049 89.3223 55.022C89.0564 55.022 88.842 55.0392 88.7563 55.1592C88.6362 55.4508 88.6191 55.7681 88.7134 56.0683C88.8506 56.257 88.8077 56.4714 89.6053 56.6257C90.36 56.8144 91.0975 57.0803 91.7922 57.4319C92.1095 57.5434 92.4182 57.6891 92.7012 57.8692C92.8641 57.955 92.9756 58.1179 93.0014 58.298C93.1386 58.7097 93.3444 59.0956 93.6188 59.4301C93.7646 59.6016 94.1334 59.9789 94.1334 59.9789C94.1334 59.9789 94.2449 60.039 94.2449 60.8279V71.6336H91.6549C91.0289 71.6336 90.7287 71.4621 90.7287 70.7675V60.8537H89.1336C88.6019 60.8022 88.1302 61.1796 88.0788 61.7113C88.0702 61.7541 88.0702 61.797 88.0702 61.8485V85.3552H90.7287V74.1207H93.6103C93.9361 74.1207 94.202 74.3608 94.2363 74.6867V85.3552H96.8863V61.8399C96.8948 61.4626 96.689 61.1195 96.346 60.9566C96.2002 60.7508 96.0372 60.5192 95.8829 60.2962C95.4884 59.6959 95.1368 59.0699 94.828 58.4267C94.6908 58.0065 94.4507 57.6291 94.1334 57.329C93.8075 57.0803 93.413 56.9173 93.0099 56.8573C92.6069 56.7801 91.7321 56.4799 91.3977 56.3856C91.0632 56.2913 90.7716 56.2141 90.7716 56.1541C90.7716 56.094 90.8059 56.0254 91.269 55.7939C92.1095 55.5023 92.9842 55.305 93.8761 55.2107C94.9996 55.0392 96.2259 54.9448 96.9892 54.8505C97.5638 54.8162 98.1212 54.7133 98.6701 54.5332C99.1503 54.3274 100.342 53.5727 100.342 53.5727C101.063 53.5641 101.783 53.5041 102.495 53.384C103.027 53.2468 103.721 53.0839 103.721 53.0839L103.653 53.2211C103.884 53.1696 104.107 53.101 104.322 53.0153C104.768 52.8609 105.119 52.7751 105.119 52.7751L104.982 53.0238L105.514 52.818L106.457 52.3034L106.346 52.6036C106.646 52.5007 106.937 52.3549 107.203 52.1834C107.52 51.9004 107.812 51.5916 108.086 51.2572L108.138 51.3687C108.344 51.1028 108.507 50.8112 108.635 50.5025C108.678 50.331 108.738 50.1595 108.815 49.9965L108.85 50.1852C108.867 49.9708 108.918 49.765 108.996 49.5677C109.553 49.096 110.153 48.6587 110.771 48.2642C110.934 48.1527 111.088 48.024 111.234 47.8868L111.182 48.0755L111.663 47.621C111.757 47.4495 111.868 47.2951 111.997 47.1493L112.014 47.2951C112.194 47.1493 112.349 46.9778 112.477 46.7891C112.7 46.489 113.112 46.0687 113.446 45.6142C113.927 44.9453 114.441 44.3107 115.007 43.7103C115.402 43.2215 115.993 42.9214 116.62 42.8956C117.091 42.827 117.571 42.9214 117.983 43.1615C118.163 43.2901 118.369 43.4616 118.369 43.4616C118.523 43.6503 118.703 43.8133 118.909 43.9505C119.192 44.1649 119.518 44.3192 119.87 44.3878C120.307 44.4908 120.753 44.5594 121.199 44.5937C121.696 44.5937 122.606 44.6537 123.206 44.7137C123.806 44.7738 124.003 44.8252 124.681 44.9624C125.015 45.0653 125.376 45.1168 125.727 45.1082C125.907 45.0739 126.062 44.9624 126.156 44.8081M44.7531 62.1829C44.6501 61.5226 44.4529 60.8451 43.3638 60.8451H41.923L38.0038 85.3723H40.9196L43.2437 68.512L45.5678 85.3723H48.4836L44.7531 62.1829ZM60.4899 60.8537H55.6531V85.3552H58.3202V74.8239H59.7095C60.4213 74.8239 61.0817 75.2184 61.0817 76.3933V85.3552H63.7316V75.9731C63.7316 75.9731 63.8174 74.1636 62.7711 73.6661C63.8431 73.426 63.7316 71.4964 63.7316 71.4964V63.9324C63.6888 62.1829 62.2394 60.8108 60.4899 60.8537ZM59.7181 63.1863C60.3956 63.1092 61.0045 63.5894 61.0902 64.2669C61.0988 64.3355 61.0988 64.4041 61.0988 64.4641V71.0333C61.2017 71.7022 60.7472 72.3369 60.0697 72.4398C59.9582 72.4569 59.8382 72.4569 59.7181 72.4484H58.3288V63.1863H59.7181ZM71.9989 63.7266V82.4908C72.0503 84.266 73.534 85.6553 75.3092 85.6039H76.9386C78.6624 85.5953 80.0688 84.2146 80.1203 82.4908V76.5648C79.4514 76.8478 78.4137 77.268 78.1907 77.3795C77.7104 77.654 77.436 78.1857 77.496 78.7345V82.0363C77.4617 82.8253 76.7928 83.4342 76.0124 83.3999C75.2749 83.3655 74.6831 82.7738 74.6488 82.0363V64.1554C74.7003 63.3664 75.3778 62.7661 76.1582 62.8176C76.8786 62.8604 77.4532 63.435 77.496 64.1554V69.6354L79.4256 68.8036C79.9145 68.5463 80.1975 68.006 80.1203 67.4572V63.718C80.0774 61.9857 78.6709 60.605 76.9386 60.605H75.3092C73.5425 60.5535 72.0589 61.9514 71.9989 63.7266ZM107.949 60.8451L104.03 85.3466H106.946L109.287 68.4863L111.611 85.3466H114.527L110.796 62.1829C110.676 61.5226 110.496 60.8451 109.381 60.8451H107.949Z" fill="var(--fill-0, #141414)"/>
</g>
</svg>
