<svg width="64" height="64" viewBox="0 0 64 64" fill="none" xmlns="http://www.w3.org/2000/svg">
<path fill-rule="evenodd" clip-rule="evenodd" d="M4.83021 27.2848C4.70557 27.2848 4.67441 27.2225 4.73673 27.129L5.3911 26.2876C5.45342 26.1942 5.60923 26.1318 5.73387 26.1318H16.8583C16.9829 26.1318 17.0141 26.2253 16.9517 26.3188L16.422 27.129C16.3597 27.2225 16.2039 27.3159 16.1104 27.3159L4.83021 27.2848Z" fill="#141414"/>
<path fill-rule="evenodd" clip-rule="evenodd" d="M0.124643 30.152C0 30.152 -0.0311607 30.0896 0.0311607 29.9962L0.685536 29.1548C0.747858 29.0613 0.903661 28.999 1.0283 28.999H15.2376C15.3622 28.999 15.4246 29.0925 15.3934 29.186L15.1441 29.9338C15.113 30.0585 14.9883 30.1208 14.8637 30.1208L0.124643 30.152Z" fill="#141414"/>
<path fill-rule="evenodd" clip-rule="evenodd" d="M7.66493 33.0182C7.54028 33.0182 7.50912 32.9247 7.57144 32.8312L8.00769 32.0522C8.07002 31.9587 8.19466 31.8652 8.3193 31.8652H14.5514C14.6761 31.8652 14.7384 31.9587 14.7384 32.0834L14.6761 32.8312C14.6761 32.9559 14.5514 33.0493 14.458 33.0493L7.66493 33.0182Z" fill="#141414"/>
<path fill-rule="evenodd" clip-rule="evenodd" d="M40.0109 26.724C38.0478 27.2226 36.7079 27.5965 34.7759 28.0951C34.3085 28.2197 34.2773 28.2509 33.8723 27.7835C33.4049 27.2537 33.0621 26.911 32.4077 26.5994C30.4446 25.6334 28.5438 25.9138 26.7676 27.0668C24.6487 28.4379 23.5581 30.4633 23.5892 32.9873C23.6204 35.4802 25.3342 37.5368 27.7959 37.8796C29.9148 38.16 31.691 37.4121 33.0932 35.823C33.3737 35.4802 33.623 35.1063 33.9346 34.67C32.8128 34.67 31.4106 34.67 27.9206 34.67C27.2662 34.67 27.1104 34.2649 27.3285 33.7352C27.7336 32.7692 28.4815 31.1488 28.9177 30.3387C29.0112 30.1517 29.2293 29.8401 29.6967 29.8401H41.0392C40.9769 30.6814 40.9769 31.5228 40.8523 32.3641C40.5095 34.6077 39.6682 36.6643 38.2971 38.4716C36.0535 41.4319 33.1244 43.2704 29.4163 43.7689C26.3625 44.174 23.5269 43.582 21.034 41.7123C18.7281 39.9673 17.4194 37.6614 17.0766 34.7946C16.6715 31.3981 17.6687 28.3444 19.7253 25.6646C21.9377 22.7666 24.8668 20.9281 28.4503 20.2737C31.3794 19.744 34.1839 20.0868 36.7079 21.8006C38.3594 22.8912 39.5435 24.387 40.3225 26.1943C40.5095 26.4747 40.3849 26.6305 40.0109 26.724Z" fill="#141414"/>
<path d="M50.324 43.9554C47.4884 43.8931 44.902 43.0829 42.7208 41.2133C40.8823 39.6241 39.7293 37.5987 39.3554 35.1993C38.7945 31.6781 39.7605 28.562 41.8794 25.7887C44.1542 22.7973 46.8963 21.2393 50.6044 20.5849C53.7828 20.024 56.7743 20.3356 59.4853 22.1741C61.947 23.8568 63.4738 26.1315 63.8789 29.1229C64.4086 33.3296 63.1934 36.7573 60.2954 39.6864C58.2388 41.7742 55.7148 43.0829 52.8169 43.675C51.9755 43.8308 51.1342 43.862 50.324 43.9554ZM57.7403 31.3665C57.7091 30.9614 57.7091 30.6498 57.6468 30.3382C57.0859 27.2533 54.2502 25.5083 51.29 26.1938C48.392 26.8482 46.5224 28.6867 45.8369 31.6158C45.276 34.0463 46.4601 36.508 48.7036 37.5052C50.4175 38.253 52.1313 38.1595 53.7828 37.3182C56.2445 36.0406 57.5844 34.0463 57.7403 31.3665Z" fill="#141414"/>
</svg>
