<svg width="64" height="64" viewBox="0 0 64 64" fill="none" xmlns="http://www.w3.org/2000/svg">
<path d="M23.7028 34.3062C23.7028 34.3062 20.2247 27.6041 20.3531 22.7068C20.4469 19.2072 28.3378 15.7478 31.4358 10.7247C34.5284 5.69877 31.0502 0.804199 31.0502 0.804199C31.0502 0.804199 31.8241 4.41353 29.7622 8.14612C27.7005 11.884 20.0906 14.0769 17.1319 20.5193C14.1732 26.9616 23.7028 34.3062 23.7028 34.3062Z" fill="#141414"/>
<path d="M36.7218 13.9458C36.7218 13.9458 24.8679 18.4576 24.8679 23.6092C24.8679 28.7662 28.0864 30.4397 28.6059 32.1132C29.1201 33.7921 27.7036 36.625 27.7036 36.625C27.7036 36.625 32.3413 33.4038 31.5647 29.666C30.7909 25.9281 27.1841 24.766 29.2485 21.0335C30.6275 18.5299 36.7218 13.9458 36.7218 13.9458Z" fill="#141414"/>
<path d="M22.4167 41.1151C33.3709 40.7242 37.366 37.2674 37.366 37.2674C30.281 39.198 11.4653 39.0722 11.3341 37.6557C11.2082 36.2393 17.1312 35.0771 17.1312 35.0771C17.1312 35.0771 7.85591 35.0772 7.08207 37.3959C6.30811 39.7148 11.4705 41.498 22.4167 41.1151Z" fill="#141414"/>
<path d="M38.2661 46.5454C38.2661 46.5454 48.9873 44.2588 47.927 38.435C46.6417 31.3448 39.1657 35.3397 39.1657 35.3397C39.1657 35.3397 44.454 35.3397 44.9654 38.5581C45.4823 41.7793 38.2661 46.5454 38.2661 46.5454Z" fill="#141414"/>
<path d="M32.9842 43.4555C32.9842 43.4555 30.2825 44.165 26.2795 44.6149C20.9135 45.2173 14.4256 44.7407 13.9088 43.8383C13.4001 42.936 14.8112 42.4219 14.8112 42.4219C8.36609 43.9695 11.8926 46.6712 19.4461 47.1907C25.9206 47.6325 35.5574 45.2575 35.5574 45.2575L32.9842 43.4555Z" fill="#141414"/>
<path d="M16.363 49.084C16.363 49.084 13.439 49.167 13.2676 50.7147C13.0989 52.2517 15.067 53.6332 22.2858 54.0617C29.502 54.4901 34.5734 52.0883 34.5734 52.0883L31.3094 50.1069C31.3094 50.1069 29.2449 50.5407 26.0665 50.9691C22.8855 51.4003 16.3627 50.6237 16.1058 50.0266C15.8435 49.424 16.363 49.084 16.363 49.084Z" fill="#141414"/>
<path d="M44.4496 56.0426C45.5662 54.8377 44.1042 53.8925 44.1042 53.8925C44.1042 53.8925 44.6183 54.4949 43.9382 55.1805C43.25 55.8659 36.9764 57.5823 26.9245 58.099C16.8754 58.6158 5.96406 57.1538 5.6186 55.8659C5.28394 54.578 11.2068 53.5498 11.2068 53.5498C10.5213 53.6355 2.27423 53.8069 2.01181 56.0426C1.75473 58.273 5.6186 60.0777 21.0872 60.0777C36.548 60.0751 43.3384 57.2394 44.4496 56.0426Z" fill="#141414"/>
<path d="M38.4388 61.1084C31.651 62.4792 11.0386 61.6144 11.0386 61.6144C11.0386 61.6144 24.4348 64.7954 39.7267 62.1339C47.0366 60.8594 47.4623 57.3223 47.4623 57.3223C47.4623 57.3223 45.2266 59.7294 38.4388 61.1084Z" fill="#141414"/>
</svg>
