<svg width="64" height="64" viewBox="0 0 64 64" fill="none" xmlns="http://www.w3.org/2000/svg">
<path d="M40.6603 13.4143C37.7826 13.642 35.3694 14.6742 33.5728 16.4501C31.7228 18.2792 30.8397 20.5106 30.8397 23.3415C30.8397 27.5764 32.5831 30.5364 36.4732 32.8815C37.4629 33.4735 38.8104 34.1186 41.1399 35.1205C44.3144 36.479 45.4944 37.1241 46.2481 37.9286C47.1769 38.9228 47.4357 40.509 46.8495 41.7234C46.7353 41.9587 46.4384 42.3533 46.172 42.6189C45.2737 43.5221 43.8577 44.0002 42.0991 44.0002C39.1301 44.0002 36.9148 42.7859 35.1334 40.1599C34.8898 39.8108 34.669 39.5224 34.6385 39.5224C34.57 39.5224 28.7767 42.8542 28.6549 42.9681C28.5787 43.0364 28.6396 43.1958 28.9365 43.6815C31.2508 47.5673 34.8669 49.8442 39.7544 50.4969C41.0333 50.6715 43.4314 50.6639 44.657 50.4969C47.7326 50.0643 50.0393 49.0473 51.8283 47.3169C53.7315 45.4878 54.6679 43.1199 54.6679 40.1523C54.6679 38.2549 54.3558 36.775 53.6478 35.3102C53.1605 34.3084 52.6733 33.6329 51.8359 32.7829C50.2296 31.1587 48.1513 29.9292 44.0023 28.1532C40.8658 26.8099 39.8153 26.2331 39.1225 25.4969C38.4602 24.7911 38.1785 23.9638 38.2394 22.9316C38.2927 22.112 38.5211 21.5579 39.0235 21.0191C39.7468 20.2373 40.5842 19.911 41.8783 19.9186C43.3476 19.9186 44.2992 20.298 45.2661 21.2695C45.6086 21.6035 46.0502 22.1423 46.2557 22.4687C46.4917 22.8405 46.6668 23.0455 46.7277 23.0227C46.9256 22.9392 52.4602 19.3721 52.4602 19.319C52.4602 19.2886 52.1785 18.8484 51.8359 18.3324C51.1051 17.2395 49.7881 15.8733 48.8821 15.2738C47.2073 14.1657 45.4183 13.5965 43.0583 13.4219C41.9012 13.3308 41.7489 13.3308 40.6603 13.4143Z" fill="#141414"/>
<path d="M16.9592 27.2054L16.9364 40.6238L16.7689 41.2537C16.5481 42.081 16.2893 42.5743 15.8325 43.0297C15.193 43.6672 14.3708 43.9328 13.0005 43.9404C11.044 43.948 9.87166 43.1207 8.50896 40.7983C8.28819 40.434 8.09026 40.1381 8.06742 40.1456C8.03697 40.1608 6.65905 40.9881 5.00706 41.9823L2 43.8038L2.22838 44.2592C3.59108 46.9687 5.95105 49.0178 8.79064 49.9589C11.7901 50.9532 15.6422 50.8621 18.4665 49.7313C21.8542 48.3651 23.8412 45.5418 24.3665 41.3448C24.4121 40.9198 24.4426 36.1763 24.4426 27.251V13.7947H20.7123H16.9896L16.9592 27.2054Z" fill="#141414"/>
</svg>
