<svg width="64" height="64" viewBox="0 0 64 64" fill="none" xmlns="http://www.w3.org/2000/svg">
<path d="M6.74784 23.3096H15.6459C18.2577 23.3316 20.1502 24.0805 21.3234 25.5562C22.4965 27.032 22.8839 29.0474 22.4854 31.6024C22.3305 32.7698 21.9874 33.9151 21.4562 35.0385C20.9471 36.1618 20.2387 37.1749 19.3313 38.078C18.2245 39.2234 17.0404 39.9502 15.7787 40.2586C14.517 40.567 13.2111 40.7212 11.8609 40.7212H7.8767L6.61504 46.9986H2L6.74784 23.3096ZM10.6324 27.076L8.64034 36.9878C8.77313 37.0098 8.90594 37.0208 9.03876 37.0208H9.50358C11.6285 37.0428 13.3992 36.8336 14.8158 36.393C16.2324 35.9305 17.1842 34.3226 17.6712 31.5693C18.0696 29.2566 17.6712 27.9241 16.4759 27.5716C15.3028 27.2192 13.8308 27.054 12.0601 27.076C11.7945 27.098 11.5399 27.1091 11.2965 27.1091C11.0751 27.1091 10.8427 27.1091 10.5992 27.1091L10.6324 27.076Z" fill="#141414"/>
<path d="M27.7427 17.001H32.3245L31.0297 23.3115H35.1467C37.4044 23.3555 39.0866 23.8181 40.1933 24.6991C41.3222 25.5802 41.6542 27.2542 41.1894 29.7211L38.9649 40.7231H34.3166L36.4416 30.2166C36.6629 29.1154 36.5965 28.3334 36.2423 27.8708C35.8882 27.4083 35.1245 27.177 33.9514 27.177L30.266 27.144L27.5435 40.7231H22.9617L27.7427 17.001Z" fill="#141414"/>
<path d="M46.1109 23.3096H55.0089C57.6208 23.3316 59.5133 24.0805 60.6864 25.5562C61.8595 27.032 62.2469 29.0474 61.8485 31.6024C61.6935 32.7698 61.3504 33.9151 60.8192 35.0385C60.3101 36.1618 59.6018 37.1749 58.6943 38.078C57.5876 39.2234 56.4034 39.9502 55.1417 40.2586C53.8801 40.567 52.5741 40.7212 51.2239 40.7212H47.2397L45.9781 46.9986H41.363L46.1109 23.3096ZM49.9955 27.076L48.0034 36.9878C48.1362 37.0098 48.269 37.0208 48.4018 37.0208H48.8666C50.9915 37.0428 52.7622 36.8336 54.1789 36.393C55.5955 35.9305 56.5472 34.3226 57.0342 31.5693C57.4326 29.2566 57.0342 27.9241 55.839 27.5716C54.6658 27.2192 53.1939 27.054 51.4231 27.076C51.1575 27.098 50.903 27.1091 50.6595 27.1091C50.4382 27.1091 50.2057 27.1091 49.9623 27.1091L49.9955 27.076Z" fill="#141414"/>
</svg>
