<svg width="64" height="64" viewBox="0 0 64 64" fill="none" xmlns="http://www.w3.org/2000/svg">
<path d="M23.7358 9.76219C21.9215 9.77062 20.1891 9.92534 18.6657 10.1952C14.1735 10.9887 13.3582 12.6491 13.3582 15.7125V19.7575H23.9693V21.1055H13.3582H9.37656C6.29257 21.1055 3.59012 22.9594 2.74709 26.4843C1.77266 30.5253 1.72952 33.0504 2.74709 37.2696C3.50147 40.4113 5.3031 42.6483 8.38709 42.6483H12.0359V37.7999C12.0359 34.2972 15.0664 31.2061 18.6653 31.2061H29.2646C32.2152 31.2061 34.5721 28.7767 34.5721 25.8154V15.7109C34.5721 12.8351 32.1459 10.6765 29.2646 10.1936C27.4416 9.89015 25.5501 9.7523 23.7354 9.76061L23.7358 9.76219ZM17.9969 13.0152C19.0932 13.0152 19.9881 13.9251 19.9881 15.0436C19.9881 16.1581 19.0928 17.0598 17.9969 17.0598C16.897 17.0598 16.0056 16.1585 16.0056 15.0436C16.0056 13.9251 16.897 13.0152 17.9969 13.0152Z" fill="#141414"/>
<path d="M35.8937 21.1025V25.8164C35.8937 29.4699 32.7962 32.5448 29.2642 32.5448H18.665C15.7614 32.5448 13.3574 35.0296 13.3574 37.9355V48.04C13.3574 50.9158 15.8584 52.6074 18.665 53.4306C22.024 54.4185 25.2469 54.597 29.2642 53.4306C31.9358 52.6573 34.5717 51.1002 34.5717 48.04V43.995H23.9725V42.6469H34.5717H39.8793C42.9633 42.6469 44.1142 40.4958 45.1868 37.2682C46.2946 33.9439 46.2475 30.7456 45.1868 26.4829C44.4245 23.4128 42.9688 21.1041 39.8793 21.1041H35.8976L35.8937 21.1025ZM29.9331 46.6943C31.033 46.6943 31.9243 47.5955 31.9243 48.7104C31.9243 49.8289 31.033 50.7389 29.9331 50.7389C28.8367 50.7389 27.9419 49.8289 27.9419 48.7104C27.9419 47.5959 28.8371 46.6943 29.9331 46.6943Z" fill="#141414"/>
</svg>
