<svg preserveAspectRatio="none" width="100%" height="100%" overflow="visible" style="display: block;" viewBox="0 0 54.0533 38.0027" fill="none" xmlns="http://www.w3.org/2000/svg">
<g id="xrpl-evm-sidechain-logo">
<path id="Vector" d="M29.9005 20.6303C33.4273 20.6303 36.8483 21.8779 39.4536 24.3225L54.0533 38.0027H47.0527L35.9826 27.6333C34.3542 26.113 32.1831 25.2999 29.9033 25.2999C27.6236 25.2999 25.4524 26.113 23.824 27.6333L12.754 38.0027H5.75337L20.353 24.3225C22.9585 21.8807 26.3766 20.6303 29.9061 20.6303H29.9005ZM29.9005 17.3753C26.3738 17.3753 22.9528 16.1279 20.3475 13.683L5.75058 6.86598e-05H12.7512L23.8212 10.3695C25.4497 11.8899 27.6208 12.7028 29.9005 12.7028C32.1803 12.7028 34.3514 11.8899 35.9798 10.3695L47.0499 6.86598e-05H54.0505L39.4508 13.6802C36.8454 16.1223 33.4273 17.3725 29.8978 17.3725L29.9005 17.3753Z" fill="var(--fill-0, #141414)"/>
<path id="Vector_2" d="M17.6921 19.0046L2.44115 31.9246C1.3027 32.9549 0 32.4675 0 30.9472V7.05911C0 5.53878 1.3027 5.0515 2.44115 6.08176L17.6921 19.0017V19.0046Z" fill="var(--fill-0, #141414)"/>
</g>
</svg>
