<svg width="55" height="38" viewBox="0 0 55 38" fill="none" xmlns="http://www.w3.org/2000/svg">
<path d="M29.9004 20.6303C33.4272 20.6303 36.8482 21.8778 39.4535 24.3224L54.0532 38.0026H47.0526L35.9825 27.6333C34.3541 26.1129 32.183 25.2998 29.9032 25.2998C27.6235 25.2998 25.4524 26.1129 23.8239 27.6333L12.7539 38.0026H5.75328L20.3529 24.3224C22.9584 21.8806 26.3765 20.6303 29.906 20.6303H29.9004ZM29.9004 17.3752C26.3737 17.3752 22.9527 16.1278 20.3474 13.6829L5.75049 0H12.7511L23.8211 10.3694C25.4496 11.8898 27.6207 12.7028 29.9004 12.7028C32.1802 12.7028 34.3513 11.8898 35.9797 10.3694L47.0498 0H54.0504L39.4507 13.6801C36.8453 16.1222 33.4272 17.3724 29.8977 17.3724L29.9004 17.3752Z" fill="#141414"/>
<path d="M17.6921 19.0045L2.44115 31.9245C1.3027 32.9547 0 32.4674 0 30.9471V7.05899C0 5.53866 1.3027 5.05138 2.44115 6.08164L17.6921 19.0016V19.0045Z" fill="#141414"/>
</svg>
