<svg width="132" height="30" viewBox="0 0 132 30" fill="none" xmlns="http://www.w3.org/2000/svg">
<path d="M0 29.9997H114.245V27.0083H0V29.9997Z" fill="#159E49"/>
<path d="M122.163 29.9987H131.973V27.0073H122.163V29.9987Z" fill="#159E49"/>
<path d="M22.2594 22.2594H26.3506V6.86259H22.2594V22.2594ZM21.8635 2.4195C21.8635 1.71565 22.0835 1.14376 22.5674 0.659864C23.0073 0.219955 23.6232 0 24.327 0C25.0749 0 25.6467 0.219955 26.0866 0.659864C26.5266 1.09977 26.7905 1.67166 26.7905 2.4195C26.7905 3.12336 26.5705 3.69524 26.0866 4.17914C25.6467 4.61905 25.0309 4.839 24.327 4.839C23.6232 4.839 23.0513 4.61905 22.5674 4.17914C22.0835 3.73923 21.8635 3.12336 21.8635 2.4195Z" fill="white"/>
<path d="M35.7648 6.8176H39.944V9.89697H35.7648V17.2874C35.7648 17.9473 35.9408 18.4752 36.3367 18.8711C36.7326 19.267 37.2165 19.487 37.8764 19.487C38.4483 19.487 39.1082 19.399 39.812 19.223L40.3399 22.2584C39.1522 22.5664 38.0084 22.7423 36.9086 22.7423C36.1608 22.7423 35.4569 22.6104 34.841 22.3904C34.2252 22.1704 33.6973 21.8185 33.2134 21.3786C32.7735 20.9387 32.4215 20.4108 32.1576 19.7949C31.8936 19.1791 31.8057 18.5192 31.8057 17.7713V9.98495H28.9902V6.90558H31.8057V2.37451H35.7209V6.8176H35.7648Z" fill="white"/>
<path d="M42.3634 11.0845C42.3634 10.4246 42.4954 9.76474 42.8033 9.19286C43.1113 8.62098 43.5072 8.13708 43.9911 7.69717C44.519 7.30125 45.1349 6.94932 45.8387 6.72937C46.5426 6.50941 47.3784 6.37744 48.2142 6.37744C49.094 6.37744 50.0178 6.46542 50.9416 6.64139C51.8655 6.81735 52.8333 7.0813 53.8011 7.43322L52.9212 10.3366C52.1734 10.0287 51.4256 9.80874 50.6777 9.63277C49.9299 9.45681 49.226 9.36883 48.5661 9.36883C47.8623 9.36883 47.2904 9.5008 46.8505 9.80874C46.4106 10.1167 46.2346 10.5126 46.2346 11.0405C46.2346 11.5244 46.4546 11.8763 46.8505 12.0963C47.2464 12.3162 47.7303 12.5362 48.3462 12.7121C48.9621 12.8881 49.5779 13.0641 50.2818 13.196C50.9856 13.372 51.6455 13.6359 52.2174 13.9879C52.8333 14.3398 53.3172 14.8237 53.7131 15.3956C54.109 16.0115 54.329 16.8033 54.329 17.7711C54.329 18.475 54.197 19.0908 53.889 19.7067C53.5811 20.2786 53.1852 20.8065 52.6573 21.2464C52.1294 21.6863 51.5135 21.9942 50.7217 22.2582C49.9738 22.4781 49.138 22.6101 48.2582 22.6101C46.3666 22.6101 44.343 22.2142 42.2314 21.3784L43.0673 18.5189C44.8709 19.2668 46.4986 19.6187 47.9503 19.6187C48.6981 19.6187 49.314 19.4428 49.7539 19.1348C50.1938 18.8269 50.4138 18.387 50.4138 17.8151C50.4138 17.3312 50.1938 16.9793 49.7979 16.7153C49.402 16.4514 48.9181 16.2314 48.3022 16.0555C47.6863 15.8795 47.0704 15.7035 46.3666 15.5276C45.6627 15.3516 45.0469 15.0876 44.431 14.7357C43.8151 14.3838 43.3312 13.9439 42.9353 13.372C42.5394 12.8441 42.3634 12.0523 42.3634 11.0845Z" fill="white"/>
<path d="M62.5551 6.8176H66.7343V9.89697H62.5551V17.2874C62.5551 17.9473 62.7311 18.4752 63.127 18.8711C63.5229 19.267 64.0068 19.487 64.6667 19.487C65.2386 19.487 65.8984 19.399 66.6023 19.223L67.1302 22.2584C65.9424 22.5664 64.7987 22.7423 63.6989 22.7423C62.951 22.7423 62.2472 22.6104 61.6313 22.3904C61.0154 22.1704 60.4876 21.8185 60.0037 21.3786C59.5198 20.9387 59.2118 20.4108 58.9479 19.7949C58.6839 19.1791 58.5959 18.5192 58.5959 17.7713V9.98495H55.7805V6.90558H58.5959V2.37451H62.5111V6.8176H62.5551Z" fill="white"/>
<path d="M73.2007 17.5528C73.2007 18.1686 73.4647 18.6965 73.9486 19.1364C74.4765 19.5763 75.0924 19.7963 75.8402 19.7963C76.896 19.7963 77.7318 19.4444 78.3917 18.7845C79.0515 18.1246 79.3595 17.2448 79.3595 16.189V15.2652C78.6116 15.0453 77.7758 14.9573 76.852 14.9573C75.7082 14.9573 74.8284 15.1772 74.1686 15.6611C73.5527 16.1011 73.2007 16.7609 73.2007 17.5528ZM69.3735 17.7727C69.3735 16.1451 69.9894 14.8693 71.2212 13.9895C72.4529 13.1097 74.1685 12.6698 76.4121 12.6698C76.896 12.6698 77.3799 12.7138 77.8638 12.7577C78.3477 12.8017 78.8756 12.8897 79.3595 12.9777V12.1419C79.3595 11.35 79.0955 10.6902 78.5237 10.2063C77.9518 9.72237 77.2039 9.45843 76.2361 9.45843C74.6964 9.45843 73.0248 9.81035 71.2212 10.5582L70.2094 7.74278C72.4089 6.86296 74.5645 6.46704 76.676 6.46704C77.6438 6.46704 78.4797 6.59901 79.2715 6.90695C80.0633 7.1709 80.7232 7.56682 81.2951 8.09471C81.867 8.57861 82.3069 9.19448 82.6148 9.89833C82.9228 10.6022 83.0987 11.394 83.0987 12.2299V18.5206C83.0987 18.8725 83.1867 19.1364 83.3627 19.3124C83.5386 19.5324 83.8026 19.6203 84.1545 19.6203C84.3305 19.6203 84.4624 19.6203 84.6384 19.5763C84.7704 19.5763 84.9023 19.5324 84.9463 19.5324L85.2103 22.4797C84.8584 22.5237 84.5504 22.6117 84.1985 22.6557C83.8466 22.6997 83.4946 22.6997 83.0987 22.6997C82.3069 22.6997 81.647 22.5237 81.0751 22.1278C80.5033 21.7759 80.1073 21.248 79.8434 20.5881C79.1835 21.248 78.3917 21.7759 77.5559 22.1278C76.676 22.4797 75.7962 22.6557 74.8284 22.6557C74.0366 22.6557 73.2887 22.5237 72.6289 22.3038C71.969 22.0838 71.3971 21.7319 70.9132 21.292C70.4293 20.8521 70.0774 20.3682 69.8134 19.7523C69.5055 19.1364 69.3735 18.4766 69.3735 17.7727Z" fill="white"/>
<path d="M87.4978 6.77336H90.6652L91.1491 8.88493C91.765 8.09309 92.4688 7.47722 93.3486 7.03731C94.2285 6.5974 95.1523 6.37744 96.1641 6.37744C97.3078 6.37744 98.2756 6.64139 99.1554 7.12529C99.9913 7.60919 100.651 8.31304 101.091 9.19286C101.795 8.26905 102.631 7.5652 103.555 7.0813C104.478 6.5974 105.49 6.37744 106.634 6.37744C107.47 6.37744 108.218 6.50941 108.921 6.77336C109.625 7.03731 110.241 7.43323 110.725 7.96112C111.253 8.44502 111.649 9.06089 111.913 9.76475C112.177 10.4686 112.353 11.2164 112.353 12.0523V22.2582H108.35V12.7121C108.35 11.8323 108.086 11.1285 107.514 10.5566C106.942 10.0287 106.238 9.72075 105.358 9.72075C104.346 9.72075 103.511 10.0727 102.851 10.7765C102.191 11.4804 101.883 12.3602 101.883 13.504V22.2582H97.8797V12.7121C97.8797 11.8323 97.6158 11.1285 97.0879 10.5566C96.56 10.0287 95.8561 9.72075 94.9763 9.72075C93.9205 9.72075 93.0847 10.0727 92.4248 10.7765C91.765 11.4804 91.457 12.3602 91.457 13.504V22.2582H87.4539V6.77336H87.4978Z" fill="white"/>
<path d="M127.574 14.4718C127.574 13.7679 127.486 13.1081 127.266 12.4922C127.09 11.8763 126.782 11.3484 126.43 10.9525C126.078 10.5126 125.682 10.2047 125.198 9.94071C124.714 9.67676 124.186 9.58878 123.614 9.58878C122.559 9.58878 121.723 9.94071 121.019 10.6886C120.359 11.3924 120.007 12.3162 120.007 13.46V15.5276C120.007 16.0994 120.095 16.6273 120.271 17.0672C120.447 17.5511 120.711 17.9471 121.019 18.299C121.327 18.6509 121.723 18.9149 122.163 19.0908C122.603 19.2668 123.087 19.3548 123.614 19.3548C124.186 19.3548 124.714 19.2228 125.198 19.0028C125.682 18.7829 126.078 18.431 126.43 17.9911C126.782 17.5511 127.046 17.0233 127.266 16.4514C127.486 15.8795 127.574 15.1756 127.574 14.4718ZM116.136 6.77336H119.303L119.787 8.75295C120.359 8.00511 121.019 7.43322 121.855 6.99332C122.691 6.5974 123.614 6.37744 124.626 6.37744C125.638 6.37744 126.562 6.5974 127.442 6.99332C128.277 7.38923 129.025 7.96112 129.641 8.66497C130.257 9.36883 130.741 10.2047 131.093 11.2164C131.445 12.1842 131.621 13.284 131.621 14.4718C131.621 15.6595 131.445 16.7593 131.093 17.7271C130.741 18.6949 130.257 19.5747 129.641 20.2786C129.025 20.9824 128.277 21.5543 127.442 21.9502C126.606 22.3462 125.638 22.5661 124.626 22.5661C123.702 22.5661 122.823 22.3901 122.075 22.0382C121.283 21.6863 120.623 21.1584 120.095 20.4545V29.8246H116.136V6.77336Z" fill="white"/>
<path d="M13.4612 18.3003C12.8454 18.9161 12.0095 19.1801 10.9537 19.1801H6.02677V12.8014H10.9537C11.9655 12.8014 12.8014 13.1093 13.4612 13.6812C14.0771 14.2531 14.385 15.0449 14.385 15.9687C14.429 16.9365 14.1211 17.7284 13.4612 18.3003ZM6.02677 4.17918H10.5578C11.4816 4.17918 12.2295 4.44312 12.8454 5.015C13.4612 5.54289 13.7252 6.29074 13.7252 7.17056C13.7252 8.05038 13.4172 8.75423 12.8454 9.28212C12.2295 9.81002 11.4816 10.074 10.5578 10.074H6.02677V4.17918ZM17.5084 13.1973C16.8485 12.2735 15.9687 11.6136 14.8689 11.2177C15.7488 10.8218 16.4086 10.2499 16.9365 9.45809C17.4644 8.66625 17.7283 7.74244 17.7283 6.68666C17.7283 5.85083 17.5524 5.10298 17.2445 4.44312C16.9365 3.73926 16.4526 3.16738 15.8807 2.68348C15.3089 2.19958 14.605 1.80366 13.8132 1.53972C13.0213 1.27577 12.1415 1.1438 11.1737 1.1438H0V3.95922C1.71565 3.95922 3.07937 5.36693 3.07937 7.08258C3.07937 8.79822 1.71565 10.2059 0 10.2059V12.7574C1.71565 12.7574 3.07937 14.1651 3.07937 15.8808V16.3647C3.07937 18.0803 1.71565 19.488 0 19.488V22.3034H11.6576C12.6694 22.3034 13.5492 22.1715 14.385 21.8635C15.2209 21.5996 15.9247 21.2037 16.5406 20.6758C17.1565 20.1479 17.6404 19.532 17.9483 18.8282C18.3002 18.1243 18.4762 17.3325 18.4762 16.4527C18.4762 15.1769 18.1683 14.1211 17.5084 13.1973Z" fill="white"/>
</svg>
