<svg width="50" height="47" viewBox="0 0 50 47" fill="none" xmlns="http://www.w3.org/2000/svg">
<circle cx="10" cy="10" r="10" fill="#32E685"/>
<path d="M25.2776 8.05566C23.1299 8.05566 21.3887 9.79678 21.3887 11.9446C21.3887 14.0925 23.1298 15.8336 25.2776 15.8336C27.4249 15.8336 29.1666 14.0925 29.1666 11.9446C29.1666 9.79678 27.4249 8.05566 25.2776 8.05566ZM25.2776 14.1669C24.0526 14.1669 23.0554 13.1702 23.0554 11.9446C23.0554 10.719 24.0526 9.72236 25.2776 9.72236C26.5026 9.72236 27.4999 10.719 27.4999 11.9446C27.4999 13.1702 26.5027 14.1669 25.2776 14.1669Z" fill="white"/>
<path d="M47.9546 17.9125L25.7323 3.46812C25.4563 3.28862 25.1001 3.28862 24.824 3.46812L2.60177 17.9125C2.29122 18.1142 2.15177 18.4936 2.25675 18.8481C2.36173 19.2031 2.68556 19.4448 3.05567 19.4448H47.5C47.8699 19.4448 48.1939 19.2031 48.2989 18.8481C48.404 18.4931 48.2646 18.1141 47.9546 17.9125ZM5.86681 17.7782L25.2778 5.16089L44.6884 17.7782H5.86681Z" fill="white"/>
<path d="M47.4999 41.6664H41.6666V22.7776H43.0555C43.5154 22.7776 43.8888 22.4049 43.8888 21.9442C43.8888 21.4836 43.5154 21.1108 43.0555 21.1108H34.1666C33.7066 21.1108 33.3332 21.4836 33.3332 21.9442C33.3332 22.4048 33.7065 22.7776 34.1666 22.7776H35.5555V41.6665H28.3332V22.7776H29.7221C30.182 22.7776 30.5555 22.4049 30.5555 21.9442C30.5555 21.4836 30.1821 21.1108 29.7221 21.1108H20.8332C20.3732 21.1108 19.9999 21.4836 19.9999 21.9442C19.9999 22.4048 20.3732 22.7776 20.8332 22.7776H22.2221V41.6665H15V22.7776H16.3889C16.8488 22.7776 17.2222 22.4049 17.2222 21.9442C17.2222 21.4836 16.8488 21.1108 16.3889 21.1108H7.4999C7.03994 21.1108 6.6665 21.4836 6.6665 21.9442C6.6665 22.4048 7.03984 22.7776 7.4999 22.7776H8.88877V41.6665H3.05557C2.59561 41.6665 2.22217 42.0392 2.22217 42.4998C2.22217 42.9598 2.59551 43.3332 3.05557 43.3332H47.4999C47.9599 43.3332 48.3333 42.9599 48.3333 42.4998C48.3333 42.0391 47.96 41.6664 47.4999 41.6664ZM13.3333 41.6664H10.5556V22.7776H13.3333V41.6664ZM26.6666 41.6664H23.8889V22.7776H26.6666V41.6664ZM40 41.6664H37.2223V22.7776H40V41.6664Z" fill="white"/>
<path d="M49.1666 45H0.833398C0.373438 45 0 45.3728 0 45.8334C0 46.2939 0.37334 46.6668 0.833398 46.6668H49.1667C49.6267 46.6668 50.0001 46.294 50.0001 45.8334C50 45.3728 49.6267 45 49.1666 45Z" fill="white"/>
</svg>
