<svg width="50" height="48" viewBox="0 0 50 48" fill="none" xmlns="http://www.w3.org/2000/svg">
<circle cx="10" cy="10" r="10" fill="#19A3FF"/>
<path d="M5.88232 19.4116C2.63477 19.4116 0 22.0452 0 25.2939C0 28.5422 2.63477 31.1763 5.88232 31.1763C9.13115 31.1764 11.7646 28.5422 11.7646 25.2939C11.7646 22.0451 9.13115 19.4116 5.88232 19.4116ZM5.88232 29.4116C3.6123 29.4116 1.76465 27.564 1.76465 25.2939C1.76465 23.0238 3.6123 21.1763 5.88232 21.1763C8.15234 21.1763 10 23.0239 10 25.2939C10 27.564 8.15234 29.4116 5.88232 29.4116Z" fill="white"/>
<path d="M34.1178 2.35303C30.8689 2.35303 28.2354 4.98652 28.2354 8.23535C28.2354 11.4836 30.8689 14.1177 34.1178 14.1177C37.3666 14.1177 40.0001 11.4836 40.0001 8.23535C40.0002 4.98652 37.3667 2.35303 34.1178 2.35303ZM34.1178 12.3531C31.8478 12.3531 30.0001 10.5055 30.0001 8.23545C30.0001 5.96533 31.8478 4.11777 34.1178 4.11777C36.3878 4.11777 38.2354 5.96543 38.2354 8.23545C38.2355 10.5056 36.3879 12.3531 34.1178 12.3531Z" fill="white"/>
<path d="M34.7061 35.2944C31.4584 35.2944 28.8237 37.9279 28.8237 41.1768C28.8237 44.425 31.4585 47.0591 34.7061 47.0591C37.9549 47.0591 40.5884 44.425 40.5884 41.1768C40.5884 37.928 37.9549 35.2944 34.7061 35.2944ZM34.7061 45.2944C32.436 45.2944 30.5884 43.4468 30.5884 41.1768C30.5884 38.9067 32.436 37.0591 34.7061 37.0591C36.9761 37.0591 38.8237 38.9067 38.8237 41.1768C38.8236 43.4467 36.976 45.2944 34.7061 45.2944Z" fill="white"/>
<path d="M44.1177 18.8237C41.1695 18.8237 38.7353 20.9949 38.3088 23.8237H32.2976C31.8599 20.0167 28.6305 17.059 24.7058 17.059C23.4017 17.059 22.1747 17.3872 21.1005 17.9625L18.1305 13.0119C19.6165 11.9442 20.5881 10.2049 20.5881 8.23535C20.5881 4.98711 17.9546 2.35303 14.7058 2.35303C11.4582 2.35303 8.82349 4.98711 8.82349 8.23535C8.82349 11.483 11.4583 14.1177 14.7058 14.1177C15.3529 14.1177 15.9728 14.0095 16.5558 13.8165L19.6523 18.9771C18.0652 20.3789 17.0587 22.4224 17.0587 24.7061C17.0587 27.2825 18.3364 29.5555 20.2893 30.9413L17.1434 36.1837C16.561 35.9908 15.9411 35.8825 15.294 35.8825C12.0463 35.8825 9.41167 38.5166 9.41167 41.7648C9.41167 45.0125 12.0464 47.6472 15.294 47.6472C18.5428 47.6472 21.1763 45.0124 21.1763 41.7648C21.1763 39.7948 20.2045 38.0555 18.7187 36.9883L21.837 31.7912C22.7228 32.1506 23.6899 32.353 24.7058 32.353C28.6305 32.353 31.8599 29.3954 32.2976 25.5883H38.3088C38.7353 28.4171 41.1695 30.5883 44.1177 30.5883C47.3666 30.5883 50 27.9535 50 24.706C50 21.4578 47.3666 18.8237 44.1177 18.8237ZM14.706 12.3531C12.4359 12.3531 10.5883 10.5054 10.5883 8.23545C10.5883 5.96553 12.436 4.11777 14.706 4.11777C16.9761 4.11777 18.8237 5.96543 18.8237 8.23545C18.8237 10.5055 16.9761 12.3531 14.706 12.3531ZM19.412 41.7648C19.4119 44.035 17.5642 45.8825 15.2943 45.8825C13.0244 45.8825 11.1766 44.0349 11.1766 41.7648C11.1766 39.4948 13.0243 37.6472 15.2943 37.6472C17.5643 37.6472 19.412 39.4947 19.412 41.7648ZM24.7059 30.5884C21.4624 30.5884 18.8236 27.9495 18.8236 24.7061C18.8236 21.4626 21.4625 18.8237 24.7059 18.8237C27.9494 18.8237 30.5882 21.4626 30.5882 24.7061C30.5882 27.9495 27.9496 30.5884 24.7059 30.5884ZM44.1177 28.8237C41.8477 28.8237 40 26.9761 40 24.7061C40 22.4359 41.8477 20.5884 44.1177 20.5884C46.3877 20.5884 48.2354 22.436 48.2354 24.7061C48.2354 26.9762 46.3876 28.8237 44.1177 28.8237Z" fill="white"/>
</svg>
