<svg width="48" height="45" viewBox="0 0 48 45" fill="none" xmlns="http://www.w3.org/2000/svg">
<circle cx="10" cy="10" r="10" fill="#FF6719"/>
<path d="M45.5066 1.80518H2.49347C1.1221 1.80518 0 2.92727 0 4.29865V41.7013C0 43.0728 1.1221 44.1948 2.49347 44.1948H45.5065C46.878 44.1948 48 43.0727 48 41.7013V4.29865C48.0001 2.92727 46.878 1.80518 45.5066 1.80518ZM1.87013 4.29865C1.87013 3.96087 2.1556 3.6753 2.49347 3.6753H45.5065C45.8444 3.6753 46.1299 3.96077 46.1299 4.29865V9.28569H1.87013V4.29865ZM30.8384 42.3248H17.785C17.601 41.7101 17.4944 41.0618 17.4944 40.3879C17.4944 36.6289 20.5521 33.5706 24.3117 33.5706C28.0712 33.5706 31.1289 36.629 31.1289 40.3879C31.1289 41.0618 31.0223 41.71 30.8384 42.3248ZM41.1109 41.7146L41.0405 41.7988C40.8696 41.8549 40.432 42.0164 39.9233 42.3256H32.7676C32.9109 41.7023 32.9982 41.0564 32.9982 40.3887C32.9982 35.5912 29.1095 31.7014 24.3108 31.7014C19.5139 31.7014 15.6235 35.5912 15.6235 40.3887C15.6235 41.0563 15.7107 41.7016 15.8541 42.3256H8.69983C8.19114 42.0149 7.75417 41.8541 7.58336 41.798L7.5123 41.7138C7.50048 41.571 7.4718 41.1596 7.4718 40.5443C7.4718 39.926 7.50114 39.5133 7.5123 39.3749L7.58336 39.2902C8.01602 39.148 10.1267 38.3532 10.8368 36.1671C11.5412 34.0014 10.3312 32.1325 10.0488 31.7379L10.0463 31.7061L11.495 29.7125L11.5324 29.7038C11.7568 29.7749 12.3926 29.95 13.1937 29.95C14.2385 29.95 15.2029 29.6508 15.9839 29.0835C17.8285 27.7432 17.9463 25.5178 17.9494 25.0334L17.9668 25.004L20.3114 24.2473L20.3444 24.2604C20.6317 24.65 22.0349 26.3774 24.3115 26.3774C26.588 26.3774 27.9913 24.65 28.2786 24.2604L28.3116 24.2473L30.6556 25.0035L30.6737 25.0328C30.6767 25.519 30.7939 27.7445 32.6386 29.0841C33.4184 29.6508 34.3834 29.9507 35.4275 29.9507C36.2304 29.9507 36.8669 29.7749 37.0907 29.7038L37.1281 29.7125L38.5775 31.7061L38.5749 31.7367C38.2925 32.1306 37.0807 34.0008 37.7845 36.1671C38.4958 38.3557 40.609 39.1506 41.0405 39.2915L41.1109 39.3757C41.1227 39.5184 41.1514 39.9293 41.1514 40.5445C41.1514 41.1636 41.122 41.5756 41.1109 41.7146ZM46.13 41.7013C46.13 42.0392 45.8445 42.3248 45.5066 42.3248H42.8797C42.9221 42.2069 42.9527 42.0873 42.9658 41.9688C42.9658 41.9688 43.0225 41.4488 43.0225 40.5438C43.0225 39.6398 42.9658 39.1207 42.9658 39.1207C42.8922 38.4387 42.2945 37.7181 41.6387 37.5186C41.6387 37.5186 40.0323 37.0298 39.5641 35.5886C39.0953 34.1467 40.1083 32.8077 40.1083 32.8077C40.5222 32.261 40.5634 31.3378 40.1993 30.7562L38.5299 28.4597C38.1983 28.0676 37.6142 27.8307 37.0699 27.8307C36.8873 27.8307 36.7097 27.8569 36.5469 27.913C36.5469 27.913 36.0657 28.0794 35.4273 28.0794C34.9087 28.0794 34.2872 27.9691 33.7374 27.5701C32.5099 26.6786 32.5436 24.9986 32.5436 24.9986C32.5567 24.3129 32.048 23.5405 31.4134 23.2818L28.7111 22.4098C28.5939 22.3804 28.4699 22.3667 28.344 22.3667C27.7548 22.3667 27.1103 22.6684 26.7868 23.1317C26.7868 23.1317 25.8268 24.5062 24.3113 24.5062C22.7958 24.5062 21.8358 23.1317 21.8358 23.1317C21.5123 22.6685 20.8678 22.3667 20.2786 22.3667C20.1527 22.3667 20.0293 22.3804 19.9115 22.4098L17.2092 23.2825C16.5733 23.5412 16.0652 24.3136 16.079 24.9993C16.079 24.9993 16.1114 26.6774 14.884 27.5694C14.3341 27.9684 13.712 28.0788 13.1934 28.0788C12.5569 28.0788 12.0757 27.9129 12.0757 27.9129C11.913 27.8569 11.7353 27.8306 11.5526 27.8306C11.0084 27.8306 10.4244 28.0669 10.0927 28.4596L8.42327 30.7561C8.0598 31.3377 8.10039 32.261 8.5143 32.8076C8.5143 32.8076 9.52671 34.1466 9.05786 35.5879C8.58967 37.0285 6.98448 37.5172 6.98448 37.5172C6.3287 37.7167 5.73151 38.438 5.65736 39.1199C5.65736 39.1199 5.60064 39.6398 5.60064 40.5443C5.60064 41.4488 5.65736 41.9681 5.65736 41.9681C5.67048 42.0872 5.70039 42.2075 5.74342 42.3253H2.49347C2.1556 42.3253 1.87013 42.0398 1.87013 41.702V11.1558H46.13V41.7013Z" fill="white"/>
<path d="M43.324 8.03869C44.1847 8.03869 44.8824 7.34097 44.8824 6.48028C44.8824 5.6196 44.1847 4.92188 43.324 4.92188C42.4633 4.92188 41.7656 5.6196 41.7656 6.48028C41.7656 7.34097 42.4633 8.03869 43.324 8.03869Z" fill="white"/>
<path d="M38.9608 8.03869C39.8214 8.03869 40.5192 7.34097 40.5192 6.48028C40.5192 5.6196 39.8214 4.92188 38.9608 4.92188C38.1001 4.92188 37.4023 5.6196 37.4023 6.48028C37.4023 7.34097 38.1001 8.03869 38.9608 8.03869Z" fill="white"/>
<path d="M34.5967 8.03869C35.4574 8.03869 36.1551 7.34097 36.1551 6.48028C36.1551 5.6196 35.4574 4.92188 34.5967 4.92188C33.7361 4.92188 33.0383 5.6196 33.0383 6.48028C33.0383 7.34097 33.7361 8.03869 34.5967 8.03869Z" fill="white"/>
</svg>
