<svg width="165" height="113" viewBox="0 0 165 113" fill="none" xmlns="http://www.w3.org/2000/svg">
<mask id="mask0" mask-type="alpha" maskUnits="userSpaceOnUse" x="0" y="0" width="165" height="113">
<path d="M0.5 10C0.5 4.75329 4.75329 0.5 10 0.5H164.5V112.5H0.5V10Z" fill="#232325" stroke="url(#paint0_linear)"/>
</mask>
<g mask="url(#mask0)">
<path d="M273.405 -1101.63C273.385 -1101.7 273.3 -1101.72 273.253 -1101.66L149.214 -969.82C111.787 -929.986 111.787 -865.441 149.214 -825.607L273.132 -693.892C273.181 -693.841 273.267 -693.875 273.267 -693.946V-693.946C273.267 -694.017 273.354 -694.051 273.403 -694L436.679 -520.474C495.809 -457.609 495.809 -355.701 436.679 -292.836L273.267 -119.166L266.279 -111.852L104.798 63.5971C46.3119 127.154 -48.4981 127.154 -106.984 63.5971L-268.432 -111.914C-268.48 -111.966 -268.443 -112.049 -268.373 -112.049V-112.049C-268.302 -112.049 -268.266 -112.133 -268.313 -112.185L-390.587 -244.995C-427.646 -285.225 -487.695 -285.225 -524.755 -244.995L-647.49 -111.589C-647.509 -111.567 -647.537 -111.555 -647.567 -111.555V-111.555C-647.596 -111.555 -647.624 -111.543 -647.644 -111.521L-808.725 63.5971C-867.211 127.154 -962.021 127.154 -1020.51 63.5971L-1182.08 -112.049L-1188.24 -118.178L-1351.65 -291.748C-1410.78 -354.613 -1410.78 -456.522 -1351.65 -519.387L-1188.15 -692.76L-1064 -824.717C-1026.58 -864.551 -1026.58 -929.097 -1064 -968.931L-1187.92 -1100.65C-1187.97 -1100.7 -1188.06 -1100.66 -1188.06 -1100.59V-1100.59C-1188.06 -1100.52 -1188.14 -1100.49 -1188.19 -1100.54L-1351.47 -1274.06C-1410.6 -1336.93 -1410.6 -1438.84 -1351.47 -1501.7L-1188.06 -1675.37L-1181.07 -1682.69L-1019.5 -1858.33C-961.01 -1921.89 -866.2 -1921.89 -807.714 -1858.33L-646.389 -1682.76C-646.329 -1682.69 -646.375 -1682.59 -646.463 -1682.59V-1682.59C-646.551 -1682.59 -646.597 -1682.48 -646.537 -1682.42L-524.295 -1549.64C-487.236 -1509.41 -427.186 -1509.41 -390.127 -1549.64L-267.455 -1682.98C-267.395 -1683.04 -267.311 -1683.08 -267.223 -1683.08V-1683.08C-267.135 -1683.08 -267.051 -1683.12 -266.992 -1683.18L-105.881 -1858.23C-47.3946 -1921.79 47.4155 -1921.79 105.902 -1858.23L267.29 -1682.59L273.451 -1676.46L436.863 -1502.79C495.993 -1439.92 495.993 -1338.02 436.863 -1275.15L273.558 -1101.59C273.51 -1101.54 273.426 -1101.56 273.405 -1101.63V-1101.63Z" stroke="url(#paint1_linear)" stroke-width="1.75" stroke-miterlimit="10" stroke-linecap="round"/>
<path d="M273.405 -1101.63C273.385 -1101.7 273.3 -1101.72 273.253 -1101.66L149.214 -969.82C111.787 -929.986 111.787 -865.441 149.214 -825.607L273.132 -693.892C273.181 -693.841 273.267 -693.875 273.267 -693.946V-693.946C273.267 -694.017 273.354 -694.051 273.403 -694L436.679 -520.474C495.809 -457.609 495.809 -355.701 436.679 -292.836L273.267 -119.166L266.279 -111.852L104.798 63.5971C46.3119 127.154 -48.4981 127.154 -106.984 63.5971L-268.432 -111.914C-268.48 -111.966 -268.443 -112.049 -268.373 -112.049V-112.049C-268.302 -112.049 -268.266 -112.133 -268.313 -112.185L-390.587 -244.995C-427.646 -285.225 -487.695 -285.225 -524.755 -244.995L-647.49 -111.589C-647.509 -111.567 -647.537 -111.555 -647.567 -111.555V-111.555C-647.596 -111.555 -647.624 -111.543 -647.644 -111.521L-808.725 63.5971C-867.211 127.154 -962.021 127.154 -1020.51 63.5971L-1182.08 -112.049L-1188.24 -118.178L-1351.65 -291.748C-1410.78 -354.613 -1410.78 -456.522 -1351.65 -519.387L-1188.15 -692.76L-1064 -824.717C-1026.58 -864.551 -1026.58 -929.097 -1064 -968.931L-1187.92 -1100.65C-1187.97 -1100.7 -1188.06 -1100.66 -1188.06 -1100.59V-1100.59C-1188.06 -1100.52 -1188.14 -1100.49 -1188.19 -1100.54L-1351.47 -1274.06C-1410.6 -1336.93 -1410.6 -1438.84 -1351.47 -1501.7L-1188.06 -1675.37L-1181.07 -1682.69L-1019.5 -1858.33C-961.01 -1921.89 -866.2 -1921.89 -807.714 -1858.33L-646.389 -1682.76C-646.329 -1682.69 -646.375 -1682.59 -646.463 -1682.59V-1682.59C-646.551 -1682.59 -646.597 -1682.48 -646.537 -1682.42L-524.295 -1549.64C-487.236 -1509.41 -427.186 -1509.41 -390.127 -1549.64L-267.455 -1682.98C-267.395 -1683.04 -267.311 -1683.08 -267.223 -1683.08V-1683.08C-267.135 -1683.08 -267.051 -1683.12 -266.992 -1683.18L-105.881 -1858.23C-47.3946 -1921.79 47.4155 -1921.79 105.902 -1858.23L267.29 -1682.59L273.451 -1676.46L436.863 -1502.79C495.993 -1439.92 495.993 -1338.02 436.863 -1275.15L273.558 -1101.59C273.51 -1101.54 273.426 -1101.56 273.405 -1101.63V-1101.63Z" stroke="url(#paint2_linear)" stroke-width="1.75" stroke-miterlimit="10" stroke-linecap="round"/>
<path d="M266.921 -1099.8C266.876 -1099.9 266.751 -1099.92 266.679 -1099.84L143.879 -969.228C106.727 -929.789 106.727 -865.837 143.879 -826.398L266.693 -695.87C266.742 -695.818 266.829 -695.852 266.829 -695.923V-695.923C266.829 -695.994 266.915 -696.029 266.964 -695.977L428.769 -524.033C487.347 -461.761 487.347 -360.742 428.769 -298.47L266.829 -126.382L259.932 -119.167L99.7386 54.9969C41.8042 117.961 -52.1781 117.961 -110.112 54.9969L-270.089 -118.933C-270.136 -118.984 -270.1 -119.068 -270.029 -119.068V-119.068C-269.959 -119.068 -269.922 -119.152 -269.97 -119.203L-391.048 -250.827C-427.74 -290.761 -487.237 -290.761 -523.929 -250.827L-645.498 -118.774C-645.557 -118.709 -645.641 -118.673 -645.729 -118.673V-118.673C-645.817 -118.673 -645.901 -118.636 -645.96 -118.571L-805.6 54.9969C-863.534 117.961 -957.517 117.961 -1015.45 54.9969L-1175.55 -119.068L-1181.71 -125.098L-1343.56 -297.185C-1402.14 -359.457 -1402.14 -460.476 -1343.56 -522.748L-1181.53 -694.639L-1058.58 -825.41C-1021.43 -864.848 -1021.43 -928.801 -1058.58 -968.24L-1181.39 -1098.77C-1181.44 -1098.82 -1181.53 -1098.79 -1181.53 -1098.71V-1098.71C-1181.53 -1098.64 -1181.62 -1098.61 -1181.66 -1098.66L-1343.47 -1270.6C-1402.05 -1332.88 -1402.05 -1433.9 -1343.47 -1496.17L-1181.53 -1668.26L-1174.63 -1675.47L-1014.53 -1849.54C-956.597 -1912.5 -862.615 -1912.5 -804.68 -1849.54L-644.704 -1675.61C-644.656 -1675.55 -644.693 -1675.47 -644.763 -1675.47V-1675.47C-644.834 -1675.47 -644.87 -1675.39 -644.823 -1675.34L-523.653 -1543.71C-486.961 -1503.78 -427.464 -1503.78 -390.772 -1543.71L-269.203 -1675.76C-269.144 -1675.83 -269.06 -1675.87 -268.972 -1675.87V-1675.87C-268.884 -1675.87 -268.8 -1675.9 -268.741 -1675.97L-109.101 -1849.44C-51.1665 -1912.4 42.8159 -1912.4 100.75 -1849.44L260.851 -1675.37L267.012 -1669.34L428.953 -1497.25C487.531 -1434.98 487.531 -1333.96 428.953 -1271.69L267.162 -1099.76C267.09 -1099.69 266.965 -1099.71 266.921 -1099.8V-1099.8Z" stroke="url(#paint3_linear)" stroke-width="1.75" stroke-miterlimit="10" stroke-linecap="round"/>
<path d="M266.921 -1099.8C266.876 -1099.9 266.751 -1099.92 266.679 -1099.84L143.879 -969.228C106.727 -929.789 106.727 -865.837 143.879 -826.398L266.693 -695.87C266.742 -695.818 266.829 -695.852 266.829 -695.923V-695.923C266.829 -695.994 266.915 -696.029 266.964 -695.977L428.769 -524.033C487.347 -461.761 487.347 -360.742 428.769 -298.47L266.829 -126.382L259.932 -119.167L99.7386 54.9969C41.8042 117.961 -52.1781 117.961 -110.112 54.9969L-270.089 -118.933C-270.136 -118.984 -270.1 -119.068 -270.029 -119.068V-119.068C-269.959 -119.068 -269.922 -119.152 -269.97 -119.203L-391.048 -250.827C-427.74 -290.761 -487.237 -290.761 -523.929 -250.827L-645.498 -118.774C-645.557 -118.709 -645.641 -118.673 -645.729 -118.673V-118.673C-645.817 -118.673 -645.901 -118.636 -645.96 -118.571L-805.6 54.9969C-863.534 117.961 -957.517 117.961 -1015.45 54.9969L-1175.55 -119.068L-1181.71 -125.098L-1343.56 -297.185C-1402.14 -359.457 -1402.14 -460.476 -1343.56 -522.748L-1181.53 -694.639L-1058.58 -825.41C-1021.43 -864.848 -1021.43 -928.801 -1058.58 -968.24L-1181.39 -1098.77C-1181.44 -1098.82 -1181.53 -1098.79 -1181.53 -1098.71V-1098.71C-1181.53 -1098.64 -1181.62 -1098.61 -1181.66 -1098.66L-1343.47 -1270.6C-1402.05 -1332.88 -1402.05 -1433.9 -1343.47 -1496.17L-1181.53 -1668.26L-1174.63 -1675.47L-1014.53 -1849.54C-956.597 -1912.5 -862.615 -1912.5 -804.68 -1849.54L-644.704 -1675.61C-644.656 -1675.55 -644.693 -1675.47 -644.763 -1675.47V-1675.47C-644.834 -1675.47 -644.87 -1675.39 -644.823 -1675.34L-523.653 -1543.71C-486.961 -1503.78 -427.464 -1503.78 -390.772 -1543.71L-269.203 -1675.76C-269.144 -1675.83 -269.06 -1675.87 -268.972 -1675.87V-1675.87C-268.884 -1675.87 -268.8 -1675.9 -268.741 -1675.97L-109.101 -1849.44C-51.1665 -1912.4 42.8159 -1912.4 100.75 -1849.44L260.851 -1675.37L267.012 -1669.34L428.953 -1497.25C487.531 -1434.98 487.531 -1333.96 428.953 -1271.69L267.162 -1099.76C267.09 -1099.69 266.965 -1099.71 266.921 -1099.8V-1099.8Z" stroke="url(#paint4_linear)" stroke-width="1.75" stroke-miterlimit="10" stroke-linecap="round"/>
<path d="M260.303 -1097.97C260.256 -1098.05 260.152 -1098.06 260.091 -1097.99L138.365 -968.535C101.581 -929.393 101.581 -866.034 138.365 -826.99L260.075 -697.648C260.124 -697.597 260.211 -697.631 260.211 -697.702V-697.702C260.211 -697.773 260.298 -697.807 260.346 -697.756L420.68 -527.393C478.798 -465.615 478.798 -365.585 420.68 -303.807L260.211 -133.301L253.406 -126.184L94.6841 46.2997C37.2095 108.769 -55.8532 108.769 -113.328 46.2997L-271.833 -126.048C-271.881 -126.1 -271.844 -126.184 -271.774 -126.184V-126.184C-271.703 -126.184 -271.667 -126.267 -271.714 -126.319L-391.78 -256.757C-428.196 -296.295 -487.142 -296.295 -523.466 -256.757L-643.839 -125.791C-643.899 -125.726 -643.983 -125.69 -644.071 -125.69V-125.69C-644.159 -125.69 -644.242 -125.653 -644.302 -125.588L-802.47 46.2996C-859.945 108.769 -953.008 108.769 -1010.48 46.2996L-1169.02 -126.085L-1175.09 -132.016L-1335.56 -302.621C-1393.68 -364.399 -1393.68 -464.429 -1335.56 -526.207L-1175 -696.516L-1053.15 -826.002C-1016.37 -865.144 -1016.37 -928.504 -1053.15 -967.547L-1174.86 -1096.89C-1174.91 -1096.94 -1175 -1096.91 -1175 -1096.84V-1096.84C-1175 -1096.76 -1175.08 -1096.73 -1175.13 -1096.78L-1335.47 -1267.14C-1393.58 -1328.92 -1393.58 -1428.95 -1335.47 -1490.73L-1175 -1661.24L-1168.19 -1668.35L-1009.56 -1840.84C-952.088 -1903.31 -859.025 -1903.31 -801.551 -1840.84L-643.046 -1668.49C-642.998 -1668.44 -643.035 -1668.35 -643.105 -1668.35V-1668.35C-643.175 -1668.35 -643.212 -1668.27 -643.164 -1668.22L-523.098 -1537.78C-486.682 -1498.24 -427.736 -1498.24 -391.413 -1537.78L-270.947 -1668.65C-270.888 -1668.71 -270.804 -1668.75 -270.716 -1668.75V-1668.75C-270.628 -1668.75 -270.544 -1668.79 -270.485 -1668.85L-112.316 -1840.84C-54.8417 -1903.31 38.2212 -1903.31 95.6957 -1840.84L254.325 -1668.35L260.395 -1662.42L420.864 -1491.92C478.982 -1430.14 478.982 -1330.11 420.864 -1268.33L260.514 -1097.95C260.454 -1097.89 260.349 -1097.9 260.303 -1097.97V-1097.97Z" stroke="url(#paint5_linear)" stroke-width="1.75" stroke-miterlimit="10" stroke-linecap="round"/>
<path d="M260.303 -1097.97C260.256 -1098.05 260.152 -1098.06 260.091 -1097.99L138.365 -968.535C101.581 -929.393 101.581 -866.034 138.365 -826.99L260.075 -697.648C260.124 -697.597 260.211 -697.631 260.211 -697.702V-697.702C260.211 -697.773 260.298 -697.807 260.346 -697.756L420.68 -527.393C478.798 -465.615 478.798 -365.585 420.68 -303.807L260.211 -133.301L253.406 -126.184L94.6841 46.2997C37.2095 108.769 -55.8532 108.769 -113.328 46.2997L-271.833 -126.048C-271.881 -126.1 -271.844 -126.184 -271.774 -126.184V-126.184C-271.703 -126.184 -271.667 -126.267 -271.714 -126.319L-391.78 -256.757C-428.196 -296.295 -487.142 -296.295 -523.466 -256.757L-643.839 -125.791C-643.899 -125.726 -643.983 -125.69 -644.071 -125.69V-125.69C-644.159 -125.69 -644.242 -125.653 -644.302 -125.588L-802.47 46.2996C-859.945 108.769 -953.008 108.769 -1010.48 46.2996L-1169.02 -126.085L-1175.09 -132.016L-1335.56 -302.621C-1393.68 -364.399 -1393.68 -464.429 -1335.56 -526.207L-1175 -696.516L-1053.15 -826.002C-1016.37 -865.144 -1016.37 -928.504 -1053.15 -967.547L-1174.86 -1096.89C-1174.91 -1096.94 -1175 -1096.91 -1175 -1096.84V-1096.84C-1175 -1096.76 -1175.08 -1096.73 -1175.13 -1096.78L-1335.47 -1267.14C-1393.58 -1328.92 -1393.58 -1428.95 -1335.47 -1490.73L-1175 -1661.24L-1168.19 -1668.35L-1009.56 -1840.84C-952.088 -1903.31 -859.025 -1903.31 -801.551 -1840.84L-643.046 -1668.49C-642.998 -1668.44 -643.035 -1668.35 -643.105 -1668.35V-1668.35C-643.175 -1668.35 -643.212 -1668.27 -643.164 -1668.22L-523.098 -1537.78C-486.682 -1498.24 -427.736 -1498.24 -391.413 -1537.78L-270.947 -1668.65C-270.888 -1668.71 -270.804 -1668.75 -270.716 -1668.75V-1668.75C-270.628 -1668.75 -270.544 -1668.79 -270.485 -1668.85L-112.316 -1840.84C-54.8417 -1903.31 38.2212 -1903.31 95.6957 -1840.84L254.325 -1668.35L260.395 -1662.42L420.864 -1491.92C478.982 -1430.14 478.982 -1330.11 420.864 -1268.33L260.514 -1097.95C260.454 -1097.89 260.349 -1097.9 260.303 -1097.97V-1097.97Z" stroke="url(#paint6_linear)" stroke-width="1.75" stroke-miterlimit="10" stroke-linecap="round"/>
<path d="M253.727 -1096.19C253.702 -1096.22 253.66 -1096.22 253.635 -1096.19L132.939 -967.943C96.5227 -929.196 96.5227 -866.43 132.939 -827.683L253.546 -699.527C253.594 -699.475 253.681 -699.509 253.681 -699.58V-699.58C253.681 -699.651 253.768 -699.686 253.817 -699.634L412.679 -530.853C470.245 -469.669 470.245 -370.528 412.679 -309.343L253.681 -140.418L246.876 -133.301L89.6257 37.6992C32.7029 99.5758 -59.5322 99.5757 -116.455 37.6992L-273.489 -133.067C-273.536 -133.119 -273.5 -133.203 -273.429 -133.203V-133.203C-273.359 -133.203 -273.322 -133.286 -273.37 -133.338L-392.333 -262.59C-428.381 -301.732 -486.775 -301.732 -522.823 -262.59L-642.092 -132.909C-642.152 -132.844 -642.236 -132.807 -642.324 -132.807V-132.807C-642.412 -132.807 -642.496 -132.77 -642.555 -132.706L-799.252 37.6992C-856.175 99.5757 -948.41 99.5757 -1005.33 37.6992L-1162.58 -133.203L-1168.65 -139.133L-1327.56 -308.058C-1385.12 -369.243 -1385.12 -468.384 -1327.56 -529.568L-1168.47 -698.296L-1047.73 -826.694C-1011.31 -865.441 -1011.31 -928.207 -1047.73 -966.954L-1168.33 -1095.11C-1168.38 -1095.16 -1168.47 -1095.13 -1168.47 -1095.06V-1095.06C-1168.47 -1094.99 -1168.56 -1094.95 -1168.6 -1095L-1327.47 -1263.78C-1385.03 -1324.97 -1385.03 -1424.11 -1327.47 -1485.29L-1168.47 -1654.22L-1161.66 -1661.34L-1004.41 -1832.24C-947.491 -1894.11 -855.255 -1894.11 -798.333 -1832.24L-641.299 -1661.57C-641.251 -1661.52 -641.288 -1661.43 -641.358 -1661.43V-1661.43C-641.429 -1661.43 -641.465 -1661.35 -641.418 -1661.3L-522.547 -1532.05C-486.499 -1492.9 -428.105 -1492.9 -392.057 -1532.05L-272.695 -1661.73C-272.636 -1661.79 -272.552 -1661.83 -272.464 -1661.83V-1661.83C-272.376 -1661.83 -272.292 -1661.87 -272.232 -1661.93L-115.535 -1832.34C-58.6126 -1894.21 33.6225 -1894.21 90.5453 -1832.34L247.704 -1661.43L253.773 -1655.5L412.77 -1486.58C470.337 -1425.39 470.337 -1326.25 412.77 -1265.07L253.819 -1096.19C253.794 -1096.17 253.752 -1096.17 253.727 -1096.19V-1096.19Z" stroke="url(#paint7_linear)" stroke-width="1.75" stroke-miterlimit="10" stroke-linecap="round"/>
<path d="M253.727 -1096.19C253.702 -1096.22 253.66 -1096.22 253.635 -1096.19L132.939 -967.943C96.5227 -929.196 96.5227 -866.43 132.939 -827.683L253.546 -699.527C253.594 -699.475 253.681 -699.509 253.681 -699.58V-699.58C253.681 -699.651 253.768 -699.686 253.817 -699.634L412.679 -530.853C470.245 -469.669 470.245 -370.528 412.679 -309.343L253.681 -140.418L246.876 -133.301L89.6257 37.6992C32.7029 99.5758 -59.5322 99.5757 -116.455 37.6992L-273.489 -133.067C-273.536 -133.119 -273.5 -133.203 -273.429 -133.203V-133.203C-273.359 -133.203 -273.322 -133.286 -273.37 -133.338L-392.333 -262.59C-428.381 -301.732 -486.775 -301.732 -522.823 -262.59L-642.092 -132.909C-642.152 -132.844 -642.236 -132.807 -642.324 -132.807V-132.807C-642.412 -132.807 -642.496 -132.77 -642.555 -132.706L-799.252 37.6992C-856.175 99.5757 -948.41 99.5757 -1005.33 37.6992L-1162.58 -133.203L-1168.65 -139.133L-1327.56 -308.058C-1385.12 -369.243 -1385.12 -468.384 -1327.56 -529.568L-1168.47 -698.296L-1047.73 -826.694C-1011.31 -865.441 -1011.31 -928.207 -1047.73 -966.954L-1168.33 -1095.11C-1168.38 -1095.16 -1168.47 -1095.13 -1168.47 -1095.06V-1095.06C-1168.47 -1094.99 -1168.56 -1094.95 -1168.6 -1095L-1327.47 -1263.78C-1385.03 -1324.97 -1385.03 -1424.11 -1327.47 -1485.29L-1168.47 -1654.22L-1161.66 -1661.34L-1004.41 -1832.24C-947.491 -1894.11 -855.255 -1894.11 -798.333 -1832.24L-641.299 -1661.57C-641.251 -1661.52 -641.288 -1661.43 -641.358 -1661.43V-1661.43C-641.429 -1661.43 -641.465 -1661.35 -641.418 -1661.3L-522.547 -1532.05C-486.499 -1492.9 -428.105 -1492.9 -392.057 -1532.05L-272.695 -1661.73C-272.636 -1661.79 -272.552 -1661.83 -272.464 -1661.83V-1661.83C-272.376 -1661.83 -272.292 -1661.87 -272.232 -1661.93L-115.535 -1832.34C-58.6126 -1894.21 33.6225 -1894.21 90.5453 -1832.34L247.704 -1661.43L253.773 -1655.5L412.77 -1486.58C470.337 -1425.39 470.337 -1326.25 412.77 -1265.07L253.819 -1096.19C253.794 -1096.17 253.752 -1096.17 253.727 -1096.19V-1096.19Z" stroke="url(#paint8_linear)" stroke-width="1.75" stroke-miterlimit="10" stroke-linecap="round"/>
<path d="M247.292 -1094.36C247.213 -1094.42 247.105 -1094.41 247.038 -1094.34L127.515 -967.25C91.3753 -928.898 91.3753 -866.627 127.515 -828.275L247.019 -701.305C247.067 -701.253 247.154 -701.288 247.154 -701.359V-701.359C247.154 -701.43 247.241 -701.464 247.29 -701.412L404.68 -534.114C461.695 -473.522 461.695 -375.271 404.68 -314.68L247.154 -147.237L240.441 -140.219L84.5702 29.0022C28.1992 90.2857 -63.2083 90.2857 -119.579 29.0022L-275.234 -140.183C-275.281 -140.235 -275.245 -140.318 -275.174 -140.318V-140.318C-275.104 -140.318 -275.067 -140.402 -275.115 -140.454L-392.882 -268.421C-428.562 -307.266 -486.497 -307.266 -522.177 -268.421L-640.435 -139.925C-640.495 -139.861 -640.578 -139.824 -640.666 -139.824V-139.824C-640.754 -139.824 -640.838 -139.787 -640.898 -139.722L-796.215 29.101C-852.586 90.3845 -943.994 90.3845 -1000.36 29.101L-1156.14 -140.219L-1162.12 -146.051L-1319.46 -313.494C-1376.48 -374.085 -1376.48 -472.336 -1319.46 -532.928L-1161.85 -700.074L-1042.21 -827.287C-1006.07 -865.638 -1006.07 -927.91 -1042.21 -966.262L-1161.71 -1093.33C-1161.76 -1093.38 -1161.85 -1093.35 -1161.85 -1093.28V-1093.28C-1161.85 -1093.21 -1161.93 -1093.17 -1161.98 -1093.22L-1319.37 -1260.52C-1376.39 -1321.11 -1376.39 -1419.36 -1319.37 -1479.96L-1161.85 -1647.4L-1155.13 -1654.42L-999.353 -1823.74C-942.982 -1885.02 -851.575 -1885.02 -795.204 -1823.74L-639.549 -1654.55C-639.502 -1654.5 -639.539 -1654.42 -639.609 -1654.42V-1654.42C-639.679 -1654.42 -639.716 -1654.33 -639.668 -1654.28L-521.809 -1526.21C-486.129 -1487.37 -428.195 -1487.37 -392.514 -1526.21L-274.256 -1654.71C-274.197 -1654.77 -274.113 -1654.81 -274.025 -1654.81V-1654.81C-273.937 -1654.81 -273.853 -1654.85 -273.793 -1654.91L-118.476 -1823.74C-62.1047 -1885.02 29.3028 -1885.02 85.6738 -1823.74L241.453 -1654.42L247.43 -1648.58L404.956 -1481.14C461.971 -1420.55 461.971 -1322.3 404.956 -1261.71L247.546 -1094.39C247.48 -1094.32 247.371 -1094.31 247.292 -1094.36V-1094.36Z" stroke="url(#paint9_linear)" stroke-width="1.75" stroke-miterlimit="10" stroke-linecap="round"/>
<path d="M247.292 -1094.36C247.213 -1094.42 247.105 -1094.41 247.038 -1094.34L127.515 -967.25C91.3753 -928.898 91.3753 -866.627 127.515 -828.275L247.019 -701.305C247.067 -701.253 247.154 -701.288 247.154 -701.359V-701.359C247.154 -701.43 247.241 -701.464 247.29 -701.412L404.68 -534.114C461.695 -473.522 461.695 -375.271 404.68 -314.68L247.154 -147.237L240.441 -140.219L84.5702 29.0022C28.1992 90.2857 -63.2083 90.2857 -119.579 29.0022L-275.234 -140.183C-275.281 -140.235 -275.245 -140.318 -275.174 -140.318V-140.318C-275.104 -140.318 -275.067 -140.402 -275.115 -140.454L-392.882 -268.421C-428.562 -307.266 -486.497 -307.266 -522.177 -268.421L-640.435 -139.925C-640.495 -139.861 -640.578 -139.824 -640.666 -139.824V-139.824C-640.754 -139.824 -640.838 -139.787 -640.898 -139.722L-796.215 29.101C-852.586 90.3845 -943.994 90.3845 -1000.36 29.101L-1156.14 -140.219L-1162.12 -146.051L-1319.46 -313.494C-1376.48 -374.085 -1376.48 -472.336 -1319.46 -532.928L-1161.85 -700.074L-1042.21 -827.287C-1006.07 -865.638 -1006.07 -927.91 -1042.21 -966.262L-1161.71 -1093.33C-1161.76 -1093.38 -1161.85 -1093.35 -1161.85 -1093.28V-1093.28C-1161.85 -1093.21 -1161.93 -1093.17 -1161.98 -1093.22L-1319.37 -1260.52C-1376.39 -1321.11 -1376.39 -1419.36 -1319.37 -1479.96L-1161.85 -1647.4L-1155.13 -1654.42L-999.353 -1823.74C-942.982 -1885.02 -851.575 -1885.02 -795.204 -1823.74L-639.549 -1654.55C-639.502 -1654.5 -639.539 -1654.42 -639.609 -1654.42V-1654.42C-639.679 -1654.42 -639.716 -1654.33 -639.668 -1654.28L-521.809 -1526.21C-486.129 -1487.37 -428.195 -1487.37 -392.514 -1526.21L-274.256 -1654.71C-274.197 -1654.77 -274.113 -1654.81 -274.025 -1654.81V-1654.81C-273.937 -1654.81 -273.853 -1654.85 -273.793 -1654.91L-118.476 -1823.74C-62.1047 -1885.02 29.3028 -1885.02 85.6738 -1823.74L241.453 -1654.42L247.43 -1648.58L404.956 -1481.14C461.971 -1420.55 461.971 -1322.3 404.956 -1261.71L247.546 -1094.39C247.48 -1094.32 247.371 -1094.31 247.292 -1094.36V-1094.36Z" stroke="url(#paint10_linear)" stroke-width="1.75" stroke-miterlimit="10" stroke-linecap="round"/>
<path d="M240.622 -1092.49C240.572 -1092.54 240.488 -1092.54 240.438 -1092.49L121.995 -966.558C86.2224 -928.503 86.2224 -866.923 121.995 -828.868L240.395 -703.183C240.443 -703.131 240.53 -703.165 240.53 -703.236V-703.236C240.53 -703.308 240.617 -703.342 240.666 -703.29L396.585 -537.573C453.048 -477.575 453.048 -380.213 396.585 -320.215L240.53 -154.354L233.909 -147.435L79.6014 20.304C23.7821 80.9945 -66.7978 80.9945 -122.617 20.304L-276.892 -147.201C-276.94 -147.252 -276.903 -147.336 -276.833 -147.336V-147.336C-276.762 -147.336 -276.726 -147.42 -276.773 -147.471L-393.529 -274.351C-428.933 -312.801 -486.224 -312.801 -521.628 -274.351L-638.691 -147.042C-638.751 -146.977 -638.834 -146.941 -638.922 -146.941V-146.941C-639.01 -146.941 -639.094 -146.904 -639.154 -146.839L-792.908 20.4029C-848.727 81.0933 -939.307 81.0933 -995.127 20.4028L-1149.43 -147.336L-1155.32 -153.168L-1311.37 -319.029C-1367.84 -379.027 -1367.84 -476.389 -1311.37 -536.387L-1155.23 -702.05L-1036.69 -828.077C-1000.92 -866.132 -1000.92 -927.712 -1036.69 -965.767L-1155 -1091.55C-1155.05 -1091.6 -1155.14 -1091.57 -1155.14 -1091.5V-1091.5C-1155.14 -1091.43 -1155.22 -1091.39 -1155.27 -1091.44L-1311.19 -1257.16C-1367.65 -1317.16 -1367.65 -1414.52 -1311.19 -1474.52L-1155.14 -1640.38L-1148.51 -1647.3L-994.299 -1815.04C-938.48 -1875.73 -847.9 -1875.73 -792.08 -1815.04L-637.897 -1647.43C-637.85 -1647.38 -637.886 -1647.3 -637.957 -1647.3V-1647.3C-638.027 -1647.3 -638.064 -1647.22 -638.016 -1647.16L-521.26 -1520.28C-485.856 -1481.83 -428.566 -1481.83 -393.161 -1520.28L-276.007 -1647.59C-275.947 -1647.66 -275.863 -1647.69 -275.775 -1647.69V-1647.69C-275.687 -1647.69 -275.603 -1647.73 -275.544 -1647.8L-121.697 -1815.04C-65.8782 -1875.73 24.7017 -1875.73 80.521 -1815.04L234.829 -1647.3L240.714 -1641.47L396.769 -1475.61C453.232 -1415.61 453.232 -1318.25 396.769 -1258.25L240.806 -1092.49C240.756 -1092.43 240.672 -1092.43 240.622 -1092.49V-1092.49Z" stroke="url(#paint11_linear)" stroke-width="1.75" stroke-miterlimit="10" stroke-linecap="round"/>
<path d="M240.622 -1092.49C240.572 -1092.54 240.488 -1092.54 240.438 -1092.49L121.995 -966.558C86.2224 -928.503 86.2224 -866.923 121.995 -828.868L240.395 -703.183C240.443 -703.131 240.53 -703.165 240.53 -703.236V-703.236C240.53 -703.308 240.617 -703.342 240.666 -703.29L396.585 -537.573C453.048 -477.575 453.048 -380.213 396.585 -320.215L240.53 -154.354L233.909 -147.435L79.6014 20.304C23.7821 80.9945 -66.7978 80.9945 -122.617 20.304L-276.892 -147.201C-276.94 -147.252 -276.903 -147.336 -276.833 -147.336V-147.336C-276.762 -147.336 -276.726 -147.42 -276.773 -147.471L-393.529 -274.351C-428.933 -312.801 -486.224 -312.801 -521.628 -274.351L-638.691 -147.042C-638.751 -146.977 -638.834 -146.941 -638.922 -146.941V-146.941C-639.01 -146.941 -639.094 -146.904 -639.154 -146.839L-792.908 20.4029C-848.727 81.0933 -939.307 81.0933 -995.127 20.4028L-1149.43 -147.336L-1155.32 -153.168L-1311.37 -319.029C-1367.84 -379.027 -1367.84 -476.389 -1311.37 -536.387L-1155.23 -702.05L-1036.69 -828.077C-1000.92 -866.132 -1000.92 -927.712 -1036.69 -965.767L-1155 -1091.55C-1155.05 -1091.6 -1155.14 -1091.57 -1155.14 -1091.5V-1091.5C-1155.14 -1091.43 -1155.22 -1091.39 -1155.27 -1091.44L-1311.19 -1257.16C-1367.65 -1317.16 -1367.65 -1414.52 -1311.19 -1474.52L-1155.14 -1640.38L-1148.51 -1647.3L-994.299 -1815.04C-938.48 -1875.73 -847.9 -1875.73 -792.08 -1815.04L-637.897 -1647.43C-637.85 -1647.38 -637.886 -1647.3 -637.957 -1647.3V-1647.3C-638.027 -1647.3 -638.064 -1647.22 -638.016 -1647.16L-521.26 -1520.28C-485.856 -1481.83 -428.566 -1481.83 -393.161 -1520.28L-276.007 -1647.59C-275.947 -1647.66 -275.863 -1647.69 -275.775 -1647.69V-1647.69C-275.687 -1647.69 -275.603 -1647.73 -275.544 -1647.8L-121.697 -1815.04C-65.8782 -1875.73 24.7017 -1875.73 80.521 -1815.04L234.829 -1647.3L240.714 -1641.47L396.769 -1475.61C453.232 -1415.61 453.232 -1318.25 396.769 -1258.25L240.806 -1092.49C240.756 -1092.43 240.672 -1092.43 240.622 -1092.49V-1092.49Z" stroke="url(#paint12_linear)" stroke-width="1.75" stroke-miterlimit="10" stroke-linecap="round"/>
<path d="M234.046 -1090.66C234.025 -1090.72 233.941 -1090.74 233.893 -1090.69L116.568 -965.965C81.1636 -928.306 81.1636 -867.22 116.568 -829.56L233.772 -704.963C233.821 -704.911 233.908 -704.945 233.908 -705.016V-705.016C233.908 -705.087 233.995 -705.122 234.043 -705.07L388.491 -540.935C444.403 -481.43 444.403 -385.057 388.491 -325.553L233.908 -161.274L227.287 -154.355L74.4505 11.8028C19.091 71.9001 -70.5691 71.9001 -125.929 11.8028L-278.64 -154.219C-278.688 -154.271 -278.651 -154.355 -278.581 -154.355V-154.355C-278.511 -154.355 -278.474 -154.438 -278.522 -154.49L-394.174 -280.183C-429.21 -318.238 -486.041 -318.238 -521.078 -280.183L-636.945 -154.061C-637.004 -153.996 -637.088 -153.959 -637.176 -153.959V-153.959C-637.264 -153.959 -637.348 -153.922 -637.407 -153.858L-789.783 11.8027C-845.142 71.9001 -934.802 71.9001 -990.162 11.8027L-1143 -154.355L-1148.88 -160.088L-1303.47 -324.367C-1359.38 -383.871 -1359.38 -480.244 -1303.47 -539.749L-1148.79 -703.83L-1031.36 -828.671C-995.955 -866.33 -995.955 -927.416 -1031.36 -965.076L-1148.56 -1089.67C-1148.61 -1089.73 -1148.7 -1089.69 -1148.7 -1089.62V-1089.62C-1148.7 -1089.55 -1148.79 -1089.51 -1148.83 -1089.57L-1303.28 -1253.7C-1359.19 -1313.21 -1359.19 -1409.58 -1303.28 -1469.08L-1148.7 -1633.36L-1142.08 -1640.28L-989.242 -1806.44C-933.883 -1866.54 -844.222 -1866.54 -788.863 -1806.44L-636.151 -1640.42C-636.104 -1640.37 -636.14 -1640.28 -636.211 -1640.28V-1640.28C-636.281 -1640.28 -636.318 -1640.2 -636.27 -1640.15L-520.71 -1514.45C-485.673 -1476.4 -428.842 -1476.4 -393.806 -1514.45L-277.755 -1640.58C-277.695 -1640.64 -277.611 -1640.68 -277.523 -1640.68V-1640.68C-277.436 -1640.68 -277.352 -1640.71 -277.292 -1640.78L-124.917 -1806.44C-69.5576 -1866.54 20.1027 -1866.54 75.4622 -1806.44L228.298 -1640.28L234.184 -1634.55L388.767 -1470.27C444.679 -1410.76 444.679 -1314.39 388.767 -1254.89L234.198 -1090.62C234.151 -1090.57 234.066 -1090.59 234.046 -1090.66V-1090.66Z" stroke="url(#paint13_linear)" stroke-width="1.75" stroke-miterlimit="10" stroke-linecap="round"/>
<path d="M234.046 -1090.66C234.025 -1090.72 233.941 -1090.74 233.893 -1090.69L116.568 -965.965C81.1636 -928.306 81.1636 -867.22 116.568 -829.56L233.772 -704.963C233.821 -704.911 233.908 -704.945 233.908 -705.016V-705.016C233.908 -705.087 233.995 -705.122 234.043 -705.07L388.491 -540.935C444.403 -481.43 444.403 -385.057 388.491 -325.553L233.908 -161.274L227.287 -154.355L74.4505 11.8028C19.091 71.9001 -70.5691 71.9001 -125.929 11.8028L-278.64 -154.219C-278.688 -154.271 -278.651 -154.355 -278.581 -154.355V-154.355C-278.511 -154.355 -278.474 -154.438 -278.522 -154.49L-394.174 -280.183C-429.21 -318.238 -486.041 -318.238 -521.078 -280.183L-636.945 -154.061C-637.004 -153.996 -637.088 -153.959 -637.176 -153.959V-153.959C-637.264 -153.959 -637.348 -153.922 -637.407 -153.858L-789.783 11.8027C-845.142 71.9001 -934.802 71.9001 -990.162 11.8027L-1143 -154.355L-1148.88 -160.088L-1303.47 -324.367C-1359.38 -383.871 -1359.38 -480.244 -1303.47 -539.749L-1148.79 -703.83L-1031.36 -828.671C-995.955 -866.33 -995.955 -927.416 -1031.36 -965.076L-1148.56 -1089.67C-1148.61 -1089.73 -1148.7 -1089.69 -1148.7 -1089.62V-1089.62C-1148.7 -1089.55 -1148.79 -1089.51 -1148.83 -1089.57L-1303.28 -1253.7C-1359.19 -1313.21 -1359.19 -1409.58 -1303.28 -1469.08L-1148.7 -1633.36L-1142.08 -1640.28L-989.242 -1806.44C-933.883 -1866.54 -844.222 -1866.54 -788.863 -1806.44L-636.151 -1640.42C-636.104 -1640.37 -636.14 -1640.28 -636.211 -1640.28V-1640.28C-636.281 -1640.28 -636.318 -1640.2 -636.27 -1640.15L-520.71 -1514.45C-485.673 -1476.4 -428.842 -1476.4 -393.806 -1514.45L-277.755 -1640.58C-277.695 -1640.64 -277.611 -1640.68 -277.523 -1640.68V-1640.68C-277.436 -1640.68 -277.352 -1640.71 -277.292 -1640.78L-124.917 -1806.44C-69.5576 -1866.54 20.1027 -1866.54 75.4622 -1806.44L228.298 -1640.28L234.184 -1634.55L388.767 -1470.27C444.679 -1410.76 444.679 -1314.39 388.767 -1254.89L234.198 -1090.62C234.151 -1090.57 234.066 -1090.59 234.046 -1090.66V-1090.66Z" stroke="url(#paint14_linear)" stroke-width="1.75" stroke-miterlimit="10" stroke-linecap="round"/>
<path d="M227.427 -1088.83C227.405 -1088.88 227.342 -1088.89 227.306 -1088.85L111.052 -965.273C75.9238 -928.008 75.9238 -867.516 111.052 -830.152L227.153 -706.741C227.202 -706.689 227.289 -706.724 227.289 -706.795V-706.795C227.289 -706.866 227.376 -706.9 227.424 -706.848L380.401 -544.295C435.852 -485.383 435.852 -389.9 380.401 -330.989L227.381 -168.291L220.852 -161.471L69.4867 3.10509C14.679 62.7082 -74.1537 62.7082 -128.961 3.10508L-280.202 -161.335C-280.249 -161.387 -280.213 -161.471 -280.142 -161.471V-161.471C-280.072 -161.471 -280.036 -161.554 -280.083 -161.606L-394.724 -286.015C-429.392 -323.773 -485.671 -323.773 -520.432 -286.015L-635.319 -161.143C-635.358 -161.1 -635.414 -161.075 -635.473 -161.075V-161.075C-635.532 -161.075 -635.587 -161.051 -635.627 -161.008L-786.654 3.10506C-841.462 62.7082 -930.294 62.7082 -985.102 3.10505L-1136.47 -161.471L-1142.26 -167.204L-1295.37 -329.901C-1350.82 -388.813 -1350.82 -484.296 -1295.37 -543.207L-1142.17 -705.708L-1025.84 -829.362C-990.711 -866.626 -990.711 -927.119 -1025.84 -964.482L-1141.97 -1087.93C-1142.01 -1087.97 -1142.08 -1087.94 -1142.08 -1087.89V-1087.89C-1142.08 -1087.84 -1142.14 -1087.81 -1142.18 -1087.85L-1295.19 -1250.44C-1350.64 -1309.35 -1350.64 -1404.83 -1295.19 -1463.74L-1142.08 -1626.44L-1135.55 -1633.26L-984.182 -1797.74C-929.375 -1857.34 -840.542 -1857.34 -785.734 -1797.74L-634.494 -1633.3C-634.446 -1633.25 -634.483 -1633.16 -634.553 -1633.16V-1633.16C-634.624 -1633.16 -634.66 -1633.08 -634.613 -1633.03L-520.064 -1508.52C-485.395 -1470.76 -429.116 -1470.76 -394.356 -1508.52L-279.377 -1633.49C-279.337 -1633.53 -279.281 -1633.56 -279.223 -1633.56V-1633.56C-279.164 -1633.56 -279.108 -1633.58 -279.069 -1633.63L-128.134 -1797.74C-73.326 -1857.34 15.5065 -1857.34 70.3142 -1797.74L221.679 -1633.16L227.473 -1627.43L380.585 -1464.73C436.036 -1405.82 436.036 -1310.34 380.585 -1251.43L227.547 -1088.81C227.512 -1088.77 227.449 -1088.78 227.427 -1088.83V-1088.83Z" stroke="url(#paint15_linear)" stroke-width="1.75" stroke-miterlimit="10" stroke-linecap="round"/>
<path d="M227.427 -1088.83C227.405 -1088.88 227.342 -1088.89 227.306 -1088.85L111.052 -965.273C75.9238 -928.008 75.9238 -867.516 111.052 -830.152L227.153 -706.741C227.202 -706.689 227.289 -706.724 227.289 -706.795V-706.795C227.289 -706.866 227.376 -706.9 227.424 -706.848L380.401 -544.295C435.852 -485.383 435.852 -389.9 380.401 -330.989L227.381 -168.291L220.852 -161.471L69.4867 3.10509C14.679 62.7082 -74.1537 62.7082 -128.961 3.10508L-280.202 -161.335C-280.249 -161.387 -280.213 -161.471 -280.142 -161.471V-161.471C-280.072 -161.471 -280.036 -161.554 -280.083 -161.606L-394.724 -286.015C-429.392 -323.773 -485.671 -323.773 -520.432 -286.015L-635.319 -161.143C-635.358 -161.1 -635.414 -161.075 -635.473 -161.075V-161.075C-635.532 -161.075 -635.587 -161.051 -635.627 -161.008L-786.654 3.10506C-841.462 62.7082 -930.294 62.7082 -985.102 3.10505L-1136.47 -161.471L-1142.26 -167.204L-1295.37 -329.901C-1350.82 -388.813 -1350.82 -484.296 -1295.37 -543.207L-1142.17 -705.708L-1025.84 -829.362C-990.711 -866.626 -990.711 -927.119 -1025.84 -964.482L-1141.97 -1087.93C-1142.01 -1087.97 -1142.08 -1087.94 -1142.08 -1087.89V-1087.89C-1142.08 -1087.84 -1142.14 -1087.81 -1142.18 -1087.85L-1295.19 -1250.44C-1350.64 -1309.35 -1350.64 -1404.83 -1295.19 -1463.74L-1142.08 -1626.44L-1135.55 -1633.26L-984.182 -1797.74C-929.375 -1857.34 -840.542 -1857.34 -785.734 -1797.74L-634.494 -1633.3C-634.446 -1633.25 -634.483 -1633.16 -634.553 -1633.16V-1633.16C-634.624 -1633.16 -634.66 -1633.08 -634.613 -1633.03L-520.064 -1508.52C-485.395 -1470.76 -429.116 -1470.76 -394.356 -1508.52L-279.377 -1633.49C-279.337 -1633.53 -279.281 -1633.56 -279.223 -1633.56V-1633.56C-279.164 -1633.56 -279.108 -1633.58 -279.069 -1633.63L-128.134 -1797.74C-73.326 -1857.34 15.5065 -1857.34 70.3142 -1797.74L221.679 -1633.16L227.473 -1627.43L380.585 -1464.73C436.036 -1405.82 436.036 -1310.34 380.585 -1251.43L227.547 -1088.81C227.512 -1088.77 227.449 -1088.78 227.427 -1088.83V-1088.83Z" stroke="url(#paint16_linear)" stroke-width="1.75" stroke-miterlimit="10" stroke-linecap="round"/>
<path d="M-nan -nanL220.853 -1087.05L105.628 -964.581C70.8672 -927.613 70.8672 -867.714 105.628 -830.746L220.659 -708.485C220.696 -708.446 220.761 -708.472 220.761 -708.525V-708.525C220.761 -708.578 220.826 -708.604 220.862 -708.565L372.402 -547.557C427.301 -489.239 427.301 -394.645 372.402 -336.327L220.761 -175.21L214.324 -168.489L64.4302 -5.49456C10.1742 53.5155 -77.8309 53.5155 -132.087 -5.49457L-281.856 -168.354C-281.904 -168.405 -281.867 -168.489 -281.797 -168.489V-168.489C-281.726 -168.489 -281.69 -168.573 -281.737 -168.624L-395.182 -291.945C-429.575 -329.309 -485.302 -329.309 -519.695 -291.945L-633.57 -168.161C-633.61 -168.118 -633.666 -168.094 -633.725 -168.094V-168.094C-633.783 -168.094 -633.839 -168.069 -633.879 -168.026L-783.434 -5.49459C-837.69 53.5155 -925.695 53.5155 -979.951 -5.4946L-1129.84 -168.489L-1135.55 -174.123L-1287.19 -335.239C-1342.09 -393.557 -1342.09 -488.151 -1287.19 -546.47L-1135.45 -707.388L-1020.23 -829.856C-985.469 -866.824 -985.469 -926.724 -1020.23 -963.692L-1135.26 -1085.95C-1135.3 -1085.99 -1135.36 -1085.97 -1135.36 -1085.91V-1085.91C-1135.36 -1085.86 -1135.43 -1085.83 -1135.46 -1085.87L-1287 -1246.88C-1341.9 -1305.2 -1341.9 -1399.79 -1287 -1458.11L-1135.36 -1619.23L-1128.93 -1625.95L-979.032 -1788.94C-924.776 -1847.95 -836.771 -1847.95 -782.515 -1788.94L-632.745 -1626.08C-632.698 -1626.03 -632.735 -1625.95 -632.805 -1625.95V-1625.95C-632.875 -1625.95 -632.912 -1625.86 -632.864 -1625.81L-519.511 -1502.69C-485.118 -1465.33 -429.391 -1465.33 -394.998 -1502.69L-281.123 -1626.47C-281.083 -1626.52 -281.027 -1626.54 -280.969 -1626.54V-1626.54C-280.91 -1626.54 -280.854 -1626.57 -280.815 -1626.61L-131.259 -1789.14C-77.0032 -1848.15 11.0017 -1848.15 65.2577 -1789.14L215.151 -1626.15L220.853 -1620.51L372.494 -1459.4C427.393 -1401.08 427.393 -1306.48 372.494 -1248.17L220.853 -1087.05L-nan -nanL-nan -nanZ" stroke="url(#paint17_linear)" stroke-width="1.75" stroke-miterlimit="10" stroke-linecap="round"/>
<path d="M-nan -nanL220.853 -1087.05L105.628 -964.581C70.8672 -927.613 70.8672 -867.714 105.628 -830.746L220.659 -708.485C220.696 -708.446 220.761 -708.472 220.761 -708.525V-708.525C220.761 -708.578 220.826 -708.604 220.862 -708.565L372.402 -547.557C427.301 -489.239 427.301 -394.645 372.402 -336.327L220.761 -175.21L214.324 -168.489L64.4302 -5.49456C10.1742 53.5155 -77.8309 53.5155 -132.087 -5.49457L-281.856 -168.354C-281.904 -168.405 -281.867 -168.489 -281.797 -168.489V-168.489C-281.726 -168.489 -281.69 -168.573 -281.737 -168.624L-395.182 -291.945C-429.575 -329.309 -485.302 -329.309 -519.695 -291.945L-633.57 -168.161C-633.61 -168.118 -633.666 -168.094 -633.725 -168.094V-168.094C-633.783 -168.094 -633.839 -168.069 -633.879 -168.026L-783.434 -5.49459C-837.69 53.5155 -925.695 53.5155 -979.951 -5.4946L-1129.84 -168.489L-1135.55 -174.123L-1287.19 -335.239C-1342.09 -393.557 -1342.09 -488.151 -1287.19 -546.47L-1135.45 -707.388L-1020.23 -829.856C-985.469 -866.824 -985.469 -926.724 -1020.23 -963.692L-1135.26 -1085.95C-1135.3 -1085.99 -1135.36 -1085.97 -1135.36 -1085.91V-1085.91C-1135.36 -1085.86 -1135.43 -1085.83 -1135.46 -1085.87L-1287 -1246.88C-1341.9 -1305.2 -1341.9 -1399.79 -1287 -1458.11L-1135.36 -1619.23L-1128.93 -1625.95L-979.032 -1788.94C-924.776 -1847.95 -836.771 -1847.95 -782.515 -1788.94L-632.745 -1626.08C-632.698 -1626.03 -632.735 -1625.95 -632.805 -1625.95V-1625.95C-632.875 -1625.95 -632.912 -1625.86 -632.864 -1625.81L-519.511 -1502.69C-485.118 -1465.33 -429.391 -1465.33 -394.998 -1502.69L-281.123 -1626.47C-281.083 -1626.52 -281.027 -1626.54 -280.969 -1626.54V-1626.54C-280.91 -1626.54 -280.854 -1626.57 -280.815 -1626.61L-131.259 -1789.14C-77.0032 -1848.15 11.0017 -1848.15 65.2577 -1789.14L215.151 -1626.15L220.853 -1620.51L372.494 -1459.4C427.393 -1401.08 427.393 -1306.48 372.494 -1248.17L220.853 -1087.05L-nan -nanL-nan -nanZ" stroke="url(#paint18_linear)" stroke-width="1.75" stroke-miterlimit="10" stroke-linecap="round"/>
<path d="M214.318 -1085.07C214.274 -1085.17 214.149 -1085.19 214.077 -1085.11L100.197 -963.988C65.8042 -927.415 65.8042 -868.108 100.197 -831.536L214.125 -710.461C214.161 -710.422 214.226 -710.448 214.226 -710.501V-710.501C214.226 -710.554 214.292 -710.58 214.328 -710.541L364.396 -551.016C418.744 -493.192 418.744 -399.586 364.396 -341.762L214.226 -182.129L207.789 -175.407L59.2751 -13.9946C5.47894 44.4224 -81.6064 44.4224 -135.403 -13.9946L-283.792 -175.272C-283.84 -175.324 -283.803 -175.407 -283.733 -175.407V-175.407C-283.662 -175.407 -283.626 -175.491 -283.673 -175.543L-395.923 -297.777C-429.948 -334.745 -485.124 -334.745 -519.149 -297.777L-631.92 -175.277C-631.96 -175.234 -632.016 -175.21 -632.075 -175.21V-175.21C-632.133 -175.21 -632.189 -175.185 -632.229 -175.142L-780.313 -14.1923C-834.109 44.2247 -921.194 44.2247 -974.991 -14.1923L-1123.5 -175.605L-1129.21 -181.239L-1279.38 -340.873C-1333.72 -398.697 -1333.72 -492.302 -1279.38 -550.126L-1129.11 -709.562L-1015.08 -830.844C-980.692 -867.417 -980.692 -926.723 -1015.08 -963.296L-1129.01 -1084.37C-1129.05 -1084.41 -1129.11 -1084.38 -1129.11 -1084.33V-1084.33C-1129.11 -1084.28 -1129.18 -1084.25 -1129.22 -1084.29L-1279.28 -1243.82C-1333.63 -1301.64 -1333.63 -1395.25 -1279.28 -1453.07L-1129.02 -1612.41L-1122.59 -1619.13L-974.071 -1780.44C-920.275 -1838.86 -833.189 -1838.86 -779.393 -1780.44L-631.004 -1619.16C-630.956 -1619.11 -630.993 -1619.03 -631.063 -1619.03V-1619.03C-631.133 -1619.03 -631.17 -1618.95 -631.122 -1618.89L-518.873 -1496.86C-484.848 -1459.89 -429.672 -1459.89 -395.647 -1496.86L-282.876 -1619.36C-282.836 -1619.4 -282.78 -1619.42 -282.721 -1619.42V-1619.42C-282.663 -1619.42 -282.607 -1619.45 -282.567 -1619.49L-134.483 -1780.44C-80.6868 -1838.86 6.39854 -1838.86 60.1947 -1780.44L208.709 -1619.03L214.41 -1613.39L364.58 -1453.76C418.928 -1395.94 418.928 -1302.33 364.58 -1244.51L214.56 -1085.03C214.488 -1084.96 214.363 -1084.98 214.318 -1085.07V-1085.07Z" stroke="url(#paint19_linear)" stroke-width="1.75" stroke-miterlimit="10" stroke-linecap="round"/>
<path d="M214.318 -1085.07C214.274 -1085.17 214.149 -1085.19 214.077 -1085.11L100.197 -963.988C65.8042 -927.415 65.8042 -868.108 100.197 -831.536L214.125 -710.461C214.161 -710.422 214.226 -710.448 214.226 -710.501V-710.501C214.226 -710.554 214.292 -710.58 214.328 -710.541L364.396 -551.016C418.744 -493.192 418.744 -399.586 364.396 -341.762L214.226 -182.129L207.789 -175.407L59.2751 -13.9946C5.47894 44.4224 -81.6064 44.4224 -135.403 -13.9946L-283.792 -175.272C-283.84 -175.324 -283.803 -175.407 -283.733 -175.407V-175.407C-283.662 -175.407 -283.626 -175.491 -283.673 -175.543L-395.923 -297.777C-429.948 -334.745 -485.124 -334.745 -519.149 -297.777L-631.92 -175.277C-631.96 -175.234 -632.016 -175.21 -632.075 -175.21V-175.21C-632.133 -175.21 -632.189 -175.185 -632.229 -175.142L-780.313 -14.1923C-834.109 44.2247 -921.194 44.2247 -974.991 -14.1923L-1123.5 -175.605L-1129.21 -181.239L-1279.38 -340.873C-1333.72 -398.697 -1333.72 -492.302 -1279.38 -550.126L-1129.11 -709.562L-1015.08 -830.844C-980.692 -867.417 -980.692 -926.723 -1015.08 -963.296L-1129.01 -1084.37C-1129.05 -1084.41 -1129.11 -1084.38 -1129.11 -1084.33V-1084.33C-1129.11 -1084.28 -1129.18 -1084.25 -1129.22 -1084.29L-1279.28 -1243.82C-1333.63 -1301.64 -1333.63 -1395.25 -1279.28 -1453.07L-1129.02 -1612.41L-1122.59 -1619.13L-974.071 -1780.44C-920.275 -1838.86 -833.189 -1838.86 -779.393 -1780.44L-631.004 -1619.16C-630.956 -1619.11 -630.993 -1619.03 -631.063 -1619.03V-1619.03C-631.133 -1619.03 -631.17 -1618.95 -631.122 -1618.89L-518.873 -1496.86C-484.848 -1459.89 -429.672 -1459.89 -395.647 -1496.86L-282.876 -1619.36C-282.836 -1619.4 -282.78 -1619.42 -282.721 -1619.42V-1619.42C-282.663 -1619.42 -282.607 -1619.45 -282.567 -1619.49L-134.483 -1780.44C-80.6868 -1838.86 6.39854 -1838.86 60.1947 -1780.44L208.709 -1619.03L214.41 -1613.39L364.58 -1453.76C418.928 -1395.94 418.928 -1302.33 364.58 -1244.51L214.56 -1085.03C214.488 -1084.96 214.363 -1084.98 214.318 -1085.07V-1085.07Z" stroke="url(#paint20_linear)" stroke-width="1.75" stroke-miterlimit="10" stroke-linecap="round"/>
<path d="M207.745 -1083.29C207.723 -1083.34 207.66 -1083.35 207.625 -1083.31L94.7735 -963.297C60.6566 -927.021 60.6566 -868.307 94.7735 -832.13L207.506 -712.241C207.542 -712.203 207.607 -712.229 207.607 -712.282V-712.282C207.607 -712.335 207.673 -712.361 207.709 -712.322L356.305 -554.378C410.102 -497.147 410.102 -404.431 356.305 -347.2L207.607 -189.247L201.262 -182.624L54.2193 -22.7931C0.97492 35.0309 -85.2828 35.0309 -138.527 -22.7931L-285.446 -182.489C-285.493 -182.541 -285.457 -182.624 -285.386 -182.624V-182.624C-285.316 -182.624 -285.279 -182.708 -285.327 -182.76L-396.565 -303.61C-430.314 -340.281 -484.938 -340.281 -518.595 -303.61L-630.171 -182.297C-630.211 -182.254 -630.267 -182.229 -630.325 -182.229V-182.229C-630.384 -182.229 -630.44 -182.204 -630.479 -182.161L-777.184 -22.7931C-830.429 35.0308 -916.686 35.0308 -969.931 -22.7931L-1116.97 -182.624L-1122.58 -188.16L-1271.28 -346.212C-1325.08 -403.443 -1325.08 -496.159 -1271.28 -553.389L-1122.49 -711.244L-1009.57 -831.34C-975.448 -867.616 -975.448 -926.329 -1009.57 -962.506L-1122.39 -1082.4C-1122.43 -1082.43 -1122.49 -1082.41 -1122.49 -1082.35V-1082.35C-1122.49 -1082.3 -1122.56 -1082.28 -1122.59 -1082.31L-1271.1 -1240.16C-1324.89 -1297.39 -1324.89 -1390.11 -1271.1 -1447.34L-1122.4 -1605.39L-1116.05 -1612.01L-969.011 -1771.84C-915.767 -1829.67 -829.509 -1829.67 -776.265 -1771.84L-629.346 -1612.15C-629.299 -1612.1 -629.335 -1612.01 -629.406 -1612.01V-1612.01C-629.476 -1612.01 -629.513 -1611.93 -629.465 -1611.88L-518.227 -1491.03C-484.478 -1454.36 -429.854 -1454.36 -396.197 -1491.03L-284.529 -1612.34C-284.489 -1612.38 -284.433 -1612.41 -284.375 -1612.41V-1612.41C-284.316 -1612.41 -284.26 -1612.43 -284.22 -1612.48L-137.608 -1771.84C-84.3632 -1829.67 1.89452 -1829.67 55.1389 -1771.84L202.182 -1612.01L207.791 -1606.48L356.489 -1448.42C410.286 -1391.19 410.286 -1298.48 356.489 -1241.25L207.866 -1083.27C207.83 -1083.24 207.767 -1083.25 207.745 -1083.29V-1083.29Z" stroke="url(#paint21_linear)" stroke-width="1.75" stroke-miterlimit="10" stroke-linecap="round"/>
<path d="M207.745 -1083.29C207.723 -1083.34 207.66 -1083.35 207.625 -1083.31L94.7735 -963.297C60.6566 -927.021 60.6566 -868.307 94.7735 -832.13L207.506 -712.241C207.542 -712.203 207.607 -712.229 207.607 -712.282V-712.282C207.607 -712.335 207.673 -712.361 207.709 -712.322L356.305 -554.378C410.102 -497.147 410.102 -404.431 356.305 -347.2L207.607 -189.247L201.262 -182.624L54.2193 -22.7931C0.97492 35.0309 -85.2828 35.0309 -138.527 -22.7931L-285.446 -182.489C-285.493 -182.541 -285.457 -182.624 -285.386 -182.624V-182.624C-285.316 -182.624 -285.279 -182.708 -285.327 -182.76L-396.565 -303.61C-430.314 -340.281 -484.938 -340.281 -518.595 -303.61L-630.171 -182.297C-630.211 -182.254 -630.267 -182.229 -630.325 -182.229V-182.229C-630.384 -182.229 -630.44 -182.204 -630.479 -182.161L-777.184 -22.7931C-830.429 35.0308 -916.686 35.0308 -969.931 -22.7931L-1116.97 -182.624L-1122.58 -188.16L-1271.28 -346.212C-1325.08 -403.443 -1325.08 -496.159 -1271.28 -553.389L-1122.49 -711.244L-1009.57 -831.34C-975.448 -867.616 -975.448 -926.329 -1009.57 -962.506L-1122.39 -1082.4C-1122.43 -1082.43 -1122.49 -1082.41 -1122.49 -1082.35V-1082.35C-1122.49 -1082.3 -1122.56 -1082.28 -1122.59 -1082.31L-1271.1 -1240.16C-1324.89 -1297.39 -1324.89 -1390.11 -1271.1 -1447.34L-1122.4 -1605.39L-1116.05 -1612.01L-969.011 -1771.84C-915.767 -1829.67 -829.509 -1829.67 -776.265 -1771.84L-629.346 -1612.15C-629.299 -1612.1 -629.335 -1612.01 -629.406 -1612.01V-1612.01C-629.476 -1612.01 -629.513 -1611.93 -629.465 -1611.88L-518.227 -1491.03C-484.478 -1454.36 -429.854 -1454.36 -396.197 -1491.03L-284.529 -1612.34C-284.489 -1612.38 -284.433 -1612.41 -284.375 -1612.41V-1612.41C-284.316 -1612.41 -284.26 -1612.43 -284.22 -1612.48L-137.608 -1771.84C-84.3632 -1829.67 1.89452 -1829.67 55.1389 -1771.84L202.182 -1612.01L207.791 -1606.48L356.489 -1448.42C410.286 -1391.19 410.286 -1298.48 356.489 -1241.25L207.866 -1083.27C207.83 -1083.24 207.767 -1083.25 207.745 -1083.29V-1083.29Z" stroke="url(#paint22_linear)" stroke-width="1.75" stroke-miterlimit="10" stroke-linecap="round"/>
<path d="M201.13 -1081.52C201.108 -1081.56 201.045 -1081.57 201.009 -1081.53L89.2617 -962.704C55.5126 -926.824 55.5126 -868.704 89.2617 -832.823L200.982 -714.12C201.019 -714.081 201.084 -714.107 201.084 -714.16V-714.16C201.084 -714.214 201.149 -714.239 201.186 -714.201L348.311 -557.838C401.555 -501.2 401.555 -409.374 348.311 -352.736L201.084 -196.265L194.831 -189.742L49.2594 -31.4919C-3.43329 25.7389 -88.8635 25.7389 -141.556 -31.4919L-287.003 -189.606C-287.051 -189.658 -287.014 -189.742 -286.944 -189.742V-189.742C-286.874 -189.742 -286.837 -189.825 -286.884 -189.877L-397.019 -309.541C-430.4 -345.817 -484.472 -345.817 -517.853 -309.541L-628.51 -189.414C-628.55 -189.371 -628.606 -189.346 -628.664 -189.346V-189.346C-628.723 -189.346 -628.779 -189.322 -628.819 -189.279L-773.96 -31.3931C-826.653 25.8378 -912.083 25.8378 -964.776 -31.3931L-1110.35 -189.643L-1115.96 -195.079L-1263.18 -351.55C-1316.43 -408.188 -1316.43 -500.014 -1263.18 -556.652L-1115.86 -712.925L-1004.04 -831.835C-970.293 -867.715 -970.293 -925.836 -1004.04 -961.716L-1115.76 -1080.52C-1115.8 -1080.56 -1115.86 -1080.53 -1115.86 -1080.48V-1080.48C-1115.86 -1080.42 -1115.93 -1080.4 -1115.97 -1080.44L-1263.09 -1236.8C-1316.34 -1293.44 -1316.34 -1385.26 -1263.09 -1441.9L-1115.86 -1598.37L-1109.61 -1604.9L-963.948 -1763.15C-911.255 -1820.38 -825.825 -1820.38 -773.132 -1763.15L-627.685 -1605.03C-627.638 -1604.98 -627.674 -1604.9 -627.745 -1604.9V-1604.9C-627.815 -1604.9 -627.852 -1604.81 -627.804 -1604.76L-517.67 -1485.1C-484.288 -1448.82 -430.216 -1448.82 -396.835 -1485.1L-286.27 -1605.22C-286.231 -1605.27 -286.175 -1605.29 -286.116 -1605.29V-1605.29C-286.058 -1605.29 -286.002 -1605.32 -285.962 -1605.36L-140.821 -1763.15C-88.1278 -1820.38 -2.69768 -1820.38 49.995 -1763.15L195.658 -1604.9L201.268 -1599.46L348.495 -1442.99C401.739 -1386.35 401.739 -1294.53 348.495 -1237.89L201.251 -1081.5C201.215 -1081.46 201.152 -1081.47 201.13 -1081.52V-1081.52Z" stroke="url(#paint23_linear)" stroke-width="1.75" stroke-miterlimit="10" stroke-linecap="round"/>
<path d="M201.13 -1081.52C201.108 -1081.56 201.045 -1081.57 201.009 -1081.53L89.2617 -962.704C55.5126 -926.824 55.5126 -868.704 89.2617 -832.823L200.982 -714.12C201.019 -714.081 201.084 -714.107 201.084 -714.16V-714.16C201.084 -714.214 201.149 -714.239 201.186 -714.201L348.311 -557.838C401.555 -501.2 401.555 -409.374 348.311 -352.736L201.084 -196.265L194.831 -189.742L49.2594 -31.4919C-3.43329 25.7389 -88.8635 25.7389 -141.556 -31.4919L-287.003 -189.606C-287.051 -189.658 -287.014 -189.742 -286.944 -189.742V-189.742C-286.874 -189.742 -286.837 -189.825 -286.884 -189.877L-397.019 -309.541C-430.4 -345.817 -484.472 -345.817 -517.853 -309.541L-628.51 -189.414C-628.55 -189.371 -628.606 -189.346 -628.664 -189.346V-189.346C-628.723 -189.346 -628.779 -189.322 -628.819 -189.279L-773.96 -31.3931C-826.653 25.8378 -912.083 25.8378 -964.776 -31.3931L-1110.35 -189.643L-1115.96 -195.079L-1263.18 -351.55C-1316.43 -408.188 -1316.43 -500.014 -1263.18 -556.652L-1115.86 -712.925L-1004.04 -831.835C-970.293 -867.715 -970.293 -925.836 -1004.04 -961.716L-1115.76 -1080.52C-1115.8 -1080.56 -1115.86 -1080.53 -1115.86 -1080.48V-1080.48C-1115.86 -1080.42 -1115.93 -1080.4 -1115.97 -1080.44L-1263.09 -1236.8C-1316.34 -1293.44 -1316.34 -1385.26 -1263.09 -1441.9L-1115.86 -1598.37L-1109.61 -1604.9L-963.948 -1763.15C-911.255 -1820.38 -825.825 -1820.38 -773.132 -1763.15L-627.685 -1605.03C-627.638 -1604.98 -627.674 -1604.9 -627.745 -1604.9V-1604.9C-627.815 -1604.9 -627.852 -1604.81 -627.804 -1604.76L-517.67 -1485.1C-484.288 -1448.82 -430.216 -1448.82 -396.835 -1485.1L-286.27 -1605.22C-286.231 -1605.27 -286.175 -1605.29 -286.116 -1605.29V-1605.29C-286.058 -1605.29 -286.002 -1605.32 -285.962 -1605.36L-140.821 -1763.15C-88.1278 -1820.38 -2.69768 -1820.38 49.995 -1763.15L195.658 -1604.9L201.268 -1599.46L348.495 -1442.99C401.739 -1386.35 401.739 -1294.53 348.495 -1237.89L201.251 -1081.5C201.215 -1081.46 201.152 -1081.47 201.13 -1081.52V-1081.52Z" stroke="url(#paint24_linear)" stroke-width="1.75" stroke-miterlimit="10" stroke-linecap="round"/>
<path d="M194.641 -1079.64C194.591 -1079.69 194.507 -1079.69 194.457 -1079.64L83.8301 -962.011C50.4489 -926.526 50.4489 -868.899 83.8301 -833.414L194.355 -715.898C194.392 -715.859 194.457 -715.885 194.457 -715.938V-715.938C194.457 -715.991 194.522 -716.017 194.559 -715.978L340.213 -561.197C392.997 -505.152 392.997 -414.215 340.213 -358.072L194.457 -203.183L188.204 -196.659L44.1037 -39.9908C-8.03725 16.7459 -92.6398 16.7458 -144.873 -39.9908L-288.848 -196.524C-288.896 -196.575 -288.859 -196.659 -288.789 -196.659V-196.659C-288.719 -196.659 -288.682 -196.743 -288.729 -196.794L-397.761 -315.272C-430.774 -351.153 -484.386 -351.153 -517.4 -315.272L-626.769 -196.43C-626.809 -196.387 -626.865 -196.363 -626.923 -196.363V-196.363C-626.982 -196.363 -627.038 -196.338 -627.077 -196.295L-770.839 -40.0897C-822.98 16.647 -907.583 16.647 -959.816 -40.0897L-1103.92 -196.758L-1109.43 -202.194L-1255.19 -357.083C-1307.97 -413.128 -1307.97 -504.065 -1255.19 -560.209L-1109.34 -714.9L-998.623 -832.525C-965.241 -868.01 -965.241 -925.636 -998.623 -961.121L-1109.24 -1078.64C-1109.28 -1078.68 -1109.34 -1078.65 -1109.34 -1078.6V-1078.6C-1109.34 -1078.54 -1109.41 -1078.52 -1109.44 -1078.56L-1255.1 -1233.34C-1307.88 -1289.38 -1307.88 -1380.32 -1255.1 -1436.46L-1109.25 -1591.35L-1103 -1597.88L-958.896 -1754.54C-906.755 -1811.28 -822.153 -1811.28 -769.92 -1754.54L-625.944 -1598.01C-625.896 -1597.96 -625.933 -1597.88 -626.003 -1597.88V-1597.88C-626.074 -1597.88 -626.11 -1597.79 -626.063 -1597.74L-517.032 -1479.26C-484.018 -1443.38 -430.406 -1443.38 -397.393 -1479.26L-287.932 -1598.2C-287.892 -1598.25 -287.836 -1598.27 -287.777 -1598.27V-1598.27C-287.719 -1598.27 -287.663 -1598.3 -287.623 -1598.34L-143.861 -1754.54C-91.7201 -1811.28 -7.11756 -1811.28 45.1153 -1754.54L189.215 -1597.88L194.733 -1592.44L340.488 -1437.55C393.273 -1381.51 393.273 -1290.57 340.488 -1234.43L194.825 -1079.63C194.775 -1079.58 194.691 -1079.58 194.641 -1079.64V-1079.64Z" stroke="url(#paint25_linear)" stroke-width="1.75" stroke-miterlimit="10" stroke-linecap="round"/>
<path d="M194.641 -1079.64C194.591 -1079.69 194.507 -1079.69 194.457 -1079.64L83.8301 -962.011C50.4489 -926.526 50.4489 -868.899 83.8301 -833.414L194.355 -715.898C194.392 -715.859 194.457 -715.885 194.457 -715.938V-715.938C194.457 -715.991 194.522 -716.017 194.559 -715.978L340.213 -561.197C392.997 -505.152 392.997 -414.215 340.213 -358.072L194.457 -203.183L188.204 -196.659L44.1037 -39.9908C-8.03725 16.7459 -92.6398 16.7458 -144.873 -39.9908L-288.848 -196.524C-288.896 -196.575 -288.859 -196.659 -288.789 -196.659V-196.659C-288.719 -196.659 -288.682 -196.743 -288.729 -196.794L-397.761 -315.272C-430.774 -351.153 -484.386 -351.153 -517.4 -315.272L-626.769 -196.43C-626.809 -196.387 -626.865 -196.363 -626.923 -196.363V-196.363C-626.982 -196.363 -627.038 -196.338 -627.077 -196.295L-770.839 -40.0897C-822.98 16.647 -907.583 16.647 -959.816 -40.0897L-1103.92 -196.758L-1109.43 -202.194L-1255.19 -357.083C-1307.97 -413.128 -1307.97 -504.065 -1255.19 -560.209L-1109.34 -714.9L-998.623 -832.525C-965.241 -868.01 -965.241 -925.636 -998.623 -961.121L-1109.24 -1078.64C-1109.28 -1078.68 -1109.34 -1078.65 -1109.34 -1078.6V-1078.6C-1109.34 -1078.54 -1109.41 -1078.52 -1109.44 -1078.56L-1255.1 -1233.34C-1307.88 -1289.38 -1307.88 -1380.32 -1255.1 -1436.46L-1109.25 -1591.35L-1103 -1597.88L-958.896 -1754.54C-906.755 -1811.28 -822.153 -1811.28 -769.92 -1754.54L-625.944 -1598.01C-625.896 -1597.96 -625.933 -1597.88 -626.003 -1597.88V-1597.88C-626.074 -1597.88 -626.11 -1597.79 -626.063 -1597.74L-517.032 -1479.26C-484.018 -1443.38 -430.406 -1443.38 -397.393 -1479.26L-287.932 -1598.2C-287.892 -1598.25 -287.836 -1598.27 -287.777 -1598.27V-1598.27C-287.719 -1598.27 -287.663 -1598.3 -287.623 -1598.34L-143.861 -1754.54C-91.7201 -1811.28 -7.11756 -1811.28 45.1153 -1754.54L189.215 -1597.88L194.733 -1592.44L340.488 -1437.55C393.273 -1381.51 393.273 -1290.57 340.488 -1234.43L194.825 -1079.63C194.775 -1079.58 194.691 -1079.58 194.641 -1079.64V-1079.64Z" stroke="url(#paint26_linear)" stroke-width="1.75" stroke-miterlimit="10" stroke-linecap="round"/>
<path d="M188.066 -1077.76C188.044 -1077.81 187.981 -1077.82 187.945 -1077.78L78.4048 -961.32C45.2994 -926.132 45.2994 -869.197 78.4048 -834.009L187.827 -717.678C187.863 -717.639 187.928 -717.665 187.928 -717.718V-717.718C187.928 -717.772 187.993 -717.797 188.03 -717.759L332.212 -564.559C384.445 -509.009 384.445 -419.06 332.212 -363.51L187.928 -210.202L181.767 -203.777L39.1382 -48.6904C-12.5429 7.45318 -96.2258 7.45318 -147.907 -48.6904L-290.411 -203.642C-290.459 -203.694 -290.422 -203.777 -290.352 -203.777V-203.777C-290.282 -203.777 -290.245 -203.861 -290.292 -203.913L-398.22 -321.204C-430.958 -356.788 -483.926 -356.788 -516.664 -321.204L-625.021 -203.548C-625.061 -203.505 -625.117 -203.481 -625.175 -203.481V-203.481C-625.234 -203.481 -625.29 -203.456 -625.33 -203.413L-767.712 -48.6904C-819.393 7.45315 -903.076 7.45315 -954.757 -48.6904L-1097.39 -203.777L-1102.81 -209.115L-1247.1 -362.422C-1299.33 -417.973 -1299.33 -507.921 -1247.1 -563.472L-1102.72 -716.582L-993.104 -833.119C-959.999 -868.308 -959.999 -925.242 -993.104 -960.431L-1102.53 -1076.76C-1102.56 -1076.8 -1102.63 -1076.77 -1102.63 -1076.72V-1076.72C-1102.63 -1076.67 -1102.69 -1076.64 -1102.73 -1076.68L-1246.91 -1229.88C-1299.14 -1285.43 -1299.14 -1375.38 -1246.91 -1430.93L-1102.63 -1584.24L-1096.47 -1590.66L-953.93 -1745.85C-902.249 -1801.99 -818.566 -1801.99 -766.885 -1745.85L-624.38 -1590.9C-624.333 -1590.84 -624.369 -1590.76 -624.44 -1590.76V-1590.76C-624.51 -1590.76 -624.547 -1590.68 -624.499 -1590.63L-516.572 -1473.33C-483.834 -1437.75 -430.866 -1437.75 -398.128 -1473.33L-289.77 -1591.09C-289.731 -1591.13 -289.675 -1591.16 -289.616 -1591.16V-1591.16C-289.558 -1591.16 -289.502 -1591.18 -289.462 -1591.22L-147.171 -1745.85C-95.4902 -1801.99 -11.8073 -1801.99 39.8738 -1745.85L182.503 -1590.76L187.928 -1585.42L332.212 -1432.12C384.445 -1376.57 384.445 -1286.62 332.212 -1231.07L188.187 -1077.74C188.151 -1077.7 188.088 -1077.71 188.066 -1077.76V-1077.76Z" stroke="url(#paint27_linear)" stroke-width="1.75" stroke-miterlimit="10" stroke-linecap="round"/>
<path d="M188.066 -1077.76C188.044 -1077.81 187.981 -1077.82 187.945 -1077.78L78.4048 -961.32C45.2994 -926.132 45.2994 -869.197 78.4048 -834.009L187.827 -717.678C187.863 -717.639 187.928 -717.665 187.928 -717.718V-717.718C187.928 -717.772 187.993 -717.797 188.03 -717.759L332.212 -564.559C384.445 -509.009 384.445 -419.06 332.212 -363.51L187.928 -210.202L181.767 -203.777L39.1382 -48.6904C-12.5429 7.45318 -96.2258 7.45318 -147.907 -48.6904L-290.411 -203.642C-290.459 -203.694 -290.422 -203.777 -290.352 -203.777V-203.777C-290.282 -203.777 -290.245 -203.861 -290.292 -203.913L-398.22 -321.204C-430.958 -356.788 -483.926 -356.788 -516.664 -321.204L-625.021 -203.548C-625.061 -203.505 -625.117 -203.481 -625.175 -203.481V-203.481C-625.234 -203.481 -625.29 -203.456 -625.33 -203.413L-767.712 -48.6904C-819.393 7.45315 -903.076 7.45315 -954.757 -48.6904L-1097.39 -203.777L-1102.81 -209.115L-1247.1 -362.422C-1299.33 -417.973 -1299.33 -507.921 -1247.1 -563.472L-1102.72 -716.582L-993.104 -833.119C-959.999 -868.308 -959.999 -925.242 -993.104 -960.431L-1102.53 -1076.76C-1102.56 -1076.8 -1102.63 -1076.77 -1102.63 -1076.72V-1076.72C-1102.63 -1076.67 -1102.69 -1076.64 -1102.73 -1076.68L-1246.91 -1229.88C-1299.14 -1285.43 -1299.14 -1375.38 -1246.91 -1430.93L-1102.63 -1584.24L-1096.47 -1590.66L-953.93 -1745.85C-902.249 -1801.99 -818.566 -1801.99 -766.885 -1745.85L-624.38 -1590.9C-624.333 -1590.84 -624.369 -1590.76 -624.44 -1590.76V-1590.76C-624.51 -1590.76 -624.547 -1590.68 -624.499 -1590.63L-516.572 -1473.33C-483.834 -1437.75 -430.866 -1437.75 -398.128 -1473.33L-289.77 -1591.09C-289.731 -1591.13 -289.675 -1591.16 -289.616 -1591.16V-1591.16C-289.558 -1591.16 -289.502 -1591.18 -289.462 -1591.22L-147.171 -1745.85C-95.4902 -1801.99 -11.8073 -1801.99 39.8738 -1745.85L182.503 -1590.76L187.928 -1585.42L332.212 -1432.12C384.445 -1376.57 384.445 -1286.62 332.212 -1231.07L188.187 -1077.74C188.151 -1077.7 188.088 -1077.71 188.066 -1077.76V-1077.76Z" stroke="url(#paint28_linear)" stroke-width="1.75" stroke-miterlimit="10" stroke-linecap="round"/>
</g>
<defs>
<linearGradient id="paint0_linear" x1="-0.533161" y1="56.5134" x2="165.536" y2="56.5134" gradientUnits="userSpaceOnUse">
<stop stop-color="#B480FF"/>
<stop offset="0.604167" stop-color="#5F00E6"/>
<stop offset="0.859375" stop-color="#1AA4FF" stop-opacity="0.49"/>
<stop offset="1" stop-color="#28B86A" stop-opacity="0.27"/>
</linearGradient>
<linearGradient id="paint1_linear" x1="-457.172" y1="117.783" x2="-457.172" y2="-1912.55" gradientUnits="userSpaceOnUse">
<stop stop-color="#9A52FF"/>
</linearGradient>
<linearGradient id="paint2_linear" x1="-457.172" y1="117.783" x2="-457.172" y2="-1912.55" gradientUnits="userSpaceOnUse">
<stop stop-color="#9A52FF"/>
</linearGradient>
<linearGradient id="paint3_linear" x1="-457.084" y1="108.679" x2="-457.084" y2="-1903.25" gradientUnits="userSpaceOnUse">
<stop stop-color="#9A52FF"/>
</linearGradient>
<linearGradient id="paint4_linear" x1="-457.084" y1="108.679" x2="-457.084" y2="-1903.25" gradientUnits="userSpaceOnUse">
<stop stop-color="#9A52FF"/>
</linearGradient>
<linearGradient id="paint5_linear" x1="-457.129" y1="99.5525" x2="-457.128" y2="-1894.12" gradientUnits="userSpaceOnUse">
<stop stop-color="#9A52FF"/>
</linearGradient>
<linearGradient id="paint6_linear" x1="-457.129" y1="99.5525" x2="-457.128" y2="-1894.12" gradientUnits="userSpaceOnUse">
<stop stop-color="#9A52FF"/>
</linearGradient>
<linearGradient id="paint7_linear" x1="-457.177" y1="90.4491" x2="-457.177" y2="-1885.12" gradientUnits="userSpaceOnUse">
<stop stop-color="#9A52FF"/>
</linearGradient>
<linearGradient id="paint8_linear" x1="-457.177" y1="90.4491" x2="-457.177" y2="-1885.12" gradientUnits="userSpaceOnUse">
<stop stop-color="#9A52FF"/>
</linearGradient>
<linearGradient id="paint9_linear" x1="-457.039" y1="81.3477" x2="-457.039" y2="-1876.01" gradientUnits="userSpaceOnUse">
<stop stop-color="#9A52FF"/>
</linearGradient>
<linearGradient id="paint10_linear" x1="-457.039" y1="81.3477" x2="-457.039" y2="-1876.01" gradientUnits="userSpaceOnUse">
<stop stop-color="#9A52FF"/>
</linearGradient>
<linearGradient id="paint11_linear" x1="-457.09" y1="72.1457" x2="-457.09" y2="-1866.81" gradientUnits="userSpaceOnUse">
<stop stop-color="#9A52FF"/>
</linearGradient>
<linearGradient id="paint12_linear" x1="-457.09" y1="72.1457" x2="-457.09" y2="-1866.81" gradientUnits="userSpaceOnUse">
<stop stop-color="#9A52FF"/>
</linearGradient>
<linearGradient id="paint13_linear" x1="-457.139" y1="63.0423" x2="-457.139" y2="-1857.71" gradientUnits="userSpaceOnUse">
<stop stop-color="#9A52FF"/>
</linearGradient>
<linearGradient id="paint14_linear" x1="-457.139" y1="63.0423" x2="-457.139" y2="-1857.71" gradientUnits="userSpaceOnUse">
<stop stop-color="#9A52FF"/>
</linearGradient>
<linearGradient id="paint15_linear" x1="-457.185" y1="53.9153" x2="-457.185" y2="-1848.58" gradientUnits="userSpaceOnUse">
<stop stop-color="#9A52FF"/>
</linearGradient>
<linearGradient id="paint16_linear" x1="-457.185" y1="53.9153" x2="-457.185" y2="-1848.58" gradientUnits="userSpaceOnUse">
<stop stop-color="#9A52FF"/>
</linearGradient>
<linearGradient id="paint17_linear" x1="-457.14" y1="44.8124" x2="-457.14" y2="-1839.48" gradientUnits="userSpaceOnUse">
<stop stop-color="#9A52FF"/>
</linearGradient>
<linearGradient id="paint18_linear" x1="-457.14" y1="44.8124" x2="-457.14" y2="-1839.48" gradientUnits="userSpaceOnUse">
<stop stop-color="#9A52FF"/>
</linearGradient>
<linearGradient id="paint19_linear" x1="-457.193" y1="35.8092" x2="-457.193" y2="-1830.27" gradientUnits="userSpaceOnUse">
<stop stop-color="#9A52FF"/>
</linearGradient>
<linearGradient id="paint20_linear" x1="-457.193" y1="35.8092" x2="-457.193" y2="-1830.27" gradientUnits="userSpaceOnUse">
<stop stop-color="#9A52FF"/>
</linearGradient>
<linearGradient id="paint21_linear" x1="-457.193" y1="26.5068" x2="-457.193" y2="-1821.17" gradientUnits="userSpaceOnUse">
<stop stop-color="#9A52FF"/>
</linearGradient>
<linearGradient id="paint22_linear" x1="-457.193" y1="26.5068" x2="-457.193" y2="-1821.17" gradientUnits="userSpaceOnUse">
<stop stop-color="#9A52FF"/>
</linearGradient>
<linearGradient id="paint23_linear" x1="-457.144" y1="17.4032" x2="-457.144" y2="-1811.97" gradientUnits="userSpaceOnUse">
<stop stop-color="#9A52FF"/>
</linearGradient>
<linearGradient id="paint24_linear" x1="-457.144" y1="17.4032" x2="-457.144" y2="-1811.97" gradientUnits="userSpaceOnUse">
<stop stop-color="#9A52FF"/>
</linearGradient>
<linearGradient id="paint25_linear" x1="-457.152" y1="8.37687" x2="-457.151" y2="-1802.94" gradientUnits="userSpaceOnUse">
<stop stop-color="#9A52FF"/>
</linearGradient>
<linearGradient id="paint26_linear" x1="-457.152" y1="8.37687" x2="-457.151" y2="-1802.94" gradientUnits="userSpaceOnUse">
<stop stop-color="#9A52FF"/>
</linearGradient>
<linearGradient id="paint27_linear" x1="-457.245" y1="-0.826624" x2="-457.245" y2="-1793.74" gradientUnits="userSpaceOnUse">
<stop stop-color="#9A52FF"/>
</linearGradient>
<linearGradient id="paint28_linear" x1="-457.245" y1="-0.826624" x2="-457.245" y2="-1793.74" gradientUnits="userSpaceOnUse">
<stop stop-color="#9A52FF"/>
</linearGradient>
</defs>
</svg>
