<svg width="48" height="45" viewBox="0 0 48 45" fill="none" xmlns="http://www.w3.org/2000/svg">
<circle cx="10" cy="10" r="10" fill="#4BB7FF"/>
<path d="M19.4651 32.5801C20.2011 32.5801 20.7978 31.9834 20.7978 31.2473C20.7978 30.5112 20.2011 29.9146 19.4651 29.9146C18.729 29.9146 18.1323 30.5112 18.1323 31.2473C18.1323 31.9834 18.729 32.5801 19.4651 32.5801Z" fill="white"/>
<path d="M15.7334 32.5801C16.4694 32.5801 17.0661 31.9834 17.0661 31.2473C17.0661 30.5112 16.4694 29.9146 15.7334 29.9146C14.9973 29.9146 14.4006 30.5112 14.4006 31.2473C14.4006 31.9834 14.9973 32.5801 15.7334 32.5801Z" fill="white"/>
<path d="M12.0019 32.5801C12.738 32.5801 13.3347 31.9834 13.3347 31.2473C13.3347 30.5112 12.738 29.9146 12.0019 29.9146C11.2659 29.9146 10.6692 30.5112 10.6692 31.2473C10.6692 31.9834 11.2659 32.5801 12.0019 32.5801Z" fill="white"/>
<path d="M45.0667 3.79199H19.4666C17.848 3.79518 16.5366 5.10618 16.5333 6.7243V16.5877H2.93334C1.31466 16.5909 0.0031875 17.9018 0 19.52V36.0682C0.0031875 37.6864 1.31466 38.9973 2.93278 39.0006L6.92156 38.9862V43.4091C6.92156 43.7223 7.10503 44.0071 7.39041 44.1367C7.67569 44.2668 8.01122 44.2172 8.24747 44.0113L13.9067 38.983L28.5334 39.0011C30.152 38.9979 31.4634 37.6869 31.4667 36.0688V26.1962L34.0261 26.1983L39.752 31.193C39.9882 31.3994 40.3231 31.4484 40.609 31.3188C40.8943 31.1887 41.0779 30.9044 41.0779 30.5907V26.2013L45.0699 26.1827H45.0667C46.6853 26.1795 47.9968 24.8691 48.0001 23.2509V6.72421C47.9967 5.10618 46.6852 3.79518 45.0667 3.79199ZM29.8666 36.0687C29.8666 36.4351 29.7188 36.7647 29.4746 37.0101C29.2293 37.2537 28.8998 37.4016 28.5333 37.4016H28.5322L13.6058 37.3839C13.415 37.3845 13.225 37.4555 13.081 37.5813L8.52216 41.65V38.1908C8.52216 37.7519 8.16534 37.3929 7.72641 37.3909L2.93766 37.4021H2.93334C2.56697 37.4021 2.23734 37.2544 1.992 37.0106C1.74769 36.7642 1.60003 36.4346 1.60003 36.0688V19.5201C1.60003 19.1537 1.74778 18.8241 1.992 18.5793C2.23734 18.335 2.56687 18.1873 2.93334 18.1867H28.5333C28.8997 18.1873 29.2293 18.335 29.4746 18.5793C29.7189 18.8246 29.8666 19.1541 29.8666 19.5201V36.0687ZM46.008 24.1914C45.7627 24.4357 45.4331 24.5829 45.0667 24.5834H45.0629L40.2742 24.6058C39.8347 24.6074 39.4778 24.9664 39.4778 25.4052V28.8313L34.8522 24.7961C34.7077 24.6708 34.5189 24.5992 34.3274 24.5992L31.4666 24.5961V19.5198C31.4634 17.9016 30.152 16.5907 28.5333 16.5875H18.1333V6.72421C18.1333 6.35784 18.2811 6.02821 18.5253 5.78343C18.7706 5.53912 19.1002 5.39146 19.4666 5.3909H45.0666C45.4329 5.39146 45.7626 5.53912 46.0079 5.78343C46.2522 6.02821 46.3999 6.3583 46.3999 6.72421V23.2506H46.4C46.4 23.617 46.2522 23.9461 46.008 24.1914Z" fill="white"/>
</svg>
