<svg width="48" height="46" viewBox="0 0 48 46" fill="none" xmlns="http://www.w3.org/2000/svg">
<circle cx="10" cy="10" r="10" fill="#28B86A"/>
<path d="M5.64703 18.6353C2.52938 18.6353 0 21.1635 0 24.2823C0 27.4006 2.52938 29.9293 5.64703 29.9293C8.76591 29.9294 11.2941 27.4006 11.2941 24.2823C11.2941 21.1634 8.76591 18.6353 5.64703 18.6353ZM5.64703 28.2352C3.46781 28.2352 1.69406 26.4615 1.69406 24.2823C1.69406 22.103 3.46781 20.3293 5.64703 20.3293C7.82625 20.3293 9.6 22.1031 9.6 24.2823C9.6 26.4615 7.82625 28.2352 5.64703 28.2352Z" fill="white"/>
<path d="M32.7531 2.25879C29.6342 2.25879 27.106 4.78695 27.106 7.90582C27.106 11.0241 29.6342 13.5529 32.7531 13.5529C35.872 13.5529 38.4001 11.0241 38.4001 7.90582C38.4002 4.78695 35.872 2.25879 32.7531 2.25879ZM32.7531 11.8589C30.5739 11.8589 28.8001 10.0851 28.8001 7.90591C28.8001 5.7266 30.5739 3.95295 32.7531 3.95295C34.9323 3.95295 36.706 5.7267 36.706 7.90591C36.7061 10.0852 34.9324 11.8589 32.7531 11.8589Z" fill="white"/>
<path d="M33.3177 33.8823C30.1999 33.8823 27.6707 36.4105 27.6707 39.5294C27.6707 42.6477 30.2 45.1764 33.3177 45.1764C36.4366 45.1764 38.9647 42.6477 38.9647 39.5294C38.9647 36.4106 36.4366 33.8823 33.3177 33.8823ZM33.3177 43.4823C31.1385 43.4823 29.3647 41.7086 29.3647 39.5294C29.3647 37.3501 31.1385 35.5764 33.3177 35.5764C35.4969 35.5764 37.2707 37.3501 37.2707 39.5294C37.2706 41.7085 35.4968 43.4823 33.3177 43.4823Z" fill="white"/>
<path d="M42.3529 18.0707C39.5226 18.0707 37.1858 20.155 36.7764 22.8707H31.0056C30.5854 19.2159 27.4852 16.3765 23.7175 16.3765C22.4656 16.3765 21.2876 16.6916 20.2564 17.2439L17.4052 12.4913C18.8317 11.4664 19.7645 9.79657 19.7645 7.90582C19.7645 4.78751 17.2364 2.25879 14.1175 2.25879C10.9997 2.25879 8.47046 4.78751 8.47046 7.90582C8.47046 11.0236 10.9998 13.5528 14.1175 13.5528C14.7387 13.5528 15.3338 13.449 15.8935 13.2637L18.8661 18.2179C17.3425 19.5636 16.3763 21.5254 16.3763 23.7177C16.3763 26.1911 17.6028 28.3731 19.4776 29.7035L16.4576 34.7362C15.8985 34.5511 15.3033 34.4471 14.6821 34.4471C11.5644 34.4471 9.03512 36.9758 9.03512 40.0941C9.03512 43.2119 11.5645 45.7412 14.6821 45.7412C17.801 45.7412 20.3292 43.2118 20.3292 40.0941C20.3292 38.2029 19.3963 36.5331 17.9699 35.5086L20.9634 30.5194C21.8138 30.8644 22.7422 31.0588 23.7175 31.0588C27.4852 31.0588 30.5854 28.2195 31.0056 24.5646H36.7764C37.1858 27.2803 39.5226 29.3646 42.3529 29.3646C45.4718 29.3646 48 26.8353 48 23.7176C48 20.5994 45.4718 18.0707 42.3529 18.0707ZM14.1177 11.8589C11.9384 11.8589 10.1647 10.085 10.1647 7.90591C10.1647 5.72679 11.9385 3.95295 14.1177 3.95295C16.297 3.95295 18.0706 5.7267 18.0706 7.90591C18.0706 10.0851 16.297 11.8589 14.1177 11.8589ZM18.6354 40.0941C18.6353 42.2734 16.8616 44.0471 14.6824 44.0471C12.5033 44.0471 10.7295 42.2733 10.7295 40.0941C10.7295 37.9149 12.5032 36.1412 14.6824 36.1412C16.8616 36.1412 18.6354 37.9148 18.6354 40.0941ZM23.7176 29.3647C20.6038 29.3647 18.0706 26.8314 18.0706 23.7177C18.0706 20.604 20.6039 18.0707 23.7176 18.0707C26.8313 18.0707 29.3646 20.604 29.3646 23.7177C29.3646 26.8314 26.8315 29.3647 23.7176 29.3647ZM42.3529 27.6707C40.1737 27.6707 38.4 25.8969 38.4 23.7177C38.4 21.5384 40.1737 19.7647 42.3529 19.7647C44.5321 19.7647 46.3059 21.5385 46.3059 23.7177C46.3059 25.897 44.5321 27.6707 42.3529 27.6707Z" fill="white"/>
</svg>
