<svg width="47" height="48" viewBox="0 0 47 48" fill="none" xmlns="http://www.w3.org/2000/svg">
<circle cx="10" cy="10" r="10" fill="#9A52FF"/>
<path d="M46.5586 38.2668C46.51 37.78 46.0752 37.4249 45.5884 37.4735L42.2294 37.8114C44.4494 34.3602 45.7425 30.2522 45.7421 25.8464C45.7402 15.5444 38.7115 6.8847 29.1834 4.4066C28.7091 4.28369 28.2259 4.56728 28.1024 5.041C27.9795 5.51472 28.2631 5.99857 28.7369 6.12204C37.4976 8.40167 43.9716 16.3697 43.9699 25.847C43.9692 29.9402 42.7606 33.7429 40.6848 36.9352L39.566 33.5769C39.4112 33.1126 38.9096 32.8616 38.4459 33.0163C37.9809 33.1711 37.7305 33.6727 37.8853 34.1369L39.7845 39.8387L45.7658 39.2374C46.2525 39.1884 46.6076 38.7542 46.5586 38.2668Z" fill="white"/>
<path d="M27.7197 25.5514H23.8799V20.5302C23.8799 20.0411 23.4829 19.644 22.9938 19.644C22.5047 19.644 22.1077 20.0404 22.1077 20.5302V26.4376C22.1077 26.6709 22.2022 26.8989 22.367 27.0644C22.5318 27.2297 22.7604 27.3237 22.9938 27.3237H27.7197C28.2088 27.3237 28.6059 26.9273 28.6059 26.4376C28.6059 25.9477 28.2088 25.5514 27.7197 25.5514Z" fill="white"/>
<path d="M23.5892 15.5088C17.8792 15.5094 13.2518 20.1367 13.2512 25.8468C13.2519 31.557 17.8791 36.1843 23.5892 36.1848C29.2994 36.1842 33.9267 31.557 33.9272 25.8468C33.9266 20.1367 29.2994 15.5094 23.5892 15.5088ZM29.6461 31.9036C28.0931 33.4548 25.9576 34.4118 23.5892 34.4124C21.2209 34.4117 19.0854 33.4548 17.5323 31.9036C15.9804 30.3505 15.024 28.2149 15.0235 25.8466C15.0241 23.4783 15.9805 21.3422 17.5323 19.7897C19.0854 18.2384 21.2209 17.2815 23.5892 17.2809C25.9576 17.2815 28.0931 18.2384 29.6461 19.7897C31.1981 21.3421 32.1544 23.4783 32.155 25.8466C32.1543 28.2149 31.198 30.3505 29.6461 31.9036Z" fill="white"/>
<path d="M38.4336 41.1017C38.1074 40.7367 37.5473 40.7059 37.1822 41.0327C33.5733 44.264 28.8149 46.2264 23.5897 46.2271C15.8516 46.2277 9.1266 41.9129 5.67425 35.5606L9.4296 35.8058C9.91757 35.8378 10.3393 35.4679 10.3712 34.9793C10.4037 34.4913 10.0333 34.069 9.54538 34.037L3.54818 33.646L1.8498 39.4128C1.71161 39.8819 1.97974 40.3745 2.44943 40.5134C2.91846 40.6516 3.41112 40.3834 3.54931 39.9137L4.42718 36.9334C8.2581 43.5444 15.3985 47.9993 23.5898 47.9998C29.2633 48.0004 34.4466 45.8636 38.3649 42.3528C38.7295 42.0261 38.7602 41.4662 38.4336 41.1017Z" fill="white"/>
<path d="M22.0177 0.260886C21.6727 -0.0858963 21.1121 -0.0870213 20.7647 0.257886C20.4179 0.602886 20.4167 1.16407 20.7624 1.51086H20.7617L22.951 3.71014C11.0133 4.04989 1.43913 13.8262 1.43848 25.8466C1.43848 27.6785 1.66113 29.4601 2.08188 31.1645C2.19823 31.6401 2.67851 31.9301 3.15345 31.8132C3.62904 31.6962 3.91911 31.216 3.80211 30.7409C3.41576 29.1732 3.21073 27.5351 3.21073 25.8466C3.21139 20.2163 5.49036 15.1264 9.17962 11.4354C12.8629 7.75331 17.9403 5.47668 23.5571 5.46655L21.5386 8.64112C21.2756 9.054 21.398 9.60169 21.8104 9.86456C22.2233 10.1275 22.7716 10.0052 23.0338 9.59278L26.2587 4.52183L22.0177 0.260886Z" fill="white"/>
</svg>
