<svg id="Layer_1" data-name="Layer 1" xmlns="http://www.w3.org/2000/svg" viewBox="0 0 60 60"><defs><style>.cls-1{fill:#d0d4d4;}.cls-2{fill:#e9eded;}.cls-3{fill:#2fd184;}.cls-4{fill:#fff;}</style></defs><title>icon-xrp-responsible</title><path class="cls-1" d="M15,30H30V15A15,15,0,0,0,15,30Z"/><path class="cls-2" d="M30,0H0V30A30,30,0,0,1,30,0Z"/><polygon class="cls-2" points="30 15 30 30 45 30 60 30 30 0 30 15"/><polygon class="cls-2" points="30 30 15 30 0 30 30 60 30 45 30 30"/><path class="cls-3" d="M30,15V0A30,30,0,0,0,0,30H15A15,15,0,0,1,30,15Z"/><path class="cls-3" d="M30,60H60V30A30,30,0,0,1,30,60Z"/><path class="cls-3" d="M45,30H30V45A15,15,0,0,0,45,30Z"/><path class="cls-4" d="M30,45V60A30,30,0,0,0,60,30H45A15,15,0,0,1,30,45Z"/></svg>