<svg width="50" height="47" viewBox="0 0 50 47" fill="none" xmlns="http://www.w3.org/2000/svg">
<circle cx="10" cy="10" r="10" fill="#32E685"/>
<path d="M25.2776 8.05566C23.1299 8.05566 21.3887 9.79678 21.3887 11.9446C21.3887 14.0925 23.1298 15.8336 25.2776 15.8336C27.4249 15.8336 29.1666 14.0925 29.1666 11.9446C29.1666 9.79678 27.4249 8.05566 25.2776 8.05566ZM25.2776 14.1669C24.0526 14.1669 23.0554 13.1702 23.0554 11.9446C23.0554 10.719 24.0526 9.72236 25.2776 9.72236C26.5026 9.72236 27.4999 10.719 27.4999 11.9446C27.4999 13.1702 26.5027 14.1669 25.2776 14.1669Z" fill="#343437"/>
<path d="M47.9541 17.9121L25.7318 3.46763C25.4558 3.28813 25.0996 3.28813 24.8235 3.46763L2.60128 17.9121C2.29073 18.1137 2.15128 18.4931 2.25626 18.8476C2.36124 19.2026 2.68507 19.4443 3.05518 19.4443H47.4995C47.8694 19.4443 48.1934 19.2026 48.2984 18.8476C48.4035 18.4926 48.2641 18.1136 47.9541 17.9121ZM5.86632 17.7777L25.2774 5.1604L44.6879 17.7777H5.86632Z" fill="#343437"/>
<path d="M47.4994 41.6669H41.6661V22.7781H43.055C43.5149 22.7781 43.8883 22.4054 43.8883 21.9447C43.8883 21.4841 43.5149 21.1113 43.055 21.1113H34.1661C33.7062 21.1113 33.3327 21.4841 33.3327 21.9447C33.3327 22.4053 33.7061 22.7781 34.1661 22.7781H35.555V41.667H28.3327V22.7781H29.7216C30.1815 22.7781 30.555 22.4054 30.555 21.9447C30.555 21.4841 30.1816 21.1113 29.7216 21.1113H20.8327C20.3728 21.1113 19.9994 21.4841 19.9994 21.9447C19.9994 22.4053 20.3728 22.7781 20.8327 22.7781H22.2216V41.667H14.9995V22.7781H16.3884C16.8483 22.7781 17.2217 22.4054 17.2217 21.9447C17.2217 21.4841 16.8483 21.1113 16.3884 21.1113H7.49941C7.03945 21.1113 6.66602 21.4841 6.66602 21.9447C6.66602 22.4053 7.03936 22.7781 7.49941 22.7781H8.88828V41.667H3.05508C2.59512 41.667 2.22168 42.0397 2.22168 42.5003C2.22168 42.9602 2.59502 43.3337 3.05508 43.3337H47.4994C47.9594 43.3337 48.3328 42.9603 48.3328 42.5003C48.3328 42.0396 47.9595 41.6669 47.4994 41.6669ZM13.3328 41.6669H10.5551V22.7781H13.3328V41.6669ZM26.6661 41.6669H23.8884V22.7781H26.6661V41.6669ZM39.9995 41.6669H37.2218V22.7781H39.9995V41.6669Z" fill="#343437"/>
<path d="M49.1666 45H0.833398C0.373438 45 0 45.3728 0 45.8334C0 46.2939 0.37334 46.6668 0.833398 46.6668H49.1667C49.6267 46.6668 50.0001 46.294 50.0001 45.8334C50 45.3728 49.6267 45 49.1666 45Z" fill="#343437"/>
</svg>
