<svg width="1440" height="46" viewBox="0 0 1440 46" fill="none" xmlns="http://www.w3.org/2000/svg">
<g clip-path="url(#clip0_377_62970)">
<rect width="1440" height="46" fill="#111112"/>
<g clip-path="url(#clip1_377_62970)">
<path d="M76.7909 350.213C-38.509 121.807 -21.5695 -138.837 98.9682 -344.227C166.771 -459.825 267.427 -557.921 395.766 -622.931C578.846 -715.647 782.677 -722.992 962.035 -659.79C1131.83 -600.004 1279.72 -476.993 1367.36 -303.417C1547.56 53.537 1404.73 489.231 1048.34 669.728C691.984 850.225 256.973 707.189 76.7909 350.213Z" fill="url(#paint0_linear_377_62970)"/>
<path d="M388.923 -445.826C554.462 -563.747 761.012 -581.361 936.514 -510.859C1035.28 -471.21 1124.23 -403.61 1190.49 -310.292C1285 -177.168 1314.98 -17.567 1286.69 131.14C1259.95 271.921 1180.98 402.968 1055.18 492.58C796.474 676.873 437.58 616.171 253.608 357.046C69.6365 97.92 130.195 -261.534 388.923 -445.826Z" fill="url(#paint1_linear_377_62970)"/>
<path d="M415.424 -258.542C514.899 -367.086 658.528 -410.798 793.442 -387.402C869.358 -374.252 942.554 -339.827 1003.54 -283.769C1090.53 -203.779 1135.82 -95.2798 1138.21 14.3134C1140.48 118.057 1104.3 222.806 1028.72 305.297C873.258 474.922 609.961 486.196 440.588 330.502C271.238 174.807 259.96 -88.9396 415.424 -258.565V-258.542Z" fill="url(#paint2_linear_377_62970)"/>
<path d="M526.623 -206.615C607.777 -275.8 714.919 -294.419 809.847 -265.598C863.273 -249.39 912.821 -218.112 951.693 -172.369C1007.15 -107.113 1030.06 -25.0685 1022.06 53.9395C1014.48 128.728 979.175 200.838 917.524 253.391C790.701 361.51 600.377 346.173 492.454 219.144C384.51 92.1151 399.822 -98.4953 526.645 -206.615H526.623Z" fill="url(#paint3_linear_377_62970)"/>
<path d="M679.39 197.354C618.007 182.24 571.892 137.077 552.812 81.3314C542.069 49.9649 539.885 15.2272 548.377 -19.3541C560.48 -68.7146 591.929 -108.23 632.673 -131.76C671.233 -154.063 718.106 -162.055 764.734 -150.58C860.665 -126.983 919.307 -29.9361 895.748 66.1281C872.188 162.215 775.321 220.974 679.39 197.354Z" fill="url(#paint4_linear_377_62970)"/>
<mask id="mask0_377_62970" style="mask-type:luminance" maskUnits="userSpaceOnUse" x="-2" y="-701" width="1448" height="1449">
<path d="M1048.32 669.708C1404.71 489.211 1547.54 53.5171 1367.33 -303.436C1279.72 -477.013 1131.83 -600.001 962.035 -659.787C782.677 -722.967 578.846 -715.644 395.744 -622.929C267.405 -557.941 166.749 -459.823 98.9466 -344.224C-21.5911 -138.835 -38.5529 121.809 76.747 350.193C256.952 707.147 691.94 850.183 1048.29 669.708H1048.32ZM226.216 -269.145C280.177 -361.124 360.283 -439.194 462.432 -490.921C608.112 -564.705 770.307 -570.555 913.022 -520.256C1048.14 -472.682 1165.82 -374.809 1235.56 -236.685C1378.97 47.3777 1265.3 394.084 981.716 537.723C698.136 681.362 351.969 567.527 208.563 283.464C116.8 101.717 130.307 -105.682 226.216 -269.145Z" fill="white"/>
</mask>
<g mask="url(#mask0_377_62970)">
<path d="M1047.27 670.021L394.875 -622.258" stroke="black" stroke-width="44.462" stroke-miterlimit="10"/>
<path d="M906.247 723.758L536.365 -676.15" stroke="black" stroke-width="44.462" stroke-miterlimit="10"/>
<path d="M757.135 746.931L685.922 -699.391" stroke="black" stroke-width="44.462" stroke-miterlimit="10"/>
<path d="M606.485 738.559L837.04 -690.997" stroke="black" stroke-width="44.462" stroke-miterlimit="10"/>
<path d="M460.85 698.999L983.121 -651.303" stroke="black" stroke-width="44.462" stroke-miterlimit="10"/>
<path d="M326.627 629.97L1117.77 -582.073" stroke="black" stroke-width="44.462" stroke-miterlimit="10"/>
<path d="M209.655 534.486L1235.1 -486.3" stroke="black" stroke-width="44.462" stroke-miterlimit="10"/>
<path d="M115.062 416.745L1329.98 -368.201" stroke="black" stroke-width="44.462" stroke-miterlimit="10"/>
<path d="M46.9693 281.881L1398.27 -232.91" stroke="black" stroke-width="44.462" stroke-miterlimit="10"/>
<path d="M8.3653 135.763L1437.01 -86.3478" stroke="black" stroke-width="44.462" stroke-miterlimit="10"/>
<path d="M0.920837 -15.1764L1444.45 65.0595" stroke="black" stroke-width="44.462" stroke-miterlimit="10"/>
<path d="M24.9928 -164.374L1420.32 214.726" stroke="black" stroke-width="44.462" stroke-miterlimit="10"/>
<path d="M79.4884 -305.312L1365.64 356.087" stroke="black" stroke-width="44.462" stroke-miterlimit="10"/>
<path d="M162.068 -431.805L1282.82 482.983" stroke="black" stroke-width="44.462" stroke-miterlimit="10"/>
<path d="M269.099 -538.339L1175.47 589.83" stroke="black" stroke-width="44.462" stroke-miterlimit="10"/>
</g>
<mask id="mask1_377_62970" style="mask-type:luminance" maskUnits="userSpaceOnUse" x="146" y="-554" width="1152" height="1154">
<path d="M1033.74 507.83C1300.87 335.392 1377.88 -21.2716 1205.74 -288.814C1122.05 -418.901 994.821 -503.982 855.493 -537.224C708.321 -572.341 547.596 -549.636 410.364 -461.073C314.166 -398.987 242.619 -312.992 198.532 -215.878C120.12 -43.3063 128.255 164.36 238.384 335.548C410.52 603.113 766.628 680.223 1033.74 507.807V507.83ZM343.297 -149.707C375.215 -219.964 426.969 -282.183 496.577 -327.101C595.851 -391.174 712.11 -407.627 818.583 -382.199C919.373 -358.155 1011.43 -296.628 1071.98 -202.483C1196.53 -8.90356 1140.81 249.128 947.568 373.858C754.325 498.587 496.689 442.797 372.161 249.24C292.479 125.381 286.594 -24.8659 343.319 -149.707H343.297Z" fill="white"/>
</mask>
<g mask="url(#mask1_377_62970)">
<path d="M1032.91 508.163L409.718 -460.449" stroke="black" stroke-width="44.462" stroke-miterlimit="10"/>
<path d="M925.748 562.391L517.239 -514.833" stroke="black" stroke-width="44.462" stroke-miterlimit="10"/>
<path d="M809.645 593.111L633.676 -545.662" stroke="black" stroke-width="44.462" stroke-miterlimit="10"/>
<path d="M689.732 598.982L753.968 -551.557" stroke="black" stroke-width="44.462" stroke-miterlimit="10"/>
<path d="M571.2 579.76L872.879 -532.246" stroke="black" stroke-width="44.462" stroke-miterlimit="10"/>
<path d="M459.266 536.271L985.148 -488.623" stroke="black" stroke-width="44.462" stroke-miterlimit="10"/>
<path d="M358.788 470.412L1085.94 -422.564" stroke="black" stroke-width="44.462" stroke-miterlimit="10"/>
<path d="M274.18 385.064L1170.81 -336.969" stroke="black" stroke-width="44.462" stroke-miterlimit="10"/>
<path d="M209.141 283.977L1236.05 -235.569" stroke="black" stroke-width="44.462" stroke-miterlimit="10"/>
<path d="M166.503 171.549L1278.8 -122.783" stroke="black" stroke-width="44.462" stroke-miterlimit="10"/>
<path d="M148.137 52.69L1297.23 -3.56891" stroke="black" stroke-width="44.462" stroke-miterlimit="10"/>
<path d="M154.846 -67.3731L1290.5 116.875" stroke="black" stroke-width="44.462" stroke-miterlimit="10"/>
<path d="M186.34 -183.441L1258.92 233.299" stroke="black" stroke-width="44.462" stroke-miterlimit="10"/>
<path d="M241.214 -290.4L1203.87 340.593" stroke="black" stroke-width="44.462" stroke-miterlimit="10"/>
<path d="M317.108 -383.607L1127.75 434.067" stroke="black" stroke-width="44.462" stroke-miterlimit="10"/>
</g>
<mask id="mask2_377_62970" style="mask-type:luminance" maskUnits="userSpaceOnUse" x="305" y="-394" width="834" height="835">
<path d="M985.416 346.284C1163.48 200.591 1189.92 -62.084 1044.46 -240.416C973.736 -327.126 875.376 -377.937 772.513 -390.484C663.855 -403.767 550.16 -374.365 458.687 -299.51C394.562 -247.046 350.119 -179.402 326.292 -105.997C283.921 24.4474 306.611 173.087 399.667 287.19C545.123 465.521 807.373 491.977 985.416 346.306V346.284ZM435.73 -70.2326C452.981 -123.344 485.144 -172.28 531.527 -210.232C597.702 -264.37 679.948 -285.646 758.56 -276.046C832.96 -266.96 904.129 -230.213 955.304 -167.48C1060.53 -38.4642 1041.41 151.588 912.598 256.984C783.791 362.38 594.047 343.248 488.822 214.21C421.487 131.652 405.06 24.1126 435.73 -70.2326Z" fill="white"/>
</mask>
<g mask="url(#mask2_377_62970)">
<path d="M985.482 347.401L457.595 -299.844" stroke="black" stroke-width="33.3465" stroke-miterlimit="10"/>
<path d="M912.643 395.221L530.657 -347.82" stroke="black" stroke-width="33.3465" stroke-miterlimit="10"/>
<path d="M831.489 426.832L612.056 -379.523" stroke="black" stroke-width="33.3465" stroke-miterlimit="10"/>
<path d="M745.521 440.853L698.291 -393.565" stroke="black" stroke-width="33.3465" stroke-miterlimit="10"/>
<path d="M658.55 436.656L785.529 -389.367" stroke="black" stroke-width="33.3465" stroke-miterlimit="10"/>
<path d="M574.343 414.442L870.004 -367.088" stroke="black" stroke-width="33.3465" stroke-miterlimit="10"/>
<path d="M496.577 375.173L948.014 -327.706" stroke="black" stroke-width="33.3465" stroke-miterlimit="10"/>
<path d="M428.664 320.566L1016.13 -272.921" stroke="black" stroke-width="33.3465" stroke-miterlimit="10"/>
<path d="M373.566 253.011L1071.41 -205.164" stroke="black" stroke-width="33.3465" stroke-miterlimit="10"/>
<path d="M333.691 175.476L1111.39 -127.385" stroke="black" stroke-width="33.3465" stroke-miterlimit="10"/>
<path d="M310.801 91.3112L1134.37 -42.9734" stroke="black" stroke-width="33.3465" stroke-miterlimit="10"/>
<path d="M305.875 4.22107L1139.3 44.3837" stroke="black" stroke-width="33.3465" stroke-miterlimit="10"/>
<path d="M319.115 -81.9752L1126.01 130.871" stroke="black" stroke-width="33.3465" stroke-miterlimit="10"/>
<path d="M349.985 -163.551L1095.05 212.669" stroke="black" stroke-width="33.3465" stroke-miterlimit="10"/>
<path d="M397.103 -236.91L1047.8 286.275" stroke="black" stroke-width="33.3465" stroke-miterlimit="10"/>
</g>
<mask id="mask3_377_62970" style="mask-type:luminance" maskUnits="userSpaceOnUse" x="420" y="-279" width="604" height="605">
<path d="M887.166 275.67C1026.27 184.339 1065.14 -2.65509 973.936 -141.985C929.604 -209.741 862.671 -253.744 789.608 -270.554C712.444 -288.347 628.415 -275.801 556.935 -228.874C506.852 -195.989 469.742 -150.669 447.052 -99.6793C406.709 -9.04001 411.813 99.6155 470.165 188.781C561.348 328.111 748.039 367.024 887.144 275.692L887.166 275.67ZM558.384 -49.8723C571.891 -80.2343 593.979 -107.18 623.779 -126.759C666.306 -154.688 716.322 -162.145 762.237 -151.562C805.723 -141.561 845.553 -115.351 871.943 -75.0326C926.216 7.9046 903.08 119.194 820.3 173.556C737.519 227.917 626.387 204.766 572.114 121.829C537.388 68.7625 534.357 4.08701 558.362 -49.8501L558.384 -49.8723Z" fill="white"/>
</mask>
<g mask="url(#mask3_377_62970)">
<path d="M887.121 276.474L556.177 -229.208" stroke="black" stroke-width="20.6431" stroke-miterlimit="10"/>
<path d="M831.11 305.362L612.367 -258.187" stroke="black" stroke-width="20.6431" stroke-miterlimit="10"/>
<path d="M770.328 321.949L673.327 -274.841" stroke="black" stroke-width="20.6431" stroke-miterlimit="10"/>
<path d="M707.429 325.522L736.427 -278.412" stroke="black" stroke-width="20.6431" stroke-miterlimit="10"/>
<path d="M645.154 315.922L798.902 -268.79" stroke="black" stroke-width="20.6431" stroke-miterlimit="10"/>
<path d="M586.245 293.552L857.99 -246.355" stroke="black" stroke-width="20.6431" stroke-miterlimit="10"/>
<path d="M533.264 259.418L911.148 -212.107" stroke="black" stroke-width="20.6431" stroke-miterlimit="10"/>
<path d="M488.508 214.991L956.015 -167.547" stroke="black" stroke-width="20.6431" stroke-miterlimit="10"/>
<path d="M453.983 162.215L990.675 -114.592" stroke="black" stroke-width="20.6431" stroke-miterlimit="10"/>
<path d="M431.159 103.389L1013.57 -55.6094" stroke="black" stroke-width="20.6431" stroke-miterlimit="10"/>
<path d="M421.018 41.1023L1023.73 6.87811" stroke="black" stroke-width="20.6431" stroke-miterlimit="10"/>
<path d="M424.05 -21.9215L1020.68 70.1019" stroke="black" stroke-width="20.6431" stroke-miterlimit="10"/>
<path d="M440.097 -82.9575L1004.58 131.317" stroke="black" stroke-width="20.6431" stroke-miterlimit="10"/>
<path d="M468.449 -139.306L976.143 187.844" stroke="black" stroke-width="20.6431" stroke-miterlimit="10"/>
<path d="M507.9 -188.51L936.58 237.205" stroke="black" stroke-width="20.6431" stroke-miterlimit="10"/>
</g>
<mask id="mask4_377_62970" style="mask-type:luminance" maskUnits="userSpaceOnUse" x="542" y="-157" width="360" height="360">
<path d="M820.323 173.535C903.125 119.174 926.239 7.88371 871.966 -75.0535C845.576 -115.372 805.746 -141.56 762.26 -151.583C716.323 -162.165 666.329 -154.709 623.78 -126.78C593.958 -107.201 571.892 -80.2329 558.385 -49.8933C534.38 4.04379 537.411 68.7191 572.137 121.786C626.41 204.7 737.52 227.874 820.3 173.513L820.323 173.535Z" fill="white"/>
</mask>
<g mask="url(#mask4_377_62970)">
<path d="M769.036 197.044L674.554 -150.154" stroke="black" stroke-width="9.52757" stroke-miterlimit="10"/>
<path d="M732.014 203.072L711.665 -156.203" stroke="black" stroke-width="9.52757" stroke-miterlimit="10"/>
<path d="M694.569 201.264L749.244 -154.395" stroke="black" stroke-width="9.52757" stroke-miterlimit="10"/>
<path d="M658.306 191.709L785.619 -144.794" stroke="black" stroke-width="9.52757" stroke-miterlimit="10"/>
<path d="M624.828 174.809L819.208 -127.85" stroke="black" stroke-width="9.52757" stroke-miterlimit="10"/>
<path d="M595.585 151.301L848.54 -104.253" stroke="black" stroke-width="9.52757" stroke-miterlimit="10"/>
<path d="M571.847 122.211L872.322 -75.0745" stroke="black" stroke-width="9.52757" stroke-miterlimit="10"/>
<path d="M554.685 88.8129L889.551 -41.5871" stroke="black" stroke-width="9.52757" stroke-miterlimit="10"/>
<path d="M544.833 52.5803L899.448 -5.24133" stroke="black" stroke-width="9.52757" stroke-miterlimit="10"/>
<path d="M542.694 15.0746L901.566 32.3765" stroke="black" stroke-width="9.52757" stroke-miterlimit="10"/>
<path d="M548.4 -22.0308L895.837 69.6131" stroke="black" stroke-width="9.52757" stroke-miterlimit="10"/>
<path d="M561.706 -57.1699L882.509 104.842" stroke="black" stroke-width="9.52757" stroke-miterlimit="10"/>
<path d="M581.989 -88.7378L862.159 136.521" stroke="black" stroke-width="9.52757" stroke-miterlimit="10"/>
<path d="M608.379 -115.416L835.68 163.266" stroke="black" stroke-width="9.52757" stroke-miterlimit="10"/>
<path d="M639.739 -135.999L804.23 183.918" stroke="black" stroke-width="9.52757" stroke-miterlimit="10"/>
</g>
<mask id="mask5_377_62970" style="mask-type:luminance" maskUnits="userSpaceOnUse" x="8" y="-703" width="1047" height="819">
<path d="M1054.87 -620.631C1032.13 -604.869 1010.09 -587.902 988.558 -570.288C923.208 -516.842 860.576 -455.046 824.357 -375.034C784.17 -286.247 780.136 -183.597 754.548 -88.56C728.983 6.47729 668.291 103.859 578.222 114.463C480.887 125.916 402.965 34.7184 320.519 -23.0363C228.912 -87.2205 117.869 -113.006 8.83249 -106.799C41.0175 -286.716 140.849 -454.622 301.306 -568.904C530.301 -732.01 821.727 -742.458 1054.87 -620.631Z" fill="white"/>
</mask>
<g mask="url(#mask5_377_62970)">
<path d="M75.9669 348.319C-39.3329 119.912 -22.3935 -140.732 98.1443 -346.121C165.947 -461.72 266.603 -559.815 394.942 -624.826C578.022 -717.541 781.853 -724.864 961.211 -661.684C1131.01 -601.898 1278.89 -478.887 1366.53 -305.311C1546.74 51.6426 1403.91 487.336 1047.51 667.833C691.16 848.331 256.149 705.295 75.9669 348.319Z" fill="url(#paint5_linear_377_62970)"/>
<path d="M285.928 397.5C153.265 243.414 116.488 39.0732 170.182 -142.518C200.383 -244.722 259.27 -339.714 345.84 -414.503C469.342 -521.171 625.208 -565.978 775.657 -551.645C918.105 -538.116 1055.74 -471.61 1156.55 -354.516C1363.88 -113.719 1337.04 249.843 1096.64 457.51C856.231 665.154 493.28 638.32 285.95 397.5H285.928Z" fill="url(#paint6_linear_377_62970)"/>
<path d="M517.196 384.887C388.991 312.665 313.722 182.578 305.676 45.6589C301.129 -31.3845 317.89 -110.593 358.456 -182.882C416.34 -285.978 511.49 -354.895 617.474 -382.243C717.795 -408.14 827.88 -396.777 925.304 -341.902C1125.68 -229.027 1196.74 25.187 1084.04 225.866C971.353 426.545 717.573 497.739 517.196 384.864V384.887Z" fill="url(#paint7_linear_377_62970)"/>
<path d="M649.301 314.809C545.815 289.336 468.049 213.186 435.886 119.22C417.766 66.3324 414.11 7.79639 428.42 -50.561C448.836 -133.766 501.861 -200.384 570.533 -240.1C635.527 -277.695 714.563 -291.179 793.198 -271.824C954.925 -232.018 1053.82 -68.4433 1014.08 93.5465C974.339 255.536 811.029 354.592 649.301 314.787V314.809Z" fill="url(#paint8_linear_377_62970)"/>
<path d="M678.567 195.482C617.183 180.368 571.068 135.204 551.989 79.4587C541.246 48.0922 539.061 13.3546 547.553 -21.2268C559.656 -70.5872 591.106 -110.102 631.85 -133.633C670.409 -155.935 717.282 -163.928 763.911 -152.453C859.841 -128.855 918.483 -31.8088 894.924 64.2555C871.365 160.342 774.498 219.101 678.567 195.482Z" fill="url(#paint9_linear_377_62970)"/>
<mask id="mask6_377_62970" style="mask-type:luminance" maskUnits="userSpaceOnUse" x="-3" y="-703" width="1448" height="1449">
<path d="M1047.49 667.813C1403.89 487.316 1546.72 51.6218 1366.51 -305.332C1278.89 -478.908 1131.01 -601.896 961.211 -661.683C781.853 -724.862 578.022 -717.54 394.92 -624.824C266.581 -559.836 165.925 -461.718 98.1226 -346.12C-22.4151 -140.73 -39.3769 119.914 75.923 348.298C256.128 705.252 691.116 848.288 1047.47 667.813H1047.49ZM225.392 -271.041C279.353 -363.019 359.459 -441.09 461.608 -492.817C607.288 -566.601 769.483 -572.45 912.198 -522.152C1047.31 -474.577 1165 -376.705 1234.74 -238.58C1378.15 45.4824 1264.47 392.189 980.892 535.828C697.312 679.444 351.145 565.631 207.739 281.569C115.976 99.8214 129.483 -107.577 225.392 -271.041Z" fill="white"/>
</mask>
<g mask="url(#mask6_377_62970)">
<path d="M1046.44 668.148L394.051 -624.154" stroke="black" stroke-width="44.462" stroke-miterlimit="10"/>
<path d="M905.422 721.861L535.54 -678.025" stroke="black" stroke-width="44.462" stroke-miterlimit="10"/>
<path d="M756.311 745.035L685.098 -701.287" stroke="black" stroke-width="44.462" stroke-miterlimit="10"/>
<path d="M605.661 736.663L836.216 -692.893" stroke="black" stroke-width="44.462" stroke-miterlimit="10"/>
<path d="M460.026 697.103L982.296 -653.199" stroke="black" stroke-width="44.462" stroke-miterlimit="10"/>
<path d="M325.803 628.074L1116.94 -583.969" stroke="black" stroke-width="44.462" stroke-miterlimit="10"/>
<path d="M208.831 532.612L1234.27 -488.196" stroke="black" stroke-width="44.462" stroke-miterlimit="10"/>
<path d="M114.237 414.849L1329.15 -370.074" stroke="black" stroke-width="44.462" stroke-miterlimit="10"/>
<path d="M46.1451 279.984L1397.45 -234.785" stroke="black" stroke-width="44.462" stroke-miterlimit="10"/>
<path d="M7.54089 133.889L1436.18 -88.244" stroke="black" stroke-width="44.462" stroke-miterlimit="10"/>
<path d="M0.0964508 -17.0726L1443.63 63.1632" stroke="black" stroke-width="44.462" stroke-miterlimit="10"/>
<path d="M24.1684 -166.27L1419.49 212.83" stroke="black" stroke-width="44.462" stroke-miterlimit="10"/>
<path d="M78.6646 -307.185L1364.82 354.192" stroke="black" stroke-width="44.462" stroke-miterlimit="10"/>
<path d="M161.244 -433.701L1281.99 481.086" stroke="black" stroke-width="44.462" stroke-miterlimit="10"/>
<path d="M268.275 -540.235L1174.65 587.956" stroke="black" stroke-width="44.462" stroke-miterlimit="10"/>
</g>
<mask id="mask7_377_62970" style="mask-type:luminance" maskUnits="userSpaceOnUse" x="145" y="-555" width="1152" height="1153">
<path d="M1032.91 505.953C1300.05 333.515 1377.05 -23.1481 1204.92 -290.69C1121.22 -420.778 993.998 -505.858 854.671 -539.1C707.498 -574.217 546.773 -551.513 409.541 -462.95C313.343 -400.864 241.796 -314.868 197.709 -217.755C119.297 -45.1828 127.432 162.484 237.561 333.672C409.697 601.236 765.805 678.347 1032.91 505.931V505.953ZM342.474 -151.583C374.392 -221.84 426.146 -284.06 495.754 -328.978C595.029 -393.05 711.287 -409.504 817.76 -384.076C918.55 -360.032 1010.6 -298.504 1071.16 -204.36C1195.71 -10.78 1139.99 247.252 946.746 371.981C753.502 496.711 495.866 440.921 371.338 247.363C291.656 123.505 285.772 -26.7424 342.497 -151.583H342.474Z" fill="white"/>
</mask>
<g mask="url(#mask7_377_62970)">
<path d="M1032.09 506.29L408.895 -462.345" stroke="black" stroke-width="44.462" stroke-miterlimit="10"/>
<path d="M924.924 560.517L516.415 -516.728" stroke="black" stroke-width="44.462" stroke-miterlimit="10"/>
<path d="M808.822 591.237L632.852 -547.536" stroke="black" stroke-width="44.462" stroke-miterlimit="10"/>
<path d="M688.909 597.108L753.145 -553.431" stroke="black" stroke-width="44.462" stroke-miterlimit="10"/>
<path d="M570.377 577.864L872.056 -534.141" stroke="black" stroke-width="44.462" stroke-miterlimit="10"/>
<path d="M458.443 534.375L984.324 -490.518" stroke="black" stroke-width="44.462" stroke-miterlimit="10"/>
<path d="M357.964 468.516L1085.11 -424.459" stroke="black" stroke-width="44.462" stroke-miterlimit="10"/>
<path d="M273.357 383.169L1169.99 -338.865" stroke="black" stroke-width="44.462" stroke-miterlimit="10"/>
<path d="M208.318 282.08L1235.23 -237.443" stroke="black" stroke-width="44.462" stroke-miterlimit="10"/>
<path d="M165.679 169.652L1277.98 -124.68" stroke="black" stroke-width="44.462" stroke-miterlimit="10"/>
<path d="M147.313 50.8162L1296.41 -5.46497" stroke="black" stroke-width="44.462" stroke-miterlimit="10"/>
<path d="M154.022 -69.2689L1289.68 115.001" stroke="black" stroke-width="44.462" stroke-miterlimit="10"/>
<path d="M185.517 -185.337L1258.1 231.403" stroke="black" stroke-width="44.462" stroke-miterlimit="10"/>
<path d="M240.391 -292.295L1203.04 338.697" stroke="black" stroke-width="44.462" stroke-miterlimit="10"/>
<path d="M316.284 -385.503L1126.93 432.193" stroke="black" stroke-width="44.462" stroke-miterlimit="10"/>
</g>
<mask id="mask8_377_62970" style="mask-type:luminance" maskUnits="userSpaceOnUse" x="304" y="-396" width="834" height="835">
<path d="M984.591 344.412C1162.66 198.719 1189.09 -63.9559 1043.63 -242.288C972.912 -328.998 874.552 -379.809 771.689 -392.356C663.031 -405.639 549.336 -376.237 457.863 -301.382C393.738 -248.918 349.294 -181.273 325.468 -107.869C283.097 22.5756 305.787 171.215 398.842 285.318C544.299 463.65 806.549 490.105 984.591 344.434V344.412ZM434.906 -72.1268C452.157 -125.238 484.32 -174.174 530.703 -212.127C596.878 -266.265 679.124 -287.54 757.736 -277.941C832.136 -268.854 903.304 -232.107 954.479 -169.374C1059.7 -40.3584 1040.58 149.694 911.774 255.09C782.967 360.486 593.223 341.354 487.997 212.315C420.663 129.758 404.236 22.2184 434.906 -72.1268Z" fill="white"/>
</mask>
<g mask="url(#mask8_377_62970)">
<path d="M984.659 345.505L456.771 -301.74" stroke="black" stroke-width="33.3465" stroke-miterlimit="10"/>
<path d="M911.819 393.325L529.834 -349.694" stroke="black" stroke-width="33.3465" stroke-miterlimit="10"/>
<path d="M830.666 424.937L611.233 -381.396" stroke="black" stroke-width="33.3465" stroke-miterlimit="10"/>
<path d="M744.698 438.957L697.468 -395.46" stroke="black" stroke-width="33.3465" stroke-miterlimit="10"/>
<path d="M657.727 434.761L784.706 -391.262" stroke="black" stroke-width="33.3465" stroke-miterlimit="10"/>
<path d="M573.52 412.546L869.181 -368.983" stroke="black" stroke-width="33.3465" stroke-miterlimit="10"/>
<path d="M495.754 373.277L947.191 -329.58" stroke="black" stroke-width="33.3465" stroke-miterlimit="10"/>
<path d="M427.841 318.693L1015.31 -274.816" stroke="black" stroke-width="33.3465" stroke-miterlimit="10"/>
<path d="M372.742 251.138L1070.58 -207.059" stroke="black" stroke-width="33.3465" stroke-miterlimit="10"/>
<path d="M332.868 173.58L1110.57 -129.28" stroke="black" stroke-width="33.3465" stroke-miterlimit="10"/>
<path d="M309.977 89.4374L1133.55 -44.8472" stroke="black" stroke-width="33.3465" stroke-miterlimit="10"/>
<path d="M305.051 2.34875L1138.47 42.489" stroke="black" stroke-width="33.3465" stroke-miterlimit="10"/>
<path d="M318.291 -83.8708L1125.19 128.975" stroke="black" stroke-width="33.3465" stroke-miterlimit="10"/>
<path d="M349.161 -165.446L1094.23 210.796" stroke="black" stroke-width="33.3465" stroke-miterlimit="10"/>
<path d="M396.28 -238.784L1046.98 284.379" stroke="black" stroke-width="33.3465" stroke-miterlimit="10"/>
</g>
<mask id="mask9_377_62970" style="mask-type:luminance" maskUnits="userSpaceOnUse" x="420" y="-281" width="603" height="605">
<path d="M886.342 273.777C1025.45 182.445 1064.32 -4.5484 973.112 -143.878C928.78 -211.635 861.847 -255.637 788.784 -272.448C711.62 -290.241 627.591 -277.694 556.111 -230.767C506.028 -197.882 468.918 -152.563 446.228 -101.573C405.885 -10.9333 410.989 97.7222 469.341 186.888C560.525 326.218 747.215 365.13 886.32 273.799L886.342 273.777ZM557.56 -51.7656C571.067 -82.1276 593.155 -109.074 622.955 -128.653C665.482 -156.581 715.498 -164.038 761.413 -153.456C804.899 -143.454 844.729 -117.245 871.119 -76.9258C925.392 6.01135 902.256 117.301 819.476 171.662C736.695 226.024 625.563 202.873 571.29 119.936C536.564 66.8691 533.533 2.19379 557.538 -51.7433L557.56 -51.7656Z" fill="white"/>
</mask>
<g mask="url(#mask9_377_62970)">
<path d="M886.298 274.578L555.354 -231.104" stroke="black" stroke-width="20.6431" stroke-miterlimit="10"/>
<path d="M830.286 303.466L611.544 -260.082" stroke="black" stroke-width="20.6431" stroke-miterlimit="10"/>
<path d="M769.504 320.054L672.526 -276.737" stroke="black" stroke-width="20.6431" stroke-miterlimit="10"/>
<path d="M706.606 323.626L735.603 -280.308" stroke="black" stroke-width="20.6431" stroke-miterlimit="10"/>
<path d="M644.33 314.027L798.078 -270.686" stroke="black" stroke-width="20.6431" stroke-miterlimit="10"/>
<path d="M585.421 291.679L857.166 -248.25" stroke="black" stroke-width="20.6431" stroke-miterlimit="10"/>
<path d="M532.441 257.523L910.325 -214.003" stroke="black" stroke-width="20.6431" stroke-miterlimit="10"/>
<path d="M487.685 213.096L955.192 -169.42" stroke="black" stroke-width="20.6431" stroke-miterlimit="10"/>
<path d="M453.16 160.319L989.851 -116.488" stroke="black" stroke-width="20.6431" stroke-miterlimit="10"/>
<path d="M430.336 101.516L1012.74 -57.505" stroke="black" stroke-width="20.6431" stroke-miterlimit="10"/>
<path d="M420.194 39.2291L1022.91 4.9826" stroke="black" stroke-width="20.6431" stroke-miterlimit="10"/>
<path d="M423.226 -23.8173L1019.85 68.2061" stroke="black" stroke-width="20.6431" stroke-miterlimit="10"/>
<path d="M439.274 -84.8316L1003.76 129.421" stroke="black" stroke-width="20.6431" stroke-miterlimit="10"/>
<path d="M467.625 -141.18L975.319 185.948" stroke="black" stroke-width="20.6431" stroke-miterlimit="10"/>
<path d="M507.076 -190.405L935.756 235.309" stroke="black" stroke-width="20.6431" stroke-miterlimit="10"/>
</g>
<mask id="mask10_377_62970" style="mask-type:luminance" maskUnits="userSpaceOnUse" x="541" y="-159" width="360" height="361">
<path d="M819.499 171.639C902.302 117.278 925.415 5.98769 871.142 -76.9495C844.752 -117.268 804.922 -143.456 761.437 -153.479C715.499 -164.061 665.506 -156.605 622.956 -128.676C593.134 -109.097 571.068 -82.1289 557.561 -51.7893C533.556 2.14777 536.587 66.8231 571.313 119.89C625.587 202.804 736.696 225.978 819.477 171.616L819.499 171.639Z" fill="white"/>
</mask>
<g mask="url(#mask10_377_62970)">
<path d="M768.213 195.148L673.731 -152.05" stroke="black" stroke-width="9.52757" stroke-miterlimit="10"/>
<path d="M731.191 201.198L710.841 -158.1" stroke="black" stroke-width="9.52757" stroke-miterlimit="10"/>
<path d="M693.746 199.39L748.42 -156.291" stroke="black" stroke-width="9.52757" stroke-miterlimit="10"/>
<path d="M657.482 189.813L784.796 -146.691" stroke="black" stroke-width="9.52757" stroke-miterlimit="10"/>
<path d="M624.004 172.912L818.385 -129.725" stroke="black" stroke-width="9.52757" stroke-miterlimit="10"/>
<path d="M594.761 149.405L847.717 -106.149" stroke="black" stroke-width="9.52757" stroke-miterlimit="10"/>
<path d="M571.024 120.315L871.499 -76.9708" stroke="black" stroke-width="9.52757" stroke-miterlimit="10"/>
<path d="M553.861 86.9167L888.728 -43.4833" stroke="black" stroke-width="9.52757" stroke-miterlimit="10"/>
<path d="M544.01 50.6841L898.624 -7.13751" stroke="black" stroke-width="9.52757" stroke-miterlimit="10"/>
<path d="M541.87 13.2001L900.742 30.4796" stroke="black" stroke-width="9.52757" stroke-miterlimit="10"/>
<path d="M547.576 -23.9271L895.014 67.7168" stroke="black" stroke-width="9.52757" stroke-miterlimit="10"/>
<path d="M560.882 -59.043L881.685 102.947" stroke="black" stroke-width="9.52757" stroke-miterlimit="10"/>
<path d="M581.165 -90.6341L861.335 134.625" stroke="black" stroke-width="9.52757" stroke-miterlimit="10"/>
<path d="M607.556 -117.312L834.857 161.392" stroke="black" stroke-width="9.52757" stroke-miterlimit="10"/>
<path d="M638.916 -137.895L803.407 182.044" stroke="black" stroke-width="9.52757" stroke-miterlimit="10"/>
</g>
</g>
</g>
<rect width="1439" height="46" fill="url(#paint10_linear_377_62970)"/>
</g>
<defs>
<linearGradient id="paint0_linear_377_62970" x1="1367.86" y1="-302.353" x2="76.3908" y2="349.522" gradientUnits="userSpaceOnUse">
<stop stop-color="#FFDF00"/>
<stop offset="0.39" stop-color="#FF0093"/>
<stop offset="0.58" stop-color="#FF24D2"/>
<stop offset="0.75" stop-color="#D942FF"/>
<stop offset="1" stop-color="#A94BFF"/>
</linearGradient>
<linearGradient id="paint1_linear_377_62970" x1="1055.64" y1="492.42" x2="387.904" y2="-444.961" gradientUnits="userSpaceOnUse">
<stop stop-color="#FFDF00"/>
<stop offset="0.39" stop-color="#FF0093"/>
<stop offset="0.58" stop-color="#FF24D2"/>
<stop offset="0.75" stop-color="#D942FF"/>
<stop offset="1" stop-color="#A94BFF"/>
</linearGradient>
<linearGradient id="paint2_linear_377_62970" x1="1028.54" y1="305.385" x2="414.33" y2="-257.506" gradientUnits="userSpaceOnUse">
<stop stop-color="#FFDF00"/>
<stop offset="0.39" stop-color="#FF0093"/>
<stop offset="0.58" stop-color="#FF24D2"/>
<stop offset="0.75" stop-color="#D942FF"/>
<stop offset="1" stop-color="#A94BFF"/>
</linearGradient>
<linearGradient id="paint3_linear_377_62970" x1="917.125" y1="253.43" x2="525.515" y2="-205.965" gradientUnits="userSpaceOnUse">
<stop stop-color="#FFDF00"/>
<stop offset="0.39" stop-color="#FF0093"/>
<stop offset="0.58" stop-color="#FF24D2"/>
<stop offset="0.75" stop-color="#D942FF"/>
<stop offset="1" stop-color="#A94BFF"/>
</linearGradient>
<linearGradient id="paint4_linear_377_62970" x1="764.163" y1="-151.107" x2="678.575" y2="196.779" gradientUnits="userSpaceOnUse">
<stop stop-color="#FFDF00"/>
<stop offset="0.39" stop-color="#FF0093"/>
<stop offset="0.58" stop-color="#FF24D2"/>
<stop offset="0.75" stop-color="#D942FF"/>
<stop offset="1" stop-color="#A94BFF"/>
</linearGradient>
<linearGradient id="paint5_linear_377_62970" x1="1367.03" y1="-304.233" x2="75.586" y2="347.632" gradientUnits="userSpaceOnUse">
<stop stop-color="#A775F7"/>
<stop offset="0.26" stop-color="#6000E1"/>
<stop offset="0.66" stop-color="#3B54EE"/>
<stop offset="0.75" stop-color="#17A2F4"/>
<stop offset="1" stop-color="#1AF387"/>
</linearGradient>
<linearGradient id="paint6_linear_377_62970" x1="1157.23" y1="-353.443" x2="285.349" y2="397.13" gradientUnits="userSpaceOnUse">
<stop stop-color="#A775F7"/>
<stop offset="0.26" stop-color="#6000E1"/>
<stop offset="0.66" stop-color="#3B54EE"/>
<stop offset="0.75" stop-color="#17A2F4"/>
<stop offset="1" stop-color="#1AF387"/>
</linearGradient>
<linearGradient id="paint7_linear_377_62970" x1="926.18" y1="-340.891" x2="517.01" y2="385.278" gradientUnits="userSpaceOnUse">
<stop stop-color="#A775F7"/>
<stop offset="0.26" stop-color="#6000E1"/>
<stop offset="0.66" stop-color="#3B54EE"/>
<stop offset="0.75" stop-color="#17A2F4"/>
<stop offset="1" stop-color="#1AF387"/>
</linearGradient>
<linearGradient id="paint8_linear_377_62970" x1="792.608" y1="-272.336" x2="648.305" y2="314.209" gradientUnits="userSpaceOnUse">
<stop stop-color="#A775F7"/>
<stop offset="0.26" stop-color="#6000E1"/>
<stop offset="0.66" stop-color="#3B54EE"/>
<stop offset="0.75" stop-color="#17A2F4"/>
<stop offset="1" stop-color="#1AF387"/>
</linearGradient>
<linearGradient id="paint9_linear_377_62970" x1="763.34" y1="-152.985" x2="677.753" y2="194.901" gradientUnits="userSpaceOnUse">
<stop stop-color="#A775F7"/>
<stop offset="0.26" stop-color="#6000E1"/>
<stop offset="0.66" stop-color="#3B54EE"/>
<stop offset="0.75" stop-color="#17A2F4"/>
<stop offset="1" stop-color="#1AF387"/>
</linearGradient>
<linearGradient id="paint10_linear_377_62970" x1="0" y1="23" x2="1439" y2="23" gradientUnits="userSpaceOnUse">
<stop stop-color="#111112" stop-opacity="0"/>
<stop offset="0.5" stop-color="#111112" stop-opacity="0.8"/>
<stop offset="1" stop-color="#111112" stop-opacity="0"/>
</linearGradient>
<clipPath id="clip0_377_62970">
<rect width="1440" height="46" fill="white"/>
</clipPath>
<clipPath id="clip1_377_62970">
<rect width="1448.19" height="1451.37" fill="white" transform="translate(-2 -702.899)"/>
</clipPath>
</defs>
</svg>
