<svg width="453" height="124" viewBox="0 0 453 124" fill="none" xmlns="http://www.w3.org/2000/svg">
<path d="M1671.24 843.343C1671.22 843.275 1671.13 843.255 1671.09 843.308L1547.05 981.282C1509.62 1022.97 1509.62 1090.52 1547.05 1132.2L1670.96 1270.04C1671.01 1270.1 1671.1 1270.06 1671.1 1269.99V1269.99C1671.1 1269.92 1671.19 1269.88 1671.24 1269.93L1834.51 1451.53C1893.64 1517.32 1893.64 1623.97 1834.51 1689.75L1671.1 1871.5L1664.11 1879.16L1502.63 2062.77C1444.15 2129.28 1349.34 2129.28 1290.85 2062.77L1129.4 1879.09C1129.35 1879.03 1129.39 1878.95 1129.46 1878.95V1878.95C1129.53 1878.95 1129.57 1878.87 1129.53 1878.81L1007.25 1739.82C970.19 1697.72 910.14 1697.72 873.081 1739.82L750.346 1879.43C750.326 1879.45 750.299 1879.47 750.269 1879.47V1879.47C750.24 1879.47 750.212 1879.48 750.193 1879.5L589.111 2062.77C530.625 2129.28 435.815 2129.28 377.329 2062.77L215.756 1878.95L209.595 1872.54L46.1833 1690.89C-12.9465 1625.1 -12.9465 1518.46 46.1833 1452.67L209.687 1271.23L333.832 1133.13C371.259 1091.45 371.259 1023.9 333.832 982.213L209.917 844.376C209.869 844.322 209.779 844.356 209.779 844.429V844.429C209.779 844.501 209.689 844.536 209.64 844.482L46.3672 662.888C-12.7626 597.1 -12.7626 490.451 46.3672 424.662L209.779 242.915L216.768 235.26L378.34 51.4442C436.826 -15.0688 531.636 -15.0688 590.122 51.4442L751.451 235.191C751.51 235.258 751.462 235.364 751.373 235.364V235.364C751.284 235.364 751.236 235.469 751.295 235.536L873.541 374.493C910.6 416.594 970.65 416.594 1007.71 374.493L1130.38 234.95C1130.44 234.884 1130.53 234.846 1130.61 234.846V234.846C1130.7 234.846 1130.78 234.809 1130.84 234.743L1291.96 51.5478C1350.44 -14.9653 1445.25 -14.9653 1503.74 51.5478L1665.13 235.364L1671.29 241.777L1834.7 423.524C1893.83 489.313 1893.83 595.962 1834.7 661.751L1671.4 843.377C1671.35 843.43 1671.26 843.41 1671.24 843.343V843.343Z" stroke="#FF6719" stroke-width="1.75" stroke-miterlimit="10" stroke-linecap="round"/>
<path d="M1671.24 843.343C1671.22 843.275 1671.13 843.255 1671.09 843.308L1547.05 981.282C1509.62 1022.97 1509.62 1090.52 1547.05 1132.2L1670.96 1270.04C1671.01 1270.1 1671.1 1270.06 1671.1 1269.99V1269.99C1671.1 1269.92 1671.19 1269.88 1671.24 1269.93L1834.51 1451.53C1893.64 1517.32 1893.64 1623.97 1834.51 1689.75L1671.1 1871.5L1664.11 1879.16L1502.63 2062.77C1444.15 2129.28 1349.34 2129.28 1290.85 2062.77L1129.4 1879.09C1129.35 1879.03 1129.39 1878.95 1129.46 1878.95V1878.95C1129.53 1878.95 1129.57 1878.87 1129.53 1878.81L1007.25 1739.82C970.19 1697.72 910.14 1697.72 873.081 1739.82L750.346 1879.43C750.326 1879.45 750.299 1879.47 750.269 1879.47V1879.47C750.24 1879.47 750.212 1879.48 750.193 1879.5L589.111 2062.77C530.625 2129.28 435.815 2129.28 377.329 2062.77L215.756 1878.95L209.595 1872.54L46.1833 1690.89C-12.9465 1625.1 -12.9465 1518.46 46.1833 1452.67L209.687 1271.23L333.832 1133.13C371.259 1091.45 371.259 1023.9 333.832 982.213L209.917 844.376C209.869 844.322 209.779 844.356 209.779 844.429V844.429C209.779 844.501 209.689 844.536 209.64 844.482L46.3672 662.888C-12.7626 597.1 -12.7626 490.451 46.3672 424.662L209.779 242.915L216.768 235.26L378.34 51.4442C436.826 -15.0688 531.636 -15.0688 590.122 51.4442L751.451 235.191C751.51 235.258 751.462 235.364 751.373 235.364V235.364C751.284 235.364 751.236 235.469 751.295 235.536L873.541 374.493C910.6 416.594 970.65 416.594 1007.71 374.493L1130.38 234.95C1130.44 234.884 1130.53 234.846 1130.61 234.846V234.846C1130.7 234.846 1130.78 234.809 1130.84 234.743L1291.96 51.5478C1350.44 -14.9653 1445.25 -14.9653 1503.74 51.5478L1665.13 235.364L1671.29 241.777L1834.7 423.524C1893.83 489.313 1893.83 595.962 1834.7 661.751L1671.4 843.377C1671.35 843.43 1671.26 843.41 1671.24 843.343V843.343Z" stroke="#FF6719" stroke-width="1.75" stroke-miterlimit="10" stroke-linecap="round"/>
<path d="M1664.76 845.256C1664.72 845.159 1664.59 845.139 1664.52 845.218L1541.72 981.903C1504.57 1023.18 1504.57 1090.1 1541.72 1131.38L1664.53 1267.97C1664.58 1268.03 1664.67 1267.99 1664.67 1267.92V1267.92C1664.67 1267.85 1664.76 1267.81 1664.81 1267.87L1826.61 1447.8C1885.19 1512.97 1885.19 1618.69 1826.61 1683.86L1664.67 1863.95L1657.77 1871.5L1497.58 2053.77C1439.64 2119.66 1345.66 2119.66 1287.73 2053.77L1127.75 1871.74C1127.7 1871.69 1127.74 1871.61 1127.81 1871.61V1871.61C1127.88 1871.61 1127.92 1871.52 1127.87 1871.47L1006.79 1733.72C970.099 1691.93 910.602 1691.93 873.91 1733.72L752.339 1871.92C752.281 1871.98 752.198 1872.02 752.11 1872.02V1872.02C752.022 1872.02 751.939 1872.06 751.881 1872.12L592.239 2053.77C534.305 2119.66 440.322 2119.66 382.388 2053.77L222.287 1871.61L216.126 1865.3L54.2773 1685.2C-4.30075 1620.04 -4.30075 1514.32 54.2773 1449.15L216.309 1269.26L339.259 1132.41C376.411 1091.14 376.411 1024.21 339.259 982.937L216.448 846.341C216.399 846.287 216.309 846.322 216.309 846.394V846.394C216.309 846.467 216.22 846.501 216.171 846.447L54.3693 666.509C-4.20878 601.341 -4.20877 495.623 54.3693 430.455L216.309 250.363L223.206 242.812L383.307 60.6508C441.242 -5.24163 535.224 -5.24163 593.158 60.6508L753.138 242.674C753.185 242.727 753.147 242.812 753.076 242.812V242.812C753.004 242.812 752.966 242.896 753.013 242.95L874.186 380.7C910.878 422.49 970.375 422.49 1007.07 380.7L1128.64 242.502C1128.7 242.436 1128.78 242.398 1128.87 242.398V242.398C1128.95 242.398 1129.04 242.36 1129.1 242.294L1288.74 60.7542C1346.67 -5.1382 1440.65 -5.1382 1498.59 60.7542L1658.69 242.915L1664.85 249.225L1826.79 429.317C1885.37 494.485 1885.37 600.203 1826.79 665.371L1665 845.295C1664.93 845.374 1664.8 845.354 1664.76 845.256V845.256Z" stroke="#FF6719" stroke-width="1.75" stroke-miterlimit="10" stroke-linecap="round"/>
<path d="M1664.76 845.256C1664.72 845.159 1664.59 845.139 1664.52 845.218L1541.72 981.903C1504.57 1023.18 1504.57 1090.1 1541.72 1131.38L1664.53 1267.97C1664.58 1268.03 1664.67 1267.99 1664.67 1267.92V1267.92C1664.67 1267.85 1664.76 1267.81 1664.81 1267.87L1826.61 1447.8C1885.19 1512.97 1885.19 1618.69 1826.61 1683.86L1664.67 1863.95L1657.77 1871.5L1497.58 2053.77C1439.64 2119.66 1345.66 2119.66 1287.73 2053.77L1127.75 1871.74C1127.7 1871.69 1127.74 1871.61 1127.81 1871.61V1871.61C1127.88 1871.61 1127.92 1871.52 1127.87 1871.47L1006.79 1733.72C970.099 1691.93 910.602 1691.93 873.91 1733.72L752.339 1871.92C752.281 1871.98 752.198 1872.02 752.11 1872.02V1872.02C752.022 1872.02 751.939 1872.06 751.881 1872.12L592.239 2053.77C534.305 2119.66 440.322 2119.66 382.388 2053.77L222.287 1871.61L216.126 1865.3L54.2773 1685.2C-4.30075 1620.04 -4.30075 1514.32 54.2773 1449.15L216.309 1269.26L339.259 1132.41C376.411 1091.14 376.411 1024.21 339.259 982.937L216.448 846.341C216.399 846.287 216.309 846.322 216.309 846.394V846.394C216.309 846.467 216.22 846.501 216.171 846.447L54.3693 666.509C-4.20878 601.341 -4.20877 495.623 54.3693 430.455L216.309 250.363L223.206 242.812L383.307 60.6508C441.242 -5.24163 535.224 -5.24163 593.158 60.6508L753.138 242.674C753.185 242.727 753.147 242.812 753.076 242.812V242.812C753.004 242.812 752.966 242.896 753.013 242.95L874.186 380.7C910.878 422.49 970.375 422.49 1007.07 380.7L1128.64 242.502C1128.7 242.436 1128.78 242.398 1128.87 242.398V242.398C1128.95 242.398 1129.04 242.36 1129.1 242.294L1288.74 60.7542C1346.67 -5.1382 1440.65 -5.1382 1498.59 60.7542L1658.69 242.915L1664.85 249.225L1826.79 429.317C1885.37 494.485 1885.37 600.203 1826.79 665.371L1665 845.295C1664.93 845.374 1664.8 845.354 1664.76 845.256V845.256Z" stroke="#FF6719" stroke-width="1.75" stroke-miterlimit="10" stroke-linecap="round"/>
<path d="M1658.14 847.17C1658.09 847.093 1657.98 847.083 1657.92 847.149L1536.2 982.627C1499.42 1023.59 1499.42 1089.9 1536.2 1130.76L1657.91 1266.11C1657.96 1266.16 1658.05 1266.13 1658.05 1266.06V1266.06C1658.05 1265.98 1658.13 1265.95 1658.18 1266L1818.51 1444.29C1876.63 1508.94 1876.63 1613.62 1818.51 1678.27L1658.05 1856.71L1651.24 1864.16L1492.52 2044.66C1435.04 2110.04 1341.98 2110.04 1284.51 2044.66L1126 1864.3C1125.95 1864.24 1125.99 1864.16 1126.06 1864.16V1864.16C1126.13 1864.16 1126.17 1864.07 1126.12 1864.02L1006.05 1727.51C969.638 1686.13 910.692 1686.13 874.368 1727.51L753.993 1864.57C753.935 1864.64 753.852 1864.68 753.764 1864.68V1864.68C753.676 1864.68 753.593 1864.71 753.535 1864.78L595.364 2044.66C537.889 2110.04 444.827 2110.04 387.352 2044.66L228.814 1864.26L222.745 1858.05L62.2762 1679.51C4.15794 1614.86 4.15794 1510.18 62.2762 1445.53L222.837 1267.3L344.683 1131.79C381.467 1090.83 381.467 1024.52 344.683 983.662L222.975 848.307C222.927 848.253 222.837 848.287 222.837 848.36V848.36C222.837 848.432 222.747 848.467 222.699 848.413L62.3682 670.129C4.24991 605.478 4.24991 500.795 62.3682 436.144L222.837 257.707L229.642 250.259L388.272 69.7533C445.746 4.37813 538.809 4.37813 596.284 69.7533L754.792 250.121C754.839 250.175 754.801 250.259 754.73 250.259V250.259C754.658 250.259 754.62 250.344 754.667 250.397L874.736 386.906C911.152 428.283 970.098 428.283 1006.42 386.906L1126.89 249.949C1126.95 249.883 1127.03 249.845 1127.12 249.845V249.845C1127.21 249.845 1127.29 249.808 1127.35 249.742L1285.52 69.7534C1342.99 4.37815 1436.06 4.37815 1493.53 69.7534L1652.16 250.259L1658.23 256.466L1818.7 434.903C1876.82 499.554 1876.82 604.237 1818.7 668.888L1658.35 847.191C1658.29 847.258 1658.18 847.247 1658.14 847.17V847.17Z" stroke="#FF6719" stroke-width="1.75" stroke-miterlimit="10" stroke-linecap="round"/>
<path d="M1658.14 847.17C1658.09 847.093 1657.98 847.083 1657.92 847.149L1536.2 982.627C1499.42 1023.59 1499.42 1089.9 1536.2 1130.76L1657.91 1266.11C1657.96 1266.16 1658.05 1266.13 1658.05 1266.06V1266.06C1658.05 1265.98 1658.13 1265.95 1658.18 1266L1818.51 1444.29C1876.63 1508.94 1876.63 1613.62 1818.51 1678.27L1658.05 1856.71L1651.24 1864.16L1492.52 2044.66C1435.04 2110.04 1341.98 2110.04 1284.51 2044.66L1126 1864.3C1125.95 1864.24 1125.99 1864.16 1126.06 1864.16V1864.16C1126.13 1864.16 1126.17 1864.07 1126.12 1864.02L1006.05 1727.51C969.638 1686.13 910.692 1686.13 874.368 1727.51L753.993 1864.57C753.935 1864.64 753.852 1864.68 753.764 1864.68V1864.68C753.676 1864.68 753.593 1864.71 753.535 1864.78L595.364 2044.66C537.889 2110.04 444.827 2110.04 387.352 2044.66L228.814 1864.26L222.745 1858.05L62.2762 1679.51C4.15794 1614.86 4.15794 1510.18 62.2762 1445.53L222.837 1267.3L344.683 1131.79C381.467 1090.83 381.467 1024.52 344.683 983.662L222.975 848.307C222.927 848.253 222.837 848.287 222.837 848.36V848.36C222.837 848.432 222.747 848.467 222.699 848.413L62.3682 670.129C4.24991 605.478 4.24991 500.795 62.3682 436.144L222.837 257.707L229.642 250.259L388.272 69.7533C445.746 4.37813 538.809 4.37813 596.284 69.7533L754.792 250.121C754.839 250.175 754.801 250.259 754.73 250.259V250.259C754.658 250.259 754.62 250.344 754.667 250.397L874.736 386.906C911.152 428.283 970.098 428.283 1006.42 386.906L1126.89 249.949C1126.95 249.883 1127.03 249.845 1127.12 249.845V249.845C1127.21 249.845 1127.29 249.808 1127.35 249.742L1285.52 69.7534C1342.99 4.37815 1436.06 4.37815 1493.53 69.7534L1652.16 250.259L1658.23 256.466L1818.7 434.903C1876.82 499.554 1876.82 604.237 1818.7 668.888L1658.35 847.191C1658.29 847.258 1658.18 847.247 1658.14 847.17V847.17Z" stroke="#FF6719" stroke-width="1.75" stroke-miterlimit="10" stroke-linecap="round"/>
<path d="M1651.56 849.031C1651.54 849.003 1651.49 849.003 1651.47 849.031L1530.77 983.247C1494.36 1023.8 1494.36 1089.48 1530.77 1130.03L1651.38 1264.14C1651.43 1264.2 1651.52 1264.16 1651.52 1264.09V1264.09C1651.52 1264.02 1651.61 1263.98 1651.65 1264.04L1810.51 1440.67C1868.08 1504.7 1868.08 1608.45 1810.51 1672.48L1651.52 1849.26L1644.71 1856.71L1487.46 2035.66C1430.54 2100.42 1338.3 2100.42 1281.38 2035.66L1124.34 1856.95C1124.3 1856.9 1124.33 1856.81 1124.41 1856.81V1856.81C1124.48 1856.81 1124.51 1856.73 1124.47 1856.67L1005.5 1721.41C969.454 1680.44 911.06 1680.44 875.012 1721.41L755.74 1857.12C755.682 1857.19 755.598 1857.23 755.511 1857.23V1857.23C755.423 1857.23 755.34 1857.26 755.282 1857.33L598.582 2035.66C541.659 2100.42 449.424 2100.42 392.502 2035.66L235.251 1856.81L229.182 1850.61L70.2764 1673.82C12.7099 1609.79 12.7099 1506.04 70.2764 1442.01L229.366 1265.44L350.108 1131.06C386.524 1090.52 386.524 1024.83 350.108 984.281L229.504 850.167C229.456 850.113 229.366 850.148 229.366 850.22V850.22C229.366 850.293 229.276 850.328 229.228 850.273L70.3684 673.645C12.8019 609.615 12.8019 505.863 70.3684 441.832L229.366 265.051L236.171 257.603L393.421 78.752C450.344 13.9975 542.579 13.9975 599.502 78.752L756.539 257.361C756.586 257.415 756.548 257.499 756.476 257.499V257.499C756.405 257.499 756.366 257.584 756.414 257.638L875.288 392.905C911.336 433.868 969.73 433.868 1005.78 392.905L1125.14 257.189C1125.2 257.123 1125.28 257.086 1125.37 257.086V257.086C1125.46 257.086 1125.54 257.048 1125.6 256.982L1282.3 78.6486C1339.22 13.8941 1431.46 13.8941 1488.38 78.6486L1645.54 257.499L1651.61 263.706L1810.6 440.488C1868.17 504.518 1868.17 608.27 1810.6 672.301L1651.65 849.031C1651.63 849.059 1651.59 849.059 1651.56 849.031V849.031Z" stroke="#FF6719" stroke-width="1.75" stroke-miterlimit="10" stroke-linecap="round"/>
<path d="M1651.56 849.031C1651.54 849.003 1651.49 849.003 1651.47 849.031L1530.77 983.247C1494.36 1023.8 1494.36 1089.48 1530.77 1130.03L1651.38 1264.14C1651.43 1264.2 1651.52 1264.16 1651.52 1264.09V1264.09C1651.52 1264.02 1651.61 1263.98 1651.65 1264.04L1810.51 1440.67C1868.08 1504.7 1868.08 1608.45 1810.51 1672.48L1651.52 1849.26L1644.71 1856.71L1487.46 2035.66C1430.54 2100.42 1338.3 2100.42 1281.38 2035.66L1124.34 1856.95C1124.3 1856.9 1124.33 1856.81 1124.41 1856.81V1856.81C1124.48 1856.81 1124.51 1856.73 1124.47 1856.67L1005.5 1721.41C969.454 1680.44 911.06 1680.44 875.012 1721.41L755.74 1857.12C755.682 1857.19 755.598 1857.23 755.511 1857.23V1857.23C755.423 1857.23 755.34 1857.26 755.282 1857.33L598.582 2035.66C541.659 2100.42 449.424 2100.42 392.502 2035.66L235.251 1856.81L229.182 1850.61L70.2764 1673.82C12.7099 1609.79 12.7099 1506.04 70.2764 1442.01L229.366 1265.44L350.108 1131.06C386.524 1090.52 386.524 1024.83 350.108 984.281L229.504 850.167C229.456 850.113 229.366 850.148 229.366 850.22V850.22C229.366 850.293 229.276 850.328 229.228 850.273L70.3684 673.645C12.8019 609.615 12.8019 505.863 70.3684 441.832L229.366 265.051L236.171 257.603L393.421 78.752C450.344 13.9975 542.579 13.9975 599.502 78.752L756.539 257.361C756.586 257.415 756.548 257.499 756.476 257.499V257.499C756.405 257.499 756.366 257.584 756.414 257.638L875.288 392.905C911.336 433.868 969.73 433.868 1005.78 392.905L1125.14 257.189C1125.2 257.123 1125.28 257.086 1125.37 257.086V257.086C1125.46 257.086 1125.54 257.048 1125.6 256.982L1282.3 78.6486C1339.22 13.8941 1431.46 13.8941 1488.38 78.6486L1645.54 257.499L1651.61 263.706L1810.6 440.488C1868.17 504.518 1868.17 608.27 1810.6 672.301L1651.65 849.031C1651.63 849.059 1651.59 849.059 1651.56 849.031V849.031Z" stroke="#FF6719" stroke-width="1.75" stroke-miterlimit="10" stroke-linecap="round"/>
<path d="M1645.13 850.946C1645.05 850.888 1644.94 850.898 1644.87 850.971L1525.35 983.972C1489.21 1024.11 1489.21 1089.28 1525.35 1129.41L1644.85 1262.28C1644.9 1262.34 1644.99 1262.3 1644.99 1262.23V1262.23C1644.99 1262.16 1645.08 1262.12 1645.13 1262.18L1802.51 1437.25C1859.53 1500.66 1859.53 1603.48 1802.51 1666.89L1644.99 1842.13L1638.28 1849.47L1482.4 2026.56C1426.03 2090.7 1334.63 2090.7 1278.25 2026.56L1122.6 1849.5C1122.55 1849.45 1122.59 1849.37 1122.66 1849.37V1849.37C1122.73 1849.37 1122.77 1849.28 1122.72 1849.23L1004.95 1715.31C969.272 1674.65 911.337 1674.65 875.657 1715.31L757.397 1849.78C757.339 1849.85 757.255 1849.88 757.168 1849.88V1849.88C757.08 1849.88 756.997 1849.92 756.939 1849.99L601.619 2026.67C545.248 2090.8 453.84 2090.8 397.469 2026.67L241.69 1849.47L235.713 1843.37L78.3704 1668.14C21.3557 1604.73 21.3557 1501.91 78.3704 1438.5L235.989 1263.58L355.628 1130.45C391.768 1090.31 391.768 1025.14 355.628 985.007L236.127 852.031C236.078 851.977 235.989 852.011 235.989 852.084V852.084C235.989 852.157 235.899 852.191 235.85 852.137L78.4624 677.061C21.4477 613.651 21.4477 510.83 78.4624 447.42L235.989 272.189L242.702 264.845L398.481 87.6494C454.852 23.5155 546.259 23.5155 602.63 87.6494L758.288 264.707C758.335 264.761 758.297 264.845 758.225 264.845V264.845C758.154 264.845 758.115 264.93 758.163 264.983L876.025 399.009C911.705 439.662 969.639 439.662 1005.32 399.009L1123.58 264.535C1123.64 264.469 1123.72 264.431 1123.81 264.431V264.431C1123.9 264.431 1123.98 264.394 1124.04 264.328L1279.36 87.6494C1335.73 23.5155 1427.14 23.5155 1483.51 87.6494L1639.29 264.845L1645.26 270.948L1802.79 446.179C1859.8 509.588 1859.8 612.41 1802.79 675.819L1645.38 850.921C1645.31 850.994 1645.2 851.005 1645.13 850.946V850.946Z" stroke="#FF6719" stroke-width="1.75" stroke-miterlimit="10" stroke-linecap="round"/>
<path d="M1645.13 850.946C1645.05 850.888 1644.94 850.898 1644.87 850.971L1525.35 983.972C1489.21 1024.11 1489.21 1089.28 1525.35 1129.41L1644.85 1262.28C1644.9 1262.34 1644.99 1262.3 1644.99 1262.23V1262.23C1644.99 1262.16 1645.08 1262.12 1645.13 1262.18L1802.51 1437.25C1859.53 1500.66 1859.53 1603.48 1802.51 1666.89L1644.99 1842.13L1638.28 1849.47L1482.4 2026.56C1426.03 2090.7 1334.63 2090.7 1278.25 2026.56L1122.6 1849.5C1122.55 1849.45 1122.59 1849.37 1122.66 1849.37V1849.37C1122.73 1849.37 1122.77 1849.28 1122.72 1849.23L1004.95 1715.31C969.272 1674.65 911.337 1674.65 875.657 1715.31L757.397 1849.78C757.339 1849.85 757.255 1849.88 757.168 1849.88V1849.88C757.08 1849.88 756.997 1849.92 756.939 1849.99L601.619 2026.67C545.248 2090.8 453.84 2090.8 397.469 2026.67L241.69 1849.47L235.713 1843.37L78.3704 1668.14C21.3557 1604.73 21.3557 1501.91 78.3704 1438.5L235.989 1263.58L355.628 1130.45C391.768 1090.31 391.768 1025.14 355.628 985.007L236.127 852.031C236.078 851.977 235.989 852.011 235.989 852.084V852.084C235.989 852.157 235.899 852.191 235.85 852.137L78.4624 677.061C21.4477 613.651 21.4477 510.83 78.4624 447.42L235.989 272.189L242.702 264.845L398.481 87.6494C454.852 23.5155 546.259 23.5155 602.63 87.6494L758.288 264.707C758.335 264.761 758.297 264.845 758.225 264.845V264.845C758.154 264.845 758.115 264.93 758.163 264.983L876.025 399.009C911.705 439.662 969.639 439.662 1005.32 399.009L1123.58 264.535C1123.64 264.469 1123.72 264.431 1123.81 264.431V264.431C1123.9 264.431 1123.98 264.394 1124.04 264.328L1279.36 87.6494C1335.73 23.5155 1427.14 23.5155 1483.51 87.6494L1639.29 264.845L1645.26 270.948L1802.79 446.179C1859.8 509.588 1859.8 612.41 1802.79 675.819L1645.38 850.921C1645.31 850.994 1645.2 851.005 1645.13 850.946V850.946Z" stroke="#FF6719" stroke-width="1.75" stroke-miterlimit="10" stroke-linecap="round"/>
<path d="M1638.46 852.912C1638.41 852.857 1638.33 852.856 1638.28 852.911L1519.83 984.697C1484.06 1024.52 1484.06 1088.97 1519.83 1128.79L1638.23 1260.32C1638.28 1260.37 1638.37 1260.34 1638.37 1260.27V1260.27C1638.37 1260.19 1638.46 1260.16 1638.51 1260.21L1794.42 1433.63C1850.89 1496.42 1850.89 1598.31 1794.42 1661.1L1638.37 1834.68L1631.75 1841.92L1477.44 2017.46C1421.62 2080.97 1331.04 2080.97 1275.22 2017.46L1120.94 1842.16C1120.9 1842.11 1120.93 1842.02 1121.01 1842.02V1842.02C1121.08 1842.02 1121.12 1841.94 1121.07 1841.88L1004.31 1709.1C968.906 1668.86 911.615 1668.86 876.211 1709.1L759.145 1842.33C759.088 1842.4 759.004 1842.44 758.917 1842.44V1842.44C758.829 1842.44 758.745 1842.47 758.688 1842.54L604.931 2017.56C549.111 2081.08 458.532 2081.08 402.712 2017.56L248.405 1842.02L242.519 1835.92L86.4644 1662.34C30.0014 1599.55 30.0014 1497.66 86.4644 1434.87L242.611 1261.51L361.147 1129.62C396.919 1089.79 396.919 1025.35 361.147 985.524L242.842 853.893C242.793 853.839 242.703 853.873 242.703 853.946V853.946C242.703 854.019 242.614 854.053 242.565 853.999L86.6484 680.578C30.1854 617.789 30.1854 515.898 86.6484 453.109L242.703 279.534L249.324 272.293L403.54 96.7525C459.359 33.2393 549.939 33.2393 605.758 96.7525L759.945 272.155C759.992 272.209 759.954 272.293 759.882 272.293V272.293C759.811 272.293 759.772 272.378 759.82 272.431L876.578 405.216C911.983 445.455 969.273 445.455 1004.68 405.216L1121.83 271.983C1121.89 271.917 1121.98 271.879 1122.06 271.879V271.879C1122.15 271.879 1122.23 271.842 1122.29 271.776L1276.14 96.7525C1331.96 33.2393 1422.54 33.2393 1478.36 96.7525L1632.67 272.293L1638.55 278.396L1794.61 451.972C1851.07 514.761 1851.07 616.651 1794.61 679.44L1638.65 852.912C1638.6 852.967 1638.51 852.967 1638.46 852.912V852.912Z" stroke="#FF6719" stroke-width="1.75" stroke-miterlimit="10" stroke-linecap="round"/>
<path d="M1638.46 852.912C1638.41 852.857 1638.33 852.856 1638.28 852.911L1519.83 984.697C1484.06 1024.52 1484.06 1088.97 1519.83 1128.79L1638.23 1260.32C1638.28 1260.37 1638.37 1260.34 1638.37 1260.27V1260.27C1638.37 1260.19 1638.46 1260.16 1638.51 1260.21L1794.42 1433.63C1850.89 1496.42 1850.89 1598.31 1794.42 1661.1L1638.37 1834.68L1631.75 1841.92L1477.44 2017.46C1421.62 2080.97 1331.04 2080.97 1275.22 2017.46L1120.94 1842.16C1120.9 1842.11 1120.93 1842.02 1121.01 1842.02V1842.02C1121.08 1842.02 1121.12 1841.94 1121.07 1841.88L1004.31 1709.1C968.906 1668.86 911.615 1668.86 876.211 1709.1L759.145 1842.33C759.088 1842.4 759.004 1842.44 758.917 1842.44V1842.44C758.829 1842.44 758.745 1842.47 758.688 1842.54L604.931 2017.56C549.111 2081.08 458.532 2081.08 402.712 2017.56L248.405 1842.02L242.519 1835.92L86.4644 1662.34C30.0014 1599.55 30.0014 1497.66 86.4644 1434.87L242.611 1261.51L361.147 1129.62C396.919 1089.79 396.919 1025.35 361.147 985.524L242.842 853.893C242.793 853.839 242.703 853.873 242.703 853.946V853.946C242.703 854.019 242.614 854.053 242.565 853.999L86.6484 680.578C30.1854 617.789 30.1854 515.898 86.6484 453.109L242.703 279.534L249.324 272.293L403.54 96.7525C459.359 33.2393 549.939 33.2393 605.758 96.7525L759.945 272.155C759.992 272.209 759.954 272.293 759.882 272.293V272.293C759.811 272.293 759.772 272.378 759.82 272.431L876.578 405.216C911.983 445.455 969.273 445.455 1004.68 405.216L1121.83 271.983C1121.89 271.917 1121.98 271.879 1122.06 271.879V271.879C1122.15 271.879 1122.23 271.842 1122.29 271.776L1276.14 96.7525C1331.96 33.2393 1422.54 33.2393 1478.36 96.7525L1632.67 272.293L1638.55 278.396L1794.61 451.972C1851.07 514.761 1851.07 616.651 1794.61 679.44L1638.65 852.912C1638.6 852.967 1638.51 852.967 1638.46 852.912V852.912Z" stroke="#FF6719" stroke-width="1.75" stroke-miterlimit="10" stroke-linecap="round"/>
<path d="M1631.88 854.824C1631.86 854.756 1631.78 854.736 1631.73 854.789L1514.41 985.315C1479 1024.73 1479 1088.65 1514.41 1128.06L1631.61 1258.45C1631.66 1258.51 1631.75 1258.47 1631.75 1258.4V1258.4C1631.75 1258.33 1631.84 1258.29 1631.88 1258.35L1786.33 1430.11C1842.24 1492.39 1842.24 1593.24 1786.33 1655.51L1631.75 1827.43L1625.12 1834.68L1472.29 2008.56C1416.93 2071.45 1327.27 2071.45 1271.91 2008.56L1119.19 1834.81C1119.15 1834.76 1119.19 1834.68 1119.26 1834.68V1834.68C1119.33 1834.68 1119.37 1834.59 1119.32 1834.54L1003.66 1702.99C968.628 1663.17 911.797 1663.17 876.76 1702.99L760.891 1834.99C760.833 1835.05 760.749 1835.09 760.662 1835.09V1835.09C760.574 1835.09 760.491 1835.13 760.433 1835.19L608.055 2008.56C552.696 2071.45 463.036 2071.45 407.676 2008.56L254.84 1834.68L248.954 1828.68L94.3709 1656.76C38.4597 1594.48 38.4597 1493.63 94.3709 1431.36L249.046 1259.64L366.478 1129C401.883 1089.58 401.883 1025.66 366.478 986.246L249.277 855.857C249.228 855.803 249.138 855.837 249.138 855.91V855.91C249.138 855.982 249.049 856.017 249 855.963L94.5549 684.196C38.6436 621.924 38.6436 521.069 94.5549 458.797L249.138 286.877L255.759 279.636L408.596 105.75C463.955 42.8576 553.615 42.8576 608.975 105.75L761.69 279.498C761.737 279.551 761.699 279.636 761.627 279.636V279.636C761.556 279.636 761.518 279.72 761.565 279.774L877.128 411.317C912.165 451.142 968.995 451.142 1004.03 411.317L1120.09 279.326C1120.14 279.26 1120.23 279.222 1120.31 279.222V279.222C1120.4 279.222 1120.49 279.184 1120.54 279.118L1272.92 105.75C1328.28 42.8576 1417.94 42.8576 1473.3 105.75L1626.14 279.636L1632.02 285.635L1786.61 457.556C1842.52 519.828 1842.52 620.683 1786.61 682.955L1632.04 854.858C1631.99 854.911 1631.9 854.891 1631.88 854.824V854.824Z" stroke="#FF6719" stroke-width="1.75" stroke-miterlimit="10" stroke-linecap="round"/>
<path d="M1631.88 854.824C1631.86 854.756 1631.78 854.736 1631.73 854.789L1514.41 985.315C1479 1024.73 1479 1088.65 1514.41 1128.06L1631.61 1258.45C1631.66 1258.51 1631.75 1258.47 1631.75 1258.4V1258.4C1631.75 1258.33 1631.84 1258.29 1631.88 1258.35L1786.33 1430.11C1842.24 1492.39 1842.24 1593.24 1786.33 1655.51L1631.75 1827.43L1625.12 1834.68L1472.29 2008.56C1416.93 2071.45 1327.27 2071.45 1271.91 2008.56L1119.19 1834.81C1119.15 1834.76 1119.19 1834.68 1119.26 1834.68V1834.68C1119.33 1834.68 1119.37 1834.59 1119.32 1834.54L1003.66 1702.99C968.628 1663.17 911.797 1663.17 876.76 1702.99L760.891 1834.99C760.833 1835.05 760.749 1835.09 760.662 1835.09V1835.09C760.574 1835.09 760.491 1835.13 760.433 1835.19L608.055 2008.56C552.696 2071.45 463.036 2071.45 407.676 2008.56L254.84 1834.68L248.954 1828.68L94.3709 1656.76C38.4597 1594.48 38.4597 1493.63 94.3709 1431.36L249.046 1259.64L366.478 1129C401.883 1089.58 401.883 1025.66 366.478 986.246L249.277 855.857C249.228 855.803 249.138 855.837 249.138 855.91V855.91C249.138 855.982 249.049 856.017 249 855.963L94.5549 684.196C38.6436 621.924 38.6436 521.069 94.5549 458.797L249.138 286.877L255.759 279.636L408.596 105.75C463.955 42.8576 553.615 42.8576 608.975 105.75L761.69 279.498C761.737 279.551 761.699 279.636 761.627 279.636V279.636C761.556 279.636 761.518 279.72 761.565 279.774L877.128 411.317C912.165 451.142 968.995 451.142 1004.03 411.317L1120.09 279.326C1120.14 279.26 1120.23 279.222 1120.31 279.222V279.222C1120.4 279.222 1120.49 279.184 1120.54 279.118L1272.92 105.75C1328.28 42.8576 1417.94 42.8576 1473.3 105.75L1626.14 279.636L1632.02 285.635L1786.61 457.556C1842.52 519.828 1842.52 620.683 1786.61 682.955L1632.04 854.858C1631.99 854.911 1631.9 854.891 1631.88 854.824V854.824Z" stroke="#FF6719" stroke-width="1.75" stroke-miterlimit="10" stroke-linecap="round"/>
<path d="M1625.26 856.74C1625.24 856.691 1625.18 856.681 1625.14 856.721L1508.89 986.042C1473.76 1025.04 1473.76 1088.35 1508.89 1127.45L1624.99 1256.6C1625.03 1256.65 1625.12 1256.62 1625.12 1256.54V1256.54C1625.12 1256.47 1625.21 1256.44 1625.26 1256.49L1778.24 1426.6C1833.69 1488.25 1833.69 1588.18 1778.24 1649.83L1625.22 1820.09L1618.69 1827.23L1467.32 1999.46C1412.51 2061.84 1323.68 2061.84 1268.87 1999.46L1117.63 1827.37C1117.58 1827.31 1117.62 1827.23 1117.69 1827.23V1827.23C1117.77 1827.23 1117.8 1827.15 1117.76 1827.09L1003.11 1696.89C968.444 1657.38 912.165 1657.38 877.404 1696.89L762.516 1827.57C762.477 1827.62 762.421 1827.64 762.363 1827.64V1827.64C762.305 1827.64 762.249 1827.67 762.21 1827.71L611.182 1999.46C556.374 2061.84 467.542 2061.84 412.734 1999.46L261.369 1827.23L255.576 1821.23L102.464 1650.97C47.0121 1589.31 47.0122 1489.39 102.464 1427.74L255.668 1257.68L371.996 1128.27C407.125 1089.28 407.125 1025.97 371.996 986.87L255.863 857.683C255.827 857.642 255.76 857.668 255.76 857.723V857.723C255.76 857.777 255.692 857.803 255.656 857.763L102.648 687.613C47.1961 625.962 47.1961 526.037 102.648 464.386L255.76 294.121L262.289 286.983L413.654 114.856C468.461 52.4807 557.294 52.4807 612.102 114.856L763.345 286.948C763.392 287.002 763.354 287.087 763.283 287.087V287.087C763.211 287.087 763.173 287.171 763.22 287.225L877.772 417.527C912.441 457.041 968.72 457.041 1003.48 417.527L1118.46 286.742C1118.5 286.698 1118.55 286.673 1118.61 286.673V286.673C1118.67 286.673 1118.73 286.648 1118.77 286.604L1269.7 114.856C1324.51 52.4807 1413.34 52.4807 1468.15 114.856L1619.52 287.087L1625.31 293.086L1778.42 463.351C1833.87 525.003 1833.87 624.927 1778.42 686.578L1625.38 856.759C1625.35 856.799 1625.28 856.789 1625.26 856.74V856.74Z" stroke="#E55D19" stroke-width="1.75" stroke-miterlimit="10" stroke-linecap="round"/>
<path d="M1629.26 866.74C1629.24 866.691 1629.18 866.681 1629.14 866.721L1512.89 996.042C1477.76 1035.04 1477.76 1098.35 1512.89 1137.45L1628.99 1266.6C1629.03 1266.65 1629.12 1266.62 1629.12 1266.54V1266.54C1629.12 1266.47 1629.21 1266.44 1629.26 1266.49L1782.24 1436.6C1837.69 1498.25 1837.69 1598.18 1782.24 1659.83L1629.22 1830.09L1622.69 1837.23L1471.32 2009.46C1416.51 2071.84 1327.68 2071.84 1272.87 2009.46L1121.63 1837.37C1121.58 1837.31 1121.62 1837.23 1121.69 1837.23V1837.23C1121.77 1837.23 1121.8 1837.15 1121.76 1837.09L1007.11 1706.89C972.444 1667.38 916.165 1667.38 881.404 1706.89L766.516 1837.57C766.477 1837.62 766.421 1837.64 766.363 1837.64V1837.64C766.305 1837.64 766.249 1837.67 766.21 1837.71L615.182 2009.46C560.374 2071.84 471.542 2071.84 416.734 2009.46L265.369 1837.23L259.576 1831.23L106.464 1660.97C51.0121 1599.31 51.0122 1499.39 106.464 1437.74L259.668 1267.68L375.996 1138.27C411.125 1099.28 411.125 1035.97 375.996 996.87L259.863 867.683C259.827 867.642 259.76 867.668 259.76 867.723V867.723C259.76 867.777 259.692 867.803 259.656 867.763L106.648 697.613C51.1961 635.962 51.1961 536.037 106.648 474.386L259.76 304.121L266.289 296.983L417.654 124.856C472.461 62.4807 561.294 62.4807 616.102 124.856L767.345 296.948C767.392 297.002 767.354 297.087 767.283 297.087V297.087C767.211 297.087 767.173 297.171 767.22 297.225L881.772 427.527C916.441 467.041 972.72 467.041 1007.48 427.527L1122.46 296.742C1122.5 296.698 1122.55 296.673 1122.61 296.673V296.673C1122.67 296.673 1122.73 296.648 1122.77 296.604L1273.7 124.856C1328.51 62.4807 1417.34 62.4807 1472.15 124.856L1623.52 297.087L1629.31 303.086L1782.42 473.351C1837.87 535.003 1837.87 634.927 1782.42 696.578L1629.38 866.759C1629.35 866.799 1629.28 866.789 1629.26 866.74V866.74Z" stroke="#E55D19" stroke-width="1.75" stroke-miterlimit="10" stroke-linecap="round"/>
<path d="M1612.15 860.671C1612.11 860.573 1611.98 860.553 1611.91 860.632L1498.03 987.387C1463.64 1025.66 1463.64 1087.73 1498.03 1126L1611.95 1252.7C1611.99 1252.74 1612.06 1252.72 1612.06 1252.66V1252.66C1612.06 1252.61 1612.13 1252.58 1612.16 1252.62L1762.23 1419.57C1816.58 1480.08 1816.58 1578.04 1762.23 1638.55L1612.06 1805.61L1605.62 1812.65L1457.11 1981.57C1403.31 2042.7 1316.23 2042.7 1262.43 1981.57L1114.04 1812.78C1113.99 1812.73 1114.03 1812.65 1114.1 1812.65V1812.65C1114.17 1812.65 1114.21 1812.56 1114.16 1812.51L1001.91 1684.58C967.884 1645.9 912.708 1645.9 878.683 1684.58L765.91 1812.78C765.872 1812.83 765.816 1812.85 765.758 1812.85V1812.85C765.699 1812.85 765.643 1812.88 765.605 1812.92L617.519 1981.36C563.723 2042.49 476.638 2042.49 422.841 1981.36L274.327 1812.44L268.626 1806.54L118.456 1639.48C64.1083 1578.97 64.1083 1481.01 118.456 1420.5L268.718 1253.65L382.747 1126.72C417.14 1088.45 417.14 1026.38 382.747 988.111L268.821 861.407C268.785 861.366 268.718 861.392 268.718 861.446V861.446C268.718 861.501 268.65 861.527 268.614 861.486L118.548 694.543C64.2003 634.03 64.2003 536.07 118.548 475.557L268.81 308.809L275.247 301.775L423.761 132.958C477.557 71.8238 564.643 71.8238 618.439 132.958L766.832 301.74C766.879 301.794 766.841 301.878 766.769 301.878V301.878C766.697 301.878 766.659 301.963 766.707 302.016L878.959 429.732C912.984 468.42 968.16 468.42 1002.18 429.732L1114.96 301.534C1115 301.49 1115.05 301.465 1115.11 301.465V301.465C1115.17 301.465 1115.22 301.439 1115.26 301.395L1263.35 132.958C1317.15 71.8238 1404.23 71.8238 1458.03 132.958L1606.54 301.878L1612.24 307.774L1762.41 474.833C1816.76 535.346 1816.76 633.306 1762.41 693.819L1612.39 860.709C1612.32 860.788 1612.19 860.768 1612.15 860.671V860.671Z" stroke="#FF6719" stroke-width="1.75" stroke-miterlimit="10" stroke-linecap="round"/>
<path d="M1612.15 860.671C1612.11 860.573 1611.98 860.553 1611.91 860.632L1498.03 987.387C1463.64 1025.66 1463.64 1087.73 1498.03 1126L1611.95 1252.7C1611.99 1252.74 1612.06 1252.72 1612.06 1252.66V1252.66C1612.06 1252.61 1612.13 1252.58 1612.16 1252.62L1762.23 1419.57C1816.58 1480.08 1816.58 1578.04 1762.23 1638.55L1612.06 1805.61L1605.62 1812.65L1457.11 1981.57C1403.31 2042.7 1316.23 2042.7 1262.43 1981.57L1114.04 1812.78C1113.99 1812.73 1114.03 1812.65 1114.1 1812.65V1812.65C1114.17 1812.65 1114.21 1812.56 1114.16 1812.51L1001.91 1684.58C967.884 1645.9 912.708 1645.9 878.683 1684.58L765.91 1812.78C765.872 1812.83 765.816 1812.85 765.758 1812.85V1812.85C765.699 1812.85 765.643 1812.88 765.605 1812.92L617.519 1981.36C563.723 2042.49 476.638 2042.49 422.841 1981.36L274.327 1812.44L268.626 1806.54L118.456 1639.48C64.1083 1578.97 64.1083 1481.01 118.456 1420.5L268.718 1253.65L382.747 1126.72C417.14 1088.45 417.14 1026.38 382.747 988.111L268.821 861.407C268.785 861.366 268.718 861.392 268.718 861.446V861.446C268.718 861.501 268.65 861.527 268.614 861.486L118.548 694.543C64.2003 634.03 64.2003 536.07 118.548 475.557L268.81 308.809L275.247 301.775L423.761 132.958C477.557 71.8238 564.643 71.8238 618.439 132.958L766.832 301.74C766.879 301.794 766.841 301.878 766.769 301.878V301.878C766.697 301.878 766.659 301.963 766.707 302.016L878.959 429.732C912.984 468.42 968.16 468.42 1002.18 429.732L1114.96 301.534C1115 301.49 1115.05 301.465 1115.11 301.465V301.465C1115.17 301.465 1115.22 301.439 1115.26 301.395L1263.35 132.958C1317.15 71.8238 1404.23 71.8238 1458.03 132.958L1606.54 301.878L1612.24 307.774L1762.41 474.833C1816.76 535.346 1816.76 633.306 1762.41 693.819L1612.39 860.709C1612.32 860.788 1612.19 860.768 1612.15 860.671V860.671Z" stroke="#FF6719" stroke-width="1.75" stroke-miterlimit="10" stroke-linecap="round"/>
<path d="M1605.58 862.533C1605.56 862.484 1605.5 862.474 1605.46 862.513L1492.61 988.111C1458.5 1026.07 1458.5 1087.52 1492.61 1125.38L1605.34 1250.84C1605.38 1250.88 1605.45 1250.86 1605.45 1250.8V1250.8C1605.45 1250.75 1605.51 1250.72 1605.55 1250.76L1754.14 1416.05C1807.94 1475.94 1807.94 1572.97 1754.14 1632.86L1605.45 1798.16L1599.1 1805.09L1452.06 1972.36C1398.81 2032.87 1312.56 2032.87 1259.31 1972.36L1112.39 1805.23C1112.34 1805.18 1112.38 1805.09 1112.45 1805.09V1805.09C1112.52 1805.09 1112.56 1805.01 1112.52 1804.96L1001.27 1678.48C967.525 1640.1 912.902 1640.1 879.245 1678.48L767.667 1805.44C767.628 1805.48 767.573 1805.51 767.514 1805.51V1805.51C767.456 1805.51 767.4 1805.53 767.361 1805.58L620.655 1972.36C567.411 2032.87 481.153 2032.87 427.909 1972.36L280.866 1805.09L275.256 1799.3L126.558 1633.9C72.7619 1574 72.7619 1476.98 126.558 1417.08L275.348 1251.89L388.274 1126.21C422.391 1088.24 422.391 1026.8 388.274 988.938L275.452 863.476C275.415 863.435 275.348 863.461 275.348 863.515V863.515C275.348 863.57 275.281 863.596 275.244 863.555L126.742 698.371C72.9458 638.478 72.9458 541.45 126.742 481.557L275.44 316.153L281.785 309.223L428.828 141.958C482.073 81.4441 568.33 81.4441 621.575 141.958L768.496 309.085C768.543 309.139 768.505 309.223 768.434 309.223V309.223C768.362 309.223 768.324 309.307 768.371 309.361L879.612 435.836C913.361 474.212 967.985 474.212 1001.64 435.836L1113.31 308.878C1113.35 308.834 1113.41 308.809 1113.46 308.809V308.809C1113.52 308.809 1113.58 308.784 1113.62 308.74L1260.23 141.958C1313.48 81.4441 1399.73 81.4441 1452.98 141.958L1600.02 309.223L1605.63 315.016L1754.33 480.419C1808.13 540.312 1808.13 637.34 1754.33 697.233L1605.71 862.552C1605.67 862.592 1605.61 862.581 1605.58 862.533V862.533Z" stroke="#FF6719" stroke-width="1.75" stroke-miterlimit="10" stroke-linecap="round"/>
<path d="M1605.58 862.533C1605.56 862.484 1605.5 862.474 1605.46 862.513L1492.61 988.111C1458.5 1026.07 1458.5 1087.52 1492.61 1125.38L1605.34 1250.84C1605.38 1250.88 1605.45 1250.86 1605.45 1250.8V1250.8C1605.45 1250.75 1605.51 1250.72 1605.55 1250.76L1754.14 1416.05C1807.94 1475.94 1807.94 1572.97 1754.14 1632.86L1605.45 1798.16L1599.1 1805.09L1452.06 1972.36C1398.81 2032.87 1312.56 2032.87 1259.31 1972.36L1112.39 1805.23C1112.34 1805.18 1112.38 1805.09 1112.45 1805.09V1805.09C1112.52 1805.09 1112.56 1805.01 1112.52 1804.96L1001.27 1678.48C967.525 1640.1 912.902 1640.1 879.245 1678.48L767.667 1805.44C767.628 1805.48 767.573 1805.51 767.514 1805.51V1805.51C767.456 1805.51 767.4 1805.53 767.361 1805.58L620.655 1972.36C567.411 2032.87 481.153 2032.87 427.909 1972.36L280.866 1805.09L275.256 1799.3L126.558 1633.9C72.7619 1574 72.7619 1476.98 126.558 1417.08L275.348 1251.89L388.274 1126.21C422.391 1088.24 422.391 1026.8 388.274 988.938L275.452 863.476C275.415 863.435 275.348 863.461 275.348 863.515V863.515C275.348 863.57 275.281 863.596 275.244 863.555L126.742 698.371C72.9458 638.478 72.9458 541.45 126.742 481.557L275.44 316.153L281.785 309.223L428.828 141.958C482.073 81.4441 568.33 81.4441 621.575 141.958L768.496 309.085C768.543 309.139 768.505 309.223 768.434 309.223V309.223C768.362 309.223 768.324 309.307 768.371 309.361L879.612 435.836C913.361 474.212 967.985 474.212 1001.64 435.836L1113.31 308.878C1113.35 308.834 1113.41 308.809 1113.46 308.809V308.809C1113.52 308.809 1113.58 308.784 1113.62 308.74L1260.23 141.958C1313.48 81.4441 1399.73 81.4441 1452.98 141.958L1600.02 309.223L1605.63 315.016L1754.33 480.419C1808.13 540.312 1808.13 637.34 1754.33 697.233L1605.71 862.552C1605.67 862.592 1605.61 862.581 1605.58 862.533V862.533Z" stroke="#FF6719" stroke-width="1.75" stroke-miterlimit="10" stroke-linecap="round"/>
<path d="M1598.97 864.392C1598.94 864.344 1598.88 864.334 1598.84 864.373L1487.1 988.73C1453.35 1026.28 1453.35 1087.1 1487.1 1124.65L1598.82 1248.87C1598.85 1248.91 1598.92 1248.89 1598.92 1248.83V1248.83C1598.92 1248.78 1598.99 1248.75 1599.02 1248.79L1746.15 1412.43C1799.39 1471.7 1799.39 1567.8 1746.15 1627.07L1598.92 1790.82L1592.67 1797.64L1447.09 1963.25C1394.4 2023.15 1308.97 2023.15 1256.28 1963.25L1110.83 1797.78C1110.78 1797.73 1110.82 1797.64 1110.89 1797.64V1797.64C1110.96 1797.64 1111 1797.56 1110.95 1797.51L1000.82 1672.27C967.435 1634.31 913.363 1634.31 879.982 1672.27L769.324 1797.99C769.285 1798.03 769.23 1798.06 769.171 1798.06V1798.06C769.113 1798.06 769.057 1798.08 769.018 1798.13L623.875 1963.36C571.183 2023.25 485.753 2023.25 433.06 1963.36L287.488 1797.75L281.879 1792.06L134.652 1628.31C81.4077 1569.04 81.4077 1472.94 134.652 1413.67L281.971 1250.13L393.793 1125.69C427.542 1088.14 427.542 1027.31 393.793 989.764L282.075 865.439C282.038 865.398 281.971 865.424 281.971 865.479V865.479C281.971 865.533 281.904 865.559 281.867 865.518L134.744 701.885C81.4996 642.613 81.4996 546.516 134.744 487.244L281.971 323.495L288.224 316.668L433.888 151.058C486.58 91.1652 572.01 91.1652 624.703 151.058L770.153 316.53C770.2 316.584 770.162 316.668 770.091 316.668V316.668C770.019 316.668 769.981 316.753 770.028 316.806L880.166 442.04C913.547 480.003 967.619 480.003 1001 442.04L1111.57 316.324C1111.61 316.28 1111.66 316.254 1111.72 316.254V316.254C1111.78 316.254 1111.83 316.229 1111.87 316.185L1257.01 151.058C1309.71 91.1653 1395.14 91.1653 1447.83 151.058L1593.49 316.668L1599.1 322.358L1746.33 486.106C1799.57 545.378 1799.57 641.475 1746.33 700.748L1599.09 864.412C1599.05 864.451 1598.99 864.441 1598.97 864.392V864.392Z" stroke="#FF6719" stroke-width="1.75" stroke-miterlimit="10" stroke-linecap="round"/>
<path d="M1598.97 864.392C1598.94 864.344 1598.88 864.334 1598.84 864.373L1487.1 988.73C1453.35 1026.28 1453.35 1087.1 1487.1 1124.65L1598.82 1248.87C1598.85 1248.91 1598.92 1248.89 1598.92 1248.83V1248.83C1598.92 1248.78 1598.99 1248.75 1599.02 1248.79L1746.15 1412.43C1799.39 1471.7 1799.39 1567.8 1746.15 1627.07L1598.92 1790.82L1592.67 1797.64L1447.09 1963.25C1394.4 2023.15 1308.97 2023.15 1256.28 1963.25L1110.83 1797.78C1110.78 1797.73 1110.82 1797.64 1110.89 1797.64V1797.64C1110.96 1797.64 1111 1797.56 1110.95 1797.51L1000.82 1672.27C967.435 1634.31 913.363 1634.31 879.982 1672.27L769.324 1797.99C769.285 1798.03 769.23 1798.06 769.171 1798.06V1798.06C769.113 1798.06 769.057 1798.08 769.018 1798.13L623.875 1963.36C571.183 2023.25 485.753 2023.25 433.06 1963.36L287.488 1797.75L281.879 1792.06L134.652 1628.31C81.4077 1569.04 81.4077 1472.94 134.652 1413.67L281.971 1250.13L393.793 1125.69C427.542 1088.14 427.542 1027.31 393.793 989.764L282.075 865.439C282.038 865.398 281.971 865.424 281.971 865.479V865.479C281.971 865.533 281.904 865.559 281.867 865.518L134.744 701.885C81.4996 642.613 81.4996 546.516 134.744 487.244L281.971 323.495L288.224 316.668L433.888 151.058C486.58 91.1652 572.01 91.1652 624.703 151.058L770.153 316.53C770.2 316.584 770.162 316.668 770.091 316.668V316.668C770.019 316.668 769.981 316.753 770.028 316.806L880.166 442.04C913.547 480.003 967.619 480.003 1001 442.04L1111.57 316.324C1111.61 316.28 1111.66 316.254 1111.72 316.254V316.254C1111.78 316.254 1111.83 316.229 1111.87 316.185L1257.01 151.058C1309.71 91.1653 1395.14 91.1653 1447.83 151.058L1593.49 316.668L1599.1 322.358L1746.33 486.106C1799.57 545.378 1799.57 641.475 1746.33 700.748L1599.09 864.412C1599.05 864.451 1598.99 864.441 1598.97 864.392V864.392Z" stroke="#FF6719" stroke-width="1.75" stroke-miterlimit="10" stroke-linecap="round"/>
<path d="M1592.47 866.361C1592.42 866.305 1592.34 866.305 1592.29 866.36L1481.66 989.456C1448.28 1026.59 1448.28 1086.9 1481.66 1124.03L1592.19 1247.01C1592.22 1247.05 1592.29 1247.03 1592.29 1246.97V1246.97C1592.29 1246.92 1592.36 1246.89 1592.39 1246.93L1738.04 1408.91C1790.83 1467.56 1790.83 1562.73 1738.04 1621.49L1592.29 1783.58L1586.04 1790.41L1441.94 1954.36C1389.79 2013.74 1305.19 2013.74 1252.96 1954.36L1108.98 1790.54C1108.93 1790.49 1108.97 1790.41 1109.04 1790.41V1790.41C1109.11 1790.41 1109.15 1790.32 1109.11 1790.27L1000.07 1666.28C967.058 1628.73 913.446 1628.73 880.432 1666.28L771.062 1790.65C771.023 1790.69 770.967 1790.72 770.909 1790.72V1790.72C770.85 1790.72 770.795 1790.74 770.756 1790.79L626.993 1954.26C574.852 2013.63 490.249 2013.63 438.016 1954.26L293.916 1790.3L288.399 1784.61L142.643 1622.52C89.8585 1563.87 89.8585 1468.7 142.643 1409.95L288.491 1248.06L399.21 1124.96C432.591 1087.83 432.591 1027.52 399.21 990.387L288.594 867.407C288.558 867.366 288.491 867.392 288.491 867.447V867.447C288.491 867.501 288.423 867.527 288.387 867.486L142.735 705.509C89.9505 646.857 89.9505 551.691 142.735 492.936L288.583 330.843L294.836 324.015L438.936 160.06C491.077 100.685 575.679 100.685 627.912 160.06L771.891 323.877C771.938 323.931 771.9 324.015 771.829 324.015V324.015C771.757 324.015 771.719 324.1 771.766 324.154L880.8 448.146C913.814 485.695 967.426 485.695 1000.44 448.146L1109.9 323.671C1109.94 323.627 1110 323.602 1110.05 323.602V323.602C1110.11 323.602 1110.17 323.577 1110.21 323.533L1253.97 160.06C1306.11 100.685 1390.71 100.685 1442.95 160.06L1587.05 324.015L1592.57 329.705L1738.32 491.798C1791.11 550.45 1791.11 645.616 1738.32 704.371L1592.66 866.361C1592.61 866.416 1592.52 866.416 1592.47 866.361V866.361Z" stroke="#FF6719" stroke-width="1.75" stroke-miterlimit="10" stroke-linecap="round"/>
<path d="M1592.47 866.361C1592.42 866.305 1592.34 866.305 1592.29 866.36L1481.66 989.456C1448.28 1026.59 1448.28 1086.9 1481.66 1124.03L1592.19 1247.01C1592.22 1247.05 1592.29 1247.03 1592.29 1246.97V1246.97C1592.29 1246.92 1592.36 1246.89 1592.39 1246.93L1738.04 1408.91C1790.83 1467.56 1790.83 1562.73 1738.04 1621.49L1592.29 1783.58L1586.04 1790.41L1441.94 1954.36C1389.79 2013.74 1305.19 2013.74 1252.96 1954.36L1108.98 1790.54C1108.93 1790.49 1108.97 1790.41 1109.04 1790.41V1790.41C1109.11 1790.41 1109.15 1790.32 1109.11 1790.27L1000.07 1666.28C967.058 1628.73 913.446 1628.73 880.432 1666.28L771.062 1790.65C771.023 1790.69 770.967 1790.72 770.909 1790.72V1790.72C770.85 1790.72 770.795 1790.74 770.756 1790.79L626.993 1954.26C574.852 2013.63 490.249 2013.63 438.016 1954.26L293.916 1790.3L288.399 1784.61L142.643 1622.52C89.8585 1563.87 89.8585 1468.7 142.643 1409.95L288.491 1248.06L399.21 1124.96C432.591 1087.83 432.591 1027.52 399.21 990.387L288.594 867.407C288.558 867.366 288.491 867.392 288.491 867.447V867.447C288.491 867.501 288.423 867.527 288.387 867.486L142.735 705.509C89.9505 646.857 89.9505 551.691 142.735 492.936L288.583 330.843L294.836 324.015L438.936 160.06C491.077 100.685 575.679 100.685 627.912 160.06L771.891 323.877C771.938 323.931 771.9 324.015 771.829 324.015V324.015C771.757 324.015 771.719 324.1 771.766 324.154L880.8 448.146C913.814 485.695 967.426 485.695 1000.44 448.146L1109.9 323.671C1109.94 323.627 1110 323.602 1110.05 323.602V323.602C1110.11 323.602 1110.17 323.577 1110.21 323.533L1253.97 160.06C1306.11 100.685 1390.71 100.685 1442.95 160.06L1587.05 324.015L1592.57 329.705L1738.32 491.798C1791.11 550.45 1791.11 645.616 1738.32 704.371L1592.66 866.361C1592.61 866.416 1592.52 866.416 1592.47 866.361V866.361Z" stroke="#FF6719" stroke-width="1.75" stroke-miterlimit="10" stroke-linecap="round"/>
<path d="M1585.9 868.324C1585.88 868.275 1585.81 868.265 1585.78 868.305L1476.24 990.178C1443.13 1027 1443.13 1086.59 1476.24 1123.41L1585.66 1245.15C1585.69 1245.19 1585.76 1245.16 1585.76 1245.11V1245.11C1585.76 1245.06 1585.83 1245.03 1585.86 1245.07L1730.05 1405.39C1782.28 1463.53 1782.28 1557.66 1730.05 1615.79L1585.76 1776.23L1579.6 1782.96L1436.97 1945.26C1385.29 2004.01 1301.61 2004.01 1249.93 1945.26L1107.42 1783.09C1107.37 1783.04 1107.41 1782.96 1107.48 1782.96V1782.96C1107.55 1782.96 1107.59 1782.87 1107.54 1782.82L999.613 1660.07C966.875 1622.83 913.907 1622.83 881.169 1660.07L772.81 1783.2C772.772 1783.24 772.716 1783.27 772.658 1783.27V1783.27C772.599 1783.27 772.543 1783.29 772.505 1783.34L630.121 1945.26C578.44 2004.01 494.757 2004.01 443.076 1945.26L300.447 1782.96L295.021 1777.37L150.737 1616.93C98.5043 1558.8 98.5043 1464.67 150.737 1406.53L295.113 1246.3L404.729 1124.34C437.834 1087.52 437.834 1027.93 404.729 991.109L295.309 869.37C295.272 869.33 295.205 869.355 295.205 869.41V869.41C295.205 869.464 295.138 869.49 295.101 869.45L150.921 709.127C98.6882 650.993 98.6882 556.861 150.921 498.726L295.205 338.288L301.366 331.564L443.903 169.161C495.584 110.406 579.267 110.406 630.948 169.161L773.456 331.323C773.503 331.377 773.465 331.461 773.393 331.461V331.461C773.322 331.461 773.284 331.545 773.331 331.599L881.261 454.35C913.999 491.589 966.968 491.589 999.705 454.35L1108.06 331.116C1108.1 331.072 1108.16 331.047 1108.22 331.047V331.047C1108.28 331.047 1108.33 331.022 1108.37 330.978L1250.66 169.161C1302.34 110.406 1386.03 110.406 1437.71 169.161L1580.34 331.461L1585.76 337.047L1730.05 497.485C1782.28 555.619 1782.28 649.751 1730.05 707.886L1586.02 868.343C1585.99 868.383 1585.92 868.372 1585.9 868.324V868.324Z" stroke="#FF6719" stroke-width="1.75" stroke-miterlimit="10" stroke-linecap="round"/>
<path d="M1585.9 868.324C1585.88 868.275 1585.81 868.265 1585.78 868.305L1476.24 990.178C1443.13 1027 1443.13 1086.59 1476.24 1123.41L1585.66 1245.15C1585.69 1245.19 1585.76 1245.16 1585.76 1245.11V1245.11C1585.76 1245.06 1585.83 1245.03 1585.86 1245.07L1730.05 1405.39C1782.28 1463.53 1782.28 1557.66 1730.05 1615.79L1585.76 1776.23L1579.6 1782.96L1436.97 1945.26C1385.29 2004.01 1301.61 2004.01 1249.93 1945.26L1107.42 1783.09C1107.37 1783.04 1107.41 1782.96 1107.48 1782.96V1782.96C1107.55 1782.96 1107.59 1782.87 1107.54 1782.82L999.613 1660.07C966.875 1622.83 913.907 1622.83 881.169 1660.07L772.81 1783.2C772.772 1783.24 772.716 1783.27 772.658 1783.27V1783.27C772.599 1783.27 772.543 1783.29 772.505 1783.34L630.121 1945.26C578.44 2004.01 494.757 2004.01 443.076 1945.26L300.447 1782.96L295.021 1777.37L150.737 1616.93C98.5043 1558.8 98.5043 1464.67 150.737 1406.53L295.113 1246.3L404.729 1124.34C437.834 1087.52 437.834 1027.93 404.729 991.109L295.309 869.37C295.272 869.33 295.205 869.355 295.205 869.41V869.41C295.205 869.464 295.138 869.49 295.101 869.45L150.921 709.127C98.6882 650.993 98.6882 556.861 150.921 498.726L295.205 338.288L301.366 331.564L443.903 169.161C495.584 110.406 579.267 110.406 630.948 169.161L773.456 331.323C773.503 331.377 773.465 331.461 773.393 331.461V331.461C773.322 331.461 773.284 331.545 773.331 331.599L881.261 454.35C913.999 491.589 966.968 491.589 999.705 454.35L1108.06 331.116C1108.1 331.072 1108.16 331.047 1108.22 331.047V331.047C1108.28 331.047 1108.33 331.022 1108.37 330.978L1250.66 169.161C1302.34 110.406 1386.03 110.406 1437.71 169.161L1580.34 331.461L1585.76 337.047L1730.05 497.485C1782.28 555.619 1782.28 649.751 1730.05 707.886L1586.02 868.343C1585.99 868.383 1585.92 868.372 1585.9 868.324V868.324Z" stroke="#FF6719" stroke-width="1.75" stroke-miterlimit="10" stroke-linecap="round"/>
<path d="M1579.29 870.238C1579.27 870.17 1579.18 870.15 1579.13 870.203L1470.73 990.799C1437.99 1027.21 1437.99 1086.28 1470.73 1122.69L1579.04 1243.19C1579.08 1243.23 1579.15 1243.2 1579.15 1243.15V1243.15C1579.15 1243.09 1579.21 1243.07 1579.25 1243.11L1721.96 1401.88C1773.64 1459.39 1773.64 1552.59 1721.96 1610.1L1579.15 1768.99L1573.08 1775.61L1431.83 1936.26C1380.7 1994.39 1297.84 1994.39 1246.72 1936.26L1105.59 1775.75C1105.54 1775.7 1105.58 1775.61 1105.65 1775.61V1775.61C1105.72 1775.61 1105.76 1775.53 1105.71 1775.47L998.885 1653.96C966.515 1617.14 914.006 1617.14 881.637 1653.96L774.381 1775.96C774.342 1776 774.287 1776.03 774.228 1776.03V1776.03C774.17 1776.03 774.114 1776.05 774.076 1776.09L633.347 1936.15C582.218 1994.29 499.362 1994.29 448.233 1936.15L306.983 1775.51L301.558 1769.92L158.745 1611.14C107.064 1553.63 107.064 1460.42 158.745 1402.91L301.65 1244.23L410.162 1123.51C442.899 1087.1 442.899 1028.04 410.162 991.627L301.846 871.129C301.809 871.089 301.742 871.114 301.742 871.169V871.169C301.742 871.224 301.675 871.249 301.638 871.209L158.929 712.541C107.248 655.027 107.248 561.826 158.929 504.313L301.742 345.426L307.811 338.806L449.061 178.161C500.19 120.027 583.045 120.027 634.174 178.161L775.211 338.668C775.258 338.722 775.22 338.806 775.148 338.806V338.806C775.076 338.806 775.038 338.89 775.086 338.944L881.913 460.453C914.282 497.279 966.791 497.279 999.161 460.453L1106.42 338.461C1106.46 338.417 1106.51 338.392 1106.57 338.392V338.392C1106.63 338.392 1106.68 338.367 1106.72 338.323L1247.54 178.161C1298.67 120.027 1381.53 120.027 1432.66 178.161L1573.91 338.806L1579.33 344.392L1722.14 503.278C1773.83 560.792 1773.83 653.993 1722.14 711.507L1579.44 870.273C1579.39 870.325 1579.31 870.306 1579.29 870.238V870.238Z" stroke="#FF6719" stroke-width="1.75" stroke-miterlimit="10" stroke-linecap="round"/>
<path d="M1579.29 870.238C1579.27 870.17 1579.18 870.15 1579.13 870.203L1470.73 990.799C1437.99 1027.21 1437.99 1086.28 1470.73 1122.69L1579.04 1243.19C1579.08 1243.23 1579.15 1243.2 1579.15 1243.15V1243.15C1579.15 1243.09 1579.21 1243.07 1579.25 1243.11L1721.96 1401.88C1773.64 1459.39 1773.64 1552.59 1721.96 1610.1L1579.15 1768.99L1573.08 1775.61L1431.83 1936.26C1380.7 1994.39 1297.84 1994.39 1246.72 1936.26L1105.59 1775.75C1105.54 1775.7 1105.58 1775.61 1105.65 1775.61V1775.61C1105.72 1775.61 1105.76 1775.53 1105.71 1775.47L998.885 1653.96C966.515 1617.14 914.006 1617.14 881.637 1653.96L774.381 1775.96C774.342 1776 774.287 1776.03 774.228 1776.03V1776.03C774.17 1776.03 774.114 1776.05 774.076 1776.09L633.347 1936.15C582.218 1994.29 499.362 1994.29 448.233 1936.15L306.983 1775.51L301.558 1769.92L158.745 1611.14C107.064 1553.63 107.064 1460.42 158.745 1402.91L301.65 1244.23L410.162 1123.51C442.899 1087.1 442.899 1028.04 410.162 991.627L301.846 871.129C301.809 871.089 301.742 871.114 301.742 871.169V871.169C301.742 871.224 301.675 871.249 301.638 871.209L158.929 712.541C107.248 655.027 107.248 561.826 158.929 504.313L301.742 345.426L307.811 338.806L449.061 178.161C500.19 120.027 583.045 120.027 634.174 178.161L775.211 338.668C775.258 338.722 775.22 338.806 775.148 338.806V338.806C775.076 338.806 775.038 338.89 775.086 338.944L881.913 460.453C914.282 497.279 966.791 497.279 999.161 460.453L1106.42 338.461C1106.46 338.417 1106.51 338.392 1106.57 338.392V338.392C1106.63 338.392 1106.68 338.367 1106.72 338.323L1247.54 178.161C1298.67 120.027 1381.53 120.027 1432.66 178.161L1573.91 338.806L1579.33 344.392L1722.14 503.278C1773.83 560.792 1773.83 653.993 1722.14 711.507L1579.44 870.273C1579.39 870.325 1579.31 870.306 1579.29 870.238V870.238Z" stroke="#FF6719" stroke-width="1.75" stroke-miterlimit="10" stroke-linecap="round"/>
</svg>
