<svg width="296" height="533" viewBox="0 0 296 533" fill="none" xmlns="http://www.w3.org/2000/svg">
<mask id="mask0" mask-type="alpha" maskUnits="userSpaceOnUse" x="0" y="0" width="297" height="533">
<path d="M295.5 532H1.5V0.999939H295.5V532Z" fill="#C4C4C4" stroke="url(#paint0_linear)" stroke-width="2"/>
</mask>
<g mask="url(#mask0)">
<path d="M0.500061 -155C0.200061 -155 6.10352e-05 -154.9 -0.199939 -154.7C-0.599939 -154.3 -0.599939 -153.7 -0.199939 -153.3L205 45.6C244.5 83.8 266.2 134.7 266.2 188.8C266.2 242.9 244.5 293.7 205 332L-0.199939 530.8C-0.599939 531.2 -0.599939 531.8 -0.199939 532.2C0.200061 532.6 0.800061 532.6 1.20006 532.2L206.4 333.4C246.3 294.8 268.2 243.4 268.2 188.8C268.2 134.2 246.3 82.8 206.4 44.2L1.20006 -154.7C1.00006 -154.9 0.700061 -155 0.500061 -155Z" fill="url(#paint1_linear)"/>
<path d="M0.600073 -137.1C0.300073 -137.1 0.100073 -137 -0.0999268 -136.8C-0.499927 -136.4 -0.499927 -135.8 -0.0999268 -135.4L194 52.6C233 90.5 254.5 140.9 254.5 194.5C254.5 248.1 233 298.5 193.9 336.4L-0.499927 524.7C-0.899927 525.1 -0.899927 525.7 -0.499927 526.1C-0.0999267 526.5 0.500073 526.5 0.900073 526.1L195.3 337.7C234.8 299.4 256.5 248.5 256.5 194.4C256.5 140.3 234.8 89.4 195.3 51.1L1.30007 -136.8C1.10007 -137 0.800073 -137.1 0.600073 -137.1Z" fill="url(#paint2_linear)"/>
<path d="M0.500049 -119.6C0.200049 -119.6 4.87566e-05 -119.5 -0.199951 -119.3C-0.599951 -118.9 -0.599951 -118.3 -0.199951 -117.9L182.8 59.5C221.6 97.1 242.9 147 242.9 200.1C242.9 253.2 221.5 303.1 182.8 340.7L-0.399951 518.3C-0.799951 518.7 -0.799951 519.3 -0.399951 519.7C4.88758e-05 520.1 0.600049 520.1 1.00005 519.7L184.2 342.2C223.4 304.2 244.9 253.8 244.9 200.1C244.9 146.5 223.3 96 184.2 58L1.20005 -119.3C1.00005 -119.5 0.700049 -119.6 0.500049 -119.6Z" fill="url(#paint3_linear)"/>
<path d="M0.200098 -102.2C-0.0999023 -102.2 -0.299902 -102.1 -0.499902 -101.9C-0.899902 -101.5 -0.899902 -100.9 -0.499902 -100.5L171.7 66.4C210.1 103.6 231.3 153.1 231.3 205.7C231.3 258.3 210.1 307.8 171.7 345L-0.599902 511.9C-0.999902 512.3 -0.999902 512.9 -0.599902 513.3C-0.199902 513.7 0.400098 513.7 0.800098 513.3L173.1 346.4C211.9 308.8 233.3 258.8 233.3 205.7C233.3 152.5 211.9 102.6 173.1 65L0.900098 -101.9C0.700098 -102.1 0.400098 -102.2 0.200098 -102.2Z" fill="url(#paint4_linear)"/>
<path d="M0.100061 -84.7C-0.199939 -84.7 -0.399939 -84.6 -0.599939 -84.4C-0.999939 -84 -0.999939 -83.4 -0.599939 -83L160.5 73.1C198.5 110 219.5 159 219.5 211.1C219.5 263.2 198.5 312.2 160.5 349.1L-0.699939 505.3C-1.09994 505.7 -1.09994 506.3 -0.699939 506.7C-0.299939 507.1 0.300061 507.1 0.700061 506.7L161.9 350.5C200.3 313.3 221.5 263.7 221.5 211.1C221.5 158.4 200.3 108.9 161.9 71.7L0.800061 -84.4C0.600061 -84.6 0.400061 -84.7 0.100061 -84.7Z" fill="url(#paint5_linear)"/>
<path d="M-0.0999146 -67.0001C-0.399915 -67.0001 -0.599915 -66.9001 -0.799915 -66.7001C-1.19991 -66.3 -1.19991 -65.7001 -0.799915 -65.3L149.2 79.9999C186.9 116.5 207.6 165 207.6 216.7C207.6 268.3 186.9 316.9 149.2 353.4L-0.599915 498.5C-0.999915 498.9 -0.999915 499.5 -0.599915 499.9C-0.199915 500.3 0.400085 500.3 0.800085 499.9L150.5 354.8C188.6 317.9 209.5 268.9 209.5 216.7C209.5 164.5 188.5 115.5 150.5 78.5999L0.600085 -66.8C0.400085 -67.0001 0.100085 -67.0001 -0.0999146 -67.0001Z" fill="url(#paint6_linear)"/>
<path d="M-0.299927 -49.7C-0.599927 -49.7 -0.799927 -49.6 -0.999927 -49.4C-1.39993 -49 -1.39993 -48.4 -0.999927 -48L138.2 86.9C175.5 123.1 196 171.2 196 222.3C196 273.4 175.5 321.5 138.2 357.7L-0.599927 492.2C-0.999927 492.6 -0.999927 493.2 -0.599927 493.6C-0.199927 494 0.400073 494 0.800073 493.6L139.6 359.1C177.3 322.5 198 273.9 198 222.2C198 170.5 177.2 121.9 139.6 85.3L0.400073 -49.5C0.200073 -49.7 -0.0999267 -49.7 -0.299927 -49.7Z" fill="url(#paint7_linear)"/>
<path d="M-0.0999513 -31.9C-0.399951 -31.9 -0.599951 -31.8 -0.799951 -31.6C-1.19995 -31.2 -1.19995 -30.6 -0.799951 -30.2L127 93.6C164 129.4 184.4 177.1 184.4 227.7C184.4 278.4 164 326 127 361.8L-0.899951 485.8C-1.29995 486.2 -1.29995 486.8 -0.899951 487.2C-0.499951 487.6 0.100049 487.6 0.500049 487.2L128.4 363.3C165.8 327.1 186.4 278.9 186.4 227.7C186.4 176.5 165.8 128.4 128.4 92.1L0.600049 -31.6C0.400049 -31.8 0.200049 -31.9 -0.0999513 -31.9Z" fill="url(#paint8_linear)"/>
<path d="M6.10352e-05 -13.7C-0.299939 -13.7 -0.499939 -13.6 -0.699939 -13.4C-1.09994 -13 -1.09994 -12.3999 -0.699939 -11.9999L115.7 100.7C152.3 136.2 172.5 183.3 172.5 233.5C172.5 283.7 152.3 330.8 115.7 366.3L-0.699939 479.1C-1.09994 479.5 -1.09994 480.1 -0.699939 480.5C-0.299939 480.9 0.300061 480.9 0.700061 480.5L117 367.8C154 332 174.4 284.3 174.4 233.6C174.4 182.9 154 135.2 117 99.4001L0.700061 -13.4C0.500061 -13.6 0.200061 -13.7 6.10352e-05 -13.7Z" fill="url(#paint9_linear)"/>
<path d="M-0.199902 3.09995C-0.499902 3.09995 -0.699902 3.19998 -0.899902 3.39999C-1.2999 3.79999 -1.2999 4.39996 -0.899902 4.79996L104.9 107.1C141.2 142.3 161.1 189 161.1 238.7C161.1 288.4 141.1 335.1 104.9 370.3L-1.0999 472.9C-1.4999 473.3 -1.4999 473.9 -1.0999 474.3C-0.699902 474.7 -0.0999024 474.7 0.300098 474.3L106.3 371.6C142.9 336.1 163.1 288.8 163.1 238.6C163.1 188.4 142.9 141.2 106.3 105.6L0.500098 3.39999C0.300098 3.19998 0.100098 3.09995 -0.199902 3.09995Z" fill="url(#paint10_linear)"/>
<path d="M-0.299939 21.0001C-0.599939 21.0001 -0.799939 21.1 -0.999939 21.3C-1.39994 21.7 -1.39994 22.3001 -0.999939 22.7001L93.5001 114.3C129.4 149.1 149.1 195.4 149.1 244.5C149.1 293.7 129.3 339.9 93.5001 374.7L-1.19994 466.6C-1.59994 467 -1.59994 467.6 -1.19994 468C-0.799939 468.4 -0.199939 468.4 0.200061 468L95.0001 376.3C131.3 341.1 151.2 294.4 151.2 244.6C151.2 194.8 131.2 148.1 95.0001 112.9L0.400061 21.3C0.200061 21.1 6.10352e-05 21.0001 -0.299939 21.0001Z" fill="url(#paint11_linear)"/>
<path d="M9.76324e-05 38.8999C-0.299902 38.8999 -0.499902 38.9999 -0.699902 39.2C-1.0999 39.5999 -1.0999 40.2 -0.699902 40.5999L82.5001 121.2C118 155.6 137.6 201.4 137.6 250.1C137.6 298.8 118 344.6 82.5001 379L-1.0999 460C-1.4999 460.4 -1.4999 461 -1.0999 461.4C-0.699902 461.8 -0.0999024 461.8 0.300098 461.4L83.9001 380.4C119.8 345.6 139.6 299.3 139.6 250C139.6 200.8 119.8 154.5 83.9001 119.6L0.700098 39.2C0.500098 38.9999 0.300098 38.8999 9.76324e-05 38.8999Z" fill="url(#paint12_linear)"/>
<path d="M-0.299927 56.3C-0.599927 56.3 -0.799927 56.4001 -0.999927 56.6001C-1.39993 57.0001 -1.39993 57.6001 -0.999927 58.0001L71.4001 128.1C106.6 162.3 126 207.6 126 255.9C126 304.1 106.6 349.4 71.4001 383.5L-0.499927 453.1C-0.899927 453.5 -0.899927 454.1 -0.499927 454.5C-0.0999267 454.9 0.500073 454.9 0.900073 454.5L72.8001 384.8C108.4 350.4 128 304.6 128 255.8C128 207 108.4 161.1 72.8001 126.6L0.400073 56.6001C0.200073 56.4001 7.31945e-05 56.3 -0.299927 56.3Z" fill="url(#paint13_linear)"/>
<path d="M-0.399902 74.2C-0.699902 74.2 -0.899902 74.2999 -1.0999 74.4999C-1.4999 74.8999 -1.4999 75.4999 -1.0999 75.8999L60.0001 135.1C94.8001 168.9 114 213.8 114 261.5C114 309.2 94.8001 354.1 60.0001 387.9L-0.999902 447C-1.3999 447.4 -1.3999 448 -0.999902 448.4C-0.599902 448.8 9.77516e-05 448.8 0.400098 448.4L61.4001 389.3C96.6001 355.1 116 309.7 116 261.5C116 213.2 96.6001 167.9 61.4001 133.7L0.300098 74.4999C0.100098 74.2999 -0.0999024 74.2 -0.399902 74.2Z" fill="url(#paint14_linear)"/>
<path d="M-0.0999146 91.8999C-0.399915 91.8999 -0.599915 91.9999 -0.799915 92.2C-1.19991 92.5999 -1.19991 93.2 -0.799915 93.5999L49.0001 141.8C83.5001 175.2 102.4 219.6 102.4 266.9C102.4 314.1 83.4001 358.5 49.0001 392L-0.699915 440C-1.09991 440.4 -1.09991 441 -0.699915 441.4C-0.299915 441.8 0.300085 441.8 0.700085 441.4L50.3001 393.3C85.2001 359.5 104.4 314.6 104.4 266.8C104.4 219 85.2001 174.1 50.3001 140.3L0.600085 92.2C0.400085 91.9999 0.100085 91.8999 -0.0999146 91.8999Z" fill="url(#paint15_linear)"/>
<path d="M-0.0999513 109.6C-0.399951 109.6 -0.599951 109.7 -0.799951 109.9C-1.19995 110.3 -1.19995 110.9 -0.799951 111.3L37.8 148.7C71.9 181.8 90.7 225.7 90.7 272.4C90.7 319.1 71.9 363.1 37.8 396.1L-0.899951 433.8C-1.29995 434.2 -1.29995 434.8 -0.899951 435.2C-0.499951 435.6 0.100049 435.6 0.500049 435.2L39.3 397.6C73.8 364.2 92.8 319.7 92.8 272.4C92.8 225.1 73.8 180.6 39.3 147.2L0.600049 109.8C0.400049 109.7 0.200049 109.6 -0.0999513 109.6Z" fill="url(#paint16_linear)"/>
<path d="M-0.799927 126.4C-1.09993 126.4 -1.29993 126.5 -1.49993 126.7C-1.89993 127.1 -1.89993 127.7 -1.49993 128.1L26.7001 155.5C60.5001 188.3 79.1001 231.8 79.1001 278.1C79.1001 324.3 60.5001 367.8 26.7001 400.5L-1.09993 427.5C-1.49993 427.9 -1.49993 428.5 -1.09993 428.9C-0.699927 429.3 -0.0999268 429.3 0.300073 428.9L28.1001 401.9C62.3001 368.9 81.1001 324.9 81.1001 278.1C81.1001 231.2 62.3001 187.2 28.1001 154L-0.0999268 126.6C-0.299927 126.5 -0.599927 126.4 -0.799927 126.4Z" fill="url(#paint17_linear)"/>
<path d="M-0.299927 144.7C-0.599927 144.7 -0.799927 144.8 -0.999927 145C-1.39993 145.4 -1.39993 146 -0.999927 146.4L15.5001 162.5C48.9001 194.9 67.3001 237.9 67.3001 283.7C67.3001 329.5 48.9001 372.5 15.5001 404.9L-0.999927 420.9C-1.39993 421.3 -1.39993 421.9 -0.999927 422.3C-0.599927 422.7 7.33137e-05 422.7 0.400073 422.3L17.0001 406.2C50.8001 373.4 69.4001 329.9 69.4001 283.6C69.4001 237.3 50.8001 193.7 17.0001 161L0.400073 145C0.200073 144.8 -0.0999267 144.7 -0.299927 144.7Z" fill="url(#paint18_linear)"/>
<path d="M-0.299939 162.4C-0.599939 162.4 -0.799939 162.5 -0.999939 162.7C-1.39994 163.1 -1.39994 163.7 -0.999939 164.1L4.40006 169.4C37.4001 201.4 55.6001 244 55.6001 289.3C55.6001 334.6 37.5001 377.1 4.40006 409.1L-1.19994 414.5C-1.59994 414.9 -1.59994 415.5 -1.19994 415.9C-0.799939 416.3 -0.199939 416.3 0.200061 415.9L5.80006 410.5C39.2001 378.1 57.7001 335 57.7001 289.2C57.7001 243.4 39.3001 200.3 5.80006 167.9L0.400061 162.6C0.200061 162.5 6.10352e-05 162.4 -0.299939 162.4Z" fill="url(#paint19_linear)"/>
<path d="M-0.899902 179.6C-1.0999 179.6 -1.3999 179.7 -1.5999 179.9C-1.9999 180.3 -1.9999 180.9 -1.5999 181.3C27.7001 212.3 43.9001 252.5 43.9001 294.6C43.9001 336.7 27.9001 376.9 -1.2999 407.9C-1.6999 408.3 -1.6999 408.9 -1.2999 409.3C-0.899902 409.7 -0.299902 409.7 0.100098 409.3C29.7001 378 45.9001 337.3 45.9001 294.7C45.9001 252.1 29.5001 211.4 -0.199902 180.1C-0.399902 179.7 -0.599902 179.6 -0.899902 179.6Z" fill="url(#paint20_linear)"/>
<path d="M-0.999932 199.6C-1.19993 199.6 -1.39993 199.7 -1.59993 199.8C-1.99993 200.1 -2.09993 200.8 -1.79993 201.2C20.3001 230 32.1001 264.2 32.1001 300.3C32.1001 336.3 20.4001 370.6 -1.69993 399.4C-1.99993 399.8 -1.99993 400.5 -1.49993 400.8C-1.09993 401.1 -0.399932 401.1 -0.099932 400.6C22.3001 371.5 34.1001 336.8 34.1001 300.3C34.1001 263.8 22.2001 229.1 -0.199932 200C-0.399932 199.8 -0.699932 199.6 -0.999932 199.6Z" fill="url(#paint21_linear)"/>
<path d="M-0.799934 223.3C-0.999934 223.3 -1.09993 223.3 -1.29993 223.4C-1.79993 223.7 -1.89993 224.3 -1.69993 224.8C27.7001 274.7 27.8001 336.7 -1.39993 386.7C-1.69993 387.2 -1.49993 387.8 -0.999934 388.1C-0.499934 388.4 0.100066 388.2 0.400066 387.7C30.0001 337.1 29.9001 274.3 0.100066 223.8C-0.0999343 223.4 -0.399934 223.3 -0.799934 223.3Z" fill="url(#paint22_linear)"/>
<path d="M-0.0999148 256C-0.199915 256 -0.299915 256 -0.399915 256.1C-0.899915 256.3 -1.19991 256.9 -0.999915 257.4C11.8001 292.3 11.9001 330.8 -0.899915 365.8C-1.09991 366.3 -0.799915 366.9 -0.299915 367.1C0.200085 367.3 0.800085 367 1.00009 366.5C13.9001 331.1 13.8001 292.1 0.800085 256.7C0.700085 256.3 0.300085 256 -0.0999148 256Z" fill="url(#paint23_linear)"/>
</g>
<defs>
<linearGradient id="paint0_linear" x1="295.415" y1="266.487" x2="-2.50181" y2="266.487" gradientUnits="userSpaceOnUse">
<stop offset="0.4115" stop-color="#D91AFF"/>
<stop offset="1" stop-color="#1AA4FF"/>
</linearGradient>
<linearGradient id="paint1_linear" x1="133.875" y1="534.411" x2="133.875" y2="-156.921" gradientUnits="userSpaceOnUse">
<stop stop-color="#9A52FF"/>
<stop offset="1" stop-color="#008AE5"/>
</linearGradient>
<linearGradient id="paint2_linear" x1="127.874" y1="528.245" x2="127.874" y2="-138.954" gradientUnits="userSpaceOnUse">
<stop stop-color="#9A52FF"/>
<stop offset="1" stop-color="#008AE5"/>
</linearGradient>
<linearGradient id="paint3_linear" x1="122.123" y1="521.778" x2="122.123" y2="-121.387" gradientUnits="userSpaceOnUse">
<stop stop-color="#9A52FF"/>
<stop offset="1" stop-color="#008AE5"/>
</linearGradient>
<linearGradient id="paint4_linear" x1="116.222" y1="515.312" x2="116.222" y2="-103.921" gradientUnits="userSpaceOnUse">
<stop stop-color="#9A52FF"/>
<stop offset="1" stop-color="#008AE5"/>
</linearGradient>
<linearGradient id="paint5_linear" x1="110.271" y1="508.645" x2="110.271" y2="-86.3534" gradientUnits="userSpaceOnUse">
<stop stop-color="#9A52FF"/>
<stop offset="1" stop-color="#008AE5"/>
</linearGradient>
<linearGradient id="paint6_linear" x1="104.22" y1="501.777" x2="104.22" y2="-68.585" gradientUnits="userSpaceOnUse">
<stop stop-color="#9A52FF"/>
<stop offset="1" stop-color="#008AE5"/>
</linearGradient>
<linearGradient id="paint7_linear" x1="98.3687" y1="495.411" x2="98.3687" y2="-51.219" gradientUnits="userSpaceOnUse">
<stop stop-color="#9A52FF"/>
<stop offset="1" stop-color="#008AE5"/>
</linearGradient>
<linearGradient id="paint8_linear" x1="92.6175" y1="488.944" x2="92.6175" y2="-33.3514" gradientUnits="userSpaceOnUse">
<stop stop-color="#9A52FF"/>
<stop offset="1" stop-color="#008AE5"/>
</linearGradient>
<linearGradient id="paint9_linear" x1="86.7164" y1="482.175" x2="86.7164" y2="-15.0817" gradientUnits="userSpaceOnUse">
<stop stop-color="#9A52FF"/>
<stop offset="1" stop-color="#008AE5"/>
</linearGradient>
<linearGradient id="paint10_linear" x1="80.8654" y1="475.911" x2="80.8654" y2="1.78245" gradientUnits="userSpaceOnUse">
<stop stop-color="#9A52FF"/>
<stop offset="1" stop-color="#008AE5"/>
</linearGradient>
<linearGradient id="paint11_linear" x1="74.8643" y1="469.544" x2="74.8643" y2="19.7502" gradientUnits="userSpaceOnUse">
<stop stop-color="#9A52FF"/>
<stop offset="1" stop-color="#008AE5"/>
</linearGradient>
<linearGradient id="paint12_linear" x1="69.1132" y1="462.875" x2="69.1132" y2="37.7185" gradientUnits="userSpaceOnUse">
<stop stop-color="#9A52FF"/>
<stop offset="1" stop-color="#008AE5"/>
</linearGradient>
<linearGradient id="paint13_linear" x1="63.3621" y1="455.908" x2="63.3621" y2="55.1865" gradientUnits="userSpaceOnUse">
<stop stop-color="#9A52FF"/>
<stop offset="1" stop-color="#008AE5"/>
</linearGradient>
<linearGradient id="paint14_linear" x1="57.311" y1="449.741" x2="57.311" y2="73.1535" gradientUnits="userSpaceOnUse">
<stop stop-color="#9A52FF"/>
<stop offset="1" stop-color="#008AE5"/>
</linearGradient>
<linearGradient id="paint15_linear" x1="51.6599" y1="442.672" x2="51.6599" y2="90.9225" gradientUnits="userSpaceOnUse">
<stop stop-color="#9A52FF"/>
<stop offset="1" stop-color="#008AE5"/>
</linearGradient>
<linearGradient id="paint16_linear" x1="45.8088" y1="436.406" x2="45.8088" y2="108.689" gradientUnits="userSpaceOnUse">
<stop stop-color="#9A52FF"/>
<stop offset="1" stop-color="#008AE5"/>
</linearGradient>
<linearGradient id="paint17_linear" x1="39.6578" y1="430.042" x2="39.6578" y2="125.554" gradientUnits="userSpaceOnUse">
<stop stop-color="#9A52FF"/>
<stop offset="1" stop-color="#008AE5"/>
</linearGradient>
<linearGradient id="paint18_linear" x1="34.0567" y1="423.373" x2="34.0567" y2="143.923" gradientUnits="userSpaceOnUse">
<stop stop-color="#9A52FF"/>
<stop offset="1" stop-color="#008AE5"/>
</linearGradient>
<linearGradient id="paint19_linear" x1="28.1056" y1="416.906" x2="28.1056" y2="161.691" gradientUnits="userSpaceOnUse">
<stop stop-color="#9A52FF"/>
<stop offset="1" stop-color="#008AE5"/>
</linearGradient>
<linearGradient id="paint20_linear" x1="22.0046" y1="410.239" x2="22.0046" y2="178.957" gradientUnits="userSpaceOnUse">
<stop stop-color="#9A52FF"/>
<stop offset="1" stop-color="#008AE5"/>
</linearGradient>
<linearGradient id="paint21_linear" x1="16.0662" y1="401.565" x2="16.0662" y2="199.037" gradientUnits="userSpaceOnUse">
<stop stop-color="#9A52FF"/>
<stop offset="1" stop-color="#008AE5"/>
</linearGradient>
<linearGradient id="paint22_linear" x1="10.3667" y1="388.7" x2="10.3667" y2="222.839" gradientUnits="userSpaceOnUse">
<stop stop-color="#9A52FF"/>
<stop offset="1" stop-color="#008AE5"/>
</linearGradient>
<linearGradient id="paint23_linear" x1="4.77626" y1="367.472" x2="4.77626" y2="255.689" gradientUnits="userSpaceOnUse">
<stop stop-color="#9A52FF"/>
<stop offset="1" stop-color="#008AE5"/>
</linearGradient>
</defs>
</svg>
