<svg width="143" height="42" viewBox="0 0 143 42" fill="none" xmlns="http://www.w3.org/2000/svg">
<path d="M66.2813 25.2561C66.2813 25.4484 66.2143 25.6117 66.0803 25.7457C64.7811 26.7825 63.3159 27.3012 61.6847 27.3012C59.7565 27.3012 58.1093 26.6181 56.7438 25.2519C55.3777 23.8858 54.6946 22.2386 54.6946 20.3104C54.6946 18.3822 55.3777 16.735 56.7438 15.3688C58.1093 14.0027 59.7565 13.3196 61.6847 13.3196C63.351 13.3196 64.8334 13.8526 66.1325 14.9184C66.2665 15.0585 66.3335 15.2246 66.3335 15.4172C66.3335 15.6097 66.265 15.7739 66.128 15.9107C65.9909 16.0475 65.8268 16.1163 65.6344 16.1163C65.4421 16.1163 65.2762 16.0458 65.1363 15.9068C64.152 15.114 63.0017 14.718 61.6847 14.718C60.1414 14.718 58.8232 15.2641 57.7311 16.3561C56.6386 17.4482 56.0926 18.7668 56.0926 20.3104C56.0926 21.8537 56.6386 23.1726 57.7311 24.2646C58.8232 25.3567 60.1414 25.9027 61.6847 25.9027C62.8906 25.9027 63.9564 25.5703 64.8828 24.9063V21.7086H62.1219C61.9295 21.7086 61.7647 21.6401 61.6277 21.503C61.4913 21.366 61.4228 21.2018 61.4228 21.0095C61.4228 20.8172 61.4913 20.6528 61.6277 20.516C61.7647 20.3789 61.9293 20.3104 62.1219 20.3104H65.5906C65.7769 20.3104 65.9402 20.3778 66.0803 20.511C66.2143 20.651 66.2813 20.8172 66.2813 21.0097V25.2561Z" fill="white"/>
<path d="M72.1747 22.408L70.4349 26.8729C70.4002 26.9544 70.3504 27.0301 70.2864 27.0995C70.147 27.2335 69.9806 27.301 69.7887 27.301C69.5964 27.301 69.4316 27.2324 69.2945 27.0954C69.1581 26.9583 69.0896 26.7942 69.0896 26.6018C69.0896 26.491 69.1098 26.3924 69.1505 26.3045L74.0084 13.8092C74.0446 13.7045 74.1051 13.6078 74.1919 13.521C74.3269 13.387 74.49 13.3196 74.6815 13.3196C74.8749 13.3196 75.0402 13.387 75.1792 13.521C75.2618 13.6078 75.3201 13.7045 75.3544 13.8092L80.2122 26.3045C80.2545 26.3921 80.2747 26.4908 80.2747 26.6018C80.2747 26.7942 80.2062 26.9586 80.0691 27.0954C79.9321 27.2324 79.7668 27.301 79.5756 27.301C79.3821 27.301 79.2189 27.2335 79.0859 27.0995C79.0155 27.0299 78.963 26.9544 78.9287 26.8729L77.1898 22.408H72.1747ZM76.6479 21.0095L74.6813 15.9502L72.7147 21.0095H76.6479Z" fill="white"/>
<path d="M81.7399 14.7178C81.5475 14.7178 81.3823 14.6493 81.2463 14.5123C81.1093 14.3752 81.0408 14.2111 81.0408 14.0187C81.0408 13.8264 81.1093 13.662 81.2463 13.5252C81.3823 13.3881 81.5475 13.3196 81.7399 13.3196H90.827C91.0193 13.3196 91.1837 13.3881 91.3205 13.5252C91.4574 13.6622 91.5261 13.8264 91.5261 14.0187C91.5261 14.2111 91.4576 14.3754 91.3205 14.5123C91.1835 14.6491 91.0193 14.7178 90.827 14.7178H86.9827V26.6016C86.9827 26.794 86.9141 26.9583 86.7771 27.0952C86.64 27.2322 86.4759 27.3007 86.2835 27.3007C86.0912 27.3007 85.9268 27.2322 85.79 27.0952C85.6529 26.9581 85.5844 26.794 85.5844 26.6016V14.7178H81.7399Z" fill="white"/>
<path d="M95.5509 13.3196H103.939C104.131 13.3196 104.296 13.3881 104.432 13.5252C104.569 13.6622 104.638 13.8264 104.638 14.0187C104.638 14.2111 104.569 14.3754 104.432 14.5123C104.295 14.6491 104.131 14.7178 103.939 14.7178H96.2501V19.611H101.842C102.034 19.611 102.199 19.6796 102.336 19.8166C102.472 19.9537 102.542 20.1178 102.542 20.3102C102.542 20.5025 102.472 20.6669 102.336 20.8037C102.199 20.9408 102.034 21.0093 101.842 21.0093H96.2501V25.9025H103.939C104.131 25.9025 104.296 25.971 104.432 26.1081C104.569 26.2451 104.638 26.4093 104.638 26.6016C104.638 26.794 104.569 26.9583 104.432 27.0952C104.295 27.2322 104.131 27.3007 103.939 27.3007H95.5509C95.3586 27.3007 95.1933 27.2322 95.0574 27.0952C94.9203 26.9581 94.8518 26.794 94.8518 26.6016V14.0187C94.8518 13.8264 94.9203 13.662 95.0574 13.5252C95.1933 13.3881 95.3586 13.3196 95.5509 13.3196Z" fill="white"/>
<path d="M107.516 14.0187C107.516 13.8264 107.584 13.662 107.721 13.5252C107.857 13.3881 108.023 13.3196 108.215 13.3196C108.407 13.3196 108.572 13.3881 108.709 13.5252C108.846 13.6622 108.914 13.8264 108.914 14.0187V19.611H115.904V14.0187C115.904 13.8264 115.972 13.662 116.109 13.5252C116.246 13.3883 116.411 13.3196 116.603 13.3196C116.795 13.3196 116.96 13.3881 117.097 13.5252C117.233 13.6622 117.302 13.8264 117.302 14.0187V26.6016C117.302 26.794 117.234 26.9583 117.097 27.0952C116.959 27.2322 116.795 27.3007 116.603 27.3007C116.411 27.3007 116.246 27.2322 116.109 27.0952C115.972 26.9581 115.904 26.794 115.904 26.6016V21.0093H108.914V26.6016C108.914 26.794 108.846 26.9583 108.709 27.0952C108.571 27.2322 108.407 27.3007 108.215 27.3007C108.023 27.3007 107.857 27.2322 107.721 27.0952C107.584 26.9581 107.516 26.794 107.516 26.6016V14.0187Z" fill="white"/>
<path d="M120.987 14.0187C120.987 13.8264 121.055 13.662 121.192 13.5252C121.328 13.3881 121.493 13.3196 121.686 13.3196C121.878 13.3196 122.042 13.3881 122.179 13.5252C122.316 13.6622 122.385 13.8264 122.385 14.0187V22.4077C122.385 23.3749 122.725 24.1989 123.406 24.88C124.088 25.562 124.912 25.9025 125.88 25.9025C126.847 25.9025 127.671 25.562 128.353 24.88C129.034 24.1989 129.374 23.3749 129.374 22.4077V14.0187C129.374 13.8264 129.443 13.662 129.58 13.5252C129.717 13.3883 129.881 13.3196 130.073 13.3196C130.266 13.3196 130.43 13.3881 130.567 13.5252C130.704 13.6622 130.773 13.8264 130.773 14.0187V22.4077C130.773 23.7587 130.295 24.9121 129.34 25.8674C128.384 26.8235 127.231 27.301 125.88 27.301C124.528 27.301 123.375 26.8235 122.419 25.8674C121.464 24.9124 120.987 23.7587 120.987 22.4077V14.0187Z" fill="white"/>
<path d="M134.998 13.3196H137.794C138.761 13.3196 139.585 13.6611 140.267 14.342C140.948 15.024 141.289 15.848 141.289 16.8152C141.289 17.7823 140.948 18.6064 140.267 19.2875C140.698 19.492 141.097 19.7741 141.464 20.1358C142.28 20.9568 142.687 21.9472 142.687 23.1058C142.687 24.2653 142.278 25.2548 141.459 26.0727C140.64 26.8918 139.652 27.3007 138.492 27.3007H134.998C134.805 27.3007 134.64 27.2322 134.504 27.0952C134.367 26.9581 134.299 26.794 134.299 26.6016V14.0187C134.299 13.8264 134.367 13.662 134.504 13.5252C134.64 13.3881 134.806 13.3196 134.998 13.3196ZM135.697 14.7178V18.9117H137.794C138.371 18.9117 138.864 18.7061 139.274 18.2961C139.686 17.8851 139.891 17.3914 139.891 16.8152C139.891 16.2379 139.685 15.7444 139.274 15.3332C138.864 14.9232 138.371 14.7176 137.794 14.7176H135.697V14.7178ZM135.697 20.3102V25.9025H138.493C139.267 25.9025 139.927 25.6306 140.472 25.0854C141.016 24.5405 141.289 23.8815 141.289 23.1058C141.289 22.3321 141.016 21.6722 140.472 21.1272C139.927 20.5823 139.267 20.3102 138.493 20.3102H135.697Z" fill="white"/>
<path d="M4.72643 25.725C4.3027 25.725 3.8792 25.6676 3.46762 25.5537C0.957148 24.8607 -0.522417 22.2554 0.170852 19.7447C0.73401 17.7016 2.60586 16.2751 4.72296 16.2751C5.14603 16.2751 5.5691 16.3326 5.98025 16.4465C7.19721 16.7819 8.20968 17.5708 8.83291 18.6689C9.45548 19.766 9.61378 21.0404 9.27767 22.2565C8.71494 24.2984 6.8431 25.725 4.72643 25.725ZM4.72296 17.6725C3.23255 17.6725 1.91367 18.677 1.51727 20.1156C1.02914 21.8835 2.07089 23.7192 3.83951 24.2077C4.13009 24.2873 4.42826 24.3285 4.72664 24.3285C6.21705 24.3285 7.53485 23.3241 7.93125 21.8855C8.16805 21.0281 8.05659 20.1305 7.6179 19.3579C7.17921 18.5852 6.46599 18.029 5.609 17.7922C5.31886 17.7129 5.02069 17.6725 4.72296 17.6725Z" fill="white"/>
<path d="M23.5147 20.3018H14.1199V21.6981H23.5147V20.3018Z" fill="white"/>
<path d="M28.819 13.2101L27.6091 12.511L22.9083 20.6461L24.1181 21.3452L28.819 13.2101Z" fill="white"/>
<path d="M27.6082 29.4869L22.9099 21.3488L24.1199 20.6497L28.8182 28.7878L27.6082 29.4869Z" fill="white"/>
<path d="M32.9138 9.44987C32.4901 9.44987 32.0666 9.39241 31.655 9.27856C29.1445 8.58638 27.665 5.98028 28.3572 3.46959C28.9208 1.42644 30.7926 0 32.9097 0C33.3328 0 33.7558 0.0574653 34.167 0.171311C36.6781 0.863495 38.1575 3.47068 37.4653 5.98115C36.9017 8.02322 35.0301 9.44987 32.9138 9.44987ZM32.9097 1.39738C31.4193 1.39738 30.1004 2.40183 29.704 3.84041C29.2163 5.60838 30.2581 7.44401 32.0267 7.93257C32.3173 8.01216 32.6154 8.05358 32.9138 8.05358C34.4038 8.05358 35.7216 7.04804 36.1191 5.61055C36.6061 3.84149 35.5644 2.00586 33.796 1.5173C33.5056 1.43771 33.2074 1.39738 32.9097 1.39738Z" fill="white"/>
<path d="M32.9138 41.9999C32.4901 41.9999 32.0666 41.9425 31.655 41.8286C29.1445 41.1364 27.665 38.5303 28.3572 36.0196C28.9208 33.9765 30.7926 32.55 32.9097 32.55C33.3328 32.55 33.7558 32.6075 34.167 32.7214C36.6781 33.4135 38.1575 36.0207 37.4653 38.5312C36.9017 40.5733 35.0301 41.9999 32.9138 41.9999ZM32.9097 33.9474C31.4193 33.9474 30.1004 34.9519 29.704 36.3905C29.2163 38.1584 30.2581 39.9941 32.0267 40.4826C32.3173 40.5622 32.6154 40.6034 32.9138 40.6034C34.4038 40.6034 35.7216 39.5979 36.1191 38.1604C36.6068 36.3913 35.5644 34.5557 33.796 34.0671C33.5056 33.9878 33.2074 33.9474 32.9097 33.9474Z" fill="white"/>
</svg>
