<svg width="137" height="35" viewBox="0 0 137 35" fill="none" xmlns="http://www.w3.org/2000/svg">
<g clip-path="url(#clip0)">
<path d="M11.532 0H12.45C15.734 0.128 18.886 2.286 20.02 5.4C20.704 7.102 20.476 8.962 20.512 10.75C21.682 10.75 22.854 10.75 24.024 10.75C24.028 16.958 24.022 23.166 24.028 29.374C20.02 31.252 16.02 33.152 11.998 34.998C7.996 33.126 3.992 31.266 0 29.374V10.75C1.17 10.748 2.34 10.752 3.51 10.748C3.518 9.832 3.504 8.914 3.514 7.998C3.536 6.04 4.34 4.114 5.688 2.7C7.186 1.082 9.338 0.122 11.532 0ZM7.96 7.414C7.788 8.516 7.914 9.638 7.874 10.75C10.63 10.752 13.384 10.748 16.138 10.752C16.118 9.74 16.17 8.728 16.114 7.72C15.876 5.676 13.786 4.242 11.802 4.384C10.056 4.436 8.33 5.662 7.96 7.414ZM4.838 26.28C7.23 27.398 9.622 28.516 12.016 29.63C14.4 28.514 16.786 27.398 19.172 26.282C19.178 22.562 19.174 18.844 19.174 15.124C14.396 15.128 9.618 15.124 4.838 15.126C4.836 18.844 4.836 22.562 4.838 26.28Z" fill="white"/>
<path d="M108.242 10.446C111.056 10.238 114.016 11.138 116.022 13.176C119.668 16.794 119.656 23.386 115.992 26.986C112.29 30.668 105.566 30.634 101.938 26.862C98.4099 23.242 98.4359 16.794 102 13.206C103.632 11.534 105.924 10.592 108.242 10.446ZM108.458 14.874C107.15 14.988 105.894 15.692 105.17 16.798C103.572 19.258 104.012 23.186 106.698 24.71C108.44 25.658 110.798 25.438 112.246 24.048C114.054 22.286 114.26 19.266 113.056 17.112C112.174 15.502 110.254 14.648 108.458 14.874Z" fill="white"/>
<path d="M33.7279 10.7139C38.7559 10.7099 43.7839 10.7119 48.8119 10.7119C48.8139 12.1739 48.8099 13.6379 48.8139 15.0999C47.1139 15.1039 45.4139 15.0959 43.7159 15.1019C43.7099 19.8679 43.7139 24.6339 43.7139 29.3979C42.0919 29.4019 40.4699 29.3999 38.8479 29.3979C38.8479 24.6339 38.8519 19.8679 38.8479 15.1019C37.1399 15.0979 35.4319 15.1019 33.7259 15.0999C33.7239 13.6379 33.7219 12.1759 33.7279 10.7139Z" fill="white"/>
<path d="M50.9879 10.7119C53.9879 10.7159 56.9879 10.7019 59.9879 10.7199C61.9619 10.7419 64.0099 11.5999 65.1279 13.2819C66.4939 15.3639 66.5579 18.2879 65.2059 20.3939C64.5919 21.3379 63.6599 22.0439 62.6259 22.4759C63.9839 24.7839 65.3459 27.0879 66.6999 29.3999C64.8499 29.4059 62.9999 29.3859 61.1519 29.4099C59.9599 27.3259 58.8499 25.1959 57.6759 23.1019C57.0599 23.0999 56.4419 23.0999 55.8259 23.0999C55.8239 25.1999 55.8259 27.2999 55.8239 29.3999C54.2119 29.3999 52.5999 29.3999 50.9879 29.3999C50.9879 23.1699 50.9859 16.9419 50.9879 10.7119ZM55.8259 15.0259C55.8239 16.2759 55.8239 17.5239 55.8259 18.7719C56.9579 18.7739 58.0879 18.7799 59.2199 18.7719C59.7819 18.7719 60.3719 18.6019 60.7719 18.1859C61.4759 17.4779 61.4359 16.1679 60.6659 15.5219C60.2699 15.1699 59.7279 15.0359 59.2099 15.0319C58.0819 15.0159 56.9539 15.0279 55.8259 15.0259Z" fill="white"/>
<path d="M68.3999 10.7119C72.9039 10.7119 77.4079 10.7119 81.9119 10.7119C81.9119 12.1499 81.9139 13.5859 81.9119 15.0239C79.0159 15.0279 76.1219 15.0219 73.2279 15.0259C73.2239 15.9339 73.2239 16.8419 73.2259 17.7499C76.0579 17.7499 78.8899 17.7479 81.7239 17.7519C81.7259 19.1879 81.7279 20.6239 81.7239 22.0619C78.8899 22.0659 76.0579 22.0619 73.2259 22.0639C73.2239 23.0579 73.2239 24.0519 73.2259 25.0459C76.1219 25.0539 79.0179 25.0479 81.9159 25.0499C81.9099 26.4979 81.9139 27.9479 81.9139 29.3979C77.4079 29.4019 72.9039 29.3999 68.3999 29.3999C68.3999 23.1699 68.3999 16.9419 68.3999 10.7119Z" fill="white"/>
<path d="M84.288 15.0999C84.286 13.6379 84.286 12.1739 84.288 10.7119C89.042 10.7139 93.794 10.7099 98.548 10.7139C98.552 11.9639 98.554 13.2139 98.546 14.4639C95.96 17.9699 93.392 21.4899 90.808 24.9999C93.39 25.0019 95.97 24.9979 98.552 25.0019C98.55 26.4659 98.55 27.9319 98.552 29.3979C93.796 29.3999 89.042 29.4019 84.286 29.3979C84.284 28.1459 84.292 26.8939 84.282 25.6399C86.852 22.1179 89.448 18.6159 92.028 15.0999C89.448 15.0999 86.868 15.0999 84.288 15.0999Z" fill="white"/>
<path d="M120.698 29.3981C120.702 23.1701 120.698 16.9421 120.7 10.7121C123.668 10.7141 126.634 10.7061 129.6 10.7161C131.39 10.7281 133.25 11.3781 134.44 12.7621C135.904 14.4441 136.22 16.9161 135.586 19.0061C135.11 20.5881 133.858 21.8601 132.34 22.4801C133.694 24.7701 135.038 27.0661 136.398 29.3541L136.4 29.0621V29.3981C134.548 29.4041 132.694 29.3981 130.842 29.4001C129.692 27.3021 128.548 25.2001 127.398 23.1021C126.778 23.1001 126.158 23.1001 125.54 23.1021C125.54 25.2001 125.538 27.3001 125.54 29.3981C123.926 29.4001 122.312 29.4021 120.698 29.3981ZM125.542 15.0261C125.538 16.2761 125.538 17.5241 125.542 18.7741C126.762 18.7641 127.98 18.7981 129.2 18.7581C130.124 18.7241 130.982 17.9561 130.986 17.0061C131.088 15.9941 130.224 15.1001 129.234 15.0501C128.004 14.9921 126.772 15.0401 125.542 15.0261Z" fill="white"/>
</g>
<defs>
<clipPath id="clip0">
<rect width="136.4" height="35" fill="white"/>
</clipPath>
</defs>
</svg>
