<svg width="50" height="50" viewBox="0 0 50 50" fill="none" xmlns="http://www.w3.org/2000/svg">
<g clip-path="url(#clip0)">
<circle cx="10" cy="10" r="10" fill="#9A52FF"/>
<path d="M39.2019 44.3773C38.8955 43.92 38.2766 43.7984 37.8193 44.106C34.1548 46.5695 29.7497 48.0052 24.9997 48.0058C18.6432 48.0051 12.8986 45.432 8.73223 41.2676C4.56787 37.1012 1.99551 31.3562 1.99473 24.9996C1.99541 19.3901 4.00088 14.2599 7.33428 10.2676L8.10264 13.9806C8.21436 14.5204 8.74141 14.8666 9.28057 14.7556C9.82031 14.6439 10.1666 14.1162 10.0549 13.5771L8.68447 6.95415L1.91973 6.83852C1.36934 6.82925 0.914649 7.26792 0.906055 7.81899C0.896778 8.36938 1.33545 8.82339 1.88652 8.83266L5.87549 8.90112C2.21016 13.2491 -0.000683435 18.8698 1.5848e-07 25.0003C0.000683752 38.8077 11.1918 49.9994 24.999 50C30.1545 50 34.9517 48.4373 38.9314 45.7613C39.3886 45.4542 39.5096 44.8346 39.2019 44.3773Z" fill="white"/>
<path d="M47.8597 41.1115L44.1613 41.0478C47.8011 36.7065 50.0001 31.107 50.0001 24.9997C49.9995 11.1918 38.8071 0.000683799 24.9998 2.04918e-07C19.6097 -0.000683389 14.6084 1.70898 10.5257 4.61309C10.0764 4.93213 9.97144 5.55498 10.2905 6.00361C10.6095 6.45234 11.2324 6.55732 11.681 6.23887C15.4419 3.56543 20.0324 1.99473 24.9998 1.99414C31.3563 1.99482 37.1008 4.56719 41.2678 8.73232C45.4322 12.898 48.0053 18.6438 48.006 24.9998C48.0053 30.715 45.9195 35.9343 42.4716 39.9584L41.6448 35.9622C41.5331 35.4231 41.0053 35.0762 40.4669 35.1879C39.9271 35.2996 39.5808 35.8267 39.6925 36.3664L41.0626 42.9889L47.8266 43.1052C48.377 43.1151 48.831 42.6758 48.8403 42.1254C48.8488 41.5756 48.4101 41.1208 47.8597 41.1115Z" fill="white"/>
<path d="M31.7999 16.9353C31.9729 16.7631 32.207 16.6665 32.451 16.6665H34.5143C34.6789 16.6665 34.7612 16.8657 34.6446 16.9819L28.9456 22.6607C27.8939 23.7037 26.4766 24.2884 25 24.2884C23.5234 24.2884 22.1061 23.7037 21.0544 22.6607L15.3523 16.9819C15.2356 16.8657 15.3179 16.6665 15.4826 16.6665H17.5487C17.7929 16.6665 18.0271 16.7633 18.2002 16.9356L22.5 21.2184C23.1654 21.8793 24.0628 22.25 24.9978 22.25C25.9328 22.25 26.8301 21.8793 27.4956 21.2184L31.7999 16.9353ZM18.1646 33.0641C17.9916 33.2364 17.7574 33.3332 17.5132 33.3332H15.4471C15.2824 33.3332 15.2001 33.1339 15.3168 33.0177L21.0556 27.3032C22.1072 26.2609 23.524 25.6766 25 25.6766C26.476 25.6766 27.8928 26.2609 28.9444 27.3032L34.6832 33.0177C34.7999 33.1339 34.7176 33.3332 34.5529 33.3332H32.4871C32.2428 33.3332 32.0084 33.2363 31.8354 33.0638L27.5 28.7422C26.8346 28.0812 25.9372 27.7106 25.0022 27.7106C24.0672 27.7106 23.1699 28.0812 22.5044 28.7422L18.1646 33.0641Z" fill="white"/>
</g>
<defs>
<clipPath id="clip0">
<rect width="50" height="50" fill="white"/>
</clipPath>
</defs>
</svg>
