<svg width="181" height="47" viewBox="0 0 181 47" fill="none" xmlns="http://www.w3.org/2000/svg">
<path d="M60.8823 18.843H55.9778V15.9639H69.3334V18.843H64.4289V31.2303H60.8823V18.843ZM72.6935 21.0456C73.102 20.4785 73.6496 20.0495 74.3355 19.7586C75.036 19.4682 75.8387 19.3225 76.7437 19.3225V22.4633C76.3646 22.4341 76.109 22.4194 75.9774 22.4194C74.9995 22.4194 74.2332 22.6957 73.6785 23.2482C73.1238 23.7862 72.8464 24.6004 72.8464 25.6908V31.2303H69.4309V19.4969H72.6935V21.0456ZM89.414 19.4969V31.2303H86.1732V29.8344C85.7207 30.3431 85.1806 30.7358 84.553 31.0121C83.9254 31.2737 83.2467 31.4048 82.5168 31.4048C80.9695 31.4048 79.7436 30.9611 78.8386 30.0743C77.9337 29.1875 77.4812 27.8717 77.4812 26.1269V19.4969H80.8966V25.6253C80.8966 27.5153 81.6923 28.4606 83.2831 28.4606C84.1005 28.4606 84.7575 28.1989 85.254 27.6751C85.7501 27.1372 85.9981 26.3452 85.9981 25.2981V19.4969H89.414ZM95.2278 31.4048C94.2494 31.4048 93.2933 31.2883 92.3595 31.0559C91.4251 30.8084 90.6806 30.5034 90.1259 30.1399L91.2647 27.6973C91.7901 28.0316 92.4248 28.3078 93.1693 28.5256C93.9139 28.7293 94.6437 28.8311 95.3589 28.8311C96.804 28.8311 97.5267 28.4752 97.5267 27.7624C97.5267 27.4281 97.3293 27.1881 96.9355 27.0429C96.5413 26.8977 95.9354 26.7737 95.118 26.6719C94.1548 26.5267 93.3591 26.3593 92.7315 26.1708C92.1039 25.9817 91.5567 25.647 91.0896 25.1675C90.6371 24.6876 90.4108 24.0044 90.4108 23.1172C90.4108 22.3761 90.6224 21.7217 91.0455 21.1545C91.4834 20.5728 92.111 20.1221 92.9284 19.8024C93.7605 19.4828 94.7384 19.3225 95.8625 19.3225C96.6946 19.3225 97.5191 19.4173 98.3366 19.6063C99.1687 19.7807 99.855 20.0278 100.395 20.3474L99.2562 22.7683C98.2201 22.187 97.0889 21.8961 95.8625 21.8961C95.1327 21.8961 94.5855 21.998 94.2206 22.2012C93.8556 22.4048 93.6729 22.6665 93.6729 22.9866C93.6729 23.3501 93.8703 23.6042 94.2641 23.7499C94.6584 23.8951 95.286 24.0332 96.147 24.1643C97.1107 24.3241 97.8987 24.4985 98.5117 24.6876C99.1251 24.862 99.6576 25.1892 100.11 25.6691C100.563 26.1486 100.789 26.8176 100.789 27.6751C100.789 28.4021 100.57 29.0494 100.132 29.6161C99.694 30.1832 99.0517 30.6269 98.2055 30.9465C97.3734 31.252 96.3808 31.4048 95.2278 31.4048ZM109.18 30.6632C108.845 30.9102 108.429 31.0993 107.932 31.2303C107.451 31.3463 106.94 31.4048 106.4 31.4048C104.999 31.4048 103.911 31.0484 103.137 30.336C102.378 29.6236 101.999 28.5765 101.999 27.1957V22.3761H100.182V19.7586H101.999V16.9021H105.414V19.7586H108.348V22.3761H105.414V27.1518C105.414 27.6464 105.539 28.0316 105.787 28.3078C106.049 28.5695 106.414 28.7005 106.881 28.7005C107.421 28.7005 107.881 28.5549 108.261 28.264L109.18 30.6632ZM138.077 15.9639L133.063 31.2303H129.253L125.881 20.8929L122.4 31.2303H118.612L113.577 15.9639H117.255L120.714 26.6941L124.327 15.9639H127.611L131.114 26.7813L134.683 15.9639H138.077ZM142.377 19.3225C144.202 19.3225 145.603 19.7586 146.581 20.6312C147.559 21.4888 148.048 22.79 148.048 24.5348V31.2303H144.851V29.7688C144.209 30.8593 143.012 31.4048 141.26 31.4048C140.356 31.4048 139.567 31.252 138.896 30.9465C138.239 30.6415 137.735 30.2196 137.385 29.6816C137.035 29.1437 136.86 28.5332 136.86 27.8496C136.86 26.7596 137.269 25.9016 138.086 25.2764C138.918 24.6513 140.195 24.3387 141.917 24.3387H144.632C144.632 23.5971 144.406 23.03 143.954 22.6377C143.501 22.2304 142.822 22.0267 141.917 22.0267C141.29 22.0267 140.669 22.1286 140.056 22.3322C139.458 22.5213 138.947 22.7829 138.524 23.1172L137.297 20.7401C137.94 20.2894 138.706 19.9406 139.596 19.6935C140.501 19.446 141.429 19.3225 142.377 19.3225ZM142.114 29.1145C142.698 29.1145 143.217 28.9839 143.669 28.7222C144.122 28.446 144.443 28.0462 144.632 27.5229V26.323H142.289C140.888 26.323 140.187 26.7813 140.187 27.6973C140.187 28.1334 140.356 28.4823 140.691 28.7439C141.041 28.991 141.516 29.1145 142.114 29.1145ZM149.826 15.0483H153.241V31.2303H149.826V15.0483ZM155.098 15.0483H158.513V31.2303H155.098V15.0483ZM171.908 25.407C171.908 25.4509 171.887 25.7563 171.843 26.323H162.931C163.092 27.05 163.471 27.6242 164.07 28.0462C164.668 28.4676 165.413 28.6784 166.303 28.6784C166.916 28.6784 167.456 28.5912 167.924 28.4167C168.405 28.2277 168.85 27.9373 169.259 27.5446L171.076 29.5072C169.967 30.7721 168.347 31.4048 166.216 31.4048C164.887 31.4048 163.712 31.1502 162.69 30.6415C161.669 30.1177 160.881 29.3983 160.326 28.4823C159.771 27.5662 159.494 26.5267 159.494 25.3636C159.494 24.2152 159.764 23.1827 160.304 22.2667C160.859 21.3365 161.61 20.6166 162.559 20.1079C163.523 19.5841 164.595 19.3225 165.777 19.3225C166.931 19.3225 167.975 19.57 168.909 20.0641C169.843 20.5586 170.573 21.271 171.098 22.2012C171.638 23.1172 171.908 24.186 171.908 25.407ZM165.8 21.8961C165.026 21.8961 164.376 22.1139 163.851 22.5505C163.325 22.9866 163.004 23.5825 162.887 24.3387H168.69C168.573 23.5971 168.252 23.0083 167.726 22.5722C167.201 22.1215 166.558 21.8961 165.8 21.8961ZM180.466 30.6632C180.13 30.9102 179.714 31.0993 179.218 31.2303C178.737 31.3463 178.226 31.4048 177.686 31.4048C176.284 31.4048 175.197 31.0484 174.423 30.336C173.664 29.6236 173.285 28.5765 173.285 27.1957V22.3761H171.467V19.7586H173.285V16.9021H176.7V19.7586H179.634V22.3761H176.7V27.1518C176.7 27.6464 176.824 28.0316 177.072 28.3078C177.335 28.5695 177.7 28.7005 178.167 28.7005C178.707 28.7005 179.167 28.5549 179.547 28.264L180.466 30.6632Z" fill="#3F84CD"/>
<path d="M31.0094 1H16.1692C7.79147 1 1 7.76463 1 16.1092V30.8908C1 39.2354 7.79147 46 16.1692 46H31.0094C39.3871 46 46.1786 39.2354 46.1786 30.8908V16.1092C46.1786 7.76463 39.3871 1 31.0094 1Z" fill="white" stroke="#DFE5EC"/>
<path d="M2.72534 23.8233C2.72534 12.2752 12.124 2.91382 23.7177 2.91382C35.3117 2.91382 44.7104 12.2752 44.7104 23.8233C44.7104 35.3714 35.3117 44.733 23.7177 44.733C12.124 44.733 2.72534 35.3714 2.72534 23.8233Z" fill="white"/>
<path d="M23.7299 11.3293C27.9661 14.8534 32.8242 14.6361 34.212 14.6361C33.9086 34.6774 31.595 30.7031 23.7299 36.3227C15.8649 30.7031 13.566 34.6774 13.2625 14.6361C14.6359 14.6361 19.4938 14.8534 23.7299 11.3293Z" stroke="#3375BB" stroke-width="6.06304" stroke-miterlimit="10" stroke-linecap="round" stroke-linejoin="round"/>
</svg>
