<svg width="28" height="35" viewBox="0 0 28 35" fill="none" xmlns="http://www.w3.org/2000/svg">
<path fill-rule="evenodd" clip-rule="evenodd" d="M14.8722 6.98978L15.0054 7.00681L15.1188 7.02384L15.252 7.04087L15.3655 7.09197L15.4798 7.14306L15.5743 7.19415L15.6696 7.26305L15.7642 7.33117L15.8398 7.41632L15.9163 7.50227L15.9919 7.58742L16.0297 7.69039L16.0864 7.79257L16.1053 7.91256L16.1242 8.01474L16.144 8.13473L16.1242 8.25397L16.1053 8.37396L16.0864 8.47614L16.0297 8.5791L15.9919 8.68129L15.9163 8.78425L15.8398 8.86942L15.7642 8.93754L15.6696 9.02347L15.5743 9.09159L15.4798 9.14268L15.3655 9.19378L15.252 9.22784L15.1188 9.26268L15.0054 9.27971H7.09455L6.96218 9.26268L6.84791 9.22784L6.71558 9.19378L6.62019 9.14268L6.50674 9.09159L6.41221 9.02347L6.31686 8.93754L6.24122 8.86942L6.16561 8.78425L6.10802 8.68129L6.0513 8.5791L6.0135 8.47614L5.9757 8.37396L5.95677 8.25397V8.13473V8.01474L5.9757 7.91256L6.0135 7.79257L6.0513 7.69039L6.10802 7.58742L6.16561 7.50227L6.24122 7.41632L6.31686 7.33117L6.41221 7.26305L6.50674 7.19415L6.62019 7.14306L6.71558 7.09197L6.84791 7.04087L6.96218 7.02384L7.09455 7.00681L7.20882 6.98978H14.8722ZM20.7912 6.98978L20.9055 7.00681L21.0378 7.02384L21.171 7.0579L21.2844 7.09197L21.3798 7.14306L21.4933 7.19415L21.5878 7.26305L21.6831 7.33117L21.7588 7.41632L21.8344 7.50227L21.892 7.58742L21.9487 7.69039L21.9865 7.79257L22.0243 7.91256L22.0432 8.01474V8.13473V8.25397L22.0243 8.37396L21.9865 8.47614L21.9487 8.5791L21.892 8.68129L21.8344 8.78425L21.7588 8.86942L21.6831 8.95457L21.5878 9.02347L21.4933 9.09159L21.3798 9.14268L21.2844 9.19378L21.171 9.22784L21.0378 9.26268L20.9055 9.27971H19.8236L19.6913 9.26268L19.577 9.22784L19.4635 9.19378L19.3493 9.14268L19.2358 9.09159L19.1413 9.02347L19.0648 8.95457L18.9703 8.86942L18.8947 8.78425L18.8371 8.68129L18.7804 8.5791L18.7426 8.47614L18.7048 8.37396L18.6859 8.25397V8.13473V8.01474L18.7048 7.91256L18.7426 7.79257L18.7804 7.69039L18.8371 7.58742L18.8947 7.50227L18.9703 7.41632L19.0648 7.33117L19.1413 7.26305L19.2358 7.19415L19.3493 7.14306L19.4635 7.09197L19.577 7.0579L19.6913 7.02384L19.8236 7.00681L19.9568 6.98978H20.7912ZM14.8722 12.0821L15.0054 12.0992L15.1188 12.1162L15.252 12.1332L15.3655 12.168L15.4798 12.2191L15.5743 12.2873L15.6696 12.3384L15.7642 12.4243L15.8398 12.4924L15.9163 12.5946L15.9919 12.6805L16.0297 12.7827L16.0864 12.8857L16.1053 12.9879L16.1242 13.1079L16.144 13.2271L16.1242 13.3471L16.1053 13.4493L16.0864 13.5693L16.0297 13.6715L15.9919 13.7744L15.9163 13.8596L15.8398 13.9447L15.7642 14.0307L15.6696 14.0988L15.5743 14.1669L15.4798 14.2358L15.3655 14.2699L15.252 14.321L15.1188 14.338L15.0054 14.355L14.8722 14.3721H7.20882L7.09455 14.355L6.96218 14.338L6.84791 14.321L6.71558 14.2699L6.62019 14.2358L6.50674 14.1669L6.41221 14.0988L6.31686 14.0307L6.24122 13.9447L6.16561 13.8596L6.10802 13.7744L6.0513 13.6715L6.0135 13.5693L5.9757 13.4493L5.95677 13.3471V13.2271V13.1079L5.9757 12.9879L6.0135 12.8857L6.0513 12.7827L6.10802 12.6805L6.16561 12.5946L6.24122 12.4924L6.31686 12.4243L6.41221 12.3384L6.50674 12.2873L6.62019 12.2191L6.71558 12.168L6.84791 12.1332L6.96218 12.1162L7.09455 12.0992L7.20882 12.0821H14.8722ZM20.7912 12.0821L20.9055 12.0992L21.0378 12.1162L21.171 12.1332L21.2844 12.168L21.3798 12.2191L21.4933 12.2873L21.5878 12.3384L21.6831 12.4243L21.7588 12.4924L21.8344 12.5946L21.892 12.6805L21.9487 12.7827L21.9865 12.8857L22.0243 12.9879L22.0432 13.1079V13.2271V13.3471L22.0243 13.4493L21.9865 13.5693L21.9487 13.6715L21.892 13.7744L21.8344 13.8596L21.7588 13.9447L21.6831 14.0307L21.5878 14.0988L21.4933 14.1669L21.3798 14.2358L21.2844 14.2699L21.171 14.321L21.0378 14.338L20.9055 14.355L20.7912 14.3721H19.9568L19.8236 14.355L19.6913 14.338L19.577 14.321L19.4635 14.2699L19.3493 14.2358L19.2358 14.1669L19.1413 14.0988L19.0648 14.0307L18.9703 13.9447L18.8947 13.8596L18.8371 13.7744L18.7804 13.6715L18.7426 13.5693L18.7048 13.4493L18.6859 13.3471V13.2271V13.1079L18.7048 12.9879L18.7426 12.8857L18.7804 12.7827L18.8371 12.6805L18.8947 12.5946L18.9703 12.4924L19.0648 12.4243L19.1413 12.3384L19.2358 12.2873L19.3493 12.2191L19.4635 12.168L19.577 12.1332L19.6913 12.1162L19.8236 12.0992L19.9568 12.0821H20.7912ZM15.0054 17.1753L15.1188 17.1923L15.252 17.2263L15.3655 17.2604L15.4798 17.3115L15.5743 17.3634L15.6696 17.4315L15.7642 17.4996L15.8398 17.5855L15.9163 17.6707L15.9919 17.7729L16.0297 17.8759L16.0864 17.978L16.1053 18.081L16.1242 18.2002L16.144 18.3202L16.1242 18.4224L16.1053 18.5424L16.0864 18.6446L16.0297 18.7646L15.9919 18.8497L15.9163 18.9527L15.8398 19.0378L15.7642 19.123L15.6696 19.1919L15.5743 19.26L15.4798 19.3111L15.3655 19.3622L15.252 19.3971L15.1188 19.4311L15.0054 19.4481H7.09455L6.96218 19.4311L6.84791 19.3971L6.71558 19.3622L6.62019 19.3111L6.50674 19.26L6.41221 19.1919L6.31686 19.123L6.24122 19.0378L6.16561 18.9527L6.10802 18.8497L6.0513 18.7646L6.0135 18.6446L5.9757 18.5424L5.95677 18.4224V18.3202V18.2002L5.9757 18.081L6.0135 17.978L6.0513 17.8759L6.10802 17.7729L6.16561 17.6707L6.24122 17.5855L6.31686 17.4996L6.41221 17.4315L6.50674 17.3634L6.62019 17.3115L6.71558 17.2604L6.84791 17.2263L6.96218 17.1923L7.09455 17.1753H15.0054ZM20.9055 17.1753L21.0378 17.1923L21.171 17.2263L21.2844 17.2604L21.3798 17.3115L21.4933 17.3634L21.5878 17.4315L21.6831 17.4996L21.7588 17.5855L21.8344 17.6707L21.892 17.7729L21.9487 17.8759L21.9865 17.978L22.0243 18.081L22.0432 18.2002V18.3202V18.4224L22.0243 18.5424L21.9865 18.6446L21.9487 18.7646L21.892 18.8497L21.8344 18.9527L21.7588 19.0378L21.6831 19.123L21.5878 19.1919L21.4933 19.26L21.3798 19.3111L21.2844 19.3622L21.171 19.3971L21.0378 19.4311L20.9055 19.4481H19.8236L19.6913 19.4311L19.577 19.3971L19.4635 19.3622L19.3493 19.3111L19.2358 19.26L19.1413 19.1919L19.0648 19.123L18.9703 19.0378L18.8947 18.9527L18.8371 18.8497L18.7804 18.7646L18.7426 18.6446L18.7048 18.5424L18.6859 18.4224V18.3202V18.2002L18.7048 18.081L18.7426 17.978L18.7804 17.8759L18.8371 17.7729L18.8947 17.6707L18.9703 17.5855L19.0648 17.4996L19.1413 17.4315L19.2358 17.3634L19.3493 17.3115L19.4635 17.2604L19.577 17.2263L19.6913 17.1923L19.8236 17.1753H20.9055ZM20.9055 25.4292L21.0378 25.4463L21.171 25.4811L21.2844 25.5152L21.3798 25.5662L21.4933 25.6173L21.5878 25.6855L21.6831 25.7544L21.7588 25.8395L21.8344 25.9254L21.892 26.0276L21.9487 26.1298L21.9865 26.2328L22.0243 26.335L22.0432 26.455V26.5742V26.6942L22.0243 26.7964L21.9865 26.9164L21.9487 27.0185L21.892 27.1215L21.8344 27.2067L21.7588 27.2926L21.6831 27.3777L21.5878 27.4459L21.4933 27.5148L21.3798 27.5659L21.2844 27.617L21.171 27.6681L21.0378 27.6851L20.9055 27.7021L20.7912 27.7191H12.7291L12.5959 27.7021L12.4636 27.6851L12.3492 27.6681L12.2358 27.617L12.1215 27.5659L12.0081 27.5148L11.9136 27.4459L11.8182 27.3777L11.7426 27.2926L11.6669 27.2067L11.6094 27.1215L11.5527 27.0185L11.5149 26.9164L11.477 26.7964L11.4581 26.6942V26.5742V26.455L11.477 26.335L11.5149 26.2328L11.5527 26.1298L11.6094 26.0276L11.6669 25.9254L11.7426 25.8395L11.8182 25.7544L11.9136 25.6855L12.0081 25.6173L12.1215 25.5662L12.2358 25.5152L12.3492 25.4811L12.4636 25.4463L12.5959 25.4292H20.9055ZM1.1386 0L1.0054 0.0170306L0.891995 0.0510918L0.777684 0.0851531L0.664276 0.136245L0.549965 0.187337L0.455438 0.256236L0.360048 0.341389L0.284443 0.409511L0.208837 0.495441L0.152114 0.597643L0.0945264 0.700604L0.0567237 0.802787L0.018921 0.905748L0 1.02496V1.14495V33.855V33.9743L0.018921 34.0943L0.0567237 34.1964L0.0945264 34.2994L0.152114 34.4016L0.208837 34.5046L0.284443 34.5897L0.360048 34.6578L0.455438 34.7438L0.549965 34.8119L0.664276 34.863L0.777684 34.9141L0.891995 34.9489L1.0054 34.983L1.1386 35H1.61209L1.78309 34.983L1.95408 34.9659L2.10533 34.9141L2.23853 34.8459L2.39064 34.7608L2.50405 34.6578L2.6175 34.5386L2.71289 34.4186L2.80741 34.2994L2.90276 34.1794L3.03513 34.0943L3.16832 34.0083L3.31953 33.9402L3.47165 33.8891L3.64264 33.855H3.98381L4.15481 33.8891L4.30606 33.9402L4.45813 34.0083L4.59046 34.0943L4.72365 34.1794L4.81818 34.2994L4.91357 34.4186L5.0081 34.5386L5.12154 34.6578L5.23581 34.7608L5.36814 34.8459L5.52026 34.9141L5.67237 34.9659L5.8425 34.983L5.99462 35H6.71558L6.88657 34.983L7.03782 34.9659L7.1899 34.9141L7.34115 34.8459L7.47434 34.7608L7.60667 34.6578L7.70206 34.5386L7.79659 34.4186L7.89198 34.2994L8.00538 34.1794L8.11883 34.0943L8.25202 34.0083L8.40414 33.9402L8.57427 33.8891L8.72638 33.855H9.08643L9.23851 33.8891L9.40954 33.9402L9.56075 34.0083L9.69394 34.0943L9.80739 34.1794L9.92166 34.2994L10.0162 34.4186L10.1107 34.5386L10.2061 34.6578L10.3384 34.7608L10.4716 34.8459L10.6229 34.9141L10.775 34.9659L10.9271 34.983L11.0972 35H11.7993L11.9703 34.983L12.1413 34.9659L12.2925 34.9141L12.4446 34.8459L12.577 34.7608L12.6913 34.6578L12.8047 34.5386L12.9001 34.4186L12.9946 34.2994L13.0891 34.1794L13.2223 34.0943L13.3546 34.0083L13.5068 33.9402L13.6588 33.8891L13.829 33.855H14.171L14.3412 33.8891L14.4932 33.9402L14.6454 34.0083L14.7777 34.0943L14.9109 34.1794L15.0054 34.2994L15.0999 34.4186L15.1953 34.5386L15.3087 34.6578L15.423 34.7608L15.5554 34.8459L15.7075 34.9141L15.8587 34.9659L16.0297 34.983L16.2007 35H16.9028L17.0729 34.983L17.225 34.9659L17.3763 34.9141L17.5284 34.8459L17.6616 34.7608L17.7939 34.6578L17.8893 34.5386L17.9838 34.4186L18.0783 34.2994L18.1926 34.1794L18.3061 34.0943L18.4581 34.0083L18.5905 33.9402L18.7615 33.8891L18.9136 33.855H19.2736L19.4257 33.8891L19.5959 33.9402L19.748 34.0083L19.8812 34.0943L19.9946 34.1794L20.108 34.2994L20.2034 34.4186L20.2979 34.5386L20.4122 34.6578L20.5257 34.7608L20.6589 34.8459L20.8101 34.9141L20.9622 34.9659L21.1134 34.983L21.2844 35H22.0054L22.1575 34.983L22.3276 34.9659L22.4797 34.9141L22.6319 34.8459L22.7642 34.7608L22.8776 34.6578L22.9919 34.5386L23.0864 34.4186L23.1818 34.2994L23.2763 34.1794L23.4095 34.0943L23.5419 34.0083L23.6939 33.9402L23.8452 33.8891L24.0162 33.855H24.3574L24.5284 33.8891L24.6805 33.9402L24.8317 34.0083L24.9649 34.0943L25.0972 34.1794L25.2115 34.2994L25.2871 34.4186L25.3825 34.5386L25.496 34.6578L25.6283 34.7608L25.7615 34.8459L25.8947 34.9141L26.0459 34.9659L26.2169 34.983L26.3879 35H26.8614L26.9946 34.983L27.108 34.9489L27.2223 34.9141L27.3357 34.863L27.45 34.8119L27.5446 34.7438L27.64 34.6578L27.7156 34.5897L27.7912 34.5046L27.8479 34.4016L27.9055 34.2994L27.9433 34.1964L27.9811 34.0943L28 33.9743V33.855V1.14495V1.02496L27.9811 0.905748L27.9433 0.802787L27.9055 0.700604L27.8479 0.597643L27.7912 0.495441L27.7156 0.409511L27.64 0.341389L27.5446 0.256236L27.45 0.187337L27.3357 0.136245L27.2223 0.0851531L27.108 0.0510918L26.9946 0.0170306L26.8614 0H26.3879L26.2169 0.0170306L26.0459 0.0340612L25.8947 0.0851531L25.7615 0.153276L25.6283 0.239205L25.496 0.341389L25.3825 0.46138L25.2871 0.580613L25.2115 0.700604L25.0972 0.819818L24.9649 0.905748L24.8317 0.990901L24.6805 1.05902L24.5284 1.11011L24.3574 1.14495H24.0162L23.8452 1.11011L23.6939 1.05902L23.5419 0.990901L23.4095 0.905748L23.2763 0.819818L23.1818 0.700604L23.0864 0.580613L22.9919 0.46138L22.8776 0.341389L22.7642 0.239205L22.6319 0.153276L22.4797 0.0851531L22.3276 0.0340612L22.1575 0.0170306L22.0054 0H21.2844L21.1134 0.0170306L20.9622 0.0340612L20.8101 0.0851531L20.6589 0.153276L20.5257 0.239205L20.4122 0.341389L20.2979 0.46138L20.2034 0.580613L20.108 0.700604L19.9946 0.819818L19.8812 0.905748L19.748 0.990901L19.5959 1.05902L19.4257 1.11011L19.2736 1.14495H18.9136L18.7426 1.11011L18.5905 1.05902L18.4392 0.990901L18.3061 0.905748L18.1737 0.802787L18.0783 0.683573L17.9838 0.563564L17.8893 0.444349L17.775 0.324358L17.6426 0.222175L17.5095 0.153276L17.3573 0.0851531L17.2061 0.0340612L17.0351 0.0170306L16.8839 0H16.2007L16.0297 0.0170306L15.8587 0.0340612L15.7075 0.0851531L15.5554 0.153276L15.423 0.239205L15.3087 0.341389L15.1953 0.46138L15.0999 0.580613L15.0054 0.700604L14.9109 0.819818L14.7777 0.905748L14.6454 0.990901L14.4932 1.05902L14.3412 1.11011L14.171 1.14495H13.829L13.6588 1.11011L13.5068 1.05902L13.3546 0.990901L13.2223 0.905748L13.0891 0.819818L12.9946 0.700604L12.9001 0.580613L12.8047 0.46138L12.6913 0.341389L12.577 0.239205L12.4446 0.153276L12.2925 0.0851531L12.1413 0.0340612L11.9703 0.0170306L11.7993 0H11.0972L10.9271 0.0170306L10.775 0.0340612L10.6229 0.0851531L10.4716 0.153276L10.3384 0.239205L10.2061 0.341389L10.1107 0.46138L10.0162 0.580613L9.92166 0.700604L9.80739 0.819818L9.69394 0.905748L9.56075 0.990901L9.40954 1.05902L9.23851 1.11011L9.08643 1.14495H8.72638L8.57427 1.11011L8.40414 1.05902L8.25202 0.990901L8.11883 0.905748L8.00538 0.819818L7.89198 0.700604L7.79659 0.580613L7.70206 0.46138L7.60667 0.341389L7.47434 0.239205L7.34115 0.153276L7.1899 0.0851531L7.03782 0.0340612L6.88657 0.0170306L6.71558 0H5.99462L5.8425 0.0170306L5.67237 0.0340612L5.52026 0.0851531L5.36814 0.153276L5.23581 0.239205L5.12154 0.341389L5.0081 0.46138L4.91357 0.580613L4.81818 0.700604L4.72365 0.819818L4.59046 0.905748L4.45813 0.990901L4.30606 1.05902L4.15481 1.11011L3.98381 1.14495H3.64264L3.47165 1.11011L3.31953 1.05902L3.16832 0.990901L3.03513 0.905748L2.90276 0.819818L2.80741 0.700604L2.71289 0.580613L2.6175 0.46138L2.50405 0.341389L2.39064 0.239205L2.23853 0.153276L2.10533 0.0851531L1.95408 0.0340612L1.78309 0.0170306L1.61209 0H1.1386Z" fill="url(#paint0_linear_1_191)"/>
<defs>
<linearGradient id="paint0_linear_1_191" x1="14" y1="0" x2="14" y2="35" gradientUnits="userSpaceOnUse">
<stop stop-color="#F5F5F7"/>
<stop offset="1" stop-color="#C1C1C2"/>
</linearGradient>
</defs>
</svg>
