<svg id="Layer_1" data-name="Layer 1" xmlns="http://www.w3.org/2000/svg" viewBox="0 0 60 60"><defs><style>.cls-1{fill:#e1e5e5;}.cls-2{fill:#e9eded;}.cls-3{fill:#2fd184;}.cls-4{fill:#d0d4d4;}</style></defs><title>icon-xrp-on-ledger-decentralized</title><path class="cls-1" d="M55.61,55.61A15,15,0,0,0,34.39,34.39Z"/><path class="cls-2" d="M61.8,15c0-8.28-7.12-15-15.9-15S30,6.72,30,15s7.12,15,15.9,15S61.8,23.28,61.8,15ZM45.9,22.5A7.74,7.74,0,0,1,38,15a8,8,0,0,1,15.9,0A7.74,7.74,0,0,1,45.9,22.5Z"/><path class="cls-2" d="M30,45a15.28,15.28,0,0,1,.67-4.46,15,15,0,0,1,1.89-3.93,17.23,17.23,0,0,1,1.83-2.22L30,30H0L30,60H45A15,15,0,0,1,30,45Z"/><path class="cls-2" d="M55.61,55.61h0a15.09,15.09,0,0,1-6.15,3.72A15.28,15.28,0,0,1,45,60H60Z"/><path class="cls-3" d="M55.61,55.61,34.39,34.39a17.23,17.23,0,0,0-1.83,2.22,15,15,0,0,0-1.89,3.93A15.28,15.28,0,0,0,30,45,15,15,0,0,0,45,60a15.28,15.28,0,0,0,4.46-.67A15.09,15.09,0,0,0,55.61,55.61Z"/><circle class="cls-4" cx="15" cy="15" r="15"/></svg>