<svg width="1440" height="46" viewBox="0 0 1440 46" fill="none" xmlns="http://www.w3.org/2000/svg">
<g clip-path="url(#clip0_1535_175965)">
<rect width="1440" height="46" fill="#F5F5F7"/>
<path fill-rule="evenodd" clip-rule="evenodd" d="M-869.809 100.137L-935.787 137.813C-884.894 225.005 -783.822 264.797 -693.582 239.683C-638.644 297.549 -556.777 321.038 -482.29 300.305C-480.917 301.752 -479.526 303.177 -478.12 304.581C-499.869 282.761 -516.416 257.026 -527.185 229.374C-559.398 232.488 -592.206 223.471 -619.081 204.195L-541.66 159.979C-542.996 124.404 -535.225 88.3785 -517.334 55.4267L-687.311 152.502C-750.246 188.445 -831.952 165 -869.809 100.137ZM-501.145 26.9851L-584.431 3.08744L-440.576 -79.0695L-501.145 26.9851ZM-334.528 -139.635L-309.92 -153.689C-308.645 -154.417 -307.365 -155.13 -306.081 -155.827L-328.108 -117.258L-334.528 -139.635ZM-132.139 -165.672C-154.377 -174.333 -177.854 -179.258 -201.531 -180.148L-250.185 -94.9566C-220.719 -105.584 -188.813 -104.795 -160.002 -94.179L-148.386 -114.518C-139.153 -130.684 -133.839 -148.09 -132.139 -165.672ZM-56.5447 -116.218C-55.2432 -114.914 -53.9556 -113.592 -52.6826 -112.251C21.8037 -132.98 103.67 -109.489 158.605 -51.6202C248.848 -76.7397 349.925 -36.9481 400.821 50.2469L334.842 87.9224C296.985 23.0596 215.279 -0.384937 152.345 35.5573L-17.6221 132.627C0.265868 99.6762 8.03532 63.6514 6.69782 28.0783L84.1084 -16.1318C57.2363 -35.4089 24.4312 -44.4289 -7.7803 -41.3191C-18.5004 -68.8413 -34.9437 -94.4645 -56.5447 -116.218ZM-78.493 76.7317C-80.9591 83.5695 -84.0399 90.2759 -87.7554 96.7817L-111.711 138.727L-161.833 124.345L-209.784 151.73L-189.594 116.379L-161.852 124.339L-78.493 76.7317ZM-132.945 17.1874L-79.2758 -13.4635C-83.5356 -25.0203 -89.3767 -36.0789 -96.6965 -46.2821L-132.945 17.1874ZM-267.482 94.0307L-245.133 171.919L-344.329 228.57L-267.491 94.0282L-267.486 94.0209L-289.836 16.1299L-190.649 -40.5167L-267.485 94.0214L-267.484 94.0244L-267.491 94.0282L-267.482 94.0307ZM-325.194 36.3234L-345.385 71.6779L-373.115 63.7211L-456.466 111.324C-454 104.489 -450.92 97.7852 -447.206 91.2822L-423.25 49.3348L-373.148 63.7107L-325.194 36.3234ZM-382.872 -21.3654L-328.108 -117.256L-312.178 -61.7395L-382.872 -21.3654ZM-455.692 201.512L-402.033 170.866L-438.277 234.329C-445.595 224.126 -451.434 213.068 -455.692 201.512ZM-374.977 282.236C-346.162 292.857 -314.249 293.648 -284.779 283.018L-333.433 368.21C-357.113 367.32 -380.593 362.394 -402.833 353.731C-401.135 336.143 -395.821 318.732 -386.585 302.56L-374.977 282.236ZM-228.882 343.888L-206.856 305.319L-222.786 249.801L-152.086 209.423L-206.854 305.321L-200.435 327.695L-225.046 341.751C-226.32 342.478 -227.599 343.191 -228.882 343.888ZM-94.3821 267.127L-33.8161 161.078L49.4652 184.974L-94.3821 267.127Z" fill="#00FF76"/>
<path fill-rule="evenodd" clip-rule="evenodd" d="M-478.255 304.449C-499.928 282.662 -516.422 256.983 -527.166 229.397C-509.584 227.697 -492.178 222.383 -476.012 213.15L-455.673 201.535C-451.415 213.092 -445.575 224.151 -438.256 234.355L-402.009 170.887L-267.473 94.0517L-345.363 71.7016L-325.17 36.3433L-289.815 16.1515L-267.464 94.0449L-267.464 94.0457L-190.626 -40.4965L-127.164 -76.7399C-137.367 -84.0574 -148.425 -89.8963 -159.981 -94.1543L-148.365 -114.493C-139.132 -130.66 -133.818 -148.065 -132.118 -165.647C-104.229 -154.785 -78.2891 -138.046 -56.3499 -116.019C-34.8351 -94.3032 -18.4518 -68.7439 -7.76079 -41.2959C-25.3497 -39.598 -42.7617 -34.2835 -58.934 -25.0473L-79.2566 -13.4409C-83.516 -24.9969 -89.3565 -36.0549 -96.6756 -46.2577L-132.921 17.2077L-267.464 94.0463L-267.464 94.0457L-267.465 94.0468L-267.473 94.0513L-267.468 94.0526L-344.305 228.591L-407.775 264.839C-397.571 272.159 -386.512 278 -374.956 282.259L-386.563 302.584C-395.799 318.756 -401.113 336.167 -402.812 353.755C-430.564 342.945 -456.385 326.317 -478.255 304.449ZM-333.414 368.233L-284.761 283.041C-277.923 280.575 -271.217 277.494 -264.712 273.779L-222.767 249.824L-206.837 305.341L-228.865 343.911C-261.816 361.8 -297.841 369.57 -333.414 368.233ZM-200.415 327.718L-206.836 305.342L-152.069 209.447L-56.1731 154.68L-33.7977 161.1L-94.3645 267.151L-200.415 327.718ZM-17.6041 132.651L-56.1747 154.679L-111.692 138.749L-87.7365 96.8033C-84.0213 90.298 -80.9406 83.592 -78.4745 76.7547L6.71678 28.101C8.05411 63.6743 0.284329 99.6993 -17.6041 132.651ZM-245.113 171.941L-267.462 94.0545L-189.573 116.403L-209.761 151.751L-245.113 171.941ZM-306.065 -155.799C-273.114 -173.689 -237.088 -181.46 -201.514 -180.123L-250.169 -94.9298C-257.004 -92.4641 -263.708 -89.384 -270.212 -85.6696L-312.158 -61.714L-328.088 -117.234L-382.856 -21.3375L-478.749 33.4282L-423.231 49.3587L-447.187 91.3051C-450.902 97.8087 -453.982 104.513 -456.447 111.348L-541.641 160.003C-542.978 124.429 -535.207 88.4033 -517.317 55.4517L-478.755 33.4285L-501.127 27.0091L-440.56 -79.0416L-334.509 -139.609L-328.089 -117.235L-306.065 -155.799Z" fill="#00FF76"/>
<path fill-rule="evenodd" clip-rule="evenodd" d="M2315.81 100.137L2381.79 137.813C2330.89 225.005 2229.82 264.797 2139.58 239.683C2084.64 297.549 2002.78 321.038 1928.29 300.305C1926.92 301.752 1925.53 303.177 1924.12 304.581C1945.87 282.761 1962.42 257.026 1973.18 229.374C2005.4 232.488 2038.21 223.471 2065.08 204.195L1987.66 159.979C1989 124.404 1981.22 88.3785 1963.33 55.4267L2133.31 152.502C2196.25 188.445 2277.95 165 2315.81 100.137ZM1947.15 26.9851L2030.43 3.08744L1886.58 -79.0695L1947.15 26.9851ZM1780.53 -139.635L1755.92 -153.689C1754.64 -154.417 1753.37 -155.13 1752.08 -155.827L1774.11 -117.258L1780.53 -139.635ZM1578.14 -165.672C1600.38 -174.333 1623.85 -179.258 1647.53 -180.148L1696.18 -94.9566C1666.72 -105.584 1634.81 -104.795 1606 -94.179L1594.39 -114.518C1585.15 -130.684 1579.84 -148.09 1578.14 -165.672ZM1502.54 -116.218C1501.24 -114.914 1499.96 -113.592 1498.68 -112.251C1424.2 -132.98 1342.33 -109.489 1287.4 -51.6202C1197.15 -76.7397 1096.07 -36.9481 1045.18 50.2469L1111.16 87.9224C1149.01 23.0596 1230.72 -0.384937 1293.66 35.5573L1463.62 132.627C1445.73 99.6762 1437.96 63.6514 1439.3 28.0783L1361.89 -16.1318C1388.76 -35.4089 1421.57 -44.4289 1453.78 -41.3191C1464.5 -68.8413 1480.94 -94.4645 1502.54 -116.218ZM1524.49 76.7317C1526.96 83.5695 1530.04 90.2759 1533.76 96.7817L1557.71 138.727L1607.83 124.345L1655.78 151.73L1635.59 116.379L1607.85 124.339L1524.49 76.7317ZM1578.94 17.1874L1525.28 -13.4635C1529.54 -25.0203 1535.38 -36.0789 1542.7 -46.2821L1578.94 17.1874ZM1713.48 94.0307L1691.13 171.919L1790.33 228.57L1713.49 94.0282L1713.49 94.0209L1735.84 16.1299L1636.65 -40.5167L1713.49 94.0214L1713.48 94.0244L1713.49 94.0282L1713.48 94.0307ZM1771.19 36.3234L1791.39 71.6779L1819.12 63.7211L1902.47 111.324C1900 104.489 1896.92 97.7852 1893.21 91.2822L1869.25 49.3348L1819.15 63.7107L1771.19 36.3234ZM1828.87 -21.3654L1774.11 -117.256L1758.18 -61.7395L1828.87 -21.3654ZM1901.69 201.512L1848.03 170.866L1884.28 234.329C1891.59 224.126 1897.43 213.068 1901.69 201.512ZM1820.98 282.236C1792.16 292.857 1760.25 293.648 1730.78 283.018L1779.43 368.21C1803.11 367.32 1826.59 362.394 1848.83 353.731C1847.14 336.143 1841.82 318.732 1832.58 302.56L1820.98 282.236ZM1674.88 343.888L1652.86 305.319L1668.79 249.801L1598.09 209.423L1652.85 305.321L1646.43 327.695L1671.05 341.751C1672.32 342.478 1673.6 343.191 1674.88 343.888ZM1540.38 267.127L1479.82 161.078L1396.53 184.974L1540.38 267.127Z" fill="#00FF76"/>
<path fill-rule="evenodd" clip-rule="evenodd" d="M1924.25 304.449C1945.93 282.662 1962.42 256.983 1973.17 229.397C1955.58 227.697 1938.18 222.383 1922.01 213.15L1901.67 201.535C1897.41 213.092 1891.57 224.151 1884.26 234.355L1848.01 170.887L1713.47 94.0517L1791.36 71.7016L1771.17 36.3433L1735.81 16.1515L1713.46 94.0449L1713.46 94.0457L1636.63 -40.4965L1573.16 -76.7399C1583.37 -84.0574 1594.43 -89.8963 1605.98 -94.1543L1594.37 -114.493C1585.13 -130.66 1579.82 -148.065 1578.12 -165.647C1550.23 -154.785 1524.29 -138.046 1502.35 -116.019C1480.84 -94.3032 1464.45 -68.7439 1453.76 -41.2959C1471.35 -39.598 1488.76 -34.2835 1504.93 -25.0473L1525.26 -13.4409C1529.52 -24.9969 1535.36 -36.0549 1542.68 -46.2577L1578.92 17.2077L1713.46 94.0463L1713.46 94.0457L1713.46 94.0468L1713.47 94.0513L1713.47 94.0526L1790.3 228.591L1853.77 264.839C1843.57 272.159 1832.51 278 1820.96 282.259L1832.56 302.584C1841.8 318.756 1847.11 336.167 1848.81 353.755C1876.56 342.945 1902.38 326.317 1924.25 304.449ZM1779.41 368.233L1730.76 283.041C1723.92 280.575 1717.22 277.494 1710.71 273.779L1668.77 249.824L1652.84 305.341L1674.86 343.911C1707.82 361.8 1743.84 369.57 1779.41 368.233ZM1646.42 327.718L1652.84 305.342L1598.07 209.447L1502.17 154.68L1479.8 161.1L1540.36 267.151L1646.42 327.718ZM1463.6 132.651L1502.17 154.679L1557.69 138.749L1533.74 96.8033C1530.02 90.298 1526.94 83.592 1524.47 76.7547L1439.28 28.101C1437.95 63.6743 1445.72 99.6993 1463.6 132.651ZM1691.11 171.941L1713.46 94.0545L1635.57 116.403L1655.76 151.751L1691.11 171.941ZM1752.07 -155.799C1719.11 -173.689 1683.09 -181.46 1647.51 -180.123L1696.17 -94.9298C1703 -92.4641 1709.71 -89.384 1716.21 -85.6696L1758.16 -61.714L1774.09 -117.234L1828.86 -21.3375L1924.75 33.4282L1869.23 49.3587L1893.19 91.3051C1896.9 97.8087 1899.98 104.513 1902.45 111.348L1987.64 160.003C1988.98 124.429 1981.21 88.4033 1963.32 55.4517L1924.75 33.4285L1947.13 27.0091L1886.56 -79.0416L1780.51 -139.609L1774.09 -117.235L1752.07 -155.799Z" fill="#00FF76"/>
<path d="M1591.31 -85.1376L1641.5 -135.894C1565.9 -212.344 1443.32 -212.344 1367.72 -135.894L1158.87 75.3037L1259.25 75.3037L1417.91 -85.1376C1465.8 -133.556 1543.43 -133.556 1591.31 -85.1376Z" fill="#5500FF"/>
<path d="M1792.06 -85.1386L1842.26 -135.895C1766.66 -212.345 1644.08 -212.345 1568.48 -135.895L1359.62 75.3027L1460.01 75.3027L1618.67 -85.1386C1666.55 -133.557 1744.18 -133.557 1792.06 -85.1386Z" fill="#5500FF"/>
<path d="M-145.305 -85.1376L-195.504 -135.894C-119.898 -212.344 2.67715 -212.344 78.2802 -135.894L287.135 75.3037L186.749 75.3037L28.0868 -85.1376C-19.7952 -133.556 -97.425 -133.556 -145.305 -85.1376Z" fill="#5500FF"/>
<path d="M-346.063 -85.1386L-396.262 -135.895C-320.656 -212.345 -198.08 -212.345 -122.477 -135.895L86.3774 75.3027L-14.0089 75.3027L-172.671 -85.1386C-220.553 -133.557 -298.183 -133.557 -346.063 -85.1386Z" fill="#5500FF"/>
<g style="mix-blend-mode:overlay" opacity="0.4">
<g clip-path="url(#clip1_1535_175965)">
<rect width="360.26" height="298.296" transform="matrix(-1 0 0 1 720.52 -275.118)" fill="white"/>
<rect width="525.058" height="576.864" transform="matrix(-0.866025 0.5 0.5 0.866025 625.332 -512.428)" fill="white"/>
<rect width="525.058" height="5.60062" transform="matrix(-0.866025 0.5 0.5 0.866025 770.948 -260.213)" fill="black"/>
<rect width="525.058" height="5.60062" transform="matrix(-0.866025 0.5 0.5 0.866025 776.548 -250.513)" fill="black"/>
<rect width="525.058" height="5.60062" transform="matrix(-0.866025 0.5 0.5 0.866025 782.149 -240.812)" fill="black"/>
<rect width="525.058" height="5.60062" transform="matrix(-0.866025 0.5 0.5 0.866025 787.749 -231.112)" fill="black"/>
<rect width="525.058" height="5.60062" transform="matrix(-0.866025 0.5 0.5 0.866025 793.35 -221.411)" fill="black"/>
<rect width="525.058" height="5.60062" transform="matrix(-0.866025 0.5 0.5 0.866025 798.951 -211.711)" fill="black"/>
<rect width="525.058" height="5.60062" transform="matrix(-0.866025 0.5 0.5 0.866025 804.551 -202.01)" fill="black"/>
<rect width="525.058" height="5.60062" transform="matrix(-0.866025 0.5 0.5 0.866025 810.152 -192.31)" fill="black"/>
<rect width="525.058" height="5.60062" transform="matrix(-0.866025 0.5 0.5 0.866025 815.753 -182.609)" fill="black"/>
<rect width="525.058" height="5.60062" transform="matrix(-0.866025 0.5 0.5 0.866025 821.353 -172.908)" fill="black"/>
<rect width="525.058" height="5.60062" transform="matrix(-0.866025 0.5 0.5 0.866025 826.954 -163.208)" fill="black"/>
<rect width="525.058" height="5.60062" transform="matrix(-0.866025 0.5 0.5 0.866025 832.554 -153.508)" fill="black"/>
<rect width="525.058" height="5.60062" transform="matrix(-0.866025 0.5 0.5 0.866025 838.155 -143.807)" fill="black"/>
<rect width="525.058" height="5.60062" transform="matrix(-0.866025 0.5 0.5 0.866025 843.756 -134.106)" fill="black"/>
<rect width="525.058" height="5.60062" transform="matrix(-0.866025 0.5 0.5 0.866025 849.356 -124.406)" fill="black"/>
<rect width="525.058" height="5.60062" transform="matrix(-0.866025 0.5 0.5 0.866025 854.957 -114.705)" fill="black"/>
<rect width="525.058" height="5.60062" transform="matrix(-0.866025 0.5 0.5 0.866025 860.557 -105.005)" fill="black"/>
<rect width="525.058" height="5.60062" transform="matrix(-0.866025 0.5 0.5 0.866025 866.158 -95.304)" fill="black"/>
<rect width="525.058" height="5.60062" transform="matrix(-0.866025 0.5 0.5 0.866025 871.759 -85.6035)" fill="black"/>
<rect width="525.058" height="5.60062" transform="matrix(-0.866025 0.5 0.5 0.866025 877.359 -75.9028)" fill="black"/>
<rect width="525.058" height="5.60062" transform="matrix(-0.866025 0.5 0.5 0.866025 882.96 -66.2026)" fill="black"/>
<rect width="525.058" height="5.60062" transform="matrix(-0.866025 0.5 0.5 0.866025 888.561 -56.502)" fill="black"/>
<rect width="525.058" height="5.60062" transform="matrix(-0.866025 0.5 0.5 0.866025 894.161 -46.8018)" fill="black"/>
<rect width="525.058" height="5.60062" transform="matrix(-0.866025 0.5 0.5 0.866025 899.762 -37.1006)" fill="black"/>
<rect width="525.058" height="5.60062" transform="matrix(-0.866025 0.5 0.5 0.866025 905.362 -27.4004)" fill="black"/>
<rect width="525.058" height="5.60062" transform="matrix(-0.866025 0.5 0.5 0.866025 910.963 -17.7002)" fill="black"/>
<path fill-rule="evenodd" clip-rule="evenodd" d="M360.934 -275.163H413.041L495.395 -193.66C520.248 -169.064 560.542 -169.064 585.395 -193.66L667.749 -275.163H719.855L611.448 -167.877C572.206 -129.04 508.583 -129.04 469.341 -167.877L360.934 -275.163ZM720.519 23.1777H668.413L585.39 -58.9886C560.537 -83.5852 520.243 -83.5852 495.39 -58.9886L412.366 23.1777H360.259L469.336 -84.7719C508.578 -123.608 572.201 -123.608 611.443 -84.7719L720.519 23.1777Z" fill="white"/>
<mask id="mask0_1535_175965" style="mask-type:alpha" maskUnits="userSpaceOnUse" x="360" y="-276" width="361" height="300">
<path fill-rule="evenodd" clip-rule="evenodd" d="M360.934 -275.163H413.041L495.395 -193.66C520.248 -169.064 560.542 -169.064 585.395 -193.66L667.749 -275.163H719.855L611.448 -167.877C572.206 -129.04 508.583 -129.04 469.341 -167.877L360.934 -275.163ZM720.519 23.1777H668.413L585.39 -58.9886C560.537 -83.5852 520.243 -83.5852 495.39 -58.9886L412.366 23.1777H360.259L469.336 -84.7719C508.578 -123.608 572.201 -123.608 611.443 -84.7719L720.519 23.1777Z" fill="white"/>
</mask>
<g mask="url(#mask0_1535_175965)">
<rect width="525.058" height="576.864" transform="matrix(-0.866025 0.5 0.5 0.866025 625.332 -512.428)" fill="black"/>
<rect width="525.058" height="5.60062" transform="matrix(-0.866025 0.5 0.5 0.866025 770.948 -260.213)" fill="white"/>
<rect width="525.058" height="5.60062" transform="matrix(-0.866025 0.5 0.5 0.866025 776.548 -250.513)" fill="white"/>
<rect width="525.058" height="5.60062" transform="matrix(-0.866025 0.5 0.5 0.866025 782.149 -240.812)" fill="white"/>
<rect width="525.058" height="5.60062" transform="matrix(-0.866025 0.5 0.5 0.866025 787.749 -231.112)" fill="white"/>
<rect width="525.058" height="5.60062" transform="matrix(-0.866025 0.5 0.5 0.866025 793.35 -221.411)" fill="white"/>
<rect width="525.058" height="5.60062" transform="matrix(-0.866025 0.5 0.5 0.866025 798.951 -211.711)" fill="white"/>
<rect width="525.058" height="5.60062" transform="matrix(-0.866025 0.5 0.5 0.866025 804.551 -202.01)" fill="white"/>
<rect width="525.058" height="5.60062" transform="matrix(-0.866025 0.5 0.5 0.866025 810.152 -192.31)" fill="white"/>
<rect width="525.058" height="5.60062" transform="matrix(-0.866025 0.5 0.5 0.866025 815.753 -182.609)" fill="white"/>
<rect width="525.058" height="5.60062" transform="matrix(-0.866025 0.5 0.5 0.866025 821.353 -172.908)" fill="white"/>
<rect width="525.058" height="5.60062" transform="matrix(-0.866025 0.5 0.5 0.866025 826.954 -163.208)" fill="white"/>
<rect width="525.058" height="5.60062" transform="matrix(-0.866025 0.5 0.5 0.866025 832.554 -153.508)" fill="white"/>
<rect width="525.058" height="5.60062" transform="matrix(-0.866025 0.5 0.5 0.866025 838.155 -143.807)" fill="white"/>
<rect width="525.058" height="5.60062" transform="matrix(-0.866025 0.5 0.5 0.866025 843.756 -134.106)" fill="white"/>
<rect width="525.058" height="5.60062" transform="matrix(-0.866025 0.5 0.5 0.866025 849.356 -124.406)" fill="white"/>
<rect width="525.058" height="5.60062" transform="matrix(-0.866025 0.5 0.5 0.866025 854.957 -114.705)" fill="white"/>
<rect width="525.058" height="5.60062" transform="matrix(-0.866025 0.5 0.5 0.866025 860.557 -105.005)" fill="white"/>
<rect width="525.058" height="5.60062" transform="matrix(-0.866025 0.5 0.5 0.866025 866.158 -95.304)" fill="white"/>
<rect width="525.058" height="5.60062" transform="matrix(-0.866025 0.5 0.5 0.866025 871.759 -85.6035)" fill="white"/>
<rect width="525.058" height="5.60062" transform="matrix(-0.866025 0.5 0.5 0.866025 877.359 -75.9028)" fill="white"/>
<rect width="525.058" height="5.60062" transform="matrix(-0.866025 0.5 0.5 0.866025 882.96 -66.2026)" fill="white"/>
<rect width="525.058" height="5.60062" transform="matrix(-0.866025 0.5 0.5 0.866025 888.561 -56.502)" fill="white"/>
<rect width="525.058" height="5.60062" transform="matrix(-0.866025 0.5 0.5 0.866025 894.161 -46.8018)" fill="white"/>
<rect width="525.058" height="5.60062" transform="matrix(-0.866025 0.5 0.5 0.866025 899.762 -37.1006)" fill="white"/>
<rect width="525.058" height="5.60062" transform="matrix(-0.866025 0.5 0.5 0.866025 905.362 -27.4004)" fill="white"/>
<rect width="525.058" height="5.60062" transform="matrix(-0.866025 0.5 0.5 0.866025 910.963 -17.7002)" fill="white"/>
</g>
</g>
<g clip-path="url(#clip2_1535_175965)">
<rect width="360.26" height="298.296" transform="translate(360.259 23.1772)" fill="white"/>
<rect width="525.058" height="576.864" transform="translate(455.447 -214.133) rotate(30)" fill="white"/>
<rect x="455.447" y="-214.133" width="525.058" height="5.60062" transform="rotate(30 455.447 -214.133)" fill="black"/>
<rect x="449.847" y="-204.432" width="525.058" height="5.60062" transform="rotate(30 449.847 -204.432)" fill="black"/>
<rect x="444.246" y="-194.731" width="525.058" height="5.60062" transform="rotate(30 444.246 -194.731)" fill="black"/>
<rect x="438.645" y="-185.031" width="525.058" height="5.60062" transform="rotate(30 438.645 -185.031)" fill="black"/>
<rect x="433.045" y="-175.33" width="525.058" height="5.60062" transform="rotate(30 433.045 -175.33)" fill="black"/>
<rect x="427.444" y="-165.63" width="525.058" height="5.60062" transform="rotate(30 427.444 -165.63)" fill="black"/>
<rect x="421.843" y="-155.929" width="525.058" height="5.60062" transform="rotate(30 421.843 -155.929)" fill="black"/>
<rect x="416.243" y="-146.229" width="525.058" height="5.60062" transform="rotate(30 416.243 -146.229)" fill="black"/>
<rect x="410.642" y="-136.528" width="525.058" height="5.60062" transform="rotate(30 410.642 -136.528)" fill="black"/>
<rect x="405.042" y="-126.828" width="525.058" height="5.60062" transform="rotate(30 405.042 -126.828)" fill="black"/>
<rect x="399.441" y="-117.127" width="525.058" height="5.60062" transform="rotate(30 399.441 -117.127)" fill="black"/>
<rect x="393.84" y="-107.427" width="525.058" height="5.60062" transform="rotate(30 393.84 -107.427)" fill="black"/>
<rect x="388.24" y="-97.7258" width="525.058" height="5.60062" transform="rotate(30 388.24 -97.7258)" fill="black"/>
<rect x="382.639" y="-88.0254" width="525.058" height="5.60062" transform="rotate(30 382.639 -88.0254)" fill="black"/>
<rect x="377.039" y="-78.3247" width="525.058" height="5.60062" transform="rotate(30 377.039 -78.3247)" fill="black"/>
<rect x="371.438" y="-68.6245" width="525.058" height="5.60062" transform="rotate(30 371.438 -68.6245)" fill="black"/>
<rect x="365.837" y="-58.9233" width="525.058" height="5.60062" transform="rotate(30 365.837 -58.9233)" fill="black"/>
<rect x="360.237" y="-49.2231" width="525.058" height="5.60062" transform="rotate(30 360.237 -49.2231)" fill="black"/>
<rect x="354.636" y="-39.5229" width="525.058" height="5.60062" transform="rotate(30 354.636 -39.5229)" fill="black"/>
<rect x="349.035" y="-29.8218" width="525.058" height="5.60062" transform="rotate(30 349.035 -29.8218)" fill="black"/>
<rect x="343.435" y="-20.1216" width="525.058" height="5.60062" transform="rotate(30 343.435 -20.1216)" fill="black"/>
<rect x="337.834" y="-10.4209" width="525.058" height="5.60062" transform="rotate(30 337.834 -10.4209)" fill="black"/>
<rect x="332.234" y="-0.720215" width="525.058" height="5.60062" transform="rotate(30 332.234 -0.720215)" fill="black"/>
<rect x="326.633" y="8.97998" width="525.058" height="5.60062" transform="rotate(30 326.633 8.97998)" fill="black"/>
<rect x="321.032" y="18.6807" width="525.058" height="5.60062" transform="rotate(30 321.032 18.6807)" fill="black"/>
<rect x="315.432" y="28.3813" width="525.058" height="5.60062" transform="rotate(30 315.432 28.3813)" fill="black"/>
<rect x="309.831" y="38.082" width="525.058" height="5.60062" transform="rotate(30 309.831 38.082)" fill="black"/>
<path fill-rule="evenodd" clip-rule="evenodd" d="M719.845 23.1318H667.738L585.384 104.635C560.531 129.231 520.237 129.231 495.384 104.635L413.03 23.1318H360.924L469.33 130.419C508.572 169.255 572.195 169.255 611.438 130.419L719.845 23.1318ZM360.259 321.473H412.365L495.389 239.307C520.242 214.71 560.536 214.71 585.389 239.307L668.413 321.473H720.52L611.443 213.523C572.201 174.687 508.577 174.687 469.336 213.523L360.259 321.473Z" fill="white"/>
<mask id="mask1_1535_175965" style="mask-type:alpha" maskUnits="userSpaceOnUse" x="360" y="23" width="361" height="299">
<path fill-rule="evenodd" clip-rule="evenodd" d="M719.845 23.1318H667.738L585.384 104.635C560.531 129.231 520.237 129.231 495.384 104.635L413.03 23.1318H360.924L469.33 130.419C508.572 169.255 572.195 169.255 611.438 130.419L719.845 23.1318ZM360.259 321.473H412.365L495.389 239.307C520.242 214.71 560.536 214.71 585.389 239.307L668.413 321.473H720.52L611.443 213.523C572.201 174.687 508.577 174.687 469.336 213.523L360.259 321.473Z" fill="white"/>
</mask>
<g mask="url(#mask1_1535_175965)">
<rect width="525.058" height="576.864" transform="translate(455.447 -214.133) rotate(30)" fill="black"/>
<rect x="455.447" y="-214.133" width="525.058" height="5.60062" transform="rotate(30 455.447 -214.133)" fill="white"/>
<rect x="449.847" y="-204.432" width="525.058" height="5.60062" transform="rotate(30 449.847 -204.432)" fill="white"/>
<rect x="444.246" y="-194.731" width="525.058" height="5.60062" transform="rotate(30 444.246 -194.731)" fill="white"/>
<rect x="438.645" y="-185.031" width="525.058" height="5.60062" transform="rotate(30 438.645 -185.031)" fill="white"/>
<rect x="433.045" y="-175.33" width="525.058" height="5.60062" transform="rotate(30 433.045 -175.33)" fill="white"/>
<rect x="427.444" y="-165.63" width="525.058" height="5.60062" transform="rotate(30 427.444 -165.63)" fill="white"/>
<rect x="421.843" y="-155.929" width="525.058" height="5.60062" transform="rotate(30 421.843 -155.929)" fill="white"/>
<rect x="416.243" y="-146.229" width="525.058" height="5.60062" transform="rotate(30 416.243 -146.229)" fill="white"/>
<rect x="410.642" y="-136.528" width="525.058" height="5.60062" transform="rotate(30 410.642 -136.528)" fill="white"/>
<rect x="405.042" y="-126.828" width="525.058" height="5.60062" transform="rotate(30 405.042 -126.828)" fill="white"/>
<rect x="399.441" y="-117.127" width="525.058" height="5.60062" transform="rotate(30 399.441 -117.127)" fill="white"/>
<rect x="393.84" y="-107.427" width="525.058" height="5.60062" transform="rotate(30 393.84 -107.427)" fill="white"/>
<rect x="388.24" y="-97.7258" width="525.058" height="5.60062" transform="rotate(30 388.24 -97.7258)" fill="white"/>
<rect x="382.639" y="-88.0254" width="525.058" height="5.60062" transform="rotate(30 382.639 -88.0254)" fill="white"/>
<rect x="377.039" y="-78.3247" width="525.058" height="5.60062" transform="rotate(30 377.039 -78.3247)" fill="white"/>
<rect x="371.438" y="-68.6245" width="525.058" height="5.60062" transform="rotate(30 371.438 -68.6245)" fill="white"/>
<rect x="365.837" y="-58.9233" width="525.058" height="5.60062" transform="rotate(30 365.837 -58.9233)" fill="white"/>
<rect x="360.237" y="-49.2231" width="525.058" height="5.60062" transform="rotate(30 360.237 -49.2231)" fill="white"/>
<rect x="354.636" y="-39.5229" width="525.058" height="5.60062" transform="rotate(30 354.636 -39.5229)" fill="white"/>
<rect x="349.035" y="-29.8218" width="525.058" height="5.60062" transform="rotate(30 349.035 -29.8218)" fill="white"/>
<rect x="343.435" y="-20.1216" width="525.058" height="5.60062" transform="rotate(30 343.435 -20.1216)" fill="white"/>
<rect x="337.834" y="-10.4209" width="525.058" height="5.60062" transform="rotate(30 337.834 -10.4209)" fill="white"/>
<rect x="332.234" y="-0.720215" width="525.058" height="5.60062" transform="rotate(30 332.234 -0.720215)" fill="white"/>
<rect x="326.633" y="8.97998" width="525.058" height="5.60062" transform="rotate(30 326.633 8.97998)" fill="white"/>
<rect x="321.032" y="18.6807" width="525.058" height="5.60062" transform="rotate(30 321.032 18.6807)" fill="white"/>
<rect x="315.432" y="28.3813" width="525.058" height="5.60062" transform="rotate(30 315.432 28.3813)" fill="white"/>
<rect x="309.831" y="38.082" width="525.058" height="5.60062" transform="rotate(30 309.831 38.082)" fill="white"/>
</g>
</g>
<g clip-path="url(#clip3_1535_175965)">
<rect width="360.26" height="298.296" transform="translate(0.000610352 -275.118)" fill="white"/>
<rect width="525.058" height="576.864" transform="translate(95.1886 -512.428) rotate(30)" fill="white"/>
<rect x="-50.4275" y="-260.214" width="525.058" height="5.60062" transform="rotate(30 -50.4275 -260.214)" fill="black"/>
<rect x="-56.0281" y="-250.513" width="525.058" height="5.60062" transform="rotate(30 -56.0281 -250.513)" fill="black"/>
<rect x="-61.6287" y="-240.812" width="525.058" height="5.60062" transform="rotate(30 -61.6287 -240.812)" fill="black"/>
<rect x="-67.2293" y="-231.112" width="525.058" height="5.60062" transform="rotate(30 -67.2293 -231.112)" fill="black"/>
<rect x="-72.8299" y="-221.412" width="525.058" height="5.60062" transform="rotate(30 -72.8299 -221.412)" fill="black"/>
<rect x="-78.4305" y="-211.711" width="525.058" height="5.60062" transform="rotate(30 -78.4305 -211.711)" fill="black"/>
<rect x="-84.0311" y="-202.01" width="525.058" height="5.60062" transform="rotate(30 -84.0311 -202.01)" fill="black"/>
<rect x="-89.6319" y="-192.31" width="525.058" height="5.60062" transform="rotate(30 -89.6319 -192.31)" fill="black"/>
<rect x="-95.2324" y="-182.609" width="525.058" height="5.60062" transform="rotate(30 -95.2324 -182.609)" fill="black"/>
<rect x="-100.833" y="-172.909" width="525.058" height="5.60062" transform="rotate(30 -100.833 -172.909)" fill="black"/>
<rect x="-106.434" y="-163.208" width="525.058" height="5.60062" transform="rotate(30 -106.434 -163.208)" fill="black"/>
<rect x="-112.034" y="-153.508" width="525.058" height="5.60062" transform="rotate(30 -112.034 -153.508)" fill="black"/>
<rect x="-117.635" y="-143.807" width="525.058" height="5.60062" transform="rotate(30 -117.635 -143.807)" fill="black"/>
<rect x="-123.235" y="-134.106" width="525.058" height="5.60062" transform="rotate(30 -123.235 -134.106)" fill="black"/>
<rect x="-128.836" y="-124.406" width="525.058" height="5.60062" transform="rotate(30 -128.836 -124.406)" fill="black"/>
<rect x="-134.437" y="-114.705" width="525.058" height="5.60062" transform="rotate(30 -134.437 -114.705)" fill="black"/>
<rect x="-140.037" y="-105.005" width="525.058" height="5.60062" transform="rotate(30 -140.037 -105.005)" fill="black"/>
<rect x="-145.638" y="-95.3042" width="525.058" height="5.60062" transform="rotate(30 -145.638 -95.3042)" fill="black"/>
<rect x="-151.239" y="-85.604" width="525.058" height="5.60062" transform="rotate(30 -151.239 -85.604)" fill="black"/>
<rect x="-156.839" y="-75.9028" width="525.058" height="5.60062" transform="rotate(30 -156.839 -75.9028)" fill="black"/>
<rect x="-162.44" y="-66.2026" width="525.058" height="5.60062" transform="rotate(30 -162.44 -66.2026)" fill="black"/>
<rect x="-168.04" y="-56.502" width="525.058" height="5.60062" transform="rotate(30 -168.04 -56.502)" fill="black"/>
<rect x="-173.641" y="-46.8013" width="525.058" height="5.60062" transform="rotate(30 -173.641 -46.8013)" fill="black"/>
<rect x="-179.242" y="-37.1011" width="525.058" height="5.60062" transform="rotate(30 -179.242 -37.1011)" fill="black"/>
<rect x="-184.842" y="-27.4004" width="525.058" height="5.60062" transform="rotate(30 -184.842 -27.4004)" fill="black"/>
<rect x="-190.443" y="-17.7002" width="525.058" height="5.60062" transform="rotate(30 -190.443 -17.7002)" fill="black"/>
<path fill-rule="evenodd" clip-rule="evenodd" d="M359.586 -275.164H307.48L225.125 -193.661C200.272 -169.064 159.978 -169.064 135.125 -193.661L52.7712 -275.164H0.66526L109.072 -167.877C148.314 -129.04 211.937 -129.04 251.18 -167.877L359.586 -275.164ZM0.000747681 23.1775H52.1067L135.13 -58.9889C159.983 -83.5854 200.277 -83.5854 225.131 -58.9889L308.155 23.1775H360.261L251.185 -84.7721C211.942 -123.608 148.319 -123.608 109.077 -84.7721L0.000747681 23.1775Z" fill="white"/>
<mask id="mask2_1535_175965" style="mask-type:alpha" maskUnits="userSpaceOnUse" x="0" y="-276" width="361" height="300">
<path fill-rule="evenodd" clip-rule="evenodd" d="M359.586 -275.164H307.48L225.125 -193.661C200.272 -169.064 159.978 -169.064 135.125 -193.661L52.7712 -275.164H0.66526L109.072 -167.877C148.314 -129.04 211.937 -129.04 251.18 -167.877L359.586 -275.164ZM0.000747681 23.1775H52.1067L135.13 -58.9889C159.983 -83.5854 200.277 -83.5854 225.131 -58.9889L308.155 23.1775H360.261L251.185 -84.7721C211.942 -123.608 148.319 -123.608 109.077 -84.7721L0.000747681 23.1775Z" fill="white"/>
</mask>
<g mask="url(#mask2_1535_175965)">
<rect width="525.058" height="576.864" transform="translate(95.1886 -512.428) rotate(30)" fill="black"/>
<rect x="-50.4275" y="-260.214" width="525.058" height="5.60062" transform="rotate(30 -50.4275 -260.214)" fill="white"/>
<rect x="-56.0281" y="-250.513" width="525.058" height="5.60062" transform="rotate(30 -56.0281 -250.513)" fill="white"/>
<rect x="-61.6287" y="-240.812" width="525.058" height="5.60062" transform="rotate(30 -61.6287 -240.812)" fill="white"/>
<rect x="-67.2293" y="-231.112" width="525.058" height="5.60062" transform="rotate(30 -67.2293 -231.112)" fill="white"/>
<rect x="-72.8299" y="-221.412" width="525.058" height="5.60062" transform="rotate(30 -72.8299 -221.412)" fill="white"/>
<rect x="-78.4305" y="-211.711" width="525.058" height="5.60062" transform="rotate(30 -78.4305 -211.711)" fill="white"/>
<rect x="-84.0311" y="-202.01" width="525.058" height="5.60062" transform="rotate(30 -84.0311 -202.01)" fill="white"/>
<rect x="-89.6319" y="-192.31" width="525.058" height="5.60062" transform="rotate(30 -89.6319 -192.31)" fill="white"/>
<rect x="-95.2324" y="-182.609" width="525.058" height="5.60062" transform="rotate(30 -95.2324 -182.609)" fill="white"/>
<rect x="-100.833" y="-172.909" width="525.058" height="5.60062" transform="rotate(30 -100.833 -172.909)" fill="white"/>
<rect x="-106.434" y="-163.208" width="525.058" height="5.60062" transform="rotate(30 -106.434 -163.208)" fill="white"/>
<rect x="-112.034" y="-153.508" width="525.058" height="5.60062" transform="rotate(30 -112.034 -153.508)" fill="white"/>
<rect x="-117.635" y="-143.807" width="525.058" height="5.60062" transform="rotate(30 -117.635 -143.807)" fill="white"/>
<rect x="-123.235" y="-134.106" width="525.058" height="5.60062" transform="rotate(30 -123.235 -134.106)" fill="white"/>
<rect x="-128.836" y="-124.406" width="525.058" height="5.60062" transform="rotate(30 -128.836 -124.406)" fill="white"/>
<rect x="-134.437" y="-114.705" width="525.058" height="5.60062" transform="rotate(30 -134.437 -114.705)" fill="white"/>
<rect x="-140.037" y="-105.005" width="525.058" height="5.60062" transform="rotate(30 -140.037 -105.005)" fill="white"/>
<rect x="-145.638" y="-95.3042" width="525.058" height="5.60062" transform="rotate(30 -145.638 -95.3042)" fill="white"/>
<rect x="-151.239" y="-85.604" width="525.058" height="5.60062" transform="rotate(30 -151.239 -85.604)" fill="white"/>
<rect x="-156.839" y="-75.9028" width="525.058" height="5.60062" transform="rotate(30 -156.839 -75.9028)" fill="white"/>
<rect x="-162.44" y="-66.2026" width="525.058" height="5.60062" transform="rotate(30 -162.44 -66.2026)" fill="white"/>
<rect x="-168.04" y="-56.502" width="525.058" height="5.60062" transform="rotate(30 -168.04 -56.502)" fill="white"/>
<rect x="-173.641" y="-46.8013" width="525.058" height="5.60062" transform="rotate(30 -173.641 -46.8013)" fill="white"/>
<rect x="-179.242" y="-37.1011" width="525.058" height="5.60062" transform="rotate(30 -179.242 -37.1011)" fill="white"/>
<rect x="-184.842" y="-27.4004" width="525.058" height="5.60062" transform="rotate(30 -184.842 -27.4004)" fill="white"/>
<rect x="-190.443" y="-17.7002" width="525.058" height="5.60062" transform="rotate(30 -190.443 -17.7002)" fill="white"/>
</g>
</g>
<g clip-path="url(#clip4_1535_175965)">
<rect width="360.26" height="298.296" transform="matrix(-1 0 0 1 360.259 23.1768)" fill="white"/>
<rect width="525.058" height="576.864" transform="matrix(-0.866025 0.5 0.5 0.866025 265.071 -214.133)" fill="white"/>
<rect width="525.058" height="5.60062" transform="matrix(-0.866025 0.5 0.5 0.866025 265.071 -214.133)" fill="black"/>
<rect width="525.058" height="5.60062" transform="matrix(-0.866025 0.5 0.5 0.866025 270.672 -204.433)" fill="black"/>
<rect width="525.058" height="5.60062" transform="matrix(-0.866025 0.5 0.5 0.866025 276.272 -194.732)" fill="black"/>
<rect width="525.058" height="5.60062" transform="matrix(-0.866025 0.5 0.5 0.866025 281.873 -185.031)" fill="black"/>
<rect width="525.058" height="5.60062" transform="matrix(-0.866025 0.5 0.5 0.866025 287.473 -175.331)" fill="black"/>
<rect width="525.058" height="5.60062" transform="matrix(-0.866025 0.5 0.5 0.866025 293.074 -165.63)" fill="black"/>
<rect width="525.058" height="5.60062" transform="matrix(-0.866025 0.5 0.5 0.866025 298.675 -155.93)" fill="black"/>
<rect width="525.058" height="5.60062" transform="matrix(-0.866025 0.5 0.5 0.866025 304.275 -146.229)" fill="black"/>
<rect width="525.058" height="5.60062" transform="matrix(-0.866025 0.5 0.5 0.866025 309.876 -136.529)" fill="black"/>
<rect width="525.058" height="5.60062" transform="matrix(-0.866025 0.5 0.5 0.866025 315.477 -126.828)" fill="black"/>
<rect width="525.058" height="5.60062" transform="matrix(-0.866025 0.5 0.5 0.866025 321.077 -117.127)" fill="black"/>
<rect width="525.058" height="5.60062" transform="matrix(-0.866025 0.5 0.5 0.866025 326.678 -107.427)" fill="black"/>
<rect width="525.058" height="5.60062" transform="matrix(-0.866025 0.5 0.5 0.866025 332.278 -97.7263)" fill="black"/>
<rect width="525.058" height="5.60062" transform="matrix(-0.866025 0.5 0.5 0.866025 337.879 -88.0259)" fill="black"/>
<rect width="525.058" height="5.60062" transform="matrix(-0.866025 0.5 0.5 0.866025 343.48 -78.3252)" fill="black"/>
<rect width="525.058" height="5.60062" transform="matrix(-0.866025 0.5 0.5 0.866025 349.08 -68.625)" fill="black"/>
<rect width="525.058" height="5.60062" transform="matrix(-0.866025 0.5 0.5 0.866025 354.681 -58.9238)" fill="black"/>
<rect width="525.058" height="5.60062" transform="matrix(-0.866025 0.5 0.5 0.866025 360.281 -49.2236)" fill="black"/>
<rect width="525.058" height="5.60062" transform="matrix(-0.866025 0.5 0.5 0.866025 365.882 -39.5234)" fill="black"/>
<rect width="525.058" height="5.60062" transform="matrix(-0.866025 0.5 0.5 0.866025 371.483 -29.8223)" fill="black"/>
<rect width="525.058" height="5.60062" transform="matrix(-0.866025 0.5 0.5 0.866025 377.083 -20.1221)" fill="black"/>
<rect width="525.058" height="5.60062" transform="matrix(-0.866025 0.5 0.5 0.866025 382.684 -10.4214)" fill="black"/>
<rect width="525.058" height="5.60062" transform="matrix(-0.866025 0.5 0.5 0.866025 388.285 -0.720703)" fill="black"/>
<rect width="525.058" height="5.60062" transform="matrix(-0.866025 0.5 0.5 0.866025 393.885 8.97949)" fill="black"/>
<rect width="525.058" height="5.60062" transform="matrix(-0.866025 0.5 0.5 0.866025 399.486 18.6802)" fill="black"/>
<rect width="525.058" height="5.60062" transform="matrix(-0.866025 0.5 0.5 0.866025 405.086 28.3804)" fill="black"/>
<rect width="525.058" height="5.60062" transform="matrix(-0.866025 0.5 0.5 0.866025 410.687 38.0815)" fill="black"/>
<path fill-rule="evenodd" clip-rule="evenodd" d="M0.673553 23.1313H52.78L135.134 104.634C159.987 129.231 200.281 129.231 225.135 104.634L307.488 23.1313H359.594L251.188 130.418C211.946 169.255 148.323 169.255 109.08 130.418L0.673553 23.1313ZM360.259 321.472H308.153L225.13 239.306C200.276 214.71 159.982 214.71 135.129 239.306L52.105 321.472H-0.00146484L109.075 213.523C148.318 174.686 211.941 174.686 251.183 213.523L360.259 321.472Z" fill="white"/>
<mask id="mask3_1535_175965" style="mask-type:alpha" maskUnits="userSpaceOnUse" x="-1" y="23" width="362" height="299">
<path fill-rule="evenodd" clip-rule="evenodd" d="M0.673553 23.1313H52.78L135.134 104.634C159.987 129.231 200.281 129.231 225.135 104.634L307.488 23.1313H359.594L251.188 130.418C211.946 169.255 148.323 169.255 109.08 130.418L0.673553 23.1313ZM360.259 321.472H308.153L225.13 239.306C200.276 214.71 159.982 214.71 135.129 239.306L52.105 321.472H-0.00146484L109.075 213.523C148.318 174.686 211.941 174.686 251.183 213.523L360.259 321.472Z" fill="white"/>
</mask>
<g mask="url(#mask3_1535_175965)">
<rect width="525.058" height="576.864" transform="matrix(-0.866025 0.5 0.5 0.866025 265.071 -214.133)" fill="black"/>
<rect width="525.058" height="5.60062" transform="matrix(-0.866025 0.5 0.5 0.866025 265.071 -214.133)" fill="white"/>
<rect width="525.058" height="5.60062" transform="matrix(-0.866025 0.5 0.5 0.866025 270.672 -204.433)" fill="white"/>
<rect width="525.058" height="5.60062" transform="matrix(-0.866025 0.5 0.5 0.866025 276.272 -194.732)" fill="white"/>
<rect width="525.058" height="5.60062" transform="matrix(-0.866025 0.5 0.5 0.866025 281.873 -185.031)" fill="white"/>
<rect width="525.058" height="5.60062" transform="matrix(-0.866025 0.5 0.5 0.866025 287.473 -175.331)" fill="white"/>
<rect width="525.058" height="5.60062" transform="matrix(-0.866025 0.5 0.5 0.866025 293.074 -165.63)" fill="white"/>
<rect width="525.058" height="5.60062" transform="matrix(-0.866025 0.5 0.5 0.866025 298.675 -155.93)" fill="white"/>
<rect width="525.058" height="5.60062" transform="matrix(-0.866025 0.5 0.5 0.866025 304.275 -146.229)" fill="white"/>
<rect width="525.058" height="5.60062" transform="matrix(-0.866025 0.5 0.5 0.866025 309.876 -136.529)" fill="white"/>
<rect width="525.058" height="5.60062" transform="matrix(-0.866025 0.5 0.5 0.866025 315.477 -126.828)" fill="white"/>
<rect width="525.058" height="5.60062" transform="matrix(-0.866025 0.5 0.5 0.866025 321.077 -117.127)" fill="white"/>
<rect width="525.058" height="5.60062" transform="matrix(-0.866025 0.5 0.5 0.866025 326.678 -107.427)" fill="white"/>
<rect width="525.058" height="5.60062" transform="matrix(-0.866025 0.5 0.5 0.866025 332.278 -97.7263)" fill="white"/>
<rect width="525.058" height="5.60062" transform="matrix(-0.866025 0.5 0.5 0.866025 337.879 -88.0259)" fill="white"/>
<rect width="525.058" height="5.60062" transform="matrix(-0.866025 0.5 0.5 0.866025 343.48 -78.3252)" fill="white"/>
<rect width="525.058" height="5.60062" transform="matrix(-0.866025 0.5 0.5 0.866025 349.08 -68.625)" fill="white"/>
<rect width="525.058" height="5.60062" transform="matrix(-0.866025 0.5 0.5 0.866025 354.681 -58.9238)" fill="white"/>
<rect width="525.058" height="5.60062" transform="matrix(-0.866025 0.5 0.5 0.866025 360.281 -49.2236)" fill="white"/>
<rect width="525.058" height="5.60062" transform="matrix(-0.866025 0.5 0.5 0.866025 365.882 -39.5234)" fill="white"/>
<rect width="525.058" height="5.60062" transform="matrix(-0.866025 0.5 0.5 0.866025 371.483 -29.8223)" fill="white"/>
<rect width="525.058" height="5.60062" transform="matrix(-0.866025 0.5 0.5 0.866025 377.083 -20.1221)" fill="white"/>
<rect width="525.058" height="5.60062" transform="matrix(-0.866025 0.5 0.5 0.866025 382.684 -10.4214)" fill="white"/>
<rect width="525.058" height="5.60062" transform="matrix(-0.866025 0.5 0.5 0.866025 388.285 -0.720703)" fill="white"/>
<rect width="525.058" height="5.60062" transform="matrix(-0.866025 0.5 0.5 0.866025 393.885 8.97949)" fill="white"/>
<rect width="525.058" height="5.60062" transform="matrix(-0.866025 0.5 0.5 0.866025 399.486 18.6802)" fill="white"/>
<rect width="525.058" height="5.60062" transform="matrix(-0.866025 0.5 0.5 0.866025 405.086 28.3804)" fill="white"/>
<rect width="525.058" height="5.60062" transform="matrix(-0.866025 0.5 0.5 0.866025 410.687 38.0815)" fill="white"/>
</g>
</g>
<g clip-path="url(#clip5_1535_175965)">
<rect width="360.26" height="298.296" transform="matrix(-1 0 0 1 1440 -275.118)" fill="white"/>
<rect width="525.058" height="576.864" transform="matrix(-0.866025 0.5 0.5 0.866025 1344.81 -512.428)" fill="white"/>
<rect width="525.058" height="5.60062" transform="matrix(-0.866025 0.5 0.5 0.866025 1490.43 -260.213)" fill="black"/>
<rect width="525.058" height="5.60062" transform="matrix(-0.866025 0.5 0.5 0.866025 1496.03 -250.513)" fill="black"/>
<rect width="525.058" height="5.60062" transform="matrix(-0.866025 0.5 0.5 0.866025 1501.63 -240.812)" fill="black"/>
<rect width="525.058" height="5.60062" transform="matrix(-0.866025 0.5 0.5 0.866025 1507.23 -231.112)" fill="black"/>
<rect width="525.058" height="5.60062" transform="matrix(-0.866025 0.5 0.5 0.866025 1512.83 -221.411)" fill="black"/>
<rect width="525.058" height="5.60062" transform="matrix(-0.866025 0.5 0.5 0.866025 1518.43 -211.711)" fill="black"/>
<rect width="525.058" height="5.60062" transform="matrix(-0.866025 0.5 0.5 0.866025 1524.03 -202.01)" fill="black"/>
<rect width="525.058" height="5.60062" transform="matrix(-0.866025 0.5 0.5 0.866025 1529.63 -192.31)" fill="black"/>
<rect width="525.058" height="5.60062" transform="matrix(-0.866025 0.5 0.5 0.866025 1535.23 -182.609)" fill="black"/>
<rect width="525.058" height="5.60062" transform="matrix(-0.866025 0.5 0.5 0.866025 1540.83 -172.908)" fill="black"/>
<rect width="525.058" height="5.60062" transform="matrix(-0.866025 0.5 0.5 0.866025 1546.43 -163.208)" fill="black"/>
<rect width="525.058" height="5.60062" transform="matrix(-0.866025 0.5 0.5 0.866025 1552.03 -153.508)" fill="black"/>
<rect width="525.058" height="5.60062" transform="matrix(-0.866025 0.5 0.5 0.866025 1557.63 -143.807)" fill="black"/>
<rect width="525.058" height="5.60062" transform="matrix(-0.866025 0.5 0.5 0.866025 1563.23 -134.106)" fill="black"/>
<rect width="525.058" height="5.60062" transform="matrix(-0.866025 0.5 0.5 0.866025 1568.84 -124.406)" fill="black"/>
<rect width="525.058" height="5.60062" transform="matrix(-0.866025 0.5 0.5 0.866025 1574.44 -114.705)" fill="black"/>
<rect width="525.058" height="5.60062" transform="matrix(-0.866025 0.5 0.5 0.866025 1580.04 -105.005)" fill="black"/>
<rect width="525.058" height="5.60062" transform="matrix(-0.866025 0.5 0.5 0.866025 1585.64 -95.304)" fill="black"/>
<rect width="525.058" height="5.60062" transform="matrix(-0.866025 0.5 0.5 0.866025 1591.24 -85.6035)" fill="black"/>
<rect width="525.058" height="5.60062" transform="matrix(-0.866025 0.5 0.5 0.866025 1596.84 -75.9028)" fill="black"/>
<rect width="525.058" height="5.60062" transform="matrix(-0.866025 0.5 0.5 0.866025 1602.44 -66.2026)" fill="black"/>
<rect width="525.058" height="5.60062" transform="matrix(-0.866025 0.5 0.5 0.866025 1608.04 -56.502)" fill="black"/>
<rect width="525.058" height="5.60062" transform="matrix(-0.866025 0.5 0.5 0.866025 1613.64 -46.8013)" fill="black"/>
<rect width="525.058" height="5.60062" transform="matrix(-0.866025 0.5 0.5 0.866025 1619.24 -37.1006)" fill="black"/>
<rect width="525.058" height="5.60062" transform="matrix(-0.866025 0.5 0.5 0.866025 1624.84 -27.4004)" fill="black"/>
<rect width="525.058" height="5.60062" transform="matrix(-0.866025 0.5 0.5 0.866025 1630.44 -17.7002)" fill="black"/>
<path fill-rule="evenodd" clip-rule="evenodd" d="M1080.41 -275.163H1132.52L1214.87 -193.66C1239.73 -169.064 1280.02 -169.064 1304.87 -193.66L1387.23 -275.163H1439.33L1330.93 -167.877C1291.69 -129.04 1228.06 -129.04 1188.82 -167.877L1080.41 -275.163ZM1440 23.1777H1387.89L1304.87 -58.9886C1280.02 -83.5852 1239.72 -83.5852 1214.87 -58.9886L1131.84 23.1777H1079.74L1188.81 -84.7719C1228.06 -123.608 1291.68 -123.608 1330.92 -84.7719L1440 23.1777Z" fill="white"/>
<mask id="mask4_1535_175965" style="mask-type:alpha" maskUnits="userSpaceOnUse" x="1079" y="-276" width="361" height="300">
<path fill-rule="evenodd" clip-rule="evenodd" d="M1080.41 -275.163H1132.52L1214.87 -193.66C1239.73 -169.064 1280.02 -169.064 1304.87 -193.66L1387.23 -275.163H1439.33L1330.93 -167.877C1291.69 -129.04 1228.06 -129.04 1188.82 -167.877L1080.41 -275.163ZM1440 23.1777H1387.89L1304.87 -58.9886C1280.02 -83.5852 1239.72 -83.5852 1214.87 -58.9886L1131.84 23.1777H1079.74L1188.81 -84.7719C1228.06 -123.608 1291.68 -123.608 1330.92 -84.7719L1440 23.1777Z" fill="white"/>
</mask>
<g mask="url(#mask4_1535_175965)">
<rect width="525.058" height="576.864" transform="matrix(-0.866025 0.5 0.5 0.866025 1344.81 -512.428)" fill="black"/>
<rect width="525.058" height="5.60062" transform="matrix(-0.866025 0.5 0.5 0.866025 1490.43 -260.213)" fill="white"/>
<rect width="525.058" height="5.60062" transform="matrix(-0.866025 0.5 0.5 0.866025 1496.03 -250.513)" fill="white"/>
<rect width="525.058" height="5.60062" transform="matrix(-0.866025 0.5 0.5 0.866025 1501.63 -240.812)" fill="white"/>
<rect width="525.058" height="5.60062" transform="matrix(-0.866025 0.5 0.5 0.866025 1507.23 -231.112)" fill="white"/>
<rect width="525.058" height="5.60062" transform="matrix(-0.866025 0.5 0.5 0.866025 1512.83 -221.411)" fill="white"/>
<rect width="525.058" height="5.60062" transform="matrix(-0.866025 0.5 0.5 0.866025 1518.43 -211.711)" fill="white"/>
<rect width="525.058" height="5.60062" transform="matrix(-0.866025 0.5 0.5 0.866025 1524.03 -202.01)" fill="white"/>
<rect width="525.058" height="5.60062" transform="matrix(-0.866025 0.5 0.5 0.866025 1529.63 -192.31)" fill="white"/>
<rect width="525.058" height="5.60062" transform="matrix(-0.866025 0.5 0.5 0.866025 1535.23 -182.609)" fill="white"/>
<rect width="525.058" height="5.60062" transform="matrix(-0.866025 0.5 0.5 0.866025 1540.83 -172.908)" fill="white"/>
<rect width="525.058" height="5.60062" transform="matrix(-0.866025 0.5 0.5 0.866025 1546.43 -163.208)" fill="white"/>
<rect width="525.058" height="5.60062" transform="matrix(-0.866025 0.5 0.5 0.866025 1552.03 -153.508)" fill="white"/>
<rect width="525.058" height="5.60062" transform="matrix(-0.866025 0.5 0.5 0.866025 1557.63 -143.807)" fill="white"/>
<rect width="525.058" height="5.60062" transform="matrix(-0.866025 0.5 0.5 0.866025 1563.23 -134.106)" fill="white"/>
<rect width="525.058" height="5.60062" transform="matrix(-0.866025 0.5 0.5 0.866025 1568.84 -124.406)" fill="white"/>
<rect width="525.058" height="5.60062" transform="matrix(-0.866025 0.5 0.5 0.866025 1574.44 -114.705)" fill="white"/>
<rect width="525.058" height="5.60062" transform="matrix(-0.866025 0.5 0.5 0.866025 1580.04 -105.005)" fill="white"/>
<rect width="525.058" height="5.60062" transform="matrix(-0.866025 0.5 0.5 0.866025 1585.64 -95.304)" fill="white"/>
<rect width="525.058" height="5.60062" transform="matrix(-0.866025 0.5 0.5 0.866025 1591.24 -85.6035)" fill="white"/>
<rect width="525.058" height="5.60062" transform="matrix(-0.866025 0.5 0.5 0.866025 1596.84 -75.9028)" fill="white"/>
<rect width="525.058" height="5.60062" transform="matrix(-0.866025 0.5 0.5 0.866025 1602.44 -66.2026)" fill="white"/>
<rect width="525.058" height="5.60062" transform="matrix(-0.866025 0.5 0.5 0.866025 1608.04 -56.502)" fill="white"/>
<rect width="525.058" height="5.60062" transform="matrix(-0.866025 0.5 0.5 0.866025 1613.64 -46.8013)" fill="white"/>
<rect width="525.058" height="5.60062" transform="matrix(-0.866025 0.5 0.5 0.866025 1619.24 -37.1006)" fill="white"/>
<rect width="525.058" height="5.60062" transform="matrix(-0.866025 0.5 0.5 0.866025 1624.84 -27.4004)" fill="white"/>
<rect width="525.058" height="5.60062" transform="matrix(-0.866025 0.5 0.5 0.866025 1630.44 -17.7002)" fill="white"/>
</g>
</g>
<g clip-path="url(#clip6_1535_175965)">
<rect width="360.26" height="298.296" transform="translate(1079.74 23.1772)" fill="white"/>
<rect width="525.058" height="576.864" transform="translate(1174.93 -214.133) rotate(30)" fill="white"/>
<rect x="1174.93" y="-214.133" width="525.058" height="5.60062" transform="rotate(30 1174.93 -214.133)" fill="black"/>
<rect x="1169.33" y="-204.432" width="525.058" height="5.60062" transform="rotate(30 1169.33 -204.432)" fill="black"/>
<rect x="1163.73" y="-194.731" width="525.058" height="5.60062" transform="rotate(30 1163.73 -194.731)" fill="black"/>
<rect x="1158.13" y="-185.031" width="525.058" height="5.60062" transform="rotate(30 1158.13 -185.031)" fill="black"/>
<rect x="1152.53" y="-175.33" width="525.058" height="5.60062" transform="rotate(30 1152.53 -175.33)" fill="black"/>
<rect x="1146.93" y="-165.63" width="525.058" height="5.60062" transform="rotate(30 1146.93 -165.63)" fill="black"/>
<rect x="1141.32" y="-155.929" width="525.058" height="5.60062" transform="rotate(30 1141.32 -155.929)" fill="black"/>
<rect x="1135.72" y="-146.229" width="525.058" height="5.60062" transform="rotate(30 1135.72 -146.229)" fill="black"/>
<rect x="1130.12" y="-136.528" width="525.058" height="5.60062" transform="rotate(30 1130.12 -136.528)" fill="black"/>
<rect x="1124.52" y="-126.828" width="525.058" height="5.60062" transform="rotate(30 1124.52 -126.828)" fill="black"/>
<rect x="1118.92" y="-117.127" width="525.058" height="5.60062" transform="rotate(30 1118.92 -117.127)" fill="black"/>
<rect x="1113.32" y="-107.427" width="525.058" height="5.60062" transform="rotate(30 1113.32 -107.427)" fill="black"/>
<rect x="1107.72" y="-97.7258" width="525.058" height="5.60062" transform="rotate(30 1107.72 -97.7258)" fill="black"/>
<rect x="1102.12" y="-88.0254" width="525.058" height="5.60062" transform="rotate(30 1102.12 -88.0254)" fill="black"/>
<rect x="1096.52" y="-78.3247" width="525.058" height="5.60062" transform="rotate(30 1096.52 -78.3247)" fill="black"/>
<rect x="1090.92" y="-68.6245" width="525.058" height="5.60062" transform="rotate(30 1090.92 -68.6245)" fill="black"/>
<rect x="1085.32" y="-58.9233" width="525.058" height="5.60062" transform="rotate(30 1085.32 -58.9233)" fill="black"/>
<rect x="1079.72" y="-49.2231" width="525.058" height="5.60062" transform="rotate(30 1079.72 -49.2231)" fill="black"/>
<rect x="1074.12" y="-39.5229" width="525.058" height="5.60062" transform="rotate(30 1074.12 -39.5229)" fill="black"/>
<rect x="1068.52" y="-29.8218" width="525.058" height="5.60062" transform="rotate(30 1068.52 -29.8218)" fill="black"/>
<rect x="1062.92" y="-20.1216" width="525.058" height="5.60062" transform="rotate(30 1062.92 -20.1216)" fill="black"/>
<rect x="1057.32" y="-10.4209" width="525.058" height="5.60062" transform="rotate(30 1057.32 -10.4209)" fill="black"/>
<rect x="1051.71" y="-0.720215" width="525.058" height="5.60062" transform="rotate(30 1051.71 -0.720215)" fill="black"/>
<rect x="1046.11" y="8.97998" width="525.058" height="5.60062" transform="rotate(30 1046.11 8.97998)" fill="black"/>
<rect x="1040.51" y="18.6807" width="525.058" height="5.60062" transform="rotate(30 1040.51 18.6807)" fill="black"/>
<rect x="1034.91" y="28.3813" width="525.058" height="5.60062" transform="rotate(30 1034.91 28.3813)" fill="black"/>
<rect x="1029.31" y="38.082" width="525.058" height="5.60062" transform="rotate(30 1029.31 38.082)" fill="black"/>
<path fill-rule="evenodd" clip-rule="evenodd" d="M1439.33 23.1318H1387.22L1304.87 104.635C1280.01 129.231 1239.72 129.231 1214.86 104.635L1132.51 23.1318H1080.41L1188.81 130.419C1228.05 169.255 1291.68 169.255 1330.92 130.419L1439.33 23.1318ZM1079.74 321.473H1131.85L1214.87 239.307C1239.72 214.71 1280.02 214.71 1304.87 239.307L1387.89 321.473H1440L1330.92 213.523C1291.68 174.687 1228.06 174.687 1188.82 213.523L1079.74 321.473Z" fill="white"/>
<mask id="mask5_1535_175965" style="mask-type:alpha" maskUnits="userSpaceOnUse" x="1079" y="23" width="362" height="299">
<path fill-rule="evenodd" clip-rule="evenodd" d="M1439.33 23.1318H1387.22L1304.87 104.635C1280.01 129.231 1239.72 129.231 1214.86 104.635L1132.51 23.1318H1080.41L1188.81 130.419C1228.05 169.255 1291.68 169.255 1330.92 130.419L1439.33 23.1318ZM1079.74 321.473H1131.85L1214.87 239.307C1239.72 214.71 1280.02 214.71 1304.87 239.307L1387.89 321.473H1440L1330.92 213.523C1291.68 174.687 1228.06 174.687 1188.82 213.523L1079.74 321.473Z" fill="white"/>
</mask>
<g mask="url(#mask5_1535_175965)">
<rect width="525.058" height="576.864" transform="translate(1174.93 -214.133) rotate(30)" fill="black"/>
<rect x="1174.93" y="-214.133" width="525.058" height="5.60062" transform="rotate(30 1174.93 -214.133)" fill="white"/>
<rect x="1169.33" y="-204.432" width="525.058" height="5.60062" transform="rotate(30 1169.33 -204.432)" fill="white"/>
<rect x="1163.73" y="-194.731" width="525.058" height="5.60062" transform="rotate(30 1163.73 -194.731)" fill="white"/>
<rect x="1158.13" y="-185.031" width="525.058" height="5.60062" transform="rotate(30 1158.13 -185.031)" fill="white"/>
<rect x="1152.53" y="-175.33" width="525.058" height="5.60062" transform="rotate(30 1152.53 -175.33)" fill="white"/>
<rect x="1146.93" y="-165.63" width="525.058" height="5.60062" transform="rotate(30 1146.93 -165.63)" fill="white"/>
<rect x="1141.32" y="-155.929" width="525.058" height="5.60062" transform="rotate(30 1141.32 -155.929)" fill="white"/>
<rect x="1135.72" y="-146.229" width="525.058" height="5.60062" transform="rotate(30 1135.72 -146.229)" fill="white"/>
<rect x="1130.12" y="-136.528" width="525.058" height="5.60062" transform="rotate(30 1130.12 -136.528)" fill="white"/>
<rect x="1124.52" y="-126.828" width="525.058" height="5.60062" transform="rotate(30 1124.52 -126.828)" fill="white"/>
<rect x="1118.92" y="-117.127" width="525.058" height="5.60062" transform="rotate(30 1118.92 -117.127)" fill="white"/>
<rect x="1113.32" y="-107.427" width="525.058" height="5.60062" transform="rotate(30 1113.32 -107.427)" fill="white"/>
<rect x="1107.72" y="-97.7258" width="525.058" height="5.60062" transform="rotate(30 1107.72 -97.7258)" fill="white"/>
<rect x="1102.12" y="-88.0254" width="525.058" height="5.60062" transform="rotate(30 1102.12 -88.0254)" fill="white"/>
<rect x="1096.52" y="-78.3247" width="525.058" height="5.60062" transform="rotate(30 1096.52 -78.3247)" fill="white"/>
<rect x="1090.92" y="-68.6245" width="525.058" height="5.60062" transform="rotate(30 1090.92 -68.6245)" fill="white"/>
<rect x="1085.32" y="-58.9233" width="525.058" height="5.60062" transform="rotate(30 1085.32 -58.9233)" fill="white"/>
<rect x="1079.72" y="-49.2231" width="525.058" height="5.60062" transform="rotate(30 1079.72 -49.2231)" fill="white"/>
<rect x="1074.12" y="-39.5229" width="525.058" height="5.60062" transform="rotate(30 1074.12 -39.5229)" fill="white"/>
<rect x="1068.52" y="-29.8218" width="525.058" height="5.60062" transform="rotate(30 1068.52 -29.8218)" fill="white"/>
<rect x="1062.92" y="-20.1216" width="525.058" height="5.60062" transform="rotate(30 1062.92 -20.1216)" fill="white"/>
<rect x="1057.32" y="-10.4209" width="525.058" height="5.60062" transform="rotate(30 1057.32 -10.4209)" fill="white"/>
<rect x="1051.71" y="-0.720215" width="525.058" height="5.60062" transform="rotate(30 1051.71 -0.720215)" fill="white"/>
<rect x="1046.11" y="8.97998" width="525.058" height="5.60062" transform="rotate(30 1046.11 8.97998)" fill="white"/>
<rect x="1040.51" y="18.6807" width="525.058" height="5.60062" transform="rotate(30 1040.51 18.6807)" fill="white"/>
<rect x="1034.91" y="28.3813" width="525.058" height="5.60062" transform="rotate(30 1034.91 28.3813)" fill="white"/>
<rect x="1029.31" y="38.082" width="525.058" height="5.60062" transform="rotate(30 1029.31 38.082)" fill="white"/>
</g>
</g>
<g clip-path="url(#clip7_1535_175965)">
<rect width="360.26" height="298.296" transform="translate(719.479 -275.118)" fill="white"/>
<rect width="525.058" height="576.864" transform="translate(814.667 -512.428) rotate(30)" fill="white"/>
<rect x="669.051" y="-260.214" width="525.058" height="5.60062" transform="rotate(30 669.051 -260.214)" fill="black"/>
<rect x="663.45" y="-250.513" width="525.058" height="5.60062" transform="rotate(30 663.45 -250.513)" fill="black"/>
<rect x="657.849" y="-240.812" width="525.058" height="5.60062" transform="rotate(30 657.849 -240.812)" fill="black"/>
<rect x="652.249" y="-231.112" width="525.058" height="5.60062" transform="rotate(30 652.249 -231.112)" fill="black"/>
<rect x="646.648" y="-221.412" width="525.058" height="5.60062" transform="rotate(30 646.648 -221.412)" fill="black"/>
<rect x="641.048" y="-211.711" width="525.058" height="5.60062" transform="rotate(30 641.048 -211.711)" fill="black"/>
<rect x="635.447" y="-202.01" width="525.058" height="5.60062" transform="rotate(30 635.447 -202.01)" fill="black"/>
<rect x="629.846" y="-192.31" width="525.058" height="5.60062" transform="rotate(30 629.846 -192.31)" fill="black"/>
<rect x="624.246" y="-182.609" width="525.058" height="5.60062" transform="rotate(30 624.246 -182.609)" fill="black"/>
<rect x="618.645" y="-172.909" width="525.058" height="5.60062" transform="rotate(30 618.645 -172.909)" fill="black"/>
<rect x="613.044" y="-163.208" width="525.058" height="5.60062" transform="rotate(30 613.044 -163.208)" fill="black"/>
<rect x="607.444" y="-153.508" width="525.058" height="5.60062" transform="rotate(30 607.444 -153.508)" fill="black"/>
<rect x="601.843" y="-143.807" width="525.058" height="5.60062" transform="rotate(30 601.843 -143.807)" fill="black"/>
<rect x="596.243" y="-134.107" width="525.058" height="5.60062" transform="rotate(30 596.243 -134.107)" fill="black"/>
<rect x="590.642" y="-124.406" width="525.058" height="5.60062" transform="rotate(30 590.642 -124.406)" fill="black"/>
<rect x="585.041" y="-114.705" width="525.058" height="5.60062" transform="rotate(30 585.041 -114.705)" fill="black"/>
<rect x="579.441" y="-105.005" width="525.058" height="5.60062" transform="rotate(30 579.441 -105.005)" fill="black"/>
<rect x="573.84" y="-95.3042" width="525.058" height="5.60062" transform="rotate(30 573.84 -95.3042)" fill="black"/>
<rect x="568.24" y="-85.604" width="525.058" height="5.60062" transform="rotate(30 568.24 -85.604)" fill="black"/>
<rect x="562.639" y="-75.9028" width="525.058" height="5.60062" transform="rotate(30 562.639 -75.9028)" fill="black"/>
<rect x="557.038" y="-66.2026" width="525.058" height="5.60062" transform="rotate(30 557.038 -66.2026)" fill="black"/>
<rect x="551.438" y="-56.502" width="525.058" height="5.60062" transform="rotate(30 551.438 -56.502)" fill="black"/>
<rect x="545.837" y="-46.8013" width="525.058" height="5.60062" transform="rotate(30 545.837 -46.8013)" fill="black"/>
<rect x="540.236" y="-37.1011" width="525.058" height="5.60062" transform="rotate(30 540.236 -37.1011)" fill="black"/>
<rect x="534.636" y="-27.4004" width="525.058" height="5.60062" transform="rotate(30 534.636 -27.4004)" fill="black"/>
<rect x="529.035" y="-17.7002" width="525.058" height="5.60062" transform="rotate(30 529.035 -17.7002)" fill="black"/>
<path fill-rule="evenodd" clip-rule="evenodd" d="M1079.06 -275.164H1026.96L944.603 -193.661C919.75 -169.064 879.456 -169.064 854.603 -193.661L772.249 -275.164H720.143L828.55 -167.877C867.792 -129.04 931.415 -129.04 970.658 -167.877L1079.06 -275.164ZM719.479 23.1775H771.585L854.608 -58.9889C879.461 -83.5854 919.755 -83.5854 944.609 -58.9889L1027.63 23.1775H1079.74L970.663 -84.7721C931.42 -123.608 867.797 -123.608 828.555 -84.7721L719.479 23.1775Z" fill="white"/>
<mask id="mask6_1535_175965" style="mask-type:alpha" maskUnits="userSpaceOnUse" x="719" y="-276" width="361" height="300">
<path fill-rule="evenodd" clip-rule="evenodd" d="M1079.06 -275.164H1026.96L944.603 -193.661C919.75 -169.064 879.456 -169.064 854.603 -193.661L772.249 -275.164H720.143L828.55 -167.877C867.792 -129.04 931.415 -129.04 970.658 -167.877L1079.06 -275.164ZM719.479 23.1775H771.585L854.608 -58.9889C879.461 -83.5854 919.755 -83.5854 944.609 -58.9889L1027.63 23.1775H1079.74L970.663 -84.7721C931.42 -123.608 867.797 -123.608 828.555 -84.7721L719.479 23.1775Z" fill="white"/>
</mask>
<g mask="url(#mask6_1535_175965)">
<rect width="525.058" height="576.864" transform="translate(814.667 -512.428) rotate(30)" fill="black"/>
<rect x="669.051" y="-260.214" width="525.058" height="5.60062" transform="rotate(30 669.051 -260.214)" fill="white"/>
<rect x="663.45" y="-250.513" width="525.058" height="5.60062" transform="rotate(30 663.45 -250.513)" fill="white"/>
<rect x="657.849" y="-240.812" width="525.058" height="5.60062" transform="rotate(30 657.849 -240.812)" fill="white"/>
<rect x="652.249" y="-231.112" width="525.058" height="5.60062" transform="rotate(30 652.249 -231.112)" fill="white"/>
<rect x="646.648" y="-221.412" width="525.058" height="5.60062" transform="rotate(30 646.648 -221.412)" fill="white"/>
<rect x="641.048" y="-211.711" width="525.058" height="5.60062" transform="rotate(30 641.048 -211.711)" fill="white"/>
<rect x="635.447" y="-202.01" width="525.058" height="5.60062" transform="rotate(30 635.447 -202.01)" fill="white"/>
<rect x="629.846" y="-192.31" width="525.058" height="5.60062" transform="rotate(30 629.846 -192.31)" fill="white"/>
<rect x="624.246" y="-182.609" width="525.058" height="5.60062" transform="rotate(30 624.246 -182.609)" fill="white"/>
<rect x="618.645" y="-172.909" width="525.058" height="5.60062" transform="rotate(30 618.645 -172.909)" fill="white"/>
<rect x="613.044" y="-163.208" width="525.058" height="5.60062" transform="rotate(30 613.044 -163.208)" fill="white"/>
<rect x="607.444" y="-153.508" width="525.058" height="5.60062" transform="rotate(30 607.444 -153.508)" fill="white"/>
<rect x="601.843" y="-143.807" width="525.058" height="5.60062" transform="rotate(30 601.843 -143.807)" fill="white"/>
<rect x="596.243" y="-134.107" width="525.058" height="5.60062" transform="rotate(30 596.243 -134.107)" fill="white"/>
<rect x="590.642" y="-124.406" width="525.058" height="5.60062" transform="rotate(30 590.642 -124.406)" fill="white"/>
<rect x="585.041" y="-114.705" width="525.058" height="5.60062" transform="rotate(30 585.041 -114.705)" fill="white"/>
<rect x="579.441" y="-105.005" width="525.058" height="5.60062" transform="rotate(30 579.441 -105.005)" fill="white"/>
<rect x="573.84" y="-95.3042" width="525.058" height="5.60062" transform="rotate(30 573.84 -95.3042)" fill="white"/>
<rect x="568.24" y="-85.604" width="525.058" height="5.60062" transform="rotate(30 568.24 -85.604)" fill="white"/>
<rect x="562.639" y="-75.9028" width="525.058" height="5.60062" transform="rotate(30 562.639 -75.9028)" fill="white"/>
<rect x="557.038" y="-66.2026" width="525.058" height="5.60062" transform="rotate(30 557.038 -66.2026)" fill="white"/>
<rect x="551.438" y="-56.502" width="525.058" height="5.60062" transform="rotate(30 551.438 -56.502)" fill="white"/>
<rect x="545.837" y="-46.8013" width="525.058" height="5.60062" transform="rotate(30 545.837 -46.8013)" fill="white"/>
<rect x="540.236" y="-37.1011" width="525.058" height="5.60062" transform="rotate(30 540.236 -37.1011)" fill="white"/>
<rect x="534.636" y="-27.4004" width="525.058" height="5.60062" transform="rotate(30 534.636 -27.4004)" fill="white"/>
<rect x="529.035" y="-17.7002" width="525.058" height="5.60062" transform="rotate(30 529.035 -17.7002)" fill="white"/>
</g>
</g>
<g clip-path="url(#clip8_1535_175965)">
<rect width="360.26" height="298.296" transform="matrix(-1 0 0 1 1079.74 23.1768)" fill="white"/>
<rect width="525.058" height="576.864" transform="matrix(-0.866025 0.5 0.5 0.866025 984.552 -214.133)" fill="white"/>
<rect width="525.058" height="5.60062" transform="matrix(-0.866025 0.5 0.5 0.866025 984.552 -214.133)" fill="black"/>
<rect width="525.058" height="5.60062" transform="matrix(-0.866025 0.5 0.5 0.866025 990.153 -204.433)" fill="black"/>
<rect width="525.058" height="5.60062" transform="matrix(-0.866025 0.5 0.5 0.866025 995.754 -194.732)" fill="black"/>
<rect width="525.058" height="5.60062" transform="matrix(-0.866025 0.5 0.5 0.866025 1001.35 -185.031)" fill="black"/>
<rect width="525.058" height="5.60062" transform="matrix(-0.866025 0.5 0.5 0.866025 1006.95 -175.331)" fill="black"/>
<rect width="525.058" height="5.60062" transform="matrix(-0.866025 0.5 0.5 0.866025 1012.56 -165.63)" fill="black"/>
<rect width="525.058" height="5.60062" transform="matrix(-0.866025 0.5 0.5 0.866025 1018.16 -155.93)" fill="black"/>
<rect width="525.058" height="5.60062" transform="matrix(-0.866025 0.5 0.5 0.866025 1023.76 -146.229)" fill="black"/>
<rect width="525.058" height="5.60062" transform="matrix(-0.866025 0.5 0.5 0.866025 1029.36 -136.529)" fill="black"/>
<rect width="525.058" height="5.60062" transform="matrix(-0.866025 0.5 0.5 0.866025 1034.96 -126.828)" fill="black"/>
<rect width="525.058" height="5.60062" transform="matrix(-0.866025 0.5 0.5 0.866025 1040.56 -117.127)" fill="black"/>
<rect width="525.058" height="5.60062" transform="matrix(-0.866025 0.5 0.5 0.866025 1046.16 -107.427)" fill="black"/>
<rect width="525.058" height="5.60062" transform="matrix(-0.866025 0.5 0.5 0.866025 1051.76 -97.7263)" fill="black"/>
<rect width="525.058" height="5.60062" transform="matrix(-0.866025 0.5 0.5 0.866025 1057.36 -88.0259)" fill="black"/>
<rect width="525.058" height="5.60062" transform="matrix(-0.866025 0.5 0.5 0.866025 1062.96 -78.3252)" fill="black"/>
<rect width="525.058" height="5.60062" transform="matrix(-0.866025 0.5 0.5 0.866025 1068.56 -68.625)" fill="black"/>
<rect width="525.058" height="5.60062" transform="matrix(-0.866025 0.5 0.5 0.866025 1074.16 -58.9238)" fill="black"/>
<rect width="525.058" height="5.60062" transform="matrix(-0.866025 0.5 0.5 0.866025 1079.76 -49.2236)" fill="black"/>
<rect width="525.058" height="5.60062" transform="matrix(-0.866025 0.5 0.5 0.866025 1085.36 -39.5234)" fill="black"/>
<rect width="525.058" height="5.60062" transform="matrix(-0.866025 0.5 0.5 0.866025 1090.96 -29.8223)" fill="black"/>
<rect width="525.058" height="5.60062" transform="matrix(-0.866025 0.5 0.5 0.866025 1096.56 -20.1221)" fill="black"/>
<rect width="525.058" height="5.60062" transform="matrix(-0.866025 0.5 0.5 0.866025 1102.17 -10.4214)" fill="black"/>
<rect width="525.058" height="5.60062" transform="matrix(-0.866025 0.5 0.5 0.866025 1107.77 -0.720703)" fill="black"/>
<rect width="525.058" height="5.60062" transform="matrix(-0.866025 0.5 0.5 0.866025 1113.37 8.97949)" fill="black"/>
<rect width="525.058" height="5.60062" transform="matrix(-0.866025 0.5 0.5 0.866025 1118.97 18.6802)" fill="black"/>
<rect width="525.058" height="5.60062" transform="matrix(-0.866025 0.5 0.5 0.866025 1124.57 28.3809)" fill="black"/>
<rect width="525.058" height="5.60062" transform="matrix(-0.866025 0.5 0.5 0.866025 1130.17 38.0815)" fill="black"/>
<path fill-rule="evenodd" clip-rule="evenodd" d="M720.155 23.1313H772.262L854.616 104.634C879.469 129.231 919.763 129.231 944.616 104.634L1026.97 23.1313H1079.08L970.669 130.418C931.427 169.255 867.804 169.255 828.562 130.418L720.155 23.1313ZM1079.74 321.472H1027.63L944.611 239.306C919.758 214.71 879.464 214.71 854.61 239.306L771.586 321.472H719.48L828.556 213.523C867.799 174.686 931.422 174.686 970.664 213.523L1079.74 321.472Z" fill="white"/>
<mask id="mask7_1535_175965" style="mask-type:alpha" maskUnits="userSpaceOnUse" x="719" y="23" width="361" height="299">
<path fill-rule="evenodd" clip-rule="evenodd" d="M720.155 23.1313H772.262L854.616 104.634C879.469 129.231 919.763 129.231 944.616 104.634L1026.97 23.1313H1079.08L970.669 130.418C931.427 169.255 867.804 169.255 828.562 130.418L720.155 23.1313ZM1079.74 321.472H1027.63L944.611 239.306C919.758 214.71 879.464 214.71 854.61 239.306L771.586 321.472H719.48L828.556 213.523C867.799 174.686 931.422 174.686 970.664 213.523L1079.74 321.472Z" fill="white"/>
</mask>
<g mask="url(#mask7_1535_175965)">
<rect width="525.058" height="576.864" transform="matrix(-0.866025 0.5 0.5 0.866025 984.552 -214.133)" fill="black"/>
<rect width="525.058" height="5.60062" transform="matrix(-0.866025 0.5 0.5 0.866025 984.552 -214.133)" fill="white"/>
<rect width="525.058" height="5.60062" transform="matrix(-0.866025 0.5 0.5 0.866025 990.153 -204.433)" fill="white"/>
<rect width="525.058" height="5.60062" transform="matrix(-0.866025 0.5 0.5 0.866025 995.754 -194.732)" fill="white"/>
<rect width="525.058" height="5.60062" transform="matrix(-0.866025 0.5 0.5 0.866025 1001.35 -185.031)" fill="white"/>
<rect width="525.058" height="5.60062" transform="matrix(-0.866025 0.5 0.5 0.866025 1006.95 -175.331)" fill="white"/>
<rect width="525.058" height="5.60062" transform="matrix(-0.866025 0.5 0.5 0.866025 1012.56 -165.63)" fill="white"/>
<rect width="525.058" height="5.60062" transform="matrix(-0.866025 0.5 0.5 0.866025 1018.16 -155.93)" fill="white"/>
<rect width="525.058" height="5.60062" transform="matrix(-0.866025 0.5 0.5 0.866025 1023.76 -146.229)" fill="white"/>
<rect width="525.058" height="5.60062" transform="matrix(-0.866025 0.5 0.5 0.866025 1029.36 -136.529)" fill="white"/>
<rect width="525.058" height="5.60062" transform="matrix(-0.866025 0.5 0.5 0.866025 1034.96 -126.828)" fill="white"/>
<rect width="525.058" height="5.60062" transform="matrix(-0.866025 0.5 0.5 0.866025 1040.56 -117.127)" fill="white"/>
<rect width="525.058" height="5.60062" transform="matrix(-0.866025 0.5 0.5 0.866025 1046.16 -107.427)" fill="white"/>
<rect width="525.058" height="5.60062" transform="matrix(-0.866025 0.5 0.5 0.866025 1051.76 -97.7263)" fill="white"/>
<rect width="525.058" height="5.60062" transform="matrix(-0.866025 0.5 0.5 0.866025 1057.36 -88.0259)" fill="white"/>
<rect width="525.058" height="5.60062" transform="matrix(-0.866025 0.5 0.5 0.866025 1062.96 -78.3252)" fill="white"/>
<rect width="525.058" height="5.60062" transform="matrix(-0.866025 0.5 0.5 0.866025 1068.56 -68.625)" fill="white"/>
<rect width="525.058" height="5.60062" transform="matrix(-0.866025 0.5 0.5 0.866025 1074.16 -58.9238)" fill="white"/>
<rect width="525.058" height="5.60062" transform="matrix(-0.866025 0.5 0.5 0.866025 1079.76 -49.2236)" fill="white"/>
<rect width="525.058" height="5.60062" transform="matrix(-0.866025 0.5 0.5 0.866025 1085.36 -39.5234)" fill="white"/>
<rect width="525.058" height="5.60062" transform="matrix(-0.866025 0.5 0.5 0.866025 1090.96 -29.8223)" fill="white"/>
<rect width="525.058" height="5.60062" transform="matrix(-0.866025 0.5 0.5 0.866025 1096.56 -20.1221)" fill="white"/>
<rect width="525.058" height="5.60062" transform="matrix(-0.866025 0.5 0.5 0.866025 1102.17 -10.4214)" fill="white"/>
<rect width="525.058" height="5.60062" transform="matrix(-0.866025 0.5 0.5 0.866025 1107.77 -0.720703)" fill="white"/>
<rect width="525.058" height="5.60062" transform="matrix(-0.866025 0.5 0.5 0.866025 1113.37 8.97949)" fill="white"/>
<rect width="525.058" height="5.60062" transform="matrix(-0.866025 0.5 0.5 0.866025 1118.97 18.6802)" fill="white"/>
<rect width="525.058" height="5.60062" transform="matrix(-0.866025 0.5 0.5 0.866025 1124.57 28.3809)" fill="white"/>
<rect width="525.058" height="5.60062" transform="matrix(-0.866025 0.5 0.5 0.866025 1130.17 38.0815)" fill="white"/>
</g>
</g>
</g>
</g>
<defs>
<clipPath id="clip0_1535_175965">
<rect width="1440" height="46" fill="white"/>
</clipPath>
<clipPath id="clip1_1535_175965">
<rect width="360.26" height="298.296" fill="white" transform="matrix(-1 0 0 1 720.52 -275.118)"/>
</clipPath>
<clipPath id="clip2_1535_175965">
<rect width="360.26" height="298.296" fill="white" transform="translate(360.259 23.1772)"/>
</clipPath>
<clipPath id="clip3_1535_175965">
<rect width="360.26" height="298.296" fill="white" transform="translate(0.000610352 -275.118)"/>
</clipPath>
<clipPath id="clip4_1535_175965">
<rect width="360.26" height="298.296" fill="white" transform="matrix(-1 0 0 1 360.259 23.1768)"/>
</clipPath>
<clipPath id="clip5_1535_175965">
<rect width="360.26" height="298.296" fill="white" transform="matrix(-1 0 0 1 1440 -275.118)"/>
</clipPath>
<clipPath id="clip6_1535_175965">
<rect width="360.26" height="298.296" fill="white" transform="translate(1079.74 23.1772)"/>
</clipPath>
<clipPath id="clip7_1535_175965">
<rect width="360.26" height="298.296" fill="white" transform="translate(719.479 -275.118)"/>
</clipPath>
<clipPath id="clip8_1535_175965">
<rect width="360.26" height="298.296" fill="white" transform="matrix(-1 0 0 1 1079.74 23.1768)"/>
</clipPath>
</defs>
</svg>
