<svg width="1024" height="46" viewBox="0 0 1024 46" fill="none" xmlns="http://www.w3.org/2000/svg">
<g clip-path="url(#clip0_1535_175797)">
<rect width="1024" height="46" fill="#F5F5F7"/>
<path fill-rule="evenodd" clip-rule="evenodd" d="M-660.92 83.5358L-706.406 109.509C-671.32 169.62 -601.641 197.052 -539.429 179.739C-501.555 219.632 -445.115 235.826 -393.764 221.532C-392.792 222.555 -391.809 223.563 -390.813 224.555C-405.844 209.496 -417.277 191.727 -424.714 172.632C-446.922 174.779 -469.54 168.563 -488.068 155.274L-434.693 124.791C-435.614 100.266 -430.257 75.4292 -417.923 52.7122L-535.106 119.637C-578.493 144.415 -634.822 128.253 -660.92 83.5358ZM-406.762 33.1041L-464.179 16.629L-365.005 -40.0104L-406.762 33.1041ZM-291.896 -81.7642L-274.93 -91.4533C-274.051 -91.9553 -273.169 -92.4466 -272.284 -92.9273L-287.469 -66.3378L-291.896 -81.7642ZM-152.368 -99.7148C-167.699 -105.686 -183.884 -109.081 -200.207 -109.694L-233.749 -50.963C-213.435 -58.2894 -191.439 -57.7458 -171.577 -50.4271L-163.569 -64.4487C-157.204 -75.594 -153.54 -87.5933 -152.368 -99.7148ZM-100.425 -65.7933C-99.4691 -64.8384 -98.5238 -63.869 -97.5898 -62.8852C-46.2387 -77.1763 10.2 -60.9809 48.0726 -21.0862C110.287 -38.4037 179.97 -10.9712 215.057 49.1414L169.572 75.1151C143.473 30.3984 87.1441 14.2356 43.7569 39.0143L-73.4216 105.936C-61.0889 83.2196 -55.7322 58.3836 -56.654 33.8591L-3.28553 3.37969C-21.8116 -9.91024 -44.428 -16.1287 -66.6351 -13.9845C-74.054 -33.0315 -85.4488 -50.7592 -100.425 -65.7933ZM-115.386 67.4014C-117.086 72.1147 -119.209 76.7375 -121.771 81.222L-138.286 110.139L-172.84 100.225L-205.897 119.104L-191.978 94.7331L-172.852 100.221L-115.386 67.4014ZM-152.924 26.3508L-115.924 5.21963C-118.861 -2.74786 -122.888 -10.372 -127.934 -17.4063L-152.924 26.3508ZM-245.674 79.3262L-230.267 133.022L-298.652 172.078L-245.68 79.3245L-245.676 79.3189L-261.084 25.6211L-192.706 -13.4307L-245.676 79.319L-245.675 79.3219L-245.68 79.3245L-245.674 79.3262ZM-285.461 39.5429L-299.381 63.9158L-318.498 58.4305L-375.96 91.2477C-374.26 86.5357 -372.137 81.9142 -369.576 77.431L-353.061 48.5124L-318.52 58.4233L-285.461 39.5429ZM-325.224 -0.228978L-287.469 -66.3359L-276.488 -28.0628L-325.224 -0.228978ZM-375.426 153.423L-338.434 132.296L-363.421 176.048C-368.465 169.014 -372.491 161.39 -375.426 153.423ZM-319.782 209.075C-299.917 216.398 -277.917 216.943 -257.6 209.615L-291.142 268.346C-307.467 267.733 -323.654 264.337 -338.986 258.365C-337.815 246.239 -334.151 234.236 -327.784 223.087L-319.782 209.075ZM-219.065 251.58L-203.879 224.989L-214.861 186.715L-166.122 158.88L-203.878 224.99L-199.452 240.416L-216.418 250.106C-217.297 250.608 -218.179 251.099 -219.065 251.58ZM-126.34 198.661L-84.5848 125.548L-27.1689 142.023L-126.34 198.661Z" fill="#00FF76"/>
<path fill-rule="evenodd" clip-rule="evenodd" d="M-390.92 224.451C-405.892 209.418 -417.284 191.693 -424.702 172.648C-412.58 171.476 -400.58 167.813 -389.435 161.447L-375.414 153.44C-372.478 161.407 -368.452 169.032 -363.406 176.067L-338.417 132.31L-245.668 79.3402L-299.365 63.9323L-285.443 39.5554L-261.07 25.6353L-245.661 79.3354L-192.689 -13.4179L-148.939 -38.4038C-155.973 -43.4484 -163.596 -47.4738 -171.562 -50.4093L-163.554 -64.4317C-157.189 -75.5767 -153.525 -87.5757 -152.353 -99.6969C-132.993 -92.1564 -114.996 -80.508 -99.8046 -65.166C-85.1266 -50.2637 -73.9391 -32.7582 -66.6207 -13.969C-78.7467 -12.7985 -90.7507 -9.13463 -101.9 -2.76712L-115.91 5.23423C-118.847 -2.73258 -122.873 -10.356 -127.919 -17.3898L-152.907 26.3637L-245.661 79.3367L-245.661 79.336L-245.662 79.3372L-245.667 79.34L-245.664 79.3408L-298.635 172.092L-342.392 197.082C-335.358 202.128 -327.734 206.155 -319.766 209.092L-327.768 223.103C-334.136 234.252 -337.8 246.256 -338.97 258.381C-358.077 250.939 -375.856 239.497 -390.92 224.451ZM-291.127 268.361L-257.585 209.629C-252.872 207.929 -248.249 205.806 -243.765 203.245L-214.847 186.729L-203.864 225.004L-203.864 225.005L-166.106 158.893L-99.9976 121.138L-84.5707 125.564L-126.325 198.675L-199.438 240.43L-203.864 225.005L-219.048 251.592C-241.766 263.926 -266.602 269.283 -291.127 268.361ZM-73.4061 105.949L-99.9985 121.136L-138.271 110.155L-121.756 81.2371C-119.195 76.7521 -117.071 72.1287 -115.371 67.4147L-56.6398 33.8728C-55.7177 58.397 -61.074 83.2327 -73.4061 105.949ZM-205.881 119.119L-230.253 133.038L-245.66 79.3421L-191.963 94.7496L-205.881 119.119ZM-272.274 -92.908C-249.557 -105.241 -224.721 -110.599 -200.196 -109.677L-233.739 -50.9445C-238.452 -49.2446 -243.074 -47.1211 -247.557 -44.5604L-276.474 -28.0455L-287.457 -66.3213L-325.214 -0.209947L-391.323 37.5461L-353.049 48.5286L-369.564 77.4465C-372.125 81.9301 -374.248 86.5519 -375.948 91.2642L-434.681 124.807C-435.602 100.282 -430.245 75.4458 -417.911 52.7288L-391.327 37.5463L-406.75 33.1209L-364.995 -39.9914L-291.883 -81.7465L-287.458 -66.3224L-272.274 -92.908Z" fill="#00FF76"/>
<path d="M-161.444 -44.1939L-196.052 -79.1853C-143.928 -131.891 -59.4245 -131.891 -7.30352 -79.1853L136.682 66.415L67.475 66.415L-41.907 -44.1939C-74.9171 -77.574 -128.435 -77.574 -161.444 -44.1939Z" fill="#5500FF"/>
<path fill-rule="evenodd" clip-rule="evenodd" d="M1694.92 83.5358L1740.41 109.509C1705.32 169.62 1635.64 197.052 1573.43 179.739C1535.55 219.632 1479.11 235.826 1427.76 221.532C1426.79 222.555 1425.81 223.563 1424.81 224.555C1439.84 209.496 1451.28 191.727 1458.71 172.632C1480.92 174.779 1503.54 168.563 1522.07 155.274L1468.69 124.791C1469.61 100.266 1464.26 75.4292 1451.92 52.7122L1569.11 119.637C1612.49 144.415 1668.82 128.253 1694.92 83.5358ZM1440.76 33.1041L1498.18 16.629L1399.01 -40.0104L1440.76 33.1041ZM1325.9 -81.7642L1308.93 -91.4533C1308.05 -91.9553 1307.17 -92.4466 1306.28 -92.9273L1321.47 -66.3378L1325.9 -81.7642ZM1186.37 -99.7148C1201.7 -105.686 1217.88 -109.081 1234.21 -109.694L1267.75 -50.963C1247.44 -58.2894 1225.44 -57.7458 1205.58 -50.4271L1197.57 -64.4487C1191.2 -75.594 1187.54 -87.5933 1186.37 -99.7148ZM1134.43 -65.7933C1133.47 -64.8384 1132.52 -63.869 1131.59 -62.8852C1080.24 -77.1763 1023.8 -60.9809 985.927 -21.0862C923.713 -38.4037 854.03 -10.9712 818.943 49.1414L864.428 75.1151C890.527 30.3984 946.856 14.2356 990.243 39.0143L1107.42 105.936C1095.09 83.2196 1089.73 58.3836 1090.65 33.8591L1037.29 3.37969C1055.81 -9.91024 1078.43 -16.1287 1100.64 -13.9845C1108.05 -33.0315 1119.45 -50.7592 1134.43 -65.7933ZM1149.39 67.4014C1151.09 72.1147 1153.21 76.7375 1155.77 81.222L1172.29 110.139L1206.84 100.225L1239.9 119.104L1225.98 94.7331L1206.85 100.221L1149.39 67.4014ZM1186.92 26.3508L1149.92 5.21963C1152.86 -2.74786 1156.89 -10.372 1161.93 -17.4063L1186.92 26.3508ZM1279.67 79.3262L1264.27 133.022L1332.65 172.078L1279.68 79.3245L1279.68 79.3189L1295.08 25.6211L1226.71 -13.4307L1279.68 79.319L1279.68 79.3219L1279.68 79.3245L1279.67 79.3262ZM1319.46 39.5429L1333.38 63.9158L1352.5 58.4305L1409.96 91.2477C1408.26 86.5357 1406.14 81.9142 1403.58 77.431L1387.06 48.5124L1352.52 58.4233L1319.46 39.5429ZM1359.22 -0.228978L1321.47 -66.3359L1310.49 -28.0628L1359.22 -0.228978ZM1409.43 153.423L1372.43 132.296L1397.42 176.048C1402.47 169.014 1406.49 161.39 1409.43 153.423ZM1353.78 209.075C1333.92 216.398 1311.92 216.943 1291.6 209.615L1325.14 268.346C1341.47 267.733 1357.65 264.337 1372.99 258.365C1371.82 246.239 1368.15 234.236 1361.78 223.087L1353.78 209.075ZM1253.07 251.58L1237.88 224.989L1248.86 186.715L1200.12 158.88L1237.88 224.99L1233.45 240.416L1250.42 250.106C1251.3 250.608 1252.18 251.099 1253.07 251.58ZM1160.34 198.661L1118.58 125.548L1061.17 142.023L1160.34 198.661Z" fill="#00FF76"/>
<path fill-rule="evenodd" clip-rule="evenodd" d="M1424.92 224.451C1439.89 209.418 1451.28 191.693 1458.7 172.648C1446.58 171.476 1434.58 167.813 1423.43 161.447L1409.41 153.44C1406.48 161.407 1402.45 169.032 1397.41 176.067L1372.42 132.31L1279.67 79.3402L1333.37 63.9323L1319.44 39.5554L1295.07 25.6353L1279.66 79.3354L1226.69 -13.4179L1182.94 -38.4038C1189.97 -43.4484 1197.6 -47.4738 1205.56 -50.4093L1197.55 -64.4317C1191.19 -75.5767 1187.53 -87.5757 1186.35 -99.6969C1166.99 -92.1564 1149 -80.508 1133.8 -65.166C1119.13 -50.2637 1107.94 -32.7582 1100.62 -13.969C1112.75 -12.7985 1124.75 -9.13463 1135.9 -2.76712L1149.91 5.23423C1152.85 -2.73258 1156.87 -10.356 1161.92 -17.3898L1186.91 26.3637L1279.66 79.3367L1279.66 79.336L1279.66 79.3372L1279.67 79.34L1279.66 79.3408L1332.64 172.092L1376.39 197.082C1369.36 202.128 1361.73 206.155 1353.77 209.092L1361.77 223.103C1368.14 234.252 1371.8 246.256 1372.97 258.381C1392.08 250.939 1409.86 239.497 1424.92 224.451ZM1325.13 268.361L1291.58 209.629C1286.87 207.929 1282.25 205.806 1277.77 203.245L1248.85 186.729L1237.86 225.004L1237.86 225.005L1200.11 158.893L1134 121.138L1118.57 125.564L1160.32 198.675L1233.44 240.43L1237.86 225.005L1253.05 251.592C1275.77 263.926 1300.6 269.283 1325.13 268.361ZM1107.41 105.949L1134 121.136L1172.27 110.155L1155.76 81.2371C1153.19 76.752 1151.07 72.1286 1149.37 67.4147L1090.64 33.8728C1089.72 58.397 1095.07 83.2326 1107.41 105.949ZM1239.88 119.119L1264.25 133.038L1279.66 79.3421L1225.96 94.7496L1239.88 119.119ZM1306.27 -92.908C1283.56 -105.241 1258.72 -110.599 1234.2 -109.677L1267.74 -50.9445C1272.45 -49.2446 1277.07 -47.1211 1281.56 -44.5604L1310.47 -28.0455L1321.46 -66.3213L1359.21 -0.209947L1425.32 37.5461L1387.05 48.5286L1403.56 77.4465C1406.12 81.9301 1408.25 86.5519 1409.95 91.2642L1468.68 124.807C1469.6 100.282 1464.24 75.4458 1451.91 52.7288L1425.33 37.5463L1440.75 33.1209L1399 -39.9914L1325.88 -81.7465L1321.46 -66.3224L1306.27 -92.908Z" fill="#00FF76"/>
<path d="M1195.44 -44.1939L1230.05 -79.1853C1177.93 -131.891 1093.42 -131.891 1041.3 -79.1853L897.318 66.415L966.525 66.415L1075.91 -44.1939C1108.92 -77.574 1162.44 -77.574 1195.44 -44.1939Z" fill="#5500FF"/>
<g style="mix-blend-mode:overlay" opacity="0.4">
<g clip-path="url(#clip1_1535_175797)">
<rect width="325.485" height="269.502" transform="matrix(-1 0 0 1 650.968 -246.206)" fill="white"/>
<rect width="474.375" height="521.18" transform="matrix(-0.866025 0.5 0.5 0.866025 564.968 -460.609)" fill="white"/>
<rect width="474.375" height="5.06" transform="matrix(-0.866025 0.5 0.5 0.866025 691.468 -241.504)" fill="black"/>
<rect width="474.375" height="5.06" transform="matrix(-0.866025 0.5 0.5 0.866025 696.528 -232.74)" fill="black"/>
<rect width="474.375" height="5.06" transform="matrix(-0.866025 0.5 0.5 0.866025 701.588 -223.976)" fill="black"/>
<rect width="474.375" height="5.06" transform="matrix(-0.866025 0.5 0.5 0.866025 706.648 -215.212)" fill="black"/>
<rect width="474.375" height="5.06" transform="matrix(-0.866025 0.5 0.5 0.866025 711.708 -206.448)" fill="black"/>
<rect width="474.375" height="5.06" transform="matrix(-0.866025 0.5 0.5 0.866025 716.768 -197.683)" fill="black"/>
<rect width="474.375" height="5.06" transform="matrix(-0.866025 0.5 0.5 0.866025 721.828 -188.919)" fill="black"/>
<rect width="474.375" height="5.06" transform="matrix(-0.866025 0.5 0.5 0.866025 726.888 -180.155)" fill="black"/>
<rect width="474.375" height="5.06" transform="matrix(-0.866025 0.5 0.5 0.866025 731.948 -171.391)" fill="black"/>
<rect width="474.375" height="5.06" transform="matrix(-0.866025 0.5 0.5 0.866025 737.008 -162.627)" fill="black"/>
<rect width="474.375" height="5.06" transform="matrix(-0.866025 0.5 0.5 0.866025 742.068 -153.862)" fill="black"/>
<rect width="474.375" height="5.06" transform="matrix(-0.866025 0.5 0.5 0.866025 747.128 -145.099)" fill="black"/>
<rect width="474.375" height="5.06" transform="matrix(-0.866025 0.5 0.5 0.866025 752.188 -136.334)" fill="black"/>
<rect width="474.375" height="5.06" transform="matrix(-0.866025 0.5 0.5 0.866025 757.248 -127.57)" fill="black"/>
<rect width="474.375" height="5.06" transform="matrix(-0.866025 0.5 0.5 0.866025 762.308 -118.806)" fill="black"/>
<rect width="474.375" height="5.06" transform="matrix(-0.866025 0.5 0.5 0.866025 767.368 -110.042)" fill="black"/>
<rect width="474.375" height="5.06" transform="matrix(-0.866025 0.5 0.5 0.866025 772.428 -101.277)" fill="black"/>
<rect width="474.375" height="5.06" transform="matrix(-0.866025 0.5 0.5 0.866025 777.488 -92.5132)" fill="black"/>
<rect width="474.375" height="5.06" transform="matrix(-0.866025 0.5 0.5 0.866025 782.548 -83.749)" fill="black"/>
<rect width="474.375" height="5.06" transform="matrix(-0.866025 0.5 0.5 0.866025 787.608 -74.9849)" fill="black"/>
<rect width="474.375" height="5.06" transform="matrix(-0.866025 0.5 0.5 0.866025 792.668 -66.2207)" fill="black"/>
<rect width="474.375" height="5.06" transform="matrix(-0.866025 0.5 0.5 0.866025 797.728 -57.4565)" fill="black"/>
<rect width="474.375" height="5.06" transform="matrix(-0.866025 0.5 0.5 0.866025 802.788 -48.6924)" fill="black"/>
<rect width="474.375" height="5.06" transform="matrix(-0.866025 0.5 0.5 0.866025 807.848 -39.9282)" fill="black"/>
<rect width="474.375" height="5.06" transform="matrix(-0.866025 0.5 0.5 0.866025 812.908 -31.1641)" fill="black"/>
<rect width="474.375" height="5.06" transform="matrix(-0.866025 0.5 0.5 0.866025 817.968 -22.3999)" fill="black"/>
<rect width="474.375" height="5.06" transform="matrix(-0.866025 0.5 0.5 0.866025 823.028 -13.6357)" fill="black"/>
<path fill-rule="evenodd" clip-rule="evenodd" d="M326.093 -246.247H373.169L447.574 -172.611C470.028 -150.389 506.433 -150.389 528.887 -172.611L603.291 -246.247H650.367L552.425 -149.316C516.971 -114.228 459.49 -114.228 424.035 -149.316L326.093 -246.247ZM650.968 23.2958H603.892L528.882 -50.9392C506.428 -73.1615 470.024 -73.1615 447.569 -50.9392L372.559 23.2958H325.483L424.03 -74.2337C459.485 -109.321 516.967 -109.321 552.42 -74.2337L650.968 23.2958Z" fill="white"/>
<mask id="mask0_1535_175797" style="mask-type:alpha" maskUnits="userSpaceOnUse" x="325" y="-247" width="326" height="271">
<path fill-rule="evenodd" clip-rule="evenodd" d="M326.093 -246.247H373.169L447.574 -172.611C470.028 -150.389 506.433 -150.389 528.887 -172.611L603.291 -246.247H650.367L552.425 -149.316C516.971 -114.228 459.49 -114.228 424.035 -149.316L326.093 -246.247ZM650.968 23.2958H603.892L528.882 -50.9392C506.428 -73.1615 470.024 -73.1615 447.569 -50.9392L372.559 23.2958H325.483L424.03 -74.2337C459.485 -109.321 516.967 -109.321 552.42 -74.2337L650.968 23.2958Z" fill="white"/>
</mask>
<g mask="url(#mask0_1535_175797)">
<rect width="474.375" height="521.18" transform="matrix(-0.866025 0.5 0.5 0.866025 564.968 -460.609)" fill="black"/>
<rect width="474.375" height="5.06" transform="matrix(-0.866025 0.5 0.5 0.866025 691.468 -241.504)" fill="white"/>
<rect width="474.375" height="5.06" transform="matrix(-0.866025 0.5 0.5 0.866025 696.528 -232.74)" fill="white"/>
<rect width="474.375" height="5.06" transform="matrix(-0.866025 0.5 0.5 0.866025 701.588 -223.976)" fill="white"/>
<rect width="474.375" height="5.06" transform="matrix(-0.866025 0.5 0.5 0.866025 706.648 -215.212)" fill="white"/>
<rect width="474.375" height="5.06" transform="matrix(-0.866025 0.5 0.5 0.866025 711.708 -206.448)" fill="white"/>
<rect width="474.375" height="5.06" transform="matrix(-0.866025 0.5 0.5 0.866025 716.768 -197.683)" fill="white"/>
<rect width="474.375" height="5.06" transform="matrix(-0.866025 0.5 0.5 0.866025 721.828 -188.919)" fill="white"/>
<rect width="474.375" height="5.06" transform="matrix(-0.866025 0.5 0.5 0.866025 726.888 -180.155)" fill="white"/>
<rect width="474.375" height="5.06" transform="matrix(-0.866025 0.5 0.5 0.866025 731.948 -171.391)" fill="white"/>
<rect width="474.375" height="5.06" transform="matrix(-0.866025 0.5 0.5 0.866025 737.008 -162.627)" fill="white"/>
<rect width="474.375" height="5.06" transform="matrix(-0.866025 0.5 0.5 0.866025 742.068 -153.862)" fill="white"/>
<rect width="474.375" height="5.06" transform="matrix(-0.866025 0.5 0.5 0.866025 747.128 -145.099)" fill="white"/>
<rect width="474.375" height="5.06" transform="matrix(-0.866025 0.5 0.5 0.866025 752.188 -136.334)" fill="white"/>
<rect width="474.375" height="5.06" transform="matrix(-0.866025 0.5 0.5 0.866025 757.248 -127.57)" fill="white"/>
<rect width="474.375" height="5.06" transform="matrix(-0.866025 0.5 0.5 0.866025 762.308 -118.806)" fill="white"/>
<rect width="474.375" height="5.06" transform="matrix(-0.866025 0.5 0.5 0.866025 767.368 -110.042)" fill="white"/>
<rect width="474.375" height="5.06" transform="matrix(-0.866025 0.5 0.5 0.866025 772.428 -101.277)" fill="white"/>
<rect width="474.375" height="5.06" transform="matrix(-0.866025 0.5 0.5 0.866025 777.488 -92.5132)" fill="white"/>
<rect width="474.375" height="5.06" transform="matrix(-0.866025 0.5 0.5 0.866025 782.548 -83.749)" fill="white"/>
<rect width="474.375" height="5.06" transform="matrix(-0.866025 0.5 0.5 0.866025 787.608 -74.9849)" fill="white"/>
<rect width="474.375" height="5.06" transform="matrix(-0.866025 0.5 0.5 0.866025 792.668 -66.2207)" fill="white"/>
<rect width="474.375" height="5.06" transform="matrix(-0.866025 0.5 0.5 0.866025 797.728 -57.4565)" fill="white"/>
<rect width="474.375" height="5.06" transform="matrix(-0.866025 0.5 0.5 0.866025 802.788 -48.6924)" fill="white"/>
<rect width="474.375" height="5.06" transform="matrix(-0.866025 0.5 0.5 0.866025 807.848 -39.9282)" fill="white"/>
<rect width="474.375" height="5.06" transform="matrix(-0.866025 0.5 0.5 0.866025 812.908 -31.1641)" fill="white"/>
<rect width="474.375" height="5.06" transform="matrix(-0.866025 0.5 0.5 0.866025 817.968 -22.3999)" fill="white"/>
<rect width="474.375" height="5.06" transform="matrix(-0.866025 0.5 0.5 0.866025 823.028 -13.6357)" fill="white"/>
</g>
</g>
<g clip-path="url(#clip2_1535_175797)">
<rect width="325.485" height="269.502" transform="translate(325.485 23.2954)" fill="white"/>
<rect width="474.375" height="521.18" transform="translate(411.484 -191.107) rotate(30)" fill="white"/>
<rect x="411.484" y="-191.107" width="474.375" height="5.06" transform="rotate(30 411.484 -191.107)" fill="black"/>
<rect x="406.424" y="-182.343" width="474.375" height="5.06" transform="rotate(30 406.424 -182.343)" fill="black"/>
<rect x="401.364" y="-173.579" width="474.375" height="5.06" transform="rotate(30 401.364 -173.579)" fill="black"/>
<rect x="396.304" y="-164.814" width="474.375" height="5.06" transform="rotate(30 396.304 -164.814)" fill="black"/>
<rect x="391.244" y="-156.05" width="474.375" height="5.06" transform="rotate(30 391.244 -156.05)" fill="black"/>
<rect x="386.184" y="-147.286" width="474.375" height="5.06" transform="rotate(30 386.184 -147.286)" fill="black"/>
<rect x="381.124" y="-138.521" width="474.375" height="5.06" transform="rotate(30 381.124 -138.521)" fill="black"/>
<rect x="376.064" y="-129.758" width="474.375" height="5.06" transform="rotate(30 376.064 -129.758)" fill="black"/>
<rect x="371.004" y="-120.994" width="474.375" height="5.06" transform="rotate(30 371.004 -120.994)" fill="black"/>
<rect x="365.944" y="-112.229" width="474.375" height="5.06" transform="rotate(30 365.944 -112.229)" fill="black"/>
<rect x="360.884" y="-103.465" width="474.375" height="5.06" transform="rotate(30 360.884 -103.465)" fill="black"/>
<rect x="355.824" y="-94.7007" width="474.375" height="5.06" transform="rotate(30 355.824 -94.7007)" fill="black"/>
<rect x="350.764" y="-85.937" width="474.375" height="5.06" transform="rotate(30 350.764 -85.937)" fill="black"/>
<rect x="345.704" y="-77.1724" width="474.375" height="5.06" transform="rotate(30 345.704 -77.1724)" fill="black"/>
<rect x="340.644" y="-68.4087" width="474.375" height="5.06" transform="rotate(30 340.644 -68.4087)" fill="black"/>
<rect x="335.584" y="-59.6445" width="474.375" height="5.06" transform="rotate(30 335.584 -59.6445)" fill="black"/>
<rect x="330.524" y="-50.8799" width="474.375" height="5.06" transform="rotate(30 330.524 -50.8799)" fill="black"/>
<rect x="325.464" y="-42.1162" width="474.375" height="5.06" transform="rotate(30 325.464 -42.1162)" fill="black"/>
<rect x="320.404" y="-33.3516" width="474.375" height="5.06" transform="rotate(30 320.404 -33.3516)" fill="black"/>
<rect x="315.344" y="-24.5874" width="474.375" height="5.06" transform="rotate(30 315.344 -24.5874)" fill="black"/>
<rect x="310.284" y="-15.8232" width="474.375" height="5.06" transform="rotate(30 310.284 -15.8232)" fill="black"/>
<rect x="305.224" y="-7.05908" width="474.375" height="5.06" transform="rotate(30 305.224 -7.05908)" fill="black"/>
<rect x="300.164" y="1.70459" width="474.375" height="5.06" transform="rotate(30 300.164 1.70459)" fill="black"/>
<rect x="295.104" y="10.4692" width="474.375" height="5.06" transform="rotate(30 295.104 10.4692)" fill="black"/>
<rect x="290.044" y="19.2334" width="474.375" height="5.06" transform="rotate(30 290.044 19.2334)" fill="black"/>
<rect x="284.984" y="27.9976" width="474.375" height="5.06" transform="rotate(30 284.984 27.9976)" fill="black"/>
<rect x="279.924" y="36.7617" width="474.375" height="5.06" transform="rotate(30 279.924 36.7617)" fill="black"/>
<rect x="274.864" y="45.5254" width="474.375" height="5.06" transform="rotate(30 274.864 45.5254)" fill="black"/>
<path fill-rule="evenodd" clip-rule="evenodd" d="M650.36 23.2544H603.283L528.879 96.8901C506.425 119.112 470.02 119.112 447.566 96.8901L373.161 23.2544H326.085L424.028 120.185C459.482 155.273 516.963 155.273 552.418 120.185L650.36 23.2544ZM325.485 292.797H372.561L447.57 218.562C470.025 196.34 506.429 196.34 528.883 218.562L603.893 292.797H650.97L552.423 195.268C516.968 160.18 459.486 160.18 424.032 195.268L325.485 292.797Z" fill="white"/>
<mask id="mask1_1535_175797" style="mask-type:alpha" maskUnits="userSpaceOnUse" x="325" y="23" width="326" height="270">
<path fill-rule="evenodd" clip-rule="evenodd" d="M650.36 23.2544H603.283L528.879 96.8901C506.425 119.112 470.02 119.112 447.566 96.8901L373.161 23.2544H326.085L424.028 120.185C459.482 155.273 516.963 155.273 552.418 120.185L650.36 23.2544ZM325.485 292.797H372.561L447.57 218.562C470.025 196.34 506.429 196.34 528.883 218.562L603.893 292.797H650.97L552.423 195.268C516.968 160.18 459.486 160.18 424.032 195.268L325.485 292.797Z" fill="white"/>
</mask>
<g mask="url(#mask1_1535_175797)">
<rect width="474.375" height="521.18" transform="translate(411.484 -191.107) rotate(30)" fill="black"/>
<rect x="411.484" y="-191.107" width="474.375" height="5.06" transform="rotate(30 411.484 -191.107)" fill="white"/>
<rect x="406.424" y="-182.343" width="474.375" height="5.06" transform="rotate(30 406.424 -182.343)" fill="white"/>
<rect x="401.364" y="-173.579" width="474.375" height="5.06" transform="rotate(30 401.364 -173.579)" fill="white"/>
<rect x="396.304" y="-164.814" width="474.375" height="5.06" transform="rotate(30 396.304 -164.814)" fill="white"/>
<rect x="391.244" y="-156.05" width="474.375" height="5.06" transform="rotate(30 391.244 -156.05)" fill="white"/>
<rect x="386.184" y="-147.286" width="474.375" height="5.06" transform="rotate(30 386.184 -147.286)" fill="white"/>
<rect x="381.124" y="-138.521" width="474.375" height="5.06" transform="rotate(30 381.124 -138.521)" fill="white"/>
<rect x="376.064" y="-129.758" width="474.375" height="5.06" transform="rotate(30 376.064 -129.758)" fill="white"/>
<rect x="371.004" y="-120.994" width="474.375" height="5.06" transform="rotate(30 371.004 -120.994)" fill="white"/>
<rect x="365.944" y="-112.229" width="474.375" height="5.06" transform="rotate(30 365.944 -112.229)" fill="white"/>
<rect x="360.884" y="-103.465" width="474.375" height="5.06" transform="rotate(30 360.884 -103.465)" fill="white"/>
<rect x="355.824" y="-94.7007" width="474.375" height="5.06" transform="rotate(30 355.824 -94.7007)" fill="white"/>
<rect x="350.764" y="-85.937" width="474.375" height="5.06" transform="rotate(30 350.764 -85.937)" fill="white"/>
<rect x="345.704" y="-77.1724" width="474.375" height="5.06" transform="rotate(30 345.704 -77.1724)" fill="white"/>
<rect x="340.644" y="-68.4087" width="474.375" height="5.06" transform="rotate(30 340.644 -68.4087)" fill="white"/>
<rect x="335.584" y="-59.6445" width="474.375" height="5.06" transform="rotate(30 335.584 -59.6445)" fill="white"/>
<rect x="330.524" y="-50.8799" width="474.375" height="5.06" transform="rotate(30 330.524 -50.8799)" fill="white"/>
<rect x="325.464" y="-42.1162" width="474.375" height="5.06" transform="rotate(30 325.464 -42.1162)" fill="white"/>
<rect x="320.404" y="-33.3516" width="474.375" height="5.06" transform="rotate(30 320.404 -33.3516)" fill="white"/>
<rect x="315.344" y="-24.5874" width="474.375" height="5.06" transform="rotate(30 315.344 -24.5874)" fill="white"/>
<rect x="310.284" y="-15.8232" width="474.375" height="5.06" transform="rotate(30 310.284 -15.8232)" fill="white"/>
<rect x="305.224" y="-7.05908" width="474.375" height="5.06" transform="rotate(30 305.224 -7.05908)" fill="white"/>
<rect x="300.164" y="1.70459" width="474.375" height="5.06" transform="rotate(30 300.164 1.70459)" fill="white"/>
<rect x="295.104" y="10.4692" width="474.375" height="5.06" transform="rotate(30 295.104 10.4692)" fill="white"/>
<rect x="290.044" y="19.2334" width="474.375" height="5.06" transform="rotate(30 290.044 19.2334)" fill="white"/>
<rect x="284.984" y="27.9976" width="474.375" height="5.06" transform="rotate(30 284.984 27.9976)" fill="white"/>
<rect x="279.924" y="36.7617" width="474.375" height="5.06" transform="rotate(30 279.924 36.7617)" fill="white"/>
<rect x="274.864" y="45.5254" width="474.375" height="5.06" transform="rotate(30 274.864 45.5254)" fill="white"/>
</g>
</g>
<g clip-path="url(#clip3_1535_175797)">
<rect width="325.485" height="269.502" transform="translate(0.00241089 -246.206)" fill="white"/>
<rect width="474.375" height="521.18" transform="translate(86.0021 -460.609) rotate(30)" fill="white"/>
<rect x="-40.498" y="-241.504" width="474.375" height="5.06" transform="rotate(30 -40.498 -241.504)" fill="black"/>
<rect x="-45.558" y="-232.74" width="474.375" height="5.06" transform="rotate(30 -45.558 -232.74)" fill="black"/>
<rect x="-50.618" y="-223.976" width="474.375" height="5.06" transform="rotate(30 -50.618 -223.976)" fill="black"/>
<rect x="-55.678" y="-215.212" width="474.375" height="5.06" transform="rotate(30 -55.678 -215.212)" fill="black"/>
<rect x="-60.738" y="-206.448" width="474.375" height="5.06" transform="rotate(30 -60.738 -206.448)" fill="black"/>
<rect x="-65.7979" y="-197.684" width="474.375" height="5.06" transform="rotate(30 -65.7979 -197.684)" fill="black"/>
<rect x="-70.8579" y="-188.919" width="474.375" height="5.06" transform="rotate(30 -70.8579 -188.919)" fill="black"/>
<rect x="-75.918" y="-180.155" width="474.375" height="5.06" transform="rotate(30 -75.918 -180.155)" fill="black"/>
<rect x="-80.9781" y="-171.391" width="474.375" height="5.06" transform="rotate(30 -80.9781 -171.391)" fill="black"/>
<rect x="-86.0379" y="-162.627" width="474.375" height="5.06" transform="rotate(30 -86.0379 -162.627)" fill="black"/>
<rect x="-91.098" y="-153.863" width="474.375" height="5.06" transform="rotate(30 -91.098 -153.863)" fill="black"/>
<rect x="-96.158" y="-145.098" width="474.375" height="5.06" transform="rotate(30 -96.158 -145.098)" fill="black"/>
<rect x="-101.218" y="-136.334" width="474.375" height="5.06" transform="rotate(30 -101.218 -136.334)" fill="black"/>
<rect x="-106.278" y="-127.57" width="474.375" height="5.06" transform="rotate(30 -106.278 -127.57)" fill="black"/>
<rect x="-111.338" y="-118.806" width="474.375" height="5.06" transform="rotate(30 -111.338 -118.806)" fill="black"/>
<rect x="-116.398" y="-110.042" width="474.375" height="5.06" transform="rotate(30 -116.398 -110.042)" fill="black"/>
<rect x="-121.458" y="-101.277" width="474.375" height="5.06" transform="rotate(30 -121.458 -101.277)" fill="black"/>
<rect x="-126.518" y="-92.5137" width="474.375" height="5.06" transform="rotate(30 -126.518 -92.5137)" fill="black"/>
<rect x="-131.578" y="-83.749" width="474.375" height="5.06" transform="rotate(30 -131.578 -83.749)" fill="black"/>
<rect x="-136.638" y="-74.9854" width="474.375" height="5.06" transform="rotate(30 -136.638 -74.9854)" fill="black"/>
<rect x="-141.698" y="-66.2207" width="474.375" height="5.06" transform="rotate(30 -141.698 -66.2207)" fill="black"/>
<rect x="-146.758" y="-57.4565" width="474.375" height="5.06" transform="rotate(30 -146.758 -57.4565)" fill="black"/>
<rect x="-151.818" y="-48.6924" width="474.375" height="5.06" transform="rotate(30 -151.818 -48.6924)" fill="black"/>
<rect x="-156.878" y="-39.9282" width="474.375" height="5.06" transform="rotate(30 -156.878 -39.9282)" fill="black"/>
<rect x="-161.938" y="-31.1646" width="474.375" height="5.06" transform="rotate(30 -161.938 -31.1646)" fill="black"/>
<rect x="-166.998" y="-22.3999" width="474.375" height="5.06" transform="rotate(30 -166.998 -22.3999)" fill="black"/>
<rect x="-172.058" y="-13.6357" width="474.375" height="5.06" transform="rotate(30 -172.058 -13.6357)" fill="black"/>
<path fill-rule="evenodd" clip-rule="evenodd" d="M324.878 -246.247H277.801L203.396 -172.611C180.942 -150.389 144.538 -150.389 122.083 -172.611L47.6791 -246.247H0.602902L98.5452 -149.316C133.999 -114.229 191.481 -114.229 226.936 -149.316L324.878 -246.247ZM0.00253296 23.2958H47.0788L122.088 -50.9392C144.542 -73.1615 180.947 -73.1615 203.401 -50.9392L278.411 23.2958H325.488L226.94 -74.2337C191.485 -109.321 134.004 -109.321 98.5499 -74.2337L0.00253296 23.2958Z" fill="white"/>
<mask id="mask2_1535_175797" style="mask-type:alpha" maskUnits="userSpaceOnUse" x="0" y="-247" width="326" height="271">
<path fill-rule="evenodd" clip-rule="evenodd" d="M324.878 -246.247H277.801L203.396 -172.611C180.942 -150.389 144.538 -150.389 122.083 -172.611L47.6791 -246.247H0.602902L98.5452 -149.316C133.999 -114.229 191.481 -114.229 226.936 -149.316L324.878 -246.247ZM0.00253296 23.2958H47.0788L122.088 -50.9392C144.542 -73.1615 180.947 -73.1615 203.401 -50.9392L278.411 23.2958H325.488L226.94 -74.2337C191.485 -109.321 134.004 -109.321 98.5499 -74.2337L0.00253296 23.2958Z" fill="white"/>
</mask>
<g mask="url(#mask2_1535_175797)">
<rect width="474.375" height="521.18" transform="translate(86.0021 -460.609) rotate(30)" fill="black"/>
<rect x="-40.498" y="-241.504" width="474.375" height="5.06" transform="rotate(30 -40.498 -241.504)" fill="white"/>
<rect x="-45.558" y="-232.74" width="474.375" height="5.06" transform="rotate(30 -45.558 -232.74)" fill="white"/>
<rect x="-50.618" y="-223.976" width="474.375" height="5.06" transform="rotate(30 -50.618 -223.976)" fill="white"/>
<rect x="-55.678" y="-215.212" width="474.375" height="5.06" transform="rotate(30 -55.678 -215.212)" fill="white"/>
<rect x="-60.738" y="-206.448" width="474.375" height="5.06" transform="rotate(30 -60.738 -206.448)" fill="white"/>
<rect x="-65.7979" y="-197.684" width="474.375" height="5.06" transform="rotate(30 -65.7979 -197.684)" fill="white"/>
<rect x="-70.8579" y="-188.919" width="474.375" height="5.06" transform="rotate(30 -70.8579 -188.919)" fill="white"/>
<rect x="-75.918" y="-180.155" width="474.375" height="5.06" transform="rotate(30 -75.918 -180.155)" fill="white"/>
<rect x="-80.9781" y="-171.391" width="474.375" height="5.06" transform="rotate(30 -80.9781 -171.391)" fill="white"/>
<rect x="-86.0379" y="-162.627" width="474.375" height="5.06" transform="rotate(30 -86.0379 -162.627)" fill="white"/>
<rect x="-91.098" y="-153.863" width="474.375" height="5.06" transform="rotate(30 -91.098 -153.863)" fill="white"/>
<rect x="-96.158" y="-145.098" width="474.375" height="5.06" transform="rotate(30 -96.158 -145.098)" fill="white"/>
<rect x="-101.218" y="-136.334" width="474.375" height="5.06" transform="rotate(30 -101.218 -136.334)" fill="white"/>
<rect x="-106.278" y="-127.57" width="474.375" height="5.06" transform="rotate(30 -106.278 -127.57)" fill="white"/>
<rect x="-111.338" y="-118.806" width="474.375" height="5.06" transform="rotate(30 -111.338 -118.806)" fill="white"/>
<rect x="-116.398" y="-110.042" width="474.375" height="5.06" transform="rotate(30 -116.398 -110.042)" fill="white"/>
<rect x="-121.458" y="-101.277" width="474.375" height="5.06" transform="rotate(30 -121.458 -101.277)" fill="white"/>
<rect x="-126.518" y="-92.5137" width="474.375" height="5.06" transform="rotate(30 -126.518 -92.5137)" fill="white"/>
<rect x="-131.578" y="-83.749" width="474.375" height="5.06" transform="rotate(30 -131.578 -83.749)" fill="white"/>
<rect x="-136.638" y="-74.9854" width="474.375" height="5.06" transform="rotate(30 -136.638 -74.9854)" fill="white"/>
<rect x="-141.698" y="-66.2207" width="474.375" height="5.06" transform="rotate(30 -141.698 -66.2207)" fill="white"/>
<rect x="-146.758" y="-57.4565" width="474.375" height="5.06" transform="rotate(30 -146.758 -57.4565)" fill="white"/>
<rect x="-151.818" y="-48.6924" width="474.375" height="5.06" transform="rotate(30 -151.818 -48.6924)" fill="white"/>
<rect x="-156.878" y="-39.9282" width="474.375" height="5.06" transform="rotate(30 -156.878 -39.9282)" fill="white"/>
<rect x="-161.938" y="-31.1646" width="474.375" height="5.06" transform="rotate(30 -161.938 -31.1646)" fill="white"/>
<rect x="-166.998" y="-22.3999" width="474.375" height="5.06" transform="rotate(30 -166.998 -22.3999)" fill="white"/>
<rect x="-172.058" y="-13.6357" width="474.375" height="5.06" transform="rotate(30 -172.058 -13.6357)" fill="white"/>
</g>
</g>
<g clip-path="url(#clip4_1535_175797)">
<rect width="325.485" height="269.502" transform="matrix(-1 0 0 1 325.486 23.2954)" fill="white"/>
<rect width="474.375" height="521.18" transform="matrix(-0.866025 0.5 0.5 0.866025 239.486 -191.107)" fill="white"/>
<rect width="474.375" height="5.06" transform="matrix(-0.866025 0.5 0.5 0.866025 239.486 -191.107)" fill="black"/>
<rect width="474.375" height="5.06" transform="matrix(-0.866025 0.5 0.5 0.866025 244.546 -182.343)" fill="black"/>
<rect width="474.375" height="5.06" transform="matrix(-0.866025 0.5 0.5 0.866025 249.606 -173.579)" fill="black"/>
<rect width="474.375" height="5.06" transform="matrix(-0.866025 0.5 0.5 0.866025 254.666 -164.814)" fill="black"/>
<rect width="474.375" height="5.06" transform="matrix(-0.866025 0.5 0.5 0.866025 259.726 -156.05)" fill="black"/>
<rect width="474.375" height="5.06" transform="matrix(-0.866025 0.5 0.5 0.866025 264.786 -147.286)" fill="black"/>
<rect width="474.375" height="5.06" transform="matrix(-0.866025 0.5 0.5 0.866025 269.846 -138.521)" fill="black"/>
<rect width="474.375" height="5.06" transform="matrix(-0.866025 0.5 0.5 0.866025 274.906 -129.758)" fill="black"/>
<rect width="474.375" height="5.06" transform="matrix(-0.866025 0.5 0.5 0.866025 279.966 -120.994)" fill="black"/>
<rect width="474.375" height="5.06" transform="matrix(-0.866025 0.5 0.5 0.866025 285.026 -112.229)" fill="black"/>
<rect width="474.375" height="5.06" transform="matrix(-0.866025 0.5 0.5 0.866025 290.086 -103.465)" fill="black"/>
<rect width="474.375" height="5.06" transform="matrix(-0.866025 0.5 0.5 0.866025 295.146 -94.7007)" fill="black"/>
<rect width="474.375" height="5.06" transform="matrix(-0.866025 0.5 0.5 0.866025 300.206 -85.937)" fill="black"/>
<rect width="474.375" height="5.06" transform="matrix(-0.866025 0.5 0.5 0.866025 305.266 -77.1724)" fill="black"/>
<rect width="474.375" height="5.06" transform="matrix(-0.866025 0.5 0.5 0.866025 310.326 -68.4087)" fill="black"/>
<rect width="474.375" height="5.06" transform="matrix(-0.866025 0.5 0.5 0.866025 315.386 -59.6445)" fill="black"/>
<rect width="474.375" height="5.06" transform="matrix(-0.866025 0.5 0.5 0.866025 320.446 -50.8799)" fill="black"/>
<rect width="474.375" height="5.06" transform="matrix(-0.866025 0.5 0.5 0.866025 325.506 -42.1162)" fill="black"/>
<rect width="474.375" height="5.06" transform="matrix(-0.866025 0.5 0.5 0.866025 330.566 -33.3516)" fill="black"/>
<rect width="474.375" height="5.06" transform="matrix(-0.866025 0.5 0.5 0.866025 335.626 -24.5874)" fill="black"/>
<rect width="474.375" height="5.06" transform="matrix(-0.866025 0.5 0.5 0.866025 340.686 -15.8232)" fill="black"/>
<rect width="474.375" height="5.06" transform="matrix(-0.866025 0.5 0.5 0.866025 345.746 -7.05908)" fill="black"/>
<rect width="474.375" height="5.06" transform="matrix(-0.866025 0.5 0.5 0.866025 350.806 1.70459)" fill="black"/>
<rect width="474.375" height="5.06" transform="matrix(-0.866025 0.5 0.5 0.866025 355.866 10.4692)" fill="black"/>
<rect width="474.375" height="5.06" transform="matrix(-0.866025 0.5 0.5 0.866025 360.926 19.2334)" fill="black"/>
<rect width="474.375" height="5.06" transform="matrix(-0.866025 0.5 0.5 0.866025 365.986 27.9976)" fill="black"/>
<rect width="474.375" height="5.06" transform="matrix(-0.866025 0.5 0.5 0.866025 371.046 36.7617)" fill="black"/>
<rect width="474.375" height="5.06" transform="matrix(-0.866025 0.5 0.5 0.866025 376.106 45.5254)" fill="black"/>
<path fill-rule="evenodd" clip-rule="evenodd" d="M0.610229 23.2544H47.687L122.092 96.8901C144.546 119.112 180.95 119.112 203.405 96.8901L277.809 23.2544H324.885L226.943 120.185C191.489 155.273 134.007 155.273 98.5525 120.185L0.610229 23.2544ZM325.486 292.797H278.409L203.4 218.562C180.946 196.34 144.541 196.34 122.087 218.562L47.0771 292.797H0.000335693L98.5479 195.268C134.003 160.18 191.484 160.18 226.938 195.268L325.486 292.797Z" fill="white"/>
<mask id="mask3_1535_175797" style="mask-type:alpha" maskUnits="userSpaceOnUse" x="0" y="23" width="326" height="270">
<path fill-rule="evenodd" clip-rule="evenodd" d="M0.610229 23.2544H47.687L122.092 96.8901C144.546 119.112 180.95 119.112 203.405 96.8901L277.809 23.2544H324.885L226.943 120.185C191.489 155.273 134.007 155.273 98.5525 120.185L0.610229 23.2544ZM325.486 292.797H278.409L203.4 218.562C180.946 196.34 144.541 196.34 122.087 218.562L47.0771 292.797H0.000335693L98.5479 195.268C134.003 160.18 191.484 160.18 226.938 195.268L325.486 292.797Z" fill="white"/>
</mask>
<g mask="url(#mask3_1535_175797)">
<rect width="474.375" height="521.18" transform="matrix(-0.866025 0.5 0.5 0.866025 239.486 -191.107)" fill="black"/>
<rect width="474.375" height="5.06" transform="matrix(-0.866025 0.5 0.5 0.866025 239.486 -191.107)" fill="white"/>
<rect width="474.375" height="5.06" transform="matrix(-0.866025 0.5 0.5 0.866025 244.546 -182.343)" fill="white"/>
<rect width="474.375" height="5.06" transform="matrix(-0.866025 0.5 0.5 0.866025 249.606 -173.579)" fill="white"/>
<rect width="474.375" height="5.06" transform="matrix(-0.866025 0.5 0.5 0.866025 254.666 -164.814)" fill="white"/>
<rect width="474.375" height="5.06" transform="matrix(-0.866025 0.5 0.5 0.866025 259.726 -156.05)" fill="white"/>
<rect width="474.375" height="5.06" transform="matrix(-0.866025 0.5 0.5 0.866025 264.786 -147.286)" fill="white"/>
<rect width="474.375" height="5.06" transform="matrix(-0.866025 0.5 0.5 0.866025 269.846 -138.521)" fill="white"/>
<rect width="474.375" height="5.06" transform="matrix(-0.866025 0.5 0.5 0.866025 274.906 -129.758)" fill="white"/>
<rect width="474.375" height="5.06" transform="matrix(-0.866025 0.5 0.5 0.866025 279.966 -120.994)" fill="white"/>
<rect width="474.375" height="5.06" transform="matrix(-0.866025 0.5 0.5 0.866025 285.026 -112.229)" fill="white"/>
<rect width="474.375" height="5.06" transform="matrix(-0.866025 0.5 0.5 0.866025 290.086 -103.465)" fill="white"/>
<rect width="474.375" height="5.06" transform="matrix(-0.866025 0.5 0.5 0.866025 295.146 -94.7007)" fill="white"/>
<rect width="474.375" height="5.06" transform="matrix(-0.866025 0.5 0.5 0.866025 300.206 -85.937)" fill="white"/>
<rect width="474.375" height="5.06" transform="matrix(-0.866025 0.5 0.5 0.866025 305.266 -77.1724)" fill="white"/>
<rect width="474.375" height="5.06" transform="matrix(-0.866025 0.5 0.5 0.866025 310.326 -68.4087)" fill="white"/>
<rect width="474.375" height="5.06" transform="matrix(-0.866025 0.5 0.5 0.866025 315.386 -59.6445)" fill="white"/>
<rect width="474.375" height="5.06" transform="matrix(-0.866025 0.5 0.5 0.866025 320.446 -50.8799)" fill="white"/>
<rect width="474.375" height="5.06" transform="matrix(-0.866025 0.5 0.5 0.866025 325.506 -42.1162)" fill="white"/>
<rect width="474.375" height="5.06" transform="matrix(-0.866025 0.5 0.5 0.866025 330.566 -33.3516)" fill="white"/>
<rect width="474.375" height="5.06" transform="matrix(-0.866025 0.5 0.5 0.866025 335.626 -24.5874)" fill="white"/>
<rect width="474.375" height="5.06" transform="matrix(-0.866025 0.5 0.5 0.866025 340.686 -15.8232)" fill="white"/>
<rect width="474.375" height="5.06" transform="matrix(-0.866025 0.5 0.5 0.866025 345.746 -7.05908)" fill="white"/>
<rect width="474.375" height="5.06" transform="matrix(-0.866025 0.5 0.5 0.866025 350.806 1.70459)" fill="white"/>
<rect width="474.375" height="5.06" transform="matrix(-0.866025 0.5 0.5 0.866025 355.866 10.4692)" fill="white"/>
<rect width="474.375" height="5.06" transform="matrix(-0.866025 0.5 0.5 0.866025 360.926 19.2334)" fill="white"/>
<rect width="474.375" height="5.06" transform="matrix(-0.866025 0.5 0.5 0.866025 365.986 27.9976)" fill="white"/>
<rect width="474.375" height="5.06" transform="matrix(-0.866025 0.5 0.5 0.866025 371.046 36.7617)" fill="white"/>
<rect width="474.375" height="5.06" transform="matrix(-0.866025 0.5 0.5 0.866025 376.106 45.5254)" fill="white"/>
</g>
</g>
<g clip-path="url(#clip5_1535_175797)">
<rect width="325.485" height="269.502" transform="matrix(-1 0 0 1 1301 -246.206)" fill="white"/>
<rect width="474.375" height="521.18" transform="matrix(-0.866025 0.5 0.5 0.866025 1215 -460.609)" fill="white"/>
<rect width="474.375" height="5.06" transform="matrix(-0.866025 0.5 0.5 0.866025 1341.5 -241.504)" fill="black"/>
<rect width="474.375" height="5.06" transform="matrix(-0.866025 0.5 0.5 0.866025 1346.56 -232.74)" fill="black"/>
<rect width="474.375" height="5.06" transform="matrix(-0.866025 0.5 0.5 0.866025 1351.62 -223.976)" fill="black"/>
<rect width="474.375" height="5.06" transform="matrix(-0.866025 0.5 0.5 0.866025 1356.68 -215.212)" fill="black"/>
<rect width="474.375" height="5.06" transform="matrix(-0.866025 0.5 0.5 0.866025 1361.74 -206.448)" fill="black"/>
<rect width="474.375" height="5.06" transform="matrix(-0.866025 0.5 0.5 0.866025 1366.8 -197.683)" fill="black"/>
<rect width="474.375" height="5.06" transform="matrix(-0.866025 0.5 0.5 0.866025 1371.86 -188.919)" fill="black"/>
<rect width="474.375" height="5.06" transform="matrix(-0.866025 0.5 0.5 0.866025 1376.92 -180.155)" fill="black"/>
<rect width="474.375" height="5.06" transform="matrix(-0.866025 0.5 0.5 0.866025 1381.98 -171.391)" fill="black"/>
<rect width="474.375" height="5.06" transform="matrix(-0.866025 0.5 0.5 0.866025 1387.04 -162.627)" fill="black"/>
<rect width="474.375" height="5.06" transform="matrix(-0.866025 0.5 0.5 0.866025 1392.1 -153.862)" fill="black"/>
<rect width="474.375" height="5.06" transform="matrix(-0.866025 0.5 0.5 0.866025 1397.16 -145.099)" fill="black"/>
<rect width="474.375" height="5.06" transform="matrix(-0.866025 0.5 0.5 0.866025 1402.22 -136.334)" fill="black"/>
<rect width="474.375" height="5.06" transform="matrix(-0.866025 0.5 0.5 0.866025 1407.28 -127.57)" fill="black"/>
<rect width="474.375" height="5.06" transform="matrix(-0.866025 0.5 0.5 0.866025 1412.34 -118.806)" fill="black"/>
<rect width="474.375" height="5.06" transform="matrix(-0.866025 0.5 0.5 0.866025 1417.4 -110.042)" fill="black"/>
<rect width="474.375" height="5.06" transform="matrix(-0.866025 0.5 0.5 0.866025 1422.46 -101.277)" fill="black"/>
<rect width="474.375" height="5.06" transform="matrix(-0.866025 0.5 0.5 0.866025 1427.52 -92.5132)" fill="black"/>
<rect width="474.375" height="5.06" transform="matrix(-0.866025 0.5 0.5 0.866025 1432.58 -83.749)" fill="black"/>
<path fill-rule="evenodd" clip-rule="evenodd" d="M976.122 -246.247H1023.2L1097.6 -172.611C1120.06 -150.389 1156.46 -150.389 1178.92 -172.611L1253.32 -246.247H1300.4L1202.45 -149.316C1167 -114.228 1109.52 -114.228 1074.06 -149.316L976.122 -246.247ZM1301 23.2958H1253.92L1178.91 -50.9392C1156.46 -73.1615 1120.05 -73.1615 1097.6 -50.9392L1022.59 23.2958H975.512L1074.06 -74.2337C1109.51 -109.321 1167 -109.321 1202.45 -74.2337L1301 23.2958Z" fill="white"/>
<mask id="mask4_1535_175797" style="mask-type:alpha" maskUnits="userSpaceOnUse" x="975" y="-247" width="326" height="271">
<path fill-rule="evenodd" clip-rule="evenodd" d="M976.122 -246.247H1023.2L1097.6 -172.611C1120.06 -150.389 1156.46 -150.389 1178.92 -172.611L1253.32 -246.247H1300.4L1202.45 -149.316C1167 -114.228 1109.52 -114.228 1074.06 -149.316L976.122 -246.247ZM1301 23.2958H1253.92L1178.91 -50.9392C1156.46 -73.1615 1120.05 -73.1615 1097.6 -50.9392L1022.59 23.2958H975.512L1074.06 -74.2337C1109.51 -109.321 1167 -109.321 1202.45 -74.2337L1301 23.2958Z" fill="white"/>
</mask>
<g mask="url(#mask4_1535_175797)">
<rect width="474.375" height="521.18" transform="matrix(-0.866025 0.5 0.5 0.866025 1215 -460.609)" fill="black"/>
<rect width="474.375" height="5.06" transform="matrix(-0.866025 0.5 0.5 0.866025 1341.5 -241.504)" fill="white"/>
<rect width="474.375" height="5.06" transform="matrix(-0.866025 0.5 0.5 0.866025 1346.56 -232.74)" fill="white"/>
<rect width="474.375" height="5.06" transform="matrix(-0.866025 0.5 0.5 0.866025 1351.62 -223.976)" fill="white"/>
<rect width="474.375" height="5.06" transform="matrix(-0.866025 0.5 0.5 0.866025 1356.68 -215.212)" fill="white"/>
<rect width="474.375" height="5.06" transform="matrix(-0.866025 0.5 0.5 0.866025 1361.74 -206.448)" fill="white"/>
<rect width="474.375" height="5.06" transform="matrix(-0.866025 0.5 0.5 0.866025 1366.8 -197.683)" fill="white"/>
<rect width="474.375" height="5.06" transform="matrix(-0.866025 0.5 0.5 0.866025 1371.86 -188.919)" fill="white"/>
<rect width="474.375" height="5.06" transform="matrix(-0.866025 0.5 0.5 0.866025 1376.92 -180.155)" fill="white"/>
<rect width="474.375" height="5.06" transform="matrix(-0.866025 0.5 0.5 0.866025 1381.98 -171.391)" fill="white"/>
<rect width="474.375" height="5.06" transform="matrix(-0.866025 0.5 0.5 0.866025 1387.04 -162.627)" fill="white"/>
<rect width="474.375" height="5.06" transform="matrix(-0.866025 0.5 0.5 0.866025 1392.1 -153.862)" fill="white"/>
<rect width="474.375" height="5.06" transform="matrix(-0.866025 0.5 0.5 0.866025 1397.16 -145.099)" fill="white"/>
<rect width="474.375" height="5.06" transform="matrix(-0.866025 0.5 0.5 0.866025 1402.22 -136.334)" fill="white"/>
<rect width="474.375" height="5.06" transform="matrix(-0.866025 0.5 0.5 0.866025 1407.28 -127.57)" fill="white"/>
<rect width="474.375" height="5.06" transform="matrix(-0.866025 0.5 0.5 0.866025 1412.34 -118.806)" fill="white"/>
<rect width="474.375" height="5.06" transform="matrix(-0.866025 0.5 0.5 0.866025 1417.4 -110.042)" fill="white"/>
<rect width="474.375" height="5.06" transform="matrix(-0.866025 0.5 0.5 0.866025 1422.46 -101.277)" fill="white"/>
<rect width="474.375" height="5.06" transform="matrix(-0.866025 0.5 0.5 0.866025 1427.52 -92.5132)" fill="white"/>
<rect width="474.375" height="5.06" transform="matrix(-0.866025 0.5 0.5 0.866025 1432.58 -83.749)" fill="white"/>
</g>
</g>
<g clip-path="url(#clip6_1535_175797)">
<rect width="325.485" height="269.502" transform="translate(975.512 23.2959)" fill="white"/>
<rect width="474.375" height="521.18" transform="translate(1061.51 -191.107) rotate(30)" fill="white"/>
<rect x="1026.09" y="-129.757" width="474.375" height="5.06" transform="rotate(30 1026.09 -129.757)" fill="black"/>
<rect x="1021.03" y="-120.993" width="474.375" height="5.06" transform="rotate(30 1021.03 -120.993)" fill="black"/>
<rect x="1015.97" y="-112.229" width="474.375" height="5.06" transform="rotate(30 1015.97 -112.229)" fill="black"/>
<rect x="1010.91" y="-103.465" width="474.375" height="5.06" transform="rotate(30 1010.91 -103.465)" fill="black"/>
<rect x="1005.85" y="-94.7002" width="474.375" height="5.06" transform="rotate(30 1005.85 -94.7002)" fill="black"/>
<rect x="1000.79" y="-85.9365" width="474.375" height="5.06" transform="rotate(30 1000.79 -85.9365)" fill="black"/>
<rect x="995.732" y="-77.1719" width="474.375" height="5.06" transform="rotate(30 995.732 -77.1719)" fill="black"/>
<rect x="990.672" y="-68.4082" width="474.375" height="5.06" transform="rotate(30 990.672 -68.4082)" fill="black"/>
<rect x="985.612" y="-59.644" width="474.375" height="5.06" transform="rotate(30 985.612 -59.644)" fill="black"/>
<rect x="980.552" y="-50.8794" width="474.375" height="5.06" transform="rotate(30 980.552 -50.8794)" fill="black"/>
<rect x="975.492" y="-42.1157" width="474.375" height="5.06" transform="rotate(30 975.492 -42.1157)" fill="black"/>
<rect x="970.432" y="-33.3511" width="474.375" height="5.06" transform="rotate(30 970.432 -33.3511)" fill="black"/>
<rect x="965.372" y="-24.5869" width="474.375" height="5.06" transform="rotate(30 965.372 -24.5869)" fill="black"/>
<rect x="960.312" y="-15.8228" width="474.375" height="5.06" transform="rotate(30 960.312 -15.8228)" fill="black"/>
<rect x="955.252" y="-7.05859" width="474.375" height="5.06" transform="rotate(30 955.252 -7.05859)" fill="black"/>
<rect x="950.192" y="1.70508" width="474.375" height="5.06" transform="rotate(30 950.192 1.70508)" fill="black"/>
<rect x="945.132" y="10.4697" width="474.375" height="5.06" transform="rotate(30 945.132 10.4697)" fill="black"/>
<rect x="940.072" y="19.2339" width="474.375" height="5.06" transform="rotate(30 940.072 19.2339)" fill="black"/>
<rect x="935.012" y="27.998" width="474.375" height="5.06" transform="rotate(30 935.012 27.998)" fill="black"/>
<rect x="929.952" y="36.7622" width="474.375" height="5.06" transform="rotate(30 929.952 36.7622)" fill="black"/>
<rect x="924.892" y="45.5259" width="474.375" height="5.06" transform="rotate(30 924.892 45.5259)" fill="black"/>
<path fill-rule="evenodd" clip-rule="evenodd" d="M1300.39 23.2549H1253.31L1178.91 96.8906C1156.45 119.113 1120.05 119.113 1097.59 96.8906L1023.19 23.2549H976.113L1074.05 120.186C1109.51 155.273 1166.99 155.273 1202.45 120.186L1300.39 23.2549ZM975.512 292.798H1022.59L1097.6 218.563C1120.05 196.34 1156.46 196.34 1178.91 218.563L1253.92 292.798H1301L1202.45 195.268C1167 160.181 1109.51 160.181 1074.06 195.268L975.512 292.798Z" fill="white"/>
<mask id="mask5_1535_175797" style="mask-type:alpha" maskUnits="userSpaceOnUse" x="975" y="23" width="326" height="270">
<path fill-rule="evenodd" clip-rule="evenodd" d="M1300.39 23.2549H1253.31L1178.91 96.8906C1156.45 119.113 1120.05 119.113 1097.59 96.8906L1023.19 23.2549H976.113L1074.05 120.186C1109.51 155.273 1166.99 155.273 1202.45 120.186L1300.39 23.2549ZM975.512 292.798H1022.59L1097.6 218.563C1120.05 196.34 1156.46 196.34 1178.91 218.563L1253.92 292.798H1301L1202.45 195.268C1167 160.181 1109.51 160.181 1074.06 195.268L975.512 292.798Z" fill="white"/>
</mask>
<g mask="url(#mask5_1535_175797)">
<rect width="474.375" height="521.18" transform="translate(1061.51 -191.107) rotate(30)" fill="black"/>
<rect x="1026.09" y="-129.758" width="474.375" height="5.06" transform="rotate(30 1026.09 -129.758)" fill="white"/>
<rect x="1021.03" y="-120.994" width="474.375" height="5.06" transform="rotate(30 1021.03 -120.994)" fill="white"/>
<rect x="1015.97" y="-112.229" width="474.375" height="5.06" transform="rotate(30 1015.97 -112.229)" fill="white"/>
<rect x="1010.91" y="-103.465" width="474.375" height="5.06" transform="rotate(30 1010.91 -103.465)" fill="white"/>
<rect x="1005.85" y="-94.7007" width="474.375" height="5.06" transform="rotate(30 1005.85 -94.7007)" fill="white"/>
<rect x="1000.79" y="-85.937" width="474.375" height="5.06" transform="rotate(30 1000.79 -85.937)" fill="white"/>
<rect x="995.732" y="-77.1724" width="474.375" height="5.06" transform="rotate(30 995.732 -77.1724)" fill="white"/>
<rect x="990.672" y="-68.4087" width="474.375" height="5.06" transform="rotate(30 990.672 -68.4087)" fill="white"/>
<rect x="985.612" y="-59.6445" width="474.375" height="5.06" transform="rotate(30 985.612 -59.6445)" fill="white"/>
<rect x="980.552" y="-50.8799" width="474.375" height="5.06" transform="rotate(30 980.552 -50.8799)" fill="white"/>
<rect x="975.492" y="-42.1162" width="474.375" height="5.06" transform="rotate(30 975.492 -42.1162)" fill="white"/>
<rect x="970.432" y="-33.3516" width="474.375" height="5.06" transform="rotate(30 970.432 -33.3516)" fill="white"/>
<rect x="965.372" y="-24.5874" width="474.375" height="5.06" transform="rotate(30 965.372 -24.5874)" fill="white"/>
<rect x="960.312" y="-15.8232" width="474.375" height="5.06" transform="rotate(30 960.312 -15.8232)" fill="white"/>
<rect x="955.252" y="-7.05908" width="474.375" height="5.06" transform="rotate(30 955.252 -7.05908)" fill="white"/>
<rect x="950.192" y="1.70459" width="474.375" height="5.06" transform="rotate(30 950.192 1.70459)" fill="white"/>
<rect x="945.132" y="10.4692" width="474.375" height="5.06" transform="rotate(30 945.132 10.4692)" fill="white"/>
<rect x="940.072" y="19.2334" width="474.375" height="5.06" transform="rotate(30 940.072 19.2334)" fill="white"/>
<rect x="935.012" y="27.9976" width="474.375" height="5.06" transform="rotate(30 935.012 27.9976)" fill="white"/>
<rect x="929.952" y="36.7617" width="474.375" height="5.06" transform="rotate(30 929.952 36.7617)" fill="white"/>
<rect x="924.892" y="45.5254" width="474.375" height="5.06" transform="rotate(30 924.892 45.5254)" fill="white"/>
</g>
</g>
<g clip-path="url(#clip7_1535_175797)">
<rect width="325.485" height="269.502" transform="translate(650.032 -246.206)" fill="white"/>
<rect width="474.375" height="521.18" transform="translate(736.032 -460.609) rotate(30)" fill="white"/>
<rect x="609.532" y="-241.504" width="474.375" height="5.06" transform="rotate(30 609.532 -241.504)" fill="black"/>
<rect x="604.472" y="-232.74" width="474.375" height="5.06" transform="rotate(30 604.472 -232.74)" fill="black"/>
<rect x="599.412" y="-223.976" width="474.375" height="5.06" transform="rotate(30 599.412 -223.976)" fill="black"/>
<rect x="594.352" y="-215.212" width="474.375" height="5.06" transform="rotate(30 594.352 -215.212)" fill="black"/>
<rect x="589.292" y="-206.448" width="474.375" height="5.06" transform="rotate(30 589.292 -206.448)" fill="black"/>
<rect x="584.232" y="-197.684" width="474.375" height="5.06" transform="rotate(30 584.232 -197.684)" fill="black"/>
<rect x="579.172" y="-188.919" width="474.375" height="5.06" transform="rotate(30 579.172 -188.919)" fill="black"/>
<rect x="574.112" y="-180.155" width="474.375" height="5.06" transform="rotate(30 574.112 -180.155)" fill="black"/>
<rect x="569.052" y="-171.391" width="474.375" height="5.06" transform="rotate(30 569.052 -171.391)" fill="black"/>
<rect x="563.992" y="-162.627" width="474.375" height="5.06" transform="rotate(30 563.992 -162.627)" fill="black"/>
<rect x="558.932" y="-153.863" width="474.375" height="5.06" transform="rotate(30 558.932 -153.863)" fill="black"/>
<rect x="553.872" y="-145.099" width="474.375" height="5.06" transform="rotate(30 553.872 -145.099)" fill="black"/>
<rect x="548.812" y="-136.334" width="474.375" height="5.06" transform="rotate(30 548.812 -136.334)" fill="black"/>
<rect x="543.752" y="-127.57" width="474.375" height="5.06" transform="rotate(30 543.752 -127.57)" fill="black"/>
<rect x="538.692" y="-118.806" width="474.375" height="5.06" transform="rotate(30 538.692 -118.806)" fill="black"/>
<rect x="533.632" y="-110.042" width="474.375" height="5.06" transform="rotate(30 533.632 -110.042)" fill="black"/>
<rect x="528.572" y="-101.277" width="474.375" height="5.06" transform="rotate(30 528.572 -101.277)" fill="black"/>
<rect x="523.512" y="-92.5137" width="474.375" height="5.06" transform="rotate(30 523.512 -92.5137)" fill="black"/>
<rect x="518.452" y="-83.749" width="474.375" height="5.06" transform="rotate(30 518.452 -83.749)" fill="black"/>
<rect x="513.392" y="-74.9854" width="474.375" height="5.06" transform="rotate(30 513.392 -74.9854)" fill="black"/>
<rect x="508.332" y="-66.2207" width="474.375" height="5.06" transform="rotate(30 508.332 -66.2207)" fill="black"/>
<rect x="503.272" y="-57.4565" width="474.375" height="5.06" transform="rotate(30 503.272 -57.4565)" fill="black"/>
<rect x="498.212" y="-48.6924" width="474.375" height="5.06" transform="rotate(30 498.212 -48.6924)" fill="black"/>
<rect x="493.152" y="-39.9282" width="474.375" height="5.06" transform="rotate(30 493.152 -39.9282)" fill="black"/>
<rect x="488.092" y="-31.1646" width="474.375" height="5.06" transform="rotate(30 488.092 -31.1646)" fill="black"/>
<rect x="483.032" y="-22.3999" width="474.375" height="5.06" transform="rotate(30 483.032 -22.3999)" fill="black"/>
<rect x="477.972" y="-13.6357" width="474.375" height="5.06" transform="rotate(30 477.972 -13.6357)" fill="black"/>
<path fill-rule="evenodd" clip-rule="evenodd" d="M974.908 -246.247H927.831L853.426 -172.611C830.972 -150.389 794.567 -150.389 772.113 -172.611L697.709 -246.247H650.633L748.575 -149.316C784.029 -114.229 841.511 -114.229 876.965 -149.316L974.908 -246.247ZM650.032 23.2958H697.109L772.118 -50.9392C794.572 -73.1615 830.977 -73.1615 853.431 -50.9392L928.441 23.2958H975.517L876.97 -74.2337C841.515 -109.321 784.034 -109.321 748.58 -74.2337L650.032 23.2958Z" fill="white"/>
<mask id="mask6_1535_175797" style="mask-type:alpha" maskUnits="userSpaceOnUse" x="650" y="-247" width="326" height="271">
<path fill-rule="evenodd" clip-rule="evenodd" d="M974.908 -246.247H927.831L853.426 -172.611C830.972 -150.389 794.567 -150.389 772.113 -172.611L697.709 -246.247H650.633L748.575 -149.316C784.029 -114.229 841.511 -114.229 876.965 -149.316L974.908 -246.247ZM650.032 23.2958H697.109L772.118 -50.9392C794.572 -73.1615 830.977 -73.1615 853.431 -50.9392L928.441 23.2958H975.517L876.97 -74.2337C841.515 -109.321 784.034 -109.321 748.58 -74.2337L650.032 23.2958Z" fill="white"/>
</mask>
<g mask="url(#mask6_1535_175797)">
<rect width="474.375" height="521.18" transform="translate(736.032 -460.609) rotate(30)" fill="black"/>
<rect x="609.532" y="-241.504" width="474.375" height="5.06" transform="rotate(30 609.532 -241.504)" fill="white"/>
<rect x="604.472" y="-232.74" width="474.375" height="5.06" transform="rotate(30 604.472 -232.74)" fill="white"/>
<rect x="599.412" y="-223.976" width="474.375" height="5.06" transform="rotate(30 599.412 -223.976)" fill="white"/>
<rect x="594.352" y="-215.212" width="474.375" height="5.06" transform="rotate(30 594.352 -215.212)" fill="white"/>
<rect x="589.292" y="-206.448" width="474.375" height="5.06" transform="rotate(30 589.292 -206.448)" fill="white"/>
<rect x="584.232" y="-197.684" width="474.375" height="5.06" transform="rotate(30 584.232 -197.684)" fill="white"/>
<rect x="579.172" y="-188.919" width="474.375" height="5.06" transform="rotate(30 579.172 -188.919)" fill="white"/>
<rect x="574.112" y="-180.155" width="474.375" height="5.06" transform="rotate(30 574.112 -180.155)" fill="white"/>
<rect x="569.052" y="-171.391" width="474.375" height="5.06" transform="rotate(30 569.052 -171.391)" fill="white"/>
<rect x="563.992" y="-162.627" width="474.375" height="5.06" transform="rotate(30 563.992 -162.627)" fill="white"/>
<rect x="558.932" y="-153.863" width="474.375" height="5.06" transform="rotate(30 558.932 -153.863)" fill="white"/>
<rect x="553.872" y="-145.099" width="474.375" height="5.06" transform="rotate(30 553.872 -145.099)" fill="white"/>
<rect x="548.812" y="-136.334" width="474.375" height="5.06" transform="rotate(30 548.812 -136.334)" fill="white"/>
<rect x="543.752" y="-127.57" width="474.375" height="5.06" transform="rotate(30 543.752 -127.57)" fill="white"/>
<rect x="538.692" y="-118.806" width="474.375" height="5.06" transform="rotate(30 538.692 -118.806)" fill="white"/>
<rect x="533.632" y="-110.042" width="474.375" height="5.06" transform="rotate(30 533.632 -110.042)" fill="white"/>
<rect x="528.572" y="-101.277" width="474.375" height="5.06" transform="rotate(30 528.572 -101.277)" fill="white"/>
<rect x="523.512" y="-92.5137" width="474.375" height="5.06" transform="rotate(30 523.512 -92.5137)" fill="white"/>
<rect x="518.452" y="-83.749" width="474.375" height="5.06" transform="rotate(30 518.452 -83.749)" fill="white"/>
<rect x="513.392" y="-74.9854" width="474.375" height="5.06" transform="rotate(30 513.392 -74.9854)" fill="white"/>
<rect x="508.332" y="-66.2207" width="474.375" height="5.06" transform="rotate(30 508.332 -66.2207)" fill="white"/>
<rect x="503.272" y="-57.4565" width="474.375" height="5.06" transform="rotate(30 503.272 -57.4565)" fill="white"/>
<rect x="498.212" y="-48.6924" width="474.375" height="5.06" transform="rotate(30 498.212 -48.6924)" fill="white"/>
<rect x="493.152" y="-39.9282" width="474.375" height="5.06" transform="rotate(30 493.152 -39.9282)" fill="white"/>
<rect x="488.092" y="-31.1646" width="474.375" height="5.06" transform="rotate(30 488.092 -31.1646)" fill="white"/>
<rect x="483.032" y="-22.3999" width="474.375" height="5.06" transform="rotate(30 483.032 -22.3999)" fill="white"/>
<rect x="477.972" y="-13.6357" width="474.375" height="5.06" transform="rotate(30 477.972 -13.6357)" fill="white"/>
</g>
</g>
<g clip-path="url(#clip8_1535_175797)">
<rect width="325.485" height="269.502" transform="matrix(-1 0 0 1 975.515 23.2954)" fill="white"/>
<rect width="474.375" height="521.18" transform="matrix(-0.866025 0.5 0.5 0.866025 889.516 -191.107)" fill="white"/>
<rect width="474.375" height="5.06" transform="matrix(-0.866025 0.5 0.5 0.866025 889.516 -191.107)" fill="black"/>
<rect width="474.375" height="5.06" transform="matrix(-0.866025 0.5 0.5 0.866025 894.576 -182.343)" fill="black"/>
<rect width="474.375" height="5.06" transform="matrix(-0.866025 0.5 0.5 0.866025 899.636 -173.579)" fill="black"/>
<rect width="474.375" height="5.06" transform="matrix(-0.866025 0.5 0.5 0.866025 904.696 -164.814)" fill="black"/>
<rect width="474.375" height="5.06" transform="matrix(-0.866025 0.5 0.5 0.866025 909.756 -156.05)" fill="black"/>
<rect width="474.375" height="5.06" transform="matrix(-0.866025 0.5 0.5 0.866025 914.816 -147.286)" fill="black"/>
<rect width="474.375" height="5.06" transform="matrix(-0.866025 0.5 0.5 0.866025 919.876 -138.521)" fill="black"/>
<rect width="474.375" height="5.06" transform="matrix(-0.866025 0.5 0.5 0.866025 924.936 -129.758)" fill="black"/>
<rect width="474.375" height="5.06" transform="matrix(-0.866025 0.5 0.5 0.866025 929.996 -120.994)" fill="black"/>
<rect width="474.375" height="5.06" transform="matrix(-0.866025 0.5 0.5 0.866025 935.056 -112.229)" fill="black"/>
<rect width="474.375" height="5.06" transform="matrix(-0.866025 0.5 0.5 0.866025 940.116 -103.465)" fill="black"/>
<rect width="474.375" height="5.06" transform="matrix(-0.866025 0.5 0.5 0.866025 945.176 -94.7007)" fill="black"/>
<rect width="474.375" height="5.06" transform="matrix(-0.866025 0.5 0.5 0.866025 950.236 -85.937)" fill="black"/>
<rect width="474.375" height="5.06" transform="matrix(-0.866025 0.5 0.5 0.866025 955.296 -77.1724)" fill="black"/>
<rect width="474.375" height="5.06" transform="matrix(-0.866025 0.5 0.5 0.866025 960.356 -68.4087)" fill="black"/>
<rect width="474.375" height="5.06" transform="matrix(-0.866025 0.5 0.5 0.866025 965.416 -59.6445)" fill="black"/>
<rect width="474.375" height="5.06" transform="matrix(-0.866025 0.5 0.5 0.866025 970.476 -50.8799)" fill="black"/>
<rect width="474.375" height="5.06" transform="matrix(-0.866025 0.5 0.5 0.866025 975.536 -42.1162)" fill="black"/>
<rect width="474.375" height="5.06" transform="matrix(-0.866025 0.5 0.5 0.866025 980.596 -33.3516)" fill="black"/>
<rect width="474.375" height="5.06" transform="matrix(-0.866025 0.5 0.5 0.866025 985.656 -24.5874)" fill="black"/>
<rect width="474.375" height="5.06" transform="matrix(-0.866025 0.5 0.5 0.866025 990.716 -15.8232)" fill="black"/>
<rect width="474.375" height="5.06" transform="matrix(-0.866025 0.5 0.5 0.866025 995.776 -7.05908)" fill="black"/>
<rect width="474.375" height="5.06" transform="matrix(-0.866025 0.5 0.5 0.866025 1000.84 1.70459)" fill="black"/>
<rect width="474.375" height="5.06" transform="matrix(-0.866025 0.5 0.5 0.866025 1005.9 10.4692)" fill="black"/>
<rect width="474.375" height="5.06" transform="matrix(-0.866025 0.5 0.5 0.866025 1010.96 19.2334)" fill="black"/>
<rect width="474.375" height="5.06" transform="matrix(-0.866025 0.5 0.5 0.866025 1016.02 27.9976)" fill="black"/>
<rect width="474.375" height="5.06" transform="matrix(-0.866025 0.5 0.5 0.866025 1021.08 36.7617)" fill="black"/>
<rect width="474.375" height="5.06" transform="matrix(-0.866025 0.5 0.5 0.866025 1026.14 45.5254)" fill="black"/>
<path fill-rule="evenodd" clip-rule="evenodd" d="M650.64 23.2544H697.717L772.121 96.8901C794.576 119.112 830.98 119.112 853.434 96.8901L927.839 23.2544H974.915L876.973 120.185C841.519 155.273 784.037 155.273 748.582 120.185L650.64 23.2544ZM975.515 292.797H928.439L853.43 218.562C830.976 196.34 794.571 196.34 772.117 218.562L697.107 292.797H650.03L748.578 195.268C784.032 160.18 841.514 160.18 876.968 195.268L975.515 292.797Z" fill="white"/>
<mask id="mask7_1535_175797" style="mask-type:alpha" maskUnits="userSpaceOnUse" x="650" y="23" width="326" height="270">
<path fill-rule="evenodd" clip-rule="evenodd" d="M650.64 23.2544H697.717L772.121 96.8901C794.576 119.112 830.98 119.112 853.434 96.8901L927.839 23.2544H974.915L876.973 120.185C841.519 155.273 784.037 155.273 748.582 120.185L650.64 23.2544ZM975.515 292.797H928.439L853.43 218.562C830.976 196.34 794.571 196.34 772.117 218.562L697.107 292.797H650.03L748.578 195.268C784.032 160.18 841.514 160.18 876.968 195.268L975.515 292.797Z" fill="white"/>
</mask>
<g mask="url(#mask7_1535_175797)">
<rect width="474.375" height="521.18" transform="matrix(-0.866025 0.5 0.5 0.866025 889.516 -191.107)" fill="black"/>
<rect width="474.375" height="5.06" transform="matrix(-0.866025 0.5 0.5 0.866025 889.516 -191.107)" fill="white"/>
<rect width="474.375" height="5.06" transform="matrix(-0.866025 0.5 0.5 0.866025 894.576 -182.343)" fill="white"/>
<rect width="474.375" height="5.06" transform="matrix(-0.866025 0.5 0.5 0.866025 899.636 -173.579)" fill="white"/>
<rect width="474.375" height="5.06" transform="matrix(-0.866025 0.5 0.5 0.866025 904.696 -164.814)" fill="white"/>
<rect width="474.375" height="5.06" transform="matrix(-0.866025 0.5 0.5 0.866025 909.756 -156.05)" fill="white"/>
<rect width="474.375" height="5.06" transform="matrix(-0.866025 0.5 0.5 0.866025 914.816 -147.286)" fill="white"/>
<rect width="474.375" height="5.06" transform="matrix(-0.866025 0.5 0.5 0.866025 919.876 -138.521)" fill="white"/>
<rect width="474.375" height="5.06" transform="matrix(-0.866025 0.5 0.5 0.866025 924.936 -129.758)" fill="white"/>
<rect width="474.375" height="5.06" transform="matrix(-0.866025 0.5 0.5 0.866025 929.996 -120.994)" fill="white"/>
<rect width="474.375" height="5.06" transform="matrix(-0.866025 0.5 0.5 0.866025 935.056 -112.229)" fill="white"/>
<rect width="474.375" height="5.06" transform="matrix(-0.866025 0.5 0.5 0.866025 940.116 -103.465)" fill="white"/>
<rect width="474.375" height="5.06" transform="matrix(-0.866025 0.5 0.5 0.866025 945.176 -94.7007)" fill="white"/>
<rect width="474.375" height="5.06" transform="matrix(-0.866025 0.5 0.5 0.866025 950.236 -85.937)" fill="white"/>
<rect width="474.375" height="5.06" transform="matrix(-0.866025 0.5 0.5 0.866025 955.296 -77.1724)" fill="white"/>
<rect width="474.375" height="5.06" transform="matrix(-0.866025 0.5 0.5 0.866025 960.356 -68.4087)" fill="white"/>
<rect width="474.375" height="5.06" transform="matrix(-0.866025 0.5 0.5 0.866025 965.416 -59.6445)" fill="white"/>
<rect width="474.375" height="5.06" transform="matrix(-0.866025 0.5 0.5 0.866025 970.476 -50.8799)" fill="white"/>
<rect width="474.375" height="5.06" transform="matrix(-0.866025 0.5 0.5 0.866025 975.536 -42.1162)" fill="white"/>
<rect width="474.375" height="5.06" transform="matrix(-0.866025 0.5 0.5 0.866025 980.596 -33.3516)" fill="white"/>
<rect width="474.375" height="5.06" transform="matrix(-0.866025 0.5 0.5 0.866025 985.656 -24.5874)" fill="white"/>
<rect width="474.375" height="5.06" transform="matrix(-0.866025 0.5 0.5 0.866025 990.716 -15.8232)" fill="white"/>
<rect width="474.375" height="5.06" transform="matrix(-0.866025 0.5 0.5 0.866025 995.776 -7.05908)" fill="white"/>
<rect width="474.375" height="5.06" transform="matrix(-0.866025 0.5 0.5 0.866025 1000.84 1.70459)" fill="white"/>
<rect width="474.375" height="5.06" transform="matrix(-0.866025 0.5 0.5 0.866025 1005.9 10.4692)" fill="white"/>
<rect width="474.375" height="5.06" transform="matrix(-0.866025 0.5 0.5 0.866025 1010.96 19.2334)" fill="white"/>
<rect width="474.375" height="5.06" transform="matrix(-0.866025 0.5 0.5 0.866025 1016.02 27.9976)" fill="white"/>
<rect width="474.375" height="5.06" transform="matrix(-0.866025 0.5 0.5 0.866025 1021.08 36.7617)" fill="white"/>
<rect width="474.375" height="5.06" transform="matrix(-0.866025 0.5 0.5 0.866025 1026.14 45.5254)" fill="white"/>
</g>
</g>
</g>
</g>
<defs>
<clipPath id="clip0_1535_175797">
<rect width="1024" height="46" fill="white"/>
</clipPath>
<clipPath id="clip1_1535_175797">
<rect width="325.485" height="269.502" fill="white" transform="matrix(-1 0 0 1 650.968 -246.206)"/>
</clipPath>
<clipPath id="clip2_1535_175797">
<rect width="325.485" height="269.502" fill="white" transform="translate(325.485 23.2954)"/>
</clipPath>
<clipPath id="clip3_1535_175797">
<rect width="325.485" height="269.502" fill="white" transform="translate(0.00241089 -246.206)"/>
</clipPath>
<clipPath id="clip4_1535_175797">
<rect width="325.485" height="269.502" fill="white" transform="matrix(-1 0 0 1 325.486 23.2954)"/>
</clipPath>
<clipPath id="clip5_1535_175797">
<rect width="325.485" height="269.502" fill="white" transform="matrix(-1 0 0 1 1301 -246.206)"/>
</clipPath>
<clipPath id="clip6_1535_175797">
<rect width="325.485" height="269.502" fill="white" transform="translate(975.512 23.2959)"/>
</clipPath>
<clipPath id="clip7_1535_175797">
<rect width="325.485" height="269.502" fill="white" transform="translate(650.032 -246.206)"/>
</clipPath>
<clipPath id="clip8_1535_175797">
<rect width="325.485" height="269.502" fill="white" transform="matrix(-1 0 0 1 975.515 23.2954)"/>
</clipPath>
</defs>
</svg>
