<?xml version="1.0" encoding="UTF-8" standalone="no"?>
<svg
   width="126"
   height="35"
   viewBox="0 0 126 35"
   fill="none"
   version="1.1"
   id="svg51"
   sodipodi:docname="cex-io.svg"
   inkscape:version="1.1 (c4e8f9ed74, 2021-05-24)"
   xmlns:inkscape="http://www.inkscape.org/namespaces/inkscape"
   xmlns:sodipodi="http://sodipodi.sourceforge.net/DTD/sodipodi-0.dtd"
   xmlns="http://www.w3.org/2000/svg"
   xmlns:svg="http://www.w3.org/2000/svg">
  <sodipodi:namedview
     id="namedview53"
     pagecolor="#ffffff"
     bordercolor="#666666"
     borderopacity="1.0"
     inkscape:pageshadow="2"
     inkscape:pageopacity="0.0"
     inkscape:pagecheckerboard="0"
     showgrid="false"
     inkscape:zoom="7.0654559"
     inkscape:cx="63.053256"
     inkscape:cy="17.550177"
     inkscape:window-width="1920"
     inkscape:window-height="1053"
     inkscape:window-x="1080"
     inkscape:window-y="840"
     inkscape:window-maximized="1"
     inkscape:current-layer="svg51" />
  <path
     d="M34.9863 0H17.4657C12.8109 0 8.4033 1.82621 5.10789 5.12162C1.81248 8.41703 0 12.8246 0 17.4931C0 22.1754 1.81248 26.5692 5.10789 29.8647C8.4033 33.1738 12.8109 35 17.4931 35C17.603 35 17.7128 34.9863 17.8227 34.9863H34.9863V30.6199H17.4657C13.9918 30.6199 10.6826 29.2468 8.21106 26.7752C5.73951 24.3036 4.39388 21.0082 4.39388 17.4931C4.39388 13.978 5.75324 10.6826 8.22479 8.21106C10.6964 5.73951 13.9918 4.38015 17.5069 4.38015C17.6167 4.38015 17.7128 4.36642 17.8089 4.36642H35V0H34.9863Z"
     fill="url(#paint0_linear)"
     id="path2" />
  <path
     d="M23.0679 7.66187H17.4932C17.3696 7.66187 17.246 7.6756 17.1224 7.68933C11.8772 7.88156 7.66187 12.2205 7.66187 17.5206C7.66187 22.9443 12.0695 27.3657 17.4932 27.3657H22.9306L27.3382 22.9855H17.4932C14.4861 22.9855 12.042 20.5414 12.042 17.5344C12.042 14.5273 14.4861 12.0832 17.4932 12.0832C17.603 12.0832 17.7129 12.0557 17.809 12.0557H27.4206L23.0679 7.66187Z"
     fill="url(#paint1_linear)"
     id="path4" />
  <path
     d="M34.9859 7.66187H27.4065L31.7592 12.042H34.9859V7.66187Z"
     fill="url(#paint2_linear)"
     id="path6" />
  <path
     d="M34.9864 22.9722H31.7047L27.2971 27.3523H34.9864V22.9722Z"
     fill="url(#paint3_linear)"
     id="path8" />
  <path
     d="M15.2959 17.5083C15.2959 18.7166 16.2708 19.7052 17.4928 19.7052H30.6196L32.8302 17.5083L30.6607 15.3251H17.4928C16.2708 15.3114 15.2959 16.3 15.2959 17.5083Z"
     fill="url(#paint4_linear)"
     id="path10" />
  <path
     d="M61.0611 24.648C59.0839 26.6115 56.4613 27.6001 53.8799 27.6001C47.2341 27.6001 43.774 22.9453 43.7465 17.6315C43.6916 12.3588 47.1243 7.42944 53.8799 7.42944C56.475 7.42944 59.0839 8.41807 61.0611 10.3816L60.0176 11.2878C58.3287 9.59892 56.1043 8.77507 53.8799 8.77507C48.1404 8.77507 45.1745 12.8257 45.202 17.5628C45.2569 22.1901 48.1816 26.1858 53.8799 26.1858C56.1043 26.1858 58.3562 25.3345 60.045 23.6731L61.0611 24.648Z"
     fill="white"
     id="path12"
     style="fill:#000000" />
  <path
     d="M64.9604 16.7792H76.5081V18.166H64.9604V25.8965H77.4143V27.3519H63.4363V7.66187H77.6889V9.11734H64.9604V16.7792Z"
     fill="white"
     id="path14"
     style="fill:#000000" />
  <path
     d="M92.9029 7.66412H94.5231V7.70531L87.8362 17.262L95.0861 27.3542V27.3679H93.2736L86.9162 18.3467L80.5588 27.3679H78.7463V27.3542L85.9962 17.262L79.2956 7.69158V7.65039H80.9433L86.9162 16.0812L92.9029 7.66412Z"
     fill="white"
     id="path16"
     style="fill:#000000" />
  <path
     d="M101.759 27.3794V7.66187H103.215V27.3657H101.759V27.3794Z"
     fill="white"
     id="path18"
     style="fill:#000000" />
  <path
     d="M125.857 17.5358C125.829 22.7261 122.534 27.7104 115.916 27.7104C109.297 27.7104 105.975 22.6986 105.975 17.4809C105.975 12.1807 109.27 7.33374 115.916 7.33374C122.562 7.33374 125.884 12.2082 125.857 17.5358ZM107.471 17.5083C107.499 21.9571 110.314 26.2961 115.916 26.2961C121.545 26.2961 124.388 21.9571 124.388 17.5083C124.388 12.9497 121.573 8.74802 115.916 8.74802C110.259 8.73429 107.444 12.8536 107.471 17.5083Z"
     fill="white"
     id="path20"
     style="fill:#000000" />
  <path
     d="M96.2534 16.4392C96.8439 16.4392 97.3382 16.9198 97.3382 17.5239C97.3382 18.1144 96.8576 18.6087 96.2534 18.6087C95.663 18.6087 95.1687 18.1281 95.1687 17.5239C95.1687 16.9198 95.6493 16.4392 96.2534 16.4392Z"
     fill="white"
     id="path22"
     style="fill:#000000" />
  <defs
     id="defs49">
    <linearGradient
       id="paint0_linear"
       x1="7.6714"
       y1="32.4439"
       x2="37.5525"
       y2="2.5628"
       gradientUnits="userSpaceOnUse">
      <stop
         stop-color="#24BDC5"
         id="stop24" />
      <stop
         offset="1"
         stop-color="#23BBB2"
         id="stop26" />
    </linearGradient>
    <linearGradient
       id="paint1_linear"
       x1="10.8871"
       y1="24.8156"
       x2="25.5548"
       y2="10.1479"
       gradientUnits="userSpaceOnUse">
      <stop
         stop-color="#24BDC5"
         id="stop29" />
      <stop
         offset="1"
         stop-color="#23BBB2"
         id="stop31" />
    </linearGradient>
    <linearGradient
       id="paint2_linear"
       x1="30.3818"
       y1="10.6624"
       x2="34.1884"
       y2="6.85579"
       gradientUnits="userSpaceOnUse">
      <stop
         stop-color="#24BDC5"
         id="stop34" />
      <stop
         offset="1"
         stop-color="#23BBB2"
         id="stop36" />
    </linearGradient>
    <linearGradient
       id="paint3_linear"
       x1="29.2237"
       y1="29.275"
       x2="35.2594"
       y2="23.2393"
       gradientUnits="userSpaceOnUse">
      <stop
         stop-color="#24BDC5"
         id="stop39" />
      <stop
         offset="1"
         stop-color="#23BBB2"
         id="stop41" />
    </linearGradient>
    <linearGradient
       id="paint4_linear"
       x1="18.9949"
       y1="22.1141"
       x2="28.2226"
       y2="12.8864"
       gradientUnits="userSpaceOnUse">
      <stop
         stop-color="#24BDC5"
         id="stop44" />
      <stop
         offset="1"
         stop-color="#23BBB2"
         id="stop46" />
    </linearGradient>
  </defs>
</svg>
