<svg version="1.1" viewBox="0.0 0.0 685.5853018372703 228.2257217847769" fill="none" stroke="none" stroke-linecap="square" stroke-miterlimit="10" xmlns:xlink="http://www.w3.org/1999/xlink" xmlns="http://www.w3.org/2000/svg"><clipPath id="p.0"><path d="m0 0l685.5853 0l0 228.22572l-685.5853 0l0 -228.22572z" clip-rule="nonzero"/></clipPath><g clip-path="url(#p.0)"><path fill="#000000" fill-opacity="0.0" d="m0 0l685.5853 0l0 228.22572l-685.5853 0z" fill-rule="evenodd"/><path fill="#e6e7e8" d="m24.181627 23.54593l350.39368 0l0 181.25984l-350.39368 0z" fill-rule="evenodd"/><path stroke="#23282f" stroke-width="1.0" stroke-linejoin="round" stroke-linecap="butt" d="m24.181627 23.54593l350.39368 0l0 181.25984l-350.39368 0z" fill-rule="evenodd"/><defs><linearGradient id="p.1" gradientUnits="userSpaceOnUse" gradientTransform="matrix(8.533964823587933 0.0 0.0 8.533964823587933 0.0 0.0)" spreadMethod="pad" x1="31.27430799649545" y1="14.168498505356316" x2="39.80827282008338" y2="14.168498505356316"><stop offset="0.0" stop-color="#29a1da"/><stop offset="0.45" stop-color="#29a1da"/><stop offset="0.56" stop-color="#2789b9"/><stop offset="1.0" stop-color="#2789b9"/></linearGradient></defs><path fill="url(#p.1)" d="m339.7224 100.48758l0 0c0 8.375252 0 8.375252 0 8.375252c0 0.23086548 -0.23065186 0.46190643 -0.93048096 0.7004547c-33.737854 11.176903 -33.737854 11.176903 -33.737854 11.176903c-0.93048096 0.23103333 -2.5541382 0.23103333 -3.715271 0c-33.745117 -11.176903 -33.745117 -11.176903 -33.745117 -11.176903c-0.2312622 0 -0.46191406 -0.23854828 -0.46191406 -0.23854828c-0.23791504 -0.23104095 -0.23791504 -0.23104095 -0.23791504 -0.46190643c0 -8.375252 0 -8.375252 0 -8.375252l72.82855 0" fill-rule="evenodd"/><defs><linearGradient id="p.2" gradientUnits="userSpaceOnUse" gradientTransform="matrix(8.530440417461676 0.0 0.0 8.530440417461676 0.0 0.0)" spreadMethod="pad" x1="39.81784747376264" y1="10.365965711421858" x2="31.287407056529908" y2="10.365903213302552"><stop offset="0.0" stop-color="#6bc1ec"/><stop offset="1.0" stop-color="#8ad6f4"/></linearGradient></defs><path fill="url(#p.2)" d="m305.05438 112.33511l0 0c33.738342 -11.164139 33.738342 -11.164139 33.738342 -11.164139c1.1611633 -0.46916962 1.1611633 -0.9308777 0 -1.4000549c-33.738342 -11.1716 -33.738342 -11.1716 -33.738342 -11.1716c-0.9309082 -0.23075867 -2.7847595 -0.23075867 -3.7156372 0c-33.745667 11.1716 -33.745667 11.1716 -33.745667 11.1716c-0.93029785 0.46917725 -0.93029785 0.9308853 0 1.4000549c33.745667 11.164139 33.745667 11.164139 33.745667 11.164139c1.1617737 0.23095703 2.784729 0.23095703 3.7156372 0" fill-rule="evenodd"/><defs><linearGradient id="p.3" gradientUnits="userSpaceOnUse" gradientTransform="matrix(8.533964823587933 0.0 0.0 8.533964823587933 0.0 0.0)" spreadMethod="pad" x1="31.272003729425307" y1="12.734181157094092" x2="39.80596855301324" y2="12.734181157094092"><stop offset="0.0" stop-color="#dbdcdd"/><stop offset="0.41" stop-color="#dbdcdd"/><stop offset="0.6" stop-color="#b1b3b5"/><stop offset="1.0" stop-color="#b1b3b5"/></linearGradient></defs><path fill="url(#p.3)" d="m339.70273 88.24717l0 0c0 8.375244 0 8.375244 0 8.375244c0 0.23087311 -0.23065186 0.46190643 -0.93048096 0.70046234c-33.737854 11.176895 -33.737854 11.176895 -33.737854 11.176895c-0.93048096 0.23104095 -2.5541077 0.23104095 -3.7152405 0c-33.745148 -11.176895 -33.745148 -11.176895 -33.745148 -11.176895c-0.23123169 0 -0.46188354 -0.23855591 -0.46188354 -0.23855591c-0.23794556 -0.23103333 -0.23794556 -0.23103333 -0.23794556 -0.46190643c0 -8.375244 0 -8.375244 0 -8.375244l72.82855 0" fill-rule="evenodd"/><defs><linearGradient id="p.4" gradientUnits="userSpaceOnUse" gradientTransform="matrix(8.275455964231186 0.0 0.0 8.275455964231186 0.0 0.0)" spreadMethod="pad" x1="42.4955719781567" y1="10.661297216470595" x2="36.643996080620504" y2="4.8096110550891575"><stop offset="0.0" stop-color="#e6e7e8"/><stop offset="1.0" stop-color="#ffffff"/></linearGradient></defs><path fill="url(#p.4)" d="m305.02002 100.0947l0 0c33.73831 -11.164139 33.73831 -11.164139 33.73831 -11.164139c1.1611938 -0.46917725 1.1611938 -0.9308853 0 -1.4000549c-33.73831 -11.171608 -33.73831 -11.171608 -33.73831 -11.171608c-0.9309082 -0.23075104 -2.7847595 -0.23075104 -3.7156677 0c-33.745667 11.171608 -33.745667 11.171608 -33.745667 11.171608c-0.93026733 0.46916962 -0.93026733 0.9308777 0 1.4000549c33.745667 11.164139 33.745667 11.164139 33.745667 11.164139c1.1618042 0.23095703 2.7847595 0.23095703 3.7156677 0" fill-rule="evenodd"/><path fill="#23292f" d="m283.85934 57.14593l11.737305 11.986744l0.400177 0.3929901l0.41915894 0.37326813l0.43829346 0.3341446l0.45724487 0.3144226l0.45739746 0.29470062l0.45724487 0.27513885l0.4763794 0.23586273l0.4953308 0.21613312l0.4954834 0.19641876l0.49536133 0.1572876l0.51446533 0.13757324l0.5144348 0.11784363l0.51446533 0.09828949l0.51446533 0.05884552l0.53359985 0.039283752l1.0287476 0l0.53359985 -0.039283752l0.51446533 -0.05884552l0.5144348 -0.09828949l0.51446533 -0.11784363l0.51446533 -0.13757324l0.4953308 -0.1572876l0.49551392 -0.19641876l0.47634888 -0.21613312l0.49536133 -0.23586273l0.45739746 -0.27513885l0.45724487 -0.29470062l0.45724487 -0.3144226l0.43829346 -0.3341446l0.41912842 -0.37326813l0.40020752 -0.3929901l11.737305 -11.986744l-5.640106 0l-8.917175 9.098087l-0.26678467 0.25541687l-0.2668152 0.2358551l-0.26678467 0.21614075l-0.2857666 0.19657135l-0.28573608 0.19641876l-0.30490112 0.1572876l-0.3048706 0.15713501l-0.30490112 0.13756561l-0.3048706 0.11785126l-0.32385254 0.09828949l-0.32400513 0.09828949l-0.32385254 0.078559875l-0.32400513 0.059005737l-0.32385254 0.039283752l-0.34298706 0.019561768l-0.64785767 0l-0.34295654 -0.019561768l-0.32385254 -0.039283752l-0.32400513 -0.059005737l-0.32385254 -0.078559875l-0.32400513 -0.09828949l-0.32385254 -0.09828949l-0.3048706 -0.11785126l-0.30490112 -0.13756561l-0.3048706 -0.15713501l-0.30490112 -0.1572876l-0.28573608 -0.19641876l-0.2857666 -0.19657135l-0.26678467 -0.21614075l-0.2668152 -0.2358551l-0.26678467 -0.25541687l-8.917175 -9.098087z" fill-rule="evenodd"/><path fill="#23292f" d="m302.78015 75.165245l-0.53359985 0.039283752l-0.51446533 0.07872772l-0.51446533 0.078567505l-0.5144348 0.11784363l-0.51446533 0.13757324l-0.49536133 0.1572876l-0.4954834 0.19641876l-0.4953308 0.21613312l-0.4763794 0.23586273l-0.45724487 0.27513885l-0.45739746 0.29470062l-0.45724487 0.3144226l-0.43829346 0.35370636l-0.41915894 0.35370636l-0.400177 0.3929901l-11.813477 12.065308l5.6399536 0l8.9935 -9.176651l0.26678467 -0.2555771l0.2668152 -0.23569489l0.26678467 -0.21614075l0.2857666 -0.19657135l0.28573608 -0.176857l0.30490112 -0.17684937l0.3048706 -0.15713501l0.30490112 -0.13756561l0.3048706 -0.118011475l0.32385254 -0.09812927l0.32400513 -0.09828949l0.32385254 -0.058998108l0.32400513 -0.05884552l0.32385254 -0.03944397l0.34295654 -0.039283752l0.64785767 0l0.34298706 0.039283752l0.32385254 0.03944397l0.32400513 0.05884552l0.32385254 0.058998108l0.32400513 0.09828949l0.32385254 0.09812927l0.3048706 0.118011475l0.30490112 0.13756561l0.3048706 0.15713501l0.30490112 0.17684937l0.28573608 0.176857l0.2857666 0.19657135l0.26678467 0.21614075l0.2668152 0.23569489l0.26678467 0.2555771l8.9935 9.176651l5.6399536 0l-11.813477 -12.065308l-0.40020752 -0.3929901l-0.41912842 -0.35370636l-0.43829346 -0.35370636l-0.45724487 -0.3144226l-0.45724487 -0.29470062l-0.45739746 -0.27513885l-0.4763794 -0.23586273l-0.4953308 -0.21613312l-0.49551392 -0.19641876l-0.4953308 -0.1572876l-0.51446533 -0.13757324l-0.51446533 -0.11784363l-0.5144348 -0.078567505l-0.51446533 -0.07872772l-0.53359985 -0.039283752z" fill-rule="evenodd"/><path fill="#ff00ff" d="m52.27034 54.46982l88.99475 0l0 84.46719l-88.99475 0z" fill-rule="evenodd"/><path fill="#000000" fill-opacity="0.0" d="m63.394684 54.46982l0 84.46719m66.74606 -84.46719l0 84.46719" fill-rule="evenodd"/><path fill="#000000" fill-opacity="0.0" d="m52.27034 54.46982l88.99475 0l0 84.46719l-88.99475 0z" fill-rule="evenodd"/><path stroke="#23282f" stroke-width="1.0" stroke-linejoin="round" stroke-linecap="butt" d="m63.394684 54.46982l0 84.46719m66.74606 -84.46719l0 84.46719" fill-rule="evenodd"/><path stroke="#23282f" stroke-width="1.0" stroke-linejoin="round" stroke-linecap="butt" d="m52.27034 54.46982l88.99475 0l0 84.46719l-88.99475 0z" fill-rule="evenodd"/><path fill="#000000" d="m77.97281 86.01404l3.46875 -6.65625l1.984375 0l-4.578125 8.3125l0 4.953125l-1.75 0l0 -4.953125l-4.5625 -8.3125l2.0 0l3.4375 6.65625zm5.8622284 1.59375q0 -1.453125 0.5625 -2.609375q0.578125 -1.15625 1.59375 -1.78125q1.015625 -0.625 2.3125 -0.625q2.015625 0 3.25 1.390625q1.25 1.390625 1.25 3.703125l0 0.125q0 1.4375 -0.546875 2.578125q-0.546875 1.140625 -1.578125 1.78125q-1.015625 0.640625 -2.359375 0.640625q-2.0 0 -3.25 -1.390625q-1.234375 -1.40625 -1.234375 -3.703125l0 -0.109375zm1.6875 0.203125q0 1.640625 0.765625 2.640625q0.765625 0.984375 2.03125 0.984375q1.296875 0 2.046875 -1.0q0.75 -1.015625 0.75 -2.828125q0 -1.625 -0.765625 -2.625q-0.765625 -1.015625 -2.046875 -1.015625q-1.25 0 -2.015625 1.0q-0.765625 0.984375 -0.765625 2.84375zm15.483643 3.84375q-0.984375 1.15625 -2.890625 1.15625q-1.578125 0 -2.40625 -0.921875q-0.8125 -0.921875 -0.828125 -2.703125l0 -6.421875l1.6875 0l0 6.375q0 2.234375 1.828125 2.234375q1.921875 0 2.5625 -1.4375l0 -7.171875l1.6875 0l0 9.859375l-1.609375 0l-0.03125 -0.96875zm8.972122 -7.375q-0.390625 -0.0625 -0.84375 -0.0625q-1.65625 0 -2.25 1.40625l0 7.0l-1.671875 0l0 -9.859375l1.640625 0l0.015625 1.140625q0.828125 -1.3125 2.359375 -1.3125q0.484375 0 0.75 0.125l0 1.5625z" fill-rule="nonzero"/><path fill="#000000" d="m77.62906 113.43591q0.890625 0 1.5625 -0.546875q0.6875 -0.546875 0.75 -1.375l1.59375 0q-0.046875 0.84375 -0.578125 1.609375q-0.53125 0.765625 -1.4375 1.234375q-0.890625 0.453125 -1.890625 0.453125q-2.015625 0 -3.203125 -1.34375q-1.1875 -1.34375 -1.1875 -3.6875l0 -0.28125q0 -1.4375 0.515625 -2.546875q0.53125 -1.125 1.515625 -1.734375q1.0 -0.625 2.34375 -0.625q1.65625 0 2.75 1.0q1.109375 0.984375 1.171875 2.5625l-1.59375 0q-0.0625 -0.953125 -0.71875 -1.5625q-0.65625 -0.625 -1.609375 -0.625q-1.28125 0 -2.0 0.921875q-0.703125 0.921875 -0.703125 2.671875l0 0.328125q0 1.703125 0.703125 2.625q0.703125 0.921875 2.015625 0.921875zm5.359131 -3.828125q0 -1.453125 0.5625 -2.609375q0.578125 -1.15625 1.59375 -1.78125q1.015625 -0.625 2.3125 -0.625q2.015625 0 3.25 1.390625q1.25 1.390625 1.25 3.703125l0 0.125q0 1.4375 -0.546875 2.578125q-0.546875 1.140625 -1.578125 1.78125q-1.015625 0.640625 -2.359375 0.640625q-2.0 0 -3.25 -1.390625q-1.234375 -1.40625 -1.234375 -3.703125l0 -0.109375zm1.6875 0.203125q0 1.640625 0.765625 2.640625q0.765625 0.984375 2.03125 0.984375q1.296875 0 2.046875 -1.0q0.75 -1.015625 0.75 -2.828125q0 -1.625 -0.765625 -2.625q-0.765625 -1.015625 -2.046875 -1.015625q-1.25 0 -2.015625 1.0q-0.765625 0.984375 -0.765625 2.84375zm8.983643 -0.203125q0 -2.265625 1.078125 -3.640625q1.078125 -1.375 2.8125 -1.375q1.734375 0 2.75 1.171875l0 -5.140625l1.6875 0l0 14.0l-1.546875 0l-0.09375 -1.0625q-1.0 1.25 -2.8125 1.25q-1.703125 0 -2.796875 -1.40625q-1.078125 -1.40625 -1.078125 -3.65625l0 -0.140625zm1.6875 0.203125q0 1.671875 0.6875 2.625q0.703125 0.9375 1.921875 0.9375q1.609375 0 2.34375 -1.4375l0 -4.53125q-0.765625 -1.390625 -2.328125 -1.390625q-1.234375 0 -1.9375 0.953125q-0.6875 0.953125 -0.6875 2.84375zm13.333969 5.0q-2.0 0 -3.265625 -1.3125q-1.25 -1.328125 -1.25 -3.53125l0 -0.3125q0 -1.46875 0.5625 -2.609375q0.5625 -1.15625 1.5625 -1.796875q1.015625 -0.65625 2.1875 -0.65625q1.921875 0 2.984375 1.265625q1.0625 1.265625 1.0625 3.625l0 0.6875l-6.671875 0q0.03125 1.46875 0.84375 2.375q0.828125 0.890625 2.078125 0.890625q0.890625 0 1.515625 -0.359375q0.625 -0.375 1.078125 -0.96875l1.03125 0.796875q-1.234375 1.90625 -3.71875 1.90625zm-0.203125 -8.84375q-1.015625 0 -1.71875 0.75q-0.6875 0.734375 -0.84375 2.078125l4.9375 0l0 -0.125q-0.078125 -1.28125 -0.703125 -1.984375q-0.609375 -0.71875 -1.671875 -0.71875z" fill-rule="nonzero"/><path fill="#000000" fill-opacity="0.0" d="m247.86163 117.939255l110.86615 0l0 33.95276l-110.86615 0z" fill-rule="evenodd"/><path fill="#000000" d="m263.97452 132.47363q0.46875 0 0.84375 0.078125l-0.140625 1.0q-0.453125 -0.09375 -0.78125 -0.09375q-0.875 0 -1.5 0.703125q-0.609375 0.703125 -0.609375 1.75l0 3.828125l-1.078125 0l0 -7.125l0.890625 0l0.125 1.3125l0.0625 0q0.390625 -0.703125 0.953125 -1.078125q0.5625 -0.375 1.234375 -0.375zm3.2530823 7.265625l-1.078125 0l0 -7.125l1.078125 0l0 7.125zm-1.171875 -9.0625q0 -0.375 0.1875 -0.546875q0.1875 -0.171875 0.453125 -0.171875q0.265625 0 0.453125 0.171875q0.1875 0.171875 0.1875 0.546875q0 0.359375 -0.1875 0.546875q-0.1875 0.171875 -0.453125 0.171875q-0.265625 0 -0.453125 -0.171875q-0.1875 -0.1875 -0.1875 -0.546875zm6.7929688 9.1875q-0.703125 0 -1.28125 -0.25q-0.578125 -0.265625 -0.96875 -0.796875l-0.078125 0q0.078125 0.625 0.078125 1.1875l0 2.9375l-1.078125 0l0 -10.328125l0.890625 0l0.140625 0.96875l0.046875 0q0.421875 -0.578125 0.96875 -0.84375q0.5625 -0.265625 1.28125 -0.265625q1.421875 0 2.1875 0.96875q0.765625 0.96875 0.765625 2.71875q0 1.765625 -0.78125 2.734375q-0.78125 0.96875 -2.171875 0.96875zm-0.15625 -6.46875q-1.09375 0 -1.59375 0.609375q-0.484375 0.59375 -0.5 1.921875l0 0.234375q0 1.515625 0.5 2.15625q0.515625 0.640625 1.609375 0.640625q0.9375 0 1.453125 -0.734375q0.53125 -0.75 0.53125 -2.0625q0 -1.34375 -0.53125 -2.046875q-0.515625 -0.71875 -1.46875 -0.71875zm8.323639 6.46875q-0.703125 0 -1.28125 -0.25q-0.578125 -0.265625 -0.96875 -0.796875l-0.078125 0q0.078125 0.625 0.078125 1.1875l0 2.9375l-1.078125 0l0 -10.328125l0.890625 0l0.140625 0.96875l0.046875 0q0.421875 -0.578125 0.96875 -0.84375q0.5625 -0.265625 1.28125 -0.265625q1.421875 0 2.1875 0.96875q0.765625 0.96875 0.765625 2.71875q0 1.765625 -0.78125 2.734375q-0.78125 0.96875 -2.171875 0.96875zm-0.15625 -6.46875q-1.09375 0 -1.59375 0.609375q-0.484375 0.59375 -0.5 1.921875l0 0.234375q0 1.515625 0.5 2.15625q0.515625 0.640625 1.609375 0.640625q0.9375 0 1.453125 -0.734375q0.53125 -0.75 0.53125 -2.0625q0 -1.34375 -0.53125 -2.046875q-0.515625 -0.71875 -1.46875 -0.71875zm6.073639 6.34375l-1.078125 0l0 -10.125l1.078125 0l0 10.125zm5.308563 0.125q-1.578125 0 -2.5 -0.953125q-0.90625 -0.96875 -0.90625 -2.671875q0 -1.734375 0.84375 -2.75q0.859375 -1.015625 2.28125 -1.015625q1.34375 0 2.125 0.890625q0.78125 0.875 0.78125 2.328125l0 0.671875l-4.90625 0q0.03125 1.265625 0.625 1.921875q0.609375 0.640625 1.703125 0.640625q1.140625 0 2.265625 -0.484375l0 0.96875q-0.5625 0.25 -1.078125 0.34375q-0.515625 0.109375 -1.234375 0.109375zm-0.296875 -6.484375q-0.859375 0 -1.375 0.5625q-0.5 0.5625 -0.59375 1.546875l3.734375 0q0 -1.015625 -0.453125 -1.5625q-0.453125 -0.546875 -1.3125 -0.546875zm9.618195 5.40625l-0.0625 0q-0.75 1.078125 -2.234375 1.078125q-1.40625 0 -2.1875 -0.953125q-0.765625 -0.953125 -0.765625 -2.71875q0 -1.765625 0.78125 -2.734375q0.78125 -0.984375 2.171875 -0.984375q1.453125 0 2.21875 1.0625l0.09375 0l-0.046875 -0.515625l-0.03125 -0.5l0 -2.90625l1.078125 0l0 10.125l-0.875 0l-0.140625 -0.953125zm-2.15625 0.171875q1.109375 0 1.59375 -0.59375q0.5 -0.609375 0.5 -1.9375l0 -0.234375q0 -1.515625 -0.5 -2.15625q-0.5 -0.65625 -1.609375 -0.65625q-0.953125 0 -1.453125 0.75q-0.5 0.734375 -0.5 2.078125q0 1.359375 0.5 2.0625q0.5 0.6875 1.46875 0.6875zm14.457703 -1.75q0 1.25 -0.90625 1.953125q-0.90625 0.703125 -2.46875 0.703125q-1.703125 0 -2.609375 -0.4375l0 -1.0625q0.59375 0.25 1.28125 0.390625q0.6875 0.140625 1.359375 0.140625q1.109375 0 1.671875 -0.40625q0.5625 -0.421875 0.5625 -1.171875q0 -0.5 -0.203125 -0.8125q-0.203125 -0.3125 -0.671875 -0.578125q-0.453125 -0.28125 -1.40625 -0.609375q-1.328125 -0.484375 -1.90625 -1.125q-0.5625 -0.65625 -0.5625 -1.703125q0 -1.09375 0.828125 -1.75q0.828125 -0.65625 2.1875 -0.65625q1.421875 0 2.609375 0.53125l-0.34375 0.953125q-1.1875 -0.484375 -2.296875 -0.484375q-0.875 0 -1.375 0.375q-0.484375 0.375 -0.484375 1.046875q0 0.5 0.171875 0.8125q0.1875 0.3125 0.609375 0.578125q0.4375 0.265625 1.328125 0.578125q1.5 0.53125 2.0625 1.15625q0.5625 0.609375 0.5625 1.578125zm4.799225 2.65625q-1.578125 0 -2.5 -0.953125q-0.90625 -0.96875 -0.90625 -2.671875q0 -1.734375 0.84375 -2.75q0.859375 -1.015625 2.28125 -1.015625q1.34375 0 2.125 0.890625q0.78125 0.875 0.78125 2.328125l0 0.671875l-4.90625 0q0.03125 1.265625 0.625 1.921875q0.609375 0.640625 1.703125 0.640625q1.140625 0 2.265625 -0.484375l0 0.96875q-0.5625 0.25 -1.078125 0.34375q-0.515625 0.109375 -1.234375 0.109375zm-0.296875 -6.484375q-0.859375 0 -1.375 0.5625q-0.5 0.5625 -0.59375 1.546875l3.734375 0q0 -1.015625 -0.453125 -1.5625q-0.453125 -0.546875 -1.3125 -0.546875zm8.024414 -0.90625q0.46875 0 0.84375 0.078125l-0.140625 1.0q-0.453125 -0.09375 -0.78125 -0.09375q-0.875 0 -1.5 0.703125q-0.609375 0.703125 -0.609375 1.75l0 3.828125l-1.078125 0l0 -7.125l0.890625 0l0.125 1.3125l0.0625 0q0.390625 -0.703125 0.953125 -1.078125q0.5625 -0.375 1.234375 -0.375zm3.7374573 7.265625l-2.703125 -7.125l1.15625 0l1.53125 4.21875q0.53125 1.484375 0.625 1.9375l0.046875 0q0.0625 -0.359375 0.4375 -1.4375q0.390625 -1.078125 1.71875 -4.71875l1.15625 0l-2.703125 7.125l-1.265625 0zm8.1302185 0.125q-1.578125 0 -2.5 -0.953125q-0.90625 -0.96875 -0.90625 -2.671875q0 -1.734375 0.84375 -2.75q0.859375 -1.015625 2.28125 -1.015625q1.34375 0 2.125 0.890625q0.78125 0.875 0.78125 2.328125l0 0.671875l-4.90625 0q0.03125 1.265625 0.625 1.921875q0.609375 0.640625 1.703125 0.640625q1.140625 0 2.265625 -0.484375l0 0.96875q-0.5625 0.25 -1.078125 0.34375q-0.515625 0.109375 -1.234375 0.109375zm-0.296875 -6.484375q-0.859375 0 -1.375 0.5625q-0.5 0.5625 -0.59375 1.546875l3.734375 0q0 -1.015625 -0.453125 -1.5625q-0.453125 -0.546875 -1.3125 -0.546875zm8.024414 -0.90625q0.46875 0 0.84375 0.078125l-0.140625 1.0q-0.453125 -0.09375 -0.78125 -0.09375q-0.875 0 -1.5 0.703125q-0.609375 0.703125 -0.609375 1.75l0 3.828125l-1.078125 0l0 -7.125l0.890625 0l0.125 1.3125l0.0625 0q0.390625 -0.703125 0.953125 -1.078125q0.5625 -0.375 1.234375 -0.375z" fill-rule="nonzero"/><path fill="#000000" fill-opacity="0.0" d="m141.26509 96.703415l126.67717 0" fill-rule="evenodd"/><path stroke="#e64b3b" stroke-width="2.0" stroke-linejoin="round" stroke-linecap="butt" d="m141.26509 96.703415l114.67717 0" fill-rule="evenodd"/><path fill="#e64b3b" stroke="#e64b3b" stroke-width="2.0" stroke-linecap="butt" d="m255.94226 100.006874l9.076202 -3.3034592l-9.076202 -3.3034668z" fill-rule="evenodd"/><path fill="#000000" fill-opacity="0.0" d="m141.26509 43.27559l123.59056 0l0 48.692917l-123.59056 0z" fill-rule="evenodd"/><path fill="#000000" d="m170.8799 56.07559l-1.109375 0l0 -8.53125l-3.015625 0l0 -0.984375l7.140625 0l0 0.984375l-3.015625 0l0 8.53125zm7.5453033 -7.265625q0.46875 0 0.84375 0.078125l-0.140625 1.0q-0.453125 -0.09375 -0.78125 -0.09375q-0.875 0 -1.5 0.703125q-0.609375 0.703125 -0.609375 1.75l0 3.828125l-1.078125 0l0 -7.125l0.890625 0l0.125 1.3125l0.0625 0q0.390625 -0.703125 0.953125 -1.078125q0.5625 -0.375 1.234375 -0.375zm6.5655823 7.265625l-0.21875 -1.015625l-0.046875 0q-0.53125 0.671875 -1.0625 0.90625q-0.53125 0.234375 -1.328125 0.234375q-1.0625 0 -1.671875 -0.546875q-0.59375 -0.546875 -0.59375 -1.546875q0 -2.15625 3.453125 -2.265625l1.21875 -0.046875l0 -0.4375q0 -0.84375 -0.359375 -1.234375q-0.359375 -0.40625 -1.15625 -0.40625q-0.890625 0 -2.015625 0.546875l-0.34375 -0.828125q0.53125 -0.28125 1.15625 -0.4375q0.640625 -0.171875 1.265625 -0.171875q1.28125 0 1.890625 0.5625q0.609375 0.5625 0.609375 1.8125l0 4.875l-0.796875 0zm-2.4375 -0.765625q1.0 0 1.578125 -0.546875q0.578125 -0.5625 0.578125 -1.546875l0 -0.640625l-1.078125 0.03125q-1.28125 0.046875 -1.859375 0.40625q-0.5625 0.359375 -0.5625 1.109375q0 0.578125 0.34375 0.890625q0.359375 0.296875 1.0 0.296875zm10.349976 0.765625l0 -4.609375q0 -0.875 -0.40625 -1.296875q-0.390625 -0.4375 -1.234375 -0.4375q-1.125 0 -1.65625 0.609375q-0.515625 0.59375 -0.515625 2.0l0 3.734375l-1.078125 0l0 -7.125l0.890625 0l0.171875 0.96875l0.046875 0q0.328125 -0.53125 0.921875 -0.8125q0.609375 -0.296875 1.34375 -0.296875q1.296875 0 1.9375 0.625q0.65625 0.625 0.65625 1.984375l0 4.65625l-1.078125 0zm7.8991547 -1.953125q0 1.0 -0.75 1.546875q-0.734375 0.53125 -2.078125 0.53125q-1.421875 0 -2.21875 -0.4375l0 -1.015625q0.515625 0.265625 1.109375 0.421875q0.59375 0.140625 1.140625 0.140625q0.84375 0 1.296875 -0.265625q0.453125 -0.265625 0.453125 -0.828125q0 -0.40625 -0.359375 -0.703125q-0.359375 -0.296875 -1.40625 -0.703125q-1.0 -0.375 -1.421875 -0.640625q-0.421875 -0.28125 -0.625 -0.625q-0.203125 -0.359375 -0.203125 -0.84375q0 -0.875 0.703125 -1.375q0.71875 -0.515625 1.953125 -0.515625q1.15625 0 2.25 0.46875l-0.375 0.875q-1.078125 -0.4375 -1.953125 -0.4375q-0.765625 0 -1.15625 0.25q-0.390625 0.234375 -0.390625 0.65625q0 0.28125 0.140625 0.484375q0.15625 0.203125 0.46875 0.390625q0.328125 0.171875 1.25 0.53125q1.28125 0.453125 1.71875 0.921875q0.453125 0.46875 0.453125 1.171875zm6.13945 1.953125l-0.21875 -1.015625l-0.046875 0q-0.53125 0.671875 -1.0625 0.90625q-0.53125 0.234375 -1.328125 0.234375q-1.0625 0 -1.671875 -0.546875q-0.59375 -0.546875 -0.59375 -1.546875q0 -2.15625 3.453125 -2.265625l1.21875 -0.046875l0 -0.4375q0 -0.84375 -0.359375 -1.234375q-0.359375 -0.40625 -1.15625 -0.40625q-0.890625 0 -2.015625 0.546875l-0.34375 -0.828125q0.53125 -0.28125 1.15625 -0.4375q0.640625 -0.171875 1.265625 -0.171875q1.28125 0 1.890625 0.5625q0.609375 0.5625 0.609375 1.8125l0 4.875l-0.796875 0zm-2.4375 -0.765625q1.0 0 1.578125 -0.546875q0.578125 -0.5625 0.578125 -1.546875l0 -0.640625l-1.078125 0.03125q-1.28125 0.046875 -1.859375 0.40625q-0.5625 0.359375 -0.5625 1.109375q0 0.578125 0.34375 0.890625q0.359375 0.296875 1.0 0.296875zm8.318726 0.890625q-1.546875 0 -2.40625 -0.953125q-0.84375 -0.953125 -0.84375 -2.6875q0 -1.796875 0.859375 -2.765625q0.859375 -0.984375 2.453125 -0.984375q0.515625 0 1.03125 0.109375q0.515625 0.109375 0.8125 0.265625l-0.328125 0.921875q-0.359375 -0.15625 -0.796875 -0.25q-0.421875 -0.09375 -0.734375 -0.09375q-2.171875 0 -2.171875 2.78125q0 1.3125 0.515625 2.015625q0.53125 0.703125 1.578125 0.703125q0.890625 0 1.828125 -0.390625l0 0.96875q-0.71875 0.359375 -1.796875 0.359375zm5.7983093 -0.890625q0.28125 0 0.546875 -0.03125q0.265625 -0.046875 0.421875 -0.09375l0 0.828125q-0.171875 0.078125 -0.515625 0.125q-0.34375 0.0625 -0.609375 0.0625q-2.078125 0 -2.078125 -2.171875l0 -4.25l-1.015625 0l0 -0.515625l1.015625 -0.453125l0.453125 -1.515625l0.625 0l0 1.65625l2.078125 0l0 0.828125l-2.078125 0l0 4.203125q0 0.640625 0.3125 0.984375q0.3125 0.34375 0.84375 0.34375zm3.4708252 0.765625l-1.078125 0l0 -7.125l1.078125 0l0 7.125zm-1.171875 -9.0625q0 -0.375 0.1875 -0.546875q0.1875 -0.171875 0.453125 -0.171875q0.265625 0 0.453125 0.171875q0.1875 0.171875 0.1875 0.546875q0 0.359375 -0.1875 0.546875q-0.1875 0.171875 -0.453125 0.171875q-0.265625 0 -0.453125 -0.171875q-0.1875 -0.1875 -0.1875 -0.546875zm9.6210785 5.484375q0 1.75 -0.875 2.734375q-0.875 0.96875 -2.421875 0.96875q-0.953125 0 -1.703125 -0.4375q-0.734375 -0.453125 -1.140625 -1.296875q-0.40625 -0.84375 -0.40625 -1.96875q0 -1.734375 0.875 -2.703125q0.875 -0.984375 2.421875 -0.984375q1.484375 0 2.359375 1.0q0.890625 1.0 0.890625 2.6875zm-5.421875 0q0 1.375 0.546875 2.09375q0.546875 0.703125 1.59375 0.703125q1.0625 0 1.609375 -0.703125q0.5625 -0.71875 0.5625 -2.09375q0 -1.359375 -0.5625 -2.0625q-0.546875 -0.703125 -1.609375 -0.703125q-1.0625 0 -1.609375 0.703125q-0.53125 0.6875 -0.53125 2.0625zm12.206497 3.578125l0 -4.609375q0 -0.875 -0.40625 -1.296875q-0.390625 -0.4375 -1.234375 -0.4375q-1.125 0 -1.65625 0.609375q-0.515625 0.59375 -0.515625 2.0l0 3.734375l-1.078125 0l0 -7.125l0.890625 0l0.171875 0.96875l0.046875 0q0.328125 -0.53125 0.921875 -0.8125q0.609375 -0.296875 1.34375 -0.296875q1.296875 0 1.9375 0.625q0.65625 0.625 0.65625 1.984375l0 4.65625l-1.078125 0z" fill-rule="nonzero"/><path fill="#000000" d="m163.11456 72.07559l-1.078125 0l0 -7.125l1.078125 0l0 7.125zm-1.171875 -9.062504q0 -0.375 0.1875 -0.546875q0.1875 -0.171875 0.453125 -0.171875q0.265625 0 0.453125 0.171875q0.1875 0.171875 0.1875 0.546875q0 0.359375 -0.1875 0.546875q-0.1875 0.171875 -0.453125 0.171875q-0.265625 0 -0.453125 -0.171875q-0.1875 -0.1875 -0.1875 -0.546875zm8.3554535 9.062504l0 -4.609375q0 -0.875 -0.40625 -1.296875q-0.390625 -0.4375 -1.234375 -0.4375q-1.125 0 -1.65625 0.609375q-0.515625 0.59375 -0.515625 2.0l0 3.734375l-1.078125 0l0 -7.125l0.890625 0l0.171875 0.96875l0.046875 0q0.328125 -0.53125 0.921875 -0.8125q0.609375 -0.296875 1.34375 -0.296875q1.296875 0 1.9375 0.625q0.65625 0.625 0.65625 1.984375l0 4.65625l-1.078125 0zm7.8991547 -1.953125q0 1.0 -0.75 1.546875q-0.734375 0.53125 -2.078125 0.53125q-1.421875 0 -2.21875 -0.4375l0 -1.015625q0.515625 0.265625 1.109375 0.421875q0.59375 0.140625 1.140625 0.140625q0.84375 0 1.296875 -0.265625q0.453125 -0.265625 0.453125 -0.828125q0 -0.40625 -0.359375 -0.703125q-0.359375 -0.296875 -1.40625 -0.703125q-1.0 -0.375 -1.421875 -0.640625q-0.421875 -0.28125 -0.625 -0.625q-0.203125 -0.359375 -0.203125 -0.84375q0 -0.875 0.703125 -1.375q0.71875 -0.515625 1.953125 -0.515625q1.15625 0 2.25 0.46875l-0.375 0.875q-1.078125 -0.4375 -1.953125 -0.4375q-0.765625 0 -1.15625 0.25q-0.390625 0.234375 -0.390625 0.65625q0 0.28125 0.140625 0.484375q0.15625 0.203125 0.46875 0.390625q0.328125 0.171875 1.25 0.53125q1.28125 0.453125 1.71875 0.921875q0.453125 0.46875 0.453125 1.171875zm4.061325 1.1875q0.28125 0 0.546875 -0.03125q0.265625 -0.046875 0.421875 -0.09375l0 0.828125q-0.171875 0.078125 -0.515625 0.125q-0.34375 0.0625 -0.609375 0.0625q-2.078125 0 -2.078125 -2.171875l0 -4.25l-1.015625 0l0 -0.515625l1.015625 -0.453125l0.453125 -1.5156288l0.625 0l0 1.6562538l2.078125 0l0 0.828125l-2.078125 0l0 4.203125q0 0.640625 0.3125 0.984375q0.3125 0.34375 0.84375 0.34375zm5.658325 -6.5q0.46875 0 0.84375 0.078125l-0.140625 1.0q-0.453125 -0.09375 -0.78125 -0.09375q-0.875 0 -1.5 0.703125q-0.609375 0.703125 -0.609375 1.75l0 3.828125l-1.078125 0l0 -7.125l0.890625 0l0.125 1.3125l0.0625 0q0.390625 -0.703125 0.953125 -1.078125q0.5625 -0.375 1.234375 -0.375zm3.1905823 0.140625l0 4.625q0 0.859375 0.390625 1.296875q0.40625 0.421875 1.25 0.421875q1.125 0 1.640625 -0.609375q0.515625 -0.609375 0.515625 -2.0l0 -3.734375l1.078125 0l0 7.125l-0.890625 0l-0.15625 -0.953125l-0.0625 0q-0.328125 0.53125 -0.921875 0.8125q-0.578125 0.265625 -1.34375 0.265625q-1.296875 0 -1.953125 -0.609375q-0.640625 -0.625 -0.640625 -1.984375l0 -4.65625l1.09375 0zm10.024155 7.25q-1.546875 0 -2.40625 -0.953125q-0.84375 -0.953125 -0.84375 -2.6875q0 -1.796875 0.859375 -2.765625q0.859375 -0.984375 2.453125 -0.984375q0.515625 0 1.03125 0.109375q0.515625 0.109375 0.8125 0.265625l-0.328125 0.921875q-0.359375 -0.15625 -0.796875 -0.25q-0.421875 -0.09375 -0.734375 -0.09375q-2.171875 0 -2.171875 2.78125q0 1.3125 0.515625 2.015625q0.53125 0.703125 1.578125 0.703125q0.890625 0 1.828125 -0.390625l0 0.96875q-0.71875 0.359375 -1.796875 0.359375zm5.7983093 -0.890625q0.28125 0 0.546875 -0.03125q0.265625 -0.046875 0.421875 -0.09375l0 0.828125q-0.171875 0.078125 -0.515625 0.125q-0.34375 0.0625 -0.609375 0.0625q-2.078125 0 -2.078125 -2.171875l0 -4.25l-1.015625 0l0 -0.515625l1.015625 -0.453125l0.453125 -1.5156288l0.625 0l0 1.6562538l2.078125 0l0 0.828125l-2.078125 0l0 4.203125q0 0.640625 0.3125 0.984375q0.3125 0.34375 0.84375 0.34375zm3.4708252 0.765625l-1.078125 0l0 -7.125l1.078125 0l0 7.125zm-1.171875 -9.062504q0 -0.375 0.1875 -0.546875q0.1875 -0.171875 0.453125 -0.171875q0.265625 0 0.453125 0.171875q0.1875 0.171875 0.1875 0.546875q0 0.359375 -0.1875 0.546875q-0.1875 0.171875 -0.453125 0.171875q-0.265625 0 -0.453125 -0.171875q-0.1875 -0.1875 -0.1875 -0.546875zm9.6210785 5.484379q0 1.75 -0.875 2.734375q-0.875 0.96875 -2.421875 0.96875q-0.953125 0 -1.703125 -0.4375q-0.734375 -0.453125 -1.140625 -1.296875q-0.40625 -0.84375 -0.40625 -1.96875q0 -1.734375 0.875 -2.703125q0.875 -0.984375 2.421875 -0.984375q1.484375 0 2.359375 1.0q0.890625 1.0 0.890625 2.6875zm-5.421875 0q0 1.375 0.546875 2.09375q0.546875 0.703125 1.59375 0.703125q1.0625 0 1.609375 -0.703125q0.5625 -0.71875 0.5625 -2.09375q0 -1.359375 -0.5625 -2.0625q-0.546875 -0.703125 -1.609375 -0.703125q-1.0625 0 -1.609375 0.703125q-0.53125 0.6875 -0.53125 2.0625zm12.206497 3.578125l0 -4.609375q0 -0.875 -0.40625 -1.296875q-0.390625 -0.4375 -1.234375 -0.4375q-1.125 0 -1.65625 0.609375q-0.515625 0.59375 -0.515625 2.0l0 3.734375l-1.078125 0l0 -7.125l0.890625 0l0.171875 0.96875l0.046875 0q0.328125 -0.53125 0.921875 -0.8125q0.609375 -0.296875 1.34375 -0.296875q1.296875 0 1.9375 0.625q0.65625 0.625 0.65625 1.984375l0 4.65625l-1.078125 0zm7.8991547 -1.953125q0 1.0 -0.75 1.546875q-0.734375 0.53125 -2.078125 0.53125q-1.421875 0 -2.21875 -0.4375l0 -1.015625q0.515625 0.265625 1.109375 0.421875q0.59375 0.140625 1.140625 0.140625q0.84375 0 1.296875 -0.265625q0.453125 -0.265625 0.453125 -0.828125q0 -0.40625 -0.359375 -0.703125q-0.359375 -0.296875 -1.40625 -0.703125q-1.0 -0.375 -1.421875 -0.640625q-0.421875 -0.28125 -0.625 -0.625q-0.203125 -0.359375 -0.203125 -0.84375q0 -0.875 0.703125 -1.375q0.71875 -0.515625 1.953125 -0.515625q1.15625 0 2.25 0.46875l-0.375 0.875q-1.078125 -0.4375 -1.953125 -0.4375q-0.765625 0 -1.15625 0.25q-0.390625 0.234375 -0.390625 0.65625q0 0.28125 0.140625 0.484375q0.15625 0.203125 0.46875 0.390625q0.328125 0.171875 1.25 0.53125q1.28125 0.453125 1.71875 0.921875q0.453125 0.46875 0.453125 1.171875zm8.320389 -3.1875l2.6875 0l0 0.890625l-2.6875 0l0 2.765625l-0.90625 0l0 -2.765625l-2.671875 0l0 -0.890625l2.671875 0l0 -2.796875l0.90625 0l0 2.796875z" fill-rule="nonzero"/><path fill="#000000" d="m177.5823 86.12247q0 1.0 -0.75 1.546875q-0.734375 0.53125 -2.078125 0.53125q-1.421875 0 -2.21875 -0.4375l0 -1.015625q0.515625 0.265625 1.109375 0.421875q0.59375 0.140625 1.140625 0.140625q0.84375 0 1.296875 -0.265625q0.453125 -0.265625 0.453125 -0.828125q0 -0.40625 -0.359375 -0.703125q-0.359375 -0.296875 -1.40625 -0.703125q-1.0 -0.375 -1.421875 -0.640625q-0.421875 -0.28125 -0.625 -0.625q-0.203125 -0.359375 -0.203125 -0.84375q0 -0.875 0.703125 -1.375q0.71875 -0.515625 1.953125 -0.515625q1.15625 0 2.25 0.46875l-0.375 0.875q-1.078125 -0.4375 -1.953125 -0.4375q-0.765625 0 -1.15625 0.25q-0.390625 0.234375 -0.390625 0.65625q0 0.28125 0.140625 0.484375q0.15625 0.203125 0.46875 0.390625q0.328125 0.171875 1.25 0.53125q1.28125 0.453125 1.71875 0.921875q0.453125 0.46875 0.453125 1.171875zm4.76445 2.078125q-1.578125 0 -2.5 -0.953125q-0.90625 -0.96875 -0.90625 -2.671875q0 -1.734375 0.84375 -2.75q0.859375 -1.015625 2.28125 -1.015625q1.34375 0 2.125 0.890625q0.78125 0.875 0.78125 2.328125l0 0.671875l-4.90625 0q0.03125 1.265625 0.625 1.921875q0.609375 0.640625 1.703125 0.640625q1.140625 0 2.265625 -0.484375l0 0.96875q-0.5625 0.25 -1.078125 0.34375q-0.515625 0.109375 -1.234375 0.109375zm-0.296875 -6.484375q-0.859375 0 -1.375 0.5625q-0.5 0.5625 -0.59375 1.546875l3.734375 0q0 -1.015625 -0.453125 -1.5625q-0.453125 -0.546875 -1.3125 -0.546875zm7.6181793 6.484375q-1.546875 0 -2.40625 -0.953125q-0.84375 -0.953125 -0.84375 -2.6875q0 -1.796875 0.859375 -2.765625q0.859375 -0.984375 2.453125 -0.984375q0.515625 0 1.03125 0.109375q0.515625 0.109375 0.8125 0.265625l-0.328125 0.921875q-0.359375 -0.15625 -0.796875 -0.25q-0.421875 -0.09375 -0.734375 -0.09375q-2.171875 0 -2.171875 2.78125q0 1.3125 0.515625 2.015625q0.53125 0.703125 1.578125 0.703125q0.890625 0 1.828125 -0.390625l0 0.96875q-0.71875 0.359375 -1.796875 0.359375zm6.7514343 -7.390625q0.46875 0 0.84375 0.078125l-0.140625 1.0q-0.453125 -0.09375 -0.78125 -0.09375q-0.875 0 -1.5 0.703125q-0.609375 0.703125 -0.609375 1.75l0 3.828125l-1.078125 0l0 -7.125l0.890625 0l0.125 1.3125l0.0625 0q0.390625 -0.703125 0.953125 -1.078125q0.5625 -0.375 1.234375 -0.375zm5.1905823 7.390625q-1.578125 0 -2.5 -0.953125q-0.90625 -0.96875 -0.90625 -2.671875q0 -1.734375 0.84375 -2.75q0.859375 -1.015625 2.28125 -1.015625q1.34375 0 2.125 0.890625q0.78125 0.875 0.78125 2.328125l0 0.671875l-4.90625 0q0.03125 1.265625 0.625 1.921875q0.609375 0.640625 1.703125 0.640625q1.140625 0 2.265625 -0.484375l0 0.96875q-0.5625 0.25 -1.078125 0.34375q-0.515625 0.109375 -1.234375 0.109375zm-0.296875 -6.484375q-0.859375 0 -1.375 0.5625q-0.5 0.5625 -0.59375 1.546875l3.734375 0q0 -1.015625 -0.453125 -1.5625q-0.453125 -0.546875 -1.3125 -0.546875zm7.0713043 5.59375q0.28125 0 0.546875 -0.03125q0.265625 -0.046875 0.421875 -0.09375l0 0.828125q-0.171875 0.078125 -0.515625 0.125q-0.34375 0.0625 -0.609375 0.0625q-2.078125 0 -2.078125 -2.171875l0 -4.25l-1.015625 0l0 -0.515625l1.015625 -0.453125l0.453125 -1.515625l0.625 0l0 1.65625l2.078125 0l0 0.828125l-2.078125 0l0 4.203125q0 0.640625 0.3125 0.984375q0.3125 0.34375 0.84375 0.34375zm6.933014 -2.890625q0.28125 -0.390625 0.84375 -1.03125l2.3125 -2.4375l1.28125 0l-2.890625 3.03125l3.09375 4.09375l-1.3125 0l-2.515625 -3.375l-0.8125 0.703125l0 2.671875l-1.078125 0l0 -10.125l1.078125 0l0 5.375q0 0.34375 -0.0625 1.09375l0.0625 0zm8.933472 3.78125q-1.578125 0 -2.5 -0.953125q-0.90625 -0.96875 -0.90625 -2.671875q0 -1.734375 0.84375 -2.75q0.859375 -1.015625 2.28125 -1.015625q1.34375 0 2.125 0.890625q0.78125 0.875 0.78125 2.328125l0 0.671875l-4.90625 0q0.03125 1.265625 0.625 1.921875q0.609375 0.640625 1.703125 0.640625q1.140625 0 2.265625 -0.484375l0 0.96875q-0.5625 0.25 -1.078125 0.34375q-0.515625 0.109375 -1.234375 0.109375zm-0.296875 -6.484375q-0.859375 0 -1.375 0.5625q-0.5 0.5625 -0.59375 1.546875l3.734375 0q0 -1.015625 -0.453125 -1.5625q-0.453125 -0.546875 -1.3125 -0.546875zm3.6338043 -0.765625l1.15625 0l1.5625 4.0625q0.515625 1.390625 0.640625 2.015625l0.046875 0q0.078125 -0.34375 0.34375 -1.140625q0.28125 -0.8125 1.78125 -4.9375l1.15625 0l-3.0625 8.109375q-0.453125 1.203125 -1.0625 1.703125q-0.609375 0.515625 -1.5 0.515625q-0.5 0 -0.96875 -0.109375l0 -0.875q0.359375 0.078125 0.796875 0.078125q1.109375 0 1.59375 -1.25l0.390625 -1.015625l-2.875 -7.15625z" fill-rule="nonzero"/><path fill="#000000" fill-opacity="0.0" d="m94.979004 173.38583l186.86615 0l0 33.952744l-186.86615 0z" fill-rule="evenodd"/><path fill="#000000" d="m137.13344 184.69646l3.46875 -6.65625l1.984375 0l-4.578125 8.3125l0 4.953125l-1.75 0l0 -4.953125l-4.5625 -8.3125l2.0 0l3.4375 6.65625zm5.8622284 1.59375q0 -1.453125 0.5625 -2.609375q0.578125 -1.15625 1.59375 -1.78125q1.015625 -0.625 2.3125 -0.625q2.015625 0 3.25 1.390625q1.25 1.390625 1.25 3.703125l0 0.125q0 1.4375 -0.546875 2.578125q-0.546875 1.140625 -1.578125 1.78125q-1.015625 0.640625 -2.359375 0.640625q-2.0 0 -3.25 -1.390625q-1.234375 -1.40625 -1.234375 -3.703125l0 -0.109375zm1.6875 0.203125q0 1.640625 0.765625 2.640625q0.765625 0.984375 2.03125 0.984375q1.296875 0 2.046875 -1.0q0.75 -1.015625 0.75 -2.828125q0 -1.625 -0.765625 -2.625q-0.765625 -1.015625 -2.046875 -1.015625q-1.25 0 -2.015625 1.0q-0.765625 0.984375 -0.765625 2.84375zm15.483643 3.84375q-0.984375 1.15625 -2.890625 1.15625q-1.578125 0 -2.40625 -0.921875q-0.8125 -0.921875 -0.828125 -2.703125l0 -6.421875l1.6875 0l0 6.375q0 2.234375 1.828125 2.234375q1.921875 0 2.5625 -1.4375l0 -7.171875l1.6875 0l0 9.859375l-1.609375 0l-0.03125 -0.96875zm8.972122 -7.375q-0.390625 -0.0625 -0.84375 -0.0625q-1.65625 0 -2.25 1.40625l0 7.0l-1.671875 0l0 -9.859375l1.640625 0l0.015625 1.140625q0.828125 -1.3125 2.359375 -1.3125q0.484375 0 0.75 0.125l0 1.5625zm7.7438965 -1.515625l0.046875 1.09375q1.078125 -1.265625 2.921875 -1.265625q2.0625 0 2.8125 1.578125q0.5 -0.71875 1.28125 -1.140625q0.796875 -0.4375 1.859375 -0.4375q3.25 0 3.296875 3.421875l0 6.609375l-1.671875 0l0 -6.5q0 -1.0625 -0.484375 -1.578125q-0.484375 -0.53125 -1.625 -0.53125q-0.9375 0 -1.5625 0.5625q-0.609375 0.5625 -0.71875 1.5l0 6.546875l-1.6875 0l0 -6.453125q0 -2.15625 -2.109375 -2.15625q-1.65625 0 -2.265625 1.40625l0 7.203125l-1.6875 0l0 -9.859375l1.59375 0zm20.851547 9.859375q-0.140625 -0.296875 -0.234375 -1.03125q-1.171875 1.21875 -2.8125 1.21875q-1.453125 0 -2.390625 -0.828125q-0.921875 -0.828125 -0.921875 -2.09375q0 -1.53125 1.15625 -2.375q1.171875 -0.859375 3.296875 -0.859375l1.640625 0l0 -0.78125q0 -0.890625 -0.53125 -1.40625q-0.515625 -0.53125 -1.546875 -0.53125q-0.90625 0 -1.515625 0.46875q-0.609375 0.453125 -0.609375 1.09375l-1.703125 0q0 -0.734375 0.515625 -1.421875q0.53125 -0.6875 1.421875 -1.078125q0.90625 -0.40625 1.984375 -0.40625q1.703125 0 2.671875 0.859375q0.96875 0.84375 1.0 2.328125l0 4.53125q0 1.359375 0.34375 2.171875l0 0.140625l-1.765625 0zm-2.796875 -1.28125q0.796875 0 1.5 -0.40625q0.71875 -0.421875 1.03125 -1.078125l0 -2.015625l-1.3125 0q-3.109375 0 -3.109375 1.8125q0 0.796875 0.53125 1.25q0.53125 0.4375 1.359375 0.4375zm10.819855 0.09375q0.890625 0 1.5625 -0.546875q0.6875 -0.546875 0.75 -1.375l1.59375 0q-0.046875 0.84375 -0.578125 1.609375q-0.53125 0.765625 -1.4375 1.234375q-0.890625 0.453125 -1.890625 0.453125q-2.015625 0 -3.203125 -1.34375q-1.1875 -1.34375 -1.1875 -3.6875l0 -0.28125q0 -1.4375 0.515625 -2.546875q0.53125 -1.125 1.515625 -1.734375q1.0 -0.625 2.34375 -0.625q1.65625 0 2.75 1.0q1.109375 0.984375 1.171875 2.5625l-1.59375 0q-0.0625 -0.953125 -0.71875 -1.5625q-0.65625 -0.625 -1.609375 -0.625q-1.28125 0 -2.0 0.921875q-0.703125 0.921875 -0.703125 2.671875l0 0.328125q0 1.703125 0.703125 2.625q0.703125 0.921875 2.015625 0.921875zm7.484131 -7.46875q1.125 -1.375 2.921875 -1.375q3.125 0 3.15625 3.515625l0 6.515625l-1.6875 0l0 -6.515625q-0.015625 -1.078125 -0.5 -1.578125q-0.46875 -0.515625 -1.484375 -0.515625q-0.8125 0 -1.4375 0.4375q-0.609375 0.4375 -0.96875 1.15625l0 7.015625l-1.671875 0l0 -14.0l1.671875 0l0 5.34375zm10.431763 8.65625l-1.6875 0l0 -9.859375l1.6875 0l0 9.859375zm-1.828125 -12.46875q0 -0.40625 0.25 -0.6875q0.25 -0.296875 0.734375 -0.296875q0.5 0 0.75 0.296875q0.265625 0.28125 0.265625 0.6875q0 0.40625 -0.265625 0.6875q-0.25 0.265625 -0.75 0.265625q-0.484375 0 -0.734375 -0.265625q-0.25 -0.28125 -0.25 -0.6875zm6.12117 2.609375l0.046875 1.234375q1.125 -1.40625 2.953125 -1.40625q3.125 0 3.15625 3.515625l0 6.515625l-1.6875 0l0 -6.515625q-0.015625 -1.078125 -0.5 -1.578125q-0.46875 -0.515625 -1.484375 -0.515625q-0.8125 0 -1.4375 0.4375q-0.609375 0.4375 -0.96875 1.15625l0 7.015625l-1.671875 0l0 -9.859375l1.59375 0zm12.778107 10.046875q-2.0 0 -3.265625 -1.3125q-1.25 -1.328125 -1.25 -3.53125l0 -0.3125q0 -1.46875 0.5625 -2.609375q0.5625 -1.15625 1.5625 -1.796875q1.015625 -0.65625 2.1875 -0.65625q1.921875 0 2.984375 1.265625q1.0625 1.265625 1.0625 3.625l0 0.6875l-6.671875 0q0.03125 1.46875 0.84375 2.375q0.828125 0.890625 2.078125 0.890625q0.890625 0 1.515625 -0.359375q0.625 -0.375 1.078125 -0.96875l1.03125 0.796875q-1.234375 1.90625 -3.71875 1.90625zm-0.203125 -8.84375q-1.015625 0 -1.71875 0.75q-0.6875 0.734375 -0.84375 2.078125l4.9375 0l0 -0.125q-0.078125 -1.28125 -0.703125 -1.984375q-0.609375 -0.71875 -1.671875 -0.71875z" fill-rule="nonzero"/><path fill="#e6e7e8" d="m483.12003 84.575226l0 0c-1.6187744 -10.734978 3.6960144 -21.361954 13.689087 -27.371513c9.993103 -6.009556 22.911957 -6.3477516 33.274567 -0.87107086l0 0c3.6707764 -6.2417603 10.389343 -10.551266 18.123474 -11.624973c7.734131 -1.0737076 15.575439 1.2144928 21.152039 6.1724625l0 0c3.1270142 -5.6591797 9.266968 -9.461426 16.241089 -10.057507c6.974121 -0.59607697 13.795349 2.0983772 18.043213 7.127228l0 0c5.649414 -5.9987183 14.637817 -8.524429 23.075806 -6.4842415c8.437988 2.0401878 14.810059 8.279835 16.359009 16.019016l0 0c6.9214478 1.703659 12.68689 6.0345917 15.806702 11.873825c3.119812 5.839226 3.2879639 12.613945 0.4609375 18.573769l0 0c6.815674 8.0047 8.410034 18.67086 4.1881104 28.018059c-4.221924 9.347206 -13.6258545 15.971138 -24.702393 17.39988c-0.078063965 8.77269 -5.409729 16.822388 -13.93988 21.046417c-8.530212 4.2240295 -18.92694 3.9627686 -27.1828 -0.6830597c-3.5165405 10.506805 -13.41449 18.23761 -25.417603 19.852432c-12.003052 1.6148071 -23.959412 -3.1758575 -30.703552 -12.302261c-8.266846 4.4984436 -18.186401 5.7942963 -27.520996 3.5952454c-9.334564 -2.1990356 -17.297913 -7.707733 -22.093597 -15.283447l0 0c-8.447693 0.8920593 -16.615448 -3.0574799 -20.449646 -9.8884735c-3.8341675 -6.8309937 -2.5185852 -15.089294 3.2938538 -20.67633l0 0c-7.535553 -4.002281 -11.380676 -11.944145 -9.530243 -19.684212c1.8504639 -7.740074 8.977112 -13.524422 17.663696 -14.336739z" fill-rule="evenodd"/><path fill="#000000" fill-opacity="0.0" d="m474.81958 119.00992l0 0c3.5560608 1.8886948 7.6641235 2.7454453 11.772675 2.4552307m5.3812866 28.11026c1.7668152 -0.18656921 3.4986267 -0.58166504 5.1507874 -1.1750793m44.461304 12.862793c-1.2426147 -1.6816254 -2.283081 -3.478592 -3.1035156 -5.3602753m59.226807 -2.190216l0 0c0.6411743 -1.9155579 1.0565186 -3.8870697 1.2392578 -5.881653m39.881897 -14.480972c0.08312988 -9.339874 -5.795532 -17.891563 -15.110962 -21.981865m35.62506 -23.43509c-1.508606 3.1804047 -3.8116455 6.0017014 -6.7285767 8.242676m-9.53772 -38.6911l0 0c0.25708008 1.2843208 0.3760376 2.5879402 0.35528564 3.8927956m-39.789368 -13.427181l0 0c-1.4092407 1.4963799 -2.5702515 3.1685677 -3.4469604 4.964493m-30.837708 -2.0348663l0 0c-0.75097656 1.3591537 -1.3117676 2.797371 -1.6694946 4.281521m-37.606567 1.1711006l0 0c2.192749 1.1588631 4.2213135 2.5536766 6.0411377 4.153805m-53.00418 24.088932l0 0c0.22311401 1.4795609 0.57562256 2.9408722 1.0542908 4.3702774" fill-rule="evenodd"/><path stroke="#000000" stroke-width="1.0" stroke-linejoin="round" stroke-linecap="butt" d="m483.12003 84.575226l0 0c-1.6187744 -10.734978 3.6960144 -21.361954 13.689087 -27.371513c9.993103 -6.009556 22.911957 -6.3477516 33.274567 -0.87107086l0 0c3.6707764 -6.2417603 10.389343 -10.551266 18.123474 -11.624973c7.734131 -1.0737076 15.575439 1.2144928 21.152039 6.1724625l0 0c3.1270142 -5.6591797 9.266968 -9.461426 16.241089 -10.057507c6.974121 -0.59607697 13.795349 2.0983772 18.043213 7.127228l0 0c5.649414 -5.9987183 14.637817 -8.524429 23.075806 -6.4842415c8.437988 2.0401878 14.810059 8.279835 16.359009 16.019016l0 0c6.9214478 1.703659 12.68689 6.0345917 15.806702 11.873825c3.119812 5.839226 3.2879639 12.613945 0.4609375 18.573769l0 0c6.815674 8.0047 8.410034 18.67086 4.1881104 28.018059c-4.221924 9.347206 -13.6258545 15.971138 -24.702393 17.39988c-0.078063965 8.77269 -5.409729 16.822388 -13.93988 21.046417c-8.530212 4.2240295 -18.92694 3.9627686 -27.1828 -0.6830597c-3.5165405 10.506805 -13.41449 18.23761 -25.417603 19.852432c-12.003052 1.6148071 -23.959412 -3.1758575 -30.703552 -12.302261c-8.266846 4.4984436 -18.186401 5.7942963 -27.520996 3.5952454c-9.334564 -2.1990356 -17.297913 -7.707733 -22.093597 -15.283447l0 0c-8.447693 0.8920593 -16.615448 -3.0574799 -20.449646 -9.8884735c-3.8341675 -6.8309937 -2.5185852 -15.089294 3.2938538 -20.67633l0 0c-7.535553 -4.002281 -11.380676 -11.944145 -9.530243 -19.684212c1.8504639 -7.740074 8.977112 -13.524422 17.663696 -14.336739z" fill-rule="evenodd"/><path stroke="#000000" stroke-width="1.0" stroke-linejoin="round" stroke-linecap="butt" d="m474.81958 119.00992l0 0c3.5560608 1.8886948 7.6641235 2.7454453 11.772675 2.4552307m5.3812866 28.11026c1.7668152 -0.18656921 3.4986267 -0.58166504 5.1507874 -1.1750793m44.461304 12.862793c-1.2426147 -1.6816254 -2.283081 -3.478592 -3.1035156 -5.3602753m59.226807 -2.190216l0 0c0.6411743 -1.9155579 1.0565186 -3.8870697 1.2392578 -5.881653m39.881897 -14.480972c0.08312988 -9.339874 -5.795532 -17.891563 -15.110962 -21.981865m35.62506 -23.43509c-1.508606 3.1804047 -3.8116455 6.0017014 -6.7285767 8.242676m-9.53772 -38.6911l0 0c0.25708008 1.2843208 0.3760376 2.5879402 0.35528564 3.8927956m-39.789368 -13.427181l0 0c-1.4092407 1.4963799 -2.5702515 3.1685677 -3.4469604 4.964493m-30.837708 -2.0348663l0 0c-0.75097656 1.3591537 -1.3117676 2.797371 -1.6694946 4.281521m-37.606567 1.1711006l0 0c2.192749 1.1588631 4.2213135 2.5536766 6.0411377 4.153805m-53.00418 24.088932l0 0c0.22311401 1.4795609 0.57562256 2.9408722 1.0542908 4.3702774" fill-rule="evenodd"/><path fill="#000000" fill-opacity="0.0" d="m339.72775 96.70389l146.04724 0" fill-rule="evenodd"/><path stroke="#00aae4" stroke-width="2.0" stroke-linejoin="round" stroke-linecap="butt" d="m339.72775 96.70388l134.04727 0" fill-rule="evenodd"/><path fill="#00aae4" stroke="#00aae4" stroke-width="2.0" stroke-linecap="butt" d="m473.77502 100.00735l9.076202 -3.3034668l-9.076202 -3.3034592z" fill-rule="evenodd"/><path fill="#000000" fill-opacity="0.0" d="m480.18164 61.94593l186.86615 0l0 33.95276l-186.86615 0z" fill-rule="evenodd"/><path fill="#000000" d="m545.07135 79.86593l-1.75 0l0 -13.265625l1.75 0l0 13.265625zm4.5270996 -9.859375l0.046875 1.234375q1.125 -1.40625 2.953125 -1.40625q3.125 0 3.15625 3.515625l0 6.515625l-1.6875 0l0 -6.515625q-0.015625 -1.078125 -0.5 -1.578125q-0.46875 -0.515625 -1.484375 -0.515625q-0.8125 0 -1.4375 0.4375q-0.609375 0.4375 -0.96875 1.15625l0 7.015625l-1.671875 0l0 -9.859375l1.59375 0zm10.981262 -2.390625l0 2.390625l1.84375 0l0 1.3125l-1.84375 0l0 6.109375q0 0.59375 0.234375 0.890625q0.25 0.296875 0.84375 0.296875q0.296875 0 0.8125 -0.109375l0 1.359375q-0.671875 0.1875 -1.296875 0.1875q-1.125 0 -1.703125 -0.6875q-0.578125 -0.6875 -0.578125 -1.9375l0 -6.109375l-1.796875 0l0 -1.3125l1.796875 0l0 -2.390625l1.6875 0zm7.8911133 12.4375q-2.0 0 -3.265625 -1.3125q-1.25 -1.328125 -1.25 -3.53125l0 -0.3125q0 -1.46875 0.5625 -2.609375q0.5625 -1.15625 1.5625 -1.796875q1.015625 -0.65625 2.1875 -0.65625q1.921875 0 2.984375 1.265625q1.0625 1.265625 1.0625 3.625l0 0.6875l-6.671875 0q0.03125 1.46875 0.84375 2.375q0.828125 0.890625 2.078125 0.890625q0.890625 0 1.515625 -0.359375q0.625 -0.375 1.078125 -0.96875l1.03125 0.796875q-1.234375 1.90625 -3.71875 1.90625zm-0.203125 -8.84375q-1.015625 0 -1.71875 0.75q-0.6875 0.734375 -0.84375 2.078125l4.9375 0l0 -0.125q-0.078125 -1.28125 -0.703125 -1.984375q-0.609375 -0.71875 -1.671875 -0.71875zm10.774414 0.3125q-0.390625 -0.0625 -0.84375 -0.0625q-1.65625 0 -2.25 1.40625l0 7.0l-1.671875 0l0 -9.859375l1.640625 0l0.015625 1.140625q0.828125 -1.3125 2.359375 -1.3125q0.484375 0 0.75 0.125l0 1.5625zm3.1409912 -1.515625l0.046875 1.234375q1.125 -1.40625 2.953125 -1.40625q3.125 0 3.15625 3.515625l0 6.515625l-1.6875 0l0 -6.515625q-0.015625 -1.078125 -0.5 -1.578125q-0.46875 -0.515625 -1.484375 -0.515625q-0.8125 0 -1.4375 0.4375q-0.609375 0.4375 -0.96875 1.15625l0 7.015625l-1.671875 0l0 -9.859375l1.59375 0zm12.778137 10.046875q-2.0 0 -3.265625 -1.3125q-1.25 -1.328125 -1.25 -3.53125l0 -0.3125q0 -1.46875 0.5625 -2.609375q0.5625 -1.15625 1.5625 -1.796875q1.015625 -0.65625 2.1875 -0.65625q1.921875 0 2.984375 1.265625q1.0625 1.265625 1.0625 3.625l0 0.6875l-6.671875 0q0.03125 1.46875 0.84375 2.375q0.828125 0.890625 2.078125 0.890625q0.890625 0 1.515625 -0.359375q0.625 -0.375 1.078125 -0.96875l1.03125 0.796875q-1.234375 1.90625 -3.71875 1.90625zm-0.203125 -8.84375q-1.015625 0 -1.71875 0.75q-0.6875 0.734375 -0.84375 2.078125l4.9375 0l0 -0.125q-0.078125 -1.28125 -0.703125 -1.984375q-0.609375 -0.71875 -1.671875 -0.71875zm8.290039 -3.59375l0 2.390625l1.84375 0l0 1.3125l-1.84375 0l0 6.109375q0 0.59375 0.234375 0.890625q0.25 0.296875 0.84375 0.296875q0.296875 0 0.8125 -0.109375l0 1.359375q-0.671875 0.1875 -1.296875 0.1875q-1.125 0 -1.703125 -0.6875q-0.578125 -0.6875 -0.578125 -1.9375l0 -6.109375l-1.796875 0l0 -1.3125l1.796875 0l0 -2.390625l1.6875 0z" fill-rule="nonzero"/><path fill="#000000" fill-opacity="0.0" d="m374.58163 47.545933l89.00787 0l0 48.692913l-89.00787 0z" fill-rule="evenodd"/><path fill="#000000" d="m404.8509 57.814682q0 1.25 -0.90625 1.953125q-0.90625 0.703125 -2.46875 0.703125q-1.703125 0 -2.609375 -0.4375l0 -1.0625q0.59375 0.25 1.28125 0.390625q0.6875 0.140625 1.359375 0.140625q1.109375 0 1.671875 -0.40625q0.5625 -0.421875 0.5625 -1.171875q0 -0.5 -0.203125 -0.8125q-0.203125 -0.3125 -0.671875 -0.578125q-0.453125 -0.28125 -1.40625 -0.609375q-1.328125 -0.484375 -1.90625 -1.125q-0.5625 -0.65625 -0.5625 -1.703125q0 -1.09375 0.828125 -1.75q0.828125 -0.65625 2.1875 -0.65625q1.421875 0 2.609375 0.53125l-0.34375 0.953125q-1.1875 -0.484375 -2.296875 -0.484375q-0.875 0 -1.375 0.375q-0.484375 0.375 -0.484375 1.046875q0 0.5 0.171875 0.8125q0.1875 0.3125 0.609375 0.578125q0.4375 0.265625 1.328125 0.578125q1.5 0.53125 2.0625 1.15625q0.5625 0.609375 0.5625 1.578125zm2.8617249 2.53125l-1.078125 0l0 -7.125l1.078125 0l0 7.125zm-1.171875 -9.0625q0 -0.375 0.1875 -0.546875q0.1875 -0.171875 0.453125 -0.171875q0.265625 0 0.453125 0.171875q0.1875 0.171875 0.1875 0.546875q0 0.359375 -0.1875 0.546875q-0.1875 0.171875 -0.453125 0.171875q-0.265625 0 -0.453125 -0.171875q-0.1875 -0.1875 -0.1875 -0.546875zm9.308563 1.9375l0 0.671875l-1.328125 0.15625q0.1875 0.234375 0.328125 0.609375q0.140625 0.359375 0.140625 0.8125q0 1.0625 -0.71875 1.6875q-0.703125 0.609375 -1.953125 0.609375q-0.328125 0 -0.609375 -0.046875q-0.6875 0.359375 -0.6875 0.921875q0 0.296875 0.234375 0.4375q0.25 0.140625 0.84375 0.140625l1.25 0q1.171875 0 1.78125 0.484375q0.625 0.484375 0.625 1.421875q0 1.171875 -0.953125 1.796875q-0.953125 0.625 -2.765625 0.625q-1.40625 0 -2.171875 -0.53125q-0.75 -0.515625 -0.75 -1.46875q0 -0.640625 0.421875 -1.125q0.421875 -0.46875 1.171875 -0.640625q-0.28125 -0.125 -0.46875 -0.375q-0.171875 -0.265625 -0.171875 -0.609375q0 -0.390625 0.203125 -0.6875q0.203125 -0.296875 0.65625 -0.5625q-0.546875 -0.234375 -0.90625 -0.78125q-0.34375 -0.546875 -0.34375 -1.25q0 -1.171875 0.703125 -1.796875q0.703125 -0.640625 1.984375 -0.640625q0.5625 0 1.015625 0.140625l2.46875 0zm-5.6875 8.328125q0 0.578125 0.484375 0.875q0.484375 0.296875 1.40625 0.296875q1.359375 0 2.0 -0.40625q0.65625 -0.40625 0.65625 -1.109375q0 -0.578125 -0.359375 -0.796875q-0.34375 -0.21875 -1.34375 -0.21875l-1.296875 0q-0.734375 0 -1.140625 0.34375q-0.40625 0.359375 -0.40625 1.015625zm0.578125 -6.046875q0 0.75 0.421875 1.140625q0.4375 0.375 1.1875 0.375q1.578125 0 1.578125 -1.546875q0 -1.59375 -1.59375 -1.59375q-0.765625 0 -1.1875 0.40625q-0.40625 0.40625 -0.40625 1.21875zm11.458099 4.84375l0 -4.609375q0 -0.875 -0.40625 -1.296875q-0.390625 -0.4375 -1.234375 -0.4375q-1.125 0 -1.65625 0.609375q-0.515625 0.59375 -0.515625 2.0l0 3.734375l-1.078125 0l0 -7.125l0.890625 0l0.171875 0.96875l0.046875 0q0.328125 -0.53125 0.921875 -0.8125q0.609375 -0.296875 1.34375 -0.296875q1.296875 0 1.9375 0.625q0.65625 0.625 0.65625 1.984375l0 4.65625l-1.078125 0zm6.3053894 0.125q-1.578125 0 -2.5 -0.953125q-0.90625 -0.96875 -0.90625 -2.671875q0 -1.734375 0.84375 -2.75q0.859375 -1.015625 2.28125 -1.015625q1.34375 0 2.125 0.890625q0.78125 0.875 0.78125 2.328125l0 0.671875l-4.90625 0q0.03125 1.265625 0.625 1.921875q0.609375 0.640625 1.703125 0.640625q1.140625 0 2.265625 -0.484375l0 0.96875q-0.5625 0.25 -1.078125 0.34375q-0.515625 0.109375 -1.234375 0.109375zm-0.296875 -6.484375q-0.859375 0 -1.375 0.5625q-0.5 0.5625 -0.59375 1.546875l3.734375 0q0 -1.015625 -0.453125 -1.5625q-0.453125 -0.546875 -1.3125 -0.546875zm9.618195 5.40625l-0.0625 0q-0.75 1.078125 -2.234375 1.078125q-1.40625 0 -2.1875 -0.953125q-0.765625 -0.953125 -0.765625 -2.71875q0 -1.765625 0.78125 -2.734375q0.78125 -0.984375 2.171875 -0.984375q1.453125 0 2.21875 1.0625l0.09375 0l-0.046875 -0.515625l-0.03125 -0.5l0 -2.90625l1.078125 0l0 10.125l-0.875 0l-0.140625 -0.953125zm-2.15625 0.171875q1.109375 0 1.59375 -0.59375q0.5 -0.609375 0.5 -1.9375l0 -0.234375q0 -1.515625 -0.5 -2.15625q-0.5 -0.65625 -1.609375 -0.65625q-0.953125 0 -1.453125 0.75q-0.5 0.734375 -0.5 2.078125q0 1.359375 0.5 2.0625q0.5 0.6875 1.46875 0.6875z" fill-rule="nonzero"/><path fill="#000000" d="m387.45798 75.58031q0.28125 0 0.546875 -0.03125q0.265625 -0.046875 0.421875 -0.09375l0 0.828125q-0.171875 0.078125 -0.515625 0.125q-0.34375 0.0625 -0.609375 0.0625q-2.078125 0 -2.078125 -2.171875l0 -4.25l-1.015625 0l0 -0.515625l1.015625 -0.453125l0.453125 -1.515625l0.625 0l0 1.65625l2.078125 0l0 0.828125l-2.078125 0l0 4.203125q0 0.640625 0.3125 0.984375q0.3125 0.34375 0.84375 0.34375zm5.658325 -6.5q0.46875 0 0.84375 0.078125l-0.140625 1.0q-0.453125 -0.09375 -0.78125 -0.09375q-0.875 0 -1.5 0.703125q-0.609375 0.703125 -0.609375 1.75l0 3.828125l-1.078125 0l0 -7.125l0.890625 0l0.125 1.3125l0.0625 0q0.390625 -0.703125 0.953125 -1.078125q0.5625 -0.375 1.234375 -0.375zm6.5655823 7.265625l-0.21875 -1.015625l-0.046875 0q-0.53125 0.671875 -1.0625 0.90625q-0.53125 0.234375 -1.328125 0.234375q-1.0625 0 -1.671875 -0.546875q-0.59375 -0.546875 -0.59375 -1.546875q0 -2.15625 3.453125 -2.265625l1.21875 -0.046875l0 -0.4375q0 -0.84375 -0.359375 -1.234375q-0.359375 -0.40625 -1.15625 -0.40625q-0.890625 0 -2.015625 0.546875l-0.34375 -0.828125q0.53125 -0.28125 1.15625 -0.4375q0.640625 -0.171875 1.265625 -0.171875q1.28125 0 1.890625 0.5625q0.609375 0.5625 0.609375 1.8125l0 4.875l-0.796875 0zm-2.4375 -0.765625q1.0 0 1.578125 -0.546875q0.578125 -0.5625 0.578125 -1.546875l0 -0.640625l-1.078125 0.03125q-1.28125 0.046875 -1.859375 0.40625q-0.5625 0.359375 -0.5625 1.109375q0 0.578125 0.34375 0.890625q0.359375 0.296875 1.0 0.296875zm10.349976 0.765625l0 -4.609375q0 -0.875 -0.40625 -1.296875q-0.390625 -0.4375 -1.234375 -0.4375q-1.125 0 -1.65625 0.609375q-0.515625 0.59375 -0.515625 2.0l0 3.734375l-1.078125 0l0 -7.125l0.890625 0l0.171875 0.96875l0.046875 0q0.328125 -0.53125 0.921875 -0.8125q0.609375 -0.296875 1.34375 -0.296875q1.296875 0 1.9375 0.625q0.65625 0.625 0.65625 1.984375l0 4.65625l-1.078125 0zm7.8991394 -1.953125q0 1.0 -0.75 1.546875q-0.734375 0.53125 -2.078125 0.53125q-1.421875 0 -2.21875 -0.4375l0 -1.015625q0.515625 0.265625 1.109375 0.421875q0.59375 0.140625 1.140625 0.140625q0.84375 0 1.296875 -0.265625q0.453125 -0.265625 0.453125 -0.828125q0 -0.40625 -0.359375 -0.703125q-0.359375 -0.296875 -1.40625 -0.703125q-1.0 -0.375 -1.421875 -0.640625q-0.421875 -0.28125 -0.625 -0.625q-0.203125 -0.359375 -0.203125 -0.84375q0 -0.875 0.703125 -1.375q0.71875 -0.515625 1.953125 -0.515625q1.15625 0 2.25 0.46875l-0.375 0.875q-1.078125 -0.4375 -1.953125 -0.4375q-0.765625 0 -1.15625 0.25q-0.390625 0.234375 -0.390625 0.65625q0 0.28125 0.140625 0.484375q0.15625 0.203125 0.46875 0.390625q0.328125 0.171875 1.25 0.53125q1.28125 0.453125 1.71875 0.921875q0.453125 0.46875 0.453125 1.171875zm6.1394653 1.953125l-0.21875 -1.015625l-0.046875 0q-0.53125 0.671875 -1.0625 0.90625q-0.53125 0.234375 -1.328125 0.234375q-1.0625 0 -1.671875 -0.546875q-0.59375 -0.546875 -0.59375 -1.546875q0 -2.15625 3.453125 -2.265625l1.21875 -0.046875l0 -0.4375q0 -0.84375 -0.359375 -1.234375q-0.359375 -0.40625 -1.15625 -0.40625q-0.890625 0 -2.015625 0.546875l-0.34375 -0.828125q0.53125 -0.28125 1.15625 -0.4375q0.640625 -0.171875 1.265625 -0.171875q1.28125 0 1.890625 0.5625q0.609375 0.5625 0.609375 1.8125l0 4.875l-0.796875 0zm-2.4375 -0.765625q1.0 0 1.578125 -0.546875q0.578125 -0.5625 0.578125 -1.546875l0 -0.640625l-1.078125 0.03125q-1.28125 0.046875 -1.859375 0.40625q-0.5625 0.359375 -0.5625 1.109375q0 0.578125 0.34375 0.890625q0.359375 0.296875 1.0 0.296875zm8.318726 0.890625q-1.546875 0 -2.40625 -0.953125q-0.84375 -0.953125 -0.84375 -2.6875q0 -1.796875 0.859375 -2.765625q0.859375 -0.984375 2.453125 -0.984375q0.515625 0 1.03125 0.109375q0.515625 0.109375 0.8125 0.265625l-0.328125 0.921875q-0.359375 -0.15625 -0.796875 -0.25q-0.421875 -0.09375 -0.734375 -0.09375q-2.171875 0 -2.171875 2.78125q0 1.3125 0.515625 2.015625q0.53125 0.703125 1.578125 0.703125q0.890625 0 1.828125 -0.390625l0 0.96875q-0.71875 0.359375 -1.796875 0.359375zm5.7983093 -0.890625q0.28125 0 0.546875 -0.03125q0.265625 -0.046875 0.421875 -0.09375l0 0.828125q-0.171875 0.078125 -0.515625 0.125q-0.34375 0.0625 -0.609375 0.0625q-2.078125 0 -2.078125 -2.171875l0 -4.25l-1.015625 0l0 -0.515625l1.015625 -0.453125l0.453125 -1.515625l0.625 0l0 1.65625l2.078125 0l0 0.828125l-2.078125 0l0 4.203125q0 0.640625 0.3125 0.984375q0.3125 0.34375 0.84375 0.34375zm3.4708252 0.765625l-1.078125 0l0 -7.125l1.078125 0l0 7.125zm-1.171875 -9.0625q0 -0.375 0.1875 -0.546875q0.1875 -0.171875 0.453125 -0.171875q0.265625 0 0.453125 0.171875q0.1875 0.171875 0.1875 0.546875q0 0.359375 -0.1875 0.546875q-0.1875 0.171875 -0.453125 0.171875q-0.265625 0 -0.453125 -0.171875q-0.1875 -0.1875 -0.1875 -0.546875zm9.621063 5.484375q0 1.75 -0.875 2.734375q-0.875 0.96875 -2.421875 0.96875q-0.953125 0 -1.703125 -0.4375q-0.734375 -0.453125 -1.140625 -1.296875q-0.40625 -0.84375 -0.40625 -1.96875q0 -1.734375 0.875 -2.703125q0.875 -0.984375 2.421875 -0.984375q1.484375 0 2.359375 1.0q0.890625 1.0 0.890625 2.6875zm-5.421875 0q0 1.375 0.546875 2.09375q0.546875 0.703125 1.59375 0.703125q1.0625 0 1.609375 -0.703125q0.5625 -0.71875 0.5625 -2.09375q0 -1.359375 -0.5625 -2.0625q-0.546875 -0.703125 -1.609375 -0.703125q-1.0625 0 -1.609375 0.703125q-0.53125 0.6875 -0.53125 2.0625zm12.206512 3.578125l0 -4.609375q0 -0.875 -0.40625 -1.296875q-0.390625 -0.4375 -1.234375 -0.4375q-1.125 0 -1.65625 0.609375q-0.515625 0.59375 -0.515625 2.0l0 3.734375l-1.078125 0l0 -7.125l0.890625 0l0.171875 0.96875l0.046875 0q0.328125 -0.53125 0.921875 -0.8125q0.609375 -0.296875 1.34375 -0.296875q1.296875 0 1.9375 0.625q0.65625 0.625 0.65625 1.984375l0 4.65625l-1.078125 0z" fill-rule="nonzero"/><path fill="#000000" d="m409.67627 85.09593q1.40625 0 2.171875 0.96875q0.78125 0.953125 0.78125 2.703125q0 1.765625 -0.78125 2.734375q-0.78125 0.96875 -2.171875 0.96875q-0.703125 0 -1.28125 -0.25q-0.578125 -0.265625 -0.96875 -0.796875l-0.078125 0l-0.21875 0.921875l-0.78125 0l0 -10.125l1.078125 0l0 2.453125q0 0.828125 -0.046875 1.484375l0.046875 0q0.765625 -1.0625 2.25 -1.0625zm-0.15625 0.90625q-1.109375 0 -1.609375 0.640625q-0.484375 0.625 -0.484375 2.125q0 1.515625 0.5 2.15625q0.515625 0.640625 1.609375 0.640625q1.0 0 1.484375 -0.71875q0.5 -0.71875 0.5 -2.078125q0 -1.40625 -0.5 -2.078125q-0.484375 -0.6875 -1.5 -0.6875zm6.073639 6.34375l-1.078125 0l0 -10.125l1.078125 0l0 10.125zm8.449188 -3.578125q0 1.75 -0.875 2.734375q-0.875 0.96875 -2.421875 0.96875q-0.953125 0 -1.703125 -0.4375q-0.734375 -0.453125 -1.140625 -1.296875q-0.40625 -0.84375 -0.40625 -1.96875q0 -1.734375 0.875 -2.703125q0.875 -0.984375 2.421875 -0.984375q1.484375 0 2.359375 1.0q0.890625 1.0 0.890625 2.6875zm-5.421875 0q0 1.375 0.546875 2.09375q0.546875 0.703125 1.59375 0.703125q1.0625 0 1.609375 -0.703125q0.5625 -0.71875 0.5625 -2.09375q0 -1.359375 -0.5625 -2.0625q-0.546875 -0.703125 -1.609375 -0.703125q-1.0625 0 -1.609375 0.703125q-0.53125 0.6875 -0.53125 2.0625zm10.644012 -3.671875q1.40625 0 2.171875 0.96875q0.78125 0.953125 0.78125 2.703125q0 1.765625 -0.78125 2.734375q-0.78125 0.96875 -2.171875 0.96875q-0.703125 0 -1.28125 -0.25q-0.578125 -0.265625 -0.96875 -0.796875l-0.078125 0l-0.21875 0.921875l-0.78125 0l0 -10.125l1.078125 0l0 2.453125q0 0.828125 -0.046875 1.484375l0.046875 0q0.765625 -1.0625 2.25 -1.0625zm-0.15625 0.90625q-1.109375 0 -1.609375 0.640625q-0.484375 0.625 -0.484375 2.125q0 1.515625 0.5 2.15625q0.515625 0.640625 1.609375 0.640625q1.0 0 1.484375 -0.71875q0.5 -0.71875 0.5 -2.078125q0 -1.40625 -0.5 -2.078125q-0.484375 -0.6875 -1.5 -0.6875z" fill-rule="nonzero"/></g></svg>