<?xml version="1.0" encoding="utf-8"?>
<!-- Generator: Adobe Illustrator 25.3.1, SVG Export Plug-In . SVG Version: 6.00 Build 0)  -->
<svg version="1.1" id="Layer_1" xmlns="http://www.w3.org/2000/svg" xmlns:xlink="http://www.w3.org/1999/xlink" x="0px" y="0px"
	 viewBox="0 0 857.9 492.1" style="enable-background:new 0 0 857.9 492.1;" xml:space="preserve">
<style type="text/css">
	.st0{clip-path:url(#SVGID_2_);}
	.st1{clip-path:url(#SVGID_4_);}
	.st2{clip-path:url(#SVGID_6_);}
	.st3{clip-path:url(#SVGID_8_);}
	.st4{clip-path:url(#SVGID_10_);}
	.st5{clip-path:url(#SVGID_12_);}
	.st6{fill:#2DCF78;}
	.st7{fill:#D919FF;}
	.st8{fill:#FF198B;}
	.st9{fill:#7919FF;}
	.st10{fill:#E0E500;}
	.st11{fill:#19A3FF;}
	.st12{fill:#9A52FF;}
	.st13{fill:#FF6719;}
</style>
<g id="Layer_2_1_">
	<g id="Layer_1-2">
		<g>
			<defs>
				<path id="SVGID_1_" d="M287.3,413.1h-57.7l120.8-122.3c42.7-43.5,112.6-44.1,156-1.3c0.4,0.4,0.9,0.9,1.3,1.3L628.5,413h-57.7
					l-92-93c-27.1-27.5-71.3-27.9-98.9-0.8c-0.3,0.3-0.5,0.5-0.8,0.8L287.3,413.1z"/>
			</defs>
			<clipPath id="SVGID_2_">
				<use xlink:href="#SVGID_1_"  style="overflow:visible;"/>
			</clipPath>
			<g class="st0">
				<g>
					<defs>
						<path id="SVGID_3_" d="M61.1,498.1c-13.6,0-26.5-0.2-39.3-0.6h-0.8l-0.2-1.3c-0.2-1.9-0.4-3.7-0.6-5.5l-0.6-6
							c-0.3-3.1-0.6-6-0.9-9c-0.3-3.4-0.7-6.7-1-10.1l-0.9-9.8l-0.2-1.9c-0.3-2.8-0.5-5.7-0.8-8.5v-0.1c-0.5-5.9-1-11.8-1.5-17.5
							l-0.5-5.8c-0.5-6-1-12-1.4-17.9l-0.1-1.7c-0.6-7-1.1-14-1.7-20.9l-0.5-6.2c-0.2-2.3-0.7-8.2-0.7-8.2l-0.4-4.2
							c-0.3-2.9-0.5-5.8-0.8-8.7c-0.4-5-0.9-9.9-1.4-14.8l-0.5-4.7c0.1-1.7,0.1-3.4,0.1-4.6v-0.8c0-0.4,0-1.5,0-1.5
							c0-1,0-1.9-0.1-2.9c0-0.8,0-1.5-0.1-2.3s-0.1-1.7-0.2-2.5c0-0.6-0.1-1.2-0.1-1.8L6,317.1c-0.1-0.9-0.2-1.9-0.3-2.8
							c-0.1-0.8-0.2-1.5-0.3-2.3c-0.1-0.5-0.1-1.1-0.2-1.6c-0.1-1-0.3-2-0.4-2.9l-0.1-0.5L4.5,306c-0.2-1.1-0.4-2.2-0.6-3.2
							c0,0-0.2-0.9-0.2-1.1c-0.3-1.5-0.6-2.9-1-4.3l-0.2-0.8c-0.2-0.6-0.3-1.3-0.5-1.9v-0.1v-0.4c0.2-5.1,0.5-10.3,0.7-15.5l0.2-6.4
							l0.2-6l0.1-3.3l0.1-3.4c0.2-8.1,0.3-15.7,0.3-23.1v-3h0.3l0.7,0.1c8.6,0.8,16.9,1.5,24.7,2.2l6.1,0.5l5.9,0.4
							c3.9,0.3,7.8,0.6,11.8,0.8l1.3,0.1c1.6,0.1,3.1,0.2,4.6,0.3l1.8,0.1l8.5,0.5l3.1,0.1c2.6,0.1,5.3,0.3,7.9,0.4l6.2,0.3
							l10.4,0.4l6.3,0.2l8.3,0.2l6.1,0.1l9.1,0.1h5.8h2.5c3.6,0,7.3,0,10.9,0c2.6,0,5.1-0.1,7.7-0.1l3.2-0.1l5-0.1l4.3-0.2l5.9-0.2
							l2.5-0.1c2.1-0.1,4.1-0.2,6.1-0.3l3.2-0.2l4.3-0.3l4.1-0.3l2.6-0.2l4.7-0.4l3.6-0.3l4.1-0.4l3-0.3c4.1-0.4,8-0.8,11.8-1.2
							l0.6-0.1c4.4-0.5,9-1,13.6-1.5h0.4c4.8-0.6,9.7-1.2,14.6-1.8h0.3c3.8-0.5,7.6-1,11.6-1.5c4.3-0.6,8.6-1.2,12.8-1.8l3.5-0.5
							l4.5-0.7l1.1-0.2l0.2,0.3l0-0.3l2.6-0.4c3.9-0.6,7.8-1.4,11.9-2.2l0.5-0.1l0,0l0.4-0.1l3.9-0.8l1.3-0.3c1.6-0.3,3.2-0.7,4.8-1
							h0.2c1.8-0.4,3.5-0.8,5.3-1.2l0.8-0.2l5-1.2c3.7-0.9,7.5-1.8,11.5-2.9l0.5-0.1l0,0c3.4-0.9,6.8-1.8,10.4-2.7l0.3-0.1h0.2
							l24.2-0.5l29.5-0.7l44.2-1l16.5-0.3l11.6-0.2l13.6-0.2l9.3-0.1l6.1-0.1l12.8-0.1l0,0h3.6l10.6-0.1l0,0H539l8.2,0.1h3.3h4.8h4
							h4.2l6,0.1l4.5,0.1l5.2,0.1l7.1,0.2l6.3,0.2l0.1,0.3l0.1-0.3l6.8,0.3h0.5c2.3,0.1,4.6,0.2,6.9,0.4h0.3
							c4.8,0.2,9.6,0.5,14.5,0.9l0.2,0.1c5.3,2,10,3.8,14.6,5.7c5.3,2.2,10.6,4.3,15.9,6.5l1.1,0.4l13.2,5.4l3.9,1.6l5.4,2.2
							l3.8,1.5c15.3,6.1,27.8,10.7,39.4,14.6l0.6,0.2v0.2v0.7c0.3,5.3,0.6,10.7,0.9,16l0.1,1.6c0.2,2.9,0.4,5.8,0.6,8.7l0.5,8.2
							c0.4,5.3,0.7,10.5,1.1,15.8v0.6c1.1,14.3,2.3,29.8,3.9,48.7l5.6,65.3l-67,57.4h-0.3c-13.3,0.5-29.1,1-45.5,1.6l-6.2,0.2
							c-15.1,0.5-30.2,0.9-45.4,1.4c-22.6,0.7-45.1,1.4-67.3,2l-17.8,0.6c-28.6,0.8-57.2,1.7-85.8,2.6l-1.1,1v-0.9l-2,0.1l-4.2,0.1
							l-7.1,0.2l-1.7,0.1l-8.9,0.3l-7,0.3l-8.3,0.4l-7.3,0.3l-8,0.4l-7.3,0.4l-9.3,0.5l-5.4,0.3l-14.3,0.8l-8.6,0.5
							c-11.1,0.7-22.2,1.3-33.4,2l-24.8,1.5l-14.2,0.8l-23.3,1.2l-5.1,0.3l-9.1,0.5l-6.3,0.3l-0.2-0.3v0.3l-3.2,0.2l-13.5,0.6
							c-13.4,0.6-25.2,1.1-36.2,1.5l-7.4,0.2l-7.2,0.2c-3.5,0.1-7,0.2-10.5,0.3l-5.9,0.1l-5,0.1C80.7,498,70.8,498.1,61.1,498.1z
							 M22.7,495.6c3.1,0.1,6.2,0.2,9.4,0.2h2.3c2.5,0,4.9,0.1,7.4,0.1h2.5c2.5,0,4.9,0.1,7.4,0.1h2.1h9.4c12.2,0,24.7-0.2,38.2-0.5
							h1.5l5-0.1c13.7-0.4,28.4-0.9,44.8-1.6l0.2,0.3v-0.3l2-0.1c-0.7-6.7-4-12.9-9.2-17.2l-37.1-31.8l-35.1-30.8
							c-6.3-5.3-14.2-8.2-22.4-8.1c-8.2-0.1-16.2,2.8-22.4,8.1L16,424.8l0.3,4.1l0.9,11.2c0.2,2.5,0.4,5,0.6,7.5l0.3,3.6l0.7,8
							l0.3,3.2c0.3,2.7,0.5,5.3,0.8,8l0.3,3.5c0.3,2.7,0.5,5.4,0.8,8.1l0.3,3.2C21.9,488.6,22.3,492.1,22.7,495.6z M50.9,404
							c8.7-0.1,17.1,2.9,23.7,8.5l36.7,32.1l35.6,30.5c5.6,4.6,9.1,11.3,9.9,18.5l7.5-0.3c0.4-8-3.1-15.9-9.7-21.5l-37.2-31.9
							l-1.5-1.4L79,406.3c-6.6-5.6-14.9-8.6-23.5-8.5c-8.6-0.1-16.9,2.9-23.5,8.5l-16.4,14.4l0.1,1.8l11.4-10
							C33.8,406.8,42.2,403.8,50.9,404L50.9,404z M55.5,396c9.1-0.1,17.8,3.1,24.7,8.9l36.8,32.2l1.5,1.4l37.2,31.9
							c7,6,10.8,14.4,10.4,22.9l7-0.3c1.8-9.4-1.9-19-9.8-25.8l-38.8-33.3l-1.6-1.5l-38.4-33.6c-6.8-5.8-15.6-9-24.6-8.9
							c-9-0.1-17.7,3-24.5,8.9l-20.2,17.6l0.1,1.9l15.3-13.4C37.7,399,46.5,395.8,55.5,396L55.5,396z M60,388.1
							c9.4-0.1,18.6,3.2,25.8,9.3l38.4,33.6l1.6,1.5l38.8,33.2c8.2,7.1,12.1,17.2,10.4,27.2l6.1-0.3c3.6-10.8,0-22.4-9.3-30.4
							l-42.1-36l-39.9-35c-7.1-6.1-16.2-9.4-25.5-9.3c-9.4-0.1-18.4,3.2-25.5,9.3L15,412l0.2,2l19.1-16.7
							C41.4,391.2,50.6,387.9,60,388.1L60,388.1z M64.3,380c9.8-0.1,19.3,3.3,26.8,9.7l41.6,36.5l40.4,34.5
							c9.7,8.2,13.5,20.4,10.1,31.7l6-0.3c5.5-12,2.2-25.5-8.5-34.7l-42-36l-1.7-1.6l-41.5-36.3c-7.4-6.3-16.9-9.8-26.6-9.6
							c-9.7-0.1-19.2,3.3-26.6,9.6l-27.7,24.3l0.1,1.8l22.8-20C45,383.2,54.5,379.8,64.3,380L64.3,380z M68.9,372
							c10.2-0.1,20.1,3.5,27.8,10.1l41.5,36.4l1.7,1.6l42,35.9c11,9.4,14.6,23.5,9.3,36l5.4-0.3c7.8-13,4.9-28.7-7.2-39.1
							l-43.6-37.4l-1.8-1.7L101,375.9c-7.7-6.6-17.5-10.1-27.7-10c-10.1-0.1-19.9,3.4-27.7,10l-31.4,27.5l0.2,2L41,382.1
							C48.8,375.4,58.7,371.8,68.9,372L68.9,372z M73.3,364.1c10.6-0.1,20.8,3.6,28.9,10.4l43.1,37.8l1.8,1.7l43.6,37.3
							c12.4,10.6,15.6,26.8,8.2,40.4l4.9-0.3c10.3-13.7,8-31.9-5.5-43.5l-47.1-40.4l-44.7-39.2c-8-6.8-18.2-10.5-28.7-10.4
							c-10.5-0.1-20.7,3.6-28.7,10.4l-35.3,30.8l0.2,1.8l30.4-26.6C52.5,367.6,62.8,363.9,73.3,364.1L73.3,364.1z M77.9,356.1
							c11-0.1,21.6,3.7,29.9,10.9l46.6,40.8l45.2,38.7c13.7,11.7,16.5,30.5,6.7,44.8l4.3-0.2c6.1-6.5,9.2-15.1,8.8-23.9
							c-0.5-9-4.9-17.4-12.3-23.8l-46.8-40.1l-1.9-1.8L112,360.9c-8.3-7.1-18.8-10.9-29.7-10.8c-10.9-0.1-21.4,3.7-29.7,10.8
							l-39,34.2l0.1,1.8l34.2-30C56.3,359.7,66.9,355.9,77.9,356.1L77.9,356.1z M82.3,348.2c11.4-0.1,22.4,3.8,31,11.2l46.3,40.6
							l1.9,1.8l46.8,40.1c7.8,6.7,12.4,15.6,13,25.1c0.4,8.7-2.5,17.2-8.1,23.9l3.2-0.2c7.9-7.1,12.2-16.3,12.1-26.1
							s-4.6-19.2-12.8-26.2L167.3,397l-2-1.9l-47.8-41.9C109,345.9,98,341.9,86.8,342c-11.3-0.1-22.2,3.8-30.8,11.1l-42.8,37.4
							l0.2,2.1l38-33.2C60,352.1,71,348.1,82.3,348.2L82.3,348.2z M86.7,340.1c11.7-0.1,23.1,4,32,11.6l47.8,41.9l2,1.8l48.4,41.4
							c8.6,7.4,13.4,17.2,13.5,27.6c0,9.8-4,19.1-11.1,25.9l2.7-0.2l2.4-2.1c8.6-7.3,13.3-17,13.3-27.2s-4.7-20.1-13.3-27.4
							l-50-42.8l-2.1-1.8L123,345.6c-8.8-7.6-20.1-11.7-31.7-11.5c-11.6-0.1-23,4-31.8,11.5l-46.6,40.8l0.1,1.8l41.6-36.5
							C63.6,344.1,75,340,86.7,340.1L86.7,340.1z M91.2,332.2c12.1-0.1,23.8,4.1,33,12l49.4,43.3l2.1,1.8l50,42.8
							c9,7.7,14,18,13.9,28.9s-5,21-13.9,28.7l-0.6,0.5l2.6-0.1l5.5-4.7c8.8-7.5,13.7-17.6,13.7-28.2s-4.9-20.7-13.7-28.2
							l-51.6-44.3l-2.1-1.9l-51-44.7c-9.1-7.8-20.8-12-32.8-11.9c-12-0.1-23.7,4.1-32.8,11.9l-50.4,44.2l0.2,1.9l45.5-39.9
							C67.4,336.3,79.1,332,91.2,332.2L91.2,332.2z M95.8,324.2c12.5-0.1,24.6,4.2,34.1,12.3l51,44.7l2.1,1.9l51.6,44.2
							c9.2,7.9,14.3,18.5,14.3,29.7s-5.1,21.8-14.3,29.7l-3.6,3.1l2.9-0.2l8.5-7.2c9.1-7.8,14.1-18.1,14.1-29.1s-5-21.4-14.1-29.2
							L189,378.5l-2.2-2l-52.6-46.1c-9.4-8.1-21.5-12.4-33.9-12.3c-12.4-0.1-24.4,4.2-33.9,12.3l-50.7,44.4h0.1l-3.6,3.2l0.1,1.8
							l49.3-43.2C71.2,328.4,83.3,324,95.8,324.2L95.8,324.2z M100.3,316.3c12.9-0.2,25.3,4.4,35.1,12.7l52.7,46.1l2.2,2l53.2,45.6
							c9.5,8.2,14.8,19,14.8,30.6s-5.2,22.4-14.8,30.6l-6.6,5.6l2.4-0.1l11.6-10c9.4-8,14.6-18.7,14.6-30.1s-5.2-22-14.6-30.1
							l-54.8-47l-2.3-2l-54.2-47.5c-9.7-8.3-22.1-12.8-34.9-12.6c-12.8-0.2-25.2,4.3-34.9,12.6l-52.4,45.9l-0.5,0.5l-5.1,4.5l0.2,2
							l53.2-46.6C75,320.6,87.5,316.1,100.3,316.3L100.3,316.3z M104.7,308.3c13.2-0.2,26.1,4.5,36.2,13.1l54.3,47.5l2.3,2l54.8,47
							c9.8,8.4,15.2,19.6,15.2,31.5s-5.4,23.1-15.2,31.5l-9.7,8.3l2.1-0.1l14.8-12.7c9.7-8.3,15-19.2,15-30.9s-5.3-22.7-15-30.9
							L203,366.2l-2.3-2.1l-55.7-48.9c-10-8.6-22.8-13.2-35.9-13.1c-13.1-0.2-25.9,4.5-35.9,13l-54.5,47.8l-1.2,1.1l-6,5.2l0.2,1.9
							l0.8-0.7h-0.1l56.2-49.2C78.6,312.7,91.4,308,104.7,308.3L104.7,308.3z M109,300.3c13.6-0.2,26.8,4.7,37.2,13.5l55.7,48.9
							l2.3,2.1l56.4,48.3c10.1,8.6,15.7,20.1,15.7,32.4s-5.6,23.8-15.7,32.4l-12.9,11.1l2.9-0.2l17.8-15.2
							c9.9-8.5,15.4-19.8,15.4-31.9s-5.5-23.3-15.4-31.9l-58.1-49.7l-2.4-2.2l-57.4-50.2c-10.3-8.8-23.5-13.5-37-13.4
							c-13.5-0.2-26.7,4.6-37,13.4l-55.4,48.6h0.1l-10.1,8.9l0.2,1.8l3.6-3.2l1.2-1.1l55.7-48.9C82.2,304.9,95.4,300.1,109,300.3
							L109,300.3z M113.5,292.4c14.5,0,28,4.9,38.2,13.8l57.3,50.2l2.4,2.2l58,49.7c10.4,8.9,16,20.7,16,33.3s-5.7,24.4-16,33.3
							l-15.8,13.6l2.6-0.2l20.8-17.8c10.2-8.8,15.8-20.4,15.8-32.8s-5.6-24-15.8-32.8l-59.7-51.1l-2.5-2.2L156,300
							c-10.1-8.9-23.6-13.8-38-13.8s-27.9,4.9-38,13.8l-57.1,50H23l-12.3,10.8l0.2,1.9l5.3-4.6l0.5-0.5l58.7-51.4
							C85.5,297.3,99.1,292.4,113.5,292.4L113.5,292.4z M118,284.5c14.9,0,28.8,5,39.3,14.2l59,51.7l2.5,2.2l59.6,51.1
							c10.6,9.1,16.5,21.3,16.5,34.2s-5.9,25.1-16.5,34.2l-18.9,16.2l2.3-0.1l24.1-20.6c10.5-9,16.3-20.9,16.3-33.5
							s-5.8-24.7-16.3-33.7l-61.3-52.5l-2.5-2.3l-60.6-53.1c-10.4-9.1-24.2-14.1-39-14.1s-28.6,5-39.1,14.1l-59.3,52l-1.2,1.1
							l-12.7,11.1l0.2,2L18,352l0.5-0.5l60.3-52.8C89.2,289.5,103.1,284.4,118,284.5L118,284.5z M122.6,276.3
							c15.2,0,29.5,5.2,40.2,14.6l60.6,53.1l2.5,2.3l61.2,52.4c11,9.4,17,21.9,17,35.1s-6,25.7-17,35l-22.2,19l2.7-0.2l27-23.1
							c10.8-9.2,16.7-21.5,16.7-34.5s-6-25.3-16.7-34.5l-62.8-53.9l-2.6-2.4l-62.1-54.4c-10.7-9.4-24.9-14.5-40.1-14.5
							s-29.4,5.2-40.1,14.5l-60.3,52.7l-0.5,0.5L10,352.2l0.2,1.9l10.3-9.1l1.2-1.1l60.6-53.1C93,281.5,107.3,276.3,122.6,276.3
							L122.6,276.3z M127,268.5c15.6,0,30.3,5.3,41.3,15l62.2,54.4l2.6,2.3l62.8,53.8c11.2,9.6,17.4,22.4,17.4,36s-6.2,26.4-17.4,36
							l-25.1,21.5l2.3-0.1l30.2-25.9c11.1-9.5,17.2-22.1,17.2-35.5s-6.1-26-17.2-35.5l-64.4-55.1l-2.8-2.4l-63.7-55.8
							c-11-9.6-25.6-14.9-41.1-14.9s-30.2,5.3-41.1,14.9l-61.7,54.1l-0.5,0.5L9.6,348l0.2,1.9l11.9-10.5h-0.1l64.1-56
							C96.7,273.7,111.4,268.4,127,268.5L127,268.5z M131.3,260.5c16,0,31.1,5.5,42.4,15.4l63.7,55.7l2.7,2.3l64.4,55.1
							c11.5,9.9,17.9,23,17.9,36.9s-6.3,27-17.9,36.9l-28.3,24.2l2.8-0.2l33.1-28.5c11.3-9.7,17.6-22.6,17.6-36.4
							s-6.2-26.6-17.6-36.4l-66-56.5l-2.7-2.5l-65.2-57.1c-11.2-9.8-26.2-15.2-42.2-15.2s-30.9,5.4-42.2,15.2l-64,56l-1.2,1.1
							L9.2,343.9l0.2,1.8l14.1-12.4h-0.1L89,275.9C100.3,266,115.3,260.5,131.3,260.5L131.3,260.5z M136,252.6
							c16.4,0,31.9,5.6,43.4,15.7l65.3,57.1l2.7,2.4l66,56.5c11.8,10.1,18.2,23.5,18.2,37.8s-6.5,27.7-18.2,37.8l-31.3,26.8l2.5-0.1
							l36.2-31.1c11.6-9.9,18-23.2,18-37.2s-6.4-27.3-18-37.2l-67.6-57.9l-2.8-2.5l-66.9-58.5c-11.5-10.1-26.9-15.7-43.2-15.7
							s-31.7,5.6-43.2,15.7l-65,56.9l-0.5,0.5L8.8,339.6l0.2,1.9l17.1-15l1.2-1.1l65.3-57.2C104.1,258.1,119.6,252.5,136,252.6
							L136,252.6z M140.4,244.6c16.8,0,32.6,5.7,44.4,16.1l66.9,58.5l2.8,2.5l67.6,57.9c12,10.3,18.7,24,18.7,38.7
							s-6.7,28.4-18.7,38.7l-34.4,29.4l2.6-0.1l39.4-33.8c11.9-10.2,18.5-23.7,18.5-38.1s-6.6-28-18.5-38.1l-69.2-59.3l-2.9-2.5
							l-68.5-59.9c-6.7-5.8-14.5-10.2-22.9-12.8c-3.1,0.1-6.2,0.2-9.3,0.3l-3.3,0.1l-3.6,0.1l-4.3,0.1h-7.2h-6.3h-5.8h-4.4
							c-7.9,2.6-15.1,6.8-21.4,12.3l-66.6,58.3h0.1L8.4,335.4l0.2,1.9l18.7-16.4h-0.1L96,260.6C107.8,250.3,123.6,244.6,140.4,244.6
							L140.4,244.6z M171.4,241.5c7,2.7,13.5,6.6,19.1,11.6l68.5,59.9l2.9,2.5l69.2,59.3c12.3,10.6,19.1,24.6,19.1,39.6
							s-6.8,29-19.1,39.6l-37.5,32.1l2.8-0.2l42.2-36.2c12.2-10.4,18.9-24.3,18.9-39s-6.7-28.6-18.9-39.1L267.7,311l-2.9-2.6
							l-70.1-61.3c-2.7-2.4-5.6-4.5-8.6-6.4l-2,0.1C179.8,241,175.5,241.3,171.4,241.5L171.4,241.5z M189.2,240.5
							c2.4,1.6,4.6,3.3,6.8,5.1l70.1,61.2l2.9,2.6l70.8,60.7c12.6,10.8,19.6,25.2,19.6,40.5s-7,29.7-19.6,40.5l-40.3,34.6l1.8-0.1
							l45.7-39.1c12.4-10.6,19.3-24.8,19.3-39.9s-6.8-29.3-19.3-40l-72.4-62l-3-2.7l-71.2-62.4l-4.8,0.4
							C193.4,240.1,191.3,240.3,189.2,240.5L189.2,240.5z M272.8,300.6l3,2.7l72.4,62c13,11,20,25.7,20,41.3s-7.1,30.3-20,41.3
							l-43.8,37.5l2.9-0.2l48.7-41.6c12.7-10.9,19.7-25.4,19.7-40.8s-7-29.9-19.7-40.8l-74-63.4l-3.1-2.8l-65.5-57.4l-2.6,0.2
							l-6,0.6l-1.7,0.1L272.8,300.6z M280,294.4l3.1,2.8l74,63.4c13.2,11.3,20.4,26.3,20.4,42.3s-7.2,31-20.4,42.3l-46.7,40l2.4-0.1
							l51.8-44.5c13-11.2,20.2-26,20.2-41.8s-7.2-30.6-20.2-41.8L289,292.4l-3.1-2.8L226,237.1l-1.6,0.2l-8.6,0.9L280,294.4z
							 M290.2,291l75.6,64.7c13.5,11.5,20.9,26.9,20.9,43.2s-7.4,31.7-20.9,43.2l-49.9,42.8l2.7-0.1l54.9-47
							c13.3-11.4,20.6-26.5,20.6-42.5s-7.3-31.3-20.6-42.7l-77.2-66.2l-3.2-2.9l-54.5-47.7l-3.8,0.4l-2.4,0.3l-3.8,0.4L290.2,291z
							 M297.6,284.9l77.2,66.2c13.8,11.7,21.4,27.4,21.4,44.1s-7.6,32.2-21.3,44l-53,45.4l2.2-0.1l58-49.7
							c13.6-11.6,21.1-27.1,21.1-43.5s-7.5-31.9-21.1-43.5l-78.8-67.5l-3.3-3l-49.1-43l-3.3,0.4l-4.3,0.5l-2,0.2L297.6,284.9z
							 M304.5,278.8l78.8,67.5c14,12,21.8,28,21.8,45s-7.7,33-21.8,45l-56.2,48l2.5-0.1l61.2-52.5c13.8-11.9,21.5-27.6,21.5-44.4
							s-7.6-32.6-21.5-44.4l-80.4-68.9l-3.3-3l-43.9-38.5l-2.6,0.4l-5.9,0.8l-1.4,0.2L304.5,278.8z M308.4,269.6l3.3,3l80.4,68.8
							c14.3,12.2,22.1,28.5,22.1,45.9s-7.9,33.6-22.1,45.9L332.8,484l2.9-0.1l64.1-54.9c14.1-12.1,21.9-28.2,21.9-45.4
							s-7.8-33.2-21.9-45.4l-82-70.3l-3.4-3l-38.9-34.1c-3.2,0.5-6.4,0.9-9.7,1.4L308.4,269.6z M319,266.6l82,70.2
							c14.6,12.5,22.6,29.1,22.6,46.8s-8,34.3-22.6,46.8l-62.2,53.2l2.3-0.1l67.4-57.8c14.4-12.3,22.4-28.7,22.4-46.1
							s-7.9-33.9-22.4-46.3l-83.6-71.7l-3.5-3.1l-33.9-29.6l-1.6,0.3l-4.2,0.7l-2.4,0.4l-1.5,0.2L319,266.6z M326.1,260.2l83.6,71.6
							c14.9,12.8,23.1,29.8,23.1,47.8s-8.2,34.9-23,47.6l-65.6,56.2l2.6-0.1l70.5-60.5c14.7-12.6,22.8-29.3,22.8-47.1
							s-8.1-34.5-22.8-47.1l-85.2-73l-3.5-3.1l-29.2-25.6l-1.6,0.3l-3.8,0.7l-4,0.7L326.1,260.2z M333.3,254.1l85.2,73
							c15.1,13,23.5,30.2,23.5,48.6s-8.4,35.6-23.5,48.6l-68.7,58.9l2.2-0.1l73.9-63.2c15-12.8,23.3-29.9,23.3-48s-8.3-35.2-23.3-48
							l-86.8-74.4l-3.6-3.2l-24.8-21.7l-1.5,0.3l-3.9,0.8l-3.6,0.8L333.3,254.1z M340.3,247.9l86.8,74.3c15.5,13.2,24,30.8,24,49.5
							s-8.5,36.3-23.9,49.5l-72,61.7l2.5-0.1l77-65.9c15.2-13,23.6-30.4,23.6-48.8s-8.4-35.9-23.6-49l-88.4-75.7l-3.7-3.3
							l-20.7-18.1l-1.4,0.3c-1,0.2-2.1,0.5-3.1,0.7l-4.3,1L340.3,247.9z M347.5,241.8l88.4,75.7c15.7,13.5,24.3,31.4,24.3,50.4
							s-8.6,36.9-24.3,50.3l-75.1,64.4l2.5-0.1l80.2-68.7c15.5-13.3,24.1-31,24.1-49.8s-8.6-36.5-24.1-49.8l-90-77.1l-3.7-3.3
							l-16.7-14.6l-3.3,0.9l-3.9,1l-1.7,0.4L347.5,241.8z M354.7,235.6l90,77.1c16,13.7,24.8,31.9,24.8,51.3s-8.8,37.6-24.8,51.3
							l-78.4,67.2l2.7-0.1l83.3-71.4c15.8-13.5,24.5-31.6,24.5-50.7s-8.7-37.2-24.5-50.7l-91.6-78.5l-3.8-3.4l-12.9-11.3l-4.6,1.2
							l-4,1.1L354.7,235.6z M361.9,229.5l91.6,78.5c16.3,13.9,25.2,32.5,25.2,52.2s-9,38.3-25.2,52.2l-81.4,69.8l2.7-0.1l86.5-74.1
							c16.1-13.8,25-32.1,25-51.6s-8.9-37.8-25-51.6l-93.2-79.9l-3.8-3.5l-6.4-5.6l-11.3,0.2L361.9,229.5z M365.4,219.9l3.8,3.5
							l93.2,79.9c16.5,14.2,25.7,33,25.7,53.1s-9.1,38.9-25.7,53.1l-84.6,72.5l2.1-0.1l89.9-76.9c16.3-14,25.3-32.6,25.3-52.4
							s-9-38.5-25.4-52.6l-94.8-81.2l-3.7-3.3l-10.6,0.2L365.4,219.9z M376.1,217.2l94.8,81.2c16.8,14.4,26.1,33.6,26,54
							s-9.3,39.5-26,53.9l-88.1,75.4l2.7-0.1l93-79.6c16.7-14.3,25.8-33.2,25.8-53.4s-9.2-39.2-25.8-53.4l-93.5-80.1l-11,0.2
							L376.1,217.2z M479.8,293.8c17.1,14.6,26.5,34.1,26.5,54.9s-9.4,40.2-26.5,54.9l-91.2,78.1l2.4-0.1l96.3-82.5
							c17-14.5,26.3-33.8,26.3-54.3s-9.3-39.8-26.3-54.3l-88.2-75.6l-11.2,0.2L479.8,293.8z M488.5,288.9
							c17.4,14.9,26.9,34.7,26.9,55.8s-9.6,40.9-27,55.8l-94.4,80.9l2.2-0.1l1.7-1.5v0.2l98.1-84c17.2-14.7,26.7-34.3,26.7-55.1
							s-9.5-40.5-26.7-55.3l-83-71.1l-11.2,0.2L488.5,288.9z M497.3,284.1c17.7,15.1,27.4,35.3,27.4,56.7s-9.8,41.5-27.4,56.6
							l-97.8,83.8l2.5-0.1l3.4-2.9v0.2l99.8-85.4c17.5-15,27.2-34.9,27.2-56s-9.7-41.2-27.2-56.2l-77.8-66.6l-11.3,0.2L497.3,284.1z
							 M506.3,279.3c18,15.4,27.9,35.9,27.9,57.6s-9.9,42.1-27.9,57.5l-101,86.6l1.9-0.1l5.2-4.5v0.3l101.3-86.7
							c17.8-15.2,27.6-35.5,27.6-57s-9.8-41.8-27.6-57l-72.6-62.2l-4,0.1l-7,0.2L506.3,279.3z M410.2,480.9h0.3v-0.2L410.2,480.9z
							 M514.9,274.6c18.2,15.6,28.2,36.4,28.2,58.5s-10,42.9-28.2,58.5l-104.4,89.4l2.3-0.1l6.8-5.8v0.3l102.9-88.1
							c18.1-15.5,28-36.1,28-57.9s-10-42.5-28-58l-67.3-57.6l-11.2,0.2L514.9,274.6z M415.8,480.7l2.3-0.1l8.6-7.3v0.3l104.5-89.5
							c18.3-15.7,28.5-36.5,28.5-58.7s-10.1-43.1-28.5-58.9l-62-53.1l-11.1,0.2l65.7,56.3c18.5,15.9,28.7,36.9,28.7,59.4
							s-10.2,43.5-28.7,59.4l-106,90.8v-0.3L415.8,480.7z M421.2,480.6l2.5-0.1l10.2-8.7v0.3L540,381.1c18.7-16,28.9-37.2,28.9-59.7
							s-10.3-43.7-28.9-59.7l-56.7-48.5l-11.2,0.2l60.4,51.7c18.8,16.1,29.2,37.5,29.1,60.3s-10.4,44.1-29.1,60.2l-107.6,92.2v-0.3
							L421.2,480.6z M426.7,480.4l3-0.1l11.6-9.9v0.3L549,378.3c18.9-16.2,29.3-37.7,29.3-60.6s-10.4-44.4-29.3-60.6l-51.5-44.1
							l-7,0.1l-4.3,0.1l55,47.1c19.1,16.3,29.6,38,29.6,61.2s-10.5,44.9-29.6,61.2l-109.2,93.6v-0.3L426.7,480.4z M432.7,480.2
							l1.9,0l13.6-11.7v0.3l109.3-93.6c19.2-16.4,29.7-38.2,29.7-61.4s-10.5-45.1-29.7-61.6l-45.9-39.3h-1.9l-9.3,0.1l49.9,42.7
							c19.3,16.6,30,38.6,30,62.1s-10.6,45.5-30,62.1l-110.9,95v-0.3L432.7,480.2z M437.5,480.1l2.5-0.1l15.3-13.1v0.3l110.9-95
							c19.5-16.6,30.2-38.8,30.2-62.3s-10.7-45.8-30.2-62.5l-40.4-34.6h-7.1h-4.2l44.2,37.9c19.6,16.8,30.4,39.2,30.4,63
							s-10.8,46.1-30.4,62.9l-112.5,96.3v-0.3L437.5,480.1z M443,479.9l2.5-0.1l16.9-14.5v0.3L575,369.3
							c19.8-16.9,30.7-39.4,30.7-63.3s-10.9-46.4-30.7-63.3l-34.8-29.8h-11.5l38.7,33.1c19.9,17.1,30.9,39.8,30.9,63.9
							s-11,46.7-30.9,63.7l-114.1,97.6V471L443,479.9z M448.6,479.7l2.6-0.1l18.6-15.9v0.3l114.1-97.8c20-17.2,31.1-40,31.1-64.2
							s-11-47-31.1-64.2l-29.3-25h-4.6h-6.9l33.1,28.4c20.2,17.3,31.3,40.3,31.3,64.8s-11.1,47.5-31.3,64.8l-115.7,99v-0.3
							L448.6,479.7z M454.2,479.6l2.5-0.1l20.2-17.3v0.3l115.7-99.1c20.3-17.4,31.5-40.5,31.5-65.1s-11.2-47.7-31.5-65.1L569.2,213
							c-3.3-0.1-6.6-0.1-9.9-0.2h-1.8l27.6,23.6c20.5,17.5,31.8,40.8,31.8,65.6s-11.3,48.1-31.8,65.6L467.9,468.2v-0.3L454.2,479.6z
							 M459.8,479.4l2.3-0.1l21.9-18.8v0.3l117.3-100.4c20.6-17.7,32-41.2,31.9-66.1s-11.3-48.3-31.9-65.9l-17.4-14.9h-0.1
							c-2.1-0.1-4.1-0.1-6.1-0.2h-0.4c-1.7-0.1-3.4-0.1-5-0.1l21.7,18.6c20.7,17.8,32.1,41.4,32.1,66.6s-11.4,48.8-32.1,66.5
							L475,466.6v-0.3L459.8,479.4z M465.1,479.2l2.5-0.1l23.6-20.2v0.3L610,357.4c20.9-17.9,32.4-41.7,32.4-67s-11.5-49-32.4-66.9
							l-11.1-9.5l-5.4-0.2l-6.4-0.2h-0.2l15.6,13.4c21,18,32.6,41.9,32.6,67.4s-11.6,49.5-32.6,67.6L482.1,464.9v-0.3L465.1,479.2z
							 M470.6,479.1l2.4-0.1l25.4-21.8v0.3l120.5-103.2c21.2-18.1,32.8-42.2,32.8-67.8s-11.7-49.7-32.8-67.8l-4.5-3.9
							c-2.4-0.1-4.8-0.3-7.1-0.4h-0.4l-4.8-0.2l9.3,7.9c21.3,18.2,33,42.5,33,68.3s-11.7,50.1-33,68.5L489.2,463.4v-0.3L470.6,479.1
							z M476,478.9l2.7-0.1l26.9-23.1v0.3l122.1-104.6c20.3-17.5,32.1-40.6,33.1-65.2c1-24.1-8.4-47.6-26.5-66
							c-4.2-1.7-8.4-3.3-12.6-4.9l-4.2-0.2l2.6,2.2c21.6,18.5,33.5,43.1,33.5,69.3s-11.9,50.8-33.5,69.2L496.4,461.6v-0.3L476,478.9
							z M481.6,478.7l2.5-0.1l28.5-24.5v0.3l123.7-106c37.4-32.1,44.5-81.6,17.3-120.3l-1.4-0.6c-4.6-1.9-9.2-3.8-13.8-5.7
							c16.6,18.3,25.2,41.1,24.2,64.4c-1,25.1-13,48.8-33.8,66.6L503.6,460.1v-0.3L481.6,478.7z M487.1,478.6l2-0.1l30.5-26.1v0.2
							l125.3-107.3c17-14.6,28.2-32.9,32.3-53.1c4-19.6,1.2-40-8.2-57.7l-9.8-4l-2.6-1.1c12.6,19.1,17.5,40.7,14.2,62.5
							c-3.4,22.1-14.9,42.1-33.4,58L510.8,458.6v-0.3L487.1,478.6z M492.2,478.5l2.8-0.1l32-27.5v0.3l126.9-108.7
							c31.5-27,42.5-66.2,28.9-102.5l-7.4-2.9l-3.6-1.5c8.7,17.6,11.3,37.7,7.3,57c-4.2,20.6-15.6,39.3-33,54.2l-128.4,110v-0.3
							L492.2,478.5z M498,478.3l2.5-0.1l33.7-28.8v0.2l128.5-110.1c29.1-25,41.1-60.4,32.1-94.8l-1.9-0.7c-2.6-1-5.2-2-7.8-3
							c13,36.5,1.6,75.9-30,103l-130,111.3V455L498,478.3z M503.6,478.1l2.6-0.1l35.2-30.2v0.3l130.1-111.5
							c27.1-23.3,39.6-55.4,34.2-88l-5.8-2.1l-2.8-1c8.6,34.7-3.7,70.4-33,95.4L532.3,453.7v-0.3L503.6,478.1z M509.1,478l2.5-0.1
							l36.9-31.6v0.3l131.7-112.9c25-21.5,38-51.1,35.5-81.3l-1.6-0.5l-1.8-0.6c-1.2-0.4-2.5-0.9-3.7-1.3l-1.1-0.4
							c5,32.4-8,65.6-35,88.7L539.4,452.3V452L509.1,478z M514.6,477.8l2.1-0.1l38.8-33.3v0.2l133.3-114.1
							c14.7-12.6,25.5-28.2,31.3-45.1c-0.4-5.5-0.7-11-1-16.4l-0.7-12.2l-0.2-3.7l-0.4-0.1c2.2,30.6-11,60.5-36.2,82.1L546.7,450.6
							v-0.3L514.6,477.8z M519.8,477.7l2.5-0.1l40.5-34.7v0.3l134.9-115.6c9.3-7.9,17.2-17.3,23.4-27.8l-0.7-9.7
							c-6.5,16.2-17,30.6-30.3,41.9L553.7,448.8v-0.3L519.8,477.7z M525.3,477.5l2.5-0.1l42.2-36.1v0.3l136.5-117
							c5.6-4.8,10.8-10.2,15.4-16c-0.2-1.9-0.3-3.8-0.4-5.7c-6.1,9.8-13.7,18.5-22.5,26l-138,118.2V447L525.3,477.5z M530.8,477.3
							l2.5-0.1l43.8-37.5v0.3l138.1-118.4c2.4-2.1,4.8-4.3,7.1-6.6l-0.3-3.7c-4.4,5.3-9.2,10.2-14.4,14.6L568,445.6v-0.3
							L530.8,477.3z M536.3,477.2l2.7-0.1l45.4-38.9v0.3L722.7,320l-0.2-2.4c-2,2-4,3.8-6,5.5l-141.2,121v-0.3L536.3,477.2z
							 M542.1,477l2-0.1l47.3-40.5v0.3L723,324l-0.1-1.7L582.5,442.5v-0.3L542.1,477z M547.1,476.8l2.5-0.1l49-42v0.3l124.7-106.9
							l-0.2-1.9L589.5,440.9v-0.3L547.1,476.8z M552.6,476.7l2.5-0.1l50.6-43.4v0.4l118-101.1l-0.2-1.9L596.7,439.2v-0.4
							L552.6,476.7z M558.1,476.5l2.7-0.1l52.2-44.7v0.4L724,337l-0.2-2.1L603.8,437.6v-0.4L558.1,476.5z M563.9,476.3l2.3-0.1
							l54-46.2v0.3l104.2-89.3l-0.1-1.7l-113.1,96.9v-0.4L563.9,476.3z M569.2,476.2l2.4-0.1l55.8-47.7v0.3l97.5-83.5l-0.2-1.9
							l-106.3,91.1v-0.4L569.2,476.2z M574.5,476l2.6-0.1l57.4-49.1v0.4l90.6-77.6l-0.2-2l-99.5,85.3v-0.4L574.5,476z M580.1,475.9
							l2.6-0.1l59-50.5v0.4l83.7-71.7l-0.2-2l-92.7,79.4v-0.4L580.1,475.9z M585.7,475.7l2.5-0.1l60.6-52v0.4l77-66l-0.2-1.9
							l-85.9,73.5v-0.4L585.7,475.7z M591.2,475.5l2.3-0.1l62.5-53.5v0.4l70.2-60.2l-0.2-1.8l-79.1,67.8v-0.4L591.2,475.5z
							 M596.5,475.4l2.7-0.1l64-54.8v0.3l63.4-54.3l-0.2-2l-72.3,61.9v-0.4L596.5,475.4z M602.2,475.2l2.2-0.1l65.8-56.4v0.4
							l56.7-48.6l-0.1-1.6l-65.5,56.1v-0.3L602.2,475.2z M607.4,475l2.7-0.1l67.3-57.7v0.4l49.8-42.7l-0.2-2.1l-58.8,50.4v-0.3
							L607.4,475z M613.1,474.9l2.5-0.1l69.1-59.1v0.4l42.9-36.8l-0.2-2l-51.9,44.5v-0.4L613.1,474.9z M618.7,474.7l2.2-0.1
							l70.9-60.7v0.4l36.2-31l-0.1-1.6l-45,38.5v-0.4L618.7,474.7z M623.9,474.5l2.6-0.1l72.4-62.1v0.3l29.5-25.2l-0.2-1.9
							l-38.3,32.8V418L623.9,474.5z M629.5,474.3l2.6-0.1l74-63.4v0.3l22.6-19.4l-0.2-2l-31.6,27v-0.4L629.5,474.3z M635.1,474.1
							l2.4-0.1l75.7-64.9v0.4l15.8-13.6l-0.2-1.8l-24.8,21.1v-0.4L635.1,474.1z M640.5,473.9l2.5-0.1l77.3-66.2v0.4l9.1-7.8
							l-0.2-1.9l-18,15.4v-0.4L640.5,473.9z M646,473.8l2.5-0.1l79-67.7v0.4l2.2-1.9l-0.2-1.9l-11.2,9.6v-0.4L646,473.8z
							 M651.6,473.6l2.5-0.1l76.1-65.2l-0.1-1.6l-4.3,3.7v-0.4L651.6,473.6z M657.1,473.4l2.4-0.1l70.9-60.8l-0.2-1.9L657.1,473.4z
							 M662.6,473.2l2.5-0.1l65.7-56.3l-0.2-1.9L662.6,473.2z M8.3,332.9l20.9-18.2h-0.1L99.5,253c5.2-4.5,11.1-8.2,17.5-10.9
							l-6.3-0.1c-2.3,1.5-4.4,3.2-6.5,5L36,306.6l-0.5,0.5L8.4,330.9C8.4,330.9,8.4,332.6,8.3,332.9z M8.3,327.4c0,0.3,0,0.6,0,0.9
							L31,308.5h-0.1l72-63c1.4-1.2,2.9-2.4,4.5-3.6l-3.1-0.1l-66.7,58.4h0.2L8.4,326.2L8.3,327.4z M8.3,323.7L8,323.9h0.2
							l24.7-21.7h-0.2l68.9-60.4l-2.2-0.1l-59.8,52.4h0.2L8.2,321.8L8.3,323.7z M7.9,317.6c0,0.4,0.1,0.9,0.1,1.3v0.6L34.7,296h-0.2
							l62.2-54.4h-2.4l-52.9,46.2h0.2L7.9,317.4L7.9,317.6z M7.7,315.1l28.8-25.3h-0.2l55.2-48.3l-2.2-0.1l-46,40.3h0.2l-36,31.5
							C7.5,313.3,7.7,314.9,7.7,315.1L7.7,315.1z M6.9,309.1c0.1,0.6,0.2,1.2,0.2,1.8l31.2-27.3h-0.2l48.3-42.3l-2.3-0.1l-39.2,34.3
							h0.2L6.9,309.1z M6.3,305.1c0.1,0.6,0.2,1.2,0.3,1.8l33.7-29.5H40l41.5-36.3l-2.2-0.1L47,269.3h0.2L6.3,305.1z M5.9,303
							l36.2-31.8h-0.2l34.6-30.3l-2-0.1l-25.6,22.4h0.2L5.6,301.3C5.6,301.3,5.9,302.8,5.9,303L5.9,303z M4.8,297.6
							c0.1,0.5,0.2,1,0.4,1.5L44,265.1h-0.2l27.9-24.5l-2.3-0.1L50.7,257h0.2L4.7,297.4L4.8,297.6z M3.9,294.2
							c0.1,0.3,0.1,0.6,0.2,0.9v0.2l41.7-36.5h-0.2l21.1-18.5l-2.2-0.1l-11.9,10.5h0.2L4,293.5L3.9,294.2z M4.1,290.9l43.6-38.3
							h-0.2l14.3-12.5l-2.3-0.1l0,0l-5.2,4.5h0.2L4.2,288.6L4.1,290.9z M4.3,286l45.3-39.7h-0.2l7.5-6.6l-2-0.1L4.4,283.9L4.3,286z
							 M4.5,281.3l46.9-41.1h-0.2l0.8-0.7l-2-0.1L4.6,279.1L4.5,281.3z M4.7,276.5l42.6-37.4h-0.6l-0.1-0.3v0.3l-1.5-0.1L4.8,274.4
							L4.7,276.5z M4.9,269.8l-0.1,2l37.6-33l-2.1-0.2L4.9,269.8L4.9,269.8z M5,267.2l32.8-28.7l-2.1-0.2L5,265.1L5,267.2z
							 M5.1,262.5L33,238.1l-2.2-0.2L5.2,260.4L5.1,262.5z M5.2,257.8l23-20.1l-2.3-0.2L5.3,255.6L5.2,257.8z M5.3,253.1l18-15.8
							l-2.1-0.2L5.4,251.1L5.3,253.1z M5.4,248.5l13.2-11.6l-2.1-0.2l-11.1,9.7L5.4,248.5z M5.4,243.8l8.4-7.4l-2.1-0.2l-6.3,5.5
							L5.4,243.8z M5.4,239.2l3.7-3.2l-2.2-0.2l-1.4,1.2L5.4,239.2z"/>
					</defs>
					<clipPath id="SVGID_4_">
						<use xlink:href="#SVGID_3_"  style="overflow:visible;"/>
					</clipPath>
					<g class="st1">
						<g>
							<defs>
								<rect id="SVGID_5_" x="-3" y="205.8" width="740.8" height="297.2"/>
							</defs>
							<clipPath id="SVGID_6_">
								<use xlink:href="#SVGID_5_"  style="overflow:visible;"/>
							</clipPath>
							<g class="st2">
								
									<image style="overflow:visible;enable-background:new    ;" width="1544" height="620" xlink:href="48249163416EC3A1.png"  transform="matrix(0.48 0 0 0.48 -3 205.52)">
								</image>
							</g>
						</g>
					</g>
				</g>
			</g>
		</g>
		<g>
			<defs>
				<path id="SVGID_7_" d="M570.8,80.1h57.7L507.8,202.4c-42.7,43.5-112.6,44.1-156,1.3c-0.4-0.4-0.9-0.9-1.3-1.3L229.6,80.1h57.7
					l92,93c27.1,27.5,71.3,27.9,98.8,0.8c0.3-0.3,0.6-0.6,0.8-0.8L570.8,80.1z"/>
			</defs>
			<clipPath id="SVGID_8_">
				<use xlink:href="#SVGID_7_"  style="overflow:visible;"/>
			</clipPath>
			<g class="st3">
				<g>
					<defs>
						<path id="SVGID_9_" d="M797.1-4.9c13.6,0,26.5,0.2,39.3,0.6l0.7,0l0.2,1.3c0.2,1.9,0.4,3.7,0.6,5.5l0.7,6
							c0.3,3.1,0.6,6.1,0.9,9c0.3,3.4,0.7,6.7,1,10.1l0.9,9.8l0.2,1.9c0.3,2.8,0.5,5.7,0.8,8.5v0.1c0.5,5.9,1,11.8,1.5,17.5l0.5,5.8
							c0.5,6,1,12,1.5,17.9l0.1,1.7c0.6,7,1.1,14,1.7,20.9l0.5,6.2c0.2,2.3,0.7,8.2,0.7,8.2l0.4,4.2c0.3,2.9,0.5,5.8,0.8,8.7
							c0.4,4.9,0.9,9.9,1.4,14.8l0.5,4.7c-0.1,1.7-0.1,3.4-0.1,4.6v0.8c0,0.4,0,1.4,0,1.4c0,1,0,1.9,0.1,2.9c0,0.8,0,1.5,0.1,2.3
							s0.1,1.7,0.2,2.5l0.1,1.8l0.1,1.1c0.1,0.9,0.2,1.9,0.3,2.8l0.3,2.3c0.1,0.6,0.1,1.1,0.2,1.6c0.1,1,0.3,2,0.4,2.9l0.1,0.5
							c0,0.3,0.1,0.6,0.2,0.9c0.2,1.1,0.4,2.2,0.6,3.2l0.2,1.1c0.3,1.5,0.6,2.9,1,4.3l0.2,0.8c0.2,0.6,0.3,1.2,0.5,1.9v0.1v0.4
							c-0.2,5.1-0.5,10.3-0.7,15.4l-0.2,6.4l-0.2,6l-0.1,3.3l-0.1,3.4c-0.2,8.1-0.3,15.6-0.3,23.1v3h-0.3l-0.7-0.1
							c-8.6-0.8-16.9-1.5-24.7-2.2l-6.1-0.5l-5.9-0.5c-3.9-0.3-7.8-0.6-11.8-0.8l-1.3-0.1l-4.6-0.3l-1.8-0.1
							c-2.8-0.2-5.7-0.3-8.5-0.5l-3.1-0.2l-7.9-0.4l-6.2-0.2c-3.5-0.1-6.9-0.3-10.4-0.4l-6.3-0.2l-8.3-0.2l-6.1-0.1
							c-3,0-6.1-0.1-9.1-0.1h-5.8h-2.5c-3.7,0-7.3,0-10.9,0.1c-2.6,0-5.1,0.1-7.7,0.1l-3.2,0.1c-1.7,0-3.3,0.1-5,0.1l-4.3,0.2
							l-5.9,0.2l-2.5,0.1c-2,0.1-4.1,0.2-6.1,0.3l-3.2,0.2l-4.3,0.3l-4.2,0.3l-2.7,0.2l-4.7,0.4l-3.6,0.3l-4,0.4l-3,0.3
							c-4.1,0.4-8,0.8-11.8,1.2l-0.6,0.1c-4.4,0.5-9,1-13.5,1.5h-0.4c-4.8,0.6-9.7,1.2-14.6,1.8H607c-3.8,0.5-7.6,1-11.6,1.5
							c-4.3,0.6-8.6,1.2-12.8,1.8l-3.5,0.5l-4.5,0.7l-1.1,0.2l-0.2-0.3v0.3l-2.6,0.4c-3.9,0.6-7.8,1.4-11.9,2.2l-0.5,0.1l0,0
							l-0.3,0.1c-1.3,0.3-2.6,0.5-3.9,0.8l-1.3,0.3l-4.8,1l-0.2,0c-1.7,0.4-3.5,0.8-5.3,1.2l-0.8,0.2c-1.7,0.4-3.3,0.8-5,1.2
							c-3.7,0.9-7.5,1.8-11.5,2.9l-0.5,0.1l0,0c-3.4,0.9-6.8,1.8-10.4,2.7l-0.3,0.1h-0.2l-24.2,0.5l-29.5,0.7l-44.2,1l-16.5,0.3
							l-11.6,0.2l-13.6,0.2l-9.3,0.1l-6.1,0.1l-12.8,0.1l0,0h-3.6h-10.6l0,0h-12.6c-2.7,0-5.5,0-8.2,0h-3.3h-4.5h-0.4h-4h-4.2
							l-6-0.1l-4.5-0.1l-5.2-0.1l-7.1-0.2l-6.3-0.2l-0.1-0.3l-0.1,0.3c-2.2-0.1-4.5-0.2-6.8-0.3h-0.5l-6.9-0.4h-0.3
							c-4.8-0.3-9.6-0.5-14.5-0.9h-0.2c-5.3-2-10-3.8-14.6-5.7c-5.3-2.2-10.6-4.3-15.9-6.5l-1.1-0.5c-4.4-1.8-8.8-3.6-13.1-5.4
							l-3.9-1.6l-5.4-2.2l-3.8-1.5c-15.3-6.1-27.8-10.7-39.4-14.6l-0.6-0.2v-0.2v-0.7c-0.3-5.3-0.6-10.7-0.9-16l-0.1-1.6
							c-0.2-2.9-0.4-5.8-0.6-8.7l-0.6-8.2c-0.4-5.2-0.7-10.5-1.1-15.7v-0.6c-1.1-14.3-2.3-29.8-3.9-48.7l-5.7-65.4l67-57.4h0.3
							c13.3-0.5,29.1-1.1,45.5-1.6l6.2-0.2c15.1-0.5,30.2-0.9,45.4-1.4l67.3-2l18-0.5c28.6-0.8,57.2-1.7,85.8-2.6L462,9v0.9l2-0.1
							l4.2-0.1l7.1-0.2l1.8-0.1c3-0.1,5.9-0.2,8.9-0.3l7-0.3l8.3-0.4l7.3-0.3l8-0.4l7.3-0.4l9.2-0.5l5.4-0.3l14.3-0.8l8.6-0.5
							c11.1-0.7,22.2-1.3,33.4-2l24.8-1.5L633.7,1l23.4-1.3l5.1-0.3l9.1-0.5l6.3-0.4l0.2,0.3v-0.3l3.2-0.2l13.5-0.6
							c13.4-0.6,25.2-1.1,36.2-1.5l7.4-0.2l7.2-0.2c3.5-0.1,7-0.2,10.5-0.3l5.9-0.1l5-0.1C777.5-4.8,787.4-4.9,797.1-4.9z
							 M835.5-2.5c-3.1-0.1-6.2-0.2-9.4-0.2h-2.3c-2.5,0-4.9-0.1-7.4-0.1H814l-7.4-0.1h-2.1h-9.4c-12.2,0-24.7,0.2-38.2,0.5h-1.5
							l-5,0.1c-13.7,0.4-28.4,0.9-44.8,1.6l-0.2-0.3v0.3l-2,0.1c0.7,6.7,4,12.9,9.2,17.2l37.1,31.8l35.2,30.8
							c13,10.8,31.9,10.8,44.9,0l12.3-11l-0.3-4.1l-0.9-11.2c-0.2-2.5-0.4-5-0.6-7.5l-0.3-3.6l-0.7-8l-0.3-3.2
							c-0.2-2.7-0.5-5.3-0.8-8l-0.3-3.5c-0.3-2.7-0.5-5.4-0.8-8.1l-0.3-3.2C836.3,4.5,835.9,1,835.5-2.5L835.5-2.5z M807.3,89.2
							c-8.7,0.1-17.1-2.9-23.7-8.6l-36.7-32.1L711.3,18c-5.6-4.6-9.1-11.3-9.9-18.6l-7.5,0.3c-0.5,8,3.1,15.9,9.7,21.6l37.2,31.9
							l1.5,1.4l36.8,32.2c13.6,11.3,33.4,11.3,47,0l16.4-14.4l-0.2-1.8l-11.4,10C824.4,86.3,815.9,89.3,807.3,89.2z M802.6,97.2
							c-9.1,0.1-17.8-3.1-24.7-8.9L741.1,56l-1.6-1.4l-37.2-31.8c-7-6-10.8-14.4-10.4-22.9l-7,0.3c-1.8,9.4,1.9,19,9.8,25.8
							l38.8,33.3l1.6,1.5l38.4,33.6c14.2,11.8,34.9,11.8,49.1,0l20.2-17.6l-0.2-1.9l-15.3,13.4C820.5,94.1,811.7,97.3,802.6,97.2
							L802.6,97.2z M798.1,105.1c-9.4,0.1-18.6-3.2-25.8-9.3l-38.4-33.6l-1.6-1.5l-38.7-33.2c-8.2-7.1-12.1-17.2-10.4-27.2L677,0.6
							c-3.6,10.8,0,22.4,9.3,30.4l42.1,36l39.9,35c14.8,12.4,36.3,12.4,51.1,0l23.8-20.9l-0.2-2L824,95.8
							C816.7,102,807.6,105.3,798.1,105.1z M793.8,113.2c-9.8,0.1-19.3-3.3-26.8-9.7L725.4,67L685,32.4c-9.7-8.2-13.5-20.4-10-31.7
							L669,1c-5.5,12-2.2,25.5,8.5,34.7l42,36l1.7,1.6l41.4,36.4c15.4,12.9,37.8,12.9,53.2,0l27.7-24.3l-0.1-1.8l-22.8,20
							C813.2,109.9,803.7,113.3,793.8,113.2L793.8,113.2z M789.2,121.1c-10.2,0.1-20.1-3.5-27.8-10.1l-41.5-36.4l-1.7-1.6l-42-35.9
							c-11-9.4-14.6-23.5-9.3-36l-5.4,0.3c-7.7,13-4.9,28.7,7.2,39l43.6,37.4l1.9,1.7l43.1,37.8c16,13.3,39.3,13.3,55.3,0l31.4-27.5
							l-0.2-2L817.1,111C809.4,117.7,799.5,121.3,789.2,121.1L789.2,121.1z M784.8,129.1c-10.6,0.1-20.8-3.6-28.9-10.5l-43.1-37.8
							l-1.8-1.7l-43.6-37.3c-12.4-10.7-15.6-26.8-8.2-40.4l-4.9,0.3c-10.3,13.7-8,31.9,5.5,43.5l47.1,40.4l44.7,39.2
							c16.6,13.9,40.7,13.9,57.3,0l35.3-30.9l-0.1-1.8l-30.4,26.6C805.7,125.5,795.4,129.2,784.8,129.1L784.8,129.1z M780.3,137.1
							c-11,0.1-21.6-3.7-29.9-10.8l-46.6-40.9l-45.2-38.8c-13.7-11.7-16.5-30.4-6.7-44.7l-4.3,0.2c-6,6.5-9.2,15.1-8.8,23.9
							c0.5,9,4.9,17.4,12.3,23.8L697.9,90l1.9,1.8l46.3,40.6c17.2,14.4,42.2,14.4,59.4,0l39-34.2l-0.2-1.8l-34.2,30
							C801.9,133.4,791.2,137.2,780.3,137.1L780.3,137.1z M775.8,145c-11.4,0.1-22.4-3.8-31-11.2l-46.2-40.6l-1.9-1.8l-46.8-40.1
							c-7.8-6.7-12.4-15.6-13-25.1c-0.4-8.7,2.5-17.2,8.1-23.9l-3.2,0.2c-7.9,7.1-12.2,16.3-12.1,26.1s4.6,19.2,12.8,26.2l48.4,41.4
							l2,1.8l47.8,41.9c17.8,14.9,43.7,14.9,61.5,0l42.7-37.4l-0.2-2.1l-38,33.2C798.1,141.1,787.2,145,775.8,145L775.8,145z
							 M771.4,153.1c-11.7,0.1-23.1-4-32-11.6l-47.8-42l-2-1.8l-48.4-41.4c-8.6-7.4-13.4-17.2-13.5-27.6c0-9.8,4-19.2,11.1-25.9
							l-2.7,0.2l-2.5,2.1c-8.5,7.3-13.3,17-13.3,27.2s4.7,20.1,13.3,27.4l50,42.8l2.1,1.8l49.4,43.3c18.4,15.4,45.1,15.4,63.5,0
							l46.5-40.8l-0.2-1.8l-41.6,36.5C794.6,149,783.2,153.2,771.4,153.1L771.4,153.1z M766.9,161.1c-12.1,0.2-23.8-4.1-33-12
							l-49.4-43.5l-2.1-1.8l-50-42.8c-9-7.7-14-18-13.9-28.8s5-21,13.9-28.7L633,3l-2.6,0.2l-5.5,4.7c-8.8,7.6-13.7,17.6-13.7,28.2
							s4.8,20.7,13.7,28.2l51.6,44.2l2.1,1.9l51,44.7c19,15.8,46.6,15.8,65.6,0l50.4-44.2l-0.2-1.9L799.9,149
							c-9.2,7.9-20.9,12.1-33,12L766.9,161.1z M762.4,169.1c-12.5,0.1-24.6-4.3-34-12.5l-51-44.7l-2.1-1.9l-51.7-44.2
							c-9.2-7.9-14.3-18.5-14.3-29.7s5.1-21.8,14.3-29.7l3.6-3.1l-2.8,0.2l-8.5,7.2c-9.1,7.8-14.1,18.1-14.1,29.1s5,21.4,14.1,29.2
							l53.2,45.6l2.2,2l52.6,46.1c19.6,16.3,48.1,16.3,67.7,0l50.7-44.5h-0.1l3.6-3.2l-0.2-1.8l-49.3,43.3
							c-9.5,8.1-21.6,12.5-34.1,12.3L762.4,169.1z M757.8,177c-12.9,0.2-25.3-4.4-35.1-12.7l-52.6-46.2l-2.2-2l-53.2-45.6
							c-9.5-8.2-14.8-19-14.8-30.6s5.2-22.4,14.8-30.6l6.6-5.6l-2.4,0.1l-11.6,10c-9.4,8-14.6,18.7-14.6,30.1s5.2,22,14.6,30.1
							l54.8,47l2.3,2l54.2,47.5c20.2,16.8,49.6,16.8,69.8,0l52.3-45.8l0.5-0.5l5.1-4.4l-0.2-2L793,164.2
							c-9.8,8.3-22.3,12.9-35.1,12.7L757.8,177z M753.4,185c-13.2,0.2-26.1-4.5-36.2-13.1l-54.2-47.6l-2.3-2l-54.8-47
							c-9.9-8.4-15.3-19.6-15.3-31.5s5.4-23.1,15.2-31.5l9.7-8.3l-2.1,0.1l-14.8,12.7c-9.7,8.3-15,19.2-15,30.9s5.4,22.7,15,30.9
							l56.5,48.3l2.3,2.1l55.7,48.9c20.8,17.4,51,17.4,71.8,0l54.5-47.8l1.2-1.1l6-5.2l-0.2-1.9l-0.8,0.7h0.1l-56.1,49.2
							c-10.1,8.6-22.9,13.3-36.2,13.1L753.4,185z M749.1,193c-13.6,0.2-26.8-4.6-37.2-13.5l-55.8-48.9l-2.3-2.1l-56.4-48.4
							c-10.1-8.6-15.7-20.1-15.7-32.4s5.6-23.8,15.7-32.4l12.9-11.1l-2.9,0.2l-17.8,15.2c-9.9,8.5-15.4,19.8-15.4,31.8
							s5.5,23.3,15.4,31.8l58.1,49.7l2.4,2.2l57.3,50.3c21.4,17.9,52.6,17.9,74,0l55.5-48.6H837l10.1-8.9l-0.2-1.8l-3.6,3.2
							l-1.2,1.1l-55.8,48.9c-10.3,8.9-23.6,13.7-37.2,13.5L749.1,193z M744.6,200.9c-14.5,0-28-4.9-38.2-13.8L649,136.6l-2.4-2.2
							l-58-49.7c-10.3-8.9-16-20.7-16-33.3s5.7-24.4,16-33.3l15.8-13.6l-2.6,0.2L581,22.6c-10.2,8.8-15.8,20.4-15.8,32.8
							s5.6,24,15.8,32.8l59.7,51.1l2.5,2.2l59,51.7c10.1,8.9,23.6,13.7,38,13.7s27.9-4.9,38-13.7l57.1-50h-0.1l12.3-10.8l-0.2-1.9
							L842,135l-0.5,0.5l-58.6,51.4c-10.2,8.9-23.7,13.8-38.2,13.8L744.6,200.9z M740.1,208.7c-14.8,0-28.8-5-39.3-14.2l-59-51.7
							l-2.4-2.2l-59.6-51c-10.6-9.1-16.5-21.3-16.5-34.2s5.9-25.1,16.5-34.2l18.9-16.2l-2.3,0.1l-24.1,20.6
							c-10.5,9-16.3,20.9-16.3,33.5S561.8,84,572.3,93l61.3,52.5l2.6,2.3l60.5,53.1c10.4,9.1,24.2,14.1,39,14.1
							c14.3,0.2,28.2-4.9,39.1-14.1l59.3-51.9l1.1-1.1l12.7-11.1l-0.2-2l-7.4,6.5l-0.5,0.5l-60.3,52.8
							C769,203.6,755,208.7,740.1,208.7z M735.6,216.8c-15.2,0-29.5-5.2-40.2-14.6l-60.6-53.1l-2.5-2.3L571,94.4
							c-10.9-9.4-16.9-21.9-16.9-35.1s6-25.7,17-35l22.2-19l-2.7,0.2l-27,23.2c-10.8,9.2-16.7,21.5-16.7,34.5s6,25.3,16.7,34.5
							l62.8,53.9l2.6,2.4l62.2,54.4c10.7,9.4,24.9,14.5,40.1,14.5s29.4-5.2,40.1-14.5l60.3-52.7l0.5-0.5l16.2-14.2L848,139
							l-10.3,9.1l-1.2,1.1L776,202.2C765.1,211.6,750.8,216.8,735.6,216.8L735.6,216.8z M731.2,224.7c-15.6,0-30.3-5.3-41.3-15
							l-62.2-54.4l-2.5-2.4l-62.8-53.8c-11.2-9.6-17.4-22.4-17.4-36s6.2-26.4,17.4-36l25.1-21.5l-2.3,0.2l-30.2,25.8
							c-11.1,9.5-17.2,22.1-17.2,35.4s6.1,26,17.2,35.4l64.4,55.1l2.7,2.4l63.7,55.8c11,9.6,25.6,14.9,41.1,14.9s30.2-5.3,41.1-14.9
							l61.8-54.1l0.5-0.5l18.3-16.1l-0.2-1.9l-11.9,10.5h0.1l-64.1,56C761.5,219.4,746.8,224.7,731.2,224.7L731.2,224.7z
							 M726.8,232.6c-16,0-31.1-5.5-42.4-15.4l-63.7-55.8l-2.7-2.3L553.7,104c-11.5-9.8-17.8-22.9-17.8-36.9s6.3-27,17.8-36.9L582,6
							l-2.8,0.2L546,34.6c-11.3,9.7-17.6,22.6-17.6,36.4s6.2,26.6,17.6,36.3l66,56.5l2.7,2.4l65.3,57.1
							c11.2,9.8,26.2,15.2,42.2,15.2s30.9-5.4,42.2-15.2l64-56l1.2-1.1l19.5-17.1l-0.2-1.8l-14.1,12.4h0.1l-65.6,57.4
							C757.9,227.2,742.8,232.6,726.8,232.6z M722.1,240.6c-16.4,0-31.8-5.6-43.4-15.7l-65.3-57.1l-2.7-2.4l-66-56.5
							C533,98.6,526.5,85.3,526.5,71s6.5-27.7,18.2-37.8l31.4-26.8l-2.5,0.2l-36.3,31.1c-11.6,9.9-18,23.2-18,37.2s6.4,27.3,18,37.2
							l67.6,57.9l2.8,2.5l66.9,58.5c11.6,10.1,26.8,15.6,43.2,15.6s31.7-5.6,43.2-15.7l65-56.9l0.5-0.5l23-20.1l-0.2-1.9l-17.1,15
							l-1.2,1.1l-65.3,57.1C754,235,738.6,240.6,722.1,240.6z M717.7,248.6c-16.8,0-32.6-5.7-44.5-16.1L606.4,174l-2.8-2.5
							L536,113.5c-12-10.3-18.7-24-18.7-38.7S524,46.5,536,36.2l34.4-29.5l-2.6,0.2l-39.4,33.8c-11.9,10.2-18.5,23.7-18.5,38.2
							s6.6,28,18.5,38.1l69.2,59.3l2.9,2.5l68.5,59.9c6.7,5.8,14.5,10.2,22.9,12.8c3.1-0.1,6.2-0.2,9.3-0.3l3.3-0.1l3.5-0.1l4.3-0.1
							c2.4,0,4.8,0,7.2,0h6.3h5.8h4.4c7.9-2.7,15.1-6.8,21.4-12.3l66.6-58.3h-0.1l25.9-22.7l-0.2-1.9l-18.7,16.4h0.1l-68.8,60.2
							C750.3,242.9,734.5,248.6,717.7,248.6L717.7,248.6z M686.7,251.7c-7-2.7-13.5-6.6-19.1-11.6l-68.4-60l-2.9-2.5l-69.2-59.3
							C514.8,107.8,508,93.7,508,78.8s6.8-29,19.1-39.6L564.6,7l-2.8,0.2l-42.2,36.2c-12.2,10.4-18.9,24.3-18.9,39.1
							s6.7,28.6,18.9,39.1l70.8,60.7l2.9,2.6l70.1,61.3c2.7,2.4,5.6,4.5,8.7,6.4l2-0.1C678.4,252.1,682.6,251.9,686.7,251.7
							L686.7,251.7z M668.8,252.7c-2.4-1.6-4.6-3.3-6.8-5.1l-70-61.3l-3-2.6l-70.8-60.7c-12.6-10.8-19.6-25.2-19.6-40.5
							s7-29.7,19.6-40.5l40.3-34.6l-1.8,0.1l-45.7,39.2c-12.4,10.6-19.3,24.8-19.3,39.8s6.8,29.3,19.3,40l72.4,62l3,2.7l71.2,62.4
							l4.8-0.4C664.8,253,666.9,252.9,668.8,252.7L668.8,252.7z M585.4,192.6l-3-2.7l-72.4-62c-12.9-11.1-20-25.8-20-41.4
							s7.1-30.3,20-41.3l43.8-37.6l-2.9,0.2l-48.6,41.7c-12.7,10.9-19.7,25.4-19.7,40.8s7,29.9,19.7,40.8l74,63.4l3.1,2.8l65.5,57.4
							l2.6-0.2l6-0.6l1.7-0.1L585.4,192.6z M578.1,198.8L575,196l-74-63.4c-13.2-11.3-20.4-26.3-20.4-42.3s7.2-31,20.4-42.3L547.8,8
							l-2.4,0.1l-51.8,44.4c-13,11.2-20.2,26-20.2,41.8s7.2,30.6,20.2,41.8l75.6,64.8l3.1,2.8l59.9,52.4l1.6-0.2l8.6-0.9
							L578.1,198.8z M567.9,202.2l-75.6-64.8c-13.5-11.5-20.9-26.9-20.9-43.2s7.4-31.7,20.9-43.2l49.9-42.8l-2.7,0.1l-54.9,47
							C471.4,66.8,464,81.9,464,98s7.3,31.3,20.6,42.7l77.2,66.2l3.2,2.9l54.5,47.7l3.8-0.4l2.4-0.3l3.8-0.4L567.9,202.2z
							 M560.6,208.3l-77.2-66.2c-13.7-11.8-21.3-27.5-21.3-44.1s7.6-32.3,21.3-44l53-45.3l-2.3,0.1l-58,49.7
							C462.5,70,455,85.5,455,101.9s7.5,31.9,21.1,43.5l78.8,67.5l3.3,3l49.2,43.1l3.3-0.4l4.3-0.5l2-0.2L560.6,208.3z M553.7,214.4
							l-78.8-67.5c-14-12-21.8-28-21.8-45s7.7-33,21.8-45l56.2-48L528.5,9l-61.2,52.5c-13.9,11.9-21.5,27.6-21.5,44.4
							s7.6,32.6,21.5,44.4l80.4,68.9l3.3,3l43.9,38.4l2.7-0.4l5.9-0.8l1.4-0.2L553.7,214.4z M549.8,223.6l-3.3-3l-80.3-68.8
							c-14.3-12.2-22.1-28.5-22.1-45.9s7.8-33.7,22.1-45.9l59.3-50.8l-2.9,0.1l-64.1,54.9c-14.1,12.1-21.9,28.2-21.9,45.3
							s7.8,33.2,21.9,45.4l82,70.3l3.4,3.1l38.9,34.1l9.7-1.4L549.8,223.6z M539.1,226.6l-82-70.2c-14.6-12.5-22.6-29.1-22.6-46.8
							s8-34.3,22.6-46.8l62.3-53.3l-2.3,0.1l-67.5,57.8c-14.4,12.3-22.4,28.7-22.4,46.2s7.9,33.9,22.4,46.3l83.6,71.6l3.5,3.1
							l33.9,29.6l1.6-0.3l4.2-0.7l2.4-0.4l1.5-0.2L539.1,226.6z M532,232.9l-83.6-71.6c-14.9-12.8-23.1-29.7-23-47.8
							s8.2-34.9,23-47.6L514,9.7l-2.6,0.1l-70.5,60.5C426.1,82.9,418,99.6,418,117.4s8.1,34.6,22.8,47.1l85.2,73l3.5,3.1l29.2,25.6
							l1.6-0.3l3.8-0.7l4-0.7L532,232.9z M524.8,239.1l-85.2-73c-15.1-13-23.5-30.2-23.5-48.6s8.4-35.6,23.5-48.6L508.3,10l-2.2,0.1
							l-73.9,63.2c-15,12.8-23.3,29.9-23.3,48s8.3,35.2,23.3,48l86.8,74.3l3.6,3.2l24.8,21.7l1.5-0.3l3.9-0.8l3.6-0.7L524.8,239.1z
							 M517.8,245.2L431,170.9c-15.4-13.2-23.9-30.8-23.9-49.5s8.5-36.3,23.9-49.5l72-61.7l-2.5,0.1l-77,65.9
							c-15.2,13-23.6,30.4-23.6,48.8s8.4,35.9,23.6,49l88.4,75.7l3.7,3.3l20.7,18.1l1.4-0.3l3.1-0.7l4.3-1L517.8,245.2z
							 M510.7,251.3l-88.4-75.7c-15.7-13.5-24.3-31.4-24.3-50.4s8.6-36.9,24.3-50.3l75.2-64.4l-2.5,0.1l-80.2,68.7
							c-15.5,13.3-24.1,31-24.1,49.8s8.6,36.5,24.1,49.8l90,77.1l3.7,3.3l16.7,14.6l3.3-0.9l3.9-1l1.7-0.4L510.7,251.3z
							 M503.4,257.6l-90-77.1c-16-13.7-24.8-31.9-24.8-51.3s8.8-37.6,24.8-51.3l78.4-67.2l-2.7,0.1l-83.3,71.4
							c-15.8,13.6-24.6,31.6-24.6,50.7s8.7,37.2,24.6,50.7l91.6,78.5l3.8,3.4l12.9,11.3l4.6-1.2l4-1.1L503.4,257.6z M496.2,263.6
							l-91.6-78.5c-16.3-13.9-25.2-32.4-25.2-52.2s9-38.3,25.2-52.2L486.1,11l-2.7,0.1l-86.5,74.1c-16.1,13.8-25,32.1-25,51.7
							s8.9,37.8,25,51.7l93.2,79.9l3.8,3.5l6.4,5.6l11.3-0.2L496.2,263.6z M492.7,273.3l-3.8-3.5l-93.2-79.9
							c-16.6-14.2-25.7-33-25.7-53.1s9.1-38.9,25.7-53.1l84.6-72.5l-2.1,0.1l-89.9,76.9c-16.4,14-25.4,32.6-25.4,52.4
							s9,38.5,25.4,52.6l94.9,81.2l3.7,3.3l10.6-0.2L492.7,273.3z M482,275.9l-94.9-81.2c-16.8-14.4-26-33.6-26-54s9.3-39.5,26-53.9
							l88.1-75.4l-2.7,0.1l-93,79.6c-16.7,14.3-25.8,33.2-25.8,53.4s9.2,39.2,25.8,53.4l93.6,80.1l11-0.2L482,275.9z M378.3,199.4
							c-17.1-14.6-26.5-34.1-26.5-54.9s9.4-40.2,26.5-54.9l91.2-78.1l-2.4,0.1l-96.3,82.5c-17,14.5-26.3,33.8-26.3,54.3
							s9.3,39.8,26.3,54.3l88.2,75.5l11.2-0.2L378.3,199.4z M369.6,204.2c-17.4-14.9-27-34.7-27-55.8s9.6-40.9,27-55.8l94.5-80.9
							l-2.2,0.1l-1.8,1.5v-0.2l-98.1,84c-17.2,14.7-26.7,34.3-26.7,55.1s9.5,40.5,26.7,55.3l83,71.1l11.2-0.2L369.6,204.2z
							 M360.8,209c-17.7-15.1-27.4-35.3-27.4-56.7s9.7-41.5,27.4-56.6l97.8-83.8l-2.5,0.1l-3.4,2.9v-0.2l-99.7,85.5
							c-17.5,15-27.2,34.9-27.2,56s9.6,41.2,27.2,56.2l77.8,66.6l11.3-0.2L360.8,209z M351.9,213.8c-18-15.4-27.9-35.9-27.9-57.7
							s9.9-42.2,27.9-57.5l101.1-86.6l-1.9,0.1l-5.2,4.5v-0.3l-101.3,86.7c-17.8,15.2-27.6,35.5-27.6,57s9.8,41.8,27.6,57l72.6,62.1
							l4-0.1l7-0.2L351.9,213.8z M447.9,12.2h-0.3v0.2L447.9,12.2z M343.2,218.6C325,203,315,182.2,315,160.1s10-42.9,28.2-58.5
							l104.4-89.4l-2.2,0.1l-6.8,5.9v-0.3L335.6,106c-18.1,15.5-28,36.1-28,58s10,42.5,28,57.9l67.3,57.6l11.2-0.2L343.2,218.6z
							 M442.4,12.4l-2.3,0.1l-8.6,7.3v-0.3L326.9,109c-18.3,15.7-28.5,36.5-28.5,58.7s10.1,43.1,28.5,58.9l62,53.1l11.2-0.1
							l-65.7-56.3c-18.5-15.9-28.7-36.9-28.7-59.4s10.2-43.5,28.7-59.4l106-90.8V14L442.4,12.4z M437,12.6l-2.5,0.1l-10.2,8.7v-0.3
							L318.2,112c-18.6,15.9-28.9,37.2-28.9,59.7s10.3,43.8,28.9,59.7l56.7,48.5l11.2-0.2l-60.4-51.7
							c-18.8-16.1-29.1-37.5-29.1-60.3s10.4-44.1,29.1-60.1l107.7-92.2v0.2L437,12.6z M431.5,12.7l-3,0.1l-11.6,9.9v-0.3
							l-107.7,92.3c-18.9,16.2-29.3,37.7-29.3,60.6s10.4,44.4,29.3,60.6l51.5,44.1l7-0.1l4.3-0.1l-55-47.1
							c-19.1-16.3-29.6-38-29.6-61.2s10.5-44.8,29.6-61.2L426.2,17v0.3L431.5,12.7z M425.5,12.9l-1.9,0.1L410,24.6v-0.3L300.7,118
							c-19.2,16.4-29.7,38.2-29.8,61.4s10.5,45.1,29.8,61.6l45.9,39.3h1.9l9.4-0.1L308,237.5c-19.3-16.6-30-38.6-30-62.1
							s10.6-45.5,30-62.1l110.9-95v0.3L425.5,12.9z M420.6,13.1l-2.5,0.1l-15.3,13.1V26l-110.9,95c-19.5,16.7-30.2,38.8-30.2,62.3
							s10.7,45.8,30.2,62.5l40.4,34.6h7.1h4.2l-44.2-37.9c-19.6-16.8-30.4-39.2-30.4-63s10.8-46.1,30.4-62.9l112.5-96.4v0.3
							L420.6,13.1z M415.1,13.2l-2.5,0.1l-16.9,14.5v-0.3l-112.5,96.4c-19.8,16.9-30.6,39.4-30.6,63.3s10.9,46.4,30.6,63.3
							l34.8,29.8h11.5l-38.7-33.1c-19.9-17.1-30.9-39.8-30.9-63.9s11-46.8,30.9-63.8l114.1-97.7v0.2L415.1,13.2z M409.5,13.4
							l-2.6,0.1l-18.6,15.9v-0.3l-114.1,97.8c-20.1,17.2-31.1,40-31.1,64.2s11.1,47,31.1,64.2l29.2,25.1h4.6h6.9l-33.1-28.4
							c-20.2-17.3-31.3-40.3-31.3-64.8s11.1-47.5,31.3-64.8l115.7-99v0.2L409.5,13.4z M403.9,13.6l-2.5,0.1l-20.2,17.3v-0.3
							l-115.7,99.2c-20.3,17.4-31.5,40.5-31.5,65.1s11.2,47.7,31.5,65.1l23.5,20.1c3.3,0.1,6.6,0.1,9.9,0.1h1.7L273,256.7
							c-20.5-17.5-31.8-40.9-31.8-65.7s11.3-48.1,31.8-65.6L390.3,25v0.3L403.9,13.6z M398.4,13.7l-2.3,0.1l-21.9,18.8v-0.3
							L256.9,132.8c-20.6,17.7-32,41.2-31.9,66.1s11.4,48.3,31.9,66l17.4,14.9h0.1l6.1,0.2h0.4l5,0.1l-21.7-18.6
							c-20.7-17.9-32.1-41.5-32.1-66.6s11.4-48.8,32.1-66.6L383.1,26.5v0.3L398.4,13.7z M393.1,13.9l-2.5,0.1l-23.5,20.2v-0.3
							l-119,101.8c-20.9,17.9-32.4,41.7-32.4,67s11.5,49,32.4,66.9l11.1,9.5l5.4,0.2l6.4,0.3h0.2l-15.6-13.4
							c-21-18-32.6-41.9-32.6-67.4s11.6-49.5,32.6-67.6L376.1,28.2v0.3L393.1,13.9z M387.6,14l-2.4,0.1l-25.4,21.8v-0.2L239.4,138.8
							c-21.2,18.1-32.8,42.2-32.8,67.8s11.7,49.7,32.8,67.8l4.5,3.9l7.1,0.4h0.4l4.8,0.2l-9.3-7.9c-21.3-18.2-33-42.5-33-68.3
							s11.7-50.2,33-68.5L369,29.7V30L387.6,14z M382.2,14.2l-2.7,0.1l-26.9,23.1v-0.3l-122,104.6c-20.4,17.5-32.1,40.6-33.1,65.2
							c-1,24.1,8.4,47.6,26.5,66c4.2,1.7,8.4,3.4,12.6,4.9l4.2,0.2l-2.7-2.2c-21.6-18.5-33.5-43.1-33.5-69.3s11.9-50.7,33.5-69.2
							L361.7,31.5v0.3L382.2,14.2z M376.5,14.4l-2.4,0.1l-28.6,24.5v-0.3l-123.7,106c-37.4,32.1-44.5,81.6-17.3,120.3l1.4,0.6
							c4.6,1.9,9.2,3.8,13.8,5.7c-16.6-18.3-25.2-41.1-24.2-64.4c1-25.1,13-48.8,33.8-66.6L354.5,33v0.3L376.5,14.4z M371,14.5
							l-2,0.1l-30.5,26.1v-0.3L213.2,147.8c-17,14.6-28.2,32.9-32.3,53.1c-4,19.6-1.2,40,8.1,57.7l9.8,4l2.6,1.1
							c-12.6-19.1-17.5-40.7-14.2-62.5c3.4-22.1,14.9-42.2,33.4-58L347.4,34.5v0.3L371,14.5z M366,14.7l-2.8,0.1l-32,27.5V42
							L204.3,150.6c-31.5,27-42.5,66.2-28.9,102.5l7.4,2.9l3.6,1.5c-8.7-17.6-11.3-37.7-7.4-57c4.2-20.6,15.6-39.3,33-54.2
							l128.4-110v0.3L366,14.7z M360.2,14.8l-2.5,0.1L324,43.8v-0.3L195.5,153.6c-29.1,25-41.1,60.4-32.1,94.8l1.9,0.7
							c2.6,1,5.2,2,7.8,3c-13-36.5-1.6-75.9,30-103l130-111.4v0.3L360.2,14.8z M354.6,15l-2.6,0.1l-35.2,30.2V45L186.8,156.5
							c-27.1,23.3-39.6,55.4-34.2,88l5.8,2.1l2.8,1.1c-8.6-34.7,3.7-70.4,33-95.5L325.9,39.4v0.3L354.6,15z M349,15.2l-2.5,0.1
							l-36.9,31.6v-0.3L177.9,159.5c-25,21.5-38,51.1-35.5,81.3c0.5,0.2,1,0.4,1.6,0.5l1.8,0.6l3.7,1.3l1.1,0.4
							c-5-32.4,8-65.6,35-88.7L318.7,40.9v0.3L349,15.2z M343.5,15.3l-2.1,0.1l-38.8,33.3v-0.3L169.3,162.6
							c-14.7,12.6-25.5,28.1-31.3,45.1c0.4,5.5,0.7,11,1.1,16.4l0.7,12.2l0.2,3.8l0.4,0.1c-2.2-30.6,11-60.5,36.2-82.1L311.5,42.5
							v0.3L343.5,15.3z M338.4,15.5l-2.5,0.1l-40.5,34.7V50L160.5,165.6c-9.3,7.9-17.2,17.3-23.4,27.8l0.7,9.7
							c6.6-16.2,17-30.6,30.4-41.9L304.5,44.3v0.3L338.4,15.5z M332.9,15.7l-2.5,0.1l-42.2,36.1v-0.2L151.8,168.5
							c-5.6,4.8-10.8,10.2-15.4,16c0.1,1.9,0.3,3.8,0.4,5.7c6.1-9.8,13.7-18.5,22.4-26L297.2,46v0.3L332.9,15.7z M327.4,15.8
							l-2.5,0.1L281,53.4v-0.3L142.9,171.5c-2.4,2.1-4.8,4.3-7.1,6.6l0.3,3.7c4.3-5.3,9.1-10.2,14.4-14.6L290.1,47.5v0.3L327.4,15.8
							z M321.8,16l-2.7,0.1L273.7,55v-0.3L135.5,173.2l0.2,2.4c2-2,4-3.8,6-5.5l141.2-121v0.3L321.8,16z M316.1,16.2l-2,0.1
							l-47.3,40.5v-0.3L135.2,169.1l0.1,1.7L275.6,50.6v0.3L316.1,16.2z M311,16.3l-2.5,0.1l-49,42V58L134.8,164.9l0.1,1.9
							L268.7,52.2v0.3L311,16.3z M305.6,16.5l-2.5,0.1l-50.6,43.4v-0.3l-118,101.1l0.1,1.9L261.5,53.9v0.3L305.6,16.5z M300.1,16.6
							l-2.7,0.1l-52.3,44.7v-0.3l-111,95.1l0.2,2.1L254.4,55.5v0.3L300.1,16.6z M294.4,16.8l-2.2,0.1l-54,46.3v-0.3l-104.3,89.3
							l0.1,1.7L247,56.9v0.3L294.4,16.8z M289.1,17l-2.4,0.1l-55.8,47.7v-0.3l-97.4,83.5l0.2,1.9l106.3-91.1V59L289.1,17z
							 M283.7,17.1l-2.6,0.1l-57.4,49.1V66l-90.6,77.6l0.2,2l99.5-85.3v0.3L283.7,17.1z M278.1,17.3l-2.6,0.1l-59,50.5v-0.3
							l-83.7,71.7l0.2,2l92.7-79.4v0.3L278.1,17.3z M272.5,17.5l-2.5,0.1l-60.7,51.9v-0.3l-77,66l0.2,1.9l85.9-73.6v0.3L272.5,17.5z
							 M267,17.6l-2.3,0.1l-62.5,53.5v-0.3L132,131l0.1,1.8L211.2,65v0.3L267,17.6z M261.7,17.8l-2.7,0.1l-64,54.8v-0.4l-63.4,54.3
							l0.2,2l72.3-61.9v0.3L261.7,17.8z M256,18l-2.2,0.1L188,74.4v-0.3l-56.7,48.6l0.1,1.7l65.5-56.1v0.3L256,18z M250.8,18.1
							l-2.7,0.1l-67.3,57.7v-0.3L131,118.2l0.2,2L190,69.9v0.3L250.8,18.1z M245.1,18.3l-2.5,0.1l-69.1,59.1v-0.3l-42.9,36.8l0.2,2
							l51.9-44.5v0.3L245.1,18.3z M239.6,18.5l-2.2,0.1l-70.9,60.7v-0.3l-36.2,31l0.1,1.6l45-38.6v0.3L239.6,18.5z M234.3,18.7
							l-2.6,0.1l-72.4,62.1v-0.3l-29.5,25.2l0.2,1.9l38.3-32.8v0.3L234.3,18.7z M228.7,18.9l-2.6,0.1l-74,63.4V82l-22.6,19.4l0.2,2
							l31.6-27v0.3L228.7,18.9z M223.1,19l-2.4,0.1L145,84v-0.3l-15.9,13.6l0.1,1.8L154,77.9v0.3L223.1,19z M217.7,19.2l-2.5,0.1
							l-77.4,66.2v-0.3l-9.1,7.8l0.2,1.9l17.9-15.4v0.3L217.7,19.2z M212.2,19.4l-2.5,0.1l-79,67.7v-0.3l-2.2,1.9l0.2,1.9l11.2-9.6
							v0.3L212.2,19.4z M206.6,19.6l-2.5,0.1l-76.1,65.2l0.1,1.6l4.3-3.7v0.3L206.6,19.6z M201.1,19.8l-2.4,0.1l-71,60.7l0.2,1.9
							L201.1,19.8z M195.6,20l-2.6,0.1l-65.7,56.3l0.2,1.9L195.6,20z M849.8,160.2L829,178.5h0.1l-70.4,61.6
							c-5.2,4.5-11.1,8.2-17.5,10.9l6.3,0.1c2.3-1.5,4.4-3.2,6.5-5l68.2-59.7l0.5-0.5l27.1-23.7
							C849.8,162.2,849.8,160.5,849.8,160.2z M849.8,165.7c0-0.3,0-0.6,0-0.9l-22.7,19.8h0.1l-72,63c-1.4,1.2-2.9,2.4-4.5,3.6
							l3.1,0.1l66.7-58.4h-0.2l29.5-25.9L849.8,165.7z M849.9,169.4l0.3-0.2h-0.1l-24.7,21.7h0.2l-68.9,60.4l2.2,0.1l59.8-52.4h-0.2
							l31.6-27.7L849.9,169.4z M850.3,175.6c0-0.4-0.1-0.9-0.1-1.3v-0.6l-26.7,23.4h0.2l-62.1,54.4l2.4,0.1l52.9-46.3h-0.2
							l33.7-29.5L850.3,175.6z M850.5,178.1l-28.9,25.3h0.2l-55.2,48.3l2.2,0.1l46-40.3h-0.2l36-31.6
							C850.7,179.9,850.5,178.2,850.5,178.1L850.5,178.1z M851.2,184c-0.1-0.6-0.2-1.2-0.2-1.8l-31.2,27.4h0.2l-48.3,42.3l2.3,0.1
							l39.2-34.3h-0.2L851.2,184z M851.9,188c-0.1-0.6-0.2-1.2-0.3-1.8l-33.7,29.5h0.2L776.6,252l2.2,0.1l32.3-28.3H811L851.9,188z
							 M852.3,190.2l-36.2,31.8h0.2l-34.6,30.3l2,0.1l25.6-22.4h-0.2l43.5-38.1L852.3,190.2z M853.4,195.4c-0.1-0.5-0.2-1-0.4-1.5
							l-39,34.1h0.2l-27.9,24.5l2.3,0.1l18.8-16.4h-0.2l46.2-40.5L853.4,195.4z M854.3,198.8c-0.1-0.3-0.1-0.6-0.2-0.9v-0.2
							l-41.7,36.5h0.2l-21.1,18.5l2.2,0.1l11.9-10.4h-0.2l48.8-42.8L854.3,198.8z M854.1,202.2l-43.7,38.3h0.2L796.3,253l2.3,0.1
							l0,0l5.2-4.5h-0.2l50.4-44.2L854.1,202.2z M853.9,207l-45.3,39.7h0.2l-7.5,6.6l2,0.1l50.5-44.2L853.9,207z M853.7,211.8
							l-46.9,41.1h0.2l-0.8,0.7l2,0.1l45.4-39.8L853.7,211.8z M853.5,216.6l-42.6,37.4l0.6,0.1l0.1,0.3V254l1.5,0.1l40.4-35.4
							L853.5,216.6z M853.3,223.3l0.1-2l-37.6,33l2.1,0.2L853.3,223.3L853.3,223.3z M853.2,225.9l-32.8,28.7l2.1,0.2l30.6-26.8
							L853.2,225.9z M853.1,230.6l-28,24.5l2.2,0.2l25.7-22.5L853.1,230.6z M853,235.2l-23,20.1l2.3,0.2l20.7-18.1L853,235.2z
							 M852.9,240l-18,15.8l2,0.2l15.9-13.9L852.9,240z M852.8,244.6l-13.2,11.6l2.1,0.2l11.1-9.7L852.8,244.6z M852.7,249.2
							l-8.4,7.4l2.1,0.2l6.3-5.5L852.7,249.2z M852.7,253.9l-3.6,3.2l2.2,0.2l1.4-1.2L852.7,253.9z"/>
					</defs>
					<clipPath id="SVGID_10_">
						<use xlink:href="#SVGID_9_"  style="overflow:visible;"/>
					</clipPath>
					<g class="st4">
						<g>
							<defs>
								<rect id="SVGID_11_" x="120.4" y="-9.9" width="740.8" height="297.2"/>
							</defs>
							<clipPath id="SVGID_12_">
								<use xlink:href="#SVGID_11_"  style="overflow:visible;"/>
							</clipPath>
							<g class="st5">
								
									<image style="overflow:visible;enable-background:new    ;" width="1544" height="620" xlink:href="48249163416EC3A3.png"  transform="matrix(0.48 0 0 0.48 120.36 -10)">
								</image>
							</g>
						</g>
					</g>
				</g>
			</g>
		</g>
		<ellipse class="st6" cx="738.7" cy="8.6" rx="8" ry="8"/>
		<ellipse class="st7" cx="738.7" cy="483.7" rx="8" ry="8"/>
		<ellipse class="st8" cx="794.6" cy="323.7" rx="11" ry="10.9"/>
		<ellipse class="st9" cx="794.6" cy="166.6" rx="11" ry="10.9"/>
		<circle class="st10" cx="119.2" cy="8.6" r="7.9"/>
		<circle class="st11" cx="119.2" cy="483.7" r="8"/>
		<circle class="st12" cx="63.6" cy="323.7" r="10.9"/>
		<circle class="st13" cx="63.6" cy="166.6" r="10.9"/>
		
			<image style="overflow:visible;enable-background:new    ;" width="202" height="694" xlink:href="48249163416EC3A6.png"  transform="matrix(0.5 0 0 0.5 756.73 73.48)">
		</image>
		
			<image style="overflow:visible;enable-background:new    ;" width="202" height="694" xlink:href="48249163416EC3A7.png"  transform="matrix(0.5 0 0 0.5 0.12 73.48)">
		</image>
	</g>
</g>
</svg>
