<svg viewBox="0 0 840 460" width="840" height="460" xmlns="http://www.w3.org/2000/svg" font-family="-apple-system,BlinkMacSystemFont,'Helvetica Neue',Helvetica,Arial,sans-serif">

  <!-- Sender -->
  <circle cx="94" cy="220" r="44" fill="#343437"/>
  <g transform="translate(78,204) scale(1.3333)">
    <circle cx="12" cy="8" r="4" fill="none" stroke="#F0F3F7" stroke-width="1.6"/>
    <path d="M4 20c0-4.4 3.6-7 8-7s8 2.6 8 7" fill="none" stroke="#F0F3F7" stroke-width="1.6"/>
  </g>
  <text x="94" y="286" text-anchor="middle" font-size="13" fill="#F0F3F7">Sender</text>

  <!-- arrow 1: sender -> escrow -->
  <text x="224" y="196" text-anchor="middle" font-family="'SFMono-Regular','Consolas','Menlo',monospace" font-size="13" fill="#F0F3F7">EscrowCreate</text>
  <line x1="139" y1="227" x2="301" y2="227" stroke="#8A919A" stroke-width="1.4"/>
  <path d="M295 222 L303 227 L295 232" fill="none" stroke="#8A919A" stroke-width="1.4" stroke-linecap="round" stroke-linejoin="round"/>

  <!-- Escrow card -->
  <defs>
    <clipPath id="cardclip"><rect x="310" y="100" width="220" height="220" rx="8"/></clipPath>
  </defs>
  <rect x="310.5" y="100.5" width="219" height="219" rx="7.5" fill="#232325" stroke="#343437" stroke-width="1"/>
  <rect x="310" y="100" width="220" height="4" fill="#21E46B" clip-path="url(#cardclip)"/>
  <text x="420" y="143" text-anchor="middle" font-size="14" fill="#8A919A">Escrow</text>
  <text x="420" y="174" text-anchor="middle" font-size="26" font-weight="700" fill="#F0F3F7">Held</text>
  <g transform="translate(392,201.75) scale(2.3333)">
    <rect x="5" y="11" width="14" height="10" rx="1.6" fill="none" stroke="#F0F3F7" stroke-width="1.3"/>
    <path d="M8 11V8a4 4 0 0 1 8 0v3" fill="none" stroke="#F0F3F7" stroke-width="1.3"/>
  </g>
  <text x="420" y="290" text-anchor="middle" font-size="15" font-weight="700" fill="#21E46B">Condition</text>

  <!-- arrow 2: escrow -> recipient -->
  <text x="616" y="194" text-anchor="middle" font-family="'SFMono-Regular','Consolas','Menlo',monospace" font-size="13" fill="#F0F3F7">EscrowFinish</text>
  <text x="616" y="214" text-anchor="middle" font-family="'SFMono-Regular','Consolas','Menlo',monospace" font-size="13" fill="#F0F3F7">+ Fulfillment</text>
  <g opacity="0.65">
    <line x1="531" y1="227" x2="693" y2="227" stroke="#8A919A" stroke-width="1.4"/>
    <path d="M687 222 L695 227 L687 232" fill="none" stroke="#8A919A" stroke-width="1.4" stroke-linecap="round" stroke-linejoin="round"/>
  </g>

  <!-- Recipient -->
  <circle cx="746" cy="220" r="44" fill="#343437"/>
  <g transform="translate(730,204) scale(1.3333)">
    <circle cx="12" cy="8" r="4" fill="none" stroke="#F0F3F7" stroke-width="1.6"/>
    <path d="M4 20c0-4.4 3.6-7 8-7s8 2.6 8 7" fill="none" stroke="#F0F3F7" stroke-width="1.6"/>
  </g>
  <text x="746" y="286" text-anchor="middle" font-size="13" fill="#F0F3F7">Recipient</text>

  <!-- legend pill -->
  <rect x="264" y="393" width="312" height="43" rx="21.5" fill="#232325" stroke="#343437" stroke-width="1"/>
  <text x="420" y="419" text-anchor="middle" font-size="15" fill="#F0F3F7"><tspan font-weight="700" fill="#21E46B">Condition</tspan> = Lock &#160;&#183;&#160; <tspan font-weight="700" fill="#21E46B">Fulfillment</tspan> = Key</text>
</svg>
