<svg width="518" height="543" viewBox="0 0 518 543" fill="none" xmlns="http://www.w3.org/2000/svg">
<g opacity="0.7">
<path d="M313.172 260.037L332.948 279.862L301.711 288.198L281.935 268.373L313.172 260.037Z" stroke="white" stroke-miterlimit="10" stroke-dasharray="1 3"/>
<path d="M332.949 279.863L352.725 299.463L321.488 308.023L301.712 288.198L332.949 279.863Z" stroke="white" stroke-miterlimit="10" stroke-dasharray="1 3"/>
<path d="M352.725 299.462L372.276 319.287L341.264 327.848L321.488 308.023L352.725 299.462Z" stroke="white" stroke-miterlimit="10" stroke-dasharray="1 3"/>
<path d="M372.276 319.286L392.052 339.112L361.04 347.672L341.264 327.847L372.276 319.286Z" stroke="white" stroke-miterlimit="10" stroke-dasharray="1 3"/>
<path d="M392.052 339.112L411.828 358.937L380.815 367.273L361.039 347.673L392.052 339.112Z" stroke="white" stroke-miterlimit="10" stroke-dasharray="1 3"/>
<path d="M411.829 358.937L431.605 378.762L400.592 387.098L380.816 367.273L411.829 358.937Z" stroke="white" stroke-miterlimit="10" stroke-dasharray="1 3"/>
<path d="M431.604 378.763L451.381 398.588L420.368 406.923L400.592 387.098L431.604 378.763Z" stroke="white" stroke-miterlimit="10" stroke-dasharray="1 3"/>
<path d="M451.38 398.587L471.157 418.412L439.919 426.748L420.368 406.923L451.38 398.587Z" stroke="white" stroke-miterlimit="10" stroke-dasharray="1 3"/>
<path d="M471.157 418.412L490.933 438.237L459.696 446.572L439.919 426.747L471.157 418.412Z" stroke="white" stroke-miterlimit="10" stroke-dasharray="1 3"/>
<path d="M490.933 438.237L510.709 458.062L479.471 466.397L459.695 446.572L490.933 438.237Z" stroke="white" stroke-miterlimit="10" stroke-dasharray="1 3"/>
<path d="M281.936 268.373L301.712 288.198L270.475 296.533L250.698 276.708L281.936 268.373Z" stroke="white" stroke-miterlimit="10" stroke-dasharray="1 3"/>
<path d="M301.711 288.197L321.487 308.022L290.25 316.358L270.474 296.533L301.711 288.197Z" stroke="white" stroke-miterlimit="10" stroke-dasharray="1 3"/>
<path d="M321.488 308.022L341.264 327.847L310.027 336.182L290.251 316.357L321.488 308.022Z" stroke="white" stroke-miterlimit="10" stroke-dasharray="1 3"/>
<path d="M341.263 327.846L361.039 347.671L329.802 356.007L310.026 336.182L341.263 327.846Z" stroke="white" stroke-miterlimit="10" stroke-dasharray="1 3"/>
<path d="M361.04 347.674L380.816 367.274L349.579 375.835L329.803 356.01L361.04 347.674Z" stroke="white" stroke-miterlimit="10" stroke-dasharray="1 3"/>
<path d="M380.816 367.272L400.592 387.097L369.355 395.658L349.579 375.832L380.816 367.272Z" stroke="white" stroke-miterlimit="10" stroke-dasharray="1 3"/>
<path d="M400.592 387.099L420.368 406.924L389.131 415.485L369.354 395.66L400.592 387.099Z" stroke="white" stroke-miterlimit="10" stroke-dasharray="1 3"/>
<path d="M420.368 406.923L439.919 426.748L408.906 435.084L389.13 415.484L420.368 406.923Z" stroke="white" stroke-miterlimit="10" stroke-dasharray="1 3"/>
<path d="M439.919 426.748L459.695 446.573L428.682 454.909L408.906 435.083L439.919 426.748Z" stroke="white" stroke-miterlimit="10" stroke-dasharray="1 3"/>
<path d="M459.695 446.572L479.472 466.397L448.459 474.733L428.683 454.908L459.695 446.572Z" stroke="white" stroke-miterlimit="10" stroke-dasharray="1 3"/>
<path d="M250.698 276.709L270.474 296.534L239.237 304.869L219.461 285.044L250.698 276.709Z" stroke="white" stroke-miterlimit="10" stroke-dasharray="1 3"/>
<path d="M270.474 296.533L290.25 316.358L259.013 324.694L239.237 304.869L270.474 296.533Z" stroke="white" stroke-miterlimit="10" stroke-dasharray="1 3"/>
<path d="M290.25 316.359L310.026 336.184L278.789 344.519L259.013 324.694L290.25 316.359Z" stroke="white" stroke-miterlimit="10" stroke-dasharray="1 3"/>
<path d="M310.027 336.182L329.803 356.007L298.566 364.343L278.79 344.518L310.027 336.182Z" stroke="white" stroke-miterlimit="10" stroke-dasharray="1 3"/>
<path d="M329.803 356.008L349.579 375.833L318.342 384.169L298.565 364.344L329.803 356.008Z" stroke="white" stroke-miterlimit="10" stroke-dasharray="1 3"/>
<path d="M349.578 375.835L369.354 395.66L338.117 403.996L318.341 384.171L349.578 375.835Z" stroke="white" stroke-miterlimit="10" stroke-dasharray="1 3"/>
<path d="M369.354 395.659L389.13 415.484L357.893 423.82L338.117 403.994L369.354 395.659Z" stroke="white" stroke-miterlimit="10" stroke-dasharray="1 3"/>
<path d="M389.131 415.483L408.907 435.083L377.67 443.643L357.894 423.818L389.131 415.483Z" stroke="white" stroke-miterlimit="10" stroke-dasharray="1 3"/>
<path d="M408.907 435.083L428.683 454.908L397.446 463.469L377.67 443.644L408.907 435.083Z" stroke="white" stroke-miterlimit="10" stroke-dasharray="1 3"/>
<path d="M428.683 454.909L448.459 474.734L417.222 483.295L397.446 463.47L428.683 454.909Z" stroke="white" stroke-miterlimit="10" stroke-dasharray="1 3"/>
<path d="M219.461 285.043L239.237 304.868L208.225 313.204L188.449 293.379L219.461 285.043Z" stroke="white" stroke-miterlimit="10" stroke-dasharray="1 3"/>
<path d="M239.237 304.869L259.013 324.694L228.001 333.03L208.225 313.205L239.237 304.869Z" stroke="white" stroke-miterlimit="10" stroke-dasharray="1 3"/>
<path d="M259.013 324.695L278.789 344.52L247.776 352.855L228 333.03L259.013 324.695Z" stroke="white" stroke-miterlimit="10" stroke-dasharray="1 3"/>
<path d="M278.789 344.519L298.565 364.344L267.552 372.679L247.776 352.854L278.789 344.519Z" stroke="white" stroke-miterlimit="10" stroke-dasharray="1 3"/>
<path d="M298.565 364.344L318.341 384.169L287.104 392.504L267.552 372.679L298.565 364.344Z" stroke="white" stroke-miterlimit="10" stroke-dasharray="1 3"/>
<path d="M318.341 384.169L338.117 403.994L306.88 412.329L287.104 392.504L318.341 384.169Z" stroke="white" stroke-miterlimit="10" stroke-dasharray="1 3"/>
<path d="M338.118 403.995L357.894 423.82L326.657 432.155L306.881 412.33L338.118 403.995Z" stroke="white" stroke-miterlimit="10" stroke-dasharray="1 3"/>
<path d="M357.893 423.82L377.669 443.645L346.432 451.98L326.656 432.155L357.893 423.82Z" stroke="white" stroke-miterlimit="10" stroke-dasharray="1 3"/>
<path d="M377.67 443.645L397.446 463.47L366.209 471.805L346.433 451.98L377.67 443.645Z" stroke="white" stroke-miterlimit="10" stroke-dasharray="1 3"/>
<path d="M397.445 463.469L417.221 483.294L385.984 491.629L366.208 471.804L397.445 463.469Z" stroke="white" stroke-miterlimit="10" stroke-dasharray="1 3"/>
<path d="M188.448 293.379L208.225 313.204L176.987 321.539L157.211 301.714L188.448 293.379Z" stroke="white" stroke-miterlimit="10" stroke-dasharray="1 3"/>
<path d="M208.224 313.204L228 333.029L196.763 341.364L176.987 321.539L208.224 313.204Z" stroke="white" stroke-miterlimit="10" stroke-dasharray="1 3"/>
<path d="M228 333.03L247.776 352.855L216.539 361.19L196.763 341.365L228 333.03Z" stroke="white" stroke-miterlimit="10" stroke-dasharray="1 3"/>
<path d="M247.777 352.854L267.553 372.68L236.316 381.015L216.54 361.19L247.777 352.854Z" stroke="white" stroke-miterlimit="10" stroke-dasharray="1 3"/>
<path d="M267.553 372.679L287.104 392.504L256.092 400.84L236.316 381.015L267.553 372.679Z" stroke="white" stroke-miterlimit="10" stroke-dasharray="1 3"/>
<path d="M287.104 392.504L306.88 412.329L275.868 420.665L256.092 400.84L287.104 392.504Z" stroke="white" stroke-miterlimit="10" stroke-dasharray="1 3"/>
<path d="M306.88 412.328L326.656 432.153L295.643 440.489L275.867 420.664L306.88 412.328Z" stroke="white" stroke-miterlimit="10" stroke-dasharray="1 3"/>
<path d="M326.656 432.155L346.432 451.98L315.419 460.316L295.643 440.491L326.656 432.155Z" stroke="white" stroke-miterlimit="10" stroke-dasharray="1 3"/>
<path d="M346.433 451.979L366.209 471.804L335.196 480.14L315.42 460.315L346.433 451.979Z" stroke="white" stroke-miterlimit="10" stroke-dasharray="1 3"/>
<path d="M366.208 471.804L385.984 491.629L354.747 499.964L335.196 480.139L366.208 471.804Z" stroke="white" stroke-miterlimit="10" stroke-dasharray="1 3"/>
<path d="M157.211 301.715L176.987 321.54L145.75 330.1L125.974 310.276L157.211 301.715Z" stroke="white" stroke-miterlimit="10" stroke-dasharray="1 3"/>
<path d="M176.987 321.539L196.763 341.364L165.526 349.925L145.75 330.1L176.987 321.539Z" stroke="white" stroke-miterlimit="10" stroke-dasharray="1 3"/>
<path d="M196.764 341.366L216.54 361.191L185.302 369.526L165.526 349.926L196.764 341.366Z" stroke="white" stroke-miterlimit="10" stroke-dasharray="1 3"/>
<path d="M216.539 361.191L236.316 381.016L205.078 389.352L185.302 369.527L216.539 361.191Z" stroke="white" stroke-miterlimit="10" stroke-dasharray="1 3"/>
<path d="M236.315 381.016L256.091 400.841L224.854 409.176L205.078 389.351L236.315 381.016Z" stroke="white" stroke-miterlimit="10" stroke-dasharray="1 3"/>
<path d="M256.092 400.84L275.868 420.665L244.631 429L224.855 409.176L256.092 400.84Z" stroke="white" stroke-miterlimit="10" stroke-dasharray="1 3"/>
<path d="M275.868 420.665L295.644 440.49L264.407 448.826L244.631 429.001L275.868 420.665Z" stroke="white" stroke-miterlimit="10" stroke-dasharray="1 3"/>
<path d="M295.644 440.489L315.42 460.314L284.183 468.65L264.407 448.824L295.644 440.489Z" stroke="white" stroke-miterlimit="10" stroke-dasharray="1 3"/>
<path d="M315.42 460.315L335.196 480.14L303.959 488.476L284.183 468.651L315.42 460.315Z" stroke="white" stroke-miterlimit="10" stroke-dasharray="1 3"/>
<path d="M335.195 480.14L354.747 499.965L323.734 508.3L303.958 488.475L335.195 480.14Z" stroke="white" stroke-miterlimit="10" stroke-dasharray="1 3"/>
<path d="M125.974 310.275L145.75 330.1L114.738 338.436L94.9617 318.611L125.974 310.275Z" stroke="white" stroke-miterlimit="10" stroke-dasharray="1 3"/>
<path d="M145.75 330.1L165.526 349.925L134.289 358.26L114.737 338.435L145.75 330.1Z" stroke="white" stroke-miterlimit="10" stroke-dasharray="1 3"/>
<path d="M165.526 349.926L185.302 369.526L154.065 378.087L134.289 358.262L165.526 349.926Z" stroke="white" stroke-miterlimit="10" stroke-dasharray="1 3"/>
<path d="M185.303 369.526L205.079 389.351L173.842 397.912L154.066 378.087L185.303 369.526Z" stroke="white" stroke-miterlimit="10" stroke-dasharray="1 3"/>
<path d="M205.079 389.351L224.855 409.176L193.618 417.737L173.842 397.912L205.079 389.351Z" stroke="white" stroke-miterlimit="10" stroke-dasharray="1 3"/>
<path d="M224.855 409.176L244.631 429.001L213.393 437.337L193.617 417.737L224.855 409.176Z" stroke="white" stroke-miterlimit="10" stroke-dasharray="1 3"/>
<path d="M244.631 429.001L264.407 448.826L233.169 457.161L213.393 437.336L244.631 429.001Z" stroke="white" stroke-miterlimit="10" stroke-dasharray="1 3"/>
<path d="M264.406 448.825L284.182 468.65L252.945 476.986L233.169 457.161L264.406 448.825Z" stroke="white" stroke-miterlimit="10" stroke-dasharray="1 3"/>
<path d="M284.183 468.65L303.959 488.475L272.722 496.81L252.946 476.985L284.183 468.65Z" stroke="white" stroke-miterlimit="10" stroke-dasharray="1 3"/>
<path d="M303.959 488.476L323.735 508.301L292.498 516.637L272.722 496.812L303.959 488.476Z" stroke="white" stroke-miterlimit="10" stroke-dasharray="1 3"/>
<path d="M94.9621 318.611L114.738 338.436L83.5009 346.772L63.7249 326.947L94.9621 318.611Z" stroke="white" stroke-miterlimit="10" stroke-dasharray="1 3"/>
<path d="M114.738 338.436L134.289 358.261L103.277 366.597L83.5007 346.771L114.738 338.436Z" stroke="white" stroke-miterlimit="10" stroke-dasharray="1 3"/>
<path d="M134.289 358.26L154.065 378.085L123.053 386.421L103.277 366.596L134.289 358.26Z" stroke="white" stroke-miterlimit="10" stroke-dasharray="1 3"/>
<path d="M154.065 378.087L173.841 397.912L142.829 406.247L123.052 386.422L154.065 378.087Z" stroke="white" stroke-miterlimit="10" stroke-dasharray="1 3"/>
<path d="M173.841 397.912L193.617 417.737L162.604 426.073L142.828 406.248L173.841 397.912Z" stroke="white" stroke-miterlimit="10" stroke-dasharray="1 3"/>
<path d="M193.618 417.736L213.394 437.336L182.381 445.896L162.605 426.071L193.618 417.736Z" stroke="white" stroke-miterlimit="10" stroke-dasharray="1 3"/>
<path d="M213.393 437.337L233.169 457.162L201.932 465.723L182.381 445.898L213.393 437.337Z" stroke="white" stroke-miterlimit="10" stroke-dasharray="1 3"/>
<path d="M233.17 457.16L252.946 476.985L221.709 485.546L201.933 465.721L233.17 457.16Z" stroke="white" stroke-miterlimit="10" stroke-dasharray="1 3"/>
<path d="M252.946 476.986L272.722 496.811L241.485 505.146L221.708 485.547L252.946 476.986Z" stroke="white" stroke-miterlimit="10" stroke-dasharray="1 3"/>
<path d="M272.722 496.811L292.498 516.636L261.26 524.972L241.484 505.147L272.722 496.811Z" stroke="white" stroke-miterlimit="10" stroke-dasharray="1 3"/>
<path d="M63.7248 326.947L83.5008 346.772L52.2636 355.107L32.4875 335.282L63.7248 326.947Z" stroke="white" stroke-miterlimit="10" stroke-dasharray="1 3"/>
<path d="M83.5006 346.773L103.277 366.598L72.0395 374.934L52.2634 355.109L83.5006 346.773Z" stroke="white" stroke-miterlimit="10" stroke-dasharray="1 3"/>
<path d="M103.276 366.597L123.052 386.422L91.8151 394.757L72.0391 374.932L103.276 366.597Z" stroke="white" stroke-miterlimit="10" stroke-dasharray="1 3"/>
<path d="M123.052 386.421L142.828 406.246L111.591 414.582L91.8149 394.757L123.052 386.421Z" stroke="white" stroke-miterlimit="10" stroke-dasharray="1 3"/>
<path d="M142.829 406.247L162.605 426.072L131.368 434.408L111.592 414.583L142.829 406.247Z" stroke="white" stroke-miterlimit="10" stroke-dasharray="1 3"/>
<path d="M162.605 426.072L182.381 445.897L151.144 454.232L131.368 434.407L162.605 426.072Z" stroke="white" stroke-miterlimit="10" stroke-dasharray="1 3"/>
<path d="M182.381 445.896L201.932 465.721L170.92 474.057L151.144 454.232L182.381 445.896Z" stroke="white" stroke-miterlimit="10" stroke-dasharray="1 3"/>
<path d="M201.932 465.722L221.708 485.547L190.696 493.882L170.919 474.057L201.932 465.722Z" stroke="white" stroke-miterlimit="10" stroke-dasharray="1 3"/>
<path d="M221.709 485.546L241.485 505.145L210.472 513.706L190.696 493.881L221.709 485.546Z" stroke="white" stroke-miterlimit="10" stroke-dasharray="1 3"/>
<path d="M241.484 505.146L261.261 524.971L230.248 533.532L210.472 513.707L241.484 505.146Z" stroke="white" stroke-miterlimit="10" stroke-dasharray="1 3"/>
<path d="M32.4872 335.283L52.2633 355.108L21.0261 363.443L1.25 343.618L32.4872 335.283Z" stroke="white" stroke-miterlimit="10" stroke-dasharray="1 3"/>
<path d="M52.2629 355.107L72.039 374.932L40.8017 383.268L21.0256 363.443L52.2629 355.107Z" stroke="white" stroke-miterlimit="10" stroke-dasharray="1 3"/>
<path d="M72.0399 374.933L91.816 394.758L60.5788 403.093L40.8027 383.268L72.0399 374.933Z" stroke="white" stroke-miterlimit="10" stroke-dasharray="1 3"/>
<path d="M91.8158 394.757L111.592 414.582L80.3547 422.917L60.5786 403.092L91.8158 394.757Z" stroke="white" stroke-miterlimit="10" stroke-dasharray="1 3"/>
<path d="M111.592 414.582L131.368 434.407L100.131 442.742L80.3545 422.917L111.592 414.582Z" stroke="white" stroke-miterlimit="10" stroke-dasharray="1 3"/>
<path d="M131.367 434.408L151.143 454.233L119.906 462.569L100.13 442.744L131.367 434.408Z" stroke="white" stroke-miterlimit="10" stroke-dasharray="1 3"/>
<path d="M151.143 454.233L170.919 474.058L139.682 482.393L119.906 462.568L151.143 454.233Z" stroke="white" stroke-miterlimit="10" stroke-dasharray="1 3"/>
<path d="M170.92 474.058L190.696 493.883L159.459 502.219L139.683 482.394L170.92 474.058Z" stroke="white" stroke-miterlimit="10" stroke-dasharray="1 3"/>
<path d="M190.696 493.882L210.472 513.708L179.235 522.043L159.458 502.218L190.696 493.882Z" stroke="white" stroke-miterlimit="10" stroke-dasharray="1 3"/>
<path d="M210.472 513.707L230.248 533.532L199.011 541.867L179.235 522.042L210.472 513.707Z" stroke="white" stroke-miterlimit="10" stroke-dasharray="1 3"/>
</g>
<g opacity="0.6">
<path d="M319.214 107.788L338.99 127.613L307.753 135.948L287.977 116.123L319.214 107.788Z" stroke="#32E685" stroke-miterlimit="10"/>
<path d="M338.991 127.613L358.767 147.213L327.529 155.774L307.753 135.949L338.991 127.613Z" stroke="#32E685" stroke-miterlimit="10"/>
<path d="M358.766 147.212L378.318 167.037L347.305 175.598L327.529 155.773L358.766 147.212Z" stroke="#32E685" stroke-miterlimit="10"/>
<path d="M378.317 167.037L398.094 186.862L367.081 195.423L347.305 175.598L378.317 167.037Z" stroke="#32E685" stroke-miterlimit="10"/>
<path d="M398.094 186.862L417.87 206.687L386.858 215.023L367.082 195.423L398.094 186.862Z" stroke="#32E685" stroke-miterlimit="10"/>
<path d="M417.869 206.688L437.645 226.513L406.633 234.848L386.857 215.023L417.869 206.688Z" stroke="#32E685" stroke-miterlimit="10"/>
<path d="M437.646 226.513L457.422 246.338L426.41 254.674L406.633 234.849L437.646 226.513Z" stroke="#32E685" stroke-miterlimit="10"/>
<path d="M457.422 246.338L477.198 266.163L445.961 274.498L426.409 254.673L457.422 246.338Z" stroke="#32E685" stroke-miterlimit="10"/>
<path d="M477.198 266.162L496.974 285.987L465.737 294.323L445.961 274.498L477.198 266.162Z" stroke="#32E685" stroke-miterlimit="10"/>
<path d="M496.974 285.987L516.75 305.812L485.513 314.147L465.737 294.322L496.974 285.987Z" stroke="#32E685" stroke-miterlimit="10"/>
<path d="M287.977 116.123L307.753 135.948L276.516 144.284L256.74 124.459L287.977 116.123Z" stroke="#32E685" stroke-miterlimit="10"/>
<path d="M307.753 135.947L327.529 155.772L296.292 164.108L276.516 144.283L307.753 135.947Z" stroke="#32E685" stroke-miterlimit="10"/>
<path d="M327.529 155.772L347.305 175.597L316.068 183.932L296.292 164.107L327.529 155.772Z" stroke="#32E685" stroke-miterlimit="10"/>
<path d="M347.305 175.596L367.081 195.421L335.844 203.757L316.068 183.932L347.305 175.596Z" stroke="#32E685" stroke-miterlimit="10"/>
<path d="M367.082 195.425L386.858 215.024L355.62 223.585L335.844 203.76L367.082 195.425Z" stroke="#32E685" stroke-miterlimit="10"/>
<path d="M386.858 215.022L406.634 234.847L375.396 243.408L355.62 223.583L386.858 215.022Z" stroke="#32E685" stroke-miterlimit="10"/>
<path d="M406.633 234.849L426.409 254.674L395.172 263.235L375.396 243.41L406.633 234.849Z" stroke="#32E685" stroke-miterlimit="10"/>
<path d="M426.41 254.674L445.961 274.499L414.949 282.834L395.173 263.235L426.41 254.674Z" stroke="#32E685" stroke-miterlimit="10"/>
<path d="M445.96 274.498L465.736 294.323L434.724 302.659L414.948 282.834L445.96 274.498Z" stroke="#32E685" stroke-miterlimit="10"/>
<path d="M465.736 294.323L485.512 314.148L454.5 322.483L434.724 302.658L465.736 294.323Z" stroke="#32E685" stroke-miterlimit="10"/>
<path d="M256.74 124.459L276.516 144.284L245.279 152.62L225.502 132.795L256.74 124.459Z" stroke="#32E685" stroke-miterlimit="10"/>
<path d="M276.516 144.284L296.292 164.109L265.054 172.444L245.278 152.619L276.516 144.284Z" stroke="#32E685" stroke-miterlimit="10"/>
<path d="M296.291 164.109L316.068 183.934L284.83 192.27L265.054 172.445L296.291 164.109Z" stroke="#32E685" stroke-miterlimit="10"/>
<path d="M316.068 183.933L335.844 203.759L304.607 212.094L284.831 192.269L316.068 183.933Z" stroke="#32E685" stroke-miterlimit="10"/>
<path d="M335.844 203.758L355.62 223.583L324.383 231.919L304.607 212.093L335.844 203.758Z" stroke="#32E685" stroke-miterlimit="10"/>
<path d="M355.62 223.585L375.396 243.41L344.159 251.746L324.383 231.921L355.62 223.585Z" stroke="#32E685" stroke-miterlimit="10"/>
<path d="M375.396 243.409L395.172 263.234L363.935 271.569L344.159 251.744L375.396 243.409Z" stroke="#32E685" stroke-miterlimit="10"/>
<path d="M395.173 263.233L414.949 282.833L383.712 291.394L363.935 271.569L395.173 263.233Z" stroke="#32E685" stroke-miterlimit="10"/>
<path d="M414.948 282.834L434.725 302.659L403.487 311.22L383.711 291.395L414.948 282.834Z" stroke="#32E685" stroke-miterlimit="10"/>
<path d="M434.724 302.659L454.5 322.484L423.263 331.045L403.487 311.22L434.724 302.659Z" stroke="#32E685" stroke-miterlimit="10"/>
<path d="M225.503 132.794L245.279 152.619L214.266 160.954L194.49 141.129L225.503 132.794Z" stroke="#32E685" stroke-miterlimit="10"/>
<path d="M245.279 152.62L265.055 172.445L234.042 180.78L214.266 160.955L245.279 152.62Z" stroke="#32E685" stroke-miterlimit="10"/>
<path d="M265.054 172.445L284.83 192.27L253.818 200.606L234.042 180.781L265.054 172.445Z" stroke="#32E685" stroke-miterlimit="10"/>
<path d="M284.83 192.269L304.606 212.094L273.594 220.429L253.818 200.604L284.83 192.269Z" stroke="#32E685" stroke-miterlimit="10"/>
<path d="M304.607 212.094L324.383 231.919L293.146 240.255L273.595 220.43L304.607 212.094Z" stroke="#32E685" stroke-miterlimit="10"/>
<path d="M324.383 231.919L344.159 251.744L312.921 260.079L293.145 240.254L324.383 231.919Z" stroke="#32E685" stroke-miterlimit="10"/>
<path d="M344.159 251.745L363.935 271.57L332.698 279.906L312.922 260.081L344.159 251.745Z" stroke="#32E685" stroke-miterlimit="10"/>
<path d="M363.935 271.569L383.711 291.394L352.474 299.73L332.698 279.905L363.935 271.569Z" stroke="#32E685" stroke-miterlimit="10"/>
<path d="M383.711 291.395L403.487 311.22L372.25 319.555L352.474 299.73L383.711 291.395Z" stroke="#32E685" stroke-miterlimit="10"/>
<path d="M403.487 311.218L423.263 331.043L392.026 339.379L372.25 319.554L403.487 311.218Z" stroke="#32E685" stroke-miterlimit="10"/>
<path d="M194.49 141.129L214.266 160.954L183.029 169.289L163.253 149.464L194.49 141.129Z" stroke="#32E685" stroke-miterlimit="10"/>
<path d="M214.266 160.954L234.042 180.779L202.805 189.115L183.029 169.29L214.266 160.954Z" stroke="#32E685" stroke-miterlimit="10"/>
<path d="M234.042 180.779L253.818 200.604L222.581 208.94L202.804 189.115L234.042 180.779Z" stroke="#32E685" stroke-miterlimit="10"/>
<path d="M253.819 200.605L273.595 220.43L242.357 228.766L222.581 208.941L253.819 200.605Z" stroke="#32E685" stroke-miterlimit="10"/>
<path d="M273.594 220.43L293.146 240.255L262.133 248.59L242.357 228.765L273.594 220.43Z" stroke="#32E685" stroke-miterlimit="10"/>
<path d="M293.146 240.255L312.922 260.08L281.909 268.415L262.133 248.59L293.146 240.255Z" stroke="#32E685" stroke-miterlimit="10"/>
<path d="M312.921 260.079L332.697 279.904L301.685 288.239L281.909 268.414L312.921 260.079Z" stroke="#32E685" stroke-miterlimit="10"/>
<path d="M332.698 279.906L352.474 299.731L321.462 308.067L301.686 288.242L332.698 279.906Z" stroke="#32E685" stroke-miterlimit="10"/>
<path d="M352.474 299.729L372.25 319.554L341.238 327.89L321.462 308.065L352.474 299.729Z" stroke="#32E685" stroke-miterlimit="10"/>
<path d="M372.25 319.554L392.026 339.379L360.788 347.715L341.237 327.89L372.25 319.554Z" stroke="#32E685" stroke-miterlimit="10"/>
<path d="M163.252 149.465L183.028 169.29L151.791 177.851L132.015 158.026L163.252 149.465Z" stroke="#32E685" stroke-miterlimit="10"/>
<path d="M183.029 169.29L202.805 189.115L171.568 197.675L151.792 177.85L183.029 169.29Z" stroke="#32E685" stroke-miterlimit="10"/>
<path d="M202.805 189.116L222.581 208.941L191.344 217.277L171.568 197.677L202.805 189.116Z" stroke="#32E685" stroke-miterlimit="10"/>
<path d="M222.581 208.941L242.357 228.766L211.12 237.102L191.344 217.277L222.581 208.941Z" stroke="#32E685" stroke-miterlimit="10"/>
<path d="M242.357 228.766L262.133 248.591L230.896 256.927L211.12 237.101L242.357 228.766Z" stroke="#32E685" stroke-miterlimit="10"/>
<path d="M262.134 248.59L281.91 268.415L250.673 276.751L230.896 256.926L262.134 248.59Z" stroke="#32E685" stroke-miterlimit="10"/>
<path d="M281.909 268.416L301.685 288.241L270.448 296.576L250.672 276.751L281.909 268.416Z" stroke="#32E685" stroke-miterlimit="10"/>
<path d="M301.685 288.239L321.461 308.064L290.224 316.4L270.448 296.575L301.685 288.239Z" stroke="#32E685" stroke-miterlimit="10"/>
<path d="M321.461 308.066L341.237 327.891L310 336.226L290.224 316.401L321.461 308.066Z" stroke="#32E685" stroke-miterlimit="10"/>
<path d="M341.238 327.89L360.789 347.715L329.777 356.051L310.001 336.226L341.238 327.89Z" stroke="#32E685" stroke-miterlimit="10"/>
<path d="M132.016 158.026L151.792 177.851L120.779 186.186L101.003 166.361L132.016 158.026Z" stroke="#32E685" stroke-miterlimit="10"/>
<path d="M151.791 177.85L171.567 197.675L140.33 206.011L120.779 186.186L151.791 177.85Z" stroke="#32E685" stroke-miterlimit="10"/>
<path d="M171.568 197.677L191.344 217.276L160.106 225.837L140.33 206.012L171.568 197.677Z" stroke="#32E685" stroke-miterlimit="10"/>
<path d="M191.343 217.277L211.119 237.102L179.882 245.663L160.106 225.837L191.343 217.277Z" stroke="#32E685" stroke-miterlimit="10"/>
<path d="M211.121 237.101L230.897 256.926L199.659 265.487L179.883 245.662L211.121 237.101Z" stroke="#32E685" stroke-miterlimit="10"/>
<path d="M230.896 256.927L250.672 276.752L219.435 285.087L199.659 265.487L230.896 256.927Z" stroke="#32E685" stroke-miterlimit="10"/>
<path d="M250.672 276.751L270.448 296.576L239.211 304.912L219.435 285.087L250.672 276.751Z" stroke="#32E685" stroke-miterlimit="10"/>
<path d="M270.448 296.576L290.224 316.401L258.987 324.736L239.211 304.911L270.448 296.576Z" stroke="#32E685" stroke-miterlimit="10"/>
<path d="M290.225 316.4L310.001 336.225L278.763 344.56L258.987 324.735L290.225 316.4Z" stroke="#32E685" stroke-miterlimit="10"/>
<path d="M310.001 336.226L329.777 356.051L298.539 364.387L278.763 344.562L310.001 336.226Z" stroke="#32E685" stroke-miterlimit="10"/>
<path d="M101.003 166.361L120.779 186.186L89.5415 194.522L69.7654 174.697L101.003 166.361Z" stroke="#32E685" stroke-miterlimit="10"/>
<path d="M120.779 186.187L140.331 206.012L109.318 214.348L89.5422 194.523L120.779 186.187Z" stroke="#32E685" stroke-miterlimit="10"/>
<path d="M140.331 206.011L160.107 225.836L129.094 234.171L109.318 214.346L140.331 206.011Z" stroke="#32E685" stroke-miterlimit="10"/>
<path d="M160.106 225.837L179.883 245.662L148.87 253.998L129.094 234.173L160.106 225.837Z" stroke="#32E685" stroke-miterlimit="10"/>
<path d="M179.882 245.663L199.658 265.488L168.646 273.823L148.87 253.998L179.882 245.663Z" stroke="#32E685" stroke-miterlimit="10"/>
<path d="M199.659 265.486L219.435 285.086L188.423 293.647L168.647 273.822L199.659 265.486Z" stroke="#32E685" stroke-miterlimit="10"/>
<path d="M219.435 285.087L239.211 304.912L207.974 313.473L188.422 293.648L219.435 285.087Z" stroke="#32E685" stroke-miterlimit="10"/>
<path d="M239.211 304.911L258.987 324.736L227.75 333.296L207.974 313.471L239.211 304.911Z" stroke="#32E685" stroke-miterlimit="10"/>
<path d="M258.987 324.736L278.763 344.561L247.526 352.897L227.75 333.297L258.987 324.736Z" stroke="#32E685" stroke-miterlimit="10"/>
<path d="M278.763 344.562L298.539 364.387L267.302 372.723L247.526 352.898L278.763 344.562Z" stroke="#32E685" stroke-miterlimit="10"/>
<path d="M69.7663 174.697L89.5423 194.522L58.3051 202.858L38.5291 183.033L69.7663 174.697Z" stroke="#32E685" stroke-miterlimit="10"/>
<path d="M89.5421 194.523L109.318 214.348L78.081 222.684L58.3049 202.859L89.5421 194.523Z" stroke="#32E685" stroke-miterlimit="10"/>
<path d="M109.318 214.347L129.094 234.172L97.8566 242.507L78.0806 222.682L109.318 214.347Z" stroke="#32E685" stroke-miterlimit="10"/>
<path d="M129.095 234.171L148.871 253.996L117.634 262.332L97.8577 242.507L129.095 234.171Z" stroke="#32E685" stroke-miterlimit="10"/>
<path d="M148.871 253.998L168.647 273.823L137.409 282.158L117.633 262.333L148.871 253.998Z" stroke="#32E685" stroke-miterlimit="10"/>
<path d="M168.646 273.822L188.422 293.647L157.185 301.983L137.409 282.158L168.646 273.822Z" stroke="#32E685" stroke-miterlimit="10"/>
<path d="M188.422 293.647L207.974 313.472L176.961 321.807L157.185 301.982L188.422 293.647Z" stroke="#32E685" stroke-miterlimit="10"/>
<path d="M207.973 313.472L227.75 333.297L196.737 341.633L176.961 321.808L207.973 313.472Z" stroke="#32E685" stroke-miterlimit="10"/>
<path d="M227.749 333.296L247.525 352.895L216.513 361.456L196.737 341.631L227.749 333.296Z" stroke="#32E685" stroke-miterlimit="10"/>
<path d="M247.526 352.897L267.302 372.722L236.29 381.283L216.513 361.458L247.526 352.897Z" stroke="#32E685" stroke-miterlimit="10"/>
<path d="M38.5287 183.033L58.3048 202.858L27.0676 211.194L7.2915 191.369L38.5287 183.033Z" stroke="#32E685" stroke-miterlimit="10"/>
<path d="M58.3044 202.858L78.0805 222.683L46.8432 231.018L27.0671 211.193L58.3044 202.858Z" stroke="#32E685" stroke-miterlimit="10"/>
<path d="M78.0814 222.683L97.8575 242.508L66.6203 250.844L46.8442 231.019L78.0814 222.683Z" stroke="#32E685" stroke-miterlimit="10"/>
<path d="M97.8571 242.507L117.633 262.332L86.3959 270.667L66.6199 250.842L97.8571 242.507Z" stroke="#32E685" stroke-miterlimit="10"/>
<path d="M117.633 262.332L137.409 282.157L106.172 290.493L86.396 270.668L117.633 262.332Z" stroke="#32E685" stroke-miterlimit="10"/>
<path d="M137.409 282.158L157.185 301.983L125.948 310.319L106.172 290.494L137.409 282.158Z" stroke="#32E685" stroke-miterlimit="10"/>
<path d="M157.185 301.983L176.961 321.808L145.724 330.144L125.948 310.318L157.185 301.983Z" stroke="#32E685" stroke-miterlimit="10"/>
<path d="M176.962 321.808L196.738 341.633L165.5 349.969L145.724 330.144L176.962 321.808Z" stroke="#32E685" stroke-miterlimit="10"/>
<path d="M196.737 341.632L216.513 361.457L185.276 369.792L165.5 349.967L196.737 341.632Z" stroke="#32E685" stroke-miterlimit="10"/>
<path d="M216.514 361.457L236.29 381.282L205.052 389.618L185.276 369.793L216.514 361.457Z" stroke="#32E685" stroke-miterlimit="10"/>
</g>
<path d="M415.075 279.829L415.075 147.918" stroke="white" stroke-miterlimit="10" stroke-linecap="round" stroke-dasharray="1 3"/>
<path d="M415.385 147.66C422.956 147.66 429.094 141.507 429.094 133.918C429.094 126.328 422.956 120.176 415.385 120.176C407.814 120.176 401.677 126.328 401.677 133.918C401.677 141.507 407.814 147.66 415.385 147.66Z" fill="black" stroke="#32E685" stroke-width="2" stroke-miterlimit="10"/>
<path d="M409.992 133.918L414.487 138.424L421.903 130.989" stroke="#32E685" stroke-width="2" stroke-miterlimit="10" stroke-linecap="round"/>
<path d="M415.293 285.798C417.155 285.798 418.664 284.285 418.664 282.419C418.664 280.553 417.155 279.04 415.293 279.04C413.432 279.04 411.922 280.553 411.922 282.419C411.922 284.285 413.432 285.798 415.293 285.798Z" fill="white"/>
<path d="M227.509 329.688L227.509 197.777" stroke="white" stroke-miterlimit="10" stroke-linecap="round" stroke-dasharray="1 3"/>
<path d="M227.819 197.52C235.39 197.52 241.527 191.368 241.527 183.778C241.527 176.188 235.39 170.036 227.819 170.036C220.248 170.036 214.111 176.188 214.111 183.778C214.111 191.368 220.248 197.52 227.819 197.52Z" fill="black" stroke="#32E685" stroke-width="2" stroke-miterlimit="10"/>
<path d="M222.426 183.776L226.921 188.282L234.337 180.847" stroke="#32E685" stroke-width="2" stroke-miterlimit="10" stroke-linecap="round"/>
<path d="M227.727 335.657C229.589 335.657 231.098 334.144 231.098 332.277C231.098 330.411 229.589 328.898 227.727 328.898C225.866 328.898 224.356 330.411 224.356 332.277C224.356 334.144 225.866 335.657 227.727 335.657Z" fill="white"/>
<path d="M109.294 211.207L109.294 79.2961" stroke="white" stroke-miterlimit="10" stroke-linecap="round" stroke-dasharray="1 3"/>
<path d="M109.605 79.0375C117.176 79.0375 123.314 72.8849 123.314 65.2952C123.314 57.7055 117.176 51.5529 109.605 51.5529C102.034 51.5529 95.897 57.7055 95.897 65.2952C95.897 72.8849 102.034 79.0375 109.605 79.0375Z" fill="black" stroke="#32E685" stroke-width="2" stroke-miterlimit="10"/>
<path d="M104.211 65.295L108.706 69.8008L116.122 62.3663" stroke="#32E685" stroke-width="2" stroke-miterlimit="10" stroke-linecap="round"/>
<path d="M109.513 217.176C111.375 217.176 112.884 215.663 112.884 213.797C112.884 211.93 111.375 210.418 109.513 210.418C107.651 210.418 106.142 211.93 106.142 213.797C106.142 215.663 107.651 217.176 109.513 217.176Z" fill="white"/>
<path d="M296.072 160.654L296.072 28.7437" stroke="white" stroke-miterlimit="10" stroke-linecap="round" stroke-dasharray="1 3"/>
<path d="M296.383 28.4846C303.954 28.4846 310.091 22.332 310.091 14.7423C310.091 7.15264 303.954 1 296.383 1C288.812 1 282.674 7.15264 282.674 14.7423C282.674 22.332 288.812 28.4846 296.383 28.4846Z" fill="black" stroke="#32E685" stroke-width="2" stroke-miterlimit="10"/>
<path d="M290.99 14.742L295.484 19.2478L302.9 11.8133" stroke="#32E685" stroke-width="2" stroke-miterlimit="10" stroke-linecap="round"/>
<path d="M296.291 166.623C298.153 166.623 299.662 165.11 299.662 163.243C299.662 161.377 298.153 159.864 296.291 159.864C294.429 159.864 292.92 161.377 292.92 163.243C292.92 165.11 294.429 166.623 296.291 166.623Z" fill="white"/>
</svg>
