<svg width="40" height="40" viewBox="0 0 40 40" fill="none" xmlns="http://www.w3.org/2000/svg">
<rect width="40" height="40" rx="8" fill="#343437"/>
<path d="M28.3084 26.0456C29.0881 26.1567 29.8588 26.2679 29.9824 27.0761C30.3082 29.2275 26.2615 28.4262 25.3358 27.9607C23.8866 27.2266 23.0058 25.5523 23.3833 23.8988C23.5271 23.2597 24.3135 21.6039 25.0527 20.0453C25.7448 18.584 26.3964 17.2108 26.4458 16.8379C26.5469 16.0436 26.138 15.9788 25.8796 15.9649C25.5493 15.9487 25.2887 16.1131 24.9651 16.6156C24.7606 16.9329 23.1159 20.2931 22.0195 22.5394C21.5207 23.5561 21.1364 24.3458 21.0443 24.5195C20.5275 25.5268 19.8759 25.77 19.2221 25.7329C18.2672 25.682 17.8313 25.154 17.9684 24.2068C18.0066 23.9521 18.4717 22.778 18.975 21.5112C19.5681 20.0106 20.2175 18.3756 20.2759 17.9588C20.3433 17.484 20.2512 16.9792 19.7951 16.7383C19.3367 16.4952 18.7975 16.8657 18.6357 17.1459C18.5301 17.3312 17.7953 19.2556 17.0202 21.2866C16.1641 23.526 15.2609 25.8904 15.0946 26.203C14.5441 27.2405 13.9622 27.5694 13.0882 27.6111C11.021 27.713 9.48643 25.9576 10.1627 23.8085C10.2189 23.6302 10.3312 23.2365 10.4885 22.6992C11.1693 20.3417 12.6433 15.247 13.4611 13.7417C14.1397 12.4981 16.0226 11.5579 17.3302 12.1392C17.7572 12.3314 18.2919 12.5931 18.6941 12.7922C18.9278 12.908 19.1188 13.0006 19.2176 13.0493C19.7771 13.3063 20.3725 12.732 20.6916 12.4217C20.7365 12.3777 20.7769 12.3406 20.8106 12.3105C20.8421 12.2827 20.8736 12.2526 20.905 12.2248C21.1432 12.0095 21.3791 11.7964 21.6689 11.669C21.997 11.5232 22.5115 11.4629 22.9115 11.5232C23.3114 11.5834 23.5496 11.7408 23.6979 11.8636C23.945 12.0651 24.1113 12.2318 24.3225 12.4402L24.4528 12.5676C24.837 12.9451 25.1201 12.7644 25.3268 12.6371L25.3808 12.6046L25.392 12.5977C25.7493 12.3823 26.0369 12.2109 27.0996 12.2295C28.2028 12.248 29.4723 12.6579 29.7375 14.5962C29.879 15.643 29.0769 17.491 28.241 19.4108C27.3558 21.4441 26.4391 23.5561 26.5716 24.8807C26.6637 25.8117 27.4906 25.9298 28.3084 26.0456Z" fill="#FF1154"/>
</svg>
