<svg width="114" height="40" viewBox="0 0 114 40" fill="none" xmlns="http://www.w3.org/2000/svg">
<g clip-path="url(#clip0_1050_31789)">
<rect width="113.911" height="40" rx="20" fill="#FF6819"/>
<path d="M27.7139 19.9873L31.5908 17.6702L27.7139 19.9873Z" fill="#FF1319"/>
<path d="M17.9268 19.9875L27.9736 13.9681L17.9268 19.9875Z" fill="#FF1319"/>
<path d="M8.12793 19.9872L24.3684 10.2654L8.12793 19.9872Z" fill="#FF1319"/>
<path d="M-1.65918 19.9875L20.7631 6.56332L-1.65918 19.9875Z" fill="#FF1319"/>
<path d="M-11.4463 19.9877L17.1577 2.86121L-11.4463 19.9877Z" fill="#FF1319"/>
<path d="M-21.2451 19.9874L13.5525 -0.841461L-21.2451 19.9874Z" fill="#FF1319"/>
<path d="M-31.0312 19.9877L9.93633 -4.54358L-31.0312 19.9877Z" fill="#FF1319"/>
<path d="M-40.8174 19.9879L6.33197 -8.24567L-40.8174 19.9879Z" fill="#FF1319"/>
<path d="M-50.6055 19.9871L2.72566 -11.9489L-50.6055 19.9871Z" fill="#FF1319"/>
<path d="M53.1855 16.4564L56.9324 14.213L53.1855 16.4564Z" fill="#FF1319"/>
<path d="M45.9629 9.05188L56.9317 2.49304L45.9629 9.05188Z" fill="#FF1319"/>
<path d="M42.3574 5.34984L56.9313 -3.37891L42.3574 5.34984Z" fill="#FF1319"/>
<path d="M38.7529 1.64733L56.9318 -9.23911L38.7529 1.64733Z" fill="#FF1319"/>
<path d="M54.9822 18.3076L56.9324 17.143L56.9324 14.213L53.1855 16.4564L54.9822 18.3076Z" fill="#FF1319"/>
<path d="M51.3768 14.6056L56.9321 11.2833L56.9321 8.35327L49.5684 12.7544L51.3768 14.6056Z" fill="#FF1319"/>
<path d="M27.7139 19.9873L32.6073 19.9873L33.3874 19.5214L31.5908 17.6702L27.7139 19.9873Z" fill="#FF1319"/>
<path d="M47.7713 10.9031L56.9317 5.42307L56.9317 2.49304L45.9629 9.05188L47.7713 10.9031Z" fill="#FF1319"/>
<path d="M17.9268 19.9875L22.8202 19.9875L29.7821 15.8193L27.9736 13.9681L17.9268 19.9875Z" fill="#FF1319"/>
<path d="M44.1659 7.20103L56.9313 -0.436635L56.9313 -3.37891L42.3574 5.34985L44.1659 7.20103Z" fill="#FF1319"/>
<path d="M8.12793 19.9872L13.0213 19.9872L26.1768 12.1166L24.3684 10.2654L8.12793 19.9872Z" fill="#FF1319"/>
<path d="M40.5495 3.49851L56.9318 -6.30909L56.9318 -9.23911L38.7529 1.64733L40.5495 3.49851Z" fill="#FF1319"/>
<path d="M-1.65918 19.9875L3.23423 19.9875L22.5715 8.41451L20.7631 6.56332L-1.65918 19.9875Z" fill="#FF1319"/>
<path d="M-11.4463 19.9877L-6.55287 19.9877L18.9662 4.71239L17.1577 2.86121L-11.4463 19.9877Z" fill="#FF1319"/>
<path d="M-21.2451 19.9874L-16.3517 19.9874L15.3491 1.00972L13.5525 -0.841461L-21.2451 19.9874Z" fill="#FF1319"/>
<path d="M-31.0312 19.9877L-26.1378 19.9877L11.7448 -2.69239L9.93633 -4.54358L-31.0312 19.9877Z" fill="#FF1319"/>
<path d="M-40.8174 19.9879L-35.924 19.9879L8.1404 -6.39449L6.33197 -8.24567L-40.8174 19.9879Z" fill="#FF1319"/>
<path d="M-50.6055 19.9871L-45.7121 19.9871L4.5341 -10.0977L2.72566 -11.9489L-50.6055 19.9871Z" fill="#FF1319"/>
<path d="M-60.4033 19.9874L-55.5099 19.9874L0.929832 -13.812L-0.878601 -15.651L-60.4033 19.9874Z" fill="#FF1319"/>
<path d="M24.3683 10.2658L38.753 1.68413L36.9446 -0.167053L22.5717 8.41459L24.3683 10.2658ZM27.9142 13.9436L42.299 5.36198L40.5024 3.5108L26.1176 12.0924L27.9142 13.9436ZM31.5311 17.6215L45.904 9.03983L44.1074 7.18864L29.7227 15.7703L31.5311 17.6215ZM52.1331 19.9385L56.5537 19.9385L54.9226 18.259L52.1331 19.9385ZM42.3344 19.9385L47.2397 19.9385L53.1496 16.4078L51.3412 14.5566L42.3581 19.9385M33.8123 19.9385L37.4647 19.9385L49.5327 12.7054L47.7361 10.8542L33.3514 19.4359L33.8123 19.9017M-84.9061 19.9017L-80.0127 19.9017L-73.8901 16.2239L-68.5238 10.7071L-67.0464 9.1992L-84.918 19.9017" fill="#FF1319"/>
<path d="M9.94833 -4.54414L24.3213 -13.1258L22.5247 -14.977L8.1399 -6.39533L9.94833 -4.54414ZM13.4943 -0.866295L27.8672 -9.44794L26.0706 -11.2991L11.7804 -2.69296L13.5534 -0.841774M17.0993 2.83607L31.4841 -5.74557L29.6757 -7.59676L15.3264 1.0094L17.1348 2.86059M20.6808 6.53844L35.0655 -2.04321L33.2571 -3.89439L18.8723 4.68725L20.6808 6.53844ZM-87.459 6.80815L-9.32983 -39.9863C-10.5118 -40.3296 -11.5992 -40.6238 -12.7458 -40.869L-80.5207 -0.204285L-87.3762 6.83266" fill="#FF1319"/>
<path d="M86.1503 19.9873L82.2734 17.6702L86.1503 19.9873Z" fill="#FF1319"/>
<path d="M95.9375 19.9875L85.8906 13.9681L95.9375 19.9875Z" fill="#FF1319"/>
<path d="M105.736 19.9872L89.4951 10.2654L105.736 19.9872Z" fill="#FF1319"/>
<path d="M115.523 19.9875L93.1006 6.56332L115.523 19.9875Z" fill="#FF1319"/>
<path d="M125.31 19.9877L96.7061 2.86121L125.31 19.9877Z" fill="#FF1319"/>
<path d="M135.108 19.9874L100.311 -0.841461L135.108 19.9874Z" fill="#FF1319"/>
<path d="M144.894 19.9877L103.927 -4.54358L144.894 19.9877Z" fill="#FF1319"/>
<path d="M154.683 19.9879L107.533 -8.24567L154.683 19.9879Z" fill="#FF1319"/>
<path d="M164.481 19.9871L111.138 -11.9489L164.481 19.9871Z" fill="#FF1319"/>
<path d="M60.6785 16.4564L56.9316 14.213L60.6785 16.4564Z" fill="#FF1319"/>
<path d="M67.9005 9.05188L56.9316 2.49304L67.9005 9.05188Z" fill="#FF1319"/>
<path d="M71.5055 5.34984L56.9316 -3.37891L71.5055 5.34984Z" fill="#FF1319"/>
<path d="M75.1106 1.64733L56.9316 -9.23911L75.1106 1.64733Z" fill="#FF1319"/>
<path d="M58.8819 18.3076L56.9316 17.143L56.9316 14.213L60.6785 16.4564L58.8819 18.3076Z" fill="#FF1319"/>
<path d="M62.487 14.6056L56.9316 11.2833L56.9316 8.35327L64.2954 12.7544L62.487 14.6056Z" fill="#FF1319"/>
<path d="M86.1511 19.9873L81.2577 19.9873L80.4775 19.5214L82.2742 17.6702L86.1511 19.9873Z" fill="#FF1319"/>
<path d="M66.092 10.9031L56.9316 5.42307L56.9316 2.49304L67.9005 9.05188L66.092 10.9031Z" fill="#FF1319"/>
<path d="M95.9373 19.9875L91.0439 19.9875L84.082 15.8193L85.8905 13.9681L95.9373 19.9875Z" fill="#FF1319"/>
<path d="M69.6971 7.20103L56.9316 -0.436635L56.9316 -3.37891L71.5055 5.34985L69.6971 7.20103Z" fill="#FF1319"/>
<path d="M105.736 19.9872L100.843 19.9872L87.6875 12.1166L89.4959 10.2654L105.736 19.9872Z" fill="#FF1319"/>
<path d="M73.3021 3.49851L56.9316 -6.30909L56.9316 -9.23911L75.1106 1.64733L73.3021 3.49851Z" fill="#FF1319"/>
<path d="M115.523 19.9875L110.629 19.9875L91.292 8.41451L93.1004 6.56332L115.523 19.9875Z" fill="#FF1319"/>
<path d="M125.31 19.9877L120.416 19.9877L94.8975 4.71239L96.7059 2.86121L125.31 19.9877Z" fill="#FF1319"/>
<path d="M135.108 19.9874L130.203 19.9874L98.5137 1.00972L100.31 -0.841461L135.108 19.9874Z" fill="#FF1319"/>
<path d="M144.895 19.9877L140.002 19.9877L102.119 -2.69239L103.928 -4.54358L144.895 19.9877Z" fill="#FF1319"/>
<path d="M154.681 19.9879L149.788 19.9879L105.724 -6.39449L107.532 -8.24567L154.681 19.9879Z" fill="#FF1319"/>
<path d="M164.48 19.9871L159.575 19.9871L109.329 -10.0977L111.138 -11.9489L164.48 19.9871Z" fill="#FF1319"/>
<path d="M174.268 19.9874L169.374 19.9874L112.935 -13.812L114.743 -15.651L174.268 19.9874Z" fill="#FF1319"/>
<path d="M89.4955 10.2658L91.2921 8.41459L76.9192 -0.167053L75.1108 1.68413L89.4955 10.2658ZM85.8905 13.9436L87.6871 12.0924L73.3023 3.5108L71.5057 5.36198L85.8905 13.9436ZM82.2736 17.6215L84.082 15.7703L69.6973 7.18864L67.9006 9.03983L82.2736 17.6215ZM61.6716 19.9385L58.8821 18.259L57.251 19.9385L61.6716 19.9385ZM71.4702 19.9385L62.4872 14.5566L60.6787 16.4078L66.5886 19.9385L71.4821 19.9385M80.0278 19.9385L80.4888 19.4727L66.104 10.891L64.3074 12.7422L76.3755 19.9753L80.0278 19.9753M198.746 19.9753L180.875 9.27276L182.352 10.7807L187.718 16.2974L193.841 19.9753L198.734 19.9753" fill="#FF1319"/>
<path d="M103.974 -4.54412L105.783 -6.39531L91.398 -14.977L89.6014 -13.1258L103.974 -4.54412ZM100.428 -0.866276L102.237 -2.71746L87.852 -11.2991L86.0554 -9.44792L100.428 -0.866276ZM96.8233 2.81157L98.6317 0.960388L84.247 -7.62126L82.4385 -5.77007L96.8233 2.81157ZM93.2773 6.48942L95.0858 4.63823L80.701 -3.94341L78.8926 -2.09222L93.2773 6.48942ZM201.417 6.75913L194.562 -0.277817L126.527 -40.8445C125.345 -40.5993 124.245 -40.3051 123.111 -39.9618L201.24 6.83268" fill="#FF1319"/>
<path d="M27.7139 19.9879L31.5908 22.3049L27.7139 19.9879Z" fill="#FF1319"/>
<path d="M17.9268 19.9879L27.9736 26.0073L17.9268 19.9879Z" fill="#FF1319"/>
<path d="M8.12793 19.9879L24.3684 29.7096L8.12793 19.9879Z" fill="#FF1319"/>
<path d="M-1.65918 19.9879L20.7631 33.412L-1.65918 19.9879Z" fill="#FF1319"/>
<path d="M-11.4463 19.9879L17.1577 37.1144L-11.4463 19.9879Z" fill="#FF1319"/>
<path d="M-21.2451 19.9879L13.5525 40.8167L-21.2451 19.9879Z" fill="#FF1319"/>
<path d="M-31.0312 19.9879L9.93633 44.5191L-31.0312 19.9879Z" fill="#FF1319"/>
<path d="M-40.8174 19.9879L6.33197 48.2215L-40.8174 19.9879Z" fill="#FF1319"/>
<path d="M-50.6055 19.9879L2.72566 51.9238L-50.6055 19.9879Z" fill="#FF1319"/>
<path d="M53.1855 23.5181L56.9324 25.7616L53.1855 23.5181Z" fill="#FF1319"/>
<path d="M45.9629 30.9229L56.9317 37.4817L45.9629 30.9229Z" fill="#FF1319"/>
<path d="M42.3574 34.6255L56.9313 43.342L42.3574 34.6255Z" fill="#FF1319"/>
<path d="M38.7529 38.3277L56.9318 49.2141L38.7529 38.3277Z" fill="#FF1319"/>
<path d="M54.9822 21.6668L56.9324 22.8315L56.9324 25.7615L53.1855 23.518L54.9822 21.6668Z" fill="#FF1319"/>
<path d="M51.3768 25.3695L56.9321 28.6918L56.9321 31.6218L49.5684 27.2207L51.3768 25.3695Z" fill="#FF1319"/>
<path d="M27.7139 19.9879L32.6073 19.9879L33.3874 20.4537L31.5908 22.3049L27.7139 19.9879Z" fill="#FF1319"/>
<path d="M47.7713 29.0721L56.9317 34.5521L56.9317 37.4822L45.9629 30.9233L47.7713 29.0721Z" fill="#FF1319"/>
<path d="M17.9268 19.9879L22.8202 19.9879L29.7821 24.1561L27.9736 26.0073L17.9268 19.9879Z" fill="#FF1319"/>
<path d="M44.1659 32.7742L56.9313 40.4119L56.9313 43.3419L42.3574 34.6254L44.1659 32.7742Z" fill="#FF1319"/>
<path d="M8.12793 19.9879L13.0213 19.9879L26.1768 27.8584L24.3684 29.7096L8.12793 19.9879Z" fill="#FF1319"/>
<path d="M40.5495 36.4769L56.9318 46.2845L56.9318 49.2145L38.7529 38.3281L40.5495 36.4769Z" fill="#FF1319"/>
<path d="M-1.65918 19.9879L3.23423 19.9879L22.5715 31.5608L20.7631 33.412L-1.65918 19.9879Z" fill="#FF1319"/>
<path d="M-11.4463 19.9879L-6.55287 19.9879L18.9662 35.2632L17.1577 37.1144L-11.4463 19.9879Z" fill="#FF1319"/>
<path d="M-21.2451 19.9879L-16.3517 19.9879L15.3491 38.9655L13.5525 40.8167L-21.2451 19.9879Z" fill="#FF1319"/>
<path d="M-31.0312 19.9879L-26.1378 19.9879L11.7448 42.6679L9.93633 44.5191L-31.0312 19.9879Z" fill="#FF1319"/>
<path d="M-40.8174 19.9879L-35.924 19.9879L8.1404 46.3703L6.33197 48.2215L-40.8174 19.9879Z" fill="#FF1319"/>
<path d="M-50.6055 19.9879L-45.7121 19.9879L4.5341 50.0727L2.72566 51.9238L-50.6055 19.9879Z" fill="#FF1319"/>
<path d="M-60.4033 19.9879L-55.5099 19.9879L0.929832 53.775L-0.878601 55.6262L-60.4033 19.9879Z" fill="#FF1319"/>
<path d="M24.3689 29.7096L22.5723 31.5608L36.9452 40.1425L38.7536 38.2913L24.3689 29.7096ZM27.9148 26.0318L26.1182 27.883L40.503 36.4646L42.2996 34.6134L27.9148 26.0318ZM31.5317 22.3539L29.7233 24.2051L44.108 32.7868L45.9046 30.9356L31.5317 22.3539ZM52.1337 20.0369L54.9232 21.7164L56.5543 20.0369L52.1337 20.0369ZM42.335 20.0369L51.3181 25.4188L53.1266 23.5676L47.2166 20.0369L42.3941 20.0369M33.8484 20.0369L33.3874 20.5027L47.7722 29.0844L49.5688 27.2332L37.5007 20.0001L33.8484 20.0001M-84.8701 20.0001L-66.9985 30.6659L-68.476 29.1579L-73.8422 23.6412L-79.9649 19.9633L-84.8701 19.9633" fill="#FF1319"/>
<path d="M9.94861 44.5186L8.14017 46.3698L22.5249 54.9515L24.3215 53.1003L9.94861 44.5186ZM13.4946 40.8408L11.7807 42.6674L26.1654 51.2491L27.9621 49.3979L13.5891 40.8163M17.1351 37.1384L15.3266 38.9651L29.7114 47.5467L31.5198 45.6955L17.1351 37.1139M20.681 33.4361L18.8726 35.2872L33.2573 43.8689L35.0658 42.0177L20.681 33.4361ZM-87.376 33.1173L-80.5205 40.1543L-12.6628 80.7945C-11.4808 80.5493 -10.3815 80.2551 -9.24682 79.9118L-87.376 33.1173Z" fill="#FF1319"/>
<path d="M86.1503 19.9879L82.2734 22.3049L86.1503 19.9879Z" fill="#FF1319"/>
<path d="M95.9375 19.9879L85.8906 26.0073L95.9375 19.9879Z" fill="#FF1319"/>
<path d="M105.736 19.9879L89.4951 29.7096L105.736 19.9879Z" fill="#FF1319"/>
<path d="M115.523 19.9879L93.1006 33.412L115.523 19.9879Z" fill="#FF1319"/>
<path d="M125.31 19.9879L96.7061 37.1144L125.31 19.9879Z" fill="#FF1319"/>
<path d="M135.108 19.9879L100.311 40.8167L135.108 19.9879Z" fill="#FF1319"/>
<path d="M144.894 19.9879L103.927 44.5191L144.894 19.9879Z" fill="#FF1319"/>
<path d="M154.683 19.9879L107.533 48.2215L154.683 19.9879Z" fill="#FF1319"/>
<path d="M164.481 19.9879L111.138 51.9238L164.481 19.9879Z" fill="#FF1319"/>
<path d="M60.6785 23.5181L56.9316 25.7616L60.6785 23.5181Z" fill="#FF1319"/>
<path d="M67.9005 30.9229L56.9316 37.4817L67.9005 30.9229Z" fill="#FF1319"/>
<path d="M71.5055 34.6255L56.9316 43.342L71.5055 34.6255Z" fill="#FF1319"/>
<path d="M75.1106 38.3277L56.9316 49.2141L75.1106 38.3277Z" fill="#FF1319"/>
<path d="M58.8819 21.6668L56.9316 22.8315L56.9316 25.7615L60.6785 23.518L58.8819 21.6668Z" fill="#FF1319"/>
<path d="M62.487 25.3695L56.9316 28.6918L56.9316 31.6218L64.2954 27.2207L62.487 25.3695Z" fill="#FF1319"/>
<path d="M86.1511 19.9879L81.2577 19.9879L80.4775 20.4537L82.2742 22.3049L86.1511 19.9879Z" fill="#FF1319"/>
<path d="M66.092 29.0721L56.9316 34.5521L56.9316 37.4822L67.9005 30.9233L66.092 29.0721Z" fill="#FF1319"/>
<path d="M95.9373 19.9879L91.0439 19.9879L84.082 24.1561L85.8905 26.0073L95.9373 19.9879Z" fill="#FF1319"/>
<path d="M69.6971 32.7742L56.9316 40.4119L56.9316 43.3419L71.5055 34.6254L69.6971 32.7742Z" fill="#FF1319"/>
<path d="M105.736 19.9879L100.843 19.9879L87.6875 27.8584L89.4959 29.7096L105.736 19.9879Z" fill="#FF1319"/>
<path d="M73.3021 36.4769L56.9316 46.2845L56.9316 49.2145L75.1106 38.3281L73.3021 36.4769Z" fill="#FF1319"/>
<path d="M115.523 19.9879L110.629 19.9879L91.292 31.5608L93.1004 33.412L115.523 19.9879Z" fill="#FF1319"/>
<path d="M125.31 19.9879L120.416 19.9879L94.8975 35.2632L96.7059 37.1144L125.31 19.9879Z" fill="#FF1319"/>
<path d="M135.108 19.9879L130.203 19.9879L98.5137 38.9655L100.31 40.8167L135.108 19.9879Z" fill="#FF1319"/>
<path d="M144.895 19.9879L140.002 19.9879L102.119 42.6679L103.928 44.5191L144.895 19.9879Z" fill="#FF1319"/>
<path d="M154.681 19.9879L149.788 19.9879L105.724 46.3703L107.532 48.2215L154.681 19.9879Z" fill="#FF1319"/>
<path d="M164.48 19.9879L159.575 19.9879L109.329 50.0727L111.138 51.9238L164.48 19.9879Z" fill="#FF1319"/>
<path d="M174.268 19.9879L169.374 19.9879L112.935 53.775L114.743 55.6262L174.268 19.9879Z" fill="#FF1319"/>
<path d="M89.4955 29.7096L75.1108 38.2913L76.9192 40.1425L91.2921 31.5608L89.4955 29.7096ZM85.8905 26.0318L71.5057 34.6134L73.3023 36.4646L87.6871 27.883L85.8905 26.0318ZM82.2736 22.3539L67.9006 30.9356L69.6973 32.7868L84.082 24.2051L82.2736 22.3539ZM61.6716 20.0369L57.251 20.0369L58.8821 21.7164L61.6716 20.0369ZM71.4702 20.0369L66.5768 20.0369L60.6669 23.5676L62.4753 25.4188L71.4584 20.0369M80.0042 20.0369L76.3518 20.0369L64.2838 27.27L66.1513 29.0721L80.5361 20.4905L80.0751 20.0246M198.794 20.0246L193.806 20.0246L187.683 23.7025L182.317 29.2192L180.863 30.6659L198.734 19.9633" fill="#FF1319"/>
<path d="M103.974 44.5187L89.6014 53.1004L91.398 54.9515L105.783 46.3699L103.974 44.5187ZM100.428 40.8409L86.0554 49.4225L87.852 51.2737L102.237 42.692L100.428 40.8409ZM96.8233 37.163L82.4385 45.7447L84.247 47.5958L98.6317 39.0142L96.8233 37.163ZM93.2773 33.4852L78.8926 42.0668L80.701 43.918L95.0858 35.3363L93.2773 33.4852ZM201.417 33.2155L123.288 80.0099C124.47 80.3532 125.557 80.6474 126.704 80.8926L194.562 40.2524L201.417 33.2155Z" fill="#FF1319"/>
</g>
<defs>
<clipPath id="clip0_1050_31789">
<rect width="113.911" height="40" rx="20" fill="white"/>
</clipPath>
</defs>
</svg>
