<svg width="116" height="40" viewBox="0 0 116 40" fill="none" xmlns="http://www.w3.org/2000/svg">
<g clip-path="url(#clip0_1050_31042)">
<rect width="116" height="39.7152" rx="19.8576" fill="#5500FF"/>
<path d="M14.4512 19.8394L20.2251 16.3885L14.4512 19.8394Z" fill="black"/>
<path d="M-0.124023 19.8395L14.839 10.8747L-0.124023 19.8395Z" fill="black"/>
<path d="M-14.7178 19.8391L9.46946 5.36023L-14.7178 19.8391Z" fill="black"/>
<path d="M-29.2939 19.8392L4.09992 -0.153656L-29.2939 19.8392Z" fill="black"/>
<path d="M52.3877 14.5803L57.968 11.2391L52.3877 14.5803Z" fill="black"/>
<path d="M41.6318 3.55238L57.9679 -6.21582L41.6318 3.55238Z" fill="black"/>
<path d="M55.0634 17.3373L57.968 15.6028L57.968 11.2391L52.3877 14.5803L55.0634 17.3373Z" fill="black"/>
<path d="M49.6943 11.8242L57.968 6.87618L57.968 2.51245L47.001 9.06717L49.6943 11.8242Z" fill="black"/>
<path d="M14.4512 19.8394L21.739 19.8394L22.9009 19.1456L20.2251 16.3885L14.4512 19.8394Z" fill="black"/>
<path d="M44.3252 6.30937L57.9679 -1.85207L57.9679 -6.21582L41.6318 3.55238L44.3252 6.30937Z" fill="black"/>
<path d="M-0.124023 19.8395L7.16383 19.8395L17.5323 13.6317L14.839 10.8747L-0.124023 19.8395Z" fill="black"/>
<path d="M38.9551 0.795599L57.9668 -10.5793L57.9668 -14.9613L36.2617 -1.96141L38.9551 0.795599Z" fill="black"/>
<path d="M-14.7178 19.8391L-7.42992 19.8391L12.1628 8.11724L9.46946 5.36023L-14.7178 19.8391Z" fill="black"/>
<path d="M-29.2939 19.8392L-22.0061 19.8392L6.79327 2.60335L4.09993 -0.153656L-29.2939 19.8392Z" fill="black"/>
<path d="M-43.8691 19.8393L-36.5813 19.8393L1.42472 -2.91053L-1.26862 -5.66754L-43.8691 19.8393Z" fill="black"/>
<path d="M9.46716 5.36011L30.8906 -7.4207L28.1973 -10.1777L6.79143 2.6031L9.46716 5.36011ZM14.7482 10.8376L36.1717 -1.94321L33.496 -4.70022L12.0725 8.08059L14.7482 10.8376ZM20.1349 16.3151L41.5408 3.53428L38.865 0.777273L17.4416 13.5581L20.1349 16.3151ZM50.8178 19.7659L57.4016 19.7659L54.9722 17.2645L50.8178 19.7659ZM36.2245 19.7659L43.53 19.7659L52.3317 14.5075L49.6384 11.7505L36.2597 19.7659M23.5324 19.7659L28.9719 19.7659L46.9451 8.99351L44.2693 6.2365L22.8458 19.0173L23.5324 19.7111M-153.277 19.7111L-145.989 19.7111L-136.871 14.2336L-128.879 6.01741L-126.678 3.77163L-153.295 19.7111" fill="black"/>
<path d="M-12.0095 -16.6963L9.39638 -29.4771L6.72064 -32.2341L-14.7028 -19.4533L-12.0095 -16.6963ZM-6.72845 -11.2188L14.6774 -23.9996L12.0017 -26.7566L-9.28096 -13.9393L-6.64043 -11.1823M-1.35937 -5.70477L20.0641 -18.4856L17.3708 -21.2426L-3.99989 -8.42526L-1.30656 -5.66825M3.97449 -0.190765L25.398 -12.9716L22.7046 -15.7286L1.28116 -2.94777L3.97449 -0.190765ZM-157.08 0.210922L-40.7208 -69.481C-42.4812 -69.9922 -44.1007 -70.4304 -45.8083 -70.7956L-146.747 -10.2328L-156.957 0.247429" fill="black"/>
<path d="M101.483 19.8394L95.709 16.3885L101.483 19.8394Z" fill="black"/>
<path d="M116.059 19.8395L101.096 10.8747L116.059 19.8395Z" fill="black"/>
<path d="M130.653 19.8391L106.466 5.36023L130.653 19.8391Z" fill="black"/>
<path d="M145.229 19.8392L111.835 -0.153656L145.229 19.8392Z" fill="black"/>
<path d="M63.5481 14.5803L57.9678 11.2391L63.5481 14.5803Z" fill="black"/>
<path d="M74.3038 3.55238L57.9678 -6.21582L74.3038 3.55238Z" fill="black"/>
<path d="M60.8724 17.3373L57.9678 15.6028L57.9678 11.2391L63.5481 14.5803L60.8724 17.3373Z" fill="black"/>
<path d="M66.2414 11.8242L57.9678 6.87618L57.9678 2.51245L68.9348 9.06717L66.2414 11.8242Z" fill="black"/>
<path d="M101.484 19.8394L94.196 19.8394L93.0342 19.1456L95.7099 16.3885L101.484 19.8394Z" fill="black"/>
<path d="M71.6105 6.30937L57.9678 -1.85207L57.9678 -6.21582L74.3038 3.55238L71.6105 6.30937Z" fill="black"/>
<path d="M116.06 19.8395L108.772 19.8395L98.4033 13.6317L101.097 10.8747L116.06 19.8395Z" fill="black"/>
<path d="M76.9796 0.795599L57.9678 -10.5793L57.9678 -14.9613L79.6729 -1.96141L76.9796 0.795599Z" fill="black"/>
<path d="M130.652 19.8391L123.364 19.8391L103.771 8.11724L106.465 5.36023L130.652 19.8391Z" fill="black"/>
<path d="M145.228 19.8392L137.94 19.8392L109.141 2.60335L111.834 -0.153656L145.228 19.8392Z" fill="black"/>
<path d="M159.804 19.8393L152.516 19.8393L114.51 -2.91053L117.203 -5.66754L159.804 19.8393Z" fill="black"/>
<path d="M106.465 5.36044L109.141 2.60344L87.7346 -10.1774L85.0413 -7.42036L106.465 5.36044ZM101.096 10.8379L103.771 8.08092L82.348 -4.69988L79.6722 -1.94287L101.096 10.8379ZM95.709 16.3154L98.4024 13.5584L76.9789 0.777608L74.3031 3.53461L95.709 16.3154ZM65.0261 19.7662L60.8717 17.2648L58.4424 19.7662L65.0261 19.7662ZM79.6194 19.7662L66.2407 11.7508L63.5474 14.5079L72.3492 19.7662L79.637 19.7662M92.3644 19.7662L93.0509 19.0724L71.6274 6.29162L68.9517 9.04861L86.9249 19.821L92.3644 19.821M269.174 19.821L242.558 3.88153L244.758 6.12729L252.75 14.3435L261.869 19.821L269.156 19.821" fill="black"/>
<path d="M128.029 -16.6959L130.723 -19.4529L109.299 -32.2337L106.624 -29.4767L128.029 -16.6959ZM122.748 -11.2184L125.442 -13.9754L104.018 -26.7562L101.343 -23.9992L122.748 -11.2184ZM117.379 -5.74088L120.073 -8.49788L98.6492 -21.2787L95.9559 -18.5217L117.379 -5.74088ZM112.098 -0.26339L114.792 -3.02039L93.3681 -15.8012L90.6748 -13.0442L112.098 -0.26339ZM273.153 0.138298L262.943 -10.342L161.617 -70.7587C159.857 -70.3935 158.22 -69.9553 156.53 -69.4441L272.889 0.247841" fill="black"/>
<path d="M14.4512 19.8389L20.2251 23.2897L14.4512 19.8389Z" fill="black"/>
<path d="M-0.124023 19.8389L14.839 28.8037L-0.124023 19.8389Z" fill="black"/>
<path d="M-14.7178 19.8389L9.46946 34.3178L-14.7178 19.8389Z" fill="black"/>
<path d="M-29.2939 19.8389L4.09992 39.8318L-29.2939 19.8389Z" fill="black"/>
<path d="M52.3877 25.0969L57.968 28.4382L52.3877 25.0969Z" fill="black"/>
<path d="M41.6318 36.1253L57.9679 45.8935L41.6318 36.1253Z" fill="black"/>
<path d="M55.0634 22.34L57.968 24.0745L57.968 28.4382L52.3877 25.097L55.0634 22.34Z" fill="black"/>
<path d="M49.6943 27.8544L57.968 32.8024L57.968 37.1662L47.001 30.6114L49.6943 27.8544Z" fill="black"/>
<path d="M14.4512 19.8389L21.739 19.8389L22.9009 20.5327L20.2251 23.2897L14.4512 19.8389Z" fill="black"/>
<path d="M44.3252 33.3689L57.9679 41.5303L57.9679 45.8941L41.6318 36.1259L44.3252 33.3689Z" fill="black"/>
<path d="M-0.124023 19.8389L7.16383 19.8389L17.5323 26.0468L14.839 28.8037L-0.124023 19.8389Z" fill="black"/>
<path d="M38.9551 38.8828L57.9668 50.2577L57.9668 54.6215L36.2617 41.6398L38.9551 38.8828Z" fill="black"/>
<path d="M-14.7178 19.8389L-7.42992 19.8389L12.1628 31.5608L9.46946 34.3178L-14.7178 19.8389Z" fill="black"/>
<path d="M-29.2939 19.8389L-22.0061 19.8389L6.79327 37.0748L4.09993 39.8318L-29.2939 19.8389Z" fill="black"/>
<path d="M-43.8691 19.8389L-36.5813 19.8389L1.42472 42.5888L-1.26862 45.3458L-43.8691 19.8389Z" fill="black"/>
<path d="M9.46711 34.3174L6.79137 37.0744L28.1973 49.8552L30.8906 47.0982L9.46711 34.3174ZM14.7482 28.8399L12.0724 31.5969L33.4959 44.3777L36.1716 41.6207L14.7482 28.8399ZM20.1348 23.3624L17.4415 26.1194L38.865 38.9002L41.5407 36.1432L20.1348 23.3624ZM50.8178 19.9116L54.9722 22.413L57.4015 19.9116L50.8178 19.9116ZM36.2245 19.9116L49.6031 27.927L52.2965 25.17L43.4947 19.9116L36.3125 19.9116M23.5851 19.9116L22.8986 20.6054L44.3221 33.3862L46.9978 30.6292L29.0246 19.8568L23.5851 19.8568M-153.225 19.8568L-126.608 35.7415L-128.809 33.4958L-136.801 25.2795L-145.919 19.802L-153.225 19.802" fill="black"/>
<path d="M-12.0097 56.3733L-14.703 59.1303L6.72046 71.9111L9.39619 69.1541L-12.0097 56.3733ZM-6.72862 50.8958L-9.28113 53.6163L12.1423 66.3971L14.8181 63.6401L-6.5878 50.8593M-1.30675 45.3818L-4.00008 48.1023L17.4234 60.8831L20.1167 58.1261L-1.30675 45.3453M3.97432 39.8678L1.28098 42.6248L22.7045 55.4056L25.3978 52.6486L3.97432 39.8678ZM-156.957 39.3931L-146.747 49.8733L-45.6852 110.4C-43.9249 110.034 -42.2877 109.596 -40.5978 109.085L-156.957 39.3931Z" fill="black"/>
<path d="M101.483 19.8389L95.709 23.2897L101.483 19.8389Z" fill="black"/>
<path d="M116.059 19.8389L101.096 28.8037L116.059 19.8389Z" fill="black"/>
<path d="M130.653 19.8389L106.466 34.3178L130.653 19.8389Z" fill="black"/>
<path d="M145.229 19.8389L111.835 39.8318L145.229 19.8389Z" fill="black"/>
<path d="M63.5481 25.0969L57.9678 28.4382L63.5481 25.0969Z" fill="black"/>
<path d="M74.3038 36.1253L57.9678 45.8935L74.3038 36.1253Z" fill="black"/>
<path d="M60.8724 22.34L57.9678 24.0745L57.9678 28.4382L63.5481 25.097L60.8724 22.34Z" fill="black"/>
<path d="M66.2414 27.8544L57.9678 32.8024L57.9678 37.1662L68.9348 30.6114L66.2414 27.8544Z" fill="black"/>
<path d="M101.484 19.8389L94.196 19.8389L93.0342 20.5327L95.7099 23.2897L101.484 19.8389Z" fill="black"/>
<path d="M71.6105 33.3689L57.9678 41.5303L57.9678 45.8941L74.3038 36.1259L71.6105 33.3689Z" fill="black"/>
<path d="M116.06 19.8389L108.772 19.8389L98.4033 26.0468L101.097 28.8037L116.06 19.8389Z" fill="black"/>
<path d="M76.9796 38.8828L57.9678 50.2577L57.9678 54.6215L79.6729 41.6398L76.9796 38.8828Z" fill="black"/>
<path d="M130.652 19.8389L123.364 19.8389L103.771 31.5608L106.465 34.3178L130.652 19.8389Z" fill="black"/>
<path d="M145.228 19.8389L137.94 19.8389L109.141 37.0748L111.834 39.8318L145.228 19.8389Z" fill="black"/>
<path d="M159.804 19.8389L152.516 19.8389L114.51 42.5888L117.203 45.3458L159.804 19.8389Z" fill="black"/>
<path d="M106.465 34.3177L85.0413 47.0985L87.7346 49.8555L109.141 37.0747L106.465 34.3177ZM101.096 28.8402L79.6722 41.621L82.348 44.3781L103.771 31.5972L101.096 28.8402ZM95.709 23.3627L74.3031 36.1436L76.9789 38.9006L98.4024 26.1198L95.709 23.3627ZM65.0261 19.9119L58.4424 19.9119L60.8717 22.4133L65.0261 19.9119ZM79.6194 19.9119L72.3316 19.9119L63.5298 25.1703L66.2231 27.9273L79.6018 19.9119M92.3291 19.9119L86.8897 19.9119L68.9165 30.6843L71.6978 33.3683L93.1213 20.5875L92.4348 19.8937M269.244 19.8937L261.816 19.8937L252.697 25.3712L244.705 33.5874L242.54 35.7419L269.156 19.8024" fill="black"/>
<path d="M128.029 56.3738L106.624 69.1546L109.299 71.9116L130.723 59.1308L128.029 56.3738ZM122.748 50.8963L101.343 63.6771L104.018 66.4341L125.442 53.6533L122.748 50.8963M117.379 45.4188L95.9559 58.1996L98.6492 60.9566L120.073 48.1758L117.379 45.4188ZM112.098 39.9413L90.6748 52.7221L93.3681 55.4791L114.792 42.6983L112.098 39.9413ZM273.153 39.5396L156.794 109.232C158.554 109.743 160.173 110.181 161.881 110.546L262.943 50.0199L273.153 39.5396Z" fill="black"/>
</g>
<defs>
<clipPath id="clip0_1050_31042">
<rect width="116" height="39.7152" rx="19.8576" fill="white"/>
</clipPath>
</defs>
</svg>
