<?xml version="1.0" encoding="UTF-8" standalone="no"?>
<svg
   width="88"
   height="88"
   viewBox="0 0 44 44"
   fill="none"
   version="1.1"
   id="svg31"
   sodipodi:docname="docs.svg"
   inkscape:version="1.1 (c4e8f9ed74, 2021-05-24)"
   xmlns:inkscape="http://www.inkscape.org/namespaces/inkscape"
   xmlns:sodipodi="http://sodipodi.sourceforge.net/DTD/sodipodi-0.dtd"
   xmlns="http://www.w3.org/2000/svg"
   xmlns:svg="http://www.w3.org/2000/svg">
  <sodipodi:namedview
     id="namedview33"
     pagecolor="#ffffff"
     bordercolor="#666666"
     borderopacity="1.0"
     inkscape:pageshadow="2"
     inkscape:pageopacity="0.0"
     inkscape:pagecheckerboard="0"
     showgrid="false"
     fit-margin-top="0"
     fit-margin-left="0"
     fit-margin-right="0"
     fit-margin-bottom="0"
     inkscape:zoom="8.2613636"
     inkscape:cx="44"
     inkscape:cy="43.939477"
     inkscape:window-width="1920"
     inkscape:window-height="1053"
     inkscape:window-x="3000"
     inkscape:window-y="840"
     inkscape:window-maximized="1"
     inkscape:current-layer="svg31" />
  <path
     d="m 38.909107,11.686882 -9.0234,-2.5782 -2.5782,-9.02340002 h -18.0468 c -2.1358003,0 -3.8672003,1.73140002 -3.8672003,3.86720002 v 36.2656 c 0,2.1358 1.7314,3.8672 3.8672003,3.8672 h 25.7812 c 2.1358,0 3.8672,-1.7314 3.8672,-3.8672 z"
     fill="#838386"
     id="path4"
     style="filter:url(#filter0_d)" />
  <path
     d="m 38.909107,11.686882 h -9.0234 c -1.418,0 -2.5782,-1.1602 -2.5782,-2.5782 V 0.08528198 c 0.3352,0 0.6704,0.1289 0.9023,0.3868 l 10.3125,10.31250002 c 0.2579,0.2319 0.3868,0.5671 0.3868,0.9023 z"
     fill="#c1c1c2"
     id="path6"
     style="filter:url(#filter0_d)" />
  <path
     d="m 29.033307,14.436882 h 2.8175 l -5.872,5.5033 c -1.0535,0.9533 -2.4237,1.4812 -3.8445,1.4812 -1.4208,0 -2.7909,-0.5279 -3.8444,-1.4812 l -5.872,-5.5033 h 2.8175 l 4.4501,4.1604 c 0.6645,0.6099 1.5337,0.9483 2.4357,0.9483 0.902,0 1.7711,-0.3384 2.4357,-0.9483 z"
     fill="#ffffff"
     id="path8"
     style="filter:url(#filter0_d)" />
  <path
     d="m 15.207107,29.709482 h -2.8175 l 5.8983,-5.5297 c 1.0477,-0.965 2.42,-1.5007 3.8444,-1.5007 1.4245,0 2.7968,0.5357 3.8445,1.5007 l 5.8983,5.5297 h -2.8175 l -4.4764,-4.2131 c -0.6645,-0.6099 -1.5337,-0.9483 -2.4357,-0.9483 -0.902,0 -1.7711,0.3384 -2.4357,0.9483 z"
     fill="#ffffff"
     id="path10"
     style="filter:url(#filter0_d)" />
  <defs
     id="defs29">
    <filter
       id="filter0_d"
       x="0"
       y="0"
       width="88"
       height="88"
       filterUnits="userSpaceOnUse"
       color-interpolation-filters="sRGB">
      <feFlood
         flood-opacity="0"
         result="BackgroundImageFix"
         id="feFlood14" />
      <feColorMatrix
         in="SourceAlpha"
         type="matrix"
         values="0 0 0 0 0 0 0 0 0 0 0 0 0 0 0 0 0 0 127 0"
         result="hardAlpha"
         id="feColorMatrix16" />
      <feOffset
         dy="4"
         id="feOffset18" />
      <feGaussianBlur
         stdDeviation="5"
         id="feGaussianBlur20" />
      <feColorMatrix
         type="matrix"
         values="0 0 0 0 0.908333 0 0 0 0 0.911771 0 0 0 0 0.904896 0 0 0 1 0"
         id="feColorMatrix22" />
      <feBlend
         mode="normal"
         in2="BackgroundImageFix"
         result="effect1_dropShadow"
         id="feBlend24" />
      <feBlend
         mode="normal"
         in="SourceGraphic"
         in2="effect1_dropShadow"
         result="shape"
         id="feBlend26" />
    </filter>
  </defs>
</svg>
