<?xml version="1.0" encoding="UTF-8" standalone="no"?>
<svg
   width="105"
   height="26"
   viewBox="0 0 105 26"
   fill="none"
   version="1.1"
   id="svg18"
   sodipodi:docname="bitgo-light.svg"
   inkscape:version="1.1 (c4e8f9ed74, 2021-05-24)"
   xmlns:inkscape="http://www.inkscape.org/namespaces/inkscape"
   xmlns:sodipodi="http://sodipodi.sourceforge.net/DTD/sodipodi-0.dtd"
   xmlns="http://www.w3.org/2000/svg"
   xmlns:svg="http://www.w3.org/2000/svg">
  <defs
     id="defs22" />
  <sodipodi:namedview
     id="namedview20"
     pagecolor="#ffffff"
     bordercolor="#666666"
     borderopacity="1.0"
     inkscape:pageshadow="2"
     inkscape:pageopacity="0.0"
     inkscape:pagecheckerboard="0"
     showgrid="false"
     inkscape:zoom="11.990476"
     inkscape:cx="46.161636"
     inkscape:cy="13.010326"
     inkscape:window-width="1920"
     inkscape:window-height="1053"
     inkscape:window-x="3000"
     inkscape:window-y="840"
     inkscape:window-maximized="1"
     inkscape:current-layer="svg18" />
  <path
     d="M11.6279 26C11.6279 26 22.7559 22.221 22.7559 8.32418V3.32619C22.7559 2.78634 22.3379 2.33356 21.798 2.29873C19.778 2.21166 14.9889 1.7937 11.6279 0C8.26691 1.7937 3.4779 2.21166 1.4578 2.29873C0.91795 2.33356 0.5 2.78634 0.5 3.32619V8.32418C0.5 22.221 11.6279 26 11.6279 26Z"
     fill="#009FE8"
     id="path2" />
  <path
     d="M16.1206 10.1562C15.9813 8.64118 14.6926 8.11874 13.0383 7.96201V5.83742H11.7496V7.89235C11.4187 7.89235 11.053 7.89235 10.7047 7.89235V5.82001H9.41602L9.43344 7.92717C9.15481 7.92717 6.85608 7.94459 6.85608 7.94459V9.28552H8.49305V16.0598H7.04764L7.03022 17.6097C7.03022 17.6097 9.06773 17.5923 9.36378 17.6097V19.7343H10.635V17.6271C10.9833 17.6445 11.3316 17.6445 11.6625 17.6445V19.7343H12.9512V17.6097C15.1106 17.5052 16.6082 16.9654 16.8172 14.9453C16.974 13.3257 16.2251 12.5769 15.0061 12.2808C15.7549 11.9325 16.2251 11.2708 16.1206 10.1562ZM14.2921 14.684C14.2747 16.2688 11.5754 16.0772 10.7221 16.0772V13.256C11.5754 13.256 14.3095 13.0297 14.2921 14.684ZM13.7174 10.7135C13.7 12.1589 11.4535 11.9848 10.7395 11.9674V9.40741C11.4535 9.40741 13.7348 9.19844 13.7174 10.7135Z"
     fill="white"
     id="path4" />
  <path
     d="M44.8545 17.241C44.8545 18.3555 44.6281 19.2785 44.1928 20.0273C43.7574 20.7761 43.1653 21.3856 42.4513 21.8384C41.7199 22.2912 40.9014 22.6221 39.9784 22.8311C39.0555 23.0226 38.0977 23.1271 37.1399 23.1271H29.0769V2.87393H37.1399C37.9235 2.87393 38.7246 2.961 39.5431 3.11774C40.3616 3.27447 41.1104 3.5531 41.7721 3.95364C42.4339 4.35417 42.9737 4.87661 43.4091 5.53837C43.8271 6.20012 44.036 7.05343 44.036 8.0809C44.036 9.21284 43.74 10.1358 43.1131 10.8672C42.5036 11.5986 41.7025 12.1385 40.7098 12.452V12.5042C41.2845 12.6087 41.8244 12.7828 42.3294 13.0441C42.8344 13.3053 43.2698 13.6362 43.6355 14.0367C44.0012 14.4372 44.2973 14.9074 44.5236 15.4473C44.7326 15.9697 44.8545 16.5618 44.8545 17.241ZM39.2993 8.74265C39.2993 8.06348 39.0381 7.55846 38.5156 7.245C37.9932 6.93153 37.2095 6.7748 36.1821 6.7748H33.7788V10.9543H36.4084C37.3314 10.9543 38.028 10.7627 38.533 10.397C39.0555 10.0139 39.2993 9.45665 39.2993 8.74265ZM39.961 16.7708C39.961 15.9349 39.6476 15.3428 39.0206 15.0293C38.3937 14.6984 37.5578 14.5417 36.4955 14.5417H33.7788V19.174H36.5303C36.9135 19.174 37.314 19.1392 37.7145 19.0695C38.1151 18.9998 38.4982 18.8779 38.8291 18.7212C39.16 18.5471 39.4386 18.3033 39.6476 17.9898C39.8565 17.6763 39.961 17.2758 39.961 16.7708Z"
     fill="white"
     id="path6"
     style="fill:#000000" />
  <path
     d="M51.3503 4.33959C51.3503 4.70529 51.2806 5.03617 51.1413 5.34964C51.002 5.6631 50.8104 5.94173 50.5666 6.16812C50.3228 6.39451 50.0442 6.56865 49.7133 6.70797C49.3824 6.84729 49.0341 6.89953 48.6684 6.89953C47.9022 6.89953 47.2753 6.65573 46.7528 6.13329C46.2304 5.62827 45.9866 5.01876 45.9866 4.32218C45.9866 3.97388 46.0562 3.643 46.1955 3.32954C46.3349 3.01608 46.5264 2.73744 46.7702 2.51105C47.014 2.28466 47.3101 2.09311 47.6235 1.95379C47.9544 1.81447 48.3027 1.74481 48.6858 1.74481C49.0515 1.74481 49.3998 1.81447 49.7307 1.93637C50.0616 2.07569 50.3576 2.24984 50.584 2.47623C50.8278 2.70262 51.0194 2.98125 51.1587 3.29471C51.2806 3.62559 51.3503 3.97388 51.3503 4.33959ZM46.3174 8.8848H51.0194V23.1299H46.3174V8.8848Z"
     fill="white"
     id="path8"
     style="fill:#000000" />
  <path
     d="M59.5181 12.3663V17.8171C59.5181 18.4963 59.64 18.9839 59.9012 19.3322C60.1624 19.6631 60.6152 19.8372 61.2944 19.8372C61.5208 19.8372 61.7646 19.8198 62.0258 19.785C62.287 19.7501 62.496 19.6979 62.6701 19.6108L62.7224 23.0415C62.3915 23.1634 61.991 23.2505 61.4859 23.3375C60.9809 23.4246 60.4933 23.4594 59.9883 23.4594C59.0305 23.4594 58.2294 23.3375 57.5851 23.0937C56.9407 22.8499 56.4183 22.5191 56.0178 22.0663C55.6346 21.6135 55.3386 21.0911 55.1644 20.4641C54.9903 19.8372 54.9032 19.158 54.9032 18.3918V12.3663H52.6567V8.88342H54.9206V5.13928H59.5355V8.88342H62.8791V12.3663H59.5181Z"
     fill="white"
     id="path10"
     style="fill:#000000" />
  <path
     d="M79.858 23.1645C78.5345 23.4954 77.089 23.6521 75.5217 23.6521C73.9022 23.6521 72.4045 23.3909 71.0462 22.8859C69.6878 22.3635 68.5036 21.6495 67.5284 20.7091C66.5532 19.7687 65.7696 18.6542 65.2297 17.3481C64.6724 16.042 64.3938 14.5791 64.3938 12.977C64.3938 11.3574 64.6724 9.89461 65.2471 8.5711C65.8044 7.24759 66.588 6.13305 67.5807 5.21008C68.5733 4.2871 69.7401 3.57311 71.0636 3.0855C72.4045 2.59789 73.8325 2.33667 75.3824 2.33667C76.9846 2.33667 78.4648 2.58048 79.8405 3.06809C81.2163 3.55569 82.3308 4.20003 83.1841 5.03593L80.1018 8.55368C79.6316 7.99642 78.9872 7.54364 78.221 7.19535C77.4373 6.84705 76.5492 6.67291 75.5566 6.67291C74.7032 6.67291 73.9022 6.82964 73.1882 7.1431C72.4568 7.45656 71.8298 7.89193 71.3074 8.46661C70.7675 9.02388 70.3496 9.70305 70.071 10.4693C69.7749 11.2355 69.6182 12.0888 69.6182 12.9944C69.6182 13.9348 69.7575 14.7881 70.0187 15.5718C70.2799 16.3554 70.6805 17.0346 71.2029 17.5919C71.7253 18.1491 72.3697 18.6019 73.1533 18.9154C73.9196 19.2288 74.8077 19.3856 75.8004 19.3856C76.375 19.3856 76.9149 19.3507 77.4373 19.2637C77.9424 19.1766 78.43 19.0373 78.8653 18.8457V15.1538H74.9993V11.1659H83.3583V21.8933C82.3308 22.4157 81.1815 22.8337 79.858 23.1645Z"
     fill="white"
     id="path12"
     style="fill:#000000" />
  <path
     d="M100.094 15.9515C100.094 17.1183 99.8848 18.1632 99.4668 19.121C99.0489 20.0614 98.4742 20.8624 97.7428 21.5242C97.0114 22.186 96.1755 22.691 95.2177 23.0567C94.2599 23.4224 93.2498 23.5965 92.1527 23.5965C91.0904 23.5965 90.0629 23.4224 89.1051 23.0567C88.1473 22.691 87.294 22.186 86.58 21.5242C85.866 20.8624 85.2913 20.0614 84.8734 19.121C84.4554 18.1806 84.2465 17.1183 84.2465 15.9515C84.2465 14.7847 84.4554 13.7399 84.8734 12.7995C85.2913 11.8591 85.866 11.0754 86.58 10.4311C87.294 9.78676 88.1299 9.28174 89.1051 8.95086C90.0629 8.60257 91.0904 8.42842 92.1527 8.42842C93.2324 8.42842 94.2599 8.60257 95.2177 8.95086C96.1755 9.29915 97.0114 9.78676 97.7428 10.4311C98.4742 11.0754 99.0315 11.8765 99.4668 12.7995C99.8848 13.7399 100.094 14.7847 100.094 15.9515ZM95.5834 15.9515C95.5834 15.4987 95.5137 15.046 95.357 14.6106C95.2002 14.1752 94.9913 13.7921 94.6952 13.4438C94.4166 13.1129 94.0509 12.8343 93.6329 12.6253C93.215 12.4164 92.7274 12.3119 92.1701 12.3119C91.6128 12.3119 91.1252 12.4164 90.7073 12.6253C90.2893 12.8343 89.941 13.1129 89.6624 13.4438C89.3838 13.7747 89.1748 14.1578 89.0355 14.6106C88.8962 15.046 88.8265 15.4987 88.8265 15.9515C88.8265 16.4043 88.8962 16.8571 89.0355 17.2925C89.1748 17.7278 89.3838 18.1284 89.6798 18.4766C89.9584 18.8249 90.3242 19.121 90.7421 19.33C91.1601 19.5389 91.6477 19.6434 92.2049 19.6434C92.7622 19.6434 93.2498 19.5389 93.6678 19.33C94.0857 19.121 94.434 18.8423 94.73 18.4766C95.0087 18.1284 95.2351 17.7278 95.3744 17.2925C95.5137 16.8571 95.5834 16.4043 95.5834 15.9515Z"
     fill="white"
     id="path14"
     style="fill:#000000" />
  <path
     d="M102.479 20.3432C103.367 20.3432 104.116 21.0398 104.116 21.9627C104.116 22.9031 103.35 23.5997 102.479 23.5997C101.591 23.5997 100.825 22.9031 100.825 21.9627C100.825 21.0223 101.574 20.3432 102.479 20.3432ZM102.479 20.6044C101.73 20.6044 101.138 21.1965 101.138 21.9627C101.138 22.7638 101.73 23.3211 102.479 23.3211C103.228 23.3211 103.803 22.7464 103.803 21.9627C103.803 21.1791 103.211 20.6044 102.479 20.6044ZM102.131 22.9031H101.835V21.0223H102.549C103.002 21.0223 103.211 21.1965 103.211 21.5622C103.211 21.8931 103.002 22.0498 102.723 22.0846L103.263 22.9031H102.949L102.444 22.0846H102.114V22.9031H102.131ZM102.131 21.8582H102.479C102.828 21.8582 102.949 21.7538 102.949 21.5448C102.949 21.3706 102.862 21.2661 102.531 21.2661H102.148V21.8582H102.131Z"
     fill="white"
     id="path16"
     style="fill:#000000" />
</svg>
