<svg id="Layer_1" data-name="Layer 1" xmlns="http://www.w3.org/2000/svg" viewBox="0 0 60 60"><defs><style>.cls-1{fill:#e9eded;}.cls-2{fill:#2fd184;}.cls-3{fill:#d0d4d4;}.cls-4{fill:#e1e5e5;}.cls-5{fill:#fff;}</style></defs><title>icon-xrp-send-xrp</title><path class="cls-1" d="M38.57,4.12c-3.88-5.49-13.26-5.49-17.14,0L0,34.43H9.29l17.46-24a4,4,0,0,1,6.5,0l17.42,24,0,.06H60Z"/><path class="cls-2" d="M50.71,34.43l0-.06-17.42-24a4,4,0,0,0-6.5,0l-17.46,24h0L0,47.21H9.29l9.28-12.78h0l8.18-11.26a4,4,0,0,1,6.5,0l8.18,11.26,9.28,12.78H60Z"/><polygon class="cls-3" points="9.29 47.21 0 60 60 60 50.71 47.21 50.71 47.21 9.29 47.21"/><polygon class="cls-4" points="41.43 34.43 18.57 34.43 9.29 47.21 50.71 47.21 41.43 34.43"/><path class="cls-5" d="M26.75,23.17,18.57,34.43H41.43L33.25,23.17a4,4,0,0,0-6.5,0Z"/></svg>