<svg id="Layer_1" data-name="Layer 1" xmlns="http://www.w3.org/2000/svg" viewBox="0 0 60 60"><defs><style>.cls-1{fill:#e9eded;}.cls-2{fill:#2fd184;}.cls-3{fill:#d0d4d4;}.cls-4{fill:#e1e5e5;}.cls-5{fill:#f1f5f5;}</style></defs><title>icon-xrp-modern-smart-contracts</title><polygon class="cls-1" points="10 10 30 10 40 0 0 0 0 40 10 30 10 10"/><polygon class="cls-2" points="50 50 30 50 20 60 60 60 60 20 50 30 50 50"/><polygon class="cls-2" points="40 30 50 30 60 20 40 20 40 30"/><polygon class="cls-2" points="20 40 20 60 30 50 30 40 30 30 20 40"/><rect class="cls-2" x="20" y="20" width="10" height="10"/><rect class="cls-3" x="30" y="30" width="10" height="10"/><polygon class="cls-3" points="30 20 30 10 40 0 40 20 30 20"/><polygon class="cls-2" points="30 30 40 30 40 20 30 30"/><polygon class="cls-4" points="20 40 0 40 10 30 20 30 20 40"/><polygon class="cls-5" points="20 40 30 30 20 30 20 40"/><polygon class="cls-5" points="30 20 30 30 40 20 30 20"/></svg>