<svg width="352" height="442" viewBox="0 0 352 442" fill="none" xmlns="http://www.w3.org/2000/svg">
<rect width="352" height="442" rx="8" fill="#232325"/>
<mask id="mask0_1873_55415" style="mask-type:alpha" maskUnits="userSpaceOnUse" x="0" y="0" width="352" height="442">
<rect width="352" height="442" rx="8" fill="#232325"/>
</mask>
<g mask="url(#mask0_1873_55415)">
<path d="M1894.41 -293.445C1894.39 -293.513 1894.3 -293.533 1894.25 -293.48L1770.21 -154.068C1732.79 -111.947 1732.79 -43.6956 1770.21 -1.57419L1894.13 137.699C1894.18 137.753 1894.27 137.719 1894.27 137.646V137.646C1894.27 137.573 1894.36 137.538 1894.41 137.593L2057.68 321.078C2116.81 387.552 2116.81 495.312 2057.68 561.787L1894.27 745.428L1887.28 753.162L1725.8 938.684C1667.31 1005.89 1572.5 1005.89 1514.02 938.684L1352.56 753.092C1352.52 753.037 1352.56 752.953 1352.63 752.953V752.953C1352.7 752.953 1352.74 752.868 1352.69 752.814L1230.41 612.374C1193.35 569.835 1133.3 569.835 1096.24 612.374L973.51 753.441C973.49 753.463 973.463 753.476 973.433 753.476V753.476C973.404 753.476 973.376 753.488 973.357 753.51L812.275 938.684C753.789 1005.89 658.979 1005.89 600.493 938.684L438.92 752.953L432.759 746.473L269.347 562.936C210.218 496.462 210.218 388.702 269.347 322.228L432.851 138.9L556.996 -0.633504C594.423 -42.7549 594.423 -111.006 556.996 -153.128L433.082 -292.401C433.033 -292.455 432.943 -292.421 432.943 -292.348V-292.348C432.943 -292.275 432.853 -292.24 432.804 -292.295L269.531 -475.78C210.401 -542.254 210.401 -650.014 269.531 -716.488L432.943 -900.129L439.932 -907.864L601.504 -1093.6C659.99 -1160.8 754.8 -1160.8 813.286 -1093.6L974.616 -907.933C974.675 -907.865 974.627 -907.759 974.537 -907.759V-907.759C974.447 -907.759 974.399 -907.653 974.458 -907.586L1096.7 -767.18C1133.76 -724.641 1193.81 -724.641 1230.87 -767.18L1353.55 -908.178C1353.61 -908.244 1353.69 -908.282 1353.78 -908.282V-908.282C1353.86 -908.282 1353.95 -908.32 1354.01 -908.386L1515.12 -1093.49C1573.61 -1160.7 1668.42 -1160.7 1726.9 -1093.49L1888.29 -907.759L1894.45 -901.279L2057.86 -717.638C2116.99 -651.164 2116.99 -543.404 2057.86 -476.929L1894.56 -293.41C1894.51 -293.357 1894.43 -293.377 1894.41 -293.445V-293.445Z" stroke="url(#paint0_linear_1873_55415)" stroke-width="1.75" stroke-miterlimit="10" stroke-linecap="round"/>
<path d="M1894.41 -293.445C1894.39 -293.513 1894.3 -293.533 1894.25 -293.48L1770.21 -154.068C1732.79 -111.947 1732.79 -43.6956 1770.21 -1.57419L1894.13 137.699C1894.18 137.753 1894.27 137.719 1894.27 137.646V137.646C1894.27 137.573 1894.36 137.538 1894.41 137.593L2057.68 321.078C2116.81 387.552 2116.81 495.312 2057.68 561.787L1894.27 745.428L1887.28 753.162L1725.8 938.684C1667.31 1005.89 1572.5 1005.89 1514.02 938.684L1352.56 753.092C1352.52 753.037 1352.56 752.953 1352.63 752.953V752.953C1352.7 752.953 1352.74 752.868 1352.69 752.814L1230.41 612.374C1193.35 569.835 1133.3 569.835 1096.24 612.374L973.51 753.441C973.49 753.463 973.463 753.476 973.433 753.476V753.476C973.404 753.476 973.376 753.488 973.357 753.51L812.275 938.684C753.789 1005.89 658.979 1005.89 600.493 938.684L438.92 752.953L432.759 746.473L269.347 562.936C210.218 496.462 210.218 388.702 269.347 322.228L432.851 138.9L556.996 -0.633504C594.423 -42.7549 594.423 -111.006 556.996 -153.128L433.082 -292.401C433.033 -292.455 432.943 -292.421 432.943 -292.348V-292.348C432.943 -292.275 432.853 -292.24 432.804 -292.295L269.531 -475.78C210.401 -542.254 210.401 -650.014 269.531 -716.488L432.943 -900.129L439.932 -907.864L601.504 -1093.6C659.99 -1160.8 754.8 -1160.8 813.286 -1093.6L974.616 -907.933C974.675 -907.865 974.627 -907.759 974.537 -907.759V-907.759C974.447 -907.759 974.399 -907.653 974.458 -907.586L1096.7 -767.18C1133.76 -724.641 1193.81 -724.641 1230.87 -767.18L1353.55 -908.178C1353.61 -908.244 1353.69 -908.282 1353.78 -908.282V-908.282C1353.86 -908.282 1353.95 -908.32 1354.01 -908.386L1515.12 -1093.49C1573.61 -1160.7 1668.42 -1160.7 1726.9 -1093.49L1888.29 -907.759L1894.45 -901.279L2057.86 -717.638C2116.99 -651.164 2116.99 -543.404 2057.86 -476.929L1894.56 -293.41C1894.51 -293.357 1894.43 -293.377 1894.41 -293.445V-293.445Z" stroke="url(#paint1_linear_1873_55415)" stroke-width="1.75" stroke-miterlimit="10" stroke-linecap="round"/>
<path d="M1887.92 -291.512C1887.88 -291.61 1887.75 -291.63 1887.68 -291.55L1764.88 -153.442C1727.73 -111.738 1727.73 -44.1139 1764.88 -2.41061L1887.69 135.608C1887.74 135.663 1887.83 135.628 1887.83 135.555V135.555C1887.83 135.482 1887.92 135.448 1887.97 135.502L2049.77 317.315C2108.35 383.162 2108.35 489.981 2049.77 555.829L1887.83 737.797L1880.93 745.427L1720.74 929.591C1662.8 996.17 1568.82 996.17 1510.89 929.591L1350.91 745.67C1350.86 745.616 1350.9 745.532 1350.97 745.532V745.532C1351.04 745.532 1351.08 745.447 1351.03 745.393L1229.95 606.207C1193.26 563.981 1133.76 563.981 1097.07 606.207L975.5 745.846C975.442 745.912 975.359 745.95 975.271 745.95V745.95C975.184 745.95 975.1 745.988 975.043 746.054L815.4 929.591C757.466 996.17 663.483 996.17 605.549 929.591L445.448 745.532L439.287 739.156L277.438 557.187C218.86 491.34 218.86 384.521 277.438 318.674L439.471 136.914L562.42 -1.36544C599.572 -43.0688 599.572 -110.693 562.42 -152.396L439.61 -290.415C439.561 -290.47 439.471 -290.435 439.471 -290.362V-290.362C439.471 -290.289 439.38 -290.255 439.332 -290.309L277.53 -472.122C218.952 -537.969 218.952 -644.788 277.53 -710.636L439.471 -892.604L446.368 -900.234L606.469 -1084.29C664.403 -1150.87 758.385 -1150.87 816.32 -1084.29L976.3 -900.373C976.347 -900.319 976.309 -900.234 976.237 -900.234V-900.234C976.165 -900.234 976.126 -900.15 976.174 -900.095L1097.35 -760.909C1134.04 -718.684 1193.54 -718.684 1230.23 -760.909L1351.8 -900.548C1351.86 -900.614 1351.94 -900.652 1352.03 -900.652V-900.652C1352.12 -900.652 1352.2 -900.69 1352.26 -900.756L1511.9 -1084.19C1569.83 -1150.77 1663.82 -1150.77 1721.75 -1084.19L1881.85 -900.13L1888.01 -893.754L2049.95 -711.785C2108.53 -645.938 2108.53 -539.119 2049.95 -473.272L1888.16 -291.473C1888.09 -291.394 1887.96 -291.414 1887.92 -291.512V-291.512Z" stroke="url(#paint2_linear_1873_55415)" stroke-width="1.75" stroke-miterlimit="10" stroke-linecap="round"/>
<path d="M1887.92 -291.512C1887.88 -291.61 1887.75 -291.63 1887.68 -291.55L1764.88 -153.442C1727.73 -111.738 1727.73 -44.1139 1764.88 -2.41061L1887.69 135.608C1887.74 135.663 1887.83 135.628 1887.83 135.555V135.555C1887.83 135.482 1887.92 135.448 1887.97 135.502L2049.77 317.315C2108.35 383.162 2108.35 489.981 2049.77 555.829L1887.83 737.797L1880.93 745.427L1720.74 929.591C1662.8 996.17 1568.82 996.17 1510.89 929.591L1350.91 745.67C1350.86 745.616 1350.9 745.532 1350.97 745.532V745.532C1351.04 745.532 1351.08 745.447 1351.03 745.393L1229.95 606.207C1193.26 563.981 1133.76 563.981 1097.07 606.207L975.5 745.846C975.442 745.912 975.359 745.95 975.271 745.95V745.95C975.184 745.95 975.1 745.988 975.043 746.054L815.4 929.591C757.466 996.17 663.483 996.17 605.549 929.591L445.448 745.532L439.287 739.156L277.438 557.187C218.86 491.34 218.86 384.521 277.438 318.674L439.471 136.914L562.42 -1.36544C599.572 -43.0688 599.572 -110.693 562.42 -152.396L439.61 -290.415C439.561 -290.47 439.471 -290.435 439.471 -290.362V-290.362C439.471 -290.289 439.38 -290.255 439.332 -290.309L277.53 -472.122C218.952 -537.969 218.952 -644.788 277.53 -710.636L439.471 -892.604L446.368 -900.234L606.469 -1084.29C664.403 -1150.87 758.385 -1150.87 816.32 -1084.29L976.3 -900.373C976.347 -900.319 976.309 -900.234 976.237 -900.234V-900.234C976.165 -900.234 976.126 -900.15 976.174 -900.095L1097.35 -760.909C1134.04 -718.684 1193.54 -718.684 1230.23 -760.909L1351.8 -900.548C1351.86 -900.614 1351.94 -900.652 1352.03 -900.652V-900.652C1352.12 -900.652 1352.2 -900.69 1352.26 -900.756L1511.9 -1084.19C1569.83 -1150.77 1663.82 -1150.77 1721.75 -1084.19L1881.85 -900.13L1888.01 -893.754L2049.95 -711.785C2108.53 -645.938 2108.53 -539.119 2049.95 -473.272L1888.16 -291.473C1888.09 -291.394 1887.96 -291.414 1887.92 -291.512V-291.512Z" stroke="url(#paint3_linear_1873_55415)" stroke-width="1.75" stroke-miterlimit="10" stroke-linecap="round"/>
<path d="M1881.3 -289.577C1881.26 -289.655 1881.15 -289.665 1881.09 -289.598L1759.36 -152.709C1722.58 -111.319 1722.58 -44.3221 1759.36 -3.03682L1881.07 133.728C1881.12 133.782 1881.21 133.748 1881.21 133.675V133.675C1881.21 133.602 1881.3 133.567 1881.35 133.622L2041.68 313.762C2099.8 379.087 2099.8 484.861 2041.68 550.186L1881.21 730.482L1874.41 738.007L1715.68 920.394C1658.21 986.451 1565.15 986.451 1507.67 920.394L1349.16 738.146C1349.12 738.092 1349.15 738.007 1349.23 738.007V738.007C1349.3 738.007 1349.34 737.923 1349.29 737.869L1229.22 599.937C1192.8 558.129 1133.86 558.129 1097.53 599.937L977.157 738.426C977.1 738.492 977.017 738.53 976.929 738.53V738.53C976.841 738.53 976.758 738.568 976.7 738.634L818.529 920.394C761.055 986.451 667.992 986.451 610.517 920.394L451.979 738.112L445.91 731.841L285.441 551.44C227.323 486.115 227.323 380.341 285.441 315.016L446.002 134.929L567.848 -1.99164C604.632 -43.3814 604.632 -110.378 567.848 -151.664L446.141 -288.428C446.092 -288.483 446.002 -288.449 446.002 -288.375V-288.375C446.002 -288.302 445.912 -288.268 445.863 -288.322L285.533 -468.463C227.415 -533.788 227.415 -639.561 285.533 -704.886L446.002 -885.183L452.807 -892.708L611.437 -1075.09C668.911 -1141.15 761.974 -1141.15 819.449 -1075.09L977.958 -892.847C978.005 -892.792 977.966 -892.708 977.895 -892.708V-892.708C977.823 -892.708 977.784 -892.623 977.831 -892.569L1097.9 -754.638C1134.32 -712.83 1193.26 -712.83 1229.59 -754.638L1350.05 -893.022C1350.11 -893.088 1350.2 -893.126 1350.28 -893.126V-893.126C1350.37 -893.126 1350.45 -893.164 1350.51 -893.23L1508.68 -1075.09C1566.16 -1141.15 1659.22 -1141.15 1716.7 -1075.09L1875.32 -892.708L1881.39 -886.437L2041.86 -706.14C2099.98 -640.816 2099.98 -535.042 2041.86 -469.717L1881.52 -289.556C1881.46 -289.489 1881.35 -289.5 1881.3 -289.577V-289.577Z" stroke="url(#paint4_linear_1873_55415)" stroke-width="1.75" stroke-miterlimit="10" stroke-linecap="round"/>
<path d="M1881.3 -289.577C1881.26 -289.655 1881.15 -289.665 1881.09 -289.598L1759.36 -152.709C1722.58 -111.319 1722.58 -44.3221 1759.36 -3.03682L1881.07 133.728C1881.12 133.782 1881.21 133.748 1881.21 133.675V133.675C1881.21 133.602 1881.3 133.567 1881.35 133.622L2041.68 313.762C2099.8 379.087 2099.8 484.861 2041.68 550.186L1881.21 730.482L1874.41 738.007L1715.68 920.394C1658.21 986.451 1565.15 986.451 1507.67 920.394L1349.16 738.146C1349.12 738.092 1349.15 738.007 1349.23 738.007V738.007C1349.3 738.007 1349.34 737.923 1349.29 737.869L1229.22 599.937C1192.8 558.129 1133.86 558.129 1097.53 599.937L977.157 738.426C977.1 738.492 977.017 738.53 976.929 738.53V738.53C976.841 738.53 976.758 738.568 976.7 738.634L818.529 920.394C761.055 986.451 667.992 986.451 610.517 920.394L451.979 738.112L445.91 731.841L285.441 551.44C227.323 486.115 227.323 380.341 285.441 315.016L446.002 134.929L567.848 -1.99164C604.632 -43.3814 604.632 -110.378 567.848 -151.664L446.141 -288.428C446.092 -288.483 446.002 -288.449 446.002 -288.375V-288.375C446.002 -288.302 445.912 -288.268 445.863 -288.322L285.533 -468.463C227.415 -533.788 227.415 -639.561 285.533 -704.886L446.002 -885.183L452.807 -892.708L611.437 -1075.09C668.911 -1141.15 761.974 -1141.15 819.449 -1075.09L977.958 -892.847C978.005 -892.792 977.966 -892.708 977.895 -892.708V-892.708C977.823 -892.708 977.784 -892.623 977.831 -892.569L1097.9 -754.638C1134.32 -712.83 1193.26 -712.83 1229.59 -754.638L1350.05 -893.022C1350.11 -893.088 1350.2 -893.126 1350.28 -893.126V-893.126C1350.37 -893.126 1350.45 -893.164 1350.51 -893.23L1508.68 -1075.09C1566.16 -1141.15 1659.22 -1141.15 1716.7 -1075.09L1875.32 -892.708L1881.39 -886.437L2041.86 -706.14C2099.98 -640.816 2099.98 -535.042 2041.86 -469.717L1881.52 -289.556C1881.46 -289.489 1881.35 -289.5 1881.3 -289.577V-289.577Z" stroke="url(#paint5_linear_1873_55415)" stroke-width="1.75" stroke-miterlimit="10" stroke-linecap="round"/>
<path d="M1874.73 -287.697C1874.7 -287.724 1874.66 -287.725 1874.63 -287.697L1753.94 -152.083C1717.52 -111.111 1717.52 -44.7409 1753.94 -3.76923L1874.54 131.741C1874.59 131.796 1874.68 131.761 1874.68 131.688V131.688C1874.68 131.615 1874.77 131.581 1874.82 131.635L2033.68 310.103C2091.24 374.801 2091.24 479.634 2033.68 544.331L1874.68 722.955L1867.88 730.481L1710.63 911.3C1653.7 976.729 1561.47 976.729 1504.54 911.3L1347.51 730.724C1347.46 730.67 1347.5 730.585 1347.57 730.585V730.585C1347.64 730.585 1347.68 730.501 1347.63 730.447L1228.67 593.769C1192.62 552.379 1134.22 552.379 1098.18 593.769L978.904 730.899C978.847 730.965 978.763 731.003 978.676 731.003V731.003C978.588 731.003 978.505 731.041 978.447 731.107L821.747 911.3C764.824 976.729 672.589 976.729 615.667 911.3L458.416 730.585L452.347 724.314L293.441 545.69C235.875 480.993 235.875 376.159 293.441 311.462L452.531 133.047L573.273 -2.72405C609.689 -43.6957 609.689 -110.066 573.273 -151.037L452.67 -286.548C452.621 -286.602 452.531 -286.568 452.531 -286.495V-286.495C452.531 -286.422 452.441 -286.387 452.392 -286.442L293.533 -464.91C235.967 -529.607 235.967 -634.44 293.533 -699.138L452.531 -877.762L459.336 -885.287L616.586 -1066C673.509 -1131.43 765.744 -1131.43 822.667 -1066L979.704 -885.531C979.752 -885.476 979.713 -885.392 979.641 -885.392V-885.392C979.569 -885.392 979.531 -885.307 979.578 -885.253L1098.45 -748.576C1134.5 -707.186 1192.89 -707.186 1228.94 -748.576L1348.31 -885.706C1348.36 -885.772 1348.45 -885.81 1348.54 -885.81V-885.81C1348.62 -885.81 1348.71 -885.848 1348.76 -885.914L1505.46 -1066.11C1562.39 -1131.54 1654.62 -1131.54 1711.54 -1066.11L1868.7 -885.392L1874.77 -879.121L2033.77 -700.497C2091.34 -635.799 2091.34 -530.966 2033.77 -466.268L1874.82 -287.696C1874.79 -287.669 1874.75 -287.669 1874.73 -287.697V-287.697Z" stroke="url(#paint6_linear_1873_55415)" stroke-width="1.75" stroke-miterlimit="10" stroke-linecap="round"/>
<path d="M1874.73 -287.697C1874.7 -287.724 1874.66 -287.725 1874.63 -287.697L1753.94 -152.083C1717.52 -111.111 1717.52 -44.7409 1753.94 -3.76923L1874.54 131.741C1874.59 131.796 1874.68 131.761 1874.68 131.688V131.688C1874.68 131.615 1874.77 131.581 1874.82 131.635L2033.68 310.103C2091.24 374.801 2091.24 479.634 2033.68 544.331L1874.68 722.955L1867.88 730.481L1710.63 911.3C1653.7 976.729 1561.47 976.729 1504.54 911.3L1347.51 730.724C1347.46 730.67 1347.5 730.585 1347.57 730.585V730.585C1347.64 730.585 1347.68 730.501 1347.63 730.447L1228.67 593.769C1192.62 552.379 1134.22 552.379 1098.18 593.769L978.904 730.899C978.847 730.965 978.763 731.003 978.676 731.003V731.003C978.588 731.003 978.505 731.041 978.447 731.107L821.747 911.3C764.824 976.729 672.589 976.729 615.667 911.3L458.416 730.585L452.347 724.314L293.441 545.69C235.875 480.993 235.875 376.159 293.441 311.462L452.531 133.047L573.273 -2.72405C609.689 -43.6957 609.689 -110.066 573.273 -151.037L452.67 -286.548C452.621 -286.602 452.531 -286.568 452.531 -286.495V-286.495C452.531 -286.422 452.441 -286.387 452.392 -286.442L293.533 -464.91C235.967 -529.607 235.967 -634.44 293.533 -699.138L452.531 -877.762L459.336 -885.287L616.586 -1066C673.509 -1131.43 765.744 -1131.43 822.667 -1066L979.704 -885.531C979.752 -885.476 979.713 -885.392 979.641 -885.392V-885.392C979.569 -885.392 979.531 -885.307 979.578 -885.253L1098.45 -748.576C1134.5 -707.186 1192.89 -707.186 1228.94 -748.576L1348.31 -885.706C1348.36 -885.772 1348.45 -885.81 1348.54 -885.81V-885.81C1348.62 -885.81 1348.71 -885.848 1348.76 -885.914L1505.46 -1066.11C1562.39 -1131.54 1654.62 -1131.54 1711.54 -1066.11L1868.7 -885.392L1874.77 -879.121L2033.77 -700.497C2091.34 -635.799 2091.34 -530.966 2033.77 -466.268L1874.82 -287.696C1874.79 -287.669 1874.75 -287.669 1874.73 -287.697V-287.697Z" stroke="url(#paint7_linear_1873_55415)" stroke-width="1.75" stroke-miterlimit="10" stroke-linecap="round"/>
<path d="M1868.29 -285.762C1868.21 -285.821 1868.1 -285.81 1868.04 -285.737L1748.52 -151.35C1712.38 -110.796 1712.38 -44.9491 1748.52 -4.39544L1868.02 129.861C1868.06 129.915 1868.15 129.881 1868.15 129.808V129.808C1868.15 129.735 1868.24 129.7 1868.29 129.755L2025.68 306.655C2082.7 370.726 2082.7 474.618 2025.68 538.689L1868.15 715.745L1861.44 723.166L1705.57 902.103C1649.2 966.906 1557.79 966.906 1501.42 902.103L1345.76 723.2C1345.72 723.146 1345.75 723.061 1345.83 723.061V723.061C1345.9 723.061 1345.94 722.977 1345.89 722.923L1228.12 587.604C1192.44 546.528 1134.5 546.528 1098.82 587.604L980.562 723.48C980.505 723.546 980.421 723.584 980.334 723.584V723.584C980.246 723.584 980.163 723.622 980.105 723.688L824.785 902.208C768.414 967.01 677.006 967.01 620.635 902.208L464.856 723.166L458.879 716.999L301.536 539.943C244.522 475.872 244.522 371.98 301.536 307.909L459.155 131.167L578.794 -3.35026C614.934 -43.9039 614.934 -109.751 578.794 -150.305L459.294 -284.665C459.245 -284.72 459.155 -284.686 459.155 -284.612V-284.612C459.155 -284.539 459.064 -284.505 459.016 -284.56L301.628 -461.46C244.614 -525.53 244.614 -629.423 301.628 -693.493L459.155 -870.55L465.868 -877.971L621.647 -1057.01C678.018 -1121.81 769.425 -1121.81 825.796 -1057.01L981.454 -878.109C981.502 -878.055 981.463 -877.971 981.391 -877.971V-877.971C981.319 -877.971 981.281 -877.886 981.328 -877.832L1099.19 -742.409C1134.87 -701.332 1192.81 -701.332 1228.49 -742.409L1346.75 -878.285C1346.8 -878.351 1346.89 -878.389 1346.98 -878.389V-878.389C1347.06 -878.389 1347.15 -878.427 1347.2 -878.493L1502.52 -1057.01C1558.9 -1121.81 1650.3 -1121.81 1706.67 -1057.01L1862.45 -877.971L1868.43 -871.804L2025.96 -694.748C2082.97 -630.677 2082.97 -526.784 2025.96 -462.714L1868.55 -285.787C1868.48 -285.714 1868.37 -285.703 1868.29 -285.762V-285.762Z" stroke="url(#paint8_linear_1873_55415)" stroke-width="1.75" stroke-miterlimit="10" stroke-linecap="round"/>
<path d="M1868.29 -285.762C1868.21 -285.821 1868.1 -285.81 1868.04 -285.737L1748.52 -151.35C1712.38 -110.796 1712.38 -44.9491 1748.52 -4.39544L1868.02 129.861C1868.06 129.915 1868.15 129.881 1868.15 129.808V129.808C1868.15 129.735 1868.24 129.7 1868.29 129.755L2025.68 306.655C2082.7 370.726 2082.7 474.618 2025.68 538.689L1868.15 715.745L1861.44 723.166L1705.57 902.103C1649.2 966.906 1557.79 966.906 1501.42 902.103L1345.76 723.2C1345.72 723.146 1345.75 723.061 1345.83 723.061V723.061C1345.9 723.061 1345.94 722.977 1345.89 722.923L1228.12 587.604C1192.44 546.528 1134.5 546.528 1098.82 587.604L980.562 723.48C980.505 723.546 980.421 723.584 980.334 723.584V723.584C980.246 723.584 980.163 723.622 980.105 723.688L824.785 902.208C768.414 967.01 677.006 967.01 620.635 902.208L464.856 723.166L458.879 716.999L301.536 539.943C244.522 475.872 244.522 371.98 301.536 307.909L459.155 131.167L578.794 -3.35026C614.934 -43.9039 614.934 -109.751 578.794 -150.305L459.294 -284.665C459.245 -284.72 459.155 -284.686 459.155 -284.612V-284.612C459.155 -284.539 459.064 -284.505 459.016 -284.56L301.628 -461.46C244.614 -525.53 244.614 -629.423 301.628 -693.493L459.155 -870.55L465.868 -877.971L621.647 -1057.01C678.018 -1121.81 769.425 -1121.81 825.796 -1057.01L981.454 -878.109C981.502 -878.055 981.463 -877.971 981.391 -877.971V-877.971C981.319 -877.971 981.281 -877.886 981.328 -877.832L1099.19 -742.409C1134.87 -701.332 1192.81 -701.332 1228.49 -742.409L1346.75 -878.285C1346.8 -878.351 1346.89 -878.389 1346.98 -878.389V-878.389C1347.06 -878.389 1347.15 -878.427 1347.2 -878.493L1502.52 -1057.01C1558.9 -1121.81 1650.3 -1121.81 1706.67 -1057.01L1862.45 -877.971L1868.43 -871.804L2025.96 -694.748C2082.97 -630.677 2082.97 -526.784 2025.96 -462.714L1868.55 -285.787C1868.48 -285.714 1868.37 -285.703 1868.29 -285.762V-285.762Z" stroke="url(#paint9_linear_1873_55415)" stroke-width="1.75" stroke-miterlimit="10" stroke-linecap="round"/>
<path d="M1861.62 -283.776C1861.57 -283.832 1861.49 -283.832 1861.44 -283.776L1742.99 -150.618C1707.22 -110.378 1707.22 -45.2623 1742.99 -5.02221L1861.39 127.875C1861.44 127.93 1861.53 127.895 1861.53 127.822V127.822C1861.53 127.749 1861.62 127.715 1861.67 127.769L2017.58 302.997C2074.05 366.441 2074.05 469.392 2017.58 532.836L1861.53 708.22L1854.91 715.536L1700.6 892.906C1644.78 957.081 1554.2 957.081 1498.38 892.906L1344.1 715.779C1344.06 715.725 1344.1 715.641 1344.17 715.641V715.641C1344.24 715.641 1344.28 715.556 1344.23 715.502L1227.47 581.333C1192.07 540.675 1134.78 540.675 1099.37 581.333L982.306 715.955C982.249 716.021 982.165 716.059 982.078 716.059V716.059C981.99 716.059 981.907 716.097 981.849 716.163L828.092 893.01C772.273 957.185 681.693 957.185 625.873 893.01L471.566 715.641L465.68 709.474L309.626 534.09C253.163 470.647 253.163 367.695 309.626 304.251L465.772 129.076L584.308 -4.18609C620.08 -44.4261 620.08 -109.542 584.308 -149.782L466.003 -282.784C465.955 -282.838 465.864 -282.804 465.864 -282.731V-282.731C465.864 -282.658 465.774 -282.623 465.725 -282.678L309.81 -457.906C253.347 -521.349 253.347 -624.301 309.81 -687.744L465.864 -863.128L472.485 -870.445L626.701 -1047.81C682.52 -1111.99 773.1 -1111.99 828.92 -1047.81L983.106 -870.583C983.154 -870.529 983.115 -870.445 983.043 -870.445V-870.445C982.971 -870.445 982.933 -870.36 982.98 -870.306L1099.74 -736.137C1135.14 -695.479 1192.43 -695.479 1227.84 -736.137L1345 -870.759C1345.05 -870.825 1345.14 -870.863 1345.22 -870.863V-870.863C1345.31 -870.863 1345.4 -870.901 1345.45 -870.967L1499.3 -1047.81C1555.12 -1111.99 1645.7 -1111.99 1701.52 -1047.81L1855.83 -870.445L1861.71 -864.278L2017.77 -688.894C2074.23 -625.451 2074.23 -522.499 2017.77 -459.055L1861.81 -283.775C1861.76 -283.72 1861.67 -283.72 1861.62 -283.776V-283.776Z" stroke="url(#paint10_linear_1873_55415)" stroke-width="1.75" stroke-miterlimit="10" stroke-linecap="round"/>
<path d="M1861.62 -283.776C1861.57 -283.832 1861.49 -283.832 1861.44 -283.776L1742.99 -150.618C1707.22 -110.378 1707.22 -45.2623 1742.99 -5.02221L1861.39 127.875C1861.44 127.93 1861.53 127.895 1861.53 127.822V127.822C1861.53 127.749 1861.62 127.715 1861.67 127.769L2017.58 302.997C2074.05 366.441 2074.05 469.392 2017.58 532.836L1861.53 708.22L1854.91 715.536L1700.6 892.906C1644.78 957.081 1554.2 957.081 1498.38 892.906L1344.1 715.779C1344.06 715.725 1344.1 715.641 1344.17 715.641V715.641C1344.24 715.641 1344.28 715.556 1344.23 715.502L1227.47 581.333C1192.07 540.675 1134.78 540.675 1099.37 581.333L982.306 715.955C982.249 716.021 982.165 716.059 982.078 716.059V716.059C981.99 716.059 981.907 716.097 981.849 716.163L828.092 893.01C772.273 957.185 681.693 957.185 625.873 893.01L471.566 715.641L465.68 709.474L309.626 534.09C253.163 470.647 253.163 367.695 309.626 304.251L465.772 129.076L584.308 -4.18609C620.08 -44.4261 620.08 -109.542 584.308 -149.782L466.003 -282.784C465.955 -282.838 465.864 -282.804 465.864 -282.731V-282.731C465.864 -282.658 465.774 -282.623 465.725 -282.678L309.81 -457.906C253.347 -521.349 253.347 -624.301 309.81 -687.744L465.864 -863.128L472.485 -870.445L626.701 -1047.81C682.52 -1111.99 773.1 -1111.99 828.92 -1047.81L983.106 -870.583C983.154 -870.529 983.115 -870.445 983.043 -870.445V-870.445C982.971 -870.445 982.933 -870.36 982.98 -870.306L1099.74 -736.137C1135.14 -695.479 1192.43 -695.479 1227.84 -736.137L1345 -870.759C1345.05 -870.825 1345.14 -870.863 1345.22 -870.863V-870.863C1345.31 -870.863 1345.4 -870.901 1345.45 -870.967L1499.3 -1047.81C1555.12 -1111.99 1645.7 -1111.99 1701.52 -1047.81L1855.83 -870.445L1861.71 -864.278L2017.77 -688.894C2074.23 -625.451 2074.23 -522.499 2017.77 -459.055L1861.81 -283.775C1861.76 -283.72 1861.67 -283.72 1861.62 -283.776V-283.776Z" stroke="url(#paint11_linear_1873_55415)" stroke-width="1.75" stroke-miterlimit="10" stroke-linecap="round"/>
<path d="M1855.05 -281.843C1855.03 -281.912 1854.94 -281.931 1854.89 -281.878L1737.57 -149.992C1702.16 -110.17 1702.16 -45.5766 1737.57 -5.75464L1854.77 125.993C1854.82 126.048 1854.91 126.013 1854.91 125.94V125.94C1854.91 125.867 1855 125.833 1855.05 125.887L2009.49 299.443C2065.4 362.363 2065.4 464.27 2009.49 527.191L1854.91 700.902L1848.29 708.219L1695.45 883.916C1640.09 947.464 1550.43 947.464 1495.07 883.916L1342.36 708.358C1342.31 708.303 1342.35 708.219 1342.42 708.219V708.219C1342.49 708.219 1342.53 708.134 1342.48 708.08L1226.83 575.165C1191.79 534.925 1134.96 534.925 1099.92 575.165L984.052 708.533C983.995 708.599 983.911 708.637 983.824 708.637V708.637C983.736 708.637 983.653 708.675 983.595 708.741L831.217 883.916C775.858 947.464 686.198 947.464 630.838 883.916L478.002 708.219L472.117 702.157L317.533 528.445C261.622 465.524 261.622 363.618 317.533 300.697L472.209 127.194L589.64 -4.81396C625.045 -44.6359 625.045 -109.229 589.64 -149.051L472.439 -280.799C472.391 -280.853 472.3 -280.819 472.3 -280.746V-280.746C472.3 -280.673 472.21 -280.638 472.162 -280.693L317.717 -454.248C261.806 -517.169 261.806 -619.076 317.717 -681.997L472.3 -855.708L478.922 -863.024L631.758 -1038.72C687.117 -1102.27 776.778 -1102.27 832.137 -1038.72L984.853 -863.163C984.9 -863.109 984.861 -863.024 984.789 -863.024V-863.024C984.718 -863.024 984.679 -862.94 984.726 -862.886L1100.29 -729.971C1135.33 -689.731 1192.16 -689.731 1227.19 -729.971L1343.25 -863.339C1343.31 -863.405 1343.39 -863.443 1343.48 -863.443V-863.443C1343.56 -863.443 1343.65 -863.481 1343.7 -863.547L1496.08 -1038.72C1551.44 -1102.27 1641.1 -1102.27 1696.46 -1038.72L1849.3 -863.024L1855.18 -856.962L2009.77 -683.251C2065.68 -620.33 2065.68 -518.423 2009.77 -455.503L1855.2 -281.809C1855.15 -281.755 1855.07 -281.775 1855.05 -281.843V-281.843Z" stroke="url(#paint12_linear_1873_55415)" stroke-width="1.75" stroke-miterlimit="10" stroke-linecap="round"/>
<path d="M1855.05 -281.843C1855.03 -281.912 1854.94 -281.931 1854.89 -281.878L1737.57 -149.992C1702.16 -110.17 1702.16 -45.5766 1737.57 -5.75464L1854.77 125.993C1854.82 126.048 1854.91 126.013 1854.91 125.94V125.94C1854.91 125.867 1855 125.833 1855.05 125.887L2009.49 299.443C2065.4 362.363 2065.4 464.27 2009.49 527.191L1854.91 700.902L1848.29 708.219L1695.45 883.916C1640.09 947.464 1550.43 947.464 1495.07 883.916L1342.36 708.358C1342.31 708.303 1342.35 708.219 1342.42 708.219V708.219C1342.49 708.219 1342.53 708.134 1342.48 708.08L1226.83 575.165C1191.79 534.925 1134.96 534.925 1099.92 575.165L984.052 708.533C983.995 708.599 983.911 708.637 983.824 708.637V708.637C983.736 708.637 983.653 708.675 983.595 708.741L831.217 883.916C775.858 947.464 686.198 947.464 630.838 883.916L478.002 708.219L472.117 702.157L317.533 528.445C261.622 465.524 261.622 363.618 317.533 300.697L472.209 127.194L589.64 -4.81396C625.045 -44.6359 625.045 -109.229 589.64 -149.051L472.439 -280.799C472.391 -280.853 472.3 -280.819 472.3 -280.746V-280.746C472.3 -280.673 472.21 -280.638 472.162 -280.693L317.717 -454.248C261.806 -517.169 261.806 -619.076 317.717 -681.997L472.3 -855.708L478.922 -863.024L631.758 -1038.72C687.117 -1102.27 776.778 -1102.27 832.137 -1038.72L984.853 -863.163C984.9 -863.109 984.861 -863.024 984.789 -863.024V-863.024C984.718 -863.024 984.679 -862.94 984.726 -862.886L1100.29 -729.971C1135.33 -689.731 1192.16 -689.731 1227.19 -729.971L1343.25 -863.339C1343.31 -863.405 1343.39 -863.443 1343.48 -863.443V-863.443C1343.56 -863.443 1343.65 -863.481 1343.7 -863.547L1496.08 -1038.72C1551.44 -1102.27 1641.1 -1102.27 1696.46 -1038.72L1849.3 -863.024L1855.18 -856.962L2009.77 -683.251C2065.68 -620.33 2065.68 -518.423 2009.77 -455.503L1855.2 -281.809C1855.15 -281.755 1855.07 -281.775 1855.05 -281.843V-281.843Z" stroke="url(#paint13_linear_1873_55415)" stroke-width="1.75" stroke-miterlimit="10" stroke-linecap="round"/>
<path d="M1848.43 -279.908C1848.41 -279.957 1848.34 -279.968 1848.3 -279.928L1732.05 -149.259C1696.92 -109.855 1696.92 -45.8891 1732.05 -6.38073L1848.15 124.113C1848.2 124.167 1848.29 124.133 1848.29 124.06V124.06C1848.29 123.987 1848.38 123.952 1848.43 124.007L2001.4 295.89C2056.85 358.184 2056.85 459.149 2001.4 521.443L1848.38 693.482L1841.85 700.694L1690.49 874.719C1635.68 937.745 1546.85 937.745 1492.04 874.719L1340.79 700.833C1340.75 700.779 1340.79 700.694 1340.86 700.694V700.694C1340.93 700.694 1340.97 700.61 1340.92 700.555L1226.28 569C1191.61 529.073 1135.33 529.073 1100.57 569L985.679 701.043C985.641 701.087 985.586 701.112 985.527 701.112V701.112C985.469 701.112 985.413 701.138 985.375 701.182L834.346 874.719C779.538 937.745 690.706 937.745 635.898 874.719L484.533 700.694L478.74 694.632L325.628 522.593C270.176 460.299 270.176 359.333 325.628 297.04L478.832 125.209L595.16 -5.5446C630.289 -44.9485 630.289 -108.914 595.16 -148.423L479.028 -278.955C478.991 -278.996 478.924 -278.97 478.924 -278.916V-278.916C478.924 -278.861 478.856 -278.835 478.819 -278.876L325.812 -450.798C270.36 -513.092 270.36 -614.058 325.812 -676.351L478.924 -848.39L485.453 -855.602L636.818 -1029.52C691.625 -1092.55 780.458 -1092.55 835.266 -1029.52L986.51 -855.637C986.557 -855.582 986.519 -855.498 986.447 -855.498V-855.498C986.375 -855.498 986.336 -855.413 986.384 -855.359L1100.94 -723.699C1135.6 -683.772 1191.88 -683.772 1226.64 -723.699L1341.62 -855.847C1341.66 -855.891 1341.72 -855.916 1341.78 -855.916V-855.916C1341.84 -855.916 1341.89 -855.941 1341.93 -855.985L1492.87 -1029.52C1547.67 -1092.55 1636.51 -1092.55 1691.31 -1029.52L1842.68 -855.498L1848.47 -849.436L2001.58 -677.396C2057.04 -615.103 2057.04 -514.137 2001.58 -451.843L1848.55 -279.889C1848.51 -279.849 1848.45 -279.86 1848.43 -279.908V-279.908Z" stroke="url(#paint14_linear_1873_55415)" stroke-width="1.75" stroke-miterlimit="10" stroke-linecap="round"/>
<path d="M1848.43 -279.908C1848.41 -279.957 1848.34 -279.968 1848.3 -279.928L1732.05 -149.259C1696.92 -109.855 1696.92 -45.8891 1732.05 -6.38073L1848.15 124.113C1848.2 124.167 1848.29 124.133 1848.29 124.06V124.06C1848.29 123.987 1848.38 123.952 1848.43 124.007L2001.4 295.89C2056.85 358.184 2056.85 459.149 2001.4 521.443L1848.38 693.482L1841.85 700.694L1690.49 874.719C1635.68 937.745 1546.85 937.745 1492.04 874.719L1340.79 700.833C1340.75 700.779 1340.79 700.694 1340.86 700.694V700.694C1340.93 700.694 1340.97 700.61 1340.92 700.555L1226.28 569C1191.61 529.073 1135.33 529.073 1100.57 569L985.679 701.043C985.641 701.087 985.586 701.112 985.527 701.112V701.112C985.469 701.112 985.413 701.138 985.375 701.182L834.346 874.719C779.538 937.745 690.706 937.745 635.898 874.719L484.533 700.694L478.74 694.632L325.628 522.593C270.176 460.299 270.176 359.333 325.628 297.04L478.832 125.209L595.16 -5.5446C630.289 -44.9485 630.289 -108.914 595.16 -148.423L479.028 -278.955C478.991 -278.996 478.924 -278.97 478.924 -278.916V-278.916C478.924 -278.861 478.856 -278.835 478.819 -278.876L325.812 -450.798C270.36 -513.092 270.36 -614.058 325.812 -676.351L478.924 -848.39L485.453 -855.602L636.818 -1029.52C691.625 -1092.55 780.458 -1092.55 835.266 -1029.52L986.51 -855.637C986.557 -855.582 986.519 -855.498 986.447 -855.498V-855.498C986.375 -855.498 986.336 -855.413 986.384 -855.359L1100.94 -723.699C1135.6 -683.772 1191.88 -683.772 1226.64 -723.699L1341.62 -855.847C1341.66 -855.891 1341.72 -855.916 1341.78 -855.916V-855.916C1341.84 -855.916 1341.89 -855.941 1341.93 -855.985L1492.87 -1029.52C1547.67 -1092.55 1636.51 -1092.55 1691.31 -1029.52L1842.68 -855.498L1848.47 -849.436L2001.58 -677.396C2057.04 -615.103 2057.04 -514.137 2001.58 -451.843L1848.55 -279.889C1848.51 -279.849 1848.45 -279.86 1848.43 -279.908V-279.908Z" stroke="url(#paint15_linear_1873_55415)" stroke-width="1.75" stroke-miterlimit="10" stroke-linecap="round"/>
<path d="Mnan nanL1841.85 -278.028L1726.63 -148.528C1691.87 -109.438 1691.87 -46.0989 1726.63 -7.00859L1841.66 122.27C1841.69 122.311 1841.76 122.285 1841.76 122.23V122.23C1841.76 122.175 1841.83 122.149 1841.86 122.19L1993.4 292.44C2048.3 354.107 2048.3 454.132 1993.4 515.799L1841.76 686.166L1835.32 693.273L1685.43 865.626C1631.17 928.024 1543.17 928.024 1488.91 865.626L1339.14 693.412C1339.09 693.357 1339.13 693.273 1339.2 693.273V693.273C1339.27 693.273 1339.31 693.188 1339.27 693.134L1225.82 562.728C1191.42 523.219 1135.7 523.219 1101.3 562.728L987.427 693.622C987.389 693.666 987.333 693.691 987.275 693.691V693.691C987.217 693.691 987.161 693.716 987.123 693.76L837.565 865.626C783.309 928.024 695.304 928.024 641.048 865.626L491.155 693.273L485.453 687.315L333.812 516.948C278.913 455.282 278.913 355.256 333.812 293.59L485.545 123.432L600.77 -6.06791C635.531 -45.1582 635.531 -108.497 600.77 -147.587L485.741 -276.866C485.705 -276.907 485.637 -276.881 485.637 -276.826V-276.826C485.637 -276.771 485.569 -276.745 485.533 -276.786L333.996 -447.036C279.097 -508.703 279.097 -608.728 333.996 -670.395L485.637 -840.762L492.074 -847.869L641.968 -1020.22C696.224 -1082.62 784.229 -1082.62 838.485 -1020.22L988.258 -848.008C988.305 -847.953 988.266 -847.869 988.195 -847.869V-847.869C988.123 -847.869 988.084 -847.784 988.131 -847.73L1101.49 -717.533C1135.88 -678.025 1191.61 -678.025 1226 -717.533L1339.88 -848.427C1339.92 -848.471 1339.97 -848.496 1340.03 -848.496V-848.496C1340.09 -848.496 1340.14 -848.521 1340.18 -848.565L1489.74 -1020.43C1544 -1082.83 1632 -1082.83 1686.26 -1020.43L1836.15 -848.078L1841.85 -842.12L1993.49 -671.753C2048.39 -610.087 2048.39 -510.061 1993.49 -448.395L1841.85 -278.028Lnan nanLnan nanZ" stroke="url(#paint16_linear_1873_55415)" stroke-width="1.75" stroke-miterlimit="10" stroke-linecap="round"/>
<path d="Mnan nanL1841.85 -278.028L1726.63 -148.528C1691.87 -109.438 1691.87 -46.0989 1726.63 -7.00859L1841.66 122.27C1841.69 122.311 1841.76 122.285 1841.76 122.23V122.23C1841.76 122.175 1841.83 122.149 1841.86 122.19L1993.4 292.44C2048.3 354.107 2048.3 454.132 1993.4 515.799L1841.76 686.166L1835.32 693.273L1685.43 865.626C1631.17 928.024 1543.17 928.024 1488.91 865.626L1339.14 693.412C1339.09 693.357 1339.13 693.273 1339.2 693.273V693.273C1339.27 693.273 1339.31 693.188 1339.27 693.134L1225.82 562.728C1191.42 523.219 1135.7 523.219 1101.3 562.728L987.427 693.622C987.389 693.666 987.333 693.691 987.275 693.691V693.691C987.217 693.691 987.161 693.716 987.123 693.76L837.565 865.626C783.309 928.024 695.304 928.024 641.048 865.626L491.155 693.273L485.453 687.315L333.812 516.948C278.913 455.282 278.913 355.256 333.812 293.59L485.545 123.432L600.77 -6.06791C635.531 -45.1582 635.531 -108.497 600.77 -147.587L485.741 -276.866C485.705 -276.907 485.637 -276.881 485.637 -276.826V-276.826C485.637 -276.771 485.569 -276.745 485.533 -276.786L333.996 -447.036C279.097 -508.703 279.097 -608.728 333.996 -670.395L485.637 -840.762L492.074 -847.869L641.968 -1020.22C696.224 -1082.62 784.229 -1082.62 838.485 -1020.22L988.258 -848.008C988.305 -847.953 988.266 -847.869 988.195 -847.869V-847.869C988.123 -847.869 988.084 -847.784 988.131 -847.73L1101.49 -717.533C1135.88 -678.025 1191.61 -678.025 1226 -717.533L1339.88 -848.427C1339.92 -848.471 1339.97 -848.496 1340.03 -848.496V-848.496C1340.09 -848.496 1340.14 -848.521 1340.18 -848.565L1489.74 -1020.43C1544 -1082.83 1632 -1082.83 1686.26 -1020.43L1836.15 -848.078L1841.85 -842.12L1993.49 -671.753C2048.39 -610.087 2048.39 -510.061 1993.49 -448.395L1841.85 -278.028Lnan nanLnan nanZ" stroke="url(#paint17_linear_1873_55415)" stroke-width="1.75" stroke-miterlimit="10" stroke-linecap="round"/>
<path d="M1835.32 -275.937C1835.28 -276.035 1835.15 -276.055 1835.07 -275.975L1721.2 -147.9C1686.8 -109.228 1686.8 -46.5164 1721.2 -7.84412L1835.12 120.18C1835.16 120.221 1835.23 120.195 1835.23 120.14V120.14C1835.23 120.085 1835.29 120.06 1835.33 120.1L1985.4 288.783C2039.74 349.926 2039.74 448.907 1985.4 510.05L1835.23 678.85L1828.79 685.957L1680.28 856.638C1626.48 918.409 1539.39 918.409 1485.6 856.638L1337.2 686.096C1337.16 686.042 1337.2 685.957 1337.27 685.957V685.957C1337.34 685.957 1337.38 685.872 1337.33 685.818L1225.08 556.562C1191.05 517.471 1135.88 517.471 1101.85 556.562L989.078 686.097C989.039 686.141 988.984 686.166 988.925 686.166V686.166C988.867 686.166 988.811 686.191 988.773 686.235L840.687 856.428C786.891 918.2 699.806 918.2 646.009 856.428L497.495 685.748L491.794 679.79L341.624 510.991C287.276 449.847 287.276 350.867 341.624 289.723L491.886 121.133L605.915 -7.11249C640.308 -45.7847 640.308 -108.497 605.915 -147.169L491.99 -275.193C491.953 -275.234 491.886 -275.208 491.886 -275.153V-275.153C491.886 -275.098 491.818 -275.072 491.781 -275.113L341.716 -443.795C287.368 -504.939 287.368 -603.92 341.716 -665.064L491.978 -833.549L498.415 -840.656L646.929 -1011.23C700.725 -1073 787.811 -1073 841.607 -1011.23L990 -840.691C990.047 -840.636 990.009 -840.552 989.937 -840.552V-840.552C989.865 -840.552 989.827 -840.467 989.874 -840.413L1102.13 -711.366C1136.15 -672.275 1191.33 -672.275 1225.35 -711.366L1338.13 -840.901C1338.16 -840.945 1338.22 -840.97 1338.28 -840.97V-840.97C1338.34 -840.97 1338.39 -840.995 1338.43 -841.039L1486.52 -1011.23C1540.31 -1073 1627.4 -1073 1681.19 -1011.23L1829.71 -840.552L1835.41 -834.594L1985.58 -665.795C2039.93 -604.651 2039.93 -505.671 1985.58 -444.527L1835.56 -275.899C1835.49 -275.819 1835.36 -275.839 1835.32 -275.937V-275.937Z" stroke="url(#paint18_linear_1873_55415)" stroke-width="1.75" stroke-miterlimit="10" stroke-linecap="round"/>
<path d="M1835.32 -275.937C1835.28 -276.035 1835.15 -276.055 1835.07 -275.975L1721.2 -147.9C1686.8 -109.228 1686.8 -46.5164 1721.2 -7.84412L1835.12 120.18C1835.16 120.221 1835.23 120.195 1835.23 120.14V120.14C1835.23 120.085 1835.29 120.06 1835.33 120.1L1985.4 288.783C2039.74 349.926 2039.74 448.907 1985.4 510.05L1835.23 678.85L1828.79 685.957L1680.28 856.638C1626.48 918.409 1539.39 918.409 1485.6 856.638L1337.2 686.096C1337.16 686.042 1337.2 685.957 1337.27 685.957V685.957C1337.34 685.957 1337.38 685.872 1337.33 685.818L1225.08 556.562C1191.05 517.471 1135.88 517.471 1101.85 556.562L989.078 686.097C989.039 686.141 988.984 686.166 988.925 686.166V686.166C988.867 686.166 988.811 686.191 988.773 686.235L840.687 856.428C786.891 918.2 699.806 918.2 646.009 856.428L497.495 685.748L491.794 679.79L341.624 510.991C287.276 449.847 287.276 350.867 341.624 289.723L491.886 121.133L605.915 -7.11249C640.308 -45.7847 640.308 -108.497 605.915 -147.169L491.99 -275.193C491.953 -275.234 491.886 -275.208 491.886 -275.153V-275.153C491.886 -275.098 491.818 -275.072 491.781 -275.113L341.716 -443.795C287.368 -504.939 287.368 -603.92 341.716 -665.064L491.978 -833.549L498.415 -840.656L646.929 -1011.23C700.725 -1073 787.811 -1073 841.607 -1011.23L990 -840.691C990.047 -840.636 990.009 -840.552 989.937 -840.552V-840.552C989.865 -840.552 989.827 -840.467 989.874 -840.413L1102.13 -711.366C1136.15 -672.275 1191.33 -672.275 1225.35 -711.366L1338.13 -840.901C1338.16 -840.945 1338.22 -840.97 1338.28 -840.97V-840.97C1338.34 -840.97 1338.39 -840.995 1338.43 -841.039L1486.52 -1011.23C1540.31 -1073 1627.4 -1073 1681.19 -1011.23L1829.71 -840.552L1835.41 -834.594L1985.58 -665.795C2039.93 -604.651 2039.93 -505.671 1985.58 -444.527L1835.56 -275.899C1835.49 -275.819 1835.36 -275.839 1835.32 -275.937V-275.937Z" stroke="url(#paint19_linear_1873_55415)" stroke-width="1.75" stroke-miterlimit="10" stroke-linecap="round"/>
<path d="M1828.74 -274.057C1828.72 -274.106 1828.66 -274.116 1828.62 -274.076L1715.77 -147.17C1681.66 -108.811 1681.66 -46.7268 1715.77 -8.47258L1828.5 118.297C1828.54 118.338 1828.61 118.312 1828.61 118.257V118.257C1828.61 118.203 1828.67 118.177 1828.71 118.218L1977.31 285.228C2031.1 345.744 2031.1 443.784 1977.31 504.301L1828.61 671.323L1822.26 678.326L1675.22 847.334C1621.97 908.478 1535.72 908.478 1482.47 847.334L1335.55 678.464C1335.5 678.41 1335.54 678.326 1335.61 678.326V678.326C1335.69 678.326 1335.72 678.241 1335.68 678.187L1224.43 550.394C1190.69 511.617 1136.06 511.617 1102.4 550.394L990.827 678.674C990.788 678.718 990.733 678.744 990.674 678.744V678.744C990.616 678.744 990.56 678.769 990.522 678.813L843.815 847.334C790.571 908.478 704.313 908.478 651.069 847.334L504.026 678.326L498.416 672.473L349.718 505.346C295.922 444.829 295.922 346.79 349.718 286.273L498.508 119.355L611.434 -7.63645C645.551 -45.9951 645.551 -108.08 611.434 -146.334L498.613 -273.104C498.576 -273.145 498.508 -273.119 498.508 -273.064V-273.064C498.508 -273.009 498.441 -272.983 498.404 -273.024L349.902 -439.93C296.106 -500.446 296.106 -598.486 349.902 -659.003L498.6 -826.129L504.945 -833.132L651.988 -1002.14C705.233 -1063.28 791.49 -1063.28 844.735 -1002.14L991.657 -833.271C991.704 -833.217 991.666 -833.132 991.594 -833.132V-833.132C991.522 -833.132 991.484 -833.048 991.531 -832.993L1102.77 -705.2C1136.52 -666.423 1191.15 -666.423 1224.8 -705.2L1336.47 -833.481C1336.51 -833.525 1336.57 -833.55 1336.62 -833.55V-833.55C1336.68 -833.55 1336.74 -833.576 1336.78 -833.62L1483.39 -1002.14C1536.64 -1063.28 1622.89 -1063.28 1676.14 -1002.14L1823.18 -833.132L1828.79 -827.279L1977.49 -660.152C2031.29 -599.635 2031.29 -501.596 1977.49 -441.079L1828.87 -274.038C1828.83 -273.998 1828.77 -274.008 1828.74 -274.057V-274.057Z" stroke="url(#paint20_linear_1873_55415)" stroke-width="1.75" stroke-miterlimit="10" stroke-linecap="round"/>
<path d="M1828.74 -274.057C1828.72 -274.106 1828.66 -274.116 1828.62 -274.076L1715.77 -147.17C1681.66 -108.811 1681.66 -46.7268 1715.77 -8.47258L1828.5 118.297C1828.54 118.338 1828.61 118.312 1828.61 118.257V118.257C1828.61 118.203 1828.67 118.177 1828.71 118.218L1977.31 285.228C2031.1 345.744 2031.1 443.784 1977.31 504.301L1828.61 671.323L1822.26 678.326L1675.22 847.334C1621.97 908.478 1535.72 908.478 1482.47 847.334L1335.55 678.464C1335.5 678.41 1335.54 678.326 1335.61 678.326V678.326C1335.69 678.326 1335.72 678.241 1335.68 678.187L1224.43 550.394C1190.69 511.617 1136.06 511.617 1102.4 550.394L990.827 678.674C990.788 678.718 990.733 678.744 990.674 678.744V678.744C990.616 678.744 990.56 678.769 990.522 678.813L843.815 847.334C790.571 908.478 704.313 908.478 651.069 847.334L504.026 678.326L498.416 672.473L349.718 505.346C295.922 444.829 295.922 346.79 349.718 286.273L498.508 119.355L611.434 -7.63645C645.551 -45.9951 645.551 -108.08 611.434 -146.334L498.613 -273.104C498.576 -273.145 498.508 -273.119 498.508 -273.064V-273.064C498.508 -273.009 498.441 -272.983 498.404 -273.024L349.902 -439.93C296.106 -500.446 296.106 -598.486 349.902 -659.003L498.6 -826.129L504.945 -833.132L651.988 -1002.14C705.233 -1063.28 791.49 -1063.28 844.735 -1002.14L991.657 -833.271C991.704 -833.217 991.666 -833.132 991.594 -833.132V-833.132C991.522 -833.132 991.484 -833.048 991.531 -832.993L1102.77 -705.2C1136.52 -666.423 1191.15 -666.423 1224.8 -705.2L1336.47 -833.481C1336.51 -833.525 1336.57 -833.55 1336.62 -833.55V-833.55C1336.68 -833.55 1336.74 -833.576 1336.78 -833.62L1483.39 -1002.14C1536.64 -1063.28 1622.89 -1063.28 1676.14 -1002.14L1823.18 -833.132L1828.79 -827.279L1977.49 -660.152C2031.29 -599.635 2031.29 -501.596 1977.49 -441.079L1828.87 -274.038C1828.83 -273.998 1828.77 -274.008 1828.74 -274.057V-274.057Z" stroke="url(#paint21_linear_1873_55415)" stroke-width="1.75" stroke-miterlimit="10" stroke-linecap="round"/>
<path d="M1822.13 -272.176C1822.11 -272.225 1822.04 -272.235 1822.01 -272.195L1710.26 -146.543C1676.51 -108.603 1676.51 -47.1453 1710.26 -9.20473L1821.98 116.311C1822.02 116.352 1822.08 116.326 1822.08 116.271V116.271C1822.08 116.216 1822.15 116.19 1822.19 116.231L1969.31 281.569C2022.55 341.459 2022.55 438.557 1969.31 498.447L1822.08 663.902L1815.83 670.8L1670.26 838.136C1617.57 898.653 1532.14 898.653 1479.44 838.136L1333.99 670.939C1333.95 670.884 1333.98 670.8 1334.06 670.8V670.8C1334.13 670.8 1334.17 670.715 1334.12 670.661L1223.98 544.122C1190.6 505.763 1136.53 505.763 1103.15 544.122L992.487 671.149C992.449 671.193 992.394 671.218 992.335 671.218V671.218C992.277 671.218 992.221 671.243 992.183 671.287L847.039 838.24C794.347 898.757 708.917 898.757 656.224 838.24L510.652 670.904L505.043 665.156L357.816 499.701C304.572 439.812 304.572 342.713 357.816 282.823L505.135 117.578L616.957 -8.15955C650.706 -46.1002 650.706 -107.558 616.957 -145.498L505.239 -271.118C505.203 -271.159 505.135 -271.134 505.135 -271.079V-271.079C505.135 -271.024 505.067 -270.998 505.031 -271.039L357.908 -436.377C304.664 -496.266 304.664 -593.365 357.908 -653.255L505.135 -818.709L511.388 -825.608L657.052 -992.943C709.744 -1053.46 795.174 -1053.46 847.867 -992.943L993.318 -825.746C993.365 -825.692 993.327 -825.608 993.255 -825.608V-825.608C993.183 -825.608 993.144 -825.523 993.192 -825.469L1103.33 -698.93C1136.71 -660.571 1190.78 -660.571 1224.16 -698.93L1334.73 -825.956C1334.77 -826 1334.82 -826.026 1334.88 -826.026V-826.026C1334.94 -826.026 1335 -826.051 1335.04 -826.095L1480.18 -992.943C1532.87 -1053.46 1618.3 -1053.46 1670.99 -992.943L1816.66 -825.608L1822.27 -819.859L1969.49 -654.404C2022.74 -594.515 2022.74 -497.416 1969.49 -437.526L1822.25 -272.157C1822.22 -272.117 1822.15 -272.127 1822.13 -272.176V-272.176Z" stroke="url(#paint22_linear_1873_55415)" stroke-width="1.75" stroke-miterlimit="10" stroke-linecap="round"/>
<path d="M1822.13 -272.176C1822.11 -272.225 1822.04 -272.235 1822.01 -272.195L1710.26 -146.543C1676.51 -108.603 1676.51 -47.1453 1710.26 -9.20473L1821.98 116.311C1822.02 116.352 1822.08 116.326 1822.08 116.271V116.271C1822.08 116.216 1822.15 116.19 1822.19 116.231L1969.31 281.569C2022.55 341.459 2022.55 438.557 1969.31 498.447L1822.08 663.902L1815.83 670.8L1670.26 838.136C1617.57 898.653 1532.14 898.653 1479.44 838.136L1333.99 670.939C1333.95 670.884 1333.98 670.8 1334.06 670.8V670.8C1334.13 670.8 1334.17 670.715 1334.12 670.661L1223.98 544.122C1190.6 505.763 1136.53 505.763 1103.15 544.122L992.487 671.149C992.449 671.193 992.394 671.218 992.335 671.218V671.218C992.277 671.218 992.221 671.243 992.183 671.287L847.039 838.24C794.347 898.757 708.917 898.757 656.224 838.24L510.652 670.904L505.043 665.156L357.816 499.701C304.572 439.812 304.572 342.713 357.816 282.823L505.135 117.578L616.957 -8.15955C650.706 -46.1002 650.706 -107.558 616.957 -145.498L505.239 -271.118C505.203 -271.159 505.135 -271.134 505.135 -271.079V-271.079C505.135 -271.024 505.067 -270.998 505.031 -271.039L357.908 -436.377C304.664 -496.266 304.664 -593.365 357.908 -653.255L505.135 -818.709L511.388 -825.608L657.052 -992.943C709.744 -1053.46 795.174 -1053.46 847.867 -992.943L993.318 -825.746C993.365 -825.692 993.327 -825.608 993.255 -825.608V-825.608C993.183 -825.608 993.144 -825.523 993.192 -825.469L1103.33 -698.93C1136.71 -660.571 1190.78 -660.571 1224.16 -698.93L1334.73 -825.956C1334.77 -826 1334.82 -826.026 1334.88 -826.026V-826.026C1334.94 -826.026 1335 -826.051 1335.04 -826.095L1480.18 -992.943C1532.87 -1053.46 1618.3 -1053.46 1670.99 -992.943L1816.66 -825.608L1822.27 -819.859L1969.49 -654.404C2022.74 -594.515 2022.74 -497.416 1969.49 -437.526L1822.25 -272.157C1822.22 -272.117 1822.15 -272.127 1822.13 -272.176V-272.176Z" stroke="url(#paint23_linear_1873_55415)" stroke-width="1.75" stroke-miterlimit="10" stroke-linecap="round"/>
<path d="M1815.64 -270.188C1815.59 -270.244 1815.51 -270.244 1815.46 -270.189L1704.83 -145.81C1671.45 -108.288 1671.45 -47.3527 1704.83 -9.83011L1815.35 114.431C1815.39 114.472 1815.46 114.446 1815.46 114.391V114.391C1815.46 114.337 1815.52 114.311 1815.56 114.352L1961.21 278.017C2014 337.28 2014 433.438 1961.21 492.805L1815.46 656.587L1809.2 663.485L1665.1 829.149C1612.96 889.143 1528.36 889.143 1476.13 829.149L1332.15 663.624C1332.1 663.57 1332.14 663.485 1332.21 663.485V663.485C1332.28 663.485 1332.32 663.401 1332.27 663.346L1223.24 538.062C1190.23 500.121 1136.61 500.121 1103.6 538.062L994.229 663.729C994.191 663.774 994.135 663.799 994.077 663.799V663.799C994.018 663.799 993.963 663.824 993.925 663.868L850.161 829.044C798.02 889.039 713.417 889.039 661.184 829.044L517.084 663.381L511.567 657.632L365.811 493.85C313.027 434.587 313.027 338.429 365.811 279.062L511.659 115.489L622.377 -8.88943C655.759 -46.412 655.759 -107.347 622.377 -144.869L511.763 -269.131C511.726 -269.172 511.659 -269.146 511.659 -269.091V-269.091C511.659 -269.036 511.591 -269.01 511.554 -269.051L365.903 -432.716C313.118 -491.979 313.118 -588.137 365.903 -647.504L511.751 -811.286L518.004 -818.185L662.104 -983.848C714.245 -1043.84 798.847 -1043.84 851.08 -983.848L995.06 -818.324C995.107 -818.269 995.068 -818.185 994.997 -818.185V-818.185C994.925 -818.185 994.886 -818.1 994.933 -818.046L1103.97 -692.761C1136.98 -654.821 1190.59 -654.821 1223.61 -692.761L1333.07 -818.533C1333.11 -818.578 1333.16 -818.603 1333.22 -818.603V-818.603C1333.28 -818.603 1333.34 -818.628 1333.38 -818.672L1477.14 -983.848C1529.28 -1043.84 1613.88 -1043.84 1666.12 -983.848L1810.22 -818.185L1815.73 -812.436L1961.49 -648.654C2014.27 -589.391 2014.27 -493.233 1961.49 -433.866L1815.83 -270.188C1815.78 -270.133 1815.69 -270.133 1815.64 -270.188V-270.188Z" stroke="url(#paint24_linear_1873_55415)" stroke-width="1.75" stroke-miterlimit="10" stroke-linecap="round"/>
<path d="M1815.64 -270.188C1815.59 -270.244 1815.51 -270.244 1815.46 -270.189L1704.83 -145.81C1671.45 -108.288 1671.45 -47.3527 1704.83 -9.83011L1815.35 114.431C1815.39 114.472 1815.46 114.446 1815.46 114.391V114.391C1815.46 114.337 1815.52 114.311 1815.56 114.352L1961.21 278.017C2014 337.28 2014 433.438 1961.21 492.805L1815.46 656.587L1809.2 663.485L1665.1 829.149C1612.96 889.143 1528.36 889.143 1476.13 829.149L1332.15 663.624C1332.1 663.57 1332.14 663.485 1332.21 663.485V663.485C1332.28 663.485 1332.32 663.401 1332.27 663.346L1223.24 538.062C1190.23 500.121 1136.61 500.121 1103.6 538.062L994.229 663.729C994.191 663.774 994.135 663.799 994.077 663.799V663.799C994.018 663.799 993.963 663.824 993.925 663.868L850.161 829.044C798.02 889.039 713.417 889.039 661.184 829.044L517.084 663.381L511.567 657.632L365.811 493.85C313.027 434.587 313.027 338.429 365.811 279.062L511.659 115.489L622.377 -8.88943C655.759 -46.412 655.759 -107.347 622.377 -144.869L511.763 -269.131C511.726 -269.172 511.659 -269.146 511.659 -269.091V-269.091C511.659 -269.036 511.591 -269.01 511.554 -269.051L365.903 -432.716C313.118 -491.979 313.118 -588.137 365.903 -647.504L511.751 -811.286L518.004 -818.185L662.104 -983.848C714.245 -1043.84 798.847 -1043.84 851.08 -983.848L995.06 -818.324C995.107 -818.269 995.068 -818.185 994.997 -818.185V-818.185C994.925 -818.185 994.886 -818.1 994.933 -818.046L1103.97 -692.761C1136.98 -654.821 1190.59 -654.821 1223.61 -692.761L1333.07 -818.533C1333.11 -818.578 1333.16 -818.603 1333.22 -818.603V-818.603C1333.28 -818.603 1333.34 -818.628 1333.38 -818.672L1477.14 -983.848C1529.28 -1043.84 1613.88 -1043.84 1666.12 -983.848L1810.22 -818.185L1815.73 -812.436L1961.49 -648.654C2014.27 -589.391 2014.27 -493.233 1961.49 -433.866L1815.83 -270.188C1815.78 -270.133 1815.69 -270.133 1815.64 -270.188V-270.188Z" stroke="url(#paint25_linear_1873_55415)" stroke-width="1.75" stroke-miterlimit="10" stroke-linecap="round"/>
<path d="M1809.07 -268.204C1809.04 -268.253 1808.98 -268.263 1808.94 -268.223L1699.4 -145.08C1666.3 -107.871 1666.3 -47.6677 1699.4 -10.4587L1808.82 112.548C1808.86 112.589 1808.93 112.563 1808.93 112.509V112.509C1808.93 112.454 1809 112.428 1809.03 112.469L1953.21 274.462C2005.45 333.202 2005.45 428.315 1953.21 487.055L1808.93 649.165L1802.77 655.958L1660.14 819.95C1608.46 879.317 1524.77 879.317 1473.09 819.95L1330.58 656.097C1330.54 656.043 1330.58 655.958 1330.65 655.958V655.958C1330.72 655.958 1330.76 655.874 1330.71 655.82L1222.78 531.789C1190.04 494.162 1137.07 494.162 1104.34 531.789L995.977 656.203C995.939 656.247 995.883 656.272 995.825 656.272V656.272C995.766 656.272 995.711 656.297 995.672 656.341L853.288 819.95C801.607 879.317 717.924 879.317 666.243 819.95L523.614 655.958L518.188 650.314L373.904 488.204C321.671 429.464 321.671 334.352 373.904 275.612L518.28 113.711L627.896 -9.51799C661.001 -46.727 661.001 -106.93 627.896 -144.139L518.476 -267.146C518.44 -267.187 518.372 -267.161 518.372 -267.107V-267.107C518.372 -267.052 518.304 -267.026 518.268 -267.067L374.088 -429.06C321.855 -487.8 321.855 -582.913 374.088 -641.653L518.372 -803.763L524.533 -810.556L667.07 -974.652C718.751 -1034.02 802.434 -1034.02 854.115 -974.652L996.623 -810.8C996.671 -810.745 996.632 -810.661 996.56 -810.661V-810.661C996.488 -810.661 996.45 -810.576 996.497 -810.522L1104.43 -686.492C1137.17 -648.865 1190.13 -648.865 1222.87 -686.492L1331.23 -811.01C1331.27 -811.054 1331.33 -811.079 1331.38 -811.079V-811.079C1331.44 -811.079 1331.5 -811.104 1331.54 -811.148L1473.83 -974.652C1525.51 -1034.02 1609.19 -1034.02 1660.87 -974.652L1803.5 -810.661L1808.93 -805.017L1953.21 -642.907C2005.45 -584.167 2005.45 -489.054 1953.21 -430.314L1809.19 -268.185C1809.15 -268.145 1809.09 -268.155 1809.07 -268.204V-268.204Z" stroke="url(#paint26_linear_1873_55415)" stroke-width="1.75" stroke-miterlimit="10" stroke-linecap="round"/>
<path d="M1809.07 -268.204C1809.04 -268.253 1808.98 -268.263 1808.94 -268.223L1699.4 -145.08C1666.3 -107.871 1666.3 -47.6677 1699.4 -10.4587L1808.82 112.548C1808.86 112.589 1808.93 112.563 1808.93 112.509V112.509C1808.93 112.454 1809 112.428 1809.03 112.469L1953.21 274.462C2005.45 333.202 2005.45 428.315 1953.21 487.055L1808.93 649.165L1802.77 655.958L1660.14 819.95C1608.46 879.317 1524.77 879.317 1473.09 819.95L1330.58 656.097C1330.54 656.043 1330.58 655.958 1330.65 655.958V655.958C1330.72 655.958 1330.76 655.874 1330.71 655.82L1222.78 531.789C1190.04 494.162 1137.07 494.162 1104.34 531.789L995.977 656.203C995.939 656.247 995.883 656.272 995.825 656.272V656.272C995.766 656.272 995.711 656.297 995.672 656.341L853.288 819.95C801.607 879.317 717.924 879.317 666.243 819.95L523.614 655.958L518.188 650.314L373.904 488.204C321.671 429.464 321.671 334.352 373.904 275.612L518.28 113.711L627.896 -9.51799C661.001 -46.727 661.001 -106.93 627.896 -144.139L518.476 -267.146C518.44 -267.187 518.372 -267.161 518.372 -267.107V-267.107C518.372 -267.052 518.304 -267.026 518.268 -267.067L374.088 -429.06C321.855 -487.8 321.855 -582.913 374.088 -641.653L518.372 -803.763L524.533 -810.556L667.07 -974.652C718.751 -1034.02 802.434 -1034.02 854.115 -974.652L996.623 -810.8C996.671 -810.745 996.632 -810.661 996.56 -810.661V-810.661C996.488 -810.661 996.45 -810.576 996.497 -810.522L1104.43 -686.492C1137.17 -648.865 1190.13 -648.865 1222.87 -686.492L1331.23 -811.01C1331.27 -811.054 1331.33 -811.079 1331.38 -811.079V-811.079C1331.44 -811.079 1331.5 -811.104 1331.54 -811.148L1473.83 -974.652C1525.51 -1034.02 1609.19 -1034.02 1660.87 -974.652L1803.5 -810.661L1808.93 -805.017L1953.21 -642.907C2005.45 -584.167 2005.45 -489.054 1953.21 -430.314L1809.19 -268.185C1809.15 -268.145 1809.09 -268.155 1809.07 -268.204V-268.204Z" stroke="url(#paint27_linear_1873_55415)" stroke-width="1.75" stroke-miterlimit="10" stroke-linecap="round"/>
<path d="M1802.45 -266.269C1802.43 -266.337 1802.34 -266.357 1802.29 -266.303L1693.89 -144.451C1661.15 -107.66 1661.15 -47.9795 1693.89 -11.1886L1802.21 110.564C1802.24 110.605 1802.31 110.579 1802.31 110.524V110.524C1802.31 110.47 1802.38 110.444 1802.41 110.485L1945.12 270.91C1996.8 329.023 1996.8 423.195 1945.12 481.308L1802.31 641.85L1796.24 648.539L1654.99 810.858C1603.86 869.598 1521.01 869.598 1469.88 810.858L1328.75 648.678C1328.7 648.624 1328.74 648.539 1328.81 648.539V648.539C1328.88 648.539 1328.92 648.455 1328.87 648.4L1222.05 525.624C1189.68 488.415 1137.17 488.415 1104.8 525.624L997.543 648.888C997.504 648.932 997.449 648.957 997.391 648.957V648.957C997.332 648.957 997.277 648.983 997.238 649.027L856.509 810.754C805.38 869.494 722.524 869.494 671.395 810.754L530.146 648.435L524.72 642.791L381.907 482.353C330.226 424.24 330.226 330.068 381.907 271.955L524.812 111.622L633.324 -10.3525C666.061 -47.1434 666.061 -106.824 633.324 -143.615L525.008 -265.368C524.972 -265.409 524.904 -265.383 524.904 -265.328V-265.328C524.904 -265.273 524.836 -265.247 524.8 -265.288L382.091 -425.609C330.41 -483.722 330.41 -577.894 382.091 -636.007L524.904 -796.549L530.973 -803.238L672.223 -965.557C723.352 -1024.3 806.207 -1024.3 857.337 -965.557L998.373 -803.377C998.421 -803.323 998.382 -803.238 998.31 -803.238V-803.238C998.238 -803.238 998.2 -803.154 998.247 -803.099L1105.07 -680.323C1137.44 -643.114 1189.95 -643.114 1222.32 -680.323L1329.58 -803.587C1329.62 -803.631 1329.67 -803.656 1329.73 -803.656V-803.656C1329.79 -803.656 1329.85 -803.682 1329.88 -803.726L1470.7 -965.557C1521.83 -1024.3 1604.69 -1024.3 1655.82 -965.557L1797.07 -803.238L1802.49 -797.594L1945.31 -637.052C1996.99 -578.939 1996.99 -484.767 1945.31 -426.654L1802.6 -266.234C1802.56 -266.181 1802.47 -266.2 1802.45 -266.269V-266.269Z" stroke="url(#paint28_linear_1873_55415)" stroke-width="1.75" stroke-miterlimit="10" stroke-linecap="round"/>
<path d="M1802.45 -266.269C1802.43 -266.337 1802.34 -266.357 1802.29 -266.303L1693.89 -144.451C1661.15 -107.66 1661.15 -47.9795 1693.89 -11.1886L1802.21 110.564C1802.24 110.605 1802.31 110.579 1802.31 110.524V110.524C1802.31 110.47 1802.38 110.444 1802.41 110.485L1945.12 270.91C1996.8 329.023 1996.8 423.195 1945.12 481.308L1802.31 641.85L1796.24 648.539L1654.99 810.858C1603.86 869.598 1521.01 869.598 1469.88 810.858L1328.75 648.678C1328.7 648.624 1328.74 648.539 1328.81 648.539V648.539C1328.88 648.539 1328.92 648.455 1328.87 648.4L1222.05 525.624C1189.68 488.415 1137.17 488.415 1104.8 525.624L997.543 648.888C997.504 648.932 997.449 648.957 997.391 648.957V648.957C997.332 648.957 997.277 648.983 997.238 649.027L856.509 810.754C805.38 869.494 722.524 869.494 671.395 810.754L530.146 648.435L524.72 642.791L381.907 482.353C330.226 424.24 330.226 330.068 381.907 271.955L524.812 111.622L633.324 -10.3525C666.061 -47.1434 666.061 -106.824 633.324 -143.615L525.008 -265.368C524.972 -265.409 524.904 -265.383 524.904 -265.328V-265.328C524.904 -265.273 524.836 -265.247 524.8 -265.288L382.091 -425.609C330.41 -483.722 330.41 -577.894 382.091 -636.007L524.904 -796.549L530.973 -803.238L672.223 -965.557C723.352 -1024.3 806.207 -1024.3 857.337 -965.557L998.373 -803.377C998.421 -803.323 998.382 -803.238 998.31 -803.238V-803.238C998.238 -803.238 998.2 -803.154 998.247 -803.099L1105.07 -680.323C1137.44 -643.114 1189.95 -643.114 1222.32 -680.323L1329.58 -803.587C1329.62 -803.631 1329.67 -803.656 1329.73 -803.656V-803.656C1329.79 -803.656 1329.85 -803.682 1329.88 -803.726L1470.7 -965.557C1521.83 -1024.3 1604.69 -1024.3 1655.82 -965.557L1797.07 -803.238L1802.49 -797.594L1945.31 -637.052C1996.99 -578.939 1996.99 -484.767 1945.31 -426.654L1802.6 -266.234C1802.56 -266.181 1802.47 -266.2 1802.45 -266.269V-266.269Z" stroke="url(#paint29_linear_1873_55415)" stroke-width="1.75" stroke-miterlimit="10" stroke-linecap="round"/>
<path d="M1795.87 -264.388C1795.87 -264.407 1795.85 -264.415 1795.84 -264.402L1688.46 -143.72C1656.09 -107.348 1656.09 -48.2941 1688.46 -11.8167L1795.67 108.682C1795.71 108.723 1795.78 108.697 1795.78 108.642V108.642C1795.78 108.587 1795.85 108.562 1795.88 108.602L1937.12 267.355C1988.25 324.841 1988.25 418.072 1937.12 475.558L1795.78 634.428L1789.71 641.117L1649.93 801.764C1599.35 859.877 1517.33 859.877 1466.75 801.764L1327.09 641.256C1327.04 641.202 1327.08 641.117 1327.15 641.117V641.117C1327.23 641.117 1327.26 641.033 1327.22 640.979L1221.49 519.456C1189.49 482.666 1137.53 482.666 1105.44 519.456L999.379 641.361C999.341 641.406 999.285 641.431 999.227 641.431V641.431C999.168 641.431 999.113 641.456 999.074 641.5L859.632 801.659C809.055 859.772 727.027 859.772 676.45 801.659L536.671 641.013L531.338 635.473L389.996 476.603C338.867 419.118 338.867 325.886 389.996 268.4L531.43 109.74L638.746 -10.9806C671.116 -47.3534 671.116 -106.407 638.746 -142.884L531.534 -263.383C531.498 -263.424 531.43 -263.398 531.43 -263.343V-263.343C531.43 -263.288 531.362 -263.263 531.326 -263.304L390.088 -422.056C338.959 -479.542 338.959 -572.774 390.088 -630.259L531.43 -789.129L537.499 -795.818L677.277 -956.465C727.855 -1014.58 809.882 -1014.58 860.46 -956.465L1000.12 -795.957C1000.16 -795.903 1000.13 -795.818 1000.05 -795.818V-795.818C999.982 -795.818 999.944 -795.734 999.991 -795.68L1105.72 -674.158C1137.72 -637.367 1189.67 -637.367 1221.77 -674.158L1327.92 -796.167C1327.96 -796.211 1328.01 -796.237 1328.07 -796.237V-796.237C1328.13 -796.237 1328.19 -796.262 1328.23 -796.306L1467.58 -956.465C1518.15 -1014.58 1600.18 -1014.58 1650.76 -956.465L1790.54 -795.818L1795.87 -790.279L1937.21 -631.409C1988.34 -573.923 1988.34 -480.692 1937.21 -423.206L1795.9 -264.375C1795.89 -264.362 1795.87 -264.37 1795.87 -264.388V-264.388Z" stroke="url(#paint30_linear_1873_55415)" stroke-width="1.75" stroke-miterlimit="10" stroke-linecap="round"/>
<path d="M1795.87 -264.388C1795.87 -264.407 1795.85 -264.415 1795.84 -264.402L1688.46 -143.72C1656.09 -107.348 1656.09 -48.2941 1688.46 -11.8167L1795.67 108.682C1795.71 108.723 1795.78 108.697 1795.78 108.642V108.642C1795.78 108.587 1795.85 108.562 1795.88 108.602L1937.12 267.355C1988.25 324.841 1988.25 418.072 1937.12 475.558L1795.78 634.428L1789.71 641.117L1649.93 801.764C1599.35 859.877 1517.33 859.877 1466.75 801.764L1327.09 641.256C1327.04 641.202 1327.08 641.117 1327.15 641.117V641.117C1327.23 641.117 1327.26 641.033 1327.22 640.979L1221.49 519.456C1189.49 482.666 1137.53 482.666 1105.44 519.456L999.379 641.361C999.341 641.406 999.285 641.431 999.227 641.431V641.431C999.168 641.431 999.113 641.456 999.074 641.5L859.632 801.659C809.055 859.772 727.027 859.772 676.45 801.659L536.671 641.013L531.338 635.473L389.996 476.603C338.867 419.118 338.867 325.886 389.996 268.4L531.43 109.74L638.746 -10.9806C671.116 -47.3534 671.116 -106.407 638.746 -142.884L531.534 -263.383C531.498 -263.424 531.43 -263.398 531.43 -263.343V-263.343C531.43 -263.288 531.362 -263.263 531.326 -263.304L390.088 -422.056C338.959 -479.542 338.959 -572.774 390.088 -630.259L531.43 -789.129L537.499 -795.818L677.277 -956.465C727.855 -1014.58 809.882 -1014.58 860.46 -956.465L1000.12 -795.957C1000.16 -795.903 1000.13 -795.818 1000.05 -795.818V-795.818C999.982 -795.818 999.944 -795.734 999.991 -795.68L1105.72 -674.158C1137.72 -637.367 1189.67 -637.367 1221.77 -674.158L1327.92 -796.167C1327.96 -796.211 1328.01 -796.237 1328.07 -796.237V-796.237C1328.13 -796.237 1328.19 -796.262 1328.23 -796.306L1467.58 -956.465C1518.15 -1014.58 1600.18 -1014.58 1650.76 -956.465L1790.54 -795.818L1795.87 -790.279L1937.21 -631.409C1988.34 -573.923 1988.34 -480.692 1937.21 -423.206L1795.9 -264.375C1795.89 -264.362 1795.87 -264.37 1795.87 -264.388V-264.388Z" stroke="url(#paint31_linear_1873_55415)" stroke-width="1.75" stroke-miterlimit="10" stroke-linecap="round"/>
<path d="M1789.29 -262.401C1789.27 -262.47 1789.19 -262.489 1789.14 -262.436L1683.04 -143.092C1650.94 -107.033 1650.94 -48.6066 1683.04 -12.5474L1789.14 106.697C1789.18 106.738 1789.25 106.712 1789.25 106.657V106.657C1789.25 106.602 1789.32 106.577 1789.35 106.618L1929.12 263.698C1979.79 320.557 1979.79 412.847 1929.12 469.811L1789.25 627.008L1783.27 633.593L1644.96 792.567C1594.94 850.157 1513.74 850.157 1463.62 792.567L1325.43 633.732C1325.39 633.677 1325.43 633.593 1325.5 633.593V633.593C1325.57 633.593 1325.61 633.508 1325.56 633.454L1220.94 513.186C1189.21 476.709 1137.81 476.709 1106.08 513.186L1001.03 633.837C1001 633.881 1000.94 633.906 1000.88 633.906V633.906C1000.82 633.906 1000.77 633.932 1000.73 633.976L862.758 792.463C812.733 850.053 731.533 850.053 681.415 792.463L543.108 633.488L537.774 627.949L397.996 470.856C347.327 413.997 347.327 321.706 397.996 264.743L537.958 107.755L644.171 -11.7112C676.265 -47.7705 676.265 -106.197 644.171 -142.256L538.063 -261.5C538.026 -261.541 537.958 -261.516 537.958 -261.461V-261.461C537.958 -261.406 537.891 -261.38 537.854 -261.421L398.088 -418.502C347.419 -475.36 347.419 -567.651 398.088 -624.614L537.958 -781.812L543.936 -788.396L682.242 -947.371C732.268 -1004.96 813.468 -1004.96 863.586 -947.371L1001.77 -788.431C1001.82 -788.376 1001.78 -788.292 1001.71 -788.292V-788.292C1001.64 -788.292 1001.6 -788.207 1001.65 -788.153L1106.27 -667.885C1137.99 -631.408 1189.4 -631.408 1221.12 -667.885L1326.17 -788.536C1326.21 -788.58 1326.27 -788.605 1326.33 -788.605V-788.605C1326.38 -788.605 1326.44 -788.631 1326.48 -788.675L1464.45 -947.162C1514.47 -1004.75 1595.67 -1004.75 1645.79 -947.162L1784.1 -788.187L1789.43 -782.648L1929.21 -625.555C1979.88 -568.696 1979.88 -476.405 1929.21 -419.442L1789.45 -262.367C1789.4 -262.314 1789.31 -262.333 1789.29 -262.401V-262.401Z" stroke="url(#paint32_linear_1873_55415)" stroke-width="1.75" stroke-miterlimit="10" stroke-linecap="round"/>
<path d="M1789.29 -262.401C1789.27 -262.47 1789.19 -262.489 1789.14 -262.436L1683.04 -143.092C1650.94 -107.033 1650.94 -48.6066 1683.04 -12.5474L1789.14 106.697C1789.18 106.738 1789.25 106.712 1789.25 106.657V106.657C1789.25 106.602 1789.32 106.577 1789.35 106.618L1929.12 263.698C1979.79 320.557 1979.79 412.847 1929.12 469.811L1789.25 627.008L1783.27 633.593L1644.96 792.567C1594.94 850.157 1513.74 850.157 1463.62 792.567L1325.43 633.732C1325.39 633.677 1325.43 633.593 1325.5 633.593V633.593C1325.57 633.593 1325.61 633.508 1325.56 633.454L1220.94 513.186C1189.21 476.709 1137.81 476.709 1106.08 513.186L1001.03 633.837C1001 633.881 1000.94 633.906 1000.88 633.906V633.906C1000.82 633.906 1000.77 633.932 1000.73 633.976L862.758 792.463C812.733 850.053 731.533 850.053 681.415 792.463L543.108 633.488L537.774 627.949L397.996 470.856C347.327 413.997 347.327 321.706 397.996 264.743L537.958 107.755L644.171 -11.7112C676.265 -47.7705 676.265 -106.197 644.171 -142.256L538.063 -261.5C538.026 -261.541 537.958 -261.516 537.958 -261.461V-261.461C537.958 -261.406 537.891 -261.38 537.854 -261.421L398.088 -418.502C347.419 -475.36 347.419 -567.651 398.088 -624.614L537.958 -781.812L543.936 -788.396L682.242 -947.371C732.268 -1004.96 813.468 -1004.96 863.586 -947.371L1001.77 -788.431C1001.82 -788.376 1001.78 -788.292 1001.71 -788.292V-788.292C1001.64 -788.292 1001.6 -788.207 1001.65 -788.153L1106.27 -667.885C1137.99 -631.408 1189.4 -631.408 1221.12 -667.885L1326.17 -788.536C1326.21 -788.58 1326.27 -788.605 1326.33 -788.605V-788.605C1326.38 -788.605 1326.44 -788.631 1326.48 -788.675L1464.45 -947.162C1514.47 -1004.75 1595.67 -1004.75 1645.79 -947.162L1784.1 -788.187L1789.43 -782.648L1929.21 -625.555C1979.88 -568.696 1979.88 -476.405 1929.21 -419.442L1789.45 -262.367C1789.4 -262.314 1789.31 -262.333 1789.29 -262.401V-262.401Z" stroke="url(#paint33_linear_1873_55415)" stroke-width="1.75" stroke-miterlimit="10" stroke-linecap="round"/>
</g>
<defs>
<linearGradient id="paint0_linear_1873_55415" x1="1163.83" y1="995.981" x2="1163.83" y2="-1150.92" gradientUnits="userSpaceOnUse">
<stop stop-color="#2DCF78"/>
</linearGradient>
<linearGradient id="paint1_linear_1873_55415" x1="1163.83" y1="995.981" x2="1163.83" y2="-1150.92" gradientUnits="userSpaceOnUse">
<stop stop-color="#2DCF78"/>
</linearGradient>
<linearGradient id="paint2_linear_1873_55415" x1="1163.92" y1="986.355" x2="1163.92" y2="-1141.09" gradientUnits="userSpaceOnUse">
<stop stop-color="#2DCF78"/>
</linearGradient>
<linearGradient id="paint3_linear_1873_55415" x1="1163.92" y1="986.355" x2="1163.92" y2="-1141.09" gradientUnits="userSpaceOnUse">
<stop stop-color="#2DCF78"/>
</linearGradient>
<linearGradient id="paint4_linear_1873_55415" x1="1163.87" y1="976.705" x2="1163.87" y2="-1131.44" gradientUnits="userSpaceOnUse">
<stop stop-color="#2DCF78"/>
</linearGradient>
<linearGradient id="paint5_linear_1873_55415" x1="1163.87" y1="976.705" x2="1163.87" y2="-1131.44" gradientUnits="userSpaceOnUse">
<stop stop-color="#2DCF78"/>
</linearGradient>
<linearGradient id="paint6_linear_1873_55415" x1="1163.82" y1="967.078" x2="1163.82" y2="-1121.92" gradientUnits="userSpaceOnUse">
<stop stop-color="#2DCF78"/>
</linearGradient>
<linearGradient id="paint7_linear_1873_55415" x1="1163.82" y1="967.078" x2="1163.82" y2="-1121.92" gradientUnits="userSpaceOnUse">
<stop stop-color="#2DCF78"/>
</linearGradient>
<linearGradient id="paint8_linear_1873_55415" x1="1163.96" y1="957.454" x2="1163.96" y2="-1112.29" gradientUnits="userSpaceOnUse">
<stop stop-color="#2DCF78"/>
</linearGradient>
<linearGradient id="paint9_linear_1873_55415" x1="1163.96" y1="957.454" x2="1163.96" y2="-1112.29" gradientUnits="userSpaceOnUse">
<stop stop-color="#2DCF78"/>
</linearGradient>
<linearGradient id="paint10_linear_1873_55415" x1="1163.91" y1="947.724" x2="1163.91" y2="-1102.56" gradientUnits="userSpaceOnUse">
<stop stop-color="#2DCF78"/>
</linearGradient>
<linearGradient id="paint11_linear_1873_55415" x1="1163.91" y1="947.724" x2="1163.91" y2="-1102.56" gradientUnits="userSpaceOnUse">
<stop stop-color="#2DCF78"/>
</linearGradient>
<linearGradient id="paint12_linear_1873_55415" x1="1163.86" y1="938.098" x2="1163.86" y2="-1092.93" gradientUnits="userSpaceOnUse">
<stop stop-color="#2DCF78"/>
</linearGradient>
<linearGradient id="paint13_linear_1873_55415" x1="1163.86" y1="938.098" x2="1163.86" y2="-1092.93" gradientUnits="userSpaceOnUse">
<stop stop-color="#2DCF78"/>
</linearGradient>
<linearGradient id="paint14_linear_1873_55415" x1="1163.81" y1="928.447" x2="1163.81" y2="-1083.28" gradientUnits="userSpaceOnUse">
<stop stop-color="#2DCF78"/>
</linearGradient>
<linearGradient id="paint15_linear_1873_55415" x1="1163.81" y1="928.447" x2="1163.81" y2="-1083.28" gradientUnits="userSpaceOnUse">
<stop stop-color="#2DCF78"/>
</linearGradient>
<linearGradient id="paint16_linear_1873_55415" x1="1163.86" y1="918.821" x2="1163.86" y2="-1073.66" gradientUnits="userSpaceOnUse">
<stop stop-color="#2DCF78"/>
</linearGradient>
<linearGradient id="paint17_linear_1873_55415" x1="1163.86" y1="918.821" x2="1163.86" y2="-1073.66" gradientUnits="userSpaceOnUse">
<stop stop-color="#2DCF78"/>
</linearGradient>
<linearGradient id="paint18_linear_1873_55415" x1="1163.81" y1="909.301" x2="1163.81" y2="-1063.93" gradientUnits="userSpaceOnUse">
<stop stop-color="#2DCF78"/>
</linearGradient>
<linearGradient id="paint19_linear_1873_55415" x1="1163.81" y1="909.301" x2="1163.81" y2="-1063.93" gradientUnits="userSpaceOnUse">
<stop stop-color="#2DCF78"/>
</linearGradient>
<linearGradient id="paint20_linear_1873_55415" x1="1163.81" y1="899.464" x2="1163.81" y2="-1054.3" gradientUnits="userSpaceOnUse">
<stop stop-color="#2DCF78"/>
</linearGradient>
<linearGradient id="paint21_linear_1873_55415" x1="1163.81" y1="899.464" x2="1163.81" y2="-1054.3" gradientUnits="userSpaceOnUse">
<stop stop-color="#2DCF78"/>
</linearGradient>
<linearGradient id="paint22_linear_1873_55415" x1="1163.86" y1="889.838" x2="1163.86" y2="-1044.57" gradientUnits="userSpaceOnUse">
<stop stop-color="#2DCF78"/>
</linearGradient>
<linearGradient id="paint23_linear_1873_55415" x1="1163.86" y1="889.838" x2="1163.86" y2="-1044.57" gradientUnits="userSpaceOnUse">
<stop stop-color="#2DCF78"/>
</linearGradient>
<linearGradient id="paint24_linear_1873_55415" x1="1163.85" y1="880.294" x2="1163.85" y2="-1035.02" gradientUnits="userSpaceOnUse">
<stop stop-color="#2DCF78"/>
</linearGradient>
<linearGradient id="paint25_linear_1873_55415" x1="1163.85" y1="880.294" x2="1163.85" y2="-1035.02" gradientUnits="userSpaceOnUse">
<stop stop-color="#2DCF78"/>
</linearGradient>
<linearGradient id="paint26_linear_1873_55415" x1="1163.75" y1="870.562" x2="1163.75" y2="-1025.29" gradientUnits="userSpaceOnUse">
<stop stop-color="#2DCF78"/>
</linearGradient>
<linearGradient id="paint27_linear_1873_55415" x1="1163.75" y1="870.562" x2="1163.75" y2="-1025.29" gradientUnits="userSpaceOnUse">
<stop stop-color="#2DCF78"/>
</linearGradient>
<linearGradient id="paint28_linear_1873_55415" x1="1163.8" y1="860.938" x2="1163.8" y2="-1015.66" gradientUnits="userSpaceOnUse">
<stop stop-color="#2DCF78"/>
</linearGradient>
<linearGradient id="paint29_linear_1873_55415" x1="1163.8" y1="860.938" x2="1163.8" y2="-1015.66" gradientUnits="userSpaceOnUse">
<stop stop-color="#2DCF78"/>
</linearGradient>
<linearGradient id="paint30_linear_1873_55415" x1="1163.8" y1="851.312" x2="1163.8" y2="-1006.04" gradientUnits="userSpaceOnUse">
<stop stop-color="#2DCF78"/>
</linearGradient>
<linearGradient id="paint31_linear_1873_55415" x1="1163.8" y1="851.312" x2="1163.8" y2="-1006.04" gradientUnits="userSpaceOnUse">
<stop stop-color="#2DCF78"/>
</linearGradient>
<linearGradient id="paint32_linear_1873_55415" x1="1163.79" y1="841.661" x2="1163.79" y2="-996.492" gradientUnits="userSpaceOnUse">
<stop stop-color="#2DCF78"/>
</linearGradient>
<linearGradient id="paint33_linear_1873_55415" x1="1163.79" y1="841.661" x2="1163.79" y2="-996.492" gradientUnits="userSpaceOnUse">
<stop stop-color="#2DCF78"/>
</linearGradient>
</defs>
</svg>
