<svg width="102" height="32" viewBox="0 0 102 32" fill="none" xmlns="http://www.w3.org/2000/svg">
<g clip-path="url(#clip0)">
<path d="M101.682 11.8204C101.094 9.6 96.5224 4.50612 93.1918 0.391837C93.1265 0.326531 92.9306 0 92.5387 0C92.2122 0 91.951 0.326531 92.0816 0.587755C92.2122 0.84898 95.4122 7.5102 94.8245 9.66531C94.2367 11.8857 91.2979 11.4286 90.8408 11.4286C90.5796 11.4286 90.7755 11.6245 91.0367 11.8857C92.6694 13.3224 93.7143 15.3469 93.7143 17.9592V19.9184C93.7143 19.9837 93.7143 19.9837 93.7796 19.9837C97.502 19.6571 103.184 17.3714 101.682 11.8204ZM87.249 24.6857C87.249 26.5796 84.702 27.6245 83.0694 27.6245C81.3061 27.6245 78.8245 26.5796 78.8245 24.6857V18.0245C78.8245 16.1306 81.3061 15.2816 83.0694 15.2816C84.702 15.2816 87.249 16.1959 87.249 18.0245V24.6857ZM83.0694 11.102C79.151 11.1673 74.5796 13.3878 74.5796 17.9592V24.9469C74.5796 29.5837 79.151 31.8041 83.0694 31.8041C86.9224 31.7388 91.4939 29.5837 91.4939 24.9469V18.0245C91.4939 13.4531 86.9224 11.1673 83.0694 11.102ZM57.7306 24.6857C57.7306 26.5796 55.1837 27.6245 53.551 27.6245C51.7877 27.6245 49.3061 26.5796 49.3061 24.6857V18.0245C49.3061 16.1306 51.7877 15.2816 53.551 15.2816C55.1837 15.2816 57.7306 16.1959 57.7306 18.0245V24.6857ZM53.4857 11.102C49.5673 11.1673 44.9959 13.3878 44.9959 17.9592V24.9469C44.9959 29.5837 49.5673 31.8041 53.4857 31.8041C57.3388 31.7388 61.9102 29.5837 61.9102 24.9469V18.0245C61.9102 13.4531 57.3388 11.1673 53.4857 11.102ZM10.9061 11.8857C11.1673 11.6245 11.3632 11.4286 11.102 11.4286C10.6449 11.4286 7.7061 11.8857 7.11835 9.66531C6.53059 7.4449 9.73059 0.84898 9.86121 0.587755C9.92651 0.326531 9.73059 0 9.33876 0C9.01223 0 8.751 0.391837 8.6857 0.391837C5.42039 4.50612 0.783655 9.6 0.1959 11.8204C-1.30614 17.3714 4.5061 19.6571 8.16325 20.049C8.22855 20.049 8.22855 19.9837 8.22855 19.9837V18.0245C8.29386 15.3469 9.27345 13.3224 10.9061 11.8857ZM44.7347 12.6694C41.6 11.8204 39.3143 11.4939 35.9184 11.4939C32.5877 11.4939 30.2367 11.8204 27.102 12.6694C26.9714 12.7347 26.9061 12.8653 26.9714 12.9306C28.0163 13.8449 28.4735 15.0204 28.6694 16.3265C30.3673 15.9347 31.9347 15.6735 33.7632 15.5429V31.6735C33.7632 31.7388 33.8286 31.7388 33.8939 31.7388H37.9428C38.0081 31.7388 38.0735 31.7388 38.0735 31.6735V15.5429C39.8367 15.6735 41.2734 15.8694 42.9714 16.3265C43.2326 15.0204 43.7551 13.7796 44.8653 12.9306C44.8653 12.8 44.8 12.6694 44.7347 12.6694ZM74.7102 11.298C74.3837 11.2327 73.5347 11.102 72.751 11.1673C68.8979 11.298 64.5224 13.5837 64.5224 18.0245V31.8041C64.5224 31.8694 64.5877 31.8694 64.653 31.8694H68.702C68.7673 31.8694 68.8326 31.8694 68.8326 31.8041V18.0245C68.8326 16.5224 70.6612 15.6735 72.1632 15.3469C72.6204 13.9102 73.4694 12.8 74.7755 11.7551C74.9714 11.5592 74.9061 11.298 74.7102 11.298ZM22.5959 19.2C22.5959 19.2653 22.5959 19.2653 22.5306 19.3306C22.5306 19.3959 22.4653 19.3959 22.4 19.3959H14.6939V18.0245C14.6939 16.1306 16.9796 15.2163 18.7428 15.2163C20.4408 15.2163 22.5959 16.1306 22.5959 18.0245V19.2ZM18.7428 10.9714C14.7592 11.0367 10.3837 13.3224 10.3837 17.9592V25.0122C10.3837 29.7143 14.7592 31.9347 18.7428 32C21.6163 32 24.8163 30.8245 26.3837 28.2775C26.449 28.2122 26.3837 28.0816 26.3183 28.0163C24.9469 27.2327 24.1632 26.7755 22.7918 26.0571C22.7265 26.0571 22.7265 26.0571 22.6612 26.1224C21.9428 27.3633 20.049 28.0163 18.7428 28.0163C16.9796 28.0163 14.6939 26.9061 14.6939 25.0122V22.9224H25.7306C26.3183 22.9224 26.7755 22.4653 26.7755 21.8776V18.0245C26.7755 13.3224 22.6612 11.0367 18.7428 10.9714Z" fill="#6AAE22"/>
</g>
<defs>
<clipPath id="clip0">
<rect width="101.878" height="32" fill="white"/>
</clipPath>
</defs>
</svg>
