<?xml version="1.0" encoding="utf-8"?>
<!-- Generator: Adobe Illustrator 16.0.0, SVG Export Plug-In . SVG Version: 6.00 Build 0)  -->
<!DOCTYPE svg PUBLIC "-//W3C//DTD SVG 1.1//EN" "http://www.w3.org/Graphics/SVG/1.1/DTD/svg11.dtd">
<svg version="1.1" id="Layer_1" xmlns="http://www.w3.org/2000/svg" xmlns:xlink="http://www.w3.org/1999/xlink" x="0px" y="0px"
	 width="548.611px" height="81.808px" viewBox="34.562 356.156 548.611 81.808"
	 enable-background="new 34.562 356.156 548.611 81.808" xml:space="preserve">
<metadata><?xpacket begin="﻿" id="W5M0MpCehiHzreSzNTczkc9d"?>
<x:xmpmeta xmlns:x="adobe:ns:meta/" x:xmptk="Adobe XMP Core 5.3-c011 66.145661, 2012/02/06-14:56:27        ">
   <rdf:RDF xmlns:rdf="http://www.w3.org/1999/02/22-rdf-syntax-ns#">
      <rdf:Description rdf:about=""
            xmlns:xmp="http://ns.adobe.com/xap/1.0/"
            xmlns:xmpGImg="http://ns.adobe.com/xap/1.0/g/img/">
         <xmp:CreatorTool>Adobe Illustrator CS6 (Windows)</xmp:CreatorTool>
         <xmp:CreateDate>2018-05-11T11:37:33+02:00</xmp:CreateDate>
         <xmp:Thumbnails>
            <rdf:Alt>
               <rdf:li rdf:parseType="Resource">
                  <xmpGImg:width>256</xmpGImg:width>
                  <xmpGImg:height>40</xmpGImg:height>
                  <xmpGImg:format>JPEG</xmpGImg:format>
                  <xmpGImg:image>/9j/4AAQSkZJRgABAgEASABIAAD/7QAsUGhvdG9zaG9wIDMuMAA4QklNA+0AAAAAABAASAAAAAEA&#xA;AQBIAAAAAQAB/+4ADkFkb2JlAGTAAAAAAf/bAIQABgQEBAUEBgUFBgkGBQYJCwgGBggLDAoKCwoK&#xA;DBAMDAwMDAwQDA4PEA8ODBMTFBQTExwbGxscHx8fHx8fHx8fHwEHBwcNDA0YEBAYGhURFRofHx8f&#xA;Hx8fHx8fHx8fHx8fHx8fHx8fHx8fHx8fHx8fHx8fHx8fHx8fHx8fHx8fHx8f/8AAEQgAKAEAAwER&#xA;AAIRAQMRAf/EAaIAAAAHAQEBAQEAAAAAAAAAAAQFAwIGAQAHCAkKCwEAAgIDAQEBAQEAAAAAAAAA&#xA;AQACAwQFBgcICQoLEAACAQMDAgQCBgcDBAIGAnMBAgMRBAAFIRIxQVEGE2EicYEUMpGhBxWxQiPB&#xA;UtHhMxZi8CRygvElQzRTkqKyY3PCNUQnk6OzNhdUZHTD0uIIJoMJChgZhJRFRqS0VtNVKBry4/PE&#xA;1OT0ZXWFlaW1xdXl9WZ2hpamtsbW5vY3R1dnd4eXp7fH1+f3OEhYaHiImKi4yNjo+Ck5SVlpeYmZ&#xA;qbnJ2en5KjpKWmp6ipqqusra6voRAAICAQIDBQUEBQYECAMDbQEAAhEDBCESMUEFURNhIgZxgZEy&#xA;obHwFMHR4SNCFVJicvEzJDRDghaSUyWiY7LCB3PSNeJEgxdUkwgJChgZJjZFGidkdFU38qOzwygp&#xA;0+PzhJSktMTU5PRldYWVpbXF1eX1RlZmdoaWprbG1ub2R1dnd4eXp7fH1+f3OEhYaHiImKi4yNjo&#xA;+DlJWWl5iZmpucnZ6fkqOkpaanqKmqq6ytrq+v/aAAwDAQACEQMRAD8A9RqbplBqgqK9D/XFV1tK&#xA;0sXJgAwZ0NOnwOV/hiqpiqir3Dl+PAKrFRWpO2KuEkqSKsoXi+wZa7N1ANfHFV08pjUcRykc8Y16&#xA;VJ/gBucVa/0rxT7j/XFW7eVpI+TABgzKadPgYr/DFW55fSiZwKsNlXpViaKK+5OKupN/Mv8AwJ/5&#xA;qxV0UhbkGFHRuLU6eII+g4qoapNqEOnXE2nQLdXsaFre2d/TWRhvw50NK9BgldbM8YiZASNB5Efz&#xA;61tSVby8isDRlM7AgjqCCmaw9okfw/a9MPZ6BFjJ9n7Wf+RPPVt5o0mW6kh+pXtq3G8tS3PiDUo6&#xA;tQEqwHh1BHvmbp84yRt0vaGhOnnw3cTyLIla6ZQ1ESu4U1JA96d8vcBQnub5BJ6USTGPjUDkKkno&#xA;OvQb4qrWc808HqTQmB6kemxqaA9fpxVKtT/5SrRv9W4/5NnFU8xV2KuxV2KuxV2KuxV2KuxV2Kux&#xA;V2KuxV2KrY/7tfkP1YqpWX9y3/GWb/k62Kq+KqVv0k/12/Xiq6VYpEaNjQHvXcHsR7jFVGAOXMs7&#xA;L6gHBADtTu3+yI6fLFUTUYqoWf8Act/xll/5ONirb/vLpE/ZiHNvdmqq/wAfwxVVLqGCEjkQSF7k&#xA;ClT+OKqb/BOkn7Lj03/WpP4j6cVVcVeeeb/JFo2rjUIYwsN+9JgBQLcN0bbakv8AxPxL5hZ9OCbD&#xA;udFr5CHCTy+79n3e5j8g0ryvcrqS6jbQXMA3gaVeUqVDNHwB5GpUEeDAHK4R8M3bmTE9THh4SfOu&#xA;T0qx8yW+q2dtNpZEpu1DRualVUgEuRsaAHvTfbY5sAbFvOTgYSMTzCbxRLFGEXoO56knck+5O+Fi&#xA;uxVI9T/5SrRv9W4/5NnFU8xV2KuxV2KuxV2KuxV2KuxV2KuxV2KuxV2KpdHqLvDGyKFDKDvudxir&#xA;tNvrcWp9WeNZPVm5AsoP963bFUYt5aMwVZ42Y7ABlJP44qlVT9Zuv+Mp/wCIriqhJJNHdFya2vFE&#xA;f/Idmbi3yb7J+jFV15JKImSD+/ZWZSdwqqKs5+X66YqqxEmNDXeg3+jFUbpThdNR2NAOZZj4B2qc&#xA;VQlpd3BVpq8fXYycSBspoEB9+AFcVWPdXZlaUxsZUdRARx4+n+3X4ganke3YYqrXFxcywsiuFYj4&#xA;GoNmG4P0HFUfZ3C3NtHOBTmPiX+Vhsy/QdsVYF+dXnOz0TyvNpaiObUtYjaCOB/i4QsOMkzL7dE/&#xA;yvkcx9RkEY11Lt+x9FLNlB5Rjv8AsfNVvbz3E8VvbxtLPMyxxRKKszsaKoHiSc1YFmnu8mQQiZHk&#xA;H03+W+iy+V9DtLS4kEqyCk0m54O7FvgJ6R8mIp/stiWzcYocMafONdqfHymdVbPcscR2KpHqf/KV&#xA;aN/q3H/Js4qnmKuxV2KuxV2KuxV2KuxV2KuxV2KuxV2KuxVjltfWQtogbiMEItRzXw+eKrjdaaTU&#xA;zQkn/KT+uKrWnsXeBYpImkM8NApUn+9XwxVUkurWO8u1kmRG9X7LMAfsr4nFUVp31a7N0nJZoXRE&#xA;fiQw351G3zxVcmn/AFSxuy8hmlaNl9Qih4Kp4j+JPc4qgYr6xEaf6RF9kftr4fPFV0l3AmjW0DSK&#xA;q3bOpYsADGGLP18R8P04q09/bcaRSxyytRY41cEsxNFG3icVR36PvP54/ubFUG11FFJJDcyRxTRs&#xA;VZSwFR1UiviCMVUG8y6Ro1nqF3eXKCyt4zdEowY9QjIor1ZyvEdy2CUgBZbMWIzkIx5l8webPM2o&#xA;eZdeudXvSQ87UihrVYol2SNemyj7zU981GWRmbfQtDgx4MYgCPP3vT/yV/LZ7izl8zagvB5FaPR0&#xA;fp4PMw/lbdB7cvY5l6XDXqLz/b3aHEfCidhz/U9U+uWjIY53SJ90lgkZQQehUg5mvMo/R9RhmDWn&#xA;rLLLCAVYMGLR9ATTuOh+/viqZYqkep/8pVo3+rcf8mziqeYq7FXYq7FXYq7FXYq7FXYq7FXYq7FX&#xA;Yq7FXYq7FXYq7FXYq7FXYq7FXYq7FXYq7FXYq7FXYq7FXYqll5p1xNrenXqFfRtRKJan4v3icRQU&#xA;xVM8VdirsVdirsVdirsVdirsVdirsVdirsVdir//2Q==</xmpGImg:image>
               </rdf:li>
            </rdf:Alt>
         </xmp:Thumbnails>
      </rdf:Description>
      <rdf:Description rdf:about=""
            xmlns:xmpTPg="http://ns.adobe.com/xap/1.0/t/pg/"
            xmlns:stDim="http://ns.adobe.com/xap/1.0/sType/Dimensions#"
            xmlns:xmpG="http://ns.adobe.com/xap/1.0/g/">
         <xmpTPg:MaxPageSize rdf:parseType="Resource">
            <stDim:w>548.611328</stDim:w>
            <stDim:h>81.808105</stDim:h>
            <stDim:unit>Points</stDim:unit>
         </xmpTPg:MaxPageSize>
         <xmpTPg:NPages>1</xmpTPg:NPages>
         <xmpTPg:HasVisibleTransparency>False</xmpTPg:HasVisibleTransparency>
         <xmpTPg:HasVisibleOverprint>False</xmpTPg:HasVisibleOverprint>
         <xmpTPg:PlateNames>
            <rdf:Seq>
               <rdf:li>Cyan</rdf:li>
               <rdf:li>Magenta</rdf:li>
               <rdf:li>Yellow</rdf:li>
               <rdf:li>Black</rdf:li>
            </rdf:Seq>
         </xmpTPg:PlateNames>
         <xmpTPg:SwatchGroups>
            <rdf:Seq>
               <rdf:li rdf:parseType="Resource">
                  <xmpG:groupName>Default Swatch Group</xmpG:groupName>
                  <xmpG:groupType>0</xmpG:groupType>
               </rdf:li>
            </rdf:Seq>
         </xmpTPg:SwatchGroups>
      </rdf:Description>
      <rdf:Description rdf:about=""
            xmlns:dc="http://purl.org/dc/elements/1.1/">
         <dc:format>image/svg+xml</dc:format>
      </rdf:Description>
   </rdf:RDF>
</x:xmpmeta>
                                                                                                    
                                                                                                    
                                                                                                    
                                                                                                    
                                                                                                    
                                                                                                    
                                                                                                    
                                                                                                    
                                                                                                    
                                                                                                    
                                                                                                    
                                                                                                    
                                                                                                    
                                                                                                    
                                                                                                    
                                                                                                    
                                                                                                    
                                                                                                    
                                                                                                    
                                                                                                    
                           
<?xpacket end="w"?>
	</metadata>
<g>
	<g>
		<g>
			<polygon fill="#B3B2B2" points="304.867,365.362 303.057,365.362 303.057,364.607 307.434,364.607 307.434,365.362 
				305.622,365.362 305.622,370.192 304.867,370.192 			"/>
			<polygon fill="#B3B2B2" points="308.037,364.607 309.094,364.607 310.905,369.286 312.716,364.607 313.621,364.607 
				313.621,370.192 313.018,370.192 313.018,365.664 313.018,365.664 311.206,370.192 310.603,370.192 308.792,365.664 
				308.792,365.664 308.792,370.192 308.037,370.192 			"/>
		</g>
	</g>
	<path fill="#B3B2B2" d="M334.449,356.156h4.074v79.538h-4.074V356.156z"/>
	<g>
		<path fill="#FFFFFF" d="M366.294,365.061h19.771c18.715,0,31.543,12.829,31.543,29.43v0.151c0,16.753-12.828,29.732-31.543,29.732
			h-19.771V365.061L366.294,365.061z M370.671,368.984v51.164h15.395c16.45,0,27.016-11.32,27.016-25.356v-0.151
			c0-14.036-10.414-25.657-27.016-25.657H370.671z"/>
		<path fill="#FFFFFF" d="M424.853,364.155h5.132v5.735h-5.132V364.155z M425.456,381.059h4.227v43.164h-4.227V381.059z"/>
		<path fill="#FFFFFF" d="M439.946,431.468l2.415-3.321c5.131,3.925,11.168,6.037,17.507,6.037c9.961,0,16.903-5.734,16.903-16.752
			v-6.34c-3.772,5.283-9.508,9.962-18.11,9.962c-10.414,0-20.828-7.999-20.828-20.375v-0.151c0-12.526,10.414-20.525,20.828-20.525
			c8.603,0,14.488,4.528,18.11,9.659v-8.603h4.227v36.523c0,6.339-1.962,11.169-5.434,14.64c-3.773,3.773-9.357,5.735-15.696,5.735
			C452.623,438.108,445.983,435.844,439.946,431.468z M477.073,400.679v-0.151c0-9.96-8.905-16.45-17.81-16.45
			c-9.056,0-16.753,6.339-16.753,16.3v0.15c0,9.811,7.849,16.451,16.753,16.451C468.168,417.129,477.073,410.488,477.073,400.679z"
			/>
		<path fill="#FFFFFF" d="M490.053,364.155h5.131v5.735h-5.131V364.155z M490.505,381.059h4.226v43.164h-4.226V381.059z"/>
		<path fill="#FFFFFF" d="M508.315,413.205v-28.374h-6.339v-3.773h6.339v-13.885h4.226v13.885h15.243v3.773H512.54v27.92
			c0,6.188,3.622,8.452,8.603,8.452c2.113,0,3.924-0.452,6.339-1.509v3.924c-2.264,1.057-4.377,1.51-7.093,1.51
			C513.747,425.129,508.315,421.506,508.315,413.205z"/>
		<path fill="#FFFFFF" d="M531.255,411.696v-0.151c0-9.055,7.697-14.035,18.865-14.035c6.037,0,10.112,0.754,14.338,1.811v-1.811
			c0-8.754-5.282-13.282-14.187-13.282c-5.282,0-9.509,1.509-13.583,3.471l-1.51-3.622c4.679-2.264,9.357-3.773,15.395-3.773
			c5.886,0,10.564,1.66,13.583,4.679c2.868,2.868,4.377,6.792,4.377,12.225v27.016h-4.075v-7.244
			c-3.019,4.226-8.301,8.15-16.45,8.15C539.858,425.279,531.255,420.752,531.255,411.696z M564.61,408.074v-4.98
			c-3.622-0.906-8.452-1.963-14.64-1.963c-9.207,0-14.188,4.076-14.188,10.112v0.151c0,6.339,5.887,9.961,12.527,9.961
			C557.063,421.506,564.61,416.073,564.61,408.074z"/>
		<path fill="#FFFFFF" d="M578.948,362.495h4.226v61.879h-4.226V362.495z"/>
	</g>
	<g>
		<g>
			<polygon fill="#EDEDED" points="35.015,424.072 35.015,365.211 54.635,365.211 54.635,407.168 82.405,407.168 82.405,424.072 			
				"/>
			<path fill="#B2B2B2" d="M54.182,365.664v41.052v0.905h0.905h26.714v15.848H35.467v-57.805H54.182 M55.239,364.607H34.562v59.917
				h48.296v-17.809H55.239V364.607L55.239,364.607z"/>
		</g>
		<g>
			<polygon fill="#EDEDED" points="137.341,424.072 137.341,394.943 123.909,415.771 123.456,415.771 110.025,394.943 
				110.025,424.072 90.705,424.072 90.705,365.211 111.232,365.211 123.909,385.737 136.436,365.211 156.962,365.211 
				156.962,424.072 			"/>
			<path fill="#B2B2B2" d="M156.509,365.664v57.955h-18.715v-27.016v-3.169l-1.811,2.717l-12.226,19.017L111.382,396l-1.811-2.717
				v3.169v27.016H91.158v-57.805h19.771l12.074,19.771l0.754,1.358l0.755-1.358l12.074-19.771H156.509 M157.414,364.607h-21.28
				l-12.225,20.224l-12.376-20.224h-21.28v59.917h20.224v-27.921l12.678,19.771h0.905l12.678-19.771v27.921h20.526v-59.917H157.414z
				"/>
		</g>
		<g>
			<path fill="#EDEDED" d="M212.049,424.072l-3.169-7.848h-20.526l-3.019,7.848h-20.979l24.752-59.313h19.47l24.751,59.313H212.049z
				 M193.334,402.188h10.716l-5.282-14.187L193.334,402.188z"/>
			<path fill="#B2B2B2" d="M208.277,365.211l24.299,58.408h-20.225l-2.867-7.244l-0.302-0.604h-0.604h-19.923h-0.604l-0.302,0.604
				l-2.717,7.244h-20.072l24.449-58.408H208.277 M192.58,402.641h1.358h9.357h1.357l-0.452-1.358l-4.679-12.375l-0.905-2.415
				l-0.906,2.415l-4.679,12.375L192.58,402.641 M208.88,364.306h-20.225l-25.204,60.219h22.187l3.018-7.848h19.923l3.169,7.848
				h22.337L208.88,364.306L208.88,364.306z M194.089,401.735l4.679-12.376l4.679,12.376H194.089L194.089,401.735z"/>
		</g>
		<g>
			<polygon fill="#EDEDED" points="271.061,375.927 278.305,365.211 300.793,365.211 282.23,392.378 			"/>
			<path fill="#B2B2B2" d="M299.887,365.664l-17.657,25.959l-10.565-15.696l6.942-10.263H299.887 M301.698,364.607h-23.544
				l-7.547,11.168l11.772,17.356L301.698,364.607L301.698,364.607z"/>
		</g>
		<g>
			<polygon fill="#EDEDED" points="279.211,423.921 271.212,412.148 282.23,395.698 301.397,423.921 			"/>
			<path fill="#B2B2B2" d="M282.23,396.604l18.262,26.865h-20.979l-7.697-11.32L282.23,396.604 M282.23,394.943l-11.622,17.205
				l8.302,12.376h23.242L282.23,394.943L282.23,394.943z"/>
		</g>
		<g>
			<polygon fill="#CB2A27" points="236.952,424.072 257.326,394.038 237.858,365.211 260.195,365.211 279.663,394.038 
				259.288,424.072 			"/>
			<path fill="#9E2F2B" d="M259.893,365.664l19.167,28.223l-20.073,29.582h-21.129l19.62-28.978l0.453-0.604l-0.453-0.604
				l-18.715-27.77h21.13 M260.496,364.607h-23.544l19.922,29.28l-20.677,30.487h23.394l20.676-30.487L260.496,364.607
				L260.496,364.607z"/>
		</g>
		<g>
			
				<linearGradient id="SVGID_1_" gradientUnits="userSpaceOnUse" x1="164.4031" y1="737.6982" x2="164.4031" y2="753.9578" gradientTransform="matrix(1.5092 0 0 -1.5092 8.1447 1503.5956)">
				<stop  offset="0" style="stop-color:#FFFFFF"/>
				<stop  offset="0.9448" style="stop-color:#D83A16"/>
			</linearGradient>
			<path fill="url(#SVGID_1_)" d="M238.763,365.664h21.13l13.885,20.526c0,0-5.132,2.415-18.413,3.924L238.763,365.664z"/>
		</g>
		<path fill="#FFFFFF" d="M35.467,399.773c5.887-2.415,12.678-4.528,18.715-5.584v-28.525H35.467V399.773z"/>
		<path fill="#FFFFFF" d="M123.909,386.793l-12.829-21.129H91.31v25.205c24.299-3.019,48.296-1.962,65.199,0.151v-25.355h-19.62
			L123.909,386.793z"/>
		<path fill="#FFFFFF" d="M189.41,365.211l-11.923,28.525c5.132,0.905,10.564,1.056,17.81,1.811l3.471-9.207l3.472,9.207
			c6.339,0.151,11.47-0.453,18.262-1.509l-12.225-28.827H189.41z"/>
		<path fill="#FFFFFF" d="M278.607,365.664l-6.942,10.263l5.735,8.452c5.886-1.811,9.206-3.169,13.734-6.037l8.603-12.678H278.607z"
			/>
	</g>
</g>
</svg>
