<svg width="112" height="112" viewBox="0 0 112 112" fill="none" xmlns="http://www.w3.org/2000/svg">
<path d="M37.816 81.72C32.44 81.72 28.216 79.632 25.144 75.456C22.072 71.232 20.536 65.16 20.536 57.24C20.536 49.32 22.072 43.272 25.144 39.096C28.216 34.872 32.44 32.76 37.816 32.76C43.24 32.76 47.488 34.872 50.56 39.096C53.632 43.272 55.168 49.32 55.168 57.24C55.168 65.16 53.632 71.232 50.56 75.456C47.488 79.632 43.24 81.72 37.816 81.72ZM37.888 78.48C40.816 78.48 43.288 77.688 45.304 76.104C47.32 74.472 48.856 72.072 49.912 68.904C50.968 65.736 51.496 61.848 51.496 57.24C51.496 52.632 50.968 48.744 49.912 45.576C48.856 42.408 47.32 40.032 45.304 38.448C43.288 36.816 40.816 36 37.888 36C34.96 36 32.464 36.816 30.4 38.448C28.384 40.032 26.848 42.408 25.792 45.576C24.736 48.744 24.208 52.632 24.208 57.24C24.208 61.8 24.736 65.688 25.792 68.904C26.848 72.072 28.384 74.472 30.4 76.104C32.464 77.688 34.96 78.48 37.888 78.48ZM74.7104 81V43.344C74.7104 42.528 74.7104 41.712 74.7104 40.896C74.7584 40.032 74.7824 39.168 74.7824 38.304C73.2464 40.224 71.3744 41.88 69.1664 43.272C66.9584 44.616 64.6784 45.6 62.3264 46.224L61.3904 42.984C62.4464 42.696 63.6224 42.264 64.9184 41.688C66.2144 41.064 67.5104 40.32 68.8064 39.456C70.1504 38.592 71.3744 37.656 72.4784 36.648C73.5824 35.64 74.4464 34.584 75.0704 33.48H78.3104V81H74.7104ZM93.2481 75.096C94.2081 75.096 94.9761 75.408 95.5521 76.032C96.1761 76.608 96.4881 77.376 96.4881 78.336C96.4881 79.296 96.1761 80.088 95.5521 80.712C94.9761 81.288 94.2081 81.576 93.2481 81.576C92.2881 81.576 91.4961 81.288 90.8721 80.712C90.2961 80.088 90.0081 79.296 90.0081 78.336C90.0081 77.376 90.2961 76.608 90.8721 76.032C91.4961 75.408 92.2881 75.096 93.2481 75.096Z" fill="url(#paint0_linear_195_18833)"/>
<mask id="mask0_195_18833" style="mask-type:alpha" maskUnits="userSpaceOnUse" x="20" y="32" width="77" height="50">
<path d="M37.816 81.72C32.44 81.72 28.216 79.632 25.144 75.456C22.072 71.232 20.536 65.16 20.536 57.24C20.536 49.32 22.072 43.272 25.144 39.096C28.216 34.872 32.44 32.76 37.816 32.76C43.24 32.76 47.488 34.872 50.56 39.096C53.632 43.272 55.168 49.32 55.168 57.24C55.168 65.16 53.632 71.232 50.56 75.456C47.488 79.632 43.24 81.72 37.816 81.72ZM37.888 78.48C40.816 78.48 43.288 77.688 45.304 76.104C47.32 74.472 48.856 72.072 49.912 68.904C50.968 65.736 51.496 61.848 51.496 57.24C51.496 52.632 50.968 48.744 49.912 45.576C48.856 42.408 47.32 40.032 45.304 38.448C43.288 36.816 40.816 36 37.888 36C34.96 36 32.464 36.816 30.4 38.448C28.384 40.032 26.848 42.408 25.792 45.576C24.736 48.744 24.208 52.632 24.208 57.24C24.208 61.8 24.736 65.688 25.792 68.904C26.848 72.072 28.384 74.472 30.4 76.104C32.464 77.688 34.96 78.48 37.888 78.48ZM74.7104 81V43.344C74.7104 42.528 74.7104 41.712 74.7104 40.896C74.7584 40.032 74.7824 39.168 74.7824 38.304C73.2464 40.224 71.3744 41.88 69.1664 43.272C66.9584 44.616 64.6784 45.6 62.3264 46.224L61.3904 42.984C62.4464 42.696 63.6224 42.264 64.9184 41.688C66.2144 41.064 67.5104 40.32 68.8064 39.456C70.1504 38.592 71.3744 37.656 72.4784 36.648C73.5824 35.64 74.4464 34.584 75.0704 33.48H78.3104V81H74.7104ZM93.2481 75.096C94.2081 75.096 94.9761 75.408 95.5521 76.032C96.1761 76.608 96.4881 77.376 96.4881 78.336C96.4881 79.296 96.1761 80.088 95.5521 80.712C94.9761 81.288 94.2081 81.576 93.2481 81.576C92.2881 81.576 91.4961 81.288 90.8721 80.712C90.2961 80.088 90.0081 79.296 90.0081 78.336C90.0081 77.376 90.2961 76.608 90.8721 76.032C91.4961 75.408 92.2881 75.096 93.2481 75.096Z" fill="url(#paint1_linear_195_18833)"/>
</mask>
<g mask="url(#mask0_195_18833)">
<path d="M647.664 17.5L456.093 222.7C379.484 304.7 255.368 304.7 178.759 222.7L-12.9087 17.5" stroke="url(#paint2_linear_195_18833)" stroke-width="2" stroke-miterlimit="10" stroke-linecap="round"/>
<path d="M641.784 17.1992L460.235 211.599C384.397 292.799 261.341 292.799 185.406 211.599L4.3387 17.5992" stroke="url(#paint3_linear_195_18833)" stroke-width="2" stroke-miterlimit="10" stroke-linecap="round"/>
<path d="M635.619 17.3008L464.574 200.501C389.314 281.101 267.414 281.101 192.154 200.501L21.2046 17.5008" stroke="url(#paint4_linear_195_18833)" stroke-width="2" stroke-miterlimit="10" stroke-linecap="round"/>
<path d="M629.453 17.0996L468.622 189.4C394.037 269.2 273.293 269.2 198.804 189.4L37.9732 17.1996" stroke="url(#paint5_linear_195_18833)" stroke-width="2" stroke-miterlimit="10" stroke-linecap="round"/>
<path d="M623.092 17L472.572 178.2C398.757 257.3 279.074 257.3 205.259 178.2L54.8354 17.1" stroke="url(#paint6_linear_195_18833)" stroke-width="2" stroke-miterlimit="10" stroke-linecap="round"/>
<path d="M616.537 17.1004L476.713 166.8C403.573 245.1 285.046 245.1 211.906 166.8L71.8898 16.9004" stroke="url(#paint7_linear_195_18833)" stroke-width="2" stroke-miterlimit="10" stroke-linecap="round"/>
<path d="M610.564 17.0992L480.955 155.899C408.49 233.399 291.023 233.399 218.557 155.899L88.5626 16.6992" stroke="url(#paint8_linear_195_18833)" stroke-width="2" stroke-miterlimit="10" stroke-linecap="round"/>
</g>
<defs>
<linearGradient id="paint0_linear_195_18833" x1="16.2027" y1="56.2837" x2="228.203" y2="56.2837" gradientUnits="userSpaceOnUse">
<stop stop-color="#FFAA80"/>
<stop offset="0.234375" stop-color="#FF80BF"/>
</linearGradient>
<linearGradient id="paint1_linear_195_18833" x1="16.2027" y1="56.2837" x2="228.203" y2="56.2837" gradientUnits="userSpaceOnUse">
<stop stop-color="#FFAA80"/>
<stop offset="0.234375" stop-color="#FF80BF"/>
</linearGradient>
<linearGradient id="paint2_linear_195_18833" x1="650.506" y1="150.838" x2="-15.7287" y2="150.838" gradientUnits="userSpaceOnUse">
<stop offset="0.4115" stop-color="#D919FF"/>
<stop offset="1" stop-color="#9A52FF"/>
</linearGradient>
<linearGradient id="paint3_linear_195_18833" x1="644.588" y1="144.872" x2="1.54489" y2="144.872" gradientUnits="userSpaceOnUse">
<stop offset="0.4115" stop-color="#D919FF"/>
<stop offset="1" stop-color="#9A52FF"/>
</linearGradient>
<linearGradient id="paint4_linear_195_18833" x1="638.297" y1="139.124" x2="18.5189" y2="139.124" gradientUnits="userSpaceOnUse">
<stop offset="0.4115" stop-color="#D919FF"/>
<stop offset="1" stop-color="#9A52FF"/>
</linearGradient>
<linearGradient id="paint5_linear_195_18833" x1="632.11" y1="133.203" x2="35.3228" y2="133.203" gradientUnits="userSpaceOnUse">
<stop offset="0.4115" stop-color="#D919FF"/>
<stop offset="1" stop-color="#9A52FF"/>
</linearGradient>
<linearGradient id="paint6_linear_195_18833" x1="625.674" y1="127.273" x2="52.244" y2="127.273" gradientUnits="userSpaceOnUse">
<stop offset="0.4115" stop-color="#D919FF"/>
<stop offset="1" stop-color="#9A52FF"/>
</linearGradient>
<linearGradient id="paint7_linear_195_18833" x1="619.015" y1="121.238" x2="69.3327" y2="121.238" gradientUnits="userSpaceOnUse">
<stop offset="0.4115" stop-color="#D919FF"/>
<stop offset="1" stop-color="#9A52FF"/>
</linearGradient>
<linearGradient id="paint8_linear_195_18833" x1="612.96" y1="115.357" x2="86.0724" y2="115.357" gradientUnits="userSpaceOnUse">
<stop offset="0.4115" stop-color="#D919FF"/>
<stop offset="1" stop-color="#9A52FF"/>
</linearGradient>
</defs>
</svg>
