<svg width="262" height="40" viewBox="0 0 262 40" fill="none" xmlns="http://www.w3.org/2000/svg">
<path d="M11.6279 33C11.6279 33 22.7559 29.221 22.7559 15.3242V10.3262C22.7559 9.78634 22.3379 9.33356 21.798 9.29873C19.778 9.21166 14.9889 8.7937 11.6279 7C8.26691 8.7937 3.4779 9.21166 1.4578 9.29873C0.91795 9.33356 0.5 9.78634 0.5 10.3262V15.3242C0.5 29.221 11.6279 33 11.6279 33Z" fill="#009FE8"/>
<path d="M16.121 17.1565C15.9817 15.6415 14.693 15.119 13.0386 14.9623V12.8377H11.7499V14.8927C11.4191 14.8927 11.0534 14.8927 10.7051 14.8927V12.8203H9.41639L9.4338 14.9275C9.15517 14.9275 6.85645 14.9449 6.85645 14.9449V16.2858H8.49342V23.0601H7.04801L7.03059 24.61C7.03059 24.61 9.0681 24.5926 9.36415 24.61V26.7346H10.6354V24.6274C10.9837 24.6448 11.332 24.6448 11.6629 24.6448V26.7346H12.9516V24.61C15.111 24.5055 16.6086 23.9657 16.8176 21.9456C16.9743 20.326 16.2255 19.5772 15.0065 19.2811C15.7553 18.9328 16.2255 18.2711 16.121 17.1565ZM14.2925 21.6843C14.2751 23.2691 11.5758 23.0775 10.7225 23.0775V20.2563C11.5758 20.2563 14.3099 20.03 14.2925 21.6843ZM13.7178 17.7138C13.7004 19.1592 11.4539 18.9851 10.7399 18.9677V16.4077C11.4539 16.4077 13.7352 16.1987 13.7178 17.7138Z" fill="white"/>
<path d="M44.8548 24.2411C44.8548 25.3556 44.6284 26.2786 44.193 27.0274C43.7576 27.7762 43.1656 28.3857 42.4516 28.8385C41.7201 29.2913 40.9017 29.6222 39.9787 29.8312C39.0557 30.0227 38.0979 30.1272 37.1401 30.1272H29.0771V9.87402H37.1401C37.9238 9.87402 38.7248 9.9611 39.5433 10.1178C40.3618 10.2746 41.1106 10.5532 41.7724 10.9537C42.4341 11.3543 42.974 11.8767 43.4094 12.5385C43.8273 13.2002 44.0363 14.0535 44.0363 15.081C44.0363 16.2129 43.7402 17.1359 43.1133 17.8673C42.5038 18.5987 41.7027 19.1386 40.7101 19.4521V19.5043C41.2848 19.6088 41.8246 19.7829 42.3297 20.0441C42.8347 20.3054 43.27 20.6362 43.6357 21.0368C44.0015 21.4373 44.2975 21.9075 44.5239 22.4474C44.7329 22.9698 44.8548 23.5619 44.8548 24.2411ZM39.2995 15.7427C39.2995 15.0636 39.0383 14.5586 38.5159 14.2451C37.9934 13.9316 37.2098 13.7749 36.1823 13.7749H33.7791V17.9544H36.4087C37.3317 17.9544 38.0282 17.7628 38.5333 17.3971C39.0557 17.014 39.2995 16.4567 39.2995 15.7427ZM39.9613 23.7709C39.9613 22.935 39.6478 22.3429 39.0209 22.0294C38.394 21.6985 37.5581 21.5418 36.4958 21.5418H33.7791V26.1741H36.5306C36.9137 26.1741 37.3142 26.1393 37.7148 26.0696C38.1153 25.9999 38.4984 25.878 38.8293 25.7213C39.1602 25.5472 39.4388 25.3034 39.6478 24.9899C39.8568 24.6764 39.9613 24.2759 39.9613 23.7709Z" fill="black"/>
<path d="M51.351 11.3399C51.351 11.7056 51.2813 12.0365 51.142 12.3499C51.0027 12.6634 50.8111 12.942 50.5673 13.1684C50.3235 13.3948 50.0449 13.569 49.714 13.7083C49.3831 13.8476 49.0349 13.8998 48.6692 13.8998C47.9029 13.8998 47.276 13.656 46.7535 13.1336C46.2311 12.6286 45.9873 12.0191 45.9873 11.3225C45.9873 10.9742 46.057 10.6433 46.1963 10.3298C46.3356 10.0164 46.5272 9.73775 46.771 9.51136C47.0148 9.28497 47.3108 9.09341 47.6243 8.95409C47.9552 8.81478 48.3034 8.74512 48.6866 8.74512C49.0523 8.74512 49.4006 8.81478 49.7314 8.93668C50.0623 9.076 50.3584 9.25014 50.5848 9.47653C50.8286 9.70292 51.0201 9.98155 51.1594 10.295C51.2813 10.6259 51.351 10.9742 51.351 11.3399ZM46.3182 15.8851H51.0201V30.1302H46.3182V15.8851Z" fill="black"/>
<path d="M59.5186 19.3667V24.8175C59.5186 25.4966 59.6405 25.9843 59.9017 26.3325C60.1629 26.6634 60.6157 26.8376 61.2949 26.8376C61.5213 26.8376 61.7651 26.8202 62.0263 26.7853C62.2875 26.7505 62.4965 26.6983 62.6706 26.6112L62.7229 30.0419C62.392 30.1638 61.9915 30.2508 61.4864 30.3379C60.9814 30.425 60.4938 30.4598 59.9888 30.4598C59.031 30.4598 58.2299 30.3379 57.5856 30.0941C56.9412 29.8503 56.4188 29.5194 56.0182 29.0666C55.6351 28.6139 55.3391 28.0914 55.1649 27.4645C54.9908 26.8376 54.9037 26.1584 54.9037 25.3922V19.3667H52.6572V15.8838H54.9211V12.1396H59.536V15.8838H62.8796V19.3667H59.5186Z" fill="black"/>
<path d="M79.8587 30.1648C78.5352 30.4956 77.0898 30.6524 75.5225 30.6524C73.9029 30.6524 72.4052 30.3912 71.0469 29.8861C69.6886 29.3637 68.5044 28.6497 67.5292 27.7093C66.5539 26.7689 65.7703 25.6544 65.2304 24.3483C64.6732 23.0422 64.3945 21.5794 64.3945 19.9772C64.3945 18.3577 64.6732 16.8949 65.2478 15.5713C65.8051 14.2478 66.5888 13.1333 67.5814 12.2103C68.574 11.2873 69.7408 10.5734 71.0643 10.0857C72.4052 9.59814 73.8332 9.33691 75.3831 9.33691C76.9853 9.33691 78.4655 9.58072 79.8413 10.0683C81.217 10.5559 82.3316 11.2003 83.1849 12.0362L80.1025 15.5539C79.6323 14.9967 78.988 14.5439 78.2217 14.1956C77.4381 13.8473 76.5499 13.6732 75.5573 13.6732C74.704 13.6732 73.9029 13.8299 73.1889 14.1433C72.4575 14.4568 71.8306 14.8922 71.3081 15.4669C70.7683 16.0241 70.3503 16.7033 70.0717 17.4695C69.7756 18.2358 69.6189 19.0891 69.6189 19.9946C69.6189 20.935 69.7582 21.7884 70.0194 22.572C70.2807 23.3557 70.6812 24.0348 71.2036 24.5921C71.7261 25.1494 72.3704 25.6021 73.1541 25.9156C73.9203 26.2291 74.8085 26.3858 75.8011 26.3858C76.3758 26.3858 76.9156 26.351 77.4381 26.2639C77.9431 26.1768 78.4307 26.0375 78.8661 25.846V22.1541H75V18.1661H83.359V28.8935C82.3316 29.4159 81.1822 29.8339 79.8587 30.1648Z" fill="black"/>
<path d="M100.093 22.9518C100.093 24.1186 99.8844 25.1635 99.4665 26.1213C99.0485 27.0617 98.4738 27.8627 97.7424 28.5245C97.011 29.1862 96.1751 29.6913 95.2173 30.057C94.2595 30.4227 93.2494 30.5968 92.1523 30.5968C91.09 30.5968 90.0626 30.4227 89.1048 30.057C88.147 29.6913 87.2936 29.1862 86.5796 28.5245C85.8657 27.8627 85.291 27.0617 84.873 26.1213C84.4551 25.1809 84.2461 24.1186 84.2461 22.9518C84.2461 21.785 84.4551 20.7402 84.873 19.7998C85.291 18.8594 85.8657 18.0757 86.5796 17.4314C87.2936 16.787 88.1295 16.282 89.1048 15.9511C90.0626 15.6029 91.09 15.4287 92.1523 15.4287C93.232 15.4287 94.2595 15.6029 95.2173 15.9511C96.1751 16.2994 97.011 16.787 97.7424 17.4314C98.4738 18.0757 99.0311 18.8768 99.4665 19.7998C99.8844 20.7402 100.093 21.785 100.093 22.9518ZM95.583 22.9518C95.583 22.499 95.5133 22.0463 95.3566 21.6109C95.1999 21.1755 94.9909 20.7924 94.6949 20.4441C94.4162 20.1132 94.0505 19.8346 93.6326 19.6256C93.2146 19.4167 92.727 19.3122 92.1697 19.3122C91.6125 19.3122 91.1249 19.4167 90.7069 19.6256C90.289 19.8346 89.9407 20.1132 89.662 20.4441C89.3834 20.775 89.1744 21.1581 89.0351 21.6109C88.8958 22.0463 88.8261 22.499 88.8261 22.9518C88.8261 23.4046 88.8958 23.8574 89.0351 24.2927C89.1744 24.7281 89.3834 25.1286 89.6794 25.4769C89.9581 25.8252 90.3238 26.1213 90.7417 26.3302C91.1597 26.5392 91.6473 26.6437 92.2046 26.6437C92.7618 26.6437 93.2494 26.5392 93.6674 26.3302C94.0853 26.1213 94.4336 25.8426 94.7297 25.4769C95.0083 25.1286 95.2347 24.7281 95.374 24.2927C95.5133 23.8574 95.583 23.4046 95.583 22.9518Z" fill="black"/>
<path d="M102.479 27.3438C103.367 27.3438 104.116 28.0403 104.116 28.9633C104.116 29.9037 103.349 30.6003 102.479 30.6003C101.59 30.6003 100.824 29.9037 100.824 28.9633C100.824 28.0229 101.573 27.3438 102.479 27.3438ZM102.479 27.605C101.73 27.605 101.138 28.1971 101.138 28.9633C101.138 29.7644 101.73 30.3217 102.479 30.3217C103.227 30.3217 103.802 29.747 103.802 28.9633C103.802 28.1797 103.21 27.605 102.479 27.605ZM102.13 29.9037H101.834V28.0229H102.548C103.001 28.0229 103.21 28.1971 103.21 28.5628C103.21 28.8937 103.001 29.0504 102.722 29.0852L103.262 29.9037H102.949L102.444 29.0852H102.113V29.9037H102.13ZM102.13 28.8588H102.479C102.827 28.8588 102.949 28.7543 102.949 28.5454C102.949 28.3712 102.862 28.2667 102.531 28.2667H102.148V28.8588H102.13Z" fill="black"/>
</svg>
