<svg width="262" height="40" viewBox="0 0 262 40" fill="none" xmlns="http://www.w3.org/2000/svg">
<g clip-path="url(#clip0_1117_1724)">
<path d="M52.7828 18.2983L54.4372 14.9714H57.2138L54.3986 19.9369L57.2855 25.0183H54.5006L52.8214 21.6197L51.1395 25.0183H48.3629L51.2498 19.9369L48.4346 14.9714H51.2139L52.7828 18.2983ZM61.6255 21.4404H60.3102V24.988H57.9031V14.9714H61.8461C63.051 14.9714 63.9637 15.228 64.6227 15.7769C64.9562 16.0419 65.2227 16.3818 65.4004 16.7691C65.5781 17.1564 65.6621 17.5801 65.6456 18.0059C65.6664 18.6203 65.5145 19.2281 65.2072 19.7604C64.8851 20.2555 64.429 20.6487 63.892 20.8942L65.9737 24.9494V25.0597H63.3791L61.6255 21.4404ZM60.3461 19.5783H61.8819C62.069 19.598 62.2581 19.5752 62.4353 19.5117C62.6124 19.4482 62.7729 19.3456 62.9049 19.2114C63.148 18.9268 63.2777 18.5623 63.2688 18.188C63.2822 18.0015 63.2568 17.8142 63.1941 17.6381C63.1315 17.4619 63.033 17.3007 62.9049 17.1645C62.7706 17.0337 62.6097 16.9335 62.4332 16.8706C62.2566 16.8078 62.0686 16.7838 61.8819 16.8004H60.3461V19.5783ZM69.4093 21.5866V24.988H67.0022V14.9714H71.0223C71.7291 14.9569 72.4295 15.1071 73.0683 15.41C73.6281 15.6801 74.1045 16.0966 74.4469 16.6156C74.7775 17.1537 74.9425 17.7773 74.9212 18.4087C74.9359 18.8537 74.8481 19.2962 74.6645 19.7019C74.4808 20.1075 74.2064 20.4655 73.8624 20.748C73.1675 21.3328 72.208 21.6252 70.9755 21.6252H69.4066L69.4093 21.5866ZM69.4093 19.7245H70.9782C71.1712 19.744 71.3661 19.7213 71.5494 19.658C71.7327 19.5946 71.9 19.4921 72.0398 19.3576C72.17 19.2304 72.2702 19.0758 72.3332 18.905C72.3962 18.7341 72.4203 18.5514 72.4037 18.37C72.4287 17.9607 72.2987 17.5569 72.0398 17.239C71.9134 17.0934 71.7558 16.9783 71.5786 16.9023C71.4014 16.8263 71.2094 16.7915 71.0168 16.8004H69.4093V19.7245ZM81.8172 23.159H86.0275V25.0238H79.3825V14.9714H81.7951V23.159H81.8172ZM93.1441 20.748H89.3556V23.159H93.85V25.0238H86.9567V14.9714H93.8996V16.8363H89.4052V18.9549H93.1689L93.1441 20.748ZM94.6772 24.988V14.9714H97.928C98.78 14.9624 99.6197 15.1744 100.365 15.5866C101.074 15.9845 101.649 16.5823 102.02 17.3052C102.417 18.0613 102.631 18.9006 102.643 19.7549V20.2294C102.661 21.093 102.46 21.9471 102.058 22.7121C101.67 23.4356 101.088 24.0373 100.379 24.4502C99.6692 24.8631 98.859 25.0713 98.0383 25.0514H94.691L94.6772 24.988ZM97.0898 16.8363V23.159H97.917C98.226 23.1761 98.5346 23.1187 98.8168 22.9914C99.099 22.8642 99.3464 22.671 99.5383 22.428C99.9059 21.9186 100.09 21.1875 100.09 20.2349V19.7963C100.09 18.8087 99.9059 18.0776 99.5383 17.6032C99.3418 17.357 99.0887 17.162 98.8007 17.0347C98.5126 16.9074 98.1981 16.8517 97.8839 16.8721H97.0815L97.0898 16.8363ZM111.899 23.7797C111.438 24.2412 110.87 24.5807 110.245 24.7673C109.48 25.0251 108.677 25.1493 107.871 25.1342C106.556 25.1342 105.494 24.7314 104.728 23.9259C103.961 23.1204 103.523 21.9949 103.448 20.5632V19.6859C103.435 18.7951 103.609 17.9114 103.961 17.0928C104.285 16.3884 104.805 15.7919 105.458 15.3742C106.145 14.972 106.93 14.7695 107.725 14.7894C108.965 14.7894 109.953 15.0818 110.647 15.6666C111.342 16.2514 111.75 17.0928 111.852 18.2238H109.514C109.483 17.7684 109.287 17.3399 108.963 17.0183C108.638 16.7559 108.227 16.6258 107.81 16.6542C107.526 16.6473 107.246 16.7143 106.996 16.8488C106.746 16.9832 106.535 17.1805 106.385 17.4211C106.008 18.0932 105.831 18.8588 105.875 19.628V20.2487C105.875 21.2363 106.057 22.0032 106.385 22.5163C106.713 23.0294 107.261 23.2832 107.992 23.2832C108.505 23.3186 109.013 23.1623 109.418 22.8445V21.2721H107.738V19.6169H111.83V23.7797H111.899ZM119.391 20.7452H115.591V23.1563H120.083V25.0211H113.19V14.9714H120.133V16.8363H115.638V18.9549H119.438V20.748L119.391 20.7452ZM124.688 21.4376H123.372V24.988H120.924V14.9714H124.87C126.077 14.9714 126.99 15.228 127.646 15.7769C127.98 16.0415 128.247 16.3813 128.425 16.7687C128.603 17.1561 128.686 17.58 128.669 18.0059C128.69 18.6203 128.538 19.2281 128.231 19.7604C127.909 20.2555 127.452 20.6487 126.915 20.8942L129 24.9494V25.0597H126.405L124.688 21.4376ZM123.372 19.5756H124.905C125.093 19.5952 125.282 19.5725 125.459 19.509C125.636 19.4454 125.796 19.3428 125.928 19.2087C126.168 18.9235 126.294 18.5603 126.284 18.188C126.297 18.0015 126.271 17.8145 126.208 17.6384C126.146 17.4623 126.048 17.301 125.92 17.1645C125.787 17.0348 125.627 16.9352 125.452 16.8724C125.277 16.8096 125.091 16.785 124.905 16.8004H123.37L123.372 19.5756Z" fill="#111112"/>
<path d="M9.76084 5.98621H10.5329V4H9.76084C8.9423 3.99928 8.13166 4.16004 7.37529 4.4731C6.61892 4.78615 5.93168 5.24535 5.35289 5.82442C4.7741 6.40349 4.31512 7.09106 4.00221 7.84779C3.68931 8.60452 3.52862 9.41556 3.52934 10.2345V14.7586C3.531 15.7166 3.16634 16.6388 2.51012 17.3364C1.8539 18.034 0.955822 18.454 0 18.5103L0.055146 19.5034L0 20.4966C0.955822 20.5529 1.8539 20.9729 2.51012 21.6705C3.16634 22.3681 3.531 23.2903 3.52934 24.2483V29.4621C3.52641 31.1922 4.21018 32.8526 5.43036 34.0786C6.65054 35.3045 8.30731 35.9956 10.0366 36V34.0138C8.83749 34.0131 7.68774 33.5362 6.83986 32.6879C5.99198 31.8396 5.51533 30.6893 5.5146 29.4897V24.2483C5.51543 23.3125 5.28718 22.3908 4.84978 21.5637C4.41238 20.7366 3.77916 20.0292 3.00546 19.5034C3.77696 18.9755 4.4085 18.2676 4.84563 17.441C5.28276 16.6144 5.51235 15.6938 5.5146 14.7586V10.2345C5.51968 9.10934 5.96868 8.03172 6.7639 7.23611C7.55913 6.4405 8.63623 5.99129 9.76084 5.98621Z" fill="#111112"/>
<path d="M32.7015 5.98621H31.9295V4H32.7015C34.3503 4.00438 35.93 4.66352 37.0933 5.83255C38.2566 7.00159 38.9084 8.58487 38.9055 10.2345V14.7586C38.9038 15.7166 39.2685 16.6388 39.9247 17.3364C40.5809 18.034 41.479 18.454 42.4348 18.5103L42.3796 19.5034L42.4348 20.4966C41.479 20.5529 40.5809 20.9729 39.9247 21.6705C39.2685 22.368 38.9038 23.2903 38.9055 24.2483V29.4621C38.9084 31.1922 38.2246 32.8526 37.0044 34.0786C35.7843 35.3045 34.1275 35.9956 32.3982 36V34.0138C33.5973 34.0131 34.7471 33.5362 35.5949 32.6879C36.4428 31.8396 36.9195 30.6893 36.9202 29.4897V24.2483C36.9194 23.3125 37.1476 22.3908 37.585 21.5637C38.0224 20.7366 38.6556 20.0292 39.4293 19.5034C38.6578 18.9755 38.0263 18.2676 37.5892 17.441C37.152 16.6144 36.9224 15.6938 36.9202 14.7586V10.2345C36.9231 9.6781 36.8162 9.12662 36.6055 8.61168C36.3949 8.09674 36.0847 7.62849 35.6927 7.23378C35.3008 6.83907 34.8348 6.52568 34.3215 6.31159C33.8082 6.0975 33.2577 5.98693 32.7015 5.98621Z" fill="#111112"/>
<path fill-rule="evenodd" clip-rule="evenodd" d="M31.4819 11.5898H28.6813L24.2549 15.9696C22.919 17.2913 20.7533 17.2913 19.4175 15.9696L14.9911 11.5898H12.1905L18.0172 17.3551C20.1263 19.4421 23.546 19.4421 25.6552 17.3551L31.4819 11.5898ZM12.1548 27.6218H14.9554L19.4178 23.2064C20.7536 21.8847 22.9193 21.8847 24.2551 23.2064L28.7176 27.6218H31.5182L25.6555 21.8209C23.5463 19.734 20.1266 19.734 18.0174 21.8209L12.1548 27.6218Z" fill="#111112"/>
</g>
<defs>
<clipPath id="clip0_1117_1724">
<rect width="129" height="32" fill="white" transform="translate(0 4)"/>
</clipPath>
</defs>
</svg>
