<svg width="262" height="40" viewBox="0 0 262 40" fill="none" xmlns="http://www.w3.org/2000/svg">
<g clip-path="url(#clip0_1117_1831)">
<path d="M25.04 27.8302C23.0842 27.8302 20.6454 27.2721 19.3414 25.792C18.0617 24.2876 17.4338 22.4678 17.4338 20.3325V15.237C17.4338 14.776 17.4338 14.4363 17.458 14.218C17.5063 13.9996 17.5787 13.7569 17.7236 13.4658C17.9892 12.9319 18.7378 12.6893 19.9934 12.6893C21.3456 12.6893 22.1424 13.0533 22.3839 13.8055C22.5047 14.1209 22.553 14.6062 22.553 15.2856V20.3811C22.553 21.1818 22.7703 21.8127 23.2291 22.2494C23.6879 22.6862 24.2915 22.9288 25.0642 22.9288C25.8369 22.9288 26.4647 22.6862 26.9235 22.2251C27.4064 21.7641 27.6479 21.1575 27.6479 20.3811V15.1885C27.6479 14.7518 27.6479 14.4121 27.672 14.1937C27.7204 13.951 27.8169 13.7084 27.9618 13.4172C28.2033 12.9077 28.9519 12.665 30.2076 12.665C31.439 12.665 32.1634 12.9319 32.453 13.4415C32.5979 13.7327 32.6704 13.9996 32.6944 14.218C32.7429 14.4363 32.7429 14.7518 32.7429 15.2128V20.3568C32.7429 22.5891 32.0185 24.4575 30.6905 25.792C29.314 27.1265 26.8269 27.7574 25.04 27.8302Z" fill="black"/>
<path d="M11.3248 20.1142L14.5363 23.3899C15.2366 24.0936 15.5747 24.7001 15.5747 25.2097C15.5747 25.695 15.2366 26.2774 14.5363 26.981C13.8361 27.6604 13.2566 28.0001 12.7736 28.0001C12.2907 28.0001 11.7112 27.6604 11.0109 26.9567L7.82355 23.7054L4.58788 26.9567C3.88763 27.6604 3.3081 28.0001 2.82517 28.0001C2.36638 28.0001 1.76271 27.6604 1.06246 26.981C0.362202 26.2774 0 25.6708 0 25.1855C0 24.6759 0.338054 24.0693 1.03831 23.3657L4.24981 20.09L1.06246 16.8628C0.362202 16.1592 0 15.5526 0 15.0673C0 14.5577 0.338054 13.9511 1.03831 13.2475C1.76271 12.5438 2.34223 12.2041 2.80102 12.2041C3.28395 12.2041 3.86349 12.5438 4.56373 13.2475L7.82355 16.5231L11.0109 13.2717C11.7112 12.5681 12.2907 12.2284 12.7736 12.2284C13.2566 12.2284 13.8361 12.5681 14.5363 13.2717C15.2366 13.9754 15.5747 14.582 15.5747 15.0915C15.5747 15.5768 15.2366 16.1592 14.5363 16.8628L11.3248 20.1142Z" fill="black"/>
<path fill-rule="evenodd" clip-rule="evenodd" d="M45.9754 13.9027C44.744 12.8108 43.247 12.374 41.5567 12.374C39.6009 12.374 38.0071 13.102 36.6791 14.4365C35.3509 15.771 34.6265 17.6394 34.6265 19.8717V25.0157C34.6265 25.4524 34.6508 25.7921 34.6749 26.0105C34.6989 26.2532 34.7714 26.4958 34.9163 26.787C35.1819 27.3208 35.9303 27.5635 37.1618 27.5635C38.3935 27.5635 39.142 27.3208 39.4075 26.8113C39.5524 26.5201 39.649 26.2532 39.6974 26.0348C39.7214 25.8164 39.7214 25.501 39.7214 25.0399V19.8717C39.7214 19.1195 39.9629 18.4886 40.4459 18.0276C40.9047 17.5666 41.4843 17.5666 41.5808 17.5666C41.6773 17.5666 42.2327 17.5666 42.6672 18.0033C43.1021 18.4401 43.3435 19.071 43.3435 19.8717V24.9914C43.3435 25.4282 43.3676 25.7679 43.3916 25.9863C43.416 26.2289 43.4885 26.4716 43.6331 26.7627C43.899 27.2965 44.6475 27.5392 45.8789 27.5392C45.8789 27.5392 45.8789 27.5392 45.9029 27.5392C45.9029 27.5392 45.9029 27.5392 45.9273 27.5392C47.1587 27.5392 47.9312 27.2723 48.1971 26.7627C48.3417 26.4716 48.4142 26.2289 48.4626 26.0105C48.4867 25.7921 48.4867 25.4524 48.4867 24.9914V19.8959C48.4867 19.7503 48.4867 19.6291 48.4867 19.4835C48.5591 18.9011 48.8006 18.4158 49.187 18.0276C49.6459 17.5666 50.2254 17.5666 50.322 17.5666C50.4185 17.5666 50.9739 17.5666 51.4084 18.0033C51.8432 18.4401 52.0847 19.071 52.0847 19.8717V24.9672C52.0847 25.6465 52.1328 26.1561 52.2537 26.4473C52.4952 27.1752 53.2677 27.5635 54.6441 27.5635C55.8755 27.5635 56.6484 27.2965 56.9139 26.787C57.0589 26.4958 57.1313 26.2532 57.1794 26.0348C57.2037 25.8164 57.2037 25.4767 57.2037 25.0157V19.9202C57.2037 17.7849 56.5759 15.9651 55.296 14.4607C53.9922 12.9806 52.2778 12.3983 50.322 12.3983C48.6075 12.374 47.1828 12.9078 45.9754 13.9027Z" fill="black"/>
<path fill-rule="evenodd" clip-rule="evenodd" d="M70.1703 13.9027C68.9389 12.8108 67.4419 12.374 65.7517 12.374C63.7957 12.374 62.2019 13.102 60.874 14.4365C59.546 15.771 58.8215 17.6394 58.8215 19.8717V25.0157C58.8215 25.4524 58.8456 25.7921 58.8697 26.0105C58.894 26.2532 58.9665 26.4958 59.1111 26.787C59.377 27.3208 60.1255 27.5635 61.3569 27.5635C62.5883 27.5635 63.3368 27.3208 63.6026 26.8113C63.7472 26.5201 63.8441 26.2532 63.8922 26.0348C63.9166 25.8164 63.9166 25.501 63.9166 25.0399V19.8717C63.9166 19.1195 64.1581 18.4886 64.6407 18.0276C65.0995 17.5666 65.6787 17.5666 65.776 17.5666C65.8727 17.5666 66.4275 17.5666 66.8621 18.0033C67.2967 18.4401 67.5386 19.071 67.5386 19.8474V25.0157C67.5386 25.4524 67.5629 25.7921 67.5866 26.0105C67.6109 26.2532 67.6832 26.4958 67.8285 26.787C68.0935 27.3208 68.8423 27.5635 70.0743 27.5635C70.0743 27.5635 70.0743 27.5635 70.0979 27.5635C70.0979 27.5635 70.098 27.5635 70.1223 27.5635C71.3536 27.5635 72.1261 27.2965 72.3917 26.787C72.537 26.4958 72.6093 26.2532 72.6573 26.0348C72.6816 25.8164 72.6816 25.4767 72.6816 25.0157V19.9202C72.6816 19.7746 72.6816 19.6533 72.6816 19.5077C72.754 18.9254 72.9959 18.4401 73.3818 18.0518C73.8407 17.5908 74.4205 17.5908 74.5165 17.5908C74.6138 17.5908 75.1687 17.5908 75.6032 18.0276C76.0378 18.4643 76.2797 19.0952 76.2797 19.8959V24.9914C76.2797 25.6708 76.3277 26.1804 76.4487 26.4716C76.6899 27.1995 77.4631 27.5877 78.8391 27.5877C80.0704 27.5877 80.8429 27.3208 81.1091 26.8113C81.2538 26.5201 81.3261 26.2775 81.3747 26.0591C81.3984 25.8407 81.3984 25.501 81.3984 25.0399V19.9445C81.3984 17.8092 80.7712 15.9894 79.4912 14.485C78.1876 13.0049 76.473 12.4226 74.5165 12.4226C72.8026 12.374 71.378 12.9078 70.1703 13.9027Z" fill="black"/>
<path fill-rule="evenodd" clip-rule="evenodd" d="M103.469 12.6893C104.555 13.6841 104.652 15.4069 103.662 16.4988L94.5586 26.5684C94.0511 27.1265 93.351 27.4419 92.6028 27.4419C91.854 27.4419 91.1295 27.1507 90.6226 26.5927L85.7452 21.4487C84.7308 20.3811 84.7551 18.6583 85.8412 17.6392C86.9042 16.6201 88.6182 16.6443 89.6326 17.7362L92.5305 20.7935L99.6774 12.8834C100.667 11.7915 102.358 11.6944 103.469 12.6893Z" fill="#0030CF"/>
</g>
<defs>
<clipPath id="clip0_1117_1831">
<rect width="104.384" height="16" fill="white" transform="translate(0 12)"/>
</clipPath>
</defs>
</svg>
