<svg width="400" height="80" viewBox="0 0 400 80" fill="none" xmlns="http://www.w3.org/2000/svg">
<path d="M22.32 64.928C19.2 64.928 16.368 64.496 13.824 63.632C11.328 62.72 9.192 61.424 7.416 59.744C5.64 58.064 4.32 56.072 3.456 53.768L6.552 51.392C7.224 53.6 8.304 55.472 9.792 57.008C11.28 58.496 13.104 59.648 15.264 60.464C17.472 61.28 19.896 61.688 22.536 61.688C26.472 61.688 29.64 60.896 32.04 59.312C34.44 57.68 35.64 55.352 35.64 52.328C35.64 50.36 34.968 48.704 33.624 47.36C32.28 45.968 29.976 44.936 26.712 44.264L17.136 42.176C14.304 41.552 12 40.712 10.224 39.656C8.496 38.552 7.224 37.232 6.408 35.696C5.64 34.16 5.256 32.432 5.256 30.512C5.256 28.16 5.928 26 7.272 24.032C8.616 22.064 10.512 20.48 12.96 19.28C15.408 18.032 18.36 17.408 21.816 17.408C25.8 17.408 29.208 18.248 32.04 19.928C34.92 21.608 37.128 24.2 38.664 27.704L35.784 29.936C34.44 26.672 32.544 24.32 30.096 22.88C27.696 21.392 24.792 20.648 21.384 20.648C18.744 20.648 16.488 21.08 14.616 21.944C12.744 22.76 11.328 23.888 10.368 25.328C9.408 26.768 8.928 28.376 8.928 30.152C8.928 31.592 9.216 32.864 9.792 33.968C10.368 35.072 11.328 36.032 12.672 36.848C14.064 37.616 15.936 38.264 18.288 38.792L27.432 40.808C31.704 41.72 34.752 43.112 36.576 44.984C38.4 46.808 39.312 49.16 39.312 52.04C39.312 54.632 38.592 56.888 37.152 58.808C35.712 60.728 33.72 62.24 31.176 63.344C28.632 64.4 25.68 64.928 22.32 64.928ZM20.52 72.2V10.28H23.616V72.2H20.52ZM58.2885 65V27.344C58.2885 26.528 58.2885 25.712 58.2885 24.896C58.3365 24.032 58.3605 23.168 58.3605 22.304C56.8245 24.224 54.9525 25.88 52.7445 27.272C50.5365 28.616 48.2565 29.6 45.9045 30.224L44.9685 26.984C46.0245 26.696 47.2005 26.264 48.4965 25.688C49.7925 25.064 51.0885 24.32 52.3845 23.456C53.7285 22.592 54.9525 21.656 56.0565 20.648C57.1605 19.64 58.0245 18.584 58.6485 17.48H61.8885V65H58.2885ZM90.7223 65.72C85.3463 65.72 81.1223 63.632 78.0503 59.456C74.9783 55.232 73.4423 49.16 73.4423 41.24C73.4423 33.32 74.9783 27.272 78.0503 23.096C81.1223 18.872 85.3463 16.76 90.7223 16.76C96.1463 16.76 100.394 18.872 103.466 23.096C106.538 27.272 108.074 33.32 108.074 41.24C108.074 49.16 106.538 55.232 103.466 59.456C100.394 63.632 96.1463 65.72 90.7223 65.72ZM90.7943 62.48C93.7223 62.48 96.1943 61.688 98.2103 60.104C100.226 58.472 101.762 56.072 102.818 52.904C103.874 49.736 104.402 45.848 104.402 41.24C104.402 36.632 103.874 32.744 102.818 29.576C101.762 26.408 100.226 24.032 98.2103 22.448C96.1943 20.816 93.7223 20 90.7943 20C87.8663 20 85.3703 20.816 83.3063 22.448C81.2903 24.032 79.7543 26.408 78.6983 29.576C77.6423 32.744 77.1143 36.632 77.1143 41.24C77.1143 45.8 77.6423 49.688 78.6983 52.904C79.7543 56.072 81.2903 58.472 83.3063 60.104C85.3703 61.688 87.8663 62.48 90.7943 62.48ZM154.545 17.48L134.673 37.856L134.097 38.432L121.857 50.888V45.992L149.793 17.48H154.545ZM123.729 17.48V65H120.129V17.48H123.729ZM134.961 35.48L155.049 65H150.657L132.081 37.64L134.961 35.48ZM180.161 44.048V47.72H158.057V44.048H180.161ZM206.398 64.928C203.278 64.928 200.446 64.496 197.902 63.632C195.406 62.72 193.27 61.424 191.494 59.744C189.718 58.064 188.398 56.072 187.534 53.768L190.63 51.392C191.302 53.6 192.382 55.472 193.87 57.008C195.358 58.496 197.182 59.648 199.342 60.464C201.55 61.28 203.974 61.688 206.614 61.688C210.55 61.688 213.718 60.896 216.118 59.312C218.518 57.68 219.718 55.352 219.718 52.328C219.718 50.36 219.046 48.704 217.702 47.36C216.358 45.968 214.054 44.936 210.79 44.264L201.214 42.176C198.382 41.552 196.078 40.712 194.302 39.656C192.574 38.552 191.302 37.232 190.486 35.696C189.718 34.16 189.334 32.432 189.334 30.512C189.334 28.16 190.006 26 191.35 24.032C192.694 22.064 194.59 20.48 197.038 19.28C199.486 18.032 202.438 17.408 205.894 17.408C209.878 17.408 213.286 18.248 216.118 19.928C218.998 21.608 221.206 24.2 222.742 27.704L219.862 29.936C218.518 26.672 216.622 24.32 214.174 22.88C211.774 21.392 208.87 20.648 205.462 20.648C202.822 20.648 200.566 21.08 198.694 21.944C196.822 22.76 195.406 23.888 194.446 25.328C193.486 26.768 193.006 28.376 193.006 30.152C193.006 31.592 193.294 32.864 193.87 33.968C194.446 35.072 195.406 36.032 196.75 36.848C198.142 37.616 200.014 38.264 202.366 38.792L211.51 40.808C215.782 41.72 218.83 43.112 220.654 44.984C222.478 46.808 223.39 49.16 223.39 52.04C223.39 54.632 222.67 56.888 221.23 58.808C219.79 60.728 217.798 62.24 215.254 63.344C212.71 64.4 209.758 64.928 206.398 64.928ZM204.598 72.2V10.28H207.694V72.2H204.598ZM232.071 65V62.048C236.583 58.496 240.495 55.328 243.807 52.544C247.119 49.76 249.879 47.192 252.087 44.84C254.295 42.44 255.927 40.16 256.983 38C258.039 35.792 258.567 33.536 258.567 31.232C258.567 27.824 257.511 25.112 255.399 23.096C253.335 21.08 250.503 20.072 246.903 20.072C243.159 20.072 240.159 21.248 237.903 23.6C235.695 25.952 234.447 29.096 234.159 33.032L230.991 31.232C231.279 28.304 232.071 25.76 233.367 23.6C234.711 21.44 236.535 19.76 238.839 18.56C241.143 17.36 243.855 16.76 246.975 16.76C249.327 16.76 251.439 17.096 253.311 17.768C255.231 18.44 256.839 19.424 258.135 20.72C259.479 21.968 260.511 23.48 261.231 25.256C261.951 27.032 262.311 29.024 262.311 31.232C262.311 34.448 261.399 37.592 259.575 40.664C257.799 43.688 255.063 46.88 251.367 50.24C247.671 53.6 242.991 57.416 237.327 61.688V61.76C237.711 61.76 238.191 61.76 238.767 61.76C239.391 61.712 239.991 61.688 240.567 61.688C241.191 61.688 241.695 61.688 242.079 61.688H263.823V65H232.071ZM289.496 65.72C284.12 65.72 279.896 63.632 276.824 59.456C273.752 55.232 272.216 49.16 272.216 41.24C272.216 33.32 273.752 27.272 276.824 23.096C279.896 18.872 284.12 16.76 289.496 16.76C294.92 16.76 299.168 18.872 302.24 23.096C305.312 27.272 306.848 33.32 306.848 41.24C306.848 49.16 305.312 55.232 302.24 59.456C299.168 63.632 294.92 65.72 289.496 65.72ZM289.568 62.48C292.496 62.48 294.968 61.688 296.984 60.104C299 58.472 300.536 56.072 301.592 52.904C302.648 49.736 303.176 45.848 303.176 41.24C303.176 36.632 302.648 32.744 301.592 29.576C300.536 26.408 299 24.032 296.984 22.448C294.968 20.816 292.496 20 289.568 20C286.64 20 284.144 20.816 282.08 22.448C280.064 24.032 278.528 26.408 277.472 29.576C276.416 32.744 275.888 36.632 275.888 41.24C275.888 45.8 276.416 49.688 277.472 52.904C278.528 56.072 280.064 58.472 282.08 60.104C284.144 61.688 286.64 62.48 289.568 62.48ZM333.23 65.72C327.854 65.72 323.63 63.632 320.558 59.456C317.486 55.232 315.95 49.16 315.95 41.24C315.95 33.32 317.486 27.272 320.558 23.096C323.63 18.872 327.854 16.76 333.23 16.76C338.654 16.76 342.902 18.872 345.974 23.096C349.046 27.272 350.582 33.32 350.582 41.24C350.582 49.16 349.046 55.232 345.974 59.456C342.902 63.632 338.654 65.72 333.23 65.72ZM333.302 62.48C336.23 62.48 338.702 61.688 340.718 60.104C342.734 58.472 344.27 56.072 345.326 52.904C346.382 49.736 346.91 45.848 346.91 41.24C346.91 36.632 346.382 32.744 345.326 29.576C344.27 26.408 342.734 24.032 340.718 22.448C338.702 20.816 336.23 20 333.302 20C330.374 20 327.878 20.816 325.814 22.448C323.798 24.032 322.262 26.408 321.206 29.576C320.15 32.744 319.622 36.632 319.622 41.24C319.622 45.8 320.15 49.688 321.206 52.904C322.262 56.072 323.798 58.472 325.814 60.104C327.878 61.688 330.374 62.48 333.302 62.48ZM397.052 17.48L377.18 37.856L376.604 38.432L364.364 50.888V45.992L392.3 17.48H397.052ZM366.236 17.48V65H362.636V17.48H366.236ZM377.468 35.48L397.556 65H393.164L374.588 37.64L377.468 35.48Z" fill="url(#paint0_linear_1_2233)"/>
<mask id="mask0_1_2233" style="mask-type:alpha" maskUnits="userSpaceOnUse" x="3" y="10" width="395" height="63">
<path d="M22.32 64.928C19.2 64.928 16.368 64.496 13.824 63.632C11.328 62.72 9.192 61.424 7.416 59.744C5.64 58.064 4.32 56.072 3.456 53.768L6.552 51.392C7.224 53.6 8.304 55.472 9.792 57.008C11.28 58.496 13.104 59.648 15.264 60.464C17.472 61.28 19.896 61.688 22.536 61.688C26.472 61.688 29.64 60.896 32.04 59.312C34.44 57.68 35.64 55.352 35.64 52.328C35.64 50.36 34.968 48.704 33.624 47.36C32.28 45.968 29.976 44.936 26.712 44.264L17.136 42.176C14.304 41.552 12 40.712 10.224 39.656C8.496 38.552 7.224 37.232 6.408 35.696C5.64 34.16 5.256 32.432 5.256 30.512C5.256 28.16 5.928 26 7.272 24.032C8.616 22.064 10.512 20.48 12.96 19.28C15.408 18.032 18.36 17.408 21.816 17.408C25.8 17.408 29.208 18.248 32.04 19.928C34.92 21.608 37.128 24.2 38.664 27.704L35.784 29.936C34.44 26.672 32.544 24.32 30.096 22.88C27.696 21.392 24.792 20.648 21.384 20.648C18.744 20.648 16.488 21.08 14.616 21.944C12.744 22.76 11.328 23.888 10.368 25.328C9.408 26.768 8.928 28.376 8.928 30.152C8.928 31.592 9.216 32.864 9.792 33.968C10.368 35.072 11.328 36.032 12.672 36.848C14.064 37.616 15.936 38.264 18.288 38.792L27.432 40.808C31.704 41.72 34.752 43.112 36.576 44.984C38.4 46.808 39.312 49.16 39.312 52.04C39.312 54.632 38.592 56.888 37.152 58.808C35.712 60.728 33.72 62.24 31.176 63.344C28.632 64.4 25.68 64.928 22.32 64.928ZM20.52 72.2V10.28H23.616V72.2H20.52ZM58.2885 65V27.344C58.2885 26.528 58.2885 25.712 58.2885 24.896C58.3365 24.032 58.3605 23.168 58.3605 22.304C56.8245 24.224 54.9525 25.88 52.7445 27.272C50.5365 28.616 48.2565 29.6 45.9045 30.224L44.9685 26.984C46.0245 26.696 47.2005 26.264 48.4965 25.688C49.7925 25.064 51.0885 24.32 52.3845 23.456C53.7285 22.592 54.9525 21.656 56.0565 20.648C57.1605 19.64 58.0245 18.584 58.6485 17.48H61.8885V65H58.2885ZM90.7223 65.72C85.3463 65.72 81.1223 63.632 78.0503 59.456C74.9783 55.232 73.4423 49.16 73.4423 41.24C73.4423 33.32 74.9783 27.272 78.0503 23.096C81.1223 18.872 85.3463 16.76 90.7223 16.76C96.1463 16.76 100.394 18.872 103.466 23.096C106.538 27.272 108.074 33.32 108.074 41.24C108.074 49.16 106.538 55.232 103.466 59.456C100.394 63.632 96.1463 65.72 90.7223 65.72ZM90.7943 62.48C93.7223 62.48 96.1943 61.688 98.2103 60.104C100.226 58.472 101.762 56.072 102.818 52.904C103.874 49.736 104.402 45.848 104.402 41.24C104.402 36.632 103.874 32.744 102.818 29.576C101.762 26.408 100.226 24.032 98.2103 22.448C96.1943 20.816 93.7223 20 90.7943 20C87.8663 20 85.3703 20.816 83.3063 22.448C81.2903 24.032 79.7543 26.408 78.6983 29.576C77.6423 32.744 77.1143 36.632 77.1143 41.24C77.1143 45.8 77.6423 49.688 78.6983 52.904C79.7543 56.072 81.2903 58.472 83.3063 60.104C85.3703 61.688 87.8663 62.48 90.7943 62.48ZM154.545 17.48L134.673 37.856L134.097 38.432L121.857 50.888V45.992L149.793 17.48H154.545ZM123.729 17.48V65H120.129V17.48H123.729ZM134.961 35.48L155.049 65H150.657L132.081 37.64L134.961 35.48ZM180.161 44.048V47.72H158.057V44.048H180.161ZM206.398 64.928C203.278 64.928 200.446 64.496 197.902 63.632C195.406 62.72 193.27 61.424 191.494 59.744C189.718 58.064 188.398 56.072 187.534 53.768L190.63 51.392C191.302 53.6 192.382 55.472 193.87 57.008C195.358 58.496 197.182 59.648 199.342 60.464C201.55 61.28 203.974 61.688 206.614 61.688C210.55 61.688 213.718 60.896 216.118 59.312C218.518 57.68 219.718 55.352 219.718 52.328C219.718 50.36 219.046 48.704 217.702 47.36C216.358 45.968 214.054 44.936 210.79 44.264L201.214 42.176C198.382 41.552 196.078 40.712 194.302 39.656C192.574 38.552 191.302 37.232 190.486 35.696C189.718 34.16 189.334 32.432 189.334 30.512C189.334 28.16 190.006 26 191.35 24.032C192.694 22.064 194.59 20.48 197.038 19.28C199.486 18.032 202.438 17.408 205.894 17.408C209.878 17.408 213.286 18.248 216.118 19.928C218.998 21.608 221.206 24.2 222.742 27.704L219.862 29.936C218.518 26.672 216.622 24.32 214.174 22.88C211.774 21.392 208.87 20.648 205.462 20.648C202.822 20.648 200.566 21.08 198.694 21.944C196.822 22.76 195.406 23.888 194.446 25.328C193.486 26.768 193.006 28.376 193.006 30.152C193.006 31.592 193.294 32.864 193.87 33.968C194.446 35.072 195.406 36.032 196.75 36.848C198.142 37.616 200.014 38.264 202.366 38.792L211.51 40.808C215.782 41.72 218.83 43.112 220.654 44.984C222.478 46.808 223.39 49.16 223.39 52.04C223.39 54.632 222.67 56.888 221.23 58.808C219.79 60.728 217.798 62.24 215.254 63.344C212.71 64.4 209.758 64.928 206.398 64.928ZM204.598 72.2V10.28H207.694V72.2H204.598ZM232.071 65V62.048C236.583 58.496 240.495 55.328 243.807 52.544C247.119 49.76 249.879 47.192 252.087 44.84C254.295 42.44 255.927 40.16 256.983 38C258.039 35.792 258.567 33.536 258.567 31.232C258.567 27.824 257.511 25.112 255.399 23.096C253.335 21.08 250.503 20.072 246.903 20.072C243.159 20.072 240.159 21.248 237.903 23.6C235.695 25.952 234.447 29.096 234.159 33.032L230.991 31.232C231.279 28.304 232.071 25.76 233.367 23.6C234.711 21.44 236.535 19.76 238.839 18.56C241.143 17.36 243.855 16.76 246.975 16.76C249.327 16.76 251.439 17.096 253.311 17.768C255.231 18.44 256.839 19.424 258.135 20.72C259.479 21.968 260.511 23.48 261.231 25.256C261.951 27.032 262.311 29.024 262.311 31.232C262.311 34.448 261.399 37.592 259.575 40.664C257.799 43.688 255.063 46.88 251.367 50.24C247.671 53.6 242.991 57.416 237.327 61.688V61.76C237.711 61.76 238.191 61.76 238.767 61.76C239.391 61.712 239.991 61.688 240.567 61.688C241.191 61.688 241.695 61.688 242.079 61.688H263.823V65H232.071ZM289.496 65.72C284.12 65.72 279.896 63.632 276.824 59.456C273.752 55.232 272.216 49.16 272.216 41.24C272.216 33.32 273.752 27.272 276.824 23.096C279.896 18.872 284.12 16.76 289.496 16.76C294.92 16.76 299.168 18.872 302.24 23.096C305.312 27.272 306.848 33.32 306.848 41.24C306.848 49.16 305.312 55.232 302.24 59.456C299.168 63.632 294.92 65.72 289.496 65.72ZM289.568 62.48C292.496 62.48 294.968 61.688 296.984 60.104C299 58.472 300.536 56.072 301.592 52.904C302.648 49.736 303.176 45.848 303.176 41.24C303.176 36.632 302.648 32.744 301.592 29.576C300.536 26.408 299 24.032 296.984 22.448C294.968 20.816 292.496 20 289.568 20C286.64 20 284.144 20.816 282.08 22.448C280.064 24.032 278.528 26.408 277.472 29.576C276.416 32.744 275.888 36.632 275.888 41.24C275.888 45.8 276.416 49.688 277.472 52.904C278.528 56.072 280.064 58.472 282.08 60.104C284.144 61.688 286.64 62.48 289.568 62.48ZM333.23 65.72C327.854 65.72 323.63 63.632 320.558 59.456C317.486 55.232 315.95 49.16 315.95 41.24C315.95 33.32 317.486 27.272 320.558 23.096C323.63 18.872 327.854 16.76 333.23 16.76C338.654 16.76 342.902 18.872 345.974 23.096C349.046 27.272 350.582 33.32 350.582 41.24C350.582 49.16 349.046 55.232 345.974 59.456C342.902 63.632 338.654 65.72 333.23 65.72ZM333.302 62.48C336.23 62.48 338.702 61.688 340.718 60.104C342.734 58.472 344.27 56.072 345.326 52.904C346.382 49.736 346.91 45.848 346.91 41.24C346.91 36.632 346.382 32.744 345.326 29.576C344.27 26.408 342.734 24.032 340.718 22.448C338.702 20.816 336.23 20 333.302 20C330.374 20 327.878 20.816 325.814 22.448C323.798 24.032 322.262 26.408 321.206 29.576C320.15 32.744 319.622 36.632 319.622 41.24C319.622 45.8 320.15 49.688 321.206 52.904C322.262 56.072 323.798 58.472 325.814 60.104C327.878 61.688 330.374 62.48 333.302 62.48ZM397.052 17.48L377.18 37.856L376.604 38.432L364.364 50.888V45.992L392.3 17.48H397.052ZM366.236 17.48V65H362.636V17.48H366.236ZM377.468 35.48L397.556 65H393.164L374.588 37.64L377.468 35.48Z" fill="url(#paint1_linear_1_2233)"/>
</mask>
<g mask="url(#mask0_1_2233)">
<path d="M685.5 1.5L486.7 206.7C407.2 288.7 278.4 288.7 198.9 206.7L0 1.49997" stroke="url(#paint2_linear_1_2233)" stroke-width="2" stroke-miterlimit="10" stroke-linecap="round"/>
<path d="M679.398 1.2002L490.998 195.6C412.298 276.8 284.598 276.8 205.798 195.6L17.8984 1.60017" stroke="url(#paint3_linear_1_2233)" stroke-width="2" stroke-miterlimit="10" stroke-linecap="round"/>
<path d="M673 1.2998L495.5 184.5C417.4 265.1 290.9 265.1 212.8 184.5L35.4 1.49978" stroke="url(#paint4_linear_1_2233)" stroke-width="2" stroke-miterlimit="10" stroke-linecap="round"/>
<path d="M666.602 1.09961L499.702 173.4C422.302 253.2 297.002 253.2 219.702 173.4L52.8016 1.19958" stroke="url(#paint5_linear_1_2233)" stroke-width="2" stroke-miterlimit="10" stroke-linecap="round"/>
<path d="M660 1L503.8 162.2C427.2 241.3 303 241.3 226.4 162.2L70.3 1.09997" stroke="url(#paint6_linear_1_2233)" stroke-width="2" stroke-miterlimit="10" stroke-linecap="round"/>
<path d="M653.199 1.10039L508.099 150.8C432.199 229.1 309.199 229.1 233.299 150.8L87.9992 0.900366" stroke="url(#paint7_linear_1_2233)" stroke-width="2" stroke-miterlimit="10" stroke-linecap="round"/>
<path d="M647 1.1002L512.5 139.9C437.3 217.4 315.4 217.4 240.2 139.9L105.3 0.700172" stroke="url(#paint8_linear_1_2233)" stroke-width="2" stroke-miterlimit="10" stroke-linecap="round"/>
<path d="M640.5 0.799805L516.6 128.7C442.1 205.6 321.4 205.6 246.9 128.7L123.1 0.899782" stroke="url(#paint9_linear_1_2233)" stroke-width="2" stroke-miterlimit="10" stroke-linecap="round"/>
<path d="M633.801 1L521.101 117.4C447.401 193.5 327.801 193.5 254.101 117.4L141.301 0.999978" stroke="url(#paint10_linear_1_2233)" stroke-width="2" stroke-miterlimit="10" stroke-linecap="round"/>
<path d="M627.602 0.599609L524.902 106.6C451.802 182 333.502 182 260.402 106.6L158.102 0.799589" stroke="url(#paint11_linear_1_2233)" stroke-width="2" stroke-miterlimit="10" stroke-linecap="round"/>
<path d="M621.398 0.5L529.598 95.2C457.198 169.8 339.998 169.8 267.698 95.2L175.998 0.699981" stroke="url(#paint12_linear_1_2233)" stroke-width="2" stroke-miterlimit="10" stroke-linecap="round"/>
<path d="M614.801 0.599609L533.801 84.1996C462.201 158 346.101 158 274.501 84.1996L193.901 0.999591" stroke="url(#paint13_linear_1_2233)" stroke-width="2" stroke-miterlimit="10" stroke-linecap="round"/>
<path d="M607.801 1.2002L538.101 73.1002C467.201 146.3 352.301 146.3 281.301 73.1002L211.301 0.700178" stroke="url(#paint14_linear_1_2233)" stroke-width="2" stroke-miterlimit="10" stroke-linecap="round"/>
<path d="M601.602 0.799609L542.502 61.7996C472.302 134.2 358.602 134.2 288.302 61.7996L229.202 0.599593" stroke="url(#paint15_linear_1_2233)" stroke-width="2" stroke-miterlimit="10" stroke-linecap="round"/>
<path d="M594.801 1.00039L546.701 50.6004C477.201 122.3 364.601 122.3 295.101 50.6004L246.901 0.900375" stroke="url(#paint16_linear_1_2233)" stroke-width="2" stroke-miterlimit="10" stroke-linecap="round"/>
<path d="M588.5 0.799805L550.9 39.5998C482.2 110.5 370.7 110.5 302 39.5998L264.6 0.899791" stroke="url(#paint17_linear_1_2233)" stroke-width="2" stroke-miterlimit="10" stroke-linecap="round"/>
<path d="M582.102 0.600195L555.102 28.4002C487.102 98.7002 376.802 98.7002 308.702 28.4002L281.402 0.200182" stroke="url(#paint18_linear_1_2233)" stroke-width="2" stroke-miterlimit="10" stroke-linecap="round"/>
<path d="M575.602 0.700195L559.502 17.3002C492.102 86.8002 383.102 86.8002 315.702 17.3002L299.702 0.700183" stroke="url(#paint19_linear_1_2233)" stroke-width="2" stroke-miterlimit="10" stroke-linecap="round"/>
<path d="M569.199 0.5L563.799 6.1C497.199 74.8 389.199 74.8 322.599 6.09999L317.299 0.699989" stroke="url(#paint20_linear_1_2233)" stroke-width="2" stroke-miterlimit="10" stroke-linecap="round"/>
<path d="M562.5 0.399609C498.1 61.1996 399 61.0996 334.6 0.0995994" stroke="url(#paint21_linear_1_2233)" stroke-width="2" stroke-miterlimit="10" stroke-linecap="round"/>
<path d="M554 0.1C495 45.4 413.6 45.4 354.6 -8.71605e-06" stroke="url(#paint22_linear_1_2233)" stroke-width="2" stroke-miterlimit="10" stroke-linecap="round"/>
<path d="M541.199 0.500195C490.799 30.0002 428.599 29.9002 378.299 0.200188" stroke="url(#paint23_linear_1_2233)" stroke-width="2" stroke-miterlimit="10" stroke-linecap="round"/>
</g>
<defs>
<linearGradient id="paint0_linear_1_2233" x1="0.38241" y1="40.2837" x2="400.382" y2="40.2837" gradientUnits="userSpaceOnUse">
<stop stop-color="#FFAA80"/>
<stop offset="1" stop-color="#FF80BF"/>
</linearGradient>
<linearGradient id="paint1_linear_1_2233" x1="0.38241" y1="40.2837" x2="400.382" y2="40.2837" gradientUnits="userSpaceOnUse">
<stop stop-color="#FFAA80"/>
<stop offset="1" stop-color="#FF80BF"/>
</linearGradient>
<linearGradient id="paint2_linear_1_2233" x1="688.449" y1="134.838" x2="-2.92642" y2="134.838" gradientUnits="userSpaceOnUse">
<stop offset="0.4115" stop-color="#D919FF"/>
<stop offset="1" stop-color="#9A52FF"/>
</linearGradient>
<linearGradient id="paint3_linear_1_2233" x1="682.308" y1="128.873" x2="14.9992" y2="128.873" gradientUnits="userSpaceOnUse">
<stop offset="0.4115" stop-color="#D919FF"/>
<stop offset="1" stop-color="#9A52FF"/>
</linearGradient>
<linearGradient id="paint4_linear_1_2233" x1="675.779" y1="123.123" x2="32.613" y2="123.123" gradientUnits="userSpaceOnUse">
<stop offset="0.4115" stop-color="#D919FF"/>
<stop offset="1" stop-color="#9A52FF"/>
</linearGradient>
<linearGradient id="paint5_linear_1_2233" x1="669.358" y1="117.203" x2="50.0513" y2="117.203" gradientUnits="userSpaceOnUse">
<stop offset="0.4115" stop-color="#D919FF"/>
<stop offset="1" stop-color="#9A52FF"/>
</linearGradient>
<linearGradient id="paint6_linear_1_2233" x1="662.68" y1="111.273" x2="67.6108" y2="111.273" gradientUnits="userSpaceOnUse">
<stop offset="0.4115" stop-color="#D919FF"/>
<stop offset="1" stop-color="#9A52FF"/>
</linearGradient>
<linearGradient id="paint7_linear_1_2233" x1="655.771" y1="105.238" x2="85.3456" y2="105.238" gradientUnits="userSpaceOnUse">
<stop offset="0.4115" stop-color="#D919FF"/>
<stop offset="1" stop-color="#9A52FF"/>
</linearGradient>
<linearGradient id="paint8_linear_1_2233" x1="649.486" y1="99.3581" x2="102.716" y2="99.3581" gradientUnits="userSpaceOnUse">
<stop offset="0.4115" stop-color="#D919FF"/>
<stop offset="1" stop-color="#9A52FF"/>
</linearGradient>
<linearGradient id="paint9_linear_1_2233" x1="642.944" y1="93.5538" x2="120.675" y2="93.5538" gradientUnits="userSpaceOnUse">
<stop offset="0.4115" stop-color="#D919FF"/>
<stop offset="1" stop-color="#9A52FF"/>
</linearGradient>
<linearGradient id="paint10_linear_1_2233" x1="636.168" y1="87.6876" x2="138.893" y2="87.6876" gradientUnits="userSpaceOnUse">
<stop offset="0.4115" stop-color="#D919FF"/>
<stop offset="1" stop-color="#9A52FF"/>
</linearGradient>
<linearGradient id="paint11_linear_1_2233" x1="629.967" y1="81.8895" x2="155.795" y2="81.8895" gradientUnits="userSpaceOnUse">
<stop offset="0.4115" stop-color="#D919FF"/>
<stop offset="1" stop-color="#9A52FF"/>
</linearGradient>
<linearGradient id="paint12_linear_1_2233" x1="623.615" y1="75.8722" x2="173.768" y2="75.8722" gradientUnits="userSpaceOnUse">
<stop offset="0.4115" stop-color="#D919FF"/>
<stop offset="1" stop-color="#9A52FF"/>
</linearGradient>
<linearGradient id="paint13_linear_1_2233" x1="617.017" y1="70.048" x2="191.735" y2="70.048" gradientUnits="userSpaceOnUse">
<stop offset="0.4115" stop-color="#D919FF"/>
<stop offset="1" stop-color="#9A52FF"/>
</linearGradient>
<linearGradient id="paint14_linear_1_2233" x1="609.95" y1="64.3375" x2="209.189" y2="64.3375" gradientUnits="userSpaceOnUse">
<stop offset="0.4115" stop-color="#D919FF"/>
<stop offset="1" stop-color="#9A52FF"/>
</linearGradient>
<linearGradient id="paint15_linear_1_2233" x1="603.657" y1="58.3314" x2="227.131" y2="58.3314" gradientUnits="userSpaceOnUse">
<stop offset="0.4115" stop-color="#D919FF"/>
<stop offset="1" stop-color="#9A52FF"/>
</linearGradient>
<linearGradient id="paint16_linear_1_2233" x1="596.733" y1="52.6295" x2="244.921" y2="52.6295" gradientUnits="userSpaceOnUse">
<stop offset="0.4115" stop-color="#D919FF"/>
<stop offset="1" stop-color="#9A52FF"/>
</linearGradient>
<linearGradient id="paint17_linear_1_2233" x1="590.422" y1="46.7358" x2="262.657" y2="46.7358" gradientUnits="userSpaceOnUse">
<stop offset="0.4115" stop-color="#D919FF"/>
<stop offset="1" stop-color="#9A52FF"/>
</linearGradient>
<linearGradient id="paint18_linear_1_2233" x1="583.973" y1="40.6657" x2="279.523" y2="40.6643" gradientUnits="userSpaceOnUse">
<stop offset="0.4115" stop-color="#D919FF"/>
<stop offset="1" stop-color="#9A52FF"/>
</linearGradient>
<linearGradient id="paint19_linear_1_2233" x1="577.382" y1="35.0003" x2="297.923" y2="35.0003" gradientUnits="userSpaceOnUse">
<stop offset="0.4115" stop-color="#D919FF"/>
<stop offset="1" stop-color="#9A52FF"/>
</linearGradient>
<linearGradient id="paint20_linear_1_2233" x1="570.93" y1="29.1047" x2="315.657" y2="29.1047" gradientUnits="userSpaceOnUse">
<stop offset="0.4115" stop-color="#D919FF"/>
<stop offset="1" stop-color="#9A52FF"/>
</linearGradient>
<linearGradient id="paint21_linear_1_2233" x1="564.153" y1="22.9888" x2="332.981" y2="22.9888" gradientUnits="userSpaceOnUse">
<stop offset="0.4115" stop-color="#D919FF"/>
<stop offset="1" stop-color="#9A52FF"/>
</linearGradient>
<linearGradient id="paint22_linear_1_2233" x1="555.559" y1="17.0448" x2="353.083" y2="17.0448" gradientUnits="userSpaceOnUse">
<stop offset="0.4115" stop-color="#D919FF"/>
<stop offset="1" stop-color="#9A52FF"/>
</linearGradient>
<linearGradient id="paint23_linear_1_2233" x1="542.646" y1="11.3685" x2="376.804" y2="11.3685" gradientUnits="userSpaceOnUse">
<stop offset="0.4115" stop-color="#D919FF"/>
<stop offset="1" stop-color="#9A52FF"/>
</linearGradient>
</defs>
</svg>
