<svg width="50" height="43" viewBox="0 0 50 43" fill="none" xmlns="http://www.w3.org/2000/svg">
<circle cx="10" cy="10" r="10" fill="#E24CFF"/>
<path d="M27.5065 15.2714C27.6797 15.0976 27.9149 15 28.1602 15H30.5129C30.6772 15 30.7596 15.1985 30.6437 15.3149L24.3401 21.6464C23.1832 22.8028 21.6242 23.4511 20 23.4511C18.3758 23.4511 16.8168 22.8028 15.6599 21.6464L9.35282 15.3149C9.23686 15.1985 9.31931 15 9.48362 15H11.8396C12.085 15 12.3204 15.0978 12.4936 15.2717L17.25 20.0471C17.982 20.78 18.9691 21.1909 19.9976 21.1909C21.026 21.1909 22.0131 20.78 22.7451 20.0471L27.5065 15.2714ZM12.4545 33.2084C12.2813 33.3823 12.0459 33.48 11.8005 33.48H9.44455C9.28023 33.48 9.19778 33.2815 9.31375 33.1651L15.6611 26.7939C16.8179 25.6382 18.3764 24.9904 20 24.9904C21.6236 24.9904 23.1821 25.6382 24.3389 26.7939L30.6862 33.1651C30.8022 33.2815 30.7198 33.48 30.5555 33.48H28.1998C27.9542 33.48 27.7187 33.3821 27.5455 33.2081L22.75 28.3895C22.018 27.6566 21.0309 27.2457 20.0024 27.2457C18.974 27.2457 17.9869 27.6566 17.2549 28.3895L12.4545 33.2084Z" fill="#343437"/>
<path d="M47.0857 18.4793H46.0121V8.66327C46.0085 6.80136 44.4999 5.29277 42.6378 5.28906H3.37421C1.5122 5.29277 0.00361327 6.80136 0 8.66327V39.3381C0.00361327 41.2 1.5122 42.7086 3.37421 42.7123H42.638C44.4999 42.7087 46.0085 41.2001 46.0123 39.3381V30.1357H47.0859C48.6891 30.1357 50.0001 28.8247 50.0001 27.2222V21.3927C49.9999 19.7903 48.6889 18.4793 47.0857 18.4793ZM44.1718 39.3381C44.1718 39.7596 44.0018 40.1388 43.7209 40.421C43.4387 40.702 43.0596 40.8719 42.638 40.8719H3.37421C2.95283 40.8719 2.57353 40.7014 2.2913 40.421C2.01035 40.1388 1.84043 39.7597 1.84043 39.3381V8.66327C1.84043 8.24179 2.01045 7.86259 2.2913 7.58037C2.57353 7.29941 2.95263 7.12949 3.37421 7.12949H42.638C43.0595 7.12949 43.4387 7.3 43.7209 7.58037C44.0019 7.86259 44.1718 8.24169 44.1718 8.66327V18.4792H38.0368C34.8185 18.4792 32.2085 21.0883 32.2085 24.3075C32.2085 27.5258 34.8183 30.1358 38.0368 30.1358H44.1718V39.3381V39.3381ZM48.1595 27.2222C48.1595 27.8039 47.6675 28.2953 47.0858 28.2953H38.0367C35.8379 28.2953 34.0491 26.5063 34.0491 24.3076C34.0491 22.1089 35.838 20.3199 38.0367 20.3199H47.0858C47.6675 20.3199 48.1595 20.8113 48.1595 21.3929V27.2222Z" fill="#343437"/>
</svg>
