<?xml version="1.0" encoding="UTF-8" standalone="no"?>
<svg
   width="189"
   height="22"
   viewBox="0 0 189 22"
   fill="none"
   version="1.1"
   id="svg8"
   sodipodi:docname="bitfinex.svg"
   inkscape:version="1.1 (c4e8f9ed74, 2021-05-24)"
   xmlns:inkscape="http://www.inkscape.org/namespaces/inkscape"
   xmlns:sodipodi="http://sodipodi.sourceforge.net/DTD/sodipodi-0.dtd"
   xmlns="http://www.w3.org/2000/svg"
   xmlns:svg="http://www.w3.org/2000/svg">
  <defs
     id="defs12" />
  <sodipodi:namedview
     id="namedview10"
     pagecolor="#ffffff"
     bordercolor="#666666"
     borderopacity="1.0"
     inkscape:pageshadow="2"
     inkscape:pageopacity="0.0"
     inkscape:pagecheckerboard="true"
     showgrid="false"
     inkscape:zoom="4.7103039"
     inkscape:cx="99.038196"
     inkscape:cy="11.039627"
     inkscape:window-width="1920"
     inkscape:window-height="1053"
     inkscape:window-x="1080"
     inkscape:window-y="840"
     inkscape:window-maximized="1"
     inkscape:current-layer="svg8" />
  <path
     d="M13.0394 18.2217H3.9334V13.3066H13.0394C15.3149 13.3066 16.478 14.4105 16.478 15.8402C16.478 17.2185 15.3402 18.2217 13.0394 18.2217ZM12.7434 10.6743H3.9334V6.53527H12.7434C15.1415 6.53527 16.0825 7.39267 16.0825 8.56731C16.0825 9.64552 14.9935 10.6743 12.7434 10.6743ZM15.0696 11.9283C18.9057 11.8018 20.2908 9.87058 20.2908 7.76564C20.2888 5.45708 18.4827 3.55151 14.0778 3.55151H0V21.1561H14.4986C18.1106 21.1561 20.8089 19.6278 20.8089 16.3418C20.8089 14.0097 19.2991 12.0291 15.0675 11.9283H15.0696ZM24.6092 3.55151V21.1561H28.5489V3.55151H24.6092ZM45.122 6.8868H53.7925V3.55151H32.5373V6.8868H41.1971V21.1561H45.1305L45.122 6.8868ZM57.7851 3.55151V21.1561H61.7185V14.2969H70.9493V11.401H61.7185V6.58671H76.714V3.55151H57.7851ZM80.9584 3.55151V21.1561H84.8917V3.55151H80.9584ZM92.8471 7.83852L105.885 21.154H110.338V3.55151H106.456V16.2411L93.9346 3.55151H88.9372V21.1561H92.8471V7.83852ZM114.386 3.55151V21.1561H133.63V18.1981H118.319V13.3581H127.499V10.6251H118.319V6.58671H133.634V3.55151H114.386ZM160.826 3.55151H155.629L149 9.74626L142.417 3.55151H137.147L146.401 12.2284L136.8 21.1561H141.998L148.949 14.6613L155.877 21.1561H161.164L151.548 12.2026L160.826 3.55151Z"
     fill="white"
     id="path2"
     style="fill:#000000" />
  <path
     d="M188.016 0.123293C187.938 0.0889967 179.826 -1.02991 171.807 4.19595C166.829 7.44765 166.169 12.2041 166.397 15.3765C178.06 14.0689 187.752 0.502693 188.016 0.123293ZM167.188 18.9004C168.19 20.6881 175.768 24.7414 182.476 19.1512C189.184 13.561 188.621 3.38999 188.016 0.123293C187.805 0.597005 180.482 16.8533 167.188 18.8982"
     fill="#98E35D"
     id="path4" />
  <path
     d="M188.016 0.122344C187.938 0.090192 179.826 -1.03086 171.807 4.19501C166.829 7.4467 166.169 12.2031 166.397 15.3734C178.06 14.068 187.752 0.501744 188.016 0.122344Z"
     fill="#16B157"
     id="path6" />
</svg>
