<svg width="145" height="21" viewBox="0 0 145 21" fill="none" xmlns="http://www.w3.org/2000/svg">
<path d="M112.588 0.318675C115.618 0.104841 118.825 0.608618 121.275 2.51862C126.063 6.06681 126.154 14.2722 121.395 17.8856C118.488 20.14 114.574 20.6365 111.026 20.0421C108.228 19.5238 105.423 18.0596 103.958 15.5335C102.186 12.4238 102.186 8.42985 103.85 5.27671C105.56 2.18519 109.127 0.412906 112.588 0.318675ZM112.436 5.47605C110.953 6.21903 110.587 8.01668 110.642 9.53164C110.696 11.1408 110.373 13.0291 111.54 14.3375C112.381 15.4465 113.965 15.3124 115.172 15.0406C116.502 14.3556 117.031 12.8116 116.959 11.3945C116.926 9.61137 117.26 7.48028 115.857 6.0958C115.049 5.081 113.566 5.26221 112.436 5.47605Z" fill="#347DB5"/>
<path d="M125.284 0.391169C131.84 0.376672 138.393 0.40929 144.949 0.373047C144.989 1.90612 144.985 3.44283 144.949 4.9759C142.977 4.95416 141.002 4.95416 139.031 4.97953C139.016 10.0427 139.045 15.1058 139.013 20.169C136.385 20.1617 133.757 20.1726 131.133 20.1581C131.126 15.0949 131.148 10.0282 131.115 4.96141C129.169 4.96503 127.226 4.96503 125.284 4.95778C125.287 3.43558 125.287 1.91337 125.284 0.391169Z" fill="#347DB5"/>
<path d="M3.2826 1.26047C5.79424 0.173186 8.5922 0.307284 11.2669 0.347152C12.9631 0.368897 14.5977 0.879924 16.1887 1.41994C16.1815 2.8008 16.1706 4.17803 16.138 5.55527C13.9888 4.8449 11.7018 4.5006 9.44391 4.75792C8.54871 4.82316 7.89271 5.4864 7.16423 5.92494C9.95494 7.77696 13.6445 7.46889 16.3047 9.53837C17.9538 10.8395 18.2365 13.0503 18.0444 15.0111C18.0806 17.0044 16.3518 18.465 14.6738 19.208C12.0135 20.4584 9.01262 20.2808 6.15305 20.23C4.21767 20.2119 2.34391 19.6719 0.502769 19.1319C0.510017 17.5154 0.520891 15.8954 0.564383 14.2789C3.94948 15.0401 7.64263 16.352 10.977 14.6812C10.5783 14.2173 10.2594 13.6809 9.80634 13.2678C7.13523 11.6803 3.5798 11.9775 1.26387 9.73771C-0.160477 8.41121 -0.135108 6.31637 0.165709 4.54046C0.640492 3.05088 1.83651 1.84036 3.2826 1.26047Z" fill="#347DB5"/>
<path d="M20.0705 0.383891C24.7458 0.398388 29.4212 0.387515 34.0929 0.383891C35.2526 0.373018 36.4016 0.514365 37.5468 0.644839C37.5215 2.00395 37.5215 3.36306 37.5468 4.72217C34.2705 5.18608 30.9542 4.87802 27.6597 4.965C27.6597 5.93269 27.667 6.904 27.6815 7.87169C30.3526 7.87169 33.0237 7.87531 35.6948 7.88619C35.6876 9.26342 35.7093 10.6443 35.7274 12.0251C33.0599 12.4166 30.3635 12.2063 27.6815 12.2426C27.667 13.3589 27.6634 14.4752 27.6561 15.5951C30.9542 15.6676 34.2705 15.374 37.5468 15.8596C37.5251 17.2079 37.5251 18.5597 37.5468 19.908C36.3943 20.0095 35.249 20.1798 34.0929 20.1762C29.4175 20.1689 24.7422 20.1544 20.0668 20.1762C20.027 13.58 20.0197 6.98011 20.0705 0.383891Z" fill="#347DB5"/>
<path d="M44.52 1.01095C46.9664 0.0251402 49.6483 0.333206 52.218 0.351327C53.5988 0.445559 55.0667 0.467304 56.3207 1.11968C57.118 2.26496 56.5418 3.77991 56.4765 5.06654C53.9649 5.05204 51.3264 4.19671 48.909 5.20788C45.1796 6.76633 44.7411 12.8225 48.1841 14.9065C50.9857 16.3997 54.1497 14.8666 57.1216 15.066C57.1144 16.4106 57.1071 17.7588 57.1108 19.1071C53.8054 20.2306 50.2609 20.4698 46.8033 20.1001C43.2768 19.6 39.8627 17.3275 38.674 13.8736C38.1086 12.2535 38.1992 10.5066 38.2644 8.81768C38.4746 5.23688 41.2364 2.20334 44.52 1.01095Z" fill="#347DB5"/>
<path d="M65.885 0.619567C69.5854 0.264386 73.3365 0.264387 77.0406 0.608695C79.516 7.04182 82.0964 13.4387 84.4087 19.9298C81.8717 20.0023 79.3347 19.9769 76.8014 19.9516C76.2903 18.7193 75.7721 17.4907 75.1958 16.2874C72.6878 16.32 70.1761 16.3164 67.6681 16.2946C67.1462 17.5015 66.6569 18.7266 66.1387 19.9407C63.5835 20.2669 60.9849 20.2886 58.4407 19.8827C60.9668 13.4786 63.3915 7.03457 65.885 0.619567ZM69.5528 11.9056C70.7923 11.9346 72.0354 11.931 73.2785 11.9165C73.1191 10.0174 72.3362 8.27046 71.4084 6.63228C70.5712 8.30308 69.8826 10.0572 69.5528 11.9056Z" fill="#347DB5"/>
<path d="M85.7498 0.6593C88.3629 0.275124 91.034 0.275125 93.6543 0.612185C93.6362 5.36364 93.6543 10.1115 93.6507 14.8629C96.5719 14.9209 99.5076 14.6962 102.414 15.1021C102.378 16.7331 102.382 18.3604 102.396 19.9913C98.9676 20.3429 95.5136 20.0928 92.0705 20.1689C89.9612 20.1798 87.841 20.2414 85.7498 19.8971C85.7715 13.4857 85.7715 7.07068 85.7498 0.6593Z" fill="#347DB5"/>
</svg>
