<svg width="21" height="16" viewBox="0 0 21 16" fill="none" xmlns="http://www.w3.org/2000/svg">
<path d="M17.5088 1.34C16.1708 0.714 14.7402 0.259052 13.2446 0C13.0609 0.332095 12.8463 0.77877 12.6983 1.1341C11.1084 0.894993 9.53312 0.894993 7.97243 1.1341C7.8245 0.77877 7.60503 0.332095 7.41971 0C5.92243 0.259052 4.49018 0.715671 3.15222 1.34331C0.453554 5.42136 -0.278011 9.39811 0.0877725 13.3184C1.87767 14.655 3.6123 15.467 5.31766 15.9984C5.73872 15.4189 6.11425 14.8028 6.43776 14.1536C5.82162 13.9195 5.23149 13.6306 4.67389 13.2952C4.82182 13.1856 4.96652 13.071 5.10632 12.9531C8.50728 14.5438 12.2025 14.5438 15.5628 12.9531C15.7043 13.071 15.849 13.1856 15.9953 13.2952C15.436 13.6322 14.8443 13.9211 14.2281 14.1553C14.5517 14.8028 14.9256 15.4205 15.3482 16C17.0552 15.4687 18.7915 14.6567 20.5814 13.3184C21.0106 8.77378 19.8482 4.83355 17.5088 1.34ZM6.90109 10.9075C5.88016 10.9075 5.04291 9.95435 5.04291 8.7937C5.04291 7.63306 5.86228 6.67831 6.90109 6.67831C7.93993 6.67831 8.77715 7.63138 8.75928 8.7937C8.76089 9.95435 7.93993 10.9075 6.90109 10.9075ZM13.7681 10.9075C12.7471 10.9075 11.9099 9.95435 11.9099 8.7937C11.9099 7.63306 12.7292 6.67831 13.7681 6.67831C14.8069 6.67831 15.6441 7.63138 15.6263 8.7937C15.6263 9.95435 14.8069 10.9075 13.7681 10.9075Z" fill="#4153E4"/>
</svg>
