<?xml version="1.0" encoding="UTF-8" standalone="no"?>
<svg
   width="128"
   height="30"
   viewBox="0 0 128 30"
   fill="none"
   version="1.1"
   id="svg6"
   sodipodi:docname="liquid.svg"
   inkscape:version="1.1 (c4e8f9ed74, 2021-05-24)"
   xmlns:inkscape="http://www.inkscape.org/namespaces/inkscape"
   xmlns:sodipodi="http://sodipodi.sourceforge.net/DTD/sodipodi-0.dtd"
   xmlns="http://www.w3.org/2000/svg"
   xmlns:svg="http://www.w3.org/2000/svg">
  <defs
     id="defs10" />
  <sodipodi:namedview
     id="namedview8"
     pagecolor="#ffffff"
     bordercolor="#666666"
     borderopacity="1.0"
     inkscape:pageshadow="2"
     inkscape:pageopacity="0.0"
     inkscape:pagecheckerboard="0"
     showgrid="false"
     inkscape:zoom="6.9550581"
     inkscape:cx="64.054102"
     inkscape:cy="14.953146"
     inkscape:window-width="1920"
     inkscape:window-height="1053"
     inkscape:window-x="1080"
     inkscape:window-y="840"
     inkscape:window-maximized="1"
     inkscape:current-layer="svg6" />
  <path
     d="M9.9786 4.39391e-06C9.68725 -0.000802349 9.40752 0.109512 9.20098 0.306658C8.99445 0.503804 8.87806 0.771616 8.87743 1.05113V5.46372C8.87848 5.8937 9.05758 6.30566 9.37531 6.60891C9.69304 6.91217 10.1234 7.08187 10.5715 7.08066H13.8766C14.3251 7.07945 14.7557 7.24921 15.0737 7.55258C15.3917 7.85596 15.5711 8.26811 15.5723 8.69836V13.4937C15.5729 13.9242 15.7519 14.3369 16.0698 14.6407C16.3877 14.9446 16.8185 15.1147 17.2672 15.1137H22.2925C23.2254 15.1116 23.9836 15.8349 23.9866 16.7299V19.8833C23.9873 20.3136 24.1663 20.7261 24.4842 21.0297C24.8022 21.3333 25.2329 21.5031 25.6815 21.5017H30.3007C30.5923 21.5025 30.8722 21.3921 31.0789 21.1948C31.2856 20.9975 31.4021 20.7295 31.4027 20.4498V1.05341C31.4025 0.773694 31.2864 0.505528 31.08 0.307955C30.8736 0.110382 30.5939 -0.000398723 30.3023 4.39391e-06H9.9786ZM8.76343 20.4924V10.43C8.76322 9.99987 8.58482 9.58748 8.26751 9.28363C7.95021 8.97978 7.52002 8.8094 7.0717 8.81H1.10196C0.810131 8.80919 0.529954 8.9198 0.323228 9.11741C0.116502 9.31503 0.00020904 9.58343 0 9.8634V28.9264C0.00218209 29.5086 0.495163 29.9791 1.10196 29.9783H21.4249C21.7164 29.9791 21.9962 29.8687 22.2028 29.6714C22.4093 29.4741 22.5256 29.2061 22.5261 28.9264V23.7285C22.525 23.2983 22.3458 22.8862 22.028 22.5828C21.7101 22.2794 21.2796 22.1096 20.8312 22.1108H10.4607C9.52713 22.1129 8.76843 21.3888 8.76581 20.4931L8.76343 20.4924Z"
     fill="#0090FF"
     id="path2" />
  <path
     fill-rule="evenodd"
     clip-rule="evenodd"
     d="M76.9895 21.9256C75.5188 23.0226 73.6712 23.6757 71.6647 23.6757C66.8665 23.6757 62.9768 19.9407 62.9768 15.3332C62.9768 10.7258 66.8665 6.9907 71.6647 6.9907C73.6646 6.9907 75.6175 7.59051 76.9895 9.19441V6.9907H81.1934V29.9999H76.9895V21.9256V21.9256ZM71.9449 19.9081C74.5762 19.9081 76.7093 17.8599 76.7093 15.3332C76.7093 12.8066 74.5762 10.7583 71.9449 10.7583C69.3137 10.7583 67.1806 12.8066 67.1806 15.3332C67.1806 17.8599 69.3137 19.9081 71.9449 19.9081ZM123.091 8.74082V8.74082V0.666539H127.295V23.4066H123.091V21.472C121.719 23.0759 119.767 23.6757 117.767 23.6757C112.968 23.6757 109.079 19.9407 109.079 15.3332C109.079 10.7258 112.968 6.9907 117.767 6.9907C119.773 6.9907 121.621 7.64386 123.091 8.74082ZM118.047 10.7583C115.416 10.7583 113.283 12.8066 113.283 15.3332C113.283 17.8599 115.416 19.9081 118.047 19.9081C120.678 19.9081 122.811 17.8599 122.811 15.3332C122.811 12.8066 120.678 10.7583 118.047 10.7583ZM40.136 0.970151H44.6341V17.9171C44.6098 18.459 44.7476 18.8739 45.0476 19.162C45.3476 19.45 45.7919 19.5941 46.3805 19.5941H55.1131V23.54H44.6341C43.4756 23.54 42.4483 23.1099 41.5524 22.2496C40.6565 21.3892 40.1843 20.3348 40.136 19.0862V0.970151ZM58.0723 0.531982H60.3144C60.7787 0.531982 61.1551 0.893096 61.1551 1.33855V3.493C61.1551 3.93846 60.7787 4.29957 60.3144 4.29957H58.0723C57.608 4.29957 57.2316 3.93846 57.2316 3.493V1.33855C57.2316 0.893096 57.608 0.531982 58.0723 0.531982ZM57.0914 6.9907H61.2952V23.5412H57.0914V6.9907ZM103.894 0.531982H106.136C106.6 0.531982 106.977 0.893096 106.977 1.33855V3.493C106.977 3.93846 106.6 4.29957 106.136 4.29957H103.894C103.43 4.29957 103.053 3.93846 103.053 3.493V1.33855C103.053 0.893096 103.43 0.531982 103.894 0.531982ZM102.913 6.9907H107.117V23.5412H102.913V6.9907ZM83.6456 6.9907H87.8283C87.8283 10.1207 87.8283 12.7146 87.8283 14.7725C87.8283 17.6177 88.6337 19.9081 91.8009 19.9081C94.968 19.9081 96.0097 17.527 96.0097 14.7725C96.0097 13.0781 96.0097 10.4842 96.0097 6.9907H100.166V12.6133V23.2709H96.5879L96.2898 21.2872C94.8178 22.7532 93.0144 23.4862 90.8796 23.4862C87.6688 23.4862 83.8009 22.0367 83.6456 15.3332C83.6456 12.7514 83.6456 9.97055 83.6456 6.9907Z"
     fill="white"
     id="path4"
     style="fill:#000000" />
</svg>
