<svg width="520" height="543" viewBox="0 0 520 543" fill="none" xmlns="http://www.w3.org/2000/svg">
<g opacity="0.7">
<path d="M314.172 260.037L333.948 279.862L302.711 288.198L282.935 268.373L314.172 260.037Z" stroke="#111112" stroke-width="2" stroke-miterlimit="10" stroke-dasharray="1 3"/>
<path d="M333.949 279.863L353.725 299.463L322.488 308.023L302.712 288.198L333.949 279.863Z" stroke="#111112" stroke-width="2" stroke-miterlimit="10" stroke-dasharray="1 3"/>
<path d="M353.725 299.462L373.276 319.287L342.264 327.848L322.488 308.023L353.725 299.462Z" stroke="#111112" stroke-width="2" stroke-miterlimit="10" stroke-dasharray="1 3"/>
<path d="M373.276 319.286L393.052 339.111L362.04 347.672L342.264 327.847L373.276 319.286Z" stroke="#111112" stroke-width="2" stroke-miterlimit="10" stroke-dasharray="1 3"/>
<path d="M393.052 339.112L412.828 358.937L381.815 367.272L362.039 347.673L393.052 339.112Z" stroke="#111112" stroke-width="2" stroke-miterlimit="10" stroke-dasharray="1 3"/>
<path d="M412.829 358.937L432.605 378.762L401.592 387.098L381.816 367.273L412.829 358.937Z" stroke="#111112" stroke-width="2" stroke-miterlimit="10" stroke-dasharray="1 3"/>
<path d="M432.604 378.763L452.38 398.588L421.368 406.923L401.592 387.098L432.604 378.763Z" stroke="#111112" stroke-width="2" stroke-miterlimit="10" stroke-dasharray="1 3"/>
<path d="M452.38 398.587L472.157 418.412L440.919 426.748L421.368 406.923L452.38 398.587Z" stroke="#111112" stroke-width="2" stroke-miterlimit="10" stroke-dasharray="1 3"/>
<path d="M472.157 418.412L491.933 438.237L460.696 446.572L440.919 426.747L472.157 418.412Z" stroke="#111112" stroke-width="2" stroke-miterlimit="10" stroke-dasharray="1 3"/>
<path d="M491.933 438.237L511.709 458.061L480.471 466.397L460.695 446.572L491.933 438.237Z" stroke="#111112" stroke-width="2" stroke-miterlimit="10" stroke-dasharray="1 3"/>
<path d="M282.936 268.373L302.712 288.198L271.475 296.533L251.698 276.708L282.936 268.373Z" stroke="#111112" stroke-width="2" stroke-miterlimit="10" stroke-dasharray="1 3"/>
<path d="M302.711 288.197L322.487 308.022L291.25 316.358L271.474 296.533L302.711 288.197Z" stroke="#111112" stroke-width="2" stroke-miterlimit="10" stroke-dasharray="1 3"/>
<path d="M322.488 308.021L342.264 327.847L311.027 336.182L291.251 316.357L322.488 308.021Z" stroke="#111112" stroke-width="2" stroke-miterlimit="10" stroke-dasharray="1 3"/>
<path d="M342.263 327.846L362.039 347.671L330.802 356.007L311.026 336.182L342.263 327.846Z" stroke="#111112" stroke-width="2" stroke-miterlimit="10" stroke-dasharray="1 3"/>
<path d="M362.04 347.674L381.816 367.274L350.579 375.835L330.803 356.01L362.04 347.674Z" stroke="#111112" stroke-width="2" stroke-miterlimit="10" stroke-dasharray="1 3"/>
<path d="M381.816 367.271L401.592 387.097L370.355 395.657L350.579 375.832L381.816 367.271Z" stroke="#111112" stroke-width="2" stroke-miterlimit="10" stroke-dasharray="1 3"/>
<path d="M401.592 387.099L421.368 406.924L390.131 415.485L370.354 395.66L401.592 387.099Z" stroke="#111112" stroke-width="2" stroke-miterlimit="10" stroke-dasharray="1 3"/>
<path d="M421.368 406.923L440.919 426.748L409.906 435.084L390.13 415.484L421.368 406.923Z" stroke="#111112" stroke-width="2" stroke-miterlimit="10" stroke-dasharray="1 3"/>
<path d="M440.919 426.748L460.695 446.573L429.682 454.909L409.906 435.083L440.919 426.748Z" stroke="#111112" stroke-width="2" stroke-miterlimit="10" stroke-dasharray="1 3"/>
<path d="M460.696 446.572L480.472 466.397L449.459 474.733L429.683 454.908L460.696 446.572Z" stroke="#111112" stroke-width="2" stroke-miterlimit="10" stroke-dasharray="1 3"/>
<path d="M251.698 276.709L271.474 296.534L240.237 304.869L220.461 285.044L251.698 276.709Z" stroke="#111112" stroke-width="2" stroke-miterlimit="10" stroke-dasharray="1 3"/>
<path d="M271.474 296.533L291.25 316.358L260.013 324.694L240.237 304.869L271.474 296.533Z" stroke="#111112" stroke-width="2" stroke-miterlimit="10" stroke-dasharray="1 3"/>
<path d="M291.25 316.359L311.026 336.184L279.789 344.519L260.013 324.694L291.25 316.359Z" stroke="#111112" stroke-width="2" stroke-miterlimit="10" stroke-dasharray="1 3"/>
<path d="M311.027 336.182L330.803 356.007L299.566 364.343L279.79 344.518L311.027 336.182Z" stroke="#111112" stroke-width="2" stroke-miterlimit="10" stroke-dasharray="1 3"/>
<path d="M330.803 356.008L350.579 375.833L319.342 384.169L299.565 364.344L330.803 356.008Z" stroke="#111112" stroke-width="2" stroke-miterlimit="10" stroke-dasharray="1 3"/>
<path d="M350.578 375.835L370.354 395.66L339.117 403.996L319.341 384.171L350.578 375.835Z" stroke="#111112" stroke-width="2" stroke-miterlimit="10" stroke-dasharray="1 3"/>
<path d="M370.354 395.659L390.13 415.484L358.893 423.819L339.117 403.994L370.354 395.659Z" stroke="#111112" stroke-width="2" stroke-miterlimit="10" stroke-dasharray="1 3"/>
<path d="M390.131 415.483L409.907 435.083L378.67 443.643L358.894 423.818L390.131 415.483Z" stroke="#111112" stroke-width="2" stroke-miterlimit="10" stroke-dasharray="1 3"/>
<path d="M409.907 435.083L429.683 454.908L398.446 463.469L378.67 443.644L409.907 435.083Z" stroke="#111112" stroke-width="2" stroke-miterlimit="10" stroke-dasharray="1 3"/>
<path d="M429.683 454.909L449.459 474.734L418.222 483.295L398.446 463.47L429.683 454.909Z" stroke="#111112" stroke-width="2" stroke-miterlimit="10" stroke-dasharray="1 3"/>
<path d="M220.461 285.043L240.237 304.868L209.225 313.204L189.449 293.379L220.461 285.043Z" stroke="#111112" stroke-width="2" stroke-miterlimit="10" stroke-dasharray="1 3"/>
<path d="M240.237 304.869L260.013 324.694L229.001 333.03L209.225 313.205L240.237 304.869Z" stroke="#111112" stroke-width="2" stroke-miterlimit="10" stroke-dasharray="1 3"/>
<path d="M260.013 324.695L279.789 344.52L248.776 352.855L229 333.03L260.013 324.695Z" stroke="#111112" stroke-width="2" stroke-miterlimit="10" stroke-dasharray="1 3"/>
<path d="M279.789 344.519L299.565 364.344L268.552 372.679L248.776 352.854L279.789 344.519Z" stroke="#111112" stroke-width="2" stroke-miterlimit="10" stroke-dasharray="1 3"/>
<path d="M299.565 364.344L319.341 384.169L288.104 392.504L268.552 372.679L299.565 364.344Z" stroke="#111112" stroke-width="2" stroke-miterlimit="10" stroke-dasharray="1 3"/>
<path d="M319.341 384.169L339.117 403.994L307.88 412.329L288.104 392.504L319.341 384.169Z" stroke="#111112" stroke-width="2" stroke-miterlimit="10" stroke-dasharray="1 3"/>
<path d="M339.118 403.995L358.894 423.82L327.657 432.155L307.881 412.33L339.118 403.995Z" stroke="#111112" stroke-width="2" stroke-miterlimit="10" stroke-dasharray="1 3"/>
<path d="M358.893 423.82L378.669 443.645L347.432 451.98L327.656 432.155L358.893 423.82Z" stroke="#111112" stroke-width="2" stroke-miterlimit="10" stroke-dasharray="1 3"/>
<path d="M378.67 443.645L398.446 463.47L367.209 471.805L347.433 451.98L378.67 443.645Z" stroke="#111112" stroke-width="2" stroke-miterlimit="10" stroke-dasharray="1 3"/>
<path d="M398.445 463.469L418.221 483.294L386.984 491.629L367.208 471.804L398.445 463.469Z" stroke="#111112" stroke-width="2" stroke-miterlimit="10" stroke-dasharray="1 3"/>
<path d="M189.448 293.379L209.225 313.204L177.987 321.539L158.211 301.714L189.448 293.379Z" stroke="#111112" stroke-width="2" stroke-miterlimit="10" stroke-dasharray="1 3"/>
<path d="M209.224 313.204L229 333.029L197.763 341.364L177.987 321.539L209.224 313.204Z" stroke="#111112" stroke-width="2" stroke-miterlimit="10" stroke-dasharray="1 3"/>
<path d="M229 333.03L248.776 352.855L217.539 361.19L197.763 341.365L229 333.03Z" stroke="#111112" stroke-width="2" stroke-miterlimit="10" stroke-dasharray="1 3"/>
<path d="M248.777 352.854L268.553 372.68L237.316 381.015L217.54 361.19L248.777 352.854Z" stroke="#111112" stroke-width="2" stroke-miterlimit="10" stroke-dasharray="1 3"/>
<path d="M268.553 372.679L288.104 392.504L257.092 400.84L237.316 381.015L268.553 372.679Z" stroke="#111112" stroke-width="2" stroke-miterlimit="10" stroke-dasharray="1 3"/>
<path d="M288.104 392.504L307.88 412.329L276.868 420.665L257.092 400.84L288.104 392.504Z" stroke="#111112" stroke-width="2" stroke-miterlimit="10" stroke-dasharray="1 3"/>
<path d="M307.88 412.328L327.656 432.153L296.644 440.489L276.867 420.664L307.88 412.328Z" stroke="#111112" stroke-width="2" stroke-miterlimit="10" stroke-dasharray="1 3"/>
<path d="M327.656 432.155L347.432 451.98L316.419 460.316L296.643 440.491L327.656 432.155Z" stroke="#111112" stroke-width="2" stroke-miterlimit="10" stroke-dasharray="1 3"/>
<path d="M347.432 451.979L367.209 471.804L336.196 480.14L316.42 460.315L347.432 451.979Z" stroke="#111112" stroke-width="2" stroke-miterlimit="10" stroke-dasharray="1 3"/>
<path d="M367.208 471.804L386.984 491.629L355.747 499.964L336.196 480.139L367.208 471.804Z" stroke="#111112" stroke-width="2" stroke-miterlimit="10" stroke-dasharray="1 3"/>
<path d="M158.211 301.715L177.987 321.54L146.75 330.101L126.974 310.276L158.211 301.715Z" stroke="#111112" stroke-width="2" stroke-miterlimit="10" stroke-dasharray="1 3"/>
<path d="M177.987 321.539L197.763 341.364L166.526 349.925L146.75 330.1L177.987 321.539Z" stroke="#111112" stroke-width="2" stroke-miterlimit="10" stroke-dasharray="1 3"/>
<path d="M197.764 341.366L217.54 361.191L186.302 369.526L166.526 349.927L197.764 341.366Z" stroke="#111112" stroke-width="2" stroke-miterlimit="10" stroke-dasharray="1 3"/>
<path d="M217.539 361.191L237.316 381.016L206.078 389.352L186.302 369.527L217.539 361.191Z" stroke="#111112" stroke-width="2" stroke-miterlimit="10" stroke-dasharray="1 3"/>
<path d="M237.315 381.016L257.091 400.841L225.854 409.176L206.078 389.351L237.315 381.016Z" stroke="#111112" stroke-width="2" stroke-miterlimit="10" stroke-dasharray="1 3"/>
<path d="M257.092 400.84L276.868 420.665L245.631 429L225.855 409.176L257.092 400.84Z" stroke="#111112" stroke-width="2" stroke-miterlimit="10" stroke-dasharray="1 3"/>
<path d="M276.868 420.665L296.644 440.49L265.407 448.826L245.631 429.001L276.868 420.665Z" stroke="#111112" stroke-width="2" stroke-miterlimit="10" stroke-dasharray="1 3"/>
<path d="M296.644 440.489L316.42 460.314L285.183 468.649L265.407 448.824L296.644 440.489Z" stroke="#111112" stroke-width="2" stroke-miterlimit="10" stroke-dasharray="1 3"/>
<path d="M316.42 460.315L336.196 480.14L304.959 488.476L285.183 468.651L316.42 460.315Z" stroke="#111112" stroke-width="2" stroke-miterlimit="10" stroke-dasharray="1 3"/>
<path d="M336.195 480.14L355.747 499.965L324.734 508.3L304.958 488.475L336.195 480.14Z" stroke="#111112" stroke-width="2" stroke-miterlimit="10" stroke-dasharray="1 3"/>
<path d="M126.974 310.275L146.75 330.1L115.738 338.436L95.9617 318.611L126.974 310.275Z" stroke="#111112" stroke-width="2" stroke-miterlimit="10" stroke-dasharray="1 3"/>
<path d="M146.75 330.1L166.526 349.925L135.289 358.26L115.737 338.435L146.75 330.1Z" stroke="#111112" stroke-width="2" stroke-miterlimit="10" stroke-dasharray="1 3"/>
<path d="M166.526 349.926L186.302 369.526L155.065 378.087L135.289 358.262L166.526 349.926Z" stroke="#111112" stroke-width="2" stroke-miterlimit="10" stroke-dasharray="1 3"/>
<path d="M186.303 369.526L206.079 389.351L174.842 397.912L155.066 378.087L186.303 369.526Z" stroke="#111112" stroke-width="2" stroke-miterlimit="10" stroke-dasharray="1 3"/>
<path d="M206.079 389.351L225.855 409.176L194.618 417.736L174.842 397.911L206.079 389.351Z" stroke="#111112" stroke-width="2" stroke-miterlimit="10" stroke-dasharray="1 3"/>
<path d="M225.855 409.176L245.631 429.001L214.393 437.337L194.617 417.737L225.855 409.176Z" stroke="#111112" stroke-width="2" stroke-miterlimit="10" stroke-dasharray="1 3"/>
<path d="M245.631 429L265.407 448.826L234.169 457.161L214.393 437.336L245.631 429Z" stroke="#111112" stroke-width="2" stroke-miterlimit="10" stroke-dasharray="1 3"/>
<path d="M265.406 448.825L285.182 468.65L253.945 476.986L234.169 457.161L265.406 448.825Z" stroke="#111112" stroke-width="2" stroke-miterlimit="10" stroke-dasharray="1 3"/>
<path d="M285.183 468.649L304.959 488.474L273.722 496.81L253.946 476.985L285.183 468.649Z" stroke="#111112" stroke-width="2" stroke-miterlimit="10" stroke-dasharray="1 3"/>
<path d="M304.959 488.476L324.735 508.301L293.498 516.637L273.722 496.812L304.959 488.476Z" stroke="#111112" stroke-width="2" stroke-miterlimit="10" stroke-dasharray="1 3"/>
<path d="M95.9621 318.611L115.738 338.436L84.5009 346.772L64.7249 326.947L95.9621 318.611Z" stroke="#111112" stroke-width="2" stroke-miterlimit="10" stroke-dasharray="1 3"/>
<path d="M115.738 338.436L135.289 358.261L104.277 366.596L84.5007 346.771L115.738 338.436Z" stroke="#111112" stroke-width="2" stroke-miterlimit="10" stroke-dasharray="1 3"/>
<path d="M135.289 358.26L155.065 378.085L124.053 386.421L104.277 366.596L135.289 358.26Z" stroke="#111112" stroke-width="2" stroke-miterlimit="10" stroke-dasharray="1 3"/>
<path d="M155.065 378.087L174.841 397.912L143.829 406.247L124.052 386.422L155.065 378.087Z" stroke="#111112" stroke-width="2" stroke-miterlimit="10" stroke-dasharray="1 3"/>
<path d="M174.841 397.912L194.617 417.737L163.604 426.072L143.828 406.248L174.841 397.912Z" stroke="#111112" stroke-width="2" stroke-miterlimit="10" stroke-dasharray="1 3"/>
<path d="M194.618 417.736L214.394 437.335L183.381 445.896L163.605 426.071L194.618 417.736Z" stroke="#111112" stroke-width="2" stroke-miterlimit="10" stroke-dasharray="1 3"/>
<path d="M214.393 437.337L234.169 457.162L202.932 465.723L183.381 445.898L214.393 437.337Z" stroke="#111112" stroke-width="2" stroke-miterlimit="10" stroke-dasharray="1 3"/>
<path d="M234.17 457.16L253.946 476.985L222.709 485.546L202.933 465.721L234.17 457.16Z" stroke="#111112" stroke-width="2" stroke-miterlimit="10" stroke-dasharray="1 3"/>
<path d="M253.946 476.986L273.722 496.811L242.485 505.146L222.708 485.546L253.946 476.986Z" stroke="#111112" stroke-width="2" stroke-miterlimit="10" stroke-dasharray="1 3"/>
<path d="M273.722 496.811L293.498 516.636L262.26 524.972L242.484 505.147L273.722 496.811Z" stroke="#111112" stroke-width="2" stroke-miterlimit="10" stroke-dasharray="1 3"/>
<path d="M64.7248 326.947L84.5008 346.772L53.2636 355.107L33.4875 335.282L64.7248 326.947Z" stroke="#111112" stroke-width="2" stroke-miterlimit="10" stroke-dasharray="1 3"/>
<path d="M84.5006 346.773L104.277 366.598L73.0395 374.934L53.2634 355.109L84.5006 346.773Z" stroke="#111112" stroke-width="2" stroke-miterlimit="10" stroke-dasharray="1 3"/>
<path d="M104.276 366.596L124.052 386.421L92.8151 394.757L73.0391 374.932L104.276 366.596Z" stroke="#111112" stroke-width="2" stroke-miterlimit="10" stroke-dasharray="1 3"/>
<path d="M124.052 386.421L143.828 406.246L112.591 414.582L92.8149 394.756L124.052 386.421Z" stroke="#111112" stroke-width="2" stroke-miterlimit="10" stroke-dasharray="1 3"/>
<path d="M143.829 406.247L163.605 426.072L132.368 434.408L112.592 414.583L143.829 406.247Z" stroke="#111112" stroke-width="2" stroke-miterlimit="10" stroke-dasharray="1 3"/>
<path d="M163.605 426.072L183.381 445.897L152.144 454.232L132.368 434.407L163.605 426.072Z" stroke="#111112" stroke-width="2" stroke-miterlimit="10" stroke-dasharray="1 3"/>
<path d="M183.381 445.896L202.932 465.721L171.92 474.057L152.144 454.232L183.381 445.896Z" stroke="#111112" stroke-width="2" stroke-miterlimit="10" stroke-dasharray="1 3"/>
<path d="M202.932 465.722L222.708 485.547L191.696 493.882L171.919 474.057L202.932 465.722Z" stroke="#111112" stroke-width="2" stroke-miterlimit="10" stroke-dasharray="1 3"/>
<path d="M222.709 485.546L242.485 505.145L211.472 513.706L191.696 493.881L222.709 485.546Z" stroke="#111112" stroke-width="2" stroke-miterlimit="10" stroke-dasharray="1 3"/>
<path d="M242.484 505.146L262.261 524.971L231.248 533.532L211.472 513.707L242.484 505.146Z" stroke="#111112" stroke-width="2" stroke-miterlimit="10" stroke-dasharray="1 3"/>
<path d="M33.4872 335.283L53.2633 355.108L22.0261 363.443L2.25 343.618L33.4872 335.283Z" stroke="#111112" stroke-width="2" stroke-miterlimit="10" stroke-dasharray="1 3"/>
<path d="M53.2629 355.107L73.039 374.932L41.8017 383.268L22.0256 363.443L53.2629 355.107Z" stroke="#111112" stroke-width="2" stroke-miterlimit="10" stroke-dasharray="1 3"/>
<path d="M73.0399 374.933L92.816 394.758L61.5788 403.093L41.8027 383.268L73.0399 374.933Z" stroke="#111112" stroke-width="2" stroke-miterlimit="10" stroke-dasharray="1 3"/>
<path d="M92.8158 394.757L112.592 414.582L81.3547 422.917L61.5786 403.092L92.8158 394.757Z" stroke="#111112" stroke-width="2" stroke-miterlimit="10" stroke-dasharray="1 3"/>
<path d="M112.592 414.582L132.368 434.407L101.131 442.742L81.3545 422.917L112.592 414.582Z" stroke="#111112" stroke-width="2" stroke-miterlimit="10" stroke-dasharray="1 3"/>
<path d="M132.367 434.408L152.143 454.233L120.906 462.569L101.13 442.744L132.367 434.408Z" stroke="#111112" stroke-width="2" stroke-miterlimit="10" stroke-dasharray="1 3"/>
<path d="M152.143 454.232L171.919 474.058L140.682 482.393L120.906 462.568L152.143 454.232Z" stroke="#111112" stroke-width="2" stroke-miterlimit="10" stroke-dasharray="1 3"/>
<path d="M171.92 474.058L191.696 493.883L160.459 502.218L140.683 482.393L171.92 474.058Z" stroke="#111112" stroke-width="2" stroke-miterlimit="10" stroke-dasharray="1 3"/>
<path d="M191.696 493.882L211.472 513.707L180.235 522.043L160.458 502.218L191.696 493.882Z" stroke="#111112" stroke-width="2" stroke-miterlimit="10" stroke-dasharray="1 3"/>
<path d="M211.472 513.707L231.248 533.532L200.011 541.867L180.235 522.042L211.472 513.707Z" stroke="#111112" stroke-width="2" stroke-miterlimit="10" stroke-dasharray="1 3"/>
</g>
<g opacity="0.6">
<path d="M320.214 107.788L339.99 127.613L308.753 135.948L288.977 116.123L320.214 107.788Z" stroke="#28B86A" stroke-width="2" stroke-miterlimit="10"/>
<path d="M339.991 127.613L359.767 147.213L328.53 155.774L308.753 135.949L339.991 127.613Z" stroke="#28B86A" stroke-width="2" stroke-miterlimit="10"/>
<path d="M359.766 147.212L379.318 167.037L348.305 175.598L328.529 155.773L359.766 147.212Z" stroke="#28B86A" stroke-width="2" stroke-miterlimit="10"/>
<path d="M379.317 167.037L399.093 186.862L368.081 195.423L348.305 175.598L379.317 167.037Z" stroke="#28B86A" stroke-width="2" stroke-miterlimit="10"/>
<path d="M399.094 186.862L418.87 206.687L387.858 215.023L368.082 195.423L399.094 186.862Z" stroke="#28B86A" stroke-width="2" stroke-miterlimit="10"/>
<path d="M418.869 206.688L438.645 226.513L407.633 234.848L387.857 215.023L418.869 206.688Z" stroke="#28B86A" stroke-width="2" stroke-miterlimit="10"/>
<path d="M438.646 226.513L458.422 246.338L427.409 254.674L407.633 234.849L438.646 226.513Z" stroke="#28B86A" stroke-width="2" stroke-miterlimit="10"/>
<path d="M458.422 246.338L478.198 266.163L446.961 274.498L427.409 254.673L458.422 246.338Z" stroke="#28B86A" stroke-width="2" stroke-miterlimit="10"/>
<path d="M478.198 266.162L497.974 285.987L466.737 294.323L446.961 274.498L478.198 266.162Z" stroke="#28B86A" stroke-width="2" stroke-miterlimit="10"/>
<path d="M497.974 285.987L517.75 305.812L486.513 314.147L466.737 294.322L497.974 285.987Z" stroke="#28B86A" stroke-width="2" stroke-miterlimit="10"/>
<path d="M288.977 116.123L308.753 135.948L277.516 144.284L257.74 124.459L288.977 116.123Z" stroke="#28B86A" stroke-width="2" stroke-miterlimit="10"/>
<path d="M308.753 135.948L328.529 155.773L297.292 164.108L277.516 144.283L308.753 135.948Z" stroke="#28B86A" stroke-width="2" stroke-miterlimit="10"/>
<path d="M328.529 155.772L348.305 175.597L317.068 183.932L297.292 164.107L328.529 155.772Z" stroke="#28B86A" stroke-width="2" stroke-miterlimit="10"/>
<path d="M348.305 175.596L368.081 195.421L336.844 203.757L317.068 183.932L348.305 175.596Z" stroke="#28B86A" stroke-width="2" stroke-miterlimit="10"/>
<path d="M368.081 195.425L387.858 215.024L356.62 223.585L336.844 203.76L368.081 195.425Z" stroke="#28B86A" stroke-width="2" stroke-miterlimit="10"/>
<path d="M387.858 215.022L407.634 234.847L376.396 243.408L356.62 223.583L387.858 215.022Z" stroke="#28B86A" stroke-width="2" stroke-miterlimit="10"/>
<path d="M407.633 234.849L427.409 254.674L396.172 263.235L376.396 243.41L407.633 234.849Z" stroke="#28B86A" stroke-width="2" stroke-miterlimit="10"/>
<path d="M427.41 254.674L446.961 274.499L415.949 282.834L396.173 263.235L427.41 254.674Z" stroke="#28B86A" stroke-width="2" stroke-miterlimit="10"/>
<path d="M446.96 274.498L466.736 294.323L435.724 302.659L415.948 282.834L446.96 274.498Z" stroke="#28B86A" stroke-width="2" stroke-miterlimit="10"/>
<path d="M466.736 294.323L486.512 314.148L455.5 322.483L435.724 302.658L466.736 294.323Z" stroke="#28B86A" stroke-width="2" stroke-miterlimit="10"/>
<path d="M257.74 124.459L277.516 144.284L246.279 152.62L226.502 132.795L257.74 124.459Z" stroke="#28B86A" stroke-width="2" stroke-miterlimit="10"/>
<path d="M277.516 144.284L297.292 164.109L266.054 172.444L246.278 152.619L277.516 144.284Z" stroke="#28B86A" stroke-width="2" stroke-miterlimit="10"/>
<path d="M297.291 164.109L317.068 183.934L285.83 192.27L266.054 172.445L297.291 164.109Z" stroke="#28B86A" stroke-width="2" stroke-miterlimit="10"/>
<path d="M317.068 183.934L336.844 203.759L305.607 212.094L285.831 192.269L317.068 183.934Z" stroke="#28B86A" stroke-width="2" stroke-miterlimit="10"/>
<path d="M336.844 203.758L356.62 223.583L325.383 231.919L305.607 212.094L336.844 203.758Z" stroke="#28B86A" stroke-width="2" stroke-miterlimit="10"/>
<path d="M356.62 223.585L376.396 243.41L345.159 251.746L325.383 231.921L356.62 223.585Z" stroke="#28B86A" stroke-width="2" stroke-miterlimit="10"/>
<path d="M376.396 243.409L396.172 263.234L364.934 271.57L345.158 251.744L376.396 243.409Z" stroke="#28B86A" stroke-width="2" stroke-miterlimit="10"/>
<path d="M396.173 263.233L415.949 282.833L384.712 291.394L364.936 271.569L396.173 263.233Z" stroke="#28B86A" stroke-width="2" stroke-miterlimit="10"/>
<path d="M415.948 282.834L435.725 302.659L404.487 311.22L384.711 291.395L415.948 282.834Z" stroke="#28B86A" stroke-width="2" stroke-miterlimit="10"/>
<path d="M435.724 302.659L455.5 322.484L424.263 331.045L404.487 311.22L435.724 302.659Z" stroke="#28B86A" stroke-width="2" stroke-miterlimit="10"/>
<path d="M226.503 132.794L246.279 152.619L215.266 160.954L195.49 141.129L226.503 132.794Z" stroke="#28B86A" stroke-width="2" stroke-miterlimit="10"/>
<path d="M246.279 152.62L266.055 172.445L235.042 180.781L215.266 160.955L246.279 152.62Z" stroke="#28B86A" stroke-width="2" stroke-miterlimit="10"/>
<path d="M266.054 172.445L285.83 192.27L254.818 200.606L235.042 180.781L266.054 172.445Z" stroke="#28B86A" stroke-width="2" stroke-miterlimit="10"/>
<path d="M285.83 192.269L305.606 212.094L274.594 220.429L254.818 200.604L285.83 192.269Z" stroke="#28B86A" stroke-width="2" stroke-miterlimit="10"/>
<path d="M305.607 212.094L325.383 231.919L294.146 240.255L274.595 220.43L305.607 212.094Z" stroke="#28B86A" stroke-width="2" stroke-miterlimit="10"/>
<path d="M325.383 231.919L345.159 251.744L313.921 260.079L294.145 240.254L325.383 231.919Z" stroke="#28B86A" stroke-width="2" stroke-miterlimit="10"/>
<path d="M345.159 251.745L364.935 271.57L333.698 279.906L313.922 260.081L345.159 251.745Z" stroke="#28B86A" stroke-width="2" stroke-miterlimit="10"/>
<path d="M364.935 271.57L384.711 291.395L353.474 299.73L333.698 279.905L364.935 271.57Z" stroke="#28B86A" stroke-width="2" stroke-miterlimit="10"/>
<path d="M384.711 291.395L404.487 311.22L373.25 319.556L353.474 299.731L384.711 291.395Z" stroke="#28B86A" stroke-width="2" stroke-miterlimit="10"/>
<path d="M404.487 311.219L424.263 331.044L393.026 339.379L373.25 319.554L404.487 311.219Z" stroke="#28B86A" stroke-width="2" stroke-miterlimit="10"/>
<path d="M195.49 141.129L215.266 160.954L184.029 169.289L164.253 149.464L195.49 141.129Z" stroke="#28B86A" stroke-width="2" stroke-miterlimit="10"/>
<path d="M215.266 160.955L235.042 180.78L203.805 189.115L184.029 169.29L215.266 160.955Z" stroke="#28B86A" stroke-width="2" stroke-miterlimit="10"/>
<path d="M235.042 180.78L254.818 200.605L223.581 208.94L203.804 189.115L235.042 180.78Z" stroke="#28B86A" stroke-width="2" stroke-miterlimit="10"/>
<path d="M254.819 200.605L274.595 220.431L243.357 228.766L223.581 208.941L254.819 200.605Z" stroke="#28B86A" stroke-width="2" stroke-miterlimit="10"/>
<path d="M274.594 220.43L294.146 240.255L263.133 248.59L243.357 228.765L274.594 220.43Z" stroke="#28B86A" stroke-width="2" stroke-miterlimit="10"/>
<path d="M294.146 240.255L313.922 260.08L282.909 268.416L263.133 248.59L294.146 240.255Z" stroke="#28B86A" stroke-width="2" stroke-miterlimit="10"/>
<path d="M313.921 260.079L333.698 279.904L302.685 288.239L282.909 268.414L313.921 260.079Z" stroke="#28B86A" stroke-width="2" stroke-miterlimit="10"/>
<path d="M333.698 279.906L353.474 299.731L322.462 308.067L302.686 288.242L333.698 279.906Z" stroke="#28B86A" stroke-width="2" stroke-miterlimit="10"/>
<path d="M353.474 299.729L373.25 319.554L342.238 327.89L322.461 308.065L353.474 299.729Z" stroke="#28B86A" stroke-width="2" stroke-miterlimit="10"/>
<path d="M373.25 319.554L393.026 339.379L361.789 347.715L342.237 327.89L373.25 319.554Z" stroke="#28B86A" stroke-width="2" stroke-miterlimit="10"/>
<path d="M164.252 149.465L184.028 169.29L152.791 177.851L133.015 158.026L164.252 149.465Z" stroke="#28B86A" stroke-width="2" stroke-miterlimit="10"/>
<path d="M184.029 169.29L203.805 189.114L172.568 197.675L152.792 177.85L184.029 169.29Z" stroke="#28B86A" stroke-width="2" stroke-miterlimit="10"/>
<path d="M203.805 189.116L223.581 208.941L192.344 217.277L172.568 197.677L203.805 189.116Z" stroke="#28B86A" stroke-width="2" stroke-miterlimit="10"/>
<path d="M223.581 208.941L243.357 228.766L212.12 237.102L192.344 217.277L223.581 208.941Z" stroke="#28B86A" stroke-width="2" stroke-miterlimit="10"/>
<path d="M243.357 228.766L263.133 248.591L231.896 256.927L212.12 237.102L243.357 228.766Z" stroke="#28B86A" stroke-width="2" stroke-miterlimit="10"/>
<path d="M263.134 248.59L282.91 268.415L251.673 276.751L231.896 256.926L263.134 248.59Z" stroke="#28B86A" stroke-width="2" stroke-miterlimit="10"/>
<path d="M282.909 268.416L302.685 288.241L271.448 296.577L251.672 276.752L282.909 268.416Z" stroke="#28B86A" stroke-width="2" stroke-miterlimit="10"/>
<path d="M302.685 288.239L322.462 308.064L291.224 316.4L271.448 296.575L302.685 288.239Z" stroke="#28B86A" stroke-width="2" stroke-miterlimit="10"/>
<path d="M322.461 308.066L342.237 327.891L311 336.227L291.224 316.401L322.461 308.066Z" stroke="#28B86A" stroke-width="2" stroke-miterlimit="10"/>
<path d="M342.238 327.89L361.789 347.715L330.777 356.051L311.001 336.226L342.238 327.89Z" stroke="#28B86A" stroke-width="2" stroke-miterlimit="10"/>
<path d="M133.016 158.026L152.792 177.851L121.779 186.186L102.003 166.361L133.016 158.026Z" stroke="#28B86A" stroke-width="2" stroke-miterlimit="10"/>
<path d="M152.791 177.85L172.567 197.675L141.33 206.011L121.779 186.186L152.791 177.85Z" stroke="#28B86A" stroke-width="2" stroke-miterlimit="10"/>
<path d="M172.568 197.677L192.344 217.276L161.106 225.837L141.33 206.012L172.568 197.677Z" stroke="#28B86A" stroke-width="2" stroke-miterlimit="10"/>
<path d="M192.343 217.277L212.119 237.102L180.882 245.663L161.106 225.838L192.343 217.277Z" stroke="#28B86A" stroke-width="2" stroke-miterlimit="10"/>
<path d="M212.121 237.101L231.897 256.926L200.659 265.487L180.883 245.662L212.121 237.101Z" stroke="#28B86A" stroke-width="2" stroke-miterlimit="10"/>
<path d="M231.896 256.927L251.672 276.752L220.435 285.087L200.659 265.488L231.896 256.927Z" stroke="#28B86A" stroke-width="2" stroke-miterlimit="10"/>
<path d="M251.672 276.751L271.448 296.576L240.211 304.912L220.435 285.087L251.672 276.751Z" stroke="#28B86A" stroke-width="2" stroke-miterlimit="10"/>
<path d="M271.448 296.576L291.224 316.401L259.987 324.736L240.211 304.911L271.448 296.576Z" stroke="#28B86A" stroke-width="2" stroke-miterlimit="10"/>
<path d="M291.225 316.4L311.001 336.225L279.763 344.56L259.987 324.735L291.225 316.4Z" stroke="#28B86A" stroke-width="2" stroke-miterlimit="10"/>
<path d="M311 336.227L330.777 356.052L299.539 364.387L279.763 344.562L311 336.227Z" stroke="#28B86A" stroke-width="2" stroke-miterlimit="10"/>
<path d="M102.003 166.361L121.779 186.186L90.5415 194.522L70.7654 174.697L102.003 166.361Z" stroke="#28B86A" stroke-width="2" stroke-miterlimit="10"/>
<path d="M121.779 186.187L141.331 206.012L110.318 214.348L90.5422 194.523L121.779 186.187Z" stroke="#28B86A" stroke-width="2" stroke-miterlimit="10"/>
<path d="M141.331 206.011L161.107 225.836L130.094 234.171L110.318 214.346L141.331 206.011Z" stroke="#28B86A" stroke-width="2" stroke-miterlimit="10"/>
<path d="M161.106 225.837L180.883 245.662L149.87 253.998L130.094 234.173L161.106 225.837Z" stroke="#28B86A" stroke-width="2" stroke-miterlimit="10"/>
<path d="M180.882 245.663L200.658 265.488L169.646 273.823L149.87 253.998L180.882 245.663Z" stroke="#28B86A" stroke-width="2" stroke-miterlimit="10"/>
<path d="M200.659 265.486L220.435 285.086L189.423 293.647L169.647 273.822L200.659 265.486Z" stroke="#28B86A" stroke-width="2" stroke-miterlimit="10"/>
<path d="M220.435 285.087L240.211 304.912L208.974 313.473L189.422 293.648L220.435 285.087Z" stroke="#28B86A" stroke-width="2" stroke-miterlimit="10"/>
<path d="M240.211 304.911L259.987 324.736L228.75 333.296L208.974 313.471L240.211 304.911Z" stroke="#28B86A" stroke-width="2" stroke-miterlimit="10"/>
<path d="M259.987 324.736L279.763 344.561L248.526 352.897L228.75 333.297L259.987 324.736Z" stroke="#28B86A" stroke-width="2" stroke-miterlimit="10"/>
<path d="M279.763 344.562L299.539 364.387L268.302 372.723L248.526 352.898L279.763 344.562Z" stroke="#28B86A" stroke-width="2" stroke-miterlimit="10"/>
<path d="M70.7663 174.697L90.5423 194.522L59.3051 202.858L39.5291 183.033L70.7663 174.697Z" stroke="#28B86A" stroke-width="2" stroke-miterlimit="10"/>
<path d="M90.5421 194.523L110.318 214.348L79.081 222.684L59.3049 202.859L90.5421 194.523Z" stroke="#28B86A" stroke-width="2" stroke-miterlimit="10"/>
<path d="M110.318 214.347L130.094 234.172L98.8566 242.507L79.0806 222.682L110.318 214.347Z" stroke="#28B86A" stroke-width="2" stroke-miterlimit="10"/>
<path d="M130.095 234.171L149.871 253.996L118.634 262.332L98.8577 242.507L130.095 234.171Z" stroke="#28B86A" stroke-width="2" stroke-miterlimit="10"/>
<path d="M149.871 253.998L169.647 273.823L138.409 282.158L118.633 262.333L149.871 253.998Z" stroke="#28B86A" stroke-width="2" stroke-miterlimit="10"/>
<path d="M169.646 273.822L189.422 293.647L158.185 301.983L138.409 282.158L169.646 273.822Z" stroke="#28B86A" stroke-width="2" stroke-miterlimit="10"/>
<path d="M189.422 293.647L208.974 313.472L177.961 321.807L158.185 301.982L189.422 293.647Z" stroke="#28B86A" stroke-width="2" stroke-miterlimit="10"/>
<path d="M208.973 313.472L228.75 333.297L197.737 341.633L177.961 321.808L208.973 313.472Z" stroke="#28B86A" stroke-width="2" stroke-miterlimit="10"/>
<path d="M228.749 333.296L248.525 352.895L217.513 361.456L197.737 341.631L228.749 333.296Z" stroke="#28B86A" stroke-width="2" stroke-miterlimit="10"/>
<path d="M248.526 352.897L268.302 372.722L237.29 381.283L217.513 361.458L248.526 352.897Z" stroke="#28B86A" stroke-width="2" stroke-miterlimit="10"/>
<path d="M39.5287 183.033L59.3048 202.858L28.0676 211.194L8.2915 191.369L39.5287 183.033Z" stroke="#28B86A" stroke-width="2" stroke-miterlimit="10"/>
<path d="M59.3044 202.858L79.0805 222.683L47.8432 231.018L28.0671 211.193L59.3044 202.858Z" stroke="#28B86A" stroke-width="2" stroke-miterlimit="10"/>
<path d="M79.0814 222.683L98.8575 242.508L67.6203 250.844L47.8442 231.019L79.0814 222.683Z" stroke="#28B86A" stroke-width="2" stroke-miterlimit="10"/>
<path d="M98.8571 242.507L118.633 262.332L87.3959 270.667L67.6199 250.842L98.8571 242.507Z" stroke="#28B86A" stroke-width="2" stroke-miterlimit="10"/>
<path d="M118.633 262.332L138.409 282.157L107.172 290.493L87.396 270.668L118.633 262.332Z" stroke="#28B86A" stroke-width="2" stroke-miterlimit="10"/>
<path d="M138.409 282.158L158.185 301.983L126.948 310.319L107.172 290.494L138.409 282.158Z" stroke="#28B86A" stroke-width="2" stroke-miterlimit="10"/>
<path d="M158.185 301.983L177.961 321.808L146.724 330.144L126.948 310.318L158.185 301.983Z" stroke="#28B86A" stroke-width="2" stroke-miterlimit="10"/>
<path d="M177.962 321.808L197.738 341.633L166.5 349.969L146.724 330.144L177.962 321.808Z" stroke="#28B86A" stroke-width="2" stroke-miterlimit="10"/>
<path d="M197.737 341.632L217.513 361.457L186.276 369.792L166.5 349.967L197.737 341.632Z" stroke="#28B86A" stroke-width="2" stroke-miterlimit="10"/>
<path d="M217.514 361.457L237.29 381.282L206.052 389.618L186.276 369.793L217.514 361.457Z" stroke="#28B86A" stroke-width="2" stroke-miterlimit="10"/>
</g>
<path d="M416.075 279.829L416.075 147.918" stroke="#454549" stroke-width="2" stroke-miterlimit="10" stroke-linecap="round" stroke-dasharray="1 3"/>
<path d="M416.385 147.66C423.956 147.66 430.094 141.507 430.094 133.918C430.094 126.328 423.956 120.176 416.385 120.176C408.814 120.176 402.677 126.328 402.677 133.918C402.677 141.507 408.814 147.66 416.385 147.66Z" fill="white" stroke="#28B86A" stroke-width="2" stroke-miterlimit="10"/>
<path d="M410.992 133.918L415.487 138.423L422.903 130.989" stroke="#28B86A" stroke-width="2" stroke-miterlimit="10" stroke-linecap="round"/>
<path d="M416.293 285.798C418.155 285.798 419.664 284.285 419.664 282.419C419.664 280.553 418.155 279.04 416.293 279.04C414.432 279.04 412.922 280.553 412.922 282.419C412.922 284.285 414.432 285.798 416.293 285.798Z" fill="#454549"/>
<path d="M228.509 329.688L228.509 197.777" stroke="#454549" stroke-width="2" stroke-miterlimit="10" stroke-linecap="round" stroke-dasharray="1 3"/>
<path d="M228.819 197.52C236.39 197.52 242.527 191.368 242.527 183.778C242.527 176.188 236.39 170.036 228.819 170.036C221.248 170.036 215.111 176.188 215.111 183.778C215.111 191.368 221.248 197.52 228.819 197.52Z" fill="white" stroke="#28B86A" stroke-width="2" stroke-miterlimit="10"/>
<path d="M223.426 183.776L227.921 188.282L235.337 180.847" stroke="#28B86A" stroke-width="2" stroke-miterlimit="10" stroke-linecap="round"/>
<path d="M228.727 335.657C230.589 335.657 232.098 334.144 232.098 332.277C232.098 330.411 230.589 328.898 228.727 328.898C226.866 328.898 225.356 330.411 225.356 332.277C225.356 334.144 226.866 335.657 228.727 335.657Z" fill="#454549"/>
<path d="M110.294 211.207L110.294 79.2959" stroke="#454549" stroke-width="2" stroke-miterlimit="10" stroke-linecap="round" stroke-dasharray="1 3"/>
<path d="M110.605 79.0374C118.176 79.0374 124.314 72.8847 124.314 65.2951C124.314 57.7054 118.176 51.5527 110.605 51.5527C103.034 51.5527 96.897 57.7054 96.897 65.2951C96.897 72.8847 103.034 79.0374 110.605 79.0374Z" fill="white" stroke="#28B86A" stroke-width="2" stroke-miterlimit="10"/>
<path d="M105.211 65.2949L109.706 69.8007L117.122 62.3662" stroke="#28B86A" stroke-width="2" stroke-miterlimit="10" stroke-linecap="round"/>
<path d="M110.513 217.176C112.375 217.176 113.884 215.663 113.884 213.797C113.884 211.93 112.375 210.417 110.513 210.417C108.651 210.417 107.142 211.93 107.142 213.797C107.142 215.663 108.651 217.176 110.513 217.176Z" fill="#454549"/>
<path d="M297.072 160.654L297.072 28.7437" stroke="#454549" stroke-width="2" stroke-miterlimit="10" stroke-linecap="round" stroke-dasharray="1 3"/>
<path d="M297.383 28.4846C304.954 28.4846 311.091 22.332 311.091 14.7423C311.091 7.15264 304.954 1 297.383 1C289.812 1 283.675 7.15264 283.675 14.7423C283.675 22.332 289.812 28.4846 297.383 28.4846Z" fill="white" stroke="#28B86A" stroke-width="2" stroke-miterlimit="10"/>
<path d="M291.99 14.742L296.484 19.2477L303.9 11.8132" stroke="#28B86A" stroke-width="2" stroke-miterlimit="10" stroke-linecap="round"/>
<path d="M297.291 166.623C299.153 166.623 300.662 165.11 300.662 163.243C300.662 161.377 299.153 159.864 297.291 159.864C295.429 159.864 293.92 161.377 293.92 163.243C293.92 165.11 295.429 166.623 297.291 166.623Z" fill="#454549"/>
</svg>
