<svg width="262" height="40" viewBox="0 0 262 40" fill="none" xmlns="http://www.w3.org/2000/svg">
<path d="M37.9943 25.7274C37.9943 22.0939 35.5024 19.0272 32.1258 18.1216V14.5492C31.9859 12.9103 29.7348 12.2436 27.7693 11.8436C25.5351 11.3936 22.5729 11.1436 19.4427 11.1436C16.3125 11.1436 13.3559 11.3936 11.116 11.8436C9.15058 12.2436 6.90513 12.9103 6.76514 14.5492V35.3888C6.77074 35.6944 6.83793 35.9944 6.96112 36.2778C8.14824 39.0223 14.431 40.0001 19.4483 40.0001C24.4656 40.0001 30.7483 39.0279 31.9355 36.2833C32.0586 36 32.1258 35.7 32.1314 35.3944V33.3332C35.508 32.4276 37.9999 29.3609 37.9999 25.7274H37.9943ZM10.6009 14.5548C12.2528 14.1103 15.2374 13.6714 19.4371 13.6714C23.6368 13.6714 26.6214 14.1103 28.2733 14.5548C28.4805 14.6103 28.6709 14.6659 28.8389 14.7215C27.355 15.2159 24.1688 15.777 19.4427 15.777C14.7166 15.777 11.5248 15.2159 10.0465 14.7215C10.2145 14.6659 10.3993 14.6103 10.6121 14.5548H10.6009ZM29.578 35.3055C29.1916 36.0778 25.4287 37.4778 19.4371 37.4778C13.4455 37.4778 9.68814 36.0778 9.29617 35.3055V17.1271C9.88413 17.3215 10.5113 17.466 11.1104 17.5882C13.3503 18.0438 16.3069 18.2938 19.4371 18.2938C22.5673 18.2938 25.5239 18.0438 27.7637 17.5882C28.3685 17.466 28.9957 17.316 29.5836 17.1271V35.3L29.578 35.3055ZM32.1202 30.6776V20.7883C34.0745 21.5939 35.4464 23.5107 35.4464 25.733C35.4464 27.9553 34.0689 29.872 32.1202 30.6776Z" fill="white"/>
<path d="M20.3035 24.8684C21.1369 24.7342 21.7028 23.9551 21.5675 23.1283C21.4322 22.3014 20.647 21.74 19.8136 21.8742C18.9803 22.0084 18.4143 22.7875 18.5496 23.6143C18.6849 24.4412 19.4701 25.0026 20.3035 24.8684Z" fill="white"/>
<path d="M3.5287 22.866C4.37297 22.866 5.0574 22.1869 5.0574 21.3492C5.0574 20.5116 4.37297 19.8325 3.5287 19.8325C2.68442 19.8325 2 20.5116 2 21.3492C2 22.1869 2.68442 22.866 3.5287 22.866Z" fill="white"/>
<path d="M15.0472 28.6274C14.5544 28.6274 14.1512 29.0274 14.1512 29.5163C14.1512 30.0496 13.7145 30.4774 13.1825 30.4774C12.6505 30.4774 12.2138 30.0441 12.2138 29.5163C12.2138 29.0274 11.8106 28.6274 11.3178 28.6274C10.825 28.6274 10.4219 29.0274 10.4219 29.5163C10.4219 31.0275 11.6594 32.2553 13.1825 32.2553C14.7056 32.2553 15.9431 31.0275 15.9431 29.5163C15.9431 29.0274 15.5399 28.6274 15.0472 28.6274ZM15.2488 6.83773C15.132 7.02908 15.0686 7.24776 15.065 7.47141C15.0614 7.69505 15.1177 7.91564 15.2282 8.1106C15.3387 8.30557 15.4994 8.46791 15.6939 8.58104C15.8884 8.69417 16.1096 8.75401 16.3351 8.75446C16.7663 8.75446 17.1806 8.53779 17.4214 8.14888C17.862 7.43131 18.0493 6.5887 17.954 5.75382C17.8587 4.91895 17.4862 4.13926 16.895 3.53761C16.6936 3.33022 16.5694 3.0609 16.5429 2.77407C16.5164 2.48723 16.5893 2.20002 16.7495 1.95978C17.1358 1.38198 16.979 0.59862 16.3967 0.209717C16.1155 0.0255983 15.7725 -0.0409228 15.4421 0.0246252C15.1118 0.0901731 14.8209 0.282487 14.6328 0.559729C13.6417 2.03756 13.832 4.02652 15.0752 5.29878C15.4783 5.70991 15.5511 6.34326 15.2488 6.83773ZM22.1587 6.83773C22.042 7.02908 21.9785 7.24776 21.9749 7.47141C21.9713 7.69505 22.0276 7.91564 22.1381 8.1106C22.2486 8.30557 22.4093 8.46791 22.6038 8.58104C22.7983 8.69417 23.0196 8.75401 23.245 8.75446C23.6762 8.75446 24.0906 8.53779 24.3313 8.14888C24.7719 7.43131 24.9593 6.5887 24.864 5.75382C24.7687 4.91895 24.3961 4.13926 23.805 3.53761C23.6035 3.33022 23.4793 3.0609 23.4529 2.77407C23.4264 2.48723 23.4992 2.20002 23.6594 1.95978C24.0458 1.38198 23.889 0.59862 23.3066 0.209717C23.0255 0.0255983 22.6824 -0.0409228 22.3521 0.0246252C22.0218 0.0901731 21.7309 0.282487 21.5427 0.559729C20.5516 2.03756 20.742 4.02652 21.9851 5.29878C22.3883 5.70991 22.4611 6.34326 22.1587 6.83773Z" fill="white"/>
</svg>
