<svg xmlns="http://www.w3.org/2000/svg" viewBox="0 0 467.85 116"><defs><style>.cls-1{opacity:0.9;}</style></defs><title>XRPLedger-black</title><g id="Layer_2" data-name="Layer 2"><g id="Layer_1-2" data-name="Layer 1"><g class="cls-1"><path d="M191.43,51.83l6-12.06h10.07l-10.21,18,10.47,18.42H197.66l-6.09-12.32-6.1,12.32H175.4l10.47-18.42-10.21-18h10.08ZM223.5,63.22h-4.77V76.08H210V39.77H224.3c4.37,0,7.68.93,10.07,2.92a9.83,9.83,0,0,1,3.71,8.08,11.91,11.91,0,0,1-1.59,6.36,11.29,11.29,0,0,1-4.77,4.11l7.55,14.7v.4h-9.41Zm-4.64-6.75h5.57a4.54,4.54,0,0,0,3.71-1.33,5.51,5.51,0,0,0,1.32-3.71,4.9,4.9,0,0,0-1.32-3.71,4.72,4.72,0,0,0-3.71-1.32h-5.57Zm32.87,7.28V76.08H243V39.77h14.58A16.53,16.53,0,0,1,265,41.36a12.49,12.49,0,0,1,5,4.37,11.66,11.66,0,0,1,1.72,6.5,10.52,10.52,0,0,1-3.84,8.48c-2.52,2.12-6,3.18-10.47,3.18h-5.69Zm0-6.75h5.69a4.85,4.85,0,0,0,3.85-1.33,4.44,4.44,0,0,0,1.32-3.58,5.92,5.92,0,0,0-1.32-4.1,4.63,4.63,0,0,0-3.71-1.59h-5.83Zm45,12.45H312v6.76H287.9V39.77h8.75V69.45Zm41.08-8.74H324.07v8.74h16.3v6.76h-25V39.77h25.18v6.76h-16.3v7.68h13.65Zm5.56,15.37V39.77h11.79A17.89,17.89,0,0,1,364,42a15,15,0,0,1,6,6.23,19.67,19.67,0,0,1,2.26,8.88v1.72a18.56,18.56,0,0,1-2.12,9,16.11,16.11,0,0,1-14.58,8.48H343.42Zm8.75-29.55V69.45h3A7,7,0,0,0,361,66.8q2-2.77,2-7.95V57.26q0-5.37-2-7.95a7.09,7.09,0,0,0-6-2.65h-2.91ZM405.83,71.7a14.24,14.24,0,0,1-6,3.58,25.46,25.46,0,0,1-8.61,1.33c-4.77,0-8.62-1.46-11.4-4.38s-4.37-7-4.64-12.19V56.86a22.93,22.93,0,0,1,1.86-9.4,14.69,14.69,0,0,1,5.43-6.23,15.5,15.5,0,0,1,8.22-2.12c4.5,0,8.08,1.06,10.6,3.18s4,5.17,4.37,9.27h-8.48a6.82,6.82,0,0,0-2-4.37A6,6,0,0,0,391,45.87a5.93,5.93,0,0,0-5.17,2.78,14.68,14.68,0,0,0-1.85,8v2.25c0,3.58.66,6.36,1.85,8.22s3.18,2.78,5.83,2.78a7.53,7.53,0,0,0,5.17-1.59v-5.7h-6.09v-6h14.84V71.7Zm27.17-11H419.22v8.74h16.29v6.76h-25V39.77h25.18v6.76h-16.3v7.68h13.78v6.5Zm19.21,2.51h-4.77V76.08h-8.88V39.77h14.31c4.38,0,7.69.93,10.07,2.92a9.8,9.8,0,0,1,3.71,8.08,11.91,11.91,0,0,1-1.59,6.36,11.29,11.29,0,0,1-4.77,4.11l7.56,14.7v.4h-9.41Zm-4.77-6.75H453a4.54,4.54,0,0,0,3.71-1.33A5.51,5.51,0,0,0,458,51.43a4.94,4.94,0,0,0-1.32-3.71A4.72,4.72,0,0,0,453,46.4h-5.57Z"/><path d="M35.4,7.2h2.8V0H35.4A22.58,22.58,0,0,0,12.8,22.6V39A13.6,13.6,0,0,1,0,52.6l.2,3.6L0,59.8A13.6,13.6,0,0,1,12.8,73.4V92.3A23.66,23.66,0,0,0,36.4,116v-7.2A16.41,16.41,0,0,1,20,92.4v-19a20.77,20.77,0,0,0-9.1-17.2A20.9,20.9,0,0,0,20,39V22.6A15.47,15.47,0,0,1,35.4,7.2Z"/><path d="M118.6,7.2h-2.8V0h2.8a22.56,22.56,0,0,1,22.5,22.6V39a13.6,13.6,0,0,0,12.8,13.6l-.2,3.6.2,3.6a13.6,13.6,0,0,0-12.8,13.6V92.3A23.66,23.66,0,0,1,117.5,116v-7.2a16.41,16.41,0,0,0,16.4-16.4v-19A20.77,20.77,0,0,1,143,56.2,20.9,20.9,0,0,1,133.9,39V22.6A15.32,15.32,0,0,0,118.6,7.2Z"/><path d="M103.2,29h10.7L91.6,49.9a21.76,21.76,0,0,1-29.2,0L40.1,29H50.8L67.7,44.8a13.68,13.68,0,0,0,18.5,0Z"/><path d="M50.7,87H40L62.4,66a21.55,21.55,0,0,1,29.2,0L114,87H103.3l-17-16a13.68,13.68,0,0,0-18.5,0Z"/></g></g></g></svg>