<svg width="145" height="22" viewBox="0 0 145 22" fill="none" xmlns="http://www.w3.org/2000/svg">
<path d="M139.887 0.0760325C142.033 -0.403284 144.319 1.45425 144.218 3.66166C144.342 4.98156 143.507 6.11514 142.624 6.99981C141.353 8.25002 140.274 9.67517 139.008 10.9282C136.631 13.5737 134.265 16.2291 131.834 18.8263C131.299 19.4265 130.794 20.0608 130.174 20.5771C129.243 21.2854 127.965 21.4163 126.86 21.1091C125.569 20.7108 124.808 19.5303 123.863 18.6556C122.151 16.8592 120.5 15.006 118.737 13.2565C117.874 12.4487 117.366 11.2397 117.5 10.0563C117.688 8.66248 118.696 7.38241 120.052 6.95856C120.831 6.66557 121.713 6.64423 122.484 6.98274C123.421 7.32836 124.099 8.08503 124.767 8.79334C125.792 9.77473 126.657 10.9097 127.716 11.8556C127.877 11.9181 128.076 11.9437 128.194 11.7844C129.012 10.9851 129.702 10.0663 130.533 9.2755C132.639 6.9287 134.75 4.58616 136.892 2.27207C137.707 1.33477 138.576 0.265199 139.887 0.0760325Z" fill="#0035F5"/>
<path d="M3.12622 0.51179C3.58705 0.251508 4.17873 0.22164 4.64525 0.481921C5.58539 0.904346 6.28659 1.6795 6.98778 2.4063C8.28066 3.66788 9.49957 5.00912 10.838 6.22092C11.9986 5.05748 13.1848 3.91679 14.2984 2.70783C15.1902 1.81035 16.0464 0.769227 17.2767 0.339691C18.2937 0.119234 19.1414 0.874477 19.854 1.48607C20.595 2.21998 21.373 3.04207 21.5721 4.10311C21.5963 4.82279 21.1539 5.4671 20.7315 6.01469C19.1613 7.85088 17.3222 9.43106 15.6852 11.2033C17.2355 12.8304 18.9024 14.3437 20.4115 16.0092C20.9804 16.6521 21.6005 17.4073 21.5693 18.3134C21.3929 19.2691 20.7116 20.023 20.063 20.7028C19.3917 21.3002 18.6393 22.0241 17.675 21.9815C16.8927 22.0355 16.237 21.5064 15.6838 21.0172C14.0709 19.4057 12.4622 17.7871 10.8408 16.1827C10.242 16.618 9.77408 17.1968 9.23502 17.6989C8.06731 18.8083 6.9764 19.9945 5.80727 21.1011C5.12599 21.7681 4.14175 22.2247 3.19165 21.8848C2.27853 21.4751 1.56311 20.7512 0.903163 20.0201C0.477894 19.4853 0.0583143 18.8794 0.00426674 18.1768C0.100983 17.1627 0.822092 16.3563 1.51191 15.6636C2.87305 14.3224 4.17304 12.9214 5.55125 11.5958C5.71055 11.4436 5.9751 11.1762 5.7262 10.9743C4.25696 9.48653 2.78772 7.9988 1.3071 6.52245C0.708307 5.88241 0.0867606 5.14281 0 4.23538C0.0810714 3.47303 0.516296 2.79174 1.02548 2.23704C1.65983 1.5899 2.28138 0.8887 3.12622 0.51179Z" fill="white"/>
<path d="M51.0622 3.06129C52.6694 1.53943 54.8427 0.55377 57.0757 0.586483C57.9234 0.59644 58.7853 0.545238 59.6188 0.738671C61.0937 0.986152 62.4321 1.71864 63.6012 2.62749C64.9467 1.54654 66.5738 0.772806 68.3062 0.613508C69.1127 0.573683 69.9219 0.580795 70.7298 0.609241C72.8775 0.765694 74.9669 1.77126 76.3721 3.4126C78.0504 5.35263 79.0233 7.92415 78.9436 10.4943C78.9479 13.3389 78.9522 16.1821 78.9408 19.0267C78.9792 19.8829 78.5454 20.8742 77.6707 21.1445C76.8272 21.5171 75.8885 21.3777 74.9953 21.4062C74.0751 21.4432 73.0354 21.2085 72.4394 20.4518C72.1123 19.9512 72.0127 19.3353 71.9445 18.7522C71.9118 15.9061 71.9615 13.0587 71.9203 10.2126C71.7709 9.34219 71.4083 8.38925 70.5748 7.9654C70.0869 7.66672 69.4839 7.65818 68.9377 7.75348C67.8781 8.0294 67.1797 9.05346 66.9664 10.0789C66.9251 13.1113 66.9764 16.1437 66.9422 19.176C66.8256 19.8146 66.6094 20.5073 66.0618 20.9098C65.4701 21.3123 64.7448 21.4346 64.0407 21.4019C62.9399 21.3749 61.7067 21.5825 60.7595 20.8828C59.9758 20.2826 59.9857 19.2087 59.8862 18.3198C59.8734 15.7099 59.8876 13.0985 59.8776 10.4871C59.8833 9.45455 59.3628 8.34373 58.397 7.88717C57.9604 7.65249 57.4398 7.68663 56.9648 7.73925C55.6733 8.02798 54.9138 9.38344 54.8853 10.6336C54.8768 12.9577 54.8839 15.2817 54.8825 17.6058C54.8654 18.4535 54.992 19.3495 54.5795 20.1318C54.2595 21.0819 53.143 21.4119 52.237 21.3991C51.1361 21.3635 49.9556 21.5811 48.943 21.0307C48.1009 20.6282 47.8947 19.5913 47.889 18.7465C47.8833 15.7568 47.8648 12.7685 47.899 9.77884C48.064 7.25709 49.135 4.74104 51.0622 3.06129Z" fill="white"/>
<path d="M83.3996 4.26477C84.9101 2.31906 87.1702 0.902442 89.6379 0.617981C91.2934 0.544021 93.0102 0.511308 94.569 1.1613C95.4764 1.48843 96.2815 2.03317 97.0296 2.63339C98.6354 1.35616 100.649 0.498507 102.729 0.58669C104.451 0.501352 106.219 0.80857 107.72 1.68755C110.392 3.2208 112.015 6.20479 112.341 9.21297C112.405 12.4843 112.365 15.757 112.366 19.0283C112.405 19.8447 112.042 20.7962 111.223 21.1006C110.31 21.5614 109.257 21.3609 108.274 21.4021C107.311 21.4291 106.159 21.0835 105.727 20.1434C105.423 19.5304 105.492 18.832 105.396 18.1749C105.373 15.6603 105.401 13.1442 105.383 10.6296C105.39 9.74918 105.073 8.84459 104.426 8.233C103.666 7.53607 102.43 7.52754 101.615 8.12917C100.755 8.75072 100.322 9.87292 100.389 10.9155C100.392 13.5738 100.392 16.232 100.39 18.8903C100.409 19.4948 100.197 20.0879 99.8728 20.5914C99.5328 21.0437 98.9483 21.2016 98.4306 21.3523C97.4534 21.4405 96.4664 21.4149 95.4864 21.3751C94.8464 21.2457 94.1196 21.0181 93.7796 20.4079C93.5407 19.9414 93.3928 19.4194 93.4027 18.8917C93.3856 16.1396 93.4084 13.3846 93.3913 10.631C93.3046 9.75202 93.0486 8.80903 92.3488 8.21309C91.8083 7.73377 91.0403 7.61145 90.349 7.75226C89.4715 8.00543 88.8072 8.76494 88.5256 9.61548C88.2042 10.5898 88.3251 11.6209 88.3052 12.6279C88.2952 14.8567 88.3237 17.0854 88.2909 19.3128C88.1957 19.9158 87.9468 20.5601 87.4404 20.9356C86.9355 21.2002 86.3822 21.4149 85.8048 21.3964C84.9485 21.4007 84.0866 21.4405 83.2332 21.3495C82.7013 21.1817 82.0925 21.001 81.7825 20.4975C81.3487 19.7565 81.2889 18.8718 81.3003 18.0327C81.3103 15.3744 81.2818 12.7161 81.316 10.0578C81.4582 7.98836 82.1125 5.91322 83.3996 4.26477Z" fill="white"/>
<path d="M40.787 0.953229C41.9249 0.830911 43.141 0.87358 44.1892 1.38134C44.9444 1.79239 45.0952 2.74533 45.1919 3.51764C45.2175 6.41203 45.2033 9.30642 45.2005 12.1994C45.071 14.9786 43.9332 17.8203 41.703 19.5712C39.8554 20.9323 37.5627 21.5183 35.3154 21.7772C33.3015 21.8839 31.2548 21.588 29.3859 20.8143C28.4457 20.4047 27.5511 19.8528 26.8485 19.0961C25.0507 17.1177 24.1162 14.431 24.1304 11.7713C24.1376 8.92525 24.1105 6.07779 24.1447 3.23176C24.2357 2.49501 24.5344 1.63594 25.2683 1.31449C26.2212 0.838022 27.3164 1.0343 28.3419 1.00017C29.2578 0.944695 30.2392 1.30454 30.7598 2.09107C31.0044 2.57466 31.1367 3.11655 31.1168 3.65987C31.1452 6.36652 31.1168 9.07317 31.131 11.7798C31.2334 12.7569 31.5691 13.8137 32.4296 14.3841C33.3228 15.0668 34.5104 15.0582 35.5729 14.9288C37.0407 14.6458 38.1714 13.2647 38.2098 11.777C38.2269 8.97787 38.2056 6.17735 38.2198 3.37684C38.1942 2.81503 38.453 2.29019 38.7332 1.82083C39.1998 1.17369 40.0517 1.04852 40.787 0.953229Z" fill="white"/>
</svg>
