<svg width="40" height="40" viewBox="0 0 40 40" fill="none" xmlns="http://www.w3.org/2000/svg">
<rect width="40" height="40" rx="8" fill="#343437"/>
<path d="M13.5203 12.1172H13.9569V11H13.5203C13.0573 10.9996 12.5989 11.09 12.1711 11.2661C11.7433 11.4422 11.3547 11.7005 11.0273 12.0262C10.7 12.352 10.4404 12.7387 10.2635 13.1644C10.0865 13.59 9.99562 14.0463 9.99603 14.5069V17.0517C9.99697 17.5906 9.79073 18.1094 9.4196 18.5017C9.04848 18.8941 8.54057 19.1304 8 19.1621L8.03119 19.7207L8 20.2793C8.54057 20.311 9.04848 20.5473 9.4196 20.9396C9.79073 21.332 9.99697 21.8508 9.99603 22.3897V25.3224C9.99437 26.2956 10.3811 27.2296 11.0712 27.9192C11.7612 28.6088 12.6982 28.9975 13.6762 29V27.8828C12.9981 27.8823 12.3478 27.6141 11.8683 27.1369C11.3888 26.6598 11.1192 26.0127 11.1188 25.3379V22.3897C11.1193 21.8633 10.9902 21.3448 10.7428 20.8796C10.4954 20.4143 10.1373 20.0164 9.69974 19.7207C10.1361 19.4237 10.4932 19.0255 10.7405 18.5606C10.9877 18.0956 11.1175 17.5778 11.1188 17.0517V14.5069C11.1217 13.874 11.3756 13.2678 11.8253 12.8203C12.2751 12.3728 12.8842 12.1201 13.5203 12.1172Z" fill="#F5F5F7"/>
<path d="M26.4952 12.1172H26.0586V11H26.4952C27.4277 11.0025 28.3211 11.3732 28.979 12.0308C29.6369 12.6884 30.0055 13.579 30.0039 14.5069V17.0517C30.0029 17.5906 30.2092 18.1094 30.5803 18.5017C30.9514 18.8941 31.4593 19.1304 31.9999 19.1621L31.9687 19.7207L31.9999 20.2793C31.4593 20.311 30.9514 20.5473 30.5803 20.9396C30.2092 21.332 30.0029 21.8508 30.0039 22.3897V25.3224C30.0055 26.2956 29.6188 27.2296 28.9287 27.9192C28.2387 28.6088 27.3017 28.9975 26.3237 29V27.8828C27.0018 27.8823 27.6521 27.6141 28.1316 27.1369C28.6111 26.6598 28.8807 26.0127 28.8811 25.3379V22.3897C28.8806 21.8633 29.0097 21.3448 29.2571 20.8796C29.5045 20.4143 29.8626 20.0164 30.3002 19.7207C29.8638 19.4237 29.5067 19.0255 29.2594 18.5606C29.0122 18.0956 28.8824 17.5778 28.8811 17.0517V14.5069C28.8827 14.1939 28.8223 13.8837 28.7031 13.5941C28.584 13.3044 28.4086 13.041 28.1869 12.819C27.9652 12.597 27.7017 12.4207 27.4114 12.3003C27.1211 12.1798 26.8097 12.1176 26.4952 12.1172Z" fill="#F5F5F7"/>
<path fill-rule="evenodd" clip-rule="evenodd" d="M25.8045 15.2695H24.2206L21.7173 17.7331C20.9618 18.4766 19.7369 18.4766 18.9815 17.7331L16.4781 15.2695H14.8942L18.1895 18.5125C19.3824 19.6864 21.3164 19.6864 22.5092 18.5125L25.8045 15.2695ZM14.874 24.2875H16.4579L18.9816 21.8038C19.7371 21.0604 20.9619 21.0604 21.7174 21.8038L24.2412 24.2875H25.8251L22.5094 21.0245C21.3165 19.8506 19.3825 19.8506 18.1897 21.0245L14.874 24.2875Z" fill="white"/>
</svg>
