<?xml version="1.0" encoding="UTF-8" standalone="no"?>
<svg
   xmlns:dc="http://purl.org/dc/elements/1.1/"
   xmlns:cc="http://creativecommons.org/ns#"
   xmlns:rdf="http://www.w3.org/1999/02/22-rdf-syntax-ns#"
   xmlns:svg="http://www.w3.org/2000/svg"
   xmlns="http://www.w3.org/2000/svg"
   xmlns:sodipodi="http://sodipodi.sourceforge.net/DTD/sodipodi-0.dtd"
   xmlns:inkscape="http://www.inkscape.org/namespaces/inkscape"
   inkscape:version="1.0 (4035a4fb49, 2020-05-01)"
   height="230.3694"
   width="657.27002"
   sodipodi:docname="logo-bitpay.svg"
   version="1.1"
   viewBox="0 0 657.27 230.36941"
   data-name="Layer 1"
   id="Layer_1">
  <metadata
     id="metadata16">
    <rdf:RDF>
      <cc:Work
         rdf:about="">
        <dc:format>image/svg+xml</dc:format>
        <dc:type
           rdf:resource="http://purl.org/dc/dcmitype/StillImage" />
        <dc:title></dc:title>
      </cc:Work>
    </rdf:RDF>
  </metadata>
  <sodipodi:namedview
     inkscape:current-layer="Layer_1"
     inkscape:window-maximized="0"
     inkscape:window-y="1"
     inkscape:window-x="0"
     inkscape:cy="109.18"
     inkscape:cx="328.63501"
     inkscape:zoom="1.2972104"
     fit-margin-bottom="0"
     fit-margin-right="0"
     fit-margin-left="0"
     fit-margin-top="0"
     showgrid="false"
     id="namedview14"
     inkscape:window-height="828"
     inkscape:window-width="1774"
     inkscape:pageshadow="2"
     inkscape:pageopacity="0"
     guidetolerance="10"
     gridtolerance="10"
     objecttolerance="10"
     borderopacity="1"
     bordercolor="#666666"
     pagecolor="#ffffff" />
  <defs
     id="defs4">
    <style
       id="style2">.cls-1{fill:#2a3f90;}</style>
  </defs>
  <path
     d="m 657.27,54.49 h -34.2 l -19.72,83.49 -2.7,11.41 c -1.93,0.57 -3.87,1 -5.8,1.35 a 51,51 0 0 1 -11,1 26.46,26.46 0 0 1 -10.44,-1.93 10.58,10.58 0 0 1 -5.41,-5.41 18,18 0 0 1 -1.16,-8.12 49.46,49.46 0 0 1 1.69,-10.09 l 10.43,-43.29 6.77,-28.79 h -34.75 l -15.85,66.67 a 125.39,125.39 0 0 0 -3.28,22.81 41.57,41.57 0 0 0 3.28,19.32 c 2.52,5.61 6.77,9.86 12.76,13.14 5.99,3.28 14.3,4.84 25.12,4.84 a 93.68,93.68 0 0 0 19.52,-1.94 c 0.2,0 0.58,-0.19 0.78,-0.19 -1.55,7 -4.64,12.56 -9.47,16.81 -5,4.26 -12.37,6.57 -22,6.57 a 69,69 0 0 1 -11.4,-0.77 l -6.76,28.22 a 118.63,118.63 0 0 0 15.07,0.77 q 15.66,0 27.25,-3.48 a 59.26,59.26 0 0 0 20.1,-10.82 65.46,65.46 0 0 0 14.11,-18 c 3.86,-7.35 6.76,-15.85 9.08,-25.9 l 23.58,-99.14 z"
     class="cls-1"
     id="y" />
  <path
     d="m 514.07,125.81 a 80.27,80.27 0 0 0 -1.93,26.28 c 0.77,8.89 4.25,22.23 7.53,29 h -33 c -4.06,-6.76 -3.87,-10.05 -4.64,-12.18 a 63,63 0 0 1 -14.3,8.7 42.65,42.65 0 0 1 -17.59,3.48 c -7.54,0 -14.3,-1.35 -19.52,-4.06 a 34.7,34.7 0 0 1 -13.33,-10.82 41.66,41.66 0 0 1 -7.58,-15.87 82.42,82.42 0 0 1 3.28,-49.28 80.68,80.68 0 0 1 15.66,-24.54 c 6.57,-7 22.8,-22.42 49.09,-22.42 h 52.95 z m -24,-42.52 c -16.05,0 -18.94,0 -25.52,3.29 a 37.34,37.34 0 0 0 -11.78,10.24 51.12,51.12 0 0 0 -10.83,31.69 c 0,7.35 1.16,13.14 3.68,17.59 2.51,4.25 7,6.38 13.52,6.38 a 21.36,21.36 0 0 0 9.47,-2.13 33.45,33.45 0 0 0 9.09,-7 c 0.38,-3.86 0.77,-7.73 1.54,-12 0.77,-4.27 1.55,-8.12 2.32,-11.59 l 8.55,-36.42"
     class="cls-1"
     id="a" />
  <path
     d="m 398.53,104.74 a 84.62,84.62 0 0 1 -5.6,30.92 72.87,72.87 0 0 1 -15.47,24.16 69.44,69.44 0 0 1 -23.57,15.85 76.5,76.5 0 0 1 -29.76,5.8 111,111 0 0 1 -15.85,-1.36 l -10.44,41.75 h -34.2 L 303.45,55.07 h 45.58 c 8.69,0 16,1.36 22.22,4.06 a 42.29,42.29 0 0 1 15.46,10.83 41.84,41.84 0 0 1 8.89,16 55.35,55.35 0 0 1 2.93,18.78 z m -83.9,47.35 c 2.51,0.77 6,0.77 9.66,0.77 a 38.43,38.43 0 0 0 16.43,-3.28 40.86,40.86 0 0 0 12.75,-9.24 49.29,49.29 0 0 0 8.12,-14.3 56.66,56.66 0 0 0 2.9,-18.55 c 0,-6.57 -1.36,-12.37 -4.26,-16.82 -2.89,-4.63 -7.92,-7.15 -15.26,-7.15 h -13.53 z"
     class="cls-1"
     id="p" />
  <path
     d="m 242.93,152.09 a 26.46,26.46 0 0 1 -10.4,-1.93 10.58,10.58 0 0 1 -5.41,-5.41 18,18 0 0 1 -1.16,-8.12 49.46,49.46 0 0 1 1.74,-10 l 10.39,-43.29 h 38.85 l 7.15,-28.8 h -39 l 9.09,-36.33 -36.53,5.41 -23.19,97.6 a 125.21,125.21 0 0 0 -3.29,22.8 41.74,41.74 0 0 0 3.25,19.32 c 2.51,5.6 6.76,9.86 12.75,13.14 5.99,3.28 14.3,4.83 25.13,4.83 a 93.88,93.88 0 0 0 19.52,-1.97 c 0.58,-0.19 1.35,-0.39 1.93,-0.58 l 7.15,-29.57 a 55.68,55.68 0 0 1 -7.15,1.74 50.37,50.37 0 0 1 -10.82,1.16 z"
     class="cls-1"
     id="t" />
  <path
     d="m 155.96,54.49 -30.15,126.59 h 34.21 L 189.97,54.49 Z"
     class="cls-1"
     data-name="i bottom"
     id="i_bottom" />
  <path
     d="m 193.65,40 5.21,-22 h -34.2 l -5.22,22 z"
     class="cls-1"
     data-name="i top"
     id="i_top" />
  <path
     d="m 80.4,54.69 a 42.24,42.24 0 0 1 19.13,4.06 35.75,35.75 0 0 1 13.33,10.59 45.6,45.6 0 0 1 7.73,15.65 68.73,68.73 0 0 1 2.52,19.35 74.71,74.71 0 0 1 -6,29.95 c -4.05,9.28 -9.27,17.78 -16,24.54 a 71.4,71.4 0 0 1 -24,16.43 73.12,73.12 0 0 1 -29.76,6 c -1.36,0 -3.87,0 -7.35,-0.19 a 90.45,90.45 0 0 1 -11.78,-1 c -4.45,-0.77 -9.28,-1.54 -14.11,-2.7 A 67.48,67.48 0 0 1 0,172.37 L 39.81,5.6 75.37,0 61.26,59.13 a 42.08,42.08 0 0 1 9.09,-3.09 34.88,34.88 0 0 1 10.05,-1.35 z m -30,98.17 a 27.68,27.68 0 0 0 15.13,-4.05 39.83,39.83 0 0 0 12.35,-10.47 49.32,49.32 0 0 0 8.12,-14.69 51.9,51.9 0 0 0 2.9,-17.2 c 0,-7.34 -1.16,-12.95 -3.67,-17.2 -2.51,-4.25 -7.54,-6 -14.11,-6 a 32.87,32.87 0 0 0 -7.73,1 22.51,22.51 0 0 0 -9.28,4.83 l -14.88,63 a 71.16,71.16 0 0 0 11.21,0.78 z"
     class="cls-1"
     id="b" />
</svg>
