<svg preserveAspectRatio="none" width="100%" height="100%" overflow="visible" style="display: block;" viewBox="0 0 71.2929 68.4998" fill="none" xmlns="http://www.w3.org/2000/svg">
<g id="user-switch-account">
<path id="Ellipse 414_2" d="M35.6467 68.4998V59.6816C30.5485 57.6293 24.9794 56.4998 19.1467 56.4998C13.3139 56.4998 7.745 57.6293 2.64667 59.6816V68.4998" stroke="var(--stroke-0, #141414)" stroke-width="5"/>
<path id="Ellipse 419_2" d="M11.6437 40.003C11.6437 44.1469 15.0029 47.506 19.1467 47.506C23.2905 47.506 26.6497 44.1469 26.6497 40.003C26.6497 35.8591 23.2905 32.5 19.1467 32.5C15.0029 32.5 11.6437 35.8591 11.6437 40.003Z" stroke="var(--stroke-0, #141414)" stroke-width="5"/>
<path id="Rectangle 21" d="M26.6468 5.49956H8.6468V21.9996" stroke="var(--stroke-0, #141414)" stroke-width="5"/>
<path id="Rectangle 23" d="M1.76777 15.1203L8.64668 21.9992L15.5256 15.1203" stroke="var(--stroke-0, #141414)" stroke-width="5"/>
<path id="Rectangle 22" d="M44.647 59.4996H62.647V42.9996" stroke="var(--stroke-0, #141414)" stroke-width="5"/>
<path id="Rectangle 24" d="M69.5252 49.8786L62.6462 42.9996L55.7672 49.8786" stroke="var(--stroke-0, #141414)" stroke-width="5"/>
<g id="Group 1000008763">
<path id="Ellipse 2005" d="M35.6471 17.5C35.6471 21.4783 37.2274 25.2936 40.0405 28.1066C42.8535 30.9197 46.6688 32.5 50.6471 32.5C54.6253 32.5 58.4406 30.9197 61.2537 28.1066C64.0667 25.2936 65.6471 21.4783 65.6471 17.5C65.6471 13.5218 64.0667 9.70645 61.2537 6.8934C58.4406 4.08035 54.6253 2.5 50.6471 2.5C46.6688 2.5 42.8535 4.08035 40.0405 6.8934C37.2274 9.70645 35.6471 13.5218 35.6471 17.5Z" stroke="var(--stroke-0, #141414)" stroke-width="5"/>
<path id="Vector 4470" d="M50.6469 13V22" stroke="var(--stroke-0, #141414)" stroke-width="5"/>
</g>
</g>
</svg>
