<svg width="84" height="84" viewBox="0 0 84 84" fill="none" xmlns="http://www.w3.org/2000/svg">
<g clip-path="url(#clip0_13_6691)">
<path d="M46.75 12.0001L34.75 24.0001L46.75 36.0001" stroke="#141414" stroke-width="5"/>
<path d="M58.75 12.0001L70.75 24.0001L58.75 36.0001" stroke="#141414" stroke-width="5"/>
<path d="M4 72.0004H37.75L66.25 63.0004V61.8241C66.25 57.5032 62.7472 54.0004 58.4263 54.0004C57.6466 54.0004 56.8711 54.1171 56.1256 54.3463L38.2675 59.8411C37.9243 59.9467 37.5676 60.0004 37.2085 60.0004H22.75" stroke="#141414" stroke-width="5"/>
<path d="M37.75 60.0004V51.0004L17.7335 46.711C17.0796 46.5709 16.4128 46.5004 15.7442 46.5004C10.5007 46.5004 6.25 50.7511 6.25 55.9945V57.0004" stroke="#141414" stroke-width="5"/>
</g>
<defs>
<clipPath id="clip0_13_6691">
<rect width="84" height="84" fill="white"/>
</clipPath>
</defs>
</svg>
