<svg preserveAspectRatio="none" width="100%" height="100%" overflow="visible" style="display: block;" viewBox="0 0 69.9881 69.988" fill="none" xmlns="http://www.w3.org/2000/svg">
<g id="subscription-cashflow">
<path id="Vector 2947" d="M34.9926 23.9635V16.4635" stroke="var(--stroke-0, #141414)" stroke-width="5"/>
<path id="Vector 2948" d="M34.9926 52.4637V44.9637" stroke="var(--stroke-0, #141414)" stroke-width="5"/>
<path id="Vector 3037" d="M42.4931 28.4635V26.9635C42.4931 25.3067 41.15 23.9635 39.4931 23.9635H30.4931C28.8364 23.9635 27.4932 25.3067 27.4932 26.9635V29.7541C27.4932 31.1842 28.5026 32.4154 29.9048 32.6959L40.0814 34.7311C41.4839 35.0116 42.4931 36.2428 42.4931 37.6729V41.9635C42.4931 43.6204 41.15 44.9635 39.4931 44.9635H30.4931C28.8364 44.9635 27.4932 43.6204 27.4932 41.9635V40.4635" stroke="var(--stroke-0, #141414)" stroke-width="5"/>
<path id="Vector 2754" d="M67.4881 8.99845V21.996H54.4906" stroke="var(--stroke-0, #141414)" stroke-width="5"/>
<path id="Vector 2755" d="M2.50005 60.9896V47.9918H15.4976" stroke="var(--stroke-0, #141414)" stroke-width="5"/>
<path id="Ellipse 653" d="M67.4881 34.9941C67.4881 52.9398 52.9399 67.488 34.9939 67.488C22.9666 67.488 12.4655 60.9534 6.84712 51.2409L5.13259 47.9916M2.5 34.9941C2.5 17.0481 17.0481 2.5 34.9939 2.5C47.0215 2.5 57.5224 9.03451 63.1408 18.747L64.942 21.9456" stroke="var(--stroke-0, #141414)" stroke-width="5"/>
</g>
</svg>
