<?xml version="1.0" encoding="UTF-8" standalone="no"?>
<svg
   width="44"
   height="44"
   viewBox="0 0 44 44"
   fill="none"
   version="1.1"
   id="svg31"
   sodipodi:docname="contribute.svg"
   inkscape:version="1.1 (c4e8f9ed74, 2021-05-24)"
   xmlns:inkscape="http://www.inkscape.org/namespaces/inkscape"
   xmlns:sodipodi="http://sodipodi.sourceforge.net/DTD/sodipodi-0.dtd"
   xmlns="http://www.w3.org/2000/svg"
   xmlns:svg="http://www.w3.org/2000/svg">
  <sodipodi:namedview
     id="namedview33"
     pagecolor="#ffffff"
     bordercolor="#666666"
     borderopacity="1.0"
     inkscape:pageshadow="2"
     inkscape:pageopacity="0.0"
     inkscape:pagecheckerboard="0"
     showgrid="false"
     fit-margin-top="0"
     fit-margin-left="0"
     fit-margin-right="0"
     fit-margin-bottom="0"
     inkscape:zoom="8.2613636"
     inkscape:cx="43.878955"
     inkscape:cy="43.818432"
     inkscape:window-width="1920"
     inkscape:window-height="1053"
     inkscape:window-x="3000"
     inkscape:window-y="840"
     inkscape:window-maximized="1"
     inkscape:current-layer="g12" />
  <g
     filter="url(#filter0_d)"
     id="g12"
     transform="translate(-0.09078405,-0.17118201)">
    <rect
       x="3.1249847"
       y="14.414384"
       width="37.425301"
       height="25.7931"
       fill="#ffffff"
       id="rect4" />
    <rect
       x="3.1249847"
       y="2.782582"
       width="37.425301"
       height="7.7547898"
       fill="#ffffff"
       id="rect6" />
    <path
       d="m 44.090784,10.483682 v -6.4453 c 0,-2.1323 -1.7348,-3.86719999 -3.8672,-3.86719999 h -36.2656 c -2.1324,0 -3.86719995,1.73489999 -3.86719995,3.86719999 v 6.4453 z m -14.2656,-5.1562 h 7.7344 c 0.7119,0 1.289,0.5771 1.289,1.289 0,0.712 -0.5771,1.2891 -1.289,1.2891 h -7.7344 c -0.7119,0 -1.2891,-0.5771 -1.2891,-1.2891 0,-0.7119 0.5772,-1.289 1.2891,-1.289 z m -12.8906,0 c 0.7119,0 1.289,0.5771 1.289,1.289 0,0.712 -0.5771,1.2891 -1.289,1.2891 -0.712,0 -1.2891,-0.5771 -1.2891,-1.2891 0,-0.7119 0.5771,-1.289 1.2891,-1.289 z m -5.1563,0 c 0.7119,0 1.2891,0.5771 1.2891,1.289 0,0.712 -0.5772,1.2891 -1.2891,1.2891 -0.7119,0 -1.2891,-0.5771 -1.2891,-1.2891 0,-0.7119 0.5772,-1.289 1.2891,-1.289 z m -5.1563,0 c 0.712,0 1.2891,0.5771 1.2891,1.289 0,0.712 -0.5771,1.2891 -1.2891,1.2891 -0.7119,0 -1.289,-0.5771 -1.289,-1.2891 0,-0.7119 0.5771,-1.289 1.289,-1.289 z"
       fill="#838386"
       id="path8" />
    <path
       d="m 0.09078405,13.061882 v 27.0703 c 0,2.1323 1.73479995,3.8672 3.86719995,3.8672 h 36.2656 c 2.1324,0 3.8672,-1.7349 3.8672,-3.8672 v -27.0703 z m 15.07089995,18.3293 c 0.556,0.4447 0.646,1.2559 0.2013,1.8118 -0.4446,0.5559 -1.256,0.6461 -1.8118,0.2013 l -6.4453,-5.1562 c -0.6445,-0.5154 -0.6449,-1.4974 0,-2.0132 l 6.4453,-5.1563 c 0.5557,-0.4447 1.367,-0.3546 1.8118,0.2013 0.4447,0.5559 0.3547,1.3672 -0.2013,1.8118 l -5.1871004,4.1498 z m 11.9811,-12.6653 -7.7344,18.0469 c -0.2804,0.6542 -1.038,0.9576 -1.6926,0.677 -0.6543,-0.2804 -0.9575,-1.0383 -0.677,-1.6926 l 7.7344,-18.0469 c 0.2805,-0.6543 1.0383,-0.9574 1.6926,-0.677 0.6543,0.2804 0.9575,1.0382 0.677,1.6926 z m 9.9329,9.5222 -6.4453,5.1563 c -0.555,0.4441 -1.3664,0.3554 -1.8118,-0.2013 -0.4447,-0.5559 -0.3547,-1.3672 0.2013,-1.8118 l 5.1871,-4.1498 -5.1871,-4.1496 c -0.556,-0.4447 -0.646,-1.2559 -0.2013,-1.8118 0.4446,-0.556 1.2559,-0.6461 1.8118,-0.2013 l 6.4453,5.1563 c 0.6445,0.5153 0.6449,1.4972 0,2.013 z"
       fill="#838386"
       id="path10" />
  </g>
  <defs
     id="defs29">
    <filter
       id="filter0_d"
       x="0"
       y="0"
       width="88"
       height="88"
       filterUnits="userSpaceOnUse"
       color-interpolation-filters="sRGB">
      <feFlood
         flood-opacity="0"
         result="BackgroundImageFix"
         id="feFlood14" />
      <feColorMatrix
         in="SourceAlpha"
         type="matrix"
         values="0 0 0 0 0 0 0 0 0 0 0 0 0 0 0 0 0 0 127 0"
         result="hardAlpha"
         id="feColorMatrix16" />
      <feOffset
         dy="4"
         id="feOffset18" />
      <feGaussianBlur
         stdDeviation="5"
         id="feGaussianBlur20" />
      <feColorMatrix
         type="matrix"
         values="0 0 0 0 0.908333 0 0 0 0 0.911771 0 0 0 0 0.904896 0 0 0 1 0"
         id="feColorMatrix22" />
      <feBlend
         mode="normal"
         in2="BackgroundImageFix"
         result="effect1_dropShadow"
         id="feBlend24" />
      <feBlend
         mode="normal"
         in="SourceGraphic"
         in2="effect1_dropShadow"
         result="shape"
         id="feBlend26" />
    </filter>
  </defs>
</svg>
