<svg width="220" height="50" viewBox="0 0 220 50" fill="none" xmlns="http://www.w3.org/2000/svg">
<g clip-path="url(#clip0)">
<path fill-rule="evenodd" clip-rule="evenodd" d="M8.12624 36.6908L22.532 35.4227L27.1276 47.0453H1.98492L8.12624 36.6908Z" fill="#6464FF"/>
<path fill-rule="evenodd" clip-rule="evenodd" d="M13.4661 24.0796C13.4661 23.5007 12.8665 22.4633 11.922 22.4633C11.7468 22.4633 11.1512 22.4633 10.1353 22.4633C9.36231 22.5878 8.97584 23.1705 8.97584 24.2115C8.97584 25.2525 9.36231 25.8009 10.1353 25.8569C10.1353 26.7634 10.1353 27.4522 10.1353 27.9234C9.95299 28.2529 0.530049 46.3017 0.276355 46.7898C-0.638265 48.5497 0.946932 49.5484 1.70448 49.5013C2.73182 49.4375 8.93757 48.9993 14.5202 49.012C19.1663 49.0226 26.2311 49.4077 27.6138 49.5013C28.6143 49.5691 29.8673 48.3188 29.0911 46.9298C28.747 46.3141 25.5516 39.9786 19.505 27.9234V25.8188C20.2779 25.6907 20.6644 25.155 20.6644 24.2115C20.6644 23.1652 20.2779 22.5825 19.505 22.4633H17.7936C17.3957 22.431 17.0233 22.5822 16.6764 22.9172C16.3295 23.2521 16.1601 23.624 16.1682 24.0328V27.9234C16.1569 28.2602 16.1697 28.5171 16.2066 28.6944C16.2435 28.8716 16.332 29.101 16.472 29.3827L24.8573 45.972C20.276 45.7641 16.879 45.6602 14.6665 45.6602C11.7845 45.6602 6.98213 45.8791 4.51045 45.9504C4.88409 45.2238 7.79927 39.6262 13.256 29.1577C13.4119 28.8509 13.4819 28.5034 13.4661 28.1151C13.4661 27.2957 13.4661 24.6585 13.4661 24.0796Z" fill="#35374E"/>
<path d="M20.1696 12.1569L21.286 11.6831L19.9631 15.024C19.4842 16.2333 18.1211 16.812 16.9185 16.3163L13.5963 14.9471L14.7127 14.4733L17.2365 15.5134C17.9981 15.8273 18.8614 15.4609 19.1647 14.6949L20.1696 12.1569Z" fill="#6464FF"/>
<path d="M17.5048 21.0628L16.3926 21.5349L17.7199 18.1885C18.1974 16.9846 19.5554 16.4081 20.7532 16.9009L24.0823 18.2708L22.9701 18.7429L20.4361 17.7002C19.6775 17.3881 18.8175 17.7532 18.5151 18.5157L17.5048 21.0628Z" fill="#6464FF"/>
<path d="M14.1069 16.4458L14.9412 16.766L12.5465 17.8165C11.6797 18.1968 10.661 17.8057 10.2713 16.9431L9.19458 14.5601L10.0288 14.8804L10.8468 16.6907C11.0936 17.237 11.7387 17.4846 12.2877 17.2438L14.1069 16.4458Z" fill="#6464FF"/>
<path d="M8.18234 19.6814L7.35118 19.3623L9.75094 18.3112C10.6143 17.9331 11.6292 18.3226 12.0177 19.1814L13.0978 21.5682L12.2666 21.2492L11.4445 19.4324C11.1984 18.8885 10.5557 18.6418 10.0089 18.8813L8.18234 19.6814Z" fill="#6464FF"/>
<path d="M15.0897 7.72755L15.8049 7.56242L14.6766 9.464C14.2682 10.1523 13.3949 10.354 12.726 9.91433L10.8783 8.69983L11.5935 8.53471L12.9972 9.45733C13.4208 9.73577 13.9739 9.60808 14.2326 9.17212L15.0897 7.72755Z" fill="#6464FF"/>
<path d="M12.597 12.8936L11.8845 13.0581L13.0159 11.1537C13.423 10.4685 14.2931 10.2676 14.9593 10.705L16.8111 11.9207L16.0985 12.0852L14.689 11.1599C14.2671 10.8829 13.7161 11.0101 13.4583 11.444L12.597 12.8936Z" fill="#6464FF"/>
<path d="M19.4453 1.28643L19.9816 1.4923L18.4361 2.18359C17.8766 2.43384 17.2217 2.18246 16.9734 1.62214L16.2874 0.0742188L16.8237 0.280087L17.3449 1.456C17.5021 1.81087 17.9169 1.97007 18.2712 1.81159L19.4453 1.28643Z" fill="#6464FF"/>
<path d="M15.6195 3.41121L15.0852 3.2061L16.634 2.51438C17.1913 2.26552 17.8437 2.51596 18.0913 3.07375L18.7794 4.62419L18.2451 4.41908L17.7213 3.23896C17.5645 2.88569 17.1513 2.72708 16.7984 2.8847L15.6195 3.41121Z" fill="#6464FF"/>
<path fill-rule="evenodd" clip-rule="evenodd" d="M54.3181 36.534L61.2589 49.2692C61.4528 49.6175 61.2201 49.8885 60.8324 49.8885H52.7283C52.3793 49.8885 51.9915 49.5788 51.8364 49.2692L48.6568 42.8048L45.4772 49.2692C45.3221 49.5788 44.9344 49.8885 44.5854 49.8885H36.4813C36.0936 49.8885 35.8609 49.6175 36.0548 49.2692L42.9956 36.534L36.0548 23.7988C35.8609 23.4504 36.0936 23.1794 36.4813 23.1794H44.5466C44.8956 23.1794 45.2834 23.4891 45.4385 23.7988L48.6568 30.6502L51.8752 23.7988C52.0303 23.4891 52.4181 23.1794 52.767 23.1794H60.8324C61.2201 23.1794 61.4528 23.4504 61.2589 23.7988L54.3181 36.534ZM79.7518 39.321L85.8836 49.2692C86.0765 49.6175 85.8065 49.8885 85.4594 49.8885H77.2065C76.8208 49.8885 76.4737 49.6175 76.3195 49.2692L72.3087 40.8306H71.8459V49.3466C71.8459 49.6175 71.576 49.8885 71.2289 49.8885H64.4414C64.1329 49.8885 63.8629 49.6175 63.8629 49.3466V23.7601C63.8629 23.4504 64.1329 23.1794 64.4414 23.1794H74.6226C80.5616 23.1794 84.4953 26.6632 84.4953 31.9276C84.4953 34.9856 82.6442 38.0823 79.7518 39.321ZM71.828 34.1558H74.0378C75.3112 34.1558 76.1726 33.3584 76.1726 32.1434C76.1726 30.9285 75.3112 30.1311 74.0378 30.1311H71.828V34.1558ZM89.0274 23.1794H98.2166C105.031 23.1794 109.119 26.8568 109.119 32.3921C109.119 37.9275 105.031 41.6048 98.2166 41.6048H96.6202V49.3466C96.6202 49.6175 96.3476 49.8885 95.9972 49.8885H89.0274C88.7548 49.8885 88.4823 49.6175 88.4823 49.3466V23.7601C88.4823 23.4504 88.7548 23.1794 89.0274 23.1794ZM96.4474 34.5216H98.4827C99.8526 34.5216 100.792 33.6287 100.792 32.3264C100.792 31.0241 99.8526 30.1311 98.4827 30.1311H96.4474V34.5216ZM119.953 42.9209H127.085C127.354 42.9209 127.584 43.1532 127.584 43.4628L127.047 49.3466C127.008 49.6175 126.74 49.8885 126.433 49.8885H112.591C112.284 49.8885 112.015 49.6175 112.015 49.3466V23.7601C112.015 23.4504 112.284 23.1794 112.591 23.1794H119.378C119.685 23.1794 119.953 23.4504 119.953 23.7601V42.9209Z" fill="#35374E"/>
<path fill-rule="evenodd" clip-rule="evenodd" d="M143.391 45.6939H151.828C152.726 45.6939 153.454 46.422 153.454 47.3201C153.454 47.4797 153.431 47.6384 153.385 47.7912L153.102 48.7267C152.893 49.4166 152.257 49.8885 151.536 49.8885H138.319C137.416 49.8885 136.684 49.1562 136.684 48.2528V24.6197C136.684 23.7163 137.416 22.984 138.319 22.984H140.119C141.023 22.984 141.755 23.7163 141.755 24.6197V44.0582C141.755 44.9616 142.487 45.6939 143.391 45.6939ZM168.799 44.2711H163.401C162.665 44.2711 162.02 44.762 161.824 45.4709L160.935 48.6887C160.739 49.3976 160.094 49.8885 159.358 49.8885H157.499C156.596 49.8885 155.863 49.1562 155.863 48.2528C155.863 48.0836 155.89 47.9153 155.941 47.7541L163.508 24.1209C163.725 23.4436 164.354 22.984 165.065 22.984H167.276C167.99 22.984 168.622 23.4478 168.836 24.1295L176.26 47.7626C176.531 48.6245 176.052 49.5426 175.19 49.8133C175.031 49.8632 174.866 49.8885 174.7 49.8885H172.831C172.094 49.8885 171.448 49.3952 171.253 48.684L170.377 45.4756C170.182 44.7644 169.536 44.2711 168.799 44.2711ZM163.505 38.6261H169.078L166.328 29.2408L163.505 38.6261ZM178.785 48.2528V24.6197C178.785 23.7163 179.518 22.984 180.421 22.984H187.732C189.184 22.984 190.504 23.1318 191.694 23.4274C192.883 23.7231 193.898 24.1727 194.74 24.7764C195.582 25.38 196.231 26.1438 196.689 27.0677C197.146 27.9916 197.375 29.0818 197.375 30.3384C197.363 31.5949 197.03 32.7221 196.378 33.7199C195.725 34.7178 194.764 35.4754 193.496 35.9928C194.264 36.1899 194.929 36.4855 195.49 36.8797C196.051 37.2739 196.518 37.739 196.89 38.2748C197.262 38.8107 197.536 39.3959 197.713 40.0303C197.89 40.6647 197.979 41.3207 197.979 41.9982C197.979 43.2917 197.759 44.4312 197.32 45.4167C196.881 46.4023 196.253 47.2276 195.435 47.8929C194.618 48.5581 193.624 49.057 192.453 49.3896C191.282 49.7222 189.965 49.8885 188.501 49.8885H180.421C179.518 49.8885 178.785 49.1562 178.785 48.2528ZM183.738 39.8283V44.0652C183.738 44.9685 184.471 45.7009 185.374 45.7009H188.197C189.564 45.6888 190.608 45.3481 191.327 44.6787C192.046 44.0092 192.406 43.1318 192.406 42.0462C192.418 40.8401 192.097 39.8993 191.443 39.2239C190.789 38.5484 189.778 38.2047 188.411 38.1926H185.374C184.471 38.1926 183.738 38.9249 183.738 39.8283ZM185.374 34.4385H187.738C189.23 34.4265 190.378 34.1322 191.182 33.5557C191.985 32.9791 192.394 32.1323 192.406 31.0152C192.406 29.7901 192.005 28.9102 191.201 28.3757C190.397 27.8412 189.236 27.5679 187.718 27.5559H185.374C184.471 27.5559 183.738 28.2883 183.738 29.1916V32.8028C183.738 33.7062 184.471 34.4385 185.374 34.4385ZM214.724 42.541C214.724 42.0622 214.641 41.6141 214.474 41.1967C214.308 40.7793 214.024 40.3895 213.623 40.0274C213.223 39.6652 212.699 39.3337 212.051 39.0329C211.404 38.7322 210.599 38.4529 209.638 38.1951C208.466 37.8759 207.347 37.4769 206.281 36.9981C205.214 36.5193 204.274 35.9423 203.46 35.2671C202.646 34.5919 201.996 33.8062 201.509 32.91C201.022 32.0138 200.778 30.9826 200.778 29.8163C200.778 28.6869 201.019 27.6618 201.499 26.741C201.98 25.8203 202.646 25.0346 203.497 24.3839C204.348 23.7333 205.353 23.233 206.512 22.8831C207.671 22.5332 208.929 22.3583 210.285 22.3583C211.691 22.3583 212.976 22.5608 214.141 22.966C215.307 23.3711 216.308 23.9389 217.147 24.6693C217.985 25.3998 218.639 26.2684 219.107 27.275C219.264 27.6124 219.402 28.0594 219.519 28.616L219.519 28.616C219.706 29.4999 219.141 30.3677 218.257 30.5544C218.146 30.5779 218.033 30.5897 217.919 30.5897L216.129 30.5897C215.372 30.5897 214.715 30.0707 214.538 29.3348C214.501 29.1771 214.461 29.043 214.419 28.9324C214.228 28.429 213.944 27.9963 213.568 27.6341C213.192 27.272 212.723 26.9896 212.162 26.7871C211.601 26.5845 210.945 26.4832 210.192 26.4832C209.502 26.4832 208.889 26.5661 208.352 26.7318C207.816 26.8975 207.363 27.1308 206.993 27.4316C206.623 27.7324 206.342 28.0884 206.151 28.4996C205.96 28.9109 205.864 29.3559 205.864 29.8347C205.864 30.3381 205.991 30.7923 206.244 31.1974C206.496 31.6025 206.863 31.9678 207.344 32.2931C207.825 32.6184 208.408 32.9161 209.092 33.1862C209.776 33.4563 210.55 33.708 211.413 33.9412C212.646 34.2973 213.781 34.7331 214.816 35.2487C215.852 35.7643 216.743 36.3751 217.489 37.081C218.235 37.7869 218.815 38.591 219.228 39.4933C219.641 40.3957 219.847 41.3993 219.847 42.5042C219.847 43.6827 219.61 44.7293 219.135 45.6439C218.66 46.5585 218.004 47.3319 217.165 47.9642C216.327 48.5964 215.328 49.0752 214.169 49.4005C213.01 49.7259 211.746 49.8885 210.377 49.8885C209.527 49.8885 208.679 49.8118 207.834 49.6583C206.99 49.5049 206.182 49.2686 205.411 48.9494C204.641 48.6302 203.922 48.2312 203.257 47.7524C202.591 47.2736 202.014 46.715 201.527 46.0766C201.04 45.4383 200.658 44.7139 200.38 43.9037C200.311 43.7023 200.249 43.4515 200.193 43.1512H200.193C200.027 42.2631 200.612 41.4088 201.5 41.2429C201.599 41.2244 201.7 41.2151 201.801 41.2151H203.664C204.438 41.2151 205.107 41.7586 205.265 42.5171C205.334 42.8496 205.411 43.1092 205.495 43.296C205.753 43.873 206.114 44.3456 206.577 44.7139C207.039 45.0822 207.594 45.3523 208.241 45.5242C208.889 45.6961 209.601 45.782 210.377 45.782C211.068 45.782 211.681 45.7022 212.218 45.5426C212.754 45.383 213.207 45.162 213.577 44.8797C213.947 44.5973 214.231 44.2566 214.428 43.8576C214.625 43.4587 214.724 43.0198 214.724 42.541Z" fill="#797B91"/>
</g>
<defs>
<clipPath id="clip0">
<rect width="220" height="49.8885" fill="white"/>
</clipPath>
</defs>
</svg>
