<svg width="48" height="45" viewBox="0 0 48 45" fill="none" xmlns="http://www.w3.org/2000/svg">
<circle cx="10" cy="10" r="10" fill="#4BB7FF"/>
<path d="M19.4656 32.5805C20.2016 32.5805 20.7983 31.9838 20.7983 31.2478C20.7983 30.5117 20.2016 29.915 19.4656 29.915C18.7295 29.915 18.1328 30.5117 18.1328 31.2478C18.1328 31.9838 18.7295 32.5805 19.4656 32.5805Z" fill="#343437"/>
<path d="M15.7331 32.5805C16.4692 32.5805 17.0659 31.9838 17.0659 31.2478C17.0659 30.5117 16.4692 29.915 15.7331 29.915C14.9971 29.915 14.4004 30.5117 14.4004 31.2478C14.4004 31.9838 14.9971 32.5805 15.7331 32.5805Z" fill="#343437"/>
<path d="M12.0017 32.5805C12.7378 32.5805 13.3344 31.9838 13.3344 31.2478C13.3344 30.5117 12.7378 29.915 12.0017 29.915C11.2656 29.915 10.6689 30.5117 10.6689 31.2478C10.6689 31.9838 11.2656 32.5805 12.0017 32.5805Z" fill="#343437"/>
<path d="M45.0667 3.79199H19.4666C17.848 3.79518 16.5366 5.10618 16.5333 6.7243V16.5877H2.93334C1.31466 16.5909 0.0031875 17.9018 0 19.52V36.0682C0.0031875 37.6864 1.31466 38.9973 2.93278 39.0006L6.92156 38.9862V43.4091C6.92156 43.7223 7.10503 44.0071 7.39041 44.1367C7.67569 44.2668 8.01122 44.2172 8.24747 44.0113L13.9067 38.983L28.5334 39.0011C30.152 38.9979 31.4634 37.6869 31.4667 36.0688V26.1962L34.0261 26.1983L39.752 31.193C39.9882 31.3994 40.3231 31.4484 40.609 31.3188C40.8943 31.1887 41.0779 30.9044 41.0779 30.5907V26.2013L45.0699 26.1827H45.0668C46.6853 26.1795 47.9968 24.8691 48.0001 23.2509V6.72421C47.9967 5.10618 46.6852 3.79518 45.0667 3.79199ZM29.8666 36.0687C29.8666 36.4351 29.7188 36.7647 29.4746 37.0101C29.2293 37.2537 28.8998 37.4016 28.5333 37.4016H28.5322L13.6058 37.3839C13.415 37.3845 13.225 37.4555 13.081 37.5813L8.52216 41.65V38.1908C8.52216 37.7519 8.16534 37.3929 7.72641 37.3909L2.93766 37.4021H2.93334C2.56697 37.4021 2.23734 37.2544 1.992 37.0106C1.74769 36.7642 1.60003 36.4346 1.60003 36.0688V19.5201C1.60003 19.1537 1.74778 18.8241 1.992 18.5793C2.23734 18.335 2.56687 18.1873 2.93334 18.1867H28.5333C28.8997 18.1873 29.2293 18.335 29.4746 18.5793C29.7189 18.8246 29.8666 19.1541 29.8666 19.5201V36.0687V36.0687ZM46.008 24.1914C45.7627 24.4357 45.4331 24.5829 45.0667 24.5834H45.0629L40.2742 24.6058C39.8347 24.6074 39.4778 24.9664 39.4778 25.4052V28.8313L34.8522 24.7961C34.7077 24.6708 34.5189 24.5992 34.3274 24.5992L31.4666 24.5961V19.5198C31.4634 17.9016 30.152 16.5907 28.5333 16.5875H18.1333V6.72421C18.1333 6.35784 18.2811 6.02821 18.5253 5.78343C18.7706 5.53912 19.1002 5.39146 19.4666 5.3909H45.0666C45.4329 5.39146 45.7626 5.53912 46.0079 5.78343C46.2522 6.02821 46.3999 6.3583 46.3999 6.72421V23.2506H46.4C46.4 23.617 46.2522 23.9461 46.008 24.1914Z" fill="#343437"/>
</svg>
