<svg width="262" height="40" viewBox="0 0 262 40" fill="none" xmlns="http://www.w3.org/2000/svg">
<path d="M84.4977 12.1003H80.1281L77.5993 22.9414L77.2447 24.4291C77.0007 24.4967 76.7568 24.5642 76.5127 24.6096C76.069 24.6996 75.6034 24.7446 75.1157 24.7446C74.5609 24.7446 74.1176 24.6547 73.7848 24.4967C73.474 24.339 73.2301 24.1138 73.097 23.798C72.9638 23.5049 72.9195 23.1444 72.9416 22.7388C72.9638 22.3332 73.0525 21.8822 73.1634 21.4318L74.4942 15.7967L75.3591 12.0554H70.9008L68.8825 20.7101C68.6384 21.7466 68.5054 22.7386 68.461 23.6854C68.4165 24.6318 68.5719 25.4433 68.8825 26.1871C69.1932 26.9084 69.7474 27.4717 70.5017 27.8998C71.2558 28.3282 72.3427 28.5306 73.7181 28.5306C74.672 28.5306 75.5147 28.441 76.2246 28.2829C76.2468 28.2829 76.2911 28.2606 76.3133 28.2606C76.1137 29.1619 75.7144 29.883 75.0931 30.4468C74.4499 31.0103 73.5182 31.3033 72.276 31.3033C71.7437 31.3033 71.2558 31.2807 70.8121 31.2135L69.9471 34.8873C70.524 34.9549 71.1673 35 71.8769 35C73.2077 35 74.361 34.8423 75.3591 34.549C76.3573 34.2333 77.2005 33.7828 77.9321 33.1516C78.6419 32.5204 79.2408 31.7316 79.7287 30.8077C80.2165 29.8611 80.5935 28.7563 80.8819 27.4492L83.8985 14.557L84.4977 12.1003ZM66.1988 21.3635C65.9325 22.4906 65.8438 23.64 65.9547 24.767C66.0656 25.9164 66.5093 27.6518 66.9308 28.5308H62.7164C62.2064 27.6521 62.2287 27.2238 62.1179 26.9534C61.5631 27.4043 60.9646 27.7873 60.2991 28.0805C59.6337 28.3736 58.9016 28.5313 58.0588 28.5313C57.0827 28.5313 56.24 28.3509 55.5524 28.0129C54.8648 27.675 54.2881 27.2016 53.8444 26.6154C53.4006 26.0292 53.0905 25.353 52.8904 24.5642C52.6908 23.7753 52.6021 22.9414 52.6021 22.0401C52.6021 20.6648 52.8462 19.3804 53.3122 18.1634C53.7999 16.9463 54.4653 15.8867 55.3085 14.9853C56.1513 14.0838 58.2142 12.078 61.5855 12.078H68.3507L66.1988 21.3635ZM63.1158 15.8416C61.0753 15.8416 60.698 15.8416 59.8555 16.2701C59.2566 16.5856 58.7684 17.0589 58.347 17.5997C57.9257 18.1405 57.5707 18.7717 57.3268 19.4931C57.0829 20.2143 56.9496 20.9579 56.9496 21.7244C56.9496 22.671 57.1052 23.4372 57.4155 24.0007C57.7258 24.5642 58.3027 24.8346 59.1455 24.8346C59.5894 24.8346 60.0104 24.7446 60.3657 24.5642C60.7203 24.3837 61.1195 24.0911 61.519 23.6628C61.5635 23.1671 61.6298 22.6485 61.7185 22.108C61.8071 21.5667 61.9181 21.0484 62.007 20.5976L63.1158 15.8416ZM51.4045 18.6139C51.4045 20.079 51.1604 21.4086 50.6945 22.6258C50.2288 23.8428 49.5634 24.8796 48.7204 25.7588C47.8774 26.638 46.8795 27.314 45.7039 27.8101C44.5284 28.3055 43.2641 28.5535 41.8889 28.5535C41.2234 28.5535 40.558 28.4859 39.8702 28.3732L38.5397 33.805H34.1698L39.2491 12.1225H45.0826C46.1921 12.1225 47.1454 12.303 47.9217 12.6406C48.7202 12.9786 49.3635 13.4522 49.8959 14.0384C50.4061 14.6244 50.7829 15.323 51.0268 16.1118C51.2936 16.8783 51.4045 17.7124 51.4045 18.6139ZM40.6911 24.767C41.0235 24.8569 41.4452 24.8797 41.9332 24.8797C42.7095 24.8797 43.3973 24.7443 44.0402 24.4512C44.6611 24.1582 45.2158 23.7525 45.6593 23.2344C46.1032 22.7159 46.4357 22.0848 46.7019 21.3635C46.9459 20.642 47.0791 19.8307 47.0791 18.9519C47.0791 18.0951 46.9015 17.3515 46.5245 16.7653C46.1474 16.1571 45.5045 15.8414 44.5729 15.8414H42.8426L40.6911 24.767ZM31.5084 24.767C30.9537 24.767 30.5105 24.6768 30.1776 24.5191C29.8669 24.3614 29.6228 24.136 29.49 23.8202C29.3567 23.5273 29.3124 23.1667 29.3347 22.761C29.3567 22.3552 29.4454 21.9044 29.5563 21.4537L30.887 15.8191H35.8555L36.765 12.0776H31.7742L32.9275 7.34436L28.2695 8.0878L25.3195 20.7548C25.0754 21.7913 24.9423 22.7835 24.898 23.7297C24.8535 24.6763 25.0089 25.4882 25.3195 26.2317C25.6299 26.9529 26.1845 27.5163 26.9386 27.9446C27.6927 28.3729 28.7797 28.5755 30.1549 28.5755C31.1088 28.5755 31.9514 28.4855 32.6614 28.3276C32.7279 28.3048 32.8388 28.2824 32.9051 28.26L33.8147 24.4058C33.504 24.5184 33.1936 24.5864 32.9051 24.6309C32.4621 24.7217 31.9961 24.767 31.5084 24.767ZM20.396 12.1003L16.5365 28.5533H20.9061L24.7432 12.1003H20.396ZM25.2091 10.2068L25.8745 7.34436H21.505L20.8395 10.2068H25.2091ZM10.7252 12.1225C11.6567 12.1225 12.4774 12.303 13.165 12.6406C13.8526 12.9786 14.4072 13.4295 14.8728 14.0157C15.3165 14.6019 15.6492 15.2781 15.8709 16.0444C16.0927 16.8104 16.2035 17.6446 16.2035 18.5462C16.2035 19.921 15.9596 21.2058 15.4494 22.4453C14.9392 23.6625 14.2738 24.7443 13.4089 25.6456C12.5439 26.5471 11.5235 27.2687 10.3481 27.787C9.17243 28.3053 7.90809 28.5757 6.53305 28.5757C6.35548 28.5757 6.04503 28.5757 5.60152 28.5533C5.15784 28.5533 4.64781 28.5081 4.09326 28.418C3.51653 28.328 2.91762 28.2151 2.29654 28.0576C1.67676 27.9044 1.07459 27.6853 0.5 27.4039L5.57917 5.72159L10.1263 5L8.32959 12.6855C8.72875 12.5054 9.08372 12.37 9.48305 12.2801C9.86003 12.1678 10.2815 12.1225 10.7252 12.1225ZM6.91003 24.8797C7.59764 24.8797 8.24089 24.7217 8.8398 24.3614C9.44668 24.0195 9.98171 23.5601 10.4146 23.009C10.8583 22.4453 11.2131 21.7917 11.4572 21.0928C11.7011 20.3715 11.8341 19.6281 11.8341 18.8618C11.8341 17.915 11.6789 17.1716 11.3683 16.6304C11.0578 16.0895 10.4146 15.8416 9.57175 15.8416C9.30548 15.8416 9.0172 15.8643 8.57352 15.977C8.12985 16.0669 7.75287 16.2926 7.39806 16.6079L5.49047 24.7895C6.0672 24.8797 6.2446 24.902 6.4 24.902C6.51087 24.8797 6.68828 24.8797 6.91003 24.8797Z" fill="white"/>
</svg>
