<svg width="19" height="15" viewBox="0 0 19 15" fill="none" xmlns="http://www.w3.org/2000/svg">
<path d="M15.2893 2.10474C14.1067 1.56331 12.8582 1.1792 11.5758 0.962223C11.4003 1.27594 11.2415 1.59871 11.1001 1.92919C9.73405 1.72334 8.34487 1.72334 6.97882 1.92919C6.83732 1.59875 6.67854 1.27598 6.50312 0.962223C5.21985 1.18103 3.97055 1.56605 2.78674 2.10757C0.436579 5.58469 -0.200513 8.97544 0.118033 12.3181C1.49435 13.3349 3.03484 14.1083 4.67254 14.6045C5.0413 14.1085 5.36761 13.5824 5.648 13.0316C5.11544 12.8327 4.60142 12.5873 4.1119 12.2982C4.24073 12.2048 4.36674 12.1085 4.48849 12.0151C5.91289 12.6849 7.46754 13.0323 9.04158 13.0323C10.6156 13.0323 12.1703 12.6849 13.5947 12.0151C13.7178 12.1156 13.8438 12.2119 13.9713 12.2982C13.4808 12.5878 12.9658 12.8336 12.4323 13.033C12.7124 13.5835 13.0387 14.1093 13.4078 14.6045C15.0469 14.1103 16.5886 13.3373 17.9651 12.3195C18.3389 8.44311 17.3266 5.08351 15.2893 2.10474ZM6.05149 10.2624C5.16381 10.2624 4.43044 9.4568 4.43044 8.46576C4.43044 7.47473 5.13833 6.66208 6.04866 6.66208C6.959 6.66208 7.6867 7.47473 7.67112 8.46576C7.65555 9.4568 6.95616 10.2624 6.05149 10.2624ZM12.0317 10.2624C11.1426 10.2624 10.412 9.4568 10.412 8.46576C10.412 7.47473 11.1199 6.66208 12.0317 6.66208C12.9434 6.66208 13.6655 7.47473 13.6499 8.46576C13.6343 9.4568 12.9363 10.2624 12.0317 10.2624Z" fill="white"/>
</svg>
