<svg width="400" height="80" viewBox="0 0 400 80" fill="none" xmlns="http://www.w3.org/2000/svg">
<path d="M22.32 64.928C19.2 64.928 16.368 64.496 13.824 63.632C11.328 62.72 9.192 61.424 7.416 59.744C5.64 58.064 4.32 56.072 3.456 53.768L6.552 51.392C7.224 53.6 8.304 55.472 9.792 57.008C11.28 58.496 13.104 59.648 15.264 60.464C17.472 61.28 19.896 61.688 22.536 61.688C26.472 61.688 29.64 60.896 32.04 59.312C34.44 57.68 35.64 55.352 35.64 52.328C35.64 50.36 34.968 48.704 33.624 47.36C32.28 45.968 29.976 44.936 26.712 44.264L17.136 42.176C14.304 41.552 12 40.712 10.224 39.656C8.496 38.552 7.224 37.232 6.408 35.696C5.64 34.16 5.256 32.432 5.256 30.512C5.256 28.16 5.928 26 7.272 24.032C8.616 22.064 10.512 20.48 12.96 19.28C15.408 18.032 18.36 17.408 21.816 17.408C25.8 17.408 29.208 18.248 32.04 19.928C34.92 21.608 37.128 24.2 38.664 27.704L35.784 29.936C34.44 26.672 32.544 24.32 30.096 22.88C27.696 21.392 24.792 20.648 21.384 20.648C18.744 20.648 16.488 21.08 14.616 21.944C12.744 22.76 11.328 23.888 10.368 25.328C9.408 26.768 8.928 28.376 8.928 30.152C8.928 31.592 9.216 32.864 9.792 33.968C10.368 35.072 11.328 36.032 12.672 36.848C14.064 37.616 15.936 38.264 18.288 38.792L27.432 40.808C31.704 41.72 34.752 43.112 36.576 44.984C38.4 46.808 39.312 49.16 39.312 52.04C39.312 54.632 38.592 56.888 37.152 58.808C35.712 60.728 33.72 62.24 31.176 63.344C28.632 64.4 25.68 64.928 22.32 64.928ZM20.52 72.2V10.28H23.616V72.2H20.52ZM66.0645 16.76C68.5125 16.76 70.6245 17.12 72.4005 17.84C74.1765 18.56 75.6885 19.616 76.9365 21.008C78.1845 22.4 79.1925 24.104 79.9605 26.12L76.5765 27.704C75.9045 25.448 74.7045 23.624 72.9765 22.232C71.2485 20.792 68.8725 20.072 65.8485 20.072C63.3045 20.072 61.0965 20.672 59.2245 21.872C57.4005 23.072 55.8885 24.704 54.6885 26.768C53.4885 28.832 52.6005 31.208 52.0245 33.896C51.4965 36.536 51.2325 39.32 51.2325 42.248C51.2325 42.968 51.2565 43.736 51.3045 44.552C51.3525 45.368 51.4245 46.208 51.5205 47.072H51.7365C52.0725 44.528 52.9365 42.416 54.3285 40.736C55.7685 39.056 57.4725 37.808 59.4405 36.992C61.4565 36.128 63.5205 35.696 65.6325 35.696C68.8005 35.696 71.5125 36.32 73.7685 37.568C76.0725 38.768 77.8485 40.496 79.0965 42.752C80.3445 45.008 80.9685 47.672 80.9685 50.744C80.9685 53.768 80.3205 56.408 79.0245 58.664C77.7285 60.92 75.9045 62.672 73.5525 63.92C71.2485 65.12 68.4885 65.72 65.2725 65.72C61.4805 65.72 58.2645 64.736 55.6245 62.768C53.0325 60.752 51.0885 57.92 49.7925 54.272C48.4965 50.624 47.8485 46.28 47.8485 41.24C47.8485 35.864 48.6405 31.376 50.2245 27.776C51.8085 24.128 53.9685 21.392 56.7045 19.568C59.4885 17.696 62.6085 16.76 66.0645 16.76ZM65.3445 39.08C62.9445 39.08 60.8325 39.632 59.0085 40.736C57.2325 41.792 55.8405 43.208 54.8325 44.984C53.8725 46.712 53.3925 48.632 53.3925 50.744C53.3925 52.856 53.8965 54.8 54.9045 56.576C55.9125 58.304 57.3045 59.696 59.0805 60.752C60.8565 61.808 62.8965 62.336 65.2005 62.336C68.9445 62.336 71.8725 61.28 73.9845 59.168C76.1445 57.056 77.2245 54.2 77.2245 50.6C77.2245 48.296 76.7445 46.28 75.7845 44.552C74.8245 42.824 73.4565 41.48 71.6805 40.52C69.9045 39.56 67.7925 39.08 65.3445 39.08ZM92.8575 59.096C93.8175 59.096 94.5855 59.408 95.1615 60.032C95.7855 60.608 96.0975 61.376 96.0975 62.336C96.0975 63.296 95.7855 64.088 95.1615 64.712C94.5855 65.288 93.8175 65.576 92.8575 65.576C91.8975 65.576 91.1055 65.288 90.4815 64.712C89.9055 64.088 89.6175 63.296 89.6175 62.336C89.6175 61.376 89.9055 60.608 90.4815 60.032C91.1055 59.408 91.8975 59.096 92.8575 59.096ZM120.957 65.72C115.581 65.72 111.357 63.632 108.285 59.456C105.213 55.232 103.677 49.16 103.677 41.24C103.677 33.32 105.213 27.272 108.285 23.096C111.357 18.872 115.581 16.76 120.957 16.76C126.381 16.76 130.629 18.872 133.701 23.096C136.773 27.272 138.309 33.32 138.309 41.24C138.309 49.16 136.773 55.232 133.701 59.456C130.629 63.632 126.381 65.72 120.957 65.72ZM121.029 62.48C123.957 62.48 126.429 61.688 128.445 60.104C130.461 58.472 131.997 56.072 133.053 52.904C134.109 49.736 134.637 45.848 134.637 41.24C134.637 36.632 134.109 32.744 133.053 29.576C131.997 26.408 130.461 24.032 128.445 22.448C126.429 20.816 123.957 20 121.029 20C118.101 20 115.605 20.816 113.541 22.448C111.525 24.032 109.989 26.408 108.933 29.576C107.877 32.744 107.349 36.632 107.349 41.24C107.349 45.8 107.877 49.688 108.933 52.904C109.989 56.072 111.525 58.472 113.541 60.104C115.605 61.688 118.101 62.48 121.029 62.48ZM194.571 17.48V65H191.115V29.576L191.547 20.936H191.475L174.123 65H170.811L153.459 20.936H153.387L153.819 29.576V65H150.363V17.48H155.763L170.091 53.48L172.467 60.752H172.539L174.843 53.552L189.171 17.48H194.571Z" fill="url(#paint0_linear_1_2265)"/>
<mask id="mask0_1_2265" style="mask-type:alpha" maskUnits="userSpaceOnUse" x="3" y="10" width="192" height="63">
<path d="M22.32 64.928C19.2 64.928 16.368 64.496 13.824 63.632C11.328 62.72 9.192 61.424 7.416 59.744C5.64 58.064 4.32 56.072 3.456 53.768L6.552 51.392C7.224 53.6 8.304 55.472 9.792 57.008C11.28 58.496 13.104 59.648 15.264 60.464C17.472 61.28 19.896 61.688 22.536 61.688C26.472 61.688 29.64 60.896 32.04 59.312C34.44 57.68 35.64 55.352 35.64 52.328C35.64 50.36 34.968 48.704 33.624 47.36C32.28 45.968 29.976 44.936 26.712 44.264L17.136 42.176C14.304 41.552 12 40.712 10.224 39.656C8.496 38.552 7.224 37.232 6.408 35.696C5.64 34.16 5.256 32.432 5.256 30.512C5.256 28.16 5.928 26 7.272 24.032C8.616 22.064 10.512 20.48 12.96 19.28C15.408 18.032 18.36 17.408 21.816 17.408C25.8 17.408 29.208 18.248 32.04 19.928C34.92 21.608 37.128 24.2 38.664 27.704L35.784 29.936C34.44 26.672 32.544 24.32 30.096 22.88C27.696 21.392 24.792 20.648 21.384 20.648C18.744 20.648 16.488 21.08 14.616 21.944C12.744 22.76 11.328 23.888 10.368 25.328C9.408 26.768 8.928 28.376 8.928 30.152C8.928 31.592 9.216 32.864 9.792 33.968C10.368 35.072 11.328 36.032 12.672 36.848C14.064 37.616 15.936 38.264 18.288 38.792L27.432 40.808C31.704 41.72 34.752 43.112 36.576 44.984C38.4 46.808 39.312 49.16 39.312 52.04C39.312 54.632 38.592 56.888 37.152 58.808C35.712 60.728 33.72 62.24 31.176 63.344C28.632 64.4 25.68 64.928 22.32 64.928ZM20.52 72.2V10.28H23.616V72.2H20.52ZM66.0645 16.76C68.5125 16.76 70.6245 17.12 72.4005 17.84C74.1765 18.56 75.6885 19.616 76.9365 21.008C78.1845 22.4 79.1925 24.104 79.9605 26.12L76.5765 27.704C75.9045 25.448 74.7045 23.624 72.9765 22.232C71.2485 20.792 68.8725 20.072 65.8485 20.072C63.3045 20.072 61.0965 20.672 59.2245 21.872C57.4005 23.072 55.8885 24.704 54.6885 26.768C53.4885 28.832 52.6005 31.208 52.0245 33.896C51.4965 36.536 51.2325 39.32 51.2325 42.248C51.2325 42.968 51.2565 43.736 51.3045 44.552C51.3525 45.368 51.4245 46.208 51.5205 47.072H51.7365C52.0725 44.528 52.9365 42.416 54.3285 40.736C55.7685 39.056 57.4725 37.808 59.4405 36.992C61.4565 36.128 63.5205 35.696 65.6325 35.696C68.8005 35.696 71.5125 36.32 73.7685 37.568C76.0725 38.768 77.8485 40.496 79.0965 42.752C80.3445 45.008 80.9685 47.672 80.9685 50.744C80.9685 53.768 80.3205 56.408 79.0245 58.664C77.7285 60.92 75.9045 62.672 73.5525 63.92C71.2485 65.12 68.4885 65.72 65.2725 65.72C61.4805 65.72 58.2645 64.736 55.6245 62.768C53.0325 60.752 51.0885 57.92 49.7925 54.272C48.4965 50.624 47.8485 46.28 47.8485 41.24C47.8485 35.864 48.6405 31.376 50.2245 27.776C51.8085 24.128 53.9685 21.392 56.7045 19.568C59.4885 17.696 62.6085 16.76 66.0645 16.76ZM65.3445 39.08C62.9445 39.08 60.8325 39.632 59.0085 40.736C57.2325 41.792 55.8405 43.208 54.8325 44.984C53.8725 46.712 53.3925 48.632 53.3925 50.744C53.3925 52.856 53.8965 54.8 54.9045 56.576C55.9125 58.304 57.3045 59.696 59.0805 60.752C60.8565 61.808 62.8965 62.336 65.2005 62.336C68.9445 62.336 71.8725 61.28 73.9845 59.168C76.1445 57.056 77.2245 54.2 77.2245 50.6C77.2245 48.296 76.7445 46.28 75.7845 44.552C74.8245 42.824 73.4565 41.48 71.6805 40.52C69.9045 39.56 67.7925 39.08 65.3445 39.08ZM92.8575 59.096C93.8175 59.096 94.5855 59.408 95.1615 60.032C95.7855 60.608 96.0975 61.376 96.0975 62.336C96.0975 63.296 95.7855 64.088 95.1615 64.712C94.5855 65.288 93.8175 65.576 92.8575 65.576C91.8975 65.576 91.1055 65.288 90.4815 64.712C89.9055 64.088 89.6175 63.296 89.6175 62.336C89.6175 61.376 89.9055 60.608 90.4815 60.032C91.1055 59.408 91.8975 59.096 92.8575 59.096ZM120.957 65.72C115.581 65.72 111.357 63.632 108.285 59.456C105.213 55.232 103.677 49.16 103.677 41.24C103.677 33.32 105.213 27.272 108.285 23.096C111.357 18.872 115.581 16.76 120.957 16.76C126.381 16.76 130.629 18.872 133.701 23.096C136.773 27.272 138.309 33.32 138.309 41.24C138.309 49.16 136.773 55.232 133.701 59.456C130.629 63.632 126.381 65.72 120.957 65.72ZM121.029 62.48C123.957 62.48 126.429 61.688 128.445 60.104C130.461 58.472 131.997 56.072 133.053 52.904C134.109 49.736 134.637 45.848 134.637 41.24C134.637 36.632 134.109 32.744 133.053 29.576C131.997 26.408 130.461 24.032 128.445 22.448C126.429 20.816 123.957 20 121.029 20C118.101 20 115.605 20.816 113.541 22.448C111.525 24.032 109.989 26.408 108.933 29.576C107.877 32.744 107.349 36.632 107.349 41.24C107.349 45.8 107.877 49.688 108.933 52.904C109.989 56.072 111.525 58.472 113.541 60.104C115.605 61.688 118.101 62.48 121.029 62.48ZM194.571 17.48V65H191.115V29.576L191.547 20.936H191.475L174.123 65H170.811L153.459 20.936H153.387L153.819 29.576V65H150.363V17.48H155.763L170.091 53.48L172.467 60.752H172.539L174.843 53.552L189.171 17.48H194.571Z" fill="url(#paint1_linear_1_2265)"/>
</mask>
<g mask="url(#mask0_1_2265)">
<path d="M575.5 -138.5L376.7 66.7C297.2 148.7 168.4 148.7 88.9 66.7L-110 -138.5" stroke="url(#paint2_linear_1_2265)" stroke-width="2" stroke-miterlimit="10" stroke-linecap="round"/>
<path d="M569.398 -138.8L380.998 55.6002C302.298 136.8 174.598 136.8 95.7984 55.6002L-92.1016 -138.4" stroke="url(#paint3_linear_1_2265)" stroke-width="2" stroke-miterlimit="10" stroke-linecap="round"/>
<path d="M563 -138.7L385.5 44.4998C307.4 125.1 180.9 125.1 102.8 44.4998L-74.6 -138.5" stroke="url(#paint4_linear_1_2265)" stroke-width="2" stroke-miterlimit="10" stroke-linecap="round"/>
<path d="M556.602 -138.9L389.702 33.3996C312.302 113.2 187.002 113.2 109.702 33.3996L-57.1984 -138.8" stroke="url(#paint5_linear_1_2265)" stroke-width="2" stroke-miterlimit="10" stroke-linecap="round"/>
<path d="M550 -139L393.8 22.2C317.2 101.3 193 101.3 116.4 22.2L-39.7 -138.9" stroke="url(#paint6_linear_1_2265)" stroke-width="2" stroke-miterlimit="10" stroke-linecap="round"/>
<path d="M543.199 -138.9L398.099 10.8004C322.199 89.1004 199.199 89.1004 123.299 10.8004L-22.0008 -139.1" stroke="url(#paint7_linear_1_2265)" stroke-width="2" stroke-miterlimit="10" stroke-linecap="round"/>
<path d="M537 -138.9L402.5 -0.0998136C327.3 77.4002 205.4 77.4002 130.2 -0.0998255L-4.70001 -139.3" stroke="url(#paint8_linear_1_2265)" stroke-width="2" stroke-miterlimit="10" stroke-linecap="round"/>
<path d="M530.5 -139.2L406.6 -11.3002C332.1 65.5998 211.4 65.5998 136.9 -11.3002L13.1 -139.1" stroke="url(#paint9_linear_1_2265)" stroke-width="2" stroke-miterlimit="10" stroke-linecap="round"/>
<path d="M523.801 -139L411.101 -22.6C337.401 53.5 217.801 53.5 144.101 -22.6L31.3008 -139" stroke="url(#paint10_linear_1_2265)" stroke-width="2" stroke-miterlimit="10" stroke-linecap="round"/>
<path d="M517.602 -139.4L414.902 -33.4004C341.802 41.9996 223.502 41.9996 150.402 -33.4004L48.1015 -139.2" stroke="url(#paint11_linear_1_2265)" stroke-width="2" stroke-miterlimit="10" stroke-linecap="round"/>
<path d="M511.398 -139.5L419.598 -44.8C347.198 29.8 229.998 29.8 157.698 -44.8L65.9984 -139.3" stroke="url(#paint12_linear_1_2265)" stroke-width="2" stroke-miterlimit="10" stroke-linecap="round"/>
<path d="M504.801 -139.4L423.801 -55.8004C352.201 17.9996 236.101 17.9996 164.501 -55.8004L83.9008 -139" stroke="url(#paint13_linear_1_2265)" stroke-width="2" stroke-miterlimit="10" stroke-linecap="round"/>
</g>
<defs>
<linearGradient id="paint0_linear_1_2265" x1="0.38241" y1="40.2837" x2="400.382" y2="40.2837" gradientUnits="userSpaceOnUse">
<stop stop-color="#FF80BF"/>
<stop offset="1" stop-color="#7919FF"/>
</linearGradient>
<linearGradient id="paint1_linear_1_2265" x1="0.38241" y1="40.2837" x2="400.382" y2="40.2837" gradientUnits="userSpaceOnUse">
<stop stop-color="#FF80BF"/>
<stop offset="1" stop-color="#7919FF"/>
</linearGradient>
<linearGradient id="paint2_linear_1_2265" x1="232.669" y1="-139.362" x2="232.669" y2="129.066" gradientUnits="userSpaceOnUse">
<stop stop-color="#B480FF"/>
<stop offset="0.328125" stop-color="#5F00E6"/>
<stop offset="0.614583" stop-color="#1AA4FF"/>
<stop offset="1" stop-color="#19FF83"/>
</linearGradient>
<linearGradient id="paint3_linear_1_2265" x1="238.57" y1="-139.625" x2="238.57" y2="117.329" gradientUnits="userSpaceOnUse">
<stop stop-color="#B480FF"/>
<stop offset="0.328125" stop-color="#5F00E6"/>
<stop offset="0.614583" stop-color="#1AA4FF"/>
<stop offset="1" stop-color="#19FF83"/>
</linearGradient>
<linearGradient id="paint4_linear_1_2265" x1="244.124" y1="-139.488" x2="244.124" y2="105.741" gradientUnits="userSpaceOnUse">
<stop stop-color="#B480FF"/>
<stop offset="0.328125" stop-color="#5F00E6"/>
<stop offset="0.614583" stop-color="#1AA4FF"/>
<stop offset="1" stop-color="#19FF83"/>
</linearGradient>
<linearGradient id="paint5_linear_1_2265" x1="249.629" y1="-139.651" x2="249.629" y2="94.0032" gradientUnits="userSpaceOnUse">
<stop stop-color="#B480FF"/>
<stop offset="0.328125" stop-color="#5F00E6"/>
<stop offset="0.614583" stop-color="#1AA4FF"/>
<stop offset="1" stop-color="#19FF83"/>
</linearGradient>
<linearGradient id="paint6_linear_1_2265" x1="255.08" y1="-139.713" x2="255.08" y2="82.2409" gradientUnits="userSpaceOnUse">
<stop stop-color="#B480FF"/>
<stop offset="0.328125" stop-color="#5F00E6"/>
<stop offset="0.614583" stop-color="#1AA4FF"/>
<stop offset="1" stop-color="#19FF83"/>
</linearGradient>
<linearGradient id="paint7_linear_1_2265" x1="260.532" y1="-139.774" x2="260.532" y2="70.2026" gradientUnits="userSpaceOnUse">
<stop stop-color="#B480FF"/>
<stop offset="0.328125" stop-color="#5F00E6"/>
<stop offset="0.614583" stop-color="#1AA4FF"/>
<stop offset="1" stop-color="#19FF83"/>
</linearGradient>
<linearGradient id="paint8_linear_1_2265" x1="266.086" y1="-139.937" x2="266.086" y2="58.6658" gradientUnits="userSpaceOnUse">
<stop stop-color="#B480FF"/>
<stop offset="0.328125" stop-color="#5F00E6"/>
<stop offset="0.614583" stop-color="#1AA4FF"/>
<stop offset="1" stop-color="#19FF83"/>
</linearGradient>
<linearGradient id="paint9_linear_1_2265" x1="271.739" y1="-139.8" x2="271.739" y2="46.9772" gradientUnits="userSpaceOnUse">
<stop stop-color="#B480FF"/>
<stop offset="0.328125" stop-color="#5F00E6"/>
<stop offset="0.614583" stop-color="#1AA4FF"/>
<stop offset="1" stop-color="#19FF83"/>
</linearGradient>
<linearGradient id="paint10_linear_1_2265" x1="277.492" y1="-139.561" x2="277.492" y2="35.0381" gradientUnits="userSpaceOnUse">
<stop stop-color="#B480FF"/>
<stop offset="0.328125" stop-color="#5F00E6"/>
<stop offset="0.614583" stop-color="#1AA4FF"/>
<stop offset="1" stop-color="#19FF83"/>
</linearGradient>
<linearGradient id="paint11_linear_1_2265" x1="282.796" y1="-139.926" x2="282.796" y2="23.6773" gradientUnits="userSpaceOnUse">
<stop stop-color="#B480FF"/>
<stop offset="0.328125" stop-color="#5F00E6"/>
<stop offset="0.614583" stop-color="#1AA4FF"/>
<stop offset="1" stop-color="#19FF83"/>
</linearGradient>
<linearGradient id="paint12_linear_1_2265" x1="288.646" y1="-139.987" x2="288.646" y2="11.639" gradientUnits="userSpaceOnUse">
<stop stop-color="#B480FF"/>
<stop offset="0.328125" stop-color="#5F00E6"/>
<stop offset="0.614583" stop-color="#1AA4FF"/>
<stop offset="1" stop-color="#19FF83"/>
</linearGradient>
<linearGradient id="paint13_linear_1_2265" x1="294.301" y1="-139.849" x2="294.301" y2="0.000668069" gradientUnits="userSpaceOnUse">
<stop stop-color="#B480FF"/>
<stop offset="0.328125" stop-color="#5F00E6"/>
<stop offset="0.614583" stop-color="#1AA4FF"/>
<stop offset="1" stop-color="#19FF83"/>
</linearGradient>
</defs>
</svg>
