<svg id="Layer_1" data-name="Layer 1" xmlns="http://www.w3.org/2000/svg" viewBox="0 0 60 60"><defs><style>.cls-1{fill:#e9eded;}.cls-2{fill:#d0d4d4;}.cls-3{fill:#e1e5e5;}.cls-4{fill:#2fd184;}</style></defs><title>icon-xrp-fast-algorithm</title><polygon class="cls-1" points="45 15 45 30 30 45 30 60 60 30 60 0 45 15"/><polygon class="cls-2" points="0 30 0 60 15 45 15 30 30 15 30 0 0 30"/><polygon class="cls-3" points="30 15 30 30 45 15 45 0 30 15"/><polygon class="cls-3" points="15 60 30 45 30 30 15 45 15 60"/><polygon class="cls-4" points="15 30 15 45 30 30 30 15 15 30"/><polygon class="cls-4" points="30 30 30 45 45 30 45 15 30 30"/></svg>