<svg width="122" height="35" viewBox="0 0 122 35" fill="none" xmlns="http://www.w3.org/2000/svg">
<path fill-rule="evenodd" clip-rule="evenodd" d="M52.8395 2.96473C52.8395 1.28593 51.49 0 49.8204 0C48.1508 0 46.8012 1.28732 46.8012 2.96473C46.8012 4.64215 48.1508 5.92807 49.8204 5.92807C51.49 5.92807 52.8395 4.64354 52.8395 2.96473ZM47.512 26.429H52.1287V9.10736H47.512V26.429ZM42.9298 13.0362C43.6046 13.0362 44.2794 13.1073 44.5994 13.2146L45.1273 8.88868C44.6111 8.79873 44.0883 8.75213 43.5644 8.74936C41.4666 8.74936 39.5864 9.57135 38.557 10.8573V9.10741H34.1162V26.4291H38.7385V16.7199C38.7385 14.6844 40.9055 13.0362 42.9298 13.0362ZM65.7682 8.7493C63.9338 8.72459 62.1483 9.3439 60.7192 10.5006V9.10735H56.2854V35H60.9035V25.2141C62.2164 26.2582 63.8479 26.8138 65.5216 26.7871C68.0793 26.7871 70.529 25.6433 72.0559 23.8614C73.4068 22.2898 74.2229 20.1471 74.2229 17.7898C74.2215 12.6781 70.4556 8.7493 65.7682 8.7493ZM65.207 22.5712C62.3389 22.5712 60.4545 20.5804 60.4545 17.8009C60.4545 15.0215 62.3389 13.0306 65.207 13.0306C67.6553 13.0306 69.6408 15.1664 69.6408 17.8009C69.6408 20.4355 67.6553 22.5712 65.207 22.5712ZM97.628 26.429H102.246V1.07272H97.628V26.429ZM121.072 23.6789C119.402 25.6781 116.667 26.7857 114.005 26.7857C108.855 26.7857 104.984 23.215 104.984 17.7857C104.984 12.9638 108.251 8.74936 113.367 8.74936C118.126 8.74936 121.5 12.7896 121.5 17.6073C121.503 18.0499 121.467 18.4919 121.393 18.9281H109.457C109.705 21.3578 111.658 23.0352 114.109 23.0352C116.063 23.0352 117.626 21.929 118.443 21.036L121.072 23.6789ZM116.777 15.5356C116.638 14.0031 115.252 12.4999 113.367 12.4999C111.448 12.4999 109.886 13.9641 109.673 15.5356H116.777ZM81.3975 10.5005C82.8252 9.34506 84.6085 8.72582 86.441 8.74923C91.1284 8.74923 94.893 12.6781 94.8999 17.7897C94.8999 20.147 94.0852 22.2897 92.7342 23.8613C91.2073 25.6432 88.7577 26.787 86.1999 26.787C84.5262 26.8138 82.8948 26.2581 81.5818 25.2141V34.9999H76.9637V9.10728H81.3975V10.5005ZM81.1329 17.8009C81.1329 20.5791 83.017 22.5694 85.883 22.5712C88.3298 22.5694 90.3206 20.4343 90.3206 17.8009C90.3206 15.1663 88.3351 13.0305 85.8868 13.0305C83.0186 13.0305 81.1329 15.0214 81.1329 17.8009Z" fill="white"/>
<path d="M24.6014 19.553C23.5595 18.9483 22.3845 18.7728 21.222 18.731C20.2521 18.6975 18.7903 18.0692 18.7903 16.2845C18.7903 14.954 19.8628 13.884 21.222 13.8366C22.3859 13.7962 23.5595 13.6193 24.6014 13.0147C25.5378 12.4712 26.3154 11.6895 26.8561 10.748C27.3968 9.8066 27.6815 8.73863 27.6815 7.65149C27.6816 6.56435 27.397 5.49635 26.8564 4.55485C26.3159 3.61335 25.5383 2.83153 24.602 2.28798C23.6656 1.74443 22.6035 1.45831 21.5223 1.45837C20.4411 1.45844 19.379 1.74469 18.4427 2.28835C17.5064 2.83201 16.729 3.61393 16.1885 4.55549C15.6481 5.49706 15.3636 6.56509 15.3638 7.65223C15.3638 8.85177 15.7878 9.95658 16.3337 10.9806C16.7896 11.8416 17.0265 13.4396 15.458 14.3466C14.2955 15.0209 12.8462 14.5946 12.1216 13.4284C11.5092 12.4434 10.7707 11.5211 9.73703 10.9207C8.80075 10.3774 7.73876 10.0915 6.65777 10.0917C5.57679 10.0919 4.5149 10.3782 3.5788 10.9218C2.64271 11.4653 1.86539 12.2471 1.32495 13.1884C0.784514 14.1298 0.5 15.1976 0.5 16.2845C0.5 17.3714 0.784514 18.4392 1.32495 19.3806C1.86539 20.3219 2.64271 21.1037 3.5788 21.6472C4.5149 22.1908 5.57679 22.4771 6.65777 22.4773C7.73876 22.4775 8.80075 22.1916 9.73703 21.6483C10.7707 21.0479 11.5092 20.1256 12.1202 19.1406C12.6232 18.3325 13.8771 17.3029 15.458 18.2211C16.6178 18.8954 16.9822 20.3722 16.3337 21.5884C15.792 22.6124 15.3638 23.7158 15.3638 24.9154C15.3636 26.0025 15.6481 27.0706 16.1885 28.0121C16.729 28.9537 17.5064 29.7356 18.4427 30.2793C19.379 30.8229 20.4411 31.1092 21.5223 31.1092C22.6035 31.1093 23.6656 30.8232 24.602 30.2796C25.5383 29.7361 26.3159 28.9543 26.8564 28.0128C27.397 27.0713 27.6816 26.0033 27.6815 24.9161C27.6815 23.829 27.3968 22.761 26.8561 21.8196C26.3154 20.8781 25.5378 20.0964 24.6014 19.553V19.553Z" fill="url(#paint0_linear)"/>
<defs>
<linearGradient id="paint0_linear" x1="0.5" y1="1.45837" x2="30.0391" y2="28.5375" gradientUnits="userSpaceOnUse">
<stop stop-color="#1DB4FF"/>
<stop offset="1" stop-color="#0F72E5"/>
</linearGradient>
</defs>
</svg>
