<svg width="135" height="35" viewBox="0 0 135 35" fill="none" xmlns="http://www.w3.org/2000/svg">
<path fill-rule="evenodd" clip-rule="evenodd" d="M113.965 5.00356V26.4917C113.953 26.8414 114.082 27.1809 114.324 27.4343C114.566 27.6876 114.899 27.8334 115.25 27.8391H115.631C115.987 27.8391 116.328 27.6963 116.577 27.4428C116.826 27.1893 116.963 26.8468 116.956 26.4917L116.953 5.00356H119.453V27.0598C119.462 28.7202 118.133 30.08 116.468 30.1132H114.561C113.744 30.1231 112.957 29.8053 112.378 29.2312C111.798 28.6571 111.474 27.8747 111.478 27.0598V5.00356H113.965ZM131.698 4.75525C133.364 4.78965 134.717 6.35326 134.717 8.05705V10.0513C134.717 10.3343 134.529 10.5828 134.256 10.6615L132.188 11.2533V8.37933C132.188 7.64995 131.595 7.05862 130.864 7.05862C130.132 7.05862 129.539 7.64995 129.539 8.37933V10.7567C129.539 12.2147 130.615 14.0955 130.615 14.0955L133.594 19.83C134.81 22.1044 134.704 23.7737 134.704 23.7737V26.9436C134.713 27.7774 134.389 28.5805 133.803 29.1754C133.217 29.7702 132.418 30.1078 131.581 30.1132H130.019C128.331 30.0183 127.009 28.6295 127.002 26.9436V23.3907C127.002 23.1077 127.19 22.8592 127.463 22.7805L129.537 22.1889V26.5261C129.546 27.2555 130.147 27.8393 130.878 27.8297C131.61 27.8202 132.195 27.2214 132.185 26.4917V23.6496C132.185 22.1941 131.11 20.2764 131.11 20.2764L128.125 14.5577C126.909 12.2833 127.013 10.6139 127.013 10.6139V8.05705C127.013 6.31886 128.403 4.75525 130.138 4.75525H131.698ZM84.6315 4.75525C86.3204 4.84524 87.6428 6.23829 87.6404 7.92488V26.9884C87.619 28.6578 86.303 30.0244 84.6315 30.1132H82.7218C81.0086 30.0836 79.6273 28.7049 79.599 26.9964V7.92488C79.5898 7.09113 79.9142 6.288 80.5002 5.69313C81.0861 5.09827 81.8857 4.7609 82.7218 4.75525H84.6315ZM55.9943 5.00356L55.3905 7.10079C55.3123 7.37313 55.0625 7.56066 54.7786 7.56042H50.787V15.5535H54.9322L54.331 17.6536C54.2519 17.9247 54.0024 18.1111 53.7192 18.1104H50.787V27.3425H55.9943L55.4088 29.4053C55.3302 29.6772 55.0809 29.8645 54.797 29.8649H48.2893V5.00356H55.9943ZM100.431 5.00356C102.15 5.01817 103.535 6.4138 103.532 8.12843V26.7401C103.535 28.4549 102.15 29.8506 100.431 29.8649H95.6048V5.00356H100.431ZM67.598 12.9967L69.8969 5.00356H72.4477L68.8747 17.4342L72.4477 29.8649H69.8969L67.598 21.8718L65.2989 29.8649H62.7484L66.3214 17.4342L62.7484 5.00356H65.2989L67.598 12.9967ZM83.7944 27.8761C84.1551 27.8704 84.4984 27.7208 84.7474 27.4605C84.9964 27.2004 85.1302 26.8513 85.1189 26.4917V8.37674C85.1302 8.01723 84.9964 7.66809 84.7474 7.408C84.4984 7.14767 84.1551 6.99807 83.7944 6.99241H83.413C82.6721 7.02775 82.0894 7.63675 82.0887 8.37674V26.4917C82.0894 27.2317 82.6721 27.8407 83.413 27.8761H83.7944ZM99.7288 27.3502C100.431 27.3502 101.053 26.9884 101.053 26.0295V8.83897C101.053 7.91711 100.425 7.56042 99.7288 7.56042H98.0999V27.3502H99.7288Z" fill="white"/>
<path d="M25.0339 17.4999L35.4917 27.9603H31.8017C31.1691 27.9596 30.5627 27.7078 30.1158 27.2602L20.3817 17.4999L30.1236 7.73184C30.5719 7.28704 31.1783 7.03826 31.8097 7.03967H35.4917L25.0339 17.4999ZM5.86816 7.73184C5.41983 7.28704 4.81342 7.03826 4.18204 7.03967H0.5L10.9579 17.4999L0.5 27.9603H4.19005C4.82261 27.9596 5.42902 27.7078 5.87593 27.2602L15.6101 17.4999L5.86816 7.73184ZM17.9959 19.8864L8.22995 29.6307C7.78539 30.079 7.53661 30.6854 7.53802 31.317V35L17.9959 24.5398L28.4535 35V31.317C28.4551 30.6854 28.2064 30.079 27.7618 29.6307L17.9959 19.8864ZM17.9959 15.1136L27.7618 5.36934C28.2064 4.92101 28.4551 4.3146 28.4535 3.68298V0L17.9959 10.4602L7.53802 0V3.68298C7.53661 4.3146 7.78539 4.92101 8.22995 5.36934L17.9959 15.1136Z" fill="url(#paint0_linear)"/>
<defs>
<linearGradient id="paint0_linear" x1="0.5" y1="17.5" x2="35.4917" y2="17.5" gradientUnits="userSpaceOnUse">
<stop stop-color="#00BFFF"/>
<stop offset="1" stop-color="#6619FF"/>
</linearGradient>
</defs>
</svg>
