<svg width="262" height="40" viewBox="0 0 262 40" fill="none" xmlns="http://www.w3.org/2000/svg">
<path d="M6.32122 1.30226C6.32122 8.81563 6.32589 16.3306 6.33524 23.8473C6.35777 24.1049 6.29011 24.3624 6.14257 24.5804C4.41298 25.0776 2.9145 26.1131 1.89313 27.517C0.871752 28.9209 0.388181 30.6096 0.521797 32.3061C0.655413 34.0026 1.39828 35.6059 2.62844 36.8529C3.8586 38.0998 5.50295 38.9164 7.29155 39.1684C7.33008 39.1838 7.36862 39.1969 7.40715 39.2079H7.62083C8.18715 39.2672 8.75871 39.2672 9.32503 39.2079H9.50018L9.61052 39.1733C11.4064 38.9279 13.0595 38.1136 14.2968 36.8649C15.534 35.6162 16.2814 34.0079 16.4153 32.3056C16.5492 30.6034 16.0618 28.9091 15.0334 27.5027C14.0051 26.0963 12.4974 25.0619 10.7595 24.5705V10.0468H18.7148V6.46035H10.784V3.88707H18.8899V0.368164H6.32122V1.30226ZM12.2921 31.7797C12.2921 32.4831 12.0703 33.1708 11.6548 33.7557C11.2393 34.3406 10.6487 34.7965 9.95769 35.0657C9.26672 35.3349 8.50639 35.4054 7.77286 35.2681C7.03933 35.1309 6.36553 34.7921 5.83669 34.2947C5.30784 33.7973 4.94769 33.1635 4.80178 32.4736C4.65587 31.7836 4.73076 31.0685 5.01697 30.4186C5.30318 29.7686 5.78786 29.2131 6.40972 28.8223C7.03158 28.4315 7.76268 28.2229 8.51059 28.2229C9.5135 28.2229 10.4753 28.5976 11.1845 29.2646C11.8937 29.9317 12.2921 30.8364 12.2921 31.7797Z" fill="white"/>
<path d="M61.6821 10.45C64.3339 9.38745 65.0555 7.06458 64.8891 5.30842C64.8507 4.87558 64.7721 4.44672 64.6544 4.02672C64.0992 2.0498 62.6875 0.86201 60.3423 0.489691C58.7256 0.232692 57.0407 0.346365 55.3873 0.324948C53.7059 0.303532 52.0262 0.324948 50.3237 0.324948V16.4302H54.6534V10.9937C55.1413 11.0155 55.6301 11.0122 56.1177 10.9838C56.7605 10.913 57.1195 11.1337 57.3892 11.6906C57.9147 12.7779 59.3789 15.3149 59.8168 16.4253L64.9364 16.4566C63.7104 14.3544 62.5894 12.4648 61.4807 10.5818C61.5443 10.5333 61.6117 10.4893 61.6821 10.45ZM58.6486 7.37264C57.3542 7.41383 56.0564 7.38253 54.6604 7.38253V4.02672H59.188C59.5569 4.14566 59.8747 4.37424 60.0933 4.67796C60.3119 4.98168 60.4196 5.34406 60.4001 5.71039C60.4043 5.92852 60.362 6.14524 60.2756 6.34773C60.1893 6.55023 60.0607 6.7344 59.8974 6.88935C59.7342 7.04431 59.5395 7.16692 59.325 7.24993C59.1105 7.33293 58.8805 7.37466 58.6486 7.37264Z" fill="white"/>
<path d="M34.2048 9.5706e-05C29.4022 9.5706e-05 25.3843 3.76117 25.3072 8.34597C25.2319 12.8995 29.2883 16.7297 34.1925 16.7363C39.1825 16.7363 43.1128 13.0889 43.1251 8.43658C43.1372 7.32941 42.9151 6.23103 42.4717 5.20536C42.0283 4.17968 41.3725 3.24718 40.5424 2.46211C39.7123 1.67704 38.7245 1.05507 37.6364 0.632403C36.5484 0.209732 35.3819 -0.00520502 34.2048 9.5706e-05ZM34.2591 12.7578C33.341 12.7581 32.4434 12.5022 31.68 12.0225C30.9166 11.5428 30.3216 10.8609 29.9705 10.063C29.6193 9.26515 29.5277 8.38721 29.7072 7.54034C29.8867 6.69346 30.3293 5.91573 30.979 5.30557C31.6287 4.69541 32.4562 4.28027 33.3569 4.11268C34.2575 3.94509 35.1908 4.03259 36.0385 4.36411C36.8863 4.69563 37.6104 5.25626 38.1192 5.97504C38.628 6.69382 38.8987 7.53844 38.897 8.40198C38.8947 9.55768 38.4051 10.6653 37.5356 11.4819C36.6661 12.2985 35.4878 12.7573 34.2591 12.7578Z" fill="white"/>
<path d="M105.5 3.88848V0.374512H92.9404V16.4732H105.457V12.9114H97.3437V10.0713H105.281V6.50459H97.3577V3.88848H105.5Z" fill="white"/>
<path d="M71.4707 3.94204H76.3188V16.4295H80.6976V3.89262H85.3986V0.358887H71.4707V3.94204Z" fill="white"/>
</svg>
