<svg width="262" height="40" viewBox="0 0 262 40" fill="none" xmlns="http://www.w3.org/2000/svg">
<g clip-path="url(#clip0_1102_1332)">
<path d="M16 35.9287L0.474365 17.9375H31.5256L16 35.9287Z" fill="#00A8EA"/>
<path d="M26.548 8.26611H5.45197L0.474365 17.9381H31.5256L26.548 8.26611Z" fill="#33D3F4"/>
<path d="M16 35.9285L10.3704 17.9373H21.6296L16 35.9285ZM11.3776 15.5197L6.93359 8.26611H16L11.3776 15.5197ZM20.3848 15.5197L16 8.26611H25.0664L20.3848 15.5197Z" fill="#40EEFF"/>
<path d="M5.03679 9.19107L2.72559 8.26627L5.03759 7.34227L5.80639 4.56787L6.57679 7.34147L8.88879 8.26547L6.57679 9.19027L5.80639 11.9639L5.03679 9.19107ZM26.9632 18.2223L25.4816 17.6535L26.9632 17.0135L27.496 15.2351L27.9704 17.0135L29.452 17.6535L27.9704 18.2215L27.496 19.9999L26.9632 18.2223Z" fill="white"/>
<path opacity="0.2" d="M17.4817 8.26611L5.03686 23.2717L3.97046 22.0629L15.4665 8.26691L17.4817 8.26611ZM24.4745 8.26611L8.59206 27.3245L6.10406 24.4797L19.5553 8.26611H24.4745Z" fill="white"/>
</g>
<defs>
<clipPath id="clip0_1102_1332">
<rect width="32" height="32" fill="white" transform="translate(0 4)"/>
</clipPath>
</defs>
</svg>
