<svg width="40" height="40" viewBox="0 0 40 40" fill="none" xmlns="http://www.w3.org/2000/svg">
<circle cx="20" cy="20" r="19.5" stroke="#C1C1C2"/>
<path fill-rule="evenodd" clip-rule="evenodd" d="M25 20.9995H17.414L18.707 22.2925C19.098 22.6825 19.098 23.3165 18.707 23.7065C18.512 23.9015 18.256 23.9995 18 23.9995C17.744 23.9995 17.488 23.9015 17.293 23.7065L14.294 20.7065C14.201 20.6145 14.128 20.5045 14.077 20.3815C14.027 20.2605 14.001 20.1315 14.001 20.0025L14 19.9995C14 19.8695 14.027 19.7395 14.077 19.6175C14.128 19.4945 14.201 19.3845 14.293 19.2925L17.293 16.2925C17.684 15.9025 18.316 15.9025 18.707 16.2925C19.098 16.6825 19.098 17.3165 18.707 17.7065L17.414 18.9995H25C25.552 18.9995 26 19.4475 26 19.9995C26 20.5515 25.552 20.9995 25 20.9995Z" fill="#343437"/>
</svg>
