<svg width="40" height="40" viewBox="0 0 40 40" fill="none" xmlns="http://www.w3.org/2000/svg">
<circle cx="20" cy="20" r="19.5" stroke="#454549"/>
<path fill-rule="evenodd" clip-rule="evenodd" d="M15 20.9995H22.586L21.293 22.2925C20.902 22.6825 20.902 23.3165 21.293 23.7065C21.488 23.9015 21.744 23.9995 22 23.9995C22.256 23.9995 22.512 23.9015 22.707 23.7065L25.706 20.7065C25.799 20.6145 25.872 20.5045 25.923 20.3815C25.973 20.2605 25.999 20.1315 25.999 20.0025L26 19.9995C26 19.8695 25.973 19.7395 25.923 19.6175C25.872 19.4945 25.799 19.3845 25.707 19.2925L22.707 16.2925C22.316 15.9025 21.684 15.9025 21.293 16.2925C20.902 16.6825 20.902 17.3165 21.293 17.7065L22.586 18.9995H15C14.448 18.9995 14 19.4475 14 19.9995C14 20.5515 14.448 20.9995 15 20.9995Z" fill="#A2A2A4"/>
</svg>
