<svg width="48" height="44" viewBox="0 0 48 44" fill="none" xmlns="http://www.w3.org/2000/svg">
<circle cx="10" cy="10" r="10" fill="#E0E500"/>
<path d="M24.0009 13.6001C21.0372 13.6001 18.6372 15.9873 18.6372 18.933C18.6372 21.8781 21.0371 24.2669 24.0009 24.2669C26.963 24.2669 29.3642 21.878 29.3642 18.933C29.3642 15.9873 26.963 13.6001 24.0009 13.6001ZM24.0009 22.6668C21.931 22.6668 20.2468 20.9917 20.2468 18.933C20.2468 16.8748 21.9311 15.2001 24.0009 15.2001C26.0708 15.2001 27.7545 16.8748 27.7545 18.933C27.7546 20.9917 26.0708 22.6668 24.0009 22.6668Z" fill="white"/>
<path d="M30.9401 4.5332C28.5689 4.5332 26.6489 6.44308 26.6489 8.7993C26.6489 11.156 28.5684 13.0664 30.9401 13.0664C33.3092 13.0664 35.2303 11.156 35.2303 8.7993C35.2303 6.44308 33.3093 4.5332 30.9401 4.5332ZM30.9401 11.4665C29.4612 11.4665 28.2581 10.2697 28.2581 8.7993C28.2575 7.32939 29.4607 6.13314 30.9401 6.13314C32.4186 6.13314 33.6207 7.32939 33.6207 8.7993C33.6207 10.2697 32.4186 11.4665 30.9401 11.4665Z" fill="white"/>
<path d="M44.3941 24.9407C43.8639 24.9407 43.3749 25.0692 42.9402 25.2628C42.2815 24.4233 41.2581 23.8804 40.1039 23.8793C39.5071 23.8788 38.9588 24.0367 38.4874 24.2724L36.9647 25.169C36.3039 24.3833 35.3145 23.8799 34.2041 23.8793C33.6074 23.8788 33.0596 24.0367 32.5881 24.2724L27.1075 27.6073C25.7774 27.2158 20.0008 25.5864 18.89 25.3076C18.3326 25.1679 17.8462 25.0532 17.4479 24.9716C17.2485 24.9311 17.0714 24.898 16.914 24.874C16.7545 24.8506 16.6217 24.8341 16.4713 24.8335C16.3555 24.8341 16.2559 24.8448 16.1411 24.8581C15.7257 24.913 15.1347 25.0389 14.4377 25.2009C13.0132 25.5342 11.1945 26.018 10.1903 26.29V24.7999C10.1903 23.6266 9.22547 22.6665 8.04572 22.6665H2.145C0.965906 22.6665 0 23.6265 0 24.7999V41.3333C0 42.5066 0.965906 43.4666 2.145 43.4666H8.04469C9.225 43.4666 10.1892 42.5066 10.1892 41.3333V40.0496C11.4622 40.3253 14.2884 40.9322 17.2676 41.5407C19.2825 41.9519 21.3652 42.3637 23.0847 42.6741C23.945 42.8288 24.7151 42.9583 25.3445 43.05C25.9796 43.1417 26.4538 43.1982 26.8148 43.1999C27.0959 43.1989 27.3615 43.1455 27.6489 43.0676C28.1839 42.9177 28.7924 42.6634 29.489 42.3268C31.9134 41.1513 35.3957 38.9487 38.6804 36.7694C41.9593 34.5934 45.026 32.4436 46.529 31.4147C47.4708 30.7693 47.9999 29.6803 47.9999 28.5273C47.9989 26.547 46.3867 24.9412 44.3941 24.9407ZM8.58131 41.3332C8.58131 41.6222 8.33541 41.8665 8.04478 41.8665H2.145C1.85437 41.8665 1.60847 41.6222 1.60847 41.3332V24.7999C1.60847 24.5108 1.85437 24.2665 2.145 24.2665H8.04469C8.33531 24.2665 8.58122 24.5108 8.58122 24.7999V41.3332H8.58131ZM45.6187 30.0969C43.7701 31.363 39.6346 34.267 35.6315 36.852C33.632 38.1438 31.6645 39.355 30.0518 40.2334C29.2464 40.6723 28.528 41.0275 27.9531 41.2644C27.6662 41.3833 27.4149 41.4718 27.216 41.5268C27.0181 41.5827 26.8694 41.6014 26.8149 41.6004C26.6394 41.602 26.175 41.5556 25.5787 41.4675C23.4651 41.1598 19.5098 40.3741 16.1045 39.6681C14.4005 39.3145 12.8299 38.9812 11.6858 38.7353C11.0213 38.5929 10.5076 38.4814 10.1887 38.4126V27.9491C10.3454 27.9065 10.5518 27.8504 10.7993 27.7833C11.6474 27.5545 12.9417 27.2115 14.1022 26.9274C14.6814 26.7849 15.2291 26.6581 15.6644 26.5679C15.8814 26.5232 16.0702 26.4879 16.2158 26.465C16.3587 26.441 16.4692 26.433 16.4703 26.434C16.4735 26.4335 16.5578 26.4388 16.6724 26.4564C17.1161 26.5225 18.0265 26.7342 19.1348 27.0234C22.4757 27.8905 27.7433 29.4591 29.8714 30.1023C30.6074 30.3231 31.2745 30.6559 31.7114 31.0597C31.9316 31.2613 32.0964 31.4768 32.2074 31.7098C32.3189 31.9439 32.3812 32.1978 32.3824 32.5072C32.3818 33.1348 32.1291 33.696 31.7152 34.1082C31.3045 34.5151 30.7466 34.7648 30.1232 34.77L28.048 34.5679L20.9632 33.6639C20.5222 33.6079 20.1185 33.9172 20.0624 34.3551C20.0064 34.7935 20.3179 35.1946 20.7584 35.2506L27.8662 36.1577L30.0662 36.3721H30.1057C32.2513 36.3711 33.991 34.642 33.9921 32.5075C33.9931 31.9699 33.8731 31.466 33.6614 31.0233C33.3425 30.3572 32.8289 29.8414 32.2492 29.4489C31.6668 29.0553 31.0097 28.7748 30.3398 28.5721C30.0188 28.475 29.6241 28.3561 29.1788 28.2233L33.3239 25.6979C33.6071 25.5587 33.8973 25.4803 34.2039 25.4798C34.724 25.4792 35.1932 25.6797 35.5485 26.0041L33.3912 27.2761C33.0093 27.5012 32.8835 27.9924 33.1102 28.3726C33.3374 28.7523 33.8307 28.8776 34.2126 28.6521L39.219 25.6995C39.5038 25.5587 39.7956 25.4803 40.1038 25.4798C40.659 25.4792 41.1581 25.7091 41.5192 26.0739L35.6894 29.5124C35.307 29.7375 35.1811 30.2287 35.4083 30.6089C35.635 30.9886 36.1283 31.1139 36.5102 30.8884L43.5101 26.7599C43.7944 26.6207 44.0856 26.5418 44.3933 26.5412C44.9464 26.5418 45.4414 26.762 45.8046 27.1236C46.1672 27.4857 46.3897 27.9774 46.3902 28.5284C46.3909 29.1977 46.0815 29.7833 45.6187 30.0969Z" fill="white"/>
</svg>
