<svg width="58" height="40" viewBox="0 0 58 40" fill="none" xmlns="http://www.w3.org/2000/svg">
<path d="M14.5825 2.48276H15.5461V3.05726e-06H14.5825C13.5609 -0.00090404 12.5492 0.200051 11.6052 0.59137C10.6612 0.982688 9.80349 1.55669 9.08112 2.28052C8.35875 3.00436 7.78592 3.86383 7.39539 4.80974C7.00487 5.75565 6.80432 6.76944 6.80522 7.7931V13.4483C6.80729 14.6457 6.35218 15.7985 5.53317 16.6705C4.71416 17.5425 3.59331 18.0675 2.40039 18.1379L2.46922 19.3793L2.40039 20.6207C3.59331 20.6911 4.71416 21.2161 5.53317 22.0881C6.35218 22.96 6.80729 24.1129 6.80522 25.3103V31.8276C6.80157 33.9902 7.65494 36.0657 9.17781 37.5982C10.7007 39.1306 12.7684 39.9945 14.9266 40V37.5172C13.4301 37.5163 11.9951 36.9202 10.9369 35.8598C9.87875 34.7995 9.28385 33.3616 9.28294 31.862V25.3103C9.28398 24.1406 8.99911 22.9885 8.45321 21.9546C7.90731 20.9207 7.11701 20.0365 6.15138 19.3793C7.11426 18.7193 7.90247 17.8345 8.44803 16.8012C8.9936 15.768 9.28014 14.6172 9.28294 13.4483V7.7931C9.28928 6.38666 9.84966 5.03965 10.8422 4.04514C11.8346 3.05063 13.1789 2.48911 14.5825 2.48276Z" fill="white"/>
<path d="M43.2136 2.48285H42.25V9.15527e-05H43.2136C45.2714 0.00557237 47.2428 0.829488 48.6947 2.29078C50.1466 3.75207 50.9601 5.73118 50.9564 7.79319V13.4484C50.9544 14.6458 51.4095 15.7986 52.2285 16.6706C53.0475 17.5426 54.1683 18.0676 55.3612 18.138L55.2924 19.3794L55.3612 20.6208C54.1683 20.6912 53.0475 21.2162 52.2285 22.0882C51.4095 22.9601 50.9544 24.113 50.9564 25.3104V31.8276C50.9601 33.9903 50.1067 36.0658 48.5838 37.5983C47.061 39.1307 44.9932 39.9946 42.835 40V37.5173C44.3315 37.5164 45.7665 36.9203 46.8247 35.8599C47.8829 34.7996 48.4778 33.3617 48.4787 31.8621V25.3104C48.4777 24.1407 48.7625 22.9886 49.3084 21.9547C49.8543 20.9208 50.6446 20.0366 51.6103 19.3794C50.6474 18.7194 49.8592 17.8346 49.3136 16.8013C48.768 15.7681 48.4815 14.6173 48.4787 13.4484V7.79319C48.4823 7.09771 48.3489 6.40836 48.086 5.76469C47.8231 5.12102 47.4359 4.5357 46.9468 4.04231C46.4576 3.54893 45.876 3.15719 45.2353 2.88958C44.5947 2.62197 43.9076 2.48375 43.2136 2.48285Z" fill="white"/>
<path fill-rule="evenodd" clip-rule="evenodd" d="M41.6917 9.48965H38.1963L32.6719 14.9643C31.0047 16.6165 28.3017 16.6165 26.6345 14.9643L21.1101 9.48965H17.6148L24.8868 16.6962C27.5192 19.3049 31.7872 19.3049 34.4196 16.6962L41.6917 9.48965ZM17.5703 29.5295H21.0657L26.635 24.0103C28.3022 22.3582 31.0051 22.3582 32.6723 24.0103L38.2417 29.5295H41.7371L34.4201 22.2784C31.7876 19.6698 27.5197 19.6698 24.8873 22.2784L17.5703 29.5295Z" fill="white"/>
</svg>
