<svg width="386" height="319" viewBox="0 0 386 319" fill="none" xmlns="http://www.w3.org/2000/svg">
<g clip-path="url(#clip0_458_2396)">
<path d="M2391.09 -185.886L2268.87 23.079C2232.04 86.1423 2253.59 166.562 2317.01 202.761L2527.19 322.527L2527.06 322.034L2803.91 479.77C2904.09 536.875 2938.11 663.846 2879.9 763.393L2719.01 1038.42L2712.09 1050.04L2554.38 1326.59C2497.26 1426.77 2370.28 1460.8 2270.72 1402.6L1995.68 1241.74L1996.17 1241.61L1787.85 1119.89C1724.78 1083.07 1644.35 1104.62 1608.15 1168.05L1488.26 1378.36L1488.14 1378.4L1330.82 1654.45C1273.71 1754.62 1146.72 1788.65 1047.17 1730.45L772.12 1569.59L761.821 1564.17L485.004 1406.56C384.819 1349.45 350.797 1222.48 409.008 1122.93L570.121 848.241L692.346 639.277C729.177 576.214 707.628 495.794 644.2 459.595L434.025 339.829L434.157 340.322L157.307 182.586C57.1217 125.481 23.0997 -1.49053 81.3098 -101.037L242.201 -376.065L249.12 -387.686L406.889 -664.517C464.006 -764.695 590.993 -798.721 690.546 -740.523L965.503 -579.509L964.887 -579.344L1173.21 -457.629C1236.28 -420.805 1316.7 -442.356 1352.91 -505.78L1472.79 -716.097L1473.16 -716.196L1630.6 -992.279C1687.72 -1092.46 1814.71 -1126.48 1914.26 -1068.28L2189.06 -907.36L2199.36 -901.936L2476.21 -744.2C2576.39 -687.095 2610.42 -560.124 2552.21 -460.577L2391.31 -185.549L2391.09 -185.886Z" stroke="url(#paint0_linear_458_2396)" stroke-width="1.75" stroke-miterlimit="10" stroke-linecap="round"/>
<path d="M2382.94 -181.324L2261.92 25.7334C2225.33 88.205 2246.68 167.886 2309.6 203.691L2517.91 322.376L2517.77 321.883L2792.12 478.176C2891.37 534.74 2925.1 660.603 2867.43 759.213L2707.98 1031.74L2701.15 1043.21L2544.74 1317.7C2488.16 1416.94 2362.28 1450.67 2263.66 1393.01L1991.12 1233.59L1991.61 1233.46L1785.29 1112.79C1722.81 1076.21 1643.12 1097.56 1607.31 1160.48L1488.47 1368.8L1488.1 1368.9L1332.14 1642.61C1275.56 1741.85 1149.69 1775.58 1051.07 1717.92L778.521 1558.51L768.256 1553.21L494.028 1396.88C394.78 1340.32 361.055 1214.45 418.724 1115.84L578.362 843.527L699.381 636.469C735.974 573.997 714.624 494.317 651.697 458.511L443.396 339.827L443.528 340.32L169.177 184.027C69.9288 127.463 36.2038 1.59931 93.8729 -97.0106L253.322 -369.54L260.15 -381.005L416.476 -655.337C473.052 -754.578 598.93 -788.307 697.547 -730.65L970.095 -571.234L969.602 -571.102L1176.05 -450.469C1238.53 -413.883 1318.22 -435.236 1354.03 -498.158L1472.86 -706.478L1473.23 -706.577L1629.23 -980.161C1685.8 -1079.4 1811.68 -1113.13 1910.3 -1055.47L2182.85 -896.058L2193.11 -890.757L2467.46 -734.464C2566.71 -677.9 2600.44 -552.037 2542.77 -453.427L2383.32 -180.897L2382.94 -181.324Z" stroke="url(#paint1_linear_458_2396)" stroke-width="1.75" stroke-miterlimit="10" stroke-linecap="round"/>
<path d="M2374.7 -176.608L2254.76 28.5753C2218.56 90.5454 2239.71 169.487 2302.02 204.932L2508.44 322.534L2508.31 322.042L2780.16 476.892C2878.63 533.006 2912.03 657.638 2854.81 755.467L2696.8 1025.5L2690.06 1036.81L2535.06 1308.67C2478.93 1407.13 2354.29 1440.53 2256.45 1383.33L1986.4 1225.35L1986.89 1225.22L1782.32 1105.67C1720.35 1069.48 1641.39 1090.63 1605.94 1152.93L1488.35 1359.47L1487.98 1359.56L1333.42 1630.65C1277.3 1729.11 1152.65 1762.51 1054.82 1705.3L784.923 1547.42L774.813 1542.21L502.928 1387.23C404.461 1331.12 371.066 1206.49 428.284 1108.66L586.479 838.843L706.449 633.783C742.649 571.812 721.497 492.871 659.195 457.426L452.767 339.823L452.899 340.316L181.047 185.465C82.5797 129.352 49.1847 4.72022 106.403 -93.1089L264.409 -363.14L271.148 -374.449L426.03 -646.283C482.155 -744.743 606.802 -778.142 704.638 -720.935L974.687 -562.962L974.195 -562.83L1178.77 -443.278C1240.74 -407.086 1319.69 -428.241 1355.15 -490.538L1472.9 -696.984L1473.27 -697.083L1627.79 -968.293C1683.91 -1066.75 1808.56 -1100.15 1906.4 -1042.95L2176.44 -884.972L2186.55 -879.761L2458.41 -724.91C2556.87 -668.797 2590.27 -544.165 2533.05 -446.336L2375.04 -176.305L2374.7 -176.608Z" stroke="url(#paint2_linear_458_2396)" stroke-width="1.75" stroke-miterlimit="10" stroke-linecap="round"/>
<path d="M2366.58 -171.925L2247.69 31.2618C2211.85 92.6073 2232.81 170.81 2294.52 206.017L2499.07 322.538L2498.94 322.046L2768.29 475.453C2865.82 531.026 2898.92 654.549 2842.25 751.441L2685.68 1018.97L2678.94 1030.28L2525.41 1299.77C2469.83 1397.3 2346.29 1430.4 2249.39 1373.73L1981.84 1217.2L1982.33 1217.07L1779.64 1098.6C1718.29 1062.77 1640.07 1083.73 1604.86 1145.43L1488.31 1349.97L1487.94 1350.07L1334.86 1618.78C1279.28 1716.3 1155.74 1749.41 1058.84 1692.74L791.17 1536.24L781.061 1531.03L511.83 1377.59C414.3 1322.02 381.202 1198.49 437.879 1101.6L594.632 834.283L713.487 630.974C749.326 569.628 728.372 491.425 666.661 456.218L462.108 339.697L462.24 340.19L192.886 186.782C95.356 131.21 62.258 7.68619 118.935 -89.2059L275.499 -356.738L282.237 -368.047L435.8 -637.416C491.384 -734.939 614.923 -768.041 711.821 -711.375L979.339 -554.967L978.846 -554.835L1181.42 -436.332C1242.77 -400.501 1320.98 -421.458 1356.2 -483.164L1472.87 -687.736L1473.24 -687.835L1626.32 -956.545C1681.9 -1054.07 1805.44 -1087.17 1902.34 -1030.5L2169.89 -873.974L2180 -868.763L2449.35 -715.355C2546.88 -659.782 2579.98 -536.259 2523.3 -439.367L2366.74 -171.835L2366.58 -171.925Z" stroke="url(#paint3_linear_458_2396)" stroke-width="1.75" stroke-miterlimit="10" stroke-linecap="round"/>
<path d="M2358.43 -167.366L2240.66 34.0696C2205.06 94.8235 2225.85 172.41 2287.06 207.224L2489.73 322.663L2489.6 322.171L2756.49 474.259C2853.08 529.291 2885.88 651.706 2829.75 747.661L2674.66 1012.82L2668.01 1023.97L2515.74 1290.75C2460.69 1387.34 2338.26 1420.14 2242.3 1364.02L1977.13 1208.96L1977.62 1208.83L1776.95 1091.53C1716.19 1055.94 1638.6 1076.73 1603.77 1137.93L1488.19 1340.63L1487.82 1340.73L1336.06 1606.98C1281.02 1703.56 1158.59 1736.37 1062.62 1680.24L797.449 1525.19L787.496 1520.07L520.854 1367.91C424.261 1312.88 391.46 1190.46 447.596 1094.51L602.906 829.689L720.679 628.253C756.281 567.499 735.491 489.912 674.282 455.099L471.57 339.536L471.702 340.029L204.814 187.94C108.221 132.909 75.4199 10.4938 131.556 -85.4615L286.644 -350.618L293.292 -361.771L445.413 -628.641C500.456 -725.228 622.885 -758.032 718.847 -701.908L984.022 -546.852L983.53 -546.72L1184.35 -429.332C1245.11 -393.738 1322.71 -414.53 1357.53 -475.734L1473.12 -678.432L1473.49 -678.531L1625.25 -944.777C1680.29 -1041.36 1802.72 -1074.17 1898.68 -1018.04L2163.86 -862.987L2173.81 -857.866L2440.7 -705.778C2537.29 -650.746 2570.09 -528.331 2513.95 -432.376L2358.87 -167.219L2358.43 -167.366Z" stroke="url(#paint4_linear_458_2396)" stroke-width="1.75" stroke-miterlimit="10" stroke-linecap="round"/>
<path d="M2350.19 -162.65L2233.5 36.9123C2198.29 97.1647 2218.85 173.89 2279.47 208.466L2480.24 322.7L2480.11 322.207L2744.5 472.854C2840.15 527.344 2872.66 648.651 2817.06 743.669L2663.42 1006.33L2656.86 1017.32L2506.18 1281.7C2451.68 1377.34 2330.36 1409.85 2235.33 1354.27L1972.57 1200.81L1973.06 1200.68L1774.11 1084.37C1713.85 1049.17 1637.12 1069.73 1602.53 1130.35L1488.15 1331.14L1487.78 1331.24L1337.59 1594.95C1283.09 1690.6 1161.77 1723.11 1066.74 1667.52L804.065 1513.91L794.235 1508.76L529.845 1358.11C434.189 1303.62 401.685 1182.31 457.28 1087.3L611.115 824.85L727.805 625.288C763.013 565.036 742.455 488.311 681.838 453.735L481.156 339.345L481.288 339.837L216.898 189.191C121.242 134.7 88.7381 13.3935 144.333 -81.6247L297.978 -344.283L304.537 -355.28L455.091 -619.618C509.593 -715.268 630.914 -747.775 725.939 -692.192L988.616 -538.579L988.123 -538.446L1187.07 -422.14C1247.33 -386.94 1324.06 -407.501 1358.65 -468.114L1473.15 -668.938L1473.52 -669.037L1623.84 -932.783C1678.34 -1028.43 1799.66 -1060.94 1894.69 -1005.36L2157.36 -851.744L2167.19 -846.59L2431.58 -695.943C2527.24 -641.453 2559.74 -520.146 2504.15 -425.128L2350.5 -162.47L2350.19 -162.65Z" stroke="url(#paint5_linear_458_2396)" stroke-width="1.75" stroke-miterlimit="10" stroke-linecap="round"/>
<path d="M2342.04 -158.089L2226.43 39.5992C2191.58 99.227 2211.98 175.336 2271.97 209.552L2470.78 322.86L2470.65 322.368L2732.54 471.571C2827.29 525.644 2859.46 645.719 2804.44 739.924L2652.24 1000.08L2645.68 1011.08L2496.45 1272.95C2442.36 1367.7 2322.27 1399.88 2228.06 1344.87L1967.88 1192.7L1968.38 1192.56L1771.3 1077.34C1711.67 1042.5 1635.55 1062.9 1601.33 1122.88L1488.15 1321.77L1487.78 1321.87L1338.91 1583.12C1284.82 1677.86 1164.73 1710.04 1070.52 1655.03L810.343 1502.86L800.546 1497.83L538.655 1348.62C443.903 1294.55 411.729 1174.48 466.751 1080.27L619.142 820.324L734.751 622.636C769.598 563.008 749.205 486.899 689.212 452.684L490.404 339.375L490.536 339.868L228.645 190.664C133.893 136.591 101.719 16.5158 156.74 -77.6887L308.943 -337.848L315.501 -348.845L464.736 -610.718C518.82 -705.464 638.91 -737.641 733.121 -682.632L993.298 -530.461L992.806 -530.329L1189.76 -415.072C1249.39 -380.231 1325.51 -400.627 1359.73 -460.616L1473.15 -659.566L1473.52 -659.665L1622.4 -920.913C1676.48 -1015.66 1796.57 -1047.84 1890.78 -992.826L2150.96 -840.655L2160.76 -835.625L2422.65 -686.421C2517.4 -632.348 2549.57 -512.273 2494.55 -418.069L2342.26 -157.753L2342.04 -158.089Z" stroke="url(#paint6_linear_458_2396)" stroke-width="1.75" stroke-miterlimit="10" stroke-linecap="round"/>
<path d="M2333.8 -153.374L2219.27 42.4407C2184.66 101.477 2204.86 176.847 2264.38 210.792L2461.31 323.019L2461.18 322.526L2720.57 470.288C2814.51 523.787 2846.39 642.753 2791.79 736.054L2641.15 993.682L2634.68 1004.52L2486.89 1263.9C2433.38 1357.83 2314.4 1389.71 2221.09 1335.12L1963.41 1184.39L1963.91 1184.26L1768.61 1070.27C1709.57 1035.67 1634.19 1055.87 1600.24 1115.39L1487.99 1312.31L1487.74 1312.37L1340.19 1571.15C1286.68 1665.09 1167.7 1696.97 1074.39 1642.37L816.712 1491.65L807.039 1486.58L547.647 1338.82C453.709 1285.32 421.832 1166.36 476.435 1073.06L627.384 815.607L741.91 619.793C776.52 560.757 756.325 485.386 696.801 451.441L499.867 339.215L499.966 339.584L240.573 191.823C146.635 138.324 114.758 19.3571 169.362 -73.9434L320.121 -331.605L326.589 -342.445L474.415 -601.696C527.925 -695.628 646.906 -727.509 740.213 -672.917L997.892 -522.188L997.399 -522.056L1192.6 -407.914C1251.64 -373.311 1327.02 -393.509 1360.97 -453.029L1473.31 -650.105L1473.56 -650.171L1620.99 -908.921C1674.5 -1002.85 1793.48 -1034.73 1886.79 -980.141L2144.47 -829.413L2154.14 -824.349L2413.53 -676.588C2507.47 -623.089 2539.35 -504.122 2484.75 -410.822L2333.99 -153.16L2333.8 -153.374Z" stroke="url(#paint7_linear_458_2396)" stroke-width="1.75" stroke-miterlimit="10" stroke-linecap="round"/>
<path d="M2325.68 -148.69L2212.23 45.2505C2178.02 103.785 2198.02 178.416 2256.92 212.001L2451.98 323.146L2451.88 322.776L2708.77 469.095C2801.77 522.053 2833.35 639.912 2779.29 732.275L2629.97 987.438L2623.59 998.123L2477.24 1255C2424.28 1347.99 2306.4 1379.58 2214.03 1325.53L1958.85 1176.24L1959.35 1176.11L1766.02 1063.05C1707.48 1028.84 1632.84 1048.84 1599.25 1107.73L1487.99 1302.94L1487.74 1303L1341.63 1559.29C1288.66 1652.28 1170.79 1683.86 1078.42 1629.81L823.237 1480.53L813.72 1475.55L556.826 1329.23C463.825 1276.28 432.245 1158.42 486.307 1066.05L635.813 811.105L749.258 617.164C783.474 558.63 763.477 483.999 704.577 450.414L509.517 339.269L509.616 339.639L252.723 193.32C159.721 140.362 128.141 22.5032 182.204 -69.8604L331.521 -325.023L337.898 -335.708L484.248 -592.583C537.217 -685.578 655.09 -717.162 747.46 -663.111L1002.64 -513.825L1002.15 -513.693L1195.29 -400.845C1253.83 -366.636 1328.47 -386.636 1362.06 -445.531L1473.32 -640.734L1473.56 -640.8L1619.67 -897.084C1672.64 -990.079 1790.52 -1021.66 1882.89 -967.611L2138.07 -818.325L2147.58 -813.352L2404.48 -667.033C2497.48 -614.075 2529.06 -496.216 2475 -403.853L2325.68 -148.69V-148.69Z" stroke="url(#paint8_linear_458_2396)" stroke-width="1.75" stroke-miterlimit="10" stroke-linecap="round"/>
<path d="M2317.4 -144.097L2205.16 47.9365C2171.31 105.847 2191.11 179.739 2249.38 212.963L2442.57 323.026L2442.47 322.656L2696.9 467.656C2788.99 520.197 2820.24 636.823 2766.76 728.373L2618.91 981.161L2612.54 991.845L2467.51 1246.26C2414.96 1338.35 2298.31 1369.6 2206.76 1316.12L1953.95 1168.31L1954.45 1168.18L1763.08 1056.05C1705.17 1022.2 1631.27 1042 1598.04 1100.27L1487.83 1293.47L1487.58 1293.54L1342.91 1547.33C1290.36 1639.42 1173.72 1670.67 1082.16 1617.19L829.358 1469.38L819.84 1464.41L565.412 1319.41C473.315 1266.87 442.065 1150.24 495.553 1058.69L643.584 806.118L755.823 614.085C789.679 556.175 769.879 482.282 711.605 449.058L518.419 338.995L518.518 339.365L264.09 194.365C171.993 141.825 140.742 25.1978 194.231 -66.352L342.294 -318.803L348.672 -329.488L493.735 -583.775C546.286 -675.865 662.927 -707.119 754.483 -653.642L1007.29 -505.831L1006.8 -505.699L1198.09 -393.811C1256.01 -359.962 1329.91 -379.764 1363.14 -438.035L1473.35 -631.24L1473.6 -631.306L1618.27 -885.092C1670.82 -977.182 1787.46 -1008.44 1879.01 -954.959L2131.82 -807.148L2141.34 -802.175L2395.76 -657.175C2487.86 -604.635 2519.11 -488.008 2465.62 -396.458L2317.78 -143.671L2317.4 -144.097Z" stroke="url(#paint9_linear_458_2396)" stroke-width="1.75" stroke-miterlimit="10" stroke-linecap="round"/>
<path d="M2309.29 -139.414L2198.13 50.7455C2164.54 108.187 2184.15 181.341 2241.92 214.171L2433.11 323.185L2433.01 322.816L2684.94 466.373C2776.1 518.372 2807.05 633.891 2754.1 724.504L2607.67 974.669L2601.39 985.198L2457.8 1237.11C2405.79 1328.26 2290.26 1359.22 2199.64 1306.28L1949.33 1159.92L1949.82 1159.78L1760.27 1049.01C1702.83 1015.43 1629.67 1035.04 1596.83 1092.8L1487.83 1284.1L1487.58 1284.17L1344.23 1535.49C1292.22 1626.64 1176.69 1657.6 1086.07 1604.66L835.762 1458.3L826.4 1453.41L574.471 1309.85C483.311 1257.86 452.358 1142.34 505.305 1051.72L651.893 801.648L763.05 611.489C796.635 554.047 777.034 480.894 719.26 448.063L527.949 339.082L528.048 339.452L276.274 195.984C185.114 143.985 154.161 28.4665 207.109 -62.1464L353.507 -312.435L359.795 -322.964L503.382 -574.876C555.392 -666.029 670.925 -696.986 761.544 -644.05L1011.85 -497.681L1011.36 -497.549L1200.91 -386.776C1258.35 -353.198 1331.51 -372.801 1364.35 -430.571L1473.48 -621.902L1473.72 -621.968L1616.95 -873.255C1668.96 -964.409 1784.49 -995.366 1875.11 -942.429L2125.42 -796.061L2134.78 -791.178L2386.71 -647.62C2477.87 -595.621 2508.82 -480.103 2455.87 -389.49L2309.48 -139.201L2309.29 -139.414Z" stroke="url(#paint10_linear_458_2396)" stroke-width="1.75" stroke-miterlimit="10" stroke-linecap="round"/>
<path d="M2301.01 -134.822L2190.94 53.4637C2157.71 110.281 2177.12 182.695 2234.3 215.288L2423.73 323.187L2423.64 322.818L2673.07 464.933C2763.29 516.391 2793.95 630.801 2741.54 720.477L2596.58 968.268L2590.39 978.64L2448.24 1228.05C2396.77 1318.27 2282.35 1348.93 2192.67 1296.53L1944.86 1151.61L1945.35 1151.48L1757.68 1041.78C1700.86 1008.57 1628.43 1027.97 1595.83 1085.15L1487.67 1274.64L1487.42 1274.71L1345.67 1523.62C1294.2 1613.84 1179.77 1644.5 1090.09 1592.1L842.285 1447.17L832.957 1442.41L583.526 1300.3C493.303 1248.84 462.647 1134.43 515.053 1044.75L660.198 797.178L770.274 608.892C803.498 552.075 784.095 479.66 726.913 447.067L537.442 339.045L537.541 339.414L288.11 197.299C197.887 145.841 167.231 31.4307 219.638 -58.2452L364.593 -306.036L370.791 -316.408L513.059 -565.854C564.528 -656.071 678.952 -686.731 768.634 -634.335L1016.44 -489.41L1015.95 -489.278L1203.62 -379.585C1260.44 -346.368 1332.87 -365.774 1365.47 -422.951L1473.51 -612.409L1473.76 -612.475L1615.54 -861.264C1667.01 -951.481 1781.44 -982.14 1871.12 -929.745L2119.05 -784.852L2128.38 -780.092L2377.81 -637.977C2468.03 -586.518 2498.69 -472.108 2446.28 -382.432L2301.2 -134.609L2301.01 -134.822Z" stroke="url(#paint11_linear_458_2396)" stroke-width="1.75" stroke-miterlimit="10" stroke-linecap="round"/>
<path d="M2292.9 -130.138L2183.9 56.2743C2151.04 112.467 2170.28 184.265 2226.83 216.498L2414.27 323.348L2414.18 322.979L2661.11 463.651C2750.52 514.536 2780.88 627.838 2728.92 716.733L2585.41 962.025L2579.21 972.397L2438.51 1219.31C2387.61 1308.71 2274.3 1339.08 2185.4 1287.13L1940.09 1143.65L1940.58 1143.52L1754.78 1034.91C1698.58 1002.05 1626.78 1021.29 1594.54 1077.84L1487.66 1265.27L1487.42 1265.34L1346.95 1511.66C1296.06 1601.06 1182.74 1631.43 1093.84 1579.48L848.533 1436L839.328 1431.21L592.396 1290.53C502.986 1239.65 472.627 1126.35 524.583 1037.45L668.285 792.373L777.311 606.084C810.175 549.891 790.937 478.093 734.38 445.861L546.816 339.043L546.915 339.412L299.983 198.74C210.574 147.855 180.214 34.5536 232.17 -54.3416L375.806 -299.666L382.004 -310.039L522.706 -556.954C573.601 -646.357 686.916 -676.719 775.817 -624.775L1021.13 -481.291L1020.63 -481.159L1206.43 -372.549C1262.63 -339.692 1334.44 -358.933 1366.68 -415.486L1473.64 -603.07L1473.89 -603.136L1614.35 -849.459C1665.25 -938.862 1778.56 -969.225 1867.46 -917.28L2112.77 -773.797L2121.98 -769.003L2368.91 -628.331C2458.32 -577.446 2488.68 -464.144 2436.72 -375.249L2293.21 -129.957L2292.9 -130.138Z" stroke="url(#paint12_linear_458_2396)" stroke-width="1.75" stroke-miterlimit="10" stroke-linecap="round"/>
<path d="M2284.78 -125.455L2176.87 59.0827C2144.27 114.807 2163.28 185.743 2219.37 217.705L2404.94 323.474L2404.84 323.104L2649.27 462.335C2737.77 512.801 2767.8 624.871 2716.39 712.83L2574.32 955.623L2568.21 965.839L2428.95 1210.26C2378.48 1298.75 2266.39 1328.79 2178.43 1277.38L1935.62 1135.34L1936.11 1135.21L1752.18 1027.68C1696.46 995.096 1625.51 1014.11 1593.54 1070.19L1487.63 1255.78L1487.38 1255.84L1348.27 1499.82C1297.79 1588.32 1185.71 1618.36 1097.74 1566.95L854.935 1424.91L845.886 1420.21L601.453 1280.98C512.947 1230.51 482.918 1118.44 534.333 1030.48L676.592 787.902L784.504 603.364C817.097 547.64 798.089 476.703 742.001 444.741L556.434 338.973L556.533 339.342L312.1 200.112C223.595 149.645 193.566 37.575 244.98 -50.3832L387.05 -293.177L393.158 -303.393L532.261 -547.899C582.738 -636.398 694.822 -666.431 782.786 -615.027L1025.6 -472.986L1025.1 -472.854L1209.03 -365.326C1264.76 -332.739 1335.7 -351.749 1367.67 -407.834L1473.55 -593.543L1473.8 -593.61L1612.82 -837.434C1663.3 -925.933 1775.38 -955.966 1863.34 -904.562L2106.15 -762.521L2115.2 -757.818L2359.64 -618.588C2448.14 -568.121 2478.17 -456.051 2426.76 -368.093L2284.97 -125.242L2284.78 -125.455Z" stroke="url(#paint13_linear_458_2396)" stroke-width="1.75" stroke-miterlimit="10" stroke-linecap="round"/>
<path d="M2276.5 -120.862L2169.67 61.8023C2137.44 116.902 2156.28 187.222 2211.75 218.824L2395.44 323.511L2395.34 323.141L2637.31 461.052C2724.88 510.978 2754.61 621.94 2703.73 708.961L2563.14 949.379L2557.12 959.439L2419.18 1201.39C2369.25 1288.95 2258.27 1318.69 2171.24 1267.82L1930.81 1127.26L1931.3 1127.13L1749.25 1020.68C1694.15 988.455 1623.82 1007.3 1592.21 1062.76L1487.41 1246.6L1487.17 1246.66L1349.68 1487.83C1299.74 1575.39 1188.77 1605.13 1101.74 1554.27L861.303 1413.7L852.254 1409L610.32 1271.21C522.752 1221.28 493.02 1110.32 543.893 1023.3L684.677 783.096L791.506 600.432C823.738 545.333 804.896 475.012 749.432 443.411L565.74 338.724L565.839 339.093L323.904 201.305C236.336 151.38 206.604 40.4177 257.477 -46.6035L398.072 -287.022L404.089 -297.082L542.029 -539.032C591.965 -626.594 702.94 -656.33 789.967 -605.467L1030.28 -464.869L1029.79 -464.737L1211.84 -358.29C1266.94 -326.064 1337.27 -344.909 1368.88 -400.369L1473.68 -584.205L1473.92 -584.271L1611.5 -825.597C1661.44 -913.159 1772.41 -942.895 1859.44 -892.032L2099.88 -751.466L2108.92 -746.763L2350.89 -608.852C2438.46 -558.926 2468.19 -447.965 2417.32 -360.943L2276.72 -120.525L2276.5 -120.862Z" stroke="url(#paint14_linear_458_2396)" stroke-width="1.75" stroke-miterlimit="10" stroke-linecap="round"/>
<path d="M2268.38 -116.179L2162.64 64.6114C2130.76 119.086 2149.41 188.668 2204.28 220.032L2386.1 323.637L2386 323.267L2625.47 459.736C2712.1 509.121 2741.54 618.974 2691.2 705.059L2552.05 942.978L2546.03 953.038L2409.54 1192.49C2360.14 1279.12 2250.28 1308.55 2164.19 1258.23L1926.25 1119.11L1926.74 1118.98L1746.56 1013.61C1692.09 981.747 1622.5 1000.39 1591.13 1055.26L1487.5 1237.07L1487.25 1237.13L1350.99 1475.99C1301.6 1562.62 1191.73 1592.06 1105.64 1541.74L867.705 1402.61L858.812 1398L619.343 1261.53C532.712 1212.15 503.277 1102.29 553.609 1016.21L692.95 778.503L798.574 597.746C830.446 543.271 811.802 473.689 756.93 442.325L575.111 338.72L575.21 339.09L335.741 202.621C249.11 153.236 219.675 43.3828 270.007 -42.7015L409.159 -280.621L415.176 -290.681L551.673 -530.133C601.068 -616.758 710.935 -646.197 797.025 -595.875L1034.96 -456.752L1034.47 -456.62L1214.65 -351.255C1269.12 -319.39 1338.72 -338.037 1370.09 -392.905L1473.8 -574.867L1474.05 -574.933L1610.19 -813.761C1659.58 -900.386 1769.45 -929.824 1855.54 -879.503L2093.47 -740.379L2102.37 -735.766L2341.83 -599.298C2428.47 -549.913 2457.9 -440.06 2407.57 -353.975L2268.42 -116.056L2268.38 -116.179Z" stroke="url(#paint15_linear_458_2396)" stroke-width="1.75" stroke-miterlimit="10" stroke-linecap="round"/>
<path d="M2260.11 -111.586L2155.57 67.2973C2123.97 121.303 2142.41 190.146 2196.79 221.117L2376.73 323.64L2376.63 323.27L2613.6 458.296C2699.42 507.107 2728.56 615.852 2678.68 701.156L2540.97 936.577L2535.04 946.481L2399.98 1183.43C2351.16 1269.25 2242.41 1298.39 2157.1 1248.52L1921.66 1110.84L1922.15 1110.7L1743.85 1006.42C1689.84 974.826 1620.99 993.275 1590.01 1047.64L1487.34 1227.61L1487.09 1227.67L1352.28 1464.03C1303.46 1549.85 1194.7 1578.99 1109.39 1529.12L873.952 1391.44L865.059 1386.82L628.245 1251.89C542.428 1203.08 513.29 1094.33 563.171 1009.03L701.07 773.82L805.612 594.936C837.213 540.93 818.767 472.087 764.396 441.117L584.451 338.594L584.55 338.963L347.58 203.937C261.763 155.126 232.625 46.3811 282.506 -38.9224L420.215 -274.343L426.142 -284.247L561.197 -521.201C610.018 -607.012 718.776 -636.154 804.085 -586.283L1039.56 -448.479L1039.06 -448.347L1217.37 -344.064C1271.38 -312.469 1340.23 -330.918 1371.2 -385.285L1473.87 -565.25L1474.12 -565.316L1608.94 -801.678C1657.76 -887.489 1766.52 -916.631 1851.82 -866.76L2087.26 -729.079L2096.15 -724.466L2332.97 -589.53C2418.79 -540.719 2447.92 -431.974 2398.04 -346.671L2260.33 -111.25L2260.11 -111.586Z" stroke="url(#paint16_linear_458_2396)" stroke-width="1.75" stroke-miterlimit="10" stroke-linecap="round"/>
<path d="M2251.99 -106.902L2148.53 70.1071C2117.29 123.489 2135.54 191.593 2189.32 222.325L2367.39 323.767L2367.29 323.397L2601.76 456.981C2686.67 505.375 2715.48 612.888 2666.14 697.254L2529.75 930.21L2523.92 939.958L2390.3 1174.41C2341.9 1259.32 2234.37 1288.13 2150 1238.8L1917.06 1102.56L1917.56 1102.43L1741.13 999.23C1687.74 967.996 1619.63 986.247 1588.89 1040.02L1487.34 1218.24L1487.09 1218.3L1353.72 1452.17C1305.31 1537.07 1197.79 1565.88 1113.41 1516.55L880.476 1380.32L871.739 1375.79L637.144 1242.24C552.231 1193.85 523.423 1086.34 572.763 1001.97L709.219 769.26L812.802 592.218C844.043 538.836 825.794 470.732 772.015 439.999L593.945 338.558L594.044 338.927L359.572 205.344C274.659 156.95 245.851 49.4369 295.191 -34.9297L431.458 -267.852L437.294 -277.6L570.906 -512.055C619.31 -596.963 726.836 -625.774 811.208 -576.444L1044.15 -440.206L1043.65 -440.074L1220.08 -336.872C1273.47 -305.638 1341.58 -323.889 1372.32 -377.664L1473.91 -555.755L1474.15 -555.821L1607.53 -789.685C1655.93 -874.592 1763.46 -903.404 1847.83 -854.074L2080.77 -717.835L2089.5 -713.312L2323.98 -579.729C2408.89 -531.335 2437.7 -423.822 2388.36 -339.456L2252.09 -106.533L2251.99 -106.902Z" stroke="url(#paint17_linear_458_2396)" stroke-width="1.75" stroke-miterlimit="10" stroke-linecap="round"/>
<path d="M2243.75 -102.187L2141.37 72.9488C2110.53 125.829 2128.58 193.194 2181.7 223.443L2357.9 323.803L2357.8 323.433L2589.77 455.574C2673.75 503.427 2702.26 609.832 2653.46 693.261L2518.63 923.685L2512.8 933.433L2380.51 1165.42C2332.64 1249.39 2226.23 1277.91 2142.79 1229.12L1912.38 1094.45L1912.88 1094.31L1738.32 992.194C1685.44 961.354 1618.06 979.406 1587.81 1032.52L1487.18 1208.77L1486.93 1208.84L1355.04 1440.33C1307.17 1524.3 1200.76 1552.81 1117.32 1504.02L886.757 1369.26L878.143 1364.71L646.171 1232.56C562.194 1184.71 533.683 1078.31 582.483 994.877L717.463 764.543L819.841 589.408C850.687 536.528 832.637 469.163 779.516 438.914L603.319 338.554L603.418 338.924L371.412 206.659C287.436 158.807 258.925 52.4017 307.724 -31.0279L442.515 -261.575L448.352 -271.323L580.521 -503.279C628.383 -587.25 734.801 -615.764 818.236 -566.975L1048.8 -432.212L1048.31 -432.08L1222.86 -329.961C1275.75 -299.12 1343.12 -317.173 1373.37 -370.29L1473.88 -546.508L1474.13 -546.574L1606.02 -778.062C1653.89 -862.032 1760.3 -890.547 1843.74 -841.758L2074.3 -706.995L2082.92 -702.439L2315.04 -570.208C2399.02 -522.355 2427.53 -415.95 2378.73 -332.521L2243.94 -101.973L2243.75 -102.187Z" stroke="url(#paint18_linear_458_2396)" stroke-width="1.75" stroke-miterlimit="10" stroke-linecap="round"/>
<path d="M2235.6 -97.6266L2134.3 75.6351C2103.7 127.923 2121.55 194.55 2174.2 224.528L2348.52 323.806L2348.42 323.437L2577.81 454.292C2660.85 501.603 2689.06 606.9 2640.84 689.516L2507.49 917.564L2501.74 927.156L2370.89 1156.65C2323.57 1239.68 2218.26 1267.9 2135.64 1219.68L1907.58 1086.36L1908.07 1086.23L1735.39 985.193C1683.09 954.59 1616.46 972.444 1586.48 1025.09L1487.18 1199.4L1486.93 1199.47L1356.32 1428.37C1309 1511.4 1203.69 1539.62 1121.07 1491.4L893.002 1358.08L884.422 1353.65L654.915 1222.83C571.875 1175.52 543.661 1070.22 591.887 987.606L725.58 759.86L826.876 586.599C857.485 534.31 839.633 467.684 786.98 437.706L612.781 338.395L612.88 338.764L383.373 207.942C300.333 160.631 272.119 55.3341 320.344 -27.2818L453.725 -255.207L459.472 -264.799L590.321 -494.29C637.643 -577.324 742.952 -605.541 825.574 -557.326L1053.64 -424.005L1053.15 -423.873L1225.83 -322.836C1278.12 -292.232 1344.75 -310.087 1374.74 -362.736L1474.16 -537.08L1474.41 -537.146L1604.86 -766.135C1652.18 -849.169 1757.49 -877.386 1840.11 -829.171L2068.18 -695.851L2076.76 -691.418L2306.27 -560.596C2389.31 -513.284 2417.52 -407.988 2369.29 -325.372L2235.95 -97.3232L2235.6 -97.6266Z" stroke="url(#paint19_linear_458_2396)" stroke-width="1.75" stroke-miterlimit="10" stroke-linecap="round"/>
<path d="M2227.36 -92.9101L2127.24 78.3214C2096.99 129.985 2114.67 195.996 2166.7 225.614L2339.03 323.843L2338.93 323.473L2565.94 452.853C2648.07 499.747 2675.96 603.812 2628.27 685.491L2496.37 911.041L2490.71 920.476L2361.3 1147.47C2314.4 1229.6 2210.32 1257.49 2128.64 1209.81L1903.07 1077.93L1903.57 1077.8L1732.79 977.969C1681.12 947.726 1615.11 965.416 1585.48 1017.44L1487.14 1189.91L1486.89 1189.98L1357.76 1416.5C1310.86 1498.63 1206.78 1526.52 1125.09 1478.84L899.527 1346.96L891.103 1342.62L664.095 1213.24C581.959 1166.35 554.075 1062.28 601.76 980.605L733.854 755.268L834.068 583.88C864.317 532.216 846.629 466.206 794.601 436.588L622.276 338.359L622.375 338.728L395.366 209.349C313.231 162.455 285.347 58.3898 333.031 -23.2891L464.937 -248.839L470.593 -258.275L600 -485.267C646.903 -567.397 750.981 -595.285 832.665 -547.61L1058.23 -415.732L1057.62 -415.567L1228.39 -315.734C1280.06 -285.492 1346.08 -303.181 1375.7 -355.206L1474.04 -527.675L1474.29 -527.741L1603.42 -754.266C1650.33 -836.395 1754.4 -864.283 1836.09 -816.608L2061.65 -684.73L2070.08 -680.387L2297.12 -550.885C2379.25 -503.991 2407.14 -399.926 2359.45 -318.247L2227.55 -92.6969L2227.36 -92.9101Z" stroke="url(#paint20_linear_458_2396)" stroke-width="1.75" stroke-miterlimit="10" stroke-linecap="round"/>
<path d="M2219.21 -88.3505L2120.08 81.1635C2090.22 132.326 2107.68 197.474 2159.12 226.855L2329.57 324.002L2329.47 323.632L2553.98 451.569C2635.3 497.889 2662.89 600.846 2615.62 681.621L2485.31 904.763L2479.66 914.198L2351.66 1138.57C2305.33 1219.88 2202.36 1247.48 2121.58 1200.22L1898.51 1069.78L1899.01 1069.65L1730.11 970.9C1678.94 941.051 1613.78 958.51 1584.4 1009.94L1487.02 1180.57L1486.77 1180.64L1359.04 1404.54C1312.71 1485.86 1209.75 1513.45 1128.96 1466.19L905.898 1335.75L897.474 1331.41L672.964 1203.47C591.643 1157.15 564.055 1054.2 611.322 973.423L741.974 750.584L841.106 581.07C870.961 529.908 853.504 464.76 802.068 435.379L631.616 338.232L631.715 338.602L407.206 210.665C325.884 164.345 298.297 61.3879 345.563 -19.3871L476.026 -242.439L481.683 -251.874L609.646 -476.368C655.976 -557.684 758.945 -585.274 839.726 -538.018L1062.79 -407.582L1062.3 -407.45L1231.2 -308.699C1282.37 -278.851 1347.52 -296.309 1376.91 -347.742L1474.17 -518.338L1474.41 -518.404L1602.11 -742.429C1648.44 -823.745 1751.41 -851.335 1832.19 -804.079L2055.29 -673.52L2063.71 -669.177L2288.22 -541.24C2369.54 -494.92 2397.13 -391.964 2349.86 -311.189L2219.4 -88.1371L2219.21 -88.3505Z" stroke="url(#paint21_linear_458_2396)" stroke-width="1.75" stroke-miterlimit="10" stroke-linecap="round"/>
<path d="M2210.97 -83.6356L2112.92 84.0045C2083.3 134.575 2100.59 199.108 2151.53 228.095L2320.1 324.16L2320.01 323.791L2542.02 450.285C2622.4 496.064 2649.69 597.913 2602.97 677.751L2473.95 898.304L2468.38 907.583L2341.86 1129.58C2296.07 1209.96 2194.21 1237.25 2114.37 1190.54L1893.8 1061.54L1894.29 1061.41L1727.26 963.741C1676.69 934.13 1612.15 951.423 1583.16 1002.35L1486.98 1171.08L1486.73 1171.14L1360.48 1392.67C1314.69 1473.05 1212.83 1500.34 1132.99 1453.63L912.421 1324.63L904.153 1320.38L682.142 1193.89C601.758 1148.11 574.468 1046.26 621.193 966.42L750.402 746.08L848.452 578.44C878.07 527.87 860.778 463.337 809.843 434.35L641.266 338.285L641.365 338.654L419.354 212.16C338.969 166.381 311.679 64.5322 358.405 -15.3059L487.079 -236.162L492.645 -245.442L619.167 -467.437C664.955 -547.816 766.816 -575.11 846.659 -528.394L1067.23 -399.4L1066.73 -399.268L1233.76 -301.599C1284.34 -271.988 1348.88 -289.282 1377.87 -340.213L1474.05 -508.935L1474.29 -509.001L1600.54 -730.528C1646.33 -810.907 1748.19 -838.2 1828.03 -791.484L2048.88 -662.434L2057.15 -658.182L2279.32 -531.597C2359.7 -485.818 2386.99 -383.97 2340.27 -304.132L2211.25 -83.5784L2210.97 -83.6356Z" stroke="url(#paint22_linear_458_2396)" stroke-width="1.75" stroke-miterlimit="10" stroke-linecap="round"/>
<path d="M2202.85 -78.9515L2106 86.7817C2076.75 136.728 2093.84 200.521 2144.18 229.271L2310.89 324.254L2310.79 323.885L2530.33 449.06C2609.78 494.299 2636.77 595.038 2590.62 674.063L2463.08 892.24L2457.6 901.364L2332.4 1120.89C2287.15 1200.34 2186.4 1227.33 2107.37 1181.19L1889.18 1053.67L1889.55 1053.57L1724.4 956.986C1674.45 927.735 1610.64 944.831 1581.89 995.17L1486.85 1161.74L1486.61 1161.81L1361.8 1380.83C1316.55 1460.28 1215.8 1487.27 1136.77 1441.13L918.576 1313.61L910.431 1309.33L690.886 1184.15C611.438 1138.91 584.445 1038.17 630.597 959.149L758.33 741.185L855.298 575.419C884.554 525.472 867.461 461.679 817.118 432.929L650.414 337.946L650.513 338.315L430.968 213.14C351.52 167.902 324.527 67.1619 370.679 -11.8624L498.223 -230.04L503.699 -239.163L628.901 -458.693C674.148 -538.135 774.9 -565.132 853.93 -518.99L1072.12 -391.472L1071.75 -391.373L1236.73 -294.473C1286.68 -265.223 1350.48 -282.318 1379.23 -332.658L1474.36 -499.383L1474.61 -499.449L1599.41 -718.477C1644.66 -797.919 1745.41 -824.916 1824.44 -778.774L2042.64 -651.256L2050.78 -646.971L2270.33 -521.795C2349.77 -476.557 2376.77 -375.817 2330.61 -296.793L2203.07 -78.6152L2202.85 -78.9515Z" stroke="url(#paint23_linear_458_2396)" stroke-width="1.75" stroke-miterlimit="10" stroke-linecap="round"/>
<path d="M2194.7 -74.3913L2098.94 89.4681C2070.07 138.913 2086.97 201.967 2136.69 230.356L2301.39 324.291L2301.29 323.922L2518.34 447.655C2596.88 492.475 2623.55 591.983 2577.94 670.071L2451.8 885.627L2446.45 894.717L2322.69 1111.75C2277.86 1190.29 2178.34 1216.95 2100.25 1171.35L1884.55 1045.28L1884.92 1045.18L1721.64 949.672C1672.2 920.815 1609.13 937.712 1580.74 987.428L1486.82 1152.25L1486.57 1152.31L1363.08 1368.87C1318.25 1447.41 1218.73 1474.08 1140.64 1428.48L924.946 1302.4L916.834 1298.24L699.788 1174.51C621.244 1129.69 594.581 1030.18 640.191 952.091L766.482 736.625L862.244 572.766C891.108 523.321 874.212 460.266 824.494 431.878L659.664 337.976L659.763 338.345L442.716 214.612C364.173 169.792 337.51 70.2836 383.12 -7.80373L509.222 -223.483L514.575 -232.573L638.334 -449.605C683.163 -528.143 782.684 -554.809 860.776 -509.208L1076.47 -383.133L1076.1 -383.034L1239.38 -287.528C1288.83 -258.671 1351.89 -275.569 1380.28 -325.284L1474.33 -490.135L1474.58 -490.201L1598.06 -706.764C1642.89 -785.302 1742.41 -811.968 1820.51 -766.367L2036.2 -640.292L2044.31 -636.129L2261.39 -512.273C2339.94 -467.453 2366.6 -367.945 2320.99 -289.857L2194.89 -74.1779L2194.7 -74.3913Z" stroke="url(#paint24_linear_458_2396)" stroke-width="1.75" stroke-miterlimit="10" stroke-linecap="round"/>
<path d="M2186.46 -69.6756L2091.78 92.3099C2063.15 141.163 2079.85 203.479 2129.1 231.597L2292.02 324.294L2291.92 323.925L2506.47 446.215C2584.2 490.462 2610.57 588.862 2565.37 666.045L2440.72 879.226L2435.33 888.193L2313.01 1102.73C2268.76 1180.45 2170.35 1206.82 2093.16 1161.64L1879.96 1037L1880.33 1036.9L1718.93 942.481C1670.07 913.861 1607.75 930.56 1579.62 979.807L1486.69 1142.91L1486.45 1142.97L1364.52 1357C1320.27 1434.73 1221.86 1461.1 1144.67 1415.91L931.473 1291.28L923.484 1287.09L708.813 1164.83C631.083 1120.58 604.717 1022.18 649.91 944.999L774.758 732.032L869.438 570.046C898.064 521.193 881.366 458.878 832.116 430.759L669.161 337.939L669.26 338.309L454.712 216.018C376.982 171.772 350.616 73.3716 395.809 -3.81182L520.467 -216.993L525.853 -225.96L648.17 -440.493C692.425 -518.217 790.837 -544.586 868.026 -499.403L1081.22 -374.77L1080.85 -374.671L1242.26 -280.247C1291.11 -251.628 1353.44 -268.327 1381.56 -317.574L1474.52 -480.551L1474.77 -480.617L1596.82 -694.681C1641.07 -772.406 1739.48 -798.775 1816.67 -753.592L2029.87 -628.959L2037.86 -624.763L2252.4 -502.473C2330.13 -458.226 2356.5 -359.826 2311.31 -282.643L2186.65 -69.4622L2186.46 -69.6756Z" stroke="url(#paint25_linear_458_2396)" stroke-width="1.75" stroke-miterlimit="10" stroke-linecap="round"/>
<path d="M2178.31 -65.1153L2084.71 94.9961C2056.48 143.348 2072.98 204.925 2121.6 232.682L2282.68 324.421L2282.58 324.051L2494.63 444.899C2571.42 488.605 2597.49 585.896 2552.88 662.266L2429.66 872.948L2424.36 881.759L2303.49 1093.79C2259.78 1170.58 2162.47 1196.65 2086.1 1152.04L1875.4 1028.85L1875.77 1028.75L1716.24 935.412C1667.88 907.186 1606.3 923.688 1578.54 972.31L1486.66 1133.41L1486.41 1133.48L1365.81 1345.04C1322.09 1421.83 1224.79 1447.9 1148.41 1403.3L937.717 1280.1L929.761 1276.03L717.712 1155.18C640.919 1111.48 614.85 1014.19 659.469 937.818L782.874 727.349L876.472 567.237C904.704 518.886 888.205 457.309 839.58 429.551L678.654 337.903L678.753 338.273L466.704 217.424C389.911 173.719 363.842 76.4272 408.461 0.0575812L531.644 -210.748L536.94 -219.559L657.813 -431.593C701.528 -508.38 798.831 -534.453 875.206 -489.843L1085.9 -366.653L1085.53 -366.554L1245.06 -273.212C1293.42 -244.986 1355 -261.487 1382.77 -310.109L1474.65 -471.213L1474.89 -471.279L1595.5 -682.845C1639.21 -759.632 1736.51 -785.704 1812.89 -741.095L2023.59 -617.904L2031.54 -613.832L2243.47 -492.951C2320.26 -449.246 2346.33 -351.954 2301.71 -275.584L2178.5 -64.9021L2178.31 -65.1153Z" stroke="url(#paint26_linear_458_2396)" stroke-width="1.75" stroke-miterlimit="10" stroke-linecap="round"/>
</g>
<defs>
<linearGradient id="paint0_linear_458_2396" x1="1819.78" y1="1595.79" x2="1141.96" y2="-933.878" gradientUnits="userSpaceOnUse">
<stop offset="0.265625" stop-color="#FF1A8B"/>
<stop offset="1" stop-color="#791AFF"/>
</linearGradient>
<linearGradient id="paint1_linear_458_2396" x1="1816.86" y1="1584.42" x2="1145.18" y2="-922.32" gradientUnits="userSpaceOnUse">
<stop offset="0.265625" stop-color="#FF1A8B"/>
<stop offset="1" stop-color="#791AFF"/>
</linearGradient>
<linearGradient id="paint2_linear_458_2396" x1="1813.75" y1="1573.06" x2="1148.16" y2="-910.931" gradientUnits="userSpaceOnUse">
<stop offset="0.265625" stop-color="#FF1A8B"/>
<stop offset="1" stop-color="#791AFF"/>
</linearGradient>
<linearGradient id="paint3_linear_458_2396" x1="1810.65" y1="1561.74" x2="1151.11" y2="-899.694" gradientUnits="userSpaceOnUse">
<stop offset="0.265625" stop-color="#FF1A8B"/>
<stop offset="1" stop-color="#791AFF"/>
</linearGradient>
<linearGradient id="paint4_linear_458_2396" x1="1807.79" y1="1550.35" x2="1154.33" y2="-888.403" gradientUnits="userSpaceOnUse">
<stop offset="0.265625" stop-color="#FF1A8B"/>
<stop offset="1" stop-color="#791AFF"/>
</linearGradient>
<linearGradient id="paint5_linear_458_2396" x1="1804.65" y1="1538.9" x2="1157.34" y2="-876.92" gradientUnits="userSpaceOnUse">
<stop offset="0.265625" stop-color="#FF1A8B"/>
<stop offset="1" stop-color="#791AFF"/>
</linearGradient>
<linearGradient id="paint6_linear_458_2396" x1="1801.55" y1="1527.58" x2="1160.31" y2="-865.56" gradientUnits="userSpaceOnUse">
<stop offset="0.265625" stop-color="#FF1A8B"/>
<stop offset="1" stop-color="#791AFF"/>
</linearGradient>
<linearGradient id="paint7_linear_458_2396" x1="1798.44" y1="1516.22" x2="1163.29" y2="-854.171" gradientUnits="userSpaceOnUse">
<stop offset="0.265625" stop-color="#FF1A8B"/>
<stop offset="1" stop-color="#791AFF"/>
</linearGradient>
<linearGradient id="paint8_linear_458_2396" x1="1795.46" y1="1504.86" x2="1166.39" y2="-842.844" gradientUnits="userSpaceOnUse">
<stop offset="0.265625" stop-color="#FF1A8B"/>
<stop offset="1" stop-color="#791AFF"/>
</linearGradient>
<linearGradient id="paint9_linear_458_2396" x1="1792.38" y1="1493.66" x2="1169.4" y2="-831.362" gradientUnits="userSpaceOnUse">
<stop offset="0.265625" stop-color="#FF1A8B"/>
<stop offset="1" stop-color="#791AFF"/>
</linearGradient>
<linearGradient id="paint10_linear_458_2396" x1="1789.28" y1="1482.07" x2="1172.43" y2="-820.019" gradientUnits="userSpaceOnUse">
<stop offset="0.265625" stop-color="#FF1A8B"/>
<stop offset="1" stop-color="#791AFF"/>
</linearGradient>
<linearGradient id="paint11_linear_458_2396" x1="1786.3" y1="1470.71" x2="1175.56" y2="-808.571" gradientUnits="userSpaceOnUse">
<stop offset="0.265625" stop-color="#FF1A8B"/>
<stop offset="1" stop-color="#791AFF"/>
</linearGradient>
<linearGradient id="paint12_linear_458_2396" x1="1783.28" y1="1459.47" x2="1178.58" y2="-797.32" gradientUnits="userSpaceOnUse">
<stop offset="0.265625" stop-color="#FF1A8B"/>
<stop offset="1" stop-color="#791AFF"/>
</linearGradient>
<linearGradient id="paint13_linear_458_2396" x1="1780.08" y1="1448.04" x2="1181.52" y2="-785.821" gradientUnits="userSpaceOnUse">
<stop offset="0.265625" stop-color="#FF1A8B"/>
<stop offset="1" stop-color="#791AFF"/>
</linearGradient>
<linearGradient id="paint14_linear_458_2396" x1="1777.1" y1="1436.68" x2="1184.62" y2="-774.495" gradientUnits="userSpaceOnUse">
<stop offset="0.265625" stop-color="#FF1A8B"/>
<stop offset="1" stop-color="#791AFF"/>
</linearGradient>
<linearGradient id="paint15_linear_458_2396" x1="1774.06" y1="1425.34" x2="1187.66" y2="-763.152" gradientUnits="userSpaceOnUse">
<stop offset="0.265625" stop-color="#FF1A8B"/>
<stop offset="1" stop-color="#791AFF"/>
</linearGradient>
<linearGradient id="paint16_linear_458_2396" x1="1771.01" y1="1413.97" x2="1190.67" y2="-751.902" gradientUnits="userSpaceOnUse">
<stop offset="0.265625" stop-color="#FF1A8B"/>
<stop offset="1" stop-color="#791AFF"/>
</linearGradient>
<linearGradient id="paint17_linear_458_2396" x1="1767.87" y1="1402.52" x2="1193.71" y2="-740.296" gradientUnits="userSpaceOnUse">
<stop offset="0.265625" stop-color="#FF1A8B"/>
<stop offset="1" stop-color="#791AFF"/>
</linearGradient>
<linearGradient id="paint18_linear_458_2396" x1="1764.9" y1="1391.16" x2="1196.78" y2="-729.094" gradientUnits="userSpaceOnUse">
<stop offset="0.265625" stop-color="#FF1A8B"/>
<stop offset="1" stop-color="#791AFF"/>
</linearGradient>
<linearGradient id="paint19_linear_458_2396" x1="1761.85" y1="1379.82" x2="1199.85" y2="-717.628" gradientUnits="userSpaceOnUse">
<stop offset="0.265625" stop-color="#FF1A8B"/>
<stop offset="1" stop-color="#791AFF"/>
</linearGradient>
<linearGradient id="paint20_linear_458_2396" x1="1758.78" y1="1368.36" x2="1202.88" y2="-706.285" gradientUnits="userSpaceOnUse">
<stop offset="0.265625" stop-color="#FF1A8B"/>
<stop offset="1" stop-color="#791AFF"/>
</linearGradient>
<linearGradient id="paint21_linear_458_2396" x1="1755.73" y1="1356.99" x2="1205.9" y2="-695.035" gradientUnits="userSpaceOnUse">
<stop offset="0.265625" stop-color="#FF1A8B"/>
<stop offset="1" stop-color="#791AFF"/>
</linearGradient>
<linearGradient id="paint22_linear_458_2396" x1="1752.81" y1="1345.61" x2="1209.05" y2="-683.726" gradientUnits="userSpaceOnUse">
<stop offset="0.265625" stop-color="#FF1A8B"/>
<stop offset="1" stop-color="#791AFF"/>
</linearGradient>
<linearGradient id="paint23_linear_458_2396" x1="1749.68" y1="1334.43" x2="1211.96" y2="-672.351" gradientUnits="userSpaceOnUse">
<stop offset="0.265625" stop-color="#FF1A8B"/>
<stop offset="1" stop-color="#791AFF"/>
</linearGradient>
<linearGradient id="paint24_linear_458_2396" x1="1746.57" y1="1322.84" x2="1215.04" y2="-660.884" gradientUnits="userSpaceOnUse">
<stop offset="0.265625" stop-color="#FF1A8B"/>
<stop offset="1" stop-color="#791AFF"/>
</linearGradient>
<linearGradient id="paint25_linear_458_2396" x1="1743.56" y1="1311.59" x2="1218.11" y2="-649.387" gradientUnits="userSpaceOnUse">
<stop offset="0.265625" stop-color="#FF1A8B"/>
<stop offset="1" stop-color="#791AFF"/>
</linearGradient>
<linearGradient id="paint26_linear_458_2396" x1="1740.48" y1="1300.13" x2="1221.15" y2="-638.044" gradientUnits="userSpaceOnUse">
<stop offset="0.265625" stop-color="#FF1A8B"/>
<stop offset="1" stop-color="#791AFF"/>
</linearGradient>
<clipPath id="clip0_458_2396">
<rect width="386" height="318" fill="white" transform="matrix(-1 0 0 1 386 0.477051)"/>
</clipPath>
</defs>
</svg>
