<svg width="50" height="43" viewBox="0 0 50 43" fill="none" xmlns="http://www.w3.org/2000/svg">
<circle cx="10" cy="10" r="10" fill="#E24CFF"/>
<path d="M27.5065 15.2714C27.6797 15.0976 27.9149 15 28.1602 15H30.5129C30.6772 15 30.7596 15.1985 30.6437 15.3149L24.3401 21.6464C23.1832 22.8028 21.6242 23.4511 20 23.4511C18.3758 23.4511 16.8168 22.8028 15.6599 21.6464L9.35282 15.3149C9.23686 15.1985 9.31931 15 9.48362 15H11.8396C12.085 15 12.3204 15.0978 12.4936 15.2717L17.25 20.0471C17.982 20.78 18.9691 21.1909 19.9976 21.1909C21.026 21.1909 22.0131 20.78 22.7451 20.0471L27.5065 15.2714ZM12.4545 33.2084C12.2813 33.3823 12.0459 33.48 11.8005 33.48H9.44455C9.28023 33.48 9.19778 33.2815 9.31375 33.1651L15.6611 26.7939C16.8179 25.6382 18.3764 24.9904 20 24.9904C21.6236 24.9904 23.1821 25.6382 24.3389 26.7939L30.6862 33.1651C30.8022 33.2815 30.7198 33.48 30.5555 33.48H28.1998C27.9542 33.48 27.7187 33.3821 27.5455 33.2081L22.75 28.3895C22.018 27.6566 21.0309 27.2457 20.0024 27.2457C18.974 27.2457 17.9869 27.6566 17.2549 28.3895L12.4545 33.2084Z" fill="white"/>
<path d="M47.0858 18.4788H46.0121V8.66279C46.0085 6.80088 44.4999 5.29229 42.6378 5.28857H3.37421C1.5122 5.29229 0.00361327 6.80088 0 8.66279V39.3376C0.00361327 41.1995 1.5122 42.7081 3.37421 42.7118H42.638C44.4999 42.7082 46.0085 41.1996 46.0123 39.3376V30.1352H47.0859C48.6891 30.1352 50.0001 28.8242 50.0001 27.2217V21.3923C49.9999 19.7898 48.6889 18.4788 47.0858 18.4788ZM44.1718 39.3376C44.1718 39.7591 44.0018 40.1383 43.7209 40.4205C43.4387 40.7015 43.0596 40.8714 42.638 40.8714H3.37421C2.95283 40.8714 2.57353 40.7009 2.2913 40.4205C2.01035 40.1383 1.84043 39.7592 1.84043 39.3376V8.66279C1.84043 8.2413 2.01045 7.8621 2.2913 7.57988C2.57353 7.29892 2.95263 7.129 3.37421 7.129H42.638C43.0595 7.129 43.4387 7.29951 43.7209 7.57988C44.0019 7.8621 44.1718 8.2412 44.1718 8.66279V18.4787H38.0368C34.8185 18.4787 32.2085 21.0879 32.2085 24.307C32.2085 27.5253 34.8183 30.1353 38.0368 30.1353H44.1718V39.3376ZM48.1595 27.2217C48.1595 27.8034 47.6675 28.2948 47.0858 28.2948H38.0367C35.8379 28.2948 34.0491 26.5058 34.0491 24.3071C34.0491 22.1084 35.838 20.3194 38.0367 20.3194H47.0858C47.6675 20.3194 48.1595 20.8108 48.1595 21.3924V27.2217Z" fill="white"/>
</svg>
