<svg width="40" height="37" viewBox="0 0 40 37" fill="none" xmlns="http://www.w3.org/2000/svg">
<g clip-path="url(#clip0_1158_39335)">
<rect width="39.8877" height="36.9331" rx="18.4665" fill="black"/>
<path d="M-0.320312 18.4584L2.36627 17.025L-0.320312 18.4584Z" fill="#FF6819"/>
<path d="M17.3291 16.2749L19.9256 14.887L17.3291 16.2749Z" fill="#FF6819"/>
<path d="M12.3242 11.694L19.9253 7.63647L12.3242 11.694Z" fill="#FF6819"/>
<path d="M9.8291 9.40331L19.9284 4.00345L9.8291 9.40331Z" fill="#FF6819"/>
<path d="M7.33008 7.11285L19.9275 0.378174L7.33008 7.11285Z" fill="#FF6819"/>
<path d="M4.83105 4.82228L19.9267 -3.24719L4.83105 4.82228Z" fill="#FF6819"/>
<path d="M2.33301 2.53226L19.9268 -6.87201L2.33301 2.53226Z" fill="#FF6819"/>
<path d="M-0.165642 0.241837L19.9264 -10.4972L-0.173828 0.241837H-0.165642Z" fill="#FF6819"/>
<path d="M18.5741 17.4201L19.9256 16.6996V14.887L17.3291 16.2749L18.5741 17.4201Z" fill="#FF6819"/>
<path d="M16.0764 15.1296L19.9261 13.0743V11.2617L14.8232 13.9844L16.0764 15.1296Z" fill="#FF6819"/>
<path d="M-0.320312 18.4584H3.07068L3.61127 18.1702L2.36627 17.025L-0.320312 18.4584Z" fill="#FF6819"/>
<path d="M13.5774 12.8392L19.9253 9.44908V7.63647L12.3242 11.694L13.5774 12.8392Z" fill="#FF6819"/>
<path d="M-7.10449 18.4589H-3.7135L1.11089 15.8803L-0.142307 14.7351L-7.10449 18.4589Z" fill="#FF6819"/>
<path d="M11.0823 10.5485L19.9284 5.82362V4.00345L9.8291 9.40331L11.0823 10.5485Z" fill="#FF6819"/>
<path d="M8.57508 8.25804L19.9275 2.19077V0.378174L7.33008 7.11285L8.57508 8.25804Z" fill="#FF6819"/>
<path d="M6.07606 5.96747L19.9267 -1.4346V-3.24719L4.83105 4.82228L6.07606 5.96747Z" fill="#FF6819"/>
<path d="M3.57801 3.67746L19.9268 -5.05941V-6.87201L2.33301 2.53226L3.57801 3.67746Z" fill="#FF6819"/>
<path d="M1.07899 1.38704L19.926 -8.68463V-10.4972L-0.166016 0.241839L1.07899 1.38704Z" fill="#FF6819"/>
<path d="M-2.63794 12.445L7.33026 7.13617L6.07707 5.99097L-3.88295 11.2998L-2.63794 12.445ZM-0.180702 14.7203L9.78751 9.41139L8.5425 8.26619L-1.4257 13.5751L-0.180702 14.7203ZM2.32568 16.9955L12.2857 11.6866L11.0407 10.5414L1.07249 15.8503L2.32568 16.9955ZM16.6023 18.4289H19.6656L18.5353 17.3898L16.6023 18.4289ZM9.81208 18.4289H13.2113L17.3067 16.2447L16.0535 15.0995L9.82846 18.4289M3.90651 18.4289H6.43747L14.8003 13.9543L13.5553 12.8091L3.58707 18.1179L3.90651 18.4061M-78.3619 18.4061H-74.9709L-70.7281 16.1309L-67.0095 12.7181L-65.9856 11.7852L-78.3701 18.4061" fill="#FF6819"/>
<path d="M-12.6324 3.28277L-2.67237 -2.02609L-3.91738 -3.17129L-13.8856 2.13757L-12.6324 3.28277ZM-10.1752 5.558L-0.215134 0.249138L-1.46014 -0.896061L-11.3628 4.42797L-10.1342 5.57317M-7.67696 7.84839L2.29125 2.53953L1.03806 1.39434L-8.90558 6.71836L-7.65238 7.86356M-5.19514 10.1388L4.77306 4.82993L3.51987 3.68473L-6.44833 8.99359L-5.19514 10.1388ZM-80.1328 10.3056L-25.9916 -18.6428C-26.8107 -18.8552 -27.5642 -19.0372 -28.3587 -19.1889L-75.3248 5.96754L-80.0755 10.3208" fill="#FF6819"/>
<path d="M40.1749 18.4584L37.4883 17.025L40.1749 18.4584Z" fill="#FF6819"/>
<path d="M22.5242 16.2749L19.9277 14.887L22.5242 16.2749Z" fill="#FF6819"/>
<path d="M27.5288 11.694L19.9277 7.63647L27.5288 11.694Z" fill="#FF6819"/>
<path d="M30.027 9.40331L19.9277 4.00345L30.027 9.40331Z" fill="#FF6819"/>
<path d="M32.5252 7.11285L19.9277 0.378174L32.5252 7.11285Z" fill="#FF6819"/>
<path d="M35.0234 4.82228L19.9277 -3.24719L35.0234 4.82228Z" fill="#FF6819"/>
<path d="M37.5216 2.53226L19.9277 -6.87201L37.5216 2.53226Z" fill="#FF6819"/>
<path d="M40.028 0.241837L19.9277 -10.4972L40.028 0.241837Z" fill="#FF6819"/>
<path d="M21.2792 17.4201L19.9277 16.6996V14.887L22.5242 16.2749L21.2792 17.4201Z" fill="#FF6819"/>
<path d="M23.7774 15.1296L19.9277 13.0743V11.2617L25.0306 13.9844L23.7774 15.1296Z" fill="#FF6819"/>
<path d="M40.1738 18.4584H36.7828L36.2422 18.1702L37.4872 17.025L40.1738 18.4584Z" fill="#FF6819"/>
<path d="M26.2756 12.8392L19.9277 9.44908V7.63647L27.5288 11.694L26.2756 12.8392Z" fill="#FF6819"/>
<path d="M46.9585 18.4589H43.5675L38.7432 15.8803L39.9964 14.7351L46.9585 18.4589Z" fill="#FF6819"/>
<path d="M28.7738 10.5485L19.9277 5.82362V4.00345L30.027 9.40331L28.7738 10.5485Z" fill="#FF6819"/>
<path d="M31.272 8.25804L19.9277 2.19077V0.378174L32.5252 7.11285L31.272 8.25804Z" fill="#FF6819"/>
<path d="M33.7784 5.96747L19.9277 -1.4346V-3.24719L35.0234 4.82228L33.7784 5.96747Z" fill="#FF6819"/>
<path d="M36.2766 3.67746L19.9277 -5.05941V-6.87201L37.5216 2.53226L36.2766 3.67746Z" fill="#FF6819"/>
<path d="M38.7748 1.38704L19.9277 -8.68463V-10.4972L40.028 0.241839L38.7748 1.38704Z" fill="#FF6819"/>
<path d="M42.491 12.445L43.736 11.2998L33.776 5.99097L32.5228 7.13617L42.491 12.445ZM39.9928 14.7202L41.2378 13.5751L31.2696 8.26619L30.0246 9.41139L39.9928 14.7202ZM37.4864 16.9955L38.7396 15.8503L28.7714 10.5414L27.5264 11.6866L37.4864 16.9955ZM23.2099 18.4289L21.2768 17.3898L20.1465 18.4289H23.2099ZM30 18.4289L23.775 15.0995L22.5218 16.2447L26.6172 18.4289H30.0082M35.9302 18.4289L36.2496 18.1407L26.2814 12.8318L25.0364 13.977L33.3992 18.4516H35.9302M118.199 18.4516L105.814 11.8307L106.838 12.7636L110.557 16.1764L114.799 18.4516H118.19" fill="#FF6819"/>
<path d="M52.5264 3.28304L53.7796 2.13784L43.8114 -3.17101L42.5664 -2.02582L52.5264 3.28304ZM50.0692 5.55827L51.3223 4.41307L41.3541 -0.89579L40.1091 0.249409L50.0692 5.55827ZM47.571 7.83349L48.8241 6.6883L38.8559 1.37944L37.6027 2.52463L47.571 7.83349ZM45.1137 10.1087L46.3669 8.96352L36.3987 3.65466L35.1455 4.79986L45.1137 10.1087ZM120.051 10.2756L115.301 5.92231L68.1545 -19.1734C67.3354 -19.0217 66.5736 -18.8397 65.7873 -18.6274L119.929 10.3211" fill="#FF6819"/>
<path d="M-0.320312 18.4588L2.36627 19.8922L-0.320312 18.4588Z" fill="#FF6819"/>
<path d="M17.3291 20.6425L19.9256 22.0304L17.3291 20.6425Z" fill="#FF6819"/>
<path d="M12.3242 25.2237L19.9253 29.2811L12.3242 25.2237Z" fill="#FF6819"/>
<path d="M9.8291 27.5145L19.9284 32.9068L9.8291 27.5145Z" fill="#FF6819"/>
<path d="M7.33008 29.8044L19.9275 36.5391L7.33008 29.8044Z" fill="#FF6819"/>
<path d="M4.83105 32.0952L19.9267 40.1647L4.83105 32.0952Z" fill="#FF6819"/>
<path d="M2.33301 34.3851L19.9268 43.7893L2.33301 34.3851Z" fill="#FF6819"/>
<path d="M-0.165642 36.6759L19.9264 47.415L-0.173828 36.6759H-0.165642Z" fill="#FF6819"/>
<path d="M18.5741 19.4981L19.9256 20.2186V22.0312L17.3291 20.6433L18.5741 19.4981Z" fill="#FF6819"/>
<path d="M16.0764 21.7879L19.9261 23.8432V25.6558L14.8232 22.9331L16.0764 21.7879Z" fill="#FF6819"/>
<path d="M-0.320312 18.4588H3.07068L3.61127 18.747L2.36627 19.8922L-0.320312 18.4588Z" fill="#FF6819"/>
<path d="M13.5774 24.0783L19.9253 27.4684V29.281L12.3242 25.2235L13.5774 24.0783Z" fill="#FF6819"/>
<path d="M-7.10449 18.4588H-3.7135L1.11089 21.0374L-0.142307 22.1826L-7.10449 18.4588Z" fill="#FF6819"/>
<path d="M11.0823 26.3691L19.9284 31.094V32.9066L9.8291 27.5143L11.0823 26.3691Z" fill="#FF6819"/>
<path d="M8.57508 28.6595L19.9275 34.7267V36.5393L7.33008 29.8047L8.57508 28.6595Z" fill="#FF6819"/>
<path d="M6.07606 30.9498L19.9267 38.3519V40.1645L4.83105 32.095L6.07606 30.9498Z" fill="#FF6819"/>
<path d="M3.57801 33.2402L19.9268 41.977V43.7896L2.33301 34.3854L3.57801 33.2402Z" fill="#FF6819"/>
<path d="M1.07899 35.5305L19.926 45.6022V47.4148L-0.166016 36.6757L1.07899 35.5305Z" fill="#FF6819"/>
<path d="M-2.63944 24.4727L-3.88445 25.6179L6.07557 30.9268L7.32877 29.7816L-2.63944 24.4727ZM-0.182205 22.1975L-1.42721 23.3427L8.54101 28.6515L9.786 27.5063L-0.182205 22.1975ZM2.32418 19.9223L1.07099 21.0675L11.0392 26.3763L12.2842 25.2311L2.32418 19.9223ZM16.6008 18.4889L18.5338 19.5279L19.6641 18.4889H16.6008ZM9.81058 18.4889L16.0356 21.8183L17.2888 20.6731L13.1934 18.4889H9.85153M3.92958 18.4889L3.61015 18.7771L13.5784 24.0859L14.8234 22.9407L6.46054 18.4661H3.92958M-78.3389 18.4661L-65.9544 25.0643L-66.9782 24.1314L-70.6968 20.7186L-74.9397 18.4434H-78.3389" fill="#FF6819"/>
<path d="M-12.6311 33.6346L-13.8843 34.7798L-3.91612 40.0886L-2.67111 38.9434L-12.6311 33.6346ZM-10.1739 31.3593L-11.3616 32.4894L-1.39335 37.7982L-0.148346 36.653L-10.1084 31.3442M-7.65112 29.0689L-8.90432 30.199L1.06389 35.5078L2.31709 34.3626L-7.65112 29.0538M-5.19389 26.7785L-6.44707 27.9237L3.52113 33.2326L4.77432 32.0874L-5.19389 26.7785ZM-80.0742 26.5814L-75.3236 30.9346L-28.3001 56.0759C-27.4811 55.9242 -26.7193 55.7422 -25.933 55.5298L-80.0742 26.5814Z" fill="#FF6819"/>
<path d="M40.1749 18.4588L37.4883 19.8922L40.1749 18.4588Z" fill="#FF6819"/>
<path d="M22.5242 20.6425L19.9277 22.0304L22.5242 20.6425Z" fill="#FF6819"/>
<path d="M27.5288 25.2237L19.9277 29.2811L27.5288 25.2237Z" fill="#FF6819"/>
<path d="M30.027 27.5145L19.9277 32.9068L30.027 27.5145Z" fill="#FF6819"/>
<path d="M32.5252 29.8044L19.9277 36.5391L32.5252 29.8044Z" fill="#FF6819"/>
<path d="M35.0234 32.0952L19.9277 40.1647L35.0234 32.0952Z" fill="#FF6819"/>
<path d="M37.5216 34.3851L19.9277 43.7893L37.5216 34.3851Z" fill="#FF6819"/>
<path d="M40.028 36.6754L19.9277 47.4144L40.028 36.6754Z" fill="#FF6819"/>
<path d="M21.2792 19.4981L19.9277 20.2186V22.0312L22.5242 20.6433L21.2792 19.4981Z" fill="#FF6819"/>
<path d="M23.7774 21.7879L19.9277 23.8432V25.6558L25.0306 22.9331L23.7774 21.7879Z" fill="#FF6819"/>
<path d="M40.1738 18.4588H36.7828L36.2422 18.747L37.4872 19.8922L40.1738 18.4588Z" fill="#FF6819"/>
<path d="M26.2756 24.0783L19.9277 27.4684V29.281L27.5288 25.2235L26.2756 24.0783Z" fill="#FF6819"/>
<path d="M46.9585 18.4588H43.5675L38.7432 21.0374L39.9964 22.1826L46.9585 18.4588Z" fill="#FF6819"/>
<path d="M28.7738 26.3691L19.9277 31.094V32.9066L30.027 27.5143L28.7738 26.3691Z" fill="#FF6819"/>
<path d="M31.272 28.6595L19.9277 34.7267V36.5393L32.5252 29.8047L31.272 28.6595Z" fill="#FF6819"/>
<path d="M33.7784 30.9498L19.9277 38.3519V40.1645L35.0234 32.095L33.7784 30.9498Z" fill="#FF6819"/>
<path d="M36.2766 33.2402L19.9277 41.977V43.7896L37.5216 34.3854L36.2766 33.2402Z" fill="#FF6819"/>
<path d="M38.7748 35.5305L19.9277 45.6022V47.4148L40.028 36.6757L38.7748 35.5305Z" fill="#FF6819"/>
<path d="M42.491 24.4727L32.5228 29.7816L33.776 30.9268L43.736 25.6179L42.491 24.4727ZM39.9928 22.1975L30.0246 27.5063L31.2696 28.6515L41.2378 23.3427L39.9928 22.1975ZM37.4864 19.9223L27.5264 25.2311L28.7714 26.3763L38.7396 21.0675L37.4864 19.9223ZM23.2098 18.4889H20.1465L21.2768 19.5279L23.2098 18.4889ZM30 18.4889H26.609L22.5136 20.6731L23.7668 21.8183L29.9918 18.4889M35.9138 18.4889H33.3828L25.02 22.9635L26.3142 24.0783L36.2824 18.7695L35.9629 18.4813M118.231 18.4813H114.775L110.532 20.7565L106.813 24.1693L105.806 25.0643L118.19 18.4434" fill="#FF6819"/>
<path d="M52.5264 33.6347L42.5664 38.9436L43.8114 40.0888L53.7796 34.7799L52.5264 33.6347ZM50.0692 31.3595L40.1091 36.6683L41.3541 37.8135L51.3223 32.5047L50.0692 31.3595ZM47.571 29.0843L37.6027 34.3931L38.8559 35.5383L48.8241 30.2294L47.571 29.0843ZM45.1137 26.809L35.1455 32.1179L36.3987 33.2631L46.3669 27.9542L45.1137 26.809ZM120.051 26.6422L65.9102 55.5906C66.7292 55.803 67.4828 55.985 68.2773 56.1367L115.301 30.9954L120.051 26.6422Z" fill="#FF6819"/>
</g>
<defs>
<clipPath id="clip0_1158_39335">
<rect width="39.8877" height="36.9331" rx="18.4665" fill="white"/>
</clipPath>
</defs>
</svg>
