<svg width="142" height="22" viewBox="0 0 142 22" fill="none" xmlns="http://www.w3.org/2000/svg">
<path d="M13.2331 0.030684C15.6907 -0.132474 18.1955 0.356994 20.3931 1.45248C23.6541 3.03744 26.2535 5.88105 27.4586 9.23744C28.0021 10.7292 28.2857 12.2908 28.2857 13.8758V19.7262C28.2857 19.9592 28.2857 20.2156 28.2385 20.4487C28.0967 21.0314 27.6713 21.5675 27.1042 21.8239C26.7025 22.0104 26.2535 22.0337 25.8518 21.9637C24.9538 21.8006 24.2449 20.9615 24.2449 20.0525C24.2449 18.2344 24.2449 16.4164 24.2449 14.5983C24.2685 14.0856 24.2685 13.5262 23.985 13.0833C23.536 12.2442 22.4017 11.848 21.5274 12.1976C20.7712 12.454 20.2277 13.2232 20.2041 14.0156C20.2041 15.857 20.2041 17.6983 20.2041 19.5397C20.2041 19.8893 20.2277 20.2389 20.1096 20.5652C19.9205 21.2179 19.377 21.7307 18.7154 21.9171C17.841 22.1502 16.8485 21.7773 16.4232 20.9848C16.116 20.5186 16.1396 19.9359 16.1633 19.3998C16.1633 17.5585 16.1633 15.7404 16.1633 13.8991C16.1396 12.9668 15.3598 12.1277 14.4382 12.0111C13.8238 11.9179 13.1858 12.1277 12.7368 12.5472C12.3351 12.9201 12.1224 13.4562 12.1224 13.9923V19.3299C12.1224 19.7728 12.1697 20.2389 12.0043 20.6585C11.7444 21.4277 10.9646 21.987 10.1375 21.9637C9.28679 22.0104 8.45972 21.4277 8.19979 20.6585C8.058 20.2622 8.08163 19.866 8.08163 19.4465C8.08163 17.6051 8.08163 15.7637 8.08163 13.9224C8.08163 13.0134 7.34909 12.1743 6.45113 12.0111C5.62406 11.848 4.7261 12.2442 4.30075 12.9901C4.13534 13.2931 4.04082 13.6427 4.04082 13.9923V19.9825C4.04082 20.5652 3.78088 21.148 3.3319 21.5209C2.64662 22.1036 1.53598 22.1502 0.827068 21.6141C0.307197 21.2645 0 20.6585 0 20.0292V13.969C0 11.6848 0.590763 9.4006 1.7014 7.37278C2.59936 5.7179 3.85177 4.24947 5.34049 3.08406C7.53813 1.26602 10.3502 0.193842 13.2331 0.030684Z" fill="#5741D9"/>
<path d="M68.2186 7.36485H65.1485C65.2666 5.2437 65.7153 3.33233 67.6754 2.12024C69.6356 0.931463 71.7847 0.651751 74.0282 0.838226C75.2326 0.931463 76.4371 1.18787 77.547 1.70068C79.5072 2.58643 80.4755 4.10154 80.4755 6.22269C80.4755 9.9755 80.4755 13.7283 80.4755 17.4811C80.4755 18.8564 80.7589 19.1128 82.1522 18.9729C82.2939 18.9496 82.4592 18.9263 82.6009 18.903C82.6245 18.9729 82.6245 19.0429 82.6245 19.0895V21.3738C81.5146 21.7467 80.381 21.8633 79.271 21.5603C78.4445 21.3272 77.9249 20.7444 77.6415 19.9752C77.4998 19.579 77.4053 19.1594 77.2873 18.7165C77.1692 18.8564 77.0747 18.9729 76.9566 19.0895C74.5242 21.5136 71.643 22.5393 68.2422 21.6768C65.8334 21.0708 64.1802 18.903 64.1094 16.4322C64.0858 15.6397 64.1566 14.8472 64.3456 14.078C64.7943 12.3064 66.0695 11.2342 67.6754 10.5116C68.809 9.99881 70.0371 9.85896 71.2651 9.69579C72.7057 9.50931 74.1227 9.34615 75.5633 9.13637C76.5315 8.99651 77.0275 8.4837 77.1692 7.52802C77.4762 5.59334 76.6024 4.31133 74.7131 3.84514C73.5795 3.56543 72.4223 3.51881 71.2651 3.72859C69.5647 4.03162 68.6201 4.9873 68.2895 6.64227C68.3131 6.87536 68.2659 7.10845 68.2186 7.36485ZM77.2636 11.0944C75.8467 11.8403 74.4769 12.0267 73.0836 12.2365C71.9264 12.423 70.7456 12.5862 69.612 12.9358C68.1242 13.4253 67.4393 14.6374 67.581 16.269C67.6991 17.621 68.6201 18.7165 70.1079 18.9496C72.3987 19.3226 74.4297 18.6932 76.0356 17.0149C76.5079 16.5254 76.8858 15.8262 76.9802 15.1735C77.1928 13.8682 77.1692 12.5395 77.2636 11.0944ZM121.025 15.0103C120.954 15.3367 120.906 15.6164 120.836 15.8728C119.513 19.8587 116.821 21.5603 113.562 21.9332C107.918 22.5393 104.682 18.903 103.856 15.0336C103.194 11.9568 103.289 8.90327 104.658 6.01291C105.957 3.28571 108.036 1.49089 111.129 0.954773C114.837 0.30211 120.08 2.12024 120.954 7.83104C121.19 9.29953 121.237 10.8146 121.379 12.3531H107.02C107.138 14.4509 107.469 16.4089 109.027 17.924C109.665 18.5534 110.492 18.8564 111.389 19.0195C114.294 19.5323 116.703 18.1571 117.647 15.3833C117.742 15.0803 117.884 14.987 118.191 15.0103C119.112 15.0103 120.033 15.0103 121.025 15.0103ZM107.138 9.64917H117.884C117.766 8.41378 117.553 7.27161 116.963 6.19938C116.396 5.17377 115.569 4.42787 114.436 4.05492C110.728 2.79622 106.902 5.70989 107.138 9.64917ZM128.747 21.2572H125.488V1.2578H128.582V4.05492C128.818 3.79852 128.96 3.63536 129.101 3.47219C131.321 0.978087 134.108 0.325421 137.273 1.09463C139.469 1.63075 140.697 3.16917 141.122 5.31363C141.287 6.19939 141.405 7.10845 141.405 7.99421C141.429 12.2831 141.429 16.5721 141.429 20.861C141.429 20.9775 141.405 21.0941 141.405 21.2339H138.075V20.6978C138.075 16.6886 138.099 12.6794 138.052 8.67018C138.052 7.78442 137.91 6.87536 137.65 6.01291C137.225 4.61435 136.092 3.86845 134.604 3.79852C131.888 3.70528 129.739 5.12715 129.078 7.50471C128.842 8.36716 128.771 9.27622 128.771 10.1853C128.747 13.705 128.747 17.2014 128.747 20.6745V21.2572ZM85.7891 1.2578H88.9301V9.74241C89.119 9.55594 89.2371 9.4627 89.3552 9.34615C91.9293 6.75881 94.5035 4.14816 97.0777 1.56082C97.2902 1.32772 97.5028 1.23449 97.8334 1.23449C99.0378 1.2578 100.266 1.23449 101.588 1.23449C101.399 1.42096 101.305 1.53751 101.187 1.65405C98.9197 3.89175 96.6762 6.15277 94.3854 8.36716C94.1256 8.62356 94.1256 8.78673 94.291 9.06644C96.7707 12.9591 99.2267 16.8518 101.683 20.7444C101.777 20.8843 101.848 21.0241 101.966 21.2339C101.801 21.2572 101.683 21.2572 101.541 21.2572C100.408 21.2572 99.2976 21.2572 98.164 21.2572C97.857 21.2572 97.7153 21.1407 97.55 20.9076C95.6607 17.7841 93.7714 14.6607 91.8821 11.5139C91.7876 11.3741 91.7168 11.2342 91.5987 11.071C90.7249 11.9335 89.8747 12.7493 89.0245 13.6118C88.9064 13.7283 88.8828 13.9381 88.8828 14.1013C88.8828 16.2923 88.8828 18.4834 88.8828 20.6745V21.2339C88.2688 21.2339 87.6548 21.2339 87.0644 21.2339C86.6393 21.2339 86.0489 21.3505 85.8127 21.1174C85.6002 20.9309 85.7183 20.3249 85.7183 19.9053V1.79391C85.7891 1.67736 85.7891 1.49089 85.7891 1.2578ZM49.5382 1.23449C46.9876 3.72859 44.5079 6.17608 42.0046 8.62356C44.6968 12.8659 47.3182 17.0149 49.9869 21.2572C49.7743 21.2572 49.6326 21.2806 49.4909 21.2806C48.4046 21.2806 47.2946 21.2806 46.2083 21.2806C45.9013 21.2806 45.7123 21.164 45.547 20.9076C43.6577 17.7841 41.7684 14.6607 39.8791 11.5139C39.8083 11.3741 39.7138 11.2575 39.5957 11.071C39.1234 11.5605 38.6983 12.0967 38.1788 12.4696C37.116 13.2621 36.809 14.2411 36.8799 15.5464C36.9979 17.248 36.9035 18.9729 36.9035 20.6745V21.2339H33.7861V1.2578H36.9035V9.60255C36.9743 9.64917 37.0452 9.69579 37.0924 9.74241C37.1869 9.60256 37.2341 9.43939 37.3286 9.32285C39.8791 6.7355 42.4533 4.17147 45.0038 1.56082C45.24 1.32772 45.4526 1.21118 45.8068 1.23449C46.8695 1.2578 47.9323 1.23449 48.995 1.23449C49.1603 1.23449 49.302 1.23449 49.5382 1.23449ZM55.7729 4.56773C57.3551 2.28341 59.0319 0.372044 62.1492 0.931469V4.35794C61.3227 4.40456 60.4961 4.38126 59.7168 4.54442C57.8039 4.94068 56.316 6.66557 56.009 8.76341C55.9618 9.18298 55.9146 9.60256 55.9146 10.0221C55.9146 13.5885 55.9146 17.1548 55.9146 20.7211V21.2806H52.7027V1.30441H55.7729C55.7729 2.35334 55.7729 3.40226 55.7729 4.56773Z" fill="#5741D9"/>
</svg>
