<svg width="18" height="18" viewBox="0 0 18 18" fill="none" xmlns="http://www.w3.org/2000/svg">
<rect width="18" height="18" fill="#93BFF1"/>
<path d="M11.5192 4C10.6778 4 9.88682 4.3276 9.29182 4.9226C9.18542 5.029 9.08742 5.1424 8.99782 5.26C8.42242 4.4956 7.50822 4 6.48062 4H2.69922V13.4486H5.84222C6.19642 13.4486 6.54642 13.506 6.88242 13.618L8.26562 14.0786H9.73002L11.1132 13.618C11.4492 13.506 11.7992 13.4486 12.1534 13.4486H15.2964V4H11.5164H11.5192ZM7.28142 12.4224C6.81662 12.267 6.33222 12.1886 5.84222 12.1886H3.95922V5.26H6.48062C7.52222 5.26 8.36922 6.1084 8.36922 7.15V12.785L7.28142 12.4224ZM14.0378 12.1886H12.1548C11.6648 12.1886 11.1804 12.267 10.7156 12.4224L9.62922 12.785V7.15V7.1472C9.62922 6.6432 9.82662 6.17 10.1822 5.8144C10.5392 5.4574 11.0138 5.2614 11.5178 5.2614H14.0378V12.1914V12.1886Z" fill="black"/>
</svg>
