<svg width="18" height="18" viewBox="0 0 18 18" fill="none" xmlns="http://www.w3.org/2000/svg">
<rect width="18" height="18" fill="#E6F1A7"/>
<path d="M15.2992 7.73922L14.0392 8.99922V6.12922C14.0392 4.93222 13.0662 3.95922 11.8692 3.95922H6.12922C4.93222 3.95922 3.95922 4.93222 3.95922 6.12922V11.8692C3.95922 13.0662 4.93222 14.0392 6.12922 14.0392H11.8692C13.0662 14.0392 14.0392 13.0662 14.0392 11.8692V8.99922L15.2992 10.2592V11.8692C15.2992 13.7606 13.7606 15.2992 11.8692 15.2992H6.12922C4.23782 15.2992 2.69922 13.7606 2.69922 11.8692V10.2592L3.95922 8.99922L2.69922 7.73922V6.12922C2.69922 4.23782 4.23782 2.69922 6.12922 2.69922H11.8692C13.7606 2.69922 15.2992 4.23782 15.2992 6.12922V7.73922ZM7.40462 10.5938L5.81142 9.00062L7.40602 7.40602L6.81242 6.81242L4.62422 9.00062L6.81102 11.1874L7.40462 10.5938ZM13.3728 9.00062L11.1874 6.81242L10.5924 7.40602L12.1842 9.00062L10.5924 10.5938L11.186 11.1874L13.3728 9.00062ZM10.3376 6.62622L9.55082 6.33082L7.66082 11.3708L8.44762 11.6662L10.3376 6.62622Z" fill="black"/>
</svg>
