<svg width="18" height="18" viewBox="0 0 18 18" fill="none" xmlns="http://www.w3.org/2000/svg">
<rect width="18" height="18" fill="#F2B5C3"/>
<path d="M14.8543 11.8216V13.7326C14.8543 14.595 14.203 15.2964 13.4022 15.2964H9.28769C8.48689 15.2964 7.83559 14.595 7.83559 13.7326V11.8216C7.83559 10.9592 8.48689 10.2578 9.28769 10.2578H10.1704L11.3404 11.5178H9.28769C9.13429 11.5178 9.00559 11.6578 9.00559 11.8216V13.7326C9.00559 13.8978 9.13559 14.0364 9.28769 14.0364H13.4022C13.5556 14.0364 13.6843 13.8964 13.6843 13.7326V11.8216C13.6843 11.6564 13.5543 11.5178 13.4022 11.5178H11.3404L12.5104 10.2578H13.4022C14.203 10.2578 14.8543 10.9592 14.8543 11.8216ZM9.58409 7.73642C9.58409 6.69482 10.3719 5.84642 11.3391 5.84642C12.3063 5.84642 13.0941 6.69482 13.0941 7.73642C13.0941 8.77802 12.3063 9.62642 11.3391 9.62642C10.3719 9.62642 9.58409 8.77802 9.58409 7.73642ZM10.6241 7.73642C10.6241 8.16062 10.9452 8.50642 11.3391 8.50642C11.733 8.50642 12.0541 8.16062 12.0541 7.73642C12.0541 7.31222 11.733 6.96642 11.3391 6.96642C10.9452 6.96642 10.6241 7.31222 10.6241 7.73642ZM3.15039 8.71642V10.5364C3.15039 11.424 3.82119 12.1464 4.64539 12.1464H6.66039V10.8864H4.64539C4.46989 10.8864 4.32039 10.7254 4.32039 10.5364V8.71642C4.32039 8.52742 4.46989 8.36642 4.64539 8.36642H8.41539V7.10642H4.64539C3.82119 7.10642 3.15039 7.82882 3.15039 8.71642ZM4.90539 4.58922C4.90539 3.54762 5.69319 2.69922 6.66039 2.69922C7.62759 2.69922 8.41539 3.54762 8.41539 4.58922C8.41539 5.63082 7.62759 6.47922 6.66039 6.47922C5.69319 6.47922 4.90539 5.63082 4.90539 4.58922ZM5.94539 4.58922C5.94539 5.01342 6.26649 5.35922 6.66039 5.35922C7.05429 5.35922 7.37539 5.01342 7.37539 4.58922C7.37539 4.16502 7.05429 3.81922 6.66039 3.81922C6.26649 3.81922 5.94539 4.16502 5.94539 4.58922Z" fill="black"/>
</svg>
