<svg width="18" height="18" viewBox="0 0 18 18" fill="none" xmlns="http://www.w3.org/2000/svg">
<rect width="18" height="18" fill="#93BFF1"/>
<path d="M9.62961 5.85156H8.36961V8.37156H5.84961V9.63156H8.36961V12.1516H9.62961V9.63156H12.1496V8.37156H9.62961V5.85156Z" fill="black"/>
<path d="M11.8702 2.69922H7.74023L9.00023 3.95922H11.8702C13.0672 3.95922 14.0402 4.93222 14.0402 6.12922V8.99922L15.3002 10.2592V6.12922C15.3002 4.23782 13.7616 2.69922 11.8702 2.69922Z" fill="black"/>
<path d="M6.12922 14.0383C4.93222 14.0383 3.95922 13.0653 3.95922 11.8683V8.99828L2.69922 7.73828V11.8683C2.69922 13.7597 4.23782 15.2983 6.12922 15.2983H10.2592L8.99922 14.0383H6.12922Z" fill="black"/>
</svg>
