<svg width="24" height="24" viewBox="0 0 24 24" fill="none" xmlns="http://www.w3.org/2000/svg">
<rect width="24" height="24" fill="#D9CAFF"/>
<path d="M12.001 13.6787C12.8482 13.6788 13.7048 13.9875 14.4307 14.5098V16.0527H16.0605L20.1045 20.1045H17.8037L13.8252 16.1152C12.8135 15.1201 11.1802 15.1101 10.1719 16.1055L6.20508 20.1045H3.89453L7.94727 16.0527H9.56738V14.5166C10.2959 13.9902 11.1536 13.6787 12.001 13.6787ZM12.001 8.82129C12.8482 8.82137 13.7048 9.13008 14.4307 9.65234V11.1943L16.0605 11.1953L20.1045 15.2471H17.8037L13.8252 11.2578C12.8135 10.2627 11.1802 10.2526 10.1719 11.248L6.20508 15.2471H3.89453L7.94727 11.1943H9.56738V9.65918C10.2959 9.13279 11.1536 8.82129 12.001 8.82129ZM12.001 3.95312C12.8482 3.95321 13.7048 4.26192 14.4307 4.78418V6.32617L16.0605 6.32715L20.1045 10.3789H17.8037L13.8252 6.38965C12.8135 5.3945 11.1802 5.38351 10.1719 6.37891L6.20508 10.3789H3.89453L7.94727 6.32617H9.56738V4.79102C10.2959 4.26462 11.1536 3.95312 12.001 3.95312Z" fill="#141414"/>
</svg>
