<svg width="18" height="18" viewBox="0 0 18 18" fill="none" xmlns="http://www.w3.org/2000/svg">
<rect width="18" height="18" fill="#70EE97"/>
<path d="M15.2992 6.63156C15.2992 5.51156 14.3892 4.60156 13.2692 4.60156H4.72922C3.60922 4.60156 2.69922 5.51156 2.69922 6.63156V11.3916C2.69922 12.5116 3.60922 13.4216 4.72922 13.4216H13.2692C14.3892 13.4216 15.2992 12.5116 15.2992 11.3916V9.64296L14.0392 8.38296L15.2992 7.12296V6.63156ZM14.0392 11.3916C14.0392 11.8158 13.6934 12.1616 13.2692 12.1616H4.72922C4.30502 12.1616 3.95922 11.8158 3.95922 11.3916V9.01296H14.0392V11.3916ZM14.0392 7.75016H3.95922V6.63156C3.95922 6.20736 4.30362 5.86156 4.72922 5.86156H13.2692C13.6934 5.86156 14.0392 6.20736 14.0392 6.63156V7.75016Z" fill="black"/>
</svg>
