<svg width="242" height="114" viewBox="0 0 242 114" fill="none" xmlns="http://www.w3.org/2000/svg">
<g clip-path="url(#clip0_205_5860)">
<rect width="242" height="114" fill="#5429A1"/>
<mask id="mask0_205_5860" style="mask-type:luminance" maskUnits="userSpaceOnUse" x="121" y="41" width="16" height="16">
<path d="M136.127 56.9979V41.873H121.002V56.9979H136.127Z" fill="white"/>
</mask>
<g mask="url(#mask0_205_5860)">
<path d="M140.016 37.9805L117.104 60.8918" stroke="#C0A7FF" stroke-width="10.8584" stroke-miterlimit="10"/>
</g>
<mask id="mask1_205_5860" style="mask-type:luminance" maskUnits="userSpaceOnUse" x="136" y="26" width="16" height="16">
<path d="M151.248 26.748H136.123V41.8729H151.248V26.748Z" fill="white"/>
</mask>
<g mask="url(#mask1_205_5860)">
<path d="M155.139 22.8555L132.227 45.7668" stroke="#C0A7FF" stroke-width="9.61834" stroke-miterlimit="10"/>
</g>
<mask id="mask2_205_5860" style="mask-type:luminance" maskUnits="userSpaceOnUse" x="121" y="26" width="16" height="16">
<path d="M136.125 26.748H121V41.8729H136.125V26.748Z" fill="white"/>
</mask>
<g mask="url(#mask2_205_5860)">
<path d="M140.016 22.8555L117.104 45.7668" stroke="#C0A7FF" stroke-width="9.61834" stroke-miterlimit="10"/>
</g>
<mask id="mask3_205_5860" style="mask-type:luminance" maskUnits="userSpaceOnUse" x="151" y="11" width="16" height="16">
<path d="M166.373 11.625H151.248V26.7499H166.373V11.625Z" fill="white"/>
</mask>
<g mask="url(#mask3_205_5860)">
<path d="M170.264 7.73242L147.352 30.6438" stroke="#C0A7FF" stroke-width="8.37614" stroke-miterlimit="10"/>
</g>
<mask id="mask4_205_5860" style="mask-type:luminance" maskUnits="userSpaceOnUse" x="166" y="-4" width="16" height="16">
<path d="M181.498 -3.5H166.373V11.6249H181.498V-3.5Z" fill="white"/>
</mask>
<g mask="url(#mask4_205_5860)">
<path d="M185.389 -7.39258L162.477 15.5188" stroke="#C0A7FF" stroke-width="7.13612" stroke-miterlimit="10"/>
</g>
<mask id="mask5_205_5860" style="mask-type:luminance" maskUnits="userSpaceOnUse" x="136" y="11" width="16" height="16">
<path d="M151.248 11.625H136.123V26.7499H151.248V11.625Z" fill="white"/>
</mask>
<g mask="url(#mask5_205_5860)">
<path d="M155.139 7.73242L132.227 30.6438" stroke="#C0A7FF" stroke-width="8.37614" stroke-miterlimit="10"/>
</g>
<mask id="mask6_205_5860" style="mask-type:luminance" maskUnits="userSpaceOnUse" x="151" y="-4" width="16" height="16">
<path d="M166.373 -3.5H151.248V11.6249H166.373V-3.5Z" fill="white"/>
</mask>
<g mask="url(#mask6_205_5860)">
<path d="M170.264 -7.39258L147.352 15.5188" stroke="#C0A7FF" stroke-width="7.13612" stroke-miterlimit="10"/>
</g>
<mask id="mask7_205_5860" style="mask-type:luminance" maskUnits="userSpaceOnUse" x="121" y="11" width="16" height="16">
<path d="M136.125 11.625H121V26.7499H136.125V11.625Z" fill="white"/>
</mask>
<g mask="url(#mask7_205_5860)">
<path d="M140.016 7.73242L117.104 30.6438" stroke="#C0A7FF" stroke-width="8.37614" stroke-miterlimit="10"/>
</g>
<mask id="mask8_205_5860" style="mask-type:luminance" maskUnits="userSpaceOnUse" x="136" y="-4" width="16" height="16">
<path d="M151.248 -3.5H136.123V11.6249H151.248V-3.5Z" fill="white"/>
</mask>
<g mask="url(#mask8_205_5860)">
<path d="M155.139 -7.39258L132.227 15.5188" stroke="#C0A7FF" stroke-width="7.13612" stroke-miterlimit="10"/>
</g>
<mask id="mask9_205_5860" style="mask-type:luminance" maskUnits="userSpaceOnUse" x="121" y="-4" width="16" height="16">
<path d="M136.125 -3.5H121V11.6249H136.125V-3.5Z" fill="white"/>
</mask>
<g mask="url(#mask9_205_5860)">
<path d="M140.016 -7.39258L117.104 15.5188" stroke="#C0A7FF" stroke-width="7.13612" stroke-miterlimit="10"/>
</g>
<mask id="mask10_205_5860" style="mask-type:luminance" maskUnits="userSpaceOnUse" x="136" y="41" width="16" height="16">
<path d="M151.248 41.873H136.123V56.9979H151.248V41.873Z" fill="white"/>
</mask>
<g mask="url(#mask10_205_5860)">
<path d="M155.139 37.9805L132.227 60.8918" stroke="#C0A7FF" stroke-width="9.61834" stroke-miterlimit="10"/>
</g>
<mask id="mask11_205_5860" style="mask-type:luminance" maskUnits="userSpaceOnUse" x="151" y="26" width="16" height="16">
<path d="M166.373 26.748H151.248V41.8729H166.373V26.748Z" fill="white"/>
</mask>
<g mask="url(#mask11_205_5860)">
<path d="M170.264 22.8555L147.352 45.7668" stroke="#C0A7FF" stroke-width="8.37614" stroke-miterlimit="10"/>
</g>
<mask id="mask12_205_5860" style="mask-type:luminance" maskUnits="userSpaceOnUse" x="166" y="11" width="16" height="16">
<path d="M181.498 11.625H166.373V26.7499H181.498V11.625Z" fill="white"/>
</mask>
<g mask="url(#mask12_205_5860)">
<path d="M185.389 7.73242L162.477 30.6438" stroke="#C0A7FF" stroke-width="7.13612" stroke-miterlimit="10"/>
</g>
<mask id="mask13_205_5860" style="mask-type:luminance" maskUnits="userSpaceOnUse" x="181" y="-4" width="16" height="16">
<path d="M196.623 -3.5H181.498V11.6249H196.623V-3.5Z" fill="white"/>
</mask>
<g mask="url(#mask13_205_5860)">
<path d="M200.514 -7.39258L177.602 15.5188" stroke="#C0A7FF" stroke-width="5.89392" stroke-miterlimit="10"/>
</g>
<mask id="mask14_205_5860" style="mask-type:luminance" maskUnits="userSpaceOnUse" x="151" y="41" width="16" height="16">
<path d="M166.373 41.873H151.248V56.9979H166.373V41.873Z" fill="white"/>
</mask>
<g mask="url(#mask14_205_5860)">
<path d="M170.264 37.9805L147.352 60.8918" stroke="#C0A7FF" stroke-width="8.37614" stroke-miterlimit="10"/>
</g>
<mask id="mask15_205_5860" style="mask-type:luminance" maskUnits="userSpaceOnUse" x="166" y="26" width="16" height="16">
<path d="M181.498 26.748H166.373V41.8729H181.498V26.748Z" fill="white"/>
</mask>
<g mask="url(#mask15_205_5860)">
<path d="M185.389 22.8555L162.477 45.7668" stroke="#C0A7FF" stroke-width="7.13612" stroke-miterlimit="10"/>
</g>
<mask id="mask16_205_5860" style="mask-type:luminance" maskUnits="userSpaceOnUse" x="181" y="11" width="16" height="16">
<path d="M196.623 11.625H181.498V26.7499H196.623V11.625Z" fill="white"/>
</mask>
<g mask="url(#mask16_205_5860)">
<path d="M200.514 7.73242L177.602 30.6438" stroke="#C0A7FF" stroke-width="5.89392" stroke-miterlimit="10"/>
</g>
<mask id="mask17_205_5860" style="mask-type:luminance" maskUnits="userSpaceOnUse" x="196" y="-4" width="16" height="16">
<path d="M211.748 -3.5H196.623V11.6249H211.748V-3.5Z" fill="white"/>
</mask>
<g mask="url(#mask17_205_5860)">
<path d="M215.639 -7.39258L192.727 15.5188" stroke="#C0A7FF" stroke-width="4.6539" stroke-miterlimit="10"/>
</g>
<mask id="mask18_205_5860" style="mask-type:luminance" maskUnits="userSpaceOnUse" x="166" y="41" width="16" height="16">
<path d="M181.498 41.873H166.373V56.9979H181.498V41.873Z" fill="white"/>
</mask>
<g mask="url(#mask18_205_5860)">
<path d="M185.389 37.9805L162.477 60.8918" stroke="#C0A7FF" stroke-width="7.13612" stroke-miterlimit="10"/>
</g>
<mask id="mask19_205_5860" style="mask-type:luminance" maskUnits="userSpaceOnUse" x="181" y="26" width="16" height="16">
<path d="M196.623 26.748H181.498V41.8729H196.623V26.748Z" fill="white"/>
</mask>
<g mask="url(#mask19_205_5860)">
<path d="M200.514 22.8555L177.602 45.7668" stroke="#C0A7FF" stroke-width="5.89392" stroke-miterlimit="10"/>
</g>
<mask id="mask20_205_5860" style="mask-type:luminance" maskUnits="userSpaceOnUse" x="196" y="11" width="16" height="16">
<path d="M211.748 11.625H196.623V26.7499H211.748V11.625Z" fill="white"/>
</mask>
<g mask="url(#mask20_205_5860)">
<path d="M215.639 7.73242L192.727 30.6438" stroke="#C0A7FF" stroke-width="4.6539" stroke-miterlimit="10"/>
</g>
<mask id="mask21_205_5860" style="mask-type:luminance" maskUnits="userSpaceOnUse" x="211" y="-4" width="16" height="16">
<path d="M226.873 -3.5H211.748V11.6249H226.873V-3.5Z" fill="white"/>
</mask>
<g mask="url(#mask21_205_5860)">
<path d="M230.764 -7.39258L207.852 15.5188" stroke="#C0A7FF" stroke-width="3.4117" stroke-miterlimit="10"/>
</g>
<mask id="mask22_205_5860" style="mask-type:luminance" maskUnits="userSpaceOnUse" x="181" y="41" width="16" height="16">
<path d="M196.623 41.873H181.498V56.9979H196.623V41.873Z" fill="white"/>
</mask>
<g mask="url(#mask22_205_5860)">
<path d="M200.514 37.9805L177.602 60.8918" stroke="#C0A7FF" stroke-width="5.89392" stroke-miterlimit="10"/>
</g>
<mask id="mask23_205_5860" style="mask-type:luminance" maskUnits="userSpaceOnUse" x="196" y="26" width="16" height="16">
<path d="M211.748 26.748H196.623V41.8729H211.748V26.748Z" fill="white"/>
</mask>
<g mask="url(#mask23_205_5860)">
<path d="M215.639 22.8555L192.727 45.7668" stroke="#C0A7FF" stroke-width="4.6539" stroke-miterlimit="10"/>
</g>
<mask id="mask24_205_5860" style="mask-type:luminance" maskUnits="userSpaceOnUse" x="211" y="11" width="16" height="16">
<path d="M226.873 11.625H211.748V26.7499H226.873V11.625Z" fill="white"/>
</mask>
<g mask="url(#mask24_205_5860)">
<path d="M230.764 7.73242L207.852 30.6438" stroke="#C0A7FF" stroke-width="3.4117" stroke-miterlimit="10"/>
</g>
<mask id="mask25_205_5860" style="mask-type:luminance" maskUnits="userSpaceOnUse" x="226" y="-4" width="16" height="16">
<path d="M226.875 11.627L242 11.627V-3.4979L226.875 -3.4979V11.627Z" fill="white"/>
</mask>
<g mask="url(#mask25_205_5860)">
<path d="M245.891 -7.39258L222.979 15.5188" stroke="#C0A7FF" stroke-width="2.17167" stroke-miterlimit="10"/>
</g>
<mask id="mask26_205_5860" style="mask-type:luminance" maskUnits="userSpaceOnUse" x="196" y="41" width="16" height="16">
<path d="M211.748 41.873H196.623V56.9979H211.748V41.873Z" fill="white"/>
</mask>
<g mask="url(#mask26_205_5860)">
<path d="M215.639 37.9805L192.727 60.8918" stroke="#C0A7FF" stroke-width="4.6539" stroke-miterlimit="10"/>
</g>
<mask id="mask27_205_5860" style="mask-type:luminance" maskUnits="userSpaceOnUse" x="211" y="26" width="16" height="16">
<path d="M226.873 26.748H211.748V41.8729H226.873V26.748Z" fill="white"/>
</mask>
<g mask="url(#mask27_205_5860)">
<path d="M230.764 22.8555L207.852 45.7668" stroke="#C0A7FF" stroke-width="3.4117" stroke-miterlimit="10"/>
</g>
<mask id="mask28_205_5860" style="mask-type:luminance" maskUnits="userSpaceOnUse" x="226" y="11" width="16" height="16">
<path d="M226.875 26.752L242 26.752V11.6271L226.875 11.6271V26.752Z" fill="white"/>
</mask>
<g mask="url(#mask28_205_5860)">
<path d="M245.891 7.73438L222.979 30.6457" stroke="#C0A7FF" stroke-width="2.17167" stroke-miterlimit="10"/>
</g>
<mask id="mask29_205_5860" style="mask-type:luminance" maskUnits="userSpaceOnUse" x="211" y="41" width="16" height="16">
<path d="M226.873 41.873H211.748V56.9979H226.873V41.873Z" fill="white"/>
</mask>
<g mask="url(#mask29_205_5860)">
<path d="M230.764 37.9805L207.852 60.8918" stroke="#C0A7FF" stroke-width="3.4117" stroke-miterlimit="10"/>
</g>
<mask id="mask30_205_5860" style="mask-type:luminance" maskUnits="userSpaceOnUse" x="226" y="26" width="16" height="16">
<path d="M226.875 41.877H242V26.7521H226.875V41.877Z" fill="white"/>
</mask>
<g mask="url(#mask30_205_5860)">
<path d="M245.891 22.8574L222.979 45.7688" stroke="#C0A7FF" stroke-width="2.17167" stroke-miterlimit="10"/>
</g>
<mask id="mask31_205_5860" style="mask-type:luminance" maskUnits="userSpaceOnUse" x="226" y="41" width="16" height="17">
<path d="M226.875 57.002H242V41.8771H226.875V57.002Z" fill="white"/>
</mask>
<g mask="url(#mask31_205_5860)">
<path d="M245.891 37.9824L222.979 60.8938" stroke="#C0A7FF" stroke-width="2.17167" stroke-miterlimit="10"/>
</g>
<mask id="mask32_205_5860" style="mask-type:luminance" maskUnits="userSpaceOnUse" x="105" y="41" width="16" height="16">
<path d="M121 56.9979V41.873H105.875V56.9979H121Z" fill="white"/>
</mask>
<g mask="url(#mask32_205_5860)">
<path d="M101.979 37.9805L124.891 60.8918" stroke="#C0A7FF" stroke-width="10.8584" stroke-miterlimit="10"/>
</g>
<mask id="mask33_205_5860" style="mask-type:luminance" maskUnits="userSpaceOnUse" x="90" y="26" width="16" height="16">
<path d="M105.875 26.748H90.75V41.8729H105.875V26.748Z" fill="white"/>
</mask>
<g mask="url(#mask33_205_5860)">
<path d="M86.8545 22.8555L109.766 45.7668" stroke="#C0A7FF" stroke-width="9.61834" stroke-miterlimit="10"/>
</g>
<mask id="mask34_205_5860" style="mask-type:luminance" maskUnits="userSpaceOnUse" x="105" y="26" width="16" height="16">
<path d="M121 26.748H105.875V41.8729H121V26.748Z" fill="white"/>
</mask>
<g mask="url(#mask34_205_5860)">
<path d="M101.979 22.8555L124.891 45.7668" stroke="#C0A7FF" stroke-width="9.61834" stroke-miterlimit="10"/>
</g>
<mask id="mask35_205_5860" style="mask-type:luminance" maskUnits="userSpaceOnUse" x="75" y="11" width="16" height="16">
<path d="M90.7499 11.625H75.625V26.7499H90.7499V11.625Z" fill="white"/>
</mask>
<g mask="url(#mask35_205_5860)">
<path d="M71.7295 7.73242L94.641 30.6438" stroke="#C0A7FF" stroke-width="8.37614" stroke-miterlimit="10"/>
</g>
<mask id="mask36_205_5860" style="mask-type:luminance" maskUnits="userSpaceOnUse" x="60" y="-4" width="16" height="16">
<path d="M75.6249 -3.5H60.5V11.6249H75.6249V-3.5Z" fill="white"/>
</mask>
<g mask="url(#mask36_205_5860)">
<path d="M56.6045 -7.39258L79.516 15.5188" stroke="#C0A7FF" stroke-width="7.13612" stroke-miterlimit="10"/>
</g>
<mask id="mask37_205_5860" style="mask-type:luminance" maskUnits="userSpaceOnUse" x="90" y="11" width="16" height="16">
<path d="M105.875 11.625H90.75V26.7499H105.875V11.625Z" fill="white"/>
</mask>
<g mask="url(#mask37_205_5860)">
<path d="M86.8545 7.73242L109.766 30.6438" stroke="#C0A7FF" stroke-width="8.37614" stroke-miterlimit="10"/>
</g>
<mask id="mask38_205_5860" style="mask-type:luminance" maskUnits="userSpaceOnUse" x="75" y="-4" width="16" height="16">
<path d="M90.7499 -3.5H75.625V11.6249H90.7499V-3.5Z" fill="white"/>
</mask>
<g mask="url(#mask38_205_5860)">
<path d="M71.7295 -7.39258L94.641 15.5188" stroke="#C0A7FF" stroke-width="7.13612" stroke-miterlimit="10"/>
</g>
<mask id="mask39_205_5860" style="mask-type:luminance" maskUnits="userSpaceOnUse" x="105" y="11" width="16" height="16">
<path d="M121 11.625H105.875V26.7499H121V11.625Z" fill="white"/>
</mask>
<g mask="url(#mask39_205_5860)">
<path d="M101.979 7.73242L124.891 30.6438" stroke="#C0A7FF" stroke-width="8.37614" stroke-miterlimit="10"/>
</g>
<mask id="mask40_205_5860" style="mask-type:luminance" maskUnits="userSpaceOnUse" x="90" y="-4" width="16" height="16">
<path d="M105.875 -3.5H90.75V11.6249H105.875V-3.5Z" fill="white"/>
</mask>
<g mask="url(#mask40_205_5860)">
<path d="M86.8545 -7.39258L109.766 15.5188" stroke="#C0A7FF" stroke-width="7.13612" stroke-miterlimit="10"/>
</g>
<mask id="mask41_205_5860" style="mask-type:luminance" maskUnits="userSpaceOnUse" x="105" y="-4" width="16" height="16">
<path d="M121 -3.5H105.875V11.6249H121V-3.5Z" fill="white"/>
</mask>
<g mask="url(#mask41_205_5860)">
<path d="M101.979 -7.39258L124.891 15.5188" stroke="#C0A7FF" stroke-width="7.13612" stroke-miterlimit="10"/>
</g>
<mask id="mask42_205_5860" style="mask-type:luminance" maskUnits="userSpaceOnUse" x="90" y="41" width="16" height="16">
<path d="M105.875 41.873H90.75V56.9979H105.875V41.873Z" fill="white"/>
</mask>
<g mask="url(#mask42_205_5860)">
<path d="M86.8545 37.9805L109.766 60.8918" stroke="#C0A7FF" stroke-width="9.61834" stroke-miterlimit="10"/>
</g>
<mask id="mask43_205_5860" style="mask-type:luminance" maskUnits="userSpaceOnUse" x="75" y="26" width="16" height="16">
<path d="M90.7499 26.748H75.625V41.8729H90.7499V26.748Z" fill="white"/>
</mask>
<g mask="url(#mask43_205_5860)">
<path d="M71.7295 22.8555L94.641 45.7668" stroke="#C0A7FF" stroke-width="8.37614" stroke-miterlimit="10"/>
</g>
<mask id="mask44_205_5860" style="mask-type:luminance" maskUnits="userSpaceOnUse" x="60" y="11" width="16" height="16">
<path d="M75.6249 11.625H60.5V26.7499H75.6249V11.625Z" fill="white"/>
</mask>
<g mask="url(#mask44_205_5860)">
<path d="M56.6045 7.73242L79.516 30.6438" stroke="#C0A7FF" stroke-width="7.13612" stroke-miterlimit="10"/>
</g>
<mask id="mask45_205_5860" style="mask-type:luminance" maskUnits="userSpaceOnUse" x="45" y="-4" width="16" height="16">
<path d="M60.4999 -3.5H45.375V11.6249H60.4999V-3.5Z" fill="white"/>
</mask>
<g mask="url(#mask45_205_5860)">
<path d="M41.4795 -7.39258L64.391 15.5188" stroke="#C0A7FF" stroke-width="5.89392" stroke-miterlimit="10"/>
</g>
<mask id="mask46_205_5860" style="mask-type:luminance" maskUnits="userSpaceOnUse" x="75" y="41" width="16" height="16">
<path d="M90.7499 41.873H75.625V56.9979H90.7499V41.873Z" fill="white"/>
</mask>
<g mask="url(#mask46_205_5860)">
<path d="M71.7295 37.9805L94.641 60.8918" stroke="#C0A7FF" stroke-width="8.37614" stroke-miterlimit="10"/>
</g>
<mask id="mask47_205_5860" style="mask-type:luminance" maskUnits="userSpaceOnUse" x="60" y="26" width="16" height="16">
<path d="M75.6249 26.748H60.5V41.8729H75.6249V26.748Z" fill="white"/>
</mask>
<g mask="url(#mask47_205_5860)">
<path d="M56.6045 22.8555L79.516 45.7668" stroke="#C0A7FF" stroke-width="7.13612" stroke-miterlimit="10"/>
</g>
<mask id="mask48_205_5860" style="mask-type:luminance" maskUnits="userSpaceOnUse" x="45" y="11" width="16" height="16">
<path d="M60.4999 11.625H45.375V26.7499H60.4999V11.625Z" fill="white"/>
</mask>
<g mask="url(#mask48_205_5860)">
<path d="M41.4795 7.73242L64.391 30.6438" stroke="#C0A7FF" stroke-width="5.89392" stroke-miterlimit="10"/>
</g>
<mask id="mask49_205_5860" style="mask-type:luminance" maskUnits="userSpaceOnUse" x="30" y="-4" width="16" height="16">
<path d="M45.3749 -3.5H30.25V11.6249H45.3749V-3.5Z" fill="white"/>
</mask>
<g mask="url(#mask49_205_5860)">
<path d="M26.3545 -7.39258L49.266 15.5188" stroke="#C0A7FF" stroke-width="4.6539" stroke-miterlimit="10"/>
</g>
<mask id="mask50_205_5860" style="mask-type:luminance" maskUnits="userSpaceOnUse" x="60" y="41" width="16" height="16">
<path d="M75.6249 41.873H60.5V56.9979H75.6249V41.873Z" fill="white"/>
</mask>
<g mask="url(#mask50_205_5860)">
<path d="M56.6045 37.9805L79.516 60.8918" stroke="#C0A7FF" stroke-width="7.13612" stroke-miterlimit="10"/>
</g>
<mask id="mask51_205_5860" style="mask-type:luminance" maskUnits="userSpaceOnUse" x="45" y="26" width="16" height="16">
<path d="M60.4999 26.748H45.375V41.8729H60.4999V26.748Z" fill="white"/>
</mask>
<g mask="url(#mask51_205_5860)">
<path d="M41.4795 22.8555L64.391 45.7668" stroke="#C0A7FF" stroke-width="5.89392" stroke-miterlimit="10"/>
</g>
<mask id="mask52_205_5860" style="mask-type:luminance" maskUnits="userSpaceOnUse" x="30" y="11" width="16" height="16">
<path d="M45.3749 11.625H30.25V26.7499H45.3749V11.625Z" fill="white"/>
</mask>
<g mask="url(#mask52_205_5860)">
<path d="M26.3545 7.73242L49.266 30.6438" stroke="#C0A7FF" stroke-width="4.6539" stroke-miterlimit="10"/>
</g>
<mask id="mask53_205_5860" style="mask-type:luminance" maskUnits="userSpaceOnUse" x="15" y="-4" width="16" height="16">
<path d="M30.2499 -3.5H15.125V11.6249H30.2499V-3.5Z" fill="white"/>
</mask>
<g mask="url(#mask53_205_5860)">
<path d="M11.2295 -7.39258L34.141 15.5188" stroke="#C0A7FF" stroke-width="3.4117" stroke-miterlimit="10"/>
</g>
<mask id="mask54_205_5860" style="mask-type:luminance" maskUnits="userSpaceOnUse" x="45" y="41" width="16" height="16">
<path d="M60.4999 41.873H45.375V56.9979H60.4999V41.873Z" fill="white"/>
</mask>
<g mask="url(#mask54_205_5860)">
<path d="M41.4795 37.9805L64.391 60.8918" stroke="#C0A7FF" stroke-width="5.89392" stroke-miterlimit="10"/>
</g>
<mask id="mask55_205_5860" style="mask-type:luminance" maskUnits="userSpaceOnUse" x="30" y="26" width="16" height="16">
<path d="M45.3749 26.748H30.25V41.8729H45.3749V26.748Z" fill="white"/>
</mask>
<g mask="url(#mask55_205_5860)">
<path d="M26.3545 22.8555L49.266 45.7668" stroke="#C0A7FF" stroke-width="4.6539" stroke-miterlimit="10"/>
</g>
<mask id="mask56_205_5860" style="mask-type:luminance" maskUnits="userSpaceOnUse" x="15" y="11" width="16" height="16">
<path d="M30.2499 11.625H15.125V26.7499H30.2499V11.625Z" fill="white"/>
</mask>
<g mask="url(#mask56_205_5860)">
<path d="M11.2295 7.73242L34.141 30.6438" stroke="#C0A7FF" stroke-width="3.4117" stroke-miterlimit="10"/>
</g>
<mask id="mask57_205_5860" style="mask-type:luminance" maskUnits="userSpaceOnUse" x="0" y="-4" width="16" height="16">
<path d="M15.1249 -3.5H0V11.6249H15.1249V-3.5Z" fill="white"/>
</mask>
<g mask="url(#mask57_205_5860)">
<path d="M-3.89551 -7.39258L19.016 15.5188" stroke="#C0A7FF" stroke-width="2.17167" stroke-miterlimit="10"/>
</g>
<mask id="mask58_205_5860" style="mask-type:luminance" maskUnits="userSpaceOnUse" x="30" y="41" width="16" height="16">
<path d="M45.3749 41.873H30.25V56.9979H45.3749V41.873Z" fill="white"/>
</mask>
<g mask="url(#mask58_205_5860)">
<path d="M26.3545 37.9805L49.266 60.8918" stroke="#C0A7FF" stroke-width="4.6539" stroke-miterlimit="10"/>
</g>
<mask id="mask59_205_5860" style="mask-type:luminance" maskUnits="userSpaceOnUse" x="15" y="26" width="16" height="16">
<path d="M30.2499 26.748H15.125V41.8729H30.2499V26.748Z" fill="white"/>
</mask>
<g mask="url(#mask59_205_5860)">
<path d="M11.2295 22.8555L34.141 45.7668" stroke="#C0A7FF" stroke-width="3.4117" stroke-miterlimit="10"/>
</g>
<mask id="mask60_205_5860" style="mask-type:luminance" maskUnits="userSpaceOnUse" x="0" y="11" width="16" height="16">
<path d="M15.1249 11.625H0V26.7499H15.1249V11.625Z" fill="white"/>
</mask>
<g mask="url(#mask60_205_5860)">
<path d="M-3.89551 7.73242L19.016 30.6438" stroke="#C0A7FF" stroke-width="2.17167" stroke-miterlimit="10"/>
</g>
<mask id="mask61_205_5860" style="mask-type:luminance" maskUnits="userSpaceOnUse" x="15" y="41" width="16" height="16">
<path d="M30.2499 41.873H15.125V56.9979H30.2499V41.873Z" fill="white"/>
</mask>
<g mask="url(#mask61_205_5860)">
<path d="M11.2295 37.9805L34.141 60.8918" stroke="#C0A7FF" stroke-width="3.4117" stroke-miterlimit="10"/>
</g>
<mask id="mask62_205_5860" style="mask-type:luminance" maskUnits="userSpaceOnUse" x="0" y="26" width="16" height="16">
<path d="M15.1249 26.748H0V41.8729H15.1249V26.748Z" fill="white"/>
</mask>
<g mask="url(#mask62_205_5860)">
<path d="M-3.89551 22.8555L19.016 45.7668" stroke="#C0A7FF" stroke-width="2.17167" stroke-miterlimit="10"/>
</g>
<mask id="mask63_205_5860" style="mask-type:luminance" maskUnits="userSpaceOnUse" x="0" y="41" width="16" height="16">
<path d="M15.1249 41.873H0V56.9979H15.1249V41.873Z" fill="white"/>
</mask>
<g mask="url(#mask63_205_5860)">
<path d="M-3.89551 37.9805L19.016 60.8918" stroke="#C0A7FF" stroke-width="2.17167" stroke-miterlimit="10"/>
</g>
<mask id="mask64_205_5860" style="mask-type:luminance" maskUnits="userSpaceOnUse" x="105" y="57" width="16" height="16">
<path d="M105.875 57.0001V72.125H121V57.0001H105.875Z" fill="white"/>
</mask>
<g mask="url(#mask64_205_5860)">
<path d="M101.979 76.0168L124.891 53.1055" stroke="#C0A7FF" stroke-width="10.8584" stroke-miterlimit="10"/>
</g>
<mask id="mask65_205_5860" style="mask-type:luminance" maskUnits="userSpaceOnUse" x="90" y="72" width="16" height="16">
<path d="M105.875 72.123H90.75V87.2479H105.875V72.123Z" fill="white"/>
</mask>
<g mask="url(#mask65_205_5860)">
<path d="M86.8545 91.1418L109.766 68.2305" stroke="#C0A7FF" stroke-width="9.61834" stroke-miterlimit="10"/>
</g>
<mask id="mask66_205_5860" style="mask-type:luminance" maskUnits="userSpaceOnUse" x="105" y="72" width="16" height="16">
<path d="M121 72.123H105.875V87.2479H121V72.123Z" fill="white"/>
</mask>
<g mask="url(#mask66_205_5860)">
<path d="M101.979 91.1418L124.891 68.2305" stroke="#C0A7FF" stroke-width="9.61834" stroke-miterlimit="10"/>
</g>
<mask id="mask67_205_5860" style="mask-type:luminance" maskUnits="userSpaceOnUse" x="75" y="87" width="16" height="16">
<path d="M90.7499 87.248H75.625V102.373H90.7499V87.248Z" fill="white"/>
</mask>
<g mask="url(#mask67_205_5860)">
<path d="M71.7295 106.267L94.641 83.3555" stroke="#C0A7FF" stroke-width="8.37614" stroke-miterlimit="10"/>
</g>
<mask id="mask68_205_5860" style="mask-type:luminance" maskUnits="userSpaceOnUse" x="60" y="102" width="16" height="16">
<path d="M75.6249 102.373H60.5V117.498H75.6249V102.373Z" fill="white"/>
</mask>
<g mask="url(#mask68_205_5860)">
<path d="M56.6045 121.392L79.516 98.4805" stroke="#C0A7FF" stroke-width="7.13612" stroke-miterlimit="10"/>
</g>
<mask id="mask69_205_5860" style="mask-type:luminance" maskUnits="userSpaceOnUse" x="90" y="87" width="16" height="16">
<path d="M105.875 87.248H90.75V102.373H105.875V87.248Z" fill="white"/>
</mask>
<g mask="url(#mask69_205_5860)">
<path d="M86.8545 106.267L109.766 83.3555" stroke="#C0A7FF" stroke-width="8.37614" stroke-miterlimit="10"/>
</g>
<mask id="mask70_205_5860" style="mask-type:luminance" maskUnits="userSpaceOnUse" x="75" y="102" width="16" height="16">
<path d="M90.7499 102.373H75.625V117.498H90.7499V102.373Z" fill="white"/>
</mask>
<g mask="url(#mask70_205_5860)">
<path d="M71.7295 121.392L94.641 98.4805" stroke="#C0A7FF" stroke-width="7.13612" stroke-miterlimit="10"/>
</g>
<mask id="mask71_205_5860" style="mask-type:luminance" maskUnits="userSpaceOnUse" x="105" y="87" width="16" height="16">
<path d="M121 87.248H105.875V102.373H121V87.248Z" fill="white"/>
</mask>
<g mask="url(#mask71_205_5860)">
<path d="M101.979 106.267L124.891 83.3555" stroke="#C0A7FF" stroke-width="8.37614" stroke-miterlimit="10"/>
</g>
<mask id="mask72_205_5860" style="mask-type:luminance" maskUnits="userSpaceOnUse" x="90" y="102" width="16" height="16">
<path d="M105.875 102.373H90.75V117.498H105.875V102.373Z" fill="white"/>
</mask>
<g mask="url(#mask72_205_5860)">
<path d="M86.8545 121.392L109.766 98.4805" stroke="#C0A7FF" stroke-width="7.13612" stroke-miterlimit="10"/>
</g>
<mask id="mask73_205_5860" style="mask-type:luminance" maskUnits="userSpaceOnUse" x="105" y="102" width="16" height="16">
<path d="M121 102.373H105.875V117.498H121V102.373Z" fill="white"/>
</mask>
<g mask="url(#mask73_205_5860)">
<path d="M101.979 121.392L124.891 98.4805" stroke="#C0A7FF" stroke-width="7.13612" stroke-miterlimit="10"/>
</g>
<mask id="mask74_205_5860" style="mask-type:luminance" maskUnits="userSpaceOnUse" x="90" y="56" width="16" height="17">
<path d="M105.875 56.998H90.75V72.1229H105.875V56.998Z" fill="white"/>
</mask>
<g mask="url(#mask74_205_5860)">
<path d="M86.8545 76.0168L109.766 53.1055" stroke="#C0A7FF" stroke-width="9.61834" stroke-miterlimit="10"/>
</g>
<mask id="mask75_205_5860" style="mask-type:luminance" maskUnits="userSpaceOnUse" x="75" y="72" width="16" height="16">
<path d="M90.7499 72.123H75.625V87.2479H90.7499V72.123Z" fill="white"/>
</mask>
<g mask="url(#mask75_205_5860)">
<path d="M71.7295 91.1418L94.641 68.2305" stroke="#C0A7FF" stroke-width="8.37614" stroke-miterlimit="10"/>
</g>
<mask id="mask76_205_5860" style="mask-type:luminance" maskUnits="userSpaceOnUse" x="60" y="87" width="16" height="16">
<path d="M75.6249 87.248H60.5V102.373H75.6249V87.248Z" fill="white"/>
</mask>
<g mask="url(#mask76_205_5860)">
<path d="M56.6045 106.267L79.516 83.3555" stroke="#C0A7FF" stroke-width="7.13612" stroke-miterlimit="10"/>
</g>
<mask id="mask77_205_5860" style="mask-type:luminance" maskUnits="userSpaceOnUse" x="45" y="102" width="16" height="16">
<path d="M60.4999 102.373H45.375V117.498H60.4999V102.373Z" fill="white"/>
</mask>
<g mask="url(#mask77_205_5860)">
<path d="M41.4795 121.392L64.391 98.4805" stroke="#C0A7FF" stroke-width="5.89392" stroke-miterlimit="10"/>
</g>
<mask id="mask78_205_5860" style="mask-type:luminance" maskUnits="userSpaceOnUse" x="75" y="56" width="16" height="17">
<path d="M90.7499 56.998H75.625V72.1229H90.7499V56.998Z" fill="white"/>
</mask>
<g mask="url(#mask78_205_5860)">
<path d="M71.7295 76.0168L94.641 53.1055" stroke="#C0A7FF" stroke-width="8.37614" stroke-miterlimit="10"/>
</g>
<mask id="mask79_205_5860" style="mask-type:luminance" maskUnits="userSpaceOnUse" x="60" y="72" width="16" height="16">
<path d="M75.6249 72.123H60.5V87.2479H75.6249V72.123Z" fill="white"/>
</mask>
<g mask="url(#mask79_205_5860)">
<path d="M56.6045 91.1418L79.516 68.2305" stroke="#C0A7FF" stroke-width="7.13612" stroke-miterlimit="10"/>
</g>
<mask id="mask80_205_5860" style="mask-type:luminance" maskUnits="userSpaceOnUse" x="45" y="87" width="16" height="16">
<path d="M60.4999 87.248H45.375V102.373H60.4999V87.248Z" fill="white"/>
</mask>
<g mask="url(#mask80_205_5860)">
<path d="M41.4795 106.267L64.391 83.3555" stroke="#C0A7FF" stroke-width="5.89392" stroke-miterlimit="10"/>
</g>
<mask id="mask81_205_5860" style="mask-type:luminance" maskUnits="userSpaceOnUse" x="30" y="102" width="16" height="16">
<path d="M45.3749 102.373H30.25V117.498H45.3749V102.373Z" fill="white"/>
</mask>
<g mask="url(#mask81_205_5860)">
<path d="M26.3545 121.392L49.266 98.4805" stroke="#C0A7FF" stroke-width="4.6539" stroke-miterlimit="10"/>
</g>
<mask id="mask82_205_5860" style="mask-type:luminance" maskUnits="userSpaceOnUse" x="60" y="56" width="16" height="17">
<path d="M75.6249 56.998H60.5V72.1229H75.6249V56.998Z" fill="white"/>
</mask>
<g mask="url(#mask82_205_5860)">
<path d="M56.6045 76.0168L79.516 53.1055" stroke="#C0A7FF" stroke-width="7.13612" stroke-miterlimit="10"/>
</g>
<mask id="mask83_205_5860" style="mask-type:luminance" maskUnits="userSpaceOnUse" x="45" y="72" width="16" height="16">
<path d="M60.4999 72.123H45.375V87.2479H60.4999V72.123Z" fill="white"/>
</mask>
<g mask="url(#mask83_205_5860)">
<path d="M41.4795 91.1418L64.391 68.2305" stroke="#C0A7FF" stroke-width="5.89392" stroke-miterlimit="10"/>
</g>
<mask id="mask84_205_5860" style="mask-type:luminance" maskUnits="userSpaceOnUse" x="30" y="87" width="16" height="16">
<path d="M45.3749 87.248H30.25V102.373H45.3749V87.248Z" fill="white"/>
</mask>
<g mask="url(#mask84_205_5860)">
<path d="M26.3545 106.267L49.266 83.3555" stroke="#C0A7FF" stroke-width="4.6539" stroke-miterlimit="10"/>
</g>
<mask id="mask85_205_5860" style="mask-type:luminance" maskUnits="userSpaceOnUse" x="15" y="102" width="16" height="16">
<path d="M30.2499 102.373H15.125V117.498H30.2499V102.373Z" fill="white"/>
</mask>
<g mask="url(#mask85_205_5860)">
<path d="M11.2295 121.392L34.141 98.4805" stroke="#C0A7FF" stroke-width="3.4117" stroke-miterlimit="10"/>
</g>
<mask id="mask86_205_5860" style="mask-type:luminance" maskUnits="userSpaceOnUse" x="45" y="56" width="16" height="17">
<path d="M60.4999 56.998H45.375V72.1229H60.4999V56.998Z" fill="white"/>
</mask>
<g mask="url(#mask86_205_5860)">
<path d="M41.4795 76.0168L64.391 53.1055" stroke="#C0A7FF" stroke-width="5.89392" stroke-miterlimit="10"/>
</g>
<mask id="mask87_205_5860" style="mask-type:luminance" maskUnits="userSpaceOnUse" x="30" y="72" width="16" height="16">
<path d="M45.3749 72.123H30.25V87.2479H45.3749V72.123Z" fill="white"/>
</mask>
<g mask="url(#mask87_205_5860)">
<path d="M26.3545 91.1418L49.266 68.2305" stroke="#C0A7FF" stroke-width="4.6539" stroke-miterlimit="10"/>
</g>
<mask id="mask88_205_5860" style="mask-type:luminance" maskUnits="userSpaceOnUse" x="15" y="87" width="16" height="16">
<path d="M30.2499 87.248H15.125V102.373H30.2499V87.248Z" fill="white"/>
</mask>
<g mask="url(#mask88_205_5860)">
<path d="M11.2295 106.267L34.141 83.3555" stroke="#C0A7FF" stroke-width="3.4117" stroke-miterlimit="10"/>
</g>
<mask id="mask89_205_5860" style="mask-type:luminance" maskUnits="userSpaceOnUse" x="0" y="102" width="16" height="16">
<path d="M15.1249 102.373H0V117.498H15.1249V102.373Z" fill="white"/>
</mask>
<g mask="url(#mask89_205_5860)">
<path d="M-3.89551 121.392L19.016 98.4805" stroke="#C0A7FF" stroke-width="2.17167" stroke-miterlimit="10"/>
</g>
<mask id="mask90_205_5860" style="mask-type:luminance" maskUnits="userSpaceOnUse" x="30" y="56" width="16" height="17">
<path d="M45.3749 56.998H30.25V72.1229H45.3749V56.998Z" fill="white"/>
</mask>
<g mask="url(#mask90_205_5860)">
<path d="M26.3545 76.0168L49.266 53.1055" stroke="#C0A7FF" stroke-width="4.6539" stroke-miterlimit="10"/>
</g>
<mask id="mask91_205_5860" style="mask-type:luminance" maskUnits="userSpaceOnUse" x="15" y="72" width="16" height="16">
<path d="M30.2499 72.123H15.125V87.2479H30.2499V72.123Z" fill="white"/>
</mask>
<g mask="url(#mask91_205_5860)">
<path d="M11.2295 91.1418L34.141 68.2305" stroke="#C0A7FF" stroke-width="3.4117" stroke-miterlimit="10"/>
</g>
<mask id="mask92_205_5860" style="mask-type:luminance" maskUnits="userSpaceOnUse" x="0" y="87" width="16" height="16">
<path d="M15.1249 87.248H0V102.373H15.1249V87.248Z" fill="white"/>
</mask>
<g mask="url(#mask92_205_5860)">
<path d="M-3.89551 106.267L19.016 83.3555" stroke="#C0A7FF" stroke-width="2.17167" stroke-miterlimit="10"/>
</g>
<mask id="mask93_205_5860" style="mask-type:luminance" maskUnits="userSpaceOnUse" x="15" y="56" width="16" height="17">
<path d="M30.2499 56.998H15.125V72.1229H30.2499V56.998Z" fill="white"/>
</mask>
<g mask="url(#mask93_205_5860)">
<path d="M11.2295 76.0168L34.141 53.1055" stroke="#C0A7FF" stroke-width="3.4117" stroke-miterlimit="10"/>
</g>
<mask id="mask94_205_5860" style="mask-type:luminance" maskUnits="userSpaceOnUse" x="0" y="72" width="16" height="16">
<path d="M15.1249 72.123H0V87.2479H15.1249V72.123Z" fill="white"/>
</mask>
<g mask="url(#mask94_205_5860)">
<path d="M-3.89551 91.1418L19.016 68.2305" stroke="#C0A7FF" stroke-width="2.17167" stroke-miterlimit="10"/>
</g>
<mask id="mask95_205_5860" style="mask-type:luminance" maskUnits="userSpaceOnUse" x="0" y="56" width="16" height="17">
<path d="M15.1249 56.998H0V72.1229H15.1249V56.998Z" fill="white"/>
</mask>
<g mask="url(#mask95_205_5860)">
<path d="M-3.89551 76.0168L19.016 53.1055" stroke="#C0A7FF" stroke-width="2.17167" stroke-miterlimit="10"/>
</g>
<mask id="mask96_205_5860" style="mask-type:luminance" maskUnits="userSpaceOnUse" x="121" y="57" width="16" height="16">
<path d="M121 57.0001V72.125H136.125V57.0001H121Z" fill="white"/>
</mask>
<g mask="url(#mask96_205_5860)">
<path d="M140.016 76.0168L117.104 53.1055" stroke="#C0A7FF" stroke-width="10.8584" stroke-miterlimit="10"/>
</g>
<mask id="mask97_205_5860" style="mask-type:luminance" maskUnits="userSpaceOnUse" x="136" y="72" width="16" height="16">
<path d="M151.248 72.123H136.123V87.2479H151.248V72.123Z" fill="white"/>
</mask>
<g mask="url(#mask97_205_5860)">
<path d="M155.139 91.1418L132.227 68.2305" stroke="#C0A7FF" stroke-width="9.61834" stroke-miterlimit="10"/>
</g>
<mask id="mask98_205_5860" style="mask-type:luminance" maskUnits="userSpaceOnUse" x="121" y="72" width="16" height="16">
<path d="M136.125 72.123H121V87.2479H136.125V72.123Z" fill="white"/>
</mask>
<g mask="url(#mask98_205_5860)">
<path d="M140.016 91.1418L117.104 68.2305" stroke="#C0A7FF" stroke-width="9.61834" stroke-miterlimit="10"/>
</g>
<mask id="mask99_205_5860" style="mask-type:luminance" maskUnits="userSpaceOnUse" x="151" y="87" width="16" height="16">
<path d="M166.373 87.248H151.248V102.373H166.373V87.248Z" fill="white"/>
</mask>
<g mask="url(#mask99_205_5860)">
<path d="M170.264 106.267L147.352 83.3555" stroke="#C0A7FF" stroke-width="8.37614" stroke-miterlimit="10"/>
</g>
<mask id="mask100_205_5860" style="mask-type:luminance" maskUnits="userSpaceOnUse" x="166" y="102" width="16" height="16">
<path d="M181.498 102.373H166.373V117.498H181.498V102.373Z" fill="white"/>
</mask>
<g mask="url(#mask100_205_5860)">
<path d="M185.389 121.392L162.477 98.4805" stroke="#C0A7FF" stroke-width="7.13612" stroke-miterlimit="10"/>
</g>
<mask id="mask101_205_5860" style="mask-type:luminance" maskUnits="userSpaceOnUse" x="136" y="87" width="16" height="16">
<path d="M151.248 87.248H136.123V102.373H151.248V87.248Z" fill="white"/>
</mask>
<g mask="url(#mask101_205_5860)">
<path d="M155.139 106.267L132.227 83.3555" stroke="#C0A7FF" stroke-width="8.37614" stroke-miterlimit="10"/>
</g>
<mask id="mask102_205_5860" style="mask-type:luminance" maskUnits="userSpaceOnUse" x="151" y="102" width="16" height="16">
<path d="M166.373 102.373H151.248V117.498H166.373V102.373Z" fill="white"/>
</mask>
<g mask="url(#mask102_205_5860)">
<path d="M170.264 121.392L147.352 98.4805" stroke="#C0A7FF" stroke-width="7.13612" stroke-miterlimit="10"/>
</g>
<mask id="mask103_205_5860" style="mask-type:luminance" maskUnits="userSpaceOnUse" x="121" y="87" width="16" height="16">
<path d="M136.125 87.248H121V102.373H136.125V87.248Z" fill="white"/>
</mask>
<g mask="url(#mask103_205_5860)">
<path d="M140.016 106.267L117.104 83.3555" stroke="#C0A7FF" stroke-width="8.37614" stroke-miterlimit="10"/>
</g>
<mask id="mask104_205_5860" style="mask-type:luminance" maskUnits="userSpaceOnUse" x="136" y="102" width="16" height="16">
<path d="M151.248 102.373H136.123V117.498H151.248V102.373Z" fill="white"/>
</mask>
<g mask="url(#mask104_205_5860)">
<path d="M155.139 121.392L132.227 98.4805" stroke="#C0A7FF" stroke-width="7.13612" stroke-miterlimit="10"/>
</g>
<mask id="mask105_205_5860" style="mask-type:luminance" maskUnits="userSpaceOnUse" x="121" y="102" width="16" height="16">
<path d="M136.125 102.373H121V117.498H136.125V102.373Z" fill="white"/>
</mask>
<g mask="url(#mask105_205_5860)">
<path d="M140.016 121.392L117.104 98.4805" stroke="#C0A7FF" stroke-width="7.13612" stroke-miterlimit="10"/>
</g>
<mask id="mask106_205_5860" style="mask-type:luminance" maskUnits="userSpaceOnUse" x="136" y="56" width="16" height="17">
<path d="M151.248 56.998H136.123V72.1229H151.248V56.998Z" fill="white"/>
</mask>
<g mask="url(#mask106_205_5860)">
<path d="M155.139 76.0168L132.227 53.1055" stroke="#C0A7FF" stroke-width="9.61834" stroke-miterlimit="10"/>
</g>
<mask id="mask107_205_5860" style="mask-type:luminance" maskUnits="userSpaceOnUse" x="151" y="72" width="16" height="16">
<path d="M166.373 72.123H151.248V87.2479H166.373V72.123Z" fill="white"/>
</mask>
<g mask="url(#mask107_205_5860)">
<path d="M170.264 91.1418L147.352 68.2305" stroke="#C0A7FF" stroke-width="8.37614" stroke-miterlimit="10"/>
</g>
<mask id="mask108_205_5860" style="mask-type:luminance" maskUnits="userSpaceOnUse" x="166" y="87" width="16" height="16">
<path d="M181.498 87.248H166.373V102.373H181.498V87.248Z" fill="white"/>
</mask>
<g mask="url(#mask108_205_5860)">
<path d="M185.389 106.267L162.477 83.3555" stroke="#C0A7FF" stroke-width="7.13612" stroke-miterlimit="10"/>
</g>
<mask id="mask109_205_5860" style="mask-type:luminance" maskUnits="userSpaceOnUse" x="181" y="102" width="16" height="16">
<path d="M196.623 102.373H181.498V117.498H196.623V102.373Z" fill="white"/>
</mask>
<g mask="url(#mask109_205_5860)">
<path d="M200.514 121.392L177.602 98.4805" stroke="#C0A7FF" stroke-width="5.89392" stroke-miterlimit="10"/>
</g>
<mask id="mask110_205_5860" style="mask-type:luminance" maskUnits="userSpaceOnUse" x="151" y="56" width="16" height="17">
<path d="M166.373 56.998H151.248V72.1229H166.373V56.998Z" fill="white"/>
</mask>
<g mask="url(#mask110_205_5860)">
<path d="M170.264 76.0168L147.352 53.1055" stroke="#C0A7FF" stroke-width="8.37614" stroke-miterlimit="10"/>
</g>
<mask id="mask111_205_5860" style="mask-type:luminance" maskUnits="userSpaceOnUse" x="166" y="72" width="16" height="16">
<path d="M181.498 72.123H166.373V87.2479H181.498V72.123Z" fill="white"/>
</mask>
<g mask="url(#mask111_205_5860)">
<path d="M185.389 91.1418L162.477 68.2305" stroke="#C0A7FF" stroke-width="7.13612" stroke-miterlimit="10"/>
</g>
<mask id="mask112_205_5860" style="mask-type:luminance" maskUnits="userSpaceOnUse" x="181" y="87" width="16" height="16">
<path d="M196.623 87.248H181.498V102.373H196.623V87.248Z" fill="white"/>
</mask>
<g mask="url(#mask112_205_5860)">
<path d="M200.514 106.267L177.602 83.3555" stroke="#C0A7FF" stroke-width="5.89392" stroke-miterlimit="10"/>
</g>
<mask id="mask113_205_5860" style="mask-type:luminance" maskUnits="userSpaceOnUse" x="196" y="102" width="16" height="16">
<path d="M211.748 102.373H196.623V117.498H211.748V102.373Z" fill="white"/>
</mask>
<g mask="url(#mask113_205_5860)">
<path d="M215.639 121.392L192.727 98.4805" stroke="#C0A7FF" stroke-width="4.6539" stroke-miterlimit="10"/>
</g>
<mask id="mask114_205_5860" style="mask-type:luminance" maskUnits="userSpaceOnUse" x="166" y="56" width="16" height="17">
<path d="M181.498 56.998H166.373V72.1229H181.498V56.998Z" fill="white"/>
</mask>
<g mask="url(#mask114_205_5860)">
<path d="M185.389 76.0168L162.477 53.1055" stroke="#C0A7FF" stroke-width="7.13612" stroke-miterlimit="10"/>
</g>
<mask id="mask115_205_5860" style="mask-type:luminance" maskUnits="userSpaceOnUse" x="181" y="72" width="16" height="16">
<path d="M196.623 72.123H181.498V87.2479H196.623V72.123Z" fill="white"/>
</mask>
<g mask="url(#mask115_205_5860)">
<path d="M200.514 91.1418L177.602 68.2305" stroke="#C0A7FF" stroke-width="5.89392" stroke-miterlimit="10"/>
</g>
<mask id="mask116_205_5860" style="mask-type:luminance" maskUnits="userSpaceOnUse" x="196" y="87" width="16" height="16">
<path d="M211.748 87.248H196.623V102.373H211.748V87.248Z" fill="white"/>
</mask>
<g mask="url(#mask116_205_5860)">
<path d="M215.639 106.267L192.727 83.3555" stroke="#C0A7FF" stroke-width="4.6539" stroke-miterlimit="10"/>
</g>
<mask id="mask117_205_5860" style="mask-type:luminance" maskUnits="userSpaceOnUse" x="211" y="102" width="16" height="16">
<path d="M226.873 102.373H211.748V117.498H226.873V102.373Z" fill="white"/>
</mask>
<g mask="url(#mask117_205_5860)">
<path d="M230.764 121.392L207.852 98.4805" stroke="#C0A7FF" stroke-width="3.4117" stroke-miterlimit="10"/>
</g>
<mask id="mask118_205_5860" style="mask-type:luminance" maskUnits="userSpaceOnUse" x="181" y="56" width="16" height="17">
<path d="M196.623 56.998H181.498V72.1229H196.623V56.998Z" fill="white"/>
</mask>
<g mask="url(#mask118_205_5860)">
<path d="M200.514 76.0168L177.602 53.1055" stroke="#C0A7FF" stroke-width="5.89392" stroke-miterlimit="10"/>
</g>
<mask id="mask119_205_5860" style="mask-type:luminance" maskUnits="userSpaceOnUse" x="196" y="72" width="16" height="16">
<path d="M211.748 72.123H196.623V87.2479H211.748V72.123Z" fill="white"/>
</mask>
<g mask="url(#mask119_205_5860)">
<path d="M215.639 91.1418L192.727 68.2305" stroke="#C0A7FF" stroke-width="4.6539" stroke-miterlimit="10"/>
</g>
<mask id="mask120_205_5860" style="mask-type:luminance" maskUnits="userSpaceOnUse" x="211" y="87" width="16" height="16">
<path d="M226.873 87.248H211.748V102.373H226.873V87.248Z" fill="white"/>
</mask>
<g mask="url(#mask120_205_5860)">
<path d="M230.764 106.267L207.852 83.3555" stroke="#C0A7FF" stroke-width="3.4117" stroke-miterlimit="10"/>
</g>
<mask id="mask121_205_5860" style="mask-type:luminance" maskUnits="userSpaceOnUse" x="226" y="102" width="16" height="16">
<path d="M226.875 117.5H242V102.375H226.875V117.5Z" fill="white"/>
</mask>
<g mask="url(#mask121_205_5860)">
<path d="M245.891 121.392L222.979 98.4805" stroke="#C0A7FF" stroke-width="2.17167" stroke-miterlimit="10"/>
</g>
<mask id="mask122_205_5860" style="mask-type:luminance" maskUnits="userSpaceOnUse" x="196" y="56" width="16" height="17">
<path d="M211.748 56.998H196.623V72.1229H211.748V56.998Z" fill="white"/>
</mask>
<g mask="url(#mask122_205_5860)">
<path d="M215.639 76.0168L192.727 53.1055" stroke="#C0A7FF" stroke-width="4.6539" stroke-miterlimit="10"/>
</g>
<mask id="mask123_205_5860" style="mask-type:luminance" maskUnits="userSpaceOnUse" x="211" y="72" width="16" height="16">
<path d="M226.873 72.123H211.748V87.2479H226.873V72.123Z" fill="white"/>
</mask>
<g mask="url(#mask123_205_5860)">
<path d="M230.764 91.1418L207.852 68.2305" stroke="#C0A7FF" stroke-width="3.4117" stroke-miterlimit="10"/>
</g>
<mask id="mask124_205_5860" style="mask-type:luminance" maskUnits="userSpaceOnUse" x="226" y="87" width="16" height="16">
<path d="M226.875 102.375H242V87.2501H226.875V102.375Z" fill="white"/>
</mask>
<g mask="url(#mask124_205_5860)">
<path d="M245.891 106.267L222.979 83.3555" stroke="#C0A7FF" stroke-width="2.17167" stroke-miterlimit="10"/>
</g>
<mask id="mask125_205_5860" style="mask-type:luminance" maskUnits="userSpaceOnUse" x="211" y="56" width="16" height="17">
<path d="M226.873 56.998H211.748V72.1229H226.873V56.998Z" fill="white"/>
</mask>
<g mask="url(#mask125_205_5860)">
<path d="M230.764 76.0168L207.852 53.1055" stroke="#C0A7FF" stroke-width="3.4117" stroke-miterlimit="10"/>
</g>
<mask id="mask126_205_5860" style="mask-type:luminance" maskUnits="userSpaceOnUse" x="226" y="72" width="16" height="16">
<path d="M226.875 87.25H242V72.1251H226.875V87.25Z" fill="white"/>
</mask>
<g mask="url(#mask126_205_5860)">
<path d="M245.891 91.1418L222.979 68.2305" stroke="#C0A7FF" stroke-width="2.17167" stroke-miterlimit="10"/>
</g>
<mask id="mask127_205_5860" style="mask-type:luminance" maskUnits="userSpaceOnUse" x="226" y="57" width="16" height="16">
<path d="M226.875 72.125H242V57.0001H226.875V72.125Z" fill="white"/>
</mask>
<g mask="url(#mask127_205_5860)">
<path d="M245.891 76.0168L222.979 53.1055" stroke="#C0A7FF" stroke-width="2.17167" stroke-miterlimit="10"/>
</g>
</g>
<defs>
<clipPath id="clip0_205_5860">
<rect width="242" height="114" fill="white"/>
</clipPath>
</defs>
</svg>
