<svg width="18" height="18" viewBox="0 0 18 18" fill="none" xmlns="http://www.w3.org/2000/svg">
<rect width="18" height="18" fill="#F2B5C3"/>
<path d="M12.3496 5.85547H5.59961V7.11547H12.3496V5.85547Z" fill="black"/>
<path d="M12.3496 8.375H5.59961V9.635H12.3496V8.375Z" fill="black"/>
<path d="M12.8754 2.69922H5.07539C3.87539 2.69922 2.90039 3.60922 2.90039 4.72922V13.2692C2.90039 14.3892 3.87539 15.2992 5.07539 15.2992H7.62539L8.97539 14.0392L10.3254 15.2992H12.8754C14.0754 15.2992 15.0504 14.3892 15.0504 13.2692V4.72922C15.0504 3.60922 14.0754 2.69922 12.8754 2.69922ZM13.7004 13.2692C13.7004 13.6934 13.3299 14.0392 12.8754 14.0392H5.07539C4.62089 14.0392 4.25039 13.6934 4.25039 13.2692V4.72922C4.25039 4.30502 4.62089 3.95922 5.07539 3.95922H12.8754C13.3299 3.95922 13.7004 4.30502 13.7004 4.72922V13.2692Z" fill="black"/>
</svg>
