<svg width="18" height="18" viewBox="0 0 18 18" fill="none" xmlns="http://www.w3.org/2000/svg">
<rect width="18" height="18" fill="#D9CAFF"/>
<path d="M14.054 5.19485C14.4335 5.55045 14.4335 6.12725 14.054 6.48145L13.676 6.83425L11.2535 4.57745L11.633 4.22325C12.014 3.86765 12.632 3.86905 13.0115 4.22325L13.532 4.70905V3.01645C12.6365 2.50685 11.4515 2.61045 10.6775 3.33285L3.07246 10.4322C2.97346 10.5246 2.90746 10.645 2.88346 10.7738L2.20846 14.5538C2.17246 14.754 2.24296 14.9584 2.39746 15.1026C2.52496 15.2216 2.69746 15.2874 2.87446 15.2874C2.91196 15.2874 2.94796 15.2846 2.98546 15.279L7.03546 14.649C7.17496 14.628 7.30246 14.5664 7.40146 14.4726L15.0095 7.37185C15.7835 6.64945 15.8945 5.54345 15.3485 4.70765H13.535L14.0555 5.19345L14.054 5.19485ZM10.2995 5.46925L11.033 6.15245L5.26546 11.5354L4.51546 10.8676L10.2995 5.46925ZM3.69646 13.8916L4.00696 12.1556L5.61946 13.592L3.69646 13.8916ZM6.99196 13.074L6.24196 12.4062L11.9885 7.04285L12.722 7.72605L6.99196 13.074Z" fill="black"/>
</svg>
