<svg width="18" height="18" viewBox="0 0 18 18" fill="none" xmlns="http://www.w3.org/2000/svg">
<rect width="18" height="18" fill="#70EE97"/>
<path d="M10.2755 8.71472C10.0487 8.57332 9.80231 8.46552 9.53631 8.38992C9.27171 8.30872 9.02251 8.23032 8.78871 8.15472C8.56191 8.07912 8.37151 7.99232 8.22031 7.89432C8.06911 7.79632 7.99351 7.66192 7.99351 7.48832C7.99351 7.31472 8.07191 7.16912 8.22871 7.03332C8.38551 6.89192 8.60811 6.82192 8.89511 6.82192C9.18211 6.82192 9.40331 6.90032 9.56151 7.05712C9.71831 7.20832 9.79671 7.41412 9.79671 7.67452H10.8929C10.8929 7.42532 10.8551 7.20132 10.7795 7.00112C10.7095 6.79532 10.6087 6.61612 10.4785 6.46492C10.3539 6.30812 10.2027 6.17792 10.0235 6.07572C9.84991 5.96792 9.66371 5.88392 9.46351 5.82372V5.01172H8.42471V5.82372C8.18671 5.85592 7.96691 5.92172 7.76671 6.01832C7.57211 6.11632 7.40131 6.23812 7.25571 6.38372C7.11431 6.52932 7.00371 6.69732 6.92251 6.88772C6.84691 7.07672 6.80911 7.27972 6.80911 7.49672C6.80911 7.84252 6.88471 8.12532 7.03591 8.34092C7.18711 8.55232 7.37751 8.72312 7.60431 8.85192C7.83671 8.98212 8.08591 9.08712 8.35191 9.16832C8.61651 9.24392 8.86291 9.32232 9.09111 9.40352C9.32351 9.47912 9.51671 9.56872 9.66791 9.67092C9.81911 9.77312 9.89471 9.91452 9.89471 10.0937C9.89471 10.2827 9.81071 10.4507 9.64271 10.5977C9.48031 10.7391 9.23111 10.8091 8.89511 10.8091C8.73831 10.8091 8.59131 10.7881 8.45691 10.7447C8.32671 10.6957 8.21331 10.6341 8.11531 10.5585C8.01731 10.4773 7.94171 10.3821 7.88851 10.2743C7.83391 10.1609 7.80731 10.0391 7.80731 9.90892H6.66211C6.66211 10.1693 6.70551 10.4101 6.79231 10.6313C6.87911 10.8483 6.99811 11.0373 7.14931 11.1997C7.30611 11.3621 7.49371 11.4979 7.70931 11.6057C7.92631 11.7079 8.16431 11.7793 8.42331 11.8171V12.6123H9.46211V11.8087C9.68891 11.7653 9.90031 11.6925 10.0949 11.5889C10.2951 11.4811 10.4659 11.3509 10.6059 11.1997C10.7515 11.0485 10.8663 10.8833 10.9475 10.7041C11.0343 10.5207 11.0777 10.3331 11.0777 10.1441C11.0777 9.78152 11.0021 9.48892 10.8509 9.26772C10.6997 9.04092 10.5065 8.85612 10.2741 8.71612L10.2755 8.71472Z" fill="black"/>
<path d="M10.1514 2.80078L8.99922 3.95298L7.84702 2.80078C4.92102 3.34398 2.69922 5.91298 2.69922 8.99298C2.69922 12.073 4.92242 14.6434 7.84702 15.1852L8.99922 14.033L10.1514 15.1852C13.0774 14.642 15.2992 12.073 15.2992 8.99298C15.2992 5.91298 13.0774 3.34398 10.1514 2.80078ZM8.99922 14.033C6.22022 14.033 3.95922 11.772 3.95922 8.99298C3.95922 6.21398 6.22022 3.95298 8.99922 3.95298C11.7782 3.95298 14.0392 6.21398 14.0392 8.99298C14.0392 11.772 11.7782 14.033 8.99922 14.033Z" fill="black"/>
</svg>
