<svg width="242" height="114" viewBox="0 0 242 114" fill="none" xmlns="http://www.w3.org/2000/svg">
<g clip-path="url(#clip0_260_16658)">
<rect width="242" height="114" fill="#F2B5C3"/>
<mask id="mask0_260_16658" style="mask-type:alpha" maskUnits="userSpaceOnUse" x="0" y="-78" width="242" height="270">
<rect x="0.14919" y="-77.261" width="241.702" height="268.521" fill="#C0A7FF" stroke="#428CFF" stroke-width="0.29838"/>
</mask>
<g mask="url(#mask0_260_16658)">
<mask id="mask1_260_16658" style="mask-type:luminance" maskUnits="userSpaceOnUse" x="121" y="36" width="21" height="22">
<path d="M141.682 57.0361H121.62V36.9746H141.682V57.0361Z" fill="white" stroke="white" stroke-width="0.270232"/>
</mask>
<g mask="url(#mask1_260_16658)">
<path d="M147.048 31.6016L116.25 62.4" stroke="#428CFF" stroke-width="13.5116" stroke-miterlimit="10"/>
</g>
<mask id="mask2_260_16658" style="mask-type:luminance" maskUnits="userSpaceOnUse" x="141" y="16" width="22" height="21">
<path d="M162.013 16.6465V36.708H141.951V16.6465H162.013Z" fill="white" stroke="white" stroke-width="0.270232"/>
</mask>
<g mask="url(#mask2_260_16658)">
<path d="M167.384 11.2773L136.586 42.0758" stroke="#428CFF" stroke-width="11.9686" stroke-miterlimit="10"/>
</g>
<mask id="mask3_260_16658" style="mask-type:luminance" maskUnits="userSpaceOnUse" x="121" y="16" width="21" height="21">
<path d="M141.681 16.6465V36.708H121.619V16.6465H141.681Z" fill="white" stroke="white" stroke-width="0.270232"/>
</mask>
<g mask="url(#mask3_260_16658)">
<path d="M147.05 11.2773L116.252 42.0758" stroke="#428CFF" stroke-width="11.9686" stroke-miterlimit="10"/>
</g>
<mask id="mask4_260_16658" style="mask-type:luminance" maskUnits="userSpaceOnUse" x="162" y="-4" width="21" height="21">
<path d="M182.343 -3.68164V16.3799H162.281V-3.68164H182.343Z" fill="white" stroke="white" stroke-width="0.270232"/>
</mask>
<g mask="url(#mask4_260_16658)">
<path d="M187.712 -9.05078L156.914 21.7477" stroke="#428CFF" stroke-width="10.4229" stroke-miterlimit="10"/>
</g>
<mask id="mask5_260_16658" style="mask-type:luminance" maskUnits="userSpaceOnUse" x="141" y="-4" width="22" height="21">
<path d="M162.013 -3.68164V16.3799H141.951V-3.68164H162.013Z" fill="white" stroke="white" stroke-width="0.270232"/>
</mask>
<g mask="url(#mask5_260_16658)">
<path d="M167.384 -9.05078L136.586 21.7477" stroke="#428CFF" stroke-width="10.4229" stroke-miterlimit="10"/>
</g>
<mask id="mask6_260_16658" style="mask-type:luminance" maskUnits="userSpaceOnUse" x="121" y="-4" width="21" height="21">
<path d="M141.681 -3.68164V16.3799H121.619V-3.68164H141.681Z" fill="white" stroke="white" stroke-width="0.270232"/>
</mask>
<g mask="url(#mask6_260_16658)">
<path d="M147.05 -9.05078L116.252 21.7477" stroke="#428CFF" stroke-width="10.4229" stroke-miterlimit="10"/>
</g>
<mask id="mask7_260_16658" style="mask-type:luminance" maskUnits="userSpaceOnUse" x="141" y="36" width="22" height="22">
<path d="M162.013 36.9746V57.0361H141.951V36.9746H162.013Z" fill="white" stroke="white" stroke-width="0.270232"/>
</mask>
<g mask="url(#mask7_260_16658)">
<path d="M167.384 31.6016L136.586 62.4" stroke="#428CFF" stroke-width="11.9686" stroke-miterlimit="10"/>
</g>
<mask id="mask8_260_16658" style="mask-type:luminance" maskUnits="userSpaceOnUse" x="162" y="16" width="21" height="21">
<path d="M182.343 16.6465V36.708H162.281V16.6465H182.343Z" fill="white" stroke="white" stroke-width="0.270232"/>
</mask>
<g mask="url(#mask8_260_16658)">
<path d="M187.712 11.2773L156.914 42.0758" stroke="#428CFF" stroke-width="10.4229" stroke-miterlimit="10"/>
</g>
<mask id="mask9_260_16658" style="mask-type:luminance" maskUnits="userSpaceOnUse" x="182" y="-4" width="21" height="21">
<path d="M202.671 -3.68164V16.3799H182.609V-3.68164H202.671Z" fill="white" stroke="white" stroke-width="0.270232"/>
</mask>
<g mask="url(#mask9_260_16658)">
<path d="M208.042 -9.05078L177.244 21.7477" stroke="#428CFF" stroke-width="8.87983" stroke-miterlimit="10"/>
</g>
<mask id="mask10_260_16658" style="mask-type:luminance" maskUnits="userSpaceOnUse" x="162" y="36" width="21" height="22">
<path d="M182.343 36.9746V57.0361H162.281V36.9746H182.343Z" fill="white" stroke="white" stroke-width="0.270232"/>
</mask>
<g mask="url(#mask10_260_16658)">
<path d="M187.712 31.6016L156.914 62.4" stroke="#428CFF" stroke-width="10.4229" stroke-miterlimit="10"/>
</g>
<mask id="mask11_260_16658" style="mask-type:luminance" maskUnits="userSpaceOnUse" x="182" y="16" width="21" height="21">
<path d="M202.671 16.6465V36.708H182.609V16.6465H202.671Z" fill="white" stroke="white" stroke-width="0.270232"/>
</mask>
<g mask="url(#mask11_260_16658)">
<path d="M208.042 11.2773L177.244 42.0758" stroke="#428CFF" stroke-width="8.87983" stroke-miterlimit="10"/>
</g>
<mask id="mask12_260_16658" style="mask-type:luminance" maskUnits="userSpaceOnUse" x="202" y="-4" width="22" height="21">
<path d="M223.003 -3.68164V16.3799H202.941V-3.68164H223.003Z" fill="white" stroke="white" stroke-width="0.270232"/>
</mask>
<g mask="url(#mask12_260_16658)">
<path d="M228.376 -9.05078L197.578 21.7477" stroke="#428CFF" stroke-width="7.3341" stroke-miterlimit="10"/>
</g>
<mask id="mask13_260_16658" style="mask-type:luminance" maskUnits="userSpaceOnUse" x="182" y="36" width="21" height="22">
<path d="M202.671 36.9746V57.0361H182.609V36.9746H202.671Z" fill="white" stroke="white" stroke-width="0.270232"/>
</mask>
<g mask="url(#mask13_260_16658)">
<path d="M208.042 31.6016L177.244 62.4" stroke="#428CFF" stroke-width="8.87983" stroke-miterlimit="10"/>
</g>
<mask id="mask14_260_16658" style="mask-type:luminance" maskUnits="userSpaceOnUse" x="202" y="16" width="22" height="21">
<path d="M223.003 16.6465V36.708H202.941V16.6465H223.003Z" fill="white" stroke="white" stroke-width="0.270232"/>
</mask>
<g mask="url(#mask14_260_16658)">
<path d="M228.376 11.2773L197.578 42.0758" stroke="#428CFF" stroke-width="7.3341" stroke-miterlimit="10"/>
</g>
<mask id="mask15_260_16658" style="mask-type:luminance" maskUnits="userSpaceOnUse" x="223" y="-4" width="21" height="21">
<path d="M243.339 -3.68164V16.3799H223.277V-3.68164H243.339Z" fill="white" stroke="white" stroke-width="0.270232"/>
</mask>
<g mask="url(#mask15_260_16658)">
<path d="M248.706 -9.05078L217.908 21.7477" stroke="#428CFF" stroke-width="5.79107" stroke-miterlimit="10"/>
</g>
<mask id="mask16_260_16658" style="mask-type:luminance" maskUnits="userSpaceOnUse" x="202" y="36" width="22" height="22">
<path d="M223.003 36.9746V57.0361H202.941V36.9746H223.003Z" fill="white" stroke="white" stroke-width="0.270232"/>
</mask>
<g mask="url(#mask16_260_16658)">
<path d="M228.376 31.6016L197.578 62.4" stroke="#428CFF" stroke-width="7.3341" stroke-miterlimit="10"/>
</g>
<mask id="mask17_260_16658" style="mask-type:luminance" maskUnits="userSpaceOnUse" x="223" y="16" width="21" height="21">
<path d="M243.339 16.6465V36.708H223.277V16.6465H243.339Z" fill="white" stroke="white" stroke-width="0.270232"/>
</mask>
<g mask="url(#mask17_260_16658)">
<path d="M248.706 11.2773L217.908 42.0758" stroke="#428CFF" stroke-width="5.79107" stroke-miterlimit="10"/>
</g>
<mask id="mask18_260_16658" style="mask-type:luminance" maskUnits="userSpaceOnUse" x="223" y="36" width="21" height="22">
<path d="M243.339 36.9746V57.0361H223.277V36.9746H243.339Z" fill="white" stroke="white" stroke-width="0.270232"/>
</mask>
<g mask="url(#mask18_260_16658)">
<path d="M248.706 31.6016L217.908 62.4" stroke="#428CFF" stroke-width="5.79107" stroke-miterlimit="10"/>
</g>
<mask id="mask19_260_16658" style="mask-type:luminance" maskUnits="userSpaceOnUse" x="101" y="36" width="21" height="22">
<path d="M121.352 57.0361H101.29V36.9746H121.352V57.0361Z" fill="white" stroke="white" stroke-width="0.270232"/>
</mask>
<g mask="url(#mask19_260_16658)">
<path d="M95.918 31.6016L126.716 62.4" stroke="#428CFF" stroke-width="13.5116" stroke-miterlimit="10"/>
</g>
<mask id="mask20_260_16658" style="mask-type:luminance" maskUnits="userSpaceOnUse" x="80" y="16" width="22" height="21">
<path d="M101.019 16.6465V36.708H80.957V16.6465H101.019Z" fill="white" stroke="white" stroke-width="0.270232"/>
</mask>
<g mask="url(#mask20_260_16658)">
<path d="M75.5898 11.2773L106.388 42.0758" stroke="#428CFF" stroke-width="11.9686" stroke-miterlimit="10"/>
</g>
<mask id="mask21_260_16658" style="mask-type:luminance" maskUnits="userSpaceOnUse" x="101" y="16" width="21" height="21">
<path d="M121.349 16.6465V36.708H101.287V16.6465H121.349Z" fill="white" stroke="white" stroke-width="0.270232"/>
</mask>
<g mask="url(#mask21_260_16658)">
<path d="M95.9199 11.2773L126.718 42.0758" stroke="#428CFF" stroke-width="11.9686" stroke-miterlimit="10"/>
</g>
<mask id="mask22_260_16658" style="mask-type:luminance" maskUnits="userSpaceOnUse" x="60" y="-4" width="21" height="21">
<path d="M80.6865 -3.68164V16.3799H60.625V-3.68164H80.6865Z" fill="white" stroke="white" stroke-width="0.270232"/>
</mask>
<g mask="url(#mask22_260_16658)">
<path d="M55.2578 -9.05078L86.0558 21.7477" stroke="#428CFF" stroke-width="10.4229" stroke-miterlimit="10"/>
</g>
<mask id="mask23_260_16658" style="mask-type:luminance" maskUnits="userSpaceOnUse" x="80" y="-4" width="22" height="21">
<path d="M101.019 -3.68164V16.3799H80.957V-3.68164H101.019Z" fill="white" stroke="white" stroke-width="0.270232"/>
</mask>
<g mask="url(#mask23_260_16658)">
<path d="M75.5898 -9.05078L106.388 21.7477" stroke="#428CFF" stroke-width="10.4229" stroke-miterlimit="10"/>
</g>
<mask id="mask24_260_16658" style="mask-type:luminance" maskUnits="userSpaceOnUse" x="101" y="-4" width="21" height="21">
<path d="M121.349 -3.68164V16.3799H101.287V-3.68164H121.349Z" fill="white" stroke="white" stroke-width="0.270232"/>
</mask>
<g mask="url(#mask24_260_16658)">
<path d="M95.9199 -9.05078L126.718 21.7477" stroke="#428CFF" stroke-width="10.4229" stroke-miterlimit="10"/>
</g>
<mask id="mask25_260_16658" style="mask-type:luminance" maskUnits="userSpaceOnUse" x="80" y="36" width="22" height="22">
<path d="M101.019 36.9746V57.0361H80.957V36.9746H101.019Z" fill="white" stroke="white" stroke-width="0.270232"/>
</mask>
<g mask="url(#mask25_260_16658)">
<path d="M75.5898 31.6016L106.388 62.4" stroke="#428CFF" stroke-width="11.9686" stroke-miterlimit="10"/>
</g>
<mask id="mask26_260_16658" style="mask-type:luminance" maskUnits="userSpaceOnUse" x="60" y="16" width="21" height="21">
<path d="M80.6865 16.6465V36.708H60.625V16.6465H80.6865Z" fill="white" stroke="white" stroke-width="0.270232"/>
</mask>
<g mask="url(#mask26_260_16658)">
<path d="M55.2578 11.2773L86.0558 42.0758" stroke="#428CFF" stroke-width="10.4229" stroke-miterlimit="10"/>
</g>
<mask id="mask27_260_16658" style="mask-type:luminance" maskUnits="userSpaceOnUse" x="40" y="-4" width="21" height="21">
<path d="M60.3564 -3.68164V16.3799H40.2949V-3.68164H60.3564Z" fill="white" stroke="white" stroke-width="0.270232"/>
</mask>
<g mask="url(#mask27_260_16658)">
<path d="M34.9258 -9.05078L65.7238 21.7477" stroke="#428CFF" stroke-width="8.87983" stroke-miterlimit="10"/>
</g>
<mask id="mask28_260_16658" style="mask-type:luminance" maskUnits="userSpaceOnUse" x="60" y="36" width="21" height="22">
<path d="M80.6865 36.9746V57.0361H60.625V36.9746H80.6865Z" fill="white" stroke="white" stroke-width="0.270232"/>
</mask>
<g mask="url(#mask28_260_16658)">
<path d="M55.2578 31.6016L86.0558 62.4" stroke="#428CFF" stroke-width="10.4229" stroke-miterlimit="10"/>
</g>
<mask id="mask29_260_16658" style="mask-type:luminance" maskUnits="userSpaceOnUse" x="40" y="16" width="21" height="21">
<path d="M60.3564 16.6465V36.708H40.2949V16.6465H60.3564Z" fill="white" stroke="white" stroke-width="0.270232"/>
</mask>
<g mask="url(#mask29_260_16658)">
<path d="M34.9258 11.2773L65.7238 42.0758" stroke="#428CFF" stroke-width="8.87983" stroke-miterlimit="10"/>
</g>
<mask id="mask30_260_16658" style="mask-type:luminance" maskUnits="userSpaceOnUse" x="19" y="-4" width="22" height="21">
<path d="M40.0244 -3.68164V16.3799H19.9629V-3.68164H40.0244Z" fill="white" stroke="white" stroke-width="0.270232"/>
</mask>
<g mask="url(#mask30_260_16658)">
<path d="M14.5957 -9.05078L45.3937 21.7477" stroke="#428CFF" stroke-width="7.3341" stroke-miterlimit="10"/>
</g>
<mask id="mask31_260_16658" style="mask-type:luminance" maskUnits="userSpaceOnUse" x="40" y="36" width="21" height="22">
<path d="M60.3564 36.9746V57.0361H40.2949V36.9746H60.3564Z" fill="white" stroke="white" stroke-width="0.270232"/>
</mask>
<g mask="url(#mask31_260_16658)">
<path d="M34.9258 31.6016L65.7238 62.4" stroke="#428CFF" stroke-width="8.87983" stroke-miterlimit="10"/>
</g>
<mask id="mask32_260_16658" style="mask-type:luminance" maskUnits="userSpaceOnUse" x="19" y="16" width="22" height="21">
<path d="M40.0244 16.6465V36.708H19.9629V16.6465H40.0244Z" fill="white" stroke="white" stroke-width="0.270232"/>
</mask>
<g mask="url(#mask32_260_16658)">
<path d="M14.5957 11.2773L45.3937 42.0758" stroke="#428CFF" stroke-width="7.3341" stroke-miterlimit="10"/>
</g>
<mask id="mask33_260_16658" style="mask-type:luminance" maskUnits="userSpaceOnUse" x="-1" y="-4" width="21" height="21">
<path d="M19.6924 -3.68164V16.3799H-0.369141V-3.68164H19.6924Z" fill="white" stroke="white" stroke-width="0.270232"/>
</mask>
<g mask="url(#mask33_260_16658)">
<path d="M-5.73438 -9.05078L25.0636 21.7477" stroke="#428CFF" stroke-width="5.79107" stroke-miterlimit="10"/>
</g>
<mask id="mask34_260_16658" style="mask-type:luminance" maskUnits="userSpaceOnUse" x="19" y="36" width="22" height="22">
<path d="M40.0244 36.9746V57.0361H19.9629V36.9746H40.0244Z" fill="white" stroke="white" stroke-width="0.270232"/>
</mask>
<g mask="url(#mask34_260_16658)">
<path d="M14.5957 31.6016L45.3937 62.4" stroke="#428CFF" stroke-width="7.3341" stroke-miterlimit="10"/>
</g>
<mask id="mask35_260_16658" style="mask-type:luminance" maskUnits="userSpaceOnUse" x="-1" y="16" width="21" height="21">
<path d="M19.6924 16.6465V36.708H-0.369141V16.6465H19.6924Z" fill="white" stroke="white" stroke-width="0.270232"/>
</mask>
<g mask="url(#mask35_260_16658)">
<path d="M-5.73438 11.2773L25.0636 42.0758" stroke="#428CFF" stroke-width="5.79107" stroke-miterlimit="10"/>
</g>
<mask id="mask36_260_16658" style="mask-type:luminance" maskUnits="userSpaceOnUse" x="-1" y="36" width="21" height="22">
<path d="M19.6924 36.9746V57.0361H-0.369141V36.9746H19.6924Z" fill="white" stroke="white" stroke-width="0.270232"/>
</mask>
<g mask="url(#mask36_260_16658)">
<path d="M-5.73438 31.6016L25.0636 62.4" stroke="#428CFF" stroke-width="5.79107" stroke-miterlimit="10"/>
</g>
<mask id="mask37_260_16658" style="mask-type:luminance" maskUnits="userSpaceOnUse" x="101" y="57" width="21" height="21">
<path d="M101.289 57.3115H121.351V77.373H101.289V57.3115Z" fill="white" stroke="white" stroke-width="0.270232"/>
</mask>
<g mask="url(#mask37_260_16658)">
<path d="M95.9219 82.732L126.72 51.9336" stroke="#428CFF" stroke-width="13.5116" stroke-miterlimit="10"/>
</g>
<mask id="mask38_260_16658" style="mask-type:luminance" maskUnits="userSpaceOnUse" x="80" y="77" width="22" height="21">
<path d="M101.021 77.6387V97.7002H80.959V77.6387H101.021Z" fill="white" stroke="white" stroke-width="0.270232"/>
</mask>
<g mask="url(#mask38_260_16658)">
<path d="M75.5898 103.076L106.388 72.2773" stroke="#428CFF" stroke-width="11.9686" stroke-miterlimit="10"/>
</g>
<mask id="mask39_260_16658" style="mask-type:luminance" maskUnits="userSpaceOnUse" x="101" y="77" width="21" height="21">
<path d="M121.351 77.6387V97.7002H101.289V77.6387H121.351Z" fill="white" stroke="white" stroke-width="0.270232"/>
</mask>
<g mask="url(#mask39_260_16658)">
<path d="M95.9219 103.076L126.72 72.2773" stroke="#428CFF" stroke-width="11.9686" stroke-miterlimit="10"/>
</g>
<mask id="mask40_260_16658" style="mask-type:luminance" maskUnits="userSpaceOnUse" x="60" y="97" width="21" height="22">
<path d="M80.6885 97.9668V118.028H60.627V97.9668H80.6885Z" fill="white" stroke="white" stroke-width="0.270232"/>
</mask>
<g mask="url(#mask40_260_16658)">
<path d="M55.2598 123.396L86.0578 92.5977" stroke="#428CFF" stroke-width="10.4229" stroke-miterlimit="10"/>
</g>
<mask id="mask41_260_16658" style="mask-type:luminance" maskUnits="userSpaceOnUse" x="80" y="97" width="22" height="22">
<path d="M101.021 97.9668V118.028H80.959V97.9668H101.021Z" fill="white" stroke="white" stroke-width="0.270232"/>
</mask>
<g mask="url(#mask41_260_16658)">
<path d="M75.5898 123.396L106.388 92.5977" stroke="#428CFF" stroke-width="10.4229" stroke-miterlimit="10"/>
</g>
<mask id="mask42_260_16658" style="mask-type:luminance" maskUnits="userSpaceOnUse" x="101" y="97" width="21" height="22">
<path d="M121.351 97.9668V118.028H101.289V97.9668H121.351Z" fill="white" stroke="white" stroke-width="0.270232"/>
</mask>
<g mask="url(#mask42_260_16658)">
<path d="M95.9219 123.396L126.72 92.5977" stroke="#428CFF" stroke-width="10.4229" stroke-miterlimit="10"/>
</g>
<mask id="mask43_260_16658" style="mask-type:luminance" maskUnits="userSpaceOnUse" x="80" y="57" width="22" height="21">
<path d="M101.021 57.3027V77.3643H80.959V57.3027H101.021Z" fill="white" stroke="white" stroke-width="0.270232"/>
</mask>
<g mask="url(#mask43_260_16658)">
<path d="M75.5898 82.732L106.388 51.9336" stroke="#428CFF" stroke-width="11.9686" stroke-miterlimit="10"/>
</g>
<mask id="mask44_260_16658" style="mask-type:luminance" maskUnits="userSpaceOnUse" x="60" y="77" width="21" height="21">
<path d="M80.6885 77.6387V97.7002H60.627V77.6387H80.6885Z" fill="white" stroke="white" stroke-width="0.270232"/>
</mask>
<g mask="url(#mask44_260_16658)">
<path d="M55.2598 103.076L86.0578 72.2773" stroke="#428CFF" stroke-width="10.4229" stroke-miterlimit="10"/>
</g>
<mask id="mask45_260_16658" style="mask-type:luminance" maskUnits="userSpaceOnUse" x="40" y="97" width="21" height="22">
<path d="M60.3564 97.9668V118.028H40.2949V97.9668H60.3564Z" fill="white" stroke="white" stroke-width="0.270232"/>
</mask>
<g mask="url(#mask45_260_16658)">
<path d="M34.9258 123.396L65.7238 92.5977" stroke="#428CFF" stroke-width="8.87983" stroke-miterlimit="10"/>
</g>
<mask id="mask46_260_16658" style="mask-type:luminance" maskUnits="userSpaceOnUse" x="60" y="57" width="21" height="21">
<path d="M80.6885 57.3027V77.3643H60.627V57.3027H80.6885Z" fill="white" stroke="white" stroke-width="0.270232"/>
</mask>
<g mask="url(#mask46_260_16658)">
<path d="M55.2598 82.732L86.0578 51.9336" stroke="#428CFF" stroke-width="10.4229" stroke-miterlimit="10"/>
</g>
<mask id="mask47_260_16658" style="mask-type:luminance" maskUnits="userSpaceOnUse" x="40" y="77" width="21" height="21">
<path d="M60.3564 77.6387V97.7002H40.2949V77.6387H60.3564Z" fill="white" stroke="white" stroke-width="0.270232"/>
</mask>
<g mask="url(#mask47_260_16658)">
<path d="M34.9258 103.076L65.7238 72.2773" stroke="#428CFF" stroke-width="8.87983" stroke-miterlimit="10"/>
</g>
<mask id="mask48_260_16658" style="mask-type:luminance" maskUnits="userSpaceOnUse" x="19" y="97" width="22" height="22">
<path d="M40.0244 97.9668V118.028H19.9629V97.9668H40.0244Z" fill="white" stroke="white" stroke-width="0.270232"/>
</mask>
<g mask="url(#mask48_260_16658)">
<path d="M14.5957 123.396L45.3937 92.5977" stroke="#428CFF" stroke-width="7.3341" stroke-miterlimit="10"/>
</g>
<mask id="mask49_260_16658" style="mask-type:luminance" maskUnits="userSpaceOnUse" x="40" y="57" width="21" height="21">
<path d="M60.3564 57.3027V77.3643H40.2949V57.3027H60.3564Z" fill="white" stroke="white" stroke-width="0.270232"/>
</mask>
<g mask="url(#mask49_260_16658)">
<path d="M34.9258 82.732L65.7238 51.9336" stroke="#428CFF" stroke-width="8.87983" stroke-miterlimit="10"/>
</g>
<mask id="mask50_260_16658" style="mask-type:luminance" maskUnits="userSpaceOnUse" x="19" y="77" width="22" height="21">
<path d="M40.0244 77.6387V97.7002H19.9629V77.6387H40.0244Z" fill="white" stroke="white" stroke-width="0.270232"/>
</mask>
<g mask="url(#mask50_260_16658)">
<path d="M14.5957 103.076L45.3937 72.2773" stroke="#428CFF" stroke-width="7.3341" stroke-miterlimit="10"/>
</g>
<mask id="mask51_260_16658" style="mask-type:luminance" maskUnits="userSpaceOnUse" x="-1" y="97" width="21" height="22">
<path d="M19.6943 97.9668V118.028H-0.367188V97.9668H19.6943Z" fill="white" stroke="white" stroke-width="0.270232"/>
</mask>
<g mask="url(#mask51_260_16658)">
<path d="M-5.73438 123.396L25.0636 92.5977" stroke="#428CFF" stroke-width="5.79107" stroke-miterlimit="10"/>
</g>
<mask id="mask52_260_16658" style="mask-type:luminance" maskUnits="userSpaceOnUse" x="19" y="57" width="22" height="21">
<path d="M40.0244 57.3027V77.3643H19.9629V57.3027H40.0244Z" fill="white" stroke="white" stroke-width="0.270232"/>
</mask>
<g mask="url(#mask52_260_16658)">
<path d="M14.5957 82.732L45.3937 51.9336" stroke="#428CFF" stroke-width="7.3341" stroke-miterlimit="10"/>
</g>
<mask id="mask53_260_16658" style="mask-type:luminance" maskUnits="userSpaceOnUse" x="-1" y="77" width="21" height="21">
<path d="M19.6943 77.6387V97.7002H-0.367188V77.6387H19.6943Z" fill="white" stroke="white" stroke-width="0.270232"/>
</mask>
<g mask="url(#mask53_260_16658)">
<path d="M-5.73438 103.076L25.0636 72.2773" stroke="#428CFF" stroke-width="5.79107" stroke-miterlimit="10"/>
</g>
<mask id="mask54_260_16658" style="mask-type:luminance" maskUnits="userSpaceOnUse" x="-1" y="57" width="21" height="21">
<path d="M19.6943 57.3027V77.3643H-0.367188V57.3027H19.6943Z" fill="white" stroke="white" stroke-width="0.270232"/>
</mask>
<g mask="url(#mask54_260_16658)">
<path d="M-5.73438 82.732L25.0636 51.9336" stroke="#428CFF" stroke-width="5.79107" stroke-miterlimit="10"/>
</g>
<mask id="mask55_260_16658" style="mask-type:luminance" maskUnits="userSpaceOnUse" x="121" y="57" width="21" height="21">
<path d="M121.619 57.3115H141.681V77.373H121.619V57.3115Z" fill="white" stroke="white" stroke-width="0.270232"/>
</mask>
<g mask="url(#mask55_260_16658)">
<path d="M147.05 82.732L116.252 51.9336" stroke="#428CFF" stroke-width="13.5116" stroke-miterlimit="10"/>
</g>
<mask id="mask56_260_16658" style="mask-type:luminance" maskUnits="userSpaceOnUse" x="141" y="77" width="22" height="21">
<path d="M162.013 77.6387V97.7002H141.951V77.6387H162.013Z" fill="white" stroke="white" stroke-width="0.270232"/>
</mask>
<g mask="url(#mask56_260_16658)">
<path d="M167.382 103.076L136.584 72.2773" stroke="#428CFF" stroke-width="11.9686" stroke-miterlimit="10"/>
</g>
<mask id="mask57_260_16658" style="mask-type:luminance" maskUnits="userSpaceOnUse" x="121" y="77" width="21" height="21">
<path d="M141.681 77.6387V97.7002H121.619V77.6387H141.681Z" fill="white" stroke="white" stroke-width="0.270232"/>
</mask>
<g mask="url(#mask57_260_16658)">
<path d="M147.05 103.076L116.252 72.2773" stroke="#428CFF" stroke-width="11.9686" stroke-miterlimit="10"/>
</g>
<mask id="mask58_260_16658" style="mask-type:luminance" maskUnits="userSpaceOnUse" x="162" y="97" width="21" height="22">
<path d="M182.343 97.9668V118.028H162.281V97.9668H182.343Z" fill="white" stroke="white" stroke-width="0.270232"/>
</mask>
<g mask="url(#mask58_260_16658)">
<path d="M187.712 123.396L156.914 92.5977" stroke="#428CFF" stroke-width="10.4229" stroke-miterlimit="10"/>
</g>
<mask id="mask59_260_16658" style="mask-type:luminance" maskUnits="userSpaceOnUse" x="141" y="97" width="22" height="22">
<path d="M162.013 97.9668V118.028H141.951V97.9668H162.013Z" fill="white" stroke="white" stroke-width="0.270232"/>
</mask>
<g mask="url(#mask59_260_16658)">
<path d="M167.382 123.396L136.584 92.5977" stroke="#428CFF" stroke-width="10.4229" stroke-miterlimit="10"/>
</g>
<mask id="mask60_260_16658" style="mask-type:luminance" maskUnits="userSpaceOnUse" x="121" y="97" width="21" height="22">
<path d="M141.681 97.9668V118.028H121.619V97.9668H141.681Z" fill="white" stroke="white" stroke-width="0.270232"/>
</mask>
<g mask="url(#mask60_260_16658)">
<path d="M147.05 123.396L116.252 92.5977" stroke="#428CFF" stroke-width="10.4229" stroke-miterlimit="10"/>
</g>
<mask id="mask61_260_16658" style="mask-type:luminance" maskUnits="userSpaceOnUse" x="141" y="57" width="22" height="21">
<path d="M162.013 57.3027V77.3643H141.951V57.3027H162.013Z" fill="white" stroke="white" stroke-width="0.270232"/>
</mask>
<g mask="url(#mask61_260_16658)">
<path d="M167.382 82.732L136.584 51.9336" stroke="#428CFF" stroke-width="11.9686" stroke-miterlimit="10"/>
</g>
<mask id="mask62_260_16658" style="mask-type:luminance" maskUnits="userSpaceOnUse" x="162" y="77" width="21" height="21">
<path d="M182.343 77.6387V97.7002H162.281V77.6387H182.343Z" fill="white" stroke="white" stroke-width="0.270232"/>
</mask>
<g mask="url(#mask62_260_16658)">
<path d="M187.712 103.076L156.914 72.2773" stroke="#428CFF" stroke-width="10.4229" stroke-miterlimit="10"/>
</g>
<mask id="mask63_260_16658" style="mask-type:luminance" maskUnits="userSpaceOnUse" x="182" y="97" width="21" height="22">
<path d="M202.671 97.9668V118.028H182.609V97.9668H202.671Z" fill="white" stroke="white" stroke-width="0.270232"/>
</mask>
<g mask="url(#mask63_260_16658)">
<path d="M208.042 123.396L177.244 92.5977" stroke="#428CFF" stroke-width="8.87983" stroke-miterlimit="10"/>
</g>
<mask id="mask64_260_16658" style="mask-type:luminance" maskUnits="userSpaceOnUse" x="162" y="57" width="21" height="21">
<path d="M182.343 57.3027V77.3643H162.281V57.3027H182.343Z" fill="white" stroke="white" stroke-width="0.270232"/>
</mask>
<g mask="url(#mask64_260_16658)">
<path d="M187.712 82.732L156.914 51.9336" stroke="#428CFF" stroke-width="10.4229" stroke-miterlimit="10"/>
</g>
<mask id="mask65_260_16658" style="mask-type:luminance" maskUnits="userSpaceOnUse" x="182" y="77" width="21" height="21">
<path d="M202.671 77.6387V97.7002H182.609V77.6387H202.671Z" fill="white" stroke="white" stroke-width="0.270232"/>
</mask>
<g mask="url(#mask65_260_16658)">
<path d="M208.042 103.076L177.244 72.2773" stroke="#428CFF" stroke-width="8.87983" stroke-miterlimit="10"/>
</g>
<mask id="mask66_260_16658" style="mask-type:luminance" maskUnits="userSpaceOnUse" x="202" y="97" width="22" height="22">
<path d="M223.003 97.9668V118.028H202.941V97.9668H223.003Z" fill="white" stroke="white" stroke-width="0.270232"/>
</mask>
<g mask="url(#mask66_260_16658)">
<path d="M228.376 123.396L197.578 92.5977" stroke="#428CFF" stroke-width="7.3341" stroke-miterlimit="10"/>
</g>
<mask id="mask67_260_16658" style="mask-type:luminance" maskUnits="userSpaceOnUse" x="182" y="57" width="21" height="21">
<path d="M202.671 57.3027V77.3643H182.609V57.3027H202.671Z" fill="white" stroke="white" stroke-width="0.270232"/>
</mask>
<g mask="url(#mask67_260_16658)">
<path d="M208.042 82.732L177.244 51.9336" stroke="#428CFF" stroke-width="8.87983" stroke-miterlimit="10"/>
</g>
<mask id="mask68_260_16658" style="mask-type:luminance" maskUnits="userSpaceOnUse" x="202" y="77" width="22" height="21">
<path d="M223.003 77.6387V97.7002H202.941V77.6387H223.003Z" fill="white" stroke="white" stroke-width="0.270232"/>
</mask>
<g mask="url(#mask68_260_16658)">
<path d="M228.376 103.076L197.578 72.2773" stroke="#428CFF" stroke-width="7.3341" stroke-miterlimit="10"/>
</g>
<mask id="mask69_260_16658" style="mask-type:luminance" maskUnits="userSpaceOnUse" x="223" y="97" width="21" height="22">
<path d="M243.339 97.9668V118.028H223.277V97.9668H243.339Z" fill="white" stroke="white" stroke-width="0.270232"/>
</mask>
<g mask="url(#mask69_260_16658)">
<path d="M248.708 123.396L217.91 92.5977" stroke="#428CFF" stroke-width="5.79107" stroke-miterlimit="10"/>
</g>
<mask id="mask70_260_16658" style="mask-type:luminance" maskUnits="userSpaceOnUse" x="202" y="57" width="22" height="21">
<path d="M223.003 57.3027V77.3643H202.941V57.3027H223.003Z" fill="white" stroke="white" stroke-width="0.270232"/>
</mask>
<g mask="url(#mask70_260_16658)">
<path d="M228.376 82.732L197.578 51.9336" stroke="#428CFF" stroke-width="7.3341" stroke-miterlimit="10"/>
</g>
<mask id="mask71_260_16658" style="mask-type:luminance" maskUnits="userSpaceOnUse" x="223" y="77" width="21" height="21">
<path d="M243.339 77.6387V97.7002H223.277V77.6387H243.339Z" fill="white" stroke="white" stroke-width="0.270232"/>
</mask>
<g mask="url(#mask71_260_16658)">
<path d="M248.708 103.076L217.91 72.2773" stroke="#428CFF" stroke-width="5.79107" stroke-miterlimit="10"/>
</g>
<mask id="mask72_260_16658" style="mask-type:luminance" maskUnits="userSpaceOnUse" x="223" y="57" width="21" height="21">
<path d="M243.339 57.3027V77.3643H223.277V57.3027H243.339Z" fill="white" stroke="white" stroke-width="0.270232"/>
</mask>
<g mask="url(#mask72_260_16658)">
<path d="M248.708 82.732L217.91 51.9336" stroke="#428CFF" stroke-width="5.79107" stroke-miterlimit="10"/>
</g>
</g>
</g>
<defs>
<clipPath id="clip0_260_16658">
<rect width="242" height="114" fill="white"/>
</clipPath>
</defs>
</svg>
