<svg width="18" height="18" viewBox="0 0 18 18" fill="none" xmlns="http://www.w3.org/2000/svg">
<rect width="18" height="18" fill="#F2B5C3"/>
<path d="M9.02792 8.76953C7.22752 8.76953 5.76172 10.2339 5.76172 12.0357C5.76172 13.8375 7.22612 15.3019 9.02792 15.3019C10.8297 15.3019 12.2941 13.8375 12.2941 12.0357C12.2941 10.2339 10.8297 8.76953 9.02792 8.76953ZM9.02792 14.0405C7.92192 14.0405 7.02172 13.1403 7.02172 12.0343C7.02172 10.9283 7.92192 10.0281 9.02792 10.0281C10.1339 10.0281 11.0341 10.9283 11.0341 12.0343C11.0341 13.1403 10.1339 14.0405 9.02792 14.0405Z" fill="black"/>
<path d="M9.65648 2.69922H8.39648V6.47922H9.65648V2.69922Z" fill="black"/>
<path d="M3.59017 4.35514L2.69922 5.24609L5.2127 7.75958L6.10365 6.86862L3.59017 4.35514Z" fill="black"/>
<path d="M14.4355 4.32626L11.9141 6.84766L12.805 7.73861L15.3264 5.21721L14.4355 4.32626Z" fill="black"/>
</svg>
