<svg width="18" height="18" viewBox="0 0 18 18" fill="none" xmlns="http://www.w3.org/2000/svg">
<rect width="18" height="18" fill="#D9CAFF"/>
<path d="M15.2992 6.85943L9.76642 4.40103C9.27922 4.18403 8.71922 4.18403 8.23202 4.40103L2.69922 6.86083V7.26963V11.6796L3.95922 10.4196V8.86283L5.21922 9.41303V12.2886L8.20542 13.4226C8.43362 13.5136 8.71922 13.5584 9.00342 13.5584C9.28762 13.5584 9.56342 13.5136 9.78322 13.4254L12.7806 12.2872V9.41163L15.3006 8.30983V6.85663L15.2992 6.85943ZM9.32542 12.2536C9.17562 12.3138 8.82282 12.3138 8.66322 12.2494L6.47922 11.4206V9.96463L8.99782 11.065L11.5178 9.96463V11.4206L9.32402 12.2536H9.32542ZM8.99782 9.69023L4.17622 7.58323L8.74162 5.55323C8.90402 5.48043 9.09022 5.48043 9.25262 5.55323L13.8208 7.58323L8.99642 9.69023H8.99782Z" fill="black"/>
</svg>
