<svg width="24" height="24" viewBox="0 0 24 24" fill="none" xmlns="http://www.w3.org/2000/svg">
<rect width="24" height="24" fill="#70EE97"/>
<path d="M9.19043 9.1983L4.43359 4.43555V6.58988L8.15853 10.2968C9.08757 11.2379 9.07809 12.7621 8.14928 13.7063L4.43359 17.422V19.5645L9.19114 14.8081C9.95025 14.0428 10.4231 13.0121 10.4231 12.0032C10.4231 10.9943 9.94978 9.96666 9.19043 9.19807V9.1983Z" fill="#141414"/>
<path d="M19.5633 11.2422H13.5117V12.755H19.5633V11.2422Z" fill="#141414"/>
<path d="M16.9801 4.87732L12.4414 9.41602L13.5106 10.4852L18.0493 5.94651L16.9801 4.87732Z" fill="#141414"/>
<path d="M18.0506 18.0506L13.5117 13.5117L12.4427 14.5807L16.9816 19.1196L18.0506 18.0506Z" fill="#141414"/>
</svg>
