<svg width="24" height="24" viewBox="0 0 24 24" fill="none" xmlns="http://www.w3.org/2000/svg">
<rect width="24" height="24" fill="#D9CAFF"/>
<path d="M20.1156 20.4783L20.1121 18.8137L8.39074 18.8086C7.09045 18.8086 5.55103 17.598 5.55103 16.1578V10.8242H3.88672V16.138C3.88672 18.4958 5.80485 20.4783 8.16275 20.4783" fill="#141414"/>
<path d="M20.1136 9.89844H5.42969V11.521H20.1136V9.89844Z" fill="#141414"/>
<path d="M17.6787 5.81641V9.08691H16.0557V7.51172L8.40137 7.5166C7.09784 7.5166 5.55486 8.81276 5.55469 10.2578V15.6094H3.88672V10.2783C3.88672 7.98653 5.69085 5.94765 7.95215 5.82227L16.0557 5.81641H17.6787Z" fill="#141414"/>
<path d="M16.8681 13.9883H13.623V15.6108H16.8681V13.9883Z" fill="#141414"/>
<path d="M20.1123 16.5029V20.3164H18.4902V14.8809L20.1123 16.5029ZM20.1123 10.8242V13.0957L18.4902 14.7178V10.8242H20.1123Z" fill="#141414"/>
</svg>
