<svg width="18" height="18" viewBox="0 0 18 18" fill="none" xmlns="http://www.w3.org/2000/svg">
<rect width="18" height="18" fill="#D9CAFF"/>
<path d="M13.575 3.30078H4.425C3.225 3.30078 2.25 4.21078 2.25 5.33078V12.6108C2.25 13.7308 3.225 14.6408 4.425 14.6408H13.575C14.775 14.6408 15.75 13.7308 15.75 12.6108V5.33078C15.75 4.21078 14.775 3.30078 13.575 3.30078ZM9 7.08218L7.65 5.82218H4.425C4.1325 5.82218 3.855 5.87678 3.6 5.97338V5.33078C3.6 4.90658 3.9705 4.56078 4.425 4.56078H13.575C14.0295 4.56078 14.4 4.90658 14.4 5.33078V5.97338C14.145 5.87538 13.8675 5.82078 13.575 5.82078H10.35L9 7.08218ZM13.575 9.60078C14.0295 9.60078 14.4 9.94658 14.4 10.3708V12.6108C14.4 13.035 14.0295 13.3808 13.575 13.3808H4.425C3.9705 13.3808 3.6 13.035 3.6 12.6108V10.3708C3.6 9.94658 3.9705 9.60078 4.425 9.60078H13.575ZM7.65 8.34078H4.425C4.1325 8.34078 3.855 8.39538 3.6 8.49338V7.85078C3.6 7.42658 3.9705 7.08218 4.425 7.08218H13.575C14.0295 7.08218 14.4 7.42658 14.4 7.85078V8.49338C14.145 8.39538 13.8675 8.34078 13.575 8.34078H10.35L9 9.60078L7.65 8.34078Z" fill="black"/>
</svg>
