<svg width="24" height="24" viewBox="0 0 24 24" fill="none" xmlns="http://www.w3.org/2000/svg">
<rect width="24" height="24" fill="#D9CAFF"/>
<path d="M11.9941 3.89453C13.0827 3.89456 14.1948 4.4045 15.0205 5.22363L15.7441 5.94727V8.25098H18.0537L18.7744 8.96973C19.5932 9.79877 20.1045 10.9076 20.1045 11.9961C20.1045 13.0847 19.5936 14.1967 18.7744 15.0225L18.0547 15.7422H15.7451V18.0537L15.0264 18.7744C14.1973 19.5932 13.0882 20.1035 12 20.1035C10.9117 20.1035 9.79941 19.5936 8.97363 18.7744L8.25293 18.0537V15.7432L8.59473 16.085H8.59668L10.1621 17.6504C11.1811 18.6526 12.8263 18.6624 13.8418 17.6602L15.0869 16.4062H15.0859L16.085 15.3994L17.6504 13.833C18.6526 12.814 18.6632 11.1698 17.6611 10.1543L16.085 8.58789L15.3975 7.91309L13.832 6.34766C12.813 5.3454 11.1678 5.33563 10.1523 6.33789L8.58691 7.91406L7.91406 8.5918L6.34766 10.1582C5.34568 11.1772 5.33576 12.8215 6.33789 13.8369L7.73535 15.2256V15.2266L7.91406 15.4033V15.4043L8.25195 15.7422H5.94531L5.22461 15.0225C4.40581 14.1935 3.89468 13.0845 3.89453 11.9961C3.89453 10.9076 4.40463 9.79547 5.22363 8.96973L5.94141 8.25098H8.25195V5.94043L8.96777 5.22461C9.79685 4.40571 10.9056 3.89453 11.9941 3.89453ZM11.9727 7.94727C14.2071 7.94739 16.0243 9.76462 16.0244 11.999C16.0244 14.2335 14.2071 16.0516 11.9727 16.0518C9.73808 16.0518 7.91992 14.2336 7.91992 11.999C7.92004 9.76455 9.73815 7.94727 11.9727 7.94727ZM11.9727 9.56641C10.6311 9.56641 9.53931 10.6575 9.53906 11.999C9.53906 13.3408 10.6309 14.4326 11.9727 14.4326C13.3143 14.4325 14.4053 13.3407 14.4053 11.999C14.405 10.6576 13.3142 9.56653 11.9727 9.56641Z" fill="#141414"/>
</svg>
