<svg width="18" height="18" viewBox="0 0 18 18" fill="none" xmlns="http://www.w3.org/2000/svg">
<rect width="18" height="18" fill="#E6F1A7"/>
<path d="M13.71 11.5206L14.97 12.7806V13.2692C14.97 14.3892 14.06 15.2992 12.94 15.2992H5.66C4.54 15.2992 3.63 14.3892 3.63 13.2692V12.7792H3V11.5192H3.63V9.62922H3V8.36922H3.63V6.47922H3V5.21922H3.63V4.72922C3.63 3.60922 4.54 2.69922 5.66 2.69922H12.94C14.06 2.69922 14.97 3.60922 14.97 4.72922V10.2592L13.71 11.5192V4.72922C13.71 4.30502 13.3642 3.95922 12.94 3.95922H5.66C5.2358 3.95922 4.89 4.30502 4.89 4.72922V5.21922H6.15V6.47922H4.89V8.36922H6.15V9.62922H4.89V11.5192H6.15V12.7792H4.89V13.2692C4.89 13.6934 5.2358 14.0392 5.66 14.0392H12.94C13.3642 14.0392 13.71 13.6934 13.71 13.2692V11.5206ZM8.04 5.21922H13.08V8.36922H8.04V5.21922ZM9.3 7.10922H11.82V6.47922H9.3V7.10922Z" fill="black"/>
</svg>
