<svg width="24" height="24" viewBox="0 0 24 24" fill="none" xmlns="http://www.w3.org/2000/svg">
<rect width="24" height="24" fill="#F2B5C3"/>
<path d="M20.1156 20.6443L20.1121 18.9797L8.39074 18.9746C7.09045 18.9746 5.55103 17.764 5.55103 16.3238V10.9902H3.88672V16.304C3.88672 18.6618 5.80485 20.6443 8.16275 20.6443" fill="#141414"/>
<path d="M20.1136 10.0664H5.42969V11.6889H20.1136V10.0664Z" fill="#141414"/>
<path d="M17.6787 5.98438V9.25488H16.0557V7.67969L8.40137 7.68457C7.09784 7.68457 5.55486 8.98073 5.55469 10.4258V15.7773H3.88672V10.4463C3.88672 8.15449 5.69085 6.11561 7.95215 5.99023L16.0557 5.98438H17.6787Z" fill="#141414"/>
<path d="M16.8681 14.1543H13.623V15.7768H16.8681V14.1543Z" fill="#141414"/>
<path d="M20.1123 16.6689V20.4824H18.4902V15.0469L20.1123 16.6689ZM20.1123 10.9902V13.2617L18.4902 14.8838V10.9902H20.1123Z" fill="#141414"/>
</svg>
