<svg width="18" height="18" viewBox="0 0 18 18" fill="none" xmlns="http://www.w3.org/2000/svg">
<rect width="18" height="18" fill="#F2B5C3"/>
<path d="M8.99438 3.95298C11.7734 3.95298 14.0344 6.21398 14.0344 8.99298L15.1866 7.84078C14.712 5.28998 12.6974 3.27538 10.1466 2.80078L8.99438 3.95298L7.84218 2.80078C5.29138 3.27398 3.27538 5.28858 2.80078 7.83798L3.95438 8.99158C3.95438 6.21258 6.21538 3.95298 8.99438 3.95298Z" fill="black"/>
<path d="M14.0344 8.99219C14.0344 11.7712 11.7734 14.0322 8.99438 14.0322C6.21538 14.0322 3.95438 11.7712 3.95438 8.99219L2.80078 10.1458C3.27538 12.6966 5.29138 14.7112 7.84218 15.1844L8.99438 14.0322L10.1466 15.1844C12.6974 14.7112 14.7134 12.6952 15.188 10.1444L14.0358 8.99219H14.0344Z" fill="black"/>
<path d="M5.84375 8.99375C5.84375 10.7312 7.25635 12.1438 8.99375 12.1438C10.7312 12.1438 12.1438 10.7312 12.1438 8.99375C12.1438 7.25635 10.7312 5.84375 8.99375 5.84375C7.25635 5.84375 5.84375 7.25635 5.84375 8.99375ZM10.8837 8.99375C10.8837 10.0353 10.0353 10.8837 8.99375 10.8837C7.95215 10.8837 7.10375 10.0353 7.10375 8.99375C7.10375 7.95215 7.95215 7.10375 8.99375 7.10375C10.0353 7.10375 10.8837 7.95215 10.8837 8.99375Z" fill="black"/>
</svg>
