<svg width="18" height="18" viewBox="0 0 18 18" fill="none" xmlns="http://www.w3.org/2000/svg">
<rect width="18" height="18" fill="#E6F1A7"/>
<path d="M11.9218 9.0639L10.7531 10.3239V10.9539C10.7531 11.3011 10.4905 11.5839 10.1681 11.5839H4.98762L6.43192 10.0845L5.70002 9.3033L3.34052 11.7351C3.08702 12.0081 3.08702 12.4519 3.34052 12.7263L5.70262 15.1259L6.42932 14.3391L4.96682 12.8425H10.1681C11.1353 12.8425 11.9231 11.9941 11.9231 10.9525V9.0625H11.9218V9.0639Z" fill="black"/>
<path d="M6.07357 9.062L7.24227 7.802V7.172C7.24227 6.8248 7.50487 6.542 7.82727 6.542H13.0078L11.5635 8.0414L12.2954 8.8226L14.6549 6.3908C14.9084 6.1178 14.9084 5.674 14.6549 5.3996L12.2928 3L11.5661 3.7868L13.0286 5.2834H7.82727C6.86007 5.2834 6.07227 6.1318 6.07227 7.1734V9.0634H6.07357V9.062Z" fill="black"/>
</svg>
