<svg width="125" height="15" viewBox="0 0 125 15" fill="none" xmlns="http://www.w3.org/2000/svg">
<path d="M112.734 13.7523V0.136719H119.061C122.378 0.136719 124.36 1.66167 124.36 4.59855C124.36 6.62047 123.178 7.91667 121.672 8.52665L124.852 13.7523H121.313L118.508 9.04268H115.954V13.7523H112.732H112.734ZM118.642 6.5061C120.376 6.5061 121.12 5.858 121.12 4.59855C121.12 3.33911 120.376 2.67194 118.642 2.67194H115.954V6.50474H118.642V6.5061Z" fill="#141414"/>
<path d="M100.209 13.7523V0.136719H110.557V2.67331H103.432V5.64831H109.74V8.1849H103.432V11.1654H110.693V13.7523H100.209Z" fill="#141414"/>
<path d="M97.8926 6.73972H91.6308V9.05437H95.0334V9.22457C95.0334 10.4595 93.4009 11.497 91.6472 11.497C89.4169 11.497 88.1779 9.82501 88.1779 6.99297C88.1779 4.16092 89.4169 2.52705 91.6472 2.52705C93.2484 2.52705 94.1062 3.34399 94.3921 4.69329H97.6707C97.0607 1.86125 95.1355 0 91.6458 0C87.4903 0 84.8203 2.8688 84.8203 6.99297C84.8203 11.1171 87.3555 14.0241 91.379 14.0241C93.5166 14.0241 94.8918 12.9825 95.4405 12.1764V13.8198H97.8913V6.73972H97.8926Z" fill="#141414"/>
<path d="M83.4611 6.92545C83.4611 11.0251 80.7529 13.7523 76.5008 13.7523H71.207V0.136719H76.5008C80.7529 0.136719 83.4611 2.84486 83.4611 6.92545ZM74.4298 2.67331V11.1967H76.5008C78.8277 11.1967 80.1048 9.72891 80.1048 6.92545C80.1048 4.122 78.8277 2.67331 76.5008 2.67331H74.4298Z" fill="#141414"/>
<path d="M58.6797 13.7523V0.136719H69.0275V2.67331H61.9025V5.64831H68.2106V8.1849H61.9025V11.1654H69.1637V13.7523H58.6797Z" fill="#141414"/>
<path d="M46.5625 0.136719H49.8616V11.1654H56.638V13.7523H46.5625V0.136719Z" fill="#141414"/>
<path d="M33.1759 9.15705V13.7523H29.9531V0.136719H35.895C39.3084 0.136719 41.2541 1.68073 41.2541 4.65574C41.2541 7.63074 39.3084 9.15569 35.9331 9.15569H33.1746L33.1759 9.15705ZM35.5532 6.62047C37.2688 6.62047 38.0136 5.93424 38.0136 4.65574C38.0136 3.37723 37.2701 2.67194 35.5532 2.67194H33.1773V6.6191H35.5532V6.62047Z" fill="#141414"/>
<path d="M15.7924 13.7523V0.136719H22.1195C25.4363 0.136719 27.4187 1.66167 27.4187 4.59855C27.4187 6.62047 26.2369 7.91667 24.731 8.52665L27.9103 13.7523H24.3716L21.5668 9.04268H19.0125V13.7523H15.791H15.7924ZM21.7002 6.5061C23.4348 6.5061 24.1782 5.858 24.1782 4.59855C24.1782 3.33911 23.4348 2.67194 21.7002 2.67194H19.0125V6.50474H21.7002V6.5061Z" fill="#141414"/>
<path d="M6.97527 8.98549L3.45019 13.7523H0L5.25971 6.73484L0.419354 0.136719H4.15411L7.14683 4.2745L10.1967 0.136719H13.666L8.86375 6.54422L14.1616 13.7523H10.4459L6.97663 8.98549H6.97527Z" fill="#141414"/>
</svg>
