<svg width="167" height="32" viewBox="0 0 167 32" fill="none" xmlns="http://www.w3.org/2000/svg">
<path fill-rule="evenodd" clip-rule="evenodd" d="M36.8546 0H31.5424L23.1459 8.30632C20.6111 10.8179 16.4998 10.8179 13.965 8.30632L5.56855 0H0.256348L11.3061 10.9305C15.307 14.8949 21.8039 14.8949 25.8048 10.9305L36.8546 0ZM0.188965 31.4653H5.50115L13.965 23.0645C16.4998 20.5529 20.6111 20.5529 23.1459 23.0645L31.6098 31.4653H36.922L25.8048 20.4403C21.8039 16.4759 15.307 16.4759 11.3061 20.4403L0.188965 31.4653Z" fill="#141414"/>
<path d="M52.2644 13.9512L55.0044 10.4512H58.6044L54.0044 16.0512L58.7444 21.8112H55.0844L52.2644 18.1712L49.4444 21.8112H45.7844L50.5244 16.0512L45.9244 10.4512H49.5244L52.2644 13.9512Z" fill="#141414"/>
<path d="M67.1556 17.5312H65.4356V21.8112H62.2756V10.4512H67.4756C68.8689 10.4512 69.9556 10.7712 70.7356 11.4112C71.5156 12.0512 71.9056 12.9712 71.9056 14.1712C71.9056 15.0179 71.7089 15.7179 71.3156 16.2712C70.9356 16.8245 70.3956 17.2312 69.6956 17.4912L72.5356 21.7312V21.8112H69.2156L67.1556 17.5312ZM65.4356 15.3512H67.4756C67.9889 15.3512 68.3889 15.2045 68.6756 14.9112C68.9756 14.6179 69.1256 14.2179 69.1256 13.7112C69.1256 13.2045 68.9823 12.7979 68.6956 12.4912C68.4089 12.1845 67.9956 12.0312 67.4556 12.0312H65.4356V15.3512Z" fill="#141414"/>
<path d="M81.0578 17.0512V21.8112H77.9178V10.4512H82.9978C84.3911 10.4512 85.4911 10.7712 86.2978 11.4112C87.1044 12.0512 87.5078 12.9579 87.5078 14.1312C87.5078 14.9112 87.3111 15.5912 86.9178 16.1712C86.5244 16.7379 85.9511 17.1845 85.1978 17.5112L85.1778 17.5312H82.9978H81.0578ZM81.0578 14.8712H82.9778C83.5044 14.8712 83.9044 14.7312 84.1778 14.4512C84.4644 14.1579 84.6078 13.7579 84.6078 13.2512C84.6078 12.7312 84.4644 12.3179 84.1778 12.0112C83.8911 11.6912 83.4778 11.5312 82.9378 11.5312H81.0578V14.8712Z" fill="#141414"/>
<path d="M99.9422 21.8112H93.5022V10.4512H99.9022V12.2912H96.6622V15.1112H99.5622V16.9312H96.6622V19.9712H99.9422V21.8112Z" fill="#141414"/>
<path d="M111.714 16.0712C111.714 17.9245 111.234 19.4112 110.274 20.5312C109.314 21.6512 108.027 22.2112 106.414 22.0112V21.8112H106.394C106.047 21.8112 105.714 21.7845 105.394 21.7312C105.087 21.6912 104.787 21.6179 104.494 21.5112L104.114 21.3512V10.4512H106.394V10.4712C106.787 10.4445 107.174 10.4712 107.554 10.5512C108.847 10.8179 109.874 11.4445 110.634 12.4312C111.407 13.4045 111.781 14.5979 111.714 16.0112V16.0712ZM108.494 16.0712C108.494 14.8179 108.234 13.8579 107.714 13.1912C107.207 12.5112 106.527 12.1579 105.674 12.1312V19.9912C106.527 19.9645 107.207 19.6179 107.714 18.9512C108.234 18.2845 108.494 17.3245 108.494 16.0712Z" fill="#141414"/>
<path d="M123.946 21.8112H117.506V10.4512H123.906V12.2912H120.666V15.1112H123.566V16.9312H120.666V19.9712H123.946V21.8112Z" fill="#141414"/>
<path d="M135.698 21.8112H132.558V10.4512H135.698V21.8112ZM137.898 21.8112L138.738 19.4112H138.518L141.458 10.4512H145.138L148.058 19.4112H147.838L148.698 21.8112H145.518L145.038 20.1312H141.558L141.078 21.8112H137.898ZM144.218 17.9512L143.298 14.7312L142.378 17.9512H144.218Z" fill="#141414"/>
<path d="M160.61 17.5312H158.89V21.8112H155.73V10.4512H160.93C162.323 10.4512 163.41 10.7712 164.19 11.4112C164.97 12.0512 165.36 12.9712 165.36 14.1712C165.36 15.0179 165.163 15.7179 164.77 16.2712C164.39 16.8245 163.85 17.2312 163.15 17.4912L165.99 21.7312V21.8112H162.67L160.61 17.5312ZM158.89 15.3512H160.93C161.443 15.3512 161.843 15.2045 162.13 14.9112C162.43 14.6179 162.58 14.2179 162.58 13.7112C162.58 13.2045 162.437 12.7979 162.15 12.4912C161.863 12.1845 161.45 12.0312 160.91 12.0312H158.89V15.3512Z" fill="#141414"/>
</svg>
