<svg width="142" height="114" viewBox="0 0 142 114" fill="none" xmlns="http://www.w3.org/2000/svg">
<path d="M136.196 94.0185L141.223 76.5089H138.1C137.336 76.5089 136.675 77.0419 136.52 77.7958L133.863 87.649L131.013 77.7958C130.858 77.0549 130.21 76.5089 129.458 76.5089H126.323L131.557 93.9665L125.377 113.647H130.003L134.019 100.193L137.647 113.647H142L136.196 94.0185ZM133.151 52.2138C133.19 51.7979 133.073 51.3949 132.853 51.0439C132.555 50.667 132.477 50.641 132.27 50.563L131.868 50.394C130.935 49.9 130.028 49.3411 129.186 48.7041C128.331 48.0412 128.007 47.3652 127.489 47.0403C126.971 46.7153 127.139 46.5853 126.336 46.4943C125.818 46.4683 125.325 46.3383 124.859 46.1173C124.263 45.9743 123.667 45.9223 123.058 45.9483C122.138 45.6884 121.179 45.5454 120.221 45.5194C118.381 45.3894 116.541 45.7663 114.896 46.5853C113.587 47.3652 113.82 47.5992 112.032 49.1591C110.944 50.199 109.778 51.1479 108.547 52.0059C107.653 52.6688 106.63 53.1368 105.541 53.3837C104.984 53.3837 104.012 53.2928 104.012 53.2928C103.74 52.2788 103.352 51.3039 102.833 50.394C102.445 49.523 101.991 48.7041 101.46 47.9112C101.253 47.7682 101.084 47.5732 100.981 47.3392C101.499 46.8453 101.862 46.2083 102.03 45.5064C102.276 44.1155 102.458 42.7246 102.561 41.3077C102.587 40.5928 102.665 39.8908 102.782 39.1889C103.093 38.006 103.481 36.8491 103.935 35.7182C104.207 35.0032 104.595 34.2623 104.608 34.1193C104.375 33.1834 104.064 32.2734 103.714 31.3765C103.274 30.1546 102.976 28.8937 102.82 27.6198C102.82 26.7099 102.704 25.787 102.484 24.903C102.211 24.3051 102.276 24.2401 102.16 24.0841L101.68 23.3431L100.281 22.5242C100.592 22.8102 100.864 23.1352 101.097 23.4731C101.162 23.6551 101.162 23.8631 101.123 24.0451L101.02 24.3571L101.59 25.371L101.771 25.9689C101.719 26.2289 101.719 26.5019 101.771 26.7619C101.862 27.0868 101.926 27.4248 101.978 27.7628V28.0488C101.978 28.0488 101.421 26.8139 101.032 25.9039C100.631 24.994 99.5555 21.9523 99.2834 21.2633C99.0113 20.5744 98.8299 19.7814 98.5319 19.5735C98.2987 19.4435 98.0396 19.3655 97.7805 19.3265H97.1715C97.1715 19.3265 95.0208 15.2968 93.9454 13.4639C92.9478 11.6051 91.7947 9.82423 90.512 8.14737C89.4367 7.00346 89.1387 6.27552 87.6617 4.83263C86.1847 3.40275 85.8608 2.83079 85.0186 2.16784C84.1765 1.5049 83.9173 1.07593 83.3213 0.59497C82.7254 0.114009 82.3626 -0.171968 82.246 0.114009C81.948 1.38791 81.8702 2.7138 82.0387 4.0137C82.4015 4.97562 82.8808 5.88555 83.4898 6.70448C83.71 7.00346 83.9692 7.28943 84.2672 7.52342C84.5522 7.7574 84.8761 7.93938 85.2259 8.06937L84.1246 7.82239C84.1246 7.82239 84.3319 8.13437 84.5522 8.51133C84.7724 8.8883 86.0033 10.3702 86.6641 11.4881C87.3119 12.606 88.8407 14.6598 89.2423 15.2058C89.4367 15.5178 89.644 15.8038 89.8642 16.0897C90.3177 16.5577 90.9914 17.0907 91.2376 17.3246C91.4838 17.5586 92.0927 18.0656 92.0927 18.0656L90.4084 17.0647C90.4084 17.0647 90.24 17.0517 90.3825 17.3506C90.5509 17.8056 90.7712 18.2606 91.0044 18.6895C91.2765 19.0925 91.6392 19.7034 91.6392 19.7034C91.2117 19.3135 90.823 18.8845 90.4602 18.4425C89.929 17.7796 87.3766 14.7508 85.4332 12.749C83.3732 10.6172 81.1836 8.60233 78.8903 6.71748C77.3874 5.59957 76.338 4.71564 75.0812 3.9487C73.8244 3.18176 72.7102 2.11585 71.7255 1.59589C71.1684 1.29691 70.6243 0.971939 70.106 0.620968C70.106 0.620968 70.1838 0.646965 70.106 1.23192C70.0283 2.57081 70.1708 3.9227 70.5336 5.2096C71.3239 6.4835 72.2049 7.6924 73.1896 8.83631C73.4358 9.26528 73.7985 9.60325 74.239 9.81123C74.8609 10.1622 75.5347 10.2922 75.7938 10.4482L76.014 10.6172C75.6901 10.6562 75.3662 10.6302 75.0553 10.5392C74.7832 10.4352 74.4982 10.3702 74.2002 10.3312C74.6148 10.6172 75.0164 10.9421 75.3792 11.3061C75.7031 11.7091 76.8821 12.944 77.0635 13.126L77.4392 13.4769C77.4392 13.4769 76.312 12.736 75.4051 11.9951C74.5111 11.2541 72.477 9.82423 71.298 8.9013C70.3522 8.21236 69.3287 7.62741 68.2662 7.14644C67.2168 6.57449 66.5819 6.24952 66.5819 6.24952C66.5819 6.24952 66.4265 5.79455 66.4265 6.65249C66.5172 8.00438 66.8281 9.33027 67.3463 10.5912C67.9812 11.5921 68.7327 12.502 69.6007 13.308C69.9894 13.6199 70.3652 13.9579 70.702 14.3219C70.702 14.3219 69.3416 13.5809 68.2662 12.983C67.5666 12.58 66.841 12.242 66.0766 11.9561C65.6361 11.7611 65.1697 11.6051 64.7033 11.5011C64.5737 11.5011 64.483 11.5271 64.5737 12.0341C65.1049 13.5419 65.8305 14.9718 66.7244 16.2977C67.8646 17.4156 69.0825 18.4425 70.3522 19.3915C70.8834 19.7294 71.6478 20.2754 71.6478 20.2754L72.1531 20.7694C71.298 20.2364 70.417 19.7684 69.51 19.3395C68.5124 18.9105 67.3593 18.4425 66.4005 18.0786C65.4418 17.7146 64.7421 17.7926 64.3405 17.6236C63.9389 17.4546 64.0166 17.8836 64.185 18.2866C64.6774 19.4565 65.3381 20.5484 66.1155 21.5493C66.569 21.9263 67.6702 22.7452 68.2144 23.1482C67.9942 23.0832 67.7739 23.0442 67.5407 23.0052C66.854 22.8752 66.1673 22.7972 65.4807 22.7452C65.3511 22.7452 64.8717 22.6282 65.0272 23.2262C65.377 24.1491 65.8434 25.007 66.4265 25.8C67.1002 26.5409 67.8646 27.2038 68.6808 27.7758C69.4841 28.3218 72.9046 30.2066 73.3451 30.4926C73.7856 30.7786 75.6513 31.6625 75.6513 31.6625C75.6513 31.6625 75.9104 31.7535 75.0812 31.6885C73.8763 31.4415 72.6713 31.2855 71.4535 31.2205C70.6372 31.1945 69.821 31.2465 69.0177 31.3765C68.5772 31.4805 68.1755 31.6755 67.8387 31.9745C67.735 32.0654 67.7869 32.5464 68.0848 32.8064C68.3828 33.0664 69.7044 33.9763 70.0672 34.2103C70.4299 34.4443 71.7255 35.1462 71.9458 35.2242L72.4511 35.4192C72.4511 35.4192 71.8421 35.4452 71.4276 35.4452C70.5984 35.4062 69.7562 35.4972 68.9529 35.7052C68.5513 35.8741 68.1755 36.1081 67.8516 36.3941C68.0849 36.7451 68.3958 37.0311 68.7456 37.252C69.7562 37.85 70.7927 38.3699 71.881 38.8249C72.5807 39.1109 73.9151 39.5139 73.9151 39.5139C73.5005 39.7738 73.0082 39.9038 72.5159 39.8648C71.6867 39.8908 70.8704 40.1378 70.1578 40.5798C69.6007 40.9177 69.4064 41.0087 69.4323 41.2687C70.0024 41.8407 70.715 42.2306 71.4923 42.4126C72.5418 42.7636 74.0706 43.1536 74.0706 43.1536C73.6042 43.2576 73.1378 43.4135 72.6973 43.6085C72.0883 43.8815 71.4923 44.1935 70.9223 44.5315C70.7668 44.7004 70.4947 45.0254 71.0518 45.1944C71.6089 45.3634 74.239 46.1693 74.7055 46.2083C75.1719 46.2473 75.9104 46.3903 75.9104 46.3903C75.1719 46.4033 74.4334 46.5463 73.7337 46.7933C73.06 47.1442 72.5029 47.3912 72.3734 47.6512C72.2438 47.9112 72.1401 48.1062 72.5418 48.2492C72.9434 48.3921 73.9281 48.7691 74.2261 48.8601C74.6148 48.9511 75.0035 49.0161 75.4051 49.0551C75.0035 49.1331 74.6148 49.2501 74.2261 49.4061C73.9281 49.5751 73.2544 49.978 73.2026 50.199C73.1507 50.42 72.9564 50.628 73.5005 50.9139C74.1224 51.1869 74.7703 51.4079 75.431 51.5639L76.0788 51.6029L75.1071 52.0059L74.3816 52.9028C74.848 53.2668 75.4181 53.5007 76.0011 53.5917H77.6206C77.3356 53.7347 77.0765 53.9167 76.8432 54.1377C76.4416 54.5147 76.014 54.9696 76.61 55.1906C77.2838 55.3986 77.9704 55.5156 78.6701 55.5416C79.1754 55.5676 79.6936 55.5416 79.6936 55.5416C79.6936 55.5416 79.4863 55.6846 79.2142 55.8925C78.9422 56.1135 79.1365 56.1005 78.6701 56.2435C75.431 56.5685 72.1661 56.6465 68.9011 56.4905C65.2863 56.2435 58.7564 55.8535 54.9473 55.8535C50.5551 55.8665 46.163 56.2305 41.8226 56.9455C37.1973 57.7904 32.6108 58.8823 28.089 60.2082C23.8524 61.4691 17.9184 63.7049 16.1693 64.3549C14.7701 64.8358 13.4356 65.4858 12.1918 66.2917C11.4144 66.6817 10.7018 67.1756 10.067 67.7606C10.067 67.7606 12.8137 66.6167 13.902 66.1877C14.9774 65.7588 15.8584 65.4728 15.8584 65.4728C15.8584 65.4728 14.3555 66.5647 13.902 66.9547C13.4485 67.3316 13.1894 67.5916 13.4485 67.5526C14.6664 67.1626 15.8584 66.7077 17.0374 66.2007C17.6334 65.8887 18.2682 65.6288 18.9161 65.4338C19.9137 65.1218 20.6651 64.7188 21.4943 64.3809C22.1292 64.1079 22.7511 63.8089 23.3471 63.4709C23.956 63.4059 24.5779 63.2889 25.1739 63.133C26.0679 62.873 27.5578 62.301 27.9595 62.132C28.3611 61.9631 28.6073 61.8981 28.6073 61.8981L28.089 62.496C28.0372 62.613 27.7133 62.873 28.3352 62.73C29.2033 62.483 30.0454 62.171 30.8617 61.7941C31.3411 61.5861 31.8593 61.3131 32.0796 61.2221L32.9606 60.9361L31.7816 61.5991C31.7297 61.6251 32.0018 61.8201 32.8828 61.6901C33.7639 61.5731 35.9405 60.9751 35.9405 60.9751L36.0182 61.1831C36.7827 61.1051 37.5471 60.9621 38.2726 60.7282C38.7131 60.5982 39.1407 60.4552 39.5682 60.2732L39.3609 60.6502C39.335 60.7282 38.9334 60.8581 39.7885 60.8581C40.9286 60.7412 42.0558 60.5072 43.1442 60.1432C43.4422 60.0392 43.7531 59.9742 44.077 59.9352L43.9474 60.1432C44.0511 60.1822 45.7224 60.0262 46.5257 59.9352C46.9792 59.9352 47.4197 59.8702 47.8602 59.7402C48.4562 59.5972 49.7907 59.3113 49.9332 59.2853L50.8661 59.0513L50.0887 59.6752C49.985 59.7922 50.1405 59.9092 50.8401 59.8702C51.5398 59.8182 53.2889 59.5063 53.6905 59.4413L54.6234 59.2203L53.4443 60.0132C53.3666 60.1042 53.1982 60.2212 53.6516 60.2212C54.1051 60.2212 55.9319 59.9612 56.4372 59.8832C56.9296 59.7922 57.4219 59.6622 57.8883 59.5063C58.2381 59.3893 58.6009 59.3113 58.9637 59.2723L58.264 59.7922C58.1863 59.9612 58.1345 60.0132 58.4325 60.0132C58.7305 60.0132 60.0131 59.8702 60.7646 59.7532C61.5161 59.6362 62.5137 59.2983 63.1226 59.1423C63.7316 58.9863 63.8482 59.0513 63.8482 59.0513L63.8741 59.2723C64.4053 59.3113 64.9365 59.3243 65.4807 59.2983C65.8046 59.2463 66.4135 59.1033 66.556 59.0903L66.8799 58.9733L66.7763 59.1943C66.7763 59.2853 66.556 59.5452 67.4759 59.5713C68.2533 59.5452 69.0306 59.4413 69.7821 59.2333C70.0283 59.1553 70.3004 59.1163 70.5595 59.1163C72.1142 59.2203 73.669 59.4543 75.1848 59.8312C76.3898 60.3122 77.5558 60.9101 78.6701 61.5991C79.1235 61.7941 79.5122 62.093 79.7973 62.483C80.0046 63.133 80.1082 63.8089 80.1212 64.4849C80.186 65.1738 80.3414 65.8627 80.5746 66.5257L80.7819 67.0717L80.7042 67.2666C80.471 67.2666 79.3956 67.4876 79.0069 67.5006C78.5146 67.5786 78.0223 67.6176 77.5299 67.6436C77.1283 67.6436 76.8044 67.6696 76.6748 67.8516C76.4934 68.2936 76.4675 68.7745 76.61 69.2295C76.8173 69.5155 76.7526 69.8404 77.9575 70.0744C79.0976 70.3604 80.2119 70.7634 81.2613 71.2963C81.7407 71.4653 82.2071 71.6863 82.6347 71.9593C82.8808 72.0893 83.0493 72.3362 83.0881 72.6092C83.2954 73.2332 83.6064 73.8181 84.021 74.3251C84.2412 74.5851 84.7984 75.157 84.7984 75.157C84.7984 75.157 84.9668 75.248 84.9668 76.4439V92.8226H81.054C80.1082 92.8226 79.6547 92.5626 79.6547 91.5097V76.4829H77.2449C76.4416 76.4049 75.729 76.9769 75.6513 77.7828C75.6383 77.8478 75.6383 77.9128 75.6383 77.9908V113.621H79.6547V96.5923H84.008C84.5004 96.5923 84.902 96.9563 84.9538 97.4502V113.621H88.9573V77.9778C88.9703 77.4058 88.6593 76.8859 88.1411 76.6389C87.9208 76.3269 87.6746 75.9759 87.4414 75.638C86.8454 74.728 86.3142 73.7791 85.8478 72.8042C85.6405 72.1672 85.2777 71.5953 84.7984 71.1403C84.306 70.7634 83.71 70.5164 83.1011 70.4254C82.4921 70.3084 81.1706 69.8534 80.6653 69.7104C80.16 69.5675 79.7195 69.4505 79.7195 69.3595C79.7195 69.2685 79.7713 69.1645 80.471 68.8135C81.7407 68.3715 83.0622 68.0726 84.4097 67.9296C86.1069 67.6696 87.9597 67.5266 89.1128 67.3836C89.9808 67.3316 90.823 67.1756 91.6522 66.9027C92.3777 66.5907 94.1786 65.4468 94.1786 65.4468C95.267 65.4338 96.3553 65.3428 97.4307 65.1608C98.2339 64.9528 99.2834 64.7058 99.2834 64.7058L99.1797 64.9138C99.5296 64.8358 99.8664 64.7318 100.19 64.6018C100.864 64.3679 101.395 64.2379 101.395 64.2379L101.188 64.6148L101.991 64.3029L103.416 63.5229L103.248 63.9779C103.701 63.8219 104.142 63.6009 104.544 63.3409C105.023 62.912 105.463 62.444 105.878 61.9371L105.956 62.106C106.267 61.7031 106.513 61.2611 106.707 60.7931C106.772 60.5332 106.863 60.2732 106.979 60.0262L107.031 60.3122C107.057 59.9872 107.135 59.6752 107.251 59.3763C108.094 58.6613 109.001 57.9984 109.933 57.4004C110.18 57.2314 110.413 57.0364 110.633 56.8285L110.555 57.1144L111.281 56.4255C111.423 56.1655 111.592 55.9315 111.786 55.7106L111.812 55.9315C112.084 55.7106 112.317 55.4506 112.512 55.1646C112.849 54.7096 113.47 54.0727 113.976 53.3837C114.701 52.3698 115.479 51.4079 116.334 50.498C116.93 49.757 117.824 49.3021 118.77 49.2631C119.482 49.1591 120.208 49.3021 120.83 49.666C121.102 49.861 121.413 50.121 121.413 50.121C121.646 50.407 121.918 50.654 122.229 50.8619C122.656 51.1869 123.149 51.4209 123.68 51.5249C124.341 51.6809 125.014 51.7849 125.688 51.8369C126.44 51.8369 127.813 51.9279 128.72 52.0189C129.627 52.1098 129.925 52.1878 130.948 52.3958C131.454 52.5518 131.998 52.6298 132.529 52.6168C132.801 52.5648 133.034 52.3958 133.177 52.1618M10.1965 78.4977C10.0411 77.4968 9.74306 76.4699 8.09763 76.4699H5.92099L0 113.647H4.40511L7.91624 88.091L11.4274 113.647H15.8325L10.1965 78.4977ZM33.9712 76.4829H26.6639V113.621H30.6933V97.6582H32.7921C33.8675 97.6582 34.8651 98.2562 34.8651 100.037V113.621H38.8686V99.4001C38.8686 99.4001 38.9982 96.6573 37.4175 95.9034C39.037 95.5394 38.8686 92.6146 38.8686 92.6146V81.1495C38.8038 78.4977 36.6142 76.4179 33.9712 76.4829ZM32.8051 80.0186C33.8287 79.9016 34.7485 80.6296 34.8781 81.6565C34.8911 81.7605 34.8911 81.8645 34.8911 81.9555V91.9127C35.0465 92.9266 34.3599 93.8885 33.3363 94.0445C33.1679 94.0705 32.9865 94.0705 32.8051 94.0575H30.7062V80.0186H32.8051ZM51.3584 80.8375V109.279C51.4361 111.97 53.6776 114.076 56.3595 113.998H58.8212C61.4254 113.985 63.5502 111.892 63.6279 109.279V100.297C62.6173 100.726 61.0496 101.363 60.7128 101.532C59.9872 101.948 59.5726 102.754 59.6633 103.586V108.59C59.6115 109.786 58.6009 110.709 57.4219 110.657C56.3077 110.605 55.4137 109.708 55.3619 108.59V81.4875C55.4396 80.2916 56.4631 79.3817 57.6422 79.4597C58.7305 79.5247 59.5985 80.3956 59.6633 81.4875V89.7938L62.5785 88.5329C63.317 88.143 63.7445 87.324 63.6279 86.4921V80.8246C63.5631 78.1988 61.4383 76.1059 58.8212 76.1059H56.3595C53.6905 76.0279 51.4491 78.1468 51.3584 80.8375ZM105.671 76.4699L99.7498 113.608H104.155L107.692 88.052L111.203 113.608H115.608L109.972 78.4977C109.791 77.4968 109.519 76.4699 107.834 76.4699H105.671Z" fill="black"/>
</svg>
