<svg width="180" height="68" viewBox="0 0 180 68" fill="none" xmlns="http://www.w3.org/2000/svg">
<path d="M127.013 12.7097C128.805 12.2819 130.963 12.324 132.399 13.6333C134.142 15.2017 133.737 18.3581 131.747 19.5474C129.527 20.8631 126.073 20.5487 124.686 18.1734C123.516 16.122 124.738 13.2962 127.016 12.7064L127.013 12.7097Z" fill="black"/>
<path d="M55.0967 16.5528C62.0608 16.5593 69.0313 16.5366 76.0019 16.5658C75.9889 18.2056 75.9987 19.8486 75.9922 21.4915C72.4729 25.6525 68.8142 29.7 65.3954 33.942C69.1123 33.9485 72.8228 33.942 76.5398 33.9452C76.5463 36.0225 76.5431 38.1029 76.5431 40.1802C69.2906 40.1834 62.0381 40.1867 54.7823 40.1802C54.8018 38.6798 54.7499 37.1761 54.7888 35.679C54.737 35.2253 55.0967 34.9012 55.3397 34.5739C58.7229 30.656 62.0996 26.7316 65.4569 22.791C62.0089 22.7943 58.5544 22.7846 55.1064 22.7975C55.087 20.7138 55.0999 18.6333 55.0999 16.5528H55.0967Z" fill="black"/>
<path d="M86.7574 21.4266C90.1114 21.0961 93.7604 21.8057 96.2556 24.2103C99.7523 27.3893 100.015 33.3521 96.9653 36.92C95.3159 38.8611 92.8886 40.0666 90.3772 40.4004C86.8481 40.893 82.9497 40.1703 80.3215 37.6232C76.8605 34.4215 76.5851 28.4685 79.6799 24.9329C81.4298 22.8622 84.0806 21.6826 86.7509 21.4298L86.7574 21.4266ZM87.0588 27.6291C85.0982 28.6661 84.9038 31.5082 85.957 33.2581C86.9 34.8978 89.58 34.9367 90.591 33.3488C91.4887 31.9489 91.5341 29.9786 90.6364 28.5657C89.8911 27.412 88.2708 27.0782 87.0588 27.6291Z" fill="black"/>
<path d="M108.654 23.4037C111.269 21.0736 115.339 20.7204 118.392 22.3667C120.644 23.6402 121.743 26.291 121.769 28.7896C121.782 32.5876 121.769 36.3856 121.772 40.1836H114.131C114.127 37.2216 114.131 34.263 114.131 31.301C114.102 30.2835 114.082 29.1233 113.321 28.3456C112.235 27.4253 110.385 27.8141 109.649 28.997C109.079 29.8525 109.066 30.9219 109.053 31.9135C109.072 34.6616 109.04 37.4128 109.075 40.1641C106.496 40.2095 103.916 40.1771 101.34 40.1868C101.346 34.0232 101.327 27.8563 101.35 21.6926C103.8 21.7283 106.246 21.6634 108.696 21.7347C108.677 22.2889 108.667 22.8495 108.654 23.4069V23.4037Z" fill="black"/>
<path d="M141.933 21.5719C144.341 21.1117 147.154 21.2867 149.001 23.095C148.994 22.6283 148.998 22.1584 149.007 21.6918C151.441 21.7048 153.871 21.7048 156.305 21.6918C156.341 30.0396 156.308 38.3875 156.321 46.732C153.748 46.7385 151.175 46.7385 148.602 46.732C148.615 44.1849 148.576 41.641 148.625 39.0939C145.002 41.7447 139.35 40.6267 136.803 36.9843C134.972 34.4793 134.694 31.1382 135.332 28.1763C136.048 24.9583 138.683 22.233 141.933 21.5687V21.5719ZM144.47 27.661C142.597 28.7401 142.396 31.4817 143.398 33.2187C144.289 34.7904 146.778 34.9621 147.906 33.5719C148.968 32.227 149.007 30.2146 148.204 28.7369C147.504 27.4471 145.747 27.0323 144.467 27.661H144.47Z" fill="black"/>
<path d="M125.058 21.6897C127.599 21.7026 130.136 21.7091 132.677 21.6897C132.712 27.8533 132.683 34.017 132.693 40.1806C130.146 40.1839 127.595 40.1871 125.051 40.1806C125.058 34.0202 125.038 27.8565 125.061 21.6897H125.058Z" fill="black"/>
<path d="M157.766 21.6897C160.669 21.7123 163.57 21.7026 166.473 21.6961C167.339 22.9729 168.181 24.2627 169.053 25.5395C169.957 24.2757 170.871 23.0215 171.726 21.7285C174.442 21.6929 177.161 21.6702 179.873 21.7415C177.615 24.7196 175.385 27.7204 173.117 30.6953C175.382 33.8841 177.796 36.9627 180 40.1903C177.103 40.1547 174.202 40.2389 171.308 40.1547C170.271 39.0237 169.607 37.5881 168.706 36.3437C167.773 37.6173 166.872 38.9168 165.935 40.1903C163.139 40.1839 160.349 40.1903 157.555 40.1871C159.875 37.1377 162.205 34.098 164.526 31.0486C162.283 27.9214 159.992 24.8266 157.763 21.6929L157.766 21.6897Z" fill="black"/>
<path d="M0 22.0394C1.17958 20.9506 2.35593 19.8455 3.53551 18.7308C10.1107 12.5088 16.3035 6.24791 22.1334 0H22.182C29.5739 7.43398 36.9852 14.8582 44.2928 22.3797C42.8961 23.6597 41.5804 25.0273 40.1772 26.3009C34.2209 20.215 28.148 14.2522 22.1788 8.1858C18.0924 12.3079 13.9573 16.4364 9.77046 20.5714C7.8909 22.4283 6.01134 24.2787 4.13179 26.1161C2.75452 24.7583 1.37726 23.4005 0 22.0427V22.0394Z" fill="black"/>
<path d="M0 34.6454C7.36592 27.2276 14.7934 19.8682 22.1691 12.4569C27.461 17.8007 32.808 23.0894 38.0481 28.4882C40.1124 30.6238 42.3095 32.6395 44.296 34.8463C42.9868 36.1814 41.5868 37.4194 40.2776 38.7545C37.6365 36.2074 35.1251 33.5274 32.471 30.9932C29.0197 27.6035 25.6884 24.1004 22.1982 20.7529C20.1923 22.4866 18.4586 24.5055 16.498 26.2878C12.3954 30.4131 8.21173 34.4574 4.11234 38.5892C2.72212 37.2962 1.35782 35.9741 0.00324069 34.6454H0Z" fill="black"/>
<path d="M21.8806 24.9138C29.2563 31.8584 36.4796 38.9683 43.8099 45.9681C44.0627 46.237 44.6006 46.5773 44.0627 46.8657C36.713 53.8687 29.3049 60.8101 21.9681 67.8228C14.6055 60.7647 7.30111 53.6451 0 46.5157C2.81286 43.8779 5.48636 41.1007 8.23441 38.398C11.1348 35.6435 13.9152 32.7658 16.7702 29.9659C18.5169 28.3294 20.202 26.6216 21.8839 24.9138H21.8806Z" fill="black"/>
</svg>
