<svg width="180" height="54" viewBox="0 0 180 54" fill="none" xmlns="http://www.w3.org/2000/svg">
<path d="M26.4833 0H27.4436C30.9274 0.0693109 34.3986 0.803826 37.5976 2.19004C41.3141 3.7914 44.6622 6.24518 47.3087 9.31106C49.719 12.0862 51.5561 15.36 52.6557 18.8706C53.8738 22.7277 54.2026 26.862 53.625 30.8649C52.3287 30.8613 51.0324 30.8649 49.7361 30.8631C50.4224 26.7342 49.993 22.4198 48.4523 18.5258C46.3026 13.0034 41.9393 8.39472 36.5528 5.94543C30.3515 3.06768 22.8602 3.1667 16.7488 6.23618C11.3147 8.8862 7.01968 13.7776 5.08554 19.5151C3.74071 23.4334 3.49187 27.7172 4.33901 31.7705C5.32899 36.5601 7.90006 40.996 11.5411 44.25C15.6743 47.9883 21.1965 50.1379 26.7671 50.1496C31.4574 50.1514 36.1486 50.1433 40.8397 50.1541C36.807 52.5926 32.1276 53.9293 27.4193 54.0085H26.4563C22.6078 53.932 18.771 53.0417 15.3033 51.3603C9.64555 48.6607 4.9975 43.9098 2.41476 38.1894C0.879481 34.8355 0.0682743 31.1593 0 27.4732V26.5056C0.0763595 22.6512 0.964824 18.8094 2.64114 15.3366C5.32899 9.68192 10.0525 5.03269 15.7426 2.44028C19.1015 0.88844 22.7866 0.0693109 26.4833 0Z" fill="#141414"/>
<path d="M18.6052 9.62068C21.5958 8.16066 24.9754 7.52966 28.2921 7.76189C31.5575 7.98423 34.7655 9.0581 37.4965 10.8683C40.6335 12.9188 43.1462 15.9109 44.6276 19.3575C46.1871 22.95 46.5986 27.0276 45.8125 30.864C44.4955 30.8604 43.1786 30.8694 41.8616 30.8595C42.8947 26.907 42.273 22.5476 40.1502 19.0569C38.8764 16.9361 37.0878 15.1305 34.9802 13.8387C32.7335 12.457 30.1265 11.6748 27.4916 11.5875C24.3025 11.4651 21.0828 12.3742 18.4318 14.1547C16.3818 15.5157 14.6677 17.3781 13.4774 19.533C12.0517 22.0912 11.3942 25.068 11.5846 27.9908C11.8218 32.1269 13.8332 36.1136 16.9953 38.7772C19.3526 40.7863 22.327 42.0627 25.4102 42.3579C26.3382 42.4632 27.2733 42.4227 28.2049 42.4308C35.1599 42.4299 42.114 42.4308 49.0681 42.4299C48.1177 43.8198 47.0118 45.0971 45.8269 46.2897C39.5942 46.2897 33.3623 46.2897 27.1305 46.2897C23.2685 46.342 19.3957 45.1853 16.203 43.0042C12.5036 40.5297 9.72054 36.7203 8.47813 32.442C7.4046 28.7883 7.44683 24.816 8.59312 21.1848C10.1562 16.1701 13.87 11.8773 18.6052 9.62068Z" fill="#141414"/>
<path d="M84.4042 10.42C87.5439 10.1841 90.7654 10.7998 93.5413 12.3075C97.2407 14.2627 100.066 17.7615 101.275 21.7671C102.51 25.816 102.247 30.3194 100.503 34.1792C99.032 37.453 96.4429 40.2164 93.2448 41.8457C88.118 44.4912 81.5834 44.2023 76.7521 41.0239C73.8459 39.1363 71.6108 36.2603 70.4421 32.9982C69.0559 29.1492 69.0317 24.8114 70.4205 20.9606C71.5704 17.7696 73.7471 14.9558 76.5724 13.0808C78.8919 11.5271 81.6256 10.6234 84.4042 10.42ZM84.3171 14.7496C82.3263 14.9774 80.3967 15.7317 78.7913 16.9352C76.0577 18.9479 74.3337 22.1956 74.0256 25.5648C73.6573 29.1528 74.7434 32.9334 77.2048 35.6041C79.3178 37.9607 82.4521 39.3397 85.6116 39.337C88.171 39.3766 90.7393 38.5359 92.7606 36.957C94.4414 35.6563 95.7503 33.8875 96.5328 31.9117C97.5955 29.2275 97.7653 26.1967 97.0098 23.4108C96.3576 21.0083 94.9643 18.8003 93.0256 17.2349C90.6217 15.2573 87.3957 14.3743 84.3171 14.7496Z" fill="#141414"/>
<path d="M149.011 10.8355C150.426 10.8364 151.842 10.8364 153.257 10.8355C153.258 21.6147 153.258 32.3948 153.257 43.174C151.843 43.1722 150.429 43.1749 149.015 43.1722C149.013 41.6329 149.008 40.0937 149.018 38.5545C148.192 40.1549 146.947 41.5645 145.363 42.4395C143.887 43.2685 142.184 43.6322 140.501 43.6358C138.456 43.6556 136.407 43.0489 134.702 41.9156C132.133 40.2386 130.363 37.459 129.765 34.4615C129.32 32.2814 129.451 29.9833 130.159 27.8734C130.739 26.1496 131.71 24.5546 132.998 23.2701C134.437 21.8361 136.284 20.8118 138.273 20.3923C140.021 20.0277 141.86 20.1034 143.573 20.6065C145.254 21.1025 146.775 22.1188 147.87 23.4897C148.317 24.0307 148.682 24.6329 149.019 25.2468C149.003 20.4436 149.02 15.6396 149.011 10.8355ZM140.458 24.2782C138.516 24.4726 136.662 25.4493 135.419 26.9606C134.276 28.3172 133.658 30.094 133.661 31.8655C133.639 33.6694 134.267 35.4805 135.432 36.8604C136.642 38.3231 138.429 39.2782 140.307 39.5086C141.948 39.7075 143.66 39.4339 145.123 38.6508C146.642 37.8514 147.856 36.485 148.467 34.8774C149.073 33.3273 149.164 31.5919 148.794 29.9743C148.4 28.2649 147.393 26.6924 145.961 25.6752C144.391 24.5276 142.376 24.082 140.458 24.2782Z" fill="#141414"/>
<path d="M20.6157 17.3304C22.505 16.0747 24.7742 15.4095 27.0389 15.4365C29.5893 15.4419 32.1245 16.3393 34.1179 17.9326C35.6056 19.1109 36.7968 20.6627 37.5514 22.4063C38.7075 25.0563 38.8001 28.1384 37.846 30.864C36.4347 30.8622 35.0243 30.8658 33.6139 30.8622C34.3811 29.5705 34.727 28.0412 34.6371 26.5434C34.532 24.636 33.6795 22.7808 32.2996 21.4621C30.9144 20.0956 28.9847 19.308 27.0434 19.2954C25.4659 19.2684 23.8839 19.75 22.5894 20.6537C21.25 21.5737 20.2043 22.9266 19.6824 24.4703C19.0221 26.3453 19.129 28.4814 19.9815 30.2771C20.8475 32.144 22.4906 33.6356 24.4373 34.2999C25.3276 34.6158 26.278 34.7382 27.2204 34.7229C35.7412 34.7229 44.262 34.7229 52.7828 34.7229C52.3894 36.0407 51.9025 37.3315 51.3087 38.571C43.8182 38.571 36.3278 38.571 28.8374 38.571C27.4926 38.5566 26.1352 38.6476 24.8074 38.3775C22.4583 37.9373 20.2591 36.7393 18.6106 35.0056C17.2883 33.6248 16.31 31.9118 15.8105 30.0629C15.1511 27.6406 15.2912 25.0005 16.2408 22.6745C17.1095 20.5007 18.6627 18.6131 20.6157 17.3304Z" fill="#141414"/>
<path d="M113.602 20.8331C115.207 20.1229 117.023 20.0401 118.741 20.302C120.509 20.5684 122.242 21.3183 123.522 22.5911C124.682 23.691 125.453 25.1538 125.882 26.684C126.23 27.9298 126.359 29.2287 126.341 30.5195C126.341 34.7376 126.34 38.9556 126.342 43.1728C124.927 43.1737 123.512 43.171 122.096 43.1746C122.097 39.493 122.096 35.8114 122.097 32.1308C122.085 31.0497 122.163 29.9524 121.905 28.8921C121.591 27.4221 120.749 26.0386 119.48 25.2114C118.027 24.25 116.179 24.0529 114.497 24.3751C113.171 24.6308 111.919 25.3383 111.094 26.4185C110.453 27.2322 110.054 28.2188 109.876 29.2359C109.701 30.1325 109.751 31.0488 109.744 31.957C109.744 35.6953 109.745 39.4336 109.744 43.1728C108.314 43.1737 106.885 43.1728 105.457 43.1728C105.451 35.6566 105.457 28.1413 105.453 20.6252C106.884 20.6243 108.314 20.6252 109.745 20.6243C109.741 21.9412 109.747 23.259 109.742 24.5768C110.553 22.9403 111.916 21.5559 113.602 20.8331Z" fill="#141414"/>
<path d="M167.139 20.2299C169.209 20.0175 171.341 20.337 173.236 21.2039C174.965 21.9825 176.489 23.2058 177.63 24.7216C179.925 27.738 180.577 31.8732 179.481 35.4855C178.543 38.6675 176.144 41.3787 173.092 42.6722C169.381 44.2907 164.834 43.8613 161.541 41.4822C160.087 40.4471 158.895 39.0537 158.075 37.4685C156.306 34.048 156.329 29.7768 158.086 26.3572C158.83 24.9313 159.86 23.6495 161.126 22.6549C162.84 21.2849 164.959 20.4441 167.139 20.2299ZM167.416 24.2904C165.382 24.5218 163.471 25.6568 162.311 27.3491C160.26 30.2593 160.455 34.6034 162.913 37.2192C163.855 38.2417 165.093 38.9861 166.44 39.3273C168.39 39.8305 170.547 39.5559 172.27 38.4947C173.681 37.6422 174.779 36.2947 175.35 34.7483C175.989 33.0479 176.003 31.1342 175.46 29.4059C174.983 27.9288 174.055 26.5966 172.806 25.6731C171.279 24.5308 169.3 24.0501 167.416 24.2904Z" fill="#141414"/>
</svg>
