<svg width="50" height="50" viewBox="0 0 50 50" fill="none" xmlns="http://www.w3.org/2000/svg">
<circle cx="10" cy="11" r="10" fill="#FF6719"/>
<path d="M25 0C11.1907 0 0 11.1935 0 25C0 38.8064 11.1907 49.9999 25 49.9999C38.8092 49.9999 49.9999 38.8064 49.9999 25C49.9999 11.1935 38.8093 0 25 0ZM25 48.0264C12.3032 48.0264 1.97354 37.6969 1.97354 25C1.97354 12.3031 12.3032 1.97373 25 1.97373C37.6967 1.97373 48.0264 12.3032 48.0264 25.0001C48.0264 37.697 37.6967 48.0264 25 48.0264Z" fill="#343437"/>
<path d="M24.9996 5.26367C14.0983 5.26367 5.2627 14.1012 5.2627 25.0006C5.2627 35.9001 14.0983 44.7376 24.9996 44.7376C35.9023 44.7376 44.7366 35.9001 44.7366 25.0006C44.7366 14.1012 35.9023 5.26367 24.9996 5.26367ZM24.9996 42.7637C15.2049 42.7637 7.23643 34.7952 7.23643 25.0004C7.23643 15.2057 15.2049 7.23731 24.9996 7.23731C34.7944 7.23731 42.7629 15.2058 42.7629 25.0005C42.7629 34.7953 34.7944 42.7637 24.9996 42.7637Z" fill="#343437"/>
<path d="M28.7565 25.2592C27.9776 24.6883 27.0875 24.381 26.2112 24.1326C26.1252 24.1088 26.041 24.089 25.9555 24.0663V19.0691C26.6991 19.1989 27.2502 19.4413 27.6164 19.7275C27.8932 19.9434 28.0819 20.1818 28.2097 20.4487C28.3376 20.7156 28.4064 21.0184 28.4064 21.3713C28.4064 21.9204 28.8515 22.3649 29.4006 22.3649C29.9496 22.3649 30.3947 21.9197 30.3947 21.3713C30.3947 20.7521 30.2669 20.1441 30.0025 19.591C29.6078 18.7591 28.9044 18.0796 27.9997 17.6411C27.4049 17.351 26.7168 17.1662 25.9564 17.0655V16.4231C25.9564 15.874 25.5113 15.4297 24.963 15.4297C24.4145 15.4297 23.9695 15.874 23.9695 16.4231V17.0133C23.3834 17.0683 22.8495 17.1875 22.3747 17.3683C21.3739 17.7458 20.6347 18.3962 20.1803 19.1261C19.7233 19.8566 19.5326 20.6487 19.532 21.3713C19.5299 22.1277 19.7128 22.8178 20.0612 23.3801C20.362 23.873 20.7725 24.2537 21.2135 24.5438C21.9912 25.0511 22.8654 25.3181 23.7291 25.5491C23.8098 25.5697 23.89 25.5902 23.9702 25.6101V31.0193C23.2251 30.9153 22.6608 30.6596 22.2772 30.333C21.7785 29.9019 21.5261 29.3648 21.5189 28.6607C21.5189 28.1116 21.0738 27.6672 20.5255 27.6672C19.9763 27.6672 19.532 28.1116 19.532 28.6607H19.5313C19.5247 29.8999 20.0552 31.0642 20.993 31.8491C21.77 32.5061 22.7939 32.9028 23.9695 33.0187V33.6472C23.9695 34.1956 24.4146 34.6407 24.963 34.6407C25.5114 34.6407 25.9565 34.1955 25.9565 33.6472V32.9863C26.8997 32.8789 27.7872 32.6366 28.5568 32.1597C29.1052 31.8179 29.5842 31.341 29.9072 30.7397C30.2325 30.1389 30.3947 29.4317 30.3933 28.6607C30.3954 27.8573 30.2212 27.1353 29.8893 26.5339C29.5997 26.007 29.199 25.5843 28.7565 25.2592ZM23.9691 23.553C23.212 23.3397 22.5675 23.0941 22.1795 22.7959C21.9543 22.625 21.8059 22.4528 21.6979 22.2429C21.5926 22.0317 21.519 21.7667 21.5184 21.372C21.5177 20.8739 21.7012 20.2738 22.149 19.8194C22.3755 19.5897 22.6703 19.383 23.0802 19.2261C23.3286 19.1314 23.6266 19.0598 23.9691 19.0149V23.553ZM28.159 29.796C28.0464 30.0039 27.902 30.1742 27.7099 30.3292C27.4238 30.5604 27.0191 30.7511 26.5045 30.8796C26.3336 30.922 26.1487 30.9551 25.9574 30.9836V26.1295C26.4117 26.2665 26.825 26.4168 27.1614 26.599C27.5833 26.8229 27.8781 27.0713 28.0761 27.3706C28.2716 27.672 28.4047 28.0494 28.4074 28.6616C28.4066 29.1642 28.308 29.5199 28.159 29.796Z" fill="#343437"/>
</svg>
