<svg id="Layer_1" data-name="Layer 1" xmlns="http://www.w3.org/2000/svg" viewBox="0 0 60 60"><defs><style>.cls-1{fill:#2fd184;}.cls-2{fill:#fff;}.cls-3{fill:#e1e5e5;}.cls-4{fill:#e9eded;}.cls-5{fill:#f1f5f5;}.cls-6{fill:#d0d4d4;}</style></defs><title>icon-xrp-finite</title><path class="cls-1" d="M37.19,24.67a9.43,9.43,0,0,1-14.38,0L14,15.14V44.86h0l8.81-9.53a9.43,9.43,0,0,1,14.38,0L46,44.86h0V15.14h0Z"/><path class="cls-2" d="M37.19,24.67,46,15.14H14l8.81,9.53A9.43,9.43,0,0,0,37.19,24.67Z"/><path class="cls-2" d="M37.19,35.33a9.43,9.43,0,0,0-14.38,0L14,44.86H46Z"/><polygon class="cls-3" points="46 44.86 60 60 60 0 46 15.14 46 44.86"/><polygon class="cls-4" points="14 15.14 0 0 0 60 14 44.86 14 15.14"/><polygon class="cls-5" points="60 0 30 0 0 0 14 15.14 14 15 30 15 46 15 46 15.14 60 0"/><polygon class="cls-6" points="46 44.86 46 45 30 45 14 45 14 44.86 0 60 30 60 60 60 46 44.86"/></svg>