<svg id="Layer_1" data-name="Layer 1" xmlns="http://www.w3.org/2000/svg" viewBox="0 0 60 60"><defs><style>.cls-1{fill:#2fd184;}.cls-2{fill:#e9eded;}.cls-3{fill:#e1e5e5;}.cls-4{fill:#d0d4d4;}.cls-5{fill:#f1f5f5;}</style></defs><title>icon-xrp-secure</title><path class="cls-1" d="M20,0A20,20,0,0,0,40,20V0Z"/><path class="cls-2" d="M60,40V20H40A20,20,0,0,0,60,40Z"/><rect class="cls-3" x="40" width="20" height="20"/><polygon class="cls-1" points="20 40 20 20 0 20 0 40 0.5 40 20 40"/><polygon class="cls-4" points="30 40 20 40 20 60 40 60 40 40 30 40"/><circle class="cls-3" cx="10" cy="10" r="10"/><circle class="cls-1" cx="50" cy="50" r="10"/><path class="cls-5" d="M20,20V40H40A20,20,0,0,0,20,20Z"/><path class="cls-2" d="M20,60H0V40A20,20,0,0,1,20,60Z"/></svg>