<?xml version="1.0" encoding="UTF-8" standalone="no"?>
<!-- Created with Inkscape (http://www.inkscape.org/) -->

<svg
   xmlns:dc="http://purl.org/dc/elements/1.1/"
   xmlns:cc="http://creativecommons.org/ns#"
   xmlns:rdf="http://www.w3.org/1999/02/22-rdf-syntax-ns#"
   xmlns:svg="http://www.w3.org/2000/svg"
   xmlns="http://www.w3.org/2000/svg"
   xmlns:sodipodi="http://sodipodi.sourceforge.net/DTD/sodipodi-0.dtd"
   xmlns:inkscape="http://www.inkscape.org/namespaces/inkscape"
   width="220"
   height="250"
   viewBox="0 0 58.208332 66.145835"
   version="1.1"
   id="svg1459"
   inkscape:version="0.92.2 2405546, 2018-03-11"
   sodipodi:docname="airplane.svg">
  <defs
     id="defs1453" />
  <sodipodi:namedview
     id="base"
     pagecolor="#ffffff"
     bordercolor="#666666"
     borderopacity="1.0"
     inkscape:pageopacity="0.0"
     inkscape:pageshadow="2"
     inkscape:zoom="0.35"
     inkscape:cx="-680.00018"
     inkscape:cy="118.58105"
     inkscape:document-units="mm"
     inkscape:current-layer="layer1"
     showgrid="false"
     units="px"
     fit-margin-top="10"
     fit-margin-left="10"
     fit-margin-right="10"
     fit-margin-bottom="10"
     inkscape:window-width="1920"
     inkscape:window-height="1022"
     inkscape:window-x="0"
     inkscape:window-y="1"
     inkscape:window-maximized="1" />
  <metadata
     id="metadata1456">
    <rdf:RDF>
      <cc:Work
         rdf:about="">
        <dc:format>image/svg+xml</dc:format>
        <dc:type
           rdf:resource="http://purl.org/dc/dcmitype/StillImage" />
        <dc:title />
      </cc:Work>
    </rdf:RDF>
  </metadata>
  <g
     inkscape:label="Layer 1"
     inkscape:groupmode="layer"
     id="layer1"
     transform="translate(103.18745,-114.06207)">
    <path
       d="m -55.499907,127.01079 0.535445,0.0782 0.535445,0.0755 0.535445,0.0782 0.535445,0.22857 0.457145,0.22857 0.460275,0.22858 0.457145,0.3068 0.382043,0.38232 0.306872,0.38231 0.306872,0.46055 0.306805,0.38231 0.228572,0.45715 0.153335,0.53537 0.150272,0.46055 0.0783,0.53538 0.07503,0.53538 -0.07503,0.3068 -0.153334,0.22857 -0.228573,0.15306 -0.306872,0.0755 -0.306872,-0.0755 -0.228573,-0.15306 -0.153538,-0.22857 -0.07503,-0.3068 -0.0783,-0.68885 -0.228573,-0.76402 -0.382043,-0.61361 -0.457145,-0.61089 -0.613677,-0.45714 -0.688854,-0.38504 -0.764004,-0.22857 -0.763997,-0.0748 h -0.306872 l -0.228573,-0.23197 -0.153538,-0.22858 -0.07524,-0.3034 0.07524,-0.3068 0.153538,-0.22858 0.228573,-0.15306 z m 3.362854,-2.37028 -0.917406,0.0782 -0.99259,0.0748 -0.917406,0.22857 -1.377736,0.38232 -0.763997,0.23197 -0.688861,0.30341 -0.610547,0.38231 -0.535445,0.38504 -8.335153,8.41031 -24.319679,-6.65377 -0.457145,-0.0748 -0.382043,0.0748 -0.385104,0.15374 -0.381975,0.22857 -2.292005,2.37342 -0.231702,0.3034 -0.150273,0.3068 -0.0783,0.38232 v 0.3068 l 0.0783,0.30341 0.07524,0.23197 0.306873,0.45715 0.303743,0.23197 17.89457,11.62292 -10.170012,13.38252 -10.170006,-1.75967 h -0.306873 l -0.381975,0.0782 -0.306872,0.15034 -0.303743,0.23197 -1.149135,1.146 -0.22857,0.3068 -0.15354,0.38232 -0.0752,0.38231 v 0.38232 l 0.15333,0.46054 0.30374,0.45715 0.306877,0.22857 10.016583,5.58282 5.582846,10.01978 0.231702,0.3034 0.457145,0.30681 0.460275,0.15374 h 0.382042 l 0.381975,-0.0755 0.382043,-0.15306 0.306872,-0.23198 1.146013,-1.14599 0.228573,-0.3068 0.153334,-0.30341 0.0783,-0.38231 v -0.30681 l -1.759724,-10.17005 13.382588,-10.17311 11.622864,17.89458 0.228572,0.3068 0.460275,0.30681 0.228573,0.0755 0.306872,0.0782 h 0.306872 l 0.381975,-0.0782 0.303743,-0.15374 0.306873,-0.22858 2.370284,-2.29511 0.228573,-0.38231 0.153334,-0.38232 0.0783,-0.38231 -0.0783,-0.46055 -6.653695,-24.31659 8.413419,-8.33515 0.381974,-0.53538 0.382043,-0.6136 0.306873,-0.68572 0.228572,-0.76715 0.381975,-1.37456 0.231702,-0.91742 0.07524,-0.99572 0.07524,-0.91742 v -0.76402 -0.76402 l -0.150273,-0.61361 -0.231702,-0.53537 -0.228573,-0.53538 -0.306872,-0.38164 -0.381975,-0.30408 -0.535445,-0.23197 -0.535445,-0.22858 -0.610547,-0.15306 z"
       id="path36"
       inkscape:connector-curvature="0"
       style="fill:#f1f5f8;fill-rule:evenodd;stroke-width:1.799896;fill-opacity:1" />
  </g>
</svg>
