<?xml version="1.0" encoding="UTF-8" standalone="no"?>
<!-- Created with Inkscape (http://www.inkscape.org/) -->

<svg
   xmlns:dc="http://purl.org/dc/elements/1.1/"
   xmlns:cc="http://creativecommons.org/ns#"
   xmlns:rdf="http://www.w3.org/1999/02/22-rdf-syntax-ns#"
   xmlns:svg="http://www.w3.org/2000/svg"
   xmlns="http://www.w3.org/2000/svg"
   xmlns:sodipodi="http://sodipodi.sourceforge.net/DTD/sodipodi-0.dtd"
   xmlns:inkscape="http://www.inkscape.org/namespaces/inkscape"
   width="180"
   height="180"
   viewBox="0 0 55.585995 55.585995"
   version="1.1"
   id="svg3890"
   inkscape:version="0.92.2 2405546, 2018-03-11"
   sodipodi:docname="dollar-arrow.svg">
  <defs
     id="defs3884" />
  <sodipodi:namedview
     id="base"
     pagecolor="#ffffff"
     bordercolor="#666666"
     borderopacity="1.0"
     inkscape:pageopacity="0.0"
     inkscape:pageshadow="2"
     inkscape:zoom="1.4"
     inkscape:cx="175.18418"
     inkscape:cy="-12.894264"
     inkscape:document-units="mm"
     inkscape:current-layer="layer1"
     showgrid="false"
     units="px"
     fit-margin-top="10"
     fit-margin-left="10"
     fit-margin-right="10"
     fit-margin-bottom="10"
     inkscape:pagecheckerboard="false"
     inkscape:window-width="1920"
     inkscape:window-height="1022"
     inkscape:window-x="0"
     inkscape:window-y="1"
     inkscape:window-maximized="1" />
  <metadata
     id="metadata3887">
    <rdf:RDF>
      <cc:Work
         rdf:about="">
        <dc:format>image/svg+xml</dc:format>
        <dc:type
           rdf:resource="http://purl.org/dc/dcmitype/StillImage" />
        <dc:title />
      </cc:Work>
    </rdf:RDF>
  </metadata>
  <g
     inkscape:label="Layer 1"
     inkscape:groupmode="layer"
     id="layer1"
     transform="translate(212.85839,23.662765)">
    <path
       d="m -201.60884,18.330463 v 2.351917 h 33.40403 v -2.351917 z"
       id="path54"
       inkscape:connector-curvature="0"
       style="fill:#2c3e50;fill-rule:evenodd;stroke:none;stroke-width:0.37273455;stroke-linecap:square;stroke-miterlimit:10;fill-opacity:1" />
    <path
       d="m -173.22723,12.37107 -1.65434,1.654341 5.461,5.48101 -5.461,5.461012 1.65434,1.654345 7.13514,-7.115357 z"
       id="path56"
       inkscape:connector-curvature="0"
       style="fill:#2c3e50;fill-rule:evenodd;stroke:none;stroke-width:0.37273455;stroke-linecap:square;stroke-miterlimit:10;fill-opacity:1" />
    <path
       d="m -184.90683,-15.711555 -0.65778,0.02 -0.63777,0.0398 -0.63778,0.07979 -0.61778,0.11959 -0.59798,0.139396 -0.59778,0.159393 -0.59797,0.199395 -0.57799,0.239192 -0.55818,0.258989 -0.53798,0.259192 -0.53819,0.31899 -0.49837,0.318789 -0.49818,0.358787 -0.47839,0.378586 -0.45838,0.398788 -0.43838,0.418383 -0.41859,0.438587 -0.39859,0.458383 -0.37879,0.478384 -0.35878,0.478384 -0.31879,0.5181817 -0.299,0.538182 -0.27899,0.53798 -0.25918,0.5581816 -0.2192,0.5779785 -0.19938,0.5779801 -0.17941,0.59798 -0.13933,0.6177782 -0.1196,0.6177766 -0.0797,0.6379803 -0.0399,0.6377779 -0.02,0.6575749 0.02,0.6377784 0.0399,0.6577783 0.0797,0.6177764 0.1196,0.63797986 0.13933,0.597778 0.17941,0.59798076 0.19938,0.59797798 0.2192,0.5779821 0.25918,0.5579791 0.27899,0.5381803 0.299,0.518183 0.31879,0.5181802 0.35878,0.4983857 0.37879,0.4783813 0.39859,0.4583853 0.41859,0.4383824 0.43838,0.4185878 0.45838,0.3985863 0.47839,0.3787862 0.49818,0.3387886 0.49837,0.3387886 0.53819,0.2989883 0.53798,0.2789909 0.55818,0.2591923 0.57799,0.2191904 0.59797,0.1993946 0.59778,0.1791917 0.59798,0.139594 0.61778,0.0996 0.63778,0.07979 0.63777,0.0598 0.65778,0.02 0.65778,-0.02 0.63777,-0.0598 0.63779,-0.07979 0.61777,-0.0996 0.59798,-0.139594 0.59799,-0.1791917 0.59797,-0.1993946 0.57798,-0.2191904 0.55798,-0.2591923 0.53819,-0.2789909 0.53817,-0.2989883 0.49819,-0.3387886 0.49817,-0.3387886 0.47839,-0.3787862 0.45839,-0.3985863 0.43858,-0.4185878 0.41858,-0.4383824 0.39859,-0.4583853 0.37859,-0.4783813 0.35879,-0.4983857 0.31899,-0.5181802 0.29878,-0.518183 0.27919,-0.5381803 0.259,-0.5579791 0.21918,-0.5779821 0.19941,-0.59797798 0.17939,-0.59798076 0.13961,-0.597778 0.0996,-0.63797986 0.0996,-0.6177764 0.0399,-0.6577783 0.02,-0.6377784 -0.02,-0.6575749 -0.0399,-0.6377779 -0.0996,-0.6379803 -0.0996,-0.6177766 -0.13961,-0.6177782 -0.17939,-0.59798 -0.19941,-0.5779801 -0.21918,-0.5779785 -0.259,-0.5581816 -0.27919,-0.53798 -0.29878,-0.538182 -0.31899,-0.5181817 -0.35879,-0.478384 -0.37859,-0.478384 -0.39859,-0.458383 -0.41858,-0.438587 -0.43858,-0.418383 -0.45839,-0.398788 -0.47839,-0.378586 -0.49817,-0.358787 -0.49819,-0.318789 -0.53817,-0.31899 -0.53819,-0.259192 -0.55798,-0.258989 -0.57798,-0.239192 -0.59797,-0.199395 -0.59799,-0.159393 -0.59798,-0.139396 -0.61777,-0.11959 -0.63779,-0.07979 -0.63777,-0.0398 z"
       id="path58"
       inkscape:connector-curvature="0"
       style="fill:#2c3e50;fill-rule:evenodd;stroke:none;stroke-width:0.37273455;stroke-linecap:square;stroke-miterlimit:10;fill-opacity:1" />
    <path
       d="m -184.90683,-10.68893 -0.45838,0.02 -0.45839,0.0596 -0.43859,0.0998 -0.41838,0.139392 -0.39878,0.179395 -0.37859,0.2193937 -0.33878,0.238989 -0.33879,0.259193 -0.27919,0.298989 -0.27899,0.318788 -0.21921,0.358787 -0.19938,0.358789 -0.1594,0.3985856 -0.0996,0.3985856 -0.0797,0.4185854 -0.0197,0.4185858 0.0197,0.3985869 0.0597,0.3787876 0.0996,0.3785852 0.1196,0.3387875 0.1596,0.3389909 0.19918,0.3187876 0.2392,0.298989 0.2592,0.2591925 0.29898,0.2589895 0.33879,0.2391926 0.35878,0.2191911 0.39858,0.1993944 0.41859,0.1793945 0.45839,0.1393927 0.47818,0.1395969 0.51838,0.099596 0.55798,0.1195968 0.2592,0.059796 0.27899,0.099798 0.25899,0.099597 0.25918,0.1195954 0.259,0.1195967 0.2392,0.1393941 0.21917,0.1793944 0.1994,0.1793929 0.1594,0.1993946 0.1596,0.21919196 0.1196,0.2391906 0.0996,0.278991 0.0399,0.2789895 0.02,0.31898986 v 0.2589908 l -0.0599,0.2591922 -0.0599,0.25918938 -0.0996,0.2389906 -0.13961,0.2391935 -0.13961,0.2193933 -0.17939,0.1991903 -0.19918,0.1793944 -0.1994,0.1793944 -0.23919,0.1395941 -0.239,0.1393969 -0.2592,0.099599 -0.27897,0.099797 -0.299,0.059802 -0.29898,0.039797 -0.299,0.020004 -0.29899,-0.020004 -0.29898,-0.039797 -0.29879,-0.059802 -0.2792,-0.099797 -0.25899,-0.099599 -0.23919,-0.1393969 -0.23919,-0.1395941 -0.1994,-0.1793944 -0.1992,-0.1793944 -0.17939,-0.1991903 -0.13961,-0.2193933 -0.13932,-0.2391935 -0.0999,-0.2389906 -0.0597,-0.25918938 -0.0599,-0.2591922 v -0.2589914 h -1.57433 l 0.0197,0.4185865 0.0797,0.41838218 0.0996,0.3987891 0.1594,0.3985835 0.19938,0.3587902 0.2192,0.3387886 0.279,0.3387857 0.27918,0.278991 0.3388,0.2789909 0.33877,0.2391921 0.3786,0.2193919 0.39877,0.1793944 0.41839,0.1393969 0.4386,0.099599 0.45837,0.059802 0.45839,0.020004 0.45838,-0.020004 0.45838,-0.059802 0.43859,-0.099599 0.41858,-0.1393969 0.3986,-0.1793944 0.37858,-0.2193919 0.339,-0.2391921 0.33878,-0.2789909 0.27899,-0.278991 0.27899,-0.3387857 0.21919,-0.3387886 0.19938,-0.3587902 0.13961,-0.3985835 0.11932,-0.3987891 0.0797,-0.41838218 0.02,-0.4185865 -0.02,-0.39858616 -0.0599,-0.3787876 -0.0996,-0.3785847 -0.11961,-0.33899146 -0.15939,-0.3387872 -0.19938,-0.3187878 -0.23919,-0.2989905 -0.259,-0.2789892 -0.299,-0.259193 -0.33878,-0.2391909 -0.35878,-0.1991927 -0.39859,-0.1993929 -0.41859,-0.1793945 -0.45837,-0.1593928 -0.4984,-0.1195967 -0.49818,-0.099597 -0.55818,-0.1195953 -0.25899,-0.079798 -0.27899,-0.079798 -0.27919,-0.099595 -0.25898,-0.1195968 -0.2392,-0.1195953 -0.23919,-0.1593932 -0.21919,-0.1593944 -0.1994,-0.1793945 -0.1594,-0.1993929 -0.15938,-0.2191926 -0.11961,-0.2591913 -0.0999,-0.2589907 -0.0599,-0.2789891 v -0.3189914 -0.2589895 l 0.0599,-0.2791927 0.0599,-0.2391909 0.0997,-0.2389895 0.13947,-0.2391923 0.13961,-0.2193946 0.17939,-0.1991913 0.1992,-0.1793941 0.1994,-0.179393 0.23919,-0.159395 0.23919,-0.119597 0.25898,-0.119596 0.2792,-0.0798 0.29878,-0.0598 0.299,-0.0398 0.29899,-0.02 0.29898,0.02 0.299,0.0398 0.29899,0.0598 0.27898,0.0798 0.25918,0.119596 0.23902,0.119597 0.23919,0.159395 0.19938,0.179393 0.1992,0.1793941 0.17939,0.1991913 0.13961,0.2193946 0.13961,0.2391923 0.0996,0.2389895 0.0599,0.2391909 0.0599,0.2791927 v 0.2589895 h 1.57454 l -0.02,-0.4185859 -0.0797,-0.4185853 -0.11932,-0.3985856 -0.13961,-0.3985857 -0.19938,-0.3587894 -0.21919,-0.358787 -0.27899,-0.318787 -0.27899,-0.29899 -0.33879,-0.259192 -0.33899,-0.23899 -0.37858,-0.2193937 -0.39859,-0.179395 -0.41859,-0.139392 -0.43859,-0.0998 -0.45838,-0.0596 z"
       id="path60"
       inkscape:connector-curvature="0"
       style="fill:#ffffff;fill-rule:evenodd;stroke:none;stroke-width:0.37273455;stroke-linecap:square;stroke-miterlimit:10" />
    <path
       d="m -185.684,-11.545899 v 1.6343416 h 1.55455 v -1.6343416 z"
       id="path62"
       inkscape:connector-curvature="0"
       style="fill:#ffffff;fill-rule:evenodd;stroke:none;stroke-width:0.37273455;stroke-linecap:square;stroke-miterlimit:10" />
    <path
       d="m -185.684,3.7609684 v 1.6343412 h 1.55455 V 3.7609684 Z"
       id="path64"
       inkscape:connector-curvature="0"
       style="fill:#ffffff;fill-rule:evenodd;stroke:none;stroke-width:0.37273455;stroke-linecap:square;stroke-miterlimit:10" />
  </g>
</svg>
