<?xml version="1.0" encoding="UTF-8" standalone="no"?>
<!-- Created with Inkscape (http://www.inkscape.org/) -->

<svg
   xmlns:dc="http://purl.org/dc/elements/1.1/"
   xmlns:cc="http://creativecommons.org/ns#"
   xmlns:rdf="http://www.w3.org/1999/02/22-rdf-syntax-ns#"
   xmlns:svg="http://www.w3.org/2000/svg"
   xmlns="http://www.w3.org/2000/svg"
   xmlns:sodipodi="http://sodipodi.sourceforge.net/DTD/sodipodi-0.dtd"
   xmlns:inkscape="http://www.inkscape.org/namespaces/inkscape"
   width="115.28699"
   height="133.57501"
   viewBox="0 0 30.503017 35.341723"
   version="1.1"
   id="svg3890"
   inkscape:version="0.92.2 2405546, 2018-03-11"
   sodipodi:docname="dollar-arrow.svg">
  <defs
     id="defs3884" />
  <sodipodi:namedview
     id="base"
     pagecolor="#ffffff"
     bordercolor="#666666"
     borderopacity="1.0"
     inkscape:pageopacity="0.0"
     inkscape:pageshadow="2"
     inkscape:zoom="0.35"
     inkscape:cx="657.6435"
     inkscape:cy="-481.78389"
     inkscape:document-units="mm"
     inkscape:current-layer="layer1"
     showgrid="false"
     units="px"
     fit-margin-top="10"
     fit-margin-left="10"
     fit-margin-right="10"
     fit-margin-bottom="10"
     inkscape:pagecheckerboard="false"
     inkscape:window-width="1920"
     inkscape:window-height="1022"
     inkscape:window-x="0"
     inkscape:window-y="1"
     inkscape:window-maximized="1" />
  <metadata
     id="metadata3887">
    <rdf:RDF>
      <cc:Work
         rdf:about="">
        <dc:format>image/svg+xml</dc:format>
        <dc:type
           rdf:resource="http://purl.org/dc/dcmitype/StillImage" />
        <dc:title></dc:title>
      </cc:Work>
    </rdf:RDF>
  </metadata>
  <g
     inkscape:label="Layer 1"
     inkscape:groupmode="layer"
     id="layer1"
     transform="translate(207.26341,13.980384)">
    <path
       d="m -204.61758,12.829965 v 1.669494 h 23.71165 v -1.669494 z"
       id="path54"
       inkscape:connector-curvature="0"
       style="fill:#2bcb96;fill-rule:evenodd;stroke:none;stroke-width:0.26458332;stroke-linecap:square;stroke-miterlimit:10" />
    <path
       d="m -184.47107,8.5997267 -1.17432,1.174324 3.87646,3.8906613 -3.87646,3.876465 1.17432,1.174327 5.06484,-5.050792 z"
       id="path56"
       inkscape:connector-curvature="0"
       style="fill:#2bcb96;fill-rule:evenodd;stroke:none;stroke-width:0.26458332;stroke-linecap:square;stroke-miterlimit:10" />
    <path
       d="m -192.76176,-11.334551 -0.46692,0.0142 -0.45272,0.02825 -0.45272,0.05664 -0.43853,0.08489 -0.42447,0.09895 -0.42433,0.113144 -0.42447,0.141539 -0.41028,0.169789 -0.39622,0.183842 -0.38188,0.183986 -0.38203,0.226433 -0.35377,0.2262898 -0.35363,0.2546829 -0.33958,0.2687373 -0.32538,0.2830769 -0.31118,0.2969869 -0.29713,0.3113278 -0.28294,0.3253808 -0.26888,0.3395779 -0.25468,0.3395777 -0.22629,0.3678282 -0.21224,0.3820253 -0.19804,0.3818816 -0.18398,0.396222 -0.1556,0.4102745 -0.14153,0.4102756 -0.12735,0.4244724 -0.0989,0.438526 -0.0849,0.4385249 -0.0566,0.4528664 -0.0283,0.4527227 -0.0142,0.4667755 0.0142,0.452723 0.0283,0.4669198 0.0566,0.4385248 0.0849,0.45286599 0.0989,0.424329 0.12735,0.424473 0.14153,0.424471 0.1556,0.41027701 0.18398,0.396078 0.19804,0.382024 0.21224,0.367829 0.22629,0.367827 0.25468,0.353776 0.26888,0.339576 0.28294,0.325382 0.29713,0.311183 0.31118,0.297132 0.32538,0.282934 0.33958,0.268879 0.35363,0.240487 0.35377,0.240487 0.38203,0.212235 0.38188,0.19804 0.39622,0.183986 0.41028,0.155591 0.42447,0.141539 0.42433,0.127198 0.42447,0.09909 0.43853,0.0707 0.45272,0.05664 0.45272,0.04245 0.46692,0.0142 0.46692,-0.0142 0.45272,-0.04245 0.45273,-0.05664 0.43852,-0.0707 0.42447,-0.09909 0.42448,-0.127198 0.42447,-0.141539 0.41027,-0.155591 0.39608,-0.183986 0.38203,-0.19804 0.38202,-0.212235 0.35364,-0.240487 0.35362,-0.240487 0.33958,-0.268879 0.32539,-0.282934 0.31132,-0.297132 0.29713,-0.311183 0.28293,-0.325382 0.26874,-0.339576 0.25469,-0.353776 0.22643,-0.367827 0.21209,-0.367829 0.19818,-0.382024 0.18385,-0.396078 0.15558,-0.41027701 0.14155,-0.424471 0.12734,-0.424473 0.0991,-0.424329 0.0707,-0.45286599 0.0707,-0.4385248 0.0283,-0.4669198 0.0142,-0.452723 -0.0142,-0.4667755 -0.0283,-0.4527227 -0.0707,-0.4528664 -0.0707,-0.4385249 -0.0991,-0.438526 -0.12734,-0.4244724 -0.14155,-0.4102756 -0.15558,-0.4102745 -0.18385,-0.396222 -0.19818,-0.3818816 -0.21209,-0.3820253 -0.22643,-0.3678282 -0.25469,-0.3395777 -0.26874,-0.3395779 -0.28293,-0.3253808 -0.29713,-0.3113278 -0.31132,-0.2969869 -0.32539,-0.2830769 -0.33958,-0.2687373 -0.35362,-0.2546829 -0.35364,-0.2262898 -0.38202,-0.226433 -0.38203,-0.183986 -0.39608,-0.183842 -0.41027,-0.169789 -0.42447,-0.141539 -0.42448,-0.113144 -0.42447,-0.09895 -0.43852,-0.08489 -0.45273,-0.05664 -0.45272,-0.02825 z"
       id="path58"
       inkscape:connector-curvature="0"
       style="fill:#2bcb96;fill-rule:evenodd;stroke:none;stroke-width:0.26458332;stroke-linecap:square;stroke-miterlimit:10" />
    <path
       d="m -192.76176,-7.7692716 -0.32538,0.014198 -0.32538,0.042304 -0.31133,0.070841 -0.29699,0.098947 -0.28307,0.1273418 -0.26874,0.1557359 -0.24048,0.169645 -0.24049,0.1839862 -0.19818,0.2122358 -0.19804,0.2262894 -0.1556,0.2546829 -0.14153,0.2546842 -0.11315,0.2829335 -0.0707,0.2829335 -0.0566,0.2971303 -0.014,0.2971305 0.014,0.2829345 0.0424,0.26888 0.0707,0.2687364 0.0849,0.2404862 0.11329,0.2406306 0.14139,0.2262894 0.16979,0.2122355 0.18399,0.1839862 0.21223,0.1838421 0.24049,0.1697894 0.25468,0.1555914 0.28293,0.1415389 0.29713,0.1273421 0.32539,0.098947 0.33943,0.099092 0.36797,0.070698 0.39608,0.084895 0.18399,0.042446 0.19804,0.070841 0.18384,0.070698 0.18398,0.084894 0.18385,0.084895 0.16979,0.098948 0.15558,0.127342 0.14154,0.127341 0.11315,0.14153899 0.11329,0.155592 0.0849,0.169788 0.0707,0.19804 0.0283,0.198039 0.0142,0.226433 v 0.183843 l -0.0425,0.183986 -0.0425,0.183984 -0.0707,0.169646 -0.0991,0.16979 -0.0991,0.15573501 -0.12734,0.141394 -0.14139,0.127342 -0.14154,0.127342 -0.16979,0.09909 -0.16965,0.09895 -0.18399,0.0707 -0.19803,0.07084 -0.21224,0.04245 -0.21223,0.02825 -0.21224,0.0142 -0.21224,-0.0142 -0.21223,-0.02825 -0.21209,-0.04245 -0.19819,-0.07084 -0.18384,-0.0707 -0.16979,-0.09895 -0.16979,-0.09909 -0.14154,-0.127342 -0.1414,-0.127342 -0.12734,-0.141394 -0.0991,-0.15573501 -0.0989,-0.16979 -0.0709,-0.169646 -0.0424,-0.183984 -0.0425,-0.183986 v -0.1838434 h -1.11753 l 0.014,0.297131 0.0566,0.296986 0.0707,0.283078 0.11315,0.28293201 0.14153,0.254685 0.1556,0.240487 0.19804,0.240485 0.19818,0.19804 0.24049,0.19804 0.24048,0.169789 0.26874,0.155734 0.28307,0.127342 0.29699,0.09895 0.31134,0.0707 0.32537,0.04245 0.32538,0.0142 0.32538,-0.0142 0.32538,-0.04245 0.31133,-0.0707 0.29713,-0.09895 0.28294,-0.127342 0.26873,-0.155734 0.24064,-0.169789 0.24048,-0.19804 0.19804,-0.19804 0.19804,-0.240485 0.15559,-0.240487 0.14153,-0.254685 0.0991,-0.28293201 0.0847,-0.283078 0.0566,-0.296986 0.0142,-0.297131 -0.0142,-0.282934 -0.0425,-0.26888 -0.0707,-0.268736 -0.0849,-0.24063099 -0.11314,-0.240486 -0.14153,-0.2262895 -0.16979,-0.2122365 -0.18385,-0.1980388 -0.21224,-0.1839865 -0.24048,-0.1697882 -0.25468,-0.1413957 -0.28294,-0.1415378 -0.29713,-0.1273421 -0.32537,-0.113144 -0.35379,-0.084895 -0.35363,-0.070698 -0.39622,-0.084894 -0.18384,-0.056644 -0.19804,-0.056644 -0.19818,-0.070697 -0.18384,-0.084895 -0.16979,-0.084894 -0.16979,-0.1131443 -0.15559,-0.1131451 -0.14154,-0.1273421 -0.11315,-0.1415378 -0.11314,-0.1555925 -0.0849,-0.1839854 -0.0709,-0.1838429 -0.0425,-0.1980387 v -0.2264341 -0.1838421 l 0.0425,-0.1981832 0.0425,-0.1697882 0.0708,-0.1696452 0.099,-0.1697892 0.0991,-0.1557359 0.12734,-0.1413947 0.1414,-0.1273421 0.14154,-0.1273408 0.16979,-0.1131453 0.16979,-0.084895 0.18383,-0.084895 0.19819,-0.056643 0.21209,-0.042447 0.21224,-0.02825 0.21224,-0.014197 0.21223,0.014197 0.21224,0.02825 0.21224,0.042447 0.19803,0.056643 0.18398,0.084895 0.16966,0.084895 0.16979,0.1131453 0.14153,0.1273408 0.1414,0.1273421 0.12734,0.1413947 0.0991,0.1557359 0.0991,0.1697892 0.0707,0.1696452 0.0425,0.1697882 0.0425,0.1981832 v 0.1838421 h 1.11768 l -0.0142,-0.2971306 -0.0566,-0.2971302 -0.0847,-0.2829335 -0.0991,-0.2829336 -0.14153,-0.2546842 -0.15559,-0.2546829 -0.19804,-0.2262893 -0.19804,-0.2122358 -0.24049,-0.1839863 -0.24063,-0.169645 -0.26873,-0.1557358 -0.28294,-0.1273421 -0.29713,-0.098947 -0.31133,-0.070841 -0.32538,-0.042304 z"
       id="path60"
       inkscape:connector-curvature="0"
       style="fill:#ffffff;fill-rule:evenodd;stroke:none;stroke-width:0.26458332;stroke-linecap:square;stroke-miterlimit:10" />
    <path
       d="m -193.31343,-8.3775857 v 1.1601278 h 1.10349 v -1.1601278 z"
       id="path62"
       inkscape:connector-curvature="0"
       style="fill:#ffffff;fill-rule:evenodd;stroke:none;stroke-width:0.26458332;stroke-linecap:square;stroke-miterlimit:10" />
    <path
       d="m -193.31343,2.4878997 v 1.160127 h 1.10349 v -1.160127 z"
       id="path64"
       inkscape:connector-curvature="0"
       style="fill:#ffffff;fill-rule:evenodd;stroke:none;stroke-width:0.26458332;stroke-linecap:square;stroke-miterlimit:10" />
  </g>
</svg>
