<?xml version="1.0" encoding="UTF-8" standalone="no"?>
<!-- Created with Inkscape (http://www.inkscape.org/) -->

<svg
   xmlns:dc="http://purl.org/dc/elements/1.1/"
   xmlns:cc="http://creativecommons.org/ns#"
   xmlns:rdf="http://www.w3.org/1999/02/22-rdf-syntax-ns#"
   xmlns:svg="http://www.w3.org/2000/svg"
   xmlns="http://www.w3.org/2000/svg"
   xmlns:sodipodi="http://sodipodi.sourceforge.net/DTD/sodipodi-0.dtd"
   xmlns:inkscape="http://www.inkscape.org/namespaces/inkscape"
   width="111.1452"
   height="93.196938"
   viewBox="0 0 29.407168 24.658357"
   version="1.1"
   id="svg226"
   inkscape:version="0.92.2 2405546, 2018-03-11"
   sodipodi:docname="exchange-on-ripple.svg">
  <defs
     id="defs220">
    <linearGradient
       id="g368488a2f1_0_0.5"
       gradientUnits="userSpaceOnUse"
       gradientTransform="matrix(2.4489077,0,0,2.4489077,-456.44336,-110.82152)"
       spreadMethod="pad"
       x1="19.44145"
       y1="27.775543"
       x2="12.896733"
       y2="21.230703">
      <stop
         offset="0.0"
         stop-color="#e5e5e5"
         id="stop65" />
      <stop
         offset="1.0"
         stop-color="#fcfcfc"
         id="stop67" />
    </linearGradient>
    <linearGradient
       id="g368488a2f1_0_0.4"
       gradientUnits="userSpaceOnUse"
       gradientTransform="matrix(2.5254062,0,0,2.5254062,-456.44336,-110.82152)"
       spreadMethod="pad"
       x1="7.7392435"
       y1="29.613804"
       x2="17.284086"
       y2="29.613804">
      <stop
         offset="0.0"
         stop-color="#dbdcdd"
         id="stop52" />
      <stop
         offset="0.41"
         stop-color="#dbdcdd"
         id="stop54" />
      <stop
         offset="0.6"
         stop-color="#b1b3b5"
         id="stop56" />
      <stop
         offset="1.0"
         stop-color="#b1b3b5"
         id="stop58" />
    </linearGradient>
    <linearGradient
       id="g368488a2f1_0_0.3"
       gradientUnits="userSpaceOnUse"
       gradientTransform="matrix(2.5243602,0,0,2.5243602,-456.44336,-110.82152)"
       spreadMethod="pad"
       x1="7.745235"
       y1="30.128937"
       x2="17.286123"
       y2="30.128937">
      <stop
         offset="0.0"
         stop-color="#66ccff"
         id="stop43" />
      <stop
         offset="1.0"
         stop-color="#1db4ff"
         id="stop45" />
    </linearGradient>
    <linearGradient
       id="g368488a2f1_0_0.2"
       gradientUnits="userSpaceOnUse"
       gradientTransform="matrix(2.5254062,0,0,2.5254062,-456.44336,-110.82152)"
       spreadMethod="pad"
       x1="7.7418289"
       y1="31.218025"
       x2="17.286671"
       y2="31.218025">
      <stop
         offset="0.0"
         stop-color="#0a93eb"
         id="stop30" />
      <stop
         offset="0.45"
         stop-color="#0a93eb"
         id="stop32" />
      <stop
         offset="0.56"
         stop-color="#0f72e5"
         id="stop34" />
      <stop
         offset="1.0"
         stop-color="#0f72e5"
         id="stop36" />
    </linearGradient>
  </defs>
  <sodipodi:namedview
     id="base"
     pagecolor="#ffffff"
     bordercolor="#666666"
     borderopacity="1.0"
     inkscape:pageopacity="0.0"
     inkscape:pageshadow="2"
     inkscape:zoom="0.35"
     inkscape:cx="2061.2869"
     inkscape:cy="-673.40143"
     inkscape:document-units="mm"
     inkscape:current-layer="layer1"
     showgrid="false"
     units="px"
     fit-margin-top="10"
     fit-margin-left="10"
     fit-margin-right="10"
     fit-margin-bottom="10"
     inkscape:window-width="1920"
     inkscape:window-height="1022"
     inkscape:window-x="0"
     inkscape:window-y="1"
     inkscape:window-maximized="1" />
  <metadata
     id="metadata223">
    <rdf:RDF>
      <cc:Work
         rdf:about="">
        <dc:format>image/svg+xml</dc:format>
        <dc:type
           rdf:resource="http://purl.org/dc/dcmitype/StillImage" />
        <dc:title></dc:title>
      </cc:Work>
    </rdf:RDF>
  </metadata>
  <g
     inkscape:label="Layer 1"
     inkscape:groupmode="layer"
     id="layer1"
     transform="translate(439.54883,53.995844)">
    <path
       inkscape:connector-curvature="0"
       style="fill:url(#g368488a2f1_0_0.2);fill-rule:evenodd;stroke-width:0.26458332"
       d="m -412.78749,-38.743827 v 0 c 0,2.772021 0,2.772021 0,2.772021 0,0.07641 -0.0763,0.152882 -0.30797,0.231833 -11.16646,3.699299 -11.16646,3.699299 -11.16646,3.699299 -0.30797,0.07647 -0.84536,0.07647 -1.22967,0 -11.16887,-3.699299 -11.16887,-3.699299 -11.16887,-3.699299 -0.0765,0 -0.15288,-0.07895 -0.15288,-0.07895 -0.0788,-0.07647 -0.0788,-0.07647 -0.0788,-0.152882 0,-2.772021 0,-2.772021 0,-2.772021 h 24.1046"
       id="path41" />
    <path
       inkscape:connector-curvature="0"
       style="fill:url(#g368488a2f1_0_0.3);fill-rule:evenodd;stroke-width:0.26458332"
       d="m -424.26182,-34.822556 v 0 c 11.16662,-3.695084 11.16662,-3.695084 11.16662,-3.695084 0.38433,-0.155279 0.38433,-0.308097 0,-0.463383 -11.16662,-3.697548 -11.16662,-3.697548 -11.16662,-3.697548 -0.30811,-0.07637 -0.92169,-0.07637 -1.2298,0 -11.16905,3.697548 -11.16905,3.697548 -11.16905,3.697548 -0.3079,0.155286 -0.3079,0.308104 0,0.463383 11.16905,3.695084 11.16905,3.695084 11.16905,3.695084 0.38453,0.07644 0.92169,0.07644 1.2298,0"
       id="path50" />
    <path
       inkscape:connector-curvature="0"
       style="fill:url(#g368488a2f1_0_0.4);fill-rule:evenodd;stroke-width:0.26458332"
       d="m -412.79402,-42.795141 v 0 c 0,2.772022 0,2.772022 0,2.772022 0,0.07641 -0.0763,0.152881 -0.30797,0.231833 -11.16646,3.699306 -11.16646,3.699306 -11.16646,3.699306 -0.30797,0.07646 -0.84536,0.07646 -1.22967,0 -11.16887,-3.699306 -11.16887,-3.699306 -11.16887,-3.699306 -0.0765,0 -0.15288,-0.07895 -0.15288,-0.07895 -0.0788,-0.07647 -0.0788,-0.07647 -0.0788,-0.152881 0,-2.772022 0,-2.772022 0,-2.772022 h 24.1046"
       id="path63" />
    <path
       inkscape:connector-curvature="0"
       style="fill:url(#g368488a2f1_0_0.5);fill-rule:evenodd;stroke-width:0.26458332"
       d="m -424.27322,-38.873867 v 0 c 11.16663,-3.695084 11.16663,-3.695084 11.16663,-3.695084 0.38432,-0.155279 0.38432,-0.308097 0,-0.463383 -11.16663,-3.697547 -11.16663,-3.697547 -11.16663,-3.697547 -0.3081,-0.07637 -0.92169,-0.07637 -1.22979,0 -11.16905,3.697547 -11.16905,3.697547 -11.16905,3.697547 -0.30791,0.155286 -0.30791,0.308104 0,0.463383 11.16905,3.695084 11.16905,3.695084 11.16905,3.695084 0.38452,0.07644 0.92169,0.07644 1.22979,0"
       id="path72" />
    <path
       inkscape:connector-curvature="0"
       style="fill:#23282f;fill-rule:evenodd;stroke-width:0.26458332"
       d="m -425.20611,-51.350011 -0.27176,0.04546 -0.27154,0.04525 -0.27176,0.06788 -0.24894,0.09072 -0.27175,0.09051 -0.24915,0.135967 -0.22632,0.135969 -0.24893,0.135964 -0.29437,0.249103 -0.29437,0.271933 -0.24894,0.294352 -0.24914,0.317188 v -1.540476 h -0.70179 v 2.809224 h 2.80738 v -0.702254 h -1.63012 l 0.20371,-0.317188 0.22654,-0.271936 0.27154,-0.271722 0.29437,-0.226685 0.31698,-0.203842 0.31698,-0.158594 0.3622,-0.13597 0.33959,-0.0905 0.24893,-0.04525 0.24915,-0.02283 h 0.52069 l 0.24893,0.04546 0.24915,0.04525 0.22632,0.06788 0.24894,0.09071 0.29437,0.135966 0.29436,0.158594 0.27155,0.203846 0.27176,0.203848 0.18109,0.203843 0.1585,0.203848 0.15849,0.204057 0.13587,0.249098 0.13567,0.22647 0.0907,0.249311 0.0904,0.271725 0.068,0.249306 0.0226,0.09051 0.0226,0.09072 0.0452,0.04525 0.068,0.06809 0.0678,0.02262 0.0907,0.02262 h 0.0678 l 0.0907,-0.02262 0.0678,-0.04546 0.0678,-0.04525 0.0454,-0.06788 0.0226,-0.06809 0.0226,-0.09051 v -0.06809 l -0.11324,-0.430318 -0.13588,-0.385067 -0.1811,-0.385276 -0.20371,-0.385066 -0.15849,-0.181219 -0.13588,-0.203848 -0.15828,-0.181218 -0.1811,-0.158594 -0.18131,-0.158594 -0.20371,-0.158594 -0.22632,-0.158591 -0.11327,-0.06788 -0.11306,-0.06809 -0.1811,-0.0905 -0.20392,-0.09072 -0.15849,-0.06788 -0.13567,-0.04526 -0.43024,-0.135969 -0.43004,-0.06809 -0.43025,-0.02262 z"
       id="path164" />
    <path
       inkscape:connector-curvature="0"
       style="fill:#23282f;fill-rule:evenodd;stroke-width:0.26458332"
       d="m -428.69267,-46.796469 -0.0904,0.02262 -0.0906,0.06788 -0.0678,0.09071 -0.0452,0.09051 v 0.113342 l 0.0678,0.317188 0.0906,0.294561 0.11306,0.294349 0.11327,0.271936 0.13587,0.22647 0.13588,0.226687 0.15828,0.203843 0.13588,0.181224 0.15849,0.181218 0.1811,0.158594 0.22653,0.203843 0.24894,0.181224 0.24893,0.158594 0.27176,0.135964 0.1811,0.0905 0.1811,0.09072 0.27176,0.06788 0.27154,0.06809 0.24915,0.06787 0.24893,0.02262 0.27176,0.02262 h 0.49808 l 0.27154,-0.02262 0.24915,-0.04526 0.24893,-0.06787 0.29437,-0.09072 0.27155,-0.113345 0.29437,-0.113128 0.24914,-0.158594 0.27155,-0.181218 0.22632,-0.181224 0.22654,-0.204057 0.22632,-0.22647 0.1811,-0.226473 0.1811,-0.249306 v 1.54047 h 0.70179 v -2.80901 h -2.80717 v 0.70225 h 1.62991 l -0.15828,0.249311 -0.18131,0.226473 -0.27154,0.294563 -0.29437,0.271722 -0.33959,0.22647 -0.36221,0.181224 -0.27154,0.113342 -0.31698,0.09072 -0.29437,0.06788 -0.31698,0.02262 h -0.31698 l -0.31697,-0.02262 -0.31677,-0.04525 -0.29437,-0.06809 -0.22632,-0.0905 -0.22654,-0.09072 -0.20371,-0.113131 -0.20371,-0.113339 -0.20371,-0.135967 -0.1811,-0.158594 -0.18111,-0.158594 -0.1811,-0.158594 -0.13587,-0.181218 -0.13588,-0.203848 -0.13588,-0.181219 -0.11306,-0.203848 -0.0906,-0.22647 -0.0907,-0.226682 -0.0678,-0.203848 -0.0452,-0.249097 -0.0226,-0.06809 -0.0226,-0.06788 -0.0454,-0.06788 -0.0678,-0.04546 -0.0907,-0.04525 -0.0678,-0.02262 z"
       id="path166" />
    <path
       inkscape:connector-curvature="0"
       style="fill:#23282f;fill-rule:evenodd;stroke-width:0.26458332"
       d="m -431.31874,-48.110472 -0.20371,0.02262 -0.15849,0.06809 -0.1811,0.0905 -0.13588,0.113345 -0.11305,0.135967 -0.0907,0.158594 -0.0452,0.181218 -0.0226,0.203848 0.0226,0.181219 0.0452,0.181218 0.0907,0.158594 0.11305,0.13597 0.13588,0.135966 0.1811,0.09051 0.15849,0.04525 0.20371,0.02262 0.18111,-0.02262 0.18109,-0.04525 0.18111,-0.09051 0.13588,-0.135967 0.11326,-0.135969 0.0905,-0.158594 0.0454,-0.181219 0.0226,-0.181218 -0.0226,-0.203848 -0.0454,-0.181219 -0.0905,-0.158594 -0.11326,-0.135966 -0.13588,-0.113345 -0.18111,-0.0905 -0.18109,-0.06809 z"
       id="path168" />
    <path
       inkscape:connector-curvature="0"
       style="fill:#23282f;fill-rule:evenodd;stroke-width:0.26458332"
       d="m -418.36929,-48.110472 -0.20371,0.02262 -0.15849,0.06809 -0.1811,0.0905 -0.13589,0.113345 -0.11305,0.135967 -0.0906,0.158594 -0.0452,0.181218 -0.0226,0.203848 0.0226,0.181219 0.0452,0.181218 0.0906,0.158594 0.11305,0.13597 0.13589,0.135966 0.1811,0.09051 0.15849,0.04525 0.20371,0.02262 0.1811,-0.02262 0.18131,-0.04525 0.1811,-0.09051 0.13567,-0.135966 0.11327,-0.13597 0.0906,-0.158594 0.0452,-0.181218 0.0226,-0.181219 -0.0226,-0.203847 -0.0452,-0.181219 -0.0906,-0.158594 -0.11327,-0.135966 -0.13567,-0.113345 -0.1811,-0.0905 -0.18131,-0.06809 z"
       id="path170" />
  </g>
</svg>
