<?xml version="1.0" encoding="UTF-8" standalone="no"?>
<!-- Created with Inkscape (http://www.inkscape.org/) -->

<svg
   xmlns:dc="http://purl.org/dc/elements/1.1/"
   xmlns:cc="http://creativecommons.org/ns#"
   xmlns:rdf="http://www.w3.org/1999/02/22-rdf-syntax-ns#"
   xmlns:svg="http://www.w3.org/2000/svg"
   xmlns="http://www.w3.org/2000/svg"
   xmlns:sodipodi="http://sodipodi.sourceforge.net/DTD/sodipodi-0.dtd"
   xmlns:inkscape="http://www.inkscape.org/namespaces/inkscape"
   width="133.31163"
   height="84.198715"
   viewBox="0 0 35.272035 22.277577"
   version="1.1"
   id="svg4161"
   inkscape:version="0.92.2 2405546, 2018-03-11"
   sodipodi:docname="exchange.svg">
  <defs
     id="defs4155" />
  <sodipodi:namedview
     id="base"
     pagecolor="#ffffff"
     bordercolor="#666666"
     borderopacity="1.0"
     inkscape:pageopacity="0.0"
     inkscape:pageshadow="2"
     inkscape:zoom="0.35"
     inkscape:cx="-459.0584"
     inkscape:cy="42.09898"
     inkscape:document-units="mm"
     inkscape:current-layer="layer1"
     showgrid="false"
     units="px"
     fit-margin-top="10"
     fit-margin-left="10"
     fit-margin-right="10"
     fit-margin-bottom="10"
     inkscape:window-width="1920"
     inkscape:window-height="1022"
     inkscape:window-x="0"
     inkscape:window-y="1"
     inkscape:window-maximized="1" />
  <metadata
     id="metadata4158">
    <rdf:RDF>
      <cc:Work
         rdf:about="">
        <dc:format>image/svg+xml</dc:format>
        <dc:type
           rdf:resource="http://purl.org/dc/dcmitype/StillImage" />
        <dc:title></dc:title>
      </cc:Work>
    </rdf:RDF>
  </metadata>
  <g
     inkscape:label="Layer 1"
     inkscape:groupmode="layer"
     id="layer1"
     transform="translate(-88.197298,-137.69444)">
    <path
       d="m 105.10215,140.34038 -0.5486,0.0919 -0.54818,0.0915 -0.54861,0.13718 -0.50252,0.18334 -0.54861,0.18291 -0.50296,0.2748 -0.45689,0.27478 -0.50253,0.2748 -0.59425,0.50344 -0.594245,0.54957 -0.502528,0.5949 -0.502968,0.64103 v -3.11332 h -1.416725 v 5.67749 h 5.667346 v -1.41927 h -3.290771 l 0.411241,-0.64103 0.45731,-0.54959 0.54817,-0.54916 0.59426,-0.45814 0.63989,-0.41197 0.6399,-0.32051 0.73118,-0.2748 0.68555,-0.18291 0.50253,-0.0915 0.50296,-0.0462 h 1.05113 l 0.50253,0.0919 0.50297,0.0915 0.45688,0.13719 0.50253,0.18333 0.59425,0.2748 0.59425,0.32052 0.54817,0.41197 0.54861,0.41198 0.36559,0.41198 0.31995,0.41197 0.31995,0.41241 0.2743,0.50343 0.27387,0.45771 0.18302,0.50385 0.18258,0.54916 0.13737,0.50386 0.0456,0.18291 0.0456,0.18334 0.0913,0.0914 0.13736,0.13761 0.13695,0.0457 0.183,0.0457 h 0.13694 l 0.18301,-0.0457 0.13694,-0.0919 0.13694,-0.0915 0.0917,-0.13718 0.0456,-0.13761 0.0456,-0.18291 v -0.13761 l -0.22866,-0.86968 -0.2743,-0.77823 -0.3656,-0.77865 -0.41124,-0.77822 -0.31995,-0.36625 -0.27429,-0.41197 -0.31953,-0.36625 -0.36559,-0.32053 -0.36602,-0.32052 -0.41124,-0.32051 -0.45689,-0.32053 -0.22866,-0.13718 -0.22822,-0.13761 -0.36559,-0.18292 -0.41167,-0.18333 -0.31995,-0.13718 -0.27388,-0.0915 -0.86855,-0.27479 -0.86812,-0.13761 -0.86856,-0.0457 z"
       id="path32"
       inkscape:connector-curvature="0"
       style="fill:#f23548;fill-rule:evenodd;stroke:none;stroke-width:0.26458332;stroke-linecap:square;stroke-miterlimit:10" />
    <path
       d="m 98.063723,149.54317 -0.182586,0.0457 -0.183007,0.13717 -0.136943,0.18334 -0.09129,0.18291 v 0.22907 l 0.13694,0.64104 0.183007,0.59532 0.228233,0.59488 0.228652,0.54959 0.274305,0.45771 0.274298,0.45812 0.319522,0.41198 0.274304,0.36625 0.31995,0.36625 0.365592,0.32052 0.45732,0.41197 0.50252,0.36625 0.50253,0.32052 0.54861,0.2748 0.36559,0.18291 0.36559,0.18334 0.54862,0.13718 0.54817,0.13761 0.50295,0.13718 0.50254,0.0457 0.5486,0.0457 h 1.00549 l 0.54818,-0.0457 0.50296,-0.0915 0.50253,-0.13718 0.59425,-0.18334 0.54818,-0.22906 0.59424,-0.22865 0.50296,-0.32051 0.54818,-0.36625 0.45689,-0.36625 0.45731,-0.41241 0.45689,-0.4577 0.36559,-0.45771 0.36559,-0.50385 v 3.11333 h 1.41673 v -5.67708 h -5.66691 v 1.41927 h 3.29034 l -0.31952,0.50386 -0.36602,0.4577 -0.54818,0.59532 -0.59425,0.54915 -0.68555,0.4577 -0.73118,0.36625 -0.54818,0.22907 -0.63989,0.18334 -0.59426,0.13718 -0.63989,0.0457 h -0.6399 l -0.63989,-0.0457 -0.63947,-0.0914 -0.59425,-0.13761 -0.45689,-0.18291 -0.45731,-0.18334 -0.41124,-0.22864 -0.41124,-0.22906 -0.41124,-0.2748 -0.36559,-0.32052 -0.3656,-0.32052 -0.36558,-0.32052 -0.27431,-0.36625 -0.274306,-0.41197 -0.274296,-0.36625 -0.228232,-0.41198 -0.183007,-0.4577 -0.183015,-0.45813 -0.136935,-0.41199 -0.09129,-0.50342 -0.04565,-0.13761 -0.04564,-0.13719 -0.09172,-0.13718 -0.136935,-0.0919 -0.183015,-0.0915 -0.136936,-0.0457 z"
       id="path34"
       inkscape:connector-curvature="0"
       style="fill:#f23548;fill-rule:evenodd;stroke:none;stroke-width:0.26458332;stroke-linecap:square;stroke-miterlimit:10" />
    <path
       d="m 92.7624,146.88755 -0.41124,0.0457 -0.31995,0.13761 -0.365593,0.18291 -0.274307,0.22907 -0.228224,0.27479 -0.183015,0.32052 -0.09129,0.36625 -0.04565,0.41198 0.04565,0.36625 0.09129,0.36625 0.183015,0.32051 0.228224,0.2748 0.274307,0.27479 0.365593,0.18291 0.31995,0.0915 0.41124,0.0457 0.365593,-0.0457 0.365596,-0.0915 0.365585,-0.18291 0.274307,-0.27479 0.228658,-0.2748 0.182581,-0.32051 0.09172,-0.36625 0.04564,-0.36625 -0.04564,-0.41198 -0.09172,-0.36625 -0.182581,-0.32052 -0.228658,-0.27479 -0.274307,-0.22907 -0.365585,-0.18291 -0.365596,-0.13761 z"
       id="path36"
       inkscape:connector-curvature="0"
       style="fill:#f23548;fill-rule:evenodd;stroke:none;stroke-width:0.26458332;stroke-linecap:square;stroke-miterlimit:10" />
    <path
       d="m 118.90385,146.88755 -0.41124,0.0457 -0.31995,0.13761 -0.36559,0.18291 -0.27431,0.22907 -0.22822,0.27479 -0.18302,0.32052 -0.0913,0.36625 -0.0457,0.41198 0.0457,0.36625 0.0913,0.36625 0.18302,0.32051 0.22822,0.2748 0.27431,0.27479 0.36559,0.18291 0.31995,0.0915 0.41124,0.0457 0.36559,-0.0457 0.36602,-0.0915 0.36559,-0.18291 0.27388,-0.27479 0.22865,-0.2748 0.18302,-0.32051 0.0913,-0.36625 0.0456,-0.36625 -0.0456,-0.41198 -0.0913,-0.36625 -0.18302,-0.32052 -0.22865,-0.27479 -0.27388,-0.22907 -0.36559,-0.18291 -0.36602,-0.13761 z"
       id="path38"
       inkscape:connector-curvature="0"
       style="fill:#f23548;fill-rule:evenodd;stroke:none;stroke-width:0.26458332;stroke-linecap:square;stroke-miterlimit:10" />
  </g>
</svg>
