<?xml version="1.0" encoding="UTF-8" standalone="no"?>
<!-- Created with Inkscape (http://www.inkscape.org/) -->

<svg
   xmlns:dc="http://purl.org/dc/elements/1.1/"
   xmlns:cc="http://creativecommons.org/ns#"
   xmlns:rdf="http://www.w3.org/1999/02/22-rdf-syntax-ns#"
   xmlns:svg="http://www.w3.org/2000/svg"
   xmlns="http://www.w3.org/2000/svg"
   xmlns:sodipodi="http://sodipodi.sourceforge.net/DTD/sodipodi-0.dtd"
   xmlns:inkscape="http://www.inkscape.org/namespaces/inkscape"
   width="370"
   height="350"
   viewBox="0 0 97.895833 92.604169"
   version="1.1"
   id="svg226"
   inkscape:version="0.92.2 2405546, 2018-03-11"
   sodipodi:docname="exchange-on-ripple.svg">
  <defs
     id="defs220">
    <linearGradient
       id="g368488a2f1_0_0.5"
       gradientUnits="userSpaceOnUse"
       gradientTransform="matrix(9.4038702,0,0,9.4038702,-546.18285,-307.22313)"
       spreadMethod="pad"
       x1="19.44145"
       y1="27.775543"
       x2="12.896733"
       y2="21.230703">
      <stop
         offset="0.0"
         stop-color="#e5e5e5"
         id="stop65" />
      <stop
         offset="1.0"
         stop-color="#fcfcfc"
         id="stop67" />
    </linearGradient>
    <linearGradient
       id="g368488a2f1_0_0.4"
       gradientUnits="userSpaceOnUse"
       gradientTransform="matrix(9.6976265,0,0,9.6976265,-546.18285,-307.22313)"
       spreadMethod="pad"
       x1="7.7392435"
       y1="29.613804"
       x2="17.284086"
       y2="29.613804">
      <stop
         offset="0.0"
         stop-color="#dbdcdd"
         id="stop52" />
      <stop
         offset="0.41"
         stop-color="#dbdcdd"
         id="stop54" />
      <stop
         offset="0.6"
         stop-color="#b1b3b5"
         id="stop56" />
      <stop
         offset="1.0"
         stop-color="#b1b3b5"
         id="stop58" />
    </linearGradient>
    <linearGradient
       id="g368488a2f1_0_0.3"
       gradientUnits="userSpaceOnUse"
       gradientTransform="matrix(9.6936098,0,0,9.6936098,-546.18285,-307.22313)"
       spreadMethod="pad"
       x1="7.745235"
       y1="30.128937"
       x2="17.286123"
       y2="30.128937">
      <stop
         offset="0.0"
         stop-color="#66ccff"
         id="stop43" />
      <stop
         offset="1.0"
         stop-color="#1db4ff"
         id="stop45" />
    </linearGradient>
    <linearGradient
       id="g368488a2f1_0_0.2"
       gradientUnits="userSpaceOnUse"
       gradientTransform="matrix(9.6976265,0,0,9.6976265,-546.18285,-307.22313)"
       spreadMethod="pad"
       x1="7.7418289"
       y1="31.218025"
       x2="17.286671"
       y2="31.218025">
      <stop
         offset="0.0"
         stop-color="#0a93eb"
         id="stop30" />
      <stop
         offset="0.45"
         stop-color="#0a93eb"
         id="stop32" />
      <stop
         offset="0.56"
         stop-color="#0f72e5"
         id="stop34" />
      <stop
         offset="1.0"
         stop-color="#0f72e5"
         id="stop36" />
    </linearGradient>
  </defs>
  <sodipodi:namedview
     id="base"
     pagecolor="#ffffff"
     bordercolor="#666666"
     borderopacity="1.0"
     inkscape:pageopacity="0.0"
     inkscape:pageshadow="2"
     inkscape:zoom="0.35"
     inkscape:cx="1706.4286"
     inkscape:cy="-455.1751"
     inkscape:document-units="mm"
     inkscape:current-layer="layer1"
     showgrid="false"
     units="px"
     fit-margin-top="10"
     fit-margin-left="10"
     fit-margin-right="10"
     fit-margin-bottom="10"
     inkscape:window-width="1920"
     inkscape:window-height="1022"
     inkscape:window-x="1920"
     inkscape:window-y="1"
     inkscape:window-maximized="1" />
  <metadata
     id="metadata223">
    <rdf:RDF>
      <cc:Work
         rdf:about="">
        <dc:format>image/svg+xml</dc:format>
        <dc:type
           rdf:resource="http://purl.org/dc/dcmitype/StillImage" />
        <dc:title></dc:title>
      </cc:Work>
    </rdf:RDF>
  </metadata>
  <g
     inkscape:label="Layer 1"
     inkscape:groupmode="layer"
     id="layer1"
     transform="translate(473.79316,94.440696)">
    <path
       inkscape:connector-curvature="0"
       style="fill:url(#g368488a2f1_0_0.2);fill-rule:evenodd;stroke-width:1.01600695"
       d="m -378.54316,-30.442886 v 0 c 0,10.644634 0,10.644634 0,10.644634 0,0.293416 -0.29299,0.58707 -1.18261,0.890244 -42.8795,14.2054063 -42.8795,14.2054063 -42.8795,14.2054063 -1.18262,0.2936468 -3.24621,0.2936468 -4.72197,0 -42.88875,-14.2054063 -42.88875,-14.2054063 -42.88875,-14.2054063 -0.29377,0 -0.58707,-0.30317 -0.58707,-0.30317 -0.30259,-0.293647 -0.30259,-0.293647 -0.30259,-0.587071 0,-10.644633 0,-10.644633 0,-10.644633 h 92.5623"
       id="path41" />
    <path
       inkscape:connector-curvature="0"
       style="fill:url(#g368488a2f1_0_0.3);fill-rule:evenodd;stroke-width:1.01600695"
       d="m -422.60489,-15.385102 v 0 c 42.88012,-14.18922 42.88012,-14.18922 42.88012,-14.18922 1.47583,-0.596276 1.47583,-1.183101 0,-1.779403 -42.88012,-14.198682 -42.88012,-14.198682 -42.88012,-14.198682 -1.18315,-0.293263 -3.53931,-0.293263 -4.72246,0 -42.88945,14.198682 -42.88945,14.198682 -42.88945,14.198682 -1.18234,0.596302 -1.18234,1.183127 0,1.779403 42.88945,14.18922 42.88945,14.18922 42.88945,14.18922 1.4766,0.293532 3.53931,0.293532 4.72246,0"
       id="path50" />
    <path
       inkscape:connector-curvature="0"
       style="fill:url(#g368488a2f1_0_0.4);fill-rule:evenodd;stroke-width:1.01600695"
       d="m -378.56823,-46.000039 v 0 c 0,10.644638 0,10.644638 0,10.644638 0,0.293416 -0.293,0.587067 -1.18262,0.890244 -42.8795,14.205433 -42.8795,14.205433 -42.8795,14.205433 -1.18261,0.293609 -3.2462,0.293609 -4.72196,0 -42.88876,-14.205433 -42.88876,-14.205433 -42.88876,-14.205433 -0.29376,0 -0.58706,-0.30317 -0.58706,-0.30317 -0.3026,-0.293646 -0.3026,-0.293646 -0.3026,-0.587067 0,-10.644637 0,-10.644637 0,-10.644637 h 92.5623"
       id="path63" />
    <path
       inkscape:connector-curvature="0"
       style="fill:url(#g368488a2f1_0_0.5);fill-rule:evenodd;stroke-width:1.01600695"
       d="m -422.64866,-30.942243 v 0 c 42.88015,-14.189221 42.88015,-14.189221 42.88015,-14.189221 1.4758,-0.596275 1.4758,-1.1831 0,-1.779402 -42.88015,-14.198679 -42.88015,-14.198679 -42.88015,-14.198679 -1.18312,-0.293262 -3.53932,-0.293262 -4.72243,0 -42.88945,14.198679 -42.88945,14.198679 -42.88945,14.198679 -1.18238,0.596302 -1.18238,1.183127 0,1.779402 42.88945,14.189221 42.88945,14.189221 42.88945,14.189221 1.47657,0.293531 3.53931,0.293531 4.72243,0"
       id="path72" />
    <path
       inkscape:connector-curvature="0"
       style="fill:#23282f;fill-rule:evenodd;stroke-width:1.01600695"
       d="m -426.23099,-78.850966 -1.04356,0.174568 -1.04272,0.173761 -1.04357,0.260661 -0.95593,0.348367 -1.04353,0.347561 -0.95674,0.522117 -0.86908,0.522124 -0.9559,0.522106 -1.13039,0.956562 -1.13038,1.04423 -0.95594,1.130319 -0.9567,1.21801 v -5.915468 h -2.6949 v 10.787494 h 10.78042 v -2.696674 h -6.25971 l 0.78225,-1.21801 0.86992,-1.044241 1.04272,-1.04342 1.13039,-0.870476 1.21721,-0.782759 1.21722,-0.609005 1.39085,-0.522129 1.30404,-0.347522 0.9559,-0.173761 0.95674,-0.08767 h 1.99946 l 0.9559,0.174568 0.95674,0.173761 0.86908,0.260661 0.95593,0.348329 1.13039,0.522113 1.13035,0.609005 1.04276,0.782774 1.04357,0.782781 0.69539,0.782763 0.60864,0.782782 0.60861,0.783584 0.52174,0.956543 0.52098,0.869651 0.34829,0.95736 0.34714,1.043432 0.26112,0.957341 0.0868,0.347561 0.0868,0.348367 0.17357,0.173761 0.26112,0.261468 0.26035,0.08686 0.34829,0.08686 h 0.26036 l 0.34829,-0.08686 0.26035,-0.174567 0.26036,-0.173762 0.17433,-0.260661 0.0868,-0.261467 0.0868,-0.347561 v -0.261467 l -0.43484,-1.652433 -0.52179,-1.478667 -0.69542,-1.47947 -0.78226,-1.478664 -0.6086,-0.695885 -0.52179,-0.782782 -0.60779,-0.695882 -0.69543,-0.609005 -0.69624,-0.609005 -0.78225,-0.609006 -0.86908,-0.608993 -0.43495,-0.260661 -0.43416,-0.261468 -0.69543,-0.347522 -0.78306,-0.348367 -0.6086,-0.260661 -0.52098,-0.1738 -1.65213,-0.522124 -1.65137,-0.261468 -1.65217,-0.08686 z"
       id="path164" />
    <path
       inkscape:connector-curvature="0"
       style="fill:#23282f;fill-rule:evenodd;stroke-width:1.01600695"
       d="m -439.61947,-61.365244 -0.34714,0.08686 -0.3479,0.260661 -0.26036,0.348329 -0.17357,0.347561 v 0.435236 l 0.26036,1.21801 0.3479,1.131122 0.43416,1.130308 0.43496,1.044242 0.52174,0.86965 0.52178,0.870484 0.6078,0.782763 0.52179,0.695905 0.6086,0.695882 0.69543,0.609005 0.86988,0.782762 0.95594,0.695905 0.9559,0.609006 1.04356,0.522105 0.69543,0.347522 0.69543,0.348368 1.04356,0.260661 1.04272,0.261467 0.95675,0.260622 0.9559,0.08686 1.04356,0.08686 h 1.91264 l 1.04272,-0.08686 0.95674,-0.1738 0.9559,-0.260622 1.13039,-0.348367 1.04276,-0.435248 1.13039,-0.434415 0.9567,-0.609005 1.04276,-0.695882 0.86908,-0.695905 0.86992,-0.783584 0.86907,-0.869651 0.69543,-0.869662 0.69543,-0.957342 v 5.915446 h 2.69489 v -10.786673 h -10.77961 v 2.696659 h 6.2589 l -0.6078,0.95736 -0.69623,0.869663 -1.04272,1.131129 -1.13039,1.04342 -1.30404,0.869651 -1.39089,0.695905 -1.04272,0.435236 -1.21722,0.348367 -1.13038,0.260661 -1.21722,0.08686 h -1.21721 l -1.21717,-0.08686 -1.21641,-0.173761 -1.13038,-0.261467 -0.86908,-0.347523 -0.86992,-0.348367 -0.78225,-0.434426 -0.78225,-0.435225 -0.78225,-0.522116 -0.69543,-0.609006 -0.69547,-0.609005 -0.69543,-0.609005 -0.52174,-0.695882 -0.52179,-0.782782 -0.52178,-0.695885 -0.43415,-0.782782 -0.34791,-0.869651 -0.34829,-0.870465 -0.26035,-0.782781 -0.17357,-0.956539 -0.0868,-0.261468 -0.0868,-0.260661 -0.17434,-0.260661 -0.26035,-0.174567 -0.34829,-0.173762 -0.26036,-0.08686 z"
       id="path166" />
    <path
       inkscape:connector-curvature="0"
       style="fill:#23282f;fill-rule:evenodd;stroke-width:1.01600695"
       d="m -449.70365,-66.411051 -0.78225,0.08686 -0.60861,0.261467 -0.69542,0.347523 -0.52179,0.435247 -0.43411,0.522117 -0.34829,0.609005 -0.17357,0.695882 -0.0868,0.782782 0.0868,0.695886 0.17357,0.695882 0.34829,0.609005 0.43411,0.522128 0.52179,0.522113 0.69542,0.347561 0.60861,0.173761 0.78225,0.08686 0.69547,-0.08686 0.69539,-0.173761 0.69547,-0.347561 0.52178,-0.522117 0.43492,-0.522124 0.34752,-0.609005 0.17434,-0.695886 0.0868,-0.695882 -0.0868,-0.782782 -0.17434,-0.695885 -0.34752,-0.609006 -0.43492,-0.522113 -0.52178,-0.435247 -0.69547,-0.347523 -0.69539,-0.261467 z"
       id="path168" />
    <path
       inkscape:connector-curvature="0"
       style="fill:#23282f;fill-rule:evenodd;stroke-width:1.01600695"
       d="m -399.97742,-66.411051 -0.78225,0.08686 -0.6086,0.261467 -0.69543,0.347523 -0.52182,0.435247 -0.43412,0.522117 -0.34791,0.609005 -0.17357,0.695882 -0.0868,0.782782 0.0868,0.695886 0.17357,0.695882 0.34791,0.609005 0.43412,0.522128 0.52182,0.522113 0.69543,0.347561 0.6086,0.173761 0.78225,0.08686 0.69543,-0.08686 0.69624,-0.173761 0.69543,-0.347561 0.52097,-0.522113 0.43496,-0.522128 0.34791,-0.609005 0.17357,-0.695882 0.0868,-0.695886 -0.0868,-0.782778 -0.17357,-0.695886 -0.34791,-0.609005 -0.43496,-0.522113 -0.52097,-0.435248 -0.69543,-0.347522 -0.69624,-0.261467 z"
       id="path170" />
  </g>
</svg>
