<?xml version="1.0" encoding="UTF-8" standalone="no"?>
<!-- Created with Inkscape (http://www.inkscape.org/) -->

<svg
   xmlns:dc="http://purl.org/dc/elements/1.1/"
   xmlns:cc="http://creativecommons.org/ns#"
   xmlns:rdf="http://www.w3.org/1999/02/22-rdf-syntax-ns#"
   xmlns:svg="http://www.w3.org/2000/svg"
   xmlns="http://www.w3.org/2000/svg"
   xmlns:sodipodi="http://sodipodi.sourceforge.net/DTD/sodipodi-0.dtd"
   xmlns:inkscape="http://www.inkscape.org/namespaces/inkscape"
   width="180"
   height="180"
   viewBox="0 0 47.624999 47.625001"
   version="1.1"
   id="svg4161"
   inkscape:version="0.92.2 2405546, 2018-03-11"
   sodipodi:docname="exchange.svg">
  <defs
     id="defs4155" />
  <sodipodi:namedview
     id="base"
     pagecolor="#ffffff"
     bordercolor="#666666"
     borderopacity="1.0"
     inkscape:pageopacity="0.0"
     inkscape:pageshadow="2"
     inkscape:zoom="1.4"
     inkscape:cx="-217.85714"
     inkscape:cy="55.324706"
     inkscape:document-units="mm"
     inkscape:current-layer="layer1"
     showgrid="false"
     units="px"
     fit-margin-top="10"
     fit-margin-left="10"
     fit-margin-right="10"
     fit-margin-bottom="10"
     inkscape:window-width="1920"
     inkscape:window-height="1022"
     inkscape:window-x="0"
     inkscape:window-y="1"
     inkscape:window-maximized="1" />
  <metadata
     id="metadata4158">
    <rdf:RDF>
      <cc:Work
         rdf:about="">
        <dc:format>image/svg+xml</dc:format>
        <dc:type
           rdf:resource="http://purl.org/dc/dcmitype/StillImage" />
        <dc:title />
      </cc:Work>
    </rdf:RDF>
  </metadata>
  <g
     inkscape:label="Layer 1"
     inkscape:groupmode="layer"
     id="layer1"
     transform="translate(-82.020815,-115.84633)">
    <path
       d="m 104.98987,127.20264 -0.77464,0.12977 -0.77405,0.1292 -0.77465,0.1937 -0.70958,0.25888 -0.77466,0.25828 -0.71019,0.38803 -0.645151,0.38799 -0.70959,0.38803 -0.839101,0.71088 -0.839095,0.77601 -0.709587,0.84002 -0.710209,0.90515 v -4.39611 h -2.000465 v 8.01681 h 8.002498 v -2.00406 h -4.646691 l 0.580687,-0.90515 0.645737,-0.77604 0.774036,-0.77544 0.839121,-0.64691 0.90354,-0.58171 0.90357,-0.45257 1.03245,-0.38803 0.96802,-0.25828 0.70959,-0.1292 0.71019,-0.0652 h 1.48424 l 0.70959,0.12976 0.71021,0.1292 0.64513,0.19372 0.70959,0.25887 0.8391,0.38803 0.8391,0.45258 0.77404,0.58172 0.77465,0.58173 0.51623,0.58173 0.45178,0.58171 0.45178,0.58234 0.38732,0.71086 0.38672,0.64631 0.25843,0.71145 0.25781,0.77543 0.19397,0.71147 0.0644,0.25828 0.0644,0.25888 0.12891,0.12906 0.19396,0.19431 0.19338,0.0645 0.2584,0.0645 h 0.19337 l 0.25841,-0.0645 0.19337,-0.12977 0.19336,-0.1292 0.12949,-0.1937 0.0644,-0.19431 0.0644,-0.25828 v -0.19431 l -0.32287,-1.22802 -0.38732,-1.09888 -0.51624,-1.09949 -0.58069,-1.09887 -0.45178,-0.51716 -0.38731,-0.58171 -0.45119,-0.51716 -0.51622,-0.4526 -0.51683,-0.45259 -0.58069,-0.45257 -0.64514,-0.4526 -0.32288,-0.1937 -0.32225,-0.19431 -0.51623,-0.25829 -0.58129,-0.25887 -0.45178,-0.1937 -0.38673,-0.1292 -1.22643,-0.38802 -1.22581,-0.19431 -1.22644,-0.0645 z"
       id="path32"
       inkscape:connector-curvature="0"
       style="fill:#2c3e50;fill-rule:evenodd;stroke:none;stroke-width:0.37360093;stroke-linecap:square;stroke-miterlimit:10;fill-opacity:1" />
    <path
       d="m 95.051366,140.1973 -0.257818,0.0645 -0.258412,0.19369 -0.193368,0.25888 -0.128905,0.25828 v 0.32345 l 0.193364,0.90517 0.258412,0.84062 0.322273,0.83999 0.322865,0.77604 0.387328,0.6463 0.387319,0.64688 0.451176,0.58173 0.387327,0.51716 0.451781,0.51716 0.516228,0.45258 0.645752,0.58172 0.709576,0.51716 0.70959,0.45258 0.774656,0.38803 0.51623,0.25828 0.51622,0.25888 0.77468,0.1937 0.77403,0.19431 0.71018,0.19371 0.70961,0.0645 0.77464,0.0645 h 1.41979 l 0.77405,-0.0645 0.71019,-0.12921 0.70959,-0.1937 0.83911,-0.25888 0.77405,-0.32344 0.83908,-0.32286 0.7102,-0.45258 0.77405,-0.51715 0.64514,-0.51716 0.64574,-0.58234 0.64515,-0.64629 0.51622,-0.6463 0.51623,-0.71145 v 4.39613 h 2.00047 v -8.01624 h -8.00187 v 2.00406 h 4.64607 l -0.45117,0.71147 -0.51684,0.64629 -0.77405,0.84061 -0.8391,0.77542 -0.96802,0.64629 -1.03245,0.51716 -0.77405,0.32345 -0.90355,0.25888 -0.83911,0.19371 -0.90355,0.0645 h -0.90356 l -0.90355,-0.0645 -0.90295,-0.12906 -0.8391,-0.19431 -0.64515,-0.25828 -0.64574,-0.25888 -0.58068,-0.32285 -0.58069,-0.32344 -0.58068,-0.38803 -0.51623,-0.45258 -0.51624,-0.45259 -0.516212,-0.45258 -0.387335,-0.51716 -0.38733,-0.58172 -0.387315,-0.51716 -0.322272,-0.58173 -0.258412,-0.64628 -0.258424,-0.6469 -0.193357,-0.58174 -0.128905,-0.71085 -0.06446,-0.19431 -0.06444,-0.19372 -0.129512,-0.1937 -0.193357,-0.12977 -0.258424,-0.1292 -0.193358,-0.0645 z"
       id="path34"
       inkscape:connector-curvature="0"
       style="fill:#2c3e50;fill-rule:evenodd;stroke:none;stroke-width:0.37360093;stroke-linecap:square;stroke-miterlimit:10;fill-opacity:1" />
    <path
       d="m 87.565712,136.44747 -0.580685,0.0645 -0.451781,0.19431 -0.51623,0.25828 -0.387331,0.32345 -0.32226,0.38802 -0.258424,0.45258 -0.128905,0.51716 -0.06446,0.58173 0.06446,0.51716 0.128905,0.51716 0.258424,0.45257 0.32226,0.38802 0.387331,0.38802 0.51623,0.25827 0.451781,0.1292 0.580685,0.0645 0.51623,-0.0645 0.516235,-0.1292 0.516218,-0.25827 0.387332,-0.38802 0.322873,-0.38802 0.25781,-0.45257 0.129512,-0.51716 0.06445,-0.51716 -0.06445,-0.58173 -0.129512,-0.51716 -0.25781,-0.45258 -0.322873,-0.38802 -0.387332,-0.32345 -0.516218,-0.25828 -0.516235,-0.19431 z"
       id="path36"
       inkscape:connector-curvature="0"
       style="fill:#2c3e50;fill-rule:evenodd;stroke:none;stroke-width:0.37360093;stroke-linecap:square;stroke-miterlimit:10;fill-opacity:1" />
    <path
       d="m 124.47836,136.44747 -0.58069,0.0645 -0.45178,0.19431 -0.51622,0.25828 -0.38734,0.32345 -0.32225,0.38802 -0.25843,0.45258 -0.12892,0.51716 -0.0645,0.58173 0.0645,0.51716 0.12892,0.51716 0.25843,0.45257 0.32225,0.38802 0.38734,0.38802 0.51622,0.25827 0.45178,0.1292 0.58069,0.0645 0.51622,-0.0645 0.51684,-0.1292 0.51622,-0.25827 0.38673,-0.38802 0.32286,-0.38802 0.25843,-0.45257 0.12892,-0.51716 0.0644,-0.51716 -0.0644,-0.58173 -0.12892,-0.51716 -0.25843,-0.45258 -0.32286,-0.38802 -0.38673,-0.32345 -0.51622,-0.25828 -0.51684,-0.19431 z"
       id="path38"
       inkscape:connector-curvature="0"
       style="fill:#2c3e50;fill-rule:evenodd;stroke:none;stroke-width:0.37360093;stroke-linecap:square;stroke-miterlimit:10;fill-opacity:1" />
  </g>
</svg>
