<?xml version="1.0" encoding="UTF-8" standalone="no"?>
<!-- Created with Inkscape (http://www.inkscape.org/) -->

<svg
   xmlns:dc="http://purl.org/dc/elements/1.1/"
   xmlns:cc="http://creativecommons.org/ns#"
   xmlns:rdf="http://www.w3.org/1999/02/22-rdf-syntax-ns#"
   xmlns:svg="http://www.w3.org/2000/svg"
   xmlns="http://www.w3.org/2000/svg"
   xmlns:sodipodi="http://sodipodi.sourceforge.net/DTD/sodipodi-0.dtd"
   xmlns:inkscape="http://www.inkscape.org/namespaces/inkscape"
   width="118.59245"
   height="92.943184"
   viewBox="0 0 31.377586 24.591218"
   version="1.1"
   id="svg4114"
   inkscape:version="0.92.2 2405546, 2018-03-11"
   sodipodi:docname="gears.svg">
  <defs
     id="defs4108" />
  <sodipodi:namedview
     id="base"
     pagecolor="#ffffff"
     bordercolor="#666666"
     borderopacity="1.0"
     inkscape:pageopacity="0.0"
     inkscape:pageshadow="2"
     inkscape:zoom="0.35"
     inkscape:cx="830.72416"
     inkscape:cy="-99.243823"
     inkscape:document-units="mm"
     inkscape:current-layer="layer1"
     showgrid="false"
     units="px"
     fit-margin-top="10"
     fit-margin-left="10"
     fit-margin-right="10"
     fit-margin-bottom="10"
     inkscape:window-width="1920"
     inkscape:window-height="1022"
     inkscape:window-x="0"
     inkscape:window-y="1"
     inkscape:window-maximized="1" />
  <metadata
     id="metadata4111">
    <rdf:RDF>
      <cc:Work
         rdf:about="">
        <dc:format>image/svg+xml</dc:format>
        <dc:type
           rdf:resource="http://purl.org/dc/dcmitype/StillImage" />
        <dc:title></dc:title>
      </cc:Work>
    </rdf:RDF>
  </metadata>
  <g
     inkscape:label="Layer 1"
     inkscape:groupmode="layer"
     id="layer1"
     transform="translate(253.05767,-97.983847)">
    <path
       d="m -241.50889,106.63784 0.2804,0.0306 0.27914,0.0319 0.2804,0.0625 0.24982,0.093 0.27914,0.12491 0.24981,0.15549 0.21795,0.15549 0.21796,0.21794 0.21795,0.21795 0.15551,0.21793 0.15549,0.24853 0.12491,0.2804 0.0931,0.24853 0.0624,0.28039 0.0306,0.2804 v 0.28039 0.27912 l -0.0306,0.2498 -0.0624,0.2804 -0.0931,0.27912 -0.12491,0.2498 -0.15549,0.24852 -0.15551,0.24981 -0.21795,0.21795 -0.21796,0.18607 -0.21795,0.18735 -0.24981,0.12363 -0.27914,0.12491 -0.24982,0.093 -0.2804,0.0624 -0.27914,0.0319 -0.2804,0.0306 -0.28041,-0.0306 -0.28041,-0.0319 -0.24855,-0.0624 -0.28041,-0.0931 -0.24854,-0.1249 -0.24982,-0.12363 -0.24854,-0.18735 -0.21795,-0.18607 -0.18737,-0.21795 -0.18609,-0.24981 -0.12491,-0.24852 -0.12491,-0.24981 -0.093,-0.27912 -0.0625,-0.28039 -0.0625,-0.2498 v -0.27912 -0.2804 l 0.0625,-0.28039 0.0625,-0.28039 0.093,-0.24853 0.12491,-0.2804 0.12491,-0.24853 0.18609,-0.21793 0.18737,-0.21795 0.21795,-0.21794 0.24854,-0.1555 0.24982,-0.15548 0.24854,-0.12491 0.28041,-0.093 0.24855,-0.0625 0.28041,-0.0319 z m -0.62328,-6.00807 -0.1555,0.0319 -0.15549,0.0306 -0.15551,0.093 -0.1249,0.0943 -0.12364,0.12363 -0.0943,0.1249 -0.0625,0.15549 -0.0306,0.15549 -0.21795,1.83657 -0.37346,0.12491 -0.37345,0.15549 -0.34287,0.15549 -0.34158,0.18735 -1.46322,-1.15215 -0.15551,-0.0931 -0.15549,-0.0624 -0.15678,-0.0319 h -0.311 l -0.18608,0.0625 -0.12491,0.0943 -0.12491,0.093 -0.87182,0.87177 -0.12363,0.12363 -0.0625,0.15676 -0.0624,0.15549 -0.0306,0.1555 v 0.18607 l 0.0306,0.15549 0.0624,0.15677 0.0931,0.12363 1.15222,1.46314 -0.18736,0.34284 -0.15551,0.37344 -0.1249,0.37343 -0.12364,0.37343 -1.83667,0.18736 -0.1555,0.0612 -0.1555,0.0625 -0.15677,0.093 -0.12364,0.0943 -0.093,0.15549 -0.0625,0.1249 -0.0624,0.18608 v 0.15549 1.21461 0.18608 l 0.0624,0.15549 0.0625,0.15549 0.093,0.12491 0.12364,0.1249 0.15677,0.093 0.1555,0.0625 0.1555,0.0306 1.83667,0.21795 0.12364,0.37342 0.1249,0.34285 0.15551,0.37343 0.18736,0.34285 -1.15222,1.46313 -0.0931,0.1555 -0.0624,0.15549 -0.0306,0.15549 v 0.15549 l 0.0306,0.15549 0.0624,0.15549 0.0625,0.15676 0.12363,0.12363 0.87182,0.87177 0.12491,0.1249 0.12491,0.0624 0.18608,0.0612 0.1555,0.0319 h 0.1555 l 0.15678,-0.0624 0.15549,-0.0624 0.15551,-0.0625 1.46322,-1.15088 0.34158,0.15549 0.34287,0.18608 0.37345,0.1249 0.37346,0.1249 0.21795,1.83657 0.0306,0.15549 0.0625,0.1555 0.0943,0.15549 0.12364,0.12491 0.1249,0.093 0.15551,0.0624 0.15549,0.0624 h 1.55627 l 0.18736,-0.0624 0.12491,-0.0624 0.1555,-0.093 0.093,-0.12491 0.0931,-0.15549 0.0625,-0.1555 0.0319,-0.15549 0.21668,-1.83657 0.37472,-0.1249 0.37345,-0.1249 0.37346,-0.18608 0.34159,-0.15549 1.46322,1.15088 0.12491,0.0625 0.1555,0.0624 0.1555,0.0624 h 0.18737 l 0.15549,-0.0319 0.1555,-0.0612 0.1555,-0.0624 0.12491,-0.1249 0.87181,-0.87177 0.093,-0.12363 0.0931,-0.15676 0.0319,-0.15549 0.0306,-0.15549 v -0.15549 l -0.0306,-0.15549 -0.0624,-0.15549 -0.0943,-0.1555 -1.15094,-1.46313 0.18609,-0.34285 0.1555,-0.37343 0.15677,-0.34285 0.093,-0.37342 1.86726,-0.21795 0.1555,-0.0306 0.15551,-0.0625 0.1249,-0.093 0.12491,-0.1249 0.093,-0.12491 0.0931,-0.15549 0.0319,-0.15549 0.0306,-0.18608 v -1.21461 l -0.0306,-0.15549 -0.0319,-0.18608 -0.0931,-0.1249 -0.093,-0.15549 -0.12491,-0.0943 -0.1249,-0.093 -0.15551,-0.0625 -0.15549,-0.0612 -1.86727,-0.18736 -0.093,-0.37343 -0.15677,-0.37343 -0.1555,-0.37344 -0.18609,-0.34284 1.15094,-1.46314 0.0943,-0.12363 0.0624,-0.15677 0.0306,-0.15549 v -0.18607 l -0.0306,-0.1555 -0.0319,-0.15549 -0.0931,-0.15676 -0.093,-0.12363 -0.87181,-0.87177 -0.12491,-0.093 -0.1555,-0.0943 -0.1555,-0.0625 h -0.34286 l -0.1555,0.0319 -0.1555,0.0624 -0.12491,0.093 -1.46322,1.15216 -0.34159,-0.18735 -0.37346,-0.15549 -0.37345,-0.15549 -0.37472,-0.12491 -0.21668,-1.83657 -0.0319,-0.15549 -0.0625,-0.15549 -0.0931,-0.1249 -0.093,-0.12363 -0.1555,-0.0943 -0.12491,-0.093 -0.18736,-0.0306 -0.1555,-0.0319 z"
       id="path48"
       inkscape:connector-curvature="0"
       style="fill:#691fdd;fill-rule:evenodd;stroke:none;stroke-width:0.26458332;stroke-linecap:square;stroke-miterlimit:10" />
    <path
       d="m -229.46153,112.70707 0.21667,0.0319 h 0.21796 l 0.18736,0.0624 0.21796,0.0624 0.18608,0.093 0.18737,0.093 0.18737,0.1249 0.15549,0.15549 0.1555,0.12491 0.12364,0.18607 0.0943,0.1555 0.093,0.18735 0.0931,0.18608 0.0319,0.21794 0.0306,0.18736 0.0319,0.21794 v 0.18608 l -0.0319,0.21794 -0.0306,0.21794 -0.0625,0.18735 -0.093,0.21795 -0.12492,0.18607 -0.12491,0.1555 -0.12362,0.18735 -0.15678,0.1249 -0.1555,0.12363 -0.18609,0.1249 -0.18736,0.093 -0.1861,0.0625 -0.18735,0.0624 -0.21796,0.0306 -0.18609,0.0319 -0.21795,-0.0319 h -0.21796 l -0.18736,-0.0612 -0.21795,-0.0625 -0.18609,-0.0943 -0.18737,-0.093 -0.18608,-0.1249 -0.15678,-0.15549 -0.1555,-0.12362 -0.12363,-0.18736 -0.0943,-0.15549 -0.093,-0.18735 -0.093,-0.18608 -0.0319,-0.21795 -0.0612,-0.18735 v -0.21794 -0.18608 l 0.0306,-0.21793 0.0306,-0.21795 0.0625,-0.18735 0.0943,-0.21795 0.12364,-0.18607 0.12491,-0.15549 0.12491,-0.18736 0.1555,-0.12363 0.1555,-0.1249 0.18609,-0.1249 0.18736,-0.093 0.18609,-0.0624 0.18736,-0.0625 0.21795,-0.0306 z m -1.12164,-2.92501 -0.093,0.0306 -0.68446,0.21794 -0.0943,0.0306 -0.093,0.0625 -0.12491,0.15549 -0.0612,0.18735 v 0.093 0.093 l 0.311,1.46314 -0.21795,0.1555 -0.18737,0.18735 -1.3689,-0.52892 h -0.0943 l -0.12363,-0.0319 -0.18737,0.0624 -0.1555,0.0943 -0.0624,0.0612 -0.0625,0.0943 -0.311,0.62196 -0.0306,0.093 -0.0319,0.0943 0.0319,0.21794 0.0625,0.1555 0.0612,0.093 0.0943,0.0624 1.24527,0.80931 -0.0319,0.24853 -0.0306,0.28039 -1.33832,0.62197 -0.0625,0.0319 -0.093,0.0625 -0.0943,0.18608 -0.0624,0.18735 0.0319,0.093 v 0.093 l 0.24855,0.68568 0.0319,0.0625 0.0612,0.093 0.12491,0.12363 0.18737,0.0624 h 0.18608 l 1.46323,-0.31098 0.15549,0.21794 0.18736,0.18736 -0.49836,1.40069 -0.0306,0.093 v 0.093 l 0.0306,0.18735 0.0931,0.15549 0.0943,0.0624 0.0612,0.0624 0.65386,0.31099 0.0943,0.0624 h 0.27913 l 0.18737,-0.0943 0.0625,-0.0624 0.0625,-0.0612 0.80936,-1.2452 0.27913,0.0306 h 0.24982 l 0.622,1.33824 0.0625,0.0943 0.0625,0.0612 0.15549,0.0943 0.18737,0.0624 h 0.093 l 0.093,-0.0319 0.68445,-0.21794 0.0943,-0.0306 0.0625,-0.0625 0.12364,-0.15549 0.0943,-0.18735 v -0.093 -0.093 l -0.31227,-1.46314 0.18736,-0.15549 0.21796,-0.18736 1.3689,0.52893 h 0.0943 l 0.093,0.0319 0.18609,-0.0624 0.18736,-0.093 0.0625,-0.0624 0.0624,-0.093 0.311,-0.65383 0.0306,-0.0624 0.0319,-0.12491 -0.0319,-0.18607 -0.093,-0.15676 -0.0624,-0.093 -0.0625,-0.0624 -1.24528,-0.80932 0.0319,-0.24853 v -0.2804 l 1.33832,-0.62196 0.093,-0.0319 0.0943,-0.0624 0.093,-0.18608 0.0306,-0.18736 v -0.093 -0.093 l -0.24855,-0.68441 -0.0306,-0.0943 -0.0625,-0.0624 -0.1555,-0.12363 -0.15677,-0.0624 h -0.21796 l -1.43135,0.31099 -0.15551,-0.21794 -0.18736,-0.18608 0.49837,-1.4007 0.0319,-0.0943 v -0.093 l -0.0319,-0.18735 -0.12492,-0.15549 -0.0612,-0.093 -0.0625,-0.0306 -0.65386,-0.34285 -0.093,-0.0306 h -0.28042 l -0.18736,0.093 -0.0625,0.0624 -0.0612,0.0625 -0.80937,1.24392 -0.28041,-0.0306 h -0.24981 l -0.622,-1.33823 -0.0625,-0.0931 -0.0625,-0.0624 -0.15551,-0.0943 -0.18608,-0.0612 z"
       id="path50"
       inkscape:connector-curvature="0"
       style="fill:#691fdd;fill-rule:evenodd;stroke:none;stroke-width:0.26458332;stroke-linecap:square;stroke-miterlimit:10" />
  </g>
</svg>
