<?xml version="1.0" encoding="UTF-8" standalone="no"?>
<!-- Created with Inkscape (http://www.inkscape.org/) -->

<svg
   xmlns:dc="http://purl.org/dc/elements/1.1/"
   xmlns:cc="http://creativecommons.org/ns#"
   xmlns:rdf="http://www.w3.org/1999/02/22-rdf-syntax-ns#"
   xmlns:svg="http://www.w3.org/2000/svg"
   xmlns="http://www.w3.org/2000/svg"
   xmlns:sodipodi="http://sodipodi.sourceforge.net/DTD/sodipodi-0.dtd"
   xmlns:inkscape="http://www.inkscape.org/namespaces/inkscape"
   width="180"
   height="180"
   viewBox="0 0 47.624999 47.625001"
   version="1.1"
   id="svg4114"
   inkscape:version="0.92.2 2405546, 2018-03-11"
   sodipodi:docname="gears.svg">
  <defs
     id="defs4108" />
  <sodipodi:namedview
     id="base"
     pagecolor="#ffffff"
     bordercolor="#666666"
     borderopacity="1.0"
     inkscape:pageopacity="0.0"
     inkscape:pageshadow="2"
     inkscape:zoom="0.35"
     inkscape:cx="-118.57189"
     inkscape:cy="-76.527355"
     inkscape:document-units="mm"
     inkscape:current-layer="layer1"
     showgrid="false"
     units="px"
     fit-margin-top="10"
     fit-margin-left="10"
     fit-margin-right="10"
     fit-margin-bottom="10"
     inkscape:window-width="1920"
     inkscape:window-height="1022"
     inkscape:window-x="0"
     inkscape:window-y="1"
     inkscape:window-maximized="1" />
  <metadata
     id="metadata4111">
    <rdf:RDF>
      <cc:Work
         rdf:about="">
        <dc:format>image/svg+xml</dc:format>
        <dc:type
           rdf:resource="http://purl.org/dc/dcmitype/StillImage" />
        <dc:title />
      </cc:Work>
    </rdf:RDF>
  </metadata>
  <g
     inkscape:label="Layer 1"
     inkscape:groupmode="layer"
     id="layer1"
     transform="translate(261.18142,-80.960463)">
    <path
       d="m -244.08746,99.078023 0.45504,0.0497 0.453,0.0518 0.45505,0.10142 0.40542,0.15093 0.453,0.20271 0.4054,0.25233 0.3537,0.252337 0.35371,0.35368 0.3537,0.3537 0.25237,0.35367 0.25233,0.40332 0.20271,0.45505 0.15109,0.40332 0.10126,0.45503 0.0497,0.45504 v 0.45503 0.45297 l -0.0497,0.40539 -0.10126,0.45504 -0.15109,0.45297 -0.20271,0.40539 -0.25233,0.4033 -0.25237,0.40541 -0.3537,0.35369 -0.35371,0.30197 -0.3537,0.30404 -0.4054,0.20063 -0.453,0.20271 -0.40542,0.15092 -0.45505,0.10127 -0.453,0.0518 -0.45504,0.0496 -0.45506,-0.0496 -0.45507,-0.0518 -0.40335,-0.10127 -0.45506,-0.15108 -0.40335,-0.2027 -0.40541,-0.20063 -0.40335,-0.30404 -0.35369,-0.30196 -0.30408,-0.3537 -0.30199,-0.4054 -0.20271,-0.40331 -0.20271,-0.4054 -0.15092,-0.45297 -0.10143,-0.45503 -0.10143,-0.40539 v -0.45296 -0.45505 l 0.10143,-0.45503 0.10143,-0.45503 0.15092,-0.40332 0.20271,-0.45505 0.20271,-0.40332 0.30199,-0.35367 0.30408,-0.3537 0.35369,-0.35368 0.40335,-0.252347 0.40541,-0.25232 0.40335,-0.20271 0.45506,-0.15092 0.40335,-0.10143 0.45507,-0.0518 z m -1.01149,-9.750152 -0.25235,0.05177 -0.25234,0.04966 -0.25236,0.150924 -0.2027,0.153034 -0.20065,0.200632 -0.15303,0.202693 -0.10143,0.252336 -0.0497,0.252336 -0.35369,2.980463 -0.60607,0.20271 -0.60605,0.252335 -0.55643,0.252336 -0.55433,0.304039 -2.37457,-1.869757 -0.25237,-0.151087 -0.25234,-0.101265 -0.25442,-0.05177 h -0.50471 l -0.30198,0.101428 -0.20271,0.153034 -0.20271,0.150924 -1.41482,1.414745 -0.20063,0.200632 -0.10143,0.2544 -0.10127,0.25233 -0.0497,0.25235 v 0.30197 l 0.0497,0.25233 0.10127,0.25441 0.15109,0.20064 1.86987,2.37444 -0.30406,0.55638 -0.25237,0.60603 -0.20269,0.606017 -0.20065,0.60602 -2.98062,0.30405 -0.25236,0.0993 -0.25235,0.10143 -0.25441,0.15092 -0.20065,0.15304 -0.15092,0.25233 -0.10143,0.2027 -0.10127,0.30197 v 0.25234 1.97112 0.30198 l 0.10127,0.25233 0.10143,0.25234 0.15092,0.20271 0.20065,0.20269 0.25441,0.15093 0.25235,0.10142 0.25236,0.0497 2.98062,0.3537 0.20065,0.606 0.20269,0.5564 0.25237,0.60601 0.30406,0.55639 -1.86987,2.37443 -0.15109,0.25236 -0.10127,0.25233 -0.0497,0.25234 v 0.25233 l 0.0497,0.25234 0.10127,0.25233 0.10143,0.2544 0.20063,0.20063 1.41482,1.41475 0.20271,0.20269 0.20271,0.10127 0.30198,0.0993 0.25235,0.0518 h 0.25236 l 0.25442,-0.10126 0.25234,-0.10127 0.25237,-0.10142 2.37457,-1.8677 0.55433,0.25233 0.55643,0.30198 0.60605,0.2027 0.60607,0.20269 0.35369,2.98046 0.0497,0.25234 0.10143,0.25235 0.15303,0.25234 0.20065,0.20271 0.2027,0.15092 0.25236,0.10126 0.25234,0.10127 h 2.52558 l 0.30406,-0.10127 0.20271,-0.10126 0.25235,-0.15092 0.15092,-0.20271 0.15109,-0.25234 0.10143,-0.25235 0.0518,-0.25234 0.35164,-2.98046 0.60811,-0.20269 0.60605,-0.2027 0.60607,-0.30198 0.55435,-0.25233 2.37457,1.8677 0.20271,0.10142 0.25235,0.10127 0.25236,0.10126 h 0.30407 l 0.25233,-0.0518 0.25236,-0.0993 0.25235,-0.10127 0.20271,-0.20269 1.41481,-1.41475 0.15092,-0.20063 0.15109,-0.2544 0.0518,-0.25233 0.0497,-0.25234 v -0.25233 l -0.0497,-0.25234 -0.10127,-0.25233 -0.15303,-0.25236 -1.8678,-2.37443 0.302,-0.55639 0.25235,-0.60601 0.25441,-0.5564 0.15093,-0.606 3.03027,-0.3537 0.25235,-0.0497 0.25237,-0.10142 0.20269,-0.15093 0.20271,-0.20269 0.15092,-0.20271 0.15109,-0.25234 0.0518,-0.25233 0.0497,-0.30198 v -1.97112 l -0.0497,-0.25234 -0.0518,-0.30197 -0.15109,-0.2027 -0.15092,-0.25233 -0.20271,-0.15304 -0.20269,-0.15092 -0.25237,-0.10143 -0.25234,-0.0993 -3.03028,-0.30405 -0.15093,-0.60602 -0.25441,-0.606017 -0.25235,-0.60603 -0.302,-0.55638 1.8678,-2.37444 0.15303,-0.20064 0.10127,-0.25441 0.0497,-0.25233 v -0.30197 l -0.0497,-0.25235 -0.0518,-0.25233 -0.15109,-0.2544 -0.15092,-0.200632 -1.41481,-1.414745 -0.20271,-0.150924 -0.25235,-0.153034 -0.25236,-0.101428 h -0.5564 l -0.25236,0.05177 -0.25235,0.101265 -0.20271,0.150924 -2.37457,1.869774 -0.55435,-0.304039 -0.60607,-0.252336 -0.60605,-0.252336 -0.60811,-0.202709 -0.35164,-2.980463 -0.0518,-0.252336 -0.10143,-0.252336 -0.15109,-0.202693 -0.15092,-0.200632 -0.25235,-0.153034 -0.20271,-0.150924 -0.30406,-0.04966 -0.25235,-0.05177 z"
       id="path48"
       inkscape:connector-curvature="0"
       style="fill:#2c3e50;fill-rule:evenodd;stroke:none;stroke-width:0.42937699;stroke-linecap:square;stroke-miterlimit:10;fill-opacity:1" />
    <path
       d="m -224.5365,108.92742 0.35162,0.0518 h 0.35372 l 0.30405,0.10127 0.35372,0.10126 0.30198,0.15092 0.30407,0.15093 0.30407,0.20269 0.25234,0.25234 0.25235,0.20271 0.20065,0.30196 0.15303,0.25235 0.15092,0.30404 0.15109,0.30198 0.0518,0.35368 0.0497,0.30406 0.0518,0.35368 v 0.30198 l -0.0518,0.35368 -0.0497,0.35368 -0.10143,0.30404 -0.15092,0.3537 -0.20273,0.30196 -0.20271,0.25235 -0.20061,0.30404 -0.25443,0.2027 -0.25235,0.20063 -0.302,0.20269 -0.30405,0.15093 -0.30201,0.10142 -0.30404,0.10127 -0.35372,0.0497 -0.30199,0.0518 -0.3537,-0.0518 h -0.35372 l -0.30405,-0.0993 -0.3537,-0.10143 -0.302,-0.15303 -0.30407,-0.15093 -0.30198,-0.20269 -0.25443,-0.25233 -0.25235,-0.20062 -0.20063,-0.30406 -0.15303,-0.25233 -0.15093,-0.30404 -0.15092,-0.30198 -0.0518,-0.3537 -0.0993,-0.30404 v -0.35368 -0.30198 l 0.0497,-0.35366 0.0497,-0.3537 0.10143,-0.30404 0.15303,-0.3537 0.20065,-0.30196 0.20271,-0.25234 0.20271,-0.30405 0.25235,-0.20064 0.25235,-0.20269 0.302,-0.20269 0.30405,-0.15093 0.302,-0.10126 0.30405,-0.10143 0.3537,-0.0497 z m -1.82024,-4.74683 -0.15093,0.0497 -1.11077,0.35368 -0.15303,0.0497 -0.15093,0.10143 -0.20271,0.25233 -0.0993,0.30404 v 0.15093 0.15092 l 0.5047,2.37445 -0.3537,0.25235 -0.30407,0.30404 -2.22151,-0.85835 h -0.15303 l -0.20063,-0.0518 -0.30408,0.10126 -0.25235,0.15304 -0.10126,0.0993 -0.10143,0.15304 -0.50471,1.00934 -0.0497,0.15093 -0.0518,0.15303 0.0518,0.35368 0.10142,0.25235 0.0993,0.15093 0.15303,0.10126 2.02088,1.31339 -0.0518,0.40332 -0.0497,0.45503 -2.17188,1.00936 -0.10143,0.0518 -0.15092,0.10143 -0.15303,0.30197 -0.10127,0.30404 0.0518,0.15093 v 0.15092 l 0.40336,1.11275 0.0518,0.10143 0.0993,0.15092 0.20271,0.20064 0.30407,0.10126 h 0.30198 l 2.37459,-0.50467 0.25234,0.35368 0.30406,0.30406 -0.80876,2.2731 -0.0497,0.15092 v 0.15093 l 0.0497,0.30404 0.15108,0.25233 0.15304,0.10127 0.0993,0.10126 1.06112,0.50469 0.15303,0.10127 h 0.45298 l 0.30408,-0.15304 0.10142,-0.10126 0.10143,-0.0993 1.31347,-2.02077 0.45298,0.0497 h 0.40542 l 1.00941,2.17176 0.10142,0.15303 0.10143,0.0993 0.25234,0.15303 0.30407,0.10127 h 0.15092 l 0.15093,-0.0518 1.11075,-0.35368 0.15304,-0.0497 0.10142,-0.10143 0.20065,-0.25234 0.15304,-0.30404 v -0.15092 -0.15092 l -0.50677,-2.37445 0.30406,-0.25233 0.35371,-0.30406 2.22151,0.85837 h 0.15303 l 0.15093,0.0518 0.30199,-0.10127 0.30406,-0.15092 0.10143,-0.10127 0.10126,-0.15092 0.50471,-1.06106 0.0496,-0.10127 0.0518,-0.20271 -0.0518,-0.30196 -0.15092,-0.2544 -0.10127,-0.15092 -0.10142,-0.10127 -2.0209,-1.3134 0.0518,-0.40332 v -0.45505 l 2.17189,-1.00934 0.15092,-0.0518 0.15303,-0.10126 0.15093,-0.30198 0.0497,-0.30406 v -0.15092 -0.15093 l -0.40336,-1.11069 -0.0497,-0.15303 -0.10143,-0.10127 -0.25235,-0.20063 -0.25441,-0.10126 h -0.35372 l -2.32285,0.50469 -0.25237,-0.35369 -0.30406,-0.30198 0.80878,-2.27311 0.0518,-0.15303 v -0.15093 l -0.0518,-0.30404 -0.20273,-0.25233 -0.0993,-0.15093 -0.10143,-0.0497 -1.06111,-0.55639 -0.15093,-0.0497 h -0.45507 l -0.30406,0.15093 -0.10143,0.10126 -0.0993,0.10143 -1.31348,2.01869 -0.45506,-0.0497 h -0.4054 l -1.00941,-2.17174 -0.10142,-0.15109 -0.10143,-0.10126 -0.25237,-0.15304 -0.30198,-0.0993 z"
       id="path50"
       inkscape:connector-curvature="0"
       style="fill:#2c3e50;fill-rule:evenodd;stroke:none;stroke-width:0.42937699;stroke-linecap:square;stroke-miterlimit:10;fill-opacity:1" />
  </g>
</svg>
