<?xml version="1.0" encoding="UTF-8" standalone="no"?>
<!-- Created with Inkscape (http://www.inkscape.org/) -->

<svg
   xmlns:dc="http://purl.org/dc/elements/1.1/"
   xmlns:cc="http://creativecommons.org/ns#"
   xmlns:rdf="http://www.w3.org/1999/02/22-rdf-syntax-ns#"
   xmlns:svg="http://www.w3.org/2000/svg"
   xmlns="http://www.w3.org/2000/svg"
   xmlns:sodipodi="http://sodipodi.sourceforge.net/DTD/sodipodi-0.dtd"
   xmlns:inkscape="http://www.inkscape.org/namespaces/inkscape"
   width="114.23917"
   height="89.102867"
   viewBox="0 0 30.225781 23.575134"
   version="1.1"
   id="svg3985"
   inkscape:version="0.92.2 2405546, 2018-03-11"
   sodipodi:docname="line-graph.svg">
  <defs
     id="defs3979" />
  <sodipodi:namedview
     id="base"
     pagecolor="#ffffff"
     bordercolor="#666666"
     borderopacity="1.0"
     inkscape:pageopacity="0.0"
     inkscape:pageshadow="2"
     inkscape:zoom="0.35"
     inkscape:cx="148.54816"
     inkscape:cy="-512.59139"
     inkscape:document-units="mm"
     inkscape:current-layer="layer1"
     showgrid="false"
     units="px"
     fit-margin-top="10"
     fit-margin-left="10"
     fit-margin-right="10"
     fit-margin-bottom="10"
     inkscape:window-width="1920"
     inkscape:window-height="1022"
     inkscape:window-x="0"
     inkscape:window-y="1"
     inkscape:window-maximized="1" />
  <metadata
     id="metadata3982">
    <rdf:RDF>
      <cc:Work
         rdf:about="">
        <dc:format>image/svg+xml</dc:format>
        <dc:type
           rdf:resource="http://purl.org/dc/dcmitype/StillImage" />
        <dc:title></dc:title>
      </cc:Work>
    </rdf:RDF>
  </metadata>
  <g
     inkscape:label="Layer 1"
     inkscape:groupmode="layer"
     id="layer1"
     transform="translate(72.565271,10.364948)">
    <path
       d="m -69.415859,-7.7191145 -0.100439,0.067426 -0.134842,0.034401 -0.100438,0.100449 -0.06742,0.1004544 -0.06604,0.1004491 -0.0344,0.1348528 V -7.046232 9.8914669 10.026317 l 0.0344,0.13348 0.06604,0.101825 0.06742,0.100451 0.100438,0.100449 0.134842,0.0344 0.100439,0.06743 h 23.926948 l 0.100444,-0.06743 0.134837,-0.0344 0.100446,-0.100449 0.06741,-0.100451 0.06742,-0.101825 0.03303,-0.13348 V 9.8914675 9.7566145 l -0.03303,-0.133477 -0.06742,-0.101827 -0.06741,-0.100449 -0.100446,-0.100452 -0.134837,-0.0344 -0.100444,-0.06605 H -68.57518 V -7.0462314 l -0.03302,-0.1348502 -0.0344,-0.1348528 -0.06742,-0.1004491 -0.06741,-0.1004544 -0.100446,-0.100449 -0.133462,-0.034401 -0.101811,-0.067426 z"
       id="path44"
       inkscape:connector-curvature="0"
       style="fill:#691fdd;fill-rule:evenodd;stroke:none;stroke-width:0.26458332;stroke-linecap:square;stroke-miterlimit:10" />
    <path
       d="m -47.874725,-6.2728941 -0.169233,0.066048 -0.167867,0.067426 -0.133462,0.1348502 -0.101811,0.1348528 -0.100447,0.1678808 -0.03301,0.1678755 -0.0344,0.2008981 0.0344,0.2022819 0.06741,0.2353019 -4.100187,4.63726215 -0.202256,-0.067426 -0.200885,-0.033025 -0.23528,0.033025 -1.041556,-1.81362625 0.100438,-0.1348501 0.06742,-0.1348502 0.03302,-0.1678782 v -0.1678781 -0.2022766 l -0.06742,-0.1678755 -0.06605,-0.1678807 -0.134836,-0.1334744 -0.134835,-0.1018275 -0.167859,-0.1004491 -0.167868,-0.033028 -0.202258,-0.034399 -0.16786,0.034399 -0.200874,0.033028 -0.134845,0.1004491 -0.134834,0.1018275 -0.133461,0.1334744 -0.06742,0.1678807 -0.06742,0.1678755 -0.03301,0.2022766 0.03301,0.1348502 0.03303,0.1678808 0.0344,0.1348502 0.06742,0.1004517 -3.394361,5.1078662 -0.167857,-0.03302 h -0.370128 l -0.23528,0.100446 -1.712995,-1.8149966 0.06742,-0.20090335 v -0.2022793 -0.2022766 l -0.06742,-0.1678781 -0.06742,-0.1678755 -0.134834,-0.1334796 -0.133464,-0.1018275 -0.169238,-0.1004491 -0.16786,-0.0330253 -0.200885,-0.0344011 -0.167859,0.0344011 -0.202258,0.0330253 -0.134835,0.1004491 -0.133461,0.1018275 -0.134845,0.1334796 -0.06741,0.1678755 -0.06742,0.1678781 -0.03303,0.2022766 0.03303,0.2353019 0.10182,0.23530715 -4.738616,5.6789192 -0.06741,0.101832 v 0.133475 l 0.0344,0.13485 0.100438,0.100449 0.100439,0.06743 h 0.100446 l 0.134834,-0.03303 0.134843,-0.06742 4.704212,-5.7133274 0.16786,0.067432 h 0.134834 l 0.200885,-0.034401 0.167859,-0.033031 1.781795,1.8480274 -0.0344,0.167875 v 0.169252 0.16788 l 0.06742,0.167876 0.101809,0.167875 0.100446,0.134856 0.133464,0.133474 0.169232,0.06743 0.16786,0.06743 0.200882,0.03302 0.202258,-0.03302 0.16786,-0.06743 0.167859,-0.06743 0.134843,-0.133474 0.100438,-0.134856 0.100439,-0.167875 0.03439,-0.167876 0.03303,-0.16788 -0.03303,-0.269701 -0.101809,-0.200901 3.461772,-5.1766703 0.200874,0.034401 h 0.134845 l 1.075952,1.88242315 -0.101812,0.2353045 -0.03303,0.1334744 v 0.1348499 0.2009034 l 0.06742,0.1692514 0.06741,0.16787805 0.133461,0.133477 0.134845,0.1348528 0.167859,0.067424 0.16786,0.067426 h 0.370115 l 0.202258,-0.067426 0.133461,-0.067424 0.134843,-0.1348528 0.134836,-0.133477 0.06604,-0.16787805 0.06742,-0.1692514 0.0344,-0.2009034 -0.0344,-0.1678755 -0.03303,-0.1678754 4.133221,-4.70606445 0.167859,0.034401 0.16786,0.033025 0.202255,-0.033025 0.16786,-0.067426 0.167859,-0.067426 0.134837,-0.1348502 0.100444,-0.1334797 0.100439,-0.1348501 0.0344,-0.2009008 0.03302,-0.1692566 -0.033,-0.2009015 -0.0344,-0.1678755 -0.100436,-0.1678781 -0.100444,-0.1348528 -0.134837,-0.1348502 -0.167859,-0.067426 -0.16786,-0.066048 z"
       id="path46"
       inkscape:connector-curvature="0"
       style="fill:#691fdd;fill-rule:evenodd;stroke:none;stroke-width:0.26458332;stroke-linecap:square;stroke-miterlimit:10" />
  </g>
</svg>
