<?xml version="1.0" encoding="UTF-8" standalone="no"?>
<!-- Created with Inkscape (http://www.inkscape.org/) -->

<svg
   xmlns:dc="http://purl.org/dc/elements/1.1/"
   xmlns:cc="http://creativecommons.org/ns#"
   xmlns:rdf="http://www.w3.org/1999/02/22-rdf-syntax-ns#"
   xmlns:svg="http://www.w3.org/2000/svg"
   xmlns="http://www.w3.org/2000/svg"
   xmlns:sodipodi="http://sodipodi.sourceforge.net/DTD/sodipodi-0.dtd"
   xmlns:inkscape="http://www.inkscape.org/namespaces/inkscape"
   width="180"
   height="180"
   viewBox="0 0 47.625003 47.625001"
   version="1.1"
   id="svg3985"
   inkscape:version="0.92.2 2405546, 2018-03-11"
   sodipodi:docname="line-graph.svg">
  <defs
     id="defs3979" />
  <sodipodi:namedview
     id="base"
     pagecolor="#ffffff"
     bordercolor="#666666"
     borderopacity="1.0"
     inkscape:pageopacity="0.0"
     inkscape:pageshadow="2"
     inkscape:zoom="0.35"
     inkscape:cx="-798.57141"
     inkscape:cy="-488.48115"
     inkscape:document-units="mm"
     inkscape:current-layer="layer1"
     showgrid="false"
     units="px"
     fit-margin-top="10"
     fit-margin-left="10"
     fit-margin-right="10"
     fit-margin-bottom="10"
     inkscape:window-width="1920"
     inkscape:window-height="1022"
     inkscape:window-x="0"
     inkscape:window-y="1"
     inkscape:window-maximized="1" />
  <metadata
     id="metadata3982">
    <rdf:RDF>
      <cc:Work
         rdf:about="">
        <dc:format>image/svg+xml</dc:format>
        <dc:type
           rdf:resource="http://purl.org/dc/dcmitype/StillImage" />
        <dc:title />
      </cc:Work>
    </rdf:RDF>
  </metadata>
  <g
     inkscape:label="Layer 1"
     inkscape:groupmode="layer"
     id="layer1"
     transform="translate(81.264883,28.035645)">
    <path
       d="m -77.764064,-19.389953 -0.170527,0.114477 -0.228936,0.05841 -0.170524,0.170543 -0.114466,0.170553 -0.112123,0.170543 -0.05841,0.228953 v 0.228951 28.756953 0.228949 l 0.05841,0.226623 0.112123,0.17288 0.114466,0.170546 0.170524,0.170543 0.228936,0.0584 0.170527,0.114483 h 40.623353 l 0.170534,-0.114483 0.228927,-0.0584 0.170539,-0.170543 0.114449,-0.170546 0.114466,-0.17288 0.05608,-0.226623 v -0.228948 -0.228955 l -0.05608,-0.226618 -0.114466,-0.1728817 -0.114449,-0.170544 -0.170539,-0.170548 -0.228927,-0.05841 -0.170534,-0.11214 H -76.336754 V -18.247528 l -0.05606,-0.22895 -0.0584,-0.228954 -0.114466,-0.170543 -0.114449,-0.170552 -0.170538,-0.170543 -0.226593,-0.05841 -0.172856,-0.114476 z"
       id="path44"
       inkscape:connector-curvature="0"
       style="fill:#2c3e50;fill-rule:evenodd;stroke:none;stroke-width:0.4492116;stroke-linecap:square;stroke-miterlimit:10;fill-opacity:1" />
    <path
       d="m -41.191365,-16.934549 -0.287324,0.112137 -0.285006,0.114477 -0.226593,0.22895 -0.172855,0.228954 -0.17054,0.285029 -0.05604,0.28502 -0.0584,0.341086 0.0584,0.343436 0.114449,0.399498 -6.961328,7.8731786 -0.343392,-0.1144765 -0.341064,-0.05607 -0.399461,0.05607 -1.768361,-3.0791883 0.170524,-0.2289498 0.114467,-0.228949 0.05606,-0.285025 v -0.285025 -0.343427 l -0.114466,-0.28502 -0.11214,-0.285029 -0.228926,-0.226614 -0.228924,-0.172883 -0.284992,-0.170544 -0.285008,-0.05608 -0.343394,-0.0584 -0.284995,0.0584 -0.341045,0.05608 -0.228941,0.170544 -0.228922,0.172883 -0.226591,0.226614 -0.114466,0.285029 -0.114467,0.28502 -0.05604,0.343427 0.05604,0.22895 0.05608,0.285029 0.05841,0.22895 0.114466,0.170547 -5.762972,8.6721742 -0.284988,-0.056061 h -0.628406 l -0.399461,0.1705379 -2.908336,-3.0815149 0.114467,-0.3410952 v -0.3434319 -0.3434268 l -0.114467,-0.2850247 -0.114466,-0.2850203 -0.228922,-0.2266226 -0.226596,-0.1728836 -0.287334,-0.1705432 -0.284994,-0.05607 -0.341064,-0.058406 -0.284992,0.058406 -0.343395,0.05607 -0.228924,0.1705432 -0.226591,0.1728836 -0.228941,0.2266226 -0.114449,0.2850203 -0.114467,0.2850247 -0.05608,0.3434268 0.05608,0.3994973 0.172871,0.3995063 -8.045258,9.6417126 -0.114449,0.17289 v 0.226615 l 0.0584,0.22895 0.170524,0.170543 0.170527,0.114483 h 0.170537 l 0.228923,-0.05608 0.228937,-0.114465 7.986847,-9.7001312 0.284993,0.1144865 h 0.228923 l 0.341064,-0.058406 0.284992,-0.05608 3.025145,3.13759493 -0.05841,0.2850195 v 0.2873573 0.2850279 l 0.114466,0.2850211 0.172853,0.28501947 0.170537,0.2289596 0.226597,0.2266131 0.287323,0.1144832 0.284994,0.1144832 0.34106,0.056061 0.343394,-0.056061 0.284994,-0.1144832 0.284993,-0.1144832 0.228937,-0.2266131 0.170524,-0.2289596 0.170526,-0.28501947 0.05839,-0.2850211 0.05608,-0.2850279 -0.05608,-0.4579004 -0.172851,-0.3410913 5.877422,-8.78898993 0.341045,0.058406 h 0.228942 l 1.826759,3.1959923 -0.172857,0.3995018 -0.05608,0.2266139 v 0.2289492 0.3410953 l 0.114465,0.2873563 0.11445,0.2850246 0.226591,0.2266182 0.228941,0.2289541 0.284992,0.114473 0.284994,0.1144763 h 0.628384 l 0.343396,-0.1144763 0.226591,-0.114473 0.228937,-0.2289541 0.228926,-0.2266182 0.112122,-0.2850246 0.114467,-0.2873563 0.05841,-0.3410953 -0.05841,-0.2850203 -0.05608,-0.2850202 7.017414,-7.9899914 0.284992,0.05841 0.284995,0.05607 0.343389,-0.05607 0.284995,-0.114477 0.284992,-0.114476 0.228927,-0.22895 0.170535,-0.226623 0.170526,-0.22895 0.05841,-0.34109 0.05606,-0.287366 -0.05603,-0.341092 -0.05841,-0.28502 -0.170521,-0.285024 -0.170535,-0.228955 -0.228928,-0.228949 -0.284991,-0.114477 -0.284995,-0.112137 z"
       id="path46"
       inkscape:connector-curvature="0"
       style="fill:#2c3e50;fill-rule:evenodd;stroke:none;stroke-width:0.4492116;stroke-linecap:square;stroke-miterlimit:10;fill-opacity:1" />
  </g>
</svg>
