<?xml version="1.0" encoding="UTF-8" standalone="no"?>
<!-- Created with Inkscape (http://www.inkscape.org/) -->

<svg
   xmlns:dc="http://purl.org/dc/elements/1.1/"
   xmlns:cc="http://creativecommons.org/ns#"
   xmlns:rdf="http://www.w3.org/1999/02/22-rdf-syntax-ns#"
   xmlns:svg="http://www.w3.org/2000/svg"
   xmlns="http://www.w3.org/2000/svg"
   xmlns:sodipodi="http://sodipodi.sourceforge.net/DTD/sodipodi-0.dtd"
   xmlns:inkscape="http://www.inkscape.org/namespaces/inkscape"
   width="95.606049"
   height="118.37814"
   viewBox="0 0 25.295766 31.320883"
   version="1.1"
   id="svg4071"
   inkscape:version="0.92.2 2405546, 2018-03-11"
   sodipodi:docname="lock.svg">
  <defs
     id="defs4065" />
  <sodipodi:namedview
     id="base"
     pagecolor="#ffffff"
     bordercolor="#666666"
     borderopacity="1.0"
     inkscape:pageopacity="0.0"
     inkscape:pageshadow="2"
     inkscape:zoom="0.35"
     inkscape:cx="1044.9452"
     inkscape:cy="-706.52519"
     inkscape:document-units="mm"
     inkscape:current-layer="layer1"
     showgrid="false"
     units="px"
     fit-margin-top="10"
     fit-margin-left="10"
     fit-margin-right="10"
     fit-margin-bottom="10"
     inkscape:window-width="1920"
     inkscape:window-height="1022"
     inkscape:window-x="0"
     inkscape:window-y="1"
     inkscape:window-maximized="1" />
  <metadata
     id="metadata4068">
    <rdf:RDF>
      <cc:Work
         rdf:about="">
        <dc:format>image/svg+xml</dc:format>
        <dc:type
           rdf:resource="http://purl.org/dc/dcmitype/StillImage" />
        <dc:title></dc:title>
      </cc:Work>
    </rdf:RDF>
  </metadata>
  <g
     inkscape:label="Layer 1"
     inkscape:groupmode="layer"
     id="layer1"
     transform="translate(309.73698,69.422345)">
    <path
       d="m -297.02302,-63.358534 0.22654,0.01326 0.21268,0.01326 0.22594,0.02651 0.21268,0.04036 0.21329,0.05303 0.21268,0.05301 0.19943,0.06688 0.19942,0.07953 0.19944,0.09339 0.18617,0.09278 0.18617,0.106648 0.17292,0.119293 0.17292,0.119896 0.17291,0.133157 0.15967,0.133146 0.1464,0.145809 0.14641,0.159663 0.1464,0.159666 0.1199,0.159655 0.13255,0.172921 0.10665,0.186174 0.10604,0.172913 0.10664,0.199432 0.0801,0.186172 0.0795,0.199421 0.0663,0.213289 0.0669,0.19943 0.0398,0.21268 0.0398,0.21268 0.0265,0.226546 0.0271,0.225931 v 0.225937 2.71366 h -8.79229 v -2.71366 l 0.0133,-0.225938 0.0139,-0.225931 0.0265,-0.226546 0.0398,-0.21268 0.053,-0.21268 0.0536,-0.21268 0.0663,-0.200039 0.0795,-0.199421 0.0934,-0.19943 0.0928,-0.186174 0.10665,-0.186172 0.1199,-0.172915 0.11929,-0.172921 0.13316,-0.159655 0.13314,-0.159666 0.14641,-0.159663 0.15966,-0.145809 0.15967,-0.133146 0.15906,-0.133157 0.17292,-0.119896 0.18677,-0.119293 0.17292,-0.106648 0.19942,-0.09278 0.18618,-0.09339 0.19943,-0.07953 0.21268,-0.06688 0.19943,-0.05302 0.21268,-0.05302 0.22654,-0.04037 0.21269,-0.02651 0.22593,-0.01326 z m 0.0139,11.877691 0.15906,0.01326 0.15966,0.01326 0.17292,0.05302 0.17292,0.05302 0.15966,0.06687 0.14641,0.07953 0.1464,0.08013 0.1199,0.106043 0.13255,0.106637 0.10665,0.119899 0.10664,0.132548 0.0795,0.133157 0.0801,0.146404 0.0663,0.146408 0.053,0.159662 0.0398,0.172924 0.0133,0.159655 0.0139,0.172924 -0.0139,0.239188 -0.0398,0.239197 -0.053,0.213286 -0.0934,0.199424 -0.10605,0.186172 -0.13315,0.186171 -0.15966,0.159666 -0.18617,0.146404 -0.10665,0.09278 -0.0265,0.03977 -0.0265,0.05362 -0.0398,0.10604 v 0.133157 2.50037 0.119899 l -0.0265,0.133157 -0.0265,0.11929 -0.0536,0.119899 -0.0663,0.106637 -0.0934,0.09279 -0.0928,0.08013 -0.10665,0.06628 -0.13254,0.05301 -0.14641,0.04037 -0.13316,0.02651 h -0.11989 l -0.13256,-0.01326 -0.11989,-0.02711 -0.10664,-0.03976 -0.10604,-0.06628 -0.10664,-0.06688 -0.0795,-0.07953 -0.0801,-0.09338 -0.0663,-0.106042 -0.0536,-0.106649 -0.0398,-0.11929 -0.0265,-0.119898 -0.0133,-0.119899 v -0.01326 l 0.0133,-2.500371 -0.0133,-0.119899 -0.0265,-0.106039 -0.0536,-0.08013 -0.0928,-0.09278 -0.13314,-0.106634 -0.13315,-0.119898 -0.10604,-0.119293 -0.10665,-0.133154 -0.0795,-0.146408 -0.0801,-0.133154 -0.053,-0.159657 -0.053,-0.145807 -0.0265,-0.159665 -0.0271,-0.159663 -0.0132,-0.159658 0.0132,-0.159662 0.0133,-0.159666 0.0404,-0.159663 0.053,-0.159663 0.0663,-0.159657 0.0669,-0.146413 0.0928,-0.145801 0.0934,-0.133154 0.10604,-0.119899 0.11989,-0.106042 0.1199,-0.106638 0.13315,-0.09339 0.13255,-0.07952 0.14642,-0.06628 0.1464,-0.06688 0.15966,-0.03977 0.15966,-0.02651 0.14641,-0.02651 z m -0.41271,-15.295666 -0.39885,0.03976 -0.39885,0.05302 -0.38621,0.06628 -0.37234,0.08013 -0.37235,0.106638 -0.35909,0.132551 -0.35909,0.133156 -0.34583,0.159663 -0.33259,0.172913 -0.33257,0.186175 -0.31873,0.199429 -0.30607,0.225938 -0.29281,0.226539 -0.27896,0.252447 -0.27956,0.253053 -0.25305,0.278956 -0.25245,0.279561 -0.22594,0.292214 -0.21268,0.30607 -0.21328,0.31932 -0.18618,0.332579 -0.17291,0.332586 -0.15966,0.345837 -0.13255,0.359085 -0.1199,0.359087 -0.10664,0.372345 -0.0928,0.372346 -0.0669,0.385601 -0.053,0.39946 -0.0265,0.385596 -0.0132,0.412109 v 2.71366 h -0.17292 l -0.21268,0.01326 -0.21329,0.02651 -0.19943,0.05302 -0.18617,0.06628 -0.17292,0.09338 -0.17291,0.106642 -0.15967,0.119293 -0.14581,0.133154 -0.13314,0.146408 -0.1199,0.159662 -0.10604,0.159666 -0.0801,0.186171 -0.0795,0.186172 -0.0536,0.199424 -0.0265,0.19943 -0.0132,0.21268 v 11.372191 l 0.0132,0.21268 0.0265,0.199432 0.0536,0.200028 0.0795,0.186171 0.0801,0.186172 0.10604,0.172916 0.1199,0.159662 0.13314,0.14581 0.14581,0.133146 0.15967,0.119898 0.17291,0.09279 0.17292,0.09338 0.18617,0.06628 0.19943,0.05362 0.21329,0.02652 0.21268,0.01326 h 15.85418 l 0.21329,-0.01326 0.21268,-0.02652 0.18617,-0.05362 0.19943,-0.06628 0.17291,-0.09338 0.17293,-0.09279 0.15966,-0.119898 0.1464,-0.133146 0.13256,-0.14581 0.11989,-0.159662 0.10664,-0.172916 0.0795,-0.186172 0.0801,-0.186171 0.0398,-0.200028 0.0398,-0.199432 0.0133,-0.21268 v -11.372191 l -0.0133,-0.21268 -0.0398,-0.19943 -0.0398,-0.199424 -0.0801,-0.19943 -0.0795,-0.172913 -0.10664,-0.172924 -0.11989,-0.159655 -0.13256,-0.146415 -0.1464,-0.133146 -0.15966,-0.119301 -0.17293,-0.10664 -0.17291,-0.08013 -0.19943,-0.06628 -0.18617,-0.05302 -0.21268,-0.03977 h -0.26631 v -2.726907 -0.398859 l -0.0398,-0.398854 -0.0398,-0.386202 -0.0801,-0.385601 -0.0795,-0.372345 -0.10663,-0.372346 -0.1199,-0.372345 -0.14581,-0.345827 -0.15966,-0.345836 -0.17292,-0.345837 -0.18617,-0.319329 -0.20003,-0.31932 -0.22594,-0.30607 -0.22594,-0.292214 -0.25304,-0.292819 -0.25245,-0.265698 -0.26631,-0.266303 -0.29221,-0.239196 -0.29282,-0.226537 -0.30607,-0.22594 -0.31872,-0.19943 -0.31932,-0.186174 -0.34583,-0.172913 -0.34584,-0.159663 -0.34584,-0.146407 -0.37234,-0.119301 -0.37235,-0.106638 -0.37295,-0.08013 -0.38559,-0.07953 -0.38561,-0.03977 -0.39885,-0.03976 z"
       id="path42"
       inkscape:connector-curvature="0"
       style="fill:#ff5c00;fill-rule:evenodd;stroke:none;stroke-width:0.26458332;stroke-linecap:square;stroke-miterlimit:10" />
  </g>
</svg>
