<?xml version="1.0" encoding="UTF-8" standalone="no"?>
<!-- Created with Inkscape (http://www.inkscape.org/) -->

<svg
   xmlns:dc="http://purl.org/dc/elements/1.1/"
   xmlns:cc="http://creativecommons.org/ns#"
   xmlns:rdf="http://www.w3.org/1999/02/22-rdf-syntax-ns#"
   xmlns:svg="http://www.w3.org/2000/svg"
   xmlns="http://www.w3.org/2000/svg"
   xmlns:sodipodi="http://sodipodi.sourceforge.net/DTD/sodipodi-0.dtd"
   xmlns:inkscape="http://www.inkscape.org/namespaces/inkscape"
   width="180"
   height="180"
   viewBox="0 0 47.624998 47.624998"
   version="1.1"
   id="svg4071"
   inkscape:version="0.92.2 2405546, 2018-03-11"
   sodipodi:docname="lock.svg">
  <defs
     id="defs4065" />
  <sodipodi:namedview
     id="base"
     pagecolor="#ffffff"
     bordercolor="#666666"
     borderopacity="1.0"
     inkscape:pageopacity="0.0"
     inkscape:pageshadow="2"
     inkscape:zoom="0.5"
     inkscape:cx="235.62389"
     inkscape:cy="-355.71433"
     inkscape:document-units="mm"
     inkscape:current-layer="layer1"
     showgrid="false"
     units="px"
     fit-margin-top="10"
     fit-margin-left="10"
     fit-margin-right="10"
     fit-margin-bottom="10"
     inkscape:window-width="1920"
     inkscape:window-height="1022"
     inkscape:window-x="0"
     inkscape:window-y="1"
     inkscape:window-maximized="1" />
  <metadata
     id="metadata4068">
    <rdf:RDF>
      <cc:Work
         rdf:about="">
        <dc:format>image/svg+xml</dc:format>
        <dc:type
           rdf:resource="http://purl.org/dc/dcmitype/StillImage" />
        <dc:title />
      </cc:Work>
    </rdf:RDF>
  </metadata>
  <g
     inkscape:label="Layer 1"
     inkscape:groupmode="layer"
     id="layer1"
     transform="translate(316.00196,77.57442)">
    <path
       d="m -291.68997,-69.369646 0.36844,0.02156 0.3459,0.02157 0.36746,0.04311 0.34591,0.06564 0.34688,0.08625 0.3459,0.08621 0.32435,0.108773 0.32433,0.129345 0.32437,0.151888 0.30278,0.150895 0.30278,0.173449 0.28124,0.194016 0.28123,0.194996 0.28121,0.216563 0.25969,0.216546 0.2381,0.23714 0.23812,0.259673 0.2381,0.259678 0.195,0.259658 0.21558,0.281236 0.17346,0.302788 0.17246,0.281222 0.17343,0.324352 0.13027,0.302786 0.1293,0.324334 0.10783,0.346888 0.1088,0.324348 0.0647,0.345898 0.0647,0.345899 0.0431,0.368449 0.0441,0.367448 v 0.36746 4.413435 h -14.29957 v -4.413435 l 0.0216,-0.36746 0.0226,-0.36745 0.0431,-0.368449 0.0647,-0.345898 0.0862,-0.345898 0.0872,-0.345898 0.10783,-0.325339 0.1293,-0.324334 0.1519,-0.324348 0.15092,-0.302789 0.17346,-0.302786 0.195,-0.281225 0.19401,-0.281235 0.21657,-0.259659 0.21654,-0.259677 0.23811,-0.259672 0.25967,-0.237141 0.25968,-0.216546 0.2587,-0.216563 0.28123,-0.194996 0.30375,-0.194016 0.28124,-0.17345 0.32434,-0.150895 0.30279,-0.151887 0.32435,-0.129346 0.3459,-0.108773 0.32434,-0.08623 0.3459,-0.08623 0.36844,-0.06565 0.34592,-0.04311 0.36745,-0.02157 z m 0.0226,19.317607 0.25869,0.02156 0.25966,0.02157 0.28124,0.08623 0.28123,0.08623 0.25967,0.108756 0.23811,0.129345 0.23811,0.130322 0.195,0.172467 0.21558,0.173432 0.17345,0.195001 0.17343,0.215572 0.1293,0.216564 0.13028,0.238108 0.10783,0.238115 0.0862,0.259671 0.0647,0.281239 0.0216,0.259659 0.0226,0.28124 -0.0226,0.38901 -0.0647,0.389025 -0.0862,0.346883 -0.1519,0.324339 -0.17248,0.302786 -0.21655,0.302784 -0.25968,0.259677 -0.30278,0.238108 -0.17345,0.150895 -0.0431,0.06468 -0.0431,0.08721 -0.0647,0.172461 v 0.216563 4.066546 0.195 l -0.0431,0.216564 -0.0431,0.194011 -0.0872,0.195 -0.10783,0.173432 -0.15191,0.150911 -0.15092,0.130322 -0.17346,0.107797 -0.21555,0.08621 -0.23812,0.06565 -0.21657,0.04311 h -0.19498 l -0.21559,-0.02156 -0.19499,-0.04409 -0.17344,-0.06467 -0.17246,-0.107796 -0.17344,-0.108772 -0.1293,-0.129345 -0.13027,-0.151872 -0.10783,-0.172464 -0.0872,-0.173452 -0.0647,-0.19401 -0.0431,-0.195 -0.0216,-0.195 v -0.02157 l 0.0216,-4.066547 -0.0216,-0.195001 -0.0431,-0.172459 -0.0872,-0.130322 -0.15093,-0.150895 -0.21654,-0.173427 -0.21655,-0.195 -0.17246,-0.194015 -0.17345,-0.216559 -0.1293,-0.238114 -0.13027,-0.216558 -0.0862,-0.259664 -0.0862,-0.237136 -0.0431,-0.259676 -0.0441,-0.259673 -0.0214,-0.259664 0.0214,-0.25967 0.0216,-0.259677 0.0657,-0.259673 0.0862,-0.259672 0.10783,-0.259662 0.10881,-0.238123 0.15093,-0.237128 0.1519,-0.216558 0.17246,-0.195002 0.19499,-0.172464 0.195,-0.173433 0.21655,-0.151887 0.21558,-0.12933 0.23813,-0.107797 0.23811,-0.108771 0.25966,-0.06468 0.25967,-0.04311 0.23812,-0.04311 z m -0.67123,-24.876525 -0.64867,0.06467 -0.64869,0.08623 -0.62812,0.107797 -0.60557,0.130321 -0.60558,0.173434 -0.58402,0.215578 -0.58401,0.216561 -0.56245,0.259673 -0.54092,0.281222 -0.54088,0.302791 -0.51838,0.324346 -0.49778,0.367461 -0.47623,0.368438 -0.45368,0.410574 -0.45468,0.41156 -0.41155,0.453687 -0.41058,0.454672 -0.36746,0.47525 -0.3459,0.497785 -0.34687,0.519335 -0.3028,0.540899 -0.28122,0.540911 -0.25966,0.562461 -0.21559,0.584008 -0.195,0.584011 -0.17343,0.605573 -0.15094,0.605576 -0.1088,0.627132 -0.0862,0.649673 -0.0431,0.627124 -0.0214,0.670245 v 4.413435 H -304.69 l -0.3459,0.02156 -0.34689,0.04311 -0.32434,0.08623 -0.30279,0.107796 -0.28123,0.151871 -0.28122,0.17344 -0.25968,0.194015 -0.23714,0.21656 -0.21654,0.238114 -0.195,0.25967 -0.17246,0.259678 -0.13027,0.302784 -0.1293,0.302786 -0.0872,0.324339 -0.0431,0.324348 -0.0214,0.345898 v 18.495474 l 0.0214,0.345898 0.0431,0.324352 0.0872,0.325321 0.1293,0.302784 0.13027,0.302786 0.17246,0.281227 0.195,0.25967 0.21654,0.237142 0.23714,0.216546 0.25968,0.194999 0.28122,0.150912 0.28123,0.151871 0.30279,0.107796 0.32434,0.08721 0.34689,0.04313 0.3459,0.02156 h 25.78488 l 0.3469,-0.02156 0.34589,-0.04313 0.30278,-0.08721 0.32435,-0.107796 0.28122,-0.151871 0.28125,-0.150912 0.25966,-0.194999 0.23811,-0.216546 0.21559,-0.237142 0.19499,-0.25967 0.17344,-0.281227 0.12929,-0.302786 0.13027,-0.302784 0.0647,-0.325321 0.0647,-0.324352 0.0216,-0.345898 v -18.495474 l -0.0216,-0.345898 -0.0647,-0.324348 -0.0647,-0.324339 -0.13027,-0.324348 -0.12929,-0.281222 -0.17344,-0.28124 -0.19499,-0.259659 -0.21559,-0.238126 -0.23811,-0.216546 -0.25966,-0.194028 -0.28125,-0.173438 -0.28122,-0.13032 -0.32435,-0.107797 -0.30278,-0.08623 -0.34589,-0.06468 h -0.43313 v -4.43498 -0.648695 l -0.0647,-0.648687 -0.0647,-0.628111 -0.13027,-0.627132 -0.1293,-0.605574 -0.17342,-0.605575 -0.195,-0.605574 -0.23714,-0.562445 -0.25967,-0.56246 -0.28124,-0.562461 -0.30278,-0.51935 -0.32533,-0.519334 -0.36745,-0.497786 -0.36747,-0.475249 -0.41154,-0.476235 -0.41058,-0.432125 -0.43312,-0.43311 -0.47524,-0.389023 -0.47624,-0.368434 -0.49779,-0.367464 -0.51835,-0.324349 -0.51933,-0.302789 -0.56246,-0.281221 -0.56246,-0.259672 -0.56247,-0.238114 -0.60557,-0.194028 -0.60558,-0.173434 -0.60656,-0.130321 -0.62711,-0.129346 -0.62715,-0.06468 -0.64868,-0.06467 z"
       id="path42"
       inkscape:connector-curvature="0"
       style="fill:#2c3e50;fill-rule:evenodd;stroke:none;stroke-width:0.43031234;stroke-linecap:square;stroke-miterlimit:10;fill-opacity:1" />
  </g>
</svg>
