<?xml version="1.0" encoding="UTF-8" standalone="no"?>
<!-- Created with Inkscape (http://www.inkscape.org/) -->

<svg
   xmlns:dc="http://purl.org/dc/elements/1.1/"
   xmlns:cc="http://creativecommons.org/ns#"
   xmlns:rdf="http://www.w3.org/1999/02/22-rdf-syntax-ns#"
   xmlns:svg="http://www.w3.org/2000/svg"
   xmlns="http://www.w3.org/2000/svg"
   xmlns:sodipodi="http://sodipodi.sourceforge.net/DTD/sodipodi-0.dtd"
   xmlns:inkscape="http://www.inkscape.org/namespaces/inkscape"
   width="220"
   height="250"
   viewBox="0 0 58.208332 66.145835"
   version="1.1"
   id="svg870"
   inkscape:version="0.92.2 2405546, 2018-03-11"
   sodipodi:docname="map.svg">
  <defs
     id="defs864" />
  <sodipodi:namedview
     id="base"
     pagecolor="#ffffff"
     bordercolor="#666666"
     borderopacity="1.0"
     inkscape:pageopacity="0.0"
     inkscape:pageshadow="2"
     inkscape:zoom="0.35"
     inkscape:cx="-881.42845"
     inkscape:cy="-394.07122"
     inkscape:document-units="mm"
     inkscape:current-layer="layer1"
     showgrid="false"
     units="px"
     fit-margin-top="10"
     fit-margin-left="10"
     fit-margin-right="10"
     fit-margin-bottom="10"
     inkscape:window-width="1920"
     inkscape:window-height="1022"
     inkscape:window-x="0"
     inkscape:window-y="1"
     inkscape:window-maximized="1" />
  <metadata
     id="metadata867">
    <rdf:RDF>
      <cc:Work
         rdf:about="">
        <dc:format>image/svg+xml</dc:format>
        <dc:type
           rdf:resource="http://purl.org/dc/dcmitype/StillImage" />
        <dc:title />
      </cc:Work>
    </rdf:RDF>
  </metadata>
  <g
     inkscape:label="Layer 1"
     inkscape:groupmode="layer"
     id="layer1"
     transform="translate(179.53872,21.577186)">
    <path
       d="m -156.91538,5.3546086 0.26244,0.06508 0.66085,0.398121 0.59582,0.395416 0.20065,0.197707 0.0647,0.265434 -0.0647,0.265376 -0.0677,0.197707 -0.26538,0.197708 -0.26243,0.06773 -0.20065,-0.06773 -0.19771,-0.06508 -0.5284,-0.330454 -0.53075,-0.330395 -0.1977,-0.132629 -0.1324,-0.197708 v -0.265434 l 0.0677,-0.265434 0.13239,-0.197708 0.19771,-0.132628 z m 2.64334,2.315656 0.26538,0.0649 0.1977,0.197707 0.39836,0.595824 0.33069,0.595835 0.0677,0.265435 v 0.262727 l -0.13239,0.197708 -0.20065,0.2004144 -0.13004,0.06508 h -0.33305 l -0.1977,-0.06508 -0.1324,-0.1326294 -0.13298,-0.132805 -0.66085,-1.058954 -0.0653,-0.262727 v -0.265435 l 0.0653,-0.265375 0.20065,-0.132805 0.26243,-0.129981 z m 1.52211,3.1064744 0.26538,0.06773 0.19771,0.132628 0.13239,0.197708 0.5284,1.256673 v 0.265434 l -0.0653,0.262728 -0.13239,0.200414 -0.19771,0.129981 -0.26537,0.06773 -0.19771,-0.06773 -0.19771,-0.06508 -0.13298,-0.132629 -0.0677,-0.197707 -0.46308,-1.191659 -0.0653,-0.262728 0.0653,-0.265434 0.13239,-0.197707 0.20065,-0.132629 z m 1.25668,3.309584 0.20065,0.06508 0.19771,0.132806 0.13298,0.197707 0.46309,1.324382 0.0647,0.262728 -0.0647,0.200414 -0.20065,0.197707 -0.19771,0.132629 -0.19771,0.0649 h -0.19771 l -0.20065,-0.132628 -0.13239,-0.132806 -0.13004,-0.197707 -0.39836,-1.256673 -0.0647,-0.265434 0.0647,-0.262728 0.13298,-0.200414 0.26538,-0.129981 z m 1.38937,3.3069 0.19771,0.197708 0.13239,0.197707 0.53075,1.191694 0.0653,0.265376 v 0.262727 l -0.13299,0.200414 -0.1977,0.129981 -0.33069,0.06773 h -0.1324 l -0.1977,-0.06773 -0.13299,-0.129981 -0.13239,-0.132805 -0.5284,-1.324382 -0.0677,-0.262727 0.0677,-0.200415 0.13004,-0.197707 0.20065,-0.197708 z m 1.45439,3.109169 0.20065,0.129981 0.1977,0.200414 0.72852,0.99128 0.13004,0.265376 0.0677,0.197707 -0.13298,0.265434 -0.1324,0.197708 -0.19771,0.132805 h -0.5278 l -0.20065,-0.197707 -0.39542,-0.595841 -0.46308,-0.595836 -0.0677,-0.197707 v -0.265434 l 0.13239,-0.265435 0.1324,-0.132629 0.26537,-0.12998 z m 2.31565,2.578331 0.26537,0.132805 0.5284,0.330395 0.53075,0.330395 0.19771,0.132629 0.13239,0.265434 v 0.197708 l -0.0677,0.265434 -0.13004,0.197708 -0.13239,0.06508 -0.13239,0.06773 -0.19771,0.0649 -0.26538,-0.0649 -0.66085,-0.398122 -0.59583,-0.395415 -0.1977,-0.200414 -0.0677,-0.262728 v -0.200414 l 0.13239,-0.262727 0.19771,-0.197708 0.26537,-0.06773 z M -158.83561,-9.5277465 V 4.8914906 l 0.20065,0.0649 0.19771,0.197707 0.0647,0.200415 v 0.197707 0.197708 l -0.13239,0.200414 -0.13004,0.129981 -0.20065,0.06773 V 26.652946 l 16.73488,8.466297 v -9.127134 l -0.66084,-0.06773 -0.66085,-0.132629 -0.26538,-0.129981 -0.19771,-0.132805 -0.0677,-0.265434 v -0.265376 l 0.0677,-0.197707 0.19771,-0.197708 0.26538,-0.132629 h 0.26537 l 1.05627,0.197708 V -1.061467 Z"
       id="path30"
       inkscape:connector-curvature="0"
       style="fill:#f1f5f8;fill-rule:evenodd;stroke-width:1.556849;fill-opacity:1" />
    <path
       d="m -162.40788,5.2869176 0.26537,0.06773 0.19771,0.132806 0.13239,0.262727 v 0.265434 l -0.0647,0.197708 -0.13298,0.265434 -0.19771,0.132629 -0.59583,0.197707 -0.5284,0.265435 -0.20065,0.0649 h -0.33069 l -0.13239,-0.0649 -0.13298,-0.132806 -0.13004,-0.132629 -0.0677,-0.265434 v -0.262727 l 0.13298,-0.200415 0.19771,-0.129981 0.66356,-0.33316 0.66085,-0.262728 z m -2.9765,1.787511 0.26537,0.0649 0.19771,0.197707 0.1324,0.200414 v 0.262728 l -0.0647,0.200414 -0.13298,0.262728 -0.46309,0.398122 -0.39835,0.463141 -0.26244,0.197708 -0.26537,0.06773 -0.19771,-0.06773 -0.19771,-0.132629 -0.20065,-0.197708 -0.0653,-0.197707 0.0653,-0.265434 0.1324,-0.265376 0.46308,-0.528161 0.5284,-0.463142 0.20065,-0.132805 z m -2.11524,2.711048 0.19771,0.132805 0.19771,0.1326294 0.13298,0.262727 v 0.265435 l -0.0653,0.265434 -0.66079,1.123956 -0.0677,0.132805 -0.19771,0.132629 -0.13239,0.06508 h -0.19771 l -0.26538,-0.06508 -0.1977,-0.132629 -0.1324,-0.265434 -0.0653,-0.197708 0.0653,-0.265434 0.72852,-1.256643 0.13004,-0.1977084 0.26538,-0.06773 z m -1.6548,3.1742014 0.26538,0.06773 0.19771,0.132629 0.13239,0.197708 0.0677,0.265434 v 0.262669 l -0.46309,1.191676 -0.0677,0.197708 -0.13299,0.132628 -0.1977,0.132806 h -0.39836 l -0.26243,-0.132806 -0.1324,-0.197707 -0.0653,-0.265434 v -0.265434 l 0.46014,-1.256679 0.13239,-0.262728 0.20065,-0.132629 z m -0.8585,3.37458 0.26244,0.132628 0.20065,0.197708 0.0653,0.197708 v 0.265434 l -0.26537,1.321669 -0.13004,0.200414 -0.1324,0.197708 -0.1977,0.06508 -0.20065,0.06773 h -0.1324 l -0.26243,-0.132805 -0.13239,-0.197708 -0.13299,-0.200414 v -0.262727 l 0.26538,-1.324365 0.13239,-0.262727 0.19771,-0.200414 0.19771,-0.0649 z m -0.66084,3.439605 0.26243,0.0649 0.20065,0.200414 0.13004,0.197707 v 0.265435 l -0.0653,0.660837 -0.0653,0.197708 -0.13239,0.197707 -0.20065,0.132629 -0.26244,0.06773 h -0.0677 l -0.26244,-0.06773 -0.20065,-0.132629 -0.0647,-0.262727 -0.0677,-0.265434 0.0677,-0.660838 0.0647,-0.265434 0.20065,-0.197708 0.19771,-0.132629 z m 10.44878,-29.3693008 -15.21277,7.7404632 -0.33069,0.129981 -0.26538,0.2654341 -0.26302,0.2654342 -0.20065,0.33039527 -0.19771,0.2654342 -0.13239,0.3303952 -0.0653,0.3304541 v 0.3303952 33.13931933 0.330396 l 0.13239,0.197707 0.13004,0.200415 0.20065,0.129981 0.19771,0.06773 0.26537,0.06508 0.33069,-0.06508 0.26538,-0.132629 15.14504,-7.737733 V 6.1482456 h -0.39541 l -0.19771,-0.132629 -0.13239,-0.197707 -0.0677,-0.265435 0.0677,-0.265434 0.13239,-0.197707 0.19771,-0.132806 0.19771,-0.0649 0.1977,-0.06773 z"
       id="path32"
       inkscape:connector-curvature="0"
       style="fill:#f1f5f8;fill-rule:evenodd;stroke-width:1.556849;fill-opacity:1" />
    <path
       d="m -130.59026,2.7735715 0.0653,0.067727 0.1324,0.065079 0.0677,0.064902 0.0653,0.3331021 -0.0653,0.330453 -0.20065,0.395417 -1.38936,2.448349 1.45709,0.793555 0.0653,0.06508 0.0677,0.132629 0.0653,0.265434 -0.0653,0.395416 -0.13239,0.398121 -0.26538,0.330454 -0.26537,0.197708 -0.3301,0.132805 h -0.13298 l -0.0653,-0.06508 -1.45438,-0.793543 -1.38937,2.4456424 -0.26538,0.333161 -0.26537,0.197707 -0.33069,0.132806 h -0.13239 l -0.0653,-0.06773 -0.13239,-0.06508 -0.0647,-0.132629 -0.0677,-0.265434 0.0677,-0.395415 0.19771,-0.398122 1.38937,-2.4456554 -1.45439,-0.796267 -0.0677,-0.0649 -0.0647,-0.132629 -0.0677,-0.265434 0.0677,-0.330395 0.13239,-0.395416 0.26243,-0.330454 0.26538,-0.265375 0.33069,-0.06508 h 0.13298 l 0.0653,0.06508 1.4571,0.793525 1.38936,-2.448349 0.26244,-0.3304546 0.26537,-0.2626687 0.33069,-0.067727 z m -1.45439,8.0031675 0.19771,0.06773 0.19771,0.197707 0.13239,0.197708 0.13298,0.728529 v 0.265434 l -0.13298,0.197707 -0.19771,0.197708 -0.20065,0.06773 h -0.33069 l -0.1977,-0.132806 -0.19771,-0.132629 -0.0677,-0.265434 -0.13004,-0.595841 v -0.262733 l 0.0653,-0.197708 0.1977,-0.200414 0.26538,-0.132629 z m 0.19771,2.846483 0.26538,0.06508 0.26243,0.132629 0.13239,0.197707 0.0677,0.265434 0.0653,1.12395 -0.0653,0.265434 v 0.262728 l -0.13298,0.200414 -0.26538,0.132629 -0.26537,0.06508 -0.26244,-0.06508 -0.20065,-0.132629 -0.13004,-0.265434 -0.0677,-0.265434 0.0677,-0.197708 -0.0677,-1.058953 0.0677,-0.262728 0.13004,-0.200414 0.20065,-0.197708 z m 0,3.50459 0.26538,0.132629 0.1977,0.132805 0.1324,0.262669 v 0.265434 l -0.33069,1.389396 -0.0677,0.197708 -0.13239,0.132805 -0.19771,0.06773 -0.19771,0.06508 h -0.19771 l -0.26537,-0.132628 -0.1324,-0.197708 -0.0653,-0.265434 v -0.265439 l 0.26243,-1.188952 0.0677,-0.265435 0.19771,-0.197707 0.19771,-0.132629 z m -1.05897,3.306889 0.19771,0.06773 0.20065,0.197707 0.13239,0.197708 0.0647,0.265375 -0.1324,0.265434 -0.33069,0.660838 -0.46308,0.595835 -0.19771,0.129981 -0.26537,0.06773 h -0.26538 l -0.19771,-0.132806 -0.13239,-0.197707 -0.0653,-0.200415 v -0.262727 l 0.13239,-0.265375 0.33069,-0.463142 0.33069,-0.528162 0.13298,-0.265375 0.26243,-0.06508 z m -2.24792,2.646033 0.1977,0.06773 0.19771,0.197707 0.13239,0.262728 v 0.200414 l -0.13239,0.262728 -0.13239,0.200414 -0.66085,0.395415 -0.59583,0.330454 -0.33069,0.06773 -0.13239,-0.06773 -0.19771,-0.06508 -0.1324,-0.132628 -0.13239,-0.132806 -0.0653,-0.262668 0.0653,-0.265435 0.13239,-0.197707 0.20065,-0.132629 0.52781,-0.330395 0.5284,-0.330395 0.26538,-0.06773 z m -3.24188,1.324417 0.26538,0.129981 0.1977,0.132629 0.0653,0.265434 v 0.265435 l -0.0653,0.197707 -0.1977,0.197708 -0.20065,0.132805 -1.45439,0.197708 h -0.0653 l -0.20065,-0.06508 -0.19771,-0.132629 -0.19771,-0.132805 -0.0677,-0.265376 0.0677,-0.262727 0.13298,-0.197708 0.19771,-0.200414 0.19771,-0.06508 1.25668,-0.197707 z m 13.16256,-33.4047535 -0.26538,0.1328053 -15.14504,7.7377271 V 35.054423 l 15.21277,-7.740434 0.33069,-0.132806 0.26538,-0.262727 0.26243,-0.265434 0.20065,-0.265434 0.19771,-0.330396 0.13239,-0.330454 0.0653,-0.330395 V 25.065948 -8.0733602 -8.4038143 l -0.13239,-0.2004143 -0.13004,-0.1977075 -0.20065,-0.1328054 -0.19771,-0.065079 z"
       id="path34"
       inkscape:connector-curvature="0"
       style="fill:#f1f5f8;fill-rule:evenodd;stroke-width:1.556849;fill-opacity:1" />
  </g>
</svg>
