<?xml version="1.0" encoding="UTF-8" standalone="no"?>
<!-- Created with Inkscape (http://www.inkscape.org/) -->

<svg
   xmlns:dc="http://purl.org/dc/elements/1.1/"
   xmlns:cc="http://creativecommons.org/ns#"
   xmlns:rdf="http://www.w3.org/1999/02/22-rdf-syntax-ns#"
   xmlns:svg="http://www.w3.org/2000/svg"
   xmlns="http://www.w3.org/2000/svg"
   xmlns:sodipodi="http://sodipodi.sourceforge.net/DTD/sodipodi-0.dtd"
   xmlns:inkscape="http://www.inkscape.org/namespaces/inkscape"
   width="111.14523"
   height="106.37303"
   viewBox="0 0 29.407176 28.144532"
   version="1.1"
   id="svg457"
   inkscape:version="0.92.2 2405546, 2018-03-11"
   sodipodi:docname="market-maker-on-ripple.svg">
  <defs
     id="defs451">
    <linearGradient
       id="g368488a2f1_0_0.13"
       gradientUnits="userSpaceOnUse"
       gradientTransform="matrix(2.4489075,0,0,2.4489075,-42.02034,81.42156)"
       spreadMethod="pad"
       x1="66.913872"
       y1="27.775545"
       x2="60.369152"
       y2="21.230709">
      <stop
         offset="0.0"
         stop-color="#e5e5e5"
         id="stop155" />
      <stop
         offset="1.0"
         stop-color="#fcfcfc"
         id="stop157" />
    </linearGradient>
    <linearGradient
       id="g368488a2f1_0_0.12"
       gradientUnits="userSpaceOnUse"
       gradientTransform="matrix(2.525406,0,0,2.525406,-42.02034,81.42156)"
       spreadMethod="pad"
       x1="53.773647"
       y1="29.613808"
       x2="63.318489"
       y2="29.613808">
      <stop
         offset="0.0"
         stop-color="#dbdcdd"
         id="stop142" />
      <stop
         offset="0.41"
         stop-color="#dbdcdd"
         id="stop144" />
      <stop
         offset="0.6"
         stop-color="#b1b3b5"
         id="stop146" />
      <stop
         offset="1.0"
         stop-color="#b1b3b5"
         id="stop148" />
    </linearGradient>
    <linearGradient
       id="g368488a2f1_0_0.11"
       gradientUnits="userSpaceOnUse"
       gradientTransform="matrix(2.5243605,0,0,2.5243605,-42.02034,81.42156)"
       spreadMethod="pad"
       x1="53.798698"
       y1="30.128933"
       x2="63.339588"
       y2="30.128933">
      <stop
         offset="0.0"
         stop-color="#66ccff"
         id="stop133" />
      <stop
         offset="1.0"
         stop-color="#1db4ff"
         id="stop135" />
    </linearGradient>
    <linearGradient
       id="g368488a2f1_0_0.10"
       gradientUnits="userSpaceOnUse"
       gradientTransform="matrix(2.5254066,0,0,2.5254066,-42.02034,81.42156)"
       spreadMethod="pad"
       x1="53.776218"
       y1="31.218019"
       x2="63.32106"
       y2="31.218019">
      <stop
         offset="0.0"
         stop-color="#0a93eb"
         id="stop120" />
      <stop
         offset="0.45"
         stop-color="#0a93eb"
         id="stop122" />
      <stop
         offset="0.56"
         stop-color="#0f72e5"
         id="stop124" />
      <stop
         offset="1.0"
         stop-color="#0f72e5"
         id="stop126" />
    </linearGradient>
  </defs>
  <sodipodi:namedview
     id="base"
     pagecolor="#ffffff"
     bordercolor="#666666"
     borderopacity="1.0"
     inkscape:pageopacity="0.0"
     inkscape:pageshadow="2"
     inkscape:zoom="0.35"
     inkscape:cx="55.57261"
     inkscape:cy="53.186583"
     inkscape:document-units="mm"
     inkscape:current-layer="layer1"
     showgrid="false"
     units="px"
     fit-margin-top="10"
     fit-margin-left="10"
     fit-margin-right="10"
     fit-margin-bottom="10"
     inkscape:window-width="1920"
     inkscape:window-height="1022"
     inkscape:window-x="0"
     inkscape:window-y="1"
     inkscape:window-maximized="1" />
  <metadata
     id="metadata454">
    <rdf:RDF>
      <cc:Work
         rdf:about="">
        <dc:format>image/svg+xml</dc:format>
        <dc:type
           rdf:resource="http://purl.org/dc/dcmitype/StillImage" />
        <dc:title></dc:title>
      </cc:Work>
    </rdf:RDF>
  </metadata>
  <g
     inkscape:label="Layer 1"
     inkscape:groupmode="layer"
     id="layer1"
     transform="translate(-91.129747,-134.76108)">
    <path
       inkscape:connector-curvature="0"
       style="fill:url(#g368488a2f1_0_0.10);fill-rule:evenodd;stroke-width:0.26458332"
       d="m 117.89109,153.49925 v 0 c 0,2.77202 0,2.77202 0,2.77202 0,0.0764 -0.0763,0.15288 -0.30798,0.23184 -11.16645,3.69929 -11.16645,3.69929 -11.16645,3.69929 -0.30798,0.0765 -0.84536,0.0765 -1.22967,0 -11.168882,-3.69929 -11.168882,-3.69929 -11.168882,-3.69929 -0.07655,0 -0.152881,-0.0789 -0.152881,-0.0789 -0.07876,-0.0765 -0.07876,-0.0765 -0.07876,-0.15289 0,-2.77202 0,-2.77202 0,-2.77202 h 24.104623"
       id="path131" />
    <path
       inkscape:connector-curvature="0"
       style="fill:url(#g368488a2f1_0_0.11);fill-rule:evenodd;stroke-width:0.26458332"
       d="m 106.41676,157.42052 v 0 c 11.16661,-3.69508 11.16661,-3.69508 11.16661,-3.69508 0.38433,-0.15528 0.38433,-0.3081 0,-0.46339 -11.16661,-3.69754 -11.16661,-3.69754 -11.16661,-3.69754 -0.30811,-0.0764 -0.9217,-0.0764 -1.22981,0 -11.169051,3.69754 -11.169051,3.69754 -11.169051,3.69754 -0.307893,0.15529 -0.307893,0.30811 0,0.46339 11.169051,3.69508 11.169051,3.69508 11.169051,3.69508 0.38453,0.0764 0.9217,0.0764 1.22981,0"
       id="path140" />
    <path
       inkscape:connector-curvature="0"
       style="fill:url(#g368488a2f1_0_0.12);fill-rule:evenodd;stroke-width:0.26458332"
       d="m 117.88454,149.44794 v 0 c 0,2.77202 0,2.77202 0,2.77202 0,0.0764 -0.0763,0.15288 -0.30796,0.23183 -11.16647,3.69931 -11.16647,3.69931 -11.16647,3.69931 -0.30796,0.0765 -0.84536,0.0765 -1.22967,0 -11.168864,-3.69931 -11.168864,-3.69931 -11.168864,-3.69931 -0.07654,0 -0.152882,-0.0789 -0.152882,-0.0789 -0.07876,-0.0765 -0.07876,-0.0765 -0.07876,-0.15288 0,-2.77202 0,-2.77202 0,-2.77202 h 24.104606"
       id="path153" />
    <path
       inkscape:connector-curvature="0"
       style="fill:url(#g368488a2f1_0_0.13);fill-rule:evenodd;stroke-width:0.26458332"
       d="m 106.40535,153.36921 v 0 c 11.16663,-3.69508 11.16663,-3.69508 11.16663,-3.69508 0.38431,-0.15528 0.38431,-0.3081 0,-0.46339 -11.16663,-3.69754 -11.16663,-3.69754 -11.16663,-3.69754 -0.3081,-0.0764 -0.92168,-0.0764 -1.2298,0 -11.169038,3.69754 -11.169038,3.69754 -11.169038,3.69754 -0.307909,0.15529 -0.307909,0.30811 0,0.46339 11.169038,3.69508 11.169038,3.69508 11.169038,3.69508 0.38454,0.0764 0.9217,0.0764 1.2298,0"
       id="path162" />
    <path
       inkscape:connector-curvature="0"
       style="fill:#23282f;fill-rule:evenodd;stroke-width:0.26458332"
       d="m 100.26522,143.25455 v 2.87753 h -0.959358 v 2.87723 h 0.959358 v 3.77478 h 0.64965 v -3.77478 h 0.95907 v -2.87723 h -0.95907 v -2.87753 z"
       id="path172" />
    <path
       inkscape:connector-curvature="0"
       style="fill:#23282f;fill-rule:evenodd;stroke-width:0.26458332"
       d="m 105.49401,137.40691 v 3.55823 h -0.92832 v 6.40439 h 0.92832 v 3.77478 h 0.68069 v -3.77478 h 0.95908 v -6.40439 h -0.95908 v -3.55823 z"
       id="path174" />
    <path
       inkscape:connector-curvature="0"
       style="fill:#23282f;fill-rule:evenodd;stroke-width:0.26458332"
       d="m 110.75385,138.24233 v 1.73267 h -0.95938 v 3.27955 h 0.95938 v 5.25984 h 0.6804 v -5.25984 h 0.92831 V 139.975 h -0.92831 v -1.73267 z"
       id="path176" />
  </g>
</svg>
