<?xml version="1.0" encoding="UTF-8" standalone="no"?>
<!-- Created with Inkscape (http://www.inkscape.org/) -->

<svg
   xmlns:dc="http://purl.org/dc/elements/1.1/"
   xmlns:cc="http://creativecommons.org/ns#"
   xmlns:rdf="http://www.w3.org/1999/02/22-rdf-syntax-ns#"
   xmlns:svg="http://www.w3.org/2000/svg"
   xmlns="http://www.w3.org/2000/svg"
   xmlns:sodipodi="http://sodipodi.sourceforge.net/DTD/sodipodi-0.dtd"
   xmlns:inkscape="http://www.inkscape.org/namespaces/inkscape"
   width="135.95256"
   height="123.5759"
   viewBox="0 0 35.970781 32.696124"
   version="1.1"
   id="svg3942"
   inkscape:version="0.92.2 2405546, 2018-03-11"
   sodipodi:docname="network.svg">
  <defs
     id="defs3936" />
  <sodipodi:namedview
     id="base"
     pagecolor="#ffffff"
     bordercolor="#666666"
     borderopacity="1.0"
     inkscape:pageopacity="0.0"
     inkscape:pageshadow="2"
     inkscape:zoom="0.35"
     inkscape:cx="133.69057"
     inkscape:cy="-475.35488"
     inkscape:document-units="mm"
     inkscape:current-layer="layer1"
     showgrid="false"
     units="px"
     fit-margin-top="10"
     fit-margin-left="10"
     fit-margin-right="10"
     fit-margin-bottom="10"
     inkscape:window-width="1920"
     inkscape:window-height="1022"
     inkscape:window-x="0"
     inkscape:window-y="1"
     inkscape:window-maximized="1" />
  <metadata
     id="metadata3939">
    <rdf:RDF>
      <cc:Work
         rdf:about="">
        <dc:format>image/svg+xml</dc:format>
        <dc:type
           rdf:resource="http://purl.org/dc/dcmitype/StillImage" />
        <dc:title></dc:title>
      </cc:Work>
    </rdf:RDF>
  </metadata>
  <g
     inkscape:label="Layer 1"
     inkscape:groupmode="layer"
     id="layer1"
     transform="translate(68.6342,9.6337761)">
    <path
       d="m -47.627683,-3.1736936 0.23445,0.64525 0.352224,0.5285316 0.117223,0.1756278 0.175554,0.2350876 -1.231675,2.05357151 -0.23445,-0.1172687 -0.527778,-0.293444 -5.338368,-3.05118031 0.05889,-0.1761755 z m 3.988919,2.28866171 3.050024,5.33983409 -0.117224,0.117269 -5.690044,-3.1684467 -0.352224,-0.2350876 1.232233,-2.05356879 0.351674,0.1172633 0.586666,0.058912 0.469447,-0.058912 z m -11.145637,-0.88034281 4.986145,2.8755525 0.938347,0.4690719 0.176112,0.1178216 -1.466673,2.4642839 -1.055573,1.81904 h -8.564499 l -0.176112,-0.469077 -0.23445,-0.410716 -0.234444,-0.352351 -0.352224,-0.351808 2.874465,-5.22311859 0.410556,0.0589068 0.410562,0.0589122 0.352219,-0.0589122 0.293338,-0.0589068 0.645006,-0.17562781 0.527786,-0.3523562 z m 7.332279,4.166608 0.352224,0.2345346 5.690037,3.1689993 -0.05889,0.175628 h -8.095056 z m -4.63392,4.9880309 -2.052799,3.5208048 -3.402248,-1.9952148 -2.287791,-1.291053 0.05834,-0.234537 z m -8.446733,1.466683 1.93557,1.114872 3.753916,2.1713938 -1.290012,2.17139 -0.469443,-0.117269 -0.469445,-0.05891 -0.410562,0.05891 -0.410556,0.05836 -1.760011,-3.168446 -1.114454,-2.0541218 z m 19.064025,-1.466683 0.117227,0.469072 0.234997,0.410715 0.23445,0.352356 0.293336,0.351804 -3.050024,5.3403918 -0.469448,-0.117269 -0.469447,-0.05891 -0.351674,0.05891 h -0.293327 l -0.586674,0.234535 -0.586674,0.293449 -0.46944,0.410713 -5.455044,-3.168999 -0.586674,-0.351803 2.463909,-4.2249648 z m -12.142305,5.4571078 0.586665,0.352356 5.455045,3.168444 -0.05834,0.176181 h -6.39393 l -0.176112,-0.469625 -0.176112,-0.410716 -0.23445,-0.351803 -0.293335,-0.293447 z m -3.461134,-19.8343148 -0.645009,0.058359 -0.586668,0.1761781 -0.527783,0.2934467 -0.469448,0.4107153 -0.352219,0.4107127 -0.293338,0.5868909 -0.175561,0.5868908 -0.05889,0.5868961 V -3.52605 l 0.05889,0.3523562 0.117223,0.2934467 0.117227,0.2934441 0.293335,0.5868908 0.469445,0.4690772 -2.874462,5.223118 -0.410562,-0.058906 -0.410557,-0.058913 -0.645559,0.058913 -0.586669,0.176175 -0.527783,0.293447 -0.469447,0.410712 -0.351669,0.469628 -0.293338,0.527979 -0.176112,0.586896 -0.117224,0.586891 0.117224,0.645252 0.176112,0.586891 0.293338,0.527984 0.351669,0.469622 0.469447,0.410713 0.527783,0.23454 0.586669,0.235087 0.645559,0.05836 0.410557,-0.05836 0.410562,-0.05891 1.290563,2.347569 1.583899,2.875002 -0.469445,0.469625 -0.293335,0.527984 -0.117227,0.352353 -0.117223,0.293444 -0.05889,0.351809 v 0.352356 l 0.05889,0.469072 0.05834,0.469622 0.234997,0.410716 0.23445,0.410712 0.293333,0.352356 0.351674,0.351806 0.352218,0.235085 0.469451,0.176181 0.52778,0.175628 0.527785,0.05891 0.527783,-0.05891 0.528331,-0.117269 0.468899,-0.23454 0.41111,-0.293444 0.410554,-0.352356 0.293335,-0.410715 0.23445,-0.469072 0.176112,-0.469622 h 6.393932 l 0.175564,0.469622 0.234998,0.469072 0.293335,0.410715 0.410554,0.352356 0.410562,0.293444 0.469448,0.23454 0.527785,0.117269 0.527778,0.05891 0.645559,-0.05891 0.586674,-0.175628 0.527778,-0.293444 0.4689,-0.411268 0.352221,-0.469072 0.29333,-0.527984 0.176112,-0.586891 0.05834,-0.586891 -0.05834,-0.704165 -0.176112,-0.58689 -0.29333,-0.527984 -0.410559,-0.469623 3.050024,-5.340387 0.469447,0.117819 0.469448,0.05836 0.586666,-0.05836 0.586671,-0.235087 0.527778,-0.23454 0.46945,-0.410713 0.410559,-0.469622 0.293338,-0.527984 0.175562,-0.586891 0.05889,-0.645252 -0.05889,-0.586891 -0.175562,-0.586896 -0.293338,-0.527979 -0.410559,-0.469628 -0.46945,-0.410712 -0.527778,-0.293447 -0.586671,-0.176175 -0.586666,-0.05891 -0.469448,0.05891 -0.469447,0.05891 -3.050024,-5.2814858 0.410559,-0.4696222 0.29333,-0.527984 0.176112,-0.6458029 0.05834,-0.6452473 -0.05834,-0.527984 -0.117218,-0.5285317 -0.176112,-0.4107153 -0.234998,-0.3518086 -0.23445,-0.293444 -0.469447,-0.4107154 -0.527786,-0.2934467 -0.645004,-0.2350849 -0.293335,-0.058359 h -0.352224 l -0.527778,0.058359 -0.527785,0.1178163 -0.469448,0.2345399 -0.410562,0.2934441 -0.410554,0.3518032 -0.293335,0.4107153 -0.234998,0.4696249 -0.175564,0.4696274 h -6.393932 l -0.176112,-0.4696274 -0.23445,-0.4696249 -0.293335,-0.4107153 -0.410554,-0.3518032 -0.41111,-0.2934441 -0.468899,-0.2345399 -0.528331,-0.1178163 z"
       id="path52"
       inkscape:connector-curvature="0"
       style="fill:#1db3ff;fill-rule:evenodd;stroke:none;stroke-width:0.26458332;stroke-linecap:square;stroke-miterlimit:10" />
  </g>
</svg>
