<?xml version="1.0" encoding="UTF-8" standalone="no"?>
<!-- Created with Inkscape (http://www.inkscape.org/) -->

<svg
   xmlns:dc="http://purl.org/dc/elements/1.1/"
   xmlns:cc="http://creativecommons.org/ns#"
   xmlns:rdf="http://www.w3.org/1999/02/22-rdf-syntax-ns#"
   xmlns:svg="http://www.w3.org/2000/svg"
   xmlns="http://www.w3.org/2000/svg"
   xmlns:sodipodi="http://sodipodi.sourceforge.net/DTD/sodipodi-0.dtd"
   xmlns:inkscape="http://www.inkscape.org/namespaces/inkscape"
   width="180"
   height="180"
   viewBox="0 0 47.624999 47.625002"
   version="1.1"
   id="svg3942"
   inkscape:version="0.92.2 2405546, 2018-03-11"
   sodipodi:docname="network.svg">
  <defs
     id="defs3936" />
  <sodipodi:namedview
     id="base"
     pagecolor="#ffffff"
     bordercolor="#666666"
     borderopacity="1.0"
     inkscape:pageopacity="0.0"
     inkscape:pageshadow="2"
     inkscape:zoom="0.35"
     inkscape:cx="-824.28571"
     inkscape:cy="-455.68198"
     inkscape:document-units="mm"
     inkscape:current-layer="layer1"
     showgrid="false"
     units="px"
     fit-margin-top="10"
     fit-margin-left="10"
     fit-margin-right="10"
     fit-margin-bottom="10"
     inkscape:window-width="1920"
     inkscape:window-height="1022"
     inkscape:window-x="0"
     inkscape:window-y="1"
     inkscape:window-maximized="1" />
  <metadata
     id="metadata3939">
    <rdf:RDF>
      <cc:Work
         rdf:about="">
        <dc:format>image/svg+xml</dc:format>
        <dc:type
           rdf:resource="http://purl.org/dc/dcmitype/StillImage" />
        <dc:title />
      </cc:Work>
    </rdf:RDF>
  </metadata>
  <g
     inkscape:label="Layer 1"
     inkscape:groupmode="layer"
     id="layer1"
     transform="translate(74.46131,19.357531)">
    <path
       d="m -46.480034,-8.7548859 0.323512,0.8903634 0.486025,0.7293077 0.161753,0.242344 0.242243,0.324392 -1.699558,2.833671 -0.323512,-0.161816 -0.728267,-0.404916 -7.366279,-4.2102461 0.08126,-0.2431 z m 5.504208,3.1580661 4.208651,7.3683012 -0.161754,0.1618165 -7.851547,-4.3720587 -0.486025,-0.324392 1.700326,-2.833667 0.485267,0.161808 0.809525,0.08129 0.647778,-0.08129 z m -15.379582,-1.214763 6.880256,3.967902 1.294801,0.64726 0.243012,0.162579 -2.023825,3.4004031 -1.456558,2.5100475 h -11.817936 l -0.243012,-0.6472676 -0.323511,-0.5667367 -0.323504,-0.4862002 -0.486025,-0.485451 3.966402,-7.2072491 0.566515,0.08128 0.566525,0.08129 0.486018,-0.08129 0.404769,-0.08128 0.890028,-0.242344 0.728278,-0.486208 z m 10.117627,5.7493967 0.486025,0.32362827 7.851538,4.37282183 -0.08126,0.2423448 H -49.15164 Z m -6.394229,6.8828575 -2.832606,4.8582686 -4.694675,-2.7531456 -3.156865,-1.7814913 0.0805,-0.3236317 z m -11.655433,2.0238386 2.670843,1.5383842 5.179934,2.9962518 -1.780055,2.996247 -0.647772,-0.161817 -0.647775,-0.08129 -0.566525,0.08129 -0.566515,0.08053 -2.428595,-4.37206 -1.537807,-2.8344306 z m 26.305965,-2.0238386 0.161758,0.6472606 0.324267,0.5667352 0.323511,0.4862071 0.404767,0.4854455 -4.208651,7.3690732 -0.647779,-0.161817 -0.647778,-0.08129 -0.485266,0.08129 h -0.404754 l -0.809537,0.323629 -0.809536,0.404923 -0.647769,0.566733 -7.527277,-4.372823 -0.809537,-0.485443 3.399885,-5.8299236 z m -16.754859,7.5301266 0.809524,0.486207 7.527278,4.372056 -0.0805,0.243107 h -8.822823 l -0.243012,-0.648023 -0.243012,-0.566737 -0.323512,-0.485444 -0.404765,-0.40492 z m -4.775931,-27.368868 -0.890032,0.08052 -0.809528,0.243104 -0.728275,0.404919 -0.64778,0.566736 -0.486017,0.566732 -0.40477,0.809836 -0.242252,0.809836 -0.08126,0.8098427 v 0.4854437 l 0.08126,0.4862067 0.161753,0.4049197 0.161758,0.404916 0.404766,0.8098354 0.647775,0.647268 -3.966397,7.20724778 -0.566524,-0.081283 -0.566517,-0.081292 -0.890791,0.081292 -0.80953,0.2430994 -0.728274,0.40492002 -0.647778,0.566731 -0.485259,0.648028 -0.40477,0.7285448 -0.243012,0.809843 -0.161755,0.809836 0.161755,0.8903669 0.243012,0.809836 0.40477,0.7285518 0.485259,0.6480197 0.647778,0.5667326 0.728274,0.323636 0.80953,0.32439 0.890791,0.08053 0.566517,-0.08053 0.566524,-0.08129 1.780816,3.2393518 2.185581,3.967144 -0.647775,0.648023 -0.404766,0.728552 -0.161758,0.486203 -0.161753,0.404916 -0.08126,0.485452 v 0.486207 l 0.08126,0.647261 0.0805,0.648019 0.324267,0.566737 0.323511,0.566731 0.404763,0.486207 0.485266,0.485448 0.486017,0.324388 0.647783,0.243108 0.728271,0.242344 0.728277,0.08129 0.728274,-0.08129 0.729031,-0.161816 0.647021,-0.323636 0.567281,-0.404916 0.566513,-0.486207 0.404765,-0.566735 0.323512,-0.647261 0.243013,-0.648019 h 8.822824 l 0.242256,0.648019 0.324269,0.647261 0.404765,0.566735 0.566513,0.486207 0.566524,0.404916 0.647779,0.323636 0.728278,0.161816 0.728267,0.08129 0.89079,-0.08129 0.809537,-0.242344 0.728268,-0.404916 0.647023,-0.567499 0.486021,-0.64726 0.404759,-0.728552 0.243012,-0.809836 0.0805,-0.809836 -0.0805,-0.971659 -0.243012,-0.809835 -0.404759,-0.728552 -0.566521,-0.64802 4.208652,-7.3690668 0.647778,0.162575 0.64778,0.08053 0.809525,-0.08053 0.809532,-0.324391 0.728268,-0.323635 0.647782,-0.5667328 0.566519,-0.6480196 0.40477,-0.7285518 0.242254,-0.8098359 0.08126,-0.890367 -0.08126,-0.809836 -0.242254,-0.809843 -0.40477,-0.7285448 -0.566519,-0.6480279 -0.647782,-0.5667311 -0.728268,-0.40492002 -0.809532,-0.2430994 -0.809525,-0.081288 -0.64778,0.081288 -0.647778,0.081288 -4.208652,-7.28778868 0.566521,-0.64802 0.404759,-0.7285504 0.243012,-0.8911267 0.0805,-0.8903604 -0.0805,-0.7285507 -0.161747,-0.729307 -0.243012,-0.566736 -0.324268,-0.485452 -0.323511,-0.404916 -0.647778,-0.566735 -0.728279,-0.40492 -0.890025,-0.324388 -0.404765,-0.08052 h -0.486025 l -0.728267,0.08052 -0.728278,0.162572 -0.647779,0.323635 -0.566524,0.404917 -0.566513,0.485444 -0.404765,0.566735 -0.324269,0.648024 -0.242256,0.648027 h -8.822824 l -0.243013,-0.648027 -0.323512,-0.648024 -0.404765,-0.566735 -0.566513,-0.485444 -0.567281,-0.404917 -0.647021,-0.323635 -0.729031,-0.162572 z"
       id="path52"
       inkscape:connector-curvature="0"
       style="fill:#2c3e50;fill-rule:evenodd;stroke:none;stroke-width:0.36509183;stroke-linecap:square;stroke-miterlimit:10;fill-opacity:1" />
  </g>
</svg>
