<?xml version="1.0" encoding="UTF-8" standalone="no"?>
<!-- Created with Inkscape (http://www.inkscape.org/) -->

<svg
   xmlns:dc="http://purl.org/dc/elements/1.1/"
   xmlns:cc="http://creativecommons.org/ns#"
   xmlns:rdf="http://www.w3.org/1999/02/22-rdf-syntax-ns#"
   xmlns:svg="http://www.w3.org/2000/svg"
   xmlns="http://www.w3.org/2000/svg"
   xmlns:sodipodi="http://sodipodi.sourceforge.net/DTD/sodipodi-0.dtd"
   xmlns:inkscape="http://www.inkscape.org/namespaces/inkscape"
   width="180"
   height="180"
   viewBox="0 0 47.625 47.625"
   version="1.1"
   id="svg896"
   inkscape:version="0.92.2 2405546, 2018-03-11"
   sodipodi:docname="payment-card.svg">
  <defs
     id="defs890" />
  <sodipodi:namedview
     id="base"
     pagecolor="#ffffff"
     bordercolor="#666666"
     borderopacity="1.0"
     inkscape:pageopacity="0.0"
     inkscape:pageshadow="2"
     inkscape:zoom="0.35"
     inkscape:cx="1371.4285"
     inkscape:cy="-476.23726"
     inkscape:document-units="mm"
     inkscape:current-layer="layer1"
     showgrid="false"
     units="px"
     fit-margin-top="10"
     fit-margin-left="10"
     fit-margin-right="10"
     fit-margin-bottom="10"
     inkscape:window-width="1920"
     inkscape:window-height="1022"
     inkscape:window-x="0"
     inkscape:window-y="1"
     inkscape:window-maximized="1" />
  <metadata
     id="metadata893">
    <rdf:RDF>
      <cc:Work
         rdf:about="">
        <dc:format>image/svg+xml</dc:format>
        <dc:type
           rdf:resource="http://purl.org/dc/dcmitype/StillImage" />
        <dc:title></dc:title>
      </cc:Work>
    </rdf:RDF>
  </metadata>
  <g
     inkscape:label="Layer 1"
     inkscape:groupmode="layer"
     id="layer1"
     transform="translate(386.66961,24.796116)">
    <path
       d="m -343.98568,-11.794911 v 5.0496 h -37.74295 v -5.0496 z m 0,10.4984878 V 12.067446 h -37.74295 V -1.2964232 Z m -37.74295,-12.7907898 -0.46026,0.05644 -0.45822,0.115163 -0.40159,0.230162 -0.28677,0.286542 -0.28677,0.342896 -0.23013,0.401613 -0.11481,0.401638 -0.0566,0.457993 v 23.862353 l 0.0566,0.460314 0.11481,0.401638 0.23013,0.401613 0.28677,0.342896 0.28677,0.286542 0.40159,0.230162 0.45822,0.115163 0.46026,0.0563 h 37.74295 l 0.45771,-0.0563 0.46026,-0.115163 0.40159,-0.230162 0.28677,-0.286542 0.28677,-0.342896 0.23013,-0.401613 0.11532,-0.401638 0.0566,-0.460314 v -23.862363 l -0.0566,-0.457992 -0.11532,-0.401639 -0.23013,-0.401613 -0.28677,-0.342896 -0.28677,-0.286542 -0.40159,-0.230162 -0.46026,-0.115163 -0.45771,-0.05644 z"
       id="path40"
       inkscape:connector-curvature="0"
       style="fill:#2c3e50;fill-rule:evenodd;stroke-width:1.35008788;fill-opacity:1" />
    <path
       d="m -378.5744,2.5459945 -0.23013,0.058727 -0.17145,0.1151627 -0.11481,0.1714352 -0.0566,0.2278252 0.0566,0.2301774 0.11481,0.1714353 0.17145,0.1151627 0.23013,0.058727 h 15.20052 l 0.23013,-0.058727 0.17145,-0.1151627 0.17145,-0.1714353 V 3.1191445 2.8913193 l -0.17145,-0.1714352 -0.17145,-0.1151627 -0.23013,-0.058727 z"
       id="path42"
       inkscape:connector-curvature="0"
       style="fill:#2c3e50;fill-rule:evenodd;stroke-width:1.35008788;fill-opacity:1" />
    <path
       d="m -378.5744,6.3320311 -0.23013,0.05873 -0.17145,0.112734 -0.11481,0.173808 -0.0566,0.2278297 0.0566,0.230178 0.11481,0.171435 0.17145,0.1151627 0.23013,0.05873 h 10.38342 l 0.22758,-0.05873 0.17401,-0.1151627 0.11277,-0.171435 0.0587,-0.230178 -0.0587,-0.2278297 -0.11277,-0.173808 -0.17401,-0.112734 -0.22758,-0.05873 z"
       id="path44"
       inkscape:connector-curvature="0"
       style="fill:#2c3e50;fill-rule:evenodd;stroke-width:1.35008788;fill-opacity:1" />
    <path
       d="m -352.18719,3.1190664 -0.23013,0.058727 -0.17145,0.1150301 -0.174,0.1714352 -0.11277,0.1714607 -0.11533,0.1737825 -0.0587,0.2278251 -0.0566,0.2301773 v 1.4914014 l 0.0566,0.2301467 0.0587,0.22783 0.11533,0.1738077 0.11277,0.171461 0.174,0.11503 0.17145,0.11503 0.23013,0.05644 0.22758,0.05644 h 3.55821 l 0.22809,-0.05644 0.23013,-0.05644 0.17145,-0.11503 0.17145,-0.11503 0.11532,-0.171461 0.11482,-0.1738077 0.11481,-0.22783 V 5.7589057 4.2675053 4.0373285 l -0.11481,-0.2278252 -0.11482,-0.1737824 -0.11532,-0.1714608 -0.17145,-0.1714352 -0.17145,-0.1150301 -0.23013,-0.058727 z"
       id="path46"
       inkscape:connector-curvature="0"
       style="fill:#2c3e50;fill-rule:evenodd;stroke-width:1.35008788;fill-opacity:1" />
  </g>
</svg>
