<?xml version="1.0" encoding="UTF-8" standalone="no"?>
<svg
   xmlns:dc="http://purl.org/dc/elements/1.1/"
   xmlns:cc="http://creativecommons.org/ns#"
   xmlns:rdf="http://www.w3.org/1999/02/22-rdf-syntax-ns#"
   xmlns:svg="http://www.w3.org/2000/svg"
   xmlns="http://www.w3.org/2000/svg"
   xmlns:sodipodi="http://sodipodi.sourceforge.net/DTD/sodipodi-0.dtd"
   xmlns:inkscape="http://www.inkscape.org/namespaces/inkscape"
   version="1.1"
   viewBox="0 0 220 250.00001"
   stroke-miterlimit="10"
   id="svg902"
   sodipodi:docname="reference-book.svg"
   width="220"
   height="250"
   style="fill:none;stroke:none;stroke-linecap:square;stroke-miterlimit:10"
   inkscape:version="0.92.2 2405546, 2018-03-11">
  <metadata
     id="metadata908">
    <rdf:RDF>
      <cc:Work
         rdf:about="">
        <dc:format>image/svg+xml</dc:format>
        <dc:type
           rdf:resource="http://purl.org/dc/dcmitype/StillImage" />
        <dc:title />
      </cc:Work>
    </rdf:RDF>
  </metadata>
  <defs
     id="defs906" />
  <sodipodi:namedview
     pagecolor="#ffffff"
     bordercolor="#666666"
     borderopacity="1"
     objecttolerance="5"
     gridtolerance="5"
     guidetolerance="5"
     inkscape:pageopacity="0"
     inkscape:pageshadow="2"
     inkscape:window-width="1920"
     inkscape:window-height="1022"
     id="namedview904"
     showgrid="false"
     fit-margin-top="10"
     fit-margin-left="10"
     fit-margin-right="10"
     fit-margin-bottom="10"
     showguides="true"
     inkscape:guide-bbox="true"
     inkscape:zoom="2.0083333"
     inkscape:cx="84.016968"
     inkscape:cy="101.66799"
     inkscape:window-x="0"
     inkscape:window-y="1"
     inkscape:window-maximized="1"
     inkscape:current-layer="g900"
     inkscape:pagecheckerboard="true">
    <sodipodi:guide
       position="-216.18195,339.77572"
       orientation="-0.70710678,0.70710678"
       id="guide945"
       inkscape:locked="false" />
  </sodipodi:namedview>
  <clipPath
     id="g38d819a7d2_0_0.0">
    <path
       d="M 0,0 H 960 V 540 H 0 Z"
       id="path860"
       inkscape:connector-curvature="0"
       style="clip-rule:nonzero" />
  </clipPath>
  <g
     clip-path="url(#g38d819a7d2_0_0.0)"
     id="g900"
     transform="translate(-227.70087,-23.083825)">
    <path
       d="M 422.29879,48.092807 V 236.39318 l -0.0734,1.71276 -1.32298,3.22092 0.63859,-1.25419 -1.76015,2.90625 -1.39619,1.09014 -1.68237,0.83166 -1.67088,0.55068 -1.68234,0.26971 H 260.17686 v 1.64081 c 0,0 0.84146,3.52514 0,0 l 1.04372,2.17576 c 0.56079,0.27722 1.76017,1.39057 2.32093,1.66779 l 1.67089,0.53945 1.68233,0.28098 152.95274,0.91262 1.68234,-0.28097 1.67086,-0.53946 1.68234,-0.83166 1.39621,-1.09009 1.12155,-1.65208 0.54933,-1.37108 0.56078,-1.65205 0.28613,-1.9218 -0.0665,-189.190513 -0.28613,-1.652042 -0.56077,-1.640821 -0.54936,-1.371094 -1.12155,-1.371093 v 0 c 1.12155,1.371093 0,0 0,0 l -1.68233,-0.28096 z"
       id="path888"
       inkscape:connector-curvature="0"
       style="fill:#f1f5f8;fill-rule:evenodd;stroke-width:1.00000012;fill-opacity:1"
       sodipodi:nodetypes="ccccccccccccccccccccccccccccccccccc" />
    <path
       d="m 237.70087,168.9687 0.54952,1.09903 0.26914,0.81866 0.82989,0.82988 0.81866,0.81866 0.81866,0.26916 1.09903,0.54951 h 1.08783 17.53962 1.08781 l 1.09904,-0.54951 0.81866,-0.26916 0.81866,-0.81866 0.82989,-0.82988 0.26915,-0.81866 0.54951,-1.09903 v -4.37369 l -0.54951,-1.09904 -0.26915,-0.81866 -0.82989,-0.82989 -0.81866,-0.81867 -0.81866,-0.26915 -1.09904,-0.54951 h -1.08781 -17.53962 -1.08783 l -1.09903,0.54951 -0.81866,0.26915 -0.81866,0.81867 -0.82989,0.82989 -0.26914,0.81866 -0.54952,1.09904 z"
       id="path890"
       inkscape:connector-curvature="0"
       style="fill:#f1f5f8;fill-rule:evenodd;stroke-width:1;fill-opacity:1" />
    <path
       d="m 238.25038,125.05018 0.54952,1.08781 0.26914,0.82987 0.82989,0.81868 0.81866,0.81866 0.81866,0.28037 1.09903,0.54953 h 1.08783 17.53962 1.08781 l 1.09904,-0.54953 0.81866,-0.28037 0.81866,-0.81866 0.82988,-0.81868 0.26916,-0.82987 0.54951,-1.08781 v -4.3849 l -0.54951,-1.09904 -0.26916,-0.81866 -0.82988,-0.81867 -0.81866,-0.81867 -0.81866,-0.28035 -1.09904,-0.54952 h -1.08781 -17.53962 -1.08783 l -1.09903,0.54952 -0.81866,0.28035 -0.81866,0.81867 -0.82989,0.81867 -0.26914,0.81866 -0.54952,1.09904 z"
       id="path892"
       inkscape:connector-curvature="0"
       style="fill:#f1f5f8;fill-rule:evenodd;stroke-width:1;fill-opacity:1" />
    <path
       d="m 237.70087,83.623536 0.54952,1.099027 0.26914,0.818662 0.82989,0.818675 0.81866,0.829871 0.81866,0.269155 1.09903,0.549507 h 1.08783 17.53962 1.08781 l 1.09904,-0.549507 0.81866,-0.269155 0.81866,-0.829871 0.82989,-0.818675 0.26915,-0.818662 0.54951,-1.099027 v -4.384921 l -0.54951,-1.087806 -0.26915,-0.818662 -0.82989,-0.829895 -0.81866,-0.818662 -0.81866,-0.269131 -1.09904,-0.549531 h -1.08781 -17.53962 -1.08783 l -1.09903,0.549531 -0.81866,0.269131 -0.81866,0.818662 -0.82989,0.829895 -0.26914,0.818662 -0.54952,1.087806 z"
       id="path894"
       inkscape:connector-curvature="0"
       style="fill:#f1f5f8;fill-rule:evenodd;stroke-width:1;fill-opacity:1" />
    <path
       style="fill:#f1f5f8;fill-rule:evenodd;stroke-width:1;fill-opacity:1"
       d="m 258.85462,34.064156 -1.65002,0.280009 -1.63614,0.539211 -1.65003,0.548464 -1.36768,1.099252 -1.09926,1.367684 -0.54846,1.650027 -0.55078,1.63614 -0.26844,1.647716 V 233.46025 l 0.26844,1.64771 0.55078,1.63614 0.54846,1.65002 1.09926,1.3677 1.36768,1.09924 1.65003,0.53921 1.63614,0.54846 1.65002,0.28002 h 152.28131 l 1.63845,-0.28002 1.64772,-0.54846 1.63845,-0.53921 1.37926,-1.09924 1.08768,-1.3677 0.54846,-1.65002 0.55078,-1.63614 0.26845,-1.64771 V 42.832659 l -0.26845,-1.647716 -0.55078,-1.63614 -0.54846,-1.650027 -1.08768,-1.367684 -1.37926,-1.099252 -1.63845,-0.548464 -1.64772,-0.539211 -1.63845,-0.280009 z m 2.61043,159.611274 1.91616,0.26844 1.91847,0.54847 1.91847,0.83079 1.3677,1.3677 1.36768,1.36768 0.81923,1.91849 0.54847,1.91847 0.28233,1.91615 -0.28233,1.91847 -0.54847,1.91847 -0.81923,1.91616 -1.36768,1.36769 -1.3677,1.37001 -1.91847,0.81691 -1.91847,0.55079 -1.91616,0.26844 -1.91847,-0.26844 -1.91847,-0.55079 -1.91617,-0.81691 -1.36768,-1.37001 -1.37001,-1.36769 -0.81692,-1.91616 -0.55077,-1.91847 -0.28002,-1.91847 0.28002,-1.91615 0.55077,-1.91847 0.81692,-1.91849 1.37001,-1.36768 1.36768,-1.3677 1.91617,-0.83079 1.91847,-0.54847 z m 0.12527,-37.12873 1.91847,0.26844 1.91848,0.54847 1.90458,0.83079 1.37926,1.3677 1.37001,1.36768 0.81692,1.91848 0.55077,1.91847 0.26845,1.91615 -0.26845,1.91847 -0.55077,1.91848 -0.81692,1.91616 -1.37001,1.36769 -1.37926,1.37001 -1.90458,0.81691 -1.91848,0.55078 -1.91847,0.26845 -1.91616,-0.26845 -1.91847,-0.55078 -1.91847,-0.81691 -1.36769,-1.37001 -1.37927,-1.36769 -0.81923,-1.91616 -0.54846,-1.91848 -0.27076,-1.91847 0.27076,-1.91615 0.54846,-1.91847 0.81923,-1.91848 1.37927,-1.36768 1.36769,-1.3677 1.91847,-0.83079 1.91847,-0.54847 z m 0.116,-43.80356 1.91616,0.26844 1.91847,0.54847 1.91848,0.83079 1.36769,1.3677 1.3677,1.36768 0.83079,1.91849 0.5369,1.91847 0.28233,1.91615 -0.28233,1.91847 -0.5369,1.91847 -0.83079,1.91616 -1.3677,1.3677 -1.36769,1.37 -1.91848,0.81691 -1.91847,0.55079 -1.91616,0.26844 -1.91847,-0.26844 -1.91847,-0.55079 -1.91616,-0.81691 -1.36768,-1.37 -1.37001,-1.3677 -0.81692,-1.91616 -0.55078,-1.91847 -0.28002,-1.91847 0.28002,-1.91615 0.55078,-1.91847 0.81692,-1.91849 1.37001,-1.36768 1.36768,-1.3677 1.91616,-0.83079 1.91847,-0.54847 z m 0.12527,-41.717668 1.91847,0.268444 1.91616,0.548464 1.91847,0.830796 1.3677,1.367696 1.37,1.367684 0.81691,1.91848 0.55078,1.918472 0.26845,1.916148 -0.26845,1.918471 -0.55078,1.918471 -0.81691,1.916161 -1.37,1.367696 -1.3677,1.370006 -1.91847,0.816909 -1.91616,0.550782 -1.91847,0.268445 -1.91847,-0.268445 -1.91616,-0.550782 -1.91848,-0.816909 -1.36768,-1.370006 -1.3677,-1.367696 -0.83079,-1.916161 -0.54847,-1.918471 -0.27076,-1.918471 0.27076,-1.916148 0.54847,-1.918472 0.83079,-1.91848 1.3677,-1.367684 1.36768,-1.367696 1.91848,-0.830796 1.91616,-0.548464 z m 21.42915,23.691997 113.63361,1.251532 1.09924,0.268444 0.81923,0.548464 0.54846,0.819232 0.26845,1.09924 -0.26845,1.099251 -0.54846,0.819218 -0.81923,0.54847 -1.09924,0.27076 -113.63361,-1.25153 -1.09925,-0.270765 -0.81922,-0.548465 -0.54847,-0.819219 -0.26845,-1.099252 0.26845,-1.099239 0.54847,-0.819232 0.81922,-0.548464 z m -2.35078,26.433421 117.08363,0.83435 0.81923,0.81923 0.54846,0.81922 0.26845,1.09925 -0.26845,1.09924 -0.54846,0.81923 -0.81923,0.54846 -1.09924,0.26845 -114.88514,-0.83435 -1.09925,-0.26845 -0.81922,-0.54846 -0.54847,-0.81923 -0.26845,-1.09924 0.26845,-1.09925 0.54847,-0.81922 z m 0.2649,25.7501 115.71949,0.83435 1.09924,0.26844 0.81923,0.55079 0.54846,0.81691 0.26845,1.09925 -0.26845,1.09924 -0.54846,0.81923 -0.81923,0.54846 -1.09924,0.27076 -115.71949,-0.83435 -1.09925,-0.27076 -0.81922,-0.54846 -0.54847,-0.81923 -0.26845,-1.09924 0.26845,-1.09925 0.54847,-0.81691 0.81922,-0.55079 z m -0.41718,26.43572 61.35261,0.41718 1.09924,0.26845 0.81923,0.54846 0.54846,0.81923 0.27076,1.09924 -0.27076,1.09924 -0.54846,0.81923 -0.81923,0.54847 -1.09924,0.26844 -61.35261,-0.41718 -1.09926,-0.26844 -0.81922,-0.54847 -0.54846,-0.81923 -0.26846,-1.09924 0.26846,-1.09924 0.54846,-0.81923 0.81922,-0.54846 z"
       id="path898"
       inkscape:connector-curvature="0"
       sodipodi:nodetypes="ccccccccccccccccccccccccccccccccccccccccccccccccccccccccccccccccccccccccccccccccccccccccccccccccccccccccccccccccccccccccccccccccccccccccccccccccccccccccccccccccccccccccccccccccccccccccccccccccccccccccccccccccccccccccccccccccccccccccccccccccccc" />
    <path
       d="m 237.70087,206.18863 0.54952,1.09903 0.26914,0.81866 0.82989,0.82988 0.81866,0.81867 0.81866,0.26915 1.09903,0.54951 h 1.08783 17.53962 1.08781 l 1.09904,-0.54951 0.81866,-0.26915 0.81866,-0.81867 0.82989,-0.82988 0.26915,-0.81866 0.54951,-1.09903 v -4.37369 l -0.54951,-1.09904 -0.26915,-0.81866 -0.82989,-0.82989 -0.81866,-0.81867 -0.81866,-0.26915 -1.09904,-0.54951 h -1.08781 -17.53962 -1.08783 l -1.09903,0.54951 -0.81866,0.26915 -0.81866,0.81867 -0.82989,0.82989 -0.26914,0.81866 -0.54952,1.09904 z"
       id="path890-3"
       inkscape:connector-curvature="0"
       style="fill:#f1f5f8;fill-rule:evenodd;stroke:none;stroke-width:1;stroke-linecap:square;stroke-miterlimit:10;fill-opacity:1" />
    <path
       d="M 431.25085,58.302881 V 246.54372 l -0.0728,1.71221 -1.31318,3.21991 0.63386,-1.2538 -1.74711,2.90533 -1.38584,1.08978 -1.6699,0.8314 -1.6585,0.55052 -1.66984,0.26961 H 270.33097 v 1.6403 c 0,0 0.83522,3.52402 0,0 l 1.03599,2.17507 c 0.55663,0.27714 1.74709,1.39012 2.30372,1.66727 l 1.65849,0.53928 1.66986,0.28088 151.81865,0.91234 1.66986,-0.28088 1.6585,-0.53929 1.66985,-0.8314 1.38585,-1.08975 1.11325,-1.65155 0.54526,-1.37065 0.55662,-1.65153 0.284,-1.92118 -0.0659,-189.130697 -0.284,-1.65152 -0.55662,-1.640302 -0.54526,-1.370659 -1.11325,-1.37066 v 0 c 1.11325,1.37066 0,0 0,0 L 433.466,58.302881 Z"
       id="path888-7"
       inkscape:connector-curvature="0"
       style="fill:#f1f5f8;fill-rule:evenodd;stroke:none;stroke-width:1;stroke-linecap:square;stroke-miterlimit:10;fill-opacity:1"
       sodipodi:nodetypes="ccccccccccccccccccccccccccccccccccc" />
  </g>
</svg>
