<?xml version="1.0" encoding="UTF-8" standalone="no"?>
<svg
   xmlns:dc="http://purl.org/dc/elements/1.1/"
   xmlns:cc="http://creativecommons.org/ns#"
   xmlns:rdf="http://www.w3.org/1999/02/22-rdf-syntax-ns#"
   xmlns:svg="http://www.w3.org/2000/svg"
   xmlns="http://www.w3.org/2000/svg"
   xmlns:sodipodi="http://sodipodi.sourceforge.net/DTD/sodipodi-0.dtd"
   xmlns:inkscape="http://www.inkscape.org/namespaces/inkscape"
   version="1.1"
   viewBox="0 0 261.13794 250.10624"
   stroke-miterlimit="10"
   id="svg356"
   sodipodi:docname="RippleNet-condensed.svg"
   width="261.13794"
   height="250.10625"
   style="fill:none;stroke:none;stroke-linecap:square;stroke-miterlimit:10"
   inkscape:version="0.92.2 5c3e80d, 2017-08-06">
  <metadata
     id="metadata362">
    <rdf:RDF>
      <cc:Work
         rdf:about="">
        <dc:format>image/svg+xml</dc:format>
        <dc:type
           rdf:resource="http://purl.org/dc/dcmitype/StillImage" />
      </cc:Work>
    </rdf:RDF>
  </metadata>
  <defs
     id="defs360" />
  <sodipodi:namedview
     pagecolor="#ffffff"
     bordercolor="#666666"
     borderopacity="1"
     objecttolerance="10"
     gridtolerance="10"
     guidetolerance="10"
     inkscape:pageopacity="0"
     inkscape:pageshadow="2"
     inkscape:window-width="1394"
     inkscape:window-height="767"
     id="namedview358"
     showgrid="false"
     inkscape:zoom="3.1348401"
     inkscape:cx="142.46668"
     inkscape:cy="143.36144"
     inkscape:window-x="0"
     inkscape:window-y="1"
     inkscape:window-maximized="0"
     inkscape:current-layer="g354" />
  <clipPath
     id="g1fd18fa4fc_0_70.0">
    <path
       d="M 0,0 H 960 V 540 H 0 Z"
       id="path2"
       inkscape:connector-curvature="0"
       style="clip-rule:nonzero" />
  </clipPath>
  <g
     clip-path="url(#g1fd18fa4fc_0_70.0)"
     id="g354"
     transform="translate(-348.21724,-197.15617)">
    <path
       d="M 788.91077,504.59055 H 902.1391 v 20.18899 H 788.91077 Z"
       id="path7"
       inkscape:connector-curvature="0"
       style="fill:#000000;fill-opacity:0;fill-rule:evenodd" />
    <path
       d="m 805.31793,512.36505 h -0.65625 l -1.14062,-3.82813 q -0.0937,-0.25 -0.20313,-0.64062 -0.0937,-0.39063 -0.0937,-0.46875 -0.0781,0.51562 -0.26562,1.14062 l -1.125,3.79688 h -0.65625 l -1.51563,-5.71875 h 0.70313 l 0.90625,3.53125 q 0.1875,0.75 0.26562,1.34375 0.10938,-0.71875 0.3125,-1.39063 l 1.03125,-3.48437 h 0.70313 l 1.0625,3.51562 q 0.1875,0.59375 0.32812,1.35938 0.0625,-0.54688 0.28125,-1.34375 l 0.89063,-3.53125 h 0.70312 z m 6.54688,0 h -0.78125 l -2.07813,-2.76563 -0.59375,0.53125 v 2.23438 h -0.67187 v -5.71875 h 0.67187 v 2.84375 l 2.59375,-2.84375 h 0.78125 l -2.29687,2.48437 z m 3.97265,0 h -3.1875 v -5.71875 h 3.1875 v 0.59375 h -2.51562 v 1.84375 h 2.35937 v 0.57812 h -2.35937 v 2.10938 h 2.51562 z m 3.77735,-3 h 1.9375 v 2.78125 q -0.45313,0.14062 -0.92188,0.21875 -0.46875,0.0781 -1.07812,0.0781 -1.29688,0 -2.03125,-0.76562 -0.71875,-0.78125 -0.71875,-2.17188 0,-0.89062 0.35937,-1.5625 0.35938,-0.67187 1.03125,-1.01562 0.67188,-0.35938 1.57813,-0.35938 0.90625,0 1.70312,0.34375 l -0.26562,0.57813 q -0.76563,-0.32813 -1.48438,-0.32813 -1.04687,0 -1.64062,0.625 -0.57813,0.625 -0.57813,1.71875 0,1.15625 0.5625,1.76563 0.57813,0.59375 1.67188,0.59375 0.59375,0 1.15625,-0.14063 v -1.76562 h -1.28125 z m 7.43359,3 h -0.78125 l -2.07813,-2.76563 -0.59375,0.53125 v 2.23438 h -0.67187 v -5.71875 h 0.67187 v 2.84375 l 2.59375,-2.84375 h 0.78125 l -2.29687,2.48437 z m -0.043,1.5 q -0.375,0 -0.57812,-0.0937 v -0.57813 q 0.28125,0.0781 0.57812,0.0781 0.39063,0 0.59375,-0.23438 0.20313,-0.23437 0.20313,-0.67187 v -5.71875 h 0.65625 v 5.65625 q 0,0.75 -0.375,1.15625 -0.375,0.40625 -1.07813,0.40625 z m 2.13672,0 q -0.375,0 -0.57813,-0.0937 v -0.57813 q 0.28125,0.0781 0.57813,0.0781 0.39062,0 0.59375,-0.23438 0.20312,-0.23437 0.20312,-0.67187 v -5.71875 h 0.65625 v 5.65625 q 0,0.75 -0.375,1.15625 -0.375,0.40625 -1.07812,0.40625 z m 7.52734,-4.40625 q 0,1.40625 -0.76562,2.15625 -0.76563,0.75 -2.20313,0.75 h -1.59375 v -5.71875 h 1.75 q 1.34375,0 2.07813,0.75 0.73437,0.73437 0.73437,2.0625 z m -0.70312,0.0156 q 0,-1.10937 -0.5625,-1.67187 -0.5625,-0.57813 -1.65625,-0.57813 h -0.96875 v 4.5625 h 0.8125 q 1.1875,0 1.78125,-0.57812 0.59375,-0.59375 0.59375,-1.73438 z m 1.64453,0.45313 q 0,-1.6875 0.65625,-2.51563 0.65625,-0.84375 1.9375,-0.84375 0.4375,0 0.70312,0.0781 v 0.5625 q -0.3125,-0.10938 -0.6875,-0.10938 -0.92187,0 -1.40625,0.57813 -0.48437,0.57812 -0.53125,1.79687 h 0.0469 q 0.42187,-0.67187 1.35937,-0.67187 0.76563,0 1.20313,0.46875 0.45312,0.46875 0.45312,1.26562 0,0.89063 -0.48437,1.40625 -0.48438,0.5 -1.3125,0.5 -0.89063,0 -1.42188,-0.65625 -0.51562,-0.67187 -0.51562,-1.85937 z m 1.92187,1.96875 q 0.5625,0 0.85938,-0.34375 0.3125,-0.35938 0.3125,-1.01563 0,-0.57812 -0.29688,-0.89062 -0.28125,-0.32813 -0.84375,-0.32813 -0.34375,0 -0.64062,0.14063 -0.29688,0.14062 -0.46875,0.40625 -0.17188,0.25 -0.17188,0.51562 0,0.40625 0.15625,0.76563 0.15625,0.34375 0.4375,0.54687 0.29688,0.20313 0.65625,0.20313 z m 2.98047,0.46875 v -5.71875 h 0.67188 v 5.71875 z m 3.9961,0 h -0.67188 v -5.125 h -1.79687 v -0.59375 h 4.28125 v 0.59375 h -1.8125 z m 7.64453,0 h -0.65625 l -1.14063,-3.82813 q -0.0937,-0.25 -0.20312,-0.64062 -0.0937,-0.39063 -0.0937,-0.46875 -0.0781,0.51562 -0.26563,1.14062 l -1.125,3.79688 h -0.65625 l -1.51562,-5.71875 h 0.70312 l 0.90625,3.53125 q 0.1875,0.75 0.26563,1.34375 0.10937,-0.71875 0.3125,-1.39063 l 1.03125,-3.48437 h 0.70312 l 1.0625,3.51562 q 0.1875,0.59375 0.32813,1.35938 0.0625,-0.54688 0.28125,-1.34375 l 0.89062,-3.53125 h 0.70313 z m 5.57812,-4.375 q 0,0.54687 -0.3125,0.90625 -0.3125,0.34375 -0.875,0.45312 v 0.0312 q 0.6875,0.0937 1.01563,0.45313 0.34375,0.34375 0.34375,0.90625 0,0.82812 -0.57813,1.26562 -0.5625,0.4375 -1.59375,0.4375 -0.45312,0 -0.84375,-0.0781 -0.375,-0.0625 -0.71875,-0.23438 v -0.60937 q 0.35938,0.17187 0.78125,0.28125 0.42188,0.0937 0.79688,0.0937 1.48437,0 1.48437,-1.17188 0,-1.03125 -1.64062,-1.03125 h -0.5625 v -0.5625 h 0.57812 q 0.67188,0 1.0625,-0.29687 0.39063,-0.29688 0.39063,-0.8125 0,-0.42188 -0.29688,-0.65625 -0.28125,-0.23438 -0.78125,-0.23438 -0.375,0 -0.70312,0.10938 -0.32813,0.0937 -0.75,0.35937 l -0.32813,-0.4375 q 0.34375,-0.28125 0.79688,-0.4375 0.46875,-0.15625 0.96875,-0.15625 0.84375,0 1.29687,0.39063 0.46875,0.375 0.46875,1.03125 z m 4.65235,2.85937 q 0,0.75 -0.54688,1.17188 -0.54687,0.42187 -1.48437,0.42187 -1.01563,0 -1.5625,-0.26562 v -0.64063 q 0.34375,0.15625 0.75,0.25 0.42187,0.0781 0.82812,0.0781 0.67188,0 1,-0.25 0.34375,-0.26563 0.34375,-0.70313 0,-0.29687 -0.125,-0.48437 -0.125,-0.20313 -0.40625,-0.35938 -0.26562,-0.15625 -0.84375,-0.35937 -0.79687,-0.28125 -1.14062,-0.67188 -0.34375,-0.39062 -0.34375,-1.03125 0,-0.65625 0.5,-1.04687 0.5,-0.39063 1.3125,-0.39063 0.85937,0 1.5625,0.3125 l -0.20313,0.57813 q -0.70312,-0.29688 -1.375,-0.29688 -0.53125,0 -0.82812,0.23438 -0.29688,0.21875 -0.29688,0.625 0,0.29687 0.10938,0.48437 0.10937,0.1875 0.375,0.34375 0.26562,0.15625 0.79687,0.35938 0.89063,0.3125 1.23438,0.6875 0.34375,0.35937 0.34375,0.95312 z m 4.78125,-2.53125 q 0,0.85938 -0.59375,1.32813 -0.59375,0.46875 -1.6875,0.46875 h -0.67188 v 2.25 h -0.67187 v -5.71875 h 1.48437 q 2.14063,0 2.14063,1.67187 z m -2.95313,1.23438 h 0.59375 q 0.89063,0 1.28125,-0.28125 0.39063,-0.29688 0.39063,-0.92188 0,-0.5625 -0.375,-0.84375 -0.35938,-0.28125 -1.15625,-0.28125 h -0.73438 z m 7.95703,2.8125 h -0.76562 l -1.53125,-2.51563 -1.5625,2.51563 h -0.70313 l 1.90625,-2.98438 -1.78125,-2.73437 h 0.73438 l 1.42187,2.26562 1.4375,-2.26562 h 0.70313 l -1.76563,2.70312 z m -0.0234,1.5 q -0.375,0 -0.57813,-0.0937 v -0.57813 q 0.28125,0.0781 0.57813,0.0781 0.39062,0 0.59375,-0.23438 0.20312,-0.23437 0.20312,-0.67187 v -5.71875 h 0.65625 v 5.65625 q 0,0.75 -0.375,1.15625 -0.375,0.40625 -1.07812,0.40625 z m 7.30859,-1.5 h -0.67188 v -2.6875 h -3 v 2.6875 h -0.67187 v -5.71875 h 0.67187 v 2.4375 h 3 v -2.4375 h 0.67188 z m 4.74609,0 h -3.1875 v -5.71875 h 3.1875 v 0.59375 h -2.51562 v 1.84375 h 2.35937 v 0.57812 h -2.35937 v 2.10938 h 2.51562 z m 4.88672,-4.04688 q 0,0.85938 -0.59375,1.32813 -0.59375,0.46875 -1.6875,0.46875 h -0.67187 v 2.25 h -0.67188 v -5.71875 h 1.48438 q 2.14062,0 2.14062,1.67187 z m -2.95312,1.23438 h 0.59375 q 0.89062,0 1.28125,-0.28125 0.39062,-0.29688 0.39062,-0.92188 0,-0.5625 -0.375,-0.84375 -0.35937,-0.28125 -1.15625,-0.28125 h -0.73437 z"
       id="path9"
       inkscape:connector-curvature="0"
       style="fill:#ffffff;fill-rule:nonzero" />
    <path
       d="m 816.9371,522.36505 -1.9375,-5.0625 h -0.0312 q 0.0625,0.59375 0.0625,1.42187 v 3.64063 h -0.625 v -5.71875 h 1 l 1.8125,4.71875 h 0.0312 l 1.82812,-4.71875 h 0.98438 v 5.71875 h -0.65625 v -3.6875 q 0,-0.625 0.0469,-1.375 h -0.0312 l -1.95312,5.0625 z m 8.81641,0 h -0.78125 l -2.07813,-2.76563 -0.59375,0.53125 v 2.23438 h -0.67187 v -5.71875 h 0.67187 v 2.84375 l 2.59375,-2.84375 h 0.78125 l -2.29687,2.48437 z m 1.45703,0 h -0.67188 v -5.71875 h 3.1875 v 0.59375 h -2.51562 v 2.09375 h 2.35937 v 0.59375 h -2.35937 z m 6.64453,0 h -3.1875 v -5.71875 h 3.1875 v 0.59375 h -2.51563 v 1.84375 h 2.35938 v 0.57812 h -2.35938 v 2.10938 h 2.51563 z m 5.07422,0 h -0.76563 l -1.53125,-2.51563 -1.5625,2.51563 h -0.70312 l 1.90625,-2.98438 -1.78125,-2.73437 h 0.73437 l 1.42188,2.26562 1.4375,-2.26562 h 0.70312 l -1.76562,2.70312 z m 0.47656,-2.4375 q 0,-1.6875 0.65625,-2.51563 0.65625,-0.84375 1.9375,-0.84375 0.4375,0 0.70312,0.0781 v 0.5625 q -0.3125,-0.10938 -0.6875,-0.10938 -0.92187,0 -1.40625,0.57813 -0.48437,0.57812 -0.53125,1.79687 h 0.0469 q 0.42187,-0.67187 1.35937,-0.67187 0.76563,0 1.20313,0.46875 0.45312,0.46875 0.45312,1.26562 0,0.89063 -0.48437,1.40625 -0.48438,0.5 -1.3125,0.5 -0.89063,0 -1.42188,-0.65625 -0.51562,-0.67187 -0.51562,-1.85937 z m 1.92187,1.96875 q 0.5625,0 0.85938,-0.34375 0.3125,-0.35938 0.3125,-1.01563 0,-0.57812 -0.29688,-0.89062 -0.28125,-0.32813 -0.84375,-0.32813 -0.34375,0 -0.64062,0.14063 -0.29688,0.14062 -0.46875,0.40625 -0.17188,0.25 -0.17188,0.51562 0,0.40625 0.15625,0.76563 0.15625,0.34375 0.4375,0.54687 0.29688,0.20313 0.65625,0.20313 z m 6.57422,0.46875 -0.70312,-1.8125 h -2.29688 l -0.70312,1.8125 h -0.67188 l 2.26563,-5.73438 h 0.54687 l 2.25,5.73438 z m -0.92187,-2.42188 -0.65625,-1.76562 q -0.125,-0.32813 -0.26563,-0.82813 -0.0937,0.375 -0.25,0.82813 l -0.67187,1.76562 z m 6.85937,2.42188 h -0.76562 l -3.10938,-4.79688 h -0.0312 q 0.0625,0.84375 0.0625,1.54688 v 3.25 h -0.625 v -5.71875 h 0.75 l 3.125,4.78125 h 0.0312 q -0.0156,-0.10938 -0.0469,-0.67188 -0.0156,-0.57812 -0.0156,-0.82812 v -3.28125 h 0.625 z m 4.09375,0 -1.9375,-5.0625 h -0.0312 q 0.0625,0.59375 0.0625,1.42187 v 3.64063 h -0.625 v -5.71875 h 1 l 1.8125,4.71875 h 0.0312 l 1.82813,-4.71875 h 0.98437 v 5.71875 h -0.65625 v -3.6875 q 0,-0.625 0.0469,-1.375 h -0.0312 l -1.95313,5.0625 z m 4.69141,-5.71875 h 1.625 q 1.125,0 1.625,0.34375 0.51562,0.34375 0.51562,1.07812 0,0.5 -0.28125,0.84375 -0.28125,0.32813 -0.82812,0.42188 v 0.0312 q 1.3125,0.23437 1.3125,1.375 0,0.76562 -0.53125,1.20312 -0.51563,0.42188 -1.4375,0.42188 h -2 z m 0.67187,2.45312 h 1.09375 q 0.70313,0 1,-0.21875 0.3125,-0.21875 0.3125,-0.75 0,-0.48437 -0.34375,-0.6875 -0.34375,-0.21875 -1.09375,-0.21875 h -0.96875 z m 0,0.5625 v 2.14063 h 1.1875 q 0.6875,0 1.03125,-0.26563 0.35938,-0.28125 0.35938,-0.84375 0,-0.53125 -0.35938,-0.78125 -0.35937,-0.25 -1.07812,-0.25 z m 4.83985,2.70313 2.375,-5.10938 h -3.10938 v -0.60937 h 3.79688 v 0.53125 l -2.34375,5.1875 z m 8.55859,-5.71875 v 3.70312 q 0,0.96875 -0.59375,1.53125 -0.57812,0.5625 -1.60937,0.5625 -1.03125,0 -1.59375,-0.5625 -0.5625,-0.5625 -0.5625,-1.54687 v -3.6875 h 0.65625 v 3.73437 q 0,0.71875 0.39062,1.10938 0.39063,0.375 1.15625,0.375 0.71875,0 1.10938,-0.39063 0.39062,-0.39062 0.39062,-1.10937 v -3.71875 z"
       id="path11"
       inkscape:connector-curvature="0"
       style="fill:#ffffff;fill-rule:nonzero" />
    <path
       d="m 16.085445,503.68304 h 20.614162 v 22.39307 H 16.085445 Z"
       id="path17"
       inkscape:connector-curvature="0"
       style="fill:#000000;fill-opacity:0;fill-rule:evenodd" />
    <path
       d="m 432.86172,374.19464 41.92123,72.56693"
       id="path26"
       inkscape:connector-curvature="0"
       style="fill:#000000;fill-opacity:0;fill-rule:evenodd" />
    <path
       d="m 432.86172,374.19464 41.92123,72.56693"
       id="path28"
       inkscape:connector-curvature="0"
       style="fill-rule:evenodd;stroke:#e3f7f0;stroke-width:1;stroke-linecap:butt;stroke-linejoin:round" />
    <path
       d="m 453.56232,232.46016 21.88974,37.85826"
       id="path30"
       inkscape:connector-curvature="0"
       style="fill:#000000;fill-opacity:0;fill-rule:evenodd" />
    <path
       d="m 453.56232,232.46016 21.88974,37.85826"
       id="path32"
       inkscape:connector-curvature="0"
       style="fill-rule:evenodd;stroke:#e3f7f0;stroke-width:1;stroke-linecap:butt;stroke-linejoin:round" />
    <path
       d="m 391.54526,270.33203 21.63779,-37.70079"
       id="path34"
       inkscape:connector-curvature="0"
       style="fill:#000000;fill-opacity:0;fill-rule:evenodd" />
    <path
       d="m 391.54526,270.33203 21.63779,-37.70079"
       id="path36"
       inkscape:connector-curvature="0"
       style="fill-rule:evenodd;stroke:#e3f7f0;stroke-width:1;stroke-linecap:butt;stroke-linejoin:round" />
    <path
       d="m 413.16046,304.84158 -20.8819,-34.36221"
       id="path38"
       inkscape:connector-curvature="0"
       style="fill:#000000;fill-opacity:0;fill-rule:evenodd" />
    <path
       d="m 413.16046,304.84158 -20.8819,-34.36221"
       id="path40"
       inkscape:connector-curvature="0"
       style="fill-rule:evenodd;stroke:#e3f7f0;stroke-width:1;stroke-linecap:butt;stroke-linejoin:round" />
    <path
       d="m 391.97192,376.34113 20.62991,-35.74802"
       id="path42"
       inkscape:connector-curvature="0"
       style="fill:#000000;fill-opacity:0;fill-rule:evenodd" />
    <path
       d="m 391.97192,376.34113 20.62991,-35.74802"
       id="path44"
       inkscape:connector-curvature="0"
       style="fill-rule:evenodd;stroke:#e3f7f0;stroke-width:1;stroke-linecap:butt;stroke-linejoin:round" />
    <path
       d="M 412.35007,412.1058 392.09809,376.48373"
       id="path46"
       inkscape:connector-curvature="0"
       style="fill:#000000;fill-opacity:0;fill-rule:evenodd" />
    <path
       d="M 412.35007,412.1058 392.09809,376.48373"
       id="path48"
       inkscape:connector-curvature="0"
       style="fill-rule:evenodd;stroke:#e3f7f0;stroke-width:1;stroke-linecap:butt;stroke-linejoin:round" />
    <path
       d="M 474.25327,376.49753 454.00132,412.1196"
       id="path50"
       inkscape:connector-curvature="0"
       style="fill:#000000;fill-opacity:0;fill-rule:evenodd" />
    <path
       d="M 474.25327,376.49753 454.00132,412.1196"
       id="path52"
       inkscape:connector-curvature="0"
       style="fill-rule:evenodd;stroke:#e3f7f0;stroke-width:1;stroke-linecap:butt;stroke-linejoin:round" />
    <path
       d="m 566.3991,322.9943 -20.25195,35.62204"
       id="path54"
       inkscape:connector-curvature="0"
       style="fill:#000000;fill-opacity:0;fill-rule:evenodd" />
    <path
       d="m 566.3991,322.9943 -20.25195,35.62204"
       id="path56"
       inkscape:connector-curvature="0"
       style="fill-rule:evenodd;stroke:#e3f7f0;stroke-width:1;stroke-linecap:butt;stroke-linejoin:round" />
    <path
       d="m 546.01825,287.75854 20.09448,34.96063"
       id="path58"
       inkscape:connector-curvature="0"
       style="fill:#000000;fill-opacity:0;fill-rule:evenodd" />
    <path
       d="m 546.01825,287.75854 20.09448,34.96063"
       id="path60"
       inkscape:connector-curvature="0"
       style="fill-rule:evenodd;stroke:#e3f7f0;stroke-width:1;stroke-linecap:butt;stroke-linejoin:round" />
    <path
       d="m 504.7238,358.464 h 41.38583"
       id="path62"
       inkscape:connector-curvature="0"
       style="fill:#000000;fill-opacity:0;fill-rule:evenodd" />
    <path
       d="m 504.7238,358.464 h 41.38583"
       id="path64"
       inkscape:connector-curvature="0"
       style="fill-rule:evenodd;stroke:#e3f7f0;stroke-width:1;stroke-linecap:butt;stroke-linejoin:round" />
    <path
       d="m 505.66226,287.8061 h 39.71652"
       id="path66"
       inkscape:connector-curvature="0"
       style="fill:#000000;fill-opacity:0;fill-rule:evenodd" />
    <path
       d="m 505.66226,287.8061 h 39.71652"
       id="path68"
       inkscape:connector-curvature="0"
       style="fill-rule:evenodd;stroke:#e3f7f0;stroke-width:1;stroke-linecap:butt;stroke-linejoin:round" />
    <path
       d="m 348.75067,375.75067 81.98422,0.88187"
       id="path70"
       inkscape:connector-curvature="0"
       style="fill:#000000;fill-opacity:0;fill-rule:evenodd" />
    <path
       d="m 348.75067,375.75067 81.98422,0.88187"
       id="path72"
       inkscape:connector-curvature="0"
       style="fill-rule:evenodd;stroke:#e3f7f0;stroke-width:1;stroke-linecap:butt;stroke-linejoin:round" />
    <path
       d="m 453.55783,340.63754 -23.05511,39.90549"
       id="path74"
       inkscape:connector-curvature="0"
       style="fill:#000000;fill-opacity:0;fill-rule:evenodd" />
    <path
       d="m 453.55783,340.63754 -23.05511,39.90549"
       id="path76"
       inkscape:connector-curvature="0"
       style="fill-rule:evenodd;stroke:#e3f7f0;stroke-width:1;stroke-linecap:butt;stroke-linejoin:round" />
    <path
       d="m 525.36566,321.6566 41.92126,72.56692"
       id="path78"
       inkscape:connector-curvature="0"
       style="fill:#000000;fill-opacity:0;fill-rule:evenodd" />
    <path
       d="m 525.36566,321.6566 41.92126,72.56692"
       id="path80"
       inkscape:connector-curvature="0"
       style="fill-rule:evenodd;stroke:#e3f7f0;stroke-width:1;stroke-linecap:butt;stroke-linejoin:round" />
    <path
       d="m 566.5932,252.68767 -36.18903,61.79527"
       id="path82"
       inkscape:connector-curvature="0"
       style="fill:#000000;fill-opacity:0;fill-rule:evenodd" />
    <path
       d="m 566.5932,252.68767 -36.18903,61.79527"
       id="path84"
       inkscape:connector-curvature="0"
       style="fill-rule:evenodd;stroke:#e3f7f0;stroke-width:1;stroke-linecap:butt;stroke-linejoin:round" />
    <path
       d="m 486.0572,322.40738 h 42.20471"
       id="path86"
       inkscape:connector-curvature="0"
       style="fill:#000000;fill-opacity:0;fill-rule:evenodd" />
    <path
       d="m 486.0572,322.40738 h 42.20471"
       id="path88"
       inkscape:connector-curvature="0"
       style="fill-rule:evenodd;stroke:#e3f7f0;stroke-width:1;stroke-linecap:butt;stroke-linejoin:round" />
    <path
       d="m 433.46417,268.36337 21.16534,36.75589"
       id="path90"
       inkscape:connector-curvature="0"
       style="fill:#000000;fill-opacity:0;fill-rule:evenodd" />
    <path
       d="m 433.46417,268.36337 21.16534,36.75589"
       id="path92"
       inkscape:connector-curvature="0"
       style="fill-rule:evenodd;stroke:#e3f7f0;stroke-width:1;stroke-linecap:butt;stroke-linejoin:round" />
    <path
       d="m 473.78217,198.0315 -38.55121,66.07873"
       id="path94"
       inkscape:connector-curvature="0"
       style="fill:#000000;fill-opacity:0;fill-rule:evenodd" />
    <path
       d="m 473.78217,198.0315 -38.55121,66.07873"
       id="path96"
       inkscape:connector-curvature="0"
       style="fill-rule:evenodd;stroke:#e3f7f0;stroke-width:1;stroke-linecap:butt;stroke-linejoin:round" />
    <path
       d="m 352.53018,270.34384 84.44095,-0.37796"
       id="path98"
       inkscape:connector-curvature="0"
       style="fill:#000000;fill-opacity:0;fill-rule:evenodd" />
    <path
       d="m 352.53018,270.34384 84.44095,-0.37796"
       id="path100"
       inkscape:connector-curvature="0"
       style="fill-rule:evenodd;stroke:#e3f7f0;stroke-width:1;stroke-linecap:butt;stroke-linejoin:round" />
    <path
       d="m 391.40683,197.65617 h 82.86615"
       id="path102"
       inkscape:connector-curvature="0"
       style="fill:#000000;fill-opacity:0;fill-rule:evenodd" />
    <path
       d="m 391.40683,197.65617 h 82.86615"
       id="path104"
       inkscape:connector-curvature="0"
       style="fill-rule:evenodd;stroke:#19cc95;stroke-width:1;stroke-linecap:butt;stroke-linejoin:round" />
    <path
       d="m 485.26544,252.31831 81.82678,-0.12598"
       id="path106"
       inkscape:connector-curvature="0"
       style="fill:#000000;fill-opacity:0;fill-rule:evenodd" />
    <path
       d="m 485.26544,252.31831 81.82678,-0.12598"
       id="path108"
       inkscape:connector-curvature="0"
       style="fill-rule:evenodd;stroke:#19cc95;stroke-width:1;stroke-linecap:butt;stroke-linejoin:round" />
    <path
       d="m 391.78217,197.65617 -39.74805,71.68504"
       id="path110"
       inkscape:connector-curvature="0"
       style="fill:#000000;fill-opacity:0;fill-rule:evenodd" />
    <path
       d="m 391.78217,197.65617 -39.74805,71.68504"
       id="path112"
       inkscape:connector-curvature="0"
       style="fill-rule:evenodd;stroke:#19cc95;stroke-width:1;stroke-linecap:butt;stroke-linejoin:round" />
    <path
       d="m 473.56168,198.24934 40.66141,70.92912"
       id="path114"
       inkscape:connector-curvature="0"
       style="fill:#000000;fill-opacity:0;fill-rule:evenodd" />
    <path
       d="m 473.56168,198.24934 40.66141,70.92912"
       id="path116"
       inkscape:connector-curvature="0"
       style="fill-rule:evenodd;stroke:#19cc95;stroke-width:1;stroke-linecap:butt;stroke-linejoin:round" />
    <path
       d="M 514.31915,269.0313 473.3743,339.92894"
       id="path118"
       inkscape:connector-curvature="0"
       style="fill:#000000;fill-opacity:0;fill-rule:evenodd" />
    <path
       d="M 514.31915,269.0313 473.3743,339.92894"
       id="path120"
       inkscape:connector-curvature="0"
       style="fill-rule:evenodd;stroke:#19cc95;stroke-width:1;stroke-linecap:butt;stroke-linejoin:round" />
    <path
       d="m 392.6899,340.44983 80.75589,-0.15747"
       id="path122"
       inkscape:connector-curvature="0"
       style="fill:#000000;fill-opacity:0;fill-rule:evenodd" />
    <path
       d="m 392.6899,340.44983 80.75589,-0.15747"
       id="path124"
       inkscape:connector-curvature="0"
       style="fill-rule:evenodd;stroke:#19cc95;stroke-width:1;stroke-linecap:butt;stroke-linejoin:round" />
    <path
       d="M 393.22617,340.6971 351.93482,269.16954"
       id="path126"
       inkscape:connector-curvature="0"
       style="fill:#000000;fill-opacity:0;fill-rule:evenodd" />
    <path
       d="M 393.22617,340.6971 351.93482,269.16954"
       id="path128"
       inkscape:connector-curvature="0"
       style="fill-rule:evenodd;stroke:#19cc95;stroke-width:1;stroke-linecap:butt;stroke-linejoin:round" />
    <path
       d="m 566.5932,252.06299 42.17322,70.83466"
       id="path130"
       inkscape:connector-curvature="0"
       style="fill:#000000;fill-opacity:0;fill-rule:evenodd" />
    <path
       d="m 566.5932,252.06299 42.17322,70.83466"
       id="path132"
       inkscape:connector-curvature="0"
       style="fill-rule:evenodd;stroke:#19cc95;stroke-width:1;stroke-linecap:butt;stroke-linejoin:round" />
    <path
       d="m 608.9222,322.40738 -41.03937,71.05511"
       id="path134"
       inkscape:connector-curvature="0"
       style="fill:#000000;fill-opacity:0;fill-rule:evenodd" />
    <path
       d="m 608.9222,322.40738 -41.03937,71.05511"
       id="path136"
       inkscape:connector-curvature="0"
       style="fill-rule:evenodd;stroke:#19cc95;stroke-width:1;stroke-linecap:butt;stroke-linejoin:round" />
    <path
       d="m 483.28647,393.48087 84.97635,0.34647"
       id="path138"
       inkscape:connector-curvature="0"
       style="fill:#000000;fill-opacity:0;fill-rule:evenodd" />
    <path
       d="m 483.28647,393.48087 84.97635,0.34647"
       id="path140"
       inkscape:connector-curvature="0"
       style="fill-rule:evenodd;stroke:#19cc95;stroke-width:1;stroke-linecap:butt;stroke-linejoin:round" />
    <path
       d="M 483.84955,393.84137 443.72357,324.32956"
       id="path142"
       inkscape:connector-curvature="0"
       style="fill:#000000;fill-opacity:0;fill-rule:evenodd" />
    <path
       d="M 483.84955,393.84137 443.72357,324.32956"
       id="path144"
       inkscape:connector-curvature="0"
       style="fill-rule:evenodd;stroke:#19cc95;stroke-width:1;stroke-linecap:butt;stroke-linejoin:round" />
    <path
       d="M 389.69302,446.28015 348.65365,375.22503"
       id="path146"
       inkscape:connector-curvature="0"
       style="fill:#000000;fill-opacity:0;fill-rule:evenodd" />
    <path
       d="M 389.69302,446.28015 348.65365,375.22503"
       id="path148"
       inkscape:connector-curvature="0"
       style="fill-rule:evenodd;stroke:#19cc95;stroke-width:1;stroke-linecap:butt;stroke-linejoin:round" />
    <path
       d="m 389.6927,446.76242 h 84.72443"
       id="path150"
       inkscape:connector-curvature="0"
       style="fill:#000000;fill-opacity:0;fill-rule:evenodd" />
    <path
       d="m 389.6927,446.76242 h 84.72443"
       id="path152"
       inkscape:connector-curvature="0"
       style="fill-rule:evenodd;stroke:#19cc95;stroke-width:1;stroke-linecap:butt;stroke-linejoin:round" />
    <path
       d="m 515.111,376.3054 -40.69293,70.45666"
       id="path154"
       inkscape:connector-curvature="0"
       style="fill:#000000;fill-opacity:0;fill-rule:evenodd" />
    <path
       d="m 515.111,376.3054 -40.69293,70.45666"
       id="path156"
       inkscape:connector-curvature="0"
       style="fill-rule:evenodd;stroke:#19cc95;stroke-width:1;stroke-linecap:butt;stroke-linejoin:round" />
    <path
       d="m 473.37445,304.56747 41.70081,72.25198"
       id="path158"
       inkscape:connector-curvature="0"
       style="fill:#000000;fill-opacity:0;fill-rule:evenodd" />
    <path
       d="m 473.37445,304.56747 41.70081,72.25198"
       id="path160"
       inkscape:connector-curvature="0"
       style="fill-rule:evenodd;stroke:#19cc95;stroke-width:1;stroke-linecap:butt;stroke-linejoin:round" />
    <path
       d="m 389.40683,304.87402 84.44095,-0.12601"
       id="path162"
       inkscape:connector-curvature="0"
       style="fill:#000000;fill-opacity:0;fill-rule:evenodd" />
    <path
       d="m 389.40683,304.87402 84.44095,-0.12601"
       id="path164"
       inkscape:connector-curvature="0"
       style="fill-rule:evenodd;stroke:#19cc95;stroke-width:1;stroke-linecap:butt;stroke-linejoin:round" />
    <path
       d="m 389.40683,304.75067 -40.75592,71.02362"
       id="path166"
       inkscape:connector-curvature="0"
       style="fill:#000000;fill-opacity:0;fill-rule:evenodd" />
    <path
       d="m 389.40683,304.75067 -40.75592,71.02362"
       id="path168"
       inkscape:connector-curvature="0"
       style="fill-rule:evenodd;stroke:#19cc95;stroke-width:1;stroke-linecap:butt;stroke-linejoin:round" />
    <path
       d="m 496.83362,323.1348 v 0 c 0,-15.67191 12.70993,-28.3765 28.38837,-28.3765 v 0 c 7.52911,0 14.74981,2.98966 20.07367,8.31128 5.32385,5.32163 8.31475,12.53931 8.31475,20.06522 v 0 c 0,15.67191 -12.70989,28.3765 -28.38842,28.3765 v 0 c -15.67844,0 -28.38837,-12.70459 -28.38837,-28.3765 z"
       id="path170"
       inkscape:connector-curvature="0"
       style="fill:#8c70f0;fill-rule:evenodd" />
    <path
       d="m 513.9653,312.73938 3.43329,2.56662 1.35211,1.01739 2.09644,1.57901 5.02868,3.75113 -0.33386,0.0306 -0.31903,0.0302 -0.33429,0.0608 -0.31903,0.0608 -0.31897,0.0608 -0.3194,0.091 -0.31903,0.091 -0.31897,0.1063 -0.30371,0.12158 -0.31897,0.1365 -0.30414,0.13688 -0.28839,0.15179 -0.30408,0.15176 -0.28839,0.16709 -0.28881,0.1824 -0.27344,0.19727 -0.30371,0.19769 -0.30414,0.21259 -0.57715,0.44003 -1.13947,0.92639 -0.0608,0.0608 -0.0762,0.0761 -0.53161,0.42514 -0.53168,0.42517 -0.39514,0.30356 -0.34919,0.28867 -1.2611,1.03271 -3.05347,2.50583 -1.79276,1.45786 h 2.97776 l 4.57269,-3.73581 0.12164,-0.0914 0.24286,-0.18198 1.2309,-1.0025 0.88086,-0.71341 0.85113,-0.68366 0.30365,-0.24276 0.31903,-0.21256 0.33429,-0.21258 0.33429,-0.1977 0.33435,-0.18197 0.34919,-0.15219 0.3496,-0.15177 0.36451,-0.1365 0.34961,-0.10627 0.37982,-0.0914 0.3645,-0.0757 0.3645,-0.0455 0.37982,-0.0306 0.37983,-0.0149 0.37982,0.0149 0.37982,0.0306 0.30371,0.0608 0.15228,0.0302 0.1518,0.0455 0.28839,0.0761 0.28882,0.10627 0.27349,0.12161 0.28876,0.12115 0.2735,0.13691 0.2735,0.13647 0.53168,0.30399 0.10632,0.0604 2.30908,1.7312 0.0762,0.0608 6.85163,5.13288 h 2.71954 l -4.58801,-3.43186 h 0.0149 l -4.25372,-3.17373 -3.75269,-2.82471 -5.81854,-4.35867 -1.36743,-1.01737 -0.89618,-0.66794 -4.63391,-3.47772 z"
       id="path172"
       inkscape:connector-curvature="0"
       style="fill:#ffffff;fill-rule:evenodd" />
    <path
       d="m 405.65555,268.59836 v 0 c 0,-15.26796 12.37711,-27.64508 27.64505,-27.64508 v 0 c 7.33194,0 14.36359,2.9126 19.54804,8.09705 5.18444,5.18446 8.09704,12.21609 8.09704,19.54803 v 0 c 0,15.26794 -12.37711,27.64508 -27.64508,27.64508 v 0 c -15.26794,0 -27.64505,-12.37714 -27.64505,-27.64508 z"
       id="path174"
       inkscape:connector-curvature="0"
       style="fill:#19cc95;fill-rule:evenodd" />
    <path
       d="m 418.26456,259.67502 -0.42859,0.0166 1.4173,1.76236 0.32986,-0.0166 h 0.32941 l 0.32941,0.0332 0.31326,0.0328 0.32941,0.0659 0.32986,0.0825 0.34604,0.0821 0.32941,0.11529 0.346,0.13187 0.32987,0.14847 0.34604,0.16461 0.34601,0.18121 0.36261,0.21396 0.36264,0.21396 0.36218,0.24716 0.37921,0.26374 0.59332,0.42791 0.5933,0.46158 1.08743,0.82306 0.56055,0.39563 0.57669,0.37857 0.59329,0.36243 0.29666,0.16464 0.3128,0.16461 0.31327,0.14847 0.31326,0.13187 0.32941,0.13144 0.32986,0.13186 0.32941,0.0987 0.34604,0.0992 0.34601,0.0659 0.346,0.066 0.34604,0.0493 0.34601,0.0493 0.36264,0.0166 0.36261,0.0161 0.36264,-0.0161 0.34601,-0.0166 0.36264,-0.0493 0.34601,-0.0493 0.34601,-0.066 0.34604,-0.0659 0.32986,-0.0992 0.34601,-0.0987 0.32941,-0.13186 0.31326,-0.13144 0.32941,-0.13187 0.31326,-0.14847 0.29666,-0.16461 0.3128,-0.16464 0.5933,-0.36243 0.56054,-0.37857 0.56009,-0.39563 1.08789,-0.82306 0.5933,-0.44498 0.60946,-0.44451 0.36264,-0.26374 0.34601,-0.23056 0.34601,-0.21396 0.34604,-0.19781 0.32986,-0.18122 0.34601,-0.16461 0.32941,-0.14801 0.32986,-0.13189 0.31281,-0.11527 0.32986,-0.0991 0.31281,-0.0821 0.31326,-0.0659 0.31326,-0.0328 0.31281,-0.0332 0.31326,-0.0166 h 0.31326 l 1.45005,-1.76236 h -0.39539 l -0.44519,0.0166 -0.44476,0.0494 -0.49457,0.0498 -0.49411,0.0821 -0.4946,0.0826 -0.52731,0.11526 -0.52735,0.13141 -0.51071,0.16507 -0.52734,0.16464 -0.51117,0.19778 -0.51074,0.21396 -0.49411,0.23056 -0.47797,0.24717 -0.46136,0.2633 -0.42859,0.29648 -0.60993,0.46112 -0.62604,0.46109 -1.02191,0.7742 -0.51074,0.36243 -0.51071,0.34582 -0.52734,0.31311 -0.52732,0.29648 -0.26391,0.13141 -0.28003,0.1153 -0.28006,0.11572 -0.28049,0.0987 -0.26343,0.0987 -0.26391,0.0659 -0.28003,0.0659 -0.28006,0.0494 -0.28003,0.0332 -0.28006,0.0327 -0.28049,0.0166 -0.28006,0.0161 -0.28003,-0.0161 -0.29666,-0.0166 -0.28006,-0.0327 -0.28049,-0.0332 -0.28006,-0.0494 -0.26342,-0.0659 -0.28049,-0.0659 -0.26346,-0.0987 -0.28003,-0.0987 -0.28006,-0.11572 -0.26388,-0.1153 -0.28006,-0.13141 -0.52732,-0.29648 -0.52734,-0.31311 -0.51117,-0.34582 -0.51074,-0.36243 -1.02146,-0.7742 -0.60989,-0.46109 -0.62607,-0.46112 -0.44519,-0.29648 -0.47796,-0.27991 -0.47797,-0.26376 -0.51074,-0.23053 -0.51071,-0.23056 -0.52735,-0.18121 -0.54394,-0.18076 -0.52732,-0.1485 -0.52734,-0.13186 -0.52731,-0.11527 -0.52735,-0.0987 -0.49457,-0.0659 -0.49414,-0.0494 -0.46133,-0.0166 z"
       id="path176"
       inkscape:connector-curvature="0"
       style="fill:#ffffff;fill-rule:evenodd" />
    <path
       d="m 418.26456,265.83496 -0.42859,0.0166 1.4173,1.74573 h 0.65927 l 0.32941,0.0332 0.31326,0.0327 0.32941,0.066 0.32986,0.0659 0.34604,0.0987 0.32941,0.11526 0.346,0.13187 0.32987,0.14847 0.34604,0.16464 0.34601,0.18121 0.36261,0.19736 0.36264,0.23056 0.36218,0.24713 0.37921,0.24716 0.59332,0.44452 0.5933,0.46109 1.08743,0.80741 0.56055,0.39517 0.57669,0.39517 0.59329,0.34583 0.29666,0.18121 0.3128,0.14847 0.31327,0.16461 0.31326,0.13187 0.32941,0.13143 0.32986,0.11527 0.32941,0.11529 0.34604,0.0825 0.34601,0.0825 0.346,0.0655 0.34604,0.0498 0.34601,0.0327 0.36264,0.0328 h 0.72525 l 0.34601,-0.0328 0.36264,-0.0327 0.34601,-0.0498 0.34601,-0.0655 0.34604,-0.0825 0.32986,-0.0825 0.34601,-0.11529 0.32941,-0.11527 0.31326,-0.13143 0.32941,-0.13187 0.31326,-0.16461 0.29666,-0.14847 0.3128,-0.18121 0.5933,-0.34583 0.56054,-0.39517 0.56009,-0.39517 1.08789,-0.80741 0.5933,-0.46109 0.60946,-0.44452 0.36264,-0.24716 0.34601,-0.23056 0.34601,-0.21396 0.34604,-0.19778 0.32986,-0.19782 0.34601,-0.16461 0.32941,-0.14804 0.32986,-0.11526 0.31281,-0.1153 0.32986,-0.0991 0.31281,-0.0821 0.31326,-0.0659 0.31326,-0.0494 0.31281,-0.0332 h 0.62652 l 1.45005,-1.76233 h -0.39539 l -0.44519,0.0166 -0.44476,0.0332 -0.49457,0.0655 -0.49411,0.0659 -0.4946,0.0991 -0.52731,0.11527 -0.52735,0.13144 -0.51071,0.14847 -0.52734,0.18121 -0.51117,0.18121 -0.51074,0.21396 -0.49411,0.23056 -0.47797,0.26374 -0.46136,0.2633 -0.42859,0.29648 -0.60993,0.44452 -0.62604,0.47772 -1.02191,0.77417 -0.51074,0.36246 -0.51071,0.34582 -0.52734,0.31308 -0.52732,0.29648 -0.26391,0.13144 -0.28003,0.11526 -0.28006,0.1153 -0.28049,0.0991 -0.26343,0.0821 -0.26391,0.0825 -0.28003,0.0659 -0.28006,0.0494 -0.28003,0.0327 -0.28006,0.0332 -0.28049,0.0166 -0.28006,0.0161 -0.28003,-0.0161 -0.29666,-0.0166 -0.28006,-0.0332 -0.28049,-0.0327 -0.28006,-0.0494 -0.26342,-0.0659 -0.28049,-0.0825 -0.26346,-0.0821 -0.28003,-0.0991 -0.28006,-0.1153 -0.26388,-0.11526 -0.28006,-0.13144 -0.52732,-0.29648 -0.52734,-0.31308 -0.51117,-0.34582 -0.51074,-0.36246 -1.02146,-0.77417 -0.60989,-0.47772 -0.62607,-0.44452 -0.44519,-0.31308 -0.47796,-0.27988 -0.47797,-0.24716 -0.51074,-0.2467 -0.51071,-0.21442 -0.52735,-0.19736 -0.54394,-0.16507 -0.52732,-0.16461 -0.52734,-0.13186 -0.52731,-0.0987 -0.52735,-0.0987 -0.49457,-0.0659 -0.49414,-0.0494 -0.46133,-0.0332 z"
       id="path178"
       inkscape:connector-curvature="0"
       style="fill:#ffffff;fill-rule:evenodd" />
    <path
       d="m 418.26456,272.12674 -0.42859,0.0166 1.4173,1.76236 0.32986,-0.0166 0.32941,0.0166 0.32941,0.0161 0.32986,0.0498 0.31281,0.0494 0.32986,0.0821 0.34604,0.0825 0.32941,0.11529 0.346,0.13187 0.32987,0.14801 0.34604,0.16464 0.34601,0.19779 0.36261,0.19781 0.36264,0.23056 0.36218,0.23056 0.37921,0.26331 0.59332,0.44494 0.5933,0.44452 1.08743,0.82355 0.56055,0.39517 0.57669,0.379 0.59329,0.36243 0.29666,0.16464 0.3128,0.16461 0.31327,0.14801 0.31326,0.14847 0.32941,0.13187 0.32986,0.11529 0.32941,0.0987 0.34604,0.0987 0.34601,0.0825 0.346,0.0659 0.34604,0.0493 0.34601,0.0328 0.36264,0.0166 0.36261,0.0166 0.36264,-0.0166 0.34601,-0.0166 0.36264,-0.0328 0.34601,-0.0493 0.34601,-0.0659 0.34604,-0.0825 0.32986,-0.0987 0.34601,-0.0987 0.32941,-0.11529 0.31326,-0.13187 0.32941,-0.14847 0.31326,-0.14801 0.29666,-0.16461 0.3128,-0.16464 0.5933,-0.36243 0.56054,-0.379 0.56009,-0.39517 1.08789,-0.82355 0.5933,-0.44452 0.60946,-0.44494 0.36264,-0.24716 0.34601,-0.23056 0.34601,-0.23056 0.34604,-0.19736 0.32986,-0.18122 0.34601,-0.14846 0.32941,-0.14801 0.32986,-0.13187 0.31281,-0.1153 0.32986,-0.0987 0.31281,-0.0825 0.31326,-0.0659 0.31326,-0.0493 0.32941,-0.0327 0.29666,-0.0166 h 0.31326 l 1.45005,-1.74576 h -0.39539 l -0.42859,0.0161 -0.46136,0.0332 -0.47797,0.0493 -0.49457,0.0825 -0.51074,0.0987 -0.51071,0.11526 -0.52734,0.13187 -0.52732,0.14804 -0.51117,0.18121 -0.52734,0.18122 -0.51074,0.21396 -0.49411,0.23056 -0.47797,0.24713 -0.44519,0.27991 -0.44476,0.28033 -0.60993,0.46112 -0.60943,0.46109 -1.03852,0.7742 -0.51074,0.36243 -0.51071,0.34582 -0.52734,0.32926 -0.52732,0.27987 -0.26391,0.1319 -0.28003,0.13187 -0.28006,0.11526 -0.28049,0.0987 -0.26343,0.0825 -0.26391,0.0659 -0.28003,0.0655 -0.28006,0.0498 -0.28003,0.0494 -0.28006,0.0327 -0.28049,0.0166 h -0.56009 l -0.29666,-0.0166 -0.28006,-0.0327 -0.28049,-0.0494 -0.28006,-0.0498 -0.26342,-0.0655 -0.28049,-0.0659 -0.26346,-0.0825 -0.28003,-0.0987 -0.28006,-0.11526 -0.26388,-0.13187 -0.28006,-0.1319 -0.52732,-0.27987 -0.52734,-0.32926 -0.51117,-0.34582 -0.51074,-0.36243 -1.02146,-0.7742 -0.60989,-0.46109 -0.62607,-0.46112 -0.44519,-0.29648 -0.47796,-0.27991 -0.47797,-0.26373 -0.51074,-0.23056 -0.51071,-0.21396 -0.52735,-0.19781 -0.54394,-0.18122 -0.52732,-0.14801 -0.52734,-0.13189 -0.52731,-0.11527 -0.52735,-0.0825 -0.49457,-0.0659 -0.49414,-0.0493 -0.46133,-0.0327 z"
       id="path180"
       inkscape:connector-curvature="0"
       style="fill:#ffffff;fill-rule:evenodd" />
    <path
       d="m 404.11917,376.19064 v 0 c 0,-15.43051 12.50757,-27.93942 27.93643,-27.93942 v 0 c 7.40921,0 14.51496,2.9436 19.75406,8.18329 5.23911,5.23965 8.18241,12.34616 8.18241,19.75613 v 0 c 0,15.43054 -12.50757,27.93945 -27.93647,27.93945 v 0 c -15.42886,0 -27.93643,-12.50891 -27.93643,-27.93945 z"
       id="path182"
       inkscape:connector-curvature="0"
       style="fill:#f76f03;fill-rule:evenodd" />
    <path
       d="m 448.27463,368.12604 -18.97321,14.26627 -4.70803,3.5314 h 2.80917 l 4.70804,-3.5314 18.95743,-14.26627 z"
       id="path184"
       inkscape:connector-curvature="0"
       style="fill:#ffffff;fill-rule:evenodd" />
    <path
       d="m 431.29474,367.1998 -5.93207,4.47302 -7.09326,5.33646 h 2.77756 l 7.10907,-5.33646 5.93207,-4.47302 z"
       id="path186"
       inkscape:connector-curvature="0"
       style="fill:#ffffff;fill-rule:evenodd" />
    <path
       d="m 434.3706,371.68866 -14.23398,10.70364 -2.32239,1.74219 -4.77087,3.57843 h 2.79337 l 4.78625,-3.57843 2.30704,-1.74219 14.24933,-10.70364 z"
       id="path188"
       inkscape:connector-curvature="0"
       style="fill:#ffffff;fill-rule:evenodd" />
    <defs
       id="defs199">
      <linearGradient
         id="g1fd18fa4fc_0_70.2"
         gradientUnits="userSpaceOnUse"
         gradientTransform="matrix(11.98405,0,0,11.98405,-381.17287,-322.58206)"
         spreadMethod="pad"
         x1="60.618706"
         y1="56.034885"
         x2="66.610733"
         y2="56.034885">
        <stop
           offset="0.0"
           stop-color="#29a1da"
           id="stop190" />
        <stop
           offset="0.45"
           stop-color="#29a1da"
           id="stop192" />
        <stop
           offset="0.56"
           stop-color="#2789b9"
           id="stop194" />
        <stop
           offset="1.0"
           stop-color="#2789b9"
           id="stop196" />
      </linearGradient>
    </defs>
    <path
       d="m 417.09343,328.80294 v 0 c 0,8.258 0,8.258 0,8.258 0,0.2276 -0.22742,0.45538 -0.91742,0.6906 -33.26544,11.0204 -33.26544,11.0204 -33.26544,11.0204 -0.91742,0.22778 -2.51838,0.22778 -3.6632,0 -33.2726,-11.0204 -33.2726,-11.0204 -33.2726,-11.0204 -0.22802,0 -0.45544,-0.23522 -0.45544,-0.23522 -0.23462,-0.22778 -0.23462,-0.22778 -0.23462,-0.45538 0,-8.258 0,-8.258 0,-8.258 h 71.80872"
       id="path201"
       inkscape:connector-curvature="0"
       style="fill:url(#g1fd18fa4fc_0_70.2);fill-rule:evenodd;stroke-width:2" />
    <defs
       id="defs208">
      <linearGradient
         id="g1fd18fa4fc_0_70.3"
         gradientUnits="userSpaceOnUse"
         gradientTransform="matrix(11.979107,0,0,11.979107,-381.17287,-322.58206)"
         spreadMethod="pad"
         x1="66.633392"
         y1="53.383991"
         x2="60.643841"
         y2="53.383949">
        <stop
           offset="0.0"
           stop-color="#6bc1ec"
           id="stop203" />
        <stop
           offset="1.0"
           stop-color="#8ad6f4"
           id="stop205" />
      </linearGradient>
    </defs>
    <path
       d="m 382.91087,340.4846 v 0 c 33.26594,-11.00782 33.26594,-11.00782 33.26594,-11.00782 1.14488,-0.46258 1.14488,-0.91784 0,-1.38042 -33.26594,-11.0152 -33.26594,-11.0152 -33.26594,-11.0152 -0.91784,-0.22754 -2.74572,-0.22754 -3.66364,0 -33.27306,11.0152 -33.27306,11.0152 -33.27306,11.0152 -0.9173,0.46258 -0.9173,0.91784 0,1.38042 33.27306,11.00782 33.27306,11.00782 33.27306,11.00782 1.14558,0.22772 2.7458,0.22772 3.66364,0"
       id="path210"
       inkscape:connector-curvature="0"
       style="fill:url(#g1fd18fa4fc_0_70.3);fill-rule:evenodd;stroke-width:2" />
    <defs
       id="defs221">
      <linearGradient
         id="g1fd18fa4fc_0_70.4"
         gradientUnits="userSpaceOnUse"
         gradientTransform="matrix(11.98405,0,0,11.98405,-381.17287,-322.58206)"
         spreadMethod="pad"
         x1="60.617085"
         y1="55.027798"
         x2="66.609108"
         y2="55.027798">
        <stop
           offset="0.0"
           stop-color="#dbdcdd"
           id="stop212" />
        <stop
           offset="0.41"
           stop-color="#dbdcdd"
           id="stop214" />
        <stop
           offset="0.6"
           stop-color="#b1b3b5"
           id="stop216" />
        <stop
           offset="1.0"
           stop-color="#b1b3b5"
           id="stop218" />
      </linearGradient>
    </defs>
    <path
       d="m 417.07407,316.73394 v 0 c 0,8.258 0,8.258 0,8.258 0,0.2276 -0.22748,0.45544 -0.91748,0.6906 -33.26544,11.02046 -33.26544,11.02046 -33.26544,11.02046 -0.91742,0.22778 -2.51832,0.22778 -3.6632,0 -33.2726,-11.02046 -33.2726,-11.02046 -33.2726,-11.02046 -0.22802,0 -0.45544,-0.23516 -0.45544,-0.23516 -0.23462,-0.22784 -0.23462,-0.22784 -0.23462,-0.45544 0,-8.258 0,-8.258 0,-8.258 h 71.80878"
       id="path223"
       inkscape:connector-curvature="0"
       style="fill:url(#g1fd18fa4fc_0_70.4);fill-rule:evenodd;stroke-width:2" />
    <defs
       id="defs230">
      <linearGradient
         id="g1fd18fa4fc_0_70.5"
         gradientUnits="userSpaceOnUse"
         gradientTransform="matrix(11.62104,0,0,11.62104,-381.17287,-322.58206)"
         spreadMethod="pad"
         x1="69.7052"
         y1="55.011959"
         x2="65.596573"
         y2="50.903267">
        <stop
           offset="0.0"
           stop-color="#e6e7e8"
           id="stop225" />
        <stop
           offset="1.0"
           stop-color="#ffffff"
           id="stop227" />
      </linearGradient>
    </defs>
    <path
       d="m 382.87699,328.41554 v 0 c 33.26586,-11.00782 33.26586,-11.00782 33.26586,-11.00782 1.1449,-0.46258 1.1449,-0.91784 0,-1.38042 -33.26586,-11.0152 -33.26586,-11.0152 -33.26586,-11.0152 -0.91784,-0.22748 -2.74578,-0.22748 -3.66364,0 -33.27312,11.0152 -33.27312,11.0152 -33.27312,11.0152 -0.91724,0.46258 -0.91724,0.91784 0,1.38042 33.27312,11.00782 33.27312,11.00782 33.27312,11.00782 1.14552,0.22772 2.7458,0.22772 3.66364,0"
       id="path232"
       inkscape:connector-curvature="0"
       style="fill:url(#g1fd18fa4fc_0_70.5);fill-rule:evenodd;stroke-width:2" />
    <path
       d="m 380.89617,296.2219 -0.63874,0.107 -0.63824,0.1066 -0.63874,0.1598 -0.58514,0.21356 -0.63872,0.21306 -0.58558,0.32014 -0.53198,0.32012 -0.58508,0.3202 -0.6919,0.58648 -0.6919,0.64026 -0.58508,0.69306 -0.58556,0.74682 v -3.62706 h -1.64954 v 6.61432 h 6.5985 v -1.65344 h -3.83142 l 0.47876,-0.74682 0.53248,-0.64026 0.63824,-0.63978 0.6919,-0.53374 0.745,-0.47992 0.74504,-0.37342 0.85132,-0.32012 0.79816,-0.21314 0.58514,-0.1064 0.58558,-0.0538 h 1.22382 l 0.58514,0.107 0.58556,0.1064 0.532,0.1598 0.58508,0.21356 0.69188,0.32012 0.69184,0.37342 0.63824,0.47998 0.6388,0.47992 0.42566,0.47998 0.3725,0.47998 0.3725,0.4804 0.3194,0.58656 0.31884,0.5332 0.21308,0.58698 0.21258,0.63976 0.16,0.58704 0.0532,0.21308 0.0532,0.21362 0.1062,0.1064 0.16,0.1604 0.1594,0.0532 0.21306,0.0534 h 0.1594 l 0.21306,-0.0534 0.1594,-0.107 0.1594,-0.1066 0.1068,-0.1598 0.0532,-0.1604 0.0532,-0.21308 v -0.1604 l -0.26622,-1.01318 -0.31934,-0.90662 -0.42572,-0.90716 -0.47876,-0.90662 -0.37256,-0.4267 -0.31934,-0.47992 -0.372,-0.4267 -0.42566,-0.3734 -0.42616,-0.37342 -0.47882,-0.37342 -0.53198,-0.3734 -0.26624,-0.1598 -0.26568,-0.1604 -0.42566,-0.21306 -0.4793,-0.21364 -0.3725,-0.1598 -0.31892,-0.1066 -1.01122,-0.32014 -1.0108,-0.1604 -1.01124,-0.0532 z"
       id="path234"
       inkscape:connector-curvature="0"
       style="fill:#2c3e50;fill-rule:evenodd;stroke-width:2" />
    <path
       d="m 372.70127,306.9432 -0.21252,0.0532 -0.21314,0.1598 -0.1594,0.21362 -0.1062,0.21308 v 0.26684 l 0.1594,0.74682 0.21308,0.69354 0.26574,0.69306 0.26624,0.64026 0.31934,0.53326 0.31938,0.5337 0.37202,0.47998 0.31934,0.4267 0.37256,0.42662 0.42566,0.37342 0.5324,0.47998 0.58514,0.4267 0.58508,0.3734 0.63874,0.32014 0.42566,0.21308 0.42566,0.21356 0.63874,0.1598 0.63824,0.1604 0.58556,0.1598 0.58516,0.0532 0.63872,0.0532 h 1.17066 l 0.63824,-0.0532 0.58564,-0.1066 0.58508,-0.1598 0.6919,-0.21362 0.63824,-0.26684 0.6919,-0.26636 0.58556,-0.37342 0.63824,-0.4267 0.532,-0.4267 0.5324,-0.4804 0.53198,-0.53326 0.42566,-0.5332 0.42566,-0.58704 v 3.62708 h 1.64948 v -6.61384 h -6.59796 v 1.65344 h 3.83092 l -0.372,0.58704 -0.42614,0.5332 -0.63826,0.69354 -0.69188,0.63978 -0.79822,0.53326 -0.85132,0.42664 -0.63824,0.2669 -0.745,0.21356 -0.6919,0.1598 -0.74506,0.0532 h -0.745 l -0.74504,-0.0532 -0.74452,-0.1066 -0.69188,-0.1604 -0.532,-0.21308 -0.5324,-0.21356 -0.47882,-0.26642 -0.47882,-0.26684 -0.47882,-0.32014 -0.42566,-0.37342 -0.42566,-0.3734 -0.42566,-0.37342 -0.31934,-0.4267 -0.3194,-0.47992 -0.31932,-0.4267 -0.26576,-0.47998 -0.21306,-0.5332 -0.21308,-0.53368 -0.1594,-0.47998 -0.1064,-0.5865 -0.0532,-0.1604 -0.053,-0.1598 -0.1068,-0.1598 -0.1594,-0.107 -0.21308,-0.1066 -0.1594,-0.0532 z"
       id="path236"
       inkscape:connector-curvature="0"
       style="fill:#2c3e50;fill-rule:evenodd;stroke-width:2" />
    <path
       d="m 366.52897,303.8494 -0.47882,0.0532 -0.3725,0.1604 -0.42566,0.21308 -0.3194,0.2669 -0.26568,0.32014 -0.21308,0.3734 -0.1064,0.4267 -0.0532,0.47992 0.0532,0.4267 0.1064,0.4267 0.21308,0.3734 0.26568,0.32014 0.3194,0.32012 0.42566,0.21308 0.3725,0.1066 0.47882,0.0532 0.42566,-0.0532 0.42566,-0.1066 0.42566,-0.21308 0.3194,-0.32012 0.26616,-0.32014 0.2126,-0.3734 0.1068,-0.4267 0.0532,-0.4267 -0.0532,-0.47992 -0.1068,-0.4267 -0.2126,-0.3734 -0.26616,-0.32014 -0.3194,-0.2669 -0.42566,-0.21308 -0.42566,-0.1604 z"
       id="path238"
       inkscape:connector-curvature="0"
       style="fill:#2c3e50;fill-rule:evenodd;stroke-width:2" />
    <path
       d="m 396.96549,303.8494 -0.47882,0.0532 -0.37256,0.1604 -0.42566,0.21308 -0.31934,0.2669 -0.26574,0.32014 -0.21308,0.3734 -0.1062,0.4267 -0.0532,0.47992 0.0532,0.4267 0.1062,0.4267 0.21308,0.3734 0.26574,0.32014 0.31934,0.32012 0.42566,0.21308 0.37256,0.1066 0.47882,0.0532 0.42566,-0.0532 0.42614,-0.1066 0.42566,-0.21308 0.31886,-0.32012 0.26622,-0.32014 0.21308,-0.3734 0.1064,-0.4267 0.053,-0.4267 -0.053,-0.47992 -0.1064,-0.4267 -0.21308,-0.3734 -0.26622,-0.32014 -0.31886,-0.2669 -0.42566,-0.21308 -0.42614,-0.1604 z"
       id="path240"
       inkscape:connector-curvature="0"
       style="fill:#2c3e50;fill-rule:evenodd;stroke-width:2" />
    <defs
       id="defs251">
      <linearGradient
         id="g1fd18fa4fc_0_70.6"
         gradientUnits="userSpaceOnUse"
         gradientTransform="matrix(11.984385,0,0,11.984385,-506.69034,-395.55701)"
         spreadMethod="pad"
         x1="81.563683"
         y1="68.316292"
         x2="87.55587"
         y2="68.316292">
        <stop
           offset="0.0"
           stop-color="#29a1da"
           id="stop242" />
        <stop
           offset="0.45"
           stop-color="#29a1da"
           id="stop244" />
        <stop
           offset="0.56"
           stop-color="#2789b9"
           id="stop246" />
        <stop
           offset="1.0"
           stop-color="#2789b9"
           id="stop248" />
      </linearGradient>
    </defs>
    <path
       d="m 542.61286,403.03075 v 0 c 0,8.25842 0,8.25842 0,8.25842 0,0.22766 -0.22742,0.45543 -0.91748,0.69068 -33.26722,11.021 -33.26722,11.021 -33.26722,11.021 -0.91754,0.22784 -2.51848,0.22784 -3.66344,0 -33.27442,-11.021 -33.27442,-11.021 -33.27442,-11.021 -0.22802,0 -0.45544,-0.23524 -0.45544,-0.23524 -0.23462,-0.22778 -0.23462,-0.22778 -0.23462,-0.45544 0,-8.25842 0,-8.25842 0,-8.25842 h 71.81262"
       id="path253"
       inkscape:connector-curvature="0"
       style="fill:url(#g1fd18fa4fc_0_70.6);fill-rule:evenodd;stroke-width:2" />
    <defs
       id="defs260">
      <linearGradient
         id="g1fd18fa4fc_0_70.7"
         gradientUnits="userSpaceOnUse"
         gradientTransform="matrix(11.979429,0,0,11.979429,-506.69034,-395.55701)"
         spreadMethod="pad"
         x1="87.587265"
         y1="65.670464"
         x2="81.597557"
         y2="65.670418">
        <stop
           offset="0.0"
           stop-color="#6bc1ec"
           id="stop255" />
        <stop
           offset="1.0"
           stop-color="#8ad6f4"
           id="stop257" />
      </linearGradient>
    </defs>
    <path
       d="m 508.4285,414.71298 v 0 c 33.26776,-11.00842 33.26776,-11.00842 33.26776,-11.00842 1.1449,-0.46258 1.1449,-0.91783 0,-1.38049 -33.26776,-11.01581 -33.26776,-11.01581 -33.26776,-11.01581 -0.9179,-0.22748 -2.74592,-0.22748 -3.66382,0 -33.27496,11.01581 -33.27496,11.01581 -33.27496,11.01581 -0.9173,0.46266 -0.9173,0.91791 0,1.38049 33.27496,11.00842 33.27496,11.00842 33.27496,11.00842 1.14558,0.22779 2.74592,0.22779 3.66382,0"
       id="path262"
       inkscape:connector-curvature="0"
       style="fill:url(#g1fd18fa4fc_0_70.7);fill-rule:evenodd;stroke-width:2" />
    <defs
       id="defs273">
      <linearGradient
         id="g1fd18fa4fc_0_70.8"
         gradientUnits="userSpaceOnUse"
         gradientTransform="matrix(11.984379,0,0,11.984379,-506.69034,-395.55701)"
         spreadMethod="pad"
         x1="81.562111"
         y1="67.309212"
         x2="87.554298"
         y2="67.309212">
        <stop
           offset="0.0"
           stop-color="#dbdcdd"
           id="stop264" />
        <stop
           offset="0.41"
           stop-color="#dbdcdd"
           id="stop266" />
        <stop
           offset="0.6"
           stop-color="#b1b3b5"
           id="stop268" />
        <stop
           offset="1.0"
           stop-color="#b1b3b5"
           id="stop270" />
      </linearGradient>
    </defs>
    <path
       d="m 542.5936,390.96105 v 0 c 0,8.25842 0,8.25842 0,8.25842 0,0.22766 -0.22754,0.4555 -0.9176,0.69074 -33.26722,11.02099 -33.26722,11.02099 -33.26722,11.02099 -0.91748,0.22779 -2.51848,0.22779 -3.66344,0 -33.27442,-11.02099 -33.27442,-11.02099 -33.27442,-11.02099 -0.22802,0 -0.45544,-0.23524 -0.45544,-0.23524 -0.23462,-0.22784 -0.23462,-0.22784 -0.23462,-0.4555 0,-8.25842 0,-8.25842 0,-8.25842 h 71.81274"
       id="path275"
       inkscape:connector-curvature="0"
       style="fill:url(#g1fd18fa4fc_0_70.8);fill-rule:evenodd;stroke-width:2" />
    <defs
       id="defs282">
      <linearGradient
         id="g1fd18fa4fc_0_70.9"
         gradientUnits="userSpaceOnUse"
         gradientTransform="matrix(11.621355,0,0,11.621355,-506.69034,-395.55701)"
         spreadMethod="pad"
         x1="91.304718"
         y1="67.676987"
         x2="87.195984"
         y2="63.56818">
        <stop
           offset="0.0"
           stop-color="#e6e7e8"
           id="stop277" />
        <stop
           offset="1.0"
           stop-color="#ffffff"
           id="stop279" />
      </linearGradient>
    </defs>
    <path
       d="m 508.39456,402.64338 v 0 c 33.26776,-11.00842 33.26776,-11.00842 33.26776,-11.00842 1.14502,-0.46264 1.14502,-0.91792 0,-1.38055 -33.26776,-11.01575 -33.26776,-11.01575 -33.26776,-11.01575 -0.9179,-0.22754 -2.74592,-0.22754 -3.66382,0 -33.2749,11.01575 -33.2749,11.01575 -33.2749,11.01575 -0.91736,0.46263 -0.91736,0.91791 0,1.38055 33.2749,11.00842 33.2749,11.00842 33.2749,11.00842 1.14564,0.22772 2.74592,0.22772 3.66382,0"
       id="path284"
       inkscape:connector-curvature="0"
       style="fill:url(#g1fd18fa4fc_0_70.9);fill-rule:evenodd;stroke-width:2" />
    <path
       d="m 512.88656,367.94231 -0.43786,0.1094 -0.32862,0.164 -0.38324,0.21924 -0.27386,0.27386 -0.27338,0.32806 -0.21924,0.32856 -0.1094,0.38324 -0.1098,0.43792 v 0.32862 0.27386 l 0.0552,0.32806 0.1094,0.32856 0.164,0.27386 0.1646,0.27338 0.164,0.27392 0.27388,0.21924 0.3833,0.27338 0.43786,0.21918 0.49262,0.1094 h 0.4926 l 0.49256,-0.1094 0.49262,-0.1646 0.43792,-0.27338 0.38324,-0.38324 0.27386,-0.38324 0.21924,-0.43792 0.1094,-0.49256 v -0.4931 l -0.0546,-0.5473 -0.21924,-0.49256 -0.27338,-0.43792 -0.43842,-0.38324 -0.43792,-0.32856 -0.5473,-0.164 -0.49256,-0.0546 z"
       id="path286"
       inkscape:connector-curvature="0"
       style="fill:#2c3e50;fill-rule:evenodd;stroke-width:2" />
    <path
       d="m 511.3536,374.45639 -1.3684,0.32856 -2.24476,11.49626 3.44916,1.09504 1.03986,6.67858 h 2.18956 l 1.04042,-6.67858 3.4486,-1.09504 -2.2442,-11.49626 -1.31378,-0.32856 -2.02558,2.02558 -0.21918,-0.2187 -0.27392,-0.27392 z"
       id="path288"
       inkscape:connector-curvature="0"
       style="fill:#2c3e50;fill-rule:evenodd;stroke-width:2" />
    <path
       d="m 500.45718,368.01719 -0.46814,0.052 -0.36426,0.1558 -0.4162,0.1564 -0.31232,0.26031 -0.31176,0.31183 -0.26032,0.31226 -0.20836,0.36425 -0.1558,0.4162 -0.052,0.4162 -0.052,0.57263 0.104,0.52013 0.26032,0.52014 0.31176,0.46814 0.26032,0.26032 0.31232,0.26032 0.31226,0.156 0.36426,0.1564 0.4162,0.104 h 0.72802 l 0.41668,-0.052 0.31184,-0.1044 0.26032,-0.1558 0.2603,-0.1558 0.25984,-0.20838 0.2603,-0.26032 0.1558,-0.25982 0.20836,-0.26032 0.1038,-0.31226 0.104,-0.41618 0.0524,-0.41626 v -0.4162 l -0.1044,-0.46814 -0.052,-0.26032 -0.1558,-0.25982 -0.31226,-0.4687 -0.36426,-0.36376 -0.52014,-0.31226 -0.4162,-0.1564 -0.46868,-0.1038 z"
       id="path290"
       inkscape:connector-curvature="0"
       style="fill:#2c3e50;fill-rule:evenodd;stroke-width:2" />
    <path
       d="m 498.27218,374.41678 -2.60168,0.98884 v 7.64818 l 1.92516,1.56093 0.052,0.36425 0.104,0.4162 1.5609,8.63702 h 2.54974 l 1.7688,-9.41747 1.92518,-1.56093 v -7.64818 l -2.6537,-0.98884 -2.28886,2.86153 z"
       id="path292"
       inkscape:connector-curvature="0"
       style="fill:#2c3e50;fill-rule:evenodd;stroke-width:2" />
    <defs
       id="defs303">
      <linearGradient
         id="g1fd18fa4fc_0_70.10"
         gradientUnits="userSpaceOnUse"
         gradientTransform="matrix(11.98405,0,0,11.98405,-507.15823,-254.23877)"
         spreadMethod="pad"
         x1="81.644211"
         y1="44.805893"
         x2="87.636238"
         y2="44.805893">
        <stop
           offset="0.0"
           stop-color="#29a1da"
           id="stop294" />
        <stop
           offset="0.45"
           stop-color="#29a1da"
           id="stop296" />
        <stop
           offset="0.56"
           stop-color="#2789b9"
           id="stop298" />
        <stop
           offset="1.0"
           stop-color="#2789b9"
           id="stop300" />
      </linearGradient>
    </defs>
    <path
       d="m 485.68628,252.02504 -42.04727,72.81889"
       id="path348"
       inkscape:connector-curvature="0"
       style="fill-rule:evenodd;stroke:#19cc95;stroke-width:1;stroke-linecap:butt;stroke-linejoin:round" />
    <path
       d="m 543.07877,262.57743 v 0 c 0,8.25794 0,8.25794 0,8.25794 0,0.22766 -0.22742,0.45544 -0.91748,0.69066 -33.26538,11.0204 -33.26538,11.0204 -33.26538,11.0204 -0.91748,0.22778 -2.51838,0.22778 -3.6632,0 -33.27266,-11.0204 -33.27266,-11.0204 -33.27266,-11.0204 -0.22796,0 -0.45538,-0.23522 -0.45538,-0.23522 -0.23462,-0.22778 -0.23462,-0.22778 -0.23462,-0.45544 0,-8.25794 0,-8.25794 0,-8.25794 h 71.80872"
       id="path305"
       inkscape:connector-curvature="0"
       style="fill:url(#g1fd18fa4fc_0_70.10);fill-rule:evenodd;stroke-width:2" />
    <defs
       id="defs312">
      <linearGradient
         id="g1fd18fa4fc_0_70.11"
         gradientUnits="userSpaceOnUse"
         gradientTransform="matrix(11.979101,0,0,11.979101,-507.15823,-254.23877)"
         spreadMethod="pad"
         x1="87.667618"
         y1="42.150391"
         x2="81.67807"
         y2="42.150349">
        <stop
           offset="0.0"
           stop-color="#6bc1ec"
           id="stop307" />
        <stop
           offset="1.0"
           stop-color="#8ad6f4"
           id="stop309" />
      </linearGradient>
    </defs>
    <path
       d="m 508.89627,274.25909 v 0 c 33.26592,-11.00782 33.26592,-11.00782 33.26592,-11.00782 1.1449,-0.46258 1.1449,-0.91784 0,-1.38042 -33.26592,-11.0152 -33.26592,-11.0152 -33.26592,-11.0152 -0.91784,-0.22752 -2.74572,-0.22752 -3.66364,0 -33.27306,11.0152 -33.27306,11.0152 -33.27306,11.0152 -0.9173,0.46258 -0.9173,0.91784 0,1.38042 33.27306,11.00782 33.27306,11.00782 33.27306,11.00782 1.14558,0.22772 2.7458,0.22772 3.66364,0"
       id="path314"
       inkscape:connector-curvature="0"
       style="fill:url(#g1fd18fa4fc_0_70.11);fill-rule:evenodd;stroke-width:2" />
    <defs
       id="defs325">
      <linearGradient
         id="g1fd18fa4fc_0_70.12"
         gradientUnits="userSpaceOnUse"
         gradientTransform="matrix(11.98405,0,0,11.98405,-507.15823,-254.23877)"
         spreadMethod="pad"
         x1="81.642593"
         y1="43.798805"
         x2="87.634621"
         y2="43.798805">
        <stop
           offset="0.0"
           stop-color="#dbdcdd"
           id="stop316" />
        <stop
           offset="0.41"
           stop-color="#dbdcdd"
           id="stop318" />
        <stop
           offset="0.6"
           stop-color="#b1b3b5"
           id="stop320" />
        <stop
           offset="1.0"
           stop-color="#b1b3b5"
           id="stop322" />
      </linearGradient>
    </defs>
    <path
       d="m 543.05937,250.50845 v 0 c 0,8.25796 0,8.25796 0,8.25796 0,0.2276 -0.22742,0.45544 -0.91748,0.69062 -33.26538,11.02038 -33.26538,11.02038 -33.26538,11.02038 -0.91742,0.22784 -2.51838,0.22784 -3.6632,0 -33.2726,-11.02038 -33.2726,-11.02038 -33.2726,-11.02038 -0.22802,0 -0.45544,-0.23518 -0.45544,-0.23518 -0.23462,-0.22784 -0.23462,-0.22784 -0.23462,-0.45544 0,-8.25796 0,-8.25796 0,-8.25796 h 71.80872"
       id="path327"
       inkscape:connector-curvature="0"
       style="fill:url(#g1fd18fa4fc_0_70.12);fill-rule:evenodd;stroke-width:2" />
    <defs
       id="defs334">
      <linearGradient
         id="g1fd18fa4fc_0_70.13"
         gradientUnits="userSpaceOnUse"
         gradientTransform="matrix(11.621028,0,0,11.621028,-507.15823,-254.23877)"
         spreadMethod="pad"
         x1="91.387573"
         y1="43.432251"
         x2="87.278961"
         y2="39.323555">
        <stop
           offset="0.0"
           stop-color="#e6e7e8"
           id="stop329" />
        <stop
           offset="1.0"
           stop-color="#ffffff"
           id="stop331" />
      </linearGradient>
    </defs>
    <path
       d="m 508.86237,262.19007 v 0 c 33.26586,-11.00782 33.26586,-11.00782 33.26586,-11.00782 1.1449,-0.46258 1.1449,-0.91784 0,-1.38042 -33.26586,-11.01518 -33.26586,-11.01518 -33.26586,-11.01518 -0.9179,-0.22754 -2.74578,-0.22754 -3.66364,0 -33.27312,11.01518 -33.27312,11.01518 -33.27312,11.01518 -0.91724,0.46258 -0.91724,0.91784 0,1.38042 33.27312,11.00782 33.27312,11.00782 33.27312,11.00782 1.14552,0.22772 2.74574,0.22772 3.66364,0"
       id="path336"
       inkscape:connector-curvature="0"
       style="fill:url(#g1fd18fa4fc_0_70.13);fill-rule:evenodd;stroke-width:2" />
    <path
       d="m 503.03683,236.87287 0.4251,0.061 0.30354,0.1214 0.36444,0.1822 0.30352,0.24286 0.1822,0.24288 0.1822,0.36444 0.1216,0.36448 0.0606,0.36416 v 6.61942 h -3.82592 v -6.61942 -0.36416 l 0.1216,-0.36448 0.1822,-0.36444 0.24286,-0.24288 0.30354,-0.24286 0.30376,-0.1822 0.3642,-0.1214 z m 8.19824,0 0.36444,0.061 0.3642,0.1214 0.30378,0.1822 0.30352,0.24286 0.24292,0.24288 0.1822,0.36444 0.1216,0.36448 v 0.36416 6.61942 h -3.82596 v -6.61942 l 0.0606,-0.36416 0.0606,-0.36448 0.1822,-0.36444 0.24292,-0.24288 0.30376,-0.24286 0.30354,-0.1822 0.36444,-0.1214 z m -13.11724,-0.91082 v 9.47354 h -2.24684 v 2.30774 h 22.59052 v -2.30774 h -2.24676 v -9.47354 z"
       id="path338"
       inkscape:connector-curvature="0"
       style="fill:#2c3e50;fill-rule:evenodd;stroke-width:2" />
    <path
       d="m 507.16629,225.76029 -11.53814,6.98358 v 2.12552 h 23.07628 v -2.12552 z"
       id="path340"
       inkscape:connector-curvature="0"
       style="fill:#2c3e50;fill-rule:evenodd;stroke-width:2" />
    <path
       d="m 413.5835,232.44824 h 40.03149"
       id="path342"
       inkscape:connector-curvature="0"
       style="fill:#000000;fill-opacity:0;fill-rule:evenodd" />
    <path
       d="m 413.5835,232.44824 h 40.03149"
       id="path344"
       inkscape:connector-curvature="0"
       style="fill-rule:evenodd;stroke:#e3f7f0;stroke-width:1;stroke-linecap:butt;stroke-linejoin:round" />
    <path
       d="m 485.68628,252.02504 -42.04727,72.81889"
       id="path346"
       inkscape:connector-curvature="0"
       style="fill:#000000;fill-opacity:0;fill-rule:evenodd" />
    <path
       d="m 410.4797,411.37738 43.1496,0.62994"
       id="path350"
       inkscape:connector-curvature="0"
       style="fill:#000000;fill-opacity:0;fill-rule:evenodd" />
    <path
       d="m 410.4797,411.37738 43.1496,0.62994"
       id="path352"
       inkscape:connector-curvature="0"
       style="fill-rule:evenodd;stroke:#e3f7f0;stroke-width:1;stroke-linecap:butt;stroke-linejoin:round" />
  </g>
</svg>
