<?xml version="1.0" encoding="UTF-8" standalone="no"?>
<!-- Created with Inkscape (http://www.inkscape.org/) -->

<svg
   xmlns:dc="http://purl.org/dc/elements/1.1/"
   xmlns:cc="http://creativecommons.org/ns#"
   xmlns:rdf="http://www.w3.org/1999/02/22-rdf-syntax-ns#"
   xmlns:svg="http://www.w3.org/2000/svg"
   xmlns="http://www.w3.org/2000/svg"
   xmlns:sodipodi="http://sodipodi.sourceforge.net/DTD/sodipodi-0.dtd"
   xmlns:inkscape="http://www.inkscape.org/namespaces/inkscape"
   width="135.94768"
   height="119.38448"
   viewBox="0 0 35.969489 31.587143"
   version="1.1"
   id="svg4029"
   inkscape:version="0.92.2 2405546, 2018-03-11"
   sodipodi:docname="scales.svg">
  <defs
     id="defs4023" />
  <sodipodi:namedview
     id="base"
     pagecolor="#ffffff"
     bordercolor="#666666"
     borderopacity="1.0"
     inkscape:pageopacity="0.0"
     inkscape:pageshadow="2"
     inkscape:zoom="0.35"
     inkscape:cx="87.973828"
     inkscape:cy="-437.45059"
     inkscape:document-units="mm"
     inkscape:current-layer="layer1"
     showgrid="false"
     units="px"
     fit-margin-top="10"
     fit-margin-left="10"
     fit-margin-right="10"
     fit-margin-bottom="10"
     inkscape:window-width="1920"
     inkscape:window-height="1022"
     inkscape:window-x="0"
     inkscape:window-y="1"
     inkscape:window-maximized="1" />
  <metadata
     id="metadata4026">
    <rdf:RDF>
      <cc:Work
         rdf:about="">
        <dc:format>image/svg+xml</dc:format>
        <dc:type
           rdf:resource="http://purl.org/dc/dcmitype/StillImage" />
        <dc:title></dc:title>
      </cc:Work>
    </rdf:RDF>
  </metadata>
  <g
     inkscape:label="Layer 1"
     inkscape:groupmode="layer"
     id="layer1"
     transform="translate(56.538313,-1.5040477)">
    <path
       d="m -28.400835,12.695976 3.505875,7.011765 h -7.011758 z m -20.378796,0.14597 3.505883,7.012443 h -7.01176 z m 10.225718,-8.692065 -0.437894,0.073324 -0.438581,0.073324 -0.291923,0.2185988 -0.365254,0.2192946 -0.219287,0.3652546 -0.218607,0.2919227 -0.07332,0.4385813 -0.07332,0.4378907 0.07332,0.4385812 0.14596,0.4378934 0.219295,0.4385707 0.365247,0.2919306 h -0.292608 l -0.36457,0.073324 -0.29261,0.2192867 -0.219295,0.2919307 -0.07264,0.2919333 0.07264,0.292608 0.146651,0.2919333 0.145967,0.14596 0.291923,0.1459627 h -8.399446 l -0.292614,0.073324 -0.218604,0.145968 -0.146648,0.2192867 -0.07264,0.291931 0.07264,0.29261 0.146648,0.218607 -4.528997,8.984676 v 0.218606 0.219287 0.07332 l 0.07332,0.511217 0.07264,0.437894 0.146653,0.438578 0.218604,0.437894 0.511218,0.803828 0.584541,0.730509 0.803831,0.511217 0.803142,0.437894 0.438582,0.146648 0.511217,0.145962 0.437888,0.07264 h 1.022435 l 0.511217,-0.07264 0.438579,-0.145962 0.437893,-0.146648 0.877155,-0.437894 0.729821,-0.511217 0.657865,-0.730509 0.511218,-0.803828 0.14597,-0.437894 0.14596,-0.438578 0.145963,-0.437894 0.07332,-0.511217 v -0.07332 -0.219287 L -43.666768,19.854389 -48.04912,11.089 h 8.472776 V 28.253835 H -46.8074 l -0.291928,0.145971 -0.219289,0.07332 -0.21929,0.219284 -0.219289,0.218607 -0.145963,0.29261 -0.07264,0.218607 v 0.365249 0.219292 l 0.145966,0.292611 0.291928,0.145971 h 17.968666 l 0.218606,-0.145971 0.146648,-0.292611 0.07264,-0.219292 -0.07264,-0.365249 -0.07332,-0.218607 -0.14596,-0.29261 -0.14597,-0.218607 -0.292611,-0.219284 -0.219292,-0.07332 -0.291923,-0.145971 h -7.231056 V 11.089 h 8.400132 l -4.309708,8.618741 -0.07332,0.219284 v 0.219294 0.07332 l 0.07332,0.511218 0.14596,0.437893 0.145963,0.438571 0.145971,0.437893 0.511902,0.803836 0.65718,0.730501 0.730502,0.511218 0.876472,0.437893 0.437893,0.145971 0.438581,0.146648 0.511218,0.07264 h 1.022434 l 0.438571,-0.07264 0.511217,-0.146648 0.437894,-0.145971 0.876472,-0.437893 0.730504,-0.511218 0.584549,-0.730501 0.511215,-0.803836 0.219286,-0.437893 0.145963,-0.438571 0.145968,-0.437893 0.07332,-0.511218 v -0.07332 -0.219294 l -0.07332,-0.219284 -4.455679,-8.910664 0.145963,-0.145971 v -0.29261 l -0.07264,-0.291931 -0.14596,-0.2192867 -0.219294,-0.145968 -0.291923,-0.073324 h -8.400135 l 0.291923,-0.1459627 0.219295,-0.1459627 0.07332,-0.2919306 0.07264,-0.2926107 -0.07264,-0.2919306 -0.219295,-0.2919307 -0.291923,-0.2192867 -0.292618,-0.073324 h -0.365255 l 0.365255,-0.2919306 0.219294,-0.4385707 0.145963,-0.4378934 0.07332,-0.4385812 V 5.8301783 L -36.654322,5.3915997 -36.873616,5.099677 -37.0929,4.7344224 -37.384834,4.5151278 -37.75008,4.296529 -38.188659,4.223205 Z"
       id="path40"
       inkscape:connector-curvature="0"
       style="fill:#2c3e50;fill-rule:evenodd;stroke:none;stroke-width:0.26458332;stroke-linecap:square;stroke-miterlimit:10" />
  </g>
</svg>
