<?xml version="1.0" encoding="UTF-8" standalone="no"?>
<!-- Created with Inkscape (http://www.inkscape.org/) -->

<svg
   xmlns:dc="http://purl.org/dc/elements/1.1/"
   xmlns:cc="http://creativecommons.org/ns#"
   xmlns:rdf="http://www.w3.org/1999/02/22-rdf-syntax-ns#"
   xmlns:svg="http://www.w3.org/2000/svg"
   xmlns="http://www.w3.org/2000/svg"
   xmlns:sodipodi="http://sodipodi.sourceforge.net/DTD/sodipodi-0.dtd"
   xmlns:inkscape="http://www.inkscape.org/namespaces/inkscape"
   width="99.653053"
   height="106.35328"
   viewBox="0 0 26.366537 28.139304"
   version="1.1"
   id="svg3794"
   inkscape:version="0.92.2 2405546, 2018-03-11"
   sodipodi:docname="triskellion.svg">
  <defs
     id="defs3788" />
  <sodipodi:namedview
     id="base"
     pagecolor="#ffffff"
     bordercolor="#666666"
     borderopacity="1.0"
     inkscape:pageopacity="0.0"
     inkscape:pageshadow="2"
     inkscape:zoom="1.979899"
     inkscape:cx="-137.23943"
     inkscape:cy="173.14777"
     inkscape:document-units="mm"
     inkscape:current-layer="layer1"
     showgrid="false"
     fit-margin-top="10"
     fit-margin-left="10"
     fit-margin-right="10"
     fit-margin-bottom="10"
     units="px"
     inkscape:window-width="1920"
     inkscape:window-height="1022"
     inkscape:window-x="0"
     inkscape:window-y="1"
     inkscape:window-maximized="1" />
  <metadata
     id="metadata3791">
    <rdf:RDF>
      <cc:Work
         rdf:about="">
        <dc:format>image/svg+xml</dc:format>
        <dc:type
           rdf:resource="http://purl.org/dc/dcmitype/StillImage" />
        <dc:title></dc:title>
      </cc:Work>
    </rdf:RDF>
  </metadata>
  <g
     inkscape:label="Layer 1"
     inkscape:groupmode="layer"
     id="layer1"
     transform="translate(-27.638157,-16.835109)">
    <path
       d="m 46.56598,19.480942 -0.59072,0.06591 -0.59071,0.06529 -0.59134,0.197111 -0.59071,0.328313 -0.52542,0.328314 -0.45952,0.393606 -0.3936,0.460131 -0.39423,0.524808 -0.2624,0.591333 -0.19712,0.590719 -0.1312,0.590716 v 0.656626 0.656627 l 0.19711,0.656627 0.19651,0.656626 0.3283,0.590717 0.19712,0.459515 0.0659,0.459516 -0.0659,0.525424 -0.19712,0.459514 -0.2624,0.328315 -0.39422,0.328313 -0.45952,0.197111 -0.5248,0.06529 -0.45952,-0.06529 -0.46013,-0.197111 -0.3936,-0.328313 -0.32832,-0.394222 -0.32831,-0.524809 -0.39361,-0.525424 -0.52543,-0.459516 -0.59072,-0.394222 -0.52542,-0.262404 -0.59072,-0.197111 -0.65662,-0.131202 -0.59134,-0.06591 -0.59071,0.06591 -0.65663,0.131202 -0.59071,0.197111 -0.52543,0.262404 -0.52481,0.328312 -0.46013,0.459516 -0.45951,0.459515 -0.32832,0.460132 -0.2624,0.590718 -0.19711,0.590716 -0.1312,0.590718 -0.0653,0.656626 0.0653,0.591334 0.1312,0.65601 0.19711,0.591334 0.2624,0.524808 0.32832,0.525425 0.45951,0.459514 0.46013,0.394223 0.52481,0.393606 0.52543,0.263019 0.59071,0.196496 0.65663,0.131817 h 1.18205 l 0.65662,-0.131817 0.59072,-0.196496 0.52542,-0.263019 0.59072,-0.393606 0.52543,-0.459515 0.39361,-0.525424 0.32831,-0.590718 0.32832,-0.394223 0.3936,-0.328313 0.46013,-0.131201 0.45952,-0.06591 0.5248,0.06591 0.45952,0.131201 0.39422,0.328313 0.2624,0.394223 0.19712,0.459514 0.0659,0.459517 -0.0659,0.525424 -0.19712,0.459515 -0.3283,0.590718 -0.19651,0.590716 -0.19711,0.722535 v 0.656628 0.65601 l 0.1312,0.591334 0.19712,0.590716 0.2624,0.525423 0.39423,0.524809 0.3936,0.459518 0.45952,0.394221 0.52542,0.394221 0.59071,0.262406 0.59134,0.197112 0.59071,0.131202 0.59072,0.06529 0.65663,-0.06529 0.59072,-0.131202 0.59133,-0.197112 0.59072,-0.262406 0.52542,-0.394221 0.45952,-0.394221 0.3936,-0.459518 0.32832,-0.524809 0.2624,-0.525423 0.19711,-0.590716 0.13121,-0.591334 0.0659,-0.65601 -0.0659,-0.656628 -0.13121,-0.591332 -0.19711,-0.590718 -0.2624,-0.525424 -0.32832,-0.524808 -0.3936,-0.459515 -0.45952,-0.460132 -0.52542,-0.327697 -0.65663,-0.263021 -0.65662,-0.262403 -0.65663,-0.06591 -0.65662,-0.06529 -0.52482,-0.06591 -0.45951,-0.131201 -0.39422,-0.328313 -0.2624,-0.394223 -0.19712,-0.459516 -0.0659,-0.459515 0.0659,-0.524808 0.19712,-0.46013 0.2624,-0.327698 0.39422,-0.328315 0.45951,-0.197109 0.52482,-0.06591 h 0.65662 l 0.65663,-0.131202 0.65662,-0.197111 0.65663,-0.328313 0.52542,-0.328314 0.45952,-0.393605 0.3936,-0.459516 0.32832,-0.525424 0.2624,-0.590718 0.19711,-0.525424 0.13121,-0.656626 0.0659,-0.590718 -0.0659,-0.656626 -0.13121,-0.590718 -0.19711,-0.590719 -0.2624,-0.591332 -0.32832,-0.524809 -0.3936,-0.460131 -0.45952,-0.393606 -0.52542,-0.328314 -0.59072,-0.328313 -0.59133,-0.197111 -0.59072,-0.06529 z"
       id="path30"
       inkscape:connector-curvature="0"
       style="fill:#0f71e5;fill-rule:evenodd;stroke:none;stroke-width:0.26458332;stroke-linecap:square;stroke-miterlimit:10" />
  </g>
</svg>
