<?xml version="1.0" encoding="UTF-8" standalone="no"?>
<!-- Created with Inkscape (http://www.inkscape.org/) -->

<svg
   xmlns:dc="http://purl.org/dc/elements/1.1/"
   xmlns:cc="http://creativecommons.org/ns#"
   xmlns:rdf="http://www.w3.org/1999/02/22-rdf-syntax-ns#"
   xmlns:svg="http://www.w3.org/2000/svg"
   xmlns="http://www.w3.org/2000/svg"
   xmlns:sodipodi="http://sodipodi.sourceforge.net/DTD/sodipodi-0.dtd"
   xmlns:inkscape="http://www.inkscape.org/namespaces/inkscape"
   width="180"
   height="180"
   viewBox="0 0 47.625 47.624998"
   version="1.1"
   id="svg3794"
   inkscape:version="0.92.2 2405546, 2018-03-11"
   sodipodi:docname="triskellion.svg">
  <defs
     id="defs3788" />
  <sodipodi:namedview
     id="base"
     pagecolor="#ffffff"
     bordercolor="#666666"
     borderopacity="1.0"
     inkscape:pageopacity="0.0"
     inkscape:pageshadow="2"
     inkscape:zoom="1.979899"
     inkscape:cx="-99.05992"
     inkscape:cy="189.76808"
     inkscape:document-units="mm"
     inkscape:current-layer="layer1"
     showgrid="false"
     fit-margin-top="10"
     fit-margin-left="10"
     fit-margin-right="10"
     fit-margin-bottom="10"
     units="px"
     inkscape:window-width="1920"
     inkscape:window-height="1022"
     inkscape:window-x="0"
     inkscape:window-y="1"
     inkscape:window-maximized="1" />
  <metadata
     id="metadata3791">
    <rdf:RDF>
      <cc:Work
         rdf:about="">
        <dc:format>image/svg+xml</dc:format>
        <dc:type
           rdf:resource="http://purl.org/dc/dcmitype/StillImage" />
        <dc:title></dc:title>
      </cc:Work>
    </rdf:RDF>
  </metadata>
  <g
     inkscape:label="Layer 1"
     inkscape:groupmode="layer"
     id="layer1"
     transform="translate(-18.651265,-7.092261)">
    <path
       d="m 51.465246,9.7380943 -1.094518,0.1221216 -1.094499,0.1209729 -1.095667,0.3652182 -1.094499,0.608316 -0.973527,0.608317 -0.851423,0.729295 -0.729283,0.852555 -0.730451,0.972393 -0.486189,1.095653 -0.365234,1.094516 -0.243095,1.094511 v 1.216632 1.216634 l 0.365216,1.216633 0.364105,1.216632 0.608291,1.094513 0.365235,0.851414 0.122103,0.851416 -0.122103,0.973534 -0.365235,0.851412 -0.486188,0.60832 -0.730432,0.608316 -0.851424,0.365218 -0.972377,0.120972 -0.851424,-0.120972 -0.852553,-0.365218 -0.729284,-0.608316 -0.608329,-0.730436 -0.60831,-0.972394 -0.729302,-0.973534 -0.973545,-0.851416 -1.094518,-0.730436 -0.973526,-0.486196 -1.094518,-0.365218 -1.216621,-0.243098 -1.095666,-0.122122 -1.0945,0.122122 -1.216639,0.243098 -1.094499,0.365218 -0.973545,0.486196 -0.972397,0.608314 -0.852553,0.851416 -0.851405,0.851414 -0.608329,0.852558 -0.486189,1.094514 -0.365216,1.09451 -0.243094,1.094514 -0.120992,1.216632 0.120992,1.095656 0.243094,1.21549 0.365216,1.095656 0.486189,0.972392 0.608329,0.973536 0.851405,0.851412 0.852553,0.730438 0.972397,0.729294 0.973545,0.487336 1.094499,0.364078 1.216639,0.244238 h 2.190166 l 1.216621,-0.244238 1.094518,-0.364078 0.973526,-0.487336 1.094518,-0.729294 0.973545,-0.851414 0.729302,-0.973534 0.60831,-1.094514 0.608329,-0.730438 0.729284,-0.608316 0.852553,-0.243096 0.851424,-0.122122 0.972377,0.122122 0.851424,0.243096 0.730432,0.608316 0.486188,0.730438 0.365235,0.851412 0.122103,0.851418 -0.122103,0.973534 -0.365235,0.851414 -0.608291,1.094514 -0.364105,1.09451 -0.365216,1.338752 v 1.216636 1.21549 l 0.243095,1.095656 0.365234,1.09451 0.486189,0.973532 0.730451,0.972395 0.729283,0.851419 0.851423,0.730434 0.973527,0.730434 1.094499,0.4862 1.095667,0.36522 1.094499,0.243098 1.094518,0.120973 1.216639,-0.120973 1.094518,-0.243098 1.095648,-0.36522 1.094518,-0.4862 0.973526,-0.730434 0.851424,-0.730434 0.729283,-0.851419 0.608329,-0.972395 0.486189,-0.973532 0.365216,-1.09451 0.243113,-1.095656 0.122103,-1.21549 -0.122103,-1.216636 -0.243113,-1.095652 -0.365216,-1.094514 -0.486189,-0.973534 -0.608329,-0.972392 -0.729283,-0.851414 -0.851424,-0.852558 -0.973526,-0.607174 -1.21664,-0.48734 -1.216621,-0.486194 -1.216639,-0.122122 -1.216621,-0.120973 -0.972415,-0.122121 -0.851404,-0.243096 -0.730432,-0.608316 -0.486189,-0.730438 -0.365235,-0.851416 -0.122103,-0.851414 0.122103,-0.972393 0.365235,-0.852553 0.486189,-0.607177 0.730432,-0.608319 0.851404,-0.365215 0.972415,-0.122121 h 1.216621 l 1.216639,-0.243098 1.216621,-0.365218 1.21664,-0.608316 0.973526,-0.608318 0.851424,-0.729293 0.729283,-0.851416 0.608329,-0.973533 0.486189,-1.094515 0.365216,-0.973533 0.243113,-1.216632 0.122103,-1.094515 L 60.223649,17.401967 59.980536,16.307452 59.61532,15.212936 59.129131,14.117285 58.520802,13.14489 57.791519,12.292335 56.940095,11.56304 55.966569,10.954723 54.872051,10.346407 53.776403,9.9811888 52.681885,9.8602159 Z"
       id="path30"
       inkscape:connector-curvature="0"
       style="fill:#0f71e5;fill-rule:evenodd;stroke:none;stroke-width:0.49023423;stroke-linecap:square;stroke-miterlimit:10" />
  </g>
</svg>
