<svg width="520" height="543" viewBox="0 0 520 543" fill="none" xmlns="http://www.w3.org/2000/svg">
<g opacity="0.7">
<path d="M313.923 260.038L333.699 279.863L302.462 288.198L282.686 268.373L313.923 260.038Z" stroke="#111112" stroke-width="2" stroke-miterlimit="10" stroke-dasharray="1 3"/>
<path d="M333.699 279.863L353.475 299.463L322.238 308.024L302.462 288.199L333.699 279.863Z" stroke="#111112" stroke-width="2" stroke-miterlimit="10" stroke-dasharray="1 3"/>
<path d="M353.475 299.462L373.026 319.287L342.013 327.848L322.237 308.023L353.475 299.462Z" stroke="#111112" stroke-width="2" stroke-miterlimit="10" stroke-dasharray="1 3"/>
<path d="M373.026 319.287L392.802 339.112L361.79 347.673L342.014 327.847L373.026 319.287Z" stroke="#111112" stroke-width="2" stroke-miterlimit="10" stroke-dasharray="1 3"/>
<path d="M392.802 339.112L412.578 358.937L381.565 367.273L361.789 347.673L392.802 339.112Z" stroke="#111112" stroke-width="2" stroke-miterlimit="10" stroke-dasharray="1 3"/>
<path d="M412.579 358.938L432.355 378.763L401.342 387.098L381.566 367.273L412.579 358.938Z" stroke="#111112" stroke-width="2" stroke-miterlimit="10" stroke-dasharray="1 3"/>
<path d="M432.354 378.763L452.13 398.588L421.118 406.924L401.342 387.099L432.354 378.763Z" stroke="#111112" stroke-width="2" stroke-miterlimit="10" stroke-dasharray="1 3"/>
<path d="M452.131 398.587L471.907 418.412L440.67 426.748L421.118 406.923L452.131 398.587Z" stroke="#111112" stroke-width="2" stroke-miterlimit="10" stroke-dasharray="1 3"/>
<path d="M471.907 418.412L491.683 438.237L460.446 446.572L440.67 426.748L471.907 418.412Z" stroke="#111112" stroke-width="2" stroke-miterlimit="10" stroke-dasharray="1 3"/>
<path d="M491.683 438.237L511.459 458.062L480.221 466.397L460.445 446.572L491.683 438.237Z" stroke="#111112" stroke-width="2" stroke-miterlimit="10" stroke-dasharray="1 3"/>
<path d="M282.685 268.373L302.462 288.198L271.224 296.533L251.448 276.708L282.685 268.373Z" stroke="#111112" stroke-width="2" stroke-miterlimit="10" stroke-dasharray="1 3"/>
<path d="M302.462 288.197L322.238 308.022L291.001 316.358L271.225 296.533L302.462 288.197Z" stroke="#111112" stroke-width="2" stroke-miterlimit="10" stroke-dasharray="1 3"/>
<path d="M322.238 308.021L342.014 327.847L310.777 336.182L291.001 316.357L322.238 308.021Z" stroke="#111112" stroke-width="2" stroke-miterlimit="10" stroke-dasharray="1 3"/>
<path d="M342.014 327.847L361.79 347.672L330.552 356.007L310.776 336.182L342.014 327.847Z" stroke="#111112" stroke-width="2" stroke-miterlimit="10" stroke-dasharray="1 3"/>
<path d="M361.79 347.675L381.566 367.274L350.329 375.835L330.553 356.01L361.79 347.675Z" stroke="#111112" stroke-width="2" stroke-miterlimit="10" stroke-dasharray="1 3"/>
<path d="M381.565 367.271L401.341 387.097L370.104 395.657L350.328 375.832L381.565 367.271Z" stroke="#111112" stroke-width="2" stroke-miterlimit="10" stroke-dasharray="1 3"/>
<path d="M401.342 387.099L421.118 406.924L389.881 415.485L370.104 395.66L401.342 387.099Z" stroke="#111112" stroke-width="2" stroke-miterlimit="10" stroke-dasharray="1 3"/>
<path d="M421.118 406.924L440.669 426.749L409.657 435.084L389.881 415.485L421.118 406.924Z" stroke="#111112" stroke-width="2" stroke-miterlimit="10" stroke-dasharray="1 3"/>
<path d="M440.669 426.748L460.445 446.573L429.432 454.909L409.656 435.084L440.669 426.748Z" stroke="#111112" stroke-width="2" stroke-miterlimit="10" stroke-dasharray="1 3"/>
<path d="M460.445 446.572L480.221 466.397L449.209 474.733L429.433 454.908L460.445 446.572Z" stroke="#111112" stroke-width="2" stroke-miterlimit="10" stroke-dasharray="1 3"/>
<path d="M251.448 276.709L271.224 296.534L239.987 304.87L220.211 285.045L251.448 276.709Z" stroke="#111112" stroke-width="2" stroke-miterlimit="10" stroke-dasharray="1 3"/>
<path d="M271.224 296.533L291 316.358L259.762 324.694L239.986 304.869L271.224 296.533Z" stroke="#111112" stroke-width="2" stroke-miterlimit="10" stroke-dasharray="1 3"/>
<path d="M291 316.359L310.776 336.184L279.539 344.52L259.763 324.694L291 316.359Z" stroke="#111112" stroke-width="2" stroke-miterlimit="10" stroke-dasharray="1 3"/>
<path d="M310.776 336.182L330.552 356.007L299.315 364.343L279.539 344.518L310.776 336.182Z" stroke="#111112" stroke-width="2" stroke-miterlimit="10" stroke-dasharray="1 3"/>
<path d="M330.553 356.008L350.329 375.833L319.092 384.169L299.315 364.344L330.553 356.008Z" stroke="#111112" stroke-width="2" stroke-miterlimit="10" stroke-dasharray="1 3"/>
<path d="M350.328 375.835L370.104 395.66L338.867 403.996L319.091 384.171L350.328 375.835Z" stroke="#111112" stroke-width="2" stroke-miterlimit="10" stroke-dasharray="1 3"/>
<path d="M370.104 395.659L389.88 415.484L358.643 423.82L338.867 403.995L370.104 395.659Z" stroke="#111112" stroke-width="2" stroke-miterlimit="10" stroke-dasharray="1 3"/>
<path d="M389.881 415.483L409.657 435.083L378.42 443.643L358.644 423.818L389.881 415.483Z" stroke="#111112" stroke-width="2" stroke-miterlimit="10" stroke-dasharray="1 3"/>
<path d="M409.657 435.083L429.433 454.908L398.196 463.469L378.42 443.644L409.657 435.083Z" stroke="#111112" stroke-width="2" stroke-miterlimit="10" stroke-dasharray="1 3"/>
<path d="M429.433 454.909L449.209 474.734L417.971 483.295L398.195 463.47L429.433 454.909Z" stroke="#111112" stroke-width="2" stroke-miterlimit="10" stroke-dasharray="1 3"/>
<path d="M220.212 285.043L239.988 304.868L208.975 313.204L189.199 293.379L220.212 285.043Z" stroke="#111112" stroke-width="2" stroke-miterlimit="10" stroke-dasharray="1 3"/>
<path d="M239.987 304.87L259.763 324.695L228.751 333.03L208.975 313.205L239.987 304.87Z" stroke="#111112" stroke-width="2" stroke-miterlimit="10" stroke-dasharray="1 3"/>
<path d="M259.762 324.695L279.539 344.52L248.526 352.855L228.75 333.03L259.762 324.695Z" stroke="#111112" stroke-width="2" stroke-miterlimit="10" stroke-dasharray="1 3"/>
<path d="M279.539 344.519L299.315 364.344L268.302 372.68L248.526 352.855L279.539 344.519Z" stroke="#111112" stroke-width="2" stroke-miterlimit="10" stroke-dasharray="1 3"/>
<path d="M299.314 364.344L319.09 384.169L287.853 392.504L268.302 372.679L299.314 364.344Z" stroke="#111112" stroke-width="2" stroke-miterlimit="10" stroke-dasharray="1 3"/>
<path d="M319.091 384.169L338.867 403.994L307.63 412.329L287.854 392.504L319.091 384.169Z" stroke="#111112" stroke-width="2" stroke-miterlimit="10" stroke-dasharray="1 3"/>
<path d="M338.868 403.995L358.644 423.82L327.407 432.155L307.631 412.33L338.868 403.995Z" stroke="#111112" stroke-width="2" stroke-miterlimit="10" stroke-dasharray="1 3"/>
<path d="M358.643 423.82L378.419 443.645L347.182 451.98L327.406 432.155L358.643 423.82Z" stroke="#111112" stroke-width="2" stroke-miterlimit="10" stroke-dasharray="1 3"/>
<path d="M378.421 443.645L398.197 463.47L366.96 471.805L347.184 451.98L378.421 443.645Z" stroke="#111112" stroke-width="2" stroke-miterlimit="10" stroke-dasharray="1 3"/>
<path d="M398.195 463.469L417.971 483.294L386.734 491.629L366.958 471.804L398.195 463.469Z" stroke="#111112" stroke-width="2" stroke-miterlimit="10" stroke-dasharray="1 3"/>
<path d="M189.198 293.379L208.974 313.204L177.737 321.54L157.961 301.714L189.198 293.379Z" stroke="#111112" stroke-width="2" stroke-miterlimit="10" stroke-dasharray="1 3"/>
<path d="M208.974 313.204L228.751 333.029L197.513 341.364L177.737 321.539L208.974 313.204Z" stroke="#111112" stroke-width="2" stroke-miterlimit="10" stroke-dasharray="1 3"/>
<path d="M228.75 333.03L248.526 352.855L217.289 361.19L197.513 341.365L228.75 333.03Z" stroke="#111112" stroke-width="2" stroke-miterlimit="10" stroke-dasharray="1 3"/>
<path d="M248.527 352.854L268.303 372.68L237.066 381.015L217.29 361.19L248.527 352.854Z" stroke="#111112" stroke-width="2" stroke-miterlimit="10" stroke-dasharray="1 3"/>
<path d="M268.303 372.68L287.854 392.505L256.842 400.84L237.065 381.015L268.303 372.68Z" stroke="#111112" stroke-width="2" stroke-miterlimit="10" stroke-dasharray="1 3"/>
<path d="M287.854 392.504L307.63 412.329L276.618 420.665L256.842 400.84L287.854 392.504Z" stroke="#111112" stroke-width="2" stroke-miterlimit="10" stroke-dasharray="1 3"/>
<path d="M307.63 412.329L327.406 432.154L296.393 440.489L276.617 420.664L307.63 412.329Z" stroke="#111112" stroke-width="2" stroke-miterlimit="10" stroke-dasharray="1 3"/>
<path d="M327.406 432.155L347.182 451.98L316.17 460.316L296.394 440.491L327.406 432.155Z" stroke="#111112" stroke-width="2" stroke-miterlimit="10" stroke-dasharray="1 3"/>
<path d="M347.182 451.979L366.959 471.805L335.946 480.14L316.17 460.315L347.182 451.979Z" stroke="#111112" stroke-width="2" stroke-miterlimit="10" stroke-dasharray="1 3"/>
<path d="M366.958 471.804L386.734 491.629L355.497 499.964L335.945 480.139L366.958 471.804Z" stroke="#111112" stroke-width="2" stroke-miterlimit="10" stroke-dasharray="1 3"/>
<path d="M157.961 301.715L177.737 321.54L146.5 330.101L126.724 310.276L157.961 301.715Z" stroke="#111112" stroke-width="2" stroke-miterlimit="10" stroke-dasharray="1 3"/>
<path d="M177.737 321.54L197.513 341.365L166.276 349.925L146.5 330.1L177.737 321.54Z" stroke="#111112" stroke-width="2" stroke-miterlimit="10" stroke-dasharray="1 3"/>
<path d="M197.514 341.366L217.29 361.191L186.052 369.526L166.276 349.927L197.514 341.366Z" stroke="#111112" stroke-width="2" stroke-miterlimit="10" stroke-dasharray="1 3"/>
<path d="M217.29 361.191L237.066 381.016L205.829 389.352L186.053 369.527L217.29 361.191Z" stroke="#111112" stroke-width="2" stroke-miterlimit="10" stroke-dasharray="1 3"/>
<path d="M237.065 381.016L256.841 400.841L225.604 409.176L205.828 389.351L237.065 381.016Z" stroke="#111112" stroke-width="2" stroke-miterlimit="10" stroke-dasharray="1 3"/>
<path d="M256.842 400.84L276.618 420.665L245.381 429.001L225.604 409.176L256.842 400.84Z" stroke="#111112" stroke-width="2" stroke-miterlimit="10" stroke-dasharray="1 3"/>
<path d="M276.618 420.665L296.394 440.49L265.157 448.826L245.381 429.001L276.618 420.665Z" stroke="#111112" stroke-width="2" stroke-miterlimit="10" stroke-dasharray="1 3"/>
<path d="M296.393 440.489L316.17 460.314L284.932 468.65L265.156 448.825L296.393 440.489Z" stroke="#111112" stroke-width="2" stroke-miterlimit="10" stroke-dasharray="1 3"/>
<path d="M316.17 460.315L335.946 480.14L304.709 488.476L284.933 468.651L316.17 460.315Z" stroke="#111112" stroke-width="2" stroke-miterlimit="10" stroke-dasharray="1 3"/>
<path d="M335.945 480.14L355.497 499.965L324.484 508.301L304.708 488.476L335.945 480.14Z" stroke="#111112" stroke-width="2" stroke-miterlimit="10" stroke-dasharray="1 3"/>
<path d="M126.724 310.275L146.5 330.1L115.488 338.436L95.7119 318.611L126.724 310.275Z" stroke="#111112" stroke-width="2" stroke-miterlimit="10" stroke-dasharray="1 3"/>
<path d="M146.5 330.1L166.276 349.925L135.039 358.261L115.487 338.436L146.5 330.1Z" stroke="#111112" stroke-width="2" stroke-miterlimit="10" stroke-dasharray="1 3"/>
<path d="M166.276 349.926L186.052 369.526L154.815 378.087L135.039 358.262L166.276 349.926Z" stroke="#111112" stroke-width="2" stroke-miterlimit="10" stroke-dasharray="1 3"/>
<path d="M186.053 369.526L205.829 389.351L174.592 397.912L154.815 378.087L186.053 369.526Z" stroke="#111112" stroke-width="2" stroke-miterlimit="10" stroke-dasharray="1 3"/>
<path d="M205.829 389.351L225.605 409.176L194.368 417.737L174.592 397.912L205.829 389.351Z" stroke="#111112" stroke-width="2" stroke-miterlimit="10" stroke-dasharray="1 3"/>
<path d="M225.604 409.176L245.38 429.001L214.143 437.337L194.367 417.737L225.604 409.176Z" stroke="#111112" stroke-width="2" stroke-miterlimit="10" stroke-dasharray="1 3"/>
<path d="M245.381 429.001L265.157 448.826L233.92 457.162L214.144 437.337L245.381 429.001Z" stroke="#111112" stroke-width="2" stroke-miterlimit="10" stroke-dasharray="1 3"/>
<path d="M265.156 448.825L284.932 468.65L253.695 476.986L233.919 457.161L265.156 448.825Z" stroke="#111112" stroke-width="2" stroke-miterlimit="10" stroke-dasharray="1 3"/>
<path d="M284.934 468.65L304.71 488.475L273.472 496.81L253.696 476.985L284.934 468.65Z" stroke="#111112" stroke-width="2" stroke-miterlimit="10" stroke-dasharray="1 3"/>
<path d="M304.709 488.476L324.485 508.301L293.248 516.637L273.472 496.812L304.709 488.476Z" stroke="#111112" stroke-width="2" stroke-miterlimit="10" stroke-dasharray="1 3"/>
<path d="M95.7118 318.612L115.488 338.437L84.2507 346.772L64.4746 326.947L95.7118 318.612Z" stroke="#111112" stroke-width="2" stroke-miterlimit="10" stroke-dasharray="1 3"/>
<path d="M115.488 338.436L135.04 358.261L104.027 366.597L84.251 346.772L115.488 338.436Z" stroke="#111112" stroke-width="2" stroke-miterlimit="10" stroke-dasharray="1 3"/>
<path d="M135.039 358.261L154.815 378.086L123.802 386.421L104.026 366.596L135.039 358.261Z" stroke="#111112" stroke-width="2" stroke-miterlimit="10" stroke-dasharray="1 3"/>
<path d="M154.815 378.087L174.591 397.912L143.579 406.247L123.803 386.422L154.815 378.087Z" stroke="#111112" stroke-width="2" stroke-miterlimit="10" stroke-dasharray="1 3"/>
<path d="M174.591 397.913L194.367 417.737L163.354 426.073L143.578 406.248L174.591 397.913Z" stroke="#111112" stroke-width="2" stroke-miterlimit="10" stroke-dasharray="1 3"/>
<path d="M194.368 417.736L214.144 437.336L183.132 445.896L163.355 426.071L194.368 417.736Z" stroke="#111112" stroke-width="2" stroke-miterlimit="10" stroke-dasharray="1 3"/>
<path d="M214.143 437.337L233.919 457.162L202.682 465.723L183.131 445.898L214.143 437.337Z" stroke="#111112" stroke-width="2" stroke-miterlimit="10" stroke-dasharray="1 3"/>
<path d="M233.92 457.161L253.696 476.986L222.459 485.546L202.683 465.721L233.92 457.161Z" stroke="#111112" stroke-width="2" stroke-miterlimit="10" stroke-dasharray="1 3"/>
<path d="M253.695 476.986L273.471 496.811L242.234 505.146L222.458 485.547L253.695 476.986Z" stroke="#111112" stroke-width="2" stroke-miterlimit="10" stroke-dasharray="1 3"/>
<path d="M273.472 496.812L293.248 516.637L262.01 524.972L242.234 505.147L273.472 496.812Z" stroke="#111112" stroke-width="2" stroke-miterlimit="10" stroke-dasharray="1 3"/>
<path d="M64.4745 326.947L84.2506 346.772L53.0134 355.107L33.2373 335.282L64.4745 326.947Z" stroke="#111112" stroke-width="2" stroke-miterlimit="10" stroke-dasharray="1 3"/>
<path d="M84.2508 346.773L104.027 366.599L72.7897 374.934L53.0137 355.109L84.2508 346.773Z" stroke="#111112" stroke-width="2" stroke-miterlimit="10" stroke-dasharray="1 3"/>
<path d="M104.026 366.597L123.802 386.422L92.5651 394.757L72.7891 374.932L104.026 366.597Z" stroke="#111112" stroke-width="2" stroke-miterlimit="10" stroke-dasharray="1 3"/>
<path d="M123.803 386.421L143.579 406.246L112.341 414.582L92.5654 394.757L123.803 386.421Z" stroke="#111112" stroke-width="2" stroke-miterlimit="10" stroke-dasharray="1 3"/>
<path d="M143.579 406.248L163.355 426.073L132.118 434.408L112.342 414.583L143.579 406.248Z" stroke="#111112" stroke-width="2" stroke-miterlimit="10" stroke-dasharray="1 3"/>
<path d="M163.354 426.072L183.13 445.897L151.893 454.233L132.117 434.408L163.354 426.072Z" stroke="#111112" stroke-width="2" stroke-miterlimit="10" stroke-dasharray="1 3"/>
<path d="M183.131 445.896L202.682 465.721L171.67 474.057L151.894 454.232L183.131 445.896Z" stroke="#111112" stroke-width="2" stroke-miterlimit="10" stroke-dasharray="1 3"/>
<path d="M202.681 465.722L222.458 485.547L191.445 493.883L171.669 474.058L202.681 465.722Z" stroke="#111112" stroke-width="2" stroke-miterlimit="10" stroke-dasharray="1 3"/>
<path d="M222.459 485.546L242.235 505.146L211.222 513.706L191.446 493.881L222.459 485.546Z" stroke="#111112" stroke-width="2" stroke-miterlimit="10" stroke-dasharray="1 3"/>
<path d="M242.234 505.146L262.01 524.971L230.998 533.532L211.222 513.707L242.234 505.146Z" stroke="#111112" stroke-width="2" stroke-miterlimit="10" stroke-dasharray="1 3"/>
<path d="M33.2372 335.283L53.0133 355.108L21.7761 363.444L2 343.619L33.2372 335.283Z" stroke="#111112" stroke-width="2" stroke-miterlimit="10" stroke-dasharray="1 3"/>
<path d="M53.0126 355.107L72.7887 374.932L41.5515 383.268L21.7754 363.443L53.0126 355.107Z" stroke="#111112" stroke-width="2" stroke-miterlimit="10" stroke-dasharray="1 3"/>
<path d="M72.7899 374.933L92.566 394.758L61.3288 403.094L41.5527 383.269L72.7899 374.933Z" stroke="#111112" stroke-width="2" stroke-miterlimit="10" stroke-dasharray="1 3"/>
<path d="M92.5653 394.757L112.341 414.582L81.1042 422.917L61.3281 403.092L92.5653 394.757Z" stroke="#111112" stroke-width="2" stroke-miterlimit="10" stroke-dasharray="1 3"/>
<path d="M112.342 414.582L132.118 434.407L100.881 442.743L81.1045 422.918L112.342 414.582Z" stroke="#111112" stroke-width="2" stroke-miterlimit="10" stroke-dasharray="1 3"/>
<path d="M132.117 434.408L151.893 454.233L120.656 462.569L100.88 442.744L132.117 434.408Z" stroke="#111112" stroke-width="2" stroke-miterlimit="10" stroke-dasharray="1 3"/>
<path d="M151.893 454.233L171.67 474.058L140.432 482.394L120.656 462.568L151.893 454.233Z" stroke="#111112" stroke-width="2" stroke-miterlimit="10" stroke-dasharray="1 3"/>
<path d="M171.67 474.058L191.446 493.883L160.209 502.219L140.433 482.394L171.67 474.058Z" stroke="#111112" stroke-width="2" stroke-miterlimit="10" stroke-dasharray="1 3"/>
<path d="M191.446 493.883L211.222 513.708L179.985 522.043L160.209 502.218L191.446 493.883Z" stroke="#111112" stroke-width="2" stroke-miterlimit="10" stroke-dasharray="1 3"/>
<path d="M211.222 513.707L230.998 533.532L199.76 541.868L179.984 522.043L211.222 513.707Z" stroke="#111112" stroke-width="2" stroke-miterlimit="10" stroke-dasharray="1 3"/>
</g>
<g opacity="0.6">
<path d="M319.963 107.788L339.739 127.613L308.502 135.948L288.726 116.123L319.963 107.788Z" stroke="#28B86A" stroke-width="2" stroke-miterlimit="10"/>
<path d="M339.74 127.613L359.516 147.213L328.279 155.774L308.503 135.949L339.74 127.613Z" stroke="#28B86A" stroke-width="2" stroke-miterlimit="10"/>
<path d="M359.516 147.212L379.067 167.037L348.054 175.598L328.278 155.773L359.516 147.212Z" stroke="#28B86A" stroke-width="2" stroke-miterlimit="10"/>
<path d="M379.067 167.037L398.843 186.862L367.831 195.422L348.055 175.597L379.067 167.037Z" stroke="#28B86A" stroke-width="2" stroke-miterlimit="10"/>
<path d="M398.844 186.862L418.62 206.687L387.607 215.023L367.831 195.423L398.844 186.862Z" stroke="#28B86A" stroke-width="2" stroke-miterlimit="10"/>
<path d="M418.619 206.688L438.395 226.513L407.383 234.848L387.606 215.023L418.619 206.688Z" stroke="#28B86A" stroke-width="2" stroke-miterlimit="10"/>
<path d="M438.395 226.513L458.171 246.338L427.159 254.674L407.383 234.849L438.395 226.513Z" stroke="#28B86A" stroke-width="2" stroke-miterlimit="10"/>
<path d="M458.172 246.337L477.948 266.162L446.711 274.498L427.159 254.673L458.172 246.337Z" stroke="#28B86A" stroke-width="2" stroke-miterlimit="10"/>
<path d="M477.948 266.162L497.724 285.987L466.487 294.323L446.711 274.498L477.948 266.162Z" stroke="#28B86A" stroke-width="2" stroke-miterlimit="10"/>
<path d="M497.724 285.986L517.5 305.811L486.262 314.147L466.486 294.322L497.724 285.986Z" stroke="#28B86A" stroke-width="2" stroke-miterlimit="10"/>
<path d="M288.727 116.123L308.503 135.948L277.265 144.284L257.489 124.459L288.727 116.123Z" stroke="#28B86A" stroke-width="2" stroke-miterlimit="10"/>
<path d="M308.503 135.947L328.279 155.772L297.042 164.108L277.266 144.283L308.503 135.947Z" stroke="#28B86A" stroke-width="2" stroke-miterlimit="10"/>
<path d="M328.278 155.771L348.054 175.596L316.817 183.932L297.041 164.107L328.278 155.771Z" stroke="#28B86A" stroke-width="2" stroke-miterlimit="10"/>
<path d="M348.055 175.596L367.831 195.421L336.593 203.757L316.817 183.932L348.055 175.596Z" stroke="#28B86A" stroke-width="2" stroke-miterlimit="10"/>
<path d="M367.831 195.425L387.607 215.024L356.37 223.585L336.594 203.76L367.831 195.425Z" stroke="#28B86A" stroke-width="2" stroke-miterlimit="10"/>
<path d="M387.607 215.021L407.383 234.847L376.146 243.407L356.37 223.582L387.607 215.021Z" stroke="#28B86A" stroke-width="2" stroke-miterlimit="10"/>
<path d="M407.383 234.849L427.159 254.674L395.922 263.235L376.146 243.41L407.383 234.849Z" stroke="#28B86A" stroke-width="2" stroke-miterlimit="10"/>
<path d="M427.159 254.674L446.71 274.499L415.698 282.834L395.922 263.235L427.159 254.674Z" stroke="#28B86A" stroke-width="2" stroke-miterlimit="10"/>
<path d="M446.71 274.498L466.486 294.323L435.473 302.659L415.697 282.834L446.71 274.498Z" stroke="#28B86A" stroke-width="2" stroke-miterlimit="10"/>
<path d="M466.485 294.322L486.261 314.147L455.249 322.483L435.473 302.658L466.485 294.322Z" stroke="#28B86A" stroke-width="2" stroke-miterlimit="10"/>
<path d="M257.489 124.459L277.265 144.284L246.028 152.62L226.252 132.795L257.489 124.459Z" stroke="#28B86A" stroke-width="2" stroke-miterlimit="10"/>
<path d="M277.265 144.283L297.041 164.108L265.803 172.444L246.027 152.619L277.265 144.283Z" stroke="#28B86A" stroke-width="2" stroke-miterlimit="10"/>
<path d="M297.041 164.109L316.817 183.934L285.58 192.27L265.804 172.444L297.041 164.109Z" stroke="#28B86A" stroke-width="2" stroke-miterlimit="10"/>
<path d="M316.817 183.933L336.593 203.758L305.356 212.094L285.58 192.269L316.817 183.933Z" stroke="#28B86A" stroke-width="2" stroke-miterlimit="10"/>
<path d="M336.594 203.758L356.37 223.583L325.133 231.918L305.356 212.093L336.594 203.758Z" stroke="#28B86A" stroke-width="2" stroke-miterlimit="10"/>
<path d="M356.369 223.585L376.145 243.41L344.908 251.745L325.132 231.92L356.369 223.585Z" stroke="#28B86A" stroke-width="2" stroke-miterlimit="10"/>
<path d="M376.145 243.409L395.921 263.234L364.684 271.569L344.908 251.744L376.145 243.409Z" stroke="#28B86A" stroke-width="2" stroke-miterlimit="10"/>
<path d="M395.922 263.233L415.698 282.833L384.461 291.393L364.685 271.568L395.922 263.233Z" stroke="#28B86A" stroke-width="2" stroke-miterlimit="10"/>
<path d="M415.698 282.834L435.474 302.659L404.237 311.22L384.461 291.395L415.698 282.834Z" stroke="#28B86A" stroke-width="2" stroke-miterlimit="10"/>
<path d="M435.474 302.659L455.25 322.484L424.012 331.045L404.236 311.22L435.474 302.659Z" stroke="#28B86A" stroke-width="2" stroke-miterlimit="10"/>
<path d="M226.253 132.793L246.029 152.618L215.016 160.954L195.24 141.129L226.253 132.793Z" stroke="#28B86A" stroke-width="2" stroke-miterlimit="10"/>
<path d="M246.028 152.62L265.804 172.445L234.792 180.78L215.016 160.955L246.028 152.62Z" stroke="#28B86A" stroke-width="2" stroke-miterlimit="10"/>
<path d="M265.803 172.445L285.58 192.27L254.567 200.605L234.791 180.78L265.803 172.445Z" stroke="#28B86A" stroke-width="2" stroke-miterlimit="10"/>
<path d="M285.58 192.269L305.356 212.093L274.343 220.429L254.567 200.604L285.58 192.269Z" stroke="#28B86A" stroke-width="2" stroke-miterlimit="10"/>
<path d="M305.356 212.094L325.132 231.919L293.895 240.254L274.344 220.429L305.356 212.094Z" stroke="#28B86A" stroke-width="2" stroke-miterlimit="10"/>
<path d="M325.132 231.918L344.908 251.744L313.671 260.079L293.895 240.254L325.132 231.918Z" stroke="#28B86A" stroke-width="2" stroke-miterlimit="10"/>
<path d="M344.909 251.745L364.685 271.57L333.448 279.905L313.672 260.08L344.909 251.745Z" stroke="#28B86A" stroke-width="2" stroke-miterlimit="10"/>
<path d="M364.684 271.569L384.46 291.394L353.223 299.73L333.447 279.905L364.684 271.569Z" stroke="#28B86A" stroke-width="2" stroke-miterlimit="10"/>
<path d="M384.461 291.395L404.237 311.22L373 319.555L353.224 299.73L384.461 291.395Z" stroke="#28B86A" stroke-width="2" stroke-miterlimit="10"/>
<path d="M404.236 311.218L424.012 331.043L392.775 339.379L372.999 319.554L404.236 311.218Z" stroke="#28B86A" stroke-width="2" stroke-miterlimit="10"/>
<path d="M195.239 141.129L215.015 160.954L183.778 169.289L164.002 149.464L195.239 141.129Z" stroke="#28B86A" stroke-width="2" stroke-miterlimit="10"/>
<path d="M215.015 160.954L234.792 180.779L203.554 189.115L183.778 169.29L215.015 160.954Z" stroke="#28B86A" stroke-width="2" stroke-miterlimit="10"/>
<path d="M234.791 180.779L254.567 200.604L223.33 208.94L203.554 189.115L234.791 180.779Z" stroke="#28B86A" stroke-width="2" stroke-miterlimit="10"/>
<path d="M254.568 200.605L274.344 220.43L243.107 228.766L223.331 208.941L254.568 200.605Z" stroke="#28B86A" stroke-width="2" stroke-miterlimit="10"/>
<path d="M274.344 220.43L293.895 240.255L262.883 248.59L243.106 228.765L274.344 220.43Z" stroke="#28B86A" stroke-width="2" stroke-miterlimit="10"/>
<path d="M293.895 240.254L313.671 260.079L282.659 268.415L262.883 248.59L293.895 240.254Z" stroke="#28B86A" stroke-width="2" stroke-miterlimit="10"/>
<path d="M313.671 260.079L333.447 279.904L302.434 288.239L282.658 268.414L313.671 260.079Z" stroke="#28B86A" stroke-width="2" stroke-miterlimit="10"/>
<path d="M333.448 279.906L353.224 299.731L322.212 308.066L302.436 288.241L333.448 279.906Z" stroke="#28B86A" stroke-width="2" stroke-miterlimit="10"/>
<path d="M353.223 299.729L373 319.554L341.987 327.89L322.211 308.065L353.223 299.729Z" stroke="#28B86A" stroke-width="2" stroke-miterlimit="10"/>
<path d="M372.999 319.554L392.775 339.379L361.538 347.714L341.986 327.889L372.999 319.554Z" stroke="#28B86A" stroke-width="2" stroke-miterlimit="10"/>
<path d="M164.002 149.465L183.778 169.29L152.541 177.851L132.765 158.026L164.002 149.465Z" stroke="#28B86A" stroke-width="2" stroke-miterlimit="10"/>
<path d="M183.779 169.29L203.555 189.114L172.318 197.675L152.542 177.85L183.779 169.29Z" stroke="#28B86A" stroke-width="2" stroke-miterlimit="10"/>
<path d="M203.555 189.116L223.331 208.941L192.093 217.276L172.317 197.677L203.555 189.116Z" stroke="#28B86A" stroke-width="2" stroke-miterlimit="10"/>
<path d="M223.33 208.941L243.106 228.766L211.869 237.101L192.093 217.276L223.33 208.941Z" stroke="#28B86A" stroke-width="2" stroke-miterlimit="10"/>
<path d="M243.106 228.766L262.882 248.591L231.645 256.926L211.869 237.101L243.106 228.766Z" stroke="#28B86A" stroke-width="2" stroke-miterlimit="10"/>
<path d="M262.883 248.59L282.659 268.415L251.422 276.751L231.646 256.926L262.883 248.59Z" stroke="#28B86A" stroke-width="2" stroke-miterlimit="10"/>
<path d="M282.659 268.416L302.435 288.241L271.198 296.576L251.422 276.751L282.659 268.416Z" stroke="#28B86A" stroke-width="2" stroke-miterlimit="10"/>
<path d="M302.434 288.239L322.211 308.064L290.973 316.4L271.197 296.575L302.434 288.239Z" stroke="#28B86A" stroke-width="2" stroke-miterlimit="10"/>
<path d="M322.211 308.065L341.987 327.89L310.75 336.226L290.974 316.401L322.211 308.065Z" stroke="#28B86A" stroke-width="2" stroke-miterlimit="10"/>
<path d="M341.987 327.89L361.539 347.715L330.526 356.051L310.75 336.226L341.987 327.89Z" stroke="#28B86A" stroke-width="2" stroke-miterlimit="10"/>
<path d="M132.765 158.025L152.541 177.85L121.529 186.186L101.753 166.361L132.765 158.025Z" stroke="#28B86A" stroke-width="2" stroke-miterlimit="10"/>
<path d="M152.541 177.85L172.317 197.675L141.08 206.011L121.528 186.186L152.541 177.85Z" stroke="#28B86A" stroke-width="2" stroke-miterlimit="10"/>
<path d="M172.317 197.676L192.093 217.276L160.856 225.837L141.08 206.012L172.317 197.676Z" stroke="#28B86A" stroke-width="2" stroke-miterlimit="10"/>
<path d="M192.093 217.276L211.869 237.101L180.632 245.662L160.855 225.837L192.093 217.276Z" stroke="#28B86A" stroke-width="2" stroke-miterlimit="10"/>
<path d="M211.87 237.101L231.646 256.926L200.409 265.487L180.633 245.662L211.87 237.101Z" stroke="#28B86A" stroke-width="2" stroke-miterlimit="10"/>
<path d="M231.645 256.926L251.422 276.751L220.184 285.087L200.408 265.487L231.645 256.926Z" stroke="#28B86A" stroke-width="2" stroke-miterlimit="10"/>
<path d="M251.422 276.751L271.198 296.576L239.961 304.912L220.185 285.087L251.422 276.751Z" stroke="#28B86A" stroke-width="2" stroke-miterlimit="10"/>
<path d="M271.197 296.575L290.973 316.4L259.736 324.736L239.96 304.911L271.197 296.575Z" stroke="#28B86A" stroke-width="2" stroke-miterlimit="10"/>
<path d="M290.975 316.4L310.751 336.225L279.513 344.56L259.737 324.735L290.975 316.4Z" stroke="#28B86A" stroke-width="2" stroke-miterlimit="10"/>
<path d="M310.75 336.226L330.526 356.051L299.289 364.387L279.513 344.562L310.75 336.226Z" stroke="#28B86A" stroke-width="2" stroke-miterlimit="10"/>
<path d="M101.752 166.361L121.528 186.186L90.2907 194.522L70.5146 174.697L101.752 166.361Z" stroke="#28B86A" stroke-width="2" stroke-miterlimit="10"/>
<path d="M121.529 186.187L141.081 206.012L110.068 214.348L90.292 194.523L121.529 186.187Z" stroke="#28B86A" stroke-width="2" stroke-miterlimit="10"/>
<path d="M141.08 206.011L160.856 225.836L129.843 234.171L110.067 214.346L141.08 206.011Z" stroke="#28B86A" stroke-width="2" stroke-miterlimit="10"/>
<path d="M160.856 225.837L180.632 245.662L149.62 253.997L129.844 234.172L160.856 225.837Z" stroke="#28B86A" stroke-width="2" stroke-miterlimit="10"/>
<path d="M180.632 245.663L200.408 265.488L169.395 273.823L149.619 253.998L180.632 245.663Z" stroke="#28B86A" stroke-width="2" stroke-miterlimit="10"/>
<path d="M200.409 265.486L220.185 285.086L189.173 293.646L169.396 273.821L200.409 265.486Z" stroke="#28B86A" stroke-width="2" stroke-miterlimit="10"/>
<path d="M220.184 285.087L239.96 304.912L208.723 313.473L189.172 293.648L220.184 285.087Z" stroke="#28B86A" stroke-width="2" stroke-miterlimit="10"/>
<path d="M239.961 304.911L259.737 324.736L228.5 333.296L208.724 313.471L239.961 304.911Z" stroke="#28B86A" stroke-width="2" stroke-miterlimit="10"/>
<path d="M259.736 324.736L279.512 344.561L248.275 352.896L228.499 333.297L259.736 324.736Z" stroke="#28B86A" stroke-width="2" stroke-miterlimit="10"/>
<path d="M279.513 344.562L299.289 364.387L268.051 372.723L248.275 352.898L279.513 344.562Z" stroke="#28B86A" stroke-width="2" stroke-miterlimit="10"/>
<path d="M70.5155 174.697L90.2916 194.522L59.0544 202.857L39.2783 183.032L70.5155 174.697Z" stroke="#28B86A" stroke-width="2" stroke-miterlimit="10"/>
<path d="M90.2919 194.523L110.068 214.348L78.8308 222.684L59.0547 202.859L90.2919 194.523Z" stroke="#28B86A" stroke-width="2" stroke-miterlimit="10"/>
<path d="M110.067 214.347L129.843 234.172L98.6061 242.507L78.8301 222.682L110.067 214.347Z" stroke="#28B86A" stroke-width="2" stroke-miterlimit="10"/>
<path d="M129.845 234.171L149.621 253.996L118.383 262.332L98.6074 242.507L129.845 234.171Z" stroke="#28B86A" stroke-width="2" stroke-miterlimit="10"/>
<path d="M149.62 253.998L169.396 273.823L138.159 282.158L118.383 262.333L149.62 253.998Z" stroke="#28B86A" stroke-width="2" stroke-miterlimit="10"/>
<path d="M169.395 273.822L189.171 293.647L157.934 301.983L138.158 282.158L169.395 273.822Z" stroke="#28B86A" stroke-width="2" stroke-miterlimit="10"/>
<path d="M189.172 293.646L208.723 313.471L177.711 321.807L157.935 301.982L189.172 293.646Z" stroke="#28B86A" stroke-width="2" stroke-miterlimit="10"/>
<path d="M208.722 313.472L228.499 333.297L197.486 341.633L177.71 321.808L208.722 313.472Z" stroke="#28B86A" stroke-width="2" stroke-miterlimit="10"/>
<path d="M228.499 333.295L248.275 352.895L217.262 361.456L197.486 341.631L228.499 333.295Z" stroke="#28B86A" stroke-width="2" stroke-miterlimit="10"/>
<path d="M248.275 352.896L268.051 372.722L237.039 381.282L217.263 361.457L248.275 352.896Z" stroke="#28B86A" stroke-width="2" stroke-miterlimit="10"/>
<path d="M39.2782 183.033L59.0543 202.858L27.8171 211.194L8.04102 191.369L39.2782 183.033Z" stroke="#28B86A" stroke-width="2" stroke-miterlimit="10"/>
<path d="M59.0536 202.857L78.8297 222.682L47.5925 231.018L27.8164 211.193L59.0536 202.857Z" stroke="#28B86A" stroke-width="2" stroke-miterlimit="10"/>
<path d="M78.831 222.683L98.607 242.508L67.3698 250.844L47.5938 231.019L78.831 222.683Z" stroke="#28B86A" stroke-width="2" stroke-miterlimit="10"/>
<path d="M98.6063 242.506L118.382 262.331L87.1452 270.667L67.3691 250.842L98.6063 242.506Z" stroke="#28B86A" stroke-width="2" stroke-miterlimit="10"/>
<path d="M118.383 262.332L138.159 282.157L106.922 290.493L87.1455 270.668L118.383 262.332Z" stroke="#28B86A" stroke-width="2" stroke-miterlimit="10"/>
<path d="M138.158 282.158L157.934 301.983L126.697 310.319L106.921 290.494L138.158 282.158Z" stroke="#28B86A" stroke-width="2" stroke-miterlimit="10"/>
<path d="M157.934 301.983L177.711 321.808L146.473 330.144L126.697 310.318L157.934 301.983Z" stroke="#28B86A" stroke-width="2" stroke-miterlimit="10"/>
<path d="M177.711 321.808L197.487 341.633L166.25 349.969L146.474 330.144L177.711 321.808Z" stroke="#28B86A" stroke-width="2" stroke-miterlimit="10"/>
<path d="M197.487 341.632L217.263 361.457L186.026 369.792L166.25 349.967L197.487 341.632Z" stroke="#28B86A" stroke-width="2" stroke-miterlimit="10"/>
<path d="M217.263 361.457L237.039 381.282L205.801 389.618L186.025 369.793L217.263 361.457Z" stroke="#28B86A" stroke-width="2" stroke-miterlimit="10"/>
</g>
<path d="M415.825 279.83L415.825 147.919" stroke="#454549" stroke-width="2" stroke-miterlimit="10" stroke-linecap="round" stroke-dasharray="1 3"/>
<path d="M416.135 147.66C423.706 147.66 429.844 141.508 429.844 133.918C429.844 126.328 423.706 120.176 416.135 120.176C408.564 120.176 402.427 126.328 402.427 133.918C402.427 141.508 408.564 147.66 416.135 147.66Z" fill="white" stroke="#28B86A" stroke-width="2" stroke-miterlimit="10"/>
<path d="M410.742 133.918L415.237 138.424L422.653 130.989" stroke="#28B86A" stroke-width="2" stroke-miterlimit="10" stroke-linecap="round"/>
<path d="M416.043 285.799C417.904 285.799 419.414 284.286 419.414 282.419C419.414 280.553 417.904 279.04 416.043 279.04C414.181 279.04 412.672 280.553 412.672 282.419C412.672 284.286 414.181 285.799 416.043 285.799Z" fill="#454549"/>
<path d="M228.259 329.688L228.259 197.777" stroke="#454549" stroke-width="2" stroke-miterlimit="10" stroke-linecap="round" stroke-dasharray="1 3"/>
<path d="M228.569 197.52C236.14 197.52 242.277 191.368 242.277 183.778C242.277 176.188 236.14 170.036 228.569 170.036C220.998 170.036 214.86 176.188 214.86 183.778C214.86 191.368 220.998 197.52 228.569 197.52Z" fill="white" stroke="#28B86A" stroke-width="2" stroke-miterlimit="10"/>
<path d="M223.176 183.776L227.67 188.282L235.086 180.847" stroke="#28B86A" stroke-width="2" stroke-miterlimit="10" stroke-linecap="round"/>
<path d="M228.477 335.657C230.339 335.657 231.848 334.144 231.848 332.278C231.848 330.411 230.339 328.898 228.477 328.898C226.616 328.898 225.106 330.411 225.106 332.278C225.106 334.144 226.616 335.657 228.477 335.657Z" fill="#454549"/>
<path d="M110.043 211.207L110.043 79.2959" stroke="#454549" stroke-width="2" stroke-miterlimit="10" stroke-linecap="round" stroke-dasharray="1 3"/>
<path d="M110.355 79.0374C117.926 79.0374 124.063 72.8847 124.063 65.2951C124.063 57.7054 117.926 51.5527 110.355 51.5527C102.784 51.5527 96.6465 57.7054 96.6465 65.2951C96.6465 72.8847 102.784 79.0374 110.355 79.0374Z" fill="white" stroke="#28B86A" stroke-width="2" stroke-miterlimit="10"/>
<path d="M104.961 65.2949L109.456 69.8007L116.872 62.3662" stroke="#28B86A" stroke-width="2" stroke-miterlimit="10" stroke-linecap="round"/>
<path d="M110.263 217.176C112.124 217.176 113.633 215.663 113.633 213.797C113.633 211.93 112.124 210.417 110.263 210.417C108.401 210.417 106.892 211.93 106.892 213.797C106.892 215.663 108.401 217.176 110.263 217.176Z" fill="#454549"/>
<path d="M296.822 160.654L296.822 28.7437" stroke="#454549" stroke-width="2" stroke-miterlimit="10" stroke-linecap="round" stroke-dasharray="1 3"/>
<path d="M297.133 28.4846C304.704 28.4846 310.842 22.332 310.842 14.7423C310.842 7.15264 304.704 1 297.133 1C289.562 1 283.425 7.15264 283.425 14.7423C283.425 22.332 289.562 28.4846 297.133 28.4846Z" fill="white" stroke="#28B86A" stroke-width="2" stroke-miterlimit="10"/>
<path d="M291.74 14.7422L296.235 19.248L303.651 11.8135" stroke="#28B86A" stroke-width="2" stroke-miterlimit="10" stroke-linecap="round"/>
<path d="M297.041 166.623C298.903 166.623 300.412 165.11 300.412 163.244C300.412 161.377 298.903 159.864 297.041 159.864C295.179 159.864 293.67 161.377 293.67 163.244C293.67 165.11 295.179 166.623 297.041 166.623Z" fill="#454549"/>
</svg>
