<?xml version="1.0" encoding="UTF-8" standalone="no"?>
<!-- Created with Inkscape (http://www.inkscape.org/) -->

<svg
   xmlns:dc="http://purl.org/dc/elements/1.1/"
   xmlns:cc="http://creativecommons.org/ns#"
   xmlns:rdf="http://www.w3.org/1999/02/22-rdf-syntax-ns#"
   xmlns:svg="http://www.w3.org/2000/svg"
   xmlns="http://www.w3.org/2000/svg"
   xmlns:sodipodi="http://sodipodi.sourceforge.net/DTD/sodipodi-0.dtd"
   xmlns:inkscape="http://www.inkscape.org/namespaces/inkscape"
   width="111.14522"
   height="98.461075"
   viewBox="0 0 29.407172 26.05116"
   version="1.1"
   id="svg334"
   inkscape:version="0.92.2 2405546, 2018-03-11"
   sodipodi:docname="wallet-on-ripple.svg">
  <defs
     id="defs328">
    <linearGradient
       id="g368488a2f1_0_0.9"
       gradientUnits="userSpaceOnUse"
       gradientTransform="matrix(2.4489077,0,0,2.4489077,-518.79593,-154.72629)"
       spreadMethod="pad"
       x1="43.976765"
       y1="27.775543"
       x2="37.432049"
       y2="21.230703">
      <stop
         offset="0.0"
         stop-color="#e5e5e5"
         id="stop109" />
      <stop
         offset="1.0"
         stop-color="#fcfcfc"
         id="stop111" />
    </linearGradient>
    <linearGradient
       id="g368488a2f1_0_0.8"
       gradientUnits="userSpaceOnUse"
       gradientTransform="matrix(2.5254063,0,0,2.5254063,-518.79593,-154.72629)"
       spreadMethod="pad"
       x1="31.531343"
       y1="29.613804"
       x2="41.076187"
       y2="29.613804">
      <stop
         offset="0.0"
         stop-color="#dbdcdd"
         id="stop96" />
      <stop
         offset="0.41"
         stop-color="#dbdcdd"
         id="stop98" />
      <stop
         offset="0.6"
         stop-color="#b1b3b5"
         id="stop100" />
      <stop
         offset="1.0"
         stop-color="#b1b3b5"
         id="stop102" />
    </linearGradient>
    <linearGradient
       id="g368488a2f1_0_0.7"
       gradientUnits="userSpaceOnUse"
       gradientTransform="matrix(2.5243602,0,0,2.5243602,-518.79593,-154.72629)"
       spreadMethod="pad"
       x1="31.547195"
       y1="30.128937"
       x2="41.088085"
       y2="30.128937">
      <stop
         offset="0.0"
         stop-color="#66ccff"
         id="stop87" />
      <stop
         offset="1.0"
         stop-color="#1db4ff"
         id="stop89" />
    </linearGradient>
    <linearGradient
       id="g368488a2f1_0_0.6"
       gradientUnits="userSpaceOnUse"
       gradientTransform="matrix(2.5254063,0,0,2.5254063,-518.79593,-154.72629)"
       spreadMethod="pad"
       x1="31.53393"
       y1="31.218023"
       x2="41.078773"
       y2="31.218023">
      <stop
         offset="0.0"
         stop-color="#0a93eb"
         id="stop74" />
      <stop
         offset="0.45"
         stop-color="#0a93eb"
         id="stop76" />
      <stop
         offset="0.56"
         stop-color="#0f72e5"
         id="stop78" />
      <stop
         offset="1.0"
         stop-color="#0f72e5"
         id="stop80" />
    </linearGradient>
  </defs>
  <sodipodi:namedview
     id="base"
     pagecolor="#ffffff"
     bordercolor="#666666"
     borderopacity="1.0"
     inkscape:pageopacity="0.0"
     inkscape:pageshadow="2"
     inkscape:zoom="0.35"
     inkscape:cx="2069.8583"
     inkscape:cy="-839.3408"
     inkscape:document-units="mm"
     inkscape:current-layer="layer1"
     showgrid="false"
     inkscape:window-width="1920"
     inkscape:window-height="1022"
     inkscape:window-x="0"
     inkscape:window-y="1"
     inkscape:window-maximized="1"
     units="px"
     fit-margin-top="10"
     fit-margin-left="10"
     fit-margin-right="10"
     fit-margin-bottom="10" />
  <metadata
     id="metadata331">
    <rdf:RDF>
      <cc:Work
         rdf:about="">
        <dc:format>image/svg+xml</dc:format>
        <dc:type
           rdf:resource="http://purl.org/dc/dcmitype/StillImage" />
        <dc:title></dc:title>
      </cc:Work>
    </rdf:RDF>
  </metadata>
  <g
     inkscape:label="Layer 1"
     inkscape:groupmode="layer"
     id="layer1"
     transform="translate(441.81668,99.293421)">
    <path
       inkscape:connector-curvature="0"
       style="fill:url(#g368488a2f1_0_0.6);fill-rule:evenodd;stroke-width:0.26458332"
       d="m -415.05534,-82.6486 v 0 c 0,2.772021 0,2.772021 0,2.772021 0,0.07641 -0.0763,0.152882 -0.30797,0.231833 -11.16647,3.699299 -11.16647,3.699299 -11.16647,3.699299 -0.30797,0.07647 -0.84536,0.07647 -1.22967,0 -11.16887,-3.699299 -11.16887,-3.699299 -11.16887,-3.699299 -0.0765,0 -0.15288,-0.07895 -0.15288,-0.07895 -0.0788,-0.07647 -0.0788,-0.07647 -0.0788,-0.152882 0,-2.772021 0,-2.772021 0,-2.772021 h 24.10462"
       id="path85" />
    <path
       inkscape:connector-curvature="0"
       style="fill:url(#g368488a2f1_0_0.7);fill-rule:evenodd;stroke-width:0.26458332"
       d="m -426.52968,-78.727329 v 0 c 11.16663,-3.695084 11.16663,-3.695084 11.16663,-3.695084 0.38433,-0.155279 0.38433,-0.308097 0,-0.463383 -11.16663,-3.697547 -11.16663,-3.697547 -11.16663,-3.697547 -0.3081,-0.07637 -0.92168,-0.07637 -1.22979,0 -11.16905,3.697547 -11.16905,3.697547 -11.16905,3.697547 -0.30791,0.155286 -0.30791,0.308104 0,0.463383 11.16905,3.695084 11.16905,3.695084 11.16905,3.695084 0.38452,0.07644 0.92169,0.07644 1.22979,0"
       id="path94" />
    <path
       inkscape:connector-curvature="0"
       style="fill:url(#g368488a2f1_0_0.8);fill-rule:evenodd;stroke-width:0.26458332"
       d="m -415.06188,-86.699913 v 0 c 0,2.772021 0,2.772021 0,2.772021 0,0.07641 -0.0763,0.152881 -0.30796,0.231833 -11.16647,3.699306 -11.16647,3.699306 -11.16647,3.699306 -0.30797,0.07646 -0.84536,0.07646 -1.22967,0 -11.16887,-3.699306 -11.16887,-3.699306 -11.16887,-3.699306 -0.0765,0 -0.15288,-0.07895 -0.15288,-0.07895 -0.0787,-0.07647 -0.0787,-0.07647 -0.0787,-0.152881 0,-2.772021 0,-2.772021 0,-2.772021 h 24.1046"
       id="path107" />
    <path
       inkscape:connector-curvature="0"
       style="fill:url(#g368488a2f1_0_0.9);fill-rule:evenodd;stroke-width:0.26458332"
       d="m -426.54107,-82.77864 v 0 c 11.16662,-3.695084 11.16662,-3.695084 11.16662,-3.695084 0.38432,-0.155278 0.38432,-0.308096 0,-0.463383 -11.16662,-3.697547 -11.16662,-3.697547 -11.16662,-3.697547 -0.30811,-0.07637 -0.92169,-0.07637 -1.2298,0 -11.16905,3.697547 -11.16905,3.697547 -11.16905,3.697547 -0.3079,0.155287 -0.3079,0.308105 0,0.463383 11.16905,3.695084 11.16905,3.695084 11.16905,3.695084 0.38453,0.07644 0.92169,0.07644 1.2298,0"
       id="path116" />
    <path
       inkscape:connector-curvature="0"
       style="fill:#23282f;fill-rule:evenodd;stroke-width:0.26458332"
       d="m -423.21055,-90.620655 0.0765,0.0055 0.0765,0.0109 0.071,0.01638 0.071,0.02734 0.0656,0.03279 0.0492,0.02183 0.0437,0.02734 0.0437,0.03274 0.0382,0.03279 0.0765,0.07653 0.0656,0.08197 0.0546,0.09287 0.0273,0.04374 0.0164,0.04913 0.0219,0.04918 0.0109,0.05469 0.0109,0.04913 0.005,0.05468 0.011,0.07103 v 0.07102 l -0.011,0.07647 -0.0109,0.07108 -0.0219,0.06553 -0.0218,0.07108 -0.0328,0.06552 -0.0328,0.06013 -0.0437,0.06008 -0.0437,0.06013 -0.0492,0.04919 -0.0546,0.04919 -0.0601,0.04368 -0.0601,0.03824 -0.0656,0.03279 -0.0656,0.02734 -0.0929,0.02734 -0.0929,0.0164 -0.0929,0.0054 -0.0984,-0.0054 -0.0929,-0.01095 -0.0929,-0.02735 -0.0874,-0.03278 -0.0819,-0.04369 -0.0765,-0.04918 -0.0656,-0.06013 -0.0601,-0.06008 -0.0546,-0.07102 -0.0492,-0.07103 -0.0383,-0.07653 -0.0327,-0.08198 -0.0219,-0.08742 -0.0109,-0.07647 -0.005,-0.07652 v -0.07647 l 0.005,-0.07653 0.0109,-0.07103 0.0219,-0.07647 0.0273,-0.07103 0.0328,-0.06558 0.0492,-0.08198 0.0546,-0.07102 0.0601,-0.06558 0.071,-0.06013 0.0765,-0.05463 0.082,-0.04368 0.082,-0.03279 0.0929,-0.02734 0.071,-0.0109 0.0765,-0.0055 z m -0.8852,-6.026933 -0.4535,0.07647 -0.45355,0.07653 -0.90704,0.153003 -5.89578,0.983515 -0.10382,0.02191 -0.0984,0.02729 -0.0984,0.03279 -0.0929,0.03824 -0.0929,0.04374 -0.0874,0.04919 -0.082,0.06557 -0.0382,0.03279 -0.0382,0.03824 -0.0382,0.04919 -0.0383,0.06008 -0.0273,0.06013 -0.0219,0.06558 -0.0164,0.06552 -0.0109,0.07108 -0.0109,0.06552 -0.005,0.07108 v 7.753604 l 0.005,0.114705 0.0219,0.114763 0.0273,0.11476 0.0328,0.109265 0.0492,0.109318 0.0546,0.103815 0.0656,0.09286 0.071,0.09287 0.0492,0.04918 0.0492,0.04918 0.0492,0.04374 0.0546,0.03823 0.0546,0.03824 0.0546,0.03823 0.0601,0.03279 0.0601,0.02735 0.0656,0.02734 0.0601,0.02185 0.0656,0.02183 0.0655,0.0164 0.0656,0.01095 0.071,0.0109 0.0656,0.0055 0.0656,0.0054 h 8.61696 l 0.1147,-0.01095 0.12022,-0.01641 0.10931,-0.02729 0.11471,-0.03279 0.10387,-0.04918 0.10381,-0.05463 0.0983,-0.06558 0.0874,-0.07102 0.0492,-0.04918 0.0492,-0.04919 0.0437,-0.04918 0.0382,-0.05463 0.0382,-0.05463 0.0382,-0.05463 0.0328,-0.06013 0.0274,-0.06007 0.0273,-0.06558 0.0218,-0.06013 0.0219,-0.06558 0.0164,-0.06552 0.011,-0.06558 0.0109,-0.07103 0.005,-0.06558 0.005,-0.06558 v -6.037815 l -0.0109,-0.125658 -0.0218,-0.13116 -0.0109,-0.06008 -0.0219,-0.06558 -0.0164,-0.06014 -0.0273,-0.06008 -0.0273,-0.06558 -0.0328,-0.06013 -0.0382,-0.06008 -0.0382,-0.06013 -0.0437,-0.05463 -0.0437,-0.04918 -0.0492,-0.05463 -0.0492,-0.04368 -0.0546,-0.04919 -0.0547,-0.04374 -0.0601,-0.03824 -0.0601,-0.03279 -0.0601,-0.03279 -0.0656,-0.03279 -0.0656,-0.02183 -0.0656,-0.02183 -0.0655,-0.02191 -0.0711,-0.0164 -0.071,-0.0109 -0.071,-0.0055 -0.14755,-0.0054 h -8.64433 l -0.16939,-0.0055 -0.0874,-0.0055 -0.082,-0.0054 -0.0819,-0.0164 -0.082,-0.02729 -0.0765,-0.03279 -0.0382,-0.02191 -0.0328,-0.02729 -0.0328,-0.02734 -0.0273,-0.03279 -0.0219,-0.03279 -0.0164,-0.03824 -0.0109,-0.03823 -0.0109,-0.04374 -0.0109,-0.08192 9.47478,-0.426209 0.005,-0.759547 -0.005,-0.114763 -0.0109,-0.11471 -0.005,-0.06013 -0.0109,-0.05463 -0.0164,-0.06008 -0.0219,-0.05468 -0.0273,-0.06008 -0.0328,-0.05463 -0.0437,-0.05468 -0.0437,-0.04913 -0.0546,-0.04374 -0.0547,-0.03824 -0.0546,-0.03279 -0.0601,-0.02734 -0.0984,-0.03824 -0.0984,-0.03279 -0.10381,-0.02183 -0.10382,-0.0164 -0.10381,-0.01095 -0.10382,-0.0109 -0.20763,-0.01095 z"
       id="path118" />
  </g>
</svg>
