<svg id="Layer_1" data-name="Layer 1" xmlns="http://www.w3.org/2000/svg" viewBox="0 0 881.67 153.95"><defs><style>.cls-1{fill:#23292f;}</style></defs><title>logo-xpring</title><g id="Canvas"><g id="Frame"><g id="Union"><path class="cls-1" d="M881.67,66.86v60.6a10.12,10.12,0,0,1-2.56,6.64l-.09.11-.11.1C864.85,147.49,845.85,154,822.22,154q-18.22,0-32.82-5.23h0a67.28,67.28,0,0,1-24.51-15.23,66,66,0,0,1-15.46-24.16h0Q744.09,95,744.1,77a91.9,91.9,0,0,1,5.31-32.14,66,66,0,0,1,15.47-24.37A67.42,67.42,0,0,1,789.39,5.24h0Q804,0,822.22,0c20.26,0,37.16,4.86,50.52,14.77l3.69,2.55-13,13.75-2-1.45c-9.92-7.31-22.93-11.06-39.22-11.06-19.69,0-34.33,5.09-44.31,14.93s-15,24.21-15,43.49,5.12,33.84,15,43.68,24.62,14.93,44.31,14.93c17.22,0,30.67-4.15,40.62-12.2v-38Z"/><path class="cls-1" d="M283.15,1.37h0A44.57,44.57,0,0,1,300.81,5.3,45.8,45.8,0,0,1,315.45,15a44.66,44.66,0,0,1,9.86,14.66,44.86,44.86,0,0,1-.21,35.56,46,46,0,0,1-10.05,14.65,48.32,48.32,0,0,1-14.85,9.9h0a46.27,46.27,0,0,1-18,3.52H228.61v59.48H209.78V1.37Zm-1,73.57a27.4,27.4,0,0,0,10.75-2.15,28.45,28.45,0,0,0,8.95-5.94,27.88,27.88,0,0,0,6-8.83,26.74,26.74,0,0,0,2.19-10.78,26.15,26.15,0,0,0-2.19-10.59,27.77,27.77,0,0,0-6-8.83,28.45,28.45,0,0,0-8.95-5.94,27.4,27.4,0,0,0-10.75-2.15H228.61V74.94Z"/><path class="cls-1" d="M594,152.78h18.83V38.7L691.09,145a16.47,16.47,0,0,0,14.21,6.65l8.06-.45V1.37H694.73V115.45L615.27,7.55a13.2,13.2,0,0,0-11.38-5.32L594,2.78Z"/><path class="cls-1" d="M405.4,93.69a31.36,31.36,0,0,1,24.29,11.47l38.88,47.62h24.21l-53.2-66a31.34,31.34,0,0,0-24.41-11.63H378.31v-55h53.52a27.32,27.32,0,0,1,10.74,2.15,28.24,28.24,0,0,1,9,5.95l0,0a25.48,25.48,0,0,1,6,8.59,27.75,27.75,0,0,1,0,21.54,28.24,28.24,0,0,1-3.22,5.44L466.6,78.3l.46-.52A45.7,45.7,0,0,0,475.43,64a42.68,42.68,0,0,0,3.14-16.34A43.94,43.94,0,0,0,475,30.06a44.63,44.63,0,0,0-9.87-14.67A48.82,48.82,0,0,0,450.53,5.5a44.53,44.53,0,0,0-17.65-3.93h-64a9.37,9.37,0,0,0-6.71,2.86,8.77,8.77,0,0,0-2.71,6.41V152.78h18.84V93.69Z"/><path class="cls-1" d="M524,1.37H542.8V152.78H524Z"/><path class="cls-1" d="M154.77,1H181L126.43,55.3a50.75,50.75,0,0,1-71.53,0L.34,1H26.56L68,42.25a32.14,32.14,0,0,0,45.3,0Z"/><path class="cls-1" d="M0,152H26.23L68,110.42a32.14,32.14,0,0,1,45.3,0L155.11,152h26.22l-54.9-54.64a50.75,50.75,0,0,0-71.53,0Z"/></g></g></g></svg>