<svg width="151" height="27" viewBox="0 0 151 27" fill="none" xmlns="http://www.w3.org/2000/svg">
<path d="M151 11.726V22.3531C151 22.7847 150.844 23.1765 150.562 23.5181L150.546 23.5371L150.529 23.5542C148.12 25.8658 144.866 27 140.818 27C138.737 27 136.862 26.6967 135.198 26.0819L135.196 26.0811C133.557 25.4667 132.155 24.577 130.998 23.4095C129.841 22.2419 128.959 20.8273 128.35 19.173L128.35 19.1712C127.74 17.492 127.44 15.5996 127.44 13.5C127.44 11.4227 127.74 9.54183 128.35 7.86317C128.958 6.18618 129.84 4.75926 130.998 3.59062C132.155 2.42313 133.557 1.53328 135.196 0.91878L135.198 0.918156C136.862 0.303242 138.737 0 140.818 0C144.288 0 147.183 0.853012 149.471 2.59067L150.103 3.0369L147.874 5.44889L147.536 5.19435C145.837 3.91332 143.609 3.2546 140.818 3.2546C137.446 3.2546 134.939 4.14851 133.229 5.87305C131.54 7.59906 130.665 10.1184 130.665 13.5C130.665 16.9055 131.541 19.4358 133.229 21.1612C134.939 22.8857 137.446 23.7797 140.818 23.7797C143.768 23.7797 146.072 23.0523 147.775 21.6401V14.9801L151 11.726Z" fill="white"/>
<path fill-rule="evenodd" clip-rule="evenodd" d="M48.4949 0.240179L48.4996 0.240284C49.5726 0.264426 50.5802 0.493055 51.5178 0.92877C52.4708 1.33826 53.3078 1.90541 54.0257 2.6299C54.7464 3.357 55.3091 4.21615 55.7146 5.20247C56.1226 6.17161 56.3257 7.20028 56.3257 8.28421C56.3257 9.39301 56.1105 10.4458 55.679 11.4386C55.2723 12.4034 54.6978 13.2604 53.9576 14.0073C53.2384 14.7331 52.3892 15.3113 51.4144 15.7433L51.4098 15.7453C50.4477 16.1579 49.4163 16.3625 48.3201 16.3625H39.1532V26.7941H35.9279V0.240284L48.4949 0.240179ZM48.3201 13.1424C48.9668 13.1424 49.5788 13.0164 50.1601 12.7651C50.7467 12.5113 51.2569 12.1641 51.694 11.7231C52.1311 11.2821 52.4752 10.7671 52.7266 10.1752C52.975 9.59042 53.1005 8.96146 53.1005 8.28421C53.1005 7.63173 52.9757 7.01411 52.7266 6.42761C52.4752 5.83559 52.1311 5.32068 51.694 4.87966C51.2569 4.43864 50.7467 4.09148 50.1601 3.83767C49.5788 3.58635 48.9668 3.46044 48.3201 3.46044H39.1532V13.1424H48.3201Z" fill="white"/>
<path d="M101.74 26.7941H104.965V6.78757L118.36 25.4241C118.922 26.2064 119.84 26.6461 120.795 26.591L122.176 26.5115V0.240179H118.984V20.2475L105.375 1.32421C104.925 0.698477 104.191 0.347053 103.427 0.391072L101.74 0.488372V26.7941Z" fill="white"/>
<path d="M69.4318 16.4312C71.0481 16.4312 72.5774 17.1707 73.5916 18.4426L80.251 26.7941H84.3972L75.2855 15.2153C74.2719 13.9273 72.7325 13.1767 71.1042 13.1767H64.7913V3.52912H73.9583C74.6049 3.52912 75.2169 3.65504 75.7982 3.90635C76.3849 4.16006 76.8951 4.50732 77.3322 4.94834L77.3395 4.95563C77.7721 5.37136 78.1141 5.8717 78.3648 6.46195C78.6131 7.04679 78.7386 7.67554 78.7386 8.3529C78.7386 9.02921 78.6135 9.65713 78.3659 10.2411C78.2156 10.5819 78.0319 10.8997 77.8143 11.195L79.9128 13.7314C79.9391 13.7015 79.9652 13.6714 79.9911 13.6411C80.6116 12.9185 81.0898 12.1106 81.4247 11.2192C81.785 10.3206 81.9639 9.36388 81.9639 8.3529C81.9639 7.26886 81.7608 6.2403 81.3529 5.27115C80.9473 4.28462 80.3845 3.42568 79.6638 2.69838C78.9468 1.97492 78.1111 1.39706 77.16 0.96488C76.2212 0.52802 75.2124 0.298663 74.1377 0.274625L74.133 0.274521H63.1787C62.7363 0.274521 62.3488 0.454967 62.0299 0.776837C61.7249 1.08455 61.5661 1.4672 61.5661 1.90177V26.7941H64.7913V16.4312H69.4318Z" fill="white"/>
<path d="M89.7381 0.240179H92.9634V26.7941H89.7381V0.240179Z" fill="white"/>
<path d="M26.5071 0.173474H30.9988L21.6535 9.69803C18.2707 13.1459 12.7859 13.1459 9.40307 9.69803L0.0577162 0.173474H4.54953L11.649 7.40914C13.7915 9.59271 17.2651 9.59271 19.4076 7.40914L26.5071 0.173474Z" fill="white"/>
<path d="M0 26.6594H4.49185L11.649 19.365C13.7915 17.1815 17.2651 17.1815 19.4076 19.365L26.5647 26.6594H31.0566L21.6535 17.0759C18.2707 13.6282 12.7859 13.6282 9.40307 17.0759L0 26.6594Z" fill="white"/>
</svg>
