<?xml version="1.0" encoding="utf-8"?>
<!-- Generator: Adobe Illustrator 23.0.2, SVG Export Plug-In . SVG Version: 6.00 Build 0)  -->
<svg version="1.1" id="Layer_1" xmlns="http://www.w3.org/2000/svg" xmlns:xlink="http://www.w3.org/1999/xlink" x="0px" y="0px"
	 viewBox="0 0 398 116" style="enable-background:new 0 0 398 116;" xml:space="preserve">
<style type="text/css">
	.st0{opacity:0.9;}
</style>
<g class="st0">
	<path d="M187.5,36.9l4.5-9.1h7.6l-7.7,13.6l7.9,13.9h-7.6l-4.6-9.3l-4.6,9.3h-7.6l7.9-13.9l-7.7-13.6h7.6L187.5,36.9z M211.7,45.5
		h-3.6v9.7h-6.6V27.8h10.8c3.3,0,5.8,0.7,7.6,2.2c1.8,1.4,2.8,3.5,2.8,6.1c0,1.9-0.4,3.5-1.2,4.8c-0.8,1.3-2,2.3-3.6,3.1l5.7,11.1
		v0.3h-7.1L211.7,45.5z M208.2,40.4h4.2c1.3,0,2.2-0.3,2.8-1c0.6-0.7,1-1.6,1-2.8c0-1.2-0.3-2.1-1-2.8c-0.6-0.7-1.6-1-2.8-1h-4.2
		V40.4z M233,45.9v9.3h-6.6V27.8h11c2.1,0,4,0.4,5.6,1.2c1.6,0.8,2.9,1.9,3.8,3.3c0.9,1.4,1.3,3,1.3,4.9c0,2.7-1,4.8-2.9,6.4
		c-1.9,1.6-4.5,2.4-7.9,2.4H233z M233,40.8h4.3c1.3,0,2.3-0.3,2.9-1c0.7-0.6,1-1.5,1-2.7c0-1.3-0.3-2.3-1-3.1
		c-0.7-0.8-1.6-1.2-2.8-1.2H233V40.8z M267,50.2h11.5v5.1h-18.2V27.8h6.6V50.2z M298,43.6h-10.4v6.6h12.3v5.1H281V27.8h19v5.1h-12.3
		v5.8H298V43.6z M302.2,55.2V27.8h8.9c2.4,0,4.6,0.6,6.6,1.7c1.9,1.1,3.4,2.6,4.5,4.7c1.1,2,1.6,4.2,1.7,6.7v1.3
		c0,2.5-0.5,4.8-1.6,6.8c-1.1,2-2.6,3.5-4.5,4.7c-1.9,1.1-4.1,1.7-6.5,1.7H302.2z M308.8,32.9v17.3h2.3c1.9,0,3.4-0.7,4.4-2
		c1-1.4,1.5-3.4,1.5-6v-1.2c0-2.7-0.5-4.7-1.5-6c-1-1.3-2.5-2-4.5-2H308.8z M349.3,51.9c-1,1.1-2.5,2-4.5,2.7c-2,0.7-4.1,1-6.5,1
		c-3.6,0-6.5-1.1-8.6-3.3c-2.2-2.2-3.3-5.3-3.5-9.2l0-2.4c0-2.7,0.5-5.1,1.4-7.1c1-2,2.3-3.6,4.1-4.7c1.8-1.1,3.9-1.6,6.2-1.6
		c3.4,0,6.1,0.8,8,2.4c1.9,1.6,3,3.9,3.3,7h-6.4c-0.2-1.5-0.7-2.6-1.5-3.3c-0.8-0.7-1.8-1-3.2-1c-1.7,0-2.9,0.7-3.9,2.1
		c-0.9,1.4-1.4,3.4-1.4,6v1.7c0,2.7,0.5,4.8,1.4,6.2c0.9,1.4,2.4,2.1,4.4,2.1c1.7,0,3-0.4,3.9-1.2v-4.3h-4.6v-4.5h11.2V51.9z
		 M369.8,43.6h-10.4v6.6h12.3v5.1h-18.9V27.8h19v5.1h-12.3v5.8h10.4V43.6z M384.3,45.5h-3.6v9.7H374V27.8h10.8
		c3.3,0,5.8,0.7,7.6,2.2c1.8,1.4,2.8,3.5,2.8,6.1c0,1.9-0.4,3.5-1.2,4.8c-0.8,1.3-2,2.3-3.6,3.1l5.7,11.1v0.3h-7.1L384.3,45.5z
		 M380.7,40.4h4.2c1.3,0,2.2-0.3,2.8-1c0.6-0.7,1-1.6,1-2.8c0-1.2-0.3-2.1-1-2.8c-0.6-0.7-1.6-1-2.8-1h-4.2V40.4z M178.3,91.2V63.8
		h7.8c2.4,0,4.5,0.5,6.3,1.6c1.8,1.1,3.3,2.6,4.2,4.5c1,2,1.5,4.2,1.5,6.7v1.8c0,2.6-0.5,4.9-1.5,6.8c-1,2-2.4,3.4-4.3,4.5
		c-1.9,1-4,1.6-6.5,1.6H178.3z M182,66.7v21.5h3.8c2.8,0,5-0.9,6.5-2.6c1.6-1.7,2.3-4.2,2.3-7.4v-1.6c0-3.1-0.7-5.5-2.2-7.3
		c-1.5-1.7-3.5-2.6-6.2-2.6H182z M218.9,78.5h-11.9v9.7h13.8v3h-17.5V63.8h17.3v3h-13.6v8.8h11.9V78.5z M234,86.4l7.9-22.7h4
		l-10.2,27.5h-3.2l-10.2-27.5h3.9L234,86.4z M262,80.5v10.8h-3.6V63.8h10.1c3,0,5.4,0.8,7.1,2.3c1.7,1.5,2.6,3.6,2.6,6.1
		c0,2.7-0.8,4.7-2.5,6.2c-1.7,1.4-4,2.2-7.2,2.2H262z M262,77.5h6.5c1.9,0,3.4-0.5,4.5-1.4c1-0.9,1.5-2.2,1.5-4
		c0-1.6-0.5-2.9-1.5-3.9c-1-1-2.4-1.5-4.2-1.5H262V77.5z M303.5,78.4c0,2.7-0.5,5-1.4,7.1c-0.9,2-2.2,3.5-3.9,4.6
		c-1.7,1.1-3.6,1.6-5.8,1.6c-2.2,0-4.1-0.5-5.8-1.6c-1.7-1.1-3-2.6-3.9-4.5c-0.9-2-1.4-4.3-1.4-6.9v-2c0-2.6,0.5-5,1.4-7
		c0.9-2,2.2-3.6,3.9-4.6c1.7-1.1,3.6-1.6,5.8-1.6c2.2,0,4.1,0.5,5.8,1.6c1.7,1.1,3,2.6,3.9,4.6c0.9,2,1.4,4.4,1.4,7V78.4z
		 M299.9,76.6c0-3.3-0.7-5.8-2-7.5c-1.3-1.7-3.1-2.6-5.5-2.6c-2.3,0-4.1,0.9-5.4,2.6c-1.3,1.7-2,4.2-2,7.2v2c0,3.2,0.7,5.6,2,7.5
		c1.3,1.8,3.2,2.7,5.5,2.7c2.3,0,4.2-0.8,5.4-2.5c1.3-1.7,1.9-4.2,2-7.3V76.6z M318.6,80.1h-6.5v11.1h-3.6V63.8h9.1
		c3.1,0,5.5,0.7,7.1,2.1c1.7,1.4,2.5,3.5,2.5,6.2c0,1.7-0.5,3.2-1.4,4.5c-0.9,1.3-2.2,2.2-3.9,2.9l6.5,11.7v0.2h-3.9L318.6,80.1z
		 M312.2,77.2h5.6c1.8,0,3.2-0.5,4.3-1.4c1.1-0.9,1.6-2.2,1.6-3.7c0-1.7-0.5-3-1.5-3.9c-1-0.9-2.5-1.4-4.4-1.4h-5.6V77.2z
		 M349.5,66.7h-8.8v24.5H337V66.7h-8.8v-3h21.3V66.7z M366.8,84.1h-11.5l-2.6,7.2H349l10.5-27.5h3.2l10.5,27.5h-3.7L366.8,84.1z
		 M356.4,81.1h9.3l-4.7-12.9L356.4,81.1z M380.1,88.3h13v3h-16.7V63.8h3.6V88.3z"/>
	<path d="M35.4,7.2h2.8V0h-2.8C22.9,0,12.8,10.1,12.8,22.6v16.4c0,7.2-5.6,13.2-12.8,13.6l0.2,3.6L0,59.8
		c7.2,0.4,12.8,6.4,12.8,13.6v18.9c0,13.1,10.6,23.7,23.6,23.7v-7.2c-9,0-16.4-7.3-16.4-16.4V73.4c0-7.1-3.6-13.5-9.1-17.2
		c5.5-3.8,9.1-10.1,9.1-17.2V22.6C20.1,14.1,26.9,7.2,35.4,7.2z"/>
	<path d="M118.6,7.2h-2.8V0h2.8c12.4,0,22.5,10.1,22.5,22.6v16.4c0,7.2,5.6,13.2,12.8,13.6l-0.2,3.6l0.2,3.6
		c-7.2,0.4-12.8,6.4-12.8,13.6v18.9c0,13.1-10.6,23.7-23.6,23.7v-7.2c9,0,16.4-7.3,16.4-16.4V73.4c0-7.1,3.6-13.5,9.1-17.2
		c-5.5-3.8-9.1-10.1-9.1-17.2V22.6C133.9,14.1,127.1,7.2,118.6,7.2z"/>
	<path d="M103.2,29h10.7L91.6,49.9c-8.1,7.5-21.2,7.5-29.2,0L40.1,29h10.7l16.9,15.8c5.1,4.8,13.4,4.8,18.5,0L103.2,29z"/>
	<path d="M50.7,87H40l22.4-21c8.1-7.6,21.2-7.6,29.2,0L114,87h-10.7L86.3,71c-5.1-4.8-13.4-4.8-18.5,0L50.7,87z"/>
</g>
</svg>
