<?xml version="1.0" encoding="UTF-8" standalone="no"?>
<svg
   xmlns:dc="http://purl.org/dc/elements/1.1/"
   xmlns:cc="http://creativecommons.org/ns#"
   xmlns:rdf="http://www.w3.org/1999/02/22-rdf-syntax-ns#"
   xmlns:svg="http://www.w3.org/2000/svg"
   xmlns="http://www.w3.org/2000/svg"
   xmlns:sodipodi="http://sodipodi.sourceforge.net/DTD/sodipodi-0.dtd"
   xmlns:inkscape="http://www.inkscape.org/namespaces/inkscape"
   version="1.1"
   viewBox="0 0 250.00001 180"
   stroke-miterlimit="10"
   id="svg860"
   sodipodi:docname="consensus-w-q-3.svg"
   inkscape:version="0.92.2 2405546, 2018-03-11"
   width="250"
   height="180"
   style="fill:none;stroke:none;stroke-linecap:square;stroke-miterlimit:10"
   inkscape:export-filename="/another/devel/ripple-dev-portal/img/consensus-w-q-3.png"
   inkscape:export-xdpi="96"
   inkscape:export-ydpi="96">
  <metadata
     id="metadata866">
    <rdf:RDF>
      <cc:Work
         rdf:about="">
        <dc:format>image/svg+xml</dc:format>
        <dc:type
           rdf:resource="http://purl.org/dc/dcmitype/StillImage" />
        <dc:title></dc:title>
      </cc:Work>
    </rdf:RDF>
  </metadata>
  <defs
     id="defs864">
    <defs
       id="defs61">
      <linearGradient
         y2="19.332516"
         x2="12.007618"
         y1="19.332516"
         x1="3.4736533"
         spreadMethod="pad"
         gradientTransform="scale(8.5339645)"
         gradientUnits="userSpaceOnUse"
         id="g4186c7b241_0_549.2">
        <stop
           id="stop52"
           stop-color="#29a1da"
           offset="0.0" />
        <stop
           id="stop54"
           stop-color="#29a1da"
           offset="0.45" />
        <stop
           id="stop56"
           stop-color="#2789b9"
           offset="0.56" />
        <stop
           id="stop58"
           stop-color="#2789b9"
           offset="1.0" />
      </linearGradient>
    </defs>
    <defs
       id="defs70">
      <linearGradient
         y2="15.532056"
         x2="3.4752655"
         y1="15.532118"
         x1="12.005706"
         spreadMethod="pad"
         gradientTransform="scale(8.53044)"
         gradientUnits="userSpaceOnUse"
         id="g4186c7b241_0_549.3">
        <stop
           id="stop65"
           stop-color="#6bc1ec"
           offset="0.0" />
        <stop
           id="stop67"
           stop-color="#8ad6f4"
           offset="1.0" />
      </linearGradient>
    </defs>
    <defs
       id="defs83">
      <linearGradient
         y2="17.898199"
         x2="12.005313"
         y1="17.898199"
         x1="3.471348"
         spreadMethod="pad"
         gradientTransform="scale(8.533965)"
         gradientUnits="userSpaceOnUse"
         id="g4186c7b241_0_549.4">
        <stop
           id="stop74"
           stop-color="#dbdcdd"
           offset="0.0" />
        <stop
           id="stop76"
           stop-color="#dbdcdd"
           offset="0.41" />
        <stop
           id="stop78"
           stop-color="#b1b3b5"
           offset="0.6" />
        <stop
           id="stop80"
           stop-color="#b1b3b5"
           offset="1.0" />
      </linearGradient>
    </defs>
    <defs
       id="defs92">
      <linearGradient
         y2="10.13494"
         x2="7.9749012"
         y1="15.986627"
         x1="13.826479"
         spreadMethod="pad"
         gradientTransform="scale(8.2754575)"
         gradientUnits="userSpaceOnUse"
         id="g4186c7b241_0_549.5">
        <stop
           id="stop87"
           stop-color="#e6e7e8"
           offset="0.0" />
        <stop
           id="stop89"
           stop-color="#ffffff"
           offset="1.0" />
      </linearGradient>
    </defs>
    <defs
       id="defs131">
      <linearGradient
         y2="41.839146"
         x2="12.097349"
         y1="41.839146"
         x1="3.5633848"
         spreadMethod="pad"
         gradientTransform="scale(8.5339647)"
         gradientUnits="userSpaceOnUse"
         id="g4186c7b241_0_549.6">
        <stop
           id="stop122"
           stop-color="#29a1da"
           offset="0.0" />
        <stop
           id="stop124"
           stop-color="#29a1da"
           offset="0.45" />
        <stop
           id="stop126"
           stop-color="#2789b9"
           offset="0.56" />
        <stop
           id="stop128"
           stop-color="#2789b9"
           offset="1.0" />
      </linearGradient>
    </defs>
    <defs
       id="defs140">
      <linearGradient
         y2="38.047985"
         x2="3.5650339"
         y1="38.048046"
         x1="12.095474"
         spreadMethod="pad"
         gradientTransform="scale(8.5304407)"
         gradientUnits="userSpaceOnUse"
         id="g4186c7b241_0_549.7">
        <stop
           id="stop135"
           stop-color="#6bc1ec"
           offset="0.0" />
        <stop
           id="stop137"
           stop-color="#8ad6f4"
           offset="1.0" />
      </linearGradient>
    </defs>
    <defs
       id="defs153">
      <linearGradient
         y2="40.404831"
         x2="12.095044"
         y1="40.404831"
         x1="3.5610795"
         spreadMethod="pad"
         gradientTransform="scale(8.5339651)"
         gradientUnits="userSpaceOnUse"
         id="g4186c7b241_0_549.8">
        <stop
           id="stop144"
           stop-color="#dbdcdd"
           offset="0.0" />
        <stop
           id="stop146"
           stop-color="#dbdcdd"
           offset="0.41" />
        <stop
           id="stop148"
           stop-color="#b1b3b5"
           offset="0.6" />
        <stop
           id="stop150"
           stop-color="#b1b3b5"
           offset="1.0" />
      </linearGradient>
    </defs>
    <defs
       id="defs162">
      <linearGradient
         y2="33.344627"
         x2="8.0674343"
         y1="39.196316"
         x1="13.919013"
         spreadMethod="pad"
         gradientTransform="scale(8.2754579)"
         gradientUnits="userSpaceOnUse"
         id="g4186c7b241_0_549.9">
        <stop
           id="stop157"
           stop-color="#e6e7e8"
           offset="0.0" />
        <stop
           id="stop159"
           stop-color="#ffffff"
           offset="1.0" />
      </linearGradient>
    </defs>
    <defs
       id="defs217">
      <linearGradient
         y2="17.811033"
         x2="71.775887"
         y1="17.811033"
         x1="63.24192"
         spreadMethod="pad"
         gradientTransform="scale(8.533966)"
         gradientUnits="userSpaceOnUse"
         id="g4186c7b241_0_549.10">
        <stop
           id="stop208"
           stop-color="#29a1da"
           offset="0.0" />
        <stop
           id="stop210"
           stop-color="#29a1da"
           offset="0.45" />
        <stop
           id="stop212"
           stop-color="#2789b9"
           offset="0.56" />
        <stop
           id="stop214"
           stop-color="#2789b9"
           offset="1.0" />
      </linearGradient>
    </defs>
    <defs
       id="defs226">
      <linearGradient
         y2="14.009948"
         x2="63.268234"
         y1="14.01001"
         x1="71.798676"
         spreadMethod="pad"
         gradientTransform="scale(8.5304404)"
         gradientUnits="userSpaceOnUse"
         id="g4186c7b241_0_549.11">
        <stop
           id="stop221"
           stop-color="#6bc1ec"
           offset="0.0" />
        <stop
           id="stop223"
           stop-color="#8ad6f4"
           offset="1.0" />
      </linearGradient>
    </defs>
    <defs
       id="defs239">
      <linearGradient
         y2="16.376717"
         x2="71.773582"
         y1="16.376717"
         x1="63.239613"
         spreadMethod="pad"
         gradientTransform="scale(8.533966)"
         gradientUnits="userSpaceOnUse"
         id="g4186c7b241_0_549.12">
        <stop
           id="stop230"
           stop-color="#dbdcdd"
           offset="0.0" />
        <stop
           id="stop232"
           stop-color="#dbdcdd"
           offset="0.41" />
        <stop
           id="stop234"
           stop-color="#b1b3b5"
           offset="0.6" />
        <stop
           id="stop236"
           stop-color="#b1b3b5"
           offset="1.0" />
      </linearGradient>
    </defs>
    <defs
       id="defs248">
      <linearGradient
         y2="8.565937"
         x2="69.610222"
         y1="14.417623"
         x1="75.4618"
         spreadMethod="pad"
         gradientTransform="scale(8.2754557)"
         gradientUnits="userSpaceOnUse"
         id="g4186c7b241_0_549.13">
        <stop
           id="stop243"
           stop-color="#e6e7e8"
           offset="0.0" />
        <stop
           id="stop245"
           stop-color="#ffffff"
           offset="1.0" />
      </linearGradient>
    </defs>
    <defs
       id="defs359">
      <linearGradient
         y2="40.741791"
         x2="70.346825"
         y1="40.741791"
         x1="61.812862"
         spreadMethod="pad"
         gradientTransform="scale(8.533966)"
         gradientUnits="userSpaceOnUse"
         id="g4186c7b241_0_549.14">
        <stop
           id="stop350"
           stop-color="#29a1da"
           offset="0.0" />
        <stop
           id="stop352"
           stop-color="#29a1da"
           offset="0.45" />
        <stop
           id="stop354"
           stop-color="#2789b9"
           offset="0.56" />
        <stop
           id="stop356"
           stop-color="#2789b9"
           offset="1.0" />
      </linearGradient>
    </defs>
    <defs
       id="defs368">
      <linearGradient
         y2="36.95018"
         x2="61.838585"
         y1="36.950241"
         x1="70.369026"
         spreadMethod="pad"
         gradientTransform="scale(8.5304404)"
         gradientUnits="userSpaceOnUse"
         id="g4186c7b241_0_549.15">
        <stop
           id="stop363"
           stop-color="#6bc1ec"
           offset="0.0" />
        <stop
           id="stop365"
           stop-color="#8ad6f4"
           offset="1.0" />
      </linearGradient>
    </defs>
    <defs
       id="defs381">
      <linearGradient
         y2="39.307472"
         x2="70.344521"
         y1="39.307472"
         x1="61.810555"
         spreadMethod="pad"
         gradientTransform="scale(8.533966)"
         gradientUnits="userSpaceOnUse"
         id="g4186c7b241_0_549.16">
        <stop
           id="stop372"
           stop-color="#dbdcdd"
           offset="0.0" />
        <stop
           id="stop374"
           stop-color="#dbdcdd"
           offset="0.41" />
        <stop
           id="stop376"
           stop-color="#b1b3b5"
           offset="0.6" />
        <stop
           id="stop378"
           stop-color="#b1b3b5"
           offset="1.0" />
      </linearGradient>
    </defs>
    <defs
       id="defs390">
      <linearGradient
         y2="32.212994"
         x2="68.136497"
         y1="38.064682"
         x1="73.988075"
         spreadMethod="pad"
         gradientTransform="scale(8.275459)"
         gradientUnits="userSpaceOnUse"
         id="g4186c7b241_0_549.17">
        <stop
           id="stop385"
           stop-color="#e6e7e8"
           offset="0.0" />
        <stop
           id="stop387"
           stop-color="#ffffff"
           offset="1.0" />
      </linearGradient>
    </defs>
    <defs
       id="defs713">
      <linearGradient
         y2="73.486526"
         x2="11.202056"
         y1="73.486526"
         x1="4.2533054"
         spreadMethod="pad"
         gradientTransform="matrix(9.4075673,0,0,9.4075673,-20.184241,-536.22572)"
         gradientUnits="userSpaceOnUse"
         id="g4186c7b241_0_549.18">
        <stop
           id="stop704"
           stop-color="#29a1da"
           offset="0.0" />
        <stop
           id="stop706"
           stop-color="#29a1da"
           offset="0.45" />
        <stop
           id="stop708"
           stop-color="#2789b9"
           offset="0.56" />
        <stop
           id="stop710"
           stop-color="#2789b9"
           offset="1.0" />
      </linearGradient>
    </defs>
    <defs
       id="defs722">
      <linearGradient
         y2="70.415878"
         x2="4.2552071"
         y1="70.415932"
         x1="11.201087"
         spreadMethod="pad"
         gradientTransform="matrix(9.4036814,0,0,9.4036814,-20.184241,-536.22572)"
         gradientUnits="userSpaceOnUse"
         id="g4186c7b241_0_549.19">
        <stop
           id="stop717"
           stop-color="#6bc1ec"
           offset="0.0" />
        <stop
           id="stop719"
           stop-color="#8ad6f4"
           offset="1.0" />
      </linearGradient>
    </defs>
    <defs
       id="defs735">
      <linearGradient
         y2="72.318642"
         x2="11.200179"
         y1="72.318642"
         x1="4.2514286"
         spreadMethod="pad"
         gradientTransform="matrix(9.4075673,0,0,9.4075673,-20.184241,-536.22572)"
         gradientUnits="userSpaceOnUse"
         id="g4186c7b241_0_549.20">
        <stop
           id="stop726"
           stop-color="#dbdcdd"
           offset="0.0" />
        <stop
           id="stop728"
           stop-color="#dbdcdd"
           offset="0.41" />
        <stop
           id="stop730"
           stop-color="#b1b3b5"
           offset="0.6" />
        <stop
           id="stop732"
           stop-color="#b1b3b5"
           offset="1.0" />
      </linearGradient>
    </defs>
    <defs
       id="defs744">
      <linearGradient
         y2="67.801277"
         x2="7.9629421"
         y1="72.565987"
         x1="12.727568"
         spreadMethod="pad"
         gradientTransform="matrix(9.1225963,0,0,9.1225963,-20.184241,-536.22572)"
         gradientUnits="userSpaceOnUse"
         id="g4186c7b241_0_549.21">
        <stop
           id="stop739"
           stop-color="#e6e7e8"
           offset="0.0" />
        <stop
           id="stop741"
           stop-color="#ffffff"
           offset="1.0" />
      </linearGradient>
    </defs>
    <defs
       id="defs761">
      <linearGradient
         y2="73.371712"
         x2="24.888123"
         y1="73.371712"
         x1="17.939371"
         spreadMethod="pad"
         gradientTransform="matrix(9.4075664,0,0,9.4075664,-20.184241,-536.22572)"
         gradientUnits="userSpaceOnUse"
         id="g4186c7b241_0_549.22">
        <stop
           id="stop752"
           stop-color="#29a1da"
           offset="0.0" />
        <stop
           id="stop754"
           stop-color="#29a1da"
           offset="0.45" />
        <stop
           id="stop756"
           stop-color="#2789b9"
           offset="0.56" />
        <stop
           id="stop758"
           stop-color="#2789b9"
           offset="1.0" />
      </linearGradient>
    </defs>
    <defs
       id="defs770">
      <linearGradient
         y2="70.300987"
         x2="17.946922"
         y1="70.301041"
         x1="24.892805"
         spreadMethod="pad"
         gradientTransform="matrix(9.4036835,0,0,9.4036835,-20.184241,-536.22572)"
         gradientUnits="userSpaceOnUse"
         id="g4186c7b241_0_549.23">
        <stop
           id="stop765"
           stop-color="#6bc1ec"
           offset="0.0" />
        <stop
           id="stop767"
           stop-color="#8ad6f4"
           offset="1.0" />
      </linearGradient>
    </defs>
    <defs
       id="defs783">
      <linearGradient
         y2="72.203819"
         x2="24.886246"
         y1="72.203819"
         x1="17.937494"
         spreadMethod="pad"
         gradientTransform="matrix(9.4075664,0,0,9.4075664,-20.184241,-536.22572)"
         gradientUnits="userSpaceOnUse"
         id="g4186c7b241_0_549.24">
        <stop
           id="stop774"
           stop-color="#dbdcdd"
           offset="0.0" />
        <stop
           id="stop776"
           stop-color="#dbdcdd"
           offset="0.41" />
        <stop
           id="stop778"
           stop-color="#b1b3b5"
           offset="0.6" />
        <stop
           id="stop780"
           stop-color="#b1b3b5"
           offset="1.0" />
      </linearGradient>
    </defs>
    <defs
       id="defs792">
      <linearGradient
         y2="67.682861"
         x2="22.07653"
         y1="72.447578"
         x1="26.841156"
         spreadMethod="pad"
         gradientTransform="matrix(9.1225963,0,0,9.1225963,-20.184241,-536.22572)"
         gradientUnits="userSpaceOnUse"
         id="g4186c7b241_0_549.25">
        <stop
           id="stop787"
           stop-color="#e6e7e8"
           offset="0.0" />
        <stop
           id="stop789"
           stop-color="#ffffff"
           offset="1.0" />
      </linearGradient>
    </defs>
  </defs>
  <sodipodi:namedview
     pagecolor="#ffffff"
     bordercolor="#666666"
     borderopacity="1"
     objecttolerance="10"
     gridtolerance="10"
     guidetolerance="10"
     inkscape:pageopacity="1"
     inkscape:pageshadow="2"
     inkscape:window-width="1920"
     inkscape:window-height="1022"
     id="namedview862"
     showgrid="false"
     inkscape:zoom="2.0083334"
     inkscape:cx="227.05517"
     inkscape:cy="101.22048"
     inkscape:window-x="1920"
     inkscape:window-y="1"
     inkscape:window-maximized="1"
     inkscape:current-layer="svg860"
     fit-margin-top="0"
     fit-margin-left="0"
     fit-margin-right="0"
     fit-margin-bottom="0" />
  <clipPath
     id="g4186c7b241_0_549.0">
    <path
       d="M 0,0 H 960 V 540 H 0 Z"
       id="path2"
       inkscape:connector-curvature="0"
       style="clip-rule:nonzero" />
  </clipPath>
  <path
     inkscape:connector-curvature="0"
     style="fill:url(#g4186c7b241_0_549.18);fill-rule:evenodd;stroke-width:1.35385013"
     id="path715"
     d="m 85.199849,136.76949 v 0 c 0,7.51763 0,7.51763 0,7.51763 0,0.20719 -0.207025,0.4146 -0.835197,0.6287 -30.283056,10.03237 -30.283056,10.03237 -30.283056,10.03237 -0.835202,0.20741 -2.292587,0.20741 -3.334818,0 -30.289586,-10.03237 -30.289586,-10.03237 -30.289586,-10.03237 -0.207575,0 -0.414606,-0.2141 -0.414606,-0.2141 -0.213568,-0.20741 -0.213568,-0.20741 -0.213568,-0.4146 0,-7.51763 0,-7.51763 0,-7.51763 h 65.370831" />
  <path
     inkscape:connector-curvature="0"
     style="fill:url(#g4186c7b241_0_549.19);fill-rule:evenodd;stroke-width:1.35385013"
     id="path724"
     d="m 54.081871,147.4038 v 0 C 84.36536,137.38288 84.36536,137.38288 84.36536,137.38288 c 1.042274,-0.4211 1.042274,-0.83554 0,-1.25668 -30.283489,-10.02762 -30.283489,-10.02762 -30.283489,-10.02762 -0.835575,-0.20711 -2.499591,-0.20711 -3.335165,0 -30.290069,10.02762 -30.290069,10.02762 -30.290069,10.02762 -0.835024,0.42114 -0.835024,0.83558 0,1.25668 30.290069,10.02092 30.290069,10.02092 30.290069,10.02092 1.042822,0.20733 2.49959,0.20733 3.335165,0" />
  <path
     inkscape:connector-curvature="0"
     style="fill:url(#g4186c7b241_0_549.20);fill-rule:evenodd;stroke-width:1.35385013"
     id="path737"
     d="m 85.182195,125.78247 v 0 c 0,7.51762 0,7.51762 0,7.51762 0,0.20723 -0.207036,0.4146 -0.835208,0.62874 -30.283049,10.03238 -30.283049,10.03238 -30.283049,10.03238 -0.835202,0.20737 -2.292586,0.20737 -3.334819,0 -30.289585,-10.03238 -30.289585,-10.03238 -30.289585,-10.03238 -0.207575,0 -0.414606,-0.21414 -0.414606,-0.21414 -0.213568,-0.20737 -0.213568,-0.20737 -0.213568,-0.4146 0,-7.51762 0,-7.51762 0,-7.51762 h 65.370835" />
  <path
     inkscape:connector-curvature="0"
     style="fill:url(#g4186c7b241_0_549.21);fill-rule:evenodd;stroke-width:1.35385013"
     id="path746"
     d="m 54.051006,136.41681 v 0 C 84.334495,126.3959 84.334495,126.3959 84.334495,126.3959 c 1.042274,-0.42114 1.042274,-0.83554 0,-1.25668 C 54.051006,115.1116 54.051006,115.1116 54.051006,115.1116 c -0.835575,-0.20711 -2.499591,-0.20711 -3.335165,0 -30.290066,10.02762 -30.290066,10.02762 -30.290066,10.02762 -0.835024,0.42114 -0.835024,0.83554 0,1.25668 30.290066,10.02091 30.290066,10.02091 30.290066,10.02091 1.042822,0.20733 2.49959,0.20733 3.335165,0" />
  <path
     style="fill:#23292f;fill-rule:evenodd;stroke-width:1.35385013"
     inkscape:connector-curvature="0"
     id="path748"
     d="m 35.05723,97.866048 10.535386,10.759282 0.359207,0.35276 0.376237,0.33504 0.393397,0.29996 0.410426,0.28218 0.410564,0.26456 0.410425,0.24694 0.427587,0.2117 0.444614,0.19402 0.444754,0.1763 0.444619,0.14118 0.461776,0.12347 0.461782,0.10573 0.461781,0.0883 0.46178,0.0528 0.478944,0.0352 h 0.923418 l 0.478947,-0.0352 0.461777,-0.0528 0.46178,-0.0883 0.461781,-0.10573 0.461782,-0.12347 0.444614,-0.14118 0.444753,-0.1763 0.427587,-0.19402 0.444615,-0.2117 0.410565,-0.24694 0.410425,-0.26456 0.410425,-0.28218 0.393397,-0.29996 0.376235,-0.33504 0.359209,-0.35276 10.535386,-10.759282 h -5.062551 l -8.004043,8.166442 -0.239469,0.22927 -0.239473,0.2117 -0.239475,0.19398 -0.256496,0.17646 -0.256496,0.1763 -0.273664,0.14117 -0.273663,0.14106 -0.273663,0.12347 -0.273663,0.10573 -0.290691,0.0883 -0.290824,0.0883 -0.290691,0.0705 -0.290825,0.0529 -0.290692,0.0353 -0.307851,0.0176 h -0.581516 l -0.307852,-0.0176 -0.29069,-0.0353 -0.290826,-0.0529 -0.290691,-0.0705 -0.290824,-0.0883 -0.290691,-0.0883 -0.273663,-0.10573 -0.273663,-0.12347 -0.273658,-0.14106 -0.273663,-0.14117 -0.256502,-0.1763 -0.256497,-0.17646 -0.239474,-0.19398 -0.239468,-0.2117 -0.239474,-0.22927 -8.004044,-8.166442 z" />
  <path
     style="fill:#23292f;fill-rule:evenodd;stroke-width:1.35385013"
     inkscape:connector-curvature="0"
     id="path750"
     d="m 52.040509,114.04016 -0.478944,0.0353 -0.46178,0.0707 -0.461781,0.0705 -0.461782,0.10574 -0.461776,0.12347 -0.444619,0.14118 -0.444754,0.1763 -0.444614,0.19402 -0.427587,0.2117 -0.410425,0.24696 -0.410564,0.26454 -0.410426,0.28224 -0.393397,0.31746 -0.376237,0.31748 -0.359207,0.35276 -10.603769,10.82981 h 5.062415 l 8.072561,-8.23697 0.239474,-0.22939 0.239469,-0.21157 0.239473,-0.19398 0.256497,-0.17647 0.256502,-0.15873 0.273663,-0.15874 0.273658,-0.14106 0.273663,-0.12347 0.273663,-0.10587 0.290691,-0.0881 0.290826,-0.0883 0.29069,-0.0529 0.290825,-0.0528 0.29069,-0.0353 0.307852,-0.0352 h 0.581516 l 0.307853,0.0352 0.29069,0.0353 0.290825,0.0528 0.290691,0.0529 0.290824,0.0883 0.290691,0.0881 0.273663,0.10587 0.273663,0.12347 0.273663,0.14106 0.273664,0.15874 0.256496,0.15873 0.256496,0.17647 0.239475,0.19398 0.239474,0.21157 0.239468,0.22939 8.072566,8.23697 h 5.062415 l -10.603773,-10.82981 -0.359209,-0.35276 -0.376236,-0.31748 -0.393396,-0.31746 -0.410425,-0.28224 -0.410425,-0.26454 -0.410565,-0.24696 -0.427588,-0.2117 -0.444614,-0.19402 -0.444753,-0.1763 -0.444615,-0.14118 -0.461781,-0.12347 -0.461781,-0.10574 -0.461782,-0.0705 -0.461775,-0.0707 -0.478949,-0.0353 z" />
  <path
     inkscape:connector-curvature="0"
     style="fill:url(#g4186c7b241_0_549.22);fill-rule:evenodd;stroke-width:1.35385013"
     id="path763"
     d="m 213.95244,135.68924 v 0 c 0,7.51763 0,7.51763 0,7.51763 0,0.20723 -0.20703,0.4146 -0.83521,0.6287 -30.28306,10.03241 -30.28306,10.03241 -30.28306,10.03241 -0.83521,0.20737 -2.29257,0.20737 -3.33482,0 -30.28958,-10.03241 -30.28958,-10.03241 -30.28958,-10.03241 -0.20758,0 -0.41461,-0.2141 -0.41461,-0.2141 -0.21357,-0.20737 -0.21357,-0.20737 -0.21357,-0.4146 0,-7.51763 0,-7.51763 0,-7.51763 h 65.37085" />
  <path
     inkscape:connector-curvature="0"
     style="fill:url(#g4186c7b241_0_549.23);fill-rule:evenodd;stroke-width:1.35385013"
     id="path772"
     d="m 182.83445,146.32359 v 0 c 30.28348,-10.02092 30.28348,-10.02092 30.28348,-10.02092 1.04227,-0.42114 1.04227,-0.83558 0,-1.25672 -30.28348,-10.02762 -30.28348,-10.02762 -30.28348,-10.02762 -0.83558,-0.20711 -2.49959,-0.20711 -3.33517,0 -30.29007,10.02762 -30.29007,10.02762 -30.29007,10.02762 -0.83503,0.42114 -0.83503,0.83558 0,1.25672 30.29007,10.02092 30.29007,10.02092 30.29007,10.02092 1.04282,0.20729 2.49959,0.20729 3.33517,0" />
  <path
     inkscape:connector-curvature="0"
     style="fill:url(#g4186c7b241_0_549.24);fill-rule:evenodd;stroke-width:1.35385013"
     id="path785"
     d="m 213.93477,124.70227 v 0 c 0,7.51762 0,7.51762 0,7.51762 0,0.2072 -0.20703,0.41461 -0.8352,0.6287 -30.28307,10.03242 -30.28307,10.03242 -30.28307,10.03242 -0.83518,0.20737 -2.29257,0.20737 -3.33479,0 -30.2896,-10.03242 -30.2896,-10.03242 -30.2896,-10.03242 -0.20757,0 -0.41461,-0.21409 -0.41461,-0.21409 -0.21356,-0.20741 -0.21356,-0.20741 -0.21356,-0.41461 0,-7.51762 0,-7.51762 0,-7.51762 h 65.37083" />
  <path
     inkscape:connector-curvature="0"
     style="fill:url(#g4186c7b241_0_549.25);fill-rule:evenodd;stroke-width:1.35385013"
     id="path794"
     d="m 182.8036,135.3366 v 0 c 30.28347,-10.02091 30.28347,-10.02091 30.28347,-10.02091 1.04228,-0.42114 1.04228,-0.83558 0,-1.25672 -30.28347,-10.02762 -30.28347,-10.02762 -30.28347,-10.02762 -0.83559,-0.20711 -2.49959,-0.20711 -3.33517,0 -30.29007,10.02762 -30.29007,10.02762 -30.29007,10.02762 -0.83503,0.42114 -0.83503,0.83558 0,1.25672 30.29007,10.02091 30.29007,10.02091 30.29007,10.02091 1.04281,0.20729 2.49958,0.20729 3.33517,0" />
  <path
     style="fill:#23292f;fill-rule:evenodd;stroke-width:1.35385013"
     inkscape:connector-curvature="0"
     id="path796"
     d="m 163.8098,96.785825 10.53539,10.759275 0.3592,0.35272 0.37625,0.33508 0.39339,0.29992 0.41043,0.28222 0.41057,0.26452 0.4104,0.24698 0.4276,0.21171 0.44461,0.19398 0.44477,0.17629 0.4446,0.14122 0.46177,0.12347 0.4618,0.10574 0.46177,0.0883 0.46179,0.0528 0.47893,0.0353 h 0.92342 l 0.47897,-0.0353 0.46177,-0.0528 0.46177,-0.0883 0.46179,-0.10574 0.46177,-0.12347 0.44463,-0.14122 0.44474,-0.17629 0.42759,-0.19398 0.44461,-0.21171 0.41057,-0.24698 0.41044,-0.26452 0.4104,-0.28222 0.3934,-0.29992 0.37625,-0.33508 0.35921,-0.35272 10.53537,-10.759275 h -5.06256 l -8.00401,8.166395 -0.23947,0.22926 -0.2395,0.21172 -0.23947,0.19402 -0.25648,0.17642 -0.25649,0.17634 -0.27368,0.14116 -0.27367,0.14106 -0.27365,0.12347 -0.27366,0.10574 -0.2907,0.0883 -0.29083,0.0883 -0.29067,0.0705 -0.29084,0.0529 -0.29069,0.0352 -0.30786,0.0176 h -0.58152 l -0.30785,-0.0176 -0.29067,-0.0352 -0.29083,-0.0529 -0.2907,-0.0705 -0.29082,-0.0883 -0.29069,-0.0883 -0.27368,-0.10574 -0.27365,-0.12347 -0.27366,-0.14106 -0.27366,-0.14116 -0.2565,-0.17634 -0.2565,-0.17642 -0.23947,-0.19402 -0.23947,-0.21172 -0.23947,-0.22926 -8.00404,-8.166395 z" />
  <path
     style="fill:#23292f;fill-rule:evenodd;stroke-width:1.35385013"
     inkscape:connector-curvature="0"
     id="path798"
     d="m 180.79309,112.95993 -0.47894,0.0352 -0.46179,0.0707 -0.46177,0.0705 -0.46179,0.10587 -0.46178,0.12347 -0.4446,0.14122 -0.44477,0.1763 -0.4446,0.19398 -0.4276,0.2117 -0.41042,0.247 -0.41056,0.2645 -0.41043,0.28223 -0.3934,0.31747 -0.37624,0.31752 -0.3592,0.35272 -10.60377,10.82981 h 5.06241 l 8.07257,-8.23693 0.23947,-0.22942 0.23947,-0.21154 0.23947,-0.19402 0.25649,-0.17642 0.25651,-0.15878 0.27365,-0.15874 0.27367,-0.14102 0.27366,-0.12347 0.27368,-0.10587 0.29068,-0.0881 0.29082,-0.0883 0.2907,-0.0529 0.29082,-0.0528 0.29069,-0.0355 0.30785,-0.0353 h 0.58152 l 0.30785,0.0353 0.2907,0.0355 0.29082,0.0528 0.29068,0.0529 0.29082,0.0883 0.2907,0.0881 0.27367,0.10587 0.27365,0.12347 0.27366,0.14102 0.27368,0.15874 0.2565,0.15878 0.25649,0.17642 0.23946,0.19402 0.23949,0.21154 0.23947,0.22942 8.07254,8.23693 h 5.06243 l -10.60377,-10.82981 -0.35921,-0.35272 -0.37625,-0.31752 -0.39338,-0.31747 -0.41042,-0.28223 -0.41044,-0.2645 -0.41055,-0.247 -0.42759,-0.2117 -0.44462,-0.19398 -0.44475,-0.1763 -0.44462,-0.14122 -0.46177,-0.12347 -0.4618,-0.10587 -0.46177,-0.0705 -0.46177,-0.0707 -0.47895,-0.0352 z" />
  <path
     style="fill:#ffffff;fill-rule:evenodd;stroke-width:1.35385013"
     inkscape:connector-curvature="0"
     id="path800"
     d="m 19.589787,36.551232 v 0 c 0,-4.645602 3.765994,-8.411566 8.411581,-8.411566 h 5.334174 v 0 h 20.618635 39.698564 c 2.230891,0 4.370409,0.88619 5.947889,2.463682 1.57747,1.577453 2.4637,3.716969 2.4637,5.947884 v 21.028961 0 12.617369 0 c 0,4.645587 -3.766,8.411565 -8.411589,8.411565 H 53.954177 L 53.477749,99.462129 33.33554,78.609127 h -5.334172 c -4.645587,0 -8.411581,-3.765978 -8.411581,-8.411565 v 0 -12.617369 0 z" />
  <path
     style="fill-rule:evenodd;stroke:#23282f;stroke-width:1.35385013;stroke-linecap:butt;stroke-linejoin:round"
     inkscape:connector-curvature="0"
     id="path802"
     d="m 19.589787,36.551232 v 0 c 0,-4.645602 3.765994,-8.411566 8.411581,-8.411566 h 5.334174 v 0 h 20.618635 39.698564 c 2.230891,0 4.370409,0.88619 5.947889,2.463682 1.57747,1.577453 2.4637,3.716969 2.4637,5.947884 v 21.028961 0 12.617369 0 c 0,4.645587 -3.766,8.411565 -8.411589,8.411565 H 53.954177 L 53.477749,99.462129 33.33554,78.609127 h -5.334172 c -4.645587,0 -8.411581,-3.765978 -8.411581,-8.411565 v 0 -12.617369 0 z" />
  <path
     style="fill:#23282f;fill-rule:evenodd;stroke-width:1.35385013"
     inkscape:connector-curvature="0"
     id="path804"
     d="m 54.545242,50.521326 5.944652,-10.868478 5.944651,10.868478 z" />
  <path
     style="fill:#23282f;fill-rule:evenodd;stroke-width:1.35385013"
     inkscape:connector-curvature="0"
     id="path806"
     d="m 68.553503,50.521326 5.944652,-10.868478 5.94465,10.868478 z" />
  <path
     style="fill:#23282f;fill-rule:evenodd;stroke-width:1.35385013"
     inkscape:connector-curvature="0"
     id="path808"
     d="m 82.561772,50.521326 5.944652,-10.868478 5.94465,10.868478 z" />
  <path
     style="fill:#23282f;fill-rule:evenodd;stroke-width:1.35385013"
     inkscape:connector-curvature="0"
     id="path810"
     d="m 26.878363,64.210958 5.944651,-10.868479 5.944651,10.868479 z" />
  <path
     style="fill:#23282f;fill-rule:evenodd;stroke-width:1.35385013"
     inkscape:connector-curvature="0"
     id="path812"
     d="m 40.886625,64.210958 5.944651,-10.868479 5.944651,10.868479 z" />
  <path
     style="fill:#23282f;fill-rule:evenodd;stroke-width:1.35385013"
     inkscape:connector-curvature="0"
     id="path814"
     d="m 54.894888,64.210958 5.94465,-10.868479 5.944652,10.868479 z" />
  <path
     style="fill:#23282f;fill-rule:evenodd;stroke-width:1.35385013"
     inkscape:connector-curvature="0"
     id="path816"
     d="m 68.903148,64.210958 5.944651,-10.868479 5.944652,10.868479 z" />
  <path
     style="fill:#2c3e50;fill-rule:evenodd;stroke-width:1.35385013"
     inkscape:connector-curvature="0"
     id="path818"
     d="m 26.513576,50.490756 5.944652,-10.868518 5.94465,10.868518 z" />
  <path
     style="fill:#2c3e50;fill-rule:evenodd;stroke-width:1.35385013"
     inkscape:connector-curvature="0"
     id="path820"
     d="m 40.834777,50.493234 5.944656,-10.868478 5.944652,10.868478 z" />
  <path
     style="fill:#23282f;fill-rule:evenodd;stroke-width:1.35385013"
     inkscape:connector-curvature="0"
     id="path822"
     d="m 82.556328,64.209726 5.94465,-10.86852 5.944652,10.86852 z" />
  <path
     style="fill:#ffffff;fill-rule:evenodd;stroke-width:1.35385013"
     inkscape:connector-curvature="0"
     id="path824"
     d="m 148.34237,36.551232 v 0 c 0,-4.645602 3.76599,-8.411566 8.41156,-8.411566 h 39.69859 v 0 h 20.61863 5.33417 c 2.23089,0 4.37041,0.88619 5.94789,2.463682 1.57748,1.577453 2.46368,3.716969 2.46368,5.947884 v 21.028961 0 12.617369 0 c 0,4.645587 -3.76599,8.411565 -8.41157,8.411565 h -5.33417 l -24.4845,14.705318 3.86587,-14.705318 h -39.69859 c -4.64557,0 -8.41156,-3.765978 -8.41156,-8.411565 v 0 -12.617369 0 z" />
  <path
     style="fill-rule:evenodd;stroke:#23282f;stroke-width:1.35385013;stroke-linecap:butt;stroke-linejoin:round"
     inkscape:connector-curvature="0"
     id="path826"
     d="m 148.34237,36.551232 v 0 c 0,-4.645602 3.76599,-8.411566 8.41156,-8.411566 h 39.69859 v 0 h 20.61863 5.33417 c 2.23089,0 4.37041,0.88619 5.94789,2.463682 1.57748,1.577453 2.46368,3.716969 2.46368,5.947884 v 21.028961 0 12.617369 0 c 0,4.645587 -3.76599,8.411565 -8.41157,8.411565 h -5.33417 l -24.4845,14.705318 3.86587,-14.705318 h -39.69859 c -4.64557,0 -8.41156,-3.765978 -8.41156,-8.411565 v 0 -12.617369 0 z" />
  <path
     style="fill:#23282f;fill-rule:evenodd;stroke-width:1.35385013"
     inkscape:connector-curvature="0"
     id="path828"
     d="m 183.29782,50.521326 5.94466,-10.868478 5.94463,10.868478 z" />
  <path
     style="fill:#23282f;fill-rule:evenodd;stroke-width:1.35385013"
     inkscape:connector-curvature="0"
     id="path830"
     d="m 197.30608,50.521326 5.94463,-10.868478 5.94466,10.868478 z" />
  <path
     style="fill:#23282f;fill-rule:evenodd;stroke-width:1.35385013"
     inkscape:connector-curvature="0"
     id="path832"
     d="m 211.31435,50.521326 5.94465,-10.868478 5.94465,10.868478 z" />
  <path
     style="fill:#23282f;fill-rule:evenodd;stroke-width:1.35385013"
     inkscape:connector-curvature="0"
     id="path834"
     d="m 155.63094,64.210958 5.94464,-10.868479 5.94466,10.868479 z" />
  <path
     style="fill:#23282f;fill-rule:evenodd;stroke-width:1.35385013"
     inkscape:connector-curvature="0"
     id="path836"
     d="m 169.6392,64.210958 5.94464,-10.868479 5.94466,10.868479 z" />
  <path
     style="fill:#23282f;fill-rule:evenodd;stroke-width:1.35385013"
     inkscape:connector-curvature="0"
     id="path838"
     d="m 183.64745,64.210958 5.94466,-10.868479 5.94464,10.868479 z" />
  <path
     style="fill:#23282f;fill-rule:evenodd;stroke-width:1.35385013"
     inkscape:connector-curvature="0"
     id="path840"
     d="m 197.65572,64.210958 5.94467,-10.868479 5.94464,10.868479 z" />
  <path
     style="fill:#2c3e50;fill-rule:evenodd;stroke-width:1.35385013"
     inkscape:connector-curvature="0"
     id="path842"
     d="m 155.26616,50.490756 5.94464,-10.868518 5.94466,10.868518 z" />
  <path
     style="fill:#2c3e50;fill-rule:evenodd;stroke-width:1.35385013"
     inkscape:connector-curvature="0"
     id="path844"
     d="m 169.58735,50.493234 5.94466,-10.868478 5.94465,10.868478 z" />
  <path
     style="fill:#23282f;fill-rule:evenodd;stroke-width:1.35385013"
     inkscape:connector-curvature="0"
     id="path846"
     d="m 211.30891,64.209726 5.94465,-10.86852 5.94466,10.86852 z" />
  <path
     style="fill:#000000;fill-opacity:0;fill-rule:evenodd;stroke-width:1.35385013"
     inkscape:connector-curvature="0"
     id="path848"
     d="m 116.76073,37.639755 h 16.88581 v 31.469 h -16.88581 z" />
  <path
     style="fill:#000000;fill-rule:nonzero;stroke-width:1.35385013"
     inkscape:connector-curvature="0"
     id="path850"
     d="m 128.05691,50.838912 h -9.56156 v -1.840397 h 9.56156 z m 0,4.759623 h -9.56156 v -1.840383 h 9.56156 z" />
</svg>
