<?xml version="1.0" encoding="UTF-8" standalone="no"?>
<svg
   xmlns:dc="http://purl.org/dc/elements/1.1/"
   xmlns:cc="http://creativecommons.org/ns#"
   xmlns:rdf="http://www.w3.org/1999/02/22-rdf-syntax-ns#"
   xmlns:svg="http://www.w3.org/2000/svg"
   xmlns="http://www.w3.org/2000/svg"
   xmlns:sodipodi="http://sodipodi.sourceforge.net/DTD/sodipodi-0.dtd"
   xmlns:inkscape="http://www.inkscape.org/namespaces/inkscape"
   version="1.1"
   viewBox="0 0 250 180"
   stroke-miterlimit="10"
   id="svg860"
   sodipodi:docname="consensus-w-q-5.svg"
   inkscape:version="0.92.2 2405546, 2018-03-11"
   inkscape:export-filename="/another/devel/ripple-dev-portal/img/consensus-w-q-5.png"
   inkscape:export-xdpi="96"
   inkscape:export-ydpi="96"
   width="250"
   height="180"
   style="fill:none;stroke:none;stroke-linecap:square;stroke-miterlimit:10">
  <metadata
     id="metadata866">
    <rdf:RDF>
      <cc:Work
         rdf:about="">
        <dc:format>image/svg+xml</dc:format>
        <dc:type
           rdf:resource="http://purl.org/dc/dcmitype/StillImage" />
        <dc:title></dc:title>
      </cc:Work>
    </rdf:RDF>
  </metadata>
  <defs
     id="defs864">
    <defs
       id="defs61">
      <linearGradient
         y2="19.332516"
         x2="12.007618"
         y1="19.332516"
         x1="3.4736533"
         spreadMethod="pad"
         gradientTransform="scale(8.5339645)"
         gradientUnits="userSpaceOnUse"
         id="g4186c7b241_0_549.2">
        <stop
           id="stop52"
           stop-color="#29a1da"
           offset="0.0" />
        <stop
           id="stop54"
           stop-color="#29a1da"
           offset="0.45" />
        <stop
           id="stop56"
           stop-color="#2789b9"
           offset="0.56" />
        <stop
           id="stop58"
           stop-color="#2789b9"
           offset="1.0" />
      </linearGradient>
    </defs>
    <defs
       id="defs70">
      <linearGradient
         y2="15.532056"
         x2="3.4752655"
         y1="15.532118"
         x1="12.005706"
         spreadMethod="pad"
         gradientTransform="scale(8.53044)"
         gradientUnits="userSpaceOnUse"
         id="g4186c7b241_0_549.3">
        <stop
           id="stop65"
           stop-color="#6bc1ec"
           offset="0.0" />
        <stop
           id="stop67"
           stop-color="#8ad6f4"
           offset="1.0" />
      </linearGradient>
    </defs>
    <defs
       id="defs83">
      <linearGradient
         y2="17.898199"
         x2="12.005313"
         y1="17.898199"
         x1="3.471348"
         spreadMethod="pad"
         gradientTransform="scale(8.533965)"
         gradientUnits="userSpaceOnUse"
         id="g4186c7b241_0_549.4">
        <stop
           id="stop74"
           stop-color="#dbdcdd"
           offset="0.0" />
        <stop
           id="stop76"
           stop-color="#dbdcdd"
           offset="0.41" />
        <stop
           id="stop78"
           stop-color="#b1b3b5"
           offset="0.6" />
        <stop
           id="stop80"
           stop-color="#b1b3b5"
           offset="1.0" />
      </linearGradient>
    </defs>
    <defs
       id="defs92">
      <linearGradient
         y2="10.13494"
         x2="7.9749012"
         y1="15.986627"
         x1="13.826479"
         spreadMethod="pad"
         gradientTransform="scale(8.2754575)"
         gradientUnits="userSpaceOnUse"
         id="g4186c7b241_0_549.5">
        <stop
           id="stop87"
           stop-color="#e6e7e8"
           offset="0.0" />
        <stop
           id="stop89"
           stop-color="#ffffff"
           offset="1.0" />
      </linearGradient>
    </defs>
    <defs
       id="defs131">
      <linearGradient
         y2="41.839146"
         x2="12.097349"
         y1="41.839146"
         x1="3.5633848"
         spreadMethod="pad"
         gradientTransform="scale(8.5339647)"
         gradientUnits="userSpaceOnUse"
         id="g4186c7b241_0_549.6">
        <stop
           id="stop122"
           stop-color="#29a1da"
           offset="0.0" />
        <stop
           id="stop124"
           stop-color="#29a1da"
           offset="0.45" />
        <stop
           id="stop126"
           stop-color="#2789b9"
           offset="0.56" />
        <stop
           id="stop128"
           stop-color="#2789b9"
           offset="1.0" />
      </linearGradient>
    </defs>
    <defs
       id="defs140">
      <linearGradient
         y2="38.047985"
         x2="3.5650339"
         y1="38.048046"
         x1="12.095474"
         spreadMethod="pad"
         gradientTransform="scale(8.5304407)"
         gradientUnits="userSpaceOnUse"
         id="g4186c7b241_0_549.7">
        <stop
           id="stop135"
           stop-color="#6bc1ec"
           offset="0.0" />
        <stop
           id="stop137"
           stop-color="#8ad6f4"
           offset="1.0" />
      </linearGradient>
    </defs>
    <defs
       id="defs153">
      <linearGradient
         y2="40.404831"
         x2="12.095044"
         y1="40.404831"
         x1="3.5610795"
         spreadMethod="pad"
         gradientTransform="scale(8.5339651)"
         gradientUnits="userSpaceOnUse"
         id="g4186c7b241_0_549.8">
        <stop
           id="stop144"
           stop-color="#dbdcdd"
           offset="0.0" />
        <stop
           id="stop146"
           stop-color="#dbdcdd"
           offset="0.41" />
        <stop
           id="stop148"
           stop-color="#b1b3b5"
           offset="0.6" />
        <stop
           id="stop150"
           stop-color="#b1b3b5"
           offset="1.0" />
      </linearGradient>
    </defs>
    <defs
       id="defs162">
      <linearGradient
         y2="33.344627"
         x2="8.0674343"
         y1="39.196316"
         x1="13.919013"
         spreadMethod="pad"
         gradientTransform="scale(8.2754579)"
         gradientUnits="userSpaceOnUse"
         id="g4186c7b241_0_549.9">
        <stop
           id="stop157"
           stop-color="#e6e7e8"
           offset="0.0" />
        <stop
           id="stop159"
           stop-color="#ffffff"
           offset="1.0" />
      </linearGradient>
    </defs>
    <defs
       id="defs217">
      <linearGradient
         y2="17.811033"
         x2="71.775887"
         y1="17.811033"
         x1="63.24192"
         spreadMethod="pad"
         gradientTransform="scale(8.533966)"
         gradientUnits="userSpaceOnUse"
         id="g4186c7b241_0_549.10">
        <stop
           id="stop208"
           stop-color="#29a1da"
           offset="0.0" />
        <stop
           id="stop210"
           stop-color="#29a1da"
           offset="0.45" />
        <stop
           id="stop212"
           stop-color="#2789b9"
           offset="0.56" />
        <stop
           id="stop214"
           stop-color="#2789b9"
           offset="1.0" />
      </linearGradient>
    </defs>
    <defs
       id="defs226">
      <linearGradient
         y2="14.009948"
         x2="63.268234"
         y1="14.01001"
         x1="71.798676"
         spreadMethod="pad"
         gradientTransform="scale(8.5304404)"
         gradientUnits="userSpaceOnUse"
         id="g4186c7b241_0_549.11">
        <stop
           id="stop221"
           stop-color="#6bc1ec"
           offset="0.0" />
        <stop
           id="stop223"
           stop-color="#8ad6f4"
           offset="1.0" />
      </linearGradient>
    </defs>
    <defs
       id="defs239">
      <linearGradient
         y2="16.376717"
         x2="71.773582"
         y1="16.376717"
         x1="63.239613"
         spreadMethod="pad"
         gradientTransform="scale(8.533966)"
         gradientUnits="userSpaceOnUse"
         id="g4186c7b241_0_549.12">
        <stop
           id="stop230"
           stop-color="#dbdcdd"
           offset="0.0" />
        <stop
           id="stop232"
           stop-color="#dbdcdd"
           offset="0.41" />
        <stop
           id="stop234"
           stop-color="#b1b3b5"
           offset="0.6" />
        <stop
           id="stop236"
           stop-color="#b1b3b5"
           offset="1.0" />
      </linearGradient>
    </defs>
    <defs
       id="defs248">
      <linearGradient
         y2="8.565937"
         x2="69.610222"
         y1="14.417623"
         x1="75.4618"
         spreadMethod="pad"
         gradientTransform="scale(8.2754557)"
         gradientUnits="userSpaceOnUse"
         id="g4186c7b241_0_549.13">
        <stop
           id="stop243"
           stop-color="#e6e7e8"
           offset="0.0" />
        <stop
           id="stop245"
           stop-color="#ffffff"
           offset="1.0" />
      </linearGradient>
    </defs>
    <defs
       id="defs359">
      <linearGradient
         y2="40.741791"
         x2="70.346825"
         y1="40.741791"
         x1="61.812862"
         spreadMethod="pad"
         gradientTransform="matrix(8.533966,0,0,8.533966,-503.49257,-189.68075)"
         gradientUnits="userSpaceOnUse"
         id="g4186c7b241_0_549.14">
        <stop
           id="stop350"
           stop-color="#29a1da"
           offset="0.0" />
        <stop
           id="stop352"
           stop-color="#29a1da"
           offset="0.45" />
        <stop
           id="stop354"
           stop-color="#2789b9"
           offset="0.56" />
        <stop
           id="stop356"
           stop-color="#2789b9"
           offset="1.0" />
      </linearGradient>
    </defs>
    <defs
       id="defs368">
      <linearGradient
         y2="36.95018"
         x2="61.838585"
         y1="36.950241"
         x1="70.369026"
         spreadMethod="pad"
         gradientTransform="matrix(8.5304404,0,0,8.5304404,-503.49257,-189.68075)"
         gradientUnits="userSpaceOnUse"
         id="g4186c7b241_0_549.15">
        <stop
           id="stop363"
           stop-color="#6bc1ec"
           offset="0.0" />
        <stop
           id="stop365"
           stop-color="#8ad6f4"
           offset="1.0" />
      </linearGradient>
    </defs>
    <defs
       id="defs381">
      <linearGradient
         y2="39.307472"
         x2="70.344521"
         y1="39.307472"
         x1="61.810555"
         spreadMethod="pad"
         gradientTransform="matrix(8.533966,0,0,8.533966,-503.49257,-189.68075)"
         gradientUnits="userSpaceOnUse"
         id="g4186c7b241_0_549.16">
        <stop
           id="stop372"
           stop-color="#dbdcdd"
           offset="0.0" />
        <stop
           id="stop374"
           stop-color="#dbdcdd"
           offset="0.41" />
        <stop
           id="stop376"
           stop-color="#b1b3b5"
           offset="0.6" />
        <stop
           id="stop378"
           stop-color="#b1b3b5"
           offset="1.0" />
      </linearGradient>
    </defs>
    <defs
       id="defs390">
      <linearGradient
         y2="32.212994"
         x2="68.136497"
         y1="38.064682"
         x1="73.988075"
         spreadMethod="pad"
         gradientTransform="matrix(8.275459,0,0,8.275459,-503.49257,-189.68075)"
         gradientUnits="userSpaceOnUse"
         id="g4186c7b241_0_549.17">
        <stop
           id="stop385"
           stop-color="#e6e7e8"
           offset="0.0" />
        <stop
           id="stop387"
           stop-color="#ffffff"
           offset="1.0" />
      </linearGradient>
    </defs>
    <defs
       id="defs713">
      <linearGradient
         y2="73.486526"
         x2="11.202056"
         y1="73.486526"
         x1="4.2533054"
         spreadMethod="pad"
         gradientTransform="scale(6.9487505)"
         gradientUnits="userSpaceOnUse"
         id="g4186c7b241_0_549.18">
        <stop
           id="stop704"
           stop-color="#29a1da"
           offset="0.0" />
        <stop
           id="stop706"
           stop-color="#29a1da"
           offset="0.45" />
        <stop
           id="stop708"
           stop-color="#2789b9"
           offset="0.56" />
        <stop
           id="stop710"
           stop-color="#2789b9"
           offset="1.0" />
      </linearGradient>
    </defs>
    <defs
       id="defs722">
      <linearGradient
         y2="70.415878"
         x2="4.2552071"
         y1="70.415932"
         x1="11.201087"
         spreadMethod="pad"
         gradientTransform="scale(6.9458803)"
         gradientUnits="userSpaceOnUse"
         id="g4186c7b241_0_549.19">
        <stop
           id="stop717"
           stop-color="#6bc1ec"
           offset="0.0" />
        <stop
           id="stop719"
           stop-color="#8ad6f4"
           offset="1.0" />
      </linearGradient>
    </defs>
    <defs
       id="defs735">
      <linearGradient
         y2="72.318642"
         x2="11.200179"
         y1="72.318642"
         x1="4.2514286"
         spreadMethod="pad"
         gradientTransform="scale(6.9487505)"
         gradientUnits="userSpaceOnUse"
         id="g4186c7b241_0_549.20">
        <stop
           id="stop726"
           stop-color="#dbdcdd"
           offset="0.0" />
        <stop
           id="stop728"
           stop-color="#dbdcdd"
           offset="0.41" />
        <stop
           id="stop730"
           stop-color="#b1b3b5"
           offset="0.6" />
        <stop
           id="stop732"
           stop-color="#b1b3b5"
           offset="1.0" />
      </linearGradient>
    </defs>
    <defs
       id="defs744">
      <linearGradient
         y2="67.801277"
         x2="7.9629421"
         y1="72.565987"
         x1="12.727568"
         spreadMethod="pad"
         gradientTransform="scale(6.7382612)"
         gradientUnits="userSpaceOnUse"
         id="g4186c7b241_0_549.21">
        <stop
           id="stop739"
           stop-color="#e6e7e8"
           offset="0.0" />
        <stop
           id="stop741"
           stop-color="#ffffff"
           offset="1.0" />
      </linearGradient>
    </defs>
    <defs
       id="defs761">
      <linearGradient
         y2="73.371712"
         x2="24.888123"
         y1="73.371712"
         x1="17.939371"
         spreadMethod="pad"
         gradientTransform="scale(6.9487499)"
         gradientUnits="userSpaceOnUse"
         id="g4186c7b241_0_549.22">
        <stop
           id="stop752"
           stop-color="#29a1da"
           offset="0.0" />
        <stop
           id="stop754"
           stop-color="#29a1da"
           offset="0.45" />
        <stop
           id="stop756"
           stop-color="#2789b9"
           offset="0.56" />
        <stop
           id="stop758"
           stop-color="#2789b9"
           offset="1.0" />
      </linearGradient>
    </defs>
    <defs
       id="defs770">
      <linearGradient
         y2="70.300987"
         x2="17.946922"
         y1="70.301041"
         x1="24.892805"
         spreadMethod="pad"
         gradientTransform="scale(6.9458818)"
         gradientUnits="userSpaceOnUse"
         id="g4186c7b241_0_549.23">
        <stop
           id="stop765"
           stop-color="#6bc1ec"
           offset="0.0" />
        <stop
           id="stop767"
           stop-color="#8ad6f4"
           offset="1.0" />
      </linearGradient>
    </defs>
    <defs
       id="defs783">
      <linearGradient
         y2="72.203819"
         x2="24.886246"
         y1="72.203819"
         x1="17.937494"
         spreadMethod="pad"
         gradientTransform="scale(6.9487499)"
         gradientUnits="userSpaceOnUse"
         id="g4186c7b241_0_549.24">
        <stop
           id="stop774"
           stop-color="#dbdcdd"
           offset="0.0" />
        <stop
           id="stop776"
           stop-color="#dbdcdd"
           offset="0.41" />
        <stop
           id="stop778"
           stop-color="#b1b3b5"
           offset="0.6" />
        <stop
           id="stop780"
           stop-color="#b1b3b5"
           offset="1.0" />
      </linearGradient>
    </defs>
    <defs
       id="defs792">
      <linearGradient
         y2="67.682861"
         x2="22.07653"
         y1="72.447578"
         x1="26.841156"
         spreadMethod="pad"
         gradientTransform="scale(6.7382612)"
         gradientUnits="userSpaceOnUse"
         id="g4186c7b241_0_549.25">
        <stop
           id="stop787"
           stop-color="#e6e7e8"
           offset="0.0" />
        <stop
           id="stop789"
           stop-color="#ffffff"
           offset="1.0" />
      </linearGradient>
    </defs>
  </defs>
  <sodipodi:namedview
     pagecolor="#ffffff"
     bordercolor="#666666"
     borderopacity="1"
     objecttolerance="10"
     gridtolerance="10"
     guidetolerance="10"
     inkscape:pageopacity="1"
     inkscape:pageshadow="2"
     inkscape:window-width="1920"
     inkscape:window-height="1022"
     id="namedview862"
     showgrid="false"
     inkscape:zoom="1.0041667"
     inkscape:cx="-231.34625"
     inkscape:cy="217.19111"
     inkscape:window-x="1920"
     inkscape:window-y="1"
     inkscape:window-maximized="1"
     inkscape:current-layer="svg860"
     fit-margin-top="20"
     fit-margin-left="20"
     fit-margin-right="20"
     fit-margin-bottom="20" />
  <clipPath
     id="g4186c7b241_0_549.0">
    <path
       d="M 0,0 H 960 V 540 H 0 Z"
       id="path2"
       inkscape:connector-curvature="0"
       style="clip-rule:nonzero" />
  </clipPath>
  <path
     style="fill:#000000;fill-opacity:0;fill-rule:evenodd"
     inkscape:connector-curvature="0"
     id="path272"
     d="m 125.74889,115.45705 h 77.24932 v 40.66144 h -77.24932 z" />
  <path
     style="fill:#000000;fill-opacity:0;fill-rule:evenodd"
     inkscape:connector-curvature="0"
     id="path274"
     d="m 135.40507,115.45705 v 40.66144 m -9.65619,-35.57877 h 77.24933" />
  <path
     style="fill:#000000;fill-opacity:0;fill-rule:evenodd"
     inkscape:connector-curvature="0"
     id="path276"
     d="m 125.74889,115.45705 h 77.24932 v 40.66144 h -77.24932 z" />
  <path
     style="fill-rule:evenodd;stroke:#2c3e50;stroke-width:1;stroke-linecap:butt;stroke-linejoin:round"
     inkscape:connector-curvature="0"
     id="path278"
     d="m 135.40507,115.45705 v 40.66144 m -9.65619,-35.57877 h 77.24933" />
  <path
     style="fill-rule:evenodd;stroke:#2c3e50;stroke-width:1;stroke-linecap:butt;stroke-linejoin:round"
     inkscape:connector-curvature="0"
     id="path280"
     d="m 125.74889,115.45705 h 77.24932 v 40.66144 h -77.24932 z" />
  <path
     style="fill:#000000;fill-opacity:0;fill-rule:evenodd"
     inkscape:connector-curvature="0"
     id="path282"
     d="m 140.53342,138.46543 6.23622,-11.40158 6.2362,11.40158 z" />
  <path
     style="fill-rule:evenodd;stroke:#21aa47;stroke-width:1;stroke-linecap:butt;stroke-linejoin:round;stroke-dasharray:4, 3"
     inkscape:connector-curvature="0"
     id="path284"
     d="m 140.53342,138.46543 6.23622,-11.40158 6.2362,11.40158 z" />
  <path
     style="fill:#000000;fill-opacity:0;fill-rule:evenodd"
     inkscape:connector-curvature="0"
     id="path286"
     d="m 155.36283,138.46675 6.23621,-11.40158 6.2362,11.40158 z" />
  <path
     style="fill-rule:evenodd;stroke:#21aa47;stroke-width:1;stroke-linecap:butt;stroke-linejoin:round;stroke-dasharray:4, 3"
     inkscape:connector-curvature="0"
     id="path288"
     d="m 155.36283,138.46675 6.23621,-11.40158 6.2362,11.40158 z" />
  <path
     inkscape:connector-curvature="0"
     style="fill:url(#g4186c7b241_0_549.14);fill-rule:evenodd"
     id="path361"
     d="m 96.844827,137.5824 v 0 c 0,8.37527 0,8.37527 0,8.37527 0,0.23087 -0.23065,0.46189 -0.93048,0.70044 -33.73785,11.17691 -33.73785,11.17691 -33.73785,11.17691 -0.93049,0.23102 -2.55414,0.23102 -3.71528,0 -33.74511,-11.17691 -33.74511,-11.17691 -33.74511,-11.17691 -0.23127,0 -0.46192,-0.23855 -0.46192,-0.23855 -0.23791,-0.23102 -0.23791,-0.23102 -0.23791,-0.46189 0,-8.37527 0,-8.37527 0,-8.37527 h 72.82855" />
  <path
     inkscape:connector-curvature="0"
     style="fill:url(#g4186c7b241_0_549.15);fill-rule:evenodd"
     id="path370"
     d="m 62.176827,149.42995 v 0 c 33.73834,-11.16412 33.73834,-11.16412 33.73834,-11.16412 1.1612,-0.46918 1.1612,-0.93088 0,-1.40006 -33.73834,-11.1716 -33.73834,-11.1716 -33.73834,-11.1716 -0.93085,-0.23077 -2.78473,-0.23077 -3.71564,0 -33.74566,11.1716 -33.74566,11.1716 -33.74566,11.1716 -0.93024,0.46918 -0.93024,0.93088 0,1.40006 33.74566,11.16412 33.74566,11.16412 33.74566,11.16412 1.16181,0.23096 2.78479,0.23096 3.71564,0" />
  <path
     inkscape:connector-curvature="0"
     style="fill:url(#g4186c7b241_0_549.16);fill-rule:evenodd"
     id="path383"
     d="m 96.825177,125.34202 v 0 c 0,8.37524 0,8.37524 0,8.37524 0,0.23087 -0.23065,0.46189 -0.93048,0.70044 -33.73785,11.17691 -33.73785,11.17691 -33.73785,11.17691 -0.93049,0.23105 -2.55414,0.23105 -3.71528,0 -33.74511,-11.17691 -33.74511,-11.17691 -33.74511,-11.17691 -0.23127,0 -0.46192,-0.23855 -0.46192,-0.23855 -0.23791,-0.23102 -0.23791,-0.23102 -0.23791,-0.46189 0,-8.37524 0,-8.37524 0,-8.37524 h 72.82855" />
  <path
     inkscape:connector-curvature="0"
     style="fill:url(#g4186c7b241_0_549.17);fill-rule:evenodd"
     id="path392"
     d="m 62.142427,137.18955 v 0 c 33.73834,-11.16415 33.73834,-11.16415 33.73834,-11.16415 1.1612,-0.46918 1.1612,-0.93088 0,-1.40006 -33.73834,-11.1716 -33.73834,-11.1716 -33.73834,-11.1716 -0.93091,-0.23074 -2.78473,-0.23074 -3.71564,0 -33.74566,11.1716 -33.74566,11.1716 -33.74566,11.1716 -0.9303,0.46918 -0.9303,0.93088 0,1.40006 33.74566,11.16415 33.74566,11.16415 33.74566,11.16415 1.16181,0.23096 2.78473,0.23096 3.71564,0" />
  <path
     style="fill:#23292f;fill-rule:evenodd"
     inkscape:connector-curvature="0"
     id="path394"
     d="m 40.981797,94.240754 11.73731,11.986756 0.4002,0.39298 0.41913,0.37329 0.43829,0.33414 0.45722,0.31442 0.4574,0.29471 0.45727,0.27511 0.47638,0.23588 0.4953,0.21612 0.49555,0.19641 0.4953,0.15732 0.51446,0.13754 0.51447,0.11786 0.51446,0.0983 0.51447,0.0588 0.53357,0.0393 h 1.02874 l 0.53363,-0.0393 0.51447,-0.0588 0.51447,-0.0983 0.51446,-0.11786 0.51441,-0.13754 0.49536,-0.15732 0.49548,-0.19641 0.47638,-0.21612 0.49536,-0.23588 0.4574,-0.27511 0.45721,-0.29471 0.45728,-0.31442 0.43829,-0.33414 0.41913,-0.37329 0.40021,-0.39298 11.7373,-11.986756 h -5.64013 l -8.91718,9.098086 -0.26678,0.25544 -0.26679,0.23584 -0.26678,0.21615 -0.28577,0.19657 -0.28577,0.19641 -0.30487,0.15728 -0.30487,0.15714 -0.30487,0.13757 -0.30493,0.11786 -0.32385,0.0983 -0.32398,0.0983 -0.32385,0.0786 -0.32404,0.059 -0.32385,0.0393 -0.34295,0.0196 h -0.64783 l -0.34302,-0.0196 -0.32385,-0.0393 -0.32398,-0.059 -0.32385,-0.0786 -0.32403,-0.0983 -0.32386,-0.0983 -0.30487,-0.11786 -0.30487,-0.13757 -0.30487,-0.15714 -0.30487,-0.15728 -0.28577,-0.19641 -0.28576,-0.19657 -0.26679,-0.21615 -0.26684,-0.23584 -0.26679,-0.25544 -8.91717,-9.098086 z" />
  <path
     style="fill:#23292f;fill-rule:evenodd"
     inkscape:connector-curvature="0"
     id="path396"
     d="m 59.902567,112.26008 -0.53357,0.0393 -0.51446,0.0787 -0.51447,0.0786 -0.51447,0.11786 -0.51446,0.13758 -0.4953,0.15728 -0.49555,0.19641 -0.4953,0.21616 -0.47638,0.23584 -0.45727,0.27515 -0.4574,0.29471 -0.45721,0.31442 -0.4383,0.3537 -0.41912,0.3537 -0.40021,0.393 -11.81348,12.06531 h 5.63995 l 8.99347,-9.17667 0.26679,-0.25555 0.26684,-0.23572 0.26679,-0.21612 0.28577,-0.19657 0.28576,-0.17688 0.30487,-0.17685 0.30487,-0.15713 0.30487,-0.13758 0.30487,-0.11798 0.32386,-0.0981 0.32403,-0.0983 0.32386,-0.059 0.32397,-0.0588 0.32385,-0.0395 0.34302,-0.0393 h 0.64783 l 0.34295,0.0393 0.32386,0.0395 0.32403,0.0588 0.32385,0.059 0.32398,0.0983 0.32385,0.0981 0.30493,0.11798 0.30487,0.13758 0.30487,0.15713 0.30487,0.17685 0.28577,0.17688 0.28577,0.19657 0.26678,0.21612 0.26679,0.23572 0.26678,0.25555 8.99353,9.17667 h 5.63996 l -11.81348,-12.06531 -0.40021,-0.393 -0.41913,-0.3537 -0.43829,-0.3537 -0.45728,-0.31442 -0.45721,-0.29471 -0.4574,-0.27515 -0.47638,-0.23584 -0.49536,-0.21616 -0.49548,-0.19641 -0.49536,-0.15728 -0.51441,-0.13758 -0.51446,-0.11786 -0.51447,-0.0786 -0.51446,-0.0787 -0.53363,-0.0393 z" />
  <path
     style="fill:#000000;fill-opacity:0;fill-rule:evenodd"
     inkscape:connector-curvature="0"
     id="path398"
     d="m 90.579827,53.202384 c -0.98895,-5.13536 2.25775,-10.21907 8.36237,-13.09392 6.104613,-2.87486 13.996463,-3.0367 20.326903,-0.41682 v 0 c 2.24231,-2.98612 6.3465,-5.04784 11.07111,-5.5615 4.72461,-0.51367 9.5147,0.58107 12.9212,2.95305 v 0 c 1.91022,-2.70736 5.66101,-4.52638 9.92139,-4.81154 4.26037,-0.28515 8.42736,1.0039 11.02234,3.40972 v 0 c 3.45111,-2.86963 8.94195,-4.07785 14.09655,-3.10187 5.15461,0.97598 9.04718,3.96089 9.99341,7.66315 v 0 c 4.22809,0.815 7.74994,2.88681 9.6557,5.68016 1.90576,2.79333 2.00849,6.03419 0.28162,8.88524 v 0 c 4.1637,3.82925 5.13776,8.93173 2.55865,13.40326 -2.5791,4.47152 -8.32391,7.64032 -15.09051,8.32376 -0.0477,4.19684 -3.30463,8.04779 -8.5155,10.06851 -5.21088,2.02072 -11.56189,1.89569 -16.60511,-0.32697 -2.14813,5.02643 -8.19464,8.72483 -15.5271,9.49735 -7.33246,0.77249 -14.63641,-1.51935 -18.75622,-5.88541 -5.04999,2.15201 -11.10956,2.77194 -16.81183,1.71994 -5.70227,-1.05197 -10.566843,-3.68728 -13.496343,-7.3114 v 0 c -5.16046,0.42676 -10.14984,-1.46265 -12.49207,-4.73047 -2.34222,-3.26785 -1.53863,-7.2185 2.01197,-9.89129 v 0 c -4.60352,-1.91465 -6.95246,-5.71399 -5.82202,-9.41681 1.13037,-3.70281 5.48407,-6.47002 10.79071,-6.85861 z" />
  <path
     style="fill:#000000;fill-opacity:0;fill-rule:evenodd"
     inkscape:connector-curvature="0"
     id="path400"
     d="m 91.679787,104.22223 c 0,0.97943 -0.79395,1.77341 -1.77338,1.77341 -0.97943,0 -1.77337,-0.79398 -1.77337,-1.77341 0,-0.97943 0.79394,-1.77341 1.77337,-1.77341 0.97943,0 1.77338,0.79398 1.77338,1.77341 z" />
  <path
     style="fill:#000000;fill-opacity:0;fill-rule:evenodd"
     inkscape:connector-curvature="0"
     id="path402"
     d="m 98.282877,100.41541 c 0,1.95884 -1.58795,3.54682 -3.54681,3.54682 -1.95887,0 -3.54682,-1.58798 -3.54682,-3.54682 0,-1.958861 1.58795,-3.546806 3.54682,-3.546806 1.95886,0 3.54681,1.587945 3.54681,3.546806 z" />
  <path
     style="fill:#000000;fill-opacity:0;fill-rule:evenodd"
     inkscape:connector-curvature="0"
     id="path404"
     d="m 107.67149,94.412974 c 0,2.93826 -2.38197,5.320215 -5.32025,5.320215 -2.938233,0 -5.320193,-2.381955 -5.320193,-5.320215 0,-2.93826 2.38196,-5.32019 5.320193,-5.32019 2.93829,0 5.32025,2.38193 5.32025,5.32019 z" />
  <path
     style="fill:#000000;fill-opacity:0;fill-rule:evenodd"
     inkscape:connector-curvature="0"
     id="path406"
     d="m 92.831587,70.602124 v 0 c -2.50989,0.13885 -5.01947,-0.27103 -7.19183,-1.17453 m 13.53717,14.02817 c -1.00928,0.2839 -2.0672,0.4729 -3.14649,0.56216 m 30.259103,5.61408 v 0 c -0.7591,-0.80448 -1.39467,-1.66413 -1.89582,-2.5643 m 36.95575,-3.83008 c -0.11163,0.95419 -0.36535,1.89734 -0.75702,2.81369 m 15.80921,-20.19853 v 0 c 5.6903,1.9568 9.28125,6.0478 9.23047,10.51588 m 12.54223,-21.71599 c -0.92157,1.52144 -2.32837,2.87108 -4.11023,3.94313 m -5.75275,-18.57423 v 0 c 0.15705,0.61439 0.22974,1.23804 0.21704,1.86226 m -26.46662,-4.0345 v 0 c 0.53553,-0.85915 1.24482,-1.65909 2.10572,-2.37493 m -21.79986,3.50654 v 0 c 0.21851,-0.71 0.5611,-1.39803 1.01984,-2.04822 m -24.13312,2.74409 v 0 c 1.33954,0.55437 2.57873,1.22161 3.69049,1.98706 m -31.720403,13.62989 v 0 c -0.29242,-0.68381 -0.50775,-1.38288 -0.64404,-2.09069" />
  <path
     style="fill-rule:evenodd;stroke:#2c3e50;stroke-width:1;stroke-linecap:butt;stroke-linejoin:round"
     inkscape:connector-curvature="0"
     id="path408"
     d="m 90.579827,53.202384 c -0.98895,-5.13536 2.25775,-10.21907 8.36237,-13.09392 6.104613,-2.87486 13.996463,-3.0367 20.326903,-0.41682 v 0 c 2.24231,-2.98612 6.3465,-5.04784 11.07111,-5.5615 4.72461,-0.51367 9.5147,0.58107 12.9212,2.95305 v 0 c 1.91022,-2.70736 5.66101,-4.52638 9.92139,-4.81154 4.26037,-0.28515 8.42736,1.0039 11.02234,3.40972 v 0 c 3.45111,-2.86963 8.94195,-4.07785 14.09655,-3.10187 5.15461,0.97598 9.04718,3.96089 9.99341,7.66315 v 0 c 4.22809,0.815 7.74994,2.88681 9.6557,5.68016 1.90576,2.79333 2.00849,6.03419 0.28162,8.88524 v 0 c 4.1637,3.82925 5.13776,8.93173 2.55865,13.40326 -2.5791,4.47152 -8.32391,7.64032 -15.09051,8.32376 -0.0477,4.19684 -3.30463,8.04779 -8.5155,10.06851 -5.21088,2.02072 -11.56189,1.89569 -16.60511,-0.32697 -2.14813,5.02643 -8.19464,8.72483 -15.5271,9.49735 -7.33246,0.77249 -14.63641,-1.51935 -18.75622,-5.88541 -5.04999,2.15201 -11.10956,2.77194 -16.81183,1.71994 -5.70227,-1.05197 -10.566843,-3.68728 -13.496343,-7.3114 v 0 c -5.16046,0.42676 -10.14984,-1.46265 -12.49207,-4.73047 -2.34222,-3.26785 -1.53863,-7.2185 2.01197,-9.89129 v 0 c -4.60352,-1.91465 -6.95246,-5.71399 -5.82202,-9.41681 1.13037,-3.70281 5.48407,-6.47002 10.79071,-6.85861 z" />
  <path
     style="fill-rule:evenodd;stroke:#2c3e50;stroke-width:1;stroke-linecap:butt;stroke-linejoin:round"
     inkscape:connector-curvature="0"
     id="path410"
     d="m 91.679787,104.22223 c 0,0.97943 -0.79395,1.77341 -1.77338,1.77341 -0.97943,0 -1.77337,-0.79398 -1.77337,-1.77341 0,-0.97943 0.79394,-1.77341 1.77337,-1.77341 0.97943,0 1.77338,0.79398 1.77338,1.77341 z" />
  <path
     style="fill-rule:evenodd;stroke:#2c3e50;stroke-width:1;stroke-linecap:butt;stroke-linejoin:round"
     inkscape:connector-curvature="0"
     id="path412"
     d="m 98.282877,100.41541 c 0,1.95884 -1.58795,3.54682 -3.54681,3.54682 -1.95887,0 -3.54682,-1.58798 -3.54682,-3.54682 0,-1.958861 1.58795,-3.546806 3.54682,-3.546806 1.95886,0 3.54681,1.587945 3.54681,3.546806 z" />
  <path
     style="fill-rule:evenodd;stroke:#2c3e50;stroke-width:1;stroke-linecap:butt;stroke-linejoin:round"
     inkscape:connector-curvature="0"
     id="path414"
     d="m 107.67149,94.412974 c 0,2.93826 -2.38197,5.320215 -5.32025,5.320215 -2.938233,0 -5.320193,-2.381955 -5.320193,-5.320215 0,-2.93826 2.38196,-5.32019 5.320193,-5.32019 2.93829,0 5.32025,2.38193 5.32025,5.32019 z" />
  <path
     style="fill-rule:evenodd;stroke:#2c3e50;stroke-width:1;stroke-linecap:butt;stroke-linejoin:round"
     inkscape:connector-curvature="0"
     id="path416"
     d="m 92.831587,70.602124 v 0 c -2.50989,0.13885 -5.01947,-0.27103 -7.19183,-1.17453 m 13.53717,14.02817 c -1.00928,0.2839 -2.0672,0.4729 -3.14649,0.56216 m 30.259103,5.61408 v 0 c -0.7591,-0.80448 -1.39467,-1.66413 -1.89582,-2.5643 m 36.95575,-3.83008 c -0.11163,0.95419 -0.36535,1.89734 -0.75702,2.81369 m 15.80921,-20.19853 v 0 c 5.6903,1.9568 9.28125,6.0478 9.23047,10.51588 m 12.54223,-21.71599 c -0.92157,1.52144 -2.32837,2.87108 -4.11023,3.94313 m -5.75275,-18.57423 v 0 c 0.15705,0.61439 0.22974,1.23804 0.21704,1.86226 m -26.46662,-4.0345 v 0 c 0.53553,-0.85915 1.24482,-1.65909 2.10572,-2.37493 m -21.79986,3.50654 v 0 c 0.21851,-0.71 0.5611,-1.39803 1.01984,-2.04822 m -24.13312,2.74409 v 0 c 1.33954,0.55437 2.57873,1.22161 3.69049,1.98706 m -31.720403,13.62989 v 0 c -0.29242,-0.68381 -0.50775,-1.38288 -0.64404,-2.09069" />
  <path
     style="fill:#21aa47;fill-rule:evenodd"
     inkscape:connector-curvature="0"
     id="path418"
     d="m 118.10403,60.952294 6.23627,-11.40157 6.2362,11.40157 z" />
  <path
     style="fill:#23282f;fill-rule:evenodd"
     inkscape:connector-curvature="0"
     id="path420"
     d="m 132.79943,60.952294 6.23621,-11.40157 6.2362,11.40157 z" />
  <path
     style="fill:#23282f;fill-rule:evenodd"
     inkscape:connector-curvature="0"
     id="path422"
     d="m 147.49473,60.952294 6.23621,-11.40157 6.2362,11.40157 z" />
  <path
     style="fill:#23282f;fill-rule:evenodd"
     inkscape:connector-curvature="0"
     id="path424"
     d="m 162.19003,60.952294 6.23621,-11.40157 6.23626,11.40157 z" />
  <path
     style="fill:#23282f;fill-rule:evenodd"
     inkscape:connector-curvature="0"
     id="path426"
     d="m 103.77553,75.313354 6.23621,-11.40157 6.2362,11.40157 z" />
  <path
     style="fill:#23282f;fill-rule:evenodd"
     inkscape:connector-curvature="0"
     id="path428"
     d="m 118.47087,75.313354 6.23621,-11.40157 6.2362,11.40157 z" />
  <path
     style="fill:#23282f;fill-rule:evenodd"
     inkscape:connector-curvature="0"
     id="path430"
     d="m 133.16618,75.313354 6.23621,-11.40157 6.23626,11.40157 z" />
  <path
     style="fill:#23282f;fill-rule:evenodd"
     inkscape:connector-curvature="0"
     id="path432"
     d="m 147.86149,75.313354 6.23627,-11.40157 6.2362,11.40157 z" />
  <path
     style="fill:#21aa47;fill-rule:evenodd"
     inkscape:connector-curvature="0"
     id="path434"
     d="m 103.40599,60.920204 6.23621,-11.40158 6.2362,11.40158 z" />
  <path
     style="fill:#23282f;fill-rule:evenodd"
     inkscape:connector-curvature="0"
     id="path436"
     d="m 162.18436,75.310754 6.23622,-11.40157 6.2362,11.40157 z" />
  <path
     style="fill:#000000;fill-opacity:0;fill-rule:evenodd"
     inkscape:connector-curvature="0"
     id="path438"
     d="m 170.90633,131.21861 c 20.03662,-12.8165 42.77179,-29.24714 48,-51.796786 2.81818,-12.15473 -2.39282,-26.2475 -10.50128,-35.97127 -13.38324,-16.04933 -39.54047,-23.05251 -60.75067,-20.1432 -14.17597,1.94445 -34.51892,16.46197 -30,29.49603" />
  <path
     style="fill-rule:evenodd;stroke:#e64b3b;stroke-width:1;stroke-linecap:butt;stroke-linejoin:round"
     inkscape:connector-curvature="0"
     id="path440"
     d="m 170.90633,131.21861 c 20.03668,-12.8165 42.77179,-29.24714 48,-51.796786 2.81818,-12.15473 -2.39276,-26.2475 -10.50128,-35.97127 -13.3833,-16.04935 -39.54047,-23.05251 -60.75067,-20.14319 -7.08795,0.97223 -15.71765,5.08771 -22.01056,10.5894 -3.14643,2.75086 -5.70868,5.84824 -7.20185,9.07257 -0.37329,0.80606 -0.67975,1.62007 -0.91187,2.43859 -0.11603,0.40925 -0.21349,0.81962 -0.29138,1.23072 l -0.0322,0.18146" />
  <path
     style="fill:#e64b3b;fill-rule:evenodd;stroke:#e64b3b;stroke-width:1;stroke-linecap:butt"
     inkscape:connector-curvature="0"
     id="path442"
     d="m 115.55943,46.943414 1.98584,4.40215 1.30841,-4.64873 z" />
</svg>
