<?xml version="1.0" encoding="UTF-8" standalone="no"?>
<svg
   xmlns:dc="http://purl.org/dc/elements/1.1/"
   xmlns:cc="http://creativecommons.org/ns#"
   xmlns:rdf="http://www.w3.org/1999/02/22-rdf-syntax-ns#"
   xmlns:svg="http://www.w3.org/2000/svg"
   xmlns="http://www.w3.org/2000/svg"
   xmlns:sodipodi="http://sodipodi.sourceforge.net/DTD/sodipodi-0.dtd"
   xmlns:inkscape="http://www.inkscape.org/namespaces/inkscape"
   version="1.1"
   viewBox="0 0 250 180"
   stroke-miterlimit="10"
   id="svg860"
   sodipodi:docname="consensus-w-q-6.svg"
   inkscape:version="0.92.2 2405546, 2018-03-11"
   width="250"
   height="180"
   style="fill:none;stroke:none;stroke-linecap:square;stroke-miterlimit:10"
   inkscape:export-filename="/another/devel/ripple-dev-portal/img/consensus-w-q-6.png"
   inkscape:export-xdpi="96"
   inkscape:export-ydpi="96">
  <metadata
     id="metadata866">
    <rdf:RDF>
      <cc:Work
         rdf:about="">
        <dc:format>image/svg+xml</dc:format>
        <dc:type
           rdf:resource="http://purl.org/dc/dcmitype/StillImage" />
        <dc:title></dc:title>
      </cc:Work>
    </rdf:RDF>
  </metadata>
  <defs
     id="defs864">
    <defs
       id="defs61">
      <linearGradient
         y2="19.332516"
         x2="12.007618"
         y1="19.332516"
         x1="3.4736533"
         spreadMethod="pad"
         gradientTransform="scale(8.5339645)"
         gradientUnits="userSpaceOnUse"
         id="g4186c7b241_0_549.2">
        <stop
           id="stop52"
           stop-color="#29a1da"
           offset="0.0" />
        <stop
           id="stop54"
           stop-color="#29a1da"
           offset="0.45" />
        <stop
           id="stop56"
           stop-color="#2789b9"
           offset="0.56" />
        <stop
           id="stop58"
           stop-color="#2789b9"
           offset="1.0" />
      </linearGradient>
    </defs>
    <defs
       id="defs70">
      <linearGradient
         y2="15.532056"
         x2="3.4752655"
         y1="15.532118"
         x1="12.005706"
         spreadMethod="pad"
         gradientTransform="scale(8.53044)"
         gradientUnits="userSpaceOnUse"
         id="g4186c7b241_0_549.3">
        <stop
           id="stop65"
           stop-color="#6bc1ec"
           offset="0.0" />
        <stop
           id="stop67"
           stop-color="#8ad6f4"
           offset="1.0" />
      </linearGradient>
    </defs>
    <defs
       id="defs83">
      <linearGradient
         y2="17.898199"
         x2="12.005313"
         y1="17.898199"
         x1="3.471348"
         spreadMethod="pad"
         gradientTransform="scale(8.533965)"
         gradientUnits="userSpaceOnUse"
         id="g4186c7b241_0_549.4">
        <stop
           id="stop74"
           stop-color="#dbdcdd"
           offset="0.0" />
        <stop
           id="stop76"
           stop-color="#dbdcdd"
           offset="0.41" />
        <stop
           id="stop78"
           stop-color="#b1b3b5"
           offset="0.6" />
        <stop
           id="stop80"
           stop-color="#b1b3b5"
           offset="1.0" />
      </linearGradient>
    </defs>
    <defs
       id="defs92">
      <linearGradient
         y2="10.13494"
         x2="7.9749012"
         y1="15.986627"
         x1="13.826479"
         spreadMethod="pad"
         gradientTransform="scale(8.2754575)"
         gradientUnits="userSpaceOnUse"
         id="g4186c7b241_0_549.5">
        <stop
           id="stop87"
           stop-color="#e6e7e8"
           offset="0.0" />
        <stop
           id="stop89"
           stop-color="#ffffff"
           offset="1.0" />
      </linearGradient>
    </defs>
    <defs
       id="defs131">
      <linearGradient
         y2="41.839146"
         x2="12.097349"
         y1="41.839146"
         x1="3.5633848"
         spreadMethod="pad"
         gradientTransform="scale(8.5339647)"
         gradientUnits="userSpaceOnUse"
         id="g4186c7b241_0_549.6">
        <stop
           id="stop122"
           stop-color="#29a1da"
           offset="0.0" />
        <stop
           id="stop124"
           stop-color="#29a1da"
           offset="0.45" />
        <stop
           id="stop126"
           stop-color="#2789b9"
           offset="0.56" />
        <stop
           id="stop128"
           stop-color="#2789b9"
           offset="1.0" />
      </linearGradient>
    </defs>
    <defs
       id="defs140">
      <linearGradient
         y2="38.047985"
         x2="3.5650339"
         y1="38.048046"
         x1="12.095474"
         spreadMethod="pad"
         gradientTransform="scale(8.5304407)"
         gradientUnits="userSpaceOnUse"
         id="g4186c7b241_0_549.7">
        <stop
           id="stop135"
           stop-color="#6bc1ec"
           offset="0.0" />
        <stop
           id="stop137"
           stop-color="#8ad6f4"
           offset="1.0" />
      </linearGradient>
    </defs>
    <defs
       id="defs153">
      <linearGradient
         y2="40.404831"
         x2="12.095044"
         y1="40.404831"
         x1="3.5610795"
         spreadMethod="pad"
         gradientTransform="scale(8.5339651)"
         gradientUnits="userSpaceOnUse"
         id="g4186c7b241_0_549.8">
        <stop
           id="stop144"
           stop-color="#dbdcdd"
           offset="0.0" />
        <stop
           id="stop146"
           stop-color="#dbdcdd"
           offset="0.41" />
        <stop
           id="stop148"
           stop-color="#b1b3b5"
           offset="0.6" />
        <stop
           id="stop150"
           stop-color="#b1b3b5"
           offset="1.0" />
      </linearGradient>
    </defs>
    <defs
       id="defs162">
      <linearGradient
         y2="33.344627"
         x2="8.0674343"
         y1="39.196316"
         x1="13.919013"
         spreadMethod="pad"
         gradientTransform="scale(8.2754579)"
         gradientUnits="userSpaceOnUse"
         id="g4186c7b241_0_549.9">
        <stop
           id="stop157"
           stop-color="#e6e7e8"
           offset="0.0" />
        <stop
           id="stop159"
           stop-color="#ffffff"
           offset="1.0" />
      </linearGradient>
    </defs>
    <defs
       id="defs217">
      <linearGradient
         y2="17.811033"
         x2="71.775887"
         y1="17.811033"
         x1="63.24192"
         spreadMethod="pad"
         gradientTransform="matrix(8.533966,0,0,8.533966,-504.81677,6.092523)"
         gradientUnits="userSpaceOnUse"
         id="g4186c7b241_0_549.10">
        <stop
           id="stop208"
           stop-color="#29a1da"
           offset="0.0" />
        <stop
           id="stop210"
           stop-color="#29a1da"
           offset="0.45" />
        <stop
           id="stop212"
           stop-color="#2789b9"
           offset="0.56" />
        <stop
           id="stop214"
           stop-color="#2789b9"
           offset="1.0" />
      </linearGradient>
    </defs>
    <defs
       id="defs226">
      <linearGradient
         y2="14.009948"
         x2="63.268234"
         y1="14.01001"
         x1="71.798676"
         spreadMethod="pad"
         gradientTransform="matrix(8.5304404,0,0,8.5304404,-504.81677,6.092523)"
         gradientUnits="userSpaceOnUse"
         id="g4186c7b241_0_549.11">
        <stop
           id="stop221"
           stop-color="#6bc1ec"
           offset="0.0" />
        <stop
           id="stop223"
           stop-color="#8ad6f4"
           offset="1.0" />
      </linearGradient>
    </defs>
    <defs
       id="defs239">
      <linearGradient
         y2="16.376717"
         x2="71.773582"
         y1="16.376717"
         x1="63.239613"
         spreadMethod="pad"
         gradientTransform="matrix(8.533966,0,0,8.533966,-504.81677,6.092523)"
         gradientUnits="userSpaceOnUse"
         id="g4186c7b241_0_549.12">
        <stop
           id="stop230"
           stop-color="#dbdcdd"
           offset="0.0" />
        <stop
           id="stop232"
           stop-color="#dbdcdd"
           offset="0.41" />
        <stop
           id="stop234"
           stop-color="#b1b3b5"
           offset="0.6" />
        <stop
           id="stop236"
           stop-color="#b1b3b5"
           offset="1.0" />
      </linearGradient>
    </defs>
    <defs
       id="defs248">
      <linearGradient
         y2="8.565937"
         x2="69.610222"
         y1="14.417623"
         x1="75.4618"
         spreadMethod="pad"
         gradientTransform="matrix(8.2754557,0,0,8.2754557,-504.81677,6.092523)"
         gradientUnits="userSpaceOnUse"
         id="g4186c7b241_0_549.13">
        <stop
           id="stop243"
           stop-color="#e6e7e8"
           offset="0.0" />
        <stop
           id="stop245"
           stop-color="#ffffff"
           offset="1.0" />
      </linearGradient>
    </defs>
    <defs
       id="defs359">
      <linearGradient
         y2="40.741791"
         x2="70.346825"
         y1="40.741791"
         x1="61.812862"
         spreadMethod="pad"
         gradientTransform="scale(8.533966)"
         gradientUnits="userSpaceOnUse"
         id="g4186c7b241_0_549.14">
        <stop
           id="stop350"
           stop-color="#29a1da"
           offset="0.0" />
        <stop
           id="stop352"
           stop-color="#29a1da"
           offset="0.45" />
        <stop
           id="stop354"
           stop-color="#2789b9"
           offset="0.56" />
        <stop
           id="stop356"
           stop-color="#2789b9"
           offset="1.0" />
      </linearGradient>
    </defs>
    <defs
       id="defs368">
      <linearGradient
         y2="36.95018"
         x2="61.838585"
         y1="36.950241"
         x1="70.369026"
         spreadMethod="pad"
         gradientTransform="scale(8.5304404)"
         gradientUnits="userSpaceOnUse"
         id="g4186c7b241_0_549.15">
        <stop
           id="stop363"
           stop-color="#6bc1ec"
           offset="0.0" />
        <stop
           id="stop365"
           stop-color="#8ad6f4"
           offset="1.0" />
      </linearGradient>
    </defs>
    <defs
       id="defs381">
      <linearGradient
         y2="39.307472"
         x2="70.344521"
         y1="39.307472"
         x1="61.810555"
         spreadMethod="pad"
         gradientTransform="scale(8.533966)"
         gradientUnits="userSpaceOnUse"
         id="g4186c7b241_0_549.16">
        <stop
           id="stop372"
           stop-color="#dbdcdd"
           offset="0.0" />
        <stop
           id="stop374"
           stop-color="#dbdcdd"
           offset="0.41" />
        <stop
           id="stop376"
           stop-color="#b1b3b5"
           offset="0.6" />
        <stop
           id="stop378"
           stop-color="#b1b3b5"
           offset="1.0" />
      </linearGradient>
    </defs>
    <defs
       id="defs390">
      <linearGradient
         y2="32.212994"
         x2="68.136497"
         y1="38.064682"
         x1="73.988075"
         spreadMethod="pad"
         gradientTransform="scale(8.275459)"
         gradientUnits="userSpaceOnUse"
         id="g4186c7b241_0_549.17">
        <stop
           id="stop385"
           stop-color="#e6e7e8"
           offset="0.0" />
        <stop
           id="stop387"
           stop-color="#ffffff"
           offset="1.0" />
      </linearGradient>
    </defs>
    <defs
       id="defs713">
      <linearGradient
         y2="73.486526"
         x2="11.202056"
         y1="73.486526"
         x1="4.2533054"
         spreadMethod="pad"
         gradientTransform="scale(6.9487505)"
         gradientUnits="userSpaceOnUse"
         id="g4186c7b241_0_549.18">
        <stop
           id="stop704"
           stop-color="#29a1da"
           offset="0.0" />
        <stop
           id="stop706"
           stop-color="#29a1da"
           offset="0.45" />
        <stop
           id="stop708"
           stop-color="#2789b9"
           offset="0.56" />
        <stop
           id="stop710"
           stop-color="#2789b9"
           offset="1.0" />
      </linearGradient>
    </defs>
    <defs
       id="defs722">
      <linearGradient
         y2="70.415878"
         x2="4.2552071"
         y1="70.415932"
         x1="11.201087"
         spreadMethod="pad"
         gradientTransform="scale(6.9458803)"
         gradientUnits="userSpaceOnUse"
         id="g4186c7b241_0_549.19">
        <stop
           id="stop717"
           stop-color="#6bc1ec"
           offset="0.0" />
        <stop
           id="stop719"
           stop-color="#8ad6f4"
           offset="1.0" />
      </linearGradient>
    </defs>
    <defs
       id="defs735">
      <linearGradient
         y2="72.318642"
         x2="11.200179"
         y1="72.318642"
         x1="4.2514286"
         spreadMethod="pad"
         gradientTransform="scale(6.9487505)"
         gradientUnits="userSpaceOnUse"
         id="g4186c7b241_0_549.20">
        <stop
           id="stop726"
           stop-color="#dbdcdd"
           offset="0.0" />
        <stop
           id="stop728"
           stop-color="#dbdcdd"
           offset="0.41" />
        <stop
           id="stop730"
           stop-color="#b1b3b5"
           offset="0.6" />
        <stop
           id="stop732"
           stop-color="#b1b3b5"
           offset="1.0" />
      </linearGradient>
    </defs>
    <defs
       id="defs744">
      <linearGradient
         y2="67.801277"
         x2="7.9629421"
         y1="72.565987"
         x1="12.727568"
         spreadMethod="pad"
         gradientTransform="scale(6.7382612)"
         gradientUnits="userSpaceOnUse"
         id="g4186c7b241_0_549.21">
        <stop
           id="stop739"
           stop-color="#e6e7e8"
           offset="0.0" />
        <stop
           id="stop741"
           stop-color="#ffffff"
           offset="1.0" />
      </linearGradient>
    </defs>
    <defs
       id="defs761">
      <linearGradient
         y2="73.371712"
         x2="24.888123"
         y1="73.371712"
         x1="17.939371"
         spreadMethod="pad"
         gradientTransform="scale(6.9487499)"
         gradientUnits="userSpaceOnUse"
         id="g4186c7b241_0_549.22">
        <stop
           id="stop752"
           stop-color="#29a1da"
           offset="0.0" />
        <stop
           id="stop754"
           stop-color="#29a1da"
           offset="0.45" />
        <stop
           id="stop756"
           stop-color="#2789b9"
           offset="0.56" />
        <stop
           id="stop758"
           stop-color="#2789b9"
           offset="1.0" />
      </linearGradient>
    </defs>
    <defs
       id="defs770">
      <linearGradient
         y2="70.300987"
         x2="17.946922"
         y1="70.301041"
         x1="24.892805"
         spreadMethod="pad"
         gradientTransform="scale(6.9458818)"
         gradientUnits="userSpaceOnUse"
         id="g4186c7b241_0_549.23">
        <stop
           id="stop765"
           stop-color="#6bc1ec"
           offset="0.0" />
        <stop
           id="stop767"
           stop-color="#8ad6f4"
           offset="1.0" />
      </linearGradient>
    </defs>
    <defs
       id="defs783">
      <linearGradient
         y2="72.203819"
         x2="24.886246"
         y1="72.203819"
         x1="17.937494"
         spreadMethod="pad"
         gradientTransform="scale(6.9487499)"
         gradientUnits="userSpaceOnUse"
         id="g4186c7b241_0_549.24">
        <stop
           id="stop774"
           stop-color="#dbdcdd"
           offset="0.0" />
        <stop
           id="stop776"
           stop-color="#dbdcdd"
           offset="0.41" />
        <stop
           id="stop778"
           stop-color="#b1b3b5"
           offset="0.6" />
        <stop
           id="stop780"
           stop-color="#b1b3b5"
           offset="1.0" />
      </linearGradient>
    </defs>
    <defs
       id="defs792">
      <linearGradient
         y2="67.682861"
         x2="22.07653"
         y1="72.447578"
         x1="26.841156"
         spreadMethod="pad"
         gradientTransform="scale(6.7382612)"
         gradientUnits="userSpaceOnUse"
         id="g4186c7b241_0_549.25">
        <stop
           id="stop787"
           stop-color="#e6e7e8"
           offset="0.0" />
        <stop
           id="stop789"
           stop-color="#ffffff"
           offset="1.0" />
      </linearGradient>
    </defs>
  </defs>
  <sodipodi:namedview
     pagecolor="#ffffff"
     bordercolor="#666666"
     borderopacity="1"
     objecttolerance="10"
     gridtolerance="10"
     guidetolerance="10"
     inkscape:pageopacity="1"
     inkscape:pageshadow="2"
     inkscape:window-width="1920"
     inkscape:window-height="1022"
     id="namedview862"
     showgrid="false"
     inkscape:zoom="1.0041667"
     inkscape:cx="-358.42672"
     inkscape:cy="-118.00124"
     inkscape:window-x="1920"
     inkscape:window-y="1"
     inkscape:window-maximized="1"
     inkscape:current-layer="svg860"
     fit-margin-top="0"
     fit-margin-left="0"
     fit-margin-right="0"
     fit-margin-bottom="0" />
  <clipPath
     id="g4186c7b241_0_549.0">
    <path
       d="M 0,0 H 960 V 540 H 0 Z"
       id="path2"
       inkscape:connector-curvature="0"
       style="clip-rule:nonzero" />
  </clipPath>
  <path
     style="fill:#000000;fill-opacity:0;fill-rule:evenodd"
     inkscape:connector-curvature="0"
     id="path182"
     d="m 135.25739,116.16071 h 77.24932 v 40.66142 h -77.24932 z" />
  <path
     style="fill:#000000;fill-opacity:0;fill-rule:evenodd"
     inkscape:connector-curvature="0"
     id="path184"
     d="m 144.91358,116.16071 v 40.66142 m -9.6562,-35.57874 h 77.24933" />
  <path
     style="fill:#000000;fill-opacity:0;fill-rule:evenodd"
     inkscape:connector-curvature="0"
     id="path186"
     d="m 135.25739,116.16071 h 77.24932 v 40.66142 h -77.24932 z" />
  <path
     style="fill-rule:evenodd;stroke:#2c3e50;stroke-width:1;stroke-linecap:butt;stroke-linejoin:round"
     inkscape:connector-curvature="0"
     id="path188"
     d="m 144.91358,116.16071 v 40.66142 m -9.6562,-35.57874 h 77.24933" />
  <path
     style="fill-rule:evenodd;stroke:#2c3e50;stroke-width:1;stroke-linecap:butt;stroke-linejoin:round"
     inkscape:connector-curvature="0"
     id="path190"
     d="m 135.25739,116.16071 h 77.24932 v 40.66142 h -77.24932 z" />
  <path
     style="fill:#21aa47;fill-rule:evenodd"
     inkscape:connector-curvature="0"
     id="path192"
     d="m 147.66643,136.41783 6.23621,-11.40157 6.2362,11.40157 z" />
  <path
     inkscape:connector-curvature="0"
     style="fill:url(#g4186c7b241_0_549.10);fill-rule:evenodd"
     id="path219"
     d="m 107.71619,137.66541 v 0 c 0,8.37524 0,8.37524 0,8.37524 0,0.23087 -0.23065,0.46192 -0.93048,0.70046 -33.737854,11.17691 -33.737854,11.17691 -33.737854,11.17691 -0.93049,0.23103 -2.55414,0.23103 -3.71528,0 -33.74511,-11.17691 -33.74511,-11.17691 -33.74511,-11.17691 -0.23127,0 -0.46192,-0.23854 -0.46192,-0.23854 -0.23791,-0.23105 -0.23791,-0.23105 -0.23791,-0.46192 0,-8.37524 0,-8.37524 0,-8.37524 h 72.828554" />
  <path
     inkscape:connector-curvature="0"
     style="fill:url(#g4186c7b241_0_549.11);fill-rule:evenodd"
     id="path228"
     d="m 73.048126,149.51294 v 0 C 106.78647,138.3488 106.78647,138.3488 106.78647,138.3488 c 1.1612,-0.46918 1.1612,-0.93088 0,-1.40005 -33.738344,-11.17161 -33.738344,-11.17161 -33.738344,-11.17161 -0.93091,-0.23075 -2.78473,-0.23075 -3.71564,0 -33.74566,11.17161 -33.74566,11.17161 -33.74566,11.17161 -0.9303,0.46917 -0.9303,0.93087 0,1.40005 33.74566,11.16414 33.74566,11.16414 33.74566,11.16414 1.16181,0.23096 2.78473,0.23096 3.71564,0" />
  <path
     inkscape:connector-curvature="0"
     style="fill:url(#g4186c7b241_0_549.12);fill-rule:evenodd"
     id="path241"
     d="m 107.69653,125.425 v 0 c 0,8.37524 0,8.37524 0,8.37524 0,0.23087 -0.23065,0.46191 -0.93048,0.70046 -33.737854,11.1769 -33.737854,11.1769 -33.737854,11.1769 -0.93049,0.23103 -2.55414,0.23103 -3.71528,0 -33.74511,-11.1769 -33.74511,-11.1769 -33.74511,-11.1769 -0.23127,0 -0.46192,-0.23855 -0.46192,-0.23855 -0.23791,-0.23104 -0.23791,-0.23104 -0.23791,-0.46191 0,-8.37524 0,-8.37524 0,-8.37524 h 72.828554" />
  <path
     inkscape:connector-curvature="0"
     style="fill:url(#g4186c7b241_0_549.13);fill-rule:evenodd"
     id="path250"
     d="m 73.013796,137.27253 v 0 C 106.75214,126.1084 106.75214,126.1084 106.75214,126.1084 c 1.16113,-0.46918 1.16113,-0.93089 0,-1.40006 -33.738344,-11.1716 -33.738344,-11.1716 -33.738344,-11.1716 -0.93091,-0.23075 -2.78479,-0.23075 -3.71564,0 -33.74566,11.1716 -33.74566,11.1716 -33.74566,11.1716 -0.9303,0.46917 -0.9303,0.93088 0,1.40006 33.74566,11.16413 33.74566,11.16413 33.74566,11.16413 1.16175,0.23096 2.78473,0.23096 3.71564,0" />
  <path
     style="fill:#23292f;fill-rule:evenodd"
     inkscape:connector-curvature="0"
     id="path252"
     d="m 51.853126,94.323747 11.7373,11.986753 0.40015,0.39298 0.41919,0.37328 0.43823,0.33414 0.45728,0.31443 0.4574,0.2947 0.45727,0.27514 0.47632,0.23585 0.49536,0.21614 0.49548,0.19641 0.49537,0.1573 0.51446,0.13756 0.51447,0.11786 0.51446,0.0983 0.51447,0.0588 0.53357,0.0393 h 1.02874 l 0.53357,-0.0393 0.51447,-0.0588 0.51446,-0.0983 0.51447,-0.11786 0.51446,-0.13756 0.49537,-0.1573 0.49548,-0.19641 0.47638,-0.21614 0.4953,-0.23585 0.4574,-0.27514 0.45727,-0.2947 0.45728,-0.31443 0.43823,-0.33414 0.41919,-0.37328 0.40015,-0.39298 11.7373,-11.986753 h -5.64007 l -8.91718,9.098083 -0.26678,0.25543 -0.26679,0.23585 -0.26678,0.21614 -0.28577,0.19657 -0.28577,0.19642 -0.30487,0.15729 -0.30493,0.15714 -0.30487,0.13756 -0.30487,0.11785 -0.32385,0.0983 -0.32398,0.0983 -0.32385,0.0786 -0.32404,0.059 -0.32385,0.0393 -0.34295,0.0196 h -0.64789 l -0.34296,-0.0196 -0.32385,-0.0393 -0.32404,-0.059 -0.32385,-0.0786 -0.32397,-0.0983 -0.32386,-0.0983 -0.30487,-0.11785 -0.30487,-0.13756 -0.30493,-0.15714 -0.30487,-0.15729 -0.28577,-0.19642 -0.28576,-0.19657 -0.26679,-0.21614 -0.26678,-0.23585 -0.26679,-0.25543 -8.91717,-9.098083 z" />
  <path
     style="fill:#23292f;fill-rule:evenodd"
     inkscape:connector-curvature="0"
     id="path254"
     d="m 70.773926,112.34307 -0.53357,0.0393 -0.51446,0.0787 -0.51447,0.0786 -0.51447,0.11785 -0.51446,0.13758 -0.49536,0.15728 -0.49549,0.19642 -0.49536,0.21614 -0.47632,0.23586 -0.45727,0.27514 -0.4574,0.2947 -0.45727,0.31442 -0.43824,0.35371 -0.41919,0.3537 -0.40014,0.39299 -11.81354,12.06531 h 5.63995 l 8.99353,-9.17665 0.26679,-0.25558 0.26678,-0.23569 0.26679,-0.21614 0.28576,-0.19657 0.28577,-0.17686 0.30487,-0.17685 0.30493,-0.15714 0.30487,-0.13757 0.30487,-0.118 0.32386,-0.0981 0.32397,-0.0983 0.32385,-0.059 0.32404,-0.0588 0.32385,-0.0395 0.34296,-0.0393 h 0.64789 l 0.34295,0.0393 0.32386,0.0395 0.32403,0.0588 0.32385,0.059 0.32398,0.0983 0.32385,0.0981 0.30487,0.118 0.30487,0.13757 0.30493,0.15714 0.30487,0.17685 0.28577,0.17686 0.28577,0.19657 0.26678,0.21614 0.26679,0.23569 0.26678,0.25558 8.99353,9.17665 h 5.63996 l -11.81354,-12.06531 -0.40015,-0.39299 -0.41919,-0.3537 -0.43823,-0.35371 -0.45728,-0.31442 -0.45727,-0.2947 -0.4574,-0.27514 -0.47632,-0.23586 -0.49536,-0.21614 -0.49548,-0.19642 -0.49536,-0.15728 -0.51447,-0.13758 -0.51446,-0.11785 -0.51447,-0.0786 -0.51446,-0.0787 -0.53357,-0.0393 z" />
  <path
     style="fill:#000000;fill-opacity:0;fill-rule:evenodd"
     inkscape:connector-curvature="0"
     id="path290"
     d="m 90.103326,48.013715 c -0.98889,-5.135361 2.25781,-10.219067 8.36243,-13.093925 6.104554,-2.874859 13.996464,-3.036688 20.326904,-0.416815 v 0 c 2.24231,-2.986122 6.3465,-5.047844 11.07111,-5.561504 4.72461,-0.513661 9.51464,0.581074 12.92119,2.953052 v 0 c 1.91023,-2.707363 5.66102,-4.526371 9.9214,-4.811531 4.26037,-0.28516 8.42736,1.003886 11.02228,3.409706 v 0 c 3.45117,-2.869631 8.942,-4.077852 14.09661,-3.101862 5.15461,0.975989 9.04719,3.960894 9.9934,7.66314 v 0 c 4.2281,0.815004 7.74994,2.886819 9.65571,5.680164 1.90577,2.793346 2.00849,6.034199 0.28161,8.885242 v 0 c 4.1637,3.82925 5.13777,8.931736 2.55866,13.403267 -2.57911,4.471527 -8.32392,7.640293 -15.09052,8.323757 -0.0477,4.196831 -3.30463,8.047791 -8.5155,10.068521 -5.21088,2.02072 -11.56189,1.89567 -16.60511,-0.32697 -2.14813,5.02642 -8.19464,8.72482 -15.5271,9.49733 -7.33245,0.77251 -14.6364,-1.51935 -18.75621,-5.88541 -5.04999,2.15201 -11.10956,2.77194 -16.81183,1.71995 -5.70227,-1.05198 -10.566834,-3.68728 -13.496344,-7.31141 v 0 c -5.16046,0.42676 -10.14984,-1.462626 -12.49206,-4.730463 -2.34223,-3.267838 -1.53864,-7.218495 2.01196,-9.891285 v 0 c -4.60352,-1.914662 -6.95245,-5.714005 -5.82208,-9.416813 1.13043,-3.702812 5.48413,-6.470013 10.79077,-6.85862 z" />
  <path
     style="fill:#000000;fill-opacity:0;fill-rule:evenodd"
     inkscape:connector-curvature="0"
     id="path292"
     d="m 96.434266,103.12524 c 0,0.97942 -0.79401,1.7734 -1.77344,1.7734 -0.97943,0 -1.77337,-0.79398 -1.77337,-1.7734 0,-0.97942 0.79394,-1.77341 1.77337,-1.77341 0.97943,0 1.77344,0.79399 1.77344,1.77341 z" />
  <path
     style="fill:#000000;fill-opacity:0;fill-rule:evenodd"
     inkscape:connector-curvature="0"
     id="path294"
     d="m 102.95413,98.533907 c 0,1.958843 -1.58801,3.546813 -3.546814,3.546813 -1.95887,0 -3.54682,-1.58797 -3.54682,-3.546813 0,-1.95885 1.58795,-3.54681 3.54682,-3.54681 1.958804,0 3.546814,1.58796 3.546814,3.54681 z" />
  <path
     style="fill:#000000;fill-opacity:0;fill-rule:evenodd"
     inkscape:connector-curvature="0"
     id="path296"
     d="m 112.0232,91.476617 c 0,2.93827 -2.38196,5.32021 -5.32019,5.32021 -2.93829,0 -5.32025,-2.38194 -5.32025,-5.32021 0,-2.93828 2.38196,-5.32021 5.32025,-5.32021 2.93823,0 5.32019,2.38193 5.32019,5.32021 z" />
  <path
     style="fill:#000000;fill-opacity:0;fill-rule:evenodd"
     inkscape:connector-curvature="0"
     id="path298"
     d="m 92.355166,65.413463 v 0 c -2.50989,0.138832 -5.01947,-0.271027 -7.19189,-1.174553 m 13.53723,14.028177 c -1.00928,0.2839 -2.0672,0.47291 -3.14649,0.56217 m 30.259104,5.61407 v 0 c -0.7591,-0.80448 -1.39466,-1.66413 -1.89588,-2.5643 m 36.95581,-3.830066 c -0.11163,0.954176 -0.36535,1.897316 -0.75702,2.813686 m 15.80921,-20.198536 v 0 c 5.69029,1.956806 9.28125,6.047814 9.23047,10.515862 m 12.54217,-21.71597 c -0.92151,1.521434 -2.32831,2.871082 -4.11017,3.943123 m -5.75274,-18.574232 v 0 c 0.15704,0.614402 0.22967,1.238039 0.21698,1.862266 m -26.46656,-4.034508 v 0 c 0.53552,-0.859138 1.2448,-1.659082 2.10572,-2.374922 m -21.79987,3.506531 v 0 c 0.21851,-0.709995 0.5611,-1.398018 1.01984,-2.048218 m -24.13312,2.744101 v 0 c 1.33948,0.554361 2.57873,1.221598 3.69043,1.987051 M 90.748046,50.105089 v 0 c -0.29242,-0.683807 -0.50775,-1.382881 -0.64404,-2.090683" />
  <path
     style="fill-rule:evenodd;stroke:#2c3e50;stroke-width:1;stroke-linecap:butt;stroke-linejoin:round"
     inkscape:connector-curvature="0"
     id="path300"
     d="m 90.103326,48.013715 c -0.98889,-5.135361 2.25781,-10.219067 8.36243,-13.093925 6.104554,-2.874859 13.996464,-3.036688 20.326904,-0.416815 v 0 c 2.24231,-2.986122 6.3465,-5.047844 11.07111,-5.561504 4.72461,-0.513661 9.51464,0.581074 12.92119,2.953052 v 0 c 1.91023,-2.707363 5.66102,-4.526371 9.9214,-4.811531 4.26037,-0.28516 8.42736,1.003886 11.02228,3.409706 v 0 c 3.45117,-2.869631 8.942,-4.077852 14.09661,-3.101862 5.15461,0.975989 9.04719,3.960894 9.9934,7.66314 v 0 c 4.2281,0.815004 7.74994,2.886819 9.65571,5.680164 1.90577,2.793346 2.00849,6.034199 0.28161,8.885242 v 0 c 4.1637,3.82925 5.13777,8.931736 2.55866,13.403267 -2.57911,4.471527 -8.32392,7.640293 -15.09052,8.323757 -0.0477,4.196831 -3.30463,8.047791 -8.5155,10.068521 -5.21088,2.02072 -11.56189,1.89567 -16.60511,-0.32697 -2.14813,5.02642 -8.19464,8.72482 -15.5271,9.49733 -7.33245,0.77251 -14.6364,-1.51935 -18.75621,-5.88541 -5.04999,2.15201 -11.10956,2.77194 -16.81183,1.71995 -5.70227,-1.05198 -10.566834,-3.68728 -13.496344,-7.31141 v 0 c -5.16046,0.42676 -10.14984,-1.462626 -12.49206,-4.730463 -2.34223,-3.267838 -1.53864,-7.218495 2.01196,-9.891285 v 0 c -4.60352,-1.914662 -6.95245,-5.714005 -5.82208,-9.416813 1.13043,-3.702812 5.48413,-6.470013 10.79077,-6.85862 z" />
  <path
     style="fill-rule:evenodd;stroke:#2c3e50;stroke-width:1;stroke-linecap:butt;stroke-linejoin:round"
     inkscape:connector-curvature="0"
     id="path302"
     d="m 96.434266,103.12524 c 0,0.97942 -0.79401,1.7734 -1.77344,1.7734 -0.97943,0 -1.77337,-0.79398 -1.77337,-1.7734 0,-0.97942 0.79394,-1.77341 1.77337,-1.77341 0.97943,0 1.77344,0.79399 1.77344,1.77341 z" />
  <path
     style="fill-rule:evenodd;stroke:#2c3e50;stroke-width:1;stroke-linecap:butt;stroke-linejoin:round"
     inkscape:connector-curvature="0"
     id="path304"
     d="m 102.95413,98.533907 c 0,1.958843 -1.58801,3.546813 -3.546814,3.546813 -1.95887,0 -3.54682,-1.58797 -3.54682,-3.546813 0,-1.95885 1.58795,-3.54681 3.54682,-3.54681 1.958804,0 3.546814,1.58796 3.546814,3.54681 z" />
  <path
     style="fill-rule:evenodd;stroke:#2c3e50;stroke-width:1;stroke-linecap:butt;stroke-linejoin:round"
     inkscape:connector-curvature="0"
     id="path306"
     d="m 112.0232,91.476617 c 0,2.93827 -2.38196,5.32021 -5.32019,5.32021 -2.93829,0 -5.32025,-2.38194 -5.32025,-5.32021 0,-2.93828 2.38196,-5.32021 5.32025,-5.32021 2.93823,0 5.32019,2.38193 5.32019,5.32021 z" />
  <path
     style="fill-rule:evenodd;stroke:#2c3e50;stroke-width:1;stroke-linecap:butt;stroke-linejoin:round"
     inkscape:connector-curvature="0"
     id="path308"
     d="m 92.355166,65.413463 v 0 c -2.50989,0.138832 -5.01947,-0.271027 -7.19189,-1.174553 m 13.53723,14.028177 c -1.00928,0.2839 -2.0672,0.47291 -3.14649,0.56217 m 30.259104,5.61407 v 0 c -0.7591,-0.80448 -1.39466,-1.66413 -1.89588,-2.5643 m 36.95581,-3.830066 c -0.11163,0.954176 -0.36535,1.897316 -0.75702,2.813686 m 15.80921,-20.198536 v 0 c 5.69029,1.956806 9.28125,6.047814 9.23047,10.515862 m 12.54217,-21.71597 c -0.92151,1.521434 -2.32831,2.871082 -4.11017,3.943123 m -5.75274,-18.574232 v 0 c 0.15704,0.614402 0.22967,1.238039 0.21698,1.862266 m -26.46656,-4.034508 v 0 c 0.53552,-0.859138 1.2448,-1.659082 2.10572,-2.374922 m -21.79987,3.506531 v 0 c 0.21851,-0.709995 0.5611,-1.398018 1.01984,-2.048218 m -24.13312,2.744101 v 0 c 1.33948,0.554361 2.57873,1.221598 3.69043,1.987051 M 90.748046,50.105089 v 0 c -0.29242,-0.683807 -0.50775,-1.382881 -0.64404,-2.090683" />
  <path
     style="fill:#23282f;fill-rule:evenodd"
     inkscape:connector-curvature="0"
     id="path310"
     d="m 117.62763,55.763627 6.23627,-11.401573 6.2362,11.401573 z" />
  <path
     style="fill:#23282f;fill-rule:evenodd"
     inkscape:connector-curvature="0"
     id="path312"
     d="m 132.32303,55.763627 6.23621,-11.401573 6.23619,11.401573 z" />
  <path
     style="fill:#23282f;fill-rule:evenodd"
     inkscape:connector-curvature="0"
     id="path314"
     d="m 147.01833,55.763627 6.23621,-11.401573 6.2362,11.401573 z" />
  <path
     style="fill:#23282f;fill-rule:evenodd"
     inkscape:connector-curvature="0"
     id="path316"
     d="m 161.71363,55.763627 6.23621,-11.401573 6.23626,11.401573 z" />
  <path
     style="fill:#23282f;fill-rule:evenodd"
     inkscape:connector-curvature="0"
     id="path318"
     d="m 103.29913,70.124703 6.23621,-11.401573 6.2362,11.401573 z" />
  <path
     style="fill:#23282f;fill-rule:evenodd"
     inkscape:connector-curvature="0"
     id="path320"
     d="m 117.99443,70.124703 6.23621,-11.401573 6.2362,11.401573 z" />
  <path
     style="fill:#23282f;fill-rule:evenodd"
     inkscape:connector-curvature="0"
     id="path322"
     d="m 132.68976,70.124703 6.23621,-11.401573 6.23626,11.401573 z" />
  <path
     style="fill:#23282f;fill-rule:evenodd"
     inkscape:connector-curvature="0"
     id="path324"
     d="m 147.38507,70.124703 6.23627,-11.401573 6.2362,11.401573 z" />
  <path
     style="fill:#2c3e50;fill-rule:evenodd"
     inkscape:connector-curvature="0"
     id="path326"
     d="m 102.92957,55.731531 6.23621,-11.401577 6.2362,11.401577 z" />
  <path
     style="fill:#23282f;fill-rule:evenodd"
     inkscape:connector-curvature="0"
     id="path328"
     d="m 161.70793,70.122083 6.2362,-11.401573 6.2362,11.401573 z" />
  <path
     style="fill:#000000;fill-opacity:0;fill-rule:evenodd"
     inkscape:connector-curvature="0"
     id="path332"
     d="m 165.63072,100.34056 c -6.56371,5.74253 -10.56463,14.64709 -11.99999,23.24934" />
  <path
     style="fill-rule:evenodd;stroke:#e64b3b;stroke-width:1;stroke-linecap:butt;stroke-linejoin:round"
     inkscape:connector-curvature="0"
     id="path334"
     d="m 165.63072,100.34056 c -3.28185,2.87126 -5.92302,6.53304 -7.92315,10.55228 -1.00007,2.00962 -1.83984,4.10859 -2.51928,6.24283 l -0.18891,0.61242" />
  <path
     style="fill:#e64b3b;fill-rule:evenodd;stroke:#e64b3b;stroke-width:1;stroke-linecap:butt"
     inkscape:connector-curvature="0"
     id="path336"
     d="m 153.39118,117.37132 0.57306,4.79522 2.6433,-4.04168 z" />
</svg>
