<?xml version="1.0" encoding="UTF-8" standalone="no"?>
<svg
   xmlns:dc="http://purl.org/dc/elements/1.1/"
   xmlns:cc="http://creativecommons.org/ns#"
   xmlns:rdf="http://www.w3.org/1999/02/22-rdf-syntax-ns#"
   xmlns:svg="http://www.w3.org/2000/svg"
   xmlns="http://www.w3.org/2000/svg"
   xmlns:sodipodi="http://sodipodi.sourceforge.net/DTD/sodipodi-0.dtd"
   xmlns:inkscape="http://www.inkscape.org/namespaces/inkscape"
   version="1.1"
   viewBox="0 0 250 180"
   stroke-miterlimit="10"
   id="svg860"
   sodipodi:docname="consensus-w-q-2.svg"
   inkscape:export-filename="/another/devel/ripple-dev-portal/img/consensus-w-q-2.png"
   inkscape:export-xdpi="96"
   inkscape:export-ydpi="96"
   width="250"
   height="180"
   style="fill:none;stroke:none;stroke-linecap:square;stroke-miterlimit:10"
   inkscape:version="0.92.2 2405546, 2018-03-11">
  <metadata
     id="metadata866">
    <rdf:RDF>
      <cc:Work
         rdf:about="">
        <dc:format>image/svg+xml</dc:format>
        <dc:type
           rdf:resource="http://purl.org/dc/dcmitype/StillImage" />
        <dc:title></dc:title>
      </cc:Work>
    </rdf:RDF>
  </metadata>
  <defs
     id="defs864">
    <defs
       id="defs61">
      <linearGradient
         y2="19.332516"
         x2="12.007618"
         y1="19.332516"
         x1="3.4736533"
         spreadMethod="pad"
         gradientTransform="scale(8.5339645)"
         gradientUnits="userSpaceOnUse"
         id="g4186c7b241_0_549.2">
        <stop
           id="stop52"
           stop-color="#29a1da"
           offset="0.0" />
        <stop
           id="stop54"
           stop-color="#29a1da"
           offset="0.45" />
        <stop
           id="stop56"
           stop-color="#2789b9"
           offset="0.56" />
        <stop
           id="stop58"
           stop-color="#2789b9"
           offset="1.0" />
      </linearGradient>
    </defs>
    <defs
       id="defs70">
      <linearGradient
         y2="15.532056"
         x2="3.4752655"
         y1="15.532118"
         x1="12.005706"
         spreadMethod="pad"
         gradientTransform="scale(8.53044)"
         gradientUnits="userSpaceOnUse"
         id="g4186c7b241_0_549.3">
        <stop
           id="stop65"
           stop-color="#6bc1ec"
           offset="0.0" />
        <stop
           id="stop67"
           stop-color="#8ad6f4"
           offset="1.0" />
      </linearGradient>
    </defs>
    <defs
       id="defs83">
      <linearGradient
         y2="17.898199"
         x2="12.005313"
         y1="17.898199"
         x1="3.471348"
         spreadMethod="pad"
         gradientTransform="scale(8.533965)"
         gradientUnits="userSpaceOnUse"
         id="g4186c7b241_0_549.4">
        <stop
           id="stop74"
           stop-color="#dbdcdd"
           offset="0.0" />
        <stop
           id="stop76"
           stop-color="#dbdcdd"
           offset="0.41" />
        <stop
           id="stop78"
           stop-color="#b1b3b5"
           offset="0.6" />
        <stop
           id="stop80"
           stop-color="#b1b3b5"
           offset="1.0" />
      </linearGradient>
    </defs>
    <defs
       id="defs92">
      <linearGradient
         y2="10.13494"
         x2="7.9749012"
         y1="15.986627"
         x1="13.826479"
         spreadMethod="pad"
         gradientTransform="scale(8.2754575)"
         gradientUnits="userSpaceOnUse"
         id="g4186c7b241_0_549.5">
        <stop
           id="stop87"
           stop-color="#e6e7e8"
           offset="0.0" />
        <stop
           id="stop89"
           stop-color="#ffffff"
           offset="1.0" />
      </linearGradient>
    </defs>
    <defs
       id="defs131">
      <linearGradient
         y2="41.839146"
         x2="12.097349"
         y1="41.839146"
         x1="3.5633848"
         spreadMethod="pad"
         gradientTransform="matrix(8.5339647,0,0,8.5339647,9.0421565,-204.02477)"
         gradientUnits="userSpaceOnUse"
         id="g4186c7b241_0_549.6">
        <stop
           id="stop122"
           stop-color="#29a1da"
           offset="0.0" />
        <stop
           id="stop124"
           stop-color="#29a1da"
           offset="0.45" />
        <stop
           id="stop126"
           stop-color="#2789b9"
           offset="0.56" />
        <stop
           id="stop128"
           stop-color="#2789b9"
           offset="1.0" />
      </linearGradient>
    </defs>
    <defs
       id="defs140">
      <linearGradient
         y2="38.047985"
         x2="3.5650339"
         y1="38.048046"
         x1="12.095474"
         spreadMethod="pad"
         gradientTransform="matrix(8.5304407,0,0,8.5304407,9.0421565,-204.02477)"
         gradientUnits="userSpaceOnUse"
         id="g4186c7b241_0_549.7">
        <stop
           id="stop135"
           stop-color="#6bc1ec"
           offset="0.0" />
        <stop
           id="stop137"
           stop-color="#8ad6f4"
           offset="1.0" />
      </linearGradient>
    </defs>
    <defs
       id="defs153">
      <linearGradient
         y2="40.404831"
         x2="12.095044"
         y1="40.404831"
         x1="3.5610795"
         spreadMethod="pad"
         gradientTransform="matrix(8.5339651,0,0,8.5339651,9.0421565,-204.02477)"
         gradientUnits="userSpaceOnUse"
         id="g4186c7b241_0_549.8">
        <stop
           id="stop144"
           stop-color="#dbdcdd"
           offset="0.0" />
        <stop
           id="stop146"
           stop-color="#dbdcdd"
           offset="0.41" />
        <stop
           id="stop148"
           stop-color="#b1b3b5"
           offset="0.6" />
        <stop
           id="stop150"
           stop-color="#b1b3b5"
           offset="1.0" />
      </linearGradient>
    </defs>
    <defs
       id="defs162">
      <linearGradient
         y2="33.344627"
         x2="8.0674343"
         y1="39.196316"
         x1="13.919013"
         spreadMethod="pad"
         gradientTransform="matrix(8.2754579,0,0,8.2754579,9.0421565,-204.02477)"
         gradientUnits="userSpaceOnUse"
         id="g4186c7b241_0_549.9">
        <stop
           id="stop157"
           stop-color="#e6e7e8"
           offset="0.0" />
        <stop
           id="stop159"
           stop-color="#ffffff"
           offset="1.0" />
      </linearGradient>
    </defs>
    <defs
       id="defs217">
      <linearGradient
         y2="17.811033"
         x2="71.775887"
         y1="17.811033"
         x1="63.24192"
         spreadMethod="pad"
         gradientTransform="scale(8.533966)"
         gradientUnits="userSpaceOnUse"
         id="g4186c7b241_0_549.10">
        <stop
           id="stop208"
           stop-color="#29a1da"
           offset="0.0" />
        <stop
           id="stop210"
           stop-color="#29a1da"
           offset="0.45" />
        <stop
           id="stop212"
           stop-color="#2789b9"
           offset="0.56" />
        <stop
           id="stop214"
           stop-color="#2789b9"
           offset="1.0" />
      </linearGradient>
    </defs>
    <defs
       id="defs226">
      <linearGradient
         y2="14.009948"
         x2="63.268234"
         y1="14.01001"
         x1="71.798676"
         spreadMethod="pad"
         gradientTransform="scale(8.5304404)"
         gradientUnits="userSpaceOnUse"
         id="g4186c7b241_0_549.11">
        <stop
           id="stop221"
           stop-color="#6bc1ec"
           offset="0.0" />
        <stop
           id="stop223"
           stop-color="#8ad6f4"
           offset="1.0" />
      </linearGradient>
    </defs>
    <defs
       id="defs239">
      <linearGradient
         y2="16.376717"
         x2="71.773582"
         y1="16.376717"
         x1="63.239613"
         spreadMethod="pad"
         gradientTransform="scale(8.533966)"
         gradientUnits="userSpaceOnUse"
         id="g4186c7b241_0_549.12">
        <stop
           id="stop230"
           stop-color="#dbdcdd"
           offset="0.0" />
        <stop
           id="stop232"
           stop-color="#dbdcdd"
           offset="0.41" />
        <stop
           id="stop234"
           stop-color="#b1b3b5"
           offset="0.6" />
        <stop
           id="stop236"
           stop-color="#b1b3b5"
           offset="1.0" />
      </linearGradient>
    </defs>
    <defs
       id="defs248">
      <linearGradient
         y2="8.565937"
         x2="69.610222"
         y1="14.417623"
         x1="75.4618"
         spreadMethod="pad"
         gradientTransform="scale(8.2754557)"
         gradientUnits="userSpaceOnUse"
         id="g4186c7b241_0_549.13">
        <stop
           id="stop243"
           stop-color="#e6e7e8"
           offset="0.0" />
        <stop
           id="stop245"
           stop-color="#ffffff"
           offset="1.0" />
      </linearGradient>
    </defs>
    <defs
       id="defs359">
      <linearGradient
         y2="40.741791"
         x2="70.346825"
         y1="40.741791"
         x1="61.812862"
         spreadMethod="pad"
         gradientTransform="scale(8.533966)"
         gradientUnits="userSpaceOnUse"
         id="g4186c7b241_0_549.14">
        <stop
           id="stop350"
           stop-color="#29a1da"
           offset="0.0" />
        <stop
           id="stop352"
           stop-color="#29a1da"
           offset="0.45" />
        <stop
           id="stop354"
           stop-color="#2789b9"
           offset="0.56" />
        <stop
           id="stop356"
           stop-color="#2789b9"
           offset="1.0" />
      </linearGradient>
    </defs>
    <defs
       id="defs368">
      <linearGradient
         y2="36.95018"
         x2="61.838585"
         y1="36.950241"
         x1="70.369026"
         spreadMethod="pad"
         gradientTransform="scale(8.5304404)"
         gradientUnits="userSpaceOnUse"
         id="g4186c7b241_0_549.15">
        <stop
           id="stop363"
           stop-color="#6bc1ec"
           offset="0.0" />
        <stop
           id="stop365"
           stop-color="#8ad6f4"
           offset="1.0" />
      </linearGradient>
    </defs>
    <defs
       id="defs381">
      <linearGradient
         y2="39.307472"
         x2="70.344521"
         y1="39.307472"
         x1="61.810555"
         spreadMethod="pad"
         gradientTransform="scale(8.533966)"
         gradientUnits="userSpaceOnUse"
         id="g4186c7b241_0_549.16">
        <stop
           id="stop372"
           stop-color="#dbdcdd"
           offset="0.0" />
        <stop
           id="stop374"
           stop-color="#dbdcdd"
           offset="0.41" />
        <stop
           id="stop376"
           stop-color="#b1b3b5"
           offset="0.6" />
        <stop
           id="stop378"
           stop-color="#b1b3b5"
           offset="1.0" />
      </linearGradient>
    </defs>
    <defs
       id="defs390">
      <linearGradient
         y2="32.212994"
         x2="68.136497"
         y1="38.064682"
         x1="73.988075"
         spreadMethod="pad"
         gradientTransform="scale(8.275459)"
         gradientUnits="userSpaceOnUse"
         id="g4186c7b241_0_549.17">
        <stop
           id="stop385"
           stop-color="#e6e7e8"
           offset="0.0" />
        <stop
           id="stop387"
           stop-color="#ffffff"
           offset="1.0" />
      </linearGradient>
    </defs>
    <defs
       id="defs713">
      <linearGradient
         y2="73.486526"
         x2="11.202056"
         y1="73.486526"
         x1="4.2533054"
         spreadMethod="pad"
         gradientTransform="scale(6.9487505)"
         gradientUnits="userSpaceOnUse"
         id="g4186c7b241_0_549.18">
        <stop
           id="stop704"
           stop-color="#29a1da"
           offset="0.0" />
        <stop
           id="stop706"
           stop-color="#29a1da"
           offset="0.45" />
        <stop
           id="stop708"
           stop-color="#2789b9"
           offset="0.56" />
        <stop
           id="stop710"
           stop-color="#2789b9"
           offset="1.0" />
      </linearGradient>
    </defs>
    <defs
       id="defs722">
      <linearGradient
         y2="70.415878"
         x2="4.2552071"
         y1="70.415932"
         x1="11.201087"
         spreadMethod="pad"
         gradientTransform="scale(6.9458803)"
         gradientUnits="userSpaceOnUse"
         id="g4186c7b241_0_549.19">
        <stop
           id="stop717"
           stop-color="#6bc1ec"
           offset="0.0" />
        <stop
           id="stop719"
           stop-color="#8ad6f4"
           offset="1.0" />
      </linearGradient>
    </defs>
    <defs
       id="defs735">
      <linearGradient
         y2="72.318642"
         x2="11.200179"
         y1="72.318642"
         x1="4.2514286"
         spreadMethod="pad"
         gradientTransform="scale(6.9487505)"
         gradientUnits="userSpaceOnUse"
         id="g4186c7b241_0_549.20">
        <stop
           id="stop726"
           stop-color="#dbdcdd"
           offset="0.0" />
        <stop
           id="stop728"
           stop-color="#dbdcdd"
           offset="0.41" />
        <stop
           id="stop730"
           stop-color="#b1b3b5"
           offset="0.6" />
        <stop
           id="stop732"
           stop-color="#b1b3b5"
           offset="1.0" />
      </linearGradient>
    </defs>
    <defs
       id="defs744">
      <linearGradient
         y2="67.801277"
         x2="7.9629421"
         y1="72.565987"
         x1="12.727568"
         spreadMethod="pad"
         gradientTransform="scale(6.7382612)"
         gradientUnits="userSpaceOnUse"
         id="g4186c7b241_0_549.21">
        <stop
           id="stop739"
           stop-color="#e6e7e8"
           offset="0.0" />
        <stop
           id="stop741"
           stop-color="#ffffff"
           offset="1.0" />
      </linearGradient>
    </defs>
    <defs
       id="defs761">
      <linearGradient
         y2="73.371712"
         x2="24.888123"
         y1="73.371712"
         x1="17.939371"
         spreadMethod="pad"
         gradientTransform="scale(6.9487499)"
         gradientUnits="userSpaceOnUse"
         id="g4186c7b241_0_549.22">
        <stop
           id="stop752"
           stop-color="#29a1da"
           offset="0.0" />
        <stop
           id="stop754"
           stop-color="#29a1da"
           offset="0.45" />
        <stop
           id="stop756"
           stop-color="#2789b9"
           offset="0.56" />
        <stop
           id="stop758"
           stop-color="#2789b9"
           offset="1.0" />
      </linearGradient>
    </defs>
    <defs
       id="defs770">
      <linearGradient
         y2="70.300987"
         x2="17.946922"
         y1="70.301041"
         x1="24.892805"
         spreadMethod="pad"
         gradientTransform="scale(6.9458818)"
         gradientUnits="userSpaceOnUse"
         id="g4186c7b241_0_549.23">
        <stop
           id="stop765"
           stop-color="#6bc1ec"
           offset="0.0" />
        <stop
           id="stop767"
           stop-color="#8ad6f4"
           offset="1.0" />
      </linearGradient>
    </defs>
    <defs
       id="defs783">
      <linearGradient
         y2="72.203819"
         x2="24.886246"
         y1="72.203819"
         x1="17.937494"
         spreadMethod="pad"
         gradientTransform="scale(6.9487499)"
         gradientUnits="userSpaceOnUse"
         id="g4186c7b241_0_549.24">
        <stop
           id="stop774"
           stop-color="#dbdcdd"
           offset="0.0" />
        <stop
           id="stop776"
           stop-color="#dbdcdd"
           offset="0.41" />
        <stop
           id="stop778"
           stop-color="#b1b3b5"
           offset="0.6" />
        <stop
           id="stop780"
           stop-color="#b1b3b5"
           offset="1.0" />
      </linearGradient>
    </defs>
    <defs
       id="defs792">
      <linearGradient
         y2="67.682861"
         x2="22.07653"
         y1="72.447578"
         x1="26.841156"
         spreadMethod="pad"
         gradientTransform="scale(6.7382612)"
         gradientUnits="userSpaceOnUse"
         id="g4186c7b241_0_549.25">
        <stop
           id="stop787"
           stop-color="#e6e7e8"
           offset="0.0" />
        <stop
           id="stop789"
           stop-color="#ffffff"
           offset="1.0" />
      </linearGradient>
    </defs>
  </defs>
  <sodipodi:namedview
     pagecolor="#ffffff"
     bordercolor="#666666"
     borderopacity="1"
     objecttolerance="10"
     gridtolerance="10"
     guidetolerance="10"
     inkscape:pageopacity="1"
     inkscape:pageshadow="2"
     inkscape:window-width="1920"
     inkscape:window-height="1022"
     id="namedview862"
     showgrid="false"
     inkscape:zoom="2.0083333"
     inkscape:cx="124.75001"
     inkscape:cy="67.770228"
     inkscape:window-x="1920"
     inkscape:window-y="1"
     inkscape:window-maximized="1"
     inkscape:current-layer="svg860"
     fit-margin-top="20"
     fit-margin-left="20"
     fit-margin-right="20"
     fit-margin-bottom="20" />
  <clipPath
     id="g4186c7b241_0_549.0">
    <path
       d="M 0,0 H 960 V 540 H 0 Z"
       id="path2"
       inkscape:connector-curvature="0"
       style="clip-rule:nonzero" />
  </clipPath>
  <path
     inkscape:connector-curvature="0"
     style="fill:url(#g4186c7b241_0_549.6);fill-rule:evenodd"
     id="path133"
     d="m 112.28052,132.60316 v 0 c 0,8.37524 0,8.37524 0,8.37524 0,0.23087 -0.23065,0.46192 -0.93049,0.70047 -33.737843,11.17691 -33.737843,11.17691 -33.737843,11.17691 -0.930488,0.23102 -2.55413,0.23102 -3.715271,0 -33.74512,-11.17691 -33.74512,-11.17691 -33.74512,-11.17691 -0.231256,0 -0.461904,-0.23855 -0.461904,-0.23855 -0.237932,-0.23105 -0.237932,-0.23105 -0.237932,-0.46192 0,-8.37524 0,-8.37524 0,-8.37524 h 72.82855" />
  <path
     inkscape:connector-curvature="0"
     style="fill:url(#g4186c7b241_0_549.7);fill-rule:evenodd"
     id="path142"
     d="m 77.612491,144.45069 v 0 c 33.738329,-11.16412 33.738329,-11.16412 33.738329,-11.16412 1.16118,-0.46918 1.16118,-0.93088 0,-1.40006 -33.738329,-11.1716 -33.738329,-11.1716 -33.738329,-11.1716 -0.930901,-0.23077 -2.784752,-0.23077 -3.715653,0 -33.74566,11.1716 -33.74566,11.1716 -33.74566,11.1716 -0.930286,0.46918 -0.930286,0.93088 0,1.40006 33.74566,11.16412 33.74566,11.16412 33.74566,11.16412 1.161789,0.23096 2.784752,0.23096 3.715653,0" />
  <path
     inkscape:connector-curvature="0"
     style="fill:url(#g4186c7b241_0_549.8);fill-rule:evenodd"
     id="path155"
     d="m 112.26084,120.36273 v 0 c 0,8.37527 0,8.37527 0,8.37527 0,0.23087 -0.23064,0.46189 -0.93048,0.70044 -33.737851,11.17691 -33.737851,11.17691 -33.737851,11.17691 -0.930481,0.23102 -2.554131,0.23102 -3.715263,0 -33.745125,-11.17691 -33.745125,-11.17691 -33.745125,-11.17691 -0.231257,0 -0.461905,-0.23855 -0.461905,-0.23855 -0.237932,-0.23102 -0.237932,-0.23102 -0.237932,-0.46189 0,-8.37527 0,-8.37527 0,-8.37527 h 72.828556" />
  <path
     inkscape:connector-curvature="0"
     style="fill:url(#g4186c7b241_0_549.9);fill-rule:evenodd"
     id="path164"
     d="m 77.578106,132.21028 v 0 c 33.738334,-11.16412 33.738334,-11.16412 33.738334,-11.16412 1.16118,-0.46918 1.16118,-0.93088 0,-1.40006 -33.738334,-11.1716 -33.738334,-11.1716 -33.738334,-11.1716 -0.930893,-0.23077 -2.784752,-0.23077 -3.715645,0 -33.74566,11.1716 -33.74566,11.1716 -33.74566,11.1716 -0.930286,0.46918 -0.930286,0.93088 0,1.40006 33.74566,11.16412 33.74566,11.16412 33.74566,11.16412 1.161789,0.23096 2.784752,0.23096 3.715645,0" />
  <path
     style="fill:#23292f;fill-rule:evenodd"
     inkscape:connector-curvature="0"
     id="path166"
     d="m 56.417456,89.261529 11.737301,11.986751 0.400185,0.39298 0.419159,0.37326 0.438278,0.33417 0.457248,0.31442 0.457402,0.29468 0.457245,0.27514 0.476371,0.23587 0.495339,0.21613 0.495491,0.19641 0.495338,0.15729 0.514466,0.13757 0.514457,0.11786 0.514458,0.0983 0.514465,0.0588 0.533585,0.0393 h 1.02877 l 0.533577,-0.0393 0.514466,-0.0588 0.514457,-0.0983 0.514466,-0.11786 0.514457,-0.13757 0.495339,-0.15729 0.495491,-0.19641 0.476372,-0.21613 0.495338,-0.23587 0.457405,-0.27514 0.457245,-0.29468 0.457245,-0.31442 0.438278,-0.33417 0.419159,-0.37326 0.400192,-0.39298 11.737297,-11.986751 h -5.640106 l -8.917168,9.098077 -0.266792,0.25544 -0.266792,0.23584 -0.266793,0.21615 -0.285759,0.19657 -0.285759,0.19641 -0.304885,0.15728 -0.304886,0.15714 -0.304878,0.13757 -0.304886,0.117864 -0.323853,0.0983 -0.324005,0.0983 -0.323853,0.0786 -0.324005,0.059 -0.323852,0.0393 -0.342972,0.0196 h -0.647858 l -0.342971,-0.0196 -0.323853,-0.0393 -0.324005,-0.059 -0.323853,-0.0786 -0.324005,-0.0983 -0.323852,-0.0983 -0.304879,-0.117864 -0.304885,-0.13757 -0.304883,-0.15714 -0.304885,-0.15728 -0.285759,-0.19641 -0.285759,-0.19657 -0.266793,-0.21615 -0.266792,-0.23584 -0.266792,-0.25544 -8.917172,-9.098077 z" />
  <path
     style="fill:#23292f;fill-rule:evenodd"
     inkscape:connector-curvature="0"
     id="path168"
     d="m 75.338246,107.28083 -0.533585,0.0393 -0.514465,0.0787 -0.514458,0.0786 -0.514457,0.11786 -0.514466,0.13758 -0.495338,0.15728 -0.495491,0.19641 -0.495339,0.21616 -0.476371,0.23584 -0.457245,0.27515 -0.457401,0.29471 -0.457249,0.31442 -0.438278,0.3537 -0.419159,0.3537 -0.400185,0.393 -11.813484,12.06531 h 5.63995 l 8.993507,-9.17667 0.266792,-0.25558 0.266793,-0.23569 0.266792,-0.21612 0.285759,-0.1966 0.285759,-0.17685 0.304886,-0.17685 0.304882,-0.15713 0.304886,-0.13758 0.304878,-0.11801 0.323853,-0.0981 0.324005,-0.0983 0.323853,-0.059 0.324005,-0.0588 0.323852,-0.0395 0.342973,-0.0393 h 0.647856 l 0.342972,0.0393 0.323853,0.0395 0.324005,0.0588 0.323852,0.059 0.324005,0.0983 0.323853,0.0981 0.304886,0.11801 0.304878,0.13758 0.304886,0.15713 0.304886,0.17685 0.285759,0.17685 0.285759,0.1966 0.266792,0.21612 0.266792,0.23569 0.266793,0.25558 8.993507,9.17667 h 5.639946 l -11.813477,-12.06531 -0.400193,-0.393 -0.419159,-0.3537 -0.438278,-0.3537 -0.457245,-0.31442 -0.457245,-0.29471 -0.457405,-0.27515 -0.476371,-0.23584 -0.495339,-0.21616 -0.495491,-0.19641 -0.495338,-0.15728 -0.514458,-0.13758 -0.514465,-0.11786 -0.514458,-0.0786 -0.514465,-0.0787 -0.533577,-0.0393 z" />
  <path
     style="fill:#000000;fill-opacity:0;fill-rule:evenodd"
     inkscape:connector-curvature="0"
     id="path256"
     d="m 126.66552,111.86764 h 77.24934 v 40.66141 h -77.24934 z" />
  <path
     style="fill:#000000;fill-opacity:0;fill-rule:evenodd"
     inkscape:connector-curvature="0"
     id="path258"
     d="m 136.32169,111.86764 v 40.66141 m -9.65617,-35.57874 h 77.24934" />
  <path
     style="fill:#000000;fill-opacity:0;fill-rule:evenodd"
     inkscape:connector-curvature="0"
     id="path260"
     d="m 126.66552,111.86764 h 77.24934 v 40.66141 h -77.24934 z" />
  <path
     style="fill-rule:evenodd;stroke:#2c3e50;stroke-width:1;stroke-linecap:butt;stroke-linejoin:round"
     inkscape:connector-curvature="0"
     id="path262"
     d="m 136.32169,111.86764 v 40.66141 m -9.65617,-35.57874 h 77.24934" />
  <path
     style="fill-rule:evenodd;stroke:#2c3e50;stroke-width:1;stroke-linecap:butt;stroke-linejoin:round"
     inkscape:connector-curvature="0"
     id="path264"
     d="m 126.66552,111.86764 h 77.24934 v 40.66141 h -77.24934 z" />
  <path
     style="fill:#2c3e50;fill-rule:evenodd"
     inkscape:connector-curvature="0"
     id="path266"
     d="m 139.07457,135.07359 6.23622,-11.40158 6.23622,11.40158 z" />
  <path
     style="fill:#21aa47;fill-rule:evenodd"
     inkscape:connector-curvature="0"
     id="path330"
     d="m 153.69792,135.07359 6.23622,-11.40158 6.23622,11.40158 z" />
  <path
     style="fill:#ffffff;fill-rule:evenodd"
     inkscape:connector-curvature="0"
     id="path678"
     d="m 87.129446,34.971289 v 0 c 0,-4.87344 3.950706,-8.82414 8.82415,-8.82414 h 5.595804 v 0 h 21.62992 41.64566 c 2.34032,0 4.58478,0.92967 6.23963,2.58453 1.65484,1.65485 2.58453,3.89929 2.58453,6.23961 v 22.06036 0 13.23624 0 c 0,4.87345 -3.95071,8.82413 -8.82416,8.82413 H 123.17932 L 96.040976,100.00315 101.5494,79.092019 h -5.595804 c -4.873444,0 -8.82415,-3.95068 -8.82415,-8.82413 v 0 -13.23624 0 z" />
  <path
     style="fill-rule:evenodd;stroke:#23282f;stroke-width:1;stroke-linecap:butt;stroke-linejoin:round"
     inkscape:connector-curvature="0"
     id="path680"
     d="m 87.129446,34.971289 v 0 c 0,-4.87344 3.950706,-8.82414 8.82415,-8.82414 h 5.595804 v 0 h 21.62992 41.64566 c 2.34032,0 4.58478,0.92967 6.23963,2.58453 1.65484,1.65485 2.58453,3.89929 2.58453,6.23961 v 22.06036 0 13.23624 0 c 0,4.87345 -3.95071,8.82413 -8.82416,8.82413 H 123.17932 L 96.040976,100.00315 101.5494,79.092019 h -5.595804 c -4.873444,0 -8.82415,-3.95068 -8.82415,-8.82413 v 0 -13.23624 0 z" />
  <path
     style="fill:#23282f;fill-rule:evenodd"
     inkscape:connector-curvature="0"
     id="path682"
     d="m 109.11061,49.004539 6.23622,-11.40157 6.23622,11.40157 z" />
  <path
     style="fill:#23282f;fill-rule:evenodd"
     inkscape:connector-curvature="0"
     id="path684"
     d="m 123.80987,49.007169 6.23623,-11.40157 6.23622,11.40157 z" />
  <path
     style="fill:#23282f;fill-rule:evenodd"
     inkscape:connector-curvature="0"
     id="path686"
     d="m 138.50652,49.007169 6.23622,-11.40157 6.23622,11.40157 z" />
  <path
     style="fill:#23282f;fill-rule:evenodd"
     inkscape:connector-curvature="0"
     id="path688"
     d="m 153.20578,49.007169 6.23622,-11.40157 6.23622,11.40157 z" />
  <path
     style="fill:#23282f;fill-rule:evenodd"
     inkscape:connector-curvature="0"
     id="path690"
     d="m 94.775506,63.987679 6.236224,-11.40158 6.23621,11.40158 z" />
  <path
     style="fill:#23282f;fill-rule:evenodd"
     inkscape:connector-curvature="0"
     id="path692"
     d="m 109.30811,63.987679 6.23622,-11.40158 6.23622,11.40158 z" />
  <path
     style="fill:#23282f;fill-rule:evenodd"
     inkscape:connector-curvature="0"
     id="path694"
     d="m 94.410256,49.004729 6.236224,-11.40157 6.23622,11.40157 z" />
  <path
     style="fill:#23282f;fill-rule:evenodd"
     inkscape:connector-curvature="0"
     id="path696"
     d="m 138.37331,64.038859 6.23622,-11.40158 6.23622,11.40158 z" />
  <path
     style="fill:#000000;fill-opacity:0;fill-rule:evenodd"
     inkscape:connector-curvature="0"
     id="path698"
     d="m 123.84006,63.985729 6.23622,-11.40158 6.23622,11.40158 z" />
  <path
     style="fill-rule:evenodd;stroke:#21aa47;stroke-width:1;stroke-linecap:butt;stroke-linejoin:round;stroke-dasharray:4, 3"
     inkscape:connector-curvature="0"
     id="path700"
     d="m 123.84006,63.985729 6.23622,-11.40158 6.23622,11.40158 z" />
  <path
     style="fill:#23282f;fill-rule:evenodd"
     inkscape:connector-curvature="0"
     id="path702"
     d="m 152.90611,64.038859 6.23622,-11.40158 6.23622,11.40158 z" />
  <path
     style="fill:#000000;fill-opacity:0;fill-rule:evenodd"
     inkscape:connector-curvature="0"
     id="path852"
     d="m 132.55922,69.173379 c 8.61536,14.82407 25.50104,29.230157 25.50104,44.508881" />
  <path
     style="fill-rule:evenodd;stroke:#e64b3b;stroke-width:1.04808545;stroke-linecap:butt;stroke-linejoin:round"
     inkscape:connector-curvature="0"
     id="path854"
     d="m 135.10961,71.522539 c 4.09986,8.554741 10.16755,16.988837 15.21028,25.488557 2.52138,4.249864 4.78648,8.516144 6.42126,12.822084 0.4087,1.07646 0.77799,2.15538 1.10207,3.23721 0.16203,0.54092 0.31273,1.08253 0.45142,1.62488 0.0692,0.27118 0.13566,0.54257 0.19889,0.81413 0.0316,0.13578 0.0625,0.2716 0.0925,0.40753 l 0.0247,0.11449" />
  <path
     style="fill:#e64b3b;fill-rule:evenodd;stroke:#e64b3b;stroke-width:1;stroke-linecap:butt"
     inkscape:connector-curvature="0"
     id="path856"
     d="m 156.61073,116.03142 2.24834,4.27405 1.02499,-4.71933 z" />
</svg>
