<?xml version="1.0" encoding="UTF-8" standalone="no"?>
<svg
   xmlns:dc="http://purl.org/dc/elements/1.1/"
   xmlns:cc="http://creativecommons.org/ns#"
   xmlns:rdf="http://www.w3.org/1999/02/22-rdf-syntax-ns#"
   xmlns:svg="http://www.w3.org/2000/svg"
   xmlns="http://www.w3.org/2000/svg"
   xmlns:sodipodi="http://sodipodi.sourceforge.net/DTD/sodipodi-0.dtd"
   xmlns:inkscape="http://www.inkscape.org/namespaces/inkscape"
   version="1.1"
   viewBox="0 0 249.99999 180"
   stroke-miterlimit="10"
   id="svg860"
   sodipodi:docname="consensus-w-q-4.svg"
   inkscape:version="0.92.2 2405546, 2018-03-11"
   width="250"
   height="180"
   style="fill:none;stroke:none;stroke-linecap:square;stroke-miterlimit:10"
   inkscape:export-filename="/another/devel/ripple-dev-portal/img/consensus-w-q-4.png"
   inkscape:export-xdpi="96"
   inkscape:export-ydpi="96">
  <metadata
     id="metadata866">
    <rdf:RDF>
      <cc:Work
         rdf:about="">
        <dc:format>image/svg+xml</dc:format>
        <dc:type
           rdf:resource="http://purl.org/dc/dcmitype/StillImage" />
        <dc:title></dc:title>
      </cc:Work>
    </rdf:RDF>
  </metadata>
  <defs
     id="defs864">
    <defs
       id="defs61">
      <linearGradient
         y2="19.332516"
         x2="12.007618"
         y1="19.332516"
         x1="3.4736533"
         spreadMethod="pad"
         gradientTransform="scale(8.5339645)"
         gradientUnits="userSpaceOnUse"
         id="g4186c7b241_0_549.2">
        <stop
           id="stop52"
           stop-color="#29a1da"
           offset="0.0" />
        <stop
           id="stop54"
           stop-color="#29a1da"
           offset="0.45" />
        <stop
           id="stop56"
           stop-color="#2789b9"
           offset="0.56" />
        <stop
           id="stop58"
           stop-color="#2789b9"
           offset="1.0" />
      </linearGradient>
    </defs>
    <defs
       id="defs70">
      <linearGradient
         y2="15.532056"
         x2="3.4752655"
         y1="15.532118"
         x1="12.005706"
         spreadMethod="pad"
         gradientTransform="scale(8.53044)"
         gradientUnits="userSpaceOnUse"
         id="g4186c7b241_0_549.3">
        <stop
           id="stop65"
           stop-color="#6bc1ec"
           offset="0.0" />
        <stop
           id="stop67"
           stop-color="#8ad6f4"
           offset="1.0" />
      </linearGradient>
    </defs>
    <defs
       id="defs83">
      <linearGradient
         y2="17.898199"
         x2="12.005313"
         y1="17.898199"
         x1="3.471348"
         spreadMethod="pad"
         gradientTransform="scale(8.533965)"
         gradientUnits="userSpaceOnUse"
         id="g4186c7b241_0_549.4">
        <stop
           id="stop74"
           stop-color="#dbdcdd"
           offset="0.0" />
        <stop
           id="stop76"
           stop-color="#dbdcdd"
           offset="0.41" />
        <stop
           id="stop78"
           stop-color="#b1b3b5"
           offset="0.6" />
        <stop
           id="stop80"
           stop-color="#b1b3b5"
           offset="1.0" />
      </linearGradient>
    </defs>
    <defs
       id="defs92">
      <linearGradient
         y2="10.13494"
         x2="7.9749012"
         y1="15.986627"
         x1="13.826479"
         spreadMethod="pad"
         gradientTransform="scale(8.2754575)"
         gradientUnits="userSpaceOnUse"
         id="g4186c7b241_0_549.5">
        <stop
           id="stop87"
           stop-color="#e6e7e8"
           offset="0.0" />
        <stop
           id="stop89"
           stop-color="#ffffff"
           offset="1.0" />
      </linearGradient>
    </defs>
    <defs
       id="defs131">
      <linearGradient
         y2="41.839146"
         x2="12.097349"
         y1="41.839146"
         x1="3.5633848"
         spreadMethod="pad"
         gradientTransform="scale(8.5339647)"
         gradientUnits="userSpaceOnUse"
         id="g4186c7b241_0_549.6">
        <stop
           id="stop122"
           stop-color="#29a1da"
           offset="0.0" />
        <stop
           id="stop124"
           stop-color="#29a1da"
           offset="0.45" />
        <stop
           id="stop126"
           stop-color="#2789b9"
           offset="0.56" />
        <stop
           id="stop128"
           stop-color="#2789b9"
           offset="1.0" />
      </linearGradient>
    </defs>
    <defs
       id="defs140">
      <linearGradient
         y2="38.047985"
         x2="3.5650339"
         y1="38.048046"
         x1="12.095474"
         spreadMethod="pad"
         gradientTransform="scale(8.5304407)"
         gradientUnits="userSpaceOnUse"
         id="g4186c7b241_0_549.7">
        <stop
           id="stop135"
           stop-color="#6bc1ec"
           offset="0.0" />
        <stop
           id="stop137"
           stop-color="#8ad6f4"
           offset="1.0" />
      </linearGradient>
    </defs>
    <defs
       id="defs153">
      <linearGradient
         y2="40.404831"
         x2="12.095044"
         y1="40.404831"
         x1="3.5610795"
         spreadMethod="pad"
         gradientTransform="scale(8.5339651)"
         gradientUnits="userSpaceOnUse"
         id="g4186c7b241_0_549.8">
        <stop
           id="stop144"
           stop-color="#dbdcdd"
           offset="0.0" />
        <stop
           id="stop146"
           stop-color="#dbdcdd"
           offset="0.41" />
        <stop
           id="stop148"
           stop-color="#b1b3b5"
           offset="0.6" />
        <stop
           id="stop150"
           stop-color="#b1b3b5"
           offset="1.0" />
      </linearGradient>
    </defs>
    <defs
       id="defs162">
      <linearGradient
         y2="33.344627"
         x2="8.0674343"
         y1="39.196316"
         x1="13.919013"
         spreadMethod="pad"
         gradientTransform="scale(8.2754579)"
         gradientUnits="userSpaceOnUse"
         id="g4186c7b241_0_549.9">
        <stop
           id="stop157"
           stop-color="#e6e7e8"
           offset="0.0" />
        <stop
           id="stop159"
           stop-color="#ffffff"
           offset="1.0" />
      </linearGradient>
    </defs>
    <defs
       id="defs217">
      <linearGradient
         y2="17.811033"
         x2="71.775887"
         y1="17.811033"
         x1="63.24192"
         spreadMethod="pad"
         gradientTransform="scale(8.533966)"
         gradientUnits="userSpaceOnUse"
         id="g4186c7b241_0_549.10">
        <stop
           id="stop208"
           stop-color="#29a1da"
           offset="0.0" />
        <stop
           id="stop210"
           stop-color="#29a1da"
           offset="0.45" />
        <stop
           id="stop212"
           stop-color="#2789b9"
           offset="0.56" />
        <stop
           id="stop214"
           stop-color="#2789b9"
           offset="1.0" />
      </linearGradient>
    </defs>
    <defs
       id="defs226">
      <linearGradient
         y2="14.009948"
         x2="63.268234"
         y1="14.01001"
         x1="71.798676"
         spreadMethod="pad"
         gradientTransform="scale(8.5304404)"
         gradientUnits="userSpaceOnUse"
         id="g4186c7b241_0_549.11">
        <stop
           id="stop221"
           stop-color="#6bc1ec"
           offset="0.0" />
        <stop
           id="stop223"
           stop-color="#8ad6f4"
           offset="1.0" />
      </linearGradient>
    </defs>
    <defs
       id="defs239">
      <linearGradient
         y2="16.376717"
         x2="71.773582"
         y1="16.376717"
         x1="63.239613"
         spreadMethod="pad"
         gradientTransform="scale(8.533966)"
         gradientUnits="userSpaceOnUse"
         id="g4186c7b241_0_549.12">
        <stop
           id="stop230"
           stop-color="#dbdcdd"
           offset="0.0" />
        <stop
           id="stop232"
           stop-color="#dbdcdd"
           offset="0.41" />
        <stop
           id="stop234"
           stop-color="#b1b3b5"
           offset="0.6" />
        <stop
           id="stop236"
           stop-color="#b1b3b5"
           offset="1.0" />
      </linearGradient>
    </defs>
    <defs
       id="defs248">
      <linearGradient
         y2="8.565937"
         x2="69.610222"
         y1="14.417623"
         x1="75.4618"
         spreadMethod="pad"
         gradientTransform="scale(8.2754557)"
         gradientUnits="userSpaceOnUse"
         id="g4186c7b241_0_549.13">
        <stop
           id="stop243"
           stop-color="#e6e7e8"
           offset="0.0" />
        <stop
           id="stop245"
           stop-color="#ffffff"
           offset="1.0" />
      </linearGradient>
    </defs>
    <defs
       id="defs359">
      <linearGradient
         y2="40.741791"
         x2="70.346825"
         y1="40.741791"
         x1="61.812862"
         spreadMethod="pad"
         gradientTransform="scale(8.533966)"
         gradientUnits="userSpaceOnUse"
         id="g4186c7b241_0_549.14">
        <stop
           id="stop350"
           stop-color="#29a1da"
           offset="0.0" />
        <stop
           id="stop352"
           stop-color="#29a1da"
           offset="0.45" />
        <stop
           id="stop354"
           stop-color="#2789b9"
           offset="0.56" />
        <stop
           id="stop356"
           stop-color="#2789b9"
           offset="1.0" />
      </linearGradient>
    </defs>
    <defs
       id="defs368">
      <linearGradient
         y2="36.95018"
         x2="61.838585"
         y1="36.950241"
         x1="70.369026"
         spreadMethod="pad"
         gradientTransform="scale(8.5304404)"
         gradientUnits="userSpaceOnUse"
         id="g4186c7b241_0_549.15">
        <stop
           id="stop363"
           stop-color="#6bc1ec"
           offset="0.0" />
        <stop
           id="stop365"
           stop-color="#8ad6f4"
           offset="1.0" />
      </linearGradient>
    </defs>
    <defs
       id="defs381">
      <linearGradient
         y2="39.307472"
         x2="70.344521"
         y1="39.307472"
         x1="61.810555"
         spreadMethod="pad"
         gradientTransform="scale(8.533966)"
         gradientUnits="userSpaceOnUse"
         id="g4186c7b241_0_549.16">
        <stop
           id="stop372"
           stop-color="#dbdcdd"
           offset="0.0" />
        <stop
           id="stop374"
           stop-color="#dbdcdd"
           offset="0.41" />
        <stop
           id="stop376"
           stop-color="#b1b3b5"
           offset="0.6" />
        <stop
           id="stop378"
           stop-color="#b1b3b5"
           offset="1.0" />
      </linearGradient>
    </defs>
    <defs
       id="defs390">
      <linearGradient
         y2="32.212994"
         x2="68.136497"
         y1="38.064682"
         x1="73.988075"
         spreadMethod="pad"
         gradientTransform="scale(8.275459)"
         gradientUnits="userSpaceOnUse"
         id="g4186c7b241_0_549.17">
        <stop
           id="stop385"
           stop-color="#e6e7e8"
           offset="0.0" />
        <stop
           id="stop387"
           stop-color="#ffffff"
           offset="1.0" />
      </linearGradient>
    </defs>
    <defs
       id="defs713">
      <linearGradient
         y2="73.486526"
         x2="11.202056"
         y1="73.486526"
         x1="4.2533054"
         spreadMethod="pad"
         gradientTransform="scale(6.9487505)"
         gradientUnits="userSpaceOnUse"
         id="g4186c7b241_0_549.18">
        <stop
           id="stop704"
           stop-color="#29a1da"
           offset="0.0" />
        <stop
           id="stop706"
           stop-color="#29a1da"
           offset="0.45" />
        <stop
           id="stop708"
           stop-color="#2789b9"
           offset="0.56" />
        <stop
           id="stop710"
           stop-color="#2789b9"
           offset="1.0" />
      </linearGradient>
    </defs>
    <defs
       id="defs722">
      <linearGradient
         y2="70.415878"
         x2="4.2552071"
         y1="70.415932"
         x1="11.201087"
         spreadMethod="pad"
         gradientTransform="scale(6.9458803)"
         gradientUnits="userSpaceOnUse"
         id="g4186c7b241_0_549.19">
        <stop
           id="stop717"
           stop-color="#6bc1ec"
           offset="0.0" />
        <stop
           id="stop719"
           stop-color="#8ad6f4"
           offset="1.0" />
      </linearGradient>
    </defs>
    <defs
       id="defs735">
      <linearGradient
         y2="72.318642"
         x2="11.200179"
         y1="72.318642"
         x1="4.2514286"
         spreadMethod="pad"
         gradientTransform="scale(6.9487505)"
         gradientUnits="userSpaceOnUse"
         id="g4186c7b241_0_549.20">
        <stop
           id="stop726"
           stop-color="#dbdcdd"
           offset="0.0" />
        <stop
           id="stop728"
           stop-color="#dbdcdd"
           offset="0.41" />
        <stop
           id="stop730"
           stop-color="#b1b3b5"
           offset="0.6" />
        <stop
           id="stop732"
           stop-color="#b1b3b5"
           offset="1.0" />
      </linearGradient>
    </defs>
    <defs
       id="defs744">
      <linearGradient
         y2="67.801277"
         x2="7.9629421"
         y1="72.565987"
         x1="12.727568"
         spreadMethod="pad"
         gradientTransform="scale(6.7382612)"
         gradientUnits="userSpaceOnUse"
         id="g4186c7b241_0_549.21">
        <stop
           id="stop739"
           stop-color="#e6e7e8"
           offset="0.0" />
        <stop
           id="stop741"
           stop-color="#ffffff"
           offset="1.0" />
      </linearGradient>
    </defs>
    <defs
       id="defs761">
      <linearGradient
         y2="73.371712"
         x2="24.888123"
         y1="73.371712"
         x1="17.939371"
         spreadMethod="pad"
         gradientTransform="scale(6.9487499)"
         gradientUnits="userSpaceOnUse"
         id="g4186c7b241_0_549.22">
        <stop
           id="stop752"
           stop-color="#29a1da"
           offset="0.0" />
        <stop
           id="stop754"
           stop-color="#29a1da"
           offset="0.45" />
        <stop
           id="stop756"
           stop-color="#2789b9"
           offset="0.56" />
        <stop
           id="stop758"
           stop-color="#2789b9"
           offset="1.0" />
      </linearGradient>
    </defs>
    <defs
       id="defs770">
      <linearGradient
         y2="70.300987"
         x2="17.946922"
         y1="70.301041"
         x1="24.892805"
         spreadMethod="pad"
         gradientTransform="scale(6.9458818)"
         gradientUnits="userSpaceOnUse"
         id="g4186c7b241_0_549.23">
        <stop
           id="stop765"
           stop-color="#6bc1ec"
           offset="0.0" />
        <stop
           id="stop767"
           stop-color="#8ad6f4"
           offset="1.0" />
      </linearGradient>
    </defs>
    <defs
       id="defs783">
      <linearGradient
         y2="72.203819"
         x2="24.886246"
         y1="72.203819"
         x1="17.937494"
         spreadMethod="pad"
         gradientTransform="scale(6.9487499)"
         gradientUnits="userSpaceOnUse"
         id="g4186c7b241_0_549.24">
        <stop
           id="stop774"
           stop-color="#dbdcdd"
           offset="0.0" />
        <stop
           id="stop776"
           stop-color="#dbdcdd"
           offset="0.41" />
        <stop
           id="stop778"
           stop-color="#b1b3b5"
           offset="0.6" />
        <stop
           id="stop780"
           stop-color="#b1b3b5"
           offset="1.0" />
      </linearGradient>
    </defs>
    <defs
       id="defs792">
      <linearGradient
         y2="67.682861"
         x2="22.07653"
         y1="72.447578"
         x1="26.841156"
         spreadMethod="pad"
         gradientTransform="scale(6.7382612)"
         gradientUnits="userSpaceOnUse"
         id="g4186c7b241_0_549.25">
        <stop
           id="stop787"
           stop-color="#e6e7e8"
           offset="0.0" />
        <stop
           id="stop789"
           stop-color="#ffffff"
           offset="1.0" />
      </linearGradient>
    </defs>
  </defs>
  <sodipodi:namedview
     pagecolor="#ffffff"
     bordercolor="#666666"
     borderopacity="1"
     objecttolerance="10"
     gridtolerance="10"
     guidetolerance="10"
     inkscape:pageopacity="1"
     inkscape:pageshadow="2"
     inkscape:window-width="1920"
     inkscape:window-height="1022"
     id="namedview862"
     showgrid="false"
     inkscape:zoom="2.0083334"
     inkscape:cx="45.546074"
     inkscape:cy="120.88076"
     inkscape:window-x="1920"
     inkscape:window-y="1"
     inkscape:window-maximized="1"
     inkscape:current-layer="svg860"
     fit-margin-top="20"
     fit-margin-left="20"
     fit-margin-right="20"
     fit-margin-bottom="20" />
  <clipPath
     id="g4186c7b241_0_549.0">
    <path
       d="M 0,0 H 960 V 540 H 0 Z"
       id="path2"
       inkscape:connector-curvature="0"
       style="clip-rule:nonzero" />
  </clipPath>
  <path
     style="fill:#000000;fill-opacity:0;fill-rule:evenodd;stroke-width:1.20555258"
     inkscape:connector-curvature="0"
     id="path484"
     d="M 78.859987,138.46543 H 161.11953 V 38.110127 L 147.85191,24.8425 H 78.859987 Z" />
  <path
     style="fill:#000000;fill-opacity:0;fill-rule:evenodd;stroke-width:1.20555258"
     inkscape:connector-curvature="0"
     id="path486"
     d="m 147.85196,24.8425 2.65355,10.614108 10.61407,2.653519 z" />
  <path
     style="fill:#000000;fill-opacity:0;fill-rule:evenodd;stroke-width:1.20555258"
     inkscape:connector-curvature="0"
     id="path488"
     d="m 147.85196,24.8425 2.65355,10.614108 10.61407,2.653519 L 147.85196,24.8425 H 78.860035 V 138.46543 H 161.11958 V 38.110127" />
  <path
     style="fill:#000000;fill-opacity:0.2;fill-rule:evenodd;stroke-width:1.20555258"
     inkscape:connector-curvature="0"
     id="path490"
     d="m 147.85196,24.8425 2.65355,10.614108 10.61407,2.653519 z" />
  <path
     style="fill-rule:evenodd;stroke:#2c3e50;stroke-width:1.20555258;stroke-linecap:butt;stroke-linejoin:round"
     inkscape:connector-curvature="0"
     id="path492"
     d="m 147.85196,24.8425 2.65355,10.614108 10.61407,2.653519 L 147.85196,24.8425 H 78.860035 V 138.46543 H 161.11958 V 38.110127" />
  <path
     style="fill:#2c3e50;fill-rule:evenodd;stroke-width:1.20555258"
     inkscape:connector-curvature="0"
     id="path494"
     d="m 147.90733,51.50718 0.22905,0.01603 0.22906,0.03279 0.22899,0.03279 0.22906,0.06558 0.22898,0.04894 0.21302,0.08174 0.21228,0.08174 0.19616,0.09849 0.21295,0.09777 0.19624,0.114528 0.17946,0.114527 0.18013,0.131333 0.1802,0.146728 0.16335,0.147415 0.16343,0.147427 0.16342,0.163461 0.14731,0.163497 0.13127,0.18023 0.13061,0.180243 0.13052,0.196311 0.0985,0.196314 0.11453,0.196348 0.0817,0.212393 0.0978,0.213059 0.0656,0.212394 0.0656,0.213081 0.0489,0.229139 0.0488,0.229163 0.0168,0.229139 0.0328,0.245246 v 0.245246 0.229127 l -0.0328,0.245909 -0.0168,0.229128 -0.0488,0.229176 -0.0489,0.228463 -0.0656,0.213094 -0.0656,0.212395 -0.0978,0.213045 -0.0817,0.21243 -0.11453,0.196974 -0.0985,0.196326 -0.13052,0.196312 -0.13061,0.179567 -0.13127,0.180242 -0.14731,0.163497 -0.16342,0.163497 -0.16343,0.147379 -0.16335,0.147427 -0.1802,0.147415 -0.18013,0.130646 -0.17946,0.114527 -0.19624,0.114528 -0.21295,0.09849 -0.19616,0.09777 -0.21228,0.08174 -0.21302,0.08174 -0.22898,0.04955 -0.22906,0.06498 -0.22899,0.03279 -0.22906,0.03279 -0.22905,0.01676 h -0.4902 l -0.22899,-0.01676 -0.22905,-0.03279 -0.22898,-0.03279 -0.22906,-0.06498 -0.22907,-0.04955 -0.21227,-0.08174 -0.21295,-0.08174 -0.19617,-0.09777 -0.21227,-0.09849 -0.19625,-0.114528 -0.18012,-0.114527 -0.18012,-0.130646 -0.17955,-0.147415 -0.16401,-0.147427 -0.16343,-0.147379 -0.16341,-0.163497 -0.14732,-0.163497 -0.1306,-0.180242 -0.13127,-0.179567 -0.13054,-0.196312 -0.0985,-0.196326 -0.11453,-0.196974 -0.0817,-0.21243 -0.0978,-0.213045 -0.0656,-0.212395 -0.0656,-0.213094 -0.0489,-0.228463 -0.0488,-0.229176 -0.0168,-0.229128 -0.0322,-0.245909 v -0.229127 -0.245246 l 0.0322,-0.245246 0.0168,-0.229139 0.0488,-0.229163 0.0489,-0.229139 0.0656,-0.213081 0.0656,-0.212394 0.0978,-0.213059 0.0817,-0.212393 0.11453,-0.196348 0.0985,-0.196314 0.13054,-0.196311 0.13127,-0.180243 0.1306,-0.18023 0.14732,-0.163497 0.16341,-0.163461 0.16343,-0.147427 0.16401,-0.147415 0.17955,-0.146728 0.18012,-0.131333 0.18012,-0.114527 0.19625,-0.114528 0.21227,-0.09777 0.19617,-0.09849 0.21295,-0.08174 0.21227,-0.08174 0.22907,-0.04894 0.22906,-0.06558 0.22898,-0.03279 0.22905,-0.03279 0.22899,-0.01603 z m -0.52302,-0.654615 -0.2618,0.01603 -0.26188,0.03279 -0.26113,0.04895 -0.26187,0.06558 -0.26181,0.0657 -0.24509,0.08174 -0.22907,0.09777 -0.24575,0.114527 -0.22833,0.114528 -0.21301,0.131345 -0.22898,0.130645 -0.19626,0.147415 -0.21227,0.163499 -0.18013,0.16346 -0.19624,0.180279 -0.16334,0.180242 -0.18021,0.196312 -0.14731,0.196312 -0.1473,0.212395 -0.14666,0.213045 -0.13126,0.229175 -0.11453,0.229164 -0.0978,0.229139 -0.0985,0.245246 -0.0816,0.245209 -0.0817,0.245897 -0.0488,0.261327 -0.0496,0.261991 -0.0328,0.261979 -0.0162,0.278061 -0.016,0.278072 0.016,0.261979 0.0162,0.278061 0.0328,0.261953 0.0496,0.261979 0.0488,0.26199 0.0817,0.245246 0.0816,0.245209 0.0985,0.245909 0.0978,0.229163 0.11453,0.22914 0.13126,0.2285 0.14666,0.213058 0.1473,0.212394 0.14731,0.197012 0.18021,0.196311 0.16334,0.179581 0.19624,0.180229 0.18013,0.163462 0.21227,0.163497 0.19626,0.147427 0.22898,0.131297 0.21301,0.130682 0.22833,0.114527 0.24575,0.114528 0.22907,0.09777 0.24509,0.08246 0.26181,0.06498 0.26187,0.0657 0.26113,0.04895 0.26188,0.03291 0.2618,0.01603 h 0.55583 l 0.26189,-0.01603 0.26187,-0.03291 0.26179,-0.04895 0.26122,-0.0657 0.2618,-0.06498 0.2451,-0.08246 0.22906,-0.09777 0.24576,-0.114528 0.22898,-0.114527 0.21229,-0.130682 0.22905,-0.131297 0.19624,-0.147427 0.21295,-0.163497 0.17946,-0.163462 0.19624,-0.180229 0.16402,-0.179581 0.17953,-0.196311 0.14732,-0.197012 0.1473,-0.212394 0.14731,-0.213058 0.13061,-0.2285 0.11453,-0.22914 0.0985,-0.229163 0.0978,-0.245909 0.0817,-0.245209 0.0817,-0.245246 0.0495,-0.26199 0.0488,-0.261979 0.0328,-0.261953 0.0161,-0.278061 0.0168,-0.261979 -0.0168,-0.278072 -0.0161,-0.278061 -0.0328,-0.261979 -0.0488,-0.261991 -0.0495,-0.261327 -0.0817,-0.245897 -0.0817,-0.245209 -0.0978,-0.245246 -0.0985,-0.229139 -0.11453,-0.229164 -0.13061,-0.229175 -0.14731,-0.213045 -0.1473,-0.212395 -0.14732,-0.196312 -0.17953,-0.196312 -0.16402,-0.180242 -0.19624,-0.180279 -0.17946,-0.16346 -0.21295,-0.163499 -0.19624,-0.147415 -0.22905,-0.130645 -0.21229,-0.131345 -0.22898,-0.114528 -0.24576,-0.114527 -0.22906,-0.09777 -0.2451,-0.08174 -0.2618,-0.0657 -0.26122,-0.06558 -0.26179,-0.04895 -0.26187,-0.03279 -0.26189,-0.01603 z" />
  <path
     style="fill:#2c3e50;fill-rule:evenodd;stroke-width:1.20555258"
     inkscape:connector-curvature="0"
     id="path496"
     d="m 147.6622,52.717916 0.0489,0.01676 0.0496,0.01603 0.0817,0.04895 0.0649,0.08174 0.0168,0.04955 v 0.04895 3.076087 l 1.47192,1.456645 0.0328,0.04895 0.0162,0.04955 0.0166,0.09777 -0.0166,0.09849 -0.0162,0.04895 -0.0328,0.03279 -0.0488,0.03279 -0.0495,0.03279 -0.0978,0.01603 -0.0985,-0.01603 -0.0489,-0.03279 -0.0328,-0.03279 -1.53763,-1.538394 -0.0488,-0.09777 -0.0328,-0.08246 v -3.190688 -0.04894 l 0.0166,-0.04955 0.065,-0.08174 0.0825,-0.04894 0.0488,-0.01603 z m -0.16335,-0.883778 -0.2451,0.01676 -0.24575,0.03279 -0.2451,0.03219 -0.22906,0.0657 -0.22906,0.0657 -0.22899,0.08174 -0.22905,0.09777 -0.21229,0.09849 0.13061,0.212382 0.016,0.0657 v 0.06558 l -0.0322,0.0657 -0.0496,0.03219 -0.0322,0.01676 h -0.0823 l -0.0489,-0.01676 -0.0328,-0.01603 -0.016,-0.04895 -0.13127,-0.213081 -0.19624,0.147415 -0.19617,0.147415 -0.17946,0.147391 -0.18013,0.163497 -0.16341,0.18023 -0.16343,0.17958 -0.14732,0.196313 -0.13126,0.213093 0.21294,0.114528 0.0489,0.04894 0.0328,0.04895 v 0.0657 l -0.0162,0.06558 -0.0328,0.03219 -0.0328,0.03279 -0.0488,0.01676 h -0.0825 l -0.0321,-0.01676 -0.21302,-0.130645 -0.11453,0.212394 -0.0817,0.213057 -0.0817,0.229164 -0.0817,0.229128 -0.0488,0.245246 -0.0495,0.229138 -0.0328,0.245246 -0.016,0.261978 h 0.44127 l 0.0656,0.03279 0.0328,0.0657 v 0.06498 0.04955 l -0.0328,0.06498 -0.0656,0.03279 -0.0649,0.01676 h -0.37636 l 0.016,0.245209 0.0328,0.245246 0.0495,0.229139 0.0488,0.245909 0.0817,0.229163 0.0817,0.228465 0.0817,0.213057 0.11452,0.21243 0.21303,-0.114648 0.0649,-0.03219 0.0656,0.01603 0.0489,0.01603 0.0496,0.04955 0.0161,0.06498 v 0.06558 l -0.0328,0.04895 -0.0489,0.04955 -0.21294,0.114527 0.13126,0.212395 0.14732,0.196312 0.16342,0.180242 0.16342,0.18023 0.18013,0.163497 0.17946,0.147427 0.19617,0.146716 0.19624,0.147415 0.13127,-0.212382 0.0328,-0.04955 0.065,-0.03219 h 0.0656 l 0.0488,0.01603 0.0496,0.04895 0.0322,0.04955 v 0.06498 l -0.016,0.0657 -0.13061,0.212418 0.21229,0.09849 0.22905,0.09789 0.22898,0.08234 0.22907,0.06498 0.22906,0.0657 0.2451,0.03279 0.24575,0.03291 0.2451,0.01603 v -0.376542 l 0.016,-0.06498 0.0328,-0.04955 0.0489,-0.03219 0.0656,-0.01676 0.0656,0.01676 0.0489,0.03219 0.0328,0.04955 0.016,0.06498 v 0.376542 l 0.24577,-0.01603 0.24509,-0.03291 0.2451,-0.03279 0.22906,-0.0657 0.22906,-0.06498 0.22898,-0.08234 0.22906,-0.09789 0.21295,-0.09849 -0.13128,-0.212418 -0.016,-0.0657 v -0.06498 l 0.0328,-0.04955 0.0488,-0.04895 0.0488,-0.01603 h 0.0656 l 0.0656,0.03219 0.0322,0.04955 0.13128,0.212382 0.19616,-0.147415 0.19624,-0.146716 0.18012,-0.147427 0.17948,-0.163497 0.16342,-0.18023 0.16408,-0.180242 0.14665,-0.196312 0.13126,-0.212395 -0.21293,-0.114527 -0.0489,-0.04955 -0.0328,-0.04895 v -0.06558 l 0.0168,-0.06498 0.0488,-0.04955 0.049,-0.01603 0.0656,-0.01603 0.0656,0.03219 0.21235,0.114648 0.11452,-0.21243 0.0817,-0.213057 0.0817,-0.228465 0.0817,-0.229163 0.0496,-0.245909 0.0489,-0.229139 0.0328,-0.245246 0.016,-0.245209 h -0.37636 l -0.065,-0.01676 -0.0656,-0.03279 -0.0328,-0.06498 v -0.04955 -0.06498 l 0.0328,-0.0657 0.0656,-0.03279 h 0.44134 l -0.016,-0.261978 -0.0328,-0.245246 -0.0489,-0.229138 -0.0496,-0.245246 -0.0817,-0.229128 -0.0817,-0.229164 -0.0817,-0.213057 -0.11452,-0.212394 -0.21235,0.130645 -0.0328,0.01676 h -0.0817 l -0.0496,-0.01676 -0.0322,-0.03279 -0.0328,-0.03219 -0.0168,-0.06558 v -0.0657 l 0.0328,-0.04895 0.0489,-0.04894 0.21294,-0.114528 -0.13126,-0.213093 -0.14665,-0.196313 -0.16408,-0.17958 -0.16343,-0.18023 -0.17947,-0.163497 -0.18012,-0.147391 -0.19624,-0.147415 -0.19616,-0.147415 -0.13128,0.213081 -0.016,0.04895 -0.0328,0.01603 -0.0489,0.01676 h -0.0816 l -0.0328,-0.01676 -0.0488,-0.03219 -0.0328,-0.0657 v -0.06558 l 0.016,-0.0657 0.13128,-0.212382 -0.21295,-0.09849 -0.22906,-0.09777 -0.22898,-0.08174 -0.22906,-0.0657 -0.22906,-0.0657 -0.2451,-0.03219 -0.24509,-0.03279 -0.24577,-0.01676 v 0.376542 l -0.016,0.0657 -0.0328,0.04895 -0.0489,0.03279 -0.0656,0.01603 -0.0656,-0.01603 -0.049,-0.03279 -0.0328,-0.04895 -0.016,-0.0657 z" />
  <path
     style="fill:#000000;fill-opacity:0;fill-rule:evenodd;stroke-width:1.20555258"
     inkscape:connector-curvature="0"
     id="path498"
     d="M 81.462172,24.835389 H 107.08237 V 35.454763 H 81.462172 Z" />
  <path
     style="fill:#2c3e50;fill-rule:nonzero;stroke-width:1.20555258"
     inkscape:connector-curvature="0"
     id="path500"
     d="m 86.868353,35.822481 h -1.864846 l -0.565102,2.900861 H 83.42122 l 0.565102,-2.900861 H 82.309857 V 34.8618 h 1.864833 l 0.489756,-2.505283 h -1.82716 v -0.979512 h 2.015527 l 0.583946,-2.938534 h 0.998342 l -0.565103,2.938534 h 1.864846 l 0.565102,-2.938534 h 1.017185 l -0.565102,2.938534 h 1.431593 v 0.979512 H 88.563661 L 88.073905,34.8618 h 1.582288 v 0.960681 h -1.770655 l -0.565103,2.900861 H 86.30325 Z M 85.191875,34.8618 h 1.864845 l 0.489756,-2.505283 h -1.864845 z" />
  <path
     style="fill:#2c3e50;fill-rule:evenodd;stroke-width:1.20555258"
     inkscape:connector-curvature="0"
     id="path504"
     d="m 120.67458,32.359603 c -7.3e-4,0 0.008,0.01555 0.0134,0.02098 -0.01,-0.01567 -0.013,-0.02098 -0.0134,-0.02098 z m -7.07695,0.547044 v 0 c -10e-4,0.0024 -0.002,0.0048 -0.005,0.0072 v 0 c -0.002,0.0096 -0.004,0.01736 -0.004,0.01736 3.7e-4,0 0.002,-0.006 0.007,-0.02411 z m 5.13713,0.656411 c 7.4e-4,0.0024 0.001,0.0036 0.002,0.006 -8.9e-4,-0.0024 -0.001,-0.0036 -0.002,-0.006 z m -1.54432,-4.072827 c -0.60653,0 -1.21305,0.125571 -1.77787,0.386971 -0.85655,0.390345 -1.59442,1.060741 -1.96763,1.943278 -0.28835,0.678859 -0.3732,1.42559 -0.29682,2.17237 0.0424,0.44122 0.12723,0.890988 0.27136,1.315294 0.017,0.01688 0.0254,0.04243 0.0254,0.05943 0.0418,0.104762 0.12392,0.180748 0.22729,0.180748 0.0223,0 0.0456,-0.0036 0.0696,-0.01085 0.0679,-0.0084 0.16967,-0.152707 0.11875,-0.280014 -0.11875,-0.2885 -0.17814,-0.585549 -0.23744,-0.890987 l -0.0254,-0.203678 c 0,-0.02544 0,-0.03388 -0.017,-0.05087 0,-0.04243 -0.008,-0.08487 -0.008,-0.127294 -0.017,-0.161219 -0.017,-0.322473 -0.017,-0.492191 0,-0.169706 0.008,-0.347886 0.0254,-0.517604 0,-0.02315 0,-0.0393 0.0128,-0.06112 v 0 c 0.002,-0.0096 0.005,-0.02074 0.005,-0.02375 0.008,-0.04243 0.008,-0.08487 0.0169,-0.127294 0.017,-0.09331 0.0339,-0.195179 0.0679,-0.28005 0.10175,-0.381858 0.22906,-0.687322 0.46651,-1.018294 0.10175,-0.144257 0.22899,-0.297012 0.38159,-0.43277 0.16968,-0.161254 0.33936,-0.297048 0.53442,-0.424306 0.50035,-0.313962 1.07707,-0.543064 1.67074,-0.594012 0.12677,-0.01205 0.25348,-0.01748 0.37989,-0.01748 0.51647,0 1.02771,0.09644 1.5115,0.280496 0.47497,0.186703 0.91594,0.458218 1.26368,0.83165 0.18661,0.186668 0.33929,0.415771 0.47497,0.644935 0.0763,0.127258 0.15268,0.263051 0.21199,0.407308 0.034,0.06787 0.0764,0.144256 0.11031,0.220628 0.0339,0.07631 0.0509,0.144256 0.0763,0.220604 0.017,0.06787 0.0254,0.127294 0.0424,0.195167 0.008,0.02544 0.008,0.06787 0.0169,0.110308 0,0.02544 0.008,0.04243 0.008,0.06787 -0.002,-0.01688 -0.004,-0.02327 -0.004,-0.02327 v 0 c -0.001,0 0.004,0.05931 0.004,0.06558 0.0169,0.08487 0.0169,0.169718 0.0169,0.263052 v 0.135793 0.07631 0.04243 c -0.0339,0.212165 -0.0764,0.330973 -0.20353,0.500678 l -0.0254,0.03388 -0.0509,0.05088 c -0.0339,0.034 -0.0679,0.05943 -0.0849,0.07631 -0.11019,0.08487 -0.23745,0.135794 -0.36467,0.169754 -0.1044,0.03267 -0.21625,0.04895 -0.32942,0.04895 -0.18108,0 -0.3654,-0.04171 -0.52721,-0.125353 -0.20352,-0.110308 -0.34767,-0.254552 -0.45797,-0.458218 -0.0169,-0.04244 -0.0254,-0.05943 -0.0509,-0.127294 -0.008,-0.03388 -0.0169,-0.07631 -0.0169,-0.101748 -0.0109,-0.02857 -0.0266,-0.07607 -0.0225,-0.07607 0.002,0 0.007,0.0096 0.02,0.03665 v 0 c -0.0212,-0.05075 0.002,-0.123616 -0.0145,-0.17273 0,-0.08487 -0.017,-0.169719 -0.0254,-0.271516 -0.14768,-0.722896 -0.84619,-1.137342 -1.5349,-1.137342 -0.41898,0 -0.83427,0.153346 -1.11977,0.483872 -0.56826,0.65347 -0.40711,1.620842 -0.10175,2.367586 0.34775,0.8571 1.01771,1.535958 1.84041,1.951729 0.27145,0.135793 0.55135,0.237638 0.83972,0.339435 0.0268,0.0084 0.052,0.0123 0.0758,0.0123 0.24039,0 0.3214,-0.394059 0.0512,-0.478978 -0.5088,-0.169718 -1.02622,-0.415806 -1.43335,-0.755266 -0.33921,-0.280014 -0.56819,-0.577063 -0.78026,-0.941911 l -0.12722,-0.254565 -0.0169,-0.02544 c -0.008,-0.017 -0.017,-0.04244 -0.017,-0.051 -0.0254,-0.04243 -0.0339,-0.08487 -0.0424,-0.127258 -0.0509,-0.152756 -0.0933,-0.30551 -0.12722,-0.466729 -0.008,-0.07631 -0.0254,-0.135793 -0.0339,-0.203667 0,-0.017 0,-0.03388 -0.008,-0.04243 0,-0.034 -0.008,-0.05943 -0.008,-0.09331 -0.0339,-0.263052 0.008,-0.534637 0.14422,-0.763742 0.19875,-0.329562 0.52677,-0.476433 0.86694,-0.476433 0.16791,0 0.33876,0.0358 0.49858,0.103075 0.18654,0.07643 0.35621,0.203678 0.45798,0.373383 0.12722,0.203642 0.11875,0.424307 0.1526,0.670408 0.004,0.02351 0.004,0.0311 0.004,0.0311 -5.7e-4,0 -0.004,-0.01748 -0.004,-0.02266 v 0 c 0,0.034 0.008,0.05087 0.008,0.08487 0.008,0.03388 0.008,0.07643 0.017,0.101869 0.0254,0.07631 0.0594,0.161255 0.0849,0.229091 0.0339,0.06787 0.0847,0.152756 0.14422,0.220678 0.19507,0.26305 0.47489,0.458217 0.80564,0.551563 0.15011,0.04485 0.30962,0.06715 0.47032,0.06715 0.44782,0 0.90499,-0.17343 1.19202,-0.516905 0.47497,-0.568563 0.42412,-1.408676 0.2036,-2.087535 -0.15268,-0.44122 -0.40712,-0.865526 -0.69549,-1.230423 -0.31382,-0.415771 -0.72087,-0.76373 -1.18737,-1.009818 -0.65878,-0.348153 -1.3912,-0.531228 -2.12356,-0.531228 z" />
  <path
     style="fill:#2c3e50;fill-rule:evenodd;stroke-width:1.20555258"
     inkscape:connector-curvature="0"
     id="path506"
     d="m 117.13477,28.288042 c -0.49867,0 -1.00763,0.05461 -1.48465,0.189031 -0.78878,0.220628 -1.50974,0.636399 -2.12032,1.162538 -0.30535,0.28005 -0.61918,0.585489 -0.83964,0.93346 -0.12338,0.188138 0.0381,0.36404 0.20552,0.36404 0.0741,0 0.14945,-0.0346 0.20155,-0.117903 0.008,-0.017 0.017,-0.02544 0.0424,-0.05087 0.0169,-0.017 0.0339,-0.04243 0.0424,-0.05943 7.3e-4,-0.0024 0.001,-0.0048 0.002,-0.006 v 0 c -0.001,0.0024 -0.002,0.0048 -0.002,0.006 0.0108,-0.01435 0.0174,-0.02375 0.021,-0.02942 v 0 c -0.007,0.0072 -0.0137,0.01374 -0.0183,0.02291 v 0 c 0.007,-0.01423 0.02,-0.03026 0.0218,-0.03026 5.8e-4,0 -3e-4,0.0024 -0.004,0.0072 v 0 c 0.008,-0.0084 0.0171,-0.01712 0.0215,-0.0299 0.13569,-0.169718 0.29682,-0.339424 0.45797,-0.492216 0.23751,-0.237567 0.44951,-0.407273 0.7294,-0.585524 0.33076,-0.212143 0.6785,-0.390311 1.03478,-0.517604 0.42397,-0.152757 0.87355,-0.246139 1.33152,-0.28005 0.0975,-0.0048 0.1972,-0.006 0.29683,-0.006 0.0997,0 0.19933,0.0024 0.2969,0.006 0.0933,0 0.19506,0.0084 0.29682,0.0084 0.0509,0 0.11019,0.017 0.16961,0.02544 0.0254,0 0.0594,0.0084 0.0933,0.0084 0.0125,0.0012 0.0175,0.0024 0.0181,0.0024 0.001,0 -0.0293,-0.0048 -0.0277,-0.0048 5.9e-4,0 0.006,6.65e-4 0.0181,0.0024 0.0254,0 0.0424,0 0.0509,0.0084 0.32236,0.05943 0.63618,0.127296 0.94993,0.23764 0.90756,0.313962 1.72173,0.967372 2.30691,1.756563 0.0512,0.07402 0.12922,0.121339 0.21089,0.121339 0.0399,0 0.0809,-0.01085 0.11995,-0.03653 0.10175,-0.05943 0.16107,-0.220663 0.0847,-0.330959 -0.57672,-0.789203 -1.32305,-1.4426 -2.23061,-1.832947 -0.60211,-0.263051 -1.24668,-0.415842 -1.90825,-0.441268 -0.12862,-0.0072 -0.25879,-0.01085 -0.38969,-0.01085 z" />
  <path
     style="fill:#2c3e50;fill-rule:evenodd;stroke-width:1.20555258"
     inkscape:connector-curvature="0"
     id="path508"
     d="m 117.56691,34.187993 c 0,0.0024 0.001,0.006 0.004,0.0084 v 0 c -0.001,-0.0024 -0.002,-0.0048 -0.004,-0.0084 z m -0.40322,-1.001331 c -0.12141,0 -0.24555,0.07848 -0.24989,0.237601 -0.008,0.449755 0.14422,0.908022 0.3732,1.298332 0.31376,0.577062 0.82265,1.01833 1.4503,1.213497 0.28055,0.08366 0.56392,0.113081 0.85177,0.113081 0.2083,0 0.41882,-0.01543 0.63243,-0.03677 0.12729,-0.017 0.24598,-0.110308 0.24598,-0.24609 0,-0.123254 -0.10344,-0.246499 -0.23311,-0.246499 -0.005,0 -0.008,1.08e-4 -0.0129,4.34e-4 -0.22039,0.02242 -0.44084,0.04256 -0.65628,0.04256 -0.19065,0 -0.37733,-0.01579 -0.5565,-0.05955 -0.16967,-0.04244 -0.28835,-0.08487 -0.40711,-0.152791 -0.0679,-0.03388 -0.12723,-0.07631 -0.19507,-0.101749 -0.034,-0.02544 -0.0509,-0.04244 -0.0849,-0.05943 -0.0169,-0.0084 -0.0339,-0.017 -0.0424,-0.02544 -0.008,-0.017 -0.0169,-0.017 -0.0169,-0.02544 -0.11019,-0.08487 -0.21198,-0.186681 -0.29682,-0.297049 -0.0254,-0.01688 -0.0424,-0.05087 -0.0679,-0.07631 v 0 c 0.006,0.006 0.008,0.0084 0.01,0.0084 0.002,0 -0.0434,-0.05256 -0.0434,-0.05955 -0.0424,-0.05088 -0.0679,-0.118747 -0.11018,-0.169717 -0.0679,-0.101748 -0.11875,-0.212129 -0.16968,-0.33096 0,-0.006 -0.007,-0.01085 -0.0128,-0.01712 v 0 c 0.001,0.0024 0.002,0.0036 0.002,0.006 v 0 c -0.002,-0.0024 -0.005,-0.0036 -0.007,-0.0048 -0.008,-0.03388 -0.017,-0.05087 -0.0254,-0.08487 -0.0254,-0.05087 -0.034,-0.110308 -0.0594,-0.161255 -0.0254,-0.09331 -0.0509,-0.186716 -0.0679,-0.288513 0,-0.006 -0.008,-0.04786 -0.0137,-0.04786 -4.5e-4,0 -8.9e-4,3.98e-4 -0.001,0.0012 v 0 c -0.001,-0.006 -0.002,-0.01085 -0.002,-0.01278 v -0.195167 c 0,-0.146462 -0.11549,-0.220676 -0.23354,-0.220676 z" />
  <path
     style="fill:#2c3e50;fill-rule:evenodd;stroke-width:1.20555258"
     inkscape:connector-curvature="0"
     id="path510"
     d="m 119.4853,33.161247 c 0.004,0.01206 0.007,0.02279 0.007,0.034 -0.004,-0.01893 -0.006,-0.0293 -0.007,-0.034 z m -2.30206,-2.437891 c -0.13332,0 -0.26599,0.0096 -0.39667,0.02785 -0.92447,0.110308 -1.84041,0.738267 -2.21362,1.595379 -0.24598,0.568491 -0.28835,1.179501 -0.20352,1.77349 0.16107,1.086167 0.72088,2.070537 1.50113,2.825802 0.0511,0.04726 0.10754,0.06715 0.1621,0.06715 0.18991,0 0.35517,-0.241749 0.17718,-0.406608 -0.65303,-0.636484 -1.14492,-1.434139 -1.33152,-2.333589 -0.0254,-0.07643 -0.0339,-0.152793 -0.0424,-0.212177 0,-0.01567 0,-0.03134 -0.007,-0.04039 v 0 c 0,-0.0036 -5.2e-4,-0.0096 -10e-4,-0.01905 0,-0.02544 -0.017,-0.06787 -0.017,-0.101869 -0.008,-0.09331 -0.0169,-0.203642 -0.0169,-0.296976 0,-0.212177 0.0169,-0.415843 0.0594,-0.619485 0.0848,-0.390346 0.27991,-0.746731 0.55128,-1.026782 0.14421,-0.135757 0.24598,-0.212177 0.38165,-0.313973 0.19507,-0.127295 0.38167,-0.237627 0.61066,-0.314012 0.23819,-0.07945 0.48019,-0.116095 0.72146,-0.116095 0.27416,0 0.54752,0.04738 0.81366,0.133107 0.3732,0.110308 0.68703,0.305511 0.9414,0.568562 0.13576,0.135758 0.21206,0.237555 0.32236,0.415808 0.0423,0.05943 0.0678,0.135721 0.10174,0.212177 0.008,0.01688 0.0254,0.03388 0.0254,0.05087 0.005,0.0129 0.005,0.01712 0.005,0.01712 v 0 c -0.005,-0.01085 -0.006,-0.01374 -0.006,-0.01374 v 0 c -2.9e-4,0 0.006,0.01374 0.006,0.01374 0,0 0,0 0,0 v 0 c 0.001,0.0024 0.002,0.0048 0.004,0.0084 0.008,0.02544 0.034,0.06787 0.0424,0.101869 0.0424,0.127258 0.0849,0.254589 0.10174,0.39031 0,0.01844 0.005,0.03424 0.01,0.04907 v 0 c 8.1e-4,0.006 0.007,0.04545 0.007,0.06136 0.008,0.08487 0.008,0.169706 0.008,0.24609 0.008,0.145426 0.13053,0.219676 0.25312,0.219676 0.12765,0 0.25568,-0.08053 0.25568,-0.245139 0.017,-0.610948 -0.22044,-1.22196 -0.60211,-1.697187 -0.52669,-0.658655 -1.38773,-1.020718 -2.22406,-1.020718 z" />
  <path
     style="fill:#000000;fill-opacity:0;fill-rule:evenodd;stroke-width:1.20555258"
     inkscape:connector-curvature="0"
     id="path512"
     d="m 104.9426,66.777891 h 49.00147 V 96.523458 H 104.9426 Z" />
  <path
     style="fill-rule:evenodd;stroke:#2c3e50;stroke-width:1.20555258;stroke-linecap:butt;stroke-linejoin:round"
     inkscape:connector-curvature="0"
     id="path514"
     d="m 104.9426,66.777891 h 49.00147 V 96.523458 H 104.9426 Z" />
  <path
     style="fill:#000000;fill-opacity:0;fill-rule:evenodd;stroke-width:1.20555258"
     inkscape:connector-curvature="0"
     id="path516"
     d="m 104.93796,101.82823 h 49.0156 v 29.7456 h -49.0156 z" />
  <path
     style="fill-rule:evenodd;stroke:#2c3e50;stroke-width:1.20555258;stroke-linecap:butt;stroke-linejoin:round"
     inkscape:connector-curvature="0"
     id="path518"
     d="m 104.93796,101.82823 h 49.0156 v 29.7456 h -49.0156 z" />
  <path
     style="fill:#2c3e50;fill-rule:evenodd;stroke-width:1.20555258"
     inkscape:connector-curvature="0"
     id="path520"
     d="m 137.9211,52.092631 v 10.217434 h 1.20216 V 52.092631 Z" />
  <path
     style="fill:#2c3e50;fill-rule:evenodd;stroke-width:1.20555258"
     inkscape:connector-curvature="0"
     id="path522"
     d="m 131.29574,51.387925 c 2.60941,-2.791047 5.21882,2.791037 7.82822,0 v 5.023865 c -2.6094,2.790998 -5.21881,-2.791048 -7.82822,0 z" />
  <path
     style="fill:#2b3e51;fill-rule:evenodd;stroke-width:1.20555258"
     inkscape:connector-curvature="0"
     id="path524"
     d="m 106.85111,75.94648 3.91105,-7.159923 3.91099,7.159923 z" />
  <path
     style="fill:#2b3e51;fill-rule:evenodd;stroke-width:1.20555258"
     inkscape:connector-curvature="0"
     id="path526"
     d="m 116.07745,75.94648 3.91105,-7.159923 3.91106,7.159923 z" />
  <path
     style="fill:#2b3e51;fill-rule:evenodd;stroke-width:1.20555258"
     inkscape:connector-curvature="0"
     id="path528"
     d="m 125.30378,75.94648 3.91106,-7.159923 3.91105,7.159923 z" />
  <path
     style="fill:#2b3e51;fill-rule:evenodd;stroke-width:1.20555258"
     inkscape:connector-curvature="0"
     id="path530"
     d="m 134.53024,75.94648 3.91105,-7.159923 3.91099,7.159923 z" />
  <path
     style="fill:#2b3e51;fill-rule:evenodd;stroke-width:1.20555258"
     inkscape:connector-curvature="0"
     id="path532"
     d="m 143.75658,75.94648 3.91105,-7.159923 3.91105,7.159923 z" />
  <path
     style="fill:#2b3e51;fill-rule:evenodd;stroke-width:1.20555258"
     inkscape:connector-curvature="0"
     id="path534"
     d="m 107.08137,84.96781 3.91105,-7.159921 3.91106,7.159921 z" />
  <path
     style="fill:#2b3e51;fill-rule:evenodd;stroke-width:1.20555258"
     inkscape:connector-curvature="0"
     id="path536"
     d="m 116.30778,84.96781 3.91106,-7.159921 3.91098,7.159921 z" />
  <path
     style="fill:#2b3e51;fill-rule:evenodd;stroke-width:1.20555258"
     inkscape:connector-curvature="0"
     id="path538"
     d="m 125.53412,84.96781 3.91105,-7.159921 3.91105,7.159921 z" />
  <path
     style="fill:#2b3e51;fill-rule:evenodd;stroke-width:1.20555258"
     inkscape:connector-curvature="0"
     id="path540"
     d="m 134.76045,84.96781 3.91106,-7.159921 3.91105,7.159921 z" />
  <path
     style="fill:#2b3e51;fill-rule:evenodd;stroke-width:1.20555258"
     inkscape:connector-curvature="0"
     id="path542"
     d="m 143.98684,84.96781 3.91105,-7.159921 3.91098,7.159921 z" />
  <path
     style="fill:#2b3e51;fill-rule:evenodd;stroke-width:1.20555258"
     inkscape:connector-curvature="0"
     id="path544"
     d="m 117.25161,50.863825 -0.0459,0.03918 -0.0615,0.02001 -0.0458,0.05835 -0.0309,0.05835 -0.0301,0.05835 -0.0158,0.07836 v 0.07824 9.83555 0.07824 l 0.0158,0.07752 0.0301,0.05907 0.0309,0.05835 0.0458,0.05835 0.0615,0.02001 0.0459,0.03918 h 10.92274 l 0.0458,-0.03918 0.0615,-0.02001 0.0459,-0.05835 0.0307,-0.05835 0.0307,-0.05907 0.0151,-0.07752 v -0.07824 -0.07836 l -0.0151,-0.07752 -0.0307,-0.05907 -0.0307,-0.05835 -0.0459,-0.05835 -0.0615,-0.02001 -0.0458,-0.03834 h -10.53901 v -9.445597 l -0.0151,-0.07824 -0.0157,-0.07836 -0.0307,-0.05835 -0.0309,-0.05835 -0.0458,-0.05835 -0.0609,-0.02001 -0.0464,-0.03918 z" />
  <path
     style="fill:#2b3e51;fill-rule:evenodd;stroke-width:1.20555258"
     inkscape:connector-curvature="0"
     id="path546"
     d="m 126.46666,59.623213 -0.0639,-0.03327 -0.0633,-0.03388 -0.0504,-0.06787 -0.0385,-0.06787 -0.0378,-0.08451 -0.0125,-0.08451 -0.0129,-0.101145 0.0129,-0.10187 0.0254,-0.118385 -1.54793,-2.333853 -0.0764,0.03388 -0.0758,0.01664 -0.0888,-0.01664 -0.39322,0.912772 0.038,0.06787 0.0254,0.06787 0.0124,0.08451 v 0.08451 0.101749 l -0.0254,0.08451 -0.025,0.08451 -0.0509,0.06715 -0.0509,0.05124 -0.0634,0.05051 -0.0633,0.01664 -0.0764,0.01724 -0.0633,-0.01724 -0.0758,-0.01664 -0.0509,-0.05051 -0.0509,-0.05124 -0.0504,-0.06715 -0.0254,-0.08451 -0.0254,-0.08451 -0.0124,-0.101749 0.0124,-0.06787 0.0125,-0.08451 0.0129,-0.06787 0.0254,-0.05051 -1.28149,-2.570707 -0.0633,0.01664 h -0.13973 l -0.0889,-0.05051 -0.6467,0.913471 0.0254,0.101146 v 0.101749 0.101749 l -0.0254,0.08451 -0.0254,0.08451 -0.0509,0.06715 -0.0504,0.05124 -0.0639,0.05051 -0.0633,0.01664 -0.0758,0.01736 -0.0634,-0.01736 -0.0764,-0.01664 -0.0509,-0.05051 -0.0504,-0.05124 -0.0509,-0.06715 -0.0254,-0.08451 -0.0254,-0.08451 -0.0125,-0.101749 0.0125,-0.118385 0.0384,-0.118386 -1.78898,-2.858112 -0.0254,-0.05124 v -0.06715 l 0.013,-0.06787 0.0378,-0.05051 0.038,-0.03388 h 0.0379 l 0.0509,0.01664 0.0509,0.034 1.77596,2.875412 0.0633,-0.03388 h 0.0509 l 0.0758,0.01724 0.0633,0.01664 0.67268,-0.930072 -0.013,-0.08451 v -0.08523 -0.08451 l 0.0254,-0.08451 0.0385,-0.08451 0.0379,-0.06787 0.0504,-0.06715 0.0639,-0.034 0.0634,-0.03388 0.0758,-0.01664 0.0764,0.01664 0.0633,0.03388 0.0633,0.034 0.0509,0.06715 0.038,0.06787 0.0379,0.08451 0.0129,0.08451 0.0125,0.08451 -0.0125,0.135721 -0.0385,0.101146 1.30695,2.60532 0.0758,-0.01736 h 0.0509 l 0.40625,-0.947396 -0.0385,-0.118385 -0.0124,-0.06715 v -0.06787 -0.101146 l 0.0254,-0.08523 0.0254,-0.08451 0.0503,-0.06715 0.0509,-0.06787 0.0633,-0.03388 0.0634,-0.034 h 0.13972 l 0.0763,0.034 0.0504,0.03388 0.0509,0.06787 0.0509,0.06715 0.025,0.08451 0.0254,0.08523 0.0129,0.101146 -0.0129,0.08451 -0.0125,0.08451 1.56043,2.368465 0.0633,-0.01724 0.0634,-0.01664 0.0763,0.01664 0.0634,0.03388 0.0634,0.03388 0.0509,0.06787 0.038,0.06715 0.0379,0.06787 0.013,0.101146 0.0124,0.08523 -0.0124,0.101146 -0.013,0.08451 -0.0379,0.08451 -0.038,0.06787 -0.0509,0.06787 -0.0634,0.03388 -0.0634,0.03327 z" />
  <path
     style="fill:#000000;fill-opacity:0;fill-rule:evenodd;stroke-width:1.20555258"
     inkscape:connector-curvature="0"
     id="path548"
     d="M 105.12964,81.120917 H 97.307233 V 64.130051" />
  <path
     style="fill-rule:evenodd;stroke:#2c3e50;stroke-width:1.20555258;stroke-linecap:butt;stroke-linejoin:round"
     inkscape:connector-curvature="0"
     id="path550"
     d="M 105.12964,81.120917 H 97.307233 V 71.36333" />
  <path
     style="fill-rule:evenodd;stroke:#2c3e50;stroke-width:1.20555258;stroke-linecap:butt"
     inkscape:connector-curvature="0"
     id="path552"
     d="m 99.29848,71.36333 -1.991247,-5.470905 -1.99126,5.470905 z" />
  <path
     style="fill:#000000;fill-opacity:0;fill-rule:evenodd;stroke-width:1.20555258"
     inkscape:connector-curvature="0"
     id="path554"
     d="M 105.12941,116.43157 H 86.67837 V 64.129869" />
  <path
     style="fill-rule:evenodd;stroke:#2c3e50;stroke-width:1.20555258;stroke-linecap:butt;stroke-linejoin:round"
     inkscape:connector-curvature="0"
     id="path556"
     d="M 105.12934,116.43157 H 86.67837 V 71.363185" />
  <path
     style="fill-rule:evenodd;stroke:#2c3e50;stroke-width:1.20555258;stroke-linecap:butt"
     inkscape:connector-curvature="0"
     id="path558"
     d="M 88.669617,71.363185 86.67837,65.892279 84.68711,71.363185 Z" />
  <path
     style="fill:#2c3e50;fill-rule:evenodd;stroke-width:1.20555258"
     inkscape:connector-curvature="0"
     id="path560"
     d="m 108.0751,50.125327 -0.44214,0.04907 -0.34407,0.147343 -0.39314,0.147789 -0.29491,0.246017 -0.29454,0.294661 -0.24584,0.295095 -0.19683,0.344208 -0.14723,0.393337 -0.0491,0.39336 -0.0491,0.541112 0.0981,0.491527 0.24591,0.491552 0.29446,0.442451 0.24591,0.246017 0.29492,0.24598 0.29498,0.147343 0.34399,0.147788 0.39314,0.09825 h 0.68762 l 0.39358,-0.04907 0.29447,-0.09873 0.24591,-0.147306 0.24584,-0.147343 0.24546,-0.196867 0.24584,-0.246017 0.14723,-0.245547 0.19683,-0.246017 0.0981,-0.295094 0.0981,-0.393325 0.0495,-0.393336 v -0.393323 l -0.0986,-0.442437 -0.0491,-0.246029 -0.14723,-0.245535 -0.29499,-0.442921 -0.34399,-0.343738 -0.4913,-0.295131 -0.39314,-0.14779 -0.44267,-0.09825 z" />
  <path
     style="fill:#2c3e50;fill-rule:evenodd;stroke-width:1.20555258"
     inkscape:connector-curvature="0"
     id="path562"
     d="m 107.24391,55.619705 h 1.90546 v 0 c 0.43295,0 0.84817,0.171997 1.15426,0.478135 0.30617,0.306126 0.47813,0.721342 0.47813,1.154303 v 3.919735 c 0,0 0,3.5e-5 0,3.5e-5 l -5.17032,-3.5e-5 v 0 c 0,0 0,-3.7e-5 0,-7.3e-5 v -3.919662 0 c 0,-0.901595 0.73089,-1.632438 1.63247,-1.632438 z" />
  <path
     style="fill:#2c3e50;fill-rule:evenodd;stroke-width:1.20555258"
     inkscape:connector-curvature="0"
     id="path564"
     d="m 110.70509,57.16884 h 1.37163 v 0 c 0.31168,0 0.61058,0.123799 0.83088,0.344174 0.22038,0.220375 0.34421,0.519267 0.34421,0.830879 v 3.128445 c 0,0 0,0 -7e-5,0 h -3.72167 v 0 c 0,0 -7e-5,-3.6e-5 -7e-5,-3.6e-5 l 7e-5,-3.128409 v 0 c 0,-0.648949 0.52611,-1.175052 1.17502,-1.175053 z" />
  <path
     style="fill-rule:evenodd;stroke:#ffffff;stroke-width:1.20555258;stroke-linecap:butt;stroke-linejoin:round"
     inkscape:connector-curvature="0"
     id="path566"
     d="m 110.70509,57.16884 h 1.37163 v 0 c 0.31168,0 0.61058,0.123799 0.83088,0.344174 0.22038,0.220375 0.34421,0.519267 0.34421,0.830879 v 3.128445 c 0,0 0,0 -7e-5,0 h -3.72167 v 0 c 0,0 -7e-5,-3.6e-5 -7e-5,-3.6e-5 l 7e-5,-3.128409 v 0 c 0,-0.648949 0.52611,-1.175052 1.17502,-1.175053 z" />
  <path
     style="fill:#2c3e50;fill-rule:evenodd;stroke-width:1.20555258"
     inkscape:connector-curvature="0"
     id="path568"
     d="m 111.30376,53.445743 -0.31891,0.03544 -0.24804,0.106209 -0.28343,0.106571 -0.21273,0.177372 -0.21235,0.212466 -0.17726,0.212792 -0.14186,0.248189 -0.10621,0.283617 -0.0354,0.283618 -0.0354,0.390165 0.0708,0.354445 0.17727,0.354432 0.21234,0.319013 0.17727,0.177409 0.21272,0.177361 0.21265,0.10621 0.24811,0.10657 0.28344,0.07077 h 0.49579 l 0.2838,-0.03544 0.21236,-0.07113 0.17725,-0.10621 0.17733,-0.106209 0.17696,-0.141966 0.17727,-0.177409 0.1062,-0.177035 0.14187,-0.177361 0.0708,-0.212804 0.0708,-0.283619 0.0358,-0.283618 v -0.283618 l -0.0711,-0.319012 -0.0354,-0.177399 -0.10621,-0.177035 -0.21265,-0.319351 -0.24805,-0.247886 -0.3543,-0.212804 -0.28342,-0.106571 -0.31919,-0.07077 z" />
  <path
     style="fill-rule:evenodd;stroke:#ffffff;stroke-width:1.20555258;stroke-linecap:butt;stroke-linejoin:round"
     inkscape:connector-curvature="0"
     id="path570"
     d="m 111.30376,53.445743 -0.31891,0.03544 -0.24804,0.106209 -0.28343,0.106571 -0.21273,0.177372 -0.21235,0.212466 -0.17726,0.212792 -0.14186,0.248189 -0.10621,0.283617 -0.0354,0.283618 -0.0354,0.390165 0.0708,0.354445 0.17727,0.354432 0.21234,0.319013 0.17727,0.177409 0.21272,0.177361 0.21265,0.10621 0.24811,0.10657 0.28344,0.07077 h 0.49579 l 0.2838,-0.03544 0.21236,-0.07113 0.17725,-0.10621 0.17733,-0.106209 0.17696,-0.141966 0.17727,-0.177409 0.1062,-0.177035 0.14187,-0.177361 0.0708,-0.212804 0.0708,-0.283619 0.0358,-0.283618 v -0.283618 l -0.0711,-0.319012 -0.0354,-0.177399 -0.10621,-0.177035 -0.21265,-0.319351 -0.24805,-0.247886 -0.3543,-0.212804 -0.28342,-0.106571 -0.31919,-0.07077 z" />
  <path
     style="fill:#2c3e50;fill-rule:evenodd;stroke-width:1.20555258"
     inkscape:connector-curvature="0"
     id="path572"
     d="m 83.096733,52.572779 v 0 c 0,-1.0446 1.710619,-1.891403 3.820698,-1.891403 2.110163,0 3.82077,0.846803 3.82077,1.891403 v 7.565566 c 0,1.044599 -1.710607,1.891405 -3.82077,1.891405 -2.110079,0 -3.820698,-0.846805 -3.820698,-1.891405 z" />
  <path
     style="fill:#000000;fill-opacity:0;fill-rule:evenodd;stroke-width:1.20555258"
     inkscape:connector-curvature="0"
     id="path574"
     d="m 90.738177,52.572779 v 0 c 0,1.044599 -1.710619,1.891405 -3.82077,1.891405 -2.110091,0 -3.820698,-0.846805 -3.820698,-1.891405" />
  <path
     style="fill:#000000;fill-opacity:0;fill-rule:evenodd;stroke-width:1.20555258"
     inkscape:connector-curvature="0"
     id="path576"
     d="m 83.096733,52.572779 v 0 c 0,-1.0446 1.710619,-1.891403 3.820698,-1.891403 2.110163,0 3.82077,0.846803 3.82077,1.891403 v 7.565566 c 0,1.044599 -1.710607,1.891405 -3.82077,1.891405 -2.110079,0 -3.820698,-0.846805 -3.820698,-1.891405 z" />
  <path
     style="fill-rule:evenodd;stroke:#ffffff;stroke-width:1.20555258;stroke-linecap:butt;stroke-linejoin:round"
     inkscape:connector-curvature="0"
     id="path578"
     d="m 90.738177,52.572779 v 0 c 0,1.044599 -1.710619,1.891405 -3.82077,1.891405 -2.110091,0 -3.820698,-0.846805 -3.820698,-1.891405" />
  <path
     style="fill-rule:evenodd;stroke:#ffffff;stroke-width:1.20555258;stroke-linecap:butt;stroke-linejoin:round"
     inkscape:connector-curvature="0"
     id="path580"
     d="m 83.096733,52.572779 v 0 c 0,-1.0446 1.710619,-1.891403 3.820698,-1.891403 2.110163,0 3.82077,0.846803 3.82077,1.891403 v 7.565566 c 0,1.044599 -1.710607,1.891405 -3.82077,1.891405 -2.110079,0 -3.820698,-0.846805 -3.820698,-1.891405 z" />
  <path
     style="fill:#2b3e51;fill-rule:evenodd;stroke-width:1.20555258"
     inkscape:connector-curvature="0"
     id="path582"
     d="m 98.412845,53.170552 0.03641,0.0048 0.03098,0.0048 0.03641,0.0048 0.03098,0.01555 0.0311,0.01543 0.0258,0.01555 0.02604,0.02086 0.0258,0.02074 0.02074,0.0258 0.02086,0.02604 0.02062,0.0258 0.01085,0.03122 0.01555,0.03098 0.0048,0.03641 0.0048,0.03098 0.0048,0.03641 -0.0048,0.03617 -0.0048,0.03641 -0.0048,0.03098 -0.01555,0.03122 -0.01085,0.03098 -0.02062,0.03122 -0.02086,0.0258 -0.02074,0.02061 -0.0258,0.02604 -0.02604,0.02061 -0.0258,0.01543 -0.0311,0.01555 -0.03098,0.01085 -0.03641,0.01085 -0.03098,0.0048 h -2.159012 l -0.03617,-0.0048 -0.0311,-0.01085 -0.03617,-0.01085 -0.02604,-0.01555 -0.03098,-0.01543 -0.0258,-0.02061 -0.02604,-0.02604 -0.02074,-0.02061 -0.02061,-0.0258 -0.01579,-0.03122 -0.01543,-0.03098 -0.01085,-0.03122 -0.01085,-0.03098 -0.0048,-0.03641 v -0.03617 -0.03641 l 0.0048,-0.03098 0.01085,-0.03641 0.01085,-0.03098 0.01543,-0.03122 0.01579,-0.0258 0.02061,-0.02604 0.02074,-0.0258 0.02604,-0.02074 0.0258,-0.02086 0.03098,-0.01555 0.02604,-0.01543 0.03617,-0.01555 0.0311,-0.0048 0.03617,-0.0048 0.03122,-0.0048 z m 1.615405,0 0.0312,0.0048 0.0362,0.0048 0.0364,0.01085 0.0309,0.01085 0.026,0.01543 0.031,0.01555 0.0258,0.02086 0.026,0.02074 0.0207,0.0258 0.0206,0.02604 0.0158,0.0258 0.0154,0.03122 0.0108,0.03098 0.0109,0.03641 0.005,0.03098 v 0.03641 0.03617 l -0.005,0.03641 -0.0109,0.03098 -0.0108,0.03122 -0.0154,0.03098 -0.0158,0.03122 -0.0206,0.0258 -0.0207,0.0258 -0.026,0.02086 -0.0258,0.02061 -0.031,0.01543 -0.026,0.01555 -0.0309,0.01085 -0.0364,0.01085 -0.0362,0.0048 h -0.295276 l -0.03617,-0.0048 -0.03122,-0.01085 -0.03086,-0.01085 -0.03122,-0.01555 -0.03098,-0.01543 -0.0258,-0.02061 -0.02086,-0.02086 -0.0258,-0.0258 -0.02062,-0.0258 -0.01579,-0.03122 -0.01543,-0.03098 -0.01085,-0.03122 -0.01085,-0.03098 -0.0048,-0.03641 v -0.03617 -0.03641 l 0.0048,-0.03098 0.01085,-0.03641 0.01085,-0.03098 0.01543,-0.03122 0.01579,-0.0258 0.02062,-0.02604 0.0258,-0.0258 0.02086,-0.02074 0.0258,-0.02086 0.03098,-0.01555 0.03122,-0.01543 0.03086,-0.01085 0.03122,-0.01085 0.03617,-0.0048 0.03641,-0.0048 z m -1.615405,1.544289 0.03641,0.0048 0.03098,0.0048 0.03641,0.0048 0.03098,0.01085 0.0311,0.01555 0.0258,0.02062 0.02604,0.01555 0.0258,0.02604 0.02074,0.02074 0.02086,0.03098 0.02062,0.02604 0.01085,0.03098 0.01555,0.03122 0.0048,0.03098 0.0048,0.03641 0.0048,0.03617 -0.0048,0.03641 -0.0048,0.03098 -0.0048,0.03641 -0.01555,0.03098 -0.01085,0.03122 -0.02062,0.0258 -0.02086,0.0258 -0.02074,0.02604 -0.0258,0.02061 -0.02604,0.02074 -0.0258,0.02086 -0.0311,0.01085 -0.03098,0.01555 -0.03641,0.0048 -0.03098,0.0048 -0.03641,0.0048 H 96.32138 l -0.03122,-0.0048 -0.03617,-0.0048 -0.0311,-0.0048 -0.03617,-0.01555 -0.02604,-0.01085 -0.03098,-0.02086 -0.0258,-0.02074 -0.02604,-0.02061 -0.02074,-0.02604 -0.02061,-0.0258 -0.01579,-0.0258 -0.01543,-0.03122 -0.01085,-0.03098 -0.01085,-0.03641 -0.0048,-0.03098 v -0.03641 -0.03617 l 0.0048,-0.03641 0.01085,-0.03098 0.01085,-0.03122 0.01543,-0.03098 0.01579,-0.02604 0.02061,-0.03098 0.02074,-0.02074 0.02604,-0.02604 0.0258,-0.01555 0.03098,-0.02062 0.02604,-0.01555 0.03617,-0.01085 0.0311,-0.0048 0.03617,-0.0048 0.03122,-0.0048 z m 1.615405,0 0.0312,0.0048 0.0362,0.0048 0.0364,0.0048 0.0309,0.01085 0.026,0.01555 0.031,0.02062 0.0258,0.01555 0.026,0.02604 0.0207,0.02074 0.0206,0.03098 0.0158,0.02604 0.0154,0.03098 0.0108,0.03122 0.0109,0.03098 0.005,0.03641 v 0.03617 0.03641 l -0.005,0.03098 -0.0109,0.03641 -0.0108,0.03098 -0.0154,0.03122 -0.0158,0.0258 -0.0206,0.0258 -0.0207,0.02604 -0.026,0.02061 -0.0258,0.02074 -0.031,0.02086 -0.026,0.01085 -0.0309,0.01555 -0.0364,0.0048 -0.0362,0.0048 -0.0312,0.0048 h -0.227741 l -0.03641,-0.0048 -0.03617,-0.0048 -0.03122,-0.0048 -0.03086,-0.01555 -0.03122,-0.01085 -0.03098,-0.02086 -0.0258,-0.02074 -0.02086,-0.02061 -0.0258,-0.02604 -0.02061,-0.0258 -0.01579,-0.0258 -0.01543,-0.03122 -0.01085,-0.03098 -0.01085,-0.03641 -0.0048,-0.03098 v -0.03641 -0.03617 l 0.0048,-0.03641 0.01085,-0.03098 0.01085,-0.03122 0.01543,-0.03098 0.01579,-0.02604 0.02061,-0.03098 0.0258,-0.02074 0.02086,-0.02604 0.0258,-0.01555 0.03098,-0.02062 0.03122,-0.01555 0.03086,-0.01085 0.03122,-0.0048 0.03617,-0.0048 0.03641,-0.0048 z m -1.579057,1.544494 0.03098,0.0048 0.03641,0.01085 0.03098,0.01085 0.0311,0.01543 0.0258,0.01579 0.02604,0.02061 0.0258,0.02074 0.02073,0.02604 0.02086,0.0258 0.02061,0.03098 0.01085,0.03122 0.01555,0.03098 0.0048,0.03122 0.0048,0.03617 0.0048,0.03641 -0.0048,0.03098 -0.0048,0.03641 -0.0048,0.03098 -0.01555,0.03641 -0.01085,0.0258 -0.02061,0.03122 -0.02086,0.0258 -0.02073,0.0258 -0.0258,0.02086 -0.02604,0.02061 -0.0258,0.01555 -0.0311,0.01543 -0.03098,0.01085 -0.03641,0.01085 -0.03098,0.0048 h -2.159012 l -0.03617,-0.0048 -0.0311,-0.01085 -0.03617,-0.01085 -0.02604,-0.01543 -0.03098,-0.01555 -0.0258,-0.02061 -0.02604,-0.02086 -0.02074,-0.0258 -0.02061,-0.0258 -0.01579,-0.03122 -0.01543,-0.0258 -0.01085,-0.03641 -0.01085,-0.03098 -0.0048,-0.03641 v -0.03098 -0.03641 l 0.0048,-0.03617 0.01085,-0.03122 0.01085,-0.03098 0.01543,-0.03122 0.01579,-0.03098 0.02061,-0.0258 0.02074,-0.02604 0.02604,-0.02074 0.0258,-0.02061 0.03098,-0.01579 0.02604,-0.01543 0.03617,-0.01085 0.0311,-0.01085 0.03617,-0.0048 z m 1.610247,0 0.0362,0.0048 0.0364,0.01085 0.0309,0.01085 0.026,0.01543 0.031,0.01579 0.0258,0.02061 0.026,0.02074 0.0207,0.02604 0.0206,0.0258 0.0158,0.03098 0.0154,0.03122 0.0109,0.03098 0.0109,0.03122 0.005,0.03617 v 0.03641 0.03098 l -0.005,0.03641 -0.0109,0.03098 -0.0109,0.03641 -0.0154,0.0258 -0.0158,0.03122 -0.0206,0.0258 -0.0207,0.0258 -0.026,0.02086 -0.0258,0.02061 -0.031,0.01555 -0.026,0.01543 -0.0309,0.01085 -0.0364,0.01085 -0.0362,0.0048 h -0.295279 l -0.03617,-0.0048 -0.03122,-0.01085 -0.03086,-0.01085 -0.03122,-0.01543 -0.03098,-0.01555 -0.0258,-0.02061 -0.02086,-0.02086 -0.0258,-0.0258 -0.02061,-0.0258 -0.01579,-0.03122 -0.01543,-0.0258 -0.01085,-0.03641 -0.01085,-0.03098 -0.0048,-0.03641 v -0.03098 -0.03641 l 0.0048,-0.03617 0.01085,-0.03122 0.01085,-0.03098 0.01543,-0.03122 0.01579,-0.03098 0.02061,-0.0258 0.0258,-0.02604 0.02086,-0.02074 0.0258,-0.02061 0.03098,-0.01579 0.03122,-0.01543 0.03086,-0.01085 0.03122,-0.01085 0.03617,-0.0048 z m 0,2.503089 0.0362,0.0048 0.0364,0.01085 0.0309,0.01085 0.026,0.01555 0.031,0.01555 0.0258,0.02074 0.026,0.02086 0.0207,0.0258 0.0206,0.02604 0.0158,0.03098 0.0154,0.03098 0.0109,0.03122 0.0109,0.03098 0.005,0.03641 v 0.03617 0.03641 l -0.005,0.03098 -0.0109,0.03641 -0.0109,0.03098 -0.0154,0.03122 -0.0158,0.0258 -0.0206,0.02604 -0.0207,0.0258 -0.026,0.02061 -0.0258,0.02086 -0.031,0.01555 -0.026,0.01555 -0.0309,0.01555 -0.0364,0.0048 -0.0362,0.0048 -0.0312,0.0048 h -2.200305 l -0.03629,-0.0048 -0.03617,-0.0048 -0.03122,-0.0048 -0.03086,-0.01555 -0.03122,-0.01555 -0.03098,-0.01555 -0.0258,-0.02086 -0.02592,-0.02061 -0.02074,-0.0258 -0.02061,-0.02604 -0.01579,-0.0258 -0.01543,-0.03122 -0.01085,-0.03098 -0.01085,-0.03641 -0.0048,-0.03098 v -0.03641 -0.03617 l 0.0048,-0.03641 0.01085,-0.03098 0.01085,-0.03122 0.01543,-0.03098 0.01579,-0.03098 0.02061,-0.02604 0.02074,-0.0258 0.02592,-0.02086 0.0258,-0.02074 0.03098,-0.01555 0.03122,-0.01555 0.03086,-0.01085 0.03122,-0.01085 0.03617,-0.0048 z m -5.39467,-7.711595 -0.03641,0.0048 -0.03086,0.01085 -0.03122,0.01085 -0.03098,0.01555 -0.03122,0.01555 -0.0258,0.02086 -0.02604,0.0258 -0.02074,0.02062 -0.02062,0.02604 -0.01543,0.03098 -0.01579,0.03122 -0.01085,0.03098 -0.01085,0.03122 -0.0048,0.03617 v 0.03641 9.919541 0.03617 l 0.0048,0.03641 0.01085,0.03098 0.01085,0.03122 0.01579,0.03098 0.01543,0.03122 0.02062,0.0258 0.02074,0.02073 0.02604,0.02604 0.0258,0.02074 0.03122,0.01543 0.03098,0.01555 0.03122,0.01085 0.03086,0.01085 0.03641,0.0048 h 0.129211 l 0.04666,-0.0048 0.04666,-0.0048 0.04123,-0.01579 0.03629,-0.02062 0.04147,-0.0258 0.03098,-0.03122 0.03098,-0.03617 0.02604,-0.03641 0.0258,-0.03617 0.02604,-0.03641 0.03617,-0.0258 0.03629,-0.02604 0.04123,-0.02062 0.04147,-0.01555 0.04666,-0.01085 h 0.09307 l 0.04678,0.01085 0.04123,0.01555 0.04147,0.02062 0.03617,0.02604 0.03641,0.0258 0.0258,0.03641 0.02604,0.03617 0.0258,0.03641 0.03086,0.03617 0.03122,0.03122 0.03617,0.0258 0.04147,0.02062 0.04147,0.01579 0.04641,0.0048 0.04159,0.0048 h 0.196747 l 0.04665,-0.0048 0.04123,-0.0048 0.04147,-0.01579 0.04123,-0.02062 0.03641,-0.0258 0.03617,-0.03122 0.02604,-0.03617 0.0258,-0.03641 0.02604,-0.03617 0.03098,-0.03641 0.03098,-0.0258 0.03641,-0.02604 0.04147,-0.02062 0.04641,-0.01555 0.04147,-0.01085 h 0.09825 l 0.04147,0.01085 0.04677,0.01555 0.04123,0.02062 0.03641,0.02604 0.03086,0.0258 0.03122,0.03641 0.0258,0.03617 0.0258,0.03641 0.02592,0.03617 0.03617,0.03122 0.03641,0.0258 0.04123,0.02062 0.04147,0.01579 0.04147,0.0048 0.04653,0.0048 h 0.191526 l 0.04678,-0.0048 0.04666,-0.0048 0.04135,-0.01579 0.04147,-0.02062 0.03617,-0.0258 0.03122,-0.03122 0.03098,-0.03617 0.02604,-0.03641 0.0258,-0.03617 0.0258,-0.03641 0.03641,-0.0258 0.03605,-0.02604 0.04159,-0.02062 0.04147,-0.01555 0.04641,-0.01085 h 0.09331 l 0.04641,0.01085 0.04159,0.01555 0.04147,0.02062 0.03605,0.02604 0.03641,0.0258 0.0258,0.03641 0.0258,0.03617 0.02604,0.03641 0.03086,0.03617 0.03122,0.03122 0.03617,0.0258 0.04147,0.02062 0.04123,0.01579 0.04666,0.0048 0.04678,0.0048 h 0.191611 l 0.04641,-0.0048 0.04147,-0.0048 0.04123,-0.01579 0.04147,-0.02062 0.03641,-0.0258 0.03617,-0.03122 0.02604,-0.03617 0.0258,-0.03641 0.0258,-0.03617 0.03122,-0.03641 0.03086,-0.0258 0.04147,-0.02604 0.03617,-0.02062 0.04677,-0.01555 0.04147,-0.01085 h 0.09825 l 0.04147,0.01085 0.04641,0.01555 0.04159,0.02062 0.03629,0.02604 0.03086,0.0258 0.03098,0.03641 0.02604,0.03617 0.0258,0.03641 0.03122,0.03617 0.03098,0.03122 0.03641,0.0258 0.04124,0.02062 0.0415,0.01579 0.0412,0.0048 0.0467,0.0048 h 0.19675 l 0.0416,-0.0048 0.0464,-0.0048 0.0415,-0.01579 0.0415,-0.02062 0.0362,-0.0258 0.0309,-0.03122 0.0312,-0.03617 0.0258,-0.03641 0.026,-0.03617 0.0258,-0.03641 0.0363,-0.0258 0.0362,-0.02604 0.0415,-0.02062 0.0412,-0.01555 0.0468,-0.01085 h 0.0931 l 0.0467,0.01085 0.0415,0.01555 0.0412,0.02062 0.0364,0.02604 0.0362,0.0258 0.0312,0.03641 0.0207,0.03617 0.0259,0.03641 0.031,0.03617 0.0362,0.03122 0.0363,0.0258 0.0364,0.02062 0.0412,0.01579 0.0467,0.0048 0.0467,0.0048 h 0.12929 l 0.0364,-0.0048 0.0309,-0.01085 0.0312,-0.01085 0.031,-0.01555 0.0312,-0.01543 0.0258,-0.02074 0.026,-0.02604 0.0207,-0.02073 0.0206,-0.0258 0.0156,-0.03122 0.0157,-0.03098 0.0108,-0.03122 0.0109,-0.03098 0.005,-0.03641 v -0.03617 -9.919541 -0.03641 l -0.005,-0.03617 -0.0109,-0.03122 -0.0108,-0.03098 -0.0157,-0.03122 -0.0156,-0.03098 -0.0206,-0.02604 -0.0207,-0.02062 -0.026,-0.0258 -0.0258,-0.02086 -0.0312,-0.01555 -0.031,-0.01555 -0.0312,-0.01085 -0.0309,-0.01085 -0.0364,-0.0048 h -0.12929 l -0.0467,0.0048 -0.0467,0.0048 -0.0412,0.01555 -0.0364,0.02073 -0.0363,0.02604 -0.0362,0.03098 -0.031,0.03641 -0.0259,0.03617 -0.0207,0.03641 -0.0312,0.03617 -0.0362,0.02604 -0.0364,0.0258 -0.0412,0.02074 -0.0415,0.01555 -0.0467,0.01085 h -0.0931 l -0.0468,-0.01085 -0.0412,-0.01555 -0.0415,-0.02074 -0.0362,-0.0258 -0.0363,-0.02604 -0.0258,-0.03617 -0.026,-0.03641 -0.0258,-0.03617 -0.0312,-0.03641 -0.0309,-0.03098 -0.0362,-0.02604 -0.0415,-0.02073 -0.0415,-0.01555 -0.0464,-0.0048 -0.0416,-0.0048 h -0.19675 l -0.0467,0.0048 -0.0412,0.0048 -0.0415,0.01555 -0.04124,0.02073 -0.03641,0.02604 -0.03098,0.03098 -0.03122,0.03641 -0.0258,0.03617 -0.02604,0.03641 -0.03098,0.03617 -0.03086,0.02604 -0.03629,0.0258 -0.04159,0.02074 -0.04641,0.01555 -0.04147,0.01085 h -0.09825 l -0.04677,-0.01085 -0.04147,-0.01555 -0.04123,-0.02074 -0.03641,-0.0258 -0.03605,-0.03122 -0.02604,-0.03617 -0.0258,-0.03641 -0.0258,-0.03617 -0.03122,-0.03641 -0.03617,-0.03098 -0.03641,-0.02086 -0.04147,-0.02073 -0.04123,-0.01555 -0.04678,-0.0048 -0.04123,-0.0048 h -0.186378 l -0.04678,0.0048 -0.04665,0.0048 -0.04123,0.01555 -0.04147,0.02073 -0.03617,0.02604 -0.03122,0.03098 -0.03086,0.03641 -0.02604,0.03617 -0.0258,0.03641 -0.0258,0.03617 -0.03641,0.02604 -0.03605,0.0258 -0.04147,0.02074 -0.04159,0.01555 -0.04641,0.01085 h -0.09331 l -0.04641,-0.01085 -0.04147,-0.01555 -0.04159,-0.02074 -0.03605,-0.0258 -0.03641,-0.02604 -0.0258,-0.03617 -0.0258,-0.03641 -0.02604,-0.03617 -0.03098,-0.03641 -0.03122,-0.03098 -0.03617,-0.02604 -0.04147,-0.02073 -0.04135,-0.01555 -0.04665,-0.0048 -0.04678,-0.0048 h -0.191526 l -0.04653,0.0048 -0.04147,0.0048 -0.04147,0.01555 -0.04123,0.02073 -0.03641,0.02604 -0.03617,0.03098 -0.02592,0.03641 -0.0258,0.03617 -0.0258,0.03641 -0.03122,0.03617 -0.03086,0.02604 -0.03641,0.0258 -0.04123,0.02074 -0.04678,0.01555 -0.04147,0.01085 h -0.09825 l -0.04147,-0.01085 -0.04641,-0.01555 -0.04147,-0.02074 -0.03641,-0.0258 -0.03098,-0.02604 -0.03098,-0.03617 -0.02604,-0.03641 -0.0258,-0.03617 -0.02604,-0.03641 -0.03617,-0.03098 -0.03641,-0.02604 -0.04123,-0.02073 -0.04147,-0.01555 -0.04123,-0.0048 -0.04666,-0.0048 h -0.196746 l -0.04159,0.0048 -0.04641,0.0048 -0.04147,0.01555 -0.04147,0.02073 -0.03617,0.02604 -0.03122,0.03098 -0.03086,0.03641 -0.0258,0.03617 -0.02604,0.03641 -0.0258,0.03617 -0.03641,0.02604 -0.03617,0.0258 -0.04147,0.02074 -0.04123,0.01555 -0.04677,0.01085 h -0.09307 l -0.04666,-0.01085 -0.04147,-0.01555 -0.04123,-0.02074 -0.03629,-0.0258 -0.03617,-0.02604 -0.02604,-0.03617 -0.0258,-0.03641 -0.02604,-0.03617 -0.03098,-0.03641 -0.03098,-0.03098 -0.04147,-0.02604 -0.03629,-0.02073 -0.04123,-0.01555 -0.04666,-0.0048 -0.04666,-0.0048 z" />
  <path
     style="fill:#000000;fill-opacity:0;fill-rule:evenodd;stroke-width:1.20555258"
     inkscape:connector-curvature="0"
     id="path584"
     d="M 81.617086,51.168757 V 44.41648 h 73.138504 v 6.752277" />
  <path
     style="fill-rule:evenodd;stroke:#2c3e50;stroke-width:1.20555258;stroke-linecap:butt;stroke-linejoin:round"
     inkscape:connector-curvature="0"
     id="path586"
     d="M 81.617086,51.168757 V 44.41648 h 73.138504 v 6.752277" />
  <path
     style="fill:#000000;fill-opacity:0;fill-rule:evenodd;stroke-width:1.20555258"
     inkscape:connector-curvature="0"
     id="path588"
     d="m 125.93706,116.61644 v 0 c 0,-0.88481 0.67879,-1.60212 1.51621,-1.60212 v 0 c 0.40213,0 0.78783,0.16881 1.07215,0.46927 0.28432,0.30047 0.44406,0.70796 0.44406,1.13285 v 0 c 0,0.88485 -0.67878,1.60212 -1.51621,1.60212 v 0 c -0.83742,0 -1.51621,-0.71727 -1.51621,-1.60212 z" />
  <path
     style="fill-rule:evenodd;stroke:#2c3e50;stroke-width:1.20555258;stroke-linecap:butt;stroke-linejoin:round"
     inkscape:connector-curvature="0"
     id="path590"
     d="m 125.93706,116.61644 v 0 c 0,-0.88481 0.67879,-1.60212 1.51621,-1.60212 v 0 c 0.40213,0 0.78783,0.16881 1.07215,0.46927 0.28432,0.30047 0.44406,0.70796 0.44406,1.13285 v 0 c 0,0.88485 -0.67878,1.60212 -1.51621,1.60212 v 0 c -0.83742,0 -1.51621,-0.71727 -1.51621,-1.60212 z" />
  <path
     style="fill:#000000;fill-opacity:0;fill-rule:evenodd;stroke-width:1.20555258"
     inkscape:connector-curvature="0"
     id="path592"
     d="m 129.76071,106.85367 v 0 c 0,-0.88481 0.67886,-1.60212 1.51621,-1.60212 v 0 c 0.4022,0 0.78783,0.1688 1.07215,0.46926 0.28439,0.30048 0.44414,0.70796 0.44414,1.13286 v 0 c 0,0.88485 -0.67886,1.60212 -1.51629,1.60212 v 0 c -0.83735,0 -1.51621,-0.71727 -1.51621,-1.60212 z" />
  <path
     style="fill-rule:evenodd;stroke:#2c3e50;stroke-width:1.20555258;stroke-linecap:butt;stroke-linejoin:round"
     inkscape:connector-curvature="0"
     id="path594"
     d="m 129.76071,106.85367 v 0 c 0,-0.88481 0.67886,-1.60212 1.51621,-1.60212 v 0 c 0.4022,0 0.78783,0.1688 1.07215,0.46926 0.28439,0.30048 0.44414,0.70796 0.44414,1.13286 v 0 c 0,0.88485 -0.67886,1.60212 -1.51629,1.60212 v 0 c -0.83735,0 -1.51621,-0.71727 -1.51621,-1.60212 z" />
  <path
     style="fill:#000000;fill-opacity:0;fill-rule:evenodd;stroke-width:1.20555258"
     inkscape:connector-curvature="0"
     id="path596"
     d="m 117.13484,108.65431 v 0 c 0,-0.88485 0.67878,-1.60212 1.51621,-1.60212 v 0 c 0.40212,0 0.78776,0.1688 1.07215,0.46923 0.28431,0.30047 0.44406,0.70796 0.44406,1.13289 v 0 c 0,0.88481 -0.67878,1.60212 -1.51621,1.60212 v 0 c -0.83743,0 -1.51621,-0.71731 -1.51621,-1.60212 z" />
  <path
     style="fill-rule:evenodd;stroke:#2c3e50;stroke-width:1.20555258;stroke-linecap:butt;stroke-linejoin:round"
     inkscape:connector-curvature="0"
     id="path598"
     d="m 117.13484,108.65431 v 0 c 0,-0.88485 0.67878,-1.60212 1.51621,-1.60212 v 0 c 0.40212,0 0.78776,0.1688 1.07215,0.46923 0.28431,0.30047 0.44406,0.70796 0.44406,1.13289 v 0 c 0,0.88481 -0.67878,1.60212 -1.51621,1.60212 v 0 c -0.83743,0 -1.51621,-0.71731 -1.51621,-1.60212 z" />
  <path
     style="fill:#000000;fill-opacity:0;fill-rule:evenodd;stroke-width:1.20555258"
     inkscape:connector-curvature="0"
     id="path600"
     d="m 112.27079,119.06452 v 0 c 0,-0.88481 0.67886,-1.60212 1.51629,-1.60212 v 0 c 0.40212,0 0.78776,0.1688 1.07215,0.46926 0.28431,0.30044 0.44406,0.70797 0.44406,1.13286 v 0 c 0,0.88485 -0.67886,1.60212 -1.51621,1.60212 v 0 c -0.83743,0 -1.51629,-0.71727 -1.51629,-1.60212 z" />
  <path
     style="fill-rule:evenodd;stroke:#2c3e50;stroke-width:1.20555258;stroke-linecap:butt;stroke-linejoin:round"
     inkscape:connector-curvature="0"
     id="path602"
     d="m 112.27079,119.06452 v 0 c 0,-0.88481 0.67886,-1.60212 1.51629,-1.60212 v 0 c 0.40212,0 0.78776,0.1688 1.07215,0.46926 0.28431,0.30044 0.44406,0.70797 0.44406,1.13286 v 0 c 0,0.88485 -0.67886,1.60212 -1.51621,1.60212 v 0 c -0.83743,0 -1.51629,-0.71727 -1.51629,-1.60212 z" />
  <path
     style="fill:#000000;fill-opacity:0;fill-rule:evenodd;stroke-width:1.20555258"
     inkscape:connector-curvature="0"
     id="path604"
     d="m 117.5789,109.78717 -3.79767,7.67031" />
  <path
     style="fill-rule:evenodd;stroke:#2c3e50;stroke-width:1.20555258;stroke-linecap:butt;stroke-linejoin:round"
     inkscape:connector-curvature="0"
     id="path606"
     d="m 117.5789,109.78717 -3.79767,7.67031" />
  <path
     style="fill:#000000;fill-opacity:0;fill-rule:evenodd;stroke-width:1.20555258"
     inkscape:connector-curvature="0"
     id="path608"
     d="m 120.15313,108.64011 9.60756,-1.78644" />
  <path
     style="fill-rule:evenodd;stroke:#2c3e50;stroke-width:1.20555258;stroke-linecap:butt;stroke-linejoin:round"
     inkscape:connector-curvature="0"
     id="path610"
     d="m 120.15313,108.64011 9.60756,-1.78644" />
  <path
     style="fill:#000000;fill-opacity:0;fill-rule:evenodd;stroke-width:1.20555258"
     inkscape:connector-curvature="0"
     id="path612"
     d="m 141.57175,120.27438 v 0 c 0,-0.88482 0.67886,-1.60212 1.51621,-1.60212 v 0 c 0.40213,0 0.78783,0.1688 1.07215,0.46926 0.28439,0.30047 0.44414,0.70796 0.44414,1.13286 v 0 c 0,0.88485 -0.67886,1.60212 -1.51629,1.60212 v 0 c -0.83735,0 -1.51621,-0.71727 -1.51621,-1.60212 z" />
  <path
     style="fill-rule:evenodd;stroke:#2c3e50;stroke-width:1.20555258;stroke-linecap:butt;stroke-linejoin:round"
     inkscape:connector-curvature="0"
     id="path614"
     d="m 141.57175,120.27438 v 0 c 0,-0.88482 0.67886,-1.60212 1.51621,-1.60212 v 0 c 0.40213,0 0.78783,0.1688 1.07215,0.46926 0.28439,0.30047 0.44414,0.70796 0.44414,1.13286 v 0 c 0,0.88485 -0.67886,1.60212 -1.51629,1.60212 v 0 c -0.83735,0 -1.51621,-0.71727 -1.51621,-1.60212 z" />
  <path
     style="fill:#000000;fill-opacity:0;fill-rule:evenodd;stroke-width:1.20555258"
     inkscape:connector-curvature="0"
     id="path616"
     d="m 118.46095,124.97324 h 3.03249 v 3.03411 h -3.03249 z" />
  <path
     style="fill-rule:evenodd;stroke:#2c3e50;stroke-width:1.20555258;stroke-linecap:butt;stroke-linejoin:round"
     inkscape:connector-curvature="0"
     id="path618"
     d="m 118.46095,124.97324 h 3.03249 v 3.03411 h -3.03249 z" />
  <path
     style="fill:#000000;fill-opacity:0;fill-rule:evenodd;stroke-width:1.20555258"
     inkscape:connector-curvature="0"
     id="path620"
     d="m 135.67093,112.50957 h 3.0325 v 3.03408 h -3.0325 z" />
  <path
     style="fill-rule:evenodd;stroke:#2c3e50;stroke-width:1.20555258;stroke-linecap:butt;stroke-linejoin:round"
     inkscape:connector-curvature="0"
     id="path622"
     d="m 135.67093,112.50957 h 3.0325 v 3.03408 h -3.0325 z" />
  <path
     style="fill:#000000;fill-opacity:0;fill-rule:evenodd;stroke-width:1.20555258"
     inkscape:connector-curvature="0"
     id="path624"
     d="m 119.97713,124.97324 6.41929,-7.21662" />
  <path
     style="fill-rule:evenodd;stroke:#2c3e50;stroke-width:1.20555258;stroke-linecap:butt;stroke-linejoin:round"
     inkscape:connector-curvature="0"
     id="path626"
     d="m 119.97713,124.97324 6.41929,-7.21662" />
  <path
     style="fill:#000000;fill-opacity:0;fill-rule:evenodd;stroke-width:1.20555258"
     inkscape:connector-curvature="0"
     id="path628"
     d="m 141.57175,120.27438 -4.36453,-4.74963" />
  <path
     style="fill-rule:evenodd;stroke:#2c3e50;stroke-width:1.20555258;stroke-linecap:butt;stroke-linejoin:round"
     inkscape:connector-curvature="0"
     id="path630"
     d="m 141.57175,120.27438 -4.36453,-4.74963" />
  <path
     style="fill:#000000;fill-opacity:0;fill-rule:evenodd;stroke-width:1.20555258"
     inkscape:connector-curvature="0"
     id="path632"
     d="m 132.63137,123.83306 1.89883,-1.39178 1.89885,1.39178 -0.7253,2.25199 h -2.34709 z" />
  <path
     style="fill-rule:evenodd;stroke:#2c3e50;stroke-width:1.20555258;stroke-linecap:butt;stroke-linejoin:round"
     inkscape:connector-curvature="0"
     id="path634"
     d="m 132.63137,123.83306 1.89883,-1.39178 1.89885,1.39178 -0.7253,2.25199 h -2.34709 z" />
  <path
     style="fill:#000000;fill-opacity:0;fill-rule:evenodd;stroke-width:1.20555258"
     inkscape:connector-curvature="0"
     id="path636"
     d="m 136.44208,123.84726 5.12971,-3.57287" />
  <path
     style="fill-rule:evenodd;stroke:#2c3e50;stroke-width:1.20555258;stroke-linecap:butt;stroke-linejoin:round"
     inkscape:connector-curvature="0"
     id="path638"
     d="m 136.44208,123.84726 5.12971,-3.57287" />
  <path
     style="fill:#000000;fill-opacity:0;fill-rule:evenodd;stroke-width:1.20555258"
     inkscape:connector-curvature="0"
     id="path640"
     d="m 145.34115,112.10901 1.51622,-1.51705 1.51628,1.51705 -1.51628,1.51706 z" />
  <path
     style="fill-rule:evenodd;stroke:#2c3e50;stroke-width:1.20555258;stroke-linecap:butt;stroke-linejoin:round"
     inkscape:connector-curvature="0"
     id="path642"
     d="m 145.34115,112.10901 1.51622,-1.51705 1.51628,1.51705 -1.51628,1.51706 z" />
  <path
     style="fill:#000000;fill-opacity:0;fill-rule:evenodd;stroke-width:1.20555258"
     inkscape:connector-curvature="0"
     id="path644"
     d="m 144.16015,119.14153 2.6924,-5.5011" />
  <path
     style="fill-rule:evenodd;stroke:#2c3e50;stroke-width:1.20555258;stroke-linecap:butt;stroke-linejoin:round"
     inkscape:connector-curvature="0"
     id="path646"
     d="m 144.16015,119.14153 2.6924,-5.5011" />
  <path
     style="fill:#000000;fill-opacity:0;fill-rule:evenodd;stroke-width:1.20555258"
     inkscape:connector-curvature="0"
     id="path648"
     d="m 140.83962,107.75397 v 0 c 0,-0.88482 0.67886,-1.60212 1.51621,-1.60212 v 0 c 0.40213,0 0.78783,0.1688 1.07215,0.46926 0.28432,0.30047 0.44414,0.70796 0.44414,1.13286 v 0 c 0,0.88485 -0.67886,1.60215 -1.51629,1.60215 v 0 c -0.83735,0 -1.51621,-0.7173 -1.51621,-1.60215 z" />
  <path
     style="fill-rule:evenodd;stroke:#2c3e50;stroke-width:1.20555258;stroke-linecap:butt;stroke-linejoin:round"
     inkscape:connector-curvature="0"
     id="path650"
     d="m 140.83962,107.75397 v 0 c 0,-0.88482 0.67886,-1.60212 1.51621,-1.60212 v 0 c 0.40213,0 0.78783,0.1688 1.07215,0.46926 0.28432,0.30047 0.44414,0.70796 0.44414,1.13286 v 0 c 0,0.88485 -0.67886,1.60215 -1.51629,1.60215 v 0 c -0.83735,0 -1.51621,-0.7173 -1.51621,-1.60215 z" />
  <path
     style="fill:#21aa47;fill-rule:evenodd;stroke-width:1.20555258"
     inkscape:connector-curvature="0"
     id="path652"
     d="m 170.50345,139.63125 0.29439,0.0981 0.29242,0.0981 0.24642,0.19624 0.29242,0.29242 0.19624,0.2944 0.0981,0.39049 0.0481,0.39248 v 0.29242 l -0.0981,0.29439 -0.0981,0.24429 -0.19433,0.24429 -8.21797,8.26477 -0.24437,0.24437 -0.34252,0.19624 -0.34245,0.14621 -0.34252,0.05 h -0.44068 l -0.34243,-0.0981 -0.29449,-0.19632 -0.2924,-0.19425 -4.11002,-4.10935 -0.19425,-0.29235 -0.19633,-0.29439 -0.0981,-0.34245 v -0.34244 -0.34245 l 0.0981,-0.34245 0.19633,-0.29241 0.19425,-0.24429 0.29447,-0.24635 0.29242,-0.14613 0.34251,-0.0981 0.34245,-0.0481 0.34252,0.0481 0.29447,0.0981 0.34244,0.14613 0.24437,0.24635 2.74002,2.68954 6.99424,-6.70074 0.2944,-0.29439 0.34252,-0.19427 0.34046,-0.0981 0.39263,-0.05 z m -7.58106,-10.70998 -0.83125,0.0981 -0.83323,0.0961 -0.78114,0.1482 -0.78311,0.1462 -0.78313,0.24433 -0.7331,0.24432 -0.78311,0.29436 -0.68505,0.34245 -0.73308,0.34244 -0.68497,0.39054 -0.63692,0.44057 -0.63493,0.44056 -0.63692,0.48866 -0.58688,0.53669 -0.53677,0.53869 -0.53884,0.53869 -0.53876,0.58677 -0.48873,0.63482 -0.44059,0.63684 -0.44068,0.63482 -0.39058,0.6849 -0.34252,0.73497 -0.34244,0.68489 -0.29249,0.78102 -0.24634,0.73493 -0.24437,0.78107 -0.1462,0.78297 -0.14621,0.78305 -0.0981,0.8311 -0.0981,0.83102 v 0.83309 0.83109 l 0.0981,0.83111 0.0981,0.8311 0.14621,0.78297 0.1462,0.78305 0.24437,0.781 0.24634,0.735 0.29249,0.78297 0.34244,0.68291 0.34252,0.735 0.39058,0.68489 0.44068,0.63478 0.44059,0.63684 0.48873,0.63487 0.53876,0.58673 0.53884,0.53869 0.53677,0.53869 0.58688,0.5367 0.63692,0.49064 0.63493,0.43861 0.63692,0.44054 0.68497,0.39255 0.73308,0.34039 0.68505,0.34245 0.78311,0.29439 0.7331,0.24437 0.78313,0.24428 0.78311,0.14621 0.78114,0.14818 0.83323,0.0981 0.83125,0.0962 h 1.66242 l 0.83117,-0.0962 0.83323,-0.0981 0.78114,-0.14818 0.78312,-0.14621 0.7832,-0.24428 0.78312,-0.24437 0.7331,-0.29439 0.68495,-0.34245 0.7331,-0.34039 0.68496,-0.39255 0.63699,-0.44054 0.63494,-0.43861 0.63692,-0.49064 0.5868,-0.5367 0.53684,-0.53869 0.58881,-0.53869 0.48872,-0.58673 0.48873,-0.63487 0.44068,-0.63684 0.4406,-0.63478 0.39056,-0.68489 0.34253,-0.735 0.34252,-0.68291 0.2924,-0.78297 0.24636,-0.735 0.24435,-0.781 0.14621,-0.78305 0.14621,-0.78297 0.0981,-0.8311 0.0981,-0.83111 v -0.83109 -0.83309 l -0.0981,-0.83102 -0.0981,-0.8311 -0.14621,-0.78305 -0.14621,-0.78297 -0.24435,-0.78107 -0.24636,-0.73493 -0.2924,-0.78102 -0.34252,-0.68489 -0.34253,-0.73497 -0.39056,-0.6849 -0.4406,-0.63482 -0.44068,-0.63684 -0.48873,-0.63482 -0.48872,-0.58677 -0.58881,-0.53869 -0.53684,-0.53869 -0.5868,-0.53669 -0.63692,-0.48866 -0.63494,-0.44056 -0.63699,-0.44057 -0.68496,-0.39054 -0.7331,-0.34244 -0.68495,-0.34245 -0.7331,-0.29436 -0.78312,-0.24432 -0.7832,-0.24433 -0.78312,-0.1462 -0.78114,-0.1482 -0.83323,-0.0961 -0.83117,-0.0981 z" />
</svg>
