<svg width="1216" height="555" viewBox="0 0 1216 555" fill="none" xmlns="http://www.w3.org/2000/svg">
<rect x="40" y="40" width="1136" height="475" fill="black"/>
<path d="M866 270L866 165" stroke="#32E685" stroke-width="2"/>
<path d="M1010 268L1010 165" stroke="#32E685" stroke-width="2"/>
<rect x="289.5" y="211.5" width="832" height="236" rx="3.5" fill="#343437" stroke="white" stroke-dasharray="5 5"/>
<path d="M85.712 217.16C86.928 217.16 87.968 217.368 88.832 217.784C89.696 218.184 90.36 218.768 90.824 219.536C91.304 220.288 91.544 221.2 91.544 222.272C91.544 223.344 91.304 224.264 90.824 225.032C90.36 225.784 89.696 226.368 88.832 226.784C87.968 227.184 86.928 227.384 85.712 227.384H82.376V233H79.064V217.16H85.712ZM85.208 224.768C86.2 224.768 86.944 224.56 87.44 224.144C87.936 223.712 88.184 223.088 88.184 222.272C88.184 221.44 87.936 220.816 87.44 220.4C86.944 219.984 86.2 219.776 85.208 219.776H82.376V224.768H85.208ZM99.5069 233.24C98.2429 233.24 97.1389 232.992 96.1949 232.496C95.2669 232 94.5469 231.288 94.0349 230.36C93.5229 229.432 93.2669 228.312 93.2669 227C93.2669 225.688 93.5229 224.568 94.0349 223.64C94.5469 222.712 95.2589 222 96.1709 221.504C97.0989 221.008 98.1549 220.76 99.3389 220.76C100.555 220.76 101.587 221.008 102.435 221.504C103.283 221.984 103.931 222.648 104.379 223.496C104.827 224.328 105.051 225.28 105.051 226.352C105.051 226.672 105.043 226.976 105.027 227.264C105.011 227.552 104.987 227.808 104.955 228.032H95.3789V225.752H103.515L101.931 226.328C101.931 225.32 101.699 224.544 101.235 224C100.787 223.456 100.147 223.184 99.3149 223.184C98.7069 223.184 98.1789 223.328 97.7309 223.616C97.2989 223.904 96.9709 224.336 96.7469 224.912C96.5229 225.472 96.4109 226.184 96.4109 227.048C96.4109 227.896 96.5309 228.6 96.7709 229.16C97.0269 229.704 97.3789 230.112 97.8269 230.384C98.2909 230.656 98.8429 230.792 99.4829 230.792C100.187 230.792 100.755 230.656 101.187 230.384C101.619 230.112 101.955 229.736 102.195 229.256L104.811 230.264C104.555 230.888 104.163 231.424 103.635 231.872C103.123 232.32 102.507 232.664 101.787 232.904C101.083 233.128 100.323 233.24 99.5069 233.24ZM113.405 233.24C112.141 233.24 111.037 232.992 110.093 232.496C109.165 232 108.445 231.288 107.933 230.36C107.421 229.432 107.165 228.312 107.165 227C107.165 225.688 107.421 224.568 107.933 223.64C108.445 222.712 109.157 222 110.069 221.504C110.997 221.008 112.053 220.76 113.237 220.76C114.453 220.76 115.485 221.008 116.333 221.504C117.181 221.984 117.829 222.648 118.277 223.496C118.725 224.328 118.949 225.28 118.949 226.352C118.949 226.672 118.941 226.976 118.925 227.264C118.909 227.552 118.885 227.808 118.853 228.032H109.277V225.752H117.413L115.829 226.328C115.829 225.32 115.597 224.544 115.133 224C114.685 223.456 114.045 223.184 113.213 223.184C112.605 223.184 112.077 223.328 111.629 223.616C111.197 223.904 110.869 224.336 110.645 224.912C110.421 225.472 110.309 226.184 110.309 227.048C110.309 227.896 110.429 228.6 110.669 229.16C110.925 229.704 111.277 230.112 111.725 230.384C112.189 230.656 112.741 230.792 113.381 230.792C114.085 230.792 114.653 230.656 115.085 230.384C115.517 230.112 115.853 229.736 116.093 229.256L118.709 230.264C118.453 230.888 118.061 231.424 117.533 231.872C117.021 232.32 116.405 232.664 115.685 232.904C114.981 233.128 114.221 233.24 113.405 233.24ZM121.736 233V221H124.592L124.808 223.352C125.128 222.52 125.592 221.88 126.2 221.432C126.824 220.984 127.6 220.76 128.528 220.76C128.8 220.76 129.048 220.784 129.272 220.832C129.496 220.88 129.68 220.944 129.824 221.024L129.44 223.784C129.28 223.72 129.08 223.672 128.84 223.64C128.616 223.608 128.32 223.592 127.952 223.592C127.472 223.592 127.008 223.712 126.56 223.952C126.112 224.176 125.744 224.528 125.456 225.008C125.168 225.472 125.024 226.064 125.024 226.784V233H121.736ZM139.355 225.224V228.056H130.883V225.224H139.355ZM146.96 217.328V229.088C146.96 229.664 147.104 230.088 147.392 230.36C147.696 230.616 148.104 230.744 148.616 230.744C149.016 230.744 149.368 230.688 149.672 230.576C149.976 230.448 150.248 230.28 150.488 230.072L151.016 232.256C150.632 232.56 150.152 232.8 149.576 232.976C149 233.152 148.392 233.24 147.752 233.24C146.952 233.24 146.24 233.12 145.616 232.88C145.008 232.64 144.528 232.256 144.176 231.728C143.84 231.2 143.672 230.496 143.672 229.616V218.24L146.96 217.328ZM150.8 221V223.448H141.464V221H150.8ZM158.497 220.76C159.713 220.76 160.777 221.008 161.689 221.504C162.617 222 163.337 222.712 163.849 223.64C164.377 224.568 164.641 225.688 164.641 227C164.641 228.296 164.377 229.416 163.849 230.36C163.337 231.288 162.617 232 161.689 232.496C160.777 232.992 159.713 233.24 158.497 233.24C157.297 233.24 156.233 232.992 155.305 232.496C154.377 232 153.649 231.288 153.121 230.36C152.609 229.416 152.353 228.296 152.353 227C152.353 225.688 152.609 224.568 153.121 223.64C153.649 222.712 154.377 222 155.305 221.504C156.233 221.008 157.297 220.76 158.497 220.76ZM158.497 223.208C157.889 223.208 157.369 223.352 156.937 223.64C156.521 223.912 156.201 224.328 155.977 224.888C155.753 225.448 155.641 226.152 155.641 227C155.641 227.848 155.753 228.552 155.977 229.112C156.201 229.672 156.521 230.096 156.937 230.384C157.369 230.656 157.889 230.792 158.497 230.792C159.089 230.792 159.593 230.656 160.009 230.384C160.441 230.096 160.769 229.672 160.993 229.112C161.217 228.552 161.329 227.848 161.329 227C161.329 226.152 161.217 225.448 160.993 224.888C160.769 224.328 160.441 223.912 160.009 223.64C159.593 223.352 159.089 223.208 158.497 223.208ZM176.152 225.224V228.056H167.68V225.224H176.152ZM186.892 217.16C188.108 217.16 189.148 217.368 190.012 217.784C190.876 218.184 191.54 218.768 192.004 219.536C192.484 220.288 192.724 221.2 192.724 222.272C192.724 223.344 192.484 224.264 192.004 225.032C191.54 225.784 190.876 226.368 190.012 226.784C189.148 227.184 188.108 227.384 186.892 227.384H183.556V233H180.244V217.16H186.892ZM186.388 224.768C187.38 224.768 188.124 224.56 188.62 224.144C189.116 223.712 189.364 223.088 189.364 222.272C189.364 221.44 189.116 220.816 188.62 220.4C188.124 219.984 187.38 219.776 186.388 219.776H183.556V224.768H186.388ZM200.687 233.24C199.423 233.24 198.319 232.992 197.375 232.496C196.447 232 195.727 231.288 195.215 230.36C194.703 229.432 194.447 228.312 194.447 227C194.447 225.688 194.703 224.568 195.215 223.64C195.727 222.712 196.439 222 197.351 221.504C198.279 221.008 199.335 220.76 200.519 220.76C201.735 220.76 202.767 221.008 203.615 221.504C204.463 221.984 205.111 222.648 205.559 223.496C206.007 224.328 206.231 225.28 206.231 226.352C206.231 226.672 206.223 226.976 206.207 227.264C206.191 227.552 206.167 227.808 206.135 228.032H196.559V225.752H204.695L203.111 226.328C203.111 225.32 202.879 224.544 202.415 224C201.967 223.456 201.327 223.184 200.495 223.184C199.887 223.184 199.359 223.328 198.911 223.616C198.479 223.904 198.151 224.336 197.927 224.912C197.703 225.472 197.591 226.184 197.591 227.048C197.591 227.896 197.711 228.6 197.951 229.16C198.207 229.704 198.559 230.112 199.007 230.384C199.471 230.656 200.023 230.792 200.663 230.792C201.367 230.792 201.935 230.656 202.367 230.384C202.799 230.112 203.135 229.736 203.375 229.256L205.991 230.264C205.735 230.888 205.343 231.424 204.815 231.872C204.303 232.32 203.687 232.664 202.967 232.904C202.263 233.128 201.503 233.24 200.687 233.24ZM214.585 233.24C213.321 233.24 212.217 232.992 211.273 232.496C210.345 232 209.625 231.288 209.113 230.36C208.601 229.432 208.345 228.312 208.345 227C208.345 225.688 208.601 224.568 209.113 223.64C209.625 222.712 210.337 222 211.249 221.504C212.177 221.008 213.233 220.76 214.417 220.76C215.633 220.76 216.665 221.008 217.513 221.504C218.361 221.984 219.009 222.648 219.457 223.496C219.905 224.328 220.129 225.28 220.129 226.352C220.129 226.672 220.121 226.976 220.105 227.264C220.089 227.552 220.065 227.808 220.033 228.032H210.457V225.752H218.593L217.009 226.328C217.009 225.32 216.777 224.544 216.313 224C215.865 223.456 215.225 223.184 214.393 223.184C213.785 223.184 213.257 223.328 212.809 223.616C212.377 223.904 212.049 224.336 211.825 224.912C211.601 225.472 211.489 226.184 211.489 227.048C211.489 227.896 211.609 228.6 211.849 229.16C212.105 229.704 212.457 230.112 212.905 230.384C213.369 230.656 213.921 230.792 214.561 230.792C215.265 230.792 215.833 230.656 216.265 230.384C216.697 230.112 217.033 229.736 217.273 229.256L219.889 230.264C219.633 230.888 219.241 231.424 218.713 231.872C218.201 232.32 217.585 232.664 216.865 232.904C216.161 233.128 215.401 233.24 214.585 233.24ZM222.916 233V221H225.772L225.988 223.352C226.308 222.52 226.772 221.88 227.38 221.432C228.004 220.984 228.78 220.76 229.708 220.76C229.98 220.76 230.228 220.784 230.452 220.832C230.676 220.88 230.86 220.944 231.004 221.024L230.62 223.784C230.46 223.72 230.26 223.672 230.02 223.64C229.796 223.608 229.5 223.592 229.132 223.592C228.652 223.592 228.188 223.712 227.74 223.952C227.292 224.176 226.924 224.528 226.636 225.008C226.348 225.472 226.204 226.064 226.204 226.784V233H222.916ZM92.672 245.16V261H88.88L83.336 251.688L81.968 249.096H81.944L82.04 251.832V261H79.064V245.16H82.832L88.376 254.448L89.744 257.064H89.792L89.696 254.328V245.16H92.672ZM101.921 261.24C100.657 261.24 99.553 260.992 98.609 260.496C97.681 260 96.961 259.288 96.449 258.36C95.937 257.432 95.681 256.312 95.681 255C95.681 253.688 95.937 252.568 96.449 251.64C96.961 250.712 97.673 250 98.585 249.504C99.513 249.008 100.569 248.76 101.753 248.76C102.969 248.76 104.001 249.008 104.849 249.504C105.697 249.984 106.345 250.648 106.793 251.496C107.241 252.328 107.465 253.28 107.465 254.352C107.465 254.672 107.457 254.976 107.441 255.264C107.425 255.552 107.401 255.808 107.369 256.032H97.793V253.752H105.929L104.345 254.328C104.345 253.32 104.113 252.544 103.649 252C103.201 251.456 102.561 251.184 101.729 251.184C101.121 251.184 100.593 251.328 100.145 251.616C99.713 251.904 99.385 252.336 99.161 252.912C98.937 253.472 98.825 254.184 98.825 255.048C98.825 255.896 98.945 256.6 99.185 257.16C99.441 257.704 99.793 258.112 100.241 258.384C100.705 258.656 101.257 258.792 101.897 258.792C102.601 258.792 103.169 258.656 103.601 258.384C104.033 258.112 104.369 257.736 104.609 257.256L107.225 258.264C106.969 258.888 106.577 259.424 106.049 259.872C105.537 260.32 104.921 260.664 104.201 260.904C103.497 261.128 102.737 261.24 101.921 261.24ZM114.289 245.328V257.088C114.289 257.664 114.433 258.088 114.721 258.36C115.025 258.616 115.433 258.744 115.945 258.744C116.345 258.744 116.697 258.688 117.001 258.576C117.305 258.448 117.577 258.28 117.817 258.072L118.345 260.256C117.961 260.56 117.481 260.8 116.905 260.976C116.329 261.152 115.721 261.24 115.081 261.24C114.281 261.24 113.569 261.12 112.945 260.88C112.337 260.64 111.857 260.256 111.505 259.728C111.169 259.2 111.001 258.496 111.001 257.616V246.24L114.289 245.328ZM118.129 249V251.448H108.793V249H118.129ZM135.833 249H139.337L135.497 261H131.705L129.089 252.84L126.569 261H122.777L118.937 249H122.441L124.841 258.192L127.505 249H130.769L133.457 258.192L135.833 249ZM146.52 248.76C147.736 248.76 148.8 249.008 149.712 249.504C150.64 250 151.36 250.712 151.872 251.64C152.4 252.568 152.664 253.688 152.664 255C152.664 256.296 152.4 257.416 151.872 258.36C151.36 259.288 150.64 260 149.712 260.496C148.8 260.992 147.736 261.24 146.52 261.24C145.32 261.24 144.256 260.992 143.328 260.496C142.4 260 141.672 259.288 141.144 258.36C140.632 257.416 140.376 256.296 140.376 255C140.376 253.688 140.632 252.568 141.144 251.64C141.672 250.712 142.4 250 143.328 249.504C144.256 249.008 145.32 248.76 146.52 248.76ZM146.52 251.208C145.912 251.208 145.392 251.352 144.96 251.64C144.544 251.912 144.224 252.328 144 252.888C143.776 253.448 143.664 254.152 143.664 255C143.664 255.848 143.776 256.552 144 257.112C144.224 257.672 144.544 258.096 144.96 258.384C145.392 258.656 145.912 258.792 146.52 258.792C147.112 258.792 147.616 258.656 148.032 258.384C148.464 258.096 148.792 257.672 149.016 257.112C149.24 256.552 149.352 255.848 149.352 255C149.352 254.152 149.24 253.448 149.016 252.888C148.792 252.328 148.464 251.912 148.032 251.64C147.616 251.352 147.112 251.208 146.52 251.208ZM155.416 261V249H158.272L158.488 251.352C158.808 250.52 159.272 249.88 159.88 249.432C160.504 248.984 161.28 248.76 162.208 248.76C162.48 248.76 162.728 248.784 162.952 248.832C163.176 248.88 163.36 248.944 163.504 249.024L163.12 251.784C162.96 251.72 162.76 251.672 162.52 251.64C162.296 251.608 162 251.592 161.632 251.592C161.152 251.592 160.688 251.712 160.24 251.952C159.792 252.176 159.424 252.528 159.136 253.008C158.848 253.472 158.704 254.064 158.704 254.784V261H155.416ZM177.757 249L172.213 254.784L171.565 255.096L167.965 258.96L167.917 255.456L174.013 249H177.757ZM168.829 243.744V261H165.541V243.744H168.829ZM172.669 252.816L178.045 261H174.325L170.413 254.736L172.669 252.816Z" fill="white"/>
<path d="M320.976 255H317.04L313.584 249.384L310.176 255H306.384L311.832 247.008L306.768 239.16H310.656L313.848 244.488L317.088 239.16H320.688L315.6 246.888L320.976 255ZM330.4 239.16C332.192 239.16 333.6 239.592 334.624 240.456C335.648 241.32 336.16 242.48 336.16 243.936C336.16 245.488 335.648 246.68 334.624 247.512C333.6 248.328 332.2 248.736 330.424 248.736L330.088 248.928H326.68V255H323.416V239.16H330.4ZM330.016 246.408C330.944 246.408 331.632 246.224 332.08 245.856C332.544 245.472 332.776 244.888 332.776 244.104C332.776 243.32 332.544 242.744 332.08 242.376C331.632 241.992 330.944 241.8 330.016 241.8H326.68V246.408H330.016ZM331.96 247.104L337.096 255H333.376L329.128 248.064L331.96 247.104ZM346.376 239.16C347.592 239.16 348.632 239.368 349.496 239.784C350.36 240.184 351.024 240.768 351.488 241.536C351.968 242.288 352.208 243.2 352.208 244.272C352.208 245.344 351.968 246.264 351.488 247.032C351.024 247.784 350.36 248.368 349.496 248.784C348.632 249.184 347.592 249.384 346.376 249.384H343.04V255H339.728V239.16H346.376ZM345.872 246.768C346.864 246.768 347.608 246.56 348.104 246.144C348.6 245.712 348.848 245.088 348.848 244.272C348.848 243.44 348.6 242.816 348.104 242.4C347.608 241.984 346.864 241.776 345.872 241.776H343.04V246.768H345.872ZM365.54 252.336H373.892V255H362.228V239.16H365.54V252.336ZM381.663 255.24C380.399 255.24 379.295 254.992 378.351 254.496C377.423 254 376.703 253.288 376.191 252.36C375.679 251.432 375.423 250.312 375.423 249C375.423 247.688 375.679 246.568 376.191 245.64C376.703 244.712 377.415 244 378.327 243.504C379.255 243.008 380.311 242.76 381.495 242.76C382.711 242.76 383.743 243.008 384.591 243.504C385.439 243.984 386.087 244.648 386.535 245.496C386.983 246.328 387.207 247.28 387.207 248.352C387.207 248.672 387.199 248.976 387.183 249.264C387.167 249.552 387.143 249.808 387.111 250.032H377.535V247.752H385.671L384.087 248.328C384.087 247.32 383.855 246.544 383.391 246C382.943 245.456 382.303 245.184 381.471 245.184C380.863 245.184 380.335 245.328 379.887 245.616C379.455 245.904 379.127 246.336 378.903 246.912C378.679 247.472 378.567 248.184 378.567 249.048C378.567 249.896 378.687 250.6 378.927 251.16C379.183 251.704 379.535 252.112 379.983 252.384C380.447 252.656 380.999 252.792 381.639 252.792C382.343 252.792 382.911 252.656 383.343 252.384C383.775 252.112 384.111 251.736 384.351 251.256L386.967 252.264C386.711 252.888 386.319 253.424 385.791 253.872C385.279 254.32 384.663 254.664 383.943 254.904C383.239 255.128 382.479 255.24 381.663 255.24ZM394.53 255.24C393.538 255.24 392.65 254.992 391.866 254.496C391.098 254 390.49 253.288 390.042 252.36C389.61 251.432 389.394 250.32 389.394 249.024C389.394 247.696 389.626 246.568 390.09 245.64C390.554 244.696 391.178 243.984 391.962 243.504C392.762 243.008 393.658 242.76 394.65 242.76C395.706 242.76 396.578 243.064 397.266 243.672C397.954 244.28 398.402 245.064 398.61 246.024L398.298 246.408V237.744H401.586V255H398.634L398.418 251.352L398.826 251.544C398.714 252.296 398.458 252.952 398.058 253.512C397.658 254.056 397.154 254.48 396.546 254.784C395.938 255.088 395.266 255.24 394.53 255.24ZM395.49 252.72C396.066 252.72 396.562 252.576 396.978 252.288C397.394 251.984 397.714 251.544 397.938 250.968C398.178 250.392 398.298 249.704 398.298 248.904C398.298 248.136 398.186 247.488 397.962 246.96C397.738 246.416 397.418 246 397.002 245.712C396.586 245.424 396.098 245.28 395.538 245.28C394.642 245.28 393.938 245.6 393.426 246.24C392.93 246.864 392.682 247.784 392.682 249C392.682 250.216 392.93 251.144 393.426 251.784C393.922 252.408 394.61 252.72 395.49 252.72ZM416.105 240.144L416.489 242.496C416.425 242.496 416.353 242.496 416.273 242.496C416.209 242.48 416.137 242.472 416.057 242.472C415.321 242.472 414.769 242.64 414.401 242.976C414.033 243.296 413.849 243.744 413.849 244.32L412.505 243.768C412.505 243.128 412.633 242.536 412.889 241.992C413.145 241.432 413.521 240.984 414.017 240.648C414.529 240.312 415.137 240.144 415.841 240.144C415.873 240.144 415.913 240.144 415.961 240.144C416.009 240.144 416.057 240.144 416.105 240.144ZM412.169 252.744C413.465 252.744 414.465 253.024 415.169 253.584C415.873 254.144 416.225 254.928 416.225 255.936C416.225 256.848 415.961 257.616 415.432 258.24C414.905 258.88 414.161 259.36 413.201 259.68C412.257 260 411.161 260.16 409.913 260.16C407.849 260.16 406.337 259.872 405.377 259.296C404.433 258.72 403.961 257.968 403.961 257.04C403.961 256.384 404.209 255.832 404.705 255.384C405.217 254.936 406.057 254.688 407.225 254.64L407.105 255.024C406.273 254.88 405.633 254.608 405.185 254.208C404.753 253.792 404.537 253.224 404.537 252.504C404.537 251.768 404.817 251.168 405.377 250.704C405.953 250.224 406.729 249.944 407.705 249.864L409.145 250.536H408.809C408.121 250.584 407.633 250.728 407.345 250.968C407.073 251.192 406.937 251.448 406.937 251.736C406.937 252.072 407.065 252.328 407.321 252.504C407.593 252.664 407.977 252.744 408.473 252.744H412.169ZM409.937 257.904C410.769 257.904 411.449 257.832 411.977 257.688C412.521 257.544 412.921 257.36 413.177 257.136C413.449 256.912 413.585 256.664 413.585 256.392C413.585 256.088 413.465 255.84 413.225 255.648C412.985 255.472 412.553 255.384 411.929 255.384H407.873C407.489 255.384 407.169 255.48 406.913 255.672C406.673 255.864 406.553 256.128 406.553 256.464C406.553 256.912 406.849 257.264 407.441 257.52C408.049 257.776 408.881 257.904 409.937 257.904ZM409.961 242.76C411.081 242.76 412.049 242.928 412.865 243.264C413.697 243.584 414.329 244.048 414.761 244.656C415.209 245.264 415.432 245.992 415.432 246.84C415.432 247.672 415.209 248.392 414.761 249C414.329 249.608 413.697 250.08 412.865 250.416C412.049 250.736 411.081 250.896 409.961 250.896C408.185 250.896 406.825 250.536 405.881 249.816C404.953 249.08 404.489 248.088 404.489 246.84C404.489 245.992 404.705 245.264 405.137 244.656C405.585 244.048 406.217 243.584 407.033 243.264C407.849 242.928 408.825 242.76 409.961 242.76ZM409.961 244.824C409.321 244.824 408.793 245 408.377 245.352C407.961 245.704 407.753 246.192 407.753 246.816C407.753 247.44 407.961 247.936 408.377 248.304C408.793 248.656 409.321 248.832 409.961 248.832C410.601 248.832 411.121 248.656 411.521 248.304C411.937 247.936 412.145 247.44 412.145 246.816C412.145 246.192 411.937 245.704 411.521 245.352C411.121 245 410.601 244.824 409.961 244.824ZM423.78 255.24C422.516 255.24 421.412 254.992 420.468 254.496C419.54 254 418.82 253.288 418.308 252.36C417.796 251.432 417.54 250.312 417.54 249C417.54 247.688 417.796 246.568 418.308 245.64C418.82 244.712 419.532 244 420.444 243.504C421.372 243.008 422.428 242.76 423.612 242.76C424.828 242.76 425.86 243.008 426.708 243.504C427.556 243.984 428.204 244.648 428.652 245.496C429.1 246.328 429.324 247.28 429.324 248.352C429.324 248.672 429.316 248.976 429.3 249.264C429.284 249.552 429.26 249.808 429.228 250.032H419.652V247.752H427.788L426.204 248.328C426.204 247.32 425.972 246.544 425.508 246C425.06 245.456 424.42 245.184 423.588 245.184C422.98 245.184 422.452 245.328 422.004 245.616C421.572 245.904 421.244 246.336 421.02 246.912C420.796 247.472 420.684 248.184 420.684 249.048C420.684 249.896 420.804 250.6 421.044 251.16C421.3 251.704 421.652 252.112 422.1 252.384C422.564 252.656 423.116 252.792 423.756 252.792C424.46 252.792 425.028 252.656 425.46 252.384C425.892 252.112 426.228 251.736 426.468 251.256L429.084 252.264C428.828 252.888 428.436 253.424 427.908 253.872C427.396 254.32 426.78 254.664 426.06 254.904C425.356 255.128 424.596 255.24 423.78 255.24ZM432.111 255V243H434.967L435.183 245.352C435.503 244.52 435.967 243.88 436.575 243.432C437.199 242.984 437.975 242.76 438.903 242.76C439.175 242.76 439.423 242.784 439.647 242.832C439.871 242.88 440.055 242.944 440.199 243.024L439.815 245.784C439.655 245.72 439.455 245.672 439.215 245.64C438.991 245.608 438.695 245.592 438.327 245.592C437.847 245.592 437.383 245.712 436.935 245.952C436.487 246.176 436.119 246.528 435.831 247.008C435.543 247.472 435.399 248.064 435.399 248.784V255H432.111Z" fill="white"/>
<rect x="805.5" y="283.5" width="298" height="130" rx="3.5" fill="#7919FF" stroke="white"/>
<path d="M818.296 333V324H820.438L820.6 325.764C820.84 325.14 821.188 324.66 821.644 324.324C822.112 323.988 822.694 323.82 823.39 323.82C823.594 323.82 823.78 323.838 823.948 323.874C824.116 323.91 824.254 323.958 824.362 324.018L824.074 326.088C823.954 326.04 823.804 326.004 823.624 325.98C823.456 325.956 823.234 325.944 822.958 325.944C822.598 325.944 822.25 326.034 821.914 326.214C821.578 326.382 821.302 326.646 821.086 327.006C820.87 327.354 820.762 327.798 820.762 328.338V333H818.296ZM827.132 322.704C826.616 322.704 826.232 322.596 825.98 322.38C825.728 322.152 825.602 321.822 825.602 321.39C825.602 320.946 825.728 320.616 825.98 320.4C826.232 320.172 826.616 320.058 827.132 320.058C827.648 320.058 828.032 320.172 828.284 320.4C828.536 320.616 828.662 320.946 828.662 321.39C828.662 321.822 828.536 322.152 828.284 322.38C828.032 322.596 827.648 322.704 827.132 322.704ZM828.356 324V333H825.89V324H828.356ZM830.97 336.78V324H833.184L833.346 326.862L833.04 326.538C833.148 326.01 833.346 325.542 833.634 325.134C833.934 324.726 834.312 324.408 834.768 324.18C835.224 323.94 835.734 323.82 836.298 323.82C837.03 323.82 837.684 324.006 838.26 324.378C838.836 324.75 839.286 325.284 839.61 325.98C839.946 326.664 840.114 327.498 840.114 328.482C840.114 329.466 839.946 330.312 839.61 331.02C839.274 331.716 838.812 332.25 838.224 332.622C837.648 332.994 836.988 333.18 836.244 333.18C835.452 333.18 834.792 332.958 834.264 332.514C833.748 332.07 833.394 331.512 833.202 330.84L833.436 330.462V336.78H830.97ZM835.524 331.29C836.184 331.29 836.7 331.056 837.072 330.588C837.456 330.108 837.648 329.412 837.648 328.5C837.648 327.588 837.462 326.898 837.09 326.43C836.73 325.95 836.22 325.71 835.56 325.71C835.14 325.71 834.768 325.824 834.444 326.052C834.132 326.268 833.886 326.586 833.706 327.006C833.526 327.414 833.436 327.912 833.436 328.5C833.436 329.076 833.52 329.574 833.688 329.994C833.856 330.414 834.096 330.738 834.408 330.966C834.732 331.182 835.104 331.29 835.524 331.29ZM842.255 336.78V324H844.469L844.631 326.862L844.325 326.538C844.433 326.01 844.631 325.542 844.919 325.134C845.219 324.726 845.597 324.408 846.053 324.18C846.509 323.94 847.019 323.82 847.583 323.82C848.315 323.82 848.969 324.006 849.545 324.378C850.121 324.75 850.571 325.284 850.895 325.98C851.231 326.664 851.399 327.498 851.399 328.482C851.399 329.466 851.231 330.312 850.895 331.02C850.559 331.716 850.097 332.25 849.509 332.622C848.933 332.994 848.273 333.18 847.529 333.18C846.737 333.18 846.077 332.958 845.549 332.514C845.033 332.07 844.679 331.512 844.487 330.84L844.721 330.462V336.78H842.255ZM846.809 331.29C847.469 331.29 847.985 331.056 848.357 330.588C848.741 330.108 848.933 329.412 848.933 328.5C848.933 327.588 848.747 326.898 848.375 326.43C848.015 325.95 847.505 325.71 846.845 325.71C846.425 325.71 846.053 325.824 845.729 326.052C845.417 326.268 845.171 326.586 844.991 327.006C844.811 327.414 844.721 327.912 844.721 328.5C844.721 329.076 844.805 329.574 844.973 329.994C845.141 330.414 845.381 330.738 845.693 330.966C846.017 331.182 846.389 331.29 846.809 331.29ZM855.97 320.058V330.228C855.97 330.648 856.042 330.942 856.186 331.11C856.33 331.278 856.57 331.362 856.906 331.362C857.11 331.362 857.278 331.35 857.41 331.326C857.542 331.29 857.71 331.242 857.914 331.182L857.698 332.802C857.494 332.922 857.236 333.012 856.924 333.072C856.624 333.144 856.324 333.18 856.024 333.18C855.148 333.18 854.506 332.97 854.098 332.55C853.702 332.118 853.504 331.434 853.504 330.498V320.058H855.97ZM863.464 333.18C862.516 333.18 861.688 332.994 860.98 332.622C860.284 332.25 859.744 331.716 859.36 331.02C858.976 330.324 858.784 329.484 858.784 328.5C858.784 327.516 858.976 326.676 859.36 325.98C859.744 325.284 860.278 324.75 860.962 324.378C861.658 324.006 862.45 323.82 863.338 323.82C864.25 323.82 865.024 324.006 865.66 324.378C866.296 324.738 866.782 325.236 867.118 325.872C867.454 326.496 867.622 327.21 867.622 328.014C867.622 328.254 867.616 328.482 867.604 328.698C867.592 328.914 867.574 329.106 867.55 329.274H860.368V327.564H866.47L865.282 327.996C865.282 327.24 865.108 326.658 864.76 326.25C864.424 325.842 863.944 325.638 863.32 325.638C862.864 325.638 862.468 325.746 862.132 325.962C861.808 326.178 861.562 326.502 861.394 326.934C861.226 327.354 861.142 327.888 861.142 328.536C861.142 329.172 861.232 329.7 861.412 330.12C861.604 330.528 861.868 330.834 862.204 331.038C862.552 331.242 862.966 331.344 863.446 331.344C863.974 331.344 864.4 331.242 864.724 331.038C865.048 330.834 865.3 330.552 865.48 330.192L867.442 330.948C867.25 331.416 866.956 331.818 866.56 332.154C866.176 332.49 865.714 332.748 865.174 332.928C864.646 333.096 864.076 333.18 863.464 333.18ZM873.114 333.18C872.37 333.18 871.704 332.994 871.116 332.622C870.54 332.25 870.084 331.716 869.748 331.02C869.424 330.324 869.262 329.49 869.262 328.518C869.262 327.522 869.436 326.676 869.784 325.98C870.132 325.272 870.6 324.738 871.188 324.378C871.788 324.006 872.46 323.82 873.204 323.82C873.996 323.82 874.65 324.048 875.166 324.504C875.682 324.96 876.018 325.548 876.174 326.268L875.94 326.556V320.058H878.406V333H876.192L876.03 330.264L876.336 330.408C876.252 330.972 876.06 331.464 875.76 331.884C875.46 332.292 875.082 332.61 874.626 332.838C874.17 333.066 873.666 333.18 873.114 333.18ZM873.834 331.29C874.266 331.29 874.638 331.182 874.95 330.966C875.262 330.738 875.502 330.408 875.67 329.976C875.85 329.544 875.94 329.028 875.94 328.428C875.94 327.852 875.856 327.366 875.688 326.97C875.52 326.562 875.28 326.25 874.968 326.034C874.656 325.818 874.29 325.71 873.87 325.71C873.198 325.71 872.67 325.95 872.286 326.43C871.914 326.898 871.728 327.588 871.728 328.5C871.728 329.412 871.914 330.108 872.286 330.588C872.658 331.056 873.174 331.29 873.834 331.29ZM890.099 333.18C889.187 333.18 888.353 333.018 887.597 332.694C886.853 332.37 886.247 331.914 885.779 331.326L887.201 329.886C887.489 330.318 887.873 330.672 888.353 330.948C888.833 331.224 889.403 331.362 890.063 331.362C890.531 331.362 890.903 331.296 891.179 331.164C891.467 331.02 891.611 330.798 891.611 330.498C891.611 330.306 891.545 330.144 891.413 330.012C891.281 329.868 891.017 329.754 890.621 329.67L889.037 329.346C887.993 329.13 887.249 328.806 886.805 328.374C886.373 327.93 886.157 327.36 886.157 326.664C886.157 326.172 886.301 325.71 886.589 325.278C886.889 324.846 887.333 324.498 887.921 324.234C888.509 323.958 889.241 323.82 890.117 323.82C891.017 323.82 891.797 323.964 892.457 324.252C893.129 324.528 893.657 324.942 894.041 325.494L892.565 326.934C892.301 326.514 891.953 326.196 891.521 325.98C891.101 325.752 890.657 325.638 890.189 325.638C889.853 325.638 889.565 325.674 889.325 325.746C889.085 325.818 888.905 325.92 888.785 326.052C888.665 326.172 888.605 326.328 888.605 326.52C888.605 326.712 888.689 326.88 888.857 327.024C889.025 327.156 889.331 327.27 889.775 327.366L891.611 327.744C892.499 327.924 893.135 328.23 893.519 328.662C893.903 329.082 894.095 329.592 894.095 330.192C894.095 330.768 893.939 331.284 893.627 331.74C893.327 332.184 892.877 332.538 892.277 332.802C891.689 333.054 890.963 333.18 890.099 333.18ZM900.202 333.18C899.254 333.18 898.426 332.994 897.718 332.622C897.022 332.25 896.482 331.716 896.098 331.02C895.714 330.324 895.522 329.484 895.522 328.5C895.522 327.516 895.714 326.676 896.098 325.98C896.482 325.284 897.016 324.75 897.7 324.378C898.396 324.006 899.188 323.82 900.076 323.82C900.988 323.82 901.762 324.006 902.398 324.378C903.034 324.738 903.52 325.236 903.856 325.872C904.192 326.496 904.36 327.21 904.36 328.014C904.36 328.254 904.354 328.482 904.342 328.698C904.33 328.914 904.312 329.106 904.288 329.274H897.106V327.564H903.208L902.02 327.996C902.02 327.24 901.846 326.658 901.498 326.25C901.162 325.842 900.682 325.638 900.058 325.638C899.602 325.638 899.206 325.746 898.87 325.962C898.546 326.178 898.3 326.502 898.132 326.934C897.964 327.354 897.88 327.888 897.88 328.536C897.88 329.172 897.97 329.7 898.15 330.12C898.342 330.528 898.606 330.834 898.942 331.038C899.29 331.242 899.704 331.344 900.184 331.344C900.712 331.344 901.138 331.242 901.462 331.038C901.786 330.834 902.038 330.552 902.218 330.192L904.18 330.948C903.988 331.416 903.694 331.818 903.298 332.154C902.914 332.49 902.452 332.748 901.912 332.928C901.384 333.096 900.814 333.18 900.202 333.18ZM906.45 333V324H908.592L908.754 325.764C908.994 325.14 909.342 324.66 909.798 324.324C910.266 323.988 910.848 323.82 911.544 323.82C911.748 323.82 911.934 323.838 912.102 323.874C912.27 323.91 912.408 323.958 912.516 324.018L912.228 326.088C912.108 326.04 911.958 326.004 911.778 325.98C911.61 325.956 911.388 325.944 911.112 325.944C910.752 325.944 910.404 326.034 910.068 326.214C909.732 326.382 909.456 326.646 909.24 327.006C909.024 327.354 908.916 327.798 908.916 328.338V333H906.45ZM919.948 324H922.504L919.084 333H916.24L912.82 324H915.448L917.68 331.11L919.948 324ZM927.941 333.18C926.993 333.18 926.165 332.994 925.457 332.622C924.761 332.25 924.221 331.716 923.837 331.02C923.453 330.324 923.261 329.484 923.261 328.5C923.261 327.516 923.453 326.676 923.837 325.98C924.221 325.284 924.755 324.75 925.439 324.378C926.135 324.006 926.927 323.82 927.815 323.82C928.727 323.82 929.501 324.006 930.137 324.378C930.773 324.738 931.259 325.236 931.595 325.872C931.931 326.496 932.099 327.21 932.099 328.014C932.099 328.254 932.093 328.482 932.081 328.698C932.069 328.914 932.051 329.106 932.027 329.274H924.845V327.564H930.947L929.759 327.996C929.759 327.24 929.585 326.658 929.237 326.25C928.901 325.842 928.421 325.638 927.797 325.638C927.341 325.638 926.945 325.746 926.609 325.962C926.285 326.178 926.039 326.502 925.871 326.934C925.703 327.354 925.619 327.888 925.619 328.536C925.619 329.172 925.709 329.7 925.889 330.12C926.081 330.528 926.345 330.834 926.681 331.038C927.029 331.242 927.443 331.344 927.923 331.344C928.451 331.344 928.877 331.242 929.201 331.038C929.525 330.834 929.777 330.552 929.957 330.192L931.919 330.948C931.727 331.416 931.433 331.818 931.037 332.154C930.653 332.49 930.191 332.748 929.651 332.928C929.123 333.096 928.553 333.18 927.941 333.18ZM934.189 333V324H936.331L936.493 325.764C936.733 325.14 937.081 324.66 937.537 324.324C938.005 323.988 938.587 323.82 939.283 323.82C939.487 323.82 939.673 323.838 939.841 323.874C940.009 323.91 940.147 323.958 940.255 324.018L939.967 326.088C939.847 326.04 939.697 326.004 939.517 325.98C939.349 325.956 939.127 325.944 938.851 325.944C938.491 325.944 938.143 326.034 937.807 326.214C937.471 326.382 937.195 326.646 936.979 327.006C936.763 327.354 936.655 327.798 936.655 328.338V333H934.189Z" fill="white"/>
<circle cx="866.5" cy="147.955" r="16.5" stroke="#32E685" stroke-width="2"/>
<circle cx="1010.5" cy="147.5" r="16.5" stroke="#32E685" stroke-width="2"/>
<path d="M1067.5 386.5C1067.5 388.109 1066.35 389.754 1063.99 391.34C1061.65 392.914 1058.22 394.35 1053.95 395.565C1045.41 397.992 1033.58 399.5 1020.5 399.5C1007.42 399.5 995.589 397.992 987.049 395.565C982.776 394.35 979.354 392.914 977.012 391.34C974.652 389.754 973.5 388.109 973.5 386.5C973.5 384.891 974.652 383.246 977.012 381.66C979.354 380.086 982.776 378.65 987.049 377.435C995.589 375.008 1007.42 373.5 1020.5 373.5C1033.58 373.5 1045.41 375.008 1053.95 377.435C1058.22 378.65 1061.65 380.086 1063.99 381.66C1066.35 383.246 1067.5 384.891 1067.5 386.5Z" fill="white" stroke="black"/>
<mask id="path-12-inside-1_0_1" fill="white">
<path d="M973 351H1068V387H973V351Z"/>
</mask>
<path d="M973 351H1068V387H973V351Z" fill="white"/>
<path d="M1067 351V387H1069V351H1067ZM974 387V351H972V387H974Z" fill="black" mask="url(#path-12-inside-1_0_1)"/>
<path d="M1067.5 350.5C1067.5 352.109 1066.35 353.754 1063.99 355.34C1061.65 356.914 1058.22 358.35 1053.95 359.565C1045.41 361.992 1033.58 363.5 1020.5 363.5C1007.42 363.5 995.589 361.992 987.049 359.565C982.776 358.35 979.354 356.914 977.012 355.34C974.652 353.754 973.5 352.109 973.5 350.5C973.5 348.891 974.652 347.246 977.012 345.66C979.354 344.086 982.776 342.65 987.049 341.435C995.589 339.008 1007.42 337.5 1020.5 337.5C1033.58 337.5 1045.41 339.008 1053.95 341.435C1058.22 342.65 1061.65 344.086 1063.99 345.66C1066.35 347.246 1067.5 348.891 1067.5 350.5Z" fill="white" stroke="black"/>
<path d="M987.688 373.08V381H986.032V373.08H987.688ZM989.544 381V375H991.02L991.116 376.8L990.912 376.608C991.008 376.216 991.16 375.892 991.368 375.636C991.576 375.38 991.828 375.192 992.124 375.072C992.428 374.944 992.76 374.88 993.12 374.88C993.536 374.88 993.904 374.96 994.224 375.12C994.552 375.28 994.808 375.524 994.992 375.852C995.184 376.172 995.28 376.576 995.28 377.064V381H993.636V377.532C993.636 377.02 993.536 376.668 993.336 376.476C993.136 376.276 992.876 376.176 992.556 376.176C992.332 376.176 992.112 376.232 991.896 376.344C991.688 376.448 991.516 376.62 991.38 376.86C991.252 377.1 991.188 377.42 991.188 377.82V381H989.544ZM999.051 373.164V379.044C999.051 379.332 999.123 379.544 999.267 379.68C999.419 379.808 999.623 379.872 999.879 379.872C1000.08 379.872 1000.25 379.844 1000.41 379.788C1000.56 379.724 1000.69 379.64 1000.81 379.536L1001.08 380.628C1000.89 380.78 1000.65 380.9 1000.36 380.988C1000.07 381.076 999.767 381.12 999.447 381.12C999.047 381.12 998.691 381.06 998.379 380.94C998.075 380.82 997.835 380.628 997.659 380.364C997.491 380.1 997.407 379.748 997.407 379.308V373.62L999.051 373.164ZM1000.97 375V376.224H996.303V375H1000.97ZM1004.87 381.12C1004.23 381.12 1003.68 380.996 1003.21 380.748C1002.75 380.5 1002.39 380.144 1002.13 379.68C1001.87 379.216 1001.75 378.656 1001.75 378C1001.75 377.344 1001.87 376.784 1002.13 376.32C1002.39 375.856 1002.74 375.5 1003.2 375.252C1003.66 375.004 1004.19 374.88 1004.78 374.88C1005.39 374.88 1005.91 375.004 1006.33 375.252C1006.75 375.492 1007.08 375.824 1007.3 376.248C1007.53 376.664 1007.64 377.14 1007.64 377.676C1007.64 377.836 1007.63 377.988 1007.63 378.132C1007.62 378.276 1007.61 378.404 1007.59 378.516H1002.8V377.376H1006.87L1006.08 377.664C1006.08 377.16 1005.96 376.772 1005.73 376.5C1005.51 376.228 1005.19 376.092 1004.77 376.092C1004.47 376.092 1004.2 376.164 1003.98 376.308C1003.76 376.452 1003.6 376.668 1003.49 376.956C1003.37 377.236 1003.32 377.592 1003.32 378.024C1003.32 378.448 1003.38 378.8 1003.5 379.08C1003.63 379.352 1003.8 379.556 1004.03 379.692C1004.26 379.828 1004.53 379.896 1004.85 379.896C1005.21 379.896 1005.49 379.828 1005.71 379.692C1005.92 379.556 1006.09 379.368 1006.21 379.128L1007.52 379.632C1007.39 379.944 1007.19 380.212 1006.93 380.436C1006.67 380.66 1006.37 380.832 1006.01 380.952C1005.65 381.064 1005.27 381.12 1004.87 381.12ZM1009.03 381V375H1010.46L1010.57 376.176C1010.73 375.76 1010.96 375.44 1011.26 375.216C1011.58 374.992 1011.96 374.88 1012.43 374.88C1012.56 374.88 1012.69 374.892 1012.8 374.916C1012.91 374.94 1013 374.972 1013.08 375.012L1012.88 376.392C1012.8 376.36 1012.7 376.336 1012.58 376.32C1012.47 376.304 1012.32 376.296 1012.14 376.296C1011.9 376.296 1011.67 376.356 1011.44 376.476C1011.22 376.588 1011.04 376.764 1010.89 377.004C1010.75 377.236 1010.68 377.532 1010.68 377.892V381H1009.03ZM1014.09 381V375H1015.57L1015.67 376.8L1015.46 376.608C1015.56 376.216 1015.71 375.892 1015.92 375.636C1016.13 375.38 1016.38 375.192 1016.67 375.072C1016.98 374.944 1017.31 374.88 1017.67 374.88C1018.09 374.88 1018.45 374.96 1018.77 375.12C1019.1 375.28 1019.36 375.524 1019.54 375.852C1019.73 376.172 1019.83 376.576 1019.83 377.064V381H1018.19V377.532C1018.19 377.02 1018.09 376.668 1017.89 376.476C1017.69 376.276 1017.43 376.176 1017.11 376.176C1016.88 376.176 1016.66 376.232 1016.45 376.344C1016.24 376.448 1016.07 376.62 1015.93 376.86C1015.8 377.1 1015.74 377.42 1015.74 377.82V381H1014.09ZM1024.94 377.172C1024.94 376.828 1024.84 376.56 1024.64 376.368C1024.45 376.176 1024.2 376.08 1023.88 376.08C1023.58 376.08 1023.32 376.156 1023.1 376.308C1022.87 376.46 1022.71 376.712 1022.6 377.064L1021.2 376.632C1021.34 376.104 1021.63 375.68 1022.09 375.36C1022.55 375.04 1023.17 374.88 1023.95 374.88C1024.48 374.88 1024.94 374.964 1025.33 375.132C1025.72 375.292 1026.02 375.536 1026.24 375.864C1026.46 376.192 1026.58 376.604 1026.58 377.1V379.536C1026.58 379.84 1026.72 379.992 1027.01 379.992C1027.14 379.992 1027.27 379.972 1027.39 379.932L1027.3 380.952C1027.09 381.056 1026.83 381.108 1026.52 381.108C1026.24 381.108 1025.98 381.06 1025.76 380.964C1025.54 380.868 1025.36 380.724 1025.23 380.532C1025.1 380.332 1025.04 380.084 1025.04 379.788V379.74L1025.33 379.692C1025.28 379.996 1025.15 380.256 1024.93 380.472C1024.72 380.68 1024.45 380.84 1024.14 380.952C1023.84 381.064 1023.52 381.12 1023.19 381.12C1022.78 381.12 1022.43 381.06 1022.14 380.94C1021.84 380.812 1021.61 380.628 1021.45 380.388C1021.29 380.148 1021.21 379.852 1021.21 379.5C1021.21 379.052 1021.36 378.688 1021.64 378.408C1021.93 378.12 1022.34 377.924 1022.88 377.82L1025.14 377.364L1025.12 378.384L1023.68 378.672C1023.41 378.728 1023.2 378.804 1023.06 378.9C1022.92 378.988 1022.86 379.136 1022.86 379.344C1022.86 379.544 1022.93 379.696 1023.07 379.8C1023.22 379.904 1023.4 379.956 1023.61 379.956C1023.78 379.956 1023.94 379.936 1024.1 379.896C1024.26 379.856 1024.41 379.792 1024.54 379.704C1024.66 379.616 1024.76 379.496 1024.84 379.344C1024.91 379.192 1024.94 379.008 1024.94 378.792V377.172ZM1030.03 372.372V379.152C1030.03 379.432 1030.08 379.628 1030.18 379.74C1030.27 379.852 1030.43 379.908 1030.66 379.908C1030.79 379.908 1030.91 379.9 1030.99 379.884C1031.08 379.86 1031.19 379.828 1031.33 379.788L1031.19 380.868C1031.05 380.948 1030.88 381.008 1030.67 381.048C1030.47 381.096 1030.27 381.12 1030.07 381.12C1029.49 381.12 1029.06 380.98 1028.79 380.7C1028.52 380.412 1028.39 379.956 1028.39 379.332V372.372H1030.03ZM1038.88 373.08C1040.12 373.08 1041.08 373.424 1041.76 374.112C1042.44 374.792 1042.78 375.768 1042.78 377.04C1042.78 378.304 1042.44 379.28 1041.76 379.968C1041.08 380.656 1040.12 381 1038.88 381H1035.82V373.08H1038.88ZM1038.8 379.68C1039.55 379.68 1040.12 379.456 1040.49 379.008C1040.88 378.552 1041.07 377.896 1041.07 377.04C1041.07 376.184 1040.88 375.532 1040.49 375.084C1040.12 374.628 1039.55 374.4 1038.8 374.4H1037.48V379.68H1038.8ZM1044.45 381V373.08H1047.92C1048.88 373.08 1049.59 373.268 1050.04 373.644C1050.5 374.02 1050.73 374.552 1050.73 375.24C1050.73 375.664 1050.6 376.04 1050.34 376.368C1050.09 376.696 1049.71 376.904 1049.21 376.992V377.004C1049.77 377.084 1050.19 377.292 1050.49 377.628C1050.78 377.964 1050.93 378.364 1050.93 378.828C1050.93 379.508 1050.68 380.04 1050.19 380.424C1049.7 380.808 1048.98 381 1048.04 381H1044.45ZM1046.06 379.752H1047.89C1048.34 379.752 1048.67 379.66 1048.89 379.476C1049.11 379.292 1049.21 379.036 1049.21 378.708C1049.21 378.372 1049.11 378.116 1048.89 377.94C1048.67 377.764 1048.34 377.676 1047.89 377.676H1046.06V379.752ZM1046.06 376.404H1047.7C1048.57 376.404 1049.01 376.064 1049.01 375.384C1049.01 374.704 1048.57 374.364 1047.7 374.364H1046.06V376.404ZM1054.74 381.12C1054.14 381.12 1053.58 381.012 1053.08 380.796C1052.58 380.58 1052.18 380.276 1051.86 379.884L1052.81 378.924C1053 379.212 1053.26 379.448 1053.58 379.632C1053.9 379.816 1054.28 379.908 1054.72 379.908C1055.03 379.908 1055.28 379.864 1055.46 379.776C1055.66 379.68 1055.75 379.532 1055.75 379.332C1055.75 379.204 1055.71 379.096 1055.62 379.008C1055.53 378.912 1055.36 378.836 1055.09 378.78L1054.04 378.564C1053.34 378.42 1052.84 378.204 1052.55 377.916C1052.26 377.62 1052.12 377.24 1052.12 376.776C1052.12 376.448 1052.21 376.14 1052.4 375.852C1052.6 375.564 1052.9 375.332 1053.29 375.156C1053.68 374.972 1054.17 374.88 1054.76 374.88C1055.36 374.88 1055.88 374.976 1056.32 375.168C1056.76 375.352 1057.12 375.628 1057.37 375.996L1056.39 376.956C1056.21 376.676 1055.98 376.464 1055.69 376.32C1055.41 376.168 1055.12 376.092 1054.8 376.092C1054.58 376.092 1054.39 376.116 1054.23 376.164C1054.07 376.212 1053.95 376.28 1053.87 376.368C1053.79 376.448 1053.75 376.552 1053.75 376.68C1053.75 376.808 1053.8 376.92 1053.92 377.016C1054.03 377.104 1054.23 377.18 1054.53 377.244L1055.75 377.496C1056.34 377.616 1056.77 377.82 1057.02 378.108C1057.28 378.388 1057.41 378.728 1057.41 379.128C1057.41 379.512 1057.3 379.856 1057.1 380.16C1056.9 380.456 1056.6 380.692 1056.2 380.868C1055.8 381.036 1055.32 381.12 1054.74 381.12Z" fill="black"/>
<rect x="339.5" y="289.5" width="266" height="80" rx="3.5" fill="#4A00B3" stroke="white"/>
<rect x="361.5" y="311.5" width="266" height="80" rx="3.5" fill="#4A00B3" stroke="white"/>
<rect x="383.5" y="333.5" width="266" height="80" rx="3.5" fill="#7919FF" stroke="white"/>
<path d="M391.296 370V361H393.438L393.6 362.764C393.84 362.14 394.188 361.66 394.644 361.324C395.112 360.988 395.694 360.82 396.39 360.82C396.594 360.82 396.78 360.838 396.948 360.874C397.116 360.91 397.254 360.958 397.362 361.018L397.074 363.088C396.954 363.04 396.804 363.004 396.624 362.98C396.456 362.956 396.234 362.944 395.958 362.944C395.598 362.944 395.25 363.034 394.914 363.214C394.578 363.382 394.302 363.646 394.086 364.006C393.87 364.354 393.762 364.798 393.762 365.338V370H391.296ZM400.132 359.704C399.616 359.704 399.232 359.596 398.98 359.38C398.728 359.152 398.602 358.822 398.602 358.39C398.602 357.946 398.728 357.616 398.98 357.4C399.232 357.172 399.616 357.058 400.132 357.058C400.648 357.058 401.032 357.172 401.284 357.4C401.536 357.616 401.662 357.946 401.662 358.39C401.662 358.822 401.536 359.152 401.284 359.38C401.032 359.596 400.648 359.704 400.132 359.704ZM401.356 361V370H398.89V361H401.356ZM403.97 373.78V361H406.184L406.346 363.862L406.04 363.538C406.148 363.01 406.346 362.542 406.634 362.134C406.934 361.726 407.312 361.408 407.768 361.18C408.224 360.94 408.734 360.82 409.298 360.82C410.03 360.82 410.684 361.006 411.26 361.378C411.836 361.75 412.286 362.284 412.61 362.98C412.946 363.664 413.114 364.498 413.114 365.482C413.114 366.466 412.946 367.312 412.61 368.02C412.274 368.716 411.812 369.25 411.224 369.622C410.648 369.994 409.988 370.18 409.244 370.18C408.452 370.18 407.792 369.958 407.264 369.514C406.748 369.07 406.394 368.512 406.202 367.84L406.436 367.462V373.78H403.97ZM408.524 368.29C409.184 368.29 409.7 368.056 410.072 367.588C410.456 367.108 410.648 366.412 410.648 365.5C410.648 364.588 410.462 363.898 410.09 363.43C409.73 362.95 409.22 362.71 408.56 362.71C408.14 362.71 407.768 362.824 407.444 363.052C407.132 363.268 406.886 363.586 406.706 364.006C406.526 364.414 406.436 364.912 406.436 365.5C406.436 366.076 406.52 366.574 406.688 366.994C406.856 367.414 407.096 367.738 407.408 367.966C407.732 368.182 408.104 368.29 408.524 368.29ZM415.255 373.78V361H417.469L417.631 363.862L417.325 363.538C417.433 363.01 417.631 362.542 417.919 362.134C418.219 361.726 418.597 361.408 419.053 361.18C419.509 360.94 420.019 360.82 420.583 360.82C421.315 360.82 421.969 361.006 422.545 361.378C423.121 361.75 423.571 362.284 423.895 362.98C424.231 363.664 424.399 364.498 424.399 365.482C424.399 366.466 424.231 367.312 423.895 368.02C423.559 368.716 423.097 369.25 422.509 369.622C421.933 369.994 421.273 370.18 420.529 370.18C419.737 370.18 419.077 369.958 418.549 369.514C418.033 369.07 417.679 368.512 417.487 367.84L417.721 367.462V373.78H415.255ZM419.809 368.29C420.469 368.29 420.985 368.056 421.357 367.588C421.741 367.108 421.933 366.412 421.933 365.5C421.933 364.588 421.747 363.898 421.375 363.43C421.015 362.95 420.505 362.71 419.845 362.71C419.425 362.71 419.053 362.824 418.729 363.052C418.417 363.268 418.171 363.586 417.991 364.006C417.811 364.414 417.721 364.912 417.721 365.5C417.721 366.076 417.805 366.574 417.973 366.994C418.141 367.414 418.381 367.738 418.693 367.966C419.017 368.182 419.389 368.29 419.809 368.29ZM428.97 357.058V367.228C428.97 367.648 429.042 367.942 429.186 368.11C429.33 368.278 429.57 368.362 429.906 368.362C430.11 368.362 430.278 368.35 430.41 368.326C430.542 368.29 430.71 368.242 430.914 368.182L430.698 369.802C430.494 369.922 430.236 370.012 429.924 370.072C429.624 370.144 429.324 370.18 429.024 370.18C428.148 370.18 427.506 369.97 427.098 369.55C426.702 369.118 426.504 368.434 426.504 367.498V357.058H428.97ZM436.464 370.18C435.516 370.18 434.688 369.994 433.98 369.622C433.284 369.25 432.744 368.716 432.36 368.02C431.976 367.324 431.784 366.484 431.784 365.5C431.784 364.516 431.976 363.676 432.36 362.98C432.744 362.284 433.278 361.75 433.962 361.378C434.658 361.006 435.45 360.82 436.338 360.82C437.25 360.82 438.024 361.006 438.66 361.378C439.296 361.738 439.782 362.236 440.118 362.872C440.454 363.496 440.622 364.21 440.622 365.014C440.622 365.254 440.616 365.482 440.604 365.698C440.592 365.914 440.574 366.106 440.55 366.274H433.368V364.564H439.47L438.282 364.996C438.282 364.24 438.108 363.658 437.76 363.25C437.424 362.842 436.944 362.638 436.32 362.638C435.864 362.638 435.468 362.746 435.132 362.962C434.808 363.178 434.562 363.502 434.394 363.934C434.226 364.354 434.142 364.888 434.142 365.536C434.142 366.172 434.232 366.7 434.412 367.12C434.604 367.528 434.868 367.834 435.204 368.038C435.552 368.242 435.966 368.344 436.446 368.344C436.974 368.344 437.4 368.242 437.724 368.038C438.048 367.834 438.3 367.552 438.48 367.192L440.442 367.948C440.25 368.416 439.956 368.818 439.56 369.154C439.176 369.49 438.714 369.748 438.174 369.928C437.646 370.096 437.076 370.18 436.464 370.18ZM446.114 370.18C445.37 370.18 444.704 369.994 444.116 369.622C443.54 369.25 443.084 368.716 442.748 368.02C442.424 367.324 442.262 366.49 442.262 365.518C442.262 364.522 442.436 363.676 442.784 362.98C443.132 362.272 443.6 361.738 444.188 361.378C444.788 361.006 445.46 360.82 446.204 360.82C446.996 360.82 447.65 361.048 448.166 361.504C448.682 361.96 449.018 362.548 449.174 363.268L448.94 363.556V357.058H451.406V370H449.192L449.03 367.264L449.336 367.408C449.252 367.972 449.06 368.464 448.76 368.884C448.46 369.292 448.082 369.61 447.626 369.838C447.17 370.066 446.666 370.18 446.114 370.18ZM446.834 368.29C447.266 368.29 447.638 368.182 447.95 367.966C448.262 367.738 448.502 367.408 448.67 366.976C448.85 366.544 448.94 366.028 448.94 365.428C448.94 364.852 448.856 364.366 448.688 363.97C448.52 363.562 448.28 363.25 447.968 363.034C447.656 362.818 447.29 362.71 446.87 362.71C446.198 362.71 445.67 362.95 445.286 363.43C444.914 363.898 444.728 364.588 444.728 365.5C444.728 366.412 444.914 367.108 445.286 367.588C445.658 368.056 446.174 368.29 446.834 368.29ZM463.099 370.18C462.187 370.18 461.353 370.018 460.597 369.694C459.853 369.37 459.247 368.914 458.779 368.326L460.201 366.886C460.489 367.318 460.873 367.672 461.353 367.948C461.833 368.224 462.403 368.362 463.063 368.362C463.531 368.362 463.903 368.296 464.179 368.164C464.467 368.02 464.611 367.798 464.611 367.498C464.611 367.306 464.545 367.144 464.413 367.012C464.281 366.868 464.017 366.754 463.621 366.67L462.037 366.346C460.993 366.13 460.249 365.806 459.805 365.374C459.373 364.93 459.157 364.36 459.157 363.664C459.157 363.172 459.301 362.71 459.589 362.278C459.889 361.846 460.333 361.498 460.921 361.234C461.509 360.958 462.241 360.82 463.117 360.82C464.017 360.82 464.797 360.964 465.457 361.252C466.129 361.528 466.657 361.942 467.041 362.494L465.565 363.934C465.301 363.514 464.953 363.196 464.521 362.98C464.101 362.752 463.657 362.638 463.189 362.638C462.853 362.638 462.565 362.674 462.325 362.746C462.085 362.818 461.905 362.92 461.785 363.052C461.665 363.172 461.605 363.328 461.605 363.52C461.605 363.712 461.689 363.88 461.857 364.024C462.025 364.156 462.331 364.27 462.775 364.366L464.611 364.744C465.499 364.924 466.135 365.23 466.519 365.662C466.903 366.082 467.095 366.592 467.095 367.192C467.095 367.768 466.939 368.284 466.627 368.74C466.327 369.184 465.877 369.538 465.277 369.802C464.689 370.054 463.963 370.18 463.099 370.18ZM473.202 370.18C472.254 370.18 471.426 369.994 470.718 369.622C470.022 369.25 469.482 368.716 469.098 368.02C468.714 367.324 468.522 366.484 468.522 365.5C468.522 364.516 468.714 363.676 469.098 362.98C469.482 362.284 470.016 361.75 470.7 361.378C471.396 361.006 472.188 360.82 473.076 360.82C473.988 360.82 474.762 361.006 475.398 361.378C476.034 361.738 476.52 362.236 476.856 362.872C477.192 363.496 477.36 364.21 477.36 365.014C477.36 365.254 477.354 365.482 477.342 365.698C477.33 365.914 477.312 366.106 477.288 366.274H470.106V364.564H476.208L475.02 364.996C475.02 364.24 474.846 363.658 474.498 363.25C474.162 362.842 473.682 362.638 473.058 362.638C472.602 362.638 472.206 362.746 471.87 362.962C471.546 363.178 471.3 363.502 471.132 363.934C470.964 364.354 470.88 364.888 470.88 365.536C470.88 366.172 470.97 366.7 471.15 367.12C471.342 367.528 471.606 367.834 471.942 368.038C472.29 368.242 472.704 368.344 473.184 368.344C473.712 368.344 474.138 368.242 474.462 368.038C474.786 367.834 475.038 367.552 475.218 367.192L477.18 367.948C476.988 368.416 476.694 368.818 476.298 369.154C475.914 369.49 475.452 369.748 474.912 369.928C474.384 370.096 473.814 370.18 473.202 370.18ZM479.45 370V361H481.592L481.754 362.764C481.994 362.14 482.342 361.66 482.798 361.324C483.266 360.988 483.848 360.82 484.544 360.82C484.748 360.82 484.934 360.838 485.102 360.874C485.27 360.91 485.408 360.958 485.516 361.018L485.228 363.088C485.108 363.04 484.958 363.004 484.778 362.98C484.61 362.956 484.388 362.944 484.112 362.944C483.752 362.944 483.404 363.034 483.068 363.214C482.732 363.382 482.456 363.646 482.24 364.006C482.024 364.354 481.916 364.798 481.916 365.338V370H479.45ZM492.948 361H495.504L492.084 370H489.24L485.82 361H488.448L490.68 368.11L492.948 361ZM500.941 370.18C499.993 370.18 499.165 369.994 498.457 369.622C497.761 369.25 497.221 368.716 496.837 368.02C496.453 367.324 496.261 366.484 496.261 365.5C496.261 364.516 496.453 363.676 496.837 362.98C497.221 362.284 497.755 361.75 498.439 361.378C499.135 361.006 499.927 360.82 500.815 360.82C501.727 360.82 502.501 361.006 503.137 361.378C503.773 361.738 504.259 362.236 504.595 362.872C504.931 363.496 505.099 364.21 505.099 365.014C505.099 365.254 505.093 365.482 505.081 365.698C505.069 365.914 505.051 366.106 505.027 366.274H497.845V364.564H503.947L502.759 364.996C502.759 364.24 502.585 363.658 502.237 363.25C501.901 362.842 501.421 362.638 500.797 362.638C500.341 362.638 499.945 362.746 499.609 362.962C499.285 363.178 499.039 363.502 498.871 363.934C498.703 364.354 498.619 364.888 498.619 365.536C498.619 366.172 498.709 366.7 498.889 367.12C499.081 367.528 499.345 367.834 499.681 368.038C500.029 368.242 500.443 368.344 500.923 368.344C501.451 368.344 501.877 368.242 502.201 368.038C502.525 367.834 502.777 367.552 502.957 367.192L504.919 367.948C504.727 368.416 504.433 368.818 504.037 369.154C503.653 369.49 503.191 369.748 502.651 369.928C502.123 370.096 501.553 370.18 500.941 370.18ZM507.189 370V361H509.331L509.493 362.764C509.733 362.14 510.081 361.66 510.537 361.324C511.005 360.988 511.587 360.82 512.283 360.82C512.487 360.82 512.673 360.838 512.841 360.874C513.009 360.91 513.147 360.958 513.255 361.018L512.967 363.088C512.847 363.04 512.697 363.004 512.517 362.98C512.349 362.956 512.127 362.944 511.851 362.944C511.491 362.944 511.143 363.034 510.807 363.214C510.471 363.382 510.195 363.646 509.979 364.006C509.763 364.354 509.655 364.798 509.655 365.338V370H507.189ZM518.136 370.18C517.224 370.18 516.39 370.018 515.634 369.694C514.89 369.37 514.284 368.914 513.816 368.326L515.238 366.886C515.526 367.318 515.91 367.672 516.39 367.948C516.87 368.224 517.44 368.362 518.1 368.362C518.568 368.362 518.94 368.296 519.216 368.164C519.504 368.02 519.648 367.798 519.648 367.498C519.648 367.306 519.582 367.144 519.45 367.012C519.318 366.868 519.054 366.754 518.658 366.67L517.074 366.346C516.03 366.13 515.286 365.806 514.842 365.374C514.41 364.93 514.194 364.36 514.194 363.664C514.194 363.172 514.338 362.71 514.626 362.278C514.926 361.846 515.37 361.498 515.958 361.234C516.546 360.958 517.278 360.82 518.154 360.82C519.054 360.82 519.834 360.964 520.494 361.252C521.166 361.528 521.694 361.942 522.078 362.494L520.602 363.934C520.338 363.514 519.99 363.196 519.558 362.98C519.138 362.752 518.694 362.638 518.226 362.638C517.89 362.638 517.602 362.674 517.362 362.746C517.122 362.818 516.942 362.92 516.822 363.052C516.702 363.172 516.642 363.328 516.642 363.52C516.642 363.712 516.726 363.88 516.894 364.024C517.062 364.156 517.368 364.27 517.812 364.366L519.648 364.744C520.536 364.924 521.172 365.23 521.556 365.662C521.94 366.082 522.132 366.592 522.132 367.192C522.132 367.768 521.976 368.284 521.664 368.74C521.364 369.184 520.914 369.538 520.314 369.802C519.726 370.054 519 370.18 518.136 370.18ZM395.238 377.644L396.462 378.85C395.742 379.498 395.16 380.188 394.716 380.92C394.272 381.64 393.948 382.42 393.744 383.26C393.552 384.1 393.456 385.024 393.456 386.032C393.456 387.04 393.552 387.97 393.744 388.822C393.948 389.662 394.272 390.442 394.716 391.162C395.16 391.882 395.742 392.572 396.462 393.232L395.238 394.438C393.906 393.442 392.892 392.242 392.196 390.838C391.512 389.434 391.17 387.832 391.17 386.032C391.17 384.244 391.512 382.648 392.196 381.244C392.892 379.828 393.906 378.628 395.238 377.644ZM400.692 391.18C399.948 391.18 399.282 390.994 398.694 390.622C398.118 390.25 397.662 389.716 397.326 389.02C397.002 388.324 396.84 387.49 396.84 386.518C396.84 385.522 397.014 384.676 397.362 383.98C397.71 383.272 398.178 382.738 398.766 382.378C399.366 382.006 400.038 381.82 400.782 381.82C401.574 381.82 402.228 382.048 402.744 382.504C403.26 382.96 403.596 383.548 403.752 384.268L403.518 384.556V378.058H405.984V391H403.77L403.608 388.264L403.914 388.408C403.83 388.972 403.638 389.464 403.338 389.884C403.038 390.292 402.66 390.61 402.204 390.838C401.748 391.066 401.244 391.18 400.692 391.18ZM401.412 389.29C401.844 389.29 402.216 389.182 402.528 388.966C402.84 388.738 403.08 388.408 403.248 387.976C403.428 387.544 403.518 387.028 403.518 386.428C403.518 385.852 403.434 385.366 403.266 384.97C403.098 384.562 402.858 384.25 402.546 384.034C402.234 383.818 401.868 383.71 401.448 383.71C400.776 383.71 400.248 383.95 399.864 384.43C399.492 384.898 399.306 385.588 399.306 386.5C399.306 387.412 399.492 388.108 399.864 388.588C400.236 389.056 400.752 389.29 401.412 389.29ZM409.817 380.704C409.301 380.704 408.917 380.596 408.665 380.38C408.413 380.152 408.287 379.822 408.287 379.39C408.287 378.946 408.413 378.616 408.665 378.4C408.917 378.172 409.301 378.058 409.817 378.058C410.333 378.058 410.717 378.172 410.969 378.4C411.221 378.616 411.347 378.946 411.347 379.39C411.347 379.822 411.221 380.152 410.969 380.38C410.717 380.596 410.333 380.704 409.817 380.704ZM411.041 382V391H408.575V382H411.041ZM413.655 391V382H415.797L415.959 383.764C416.199 383.14 416.547 382.66 417.003 382.324C417.471 381.988 418.053 381.82 418.749 381.82C418.953 381.82 419.139 381.838 419.307 381.874C419.475 381.91 419.613 381.958 419.721 382.018L419.433 384.088C419.313 384.04 419.163 384.004 418.983 383.98C418.815 383.956 418.593 383.944 418.317 383.944C417.957 383.944 417.609 384.034 417.273 384.214C416.937 384.382 416.661 384.646 416.445 385.006C416.229 385.354 416.121 385.798 416.121 386.338V391H413.655ZM425.249 391.18C424.301 391.18 423.473 390.994 422.765 390.622C422.069 390.25 421.529 389.716 421.145 389.02C420.761 388.324 420.569 387.484 420.569 386.5C420.569 385.516 420.761 384.676 421.145 383.98C421.529 383.284 422.063 382.75 422.747 382.378C423.443 382.006 424.235 381.82 425.123 381.82C426.035 381.82 426.809 382.006 427.445 382.378C428.081 382.738 428.567 383.236 428.903 383.872C429.239 384.496 429.407 385.21 429.407 386.014C429.407 386.254 429.401 386.482 429.389 386.698C429.377 386.914 429.359 387.106 429.335 387.274H422.153V385.564H428.255L427.067 385.996C427.067 385.24 426.893 384.658 426.545 384.25C426.209 383.842 425.729 383.638 425.105 383.638C424.649 383.638 424.253 383.746 423.917 383.962C423.593 384.178 423.347 384.502 423.179 384.934C423.011 385.354 422.927 385.888 422.927 386.536C422.927 387.172 423.017 387.7 423.197 388.12C423.389 388.528 423.653 388.834 423.989 389.038C424.337 389.242 424.751 389.344 425.231 389.344C425.759 389.344 426.185 389.242 426.509 389.038C426.833 388.834 427.085 388.552 427.265 388.192L429.227 388.948C429.035 389.416 428.741 389.818 428.345 390.154C427.961 390.49 427.499 390.748 426.959 390.928C426.431 391.096 425.861 391.18 425.249 391.18ZM435.583 381.82C436.387 381.82 437.065 381.94 437.617 382.18C438.181 382.408 438.631 382.726 438.967 383.134C439.315 383.53 439.561 383.974 439.705 384.466L437.401 385.294C437.281 384.754 437.077 384.346 436.789 384.07C436.501 383.794 436.111 383.656 435.619 383.656C435.163 383.656 434.773 383.764 434.449 383.98C434.125 384.184 433.879 384.502 433.711 384.934C433.543 385.354 433.459 385.882 433.459 386.518C433.459 387.154 433.543 387.682 433.711 388.102C433.891 388.522 434.143 388.834 434.467 389.038C434.803 389.242 435.193 389.344 435.637 389.344C435.997 389.344 436.303 389.284 436.555 389.164C436.807 389.032 437.011 388.846 437.167 388.606C437.335 388.366 437.449 388.078 437.509 387.742L439.741 388.462C439.609 389.002 439.363 389.476 439.003 389.884C438.643 390.292 438.181 390.61 437.617 390.838C437.053 391.066 436.399 391.18 435.655 391.18C434.731 391.18 433.915 390.994 433.207 390.622C432.499 390.25 431.953 389.716 431.569 389.02C431.185 388.324 430.993 387.484 430.993 386.5C430.993 385.516 431.185 384.676 431.569 383.98C431.953 383.284 432.493 382.75 433.189 382.378C433.885 382.006 434.683 381.82 435.583 381.82ZM444.843 379.246V388.066C444.843 388.498 444.951 388.816 445.167 389.02C445.395 389.212 445.701 389.308 446.085 389.308C446.385 389.308 446.649 389.266 446.877 389.182C447.105 389.086 447.309 388.96 447.489 388.804L447.885 390.442C447.597 390.67 447.237 390.85 446.805 390.982C446.373 391.114 445.917 391.18 445.437 391.18C444.837 391.18 444.303 391.09 443.835 390.91C443.379 390.73 443.019 390.442 442.755 390.046C442.503 389.65 442.377 389.122 442.377 388.462V379.93L444.843 379.246ZM447.723 382V383.836H440.721V382H447.723ZM460.024 385.258C460.024 384.742 459.874 384.34 459.574 384.052C459.286 383.764 458.902 383.62 458.422 383.62C457.978 383.62 457.588 383.734 457.252 383.962C456.916 384.19 456.67 384.568 456.514 385.096L454.408 384.448C454.612 383.656 455.056 383.02 455.74 382.54C456.436 382.06 457.366 381.82 458.53 381.82C459.322 381.82 460.012 381.946 460.6 382.198C461.188 382.438 461.644 382.804 461.968 383.296C462.304 383.788 462.472 384.406 462.472 385.15V388.804C462.472 389.26 462.688 389.488 463.12 389.488C463.324 389.488 463.516 389.458 463.696 389.398L463.552 390.928C463.24 391.084 462.85 391.162 462.382 391.162C461.962 391.162 461.584 391.09 461.248 390.946C460.912 390.802 460.648 390.586 460.456 390.298C460.264 389.998 460.168 389.626 460.168 389.182V389.11L460.6 389.038C460.528 389.494 460.33 389.884 460.006 390.208C459.682 390.52 459.286 390.76 458.818 390.928C458.362 391.096 457.888 391.18 457.396 391.18C456.784 391.18 456.256 391.09 455.812 390.91C455.368 390.718 455.026 390.442 454.786 390.082C454.546 389.722 454.426 389.278 454.426 388.75C454.426 388.078 454.642 387.532 455.074 387.112C455.506 386.68 456.124 386.386 456.928 386.23L460.312 385.546L460.294 387.076L458.134 387.508C457.726 387.592 457.414 387.706 457.198 387.85C456.994 387.982 456.892 388.204 456.892 388.516C456.892 388.816 457 389.044 457.216 389.2C457.444 389.356 457.714 389.434 458.026 389.434C458.278 389.434 458.524 389.404 458.764 389.344C459.004 389.284 459.22 389.188 459.412 389.056C459.604 388.924 459.754 388.744 459.862 388.516C459.97 388.288 460.024 388.012 460.024 387.688V385.258ZM465.23 391V382H467.444L467.588 384.7L467.282 384.412C467.426 383.824 467.654 383.338 467.966 382.954C468.278 382.57 468.656 382.288 469.1 382.108C469.556 381.916 470.054 381.82 470.594 381.82C471.218 381.82 471.77 381.94 472.25 382.18C472.742 382.42 473.126 382.786 473.402 383.278C473.69 383.758 473.834 384.364 473.834 385.096V391H471.368V385.798C471.368 385.03 471.218 384.502 470.918 384.214C470.618 383.914 470.228 383.764 469.748 383.764C469.412 383.764 469.082 383.848 468.758 384.016C468.446 384.172 468.188 384.43 467.984 384.79C467.792 385.15 467.696 385.63 467.696 386.23V391H465.23ZM479.776 391.18C479.032 391.18 478.366 390.994 477.778 390.622C477.202 390.25 476.746 389.716 476.41 389.02C476.086 388.324 475.924 387.49 475.924 386.518C475.924 385.522 476.098 384.676 476.446 383.98C476.794 383.272 477.262 382.738 477.85 382.378C478.45 382.006 479.122 381.82 479.866 381.82C480.658 381.82 481.312 382.048 481.828 382.504C482.344 382.96 482.68 383.548 482.836 384.268L482.602 384.556V378.058H485.068V391H482.854L482.692 388.264L482.998 388.408C482.914 388.972 482.722 389.464 482.422 389.884C482.122 390.292 481.744 390.61 481.288 390.838C480.832 391.066 480.328 391.18 479.776 391.18ZM480.496 389.29C480.928 389.29 481.3 389.182 481.612 388.966C481.924 388.738 482.164 388.408 482.332 387.976C482.512 387.544 482.602 387.028 482.602 386.428C482.602 385.852 482.518 385.366 482.35 384.97C482.182 384.562 481.942 384.25 481.63 384.034C481.318 383.818 480.952 383.71 480.532 383.71C479.86 383.71 479.332 383.95 478.948 384.43C478.576 384.898 478.39 385.588 478.39 386.5C478.39 387.412 478.576 388.108 478.948 388.588C479.32 389.056 479.836 389.29 480.496 389.29ZM494.403 380.704C493.887 380.704 493.503 380.596 493.251 380.38C492.999 380.152 492.873 379.822 492.873 379.39C492.873 378.946 492.999 378.616 493.251 378.4C493.503 378.172 493.887 378.058 494.403 378.058C494.919 378.058 495.303 378.172 495.555 378.4C495.807 378.616 495.933 378.946 495.933 379.39C495.933 379.822 495.807 380.152 495.555 380.38C495.303 380.596 494.919 380.704 494.403 380.704ZM495.627 382V391H493.161V382H495.627ZM498.241 391V382H500.455L500.599 384.7L500.293 384.412C500.437 383.824 500.665 383.338 500.977 382.954C501.289 382.57 501.667 382.288 502.111 382.108C502.567 381.916 503.065 381.82 503.605 381.82C504.229 381.82 504.781 381.94 505.261 382.18C505.753 382.42 506.137 382.786 506.413 383.278C506.701 383.758 506.845 384.364 506.845 385.096V391H504.379V385.798C504.379 385.03 504.229 384.502 503.929 384.214C503.629 383.914 503.239 383.764 502.759 383.764C502.423 383.764 502.093 383.848 501.769 384.016C501.457 384.172 501.199 384.43 500.995 384.79C500.803 385.15 500.707 385.63 500.707 386.23V391H498.241ZM512.788 391.18C512.044 391.18 511.378 390.994 510.79 390.622C510.214 390.25 509.758 389.716 509.422 389.02C509.098 388.324 508.936 387.49 508.936 386.518C508.936 385.522 509.11 384.676 509.458 383.98C509.806 383.272 510.274 382.738 510.862 382.378C511.462 382.006 512.134 381.82 512.878 381.82C513.67 381.82 514.324 382.048 514.84 382.504C515.356 382.96 515.692 383.548 515.848 384.268L515.614 384.556V378.058H518.08V391H515.866L515.704 388.264L516.01 388.408C515.926 388.972 515.734 389.464 515.434 389.884C515.134 390.292 514.756 390.61 514.3 390.838C513.844 391.066 513.34 391.18 512.788 391.18ZM513.508 389.29C513.94 389.29 514.312 389.182 514.624 388.966C514.936 388.738 515.176 388.408 515.344 387.976C515.524 387.544 515.614 387.028 515.614 386.428C515.614 385.852 515.53 385.366 515.362 384.97C515.194 384.562 514.954 384.25 514.642 384.034C514.33 383.818 513.964 383.71 513.544 383.71C512.872 383.71 512.344 383.95 511.96 384.43C511.588 384.898 511.402 385.588 511.402 386.5C511.402 387.412 511.588 388.108 511.96 388.588C512.332 389.056 512.848 389.29 513.508 389.29ZM521.913 380.704C521.397 380.704 521.013 380.596 520.761 380.38C520.509 380.152 520.383 379.822 520.383 379.39C520.383 378.946 520.509 378.616 520.761 378.4C521.013 378.172 521.397 378.058 521.913 378.058C522.429 378.058 522.813 378.172 523.065 378.4C523.317 378.616 523.443 378.946 523.443 379.39C523.443 379.822 523.317 380.152 523.065 380.38C522.813 380.596 522.429 380.704 521.913 380.704ZM523.137 382V391H520.671V382H523.137ZM525.751 391V382H527.893L528.055 383.764C528.295 383.14 528.643 382.66 529.099 382.324C529.567 381.988 530.149 381.82 530.845 381.82C531.049 381.82 531.235 381.838 531.403 381.874C531.571 381.91 531.709 381.958 531.817 382.018L531.529 384.088C531.409 384.04 531.259 384.004 531.079 383.98C530.911 383.956 530.689 383.944 530.413 383.944C530.053 383.944 529.705 384.034 529.369 384.214C529.033 384.382 528.757 384.646 528.541 385.006C528.325 385.354 528.217 385.798 528.217 386.338V391H525.751ZM537.345 391.18C536.397 391.18 535.569 390.994 534.861 390.622C534.165 390.25 533.625 389.716 533.241 389.02C532.857 388.324 532.665 387.484 532.665 386.5C532.665 385.516 532.857 384.676 533.241 383.98C533.625 383.284 534.159 382.75 534.843 382.378C535.539 382.006 536.331 381.82 537.219 381.82C538.131 381.82 538.905 382.006 539.541 382.378C540.177 382.738 540.663 383.236 540.999 383.872C541.335 384.496 541.503 385.21 541.503 386.014C541.503 386.254 541.497 386.482 541.485 386.698C541.473 386.914 541.455 387.106 541.431 387.274H534.249V385.564H540.351L539.163 385.996C539.163 385.24 538.989 384.658 538.641 384.25C538.305 383.842 537.825 383.638 537.201 383.638C536.745 383.638 536.349 383.746 536.013 383.962C535.689 384.178 535.443 384.502 535.275 384.934C535.107 385.354 535.023 385.888 535.023 386.536C535.023 387.172 535.113 387.7 535.293 388.12C535.485 388.528 535.749 388.834 536.085 389.038C536.433 389.242 536.847 389.344 537.327 389.344C537.855 389.344 538.281 389.242 538.605 389.038C538.929 388.834 539.181 388.552 539.361 388.192L541.323 388.948C541.131 389.416 540.837 389.818 540.441 390.154C540.057 390.49 539.595 390.748 539.055 390.928C538.527 391.096 537.957 391.18 537.345 391.18ZM547.679 381.82C548.483 381.82 549.161 381.94 549.713 382.18C550.277 382.408 550.727 382.726 551.063 383.134C551.411 383.53 551.657 383.974 551.801 384.466L549.497 385.294C549.377 384.754 549.173 384.346 548.885 384.07C548.597 383.794 548.207 383.656 547.715 383.656C547.259 383.656 546.869 383.764 546.545 383.98C546.221 384.184 545.975 384.502 545.807 384.934C545.639 385.354 545.555 385.882 545.555 386.518C545.555 387.154 545.639 387.682 545.807 388.102C545.987 388.522 546.239 388.834 546.563 389.038C546.899 389.242 547.289 389.344 547.733 389.344C548.093 389.344 548.399 389.284 548.651 389.164C548.903 389.032 549.107 388.846 549.263 388.606C549.431 388.366 549.545 388.078 549.605 387.742L551.837 388.462C551.705 389.002 551.459 389.476 551.099 389.884C550.739 390.292 550.277 390.61 549.713 390.838C549.149 391.066 548.495 391.18 547.751 391.18C546.827 391.18 546.011 390.994 545.303 390.622C544.595 390.25 544.049 389.716 543.665 389.02C543.281 388.324 543.089 387.484 543.089 386.5C543.089 385.516 543.281 384.676 543.665 383.98C544.049 383.284 544.589 382.75 545.285 382.378C545.981 382.006 546.779 381.82 547.679 381.82ZM556.939 379.246V388.066C556.939 388.498 557.047 388.816 557.263 389.02C557.491 389.212 557.797 389.308 558.181 389.308C558.481 389.308 558.745 389.266 558.973 389.182C559.201 389.086 559.405 388.96 559.585 388.804L559.981 390.442C559.693 390.67 559.333 390.85 558.901 390.982C558.469 391.114 558.013 391.18 557.533 391.18C556.933 391.18 556.399 391.09 555.931 390.91C555.475 390.73 555.115 390.442 554.851 390.046C554.599 389.65 554.473 389.122 554.473 388.462V379.93L556.939 379.246ZM559.819 382V383.836H552.817V382H559.819ZM566.989 394.78V382H569.203L569.365 384.862L569.059 384.538C569.167 384.01 569.365 383.542 569.653 383.134C569.953 382.726 570.331 382.408 570.787 382.18C571.243 381.94 571.753 381.82 572.317 381.82C573.049 381.82 573.703 382.006 574.279 382.378C574.855 382.75 575.305 383.284 575.629 383.98C575.965 384.664 576.133 385.498 576.133 386.482C576.133 387.466 575.965 388.312 575.629 389.02C575.293 389.716 574.831 390.25 574.243 390.622C573.667 390.994 573.007 391.18 572.263 391.18C571.471 391.18 570.811 390.958 570.283 390.514C569.767 390.07 569.413 389.512 569.221 388.84L569.455 388.462V394.78H566.989ZM571.543 389.29C572.203 389.29 572.719 389.056 573.091 388.588C573.475 388.108 573.667 387.412 573.667 386.5C573.667 385.588 573.481 384.898 573.109 384.43C572.749 383.95 572.239 383.71 571.579 383.71C571.159 383.71 570.787 383.824 570.463 384.052C570.151 384.268 569.905 384.586 569.725 385.006C569.545 385.414 569.455 385.912 569.455 386.5C569.455 387.076 569.539 387.574 569.707 387.994C569.875 388.414 570.115 388.738 570.427 388.966C570.751 389.182 571.123 389.29 571.543 389.29ZM582.451 391.18C581.503 391.18 580.675 390.994 579.967 390.622C579.271 390.25 578.731 389.716 578.347 389.02C577.963 388.324 577.771 387.484 577.771 386.5C577.771 385.516 577.963 384.676 578.347 383.98C578.731 383.284 579.265 382.75 579.949 382.378C580.645 382.006 581.437 381.82 582.325 381.82C583.237 381.82 584.011 382.006 584.647 382.378C585.283 382.738 585.769 383.236 586.105 383.872C586.441 384.496 586.609 385.21 586.609 386.014C586.609 386.254 586.603 386.482 586.591 386.698C586.579 386.914 586.561 387.106 586.537 387.274H579.355V385.564H585.457L584.269 385.996C584.269 385.24 584.095 384.658 583.747 384.25C583.411 383.842 582.931 383.638 582.307 383.638C581.851 383.638 581.455 383.746 581.119 383.962C580.795 384.178 580.549 384.502 580.381 384.934C580.213 385.354 580.129 385.888 580.129 386.536C580.129 387.172 580.219 387.7 580.399 388.12C580.591 388.528 580.855 388.834 581.191 389.038C581.539 389.242 581.953 389.344 582.433 389.344C582.961 389.344 583.387 389.242 583.711 389.038C584.035 388.834 584.287 388.552 584.467 388.192L586.429 388.948C586.237 389.416 585.943 389.818 585.547 390.154C585.163 390.49 584.701 390.748 584.161 390.928C583.633 391.096 583.063 391.18 582.451 391.18ZM592.874 391.18C591.926 391.18 591.098 390.994 590.39 390.622C589.694 390.25 589.154 389.716 588.77 389.02C588.386 388.324 588.194 387.484 588.194 386.5C588.194 385.516 588.386 384.676 588.77 383.98C589.154 383.284 589.688 382.75 590.372 382.378C591.068 382.006 591.86 381.82 592.748 381.82C593.66 381.82 594.434 382.006 595.07 382.378C595.706 382.738 596.192 383.236 596.528 383.872C596.864 384.496 597.032 385.21 597.032 386.014C597.032 386.254 597.026 386.482 597.014 386.698C597.002 386.914 596.984 387.106 596.96 387.274H589.778V385.564H595.88L594.692 385.996C594.692 385.24 594.518 384.658 594.17 384.25C593.834 383.842 593.354 383.638 592.73 383.638C592.274 383.638 591.878 383.746 591.542 383.962C591.218 384.178 590.972 384.502 590.804 384.934C590.636 385.354 590.552 385.888 590.552 386.536C590.552 387.172 590.642 387.7 590.822 388.12C591.014 388.528 591.278 388.834 591.614 389.038C591.962 389.242 592.376 389.344 592.856 389.344C593.384 389.344 593.81 389.242 594.134 389.038C594.458 388.834 594.71 388.552 594.89 388.192L596.852 388.948C596.66 389.416 596.366 389.818 595.97 390.154C595.586 390.49 595.124 390.748 594.584 390.928C594.056 391.096 593.486 391.18 592.874 391.18ZM599.122 391V382H601.264L601.426 383.764C601.666 383.14 602.014 382.66 602.47 382.324C602.938 381.988 603.52 381.82 604.216 381.82C604.42 381.82 604.606 381.838 604.774 381.874C604.942 381.91 605.08 381.958 605.188 382.018L604.9 384.088C604.78 384.04 604.63 384.004 604.45 383.98C604.282 383.956 604.06 383.944 603.784 383.944C603.424 383.944 603.076 384.034 602.74 384.214C602.404 384.382 602.128 384.646 601.912 385.006C601.696 385.354 601.588 385.798 601.588 386.338V391H599.122ZM610.07 391.18C609.158 391.18 608.324 391.018 607.568 390.694C606.824 390.37 606.218 389.914 605.75 389.326L607.172 387.886C607.46 388.318 607.844 388.672 608.324 388.948C608.804 389.224 609.374 389.362 610.034 389.362C610.502 389.362 610.874 389.296 611.15 389.164C611.438 389.02 611.582 388.798 611.582 388.498C611.582 388.306 611.516 388.144 611.384 388.012C611.252 387.868 610.988 387.754 610.592 387.67L609.008 387.346C607.964 387.13 607.22 386.806 606.776 386.374C606.344 385.93 606.128 385.36 606.128 384.664C606.128 384.172 606.272 383.71 606.56 383.278C606.86 382.846 607.304 382.498 607.892 382.234C608.48 381.958 609.212 381.82 610.088 381.82C610.988 381.82 611.768 381.964 612.428 382.252C613.1 382.528 613.628 382.942 614.012 383.494L612.536 384.934C612.272 384.514 611.924 384.196 611.492 383.98C611.072 383.752 610.628 383.638 610.16 383.638C609.824 383.638 609.536 383.674 609.296 383.746C609.056 383.818 608.876 383.92 608.756 384.052C608.636 384.172 608.576 384.328 608.576 384.52C608.576 384.712 608.66 384.88 608.828 385.024C608.996 385.156 609.302 385.27 609.746 385.366L611.582 385.744C612.47 385.924 613.106 386.23 613.49 386.662C613.874 387.082 614.066 387.592 614.066 388.192C614.066 388.768 613.91 389.284 613.598 389.74C613.298 390.184 612.848 390.538 612.248 390.802C611.66 391.054 610.934 391.18 610.07 391.18ZM615.774 394.438L614.568 393.232C615.288 392.572 615.87 391.882 616.314 391.162C616.758 390.442 617.076 389.662 617.268 388.822C617.472 387.97 617.574 387.046 617.574 386.05C617.574 385.03 617.472 384.1 617.268 383.26C617.076 382.42 616.758 381.64 616.314 380.92C615.87 380.188 615.288 379.498 614.568 378.85L615.774 377.644C617.118 378.628 618.132 379.828 618.816 381.244C619.512 382.648 619.86 384.25 619.86 386.05C619.86 387.838 619.512 389.434 618.816 390.838C618.132 392.242 617.118 393.442 615.774 394.438Z" fill="white"/>
<rect x="628" y="372" width="48" height="28" rx="4" fill="white"/>
<path d="M638.534 380.36C639.446 380.36 640.226 380.516 640.874 380.828C641.522 381.128 642.02 381.566 642.368 382.142C642.728 382.706 642.908 383.39 642.908 384.194C642.908 384.998 642.728 385.688 642.368 386.264C642.02 386.828 641.522 387.266 640.874 387.578C640.226 387.878 639.446 388.028 638.534 388.028H636.032V392.24H633.548V380.36H638.534ZM638.156 386.066C638.9 386.066 639.458 385.91 639.83 385.598C640.202 385.274 640.388 384.806 640.388 384.194C640.388 383.57 640.202 383.102 639.83 382.79C639.458 382.478 638.9 382.322 638.156 382.322H636.032V386.066H638.156ZM648.88 392.42C647.932 392.42 647.104 392.234 646.396 391.862C645.7 391.49 645.16 390.956 644.776 390.26C644.392 389.564 644.2 388.724 644.2 387.74C644.2 386.756 644.392 385.916 644.776 385.22C645.16 384.524 645.694 383.99 646.378 383.618C647.074 383.246 647.866 383.06 648.754 383.06C649.666 383.06 650.44 383.246 651.076 383.618C651.712 383.978 652.198 384.476 652.534 385.112C652.87 385.736 653.038 386.45 653.038 387.254C653.038 387.494 653.032 387.722 653.02 387.938C653.008 388.154 652.99 388.346 652.966 388.514H645.784V386.804H651.886L650.698 387.236C650.698 386.48 650.524 385.898 650.176 385.49C649.84 385.082 649.36 384.878 648.736 384.878C648.28 384.878 647.884 384.986 647.548 385.202C647.224 385.418 646.978 385.742 646.81 386.174C646.642 386.594 646.558 387.128 646.558 387.776C646.558 388.412 646.648 388.94 646.828 389.36C647.02 389.768 647.284 390.074 647.62 390.278C647.968 390.482 648.382 390.584 648.862 390.584C649.39 390.584 649.816 390.482 650.14 390.278C650.464 390.074 650.716 389.792 650.896 389.432L652.858 390.188C652.666 390.656 652.372 391.058 651.976 391.394C651.592 391.73 651.13 391.988 650.59 392.168C650.062 392.336 649.492 392.42 648.88 392.42ZM659.304 392.42C658.356 392.42 657.528 392.234 656.82 391.862C656.124 391.49 655.584 390.956 655.2 390.26C654.816 389.564 654.624 388.724 654.624 387.74C654.624 386.756 654.816 385.916 655.2 385.22C655.584 384.524 656.118 383.99 656.802 383.618C657.498 383.246 658.29 383.06 659.178 383.06C660.09 383.06 660.864 383.246 661.5 383.618C662.136 383.978 662.622 384.476 662.958 385.112C663.294 385.736 663.462 386.45 663.462 387.254C663.462 387.494 663.456 387.722 663.444 387.938C663.432 388.154 663.414 388.346 663.39 388.514H656.208V386.804H662.31L661.122 387.236C661.122 386.48 660.948 385.898 660.6 385.49C660.264 385.082 659.784 384.878 659.16 384.878C658.704 384.878 658.308 384.986 657.972 385.202C657.648 385.418 657.402 385.742 657.234 386.174C657.066 386.594 656.982 387.128 656.982 387.776C656.982 388.412 657.072 388.94 657.252 389.36C657.444 389.768 657.708 390.074 658.044 390.278C658.392 390.482 658.806 390.584 659.286 390.584C659.814 390.584 660.24 390.482 660.564 390.278C660.888 390.074 661.14 389.792 661.32 389.432L663.282 390.188C663.09 390.656 662.796 391.058 662.4 391.394C662.016 391.73 661.554 391.988 661.014 392.168C660.486 392.336 659.916 392.42 659.304 392.42ZM665.552 392.24V383.24H667.694L667.856 385.004C668.096 384.38 668.444 383.9 668.9 383.564C669.368 383.228 669.95 383.06 670.646 383.06C670.85 383.06 671.036 383.078 671.204 383.114C671.372 383.15 671.51 383.198 671.618 383.258L671.33 385.328C671.21 385.28 671.06 385.244 670.88 385.22C670.712 385.196 670.49 385.184 670.214 385.184C669.854 385.184 669.506 385.274 669.17 385.454C668.834 385.622 668.558 385.886 668.342 386.246C668.126 386.594 668.018 387.038 668.018 387.578V392.24H665.552Z" fill="black"/>
<rect x="779" y="372" width="48" height="28" rx="4" fill="white"/>
<path d="M789.534 380.36C790.446 380.36 791.226 380.516 791.874 380.828C792.522 381.128 793.02 381.566 793.368 382.142C793.728 382.706 793.908 383.39 793.908 384.194C793.908 384.998 793.728 385.688 793.368 386.264C793.02 386.828 792.522 387.266 791.874 387.578C791.226 387.878 790.446 388.028 789.534 388.028H787.032V392.24H784.548V380.36H789.534ZM789.156 386.066C789.9 386.066 790.458 385.91 790.83 385.598C791.202 385.274 791.388 384.806 791.388 384.194C791.388 383.57 791.202 383.102 790.83 382.79C790.458 382.478 789.9 382.322 789.156 382.322H787.032V386.066H789.156ZM799.88 392.42C798.932 392.42 798.104 392.234 797.396 391.862C796.7 391.49 796.16 390.956 795.776 390.26C795.392 389.564 795.2 388.724 795.2 387.74C795.2 386.756 795.392 385.916 795.776 385.22C796.16 384.524 796.694 383.99 797.378 383.618C798.074 383.246 798.866 383.06 799.754 383.06C800.666 383.06 801.44 383.246 802.076 383.618C802.712 383.978 803.198 384.476 803.534 385.112C803.87 385.736 804.038 386.45 804.038 387.254C804.038 387.494 804.032 387.722 804.02 387.938C804.008 388.154 803.99 388.346 803.966 388.514H796.784V386.804H802.886L801.698 387.236C801.698 386.48 801.524 385.898 801.176 385.49C800.84 385.082 800.36 384.878 799.736 384.878C799.28 384.878 798.884 384.986 798.548 385.202C798.224 385.418 797.978 385.742 797.81 386.174C797.642 386.594 797.558 387.128 797.558 387.776C797.558 388.412 797.648 388.94 797.828 389.36C798.02 389.768 798.284 390.074 798.62 390.278C798.968 390.482 799.382 390.584 799.862 390.584C800.39 390.584 800.816 390.482 801.14 390.278C801.464 390.074 801.716 389.792 801.896 389.432L803.858 390.188C803.666 390.656 803.372 391.058 802.976 391.394C802.592 391.73 802.13 391.988 801.59 392.168C801.062 392.336 800.492 392.42 799.88 392.42ZM810.304 392.42C809.356 392.42 808.528 392.234 807.82 391.862C807.124 391.49 806.584 390.956 806.2 390.26C805.816 389.564 805.624 388.724 805.624 387.74C805.624 386.756 805.816 385.916 806.2 385.22C806.584 384.524 807.118 383.99 807.802 383.618C808.498 383.246 809.29 383.06 810.178 383.06C811.09 383.06 811.864 383.246 812.5 383.618C813.136 383.978 813.622 384.476 813.958 385.112C814.294 385.736 814.462 386.45 814.462 387.254C814.462 387.494 814.456 387.722 814.444 387.938C814.432 388.154 814.414 388.346 814.39 388.514H807.208V386.804H813.31L812.122 387.236C812.122 386.48 811.948 385.898 811.6 385.49C811.264 385.082 810.784 384.878 810.16 384.878C809.704 384.878 809.308 384.986 808.972 385.202C808.648 385.418 808.402 385.742 808.234 386.174C808.066 386.594 807.982 387.128 807.982 387.776C807.982 388.412 808.072 388.94 808.252 389.36C808.444 389.768 808.708 390.074 809.044 390.278C809.392 390.482 809.806 390.584 810.286 390.584C810.814 390.584 811.24 390.482 811.564 390.278C811.888 390.074 812.14 389.792 812.32 389.432L814.282 390.188C814.09 390.656 813.796 391.058 813.4 391.394C813.016 391.73 812.554 391.988 812.014 392.168C811.486 392.336 810.916 392.42 810.304 392.42ZM816.552 392.24V383.24H818.694L818.856 385.004C819.096 384.38 819.444 383.9 819.9 383.564C820.368 383.228 820.95 383.06 821.646 383.06C821.85 383.06 822.036 383.078 822.204 383.114C822.372 383.15 822.51 383.198 822.618 383.258L822.33 385.328C822.21 385.28 822.06 385.244 821.88 385.22C821.712 385.196 821.49 385.184 821.214 385.184C820.854 385.184 820.506 385.274 820.17 385.454C819.834 385.622 819.558 385.886 819.342 386.246C819.126 386.594 819.018 387.038 819.018 387.578V392.24H816.552Z" fill="black"/>
<path d="M676 386.5H778.5" stroke="#32E685" stroke-width="2"/>
<rect x="838" y="269" width="48" height="28" rx="4" fill="white"/>
<path d="M850.798 290L847.342 278.12H849.988L852.328 287.93L854.704 278.12H857.08L859.492 287.93L861.814 278.12H864.352L860.896 290H858.106L856.45 283.52L855.892 280.712H855.856L855.298 283.52L853.66 290H850.798ZM870.534 277.94C871.614 277.94 872.562 278.126 873.378 278.498C874.194 278.87 874.89 279.422 875.466 280.154L874.08 281.756C873.588 281.132 873.048 280.676 872.46 280.388C871.884 280.088 871.212 279.938 870.444 279.938C869.94 279.938 869.52 280.004 869.184 280.136C868.86 280.268 868.62 280.442 868.464 280.658C868.32 280.874 868.248 281.114 868.248 281.378C868.248 281.702 868.374 281.978 868.626 282.206C868.878 282.422 869.31 282.602 869.922 282.746L872.136 283.25C873.312 283.514 874.152 283.91 874.656 284.438C875.172 284.954 875.43 285.626 875.43 286.454C875.43 287.234 875.226 287.906 874.818 288.47C874.41 289.022 873.84 289.448 873.108 289.748C872.376 290.036 871.536 290.18 870.588 290.18C869.76 290.18 868.998 290.084 868.302 289.892C867.618 289.688 867.006 289.412 866.466 289.064C865.926 288.716 865.476 288.314 865.116 287.858L866.52 286.184C866.796 286.568 867.138 286.91 867.546 287.21C867.954 287.51 868.416 287.75 868.932 287.93C869.46 288.098 870.012 288.182 870.588 288.182C871.08 288.182 871.494 288.128 871.83 288.02C872.178 287.9 872.436 287.738 872.604 287.534C872.784 287.318 872.874 287.06 872.874 286.76C872.874 286.448 872.766 286.184 872.55 285.968C872.346 285.74 871.962 285.566 871.398 285.446L868.986 284.906C868.29 284.738 867.69 284.522 867.186 284.258C866.694 283.982 866.316 283.634 866.052 283.214C865.8 282.782 865.674 282.272 865.674 281.684C865.674 280.976 865.866 280.34 866.25 279.776C866.634 279.212 867.186 278.768 867.906 278.444C868.638 278.108 869.514 277.94 870.534 277.94Z" fill="black"/>
<rect x="948" y="269" width="120" height="28" rx="4" fill="white"/>
<path d="M970.414 278.12V285.626C970.414 287.054 970.012 288.17 969.208 288.974C968.404 289.778 967.264 290.18 965.788 290.18C964.732 290.18 963.874 289.988 963.214 289.604C962.554 289.22 962.098 288.68 961.846 287.984C961.594 287.288 961.546 286.49 961.702 285.59L964.114 285.158C963.97 286.214 964.036 286.976 964.312 287.444C964.588 287.912 965.098 288.146 965.842 288.146C966.622 288.146 967.162 287.906 967.462 287.426C967.774 286.946 967.93 286.232 967.93 285.284V278.12H970.414ZM977.661 277.94C978.741 277.94 979.689 278.126 980.505 278.498C981.321 278.87 982.017 279.422 982.593 280.154L981.207 281.756C980.715 281.132 980.175 280.676 979.587 280.388C979.011 280.088 978.339 279.938 977.571 279.938C977.067 279.938 976.647 280.004 976.311 280.136C975.987 280.268 975.747 280.442 975.591 280.658C975.447 280.874 975.375 281.114 975.375 281.378C975.375 281.702 975.501 281.978 975.753 282.206C976.005 282.422 976.437 282.602 977.049 282.746L979.263 283.25C980.439 283.514 981.279 283.91 981.783 284.438C982.299 284.954 982.557 285.626 982.557 286.454C982.557 287.234 982.353 287.906 981.945 288.47C981.537 289.022 980.967 289.448 980.235 289.748C979.503 290.036 978.663 290.18 977.715 290.18C976.887 290.18 976.125 290.084 975.429 289.892C974.745 289.688 974.133 289.412 973.593 289.064C973.053 288.716 972.603 288.314 972.243 287.858L973.647 286.184C973.923 286.568 974.265 286.91 974.673 287.21C975.081 287.51 975.543 287.75 976.059 287.93C976.587 288.098 977.139 288.182 977.715 288.182C978.207 288.182 978.621 288.128 978.957 288.02C979.305 287.9 979.563 287.738 979.731 287.534C979.911 287.318 980.001 287.06 980.001 286.76C980.001 286.448 979.893 286.184 979.677 285.968C979.473 285.74 979.089 285.566 978.525 285.446L976.113 284.906C975.417 284.738 974.817 284.522 974.313 284.258C973.821 283.982 973.443 283.634 973.179 283.214C972.927 282.782 972.801 282.272 972.801 281.684C972.801 280.976 972.993 280.34 973.377 279.776C973.761 279.212 974.313 278.768 975.033 278.444C975.765 278.108 976.641 277.94 977.661 277.94ZM990.037 277.94C991.213 277.94 992.227 278.186 993.079 278.678C993.931 279.17 994.585 279.872 995.041 280.784C995.509 281.696 995.743 282.788 995.743 284.06C995.743 285.332 995.509 286.424 995.041 287.336C994.585 288.248 993.931 288.95 993.079 289.442C992.227 289.934 991.213 290.18 990.037 290.18C988.861 290.18 987.841 289.934 986.977 289.442C986.125 288.95 985.465 288.248 984.997 287.336C984.541 286.424 984.313 285.332 984.313 284.06C984.313 282.788 984.541 281.696 984.997 280.784C985.465 279.872 986.125 279.17 986.977 278.678C987.841 278.186 988.861 277.94 990.037 277.94ZM990.037 279.974C989.365 279.974 988.795 280.13 988.327 280.442C987.859 280.754 987.499 281.216 987.247 281.828C987.007 282.428 986.887 283.172 986.887 284.06C986.887 284.936 987.007 285.68 987.247 286.292C987.499 286.904 987.859 287.366 988.327 287.678C988.795 287.99 989.365 288.146 990.037 288.146C990.697 288.146 991.261 287.99 991.729 287.678C992.197 287.366 992.551 286.904 992.791 286.292C993.043 285.68 993.169 284.936 993.169 284.06C993.169 283.172 993.043 282.428 992.791 281.828C992.551 281.216 992.197 280.754 991.729 280.442C991.261 280.13 990.697 279.974 990.037 279.974ZM1008.46 278.12V290H1005.61L1001.45 283.016L1000.43 281.072H1000.41L1000.48 283.124V290H998.249V278.12H1001.08L1005.23 285.086L1006.26 287.048H1006.3L1006.22 284.996V278.12H1008.46ZM1017.87 284.168V286.292H1011.52V284.168H1017.87ZM1026.18 278.12C1027.52 278.12 1028.58 278.444 1029.35 279.092C1030.12 279.74 1030.5 280.61 1030.5 281.702C1030.5 282.866 1030.12 283.76 1029.35 284.384C1028.58 284.996 1027.53 285.302 1026.2 285.302L1025.95 285.446H1023.39V290H1020.94V278.12H1026.18ZM1025.89 283.556C1026.59 283.556 1027.1 283.418 1027.44 283.142C1027.79 282.854 1027.96 282.416 1027.96 281.828C1027.96 281.24 1027.79 280.808 1027.44 280.532C1027.1 280.244 1026.59 280.1 1025.89 280.1H1023.39V283.556H1025.89ZM1027.35 284.078L1031.2 290H1028.41L1025.23 284.798L1027.35 284.078ZM1038.16 278.12C1039.07 278.12 1039.85 278.276 1040.5 278.588C1041.15 278.888 1041.65 279.326 1042 279.902C1042.36 280.466 1042.54 281.15 1042.54 281.954C1042.54 282.758 1042.36 283.448 1042 284.024C1041.65 284.588 1041.15 285.026 1040.5 285.338C1039.85 285.638 1039.07 285.788 1038.16 285.788H1035.66V290H1033.18V278.12H1038.16ZM1037.78 283.826C1038.53 283.826 1039.09 283.67 1039.46 283.358C1039.83 283.034 1040.02 282.566 1040.02 281.954C1040.02 281.33 1039.83 280.862 1039.46 280.55C1039.09 280.238 1038.53 280.082 1037.78 280.082H1035.66V283.826H1037.78ZM1054.98 286.724C1054.76 287.492 1054.4 288.134 1053.9 288.65C1053.41 289.166 1052.83 289.55 1052.16 289.802C1051.49 290.054 1050.75 290.18 1049.94 290.18C1048.77 290.18 1047.75 289.934 1046.88 289.442C1046.03 288.95 1045.37 288.248 1044.9 287.336C1044.45 286.424 1044.22 285.332 1044.22 284.06C1044.22 282.788 1044.45 281.696 1044.9 280.784C1045.37 279.872 1046.03 279.17 1046.88 278.678C1047.75 278.186 1048.76 277.94 1049.91 277.94C1050.72 277.94 1051.46 278.054 1052.12 278.282C1052.78 278.498 1053.34 278.834 1053.8 279.29C1054.26 279.746 1054.61 280.322 1054.82 281.018L1052.57 281.972C1052.37 281.252 1052.06 280.742 1051.64 280.442C1051.22 280.13 1050.68 279.974 1050.02 279.974C1049.37 279.974 1048.8 280.13 1048.31 280.442C1047.83 280.754 1047.45 281.216 1047.19 281.828C1046.93 282.428 1046.79 283.172 1046.79 284.06C1046.79 284.936 1046.91 285.68 1047.15 286.292C1047.41 286.904 1047.77 287.366 1048.25 287.678C1048.73 287.99 1049.32 288.146 1050.02 288.146C1050.66 288.146 1051.22 287.972 1051.69 287.624C1052.17 287.276 1052.51 286.748 1052.7 286.04L1054.98 286.724Z" fill="black"/>
<rect x="40" y="8" width="62.3125" height="26" rx="3" fill="white"/>
<rect x="40.5" y="8.5" width="61.3125" height="25" rx="2.5" stroke="black" stroke-opacity="0.14902"/>
<path d="M44.9688 24V16H47.6719C48.2995 16 48.8125 16.1133 49.2109 16.3398C49.612 16.5638 49.9089 16.8672 50.1016 17.25C50.2943 17.6328 50.3906 18.0599 50.3906 18.5312C50.3906 19.0026 50.2943 19.431 50.1016 19.8164C49.9115 20.2018 49.6172 20.5091 49.2188 20.7383C48.8203 20.9648 48.3099 21.0781 47.6875 21.0781H45.75V20.2188H47.6563C48.0859 20.2188 48.431 20.1445 48.6914 19.9961C48.9518 19.8477 49.1406 19.6471 49.2578 19.3945C49.3776 19.1393 49.4375 18.8516 49.4375 18.5312C49.4375 18.2109 49.3776 17.9245 49.2578 17.6719C49.1406 17.4193 48.9505 17.2214 48.6875 17.0781C48.4245 16.9323 48.0755 16.8594 47.6406 16.8594H45.9375V24H44.9688ZM54.2773 24.125C53.6992 24.125 53.2005 23.9974 52.7812 23.7422C52.3646 23.4844 52.043 23.125 51.8164 22.6641C51.5924 22.2005 51.4805 21.6615 51.4805 21.0469C51.4805 20.4323 51.5924 19.8906 51.8164 19.4219C52.043 18.9505 52.3581 18.5833 52.7617 18.3203C53.168 18.0547 53.6419 17.9219 54.1836 17.9219C54.4961 17.9219 54.8047 17.974 55.1094 18.0781C55.4141 18.1823 55.6914 18.3516 55.9414 18.5859C56.1914 18.8177 56.3906 19.125 56.5391 19.5078C56.6875 19.8906 56.7617 20.362 56.7617 20.9219V21.3125H52.1367V20.5156H55.8242C55.8242 20.1771 55.7565 19.875 55.6211 19.6094C55.4883 19.3437 55.2982 19.1341 55.0508 18.9805C54.806 18.8268 54.5169 18.75 54.1836 18.75C53.8164 18.75 53.4987 18.8411 53.2305 19.0234C52.9648 19.2031 52.7604 19.4375 52.6172 19.7266C52.474 20.0156 52.4023 20.3255 52.4023 20.6562V21.1875C52.4023 21.6406 52.4805 22.0247 52.6367 22.3398C52.7956 22.6523 53.0156 22.8906 53.2969 23.0547C53.5781 23.2161 53.9049 23.2969 54.2773 23.2969C54.5195 23.2969 54.7383 23.263 54.9336 23.1953C55.1315 23.125 55.3021 23.0208 55.4453 22.8828C55.5885 22.7422 55.6992 22.5677 55.7773 22.3594L56.668 22.6094C56.5742 22.9115 56.4167 23.1771 56.1953 23.4062C55.974 23.6328 55.7005 23.8099 55.375 23.9375C55.0495 24.0625 54.6836 24.125 54.2773 24.125ZM60.6797 24.125C60.1016 24.125 59.6029 23.9974 59.1836 23.7422C58.7669 23.4844 58.4453 23.125 58.2188 22.6641C57.9948 22.2005 57.8828 21.6615 57.8828 21.0469C57.8828 20.4323 57.9948 19.8906 58.2188 19.4219C58.4453 18.9505 58.7604 18.5833 59.1641 18.3203C59.5703 18.0547 60.0443 17.9219 60.5859 17.9219C60.8984 17.9219 61.207 17.974 61.5117 18.0781C61.8164 18.1823 62.0938 18.3516 62.3438 18.5859C62.5938 18.8177 62.793 19.125 62.9414 19.5078C63.0898 19.8906 63.1641 20.362 63.1641 20.9219V21.3125H58.5391V20.5156H62.2266C62.2266 20.1771 62.1589 19.875 62.0234 19.6094C61.8906 19.3437 61.7005 19.1341 61.4531 18.9805C61.2083 18.8268 60.9193 18.75 60.5859 18.75C60.2188 18.75 59.901 18.8411 59.6328 19.0234C59.3672 19.2031 59.1628 19.4375 59.0195 19.7266C58.8763 20.0156 58.8047 20.3255 58.8047 20.6562V21.1875C58.8047 21.6406 58.8828 22.0247 59.0391 22.3398C59.1979 22.6523 59.418 22.8906 59.6992 23.0547C59.9805 23.2161 60.3073 23.2969 60.6797 23.2969C60.9219 23.2969 61.1406 23.263 61.3359 23.1953C61.5339 23.125 61.7044 23.0208 61.8477 22.8828C61.9909 22.7422 62.1016 22.5677 62.1797 22.3594L63.0703 22.6094C62.9766 22.9115 62.819 23.1771 62.5977 23.4062C62.3763 23.6328 62.1029 23.8099 61.7773 23.9375C61.4518 24.0625 61.0859 24.125 60.6797 24.125ZM64.5664 24V18H65.457V18.9062H65.5195C65.6289 18.6094 65.8268 18.3685 66.1133 18.1836C66.3997 17.9987 66.7227 17.9062 67.082 17.9062C67.1497 17.9062 67.2344 17.9076 67.3359 17.9102C67.4375 17.9128 67.5143 17.9167 67.5664 17.9219V18.8594C67.5352 18.8516 67.4635 18.8398 67.3516 18.8242C67.2422 18.806 67.1263 18.7969 67.0039 18.7969C66.7122 18.7969 66.4518 18.8581 66.2227 18.9805C65.9961 19.1003 65.8164 19.2669 65.6836 19.4805C65.5534 19.6914 65.4883 19.9323 65.4883 20.2031V24H64.5664ZM68.6436 24V23.2969L71.2842 20.4062C71.5941 20.0677 71.8493 19.7734 72.0498 19.5234C72.2503 19.2708 72.3988 19.0339 72.4951 18.8125C72.5941 18.5885 72.6436 18.3542 72.6436 18.1094C72.6436 17.8281 72.5758 17.5846 72.4404 17.3789C72.3076 17.1732 72.1253 17.0143 71.8936 16.9023C71.6618 16.7904 71.4014 16.7344 71.1123 16.7344C70.805 16.7344 70.5368 16.7982 70.3076 16.9258C70.0811 17.0508 69.9053 17.2266 69.7803 17.4531C69.6579 17.6797 69.5967 17.9453 69.5967 18.25H68.6748C68.6748 17.7812 68.7829 17.3698 68.999 17.0156C69.2152 16.6615 69.5094 16.3854 69.8818 16.1875C70.2568 15.9896 70.6774 15.8906 71.1436 15.8906C71.6123 15.8906 72.0277 15.9896 72.3896 16.1875C72.7516 16.3854 73.0355 16.6523 73.2412 16.9883C73.4469 17.3242 73.5498 17.6979 73.5498 18.1094C73.5498 18.4036 73.4964 18.6914 73.3896 18.9727C73.2855 19.2513 73.1032 19.5625 72.8428 19.9062C72.585 20.2474 72.2269 20.6641 71.7686 21.1562L69.9717 23.0781V23.1406H73.6904V24H68.6436ZM75.4443 24V16H78.1475C78.7751 16 79.2881 16.1133 79.6865 16.3398C80.0876 16.5638 80.3844 16.8672 80.5771 17.25C80.7699 17.6328 80.8662 18.0599 80.8662 18.5312C80.8662 19.0026 80.7699 19.431 80.5771 19.8164C80.387 20.2018 80.0928 20.5091 79.6943 20.7383C79.2959 20.9648 78.7855 21.0781 78.1631 21.0781H76.2256V20.2188H78.1318C78.5615 20.2188 78.9066 20.1445 79.167 19.9961C79.4274 19.8477 79.6162 19.6471 79.7334 19.3945C79.8532 19.1393 79.9131 18.8516 79.9131 18.5312C79.9131 18.2109 79.8532 17.9245 79.7334 17.6719C79.6162 17.4193 79.4261 17.2214 79.1631 17.0781C78.9001 16.9323 78.5511 16.8594 78.1162 16.8594H76.4131V24H75.4443ZM84.7529 24.125C84.1748 24.125 83.6761 23.9974 83.2568 23.7422C82.8402 23.4844 82.5186 23.125 82.292 22.6641C82.068 22.2005 81.9561 21.6615 81.9561 21.0469C81.9561 20.4323 82.068 19.8906 82.292 19.4219C82.5186 18.9505 82.8337 18.5833 83.2373 18.3203C83.6436 18.0547 84.1175 17.9219 84.6592 17.9219C84.9717 17.9219 85.2803 17.974 85.585 18.0781C85.8896 18.1823 86.167 18.3516 86.417 18.5859C86.667 18.8177 86.8662 19.125 87.0146 19.5078C87.1631 19.8906 87.2373 20.362 87.2373 20.9219V21.3125H82.6123V20.5156H86.2998C86.2998 20.1771 86.2321 19.875 86.0967 19.6094C85.9639 19.3437 85.7738 19.1341 85.5264 18.9805C85.2816 18.8268 84.9925 18.75 84.6592 18.75C84.292 18.75 83.9743 18.8411 83.7061 19.0234C83.4404 19.2031 83.236 19.4375 83.0928 19.7266C82.9495 20.0156 82.8779 20.3255 82.8779 20.6562V21.1875C82.8779 21.6406 82.9561 22.0247 83.1123 22.3398C83.2712 22.6523 83.4912 22.8906 83.7725 23.0547C84.0537 23.2161 84.3805 23.2969 84.7529 23.2969C84.9951 23.2969 85.2139 23.263 85.4092 23.1953C85.6071 23.125 85.7777 23.0208 85.9209 22.8828C86.0641 22.7422 86.1748 22.5677 86.2529 22.3594L87.1436 22.6094C87.0498 22.9115 86.8923 23.1771 86.6709 23.4062C86.4495 23.6328 86.1761 23.8099 85.8506 23.9375C85.5251 24.0625 85.1592 24.125 84.7529 24.125ZM91.1553 24.125C90.5771 24.125 90.0785 23.9974 89.6592 23.7422C89.2425 23.4844 88.9209 23.125 88.6943 22.6641C88.4704 22.2005 88.3584 21.6615 88.3584 21.0469C88.3584 20.4323 88.4704 19.8906 88.6943 19.4219C88.9209 18.9505 89.236 18.5833 89.6396 18.3203C90.0459 18.0547 90.5199 17.9219 91.0615 17.9219C91.374 17.9219 91.6826 17.974 91.9873 18.0781C92.292 18.1823 92.5693 18.3516 92.8193 18.5859C93.0693 18.8177 93.2686 19.125 93.417 19.5078C93.5654 19.8906 93.6396 20.362 93.6396 20.9219V21.3125H89.0146V20.5156H92.7021C92.7021 20.1771 92.6344 19.875 92.499 19.6094C92.3662 19.3437 92.1761 19.1341 91.9287 18.9805C91.6839 18.8268 91.3949 18.75 91.0615 18.75C90.6943 18.75 90.3766 18.8411 90.1084 19.0234C89.8428 19.2031 89.6383 19.4375 89.4951 19.7266C89.3519 20.0156 89.2803 20.3255 89.2803 20.6562V21.1875C89.2803 21.6406 89.3584 22.0247 89.5146 22.3398C89.6735 22.6523 89.8936 22.8906 90.1748 23.0547C90.4561 23.2161 90.7829 23.2969 91.1553 23.2969C91.3975 23.2969 91.6162 23.263 91.8115 23.1953C92.0094 23.125 92.18 23.0208 92.3232 22.8828C92.4665 22.7422 92.5771 22.5677 92.6553 22.3594L93.5459 22.6094C93.4521 22.9115 93.2946 23.1771 93.0732 23.4062C92.8519 23.6328 92.5785 23.8099 92.2529 23.9375C91.9274 24.0625 91.5615 24.125 91.1553 24.125ZM95.042 24V18H95.9326V18.9062H95.9951C96.1045 18.6094 96.3024 18.3685 96.5889 18.1836C96.8753 17.9987 97.1982 17.9062 97.5576 17.9062C97.6253 17.9062 97.71 17.9076 97.8115 17.9102C97.9131 17.9128 97.9899 17.9167 98.042 17.9219V18.8594C98.0107 18.8516 97.9391 18.8398 97.8271 18.8242C97.7178 18.806 97.6019 18.7969 97.4795 18.7969C97.1878 18.7969 96.9274 18.8581 96.6982 18.9805C96.4717 19.1003 96.292 19.2669 96.1592 19.4805C96.029 19.6914 95.9639 19.9323 95.9639 20.2031V24H95.042Z" fill="black"/>
</svg>
