<svg width="158" height="35" viewBox="0 0 158 35" fill="none" xmlns="http://www.w3.org/2000/svg">
<g clip-path="url(#clip0)">
<path fill-rule="evenodd" clip-rule="evenodd" d="M6.28957 25.6892L16.553 24.7996L19.8271 32.9536H1.91418L6.28957 25.6892Z" fill="#6464FF"/>
<path fill-rule="evenodd" clip-rule="evenodd" d="M10.0939 16.8418C10.0939 16.4356 9.66677 15.7078 8.99382 15.7078C8.86903 15.7078 8.44471 15.7078 7.72087 15.7078C7.17018 15.7952 6.89484 16.204 6.89484 16.9343C6.89484 17.6646 7.17018 18.0494 7.72087 18.0887C7.72087 18.7246 7.72087 19.2079 7.72087 19.5385C7.59101 19.7696 0.877634 32.432 0.696889 32.7744C0.045268 34.0091 1.17464 34.7098 1.71436 34.6768C2.44629 34.632 6.86757 34.3246 10.8449 34.3335C14.155 34.3409 19.1884 34.6111 20.1735 34.6768C20.8863 34.7243 21.779 33.8471 21.226 32.8727C20.9808 32.4407 18.7043 27.9959 14.3963 19.5385V18.0619C14.947 17.9721 15.2223 17.5962 15.2223 16.9343C15.2223 16.2002 14.947 15.7914 14.3963 15.7078H13.1771C12.8936 15.6851 12.6282 15.7913 12.3811 16.0263C12.1339 16.2612 12.0133 16.5221 12.019 16.8089V19.5385C12.011 19.7747 12.0201 19.955 12.0464 20.0793C12.0727 20.2036 12.1357 20.3646 12.2355 20.5622L18.2096 32.2007C14.9456 32.0548 12.5255 31.9819 10.9492 31.9819C8.89588 31.9819 5.47442 32.1355 3.71347 32.1855C3.97968 31.6758 6.0566 27.7487 9.94423 20.4044C10.0553 20.1892 10.1052 19.9453 10.0939 19.6729C10.0939 19.0981 10.0939 17.2479 10.0939 16.8418Z" fill="white"/>
<path d="M14.8629 8.47573L15.6571 8.14498L14.7236 10.4945C14.3858 11.345 13.4161 11.7489 12.5578 11.3966L10.1869 10.4232L10.981 10.0925L12.7822 10.8319C13.3257 11.055 13.9398 10.7993 14.1538 10.2606L14.8629 8.47573Z" fill="#6464FF"/>
<path d="M12.9786 14.7271L12.1875 15.0566L13.124 12.7032C13.4609 11.8565 14.427 11.4542 15.2817 11.8045L17.6576 12.7784L16.8665 13.1079L15.058 12.3666C14.5167 12.1447 13.9048 12.3996 13.6915 12.9358L12.9786 14.7271Z" fill="#6464FF"/>
<path d="M10.5519 11.4799L11.1454 11.7033L9.43644 12.4499C8.81782 12.7201 8.09313 12.4474 7.81782 11.8406L7.05725 10.1646L7.65075 10.3879L8.22853 11.6612C8.40289 12.0455 8.86184 12.2182 9.25366 12.0471L10.5519 11.4799Z" fill="#6464FF"/>
<path d="M6.32941 13.7646L5.73812 13.542L7.45072 12.795C8.06686 12.5262 8.78885 12.798 9.06334 13.402L9.82629 15.0808L9.23499 14.8582L8.65427 13.5804C8.48042 13.1979 8.02318 13.0258 7.63296 13.196L6.32941 13.7646Z" fill="#6464FF"/>
<path d="M11.2474 5.36917L11.7563 5.25434L10.957 6.59182C10.6676 7.07596 10.0462 7.21617 9.5689 6.90497L8.25049 6.04529L8.75944 5.93046L9.76101 6.58355C10.0633 6.78064 10.4568 6.69184 10.6401 6.38521L11.2474 5.36917Z" fill="#6464FF"/>
<path d="M9.47853 8.99545L8.97147 9.10985L9.77307 7.77035C10.0615 7.28844 10.6806 7.14876 11.156 7.45835L12.4773 8.3189L11.9702 8.4333L10.9645 7.77829C10.6634 7.58221 10.2713 7.67068 10.0887 7.97588L9.47853 8.99545Z" fill="#6464FF"/>
<path d="M14.3543 0.844953L14.7358 0.988557L13.6328 1.47976C13.2335 1.65757 12.7677 1.48223 12.5923 1.08812L12.1078 -0.000610352L12.4893 0.142991L12.8574 0.970072C12.9685 1.21967 13.2635 1.33072 13.5164 1.21811L14.3543 0.844953Z" fill="#6464FF"/>
<path d="M11.6275 2.34831L11.2474 2.20524L12.3528 1.71373C12.7504 1.5369 13.2146 1.71159 13.3894 2.10391L13.8755 3.19441L13.4954 3.05134L13.1254 2.22131C13.0147 1.97283 12.7207 1.8622 12.4689 1.97419L11.6275 2.34831Z" fill="#6464FF"/>
<path fill-rule="evenodd" clip-rule="evenodd" d="M39.1989 25.5816L44.1439 34.5162C44.282 34.7606 44.1163 34.9507 43.84 34.9507H38.0662C37.8176 34.9507 37.5414 34.7334 37.4309 34.5162L35.1656 29.981L32.9003 34.5162C32.7897 34.7334 32.5135 34.9507 32.2649 34.9507H26.4911C26.2148 34.9507 26.0491 34.7606 26.1872 34.5162L31.1322 25.5816L26.1872 16.647C26.0491 16.4026 26.2148 16.2125 26.4911 16.2125H32.2372C32.4859 16.2125 32.7621 16.4298 32.8726 16.647L35.1656 21.4538L37.4585 16.647C37.569 16.4298 37.8452 16.2125 38.0939 16.2125H43.84C44.1163 16.2125 44.282 16.4026 44.1439 16.647L39.1989 25.5816ZM57.3191 27.5369L61.6878 34.5162C61.8252 34.7606 61.6328 34.9507 61.3856 34.9507H55.5057C55.231 34.9507 54.9837 34.7606 54.8738 34.5162L52.0163 28.596H51.6866V34.5705C51.6866 34.7606 51.4943 34.9507 51.247 34.9507H46.4113C46.1915 34.9507 45.9991 34.7606 45.9991 34.5705V16.6199C45.9991 16.4026 46.1915 16.2125 46.4113 16.2125H53.6649C57.8961 16.2125 60.6987 18.6566 60.6987 22.3499C60.6987 24.4953 59.3798 26.6679 57.3191 27.5369ZM51.6739 23.9131H53.2482C54.1554 23.9131 54.7692 23.3537 54.7692 22.5014C54.7692 21.649 54.1554 21.0896 53.2482 21.0896H51.6739V23.9131ZM63.9276 16.2125H70.4744C75.3291 16.2125 78.2419 18.7924 78.2419 22.6758C78.2419 26.5592 75.3291 29.1391 70.4744 29.1391H69.3371V34.5705C69.3371 34.7606 69.1429 34.9507 68.8932 34.9507H63.9276C63.7334 34.9507 63.5392 34.7606 63.5392 34.5705V16.6199C63.5392 16.4026 63.7334 16.2125 63.9276 16.2125ZM69.2139 24.1698H70.664C71.64 24.1698 72.3092 23.5433 72.3092 22.6297C72.3092 21.7161 71.64 21.0896 70.664 21.0896H69.2139V24.1698ZM85.9605 30.0625H91.0418C91.2331 30.0625 91.397 30.2254 91.397 30.4426L91.0145 34.5705C90.9872 34.7606 90.796 34.9507 90.5774 34.9507H80.7152C80.4967 34.9507 80.3055 34.7606 80.3055 34.5705V16.6199C80.3055 16.4026 80.4967 16.2125 80.7152 16.2125H85.5507C85.7693 16.2125 85.9605 16.4026 85.9605 16.6199V30.0625Z" fill="white"/>
<path fill-rule="evenodd" clip-rule="evenodd" d="M102.659 32.0079H108.67C109.31 32.0079 109.829 32.5187 109.829 33.1488C109.829 33.2608 109.812 33.3722 109.779 33.4793L109.577 34.1357C109.428 34.6197 108.975 34.9507 108.462 34.9507H99.0456C98.402 34.9507 97.8802 34.437 97.8802 33.8032V17.223C97.8802 16.5892 98.402 16.0754 99.0456 16.0754H100.328C100.972 16.0754 101.493 16.5892 101.493 17.223V30.8604C101.493 31.4942 102.015 32.0079 102.659 32.0079ZM120.761 31.0097H116.915C116.391 31.0097 115.931 31.3541 115.792 31.8515L115.158 34.109C115.018 34.6063 114.559 34.9507 114.035 34.9507H112.71C112.067 34.9507 111.545 34.437 111.545 33.8032C111.545 33.6844 111.564 33.5664 111.6 33.4533L116.991 16.8731C117.146 16.3979 117.594 16.0754 118.101 16.0754H119.676C120.185 16.0754 120.635 16.4008 120.787 16.8791L126.076 33.4593C126.269 34.0639 125.928 34.7081 125.314 34.898C125.201 34.9329 125.083 34.9507 124.965 34.9507H123.634C123.108 34.9507 122.648 34.6046 122.51 34.1057L121.885 31.8548C121.746 31.3558 121.286 31.0097 120.761 31.0097ZM116.989 27.0494H120.959L119.001 20.465L116.989 27.0494ZM127.876 33.8032V17.223C127.876 16.5892 128.397 16.0754 129.041 16.0754H134.25C135.284 16.0754 136.225 16.1791 137.072 16.3866C137.919 16.594 138.643 16.9094 139.243 17.3329C139.842 17.7564 140.305 18.2922 140.631 18.9404C140.957 19.5886 141.12 20.3535 141.12 21.235C141.111 22.1166 140.874 22.9074 140.409 23.6074C139.944 24.3075 139.26 24.839 138.356 25.202C138.904 25.3402 139.377 25.5476 139.777 25.8242C140.177 26.1008 140.509 26.427 140.774 26.803C141.039 27.1789 141.235 27.5894 141.361 28.0345C141.487 28.4796 141.55 28.9398 141.55 29.4152C141.55 30.3227 141.393 31.1221 141.081 31.8135C140.768 32.5049 140.32 33.0839 139.738 33.5506C139.156 34.0173 138.447 34.3674 137.613 34.6007C136.779 34.8341 135.84 34.9507 134.797 34.9507H129.041C128.397 34.9507 127.876 34.437 127.876 33.8032ZM131.404 27.8928V30.8653C131.404 31.499 131.926 32.0128 132.57 32.0128H134.581C135.555 32.0044 136.298 31.7653 136.811 31.2957C137.323 30.826 137.58 30.2104 137.58 29.4489C137.588 28.6027 137.359 27.9427 136.894 27.4688C136.428 26.9949 135.708 26.7538 134.733 26.7453H132.57C131.926 26.7453 131.404 27.2591 131.404 27.8928ZM132.57 24.1115H134.254C135.317 24.1031 136.135 23.8966 136.707 23.4922C137.28 23.0877 137.571 22.4936 137.58 21.7099C137.58 20.8503 137.294 20.2331 136.721 19.8581C136.149 19.4831 135.321 19.2914 134.24 19.283H132.57C131.926 19.283 131.404 19.7967 131.404 20.4305V22.964C131.404 23.5978 131.926 24.1115 132.57 24.1115ZM153.48 29.796C153.48 29.4601 153.421 29.1457 153.302 28.8528C153.184 28.56 152.982 28.2866 152.696 28.0325C152.411 27.7784 152.037 27.5459 151.576 27.3348C151.115 27.1238 150.542 26.9279 149.856 26.747C149.022 26.5231 148.225 26.2432 147.465 25.9073C146.705 25.5714 146.035 25.1666 145.455 24.6929C144.875 24.2191 144.412 23.6679 144.065 23.0392C143.718 22.4105 143.544 21.687 143.544 20.8688C143.544 20.0764 143.716 19.3572 144.058 18.7113C144.401 18.0653 144.875 17.5141 145.481 17.0576C146.088 16.6011 146.804 16.2501 147.629 16.0047C148.455 15.7592 149.351 15.6365 150.318 15.6365C151.319 15.6365 152.235 15.7786 153.065 16.0628C153.895 16.347 154.609 16.7454 155.206 17.2578C155.804 17.7703 156.269 18.3797 156.603 19.0859C156.715 19.3226 156.813 19.6362 156.897 20.0267L156.897 20.0267C157.03 20.6468 156.627 21.2556 155.997 21.3866C155.918 21.4031 155.837 21.4114 155.756 21.4114L154.481 21.4114C153.942 21.4114 153.473 21.0473 153.348 20.531C153.321 20.4203 153.293 20.3262 153.263 20.2486C153.126 19.8955 152.924 19.5919 152.656 19.3378C152.389 19.0838 152.055 18.8857 151.655 18.7436C151.255 18.6014 150.788 18.5304 150.252 18.5304C149.76 18.5304 149.323 18.5885 148.94 18.7048C148.558 18.8211 148.236 18.9847 147.972 19.1957C147.708 19.4067 147.509 19.6565 147.372 19.945C147.236 20.2336 147.168 20.5458 147.168 20.8817C147.168 21.2348 147.258 21.5535 147.438 21.8377C147.618 22.1219 147.88 22.3782 148.222 22.6064C148.565 22.8346 148.98 23.0435 149.468 23.233C149.955 23.4225 150.506 23.599 151.121 23.7627C152 24.0124 152.808 24.3182 153.546 24.6799C154.284 25.0417 154.919 25.4702 155.45 25.9654C155.982 26.4606 156.394 27.0248 156.689 27.6578C156.983 28.2909 157.13 28.995 157.13 29.7701C157.13 30.5969 156.961 31.3312 156.623 31.9728C156.285 32.6145 155.817 33.1571 155.219 33.6007C154.622 34.0442 153.911 34.3801 153.085 34.6084C152.259 34.8366 151.359 34.9507 150.383 34.9507C149.777 34.9507 149.173 34.8969 148.572 34.7892C147.97 34.6816 147.394 34.5158 146.845 34.2918C146.296 34.0679 145.785 33.788 145.31 33.4521C144.836 33.1162 144.425 32.7243 144.078 32.2764C143.731 31.8286 143.459 31.3204 143.261 30.752C143.212 30.6107 143.167 30.4347 143.127 30.224L143.127 30.224C143.009 29.601 143.426 29.0017 144.059 28.8853C144.13 28.8723 144.201 28.8658 144.273 28.8658H145.6C146.152 28.8658 146.628 29.2471 146.741 29.7792C146.79 30.0125 146.845 30.1946 146.905 30.3256C147.089 30.7304 147.346 31.062 147.675 31.3204C148.005 31.5788 148.4 31.7683 148.861 31.8889C149.323 32.0094 149.83 32.0697 150.383 32.0697C150.875 32.0697 151.312 32.0138 151.695 31.9018C152.077 31.7898 152.4 31.6348 152.663 31.4367C152.927 31.2386 153.129 30.9996 153.269 30.7197C153.41 30.4398 153.48 30.1319 153.48 29.796Z" fill="white"/>
</g>
<defs>
<clipPath id="clip0">
<rect width="156.739" height="35" fill="white" transform="translate(0.5)"/>
</clipPath>
</defs>
</svg>
