<svg width="41" height="40" viewBox="0 0 41 40" fill="none" xmlns="http://www.w3.org/2000/svg">
<circle cx="20.5" cy="20" r="20" fill="#343437"/>
<path d="M29.7607 15.234C29.5503 14.4419 28.9306 13.8181 28.1436 13.6064C26.7172 13.2217 20.9975 13.2217 20.9975 13.2217C20.9975 13.2217 15.2778 13.2217 13.8514 13.6064C13.0644 13.8181 12.4446 14.4419 12.2343 15.234C11.8521 16.6697 11.8521 19.6651 11.8521 19.6651C11.8521 19.6651 11.8521 22.6604 12.2343 24.0962C12.4446 24.8882 13.0644 25.5119 13.8514 25.7237C15.2778 26.1084 20.9975 26.1084 20.9975 26.1084C20.9975 26.1084 26.7172 26.1084 28.1436 25.7237C28.9306 25.5119 29.5503 24.8882 29.7607 24.0963C30.1429 22.6604 30.1429 19.6651 30.1429 19.6651C30.1429 19.6651 30.1429 16.6697 29.7607 15.234Z" fill="#E73621"/>
<path d="M19.1268 22.3844L23.9074 19.665L19.1268 16.9453V22.3844Z" fill="white"/>
</svg>
