<svg width="635" height="125" viewBox="0 0 635 125" fill="none" xmlns="http://www.w3.org/2000/svg">
<path d="M2.55421 0.0077684C1.11161 -0.110294 0 1.13283 0 2.6813V24.1097C0 27.5792 1.52726 31.3632 5.11431 32.5509L89.2735 61.0087C91.9658 61.9185 95.5169 64.4596 91.9599 67.9576C95.0884 66.2067 100.794 64.8215 100.794 58.7559V43.0951C100.794 35.6757 97.3294 32.8468 91.8164 30.9317L3.19138 0.146018C2.97403 0.0677907 2.76079 0.024908 2.55421 0.0077684ZM51.9179 50.3089L29.951 57.9377C24.4381 59.8527 20.9737 62.6873 20.9737 70.1068V85.7675C20.9737 92.3531 26.2638 94.0153 29.8076 94.9692C26.2505 91.4712 29.8033 88.9306 32.4938 88.0204L89.1968 68.8481C90.9942 68.2404 91.7143 66.7803 91.5239 65.4927C91.305 64.0127 89.5634 63.0396 87.477 62.334C75.6239 58.3256 51.9179 50.3089 51.9179 50.3089ZM69.8037 77.4991C69.8037 77.4991 46.7098 85.3085 35.163 89.2132C33.552 89.7573 31.4228 90.8335 31.1562 92.4611C30.9818 93.5282 31.4854 95.5435 33.4444 96.2059C46.7178 100.693 73.2648 109.668 73.2648 109.668C75.957 110.578 79.0433 113.459 75.4863 116.957C79.0299 116.002 84.7907 114 84.7907 107.415V91.7483C84.7907 84.329 81.3205 81.5 75.8077 79.585L69.8037 77.4991ZM38.7906 100.011V120.638C38.7906 123.139 41.86 125.576 44.5765 124.879L72.4863 117.717C74.5605 117.186 74.8487 115.217 74.6885 114.299C74.4039 112.673 72.5919 111.438 71.0032 110.901L38.7906 100.011Z" fill="#003399"/>
<path d="M493.796 93.4839C490.479 93.4839 487.696 92.9216 485.448 91.7972C483.255 90.6165 481.625 89.0422 480.556 87.0744C479.488 85.1066 478.954 82.9701 478.954 80.665C478.954 77.91 479.657 75.5487 481.062 73.5808C482.524 71.613 484.604 70.095 487.303 69.0268C490.058 67.9585 493.347 67.4244 497.17 67.4244H508.217C508.217 64.8944 507.824 62.8141 507.037 61.1836C506.306 59.4969 505.209 58.26 503.748 57.4729C502.286 56.6296 500.515 56.2079 498.435 56.2079C495.849 56.2079 493.6 56.8544 491.688 58.1476C489.833 59.3845 488.708 61.3523 488.315 64.051H479.882C480.219 60.9587 481.203 58.3725 482.833 56.2922C484.52 54.1557 486.468 52.072 489.166 50.9475C491.865 49.7668 495.118 48.9709 498.435 48.9709C502.426 48.9709 505.903 49.8714 508.602 51.2769C511.357 52.6825 513.512 54.6205 514.861 57.2067C516.21 59.7368 516.65 63.2639 516.65 66.7497V92.4719H508.808V85.4721L508.677 85.6378C507.89 86.9871 506.755 88.0021 505.687 89.0141C504.619 89.9699 503.467 90.7852 502.23 91.4598C501.049 92.1345 499.728 92.6405 498.266 92.9779C496.861 93.3152 495.371 93.4839 493.796 93.4839ZM495.239 86.3681C497.206 86.3681 498.718 85.7813 500.18 85.0504C501.698 84.3195 503.121 82.993 504.133 81.7561C505.201 80.4629 505.451 80.1089 506.439 78.1323C507.001 76.5581 507.427 75.8263 508.049 73.8497H498.013C495.539 73.8497 493.544 73.6933 492.026 74.2555C490.564 74.8178 489.496 75.6049 488.821 76.6169C488.146 77.6289 487.809 78.8096 487.809 80.159C487.809 81.4521 488.118 82.6047 488.737 83.6167C489.411 84.5725 490.339 85.3315 491.52 85.8937C492.756 86.3997 493.608 86.3681 495.239 86.3681Z" fill="#000814"/>
<path d="M175.434 61.7582C178.864 63.0513 181.506 64.9348 183.361 67.4086C185.217 69.8262 186.144 72.6936 186.144 76.0108C186.144 79.1593 185.329 81.9985 183.699 84.5286C182.068 87.0024 179.819 88.9421 176.952 90.3477C174.085 91.7533 170.824 92.4561 167.17 92.4561H141.111V33.4217H166.326C169.812 33.4217 172.932 34.0964 175.687 35.4457C178.442 36.7951 180.578 38.6785 182.096 41.0961C183.671 43.4575 184.458 46.1 184.458 49.0236C184.458 51.891 183.671 54.421 182.096 56.6138C180.578 58.7502 178.358 60.465 175.434 61.7582ZM151.147 41.9395V58.4691H165.061C167.929 58.4691 170.206 57.7382 171.892 56.2764C173.579 54.8146 174.422 52.8187 174.422 50.2886C174.422 47.7024 173.579 45.6783 171.892 44.2165C170.206 42.6985 167.929 41.9395 165.061 41.9395H151.147ZM165.483 83.9382C168.8 83.9382 171.386 83.1792 173.241 81.6612C175.097 80.0869 176.024 77.8942 176.024 75.0831C176.024 72.2719 175.097 70.1073 173.241 68.5893C171.386 67.015 168.8 66.2279 165.483 66.2279H151.147V83.9382H165.483Z" fill="#000814"/>
<path d="M204.065 92.4561H194.705V49.867H204.065V92.4561ZM204.15 42.9515H194.705V34.0964H204.15V42.9515Z" fill="#000814"/>
<path d="M230.844 40.1685C228.033 40.1685 226.627 41.7989 226.627 45.0599V49.867H238.518V57.5414H226.88V92.4561H217.267V57.5414H209.002V49.867H217.267V44.9755C217.267 41.0961 218.222 38.1444 220.134 36.1204C222.045 34.0401 224.8 33 228.398 33H238.94V40.1685H230.844Z" fill="#000814"/>
<path d="M242.625 92.4561V49.867H251.396V57.3728H251.818C253.504 54.8427 255.36 52.9592 257.383 51.7223C259.407 50.4854 261.769 49.867 264.467 49.867H268.094V58.6378H263.793C260.138 58.6378 257.299 59.706 255.275 61.8425C253.251 63.979 252.239 66.8745 252.239 70.529V92.4561H242.625Z" fill="#000814"/>
<path d="M290.415 93.3837C286.31 93.3837 282.684 92.456 279.536 90.6007C276.387 88.6891 273.914 86.0466 272.115 82.6732C270.372 79.2998 269.5 75.4766 269.5 71.2037C269.5 66.8745 270.372 63.0513 272.115 59.7341C273.914 56.3607 276.387 53.7464 279.536 51.891C282.684 49.9794 286.31 49.0236 290.415 49.0236C294.519 49.0236 298.145 49.9794 301.293 51.891C304.498 53.7464 306.972 56.3607 308.715 59.7341C310.514 63.0513 311.413 66.8745 311.413 71.2037C311.413 75.4766 310.514 79.2998 308.715 82.6732C306.972 86.0466 304.498 88.6891 301.293 90.6007C298.145 92.456 294.519 93.3837 290.415 93.3837ZM290.415 85.1189C293.956 85.1189 296.739 83.882 298.763 81.4082C300.844 78.8781 301.884 75.4766 301.884 71.2037C301.884 66.8745 300.844 63.473 298.763 60.9992C296.739 58.4691 293.956 57.2041 290.415 57.2041C286.873 57.2041 284.09 58.4691 282.066 60.9992C280.042 63.473 279.03 66.8745 279.03 71.2037C279.03 75.5329 280.042 78.9344 282.066 81.4082C284.09 83.882 286.873 85.1189 290.415 85.1189Z" fill="#000814"/>
<path d="M333.75 93.3837C328.466 93.3837 324.165 92.203 320.848 89.8417C317.587 87.4803 315.422 84.1631 314.354 79.8902L323.04 78.6251C324.446 83.123 328.016 85.3719 333.75 85.3719C336.224 85.3719 338.164 84.9503 339.569 84.1069C341.031 83.2636 341.762 81.9704 341.762 80.2275C341.762 78.4284 340.947 77.1352 339.316 76.3481C337.686 75.561 335.212 74.8582 331.895 74.2397C328.634 73.5651 325.964 72.8623 323.884 72.1314C321.86 71.4005 320.117 70.1917 318.655 68.505C317.193 66.762 316.462 64.4007 316.462 61.4208C316.462 57.7101 318.009 54.7303 321.101 52.4813C324.249 50.1762 328.269 49.0236 333.16 49.0236C337.939 49.0236 341.818 50.12 344.798 52.3127C347.834 54.5054 349.83 57.5977 350.786 61.5895L342.521 62.8545C342.015 60.8305 340.919 59.3125 339.232 58.3004C337.545 57.2322 335.465 56.6981 332.992 56.6981C330.855 56.6981 329.14 57.0916 327.847 57.8788C326.554 58.6659 325.908 59.8466 325.908 61.4208C325.908 63.1638 326.695 64.4007 328.269 65.1316C329.843 65.8625 332.317 66.5653 335.69 67.2399C338.951 67.9146 341.621 68.6174 343.702 69.3483C345.782 70.0792 347.553 71.3161 349.015 73.059C350.532 74.802 351.292 77.1914 351.292 80.2275C351.292 84.2756 349.689 87.4803 346.485 89.8417C343.336 92.203 339.091 93.3837 333.75 93.3837Z" fill="#000814"/>
<path d="M371.7 92.4561C364.167 92.4561 360.4 88.408 360.4 80.3118V57.5414H352.135V49.867H360.569L364.279 38.6504H370.014V49.867H382.242V57.5414H370.014V79.4685C370.014 81.099 370.323 82.2796 370.941 83.0106C371.616 83.7415 372.712 84.1069 374.23 84.1069H382.664V92.4561H371.7Z" fill="#000814"/>
<path d="M428.088 92.4561H414.258L399.753 33.4217H409.872L421.342 82.3359H421.763L434.076 33.4217H445.629L458.026 82.3359H458.447L469.917 33.4217H479.615L465.11 92.4561H451.532L439.979 46.8309H439.557L428.088 92.4561Z" fill="#000814"/>
<path d="M535.798 92.4561H526.184V33.4217H535.798V92.4561Z" fill="#000814"/>
<path d="M555.234 92.4561H545.62V33.4217H555.234V92.4561Z" fill="#000814"/>
<path d="M603.258 70.023C603.258 71.035 603.118 72.2438 602.837 73.6494H571.634C572.027 77.3039 573.236 80.1713 575.26 82.2515C577.34 84.2756 580.067 85.2876 583.44 85.2876C585.689 85.2876 587.685 84.8097 589.428 83.8539C591.171 82.8981 592.52 81.5206 593.476 79.7215H602.3C600.951 83.6571 598.255 87.902 594.994 90.0947C591.733 92.2874 587.882 93.3837 583.44 93.3837C579.28 93.3837 575.597 92.456 572.393 90.6007C569.188 88.6891 566.686 86.0747 564.887 82.7575C563.144 79.3842 562.273 75.5329 562.273 71.2037C562.273 66.8745 563.144 63.0513 564.887 59.7341C566.63 56.3607 569.076 53.7464 572.224 51.891C575.373 49.9794 578.943 49.0236 582.934 49.0236C586.814 49.0236 590.299 49.9232 593.391 51.7223C596.484 53.4653 598.901 55.9391 600.644 59.1438C602.387 62.2923 603.258 65.9187 603.258 70.023ZM582.934 56.8668C580.011 56.8668 577.565 57.7663 575.597 59.5655C573.686 61.3084 572.421 63.7822 571.802 66.9869H594.235C593.729 63.7822 592.464 61.3084 590.44 59.5655C588.472 57.7663 585.97 56.8668 582.934 56.8668Z" fill="#000814"/>
<path d="M624.037 92.4561C616.503 92.4561 612.736 88.408 612.736 80.3118V57.5414H604.472V49.867H612.905L616.616 38.6504H622.35V49.867H634.578V57.5414H622.35V79.4685C622.35 81.099 622.659 82.2796 623.278 83.0106C623.952 83.7415 625.049 84.1069 626.567 84.1069H635V92.4561H624.037Z" fill="#000814"/>
</svg>
