<svg width="302" height="64" viewBox="0 0 302 64" fill="none" xmlns="http://www.w3.org/2000/svg">
<g clip-path="url(#clip0_3103_11033)">
<g clip-path="url(#clip1_3103_11033)">
<g clip-path="url(#clip2_3103_11033)">
<rect width="63.7451" height="63.7451" rx="23.6093" fill="#2D5BE6"/>
<path d="M31.8726 48.399L53.121 32.0299H10.6243L31.8726 48.399Z" fill="white" fill-opacity="0.7"/>
<path d="M31.8725 48.399L42.4967 17.7069H21.2483L31.8725 48.399Z" fill="white" fill-opacity="0.5"/>
<path d="M21.2485 17.707H42.4968L53.121 32.0299H10.6243L21.2485 17.707Z" fill="white" fill-opacity="0.8"/>
<path fill-rule="evenodd" clip-rule="evenodd" d="M26.2048 32.03H37.5401L42.4966 17.7146H21.2483L26.2048 32.03Z" fill="white" fill-opacity="0.9"/>
</g>
</g>
<path d="M106.744 47.6516H101.368L100.948 44.6276C99.646 46.5176 96.832 48.2816 92.59 48.2816C84.316 48.2816 77.512 42.1916 77.512 32.7836C77.512 23.4176 84.61 17.2436 93.01 17.2436C101.536 17.2436 105.484 22.2836 106.786 26.4416L100.402 28.6676C99.94 26.8196 97.966 23.4596 93.01 23.4596C88.978 23.4596 84.232 26.1476 84.232 32.7836C84.232 38.9996 88.348 42.2336 93.178 42.2336C98.092 42.2336 100.15 39.0416 100.528 37.3616H91.582V31.7336H106.744V47.6516ZM115.904 34.7156H124.262C124.178 33.1196 123.086 31.1876 120.062 31.1876C117.374 31.1876 116.03 33.1616 115.904 34.7156ZM124.724 40.1336L130.058 41.6456C129.05 45.2576 125.732 48.2816 120.44 48.2816C114.686 48.2816 109.562 44.1656 109.562 37.1516C109.562 30.4316 114.56 26.1476 119.978 26.1476C126.446 26.1476 130.436 30.1376 130.436 36.8576C130.436 37.7396 130.352 38.7056 130.31 38.8316H115.778C115.904 41.1836 118.046 42.8636 120.524 42.8636C122.834 42.8636 124.136 41.7716 124.724 40.1336ZM140.079 47.6516H133.695V26.7776H139.785V29.1716C140.835 27.3236 143.523 26.1476 145.791 26.1476C148.773 26.1476 150.915 27.3656 151.965 29.4236C153.603 27.0716 155.619 26.1476 158.433 26.1476C162.381 26.1476 166.161 28.4576 166.161 34.1276V47.6516H159.987V35.5556C159.987 33.5816 158.937 32.0276 156.669 32.0276C154.401 32.0276 153.183 33.7496 153.183 35.5976V47.6516H146.883V35.5556C146.883 33.5816 145.833 32.0276 143.523 32.0276C141.297 32.0276 140.079 33.7496 140.079 35.6396V47.6516ZM208.978 36.9836L213.808 17.8736H220.612L212.506 47.6516H205.66L199.318 27.9116L192.934 47.6516H185.962L177.856 17.8736H184.912L189.826 36.9416L196 17.8736H202.804L208.978 36.9836ZM220.477 41.8976C220.477 38.2016 223.207 36.1016 226.651 35.5976L231.565 34.8416C232.699 34.6736 233.077 34.1276 233.077 33.4136C233.077 32.1956 232.027 31.1456 230.011 31.1456C227.785 31.1456 226.567 32.6576 226.441 34.2116L220.897 33.0776C221.149 30.0956 223.921 26.1476 230.053 26.1476C236.815 26.1476 239.293 29.9276 239.293 34.2116V44.4176C239.293 46.0556 239.503 47.4416 239.545 47.6516H233.791C233.749 47.4836 233.581 46.7276 233.581 45.2996C232.489 47.0636 230.473 48.2396 227.701 48.2396C223.123 48.2396 220.477 45.2156 220.477 41.8976ZM229.255 43.6196C231.145 43.6196 233.077 42.6956 233.077 39.4616V38.5376L229.129 39.1676C227.785 39.3776 226.777 40.0076 226.777 41.4776C226.777 42.5696 227.491 43.6196 229.255 43.6196ZM250.209 47.6516H243.825V17.2436H250.209V47.6516ZM261.386 47.6516H255.002V17.2436H261.386V47.6516ZM271.01 34.7156H279.368C279.284 33.1196 278.192 31.1876 275.168 31.1876C272.48 31.1876 271.136 33.1616 271.01 34.7156ZM279.83 40.1336L285.164 41.6456C284.156 45.2576 280.838 48.2816 275.546 48.2816C269.792 48.2816 264.668 44.1656 264.668 37.1516C264.668 30.4316 269.666 26.1476 275.084 26.1476C281.552 26.1476 285.542 30.1376 285.542 36.8576C285.542 37.7396 285.458 38.7056 285.416 38.8316H270.884C271.01 41.1836 273.152 42.8636 275.63 42.8636C277.94 42.8636 279.242 41.7716 279.83 40.1336ZM296.445 20.6876V26.7776H300.519V32.3636H296.445V40.1756C296.445 41.8976 297.369 42.3596 298.755 42.3596C299.427 42.3596 300.057 42.2336 300.435 42.1496V47.4416C300.183 47.5676 299.133 48.0296 297.117 48.0296C292.791 48.0296 290.145 45.4676 290.145 41.3096V32.3636H286.449V26.7776H287.499C289.683 26.7776 290.733 25.3076 290.733 23.3756V20.6876H296.445Z" fill="black"/>
</g>
<defs>
<clipPath id="clip0_3103_11033">
<rect width="302" height="64" fill="white"/>
</clipPath>
<clipPath id="clip1_3103_11033">
<rect width="64" height="64" fill="white"/>
</clipPath>
<clipPath id="clip2_3103_11033">
<rect width="63.7451" height="63.7451" rx="23.6093" fill="white"/>
</clipPath>
</defs>
</svg>
