<svg width="48" height="46" viewBox="0 0 48 46" fill="none" xmlns="http://www.w3.org/2000/svg">
<circle cx="10" cy="10" r="10" fill="#28B86A"/>
<path d="M5.64703 18.6348C2.52937 18.6348 0 21.163 0 24.2818C0 27.4001 2.52937 29.9288 5.64703 29.9288C8.76591 29.9289 11.2941 27.4001 11.2941 24.2818C11.2941 21.1629 8.76591 18.6348 5.64703 18.6348ZM5.64703 28.2348C3.46781 28.2348 1.69406 26.461 1.69406 24.2818C1.69406 22.1025 3.46781 20.3288 5.64703 20.3288C7.82625 20.3288 9.6 22.1026 9.6 24.2818C9.6 26.461 7.82625 28.2348 5.64703 28.2348Z" fill="#343437"/>
<path d="M32.7526 2.25879C29.6337 2.25879 27.1055 4.78695 27.1055 7.90582C27.1055 11.0241 29.6337 13.5529 32.7526 13.5529C35.8715 13.5529 38.3996 11.0241 38.3996 7.90582C38.3997 4.78695 35.8716 2.25879 32.7526 2.25879ZM32.7526 11.8589C30.5734 11.8589 28.7996 10.0851 28.7996 7.90591C28.7996 5.7266 30.5734 3.95295 32.7526 3.95295C34.9318 3.95295 36.7056 5.7267 36.7056 7.90591C36.7057 10.0852 34.9319 11.8589 32.7526 11.8589Z" fill="#343437"/>
<path d="M33.3179 33.8828C30.2002 33.8828 27.6709 36.411 27.6709 39.5298C27.6709 42.6482 30.2003 45.1769 33.3179 45.1769C36.4368 45.1769 38.965 42.6482 38.965 39.5298C38.965 36.4111 36.4368 33.8828 33.3179 33.8828ZM33.3179 43.4828C31.1387 43.4828 29.365 41.7091 29.365 39.5298C29.365 37.3506 31.1387 35.5769 33.3179 35.5769C35.4972 35.5769 37.2709 37.3506 37.2709 39.5298C37.2708 41.709 35.4971 43.4828 33.3179 43.4828Z" fill="#343437"/>
<path d="M42.3532 18.0707C39.5229 18.0707 37.186 20.155 36.7766 22.8707H31.0059C30.5857 19.2159 27.4855 16.3765 23.7177 16.3765C22.4658 16.3765 21.2878 16.6916 20.2567 17.2439L17.4055 12.4913C18.832 11.4664 19.7648 9.79657 19.7648 7.90582C19.7648 4.78751 17.2366 2.25879 14.1177 2.25879C11 2.25879 8.4707 4.78751 8.4707 7.90582C8.4707 11.0236 11.0001 13.5529 14.1177 13.5529C14.7389 13.5529 15.334 13.449 15.8937 13.2637L18.8664 18.2179C17.3427 19.5636 16.3765 21.5254 16.3765 23.7177C16.3765 26.1911 17.6031 28.3731 19.4779 29.7035L16.4578 34.7362C15.8987 34.5511 15.3036 34.4471 14.6824 34.4471C11.5646 34.4471 9.03536 36.9758 9.03536 40.0941C9.03536 43.2119 11.5647 45.7412 14.6824 45.7412C17.8013 45.7412 20.3294 43.2118 20.3294 40.0941C20.3294 38.2029 19.3965 36.5331 17.9701 35.5086L20.9636 30.5194C21.814 30.8644 22.7425 31.0588 23.7177 31.0588C27.4855 31.0588 30.5857 28.2195 31.0059 24.5646H36.7766C37.186 27.2803 39.5229 29.3646 42.3532 29.3646C45.472 29.3646 48.0002 26.8353 48.0002 23.7176C48.0002 20.5994 45.472 18.0707 42.3532 18.0707ZM14.1179 11.8589C11.9386 11.8589 10.165 10.085 10.165 7.90591C10.165 5.72679 11.9387 3.95295 14.1179 3.95295C16.2972 3.95295 18.0709 5.72669 18.0709 7.90591C18.0709 10.0851 16.2972 11.8589 14.1179 11.8589ZM18.6356 40.0941C18.6355 42.2734 16.8618 44.0471 14.6827 44.0471C12.5035 44.0471 10.7297 42.2733 10.7297 40.0941C10.7297 37.9149 12.5035 36.1412 14.6827 36.1412C16.8619 36.1412 18.6356 37.9148 18.6356 40.0941ZM23.7178 29.3647C20.604 29.3647 18.0708 26.8314 18.0708 23.7177C18.0708 20.604 20.6041 18.0707 23.7178 18.0707C26.8315 18.0707 29.3649 20.604 29.3649 23.7177C29.3649 26.8314 26.8317 29.3647 23.7178 29.3647ZM42.3532 27.6707C40.174 27.6707 38.4002 25.8969 38.4002 23.7177C38.4002 21.5384 40.174 19.7647 42.3532 19.7647C44.5324 19.7647 46.3061 21.5385 46.3061 23.7177C46.3061 25.897 44.5323 27.6707 42.3532 27.6707Z" fill="#343437"/>
</svg>
