<svg width="50" height="50" viewBox="0 0 50 50" fill="none" xmlns="http://www.w3.org/2000/svg">
<circle cx="10" cy="10" r="10" fill="#28B86A"/>
<path d="M45.3871 10.5258C45.0681 10.0771 44.4452 9.9721 43.9966 10.2906C43.5473 10.6096 43.4429 11.2324 43.7613 11.6811C46.4342 15.4412 48.0055 20.0324 48.0061 24.9992C48.0054 31.3558 45.433 37.1009 41.2679 41.2673C37.1022 45.4324 31.3571 48.0048 25.0004 48.0055C19.2846 48.0048 14.0659 45.919 10.0411 42.4719L14.0381 41.645C14.5779 41.5333 14.9241 41.0063 14.8124 40.4671C14.7007 39.9274 14.1737 39.5811 13.6345 39.6928L7.01076 41.0634L6.89445 47.8262C6.88449 48.3773 7.32385 48.8306 7.87492 48.8407C8.42531 48.8499 8.87932 48.4113 8.88859 47.8609L8.95236 44.1604C13.2935 47.8003 18.8931 50.0005 25.0004 49.9998C38.8084 49.9989 49.9994 38.8073 50.0001 24.9992C50.0001 19.6097 48.2911 14.6085 45.3871 10.5258Z" fill="white"/>
<path d="M42.1806 0.907715C41.6302 0.898438 41.1755 1.33711 41.1669 1.88818L41.099 5.87637C36.7512 2.21182 31.1303 0.000293127 24.9997 0.000976721C11.1918 0.00175797 0.000683818 11.1935 2.24071e-07 25.0001C-0.00068337 30.1549 1.56279 34.9535 4.23877 38.933C4.54658 39.3903 5.16602 39.5113 5.62275 39.2043C6.08008 38.8973 6.20108 38.2771 5.89404 37.8203C3.43135 34.1558 1.99482 29.7509 1.99482 25.0001C1.99551 18.6441 4.56787 12.899 8.73301 8.73262C12.8987 4.56826 18.6438 1.9959 25.0005 1.99512C30.6093 1.9958 35.7401 4.00186 39.7324 7.33535L36.0187 8.10371C35.4789 8.21465 35.1326 8.74248 35.2443 9.28164C35.3561 9.82139 35.8831 10.1677 36.4223 10.056L43.046 8.68535L43.161 1.92119C43.1703 1.371 42.7316 0.916992 42.1806 0.907715Z" fill="white"/>
<path d="M31.5498 16.9963C31.131 16.6387 30.5015 16.6892 30.1446 17.108L17.755 31.6445C17.3974 32.0633 17.4479 32.6928 17.8674 33.0503C18.2856 33.4066 18.915 33.3567 19.2726 32.9373L31.6621 18.4021C32.019 17.9826 31.9692 17.3539 31.5498 16.9963Z" fill="white"/>
<path d="M35.6608 34.9725C35.0154 35.3453 34.2782 35.5594 33.4853 35.5602C32.2801 35.5595 31.1974 35.0743 30.4057 34.2846C30.2002 34.0791 30.0175 33.8531 29.8566 33.6111H34.3288C34.8792 33.6111 35.3259 33.1645 35.3259 32.6141C35.3259 32.063 34.8792 31.617 34.3288 31.617H29.1514C29.1387 31.4814 29.1307 31.3444 29.1307 31.2055C29.1307 31.0665 29.1393 30.929 29.1514 30.7934H34.3288C34.8792 30.7934 35.3259 30.3474 35.3259 29.7963C35.3259 29.2452 34.8792 28.7992 34.3288 28.7992H29.8566C30.0175 28.5572 30.201 28.3313 30.4057 28.1258C31.1967 27.3361 32.2796 26.851 33.4853 26.8503C34.2776 26.8503 35.0161 27.065 35.6608 27.4379C36.1374 27.7138 36.7477 27.5509 37.0235 27.0743C37.2994 26.5978 37.1372 25.9875 36.6605 25.7116H36.6599C35.7299 25.1726 34.6418 24.8555 33.4853 24.8555C30.8311 24.8562 28.5598 26.4859 27.6112 28.7985H27.0063C26.4553 28.7985 26.0093 29.2445 26.0093 29.7956C26.0093 30.3467 26.4553 30.7927 27.0063 30.7927H27.1572C27.1486 30.9296 27.1365 31.0658 27.1365 31.2048C27.1365 31.3437 27.1492 31.48 27.1572 31.6162H27.0063C26.4553 31.6162 26.0093 32.0622 26.0093 32.6133C26.0093 33.1637 26.4553 33.6104 27.0063 33.6104H27.6112C28.5599 35.9229 30.8304 37.5534 33.4853 37.5534C34.6419 37.5534 35.7293 37.237 36.6605 36.6973C37.1371 36.4214 37.2993 35.8112 37.0235 35.3353C36.7476 34.8595 36.1375 34.6967 35.6608 34.9725Z" fill="white"/>
<path d="M19.1934 13.981H20.976L17.2668 17.7066C16.6183 18.3548 15.7444 18.7182 14.834 18.7182C13.9235 18.7182 13.0496 18.3548 12.4011 17.7066L8.68989 13.981H10.4746L13.2925 16.8101C13.7028 17.2209 14.2561 17.4513 14.8326 17.4513C15.4091 17.4513 15.9624 17.2209 16.3727 16.8101L19.1934 13.981ZM10.4527 24.3399H8.66797L12.4018 20.592C13.0503 19.9442 13.9239 19.5811 14.834 19.5811C15.7441 19.5811 16.6177 19.9442 17.2661 20.592L21 24.3399H19.2153L16.3755 21.4864C15.9652 21.0756 15.4119 20.8452 14.8354 20.8452C14.2588 20.8452 13.7055 21.0756 13.2952 21.4864L10.4527 24.3399Z" fill="white" stroke="white" stroke-width="0.75" stroke-linejoin="round"/>
</svg>
