<svg width="156" height="124" viewBox="0 0 156 124" fill="none" xmlns="http://www.w3.org/2000/svg">
<mask id="mask0" mask-type="alpha" maskUnits="userSpaceOnUse" x="0" y="0" width="156" height="124">
<path d="M0.5 0.5H155.5V114C155.5 119.247 151.247 123.5 146 123.5H0.5V0.5Z" fill="#232325" stroke="url(#paint0_linear)"/>
</mask>
<g mask="url(#mask0)">
<path d="M1364.41 804.371C1364.38 804.305 1364.3 804.285 1364.25 804.336L1240.21 936.18C1202.79 976.014 1202.79 1040.56 1240.21 1080.39L1364.13 1212.11C1364.18 1212.16 1364.27 1212.13 1364.27 1212.05V1212.05C1364.27 1211.98 1364.35 1211.95 1364.4 1212L1527.68 1385.53C1586.81 1448.39 1586.81 1550.3 1527.68 1613.16L1364.27 1786.83L1357.28 1794.15L1195.8 1969.6C1137.31 2033.15 1042.5 2033.15 984.016 1969.6L822.568 1794.09C822.52 1794.03 822.557 1793.95 822.627 1793.95V1793.95C822.698 1793.95 822.734 1793.87 822.687 1793.82L700.413 1661.01C663.354 1620.78 603.305 1620.78 566.245 1661.01L443.51 1794.41C443.491 1794.43 443.463 1794.45 443.433 1794.45V1794.45C443.404 1794.45 443.376 1794.46 443.356 1794.48L282.275 1969.6C223.789 2033.15 128.979 2033.15 70.4926 1969.6L-91.0798 1793.95L-97.241 1787.82L-260.653 1614.25C-319.782 1551.39 -319.782 1449.48 -260.653 1386.61L-97.1491 1213.24L26.9959 1081.28C64.4234 1041.45 64.4234 976.904 26.9959 937.069L-96.9216 805.355C-96.9703 805.303 -97.0571 805.338 -97.0571 805.409V805.409C-97.0571 805.48 -97.1439 805.514 -97.1926 805.462L-260.469 631.937C-319.599 569.072 -319.599 467.163 -260.469 404.298L-97.0571 230.629L-90.0682 223.314L71.5042 47.6678C129.99 -15.8891 224.8 -15.8891 283.286 47.6678L444.611 223.244C444.671 223.309 444.625 223.413 444.537 223.413V223.413C444.449 223.413 444.403 223.518 444.463 223.582L566.705 356.359C603.764 396.588 663.814 396.588 700.873 356.359L823.545 223.02C823.605 222.956 823.689 222.919 823.777 222.919V222.919C823.865 222.919 823.949 222.882 824.008 222.817L985.119 47.7668C1043.61 -15.7901 1138.42 -15.7901 1196.9 47.7668L1358.29 223.413L1364.45 229.541L1527.86 403.211C1586.99 466.076 1586.99 567.984 1527.86 630.849L1364.56 804.406C1364.51 804.456 1364.43 804.437 1364.41 804.371V804.371Z" stroke="url(#paint1_linear)" stroke-width="1.75" stroke-miterlimit="10" stroke-linecap="round"/>
<path d="M1364.41 804.371C1364.38 804.305 1364.3 804.285 1364.25 804.336L1240.21 936.18C1202.79 976.014 1202.79 1040.56 1240.21 1080.39L1364.13 1212.11C1364.18 1212.16 1364.27 1212.13 1364.27 1212.05V1212.05C1364.27 1211.98 1364.35 1211.95 1364.4 1212L1527.68 1385.53C1586.81 1448.39 1586.81 1550.3 1527.68 1613.16L1364.27 1786.83L1357.28 1794.15L1195.8 1969.6C1137.31 2033.15 1042.5 2033.15 984.016 1969.6L822.568 1794.09C822.52 1794.03 822.557 1793.95 822.627 1793.95V1793.95C822.698 1793.95 822.734 1793.87 822.687 1793.82L700.413 1661.01C663.354 1620.78 603.305 1620.78 566.245 1661.01L443.51 1794.41C443.491 1794.43 443.463 1794.45 443.433 1794.45V1794.45C443.404 1794.45 443.376 1794.46 443.356 1794.48L282.275 1969.6C223.789 2033.15 128.979 2033.15 70.4926 1969.6L-91.0798 1793.95L-97.241 1787.82L-260.653 1614.25C-319.782 1551.39 -319.782 1449.48 -260.653 1386.61L-97.1491 1213.24L26.9959 1081.28C64.4234 1041.45 64.4234 976.904 26.9959 937.069L-96.9216 805.355C-96.9703 805.303 -97.0571 805.338 -97.0571 805.409V805.409C-97.0571 805.48 -97.1439 805.514 -97.1926 805.462L-260.469 631.937C-319.599 569.072 -319.599 467.163 -260.469 404.298L-97.0571 230.629L-90.0682 223.314L71.5042 47.6678C129.99 -15.8891 224.8 -15.8891 283.286 47.6678L444.611 223.244C444.671 223.309 444.625 223.413 444.537 223.413V223.413C444.449 223.413 444.403 223.518 444.463 223.582L566.705 356.359C603.764 396.588 663.814 396.588 700.873 356.359L823.545 223.02C823.605 222.956 823.689 222.919 823.777 222.919V222.919C823.865 222.919 823.949 222.882 824.008 222.817L985.119 47.7668C1043.61 -15.7901 1138.42 -15.7901 1196.9 47.7668L1358.29 223.413L1364.45 229.541L1527.86 403.211C1586.99 466.076 1586.99 567.984 1527.86 630.849L1364.56 804.406C1364.51 804.456 1364.43 804.437 1364.41 804.371V804.371Z" stroke="url(#paint2_linear)" stroke-width="1.75" stroke-miterlimit="10" stroke-linecap="round"/>
<path d="M1357.92 806.199C1357.88 806.104 1357.75 806.084 1357.68 806.16L1234.88 936.772C1197.73 976.211 1197.73 1040.16 1234.88 1079.6L1357.69 1210.13C1357.74 1210.18 1357.83 1210.15 1357.83 1210.08V1210.08C1357.83 1210.01 1357.91 1209.97 1357.96 1210.02L1519.77 1381.97C1578.35 1444.24 1578.35 1545.26 1519.77 1607.53L1357.83 1779.62L1350.93 1786.83L1190.74 1961C1132.8 2023.96 1038.82 2023.96 980.887 1961L820.911 1787.07C820.863 1787.02 820.9 1786.93 820.97 1786.93V1786.93C821.04 1786.93 821.077 1786.85 821.029 1786.8L699.952 1655.17C663.26 1615.24 603.762 1615.24 567.071 1655.17L445.502 1787.23C445.442 1787.29 445.359 1787.33 445.271 1787.33V1787.33C445.183 1787.33 445.099 1787.36 445.039 1787.43L285.399 1961C227.465 2023.96 133.483 2023.96 75.5485 1961L-84.5526 1786.93L-90.7138 1780.9L-252.562 1608.81C-311.14 1546.54 -311.14 1445.52 -252.562 1383.25L-90.5299 1211.36L32.4196 1080.59C69.5712 1041.15 69.5712 977.199 32.4196 937.76L-90.3944 807.232C-90.4431 807.181 -90.5299 807.215 -90.5299 807.286V807.286C-90.5299 807.357 -90.6167 807.391 -90.6654 807.34L-252.47 635.396C-311.048 573.124 -311.048 472.105 -252.47 409.833L-90.5299 237.745L-83.633 230.529L76.4681 56.4645C134.402 -6.49938 228.385 -6.49938 286.319 56.4645L446.296 230.394C446.343 230.446 446.307 230.529 446.236 230.529V230.529C446.166 230.529 446.129 230.613 446.177 230.665L567.346 362.289C604.038 402.222 663.536 402.222 700.228 362.289L821.796 230.236C821.856 230.171 821.94 230.134 822.028 230.134V230.134C822.115 230.134 822.199 230.097 822.259 230.033L981.899 56.5633C1039.83 -6.40053 1133.82 -6.40053 1191.75 56.5633L1351.85 230.628L1358.01 236.658L1519.95 408.746C1578.53 471.018 1578.53 572.037 1519.95 634.308L1358.16 806.238C1358.09 806.314 1357.96 806.294 1357.92 806.199V806.199Z" stroke="url(#paint3_linear)" stroke-width="1.75" stroke-miterlimit="10" stroke-linecap="round"/>
<path d="M1357.92 806.199C1357.88 806.104 1357.75 806.084 1357.68 806.16L1234.88 936.772C1197.73 976.211 1197.73 1040.16 1234.88 1079.6L1357.69 1210.13C1357.74 1210.18 1357.83 1210.15 1357.83 1210.08V1210.08C1357.83 1210.01 1357.91 1209.97 1357.96 1210.02L1519.77 1381.97C1578.35 1444.24 1578.35 1545.26 1519.77 1607.53L1357.83 1779.62L1350.93 1786.83L1190.74 1961C1132.8 2023.96 1038.82 2023.96 980.887 1961L820.911 1787.07C820.863 1787.02 820.9 1786.93 820.97 1786.93V1786.93C821.04 1786.93 821.077 1786.85 821.029 1786.8L699.952 1655.17C663.26 1615.24 603.762 1615.24 567.071 1655.17L445.502 1787.23C445.442 1787.29 445.359 1787.33 445.271 1787.33V1787.33C445.183 1787.33 445.099 1787.36 445.039 1787.43L285.399 1961C227.465 2023.96 133.483 2023.96 75.5485 1961L-84.5526 1786.93L-90.7138 1780.9L-252.562 1608.81C-311.14 1546.54 -311.14 1445.52 -252.562 1383.25L-90.5299 1211.36L32.4196 1080.59C69.5712 1041.15 69.5712 977.199 32.4196 937.76L-90.3944 807.232C-90.4431 807.181 -90.5299 807.215 -90.5299 807.286V807.286C-90.5299 807.357 -90.6167 807.391 -90.6654 807.34L-252.47 635.396C-311.048 573.124 -311.048 472.105 -252.47 409.833L-90.5299 237.745L-83.633 230.529L76.4681 56.4645C134.402 -6.49938 228.385 -6.49938 286.319 56.4645L446.296 230.394C446.343 230.446 446.307 230.529 446.236 230.529V230.529C446.166 230.529 446.129 230.613 446.177 230.665L567.346 362.289C604.038 402.222 663.536 402.222 700.228 362.289L821.796 230.236C821.856 230.171 821.94 230.134 822.028 230.134V230.134C822.115 230.134 822.199 230.097 822.259 230.033L981.899 56.5633C1039.83 -6.40053 1133.82 -6.40053 1191.75 56.5633L1351.85 230.628L1358.01 236.658L1519.95 408.746C1578.53 471.018 1578.53 572.037 1519.95 634.308L1358.16 806.238C1358.09 806.314 1357.96 806.294 1357.92 806.199V806.199Z" stroke="url(#paint4_linear)" stroke-width="1.75" stroke-miterlimit="10" stroke-linecap="round"/>
<path d="M1351.3 808.028C1351.26 807.953 1351.15 807.943 1351.09 808.007L1229.36 937.465C1192.58 976.607 1192.58 1039.97 1229.36 1079.01L1351.08 1208.35C1351.12 1208.4 1351.21 1208.37 1351.21 1208.3V1208.3C1351.21 1208.23 1351.3 1208.19 1351.35 1208.24L1511.68 1378.61C1569.8 1440.38 1569.8 1540.42 1511.68 1602.19L1351.21 1772.7L1344.41 1779.82L1185.68 1952.3C1128.21 2014.77 1035.15 2014.77 977.672 1952.3L819.167 1779.95C819.119 1779.9 819.156 1779.82 819.226 1779.82V1779.82C819.297 1779.82 819.333 1779.73 819.286 1779.68L699.22 1649.24C662.804 1609.71 603.858 1609.71 567.534 1649.24L447.161 1780.21C447.101 1780.27 447.017 1780.31 446.929 1780.31V1780.31C446.841 1780.31 446.758 1780.35 446.698 1780.41L288.53 1952.3C231.055 2014.77 137.992 2014.77 80.5177 1952.3L-78.0201 1779.92L-84.0894 1773.98L-244.558 1603.38C-302.677 1541.6 -302.677 1441.57 -244.558 1379.79L-83.9974 1209.48L37.8486 1080C74.6323 1040.86 74.6323 977.497 37.8486 938.453L-83.8619 809.111C-83.9106 809.059 -83.9974 809.094 -83.9974 809.165V809.165C-83.9974 809.236 -84.0842 809.27 -84.1329 809.218L-244.466 638.856C-302.585 577.078 -302.585 477.048 -244.466 415.27L-83.9974 244.763L-77.1924 237.647L81.4373 65.1631C138.912 2.69349 231.975 2.69349 289.449 65.1631L447.954 237.511C448.002 237.563 447.965 237.647 447.895 237.647V237.647C447.825 237.647 447.788 237.73 447.836 237.782L567.902 368.22C604.318 407.758 663.264 407.758 699.587 368.22L820.053 237.353C820.112 237.288 820.196 237.251 820.284 237.251V237.251C820.372 237.251 820.456 237.214 820.515 237.15L978.684 65.1632C1036.16 2.69352 1129.22 2.69352 1186.7 65.1632L1345.33 237.647L1351.39 243.577L1511.86 414.084C1569.98 475.862 1569.98 575.892 1511.86 637.67L1351.51 808.049C1351.45 808.113 1351.35 808.103 1351.3 808.028V808.028Z" stroke="url(#paint5_linear)" stroke-width="1.75" stroke-miterlimit="10" stroke-linecap="round"/>
<path d="M1351.3 808.028C1351.26 807.953 1351.15 807.943 1351.09 808.007L1229.36 937.465C1192.58 976.607 1192.58 1039.97 1229.36 1079.01L1351.08 1208.35C1351.12 1208.4 1351.21 1208.37 1351.21 1208.3V1208.3C1351.21 1208.23 1351.3 1208.19 1351.35 1208.24L1511.68 1378.61C1569.8 1440.38 1569.8 1540.42 1511.68 1602.19L1351.21 1772.7L1344.41 1779.82L1185.68 1952.3C1128.21 2014.77 1035.15 2014.77 977.672 1952.3L819.167 1779.95C819.119 1779.9 819.156 1779.82 819.226 1779.82V1779.82C819.297 1779.82 819.333 1779.73 819.286 1779.68L699.22 1649.24C662.804 1609.71 603.858 1609.71 567.534 1649.24L447.161 1780.21C447.101 1780.27 447.017 1780.31 446.929 1780.31V1780.31C446.841 1780.31 446.758 1780.35 446.698 1780.41L288.53 1952.3C231.055 2014.77 137.992 2014.77 80.5177 1952.3L-78.0201 1779.92L-84.0894 1773.98L-244.558 1603.38C-302.677 1541.6 -302.677 1441.57 -244.558 1379.79L-83.9974 1209.48L37.8486 1080C74.6323 1040.86 74.6323 977.497 37.8486 938.453L-83.8619 809.111C-83.9106 809.059 -83.9974 809.094 -83.9974 809.165V809.165C-83.9974 809.236 -84.0842 809.27 -84.1329 809.218L-244.466 638.856C-302.585 577.078 -302.585 477.048 -244.466 415.27L-83.9974 244.763L-77.1924 237.647L81.4373 65.1631C138.912 2.69349 231.975 2.69349 289.449 65.1631L447.954 237.511C448.002 237.563 447.965 237.647 447.895 237.647V237.647C447.825 237.647 447.788 237.73 447.836 237.782L567.902 368.22C604.318 407.758 663.264 407.758 699.587 368.22L820.053 237.353C820.112 237.288 820.196 237.251 820.284 237.251V237.251C820.372 237.251 820.456 237.214 820.515 237.15L978.684 65.1632C1036.16 2.69352 1129.22 2.69352 1186.7 65.1632L1345.33 237.647L1351.39 243.577L1511.86 414.084C1569.98 475.862 1569.98 575.892 1511.86 637.67L1351.51 808.049C1351.45 808.113 1351.35 808.103 1351.3 808.028V808.028Z" stroke="url(#paint6_linear)" stroke-width="1.75" stroke-miterlimit="10" stroke-linecap="round"/>
<path d="M1344.73 809.807C1344.7 809.78 1344.66 809.78 1344.63 809.807L1223.94 938.057C1187.52 976.804 1187.52 1039.57 1223.94 1078.32L1344.55 1206.47C1344.59 1206.53 1344.68 1206.49 1344.68 1206.42V1206.42C1344.68 1206.35 1344.77 1206.31 1344.82 1206.37L1503.68 1375.15C1561.25 1436.33 1561.25 1535.47 1503.68 1596.66L1344.68 1765.58L1337.88 1772.7L1180.63 1943.7C1123.7 2005.58 1031.47 2005.58 974.545 1943.7L817.511 1772.93C817.464 1772.88 817.5 1772.8 817.571 1772.8V1772.8C817.641 1772.8 817.678 1772.71 817.63 1772.66L698.667 1643.41C662.619 1604.27 604.225 1604.27 568.177 1643.41L448.908 1773.09C448.848 1773.16 448.764 1773.19 448.676 1773.19V1773.19C448.588 1773.19 448.504 1773.23 448.445 1773.29L291.748 1943.7C234.825 2005.58 142.59 2005.58 85.6671 1943.7L-71.5832 1772.8L-77.6525 1766.87L-236.558 1597.94C-294.125 1536.76 -294.125 1437.62 -236.558 1376.43L-77.4686 1207.7L43.2739 1079.31C79.6898 1040.56 79.6898 977.793 43.2739 939.046L-77.3331 810.89C-77.3817 810.838 -77.4686 810.873 -77.4686 810.944V810.944C-77.4686 811.015 -77.5554 811.049 -77.604 810.997L-236.466 642.216C-294.033 581.032 -294.033 481.891 -236.466 420.706L-77.4685 251.781L-70.6636 244.665L86.5867 73.7627C143.509 11.8862 235.745 11.8862 292.667 73.7627L449.701 244.43C449.749 244.482 449.712 244.566 449.642 244.566V244.566C449.571 244.566 449.535 244.649 449.582 244.701L568.453 373.953C604.501 413.095 662.895 413.095 698.943 373.953L818.305 244.272C818.364 244.207 818.448 244.17 818.536 244.17V244.17C818.624 244.17 818.708 244.133 818.768 244.069L975.465 73.6639C1032.39 11.7874 1124.62 11.7874 1181.55 73.6639L1338.7 244.566L1344.77 250.496L1503.77 419.421C1561.34 480.606 1561.34 579.747 1503.77 640.931L1344.82 809.807C1344.79 809.834 1344.75 809.834 1344.73 809.807V809.807Z" stroke="url(#paint7_linear)" stroke-width="1.75" stroke-miterlimit="10" stroke-linecap="round"/>
<path d="M1344.73 809.807C1344.7 809.78 1344.66 809.78 1344.63 809.807L1223.94 938.057C1187.52 976.804 1187.52 1039.57 1223.94 1078.32L1344.55 1206.47C1344.59 1206.53 1344.68 1206.49 1344.68 1206.42V1206.42C1344.68 1206.35 1344.77 1206.31 1344.82 1206.37L1503.68 1375.15C1561.25 1436.33 1561.25 1535.47 1503.68 1596.66L1344.68 1765.58L1337.88 1772.7L1180.63 1943.7C1123.7 2005.58 1031.47 2005.58 974.545 1943.7L817.511 1772.93C817.464 1772.88 817.5 1772.8 817.571 1772.8V1772.8C817.641 1772.8 817.678 1772.71 817.63 1772.66L698.667 1643.41C662.619 1604.27 604.225 1604.27 568.177 1643.41L448.908 1773.09C448.848 1773.16 448.764 1773.19 448.676 1773.19V1773.19C448.588 1773.19 448.504 1773.23 448.445 1773.29L291.748 1943.7C234.825 2005.58 142.59 2005.58 85.6671 1943.7L-71.5832 1772.8L-77.6525 1766.87L-236.558 1597.94C-294.125 1536.76 -294.125 1437.62 -236.558 1376.43L-77.4686 1207.7L43.2739 1079.31C79.6898 1040.56 79.6898 977.793 43.2739 939.046L-77.3331 810.89C-77.3817 810.838 -77.4686 810.873 -77.4686 810.944V810.944C-77.4686 811.015 -77.5554 811.049 -77.604 810.997L-236.466 642.216C-294.033 581.032 -294.033 481.891 -236.466 420.706L-77.4685 251.781L-70.6636 244.665L86.5867 73.7627C143.509 11.8862 235.745 11.8862 292.667 73.7627L449.701 244.43C449.749 244.482 449.712 244.566 449.642 244.566V244.566C449.571 244.566 449.535 244.649 449.582 244.701L568.453 373.953C604.501 413.095 662.895 413.095 698.943 373.953L818.305 244.272C818.364 244.207 818.448 244.17 818.536 244.17V244.17C818.624 244.17 818.708 244.133 818.768 244.069L975.465 73.6639C1032.39 11.7874 1124.62 11.7874 1181.55 73.6639L1338.7 244.566L1344.77 250.496L1503.77 419.421C1561.34 480.606 1561.34 579.747 1503.77 640.931L1344.82 809.807C1344.79 809.834 1344.75 809.834 1344.73 809.807V809.807Z" stroke="url(#paint8_linear)" stroke-width="1.75" stroke-miterlimit="10" stroke-linecap="round"/>
<path d="M1338.29 811.636C1338.21 811.58 1338.1 811.59 1338.04 811.661L1218.52 938.75C1182.38 977.102 1182.38 1039.37 1218.52 1077.73L1338.02 1204.7C1338.07 1204.75 1338.15 1204.71 1338.15 1204.64V1204.64C1338.15 1204.57 1338.24 1204.54 1338.29 1204.59L1495.68 1371.89C1552.7 1432.48 1552.7 1530.73 1495.68 1591.32L1338.15 1758.76L1331.44 1765.78L1175.57 1935C1119.2 1996.29 1027.79 1996.29 971.421 1935L815.766 1765.82C815.719 1765.77 815.755 1765.68 815.826 1765.68V1765.68C815.896 1765.68 815.933 1765.6 815.885 1765.55L698.118 1637.58C662.438 1598.73 604.503 1598.73 568.823 1637.58L450.565 1766.07C450.505 1766.14 450.422 1766.18 450.334 1766.18V1766.18C450.246 1766.18 450.162 1766.21 450.102 1766.28L294.785 1935.1C238.414 1996.38 147.006 1996.38 90.635 1935.1L-65.1439 1765.78L-71.1213 1759.95L-228.464 1592.51C-285.478 1531.91 -285.478 1433.66 -228.464 1373.07L-70.8454 1205.93L48.7936 1078.71C84.9336 1040.36 84.9336 978.09 48.7936 939.738L-70.7099 812.67C-70.7586 812.618 -70.8454 812.653 -70.8454 812.724V812.724C-70.8454 812.795 -70.9322 812.829 -70.9809 812.777L-228.372 645.479C-285.386 584.887 -285.386 486.636 -228.372 426.044L-70.8454 258.602L-64.1324 251.584L91.6466 82.2637C148.018 20.9802 239.425 20.9802 295.796 82.2637L451.451 251.449C451.498 251.5 451.461 251.584 451.391 251.584V251.584C451.321 251.584 451.284 251.668 451.332 251.719L569.191 379.785C604.871 418.631 662.805 418.631 698.486 379.785L816.744 251.29C816.803 251.226 816.887 251.189 816.975 251.189V251.189C817.063 251.189 817.147 251.152 817.207 251.087L972.524 82.2637C1028.9 20.9802 1120.3 20.9802 1176.67 82.2637L1332.45 251.584L1338.43 257.416L1495.96 424.858C1552.97 485.45 1552.97 583.701 1495.96 644.293L1338.55 811.611C1338.48 811.682 1338.37 811.693 1338.29 811.636V811.636Z" stroke="url(#paint9_linear)" stroke-width="1.75" stroke-miterlimit="10" stroke-linecap="round"/>
<path d="M1338.29 811.636C1338.21 811.58 1338.1 811.59 1338.04 811.661L1218.52 938.75C1182.38 977.102 1182.38 1039.37 1218.52 1077.73L1338.02 1204.7C1338.07 1204.75 1338.15 1204.71 1338.15 1204.64V1204.64C1338.15 1204.57 1338.24 1204.54 1338.29 1204.59L1495.68 1371.89C1552.7 1432.48 1552.7 1530.73 1495.68 1591.32L1338.15 1758.76L1331.44 1765.78L1175.57 1935C1119.2 1996.29 1027.79 1996.29 971.421 1935L815.766 1765.82C815.719 1765.77 815.755 1765.68 815.826 1765.68V1765.68C815.896 1765.68 815.933 1765.6 815.885 1765.55L698.118 1637.58C662.438 1598.73 604.503 1598.73 568.823 1637.58L450.565 1766.07C450.505 1766.14 450.422 1766.18 450.334 1766.18V1766.18C450.246 1766.18 450.162 1766.21 450.102 1766.28L294.785 1935.1C238.414 1996.38 147.006 1996.38 90.635 1935.1L-65.1439 1765.78L-71.1213 1759.95L-228.464 1592.51C-285.478 1531.91 -285.478 1433.66 -228.464 1373.07L-70.8454 1205.93L48.7936 1078.71C84.9336 1040.36 84.9336 978.09 48.7936 939.738L-70.7099 812.67C-70.7586 812.618 -70.8454 812.653 -70.8454 812.724V812.724C-70.8454 812.795 -70.9322 812.829 -70.9809 812.777L-228.372 645.479C-285.386 584.887 -285.386 486.636 -228.372 426.044L-70.8454 258.602L-64.1324 251.584L91.6466 82.2637C148.018 20.9802 239.425 20.9802 295.796 82.2637L451.451 251.449C451.498 251.5 451.461 251.584 451.391 251.584V251.584C451.321 251.584 451.284 251.668 451.332 251.719L569.191 379.785C604.871 418.631 662.805 418.631 698.486 379.785L816.744 251.29C816.803 251.226 816.887 251.189 816.975 251.189V251.189C817.063 251.189 817.147 251.152 817.207 251.087L972.524 82.2637C1028.9 20.9802 1120.3 20.9802 1176.67 82.2637L1332.45 251.584L1338.43 257.416L1495.96 424.858C1552.97 485.45 1552.97 583.701 1495.96 644.293L1338.55 811.611C1338.48 811.682 1338.37 811.693 1338.29 811.636V811.636Z" stroke="url(#paint10_linear)" stroke-width="1.75" stroke-miterlimit="10" stroke-linecap="round"/>
<path d="M1331.62 813.514C1331.57 813.461 1331.49 813.461 1331.44 813.514L1212.99 939.442C1177.22 977.497 1177.22 1039.08 1212.99 1077.13L1331.39 1202.82C1331.44 1202.87 1331.53 1202.83 1331.53 1202.76V1202.76C1331.53 1202.69 1331.62 1202.66 1331.67 1202.71L1487.58 1368.43C1544.05 1428.43 1544.05 1525.79 1487.58 1585.79L1331.53 1751.65L1324.91 1758.57L1170.6 1926.3C1114.78 1986.99 1024.2 1986.99 968.383 1926.3L814.108 1758.8C814.06 1758.75 814.097 1758.66 814.167 1758.66V1758.66C814.238 1758.66 814.274 1758.58 814.227 1758.53L697.471 1631.65C662.067 1593.2 604.776 1593.2 569.372 1631.65L452.309 1758.96C452.249 1759.02 452.166 1759.06 452.078 1759.06V1759.06C451.99 1759.06 451.906 1759.1 451.846 1759.16L298.092 1926.4C242.273 1987.09 151.693 1987.09 95.8735 1926.4L-58.4342 1758.66L-64.3196 1752.83L-220.374 1586.97C-276.837 1526.97 -276.837 1429.61 -220.374 1369.61L-64.2276 1203.95L54.3079 1077.92C90.08 1039.87 90.08 978.288 54.3079 940.233L-64.0002 814.449C-64.0488 814.398 -64.1356 814.432 -64.1356 814.503V814.503C-64.1356 814.574 -64.2224 814.608 -64.2711 814.557L-220.191 648.84C-276.653 588.841 -276.653 491.48 -220.191 431.481L-64.1356 265.62L-57.5146 258.701L96.7011 90.9623C152.52 30.2719 243.1 30.2719 298.92 90.9623L453.103 258.566C453.15 258.617 453.114 258.701 453.043 258.701V258.701C452.973 258.701 452.936 258.785 452.984 258.836L569.74 385.716C605.144 424.167 662.434 424.167 697.839 385.716L814.993 258.407C815.053 258.343 815.137 258.306 815.225 258.306V258.306C815.313 258.306 815.397 258.269 815.456 258.204L969.303 90.9623C1025.12 30.2719 1115.7 30.2719 1171.52 90.9623L1325.83 258.701L1331.71 264.533L1487.77 430.394C1544.23 490.392 1544.23 587.754 1487.77 647.753L1331.81 813.515C1331.76 813.568 1331.67 813.568 1331.62 813.514V813.514Z" stroke="url(#paint11_linear)" stroke-width="1.75" stroke-miterlimit="10" stroke-linecap="round"/>
<path d="M1331.62 813.514C1331.57 813.461 1331.49 813.461 1331.44 813.514L1212.99 939.442C1177.22 977.497 1177.22 1039.08 1212.99 1077.13L1331.39 1202.82C1331.44 1202.87 1331.53 1202.83 1331.53 1202.76V1202.76C1331.53 1202.69 1331.62 1202.66 1331.67 1202.71L1487.58 1368.43C1544.05 1428.43 1544.05 1525.79 1487.58 1585.79L1331.53 1751.65L1324.91 1758.57L1170.6 1926.3C1114.78 1986.99 1024.2 1986.99 968.383 1926.3L814.108 1758.8C814.06 1758.75 814.097 1758.66 814.167 1758.66V1758.66C814.238 1758.66 814.274 1758.58 814.227 1758.53L697.471 1631.65C662.067 1593.2 604.776 1593.2 569.372 1631.65L452.309 1758.96C452.249 1759.02 452.166 1759.06 452.078 1759.06V1759.06C451.99 1759.06 451.906 1759.1 451.846 1759.16L298.092 1926.4C242.273 1987.09 151.693 1987.09 95.8735 1926.4L-58.4342 1758.66L-64.3196 1752.83L-220.374 1586.97C-276.837 1526.97 -276.837 1429.61 -220.374 1369.61L-64.2276 1203.95L54.3079 1077.92C90.08 1039.87 90.08 978.288 54.3079 940.233L-64.0002 814.449C-64.0488 814.398 -64.1356 814.432 -64.1356 814.503V814.503C-64.1356 814.574 -64.2224 814.608 -64.2711 814.557L-220.191 648.84C-276.653 588.841 -276.653 491.48 -220.191 431.481L-64.1356 265.62L-57.5146 258.701L96.7011 90.9623C152.52 30.2719 243.1 30.2719 298.92 90.9623L453.103 258.566C453.15 258.617 453.114 258.701 453.043 258.701V258.701C452.973 258.701 452.936 258.785 452.984 258.836L569.74 385.716C605.144 424.167 662.434 424.167 697.839 385.716L814.993 258.407C815.053 258.343 815.137 258.306 815.225 258.306V258.306C815.313 258.306 815.397 258.269 815.456 258.204L969.303 90.9623C1025.12 30.2719 1115.7 30.2719 1171.52 90.9623L1325.83 258.701L1331.71 264.533L1487.77 430.394C1544.23 490.392 1544.23 587.754 1487.77 647.753L1331.81 813.515C1331.76 813.568 1331.67 813.568 1331.62 813.514V813.514Z" stroke="url(#paint12_linear)" stroke-width="1.75" stroke-miterlimit="10" stroke-linecap="round"/>
<path d="M1325.05 815.342C1325.02 815.276 1324.94 815.257 1324.89 815.307L1207.57 940.035C1172.16 977.694 1172.16 1038.78 1207.57 1076.44L1324.77 1201.04C1324.82 1201.09 1324.91 1201.05 1324.91 1200.98V1200.98C1324.91 1200.91 1324.99 1200.88 1325.04 1200.93L1479.49 1365.07C1535.4 1424.57 1535.4 1520.94 1479.49 1580.45L1324.91 1744.73L1318.29 1751.65L1165.45 1917.8C1110.09 1977.9 1020.43 1977.9 965.071 1917.8L812.359 1751.78C812.311 1751.73 812.348 1751.65 812.418 1751.65V1751.65C812.489 1751.65 812.525 1751.56 812.478 1751.51L696.826 1625.82C661.789 1587.76 604.958 1587.76 569.922 1625.82L454.055 1751.94C453.995 1752 453.911 1752.04 453.823 1752.04V1752.04C453.735 1752.04 453.652 1752.08 453.592 1752.14L301.217 1917.8C245.857 1977.9 156.197 1977.9 100.838 1917.8L-51.9986 1751.65L-57.884 1745.91L-212.467 1581.63C-268.379 1522.13 -268.379 1425.76 -212.467 1366.25L-57.792 1202.17L59.64 1077.33C95.0443 1039.67 95.0443 978.584 59.64 940.924L-57.5645 816.327C-57.6132 816.275 -57.7 816.309 -57.7 816.38V816.38C-57.7 816.451 -57.7868 816.486 -57.8355 816.434L-212.284 652.299C-268.195 592.794 -268.195 496.421 -212.284 436.917L-57.7 272.638L-51.079 265.719L101.757 99.5612C157.117 39.4638 246.777 39.4638 302.137 99.5612L454.848 265.583C454.896 265.635 454.859 265.719 454.789 265.719V265.719C454.719 265.719 454.682 265.802 454.729 265.854L570.29 391.547C605.326 429.602 662.157 429.602 697.194 391.547L813.245 265.425C813.304 265.36 813.388 265.323 813.476 265.323V265.323C813.564 265.323 813.648 265.286 813.707 265.222L966.082 99.5612C1021.44 39.4638 1111.1 39.4638 1166.46 99.5612L1319.3 265.719L1325.18 271.452L1479.77 435.731C1535.68 495.235 1535.68 591.608 1479.77 651.113L1325.2 815.378C1325.15 815.428 1325.07 815.409 1325.05 815.342V815.342Z" stroke="url(#paint13_linear)" stroke-width="1.75" stroke-miterlimit="10" stroke-linecap="round"/>
<path d="M1325.05 815.342C1325.02 815.276 1324.94 815.257 1324.89 815.307L1207.57 940.035C1172.16 977.694 1172.16 1038.78 1207.57 1076.44L1324.77 1201.04C1324.82 1201.09 1324.91 1201.05 1324.91 1200.98V1200.98C1324.91 1200.91 1324.99 1200.88 1325.04 1200.93L1479.49 1365.07C1535.4 1424.57 1535.4 1520.94 1479.49 1580.45L1324.91 1744.73L1318.29 1751.65L1165.45 1917.8C1110.09 1977.9 1020.43 1977.9 965.071 1917.8L812.359 1751.78C812.311 1751.73 812.348 1751.65 812.418 1751.65V1751.65C812.489 1751.65 812.525 1751.56 812.478 1751.51L696.826 1625.82C661.789 1587.76 604.958 1587.76 569.922 1625.82L454.055 1751.94C453.995 1752 453.911 1752.04 453.823 1752.04V1752.04C453.735 1752.04 453.652 1752.08 453.592 1752.14L301.217 1917.8C245.857 1977.9 156.197 1977.9 100.838 1917.8L-51.9986 1751.65L-57.884 1745.91L-212.467 1581.63C-268.379 1522.13 -268.379 1425.76 -212.467 1366.25L-57.792 1202.17L59.64 1077.33C95.0443 1039.67 95.0443 978.584 59.64 940.924L-57.5645 816.327C-57.6132 816.275 -57.7 816.309 -57.7 816.38V816.38C-57.7 816.451 -57.7868 816.486 -57.8355 816.434L-212.284 652.299C-268.195 592.794 -268.195 496.421 -212.284 436.917L-57.7 272.638L-51.079 265.719L101.757 99.5612C157.117 39.4638 246.777 39.4638 302.137 99.5612L454.848 265.583C454.896 265.635 454.859 265.719 454.789 265.719V265.719C454.719 265.719 454.682 265.802 454.729 265.854L570.29 391.547C605.326 429.602 662.157 429.602 697.194 391.547L813.245 265.425C813.304 265.36 813.388 265.323 813.476 265.323V265.323C813.564 265.323 813.648 265.286 813.707 265.222L966.082 99.5612C1021.44 39.4638 1111.1 39.4638 1166.46 99.5612L1319.3 265.719L1325.18 271.452L1479.77 435.731C1535.68 495.235 1535.68 591.608 1479.77 651.113L1325.2 815.378C1325.15 815.428 1325.07 815.409 1325.05 815.342V815.342Z" stroke="url(#paint14_linear)" stroke-width="1.75" stroke-miterlimit="10" stroke-linecap="round"/>
<path d="M1318.43 817.172C1318.4 817.125 1318.34 817.115 1318.31 817.153L1202.05 940.727C1166.92 977.992 1166.92 1038.48 1202.05 1075.85L1318.15 1199.26C1318.2 1199.31 1318.29 1199.28 1318.29 1199.21V1199.21C1318.29 1199.13 1318.38 1199.1 1318.42 1199.15L1471.4 1361.71C1526.85 1420.62 1526.85 1516.1 1471.4 1575.01L1318.38 1737.71L1311.85 1744.53L1160.49 1909.11C1105.68 1968.71 1016.85 1968.71 962.038 1909.11L810.798 1744.66C810.75 1744.61 810.787 1744.53 810.857 1744.53V1744.53C810.927 1744.53 810.964 1744.45 810.916 1744.39L696.276 1619.99C661.607 1582.23 605.328 1582.23 570.568 1619.99L455.681 1744.86C455.641 1744.9 455.585 1744.92 455.527 1744.92V1744.92C455.468 1744.92 455.412 1744.95 455.372 1744.99L304.346 1909.11C249.538 1968.71 160.705 1968.71 105.898 1909.11L-45.4673 1744.53L-51.2607 1738.8L-204.373 1576.1C-259.824 1517.19 -259.824 1421.7 -204.373 1362.79L-51.1688 1200.29L65.1597 1076.64C100.288 1039.37 100.288 978.881 65.1597 941.518L-50.9752 818.071C-51.0117 818.032 -51.0768 818.058 -51.0768 818.111V818.111C-51.0768 818.164 -51.1419 818.19 -51.1784 818.151L-204.189 655.561C-259.64 596.65 -259.64 501.167 -204.189 442.256L-51.0768 279.558L-44.5477 272.738L106.817 108.261C161.625 48.6575 250.458 48.6575 305.265 108.261L456.506 272.701C456.553 272.753 456.517 272.836 456.446 272.836V272.836C456.376 272.836 456.339 272.92 456.387 272.972L570.935 397.479C605.604 435.238 661.883 435.238 696.644 397.479L811.623 272.509C811.662 272.466 811.718 272.441 811.777 272.441V272.441C811.835 272.441 811.891 272.416 811.931 272.373L962.866 108.261C1017.67 48.6575 1106.51 48.6575 1161.31 108.261L1312.68 272.836L1318.47 278.569L1471.58 441.267C1527.04 500.178 1527.04 595.662 1471.58 654.573L1318.55 817.192C1318.51 817.23 1318.45 817.219 1318.43 817.172V817.172Z" stroke="url(#paint15_linear)" stroke-width="1.75" stroke-miterlimit="10" stroke-linecap="round"/>
<path d="M1318.43 817.172C1318.4 817.125 1318.34 817.115 1318.31 817.153L1202.05 940.727C1166.92 977.992 1166.92 1038.48 1202.05 1075.85L1318.15 1199.26C1318.2 1199.31 1318.29 1199.28 1318.29 1199.21V1199.21C1318.29 1199.13 1318.38 1199.1 1318.42 1199.15L1471.4 1361.71C1526.85 1420.62 1526.85 1516.1 1471.4 1575.01L1318.38 1737.71L1311.85 1744.53L1160.49 1909.11C1105.68 1968.71 1016.85 1968.71 962.038 1909.11L810.798 1744.66C810.75 1744.61 810.787 1744.53 810.857 1744.53V1744.53C810.927 1744.53 810.964 1744.45 810.916 1744.39L696.276 1619.99C661.607 1582.23 605.328 1582.23 570.568 1619.99L455.681 1744.86C455.641 1744.9 455.585 1744.92 455.527 1744.92V1744.92C455.468 1744.92 455.412 1744.95 455.372 1744.99L304.346 1909.11C249.538 1968.71 160.705 1968.71 105.898 1909.11L-45.4673 1744.53L-51.2607 1738.8L-204.373 1576.1C-259.824 1517.19 -259.824 1421.7 -204.373 1362.79L-51.1688 1200.29L65.1597 1076.64C100.288 1039.37 100.288 978.881 65.1597 941.518L-50.9752 818.071C-51.0117 818.032 -51.0768 818.058 -51.0768 818.111V818.111C-51.0768 818.164 -51.1419 818.19 -51.1784 818.151L-204.189 655.561C-259.64 596.65 -259.64 501.167 -204.189 442.256L-51.0768 279.558L-44.5477 272.738L106.817 108.261C161.625 48.6575 250.458 48.6575 305.265 108.261L456.506 272.701C456.553 272.753 456.517 272.836 456.446 272.836V272.836C456.376 272.836 456.339 272.92 456.387 272.972L570.935 397.479C605.604 435.238 661.883 435.238 696.644 397.479L811.623 272.509C811.662 272.466 811.718 272.441 811.777 272.441V272.441C811.835 272.441 811.891 272.416 811.931 272.373L962.866 108.261C1017.67 48.6575 1106.51 48.6575 1161.31 108.261L1312.68 272.836L1318.47 278.569L1471.58 441.267C1527.04 500.178 1527.04 595.662 1471.58 654.573L1318.55 817.192C1318.51 817.23 1318.45 817.219 1318.43 817.172V817.172Z" stroke="url(#paint16_linear)" stroke-width="1.75" stroke-miterlimit="10" stroke-linecap="round"/>
<path d="M-nan -nanL1311.85 818.951L1196.63 941.419C1161.87 978.387 1161.87 1038.29 1196.63 1075.25L1311.66 1197.52C1311.7 1197.55 1311.76 1197.53 1311.76 1197.48V1197.48C1311.76 1197.42 1311.83 1197.4 1311.86 1197.43L1463.4 1358.44C1518.3 1416.76 1518.3 1511.36 1463.4 1569.67L1311.76 1730.79L1305.32 1737.51L1155.43 1900.51C1101.17 1959.52 1013.17 1959.52 958.913 1900.51L809.144 1737.65C809.096 1737.59 809.133 1737.51 809.203 1737.51V1737.51C809.273 1737.51 809.31 1737.43 809.262 1737.38L695.817 1614.05C661.424 1576.69 605.697 1576.69 571.304 1614.05L457.429 1737.84C457.389 1737.88 457.334 1737.91 457.275 1737.91V1737.91C457.216 1737.91 457.16 1737.93 457.121 1737.97L307.565 1900.51C253.309 1959.52 165.304 1959.52 111.048 1900.51L-38.8453 1737.51L-44.5467 1731.88L-196.188 1570.76C-251.087 1512.44 -251.087 1417.85 -196.188 1359.53L-44.4548 1198.61L70.7702 1076.14C105.531 1039.18 105.531 979.276 70.7702 942.308L-44.2612 820.047C-44.2977 820.008 -44.3628 820.034 -44.3628 820.087V820.087C-44.3628 820.141 -44.4279 820.167 -44.4644 820.128L-196.004 659.119C-250.903 600.801 -250.903 506.207 -196.004 447.889L-44.3628 286.773L-37.9257 280.051L111.968 117.057C166.224 58.047 254.229 58.047 308.485 117.057L458.254 279.916C458.302 279.968 458.265 280.051 458.195 280.051V280.051C458.124 280.051 458.088 280.135 458.135 280.187L571.488 403.31C605.881 440.673 661.608 440.673 696.001 403.31L809.876 279.526C809.916 279.483 809.972 279.458 810.031 279.458V279.458C810.089 279.458 810.145 279.434 810.185 279.391L959.74 116.859C1014 57.8493 1102 57.8493 1156.26 116.859L1306.15 279.854L1311.85 285.488L1463.49 446.604C1518.39 504.922 1518.39 599.516 1463.49 657.834L1311.85 818.951L-nan -nanL-nan -nanZ" stroke="url(#paint17_linear)" stroke-width="1.75" stroke-miterlimit="10" stroke-linecap="round"/>
<path d="M-nan -nanL1311.85 818.951L1196.63 941.419C1161.87 978.387 1161.87 1038.29 1196.63 1075.25L1311.66 1197.52C1311.7 1197.55 1311.76 1197.53 1311.76 1197.48V1197.48C1311.76 1197.42 1311.83 1197.4 1311.86 1197.43L1463.4 1358.44C1518.3 1416.76 1518.3 1511.36 1463.4 1569.67L1311.76 1730.79L1305.32 1737.51L1155.43 1900.51C1101.17 1959.52 1013.17 1959.52 958.913 1900.51L809.144 1737.65C809.096 1737.59 809.133 1737.51 809.203 1737.51V1737.51C809.273 1737.51 809.31 1737.43 809.262 1737.38L695.817 1614.05C661.424 1576.69 605.697 1576.69 571.304 1614.05L457.429 1737.84C457.389 1737.88 457.334 1737.91 457.275 1737.91V1737.91C457.216 1737.91 457.16 1737.93 457.121 1737.97L307.565 1900.51C253.309 1959.52 165.304 1959.52 111.048 1900.51L-38.8453 1737.51L-44.5467 1731.88L-196.188 1570.76C-251.087 1512.44 -251.087 1417.85 -196.188 1359.53L-44.4548 1198.61L70.7702 1076.14C105.531 1039.18 105.531 979.276 70.7702 942.308L-44.2612 820.047C-44.2977 820.008 -44.3628 820.034 -44.3628 820.087V820.087C-44.3628 820.141 -44.4279 820.167 -44.4644 820.128L-196.004 659.119C-250.903 600.801 -250.903 506.207 -196.004 447.889L-44.3628 286.773L-37.9257 280.051L111.968 117.057C166.224 58.047 254.229 58.047 308.485 117.057L458.254 279.916C458.302 279.968 458.265 280.051 458.195 280.051V280.051C458.124 280.051 458.088 280.135 458.135 280.187L571.488 403.31C605.881 440.673 661.608 440.673 696.001 403.31L809.876 279.526C809.916 279.483 809.972 279.458 810.031 279.458V279.458C810.089 279.458 810.145 279.434 810.185 279.391L959.74 116.859C1014 57.8493 1102 57.8493 1156.26 116.859L1306.15 279.854L1311.85 285.488L1463.49 446.604C1518.39 504.922 1518.39 599.516 1463.49 657.834L1311.85 818.951L-nan -nanL-nan -nanZ" stroke="url(#paint18_linear)" stroke-width="1.75" stroke-miterlimit="10" stroke-linecap="round"/>
<path d="M1305.32 820.928C1305.27 820.833 1305.15 820.813 1305.08 820.889L1191.2 942.012C1156.8 978.585 1156.8 1037.89 1191.2 1074.46L1305.12 1195.54C1305.16 1195.58 1305.23 1195.55 1305.23 1195.5V1195.5C1305.23 1195.45 1305.29 1195.42 1305.33 1195.46L1455.4 1354.98C1509.74 1412.81 1509.74 1506.41 1455.4 1564.24L1305.23 1723.87L1298.79 1730.59L1150.27 1892.01C1096.48 1950.42 1009.39 1950.42 955.597 1892.01L807.207 1730.73C807.16 1730.68 807.196 1730.59 807.267 1730.59V1730.59C807.337 1730.59 807.374 1730.51 807.326 1730.46L695.076 1608.22C661.051 1571.26 605.876 1571.26 571.851 1608.22L459.079 1730.72C459.04 1730.77 458.984 1730.79 458.925 1730.79V1730.79C458.866 1730.79 458.81 1730.81 458.771 1730.86L310.687 1891.81C256.891 1950.22 169.805 1950.22 116.009 1891.81L-32.5053 1730.39L-38.2068 1724.76L-188.376 1565.13C-242.724 1507.3 -242.724 1413.7 -188.376 1355.87L-38.1148 1196.44L75.9147 1075.16C110.307 1038.58 110.307 979.277 75.9147 942.704L-38.0132 821.629C-38.0497 821.59 -38.1148 821.616 -38.1148 821.669V821.669C-38.1148 821.723 -38.18 821.748 -38.2165 821.71L-188.284 662.184C-242.632 604.36 -242.632 510.754 -188.284 452.931L-38.0229 293.594L-31.5857 286.872L116.929 125.558C170.725 67.1412 257.81 67.1412 311.606 125.558L459.996 286.836C460.044 286.887 460.007 286.971 459.937 286.971V286.971C459.866 286.971 459.83 287.055 459.877 287.106L572.127 409.143C606.152 446.11 661.327 446.11 695.352 409.143L808.124 286.643C808.164 286.6 808.22 286.576 808.278 286.576V286.576C808.337 286.576 808.393 286.551 808.432 286.508L956.517 125.558C1010.31 67.1412 1097.4 67.1412 1151.19 125.558L1299.71 286.971L1305.41 292.605L1455.58 452.239C1509.93 510.063 1509.93 603.668 1455.58 661.492L1305.56 820.967C1305.49 821.043 1305.36 821.023 1305.32 820.928V820.928Z" stroke="url(#paint19_linear)" stroke-width="1.75" stroke-miterlimit="10" stroke-linecap="round"/>
<path d="M1305.32 820.928C1305.27 820.833 1305.15 820.813 1305.08 820.889L1191.2 942.012C1156.8 978.585 1156.8 1037.89 1191.2 1074.46L1305.12 1195.54C1305.16 1195.58 1305.23 1195.55 1305.23 1195.5V1195.5C1305.23 1195.45 1305.29 1195.42 1305.33 1195.46L1455.4 1354.98C1509.74 1412.81 1509.74 1506.41 1455.4 1564.24L1305.23 1723.87L1298.79 1730.59L1150.27 1892.01C1096.48 1950.42 1009.39 1950.42 955.597 1892.01L807.207 1730.73C807.16 1730.68 807.196 1730.59 807.267 1730.59V1730.59C807.337 1730.59 807.374 1730.51 807.326 1730.46L695.076 1608.22C661.051 1571.26 605.876 1571.26 571.851 1608.22L459.079 1730.72C459.04 1730.77 458.984 1730.79 458.925 1730.79V1730.79C458.866 1730.79 458.81 1730.81 458.771 1730.86L310.687 1891.81C256.891 1950.22 169.805 1950.22 116.009 1891.81L-32.5053 1730.39L-38.2068 1724.76L-188.376 1565.13C-242.724 1507.3 -242.724 1413.7 -188.376 1355.87L-38.1148 1196.44L75.9147 1075.16C110.307 1038.58 110.307 979.277 75.9147 942.704L-38.0132 821.629C-38.0497 821.59 -38.1148 821.616 -38.1148 821.669V821.669C-38.1148 821.723 -38.18 821.748 -38.2165 821.71L-188.284 662.184C-242.632 604.36 -242.632 510.754 -188.284 452.931L-38.0229 293.594L-31.5857 286.872L116.929 125.558C170.725 67.1412 257.81 67.1412 311.606 125.558L459.996 286.836C460.044 286.887 460.007 286.971 459.937 286.971V286.971C459.866 286.971 459.83 287.055 459.877 287.106L572.127 409.143C606.152 446.11 661.327 446.11 695.352 409.143L808.124 286.643C808.164 286.6 808.22 286.576 808.278 286.576V286.576C808.337 286.576 808.393 286.551 808.432 286.508L956.517 125.558C1010.31 67.1412 1097.4 67.1412 1151.19 125.558L1299.71 286.971L1305.41 292.605L1455.58 452.239C1509.93 510.063 1509.93 603.668 1455.58 661.492L1305.56 820.967C1305.49 821.043 1305.36 821.023 1305.32 820.928V820.928Z" stroke="url(#paint20_linear)" stroke-width="1.75" stroke-miterlimit="10" stroke-linecap="round"/>
<path d="M1298.74 822.706C1298.72 822.659 1298.66 822.649 1298.62 822.687L1185.77 942.703C1151.66 978.979 1151.66 1037.69 1185.77 1073.87L1298.51 1193.76C1298.54 1193.8 1298.61 1193.77 1298.61 1193.72V1193.72C1298.61 1193.67 1298.67 1193.64 1298.71 1193.68L1447.31 1351.62C1501.1 1408.85 1501.1 1501.57 1447.3 1558.8L1298.61 1716.75L1292.26 1723.38L1145.22 1883.21C1091.97 1941.03 1005.72 1941.03 952.472 1883.21L805.554 1723.51C805.506 1723.46 805.543 1723.38 805.613 1723.38V1723.38C805.684 1723.38 805.72 1723.29 805.673 1723.24L694.435 1602.39C660.686 1565.72 606.062 1565.72 572.405 1602.39L460.829 1723.7C460.789 1723.75 460.733 1723.77 460.674 1723.77V1723.77C460.616 1723.77 460.56 1723.8 460.52 1723.84L313.815 1883.21C260.571 1941.03 174.313 1941.03 121.069 1883.21L-25.9741 1723.38L-31.5837 1717.84L-180.282 1559.79C-234.078 1502.56 -234.078 1409.84 -180.282 1352.61L-31.4917 1194.76L81.4342 1074.66C115.551 1038.38 115.551 979.671 81.4342 943.494L-31.3901 823.605C-31.4266 823.566 -31.4917 823.592 -31.4917 823.645V823.645C-31.4917 823.698 -31.5568 823.724 -31.5933 823.686L-180.098 665.84C-233.894 608.609 -233.894 515.893 -180.098 458.663L-31.3997 300.61L-25.0545 293.988L121.988 134.157C175.233 76.3326 261.49 76.3326 314.735 134.157L461.653 293.853C461.701 293.904 461.664 293.988 461.594 293.988V293.988C461.524 293.988 461.487 294.072 461.534 294.123L572.773 414.973C606.522 451.645 661.145 451.645 694.803 414.973L806.471 293.66C806.51 293.617 806.566 293.593 806.625 293.593V293.593C806.684 293.593 806.739 293.568 806.779 293.525L953.392 134.157C1006.64 76.3327 1092.89 76.3327 1146.14 134.157L1293.18 293.988L1298.79 299.523L1447.49 457.575C1501.29 514.806 1501.29 607.522 1447.49 664.753L1298.87 822.726C1298.83 822.764 1298.77 822.754 1298.74 822.706V822.706Z" stroke="url(#paint21_linear)" stroke-width="1.75" stroke-miterlimit="10" stroke-linecap="round"/>
<path d="M1298.74 822.706C1298.72 822.659 1298.66 822.649 1298.62 822.687L1185.77 942.703C1151.66 978.979 1151.66 1037.69 1185.77 1073.87L1298.51 1193.76C1298.54 1193.8 1298.61 1193.77 1298.61 1193.72V1193.72C1298.61 1193.67 1298.67 1193.64 1298.71 1193.68L1447.31 1351.62C1501.1 1408.85 1501.1 1501.57 1447.3 1558.8L1298.61 1716.75L1292.26 1723.38L1145.22 1883.21C1091.97 1941.03 1005.72 1941.03 952.472 1883.21L805.554 1723.51C805.506 1723.46 805.543 1723.38 805.613 1723.38V1723.38C805.684 1723.38 805.72 1723.29 805.673 1723.24L694.435 1602.39C660.686 1565.72 606.062 1565.72 572.405 1602.39L460.829 1723.7C460.789 1723.75 460.733 1723.77 460.674 1723.77V1723.77C460.616 1723.77 460.56 1723.8 460.52 1723.84L313.815 1883.21C260.571 1941.03 174.313 1941.03 121.069 1883.21L-25.9741 1723.38L-31.5837 1717.84L-180.282 1559.79C-234.078 1502.56 -234.078 1409.84 -180.282 1352.61L-31.4917 1194.76L81.4342 1074.66C115.551 1038.38 115.551 979.671 81.4342 943.494L-31.3901 823.605C-31.4266 823.566 -31.4917 823.592 -31.4917 823.645V823.645C-31.4917 823.698 -31.5568 823.724 -31.5933 823.686L-180.098 665.84C-233.894 608.609 -233.894 515.893 -180.098 458.663L-31.3997 300.61L-25.0545 293.988L121.988 134.157C175.233 76.3326 261.49 76.3326 314.735 134.157L461.653 293.853C461.701 293.904 461.664 293.988 461.594 293.988V293.988C461.524 293.988 461.487 294.072 461.534 294.123L572.773 414.973C606.522 451.645 661.145 451.645 694.803 414.973L806.471 293.66C806.51 293.617 806.566 293.593 806.625 293.593V293.593C806.684 293.593 806.739 293.568 806.779 293.525L953.392 134.157C1006.64 76.3327 1092.89 76.3327 1146.14 134.157L1293.18 293.988L1298.79 299.523L1447.49 457.575C1501.29 514.806 1501.29 607.522 1447.49 664.753L1298.87 822.726C1298.83 822.764 1298.77 822.754 1298.74 822.706V822.706Z" stroke="url(#paint22_linear)" stroke-width="1.75" stroke-miterlimit="10" stroke-linecap="round"/>
<path d="M1292.13 824.485C1292.11 824.437 1292.05 824.427 1292.01 824.465L1180.26 943.296C1146.51 979.176 1146.51 1037.3 1180.26 1073.18L1291.98 1191.88C1292.02 1191.92 1292.08 1191.89 1292.08 1191.84V1191.84C1292.08 1191.79 1292.15 1191.76 1292.19 1191.8L1439.31 1348.16C1492.56 1404.8 1492.56 1496.63 1439.31 1553.26L1292.08 1709.73L1285.83 1716.26L1140.26 1874.51C1087.57 1931.74 1002.14 1931.74 949.444 1874.51L803.997 1716.39C803.949 1716.34 803.986 1716.26 804.056 1716.26V1716.26C804.126 1716.26 804.163 1716.17 804.116 1716.12L693.981 1596.46C660.6 1560.18 606.528 1560.18 573.147 1596.46L462.49 1716.59C462.45 1716.63 462.394 1716.65 462.336 1716.65V1716.65C462.277 1716.65 462.221 1716.68 462.181 1716.72L317.04 1874.61C264.347 1931.84 178.917 1931.84 126.224 1874.61L-19.3471 1716.36L-24.9566 1710.92L-172.183 1554.45C-225.428 1497.81 -225.428 1405.99 -172.183 1349.35L-24.8646 1193.08L86.9578 1074.17C120.707 1038.28 120.707 980.164 86.9578 944.284L-24.763 825.482C-24.7995 825.443 -24.8646 825.469 -24.8646 825.522V825.522C-24.8646 825.576 -24.9298 825.601 -24.9662 825.563L-172.091 669.2C-225.336 612.562 -225.336 520.736 -172.091 464.098L-24.8646 307.627L-18.6114 301.104L127.052 142.854C179.745 85.623 265.175 85.623 317.868 142.854L463.315 300.968C463.362 301.02 463.326 301.104 463.255 301.104V301.104C463.185 301.104 463.148 301.187 463.196 301.239L573.33 420.903C606.712 457.179 660.784 457.179 694.165 420.903L804.73 300.776C804.769 300.733 804.825 300.708 804.884 300.708V300.708C804.942 300.708 804.998 300.684 805.038 300.641L950.179 142.854C1002.87 85.623 1088.3 85.623 1140.99 142.854L1286.66 301.104L1292.27 306.54L1439.49 463.011C1492.74 519.649 1492.74 611.475 1439.49 668.113L1292.25 824.504C1292.21 824.542 1292.15 824.532 1292.13 824.485V824.485Z" stroke="url(#paint23_linear)" stroke-width="1.75" stroke-miterlimit="10" stroke-linecap="round"/>
<path d="M1292.13 824.485C1292.11 824.437 1292.05 824.427 1292.01 824.465L1180.26 943.296C1146.51 979.176 1146.51 1037.3 1180.26 1073.18L1291.98 1191.88C1292.02 1191.92 1292.08 1191.89 1292.08 1191.84V1191.84C1292.08 1191.79 1292.15 1191.76 1292.19 1191.8L1439.31 1348.16C1492.56 1404.8 1492.56 1496.63 1439.31 1553.26L1292.08 1709.73L1285.83 1716.26L1140.26 1874.51C1087.57 1931.74 1002.14 1931.74 949.444 1874.51L803.997 1716.39C803.949 1716.34 803.986 1716.26 804.056 1716.26V1716.26C804.126 1716.26 804.163 1716.17 804.116 1716.12L693.981 1596.46C660.6 1560.18 606.528 1560.18 573.147 1596.46L462.49 1716.59C462.45 1716.63 462.394 1716.65 462.336 1716.65V1716.65C462.277 1716.65 462.221 1716.68 462.181 1716.72L317.04 1874.61C264.347 1931.84 178.917 1931.84 126.224 1874.61L-19.3471 1716.36L-24.9566 1710.92L-172.183 1554.45C-225.428 1497.81 -225.428 1405.99 -172.183 1349.35L-24.8646 1193.08L86.9578 1074.17C120.707 1038.28 120.707 980.164 86.9578 944.284L-24.763 825.482C-24.7995 825.443 -24.8646 825.469 -24.8646 825.522V825.522C-24.8646 825.576 -24.9298 825.601 -24.9662 825.563L-172.091 669.2C-225.336 612.562 -225.336 520.736 -172.091 464.098L-24.8646 307.627L-18.6114 301.104L127.052 142.854C179.745 85.623 265.175 85.623 317.868 142.854L463.315 300.968C463.362 301.02 463.326 301.104 463.255 301.104V301.104C463.185 301.104 463.148 301.187 463.196 301.239L573.33 420.903C606.712 457.179 660.784 457.179 694.165 420.903L804.73 300.776C804.769 300.733 804.825 300.708 804.884 300.708V300.708C804.942 300.708 804.998 300.684 805.038 300.641L950.179 142.854C1002.87 85.623 1088.3 85.623 1140.99 142.854L1286.66 301.104L1292.27 306.54L1439.49 463.011C1492.74 519.649 1492.74 611.475 1439.49 668.113L1292.25 824.504C1292.21 824.542 1292.15 824.532 1292.13 824.485V824.485Z" stroke="url(#paint24_linear)" stroke-width="1.75" stroke-miterlimit="10" stroke-linecap="round"/>
<path d="M1285.64 826.365C1285.59 826.311 1285.51 826.311 1285.46 826.364L1174.83 943.989C1141.45 979.474 1141.45 1037.1 1174.83 1072.59L1285.36 1190.1C1285.39 1190.14 1285.46 1190.12 1285.46 1190.06V1190.06C1285.46 1190.01 1285.52 1189.98 1285.56 1190.02L1431.21 1344.8C1484 1400.85 1484 1491.78 1431.21 1547.93L1285.46 1702.82L1279.2 1709.34L1135.1 1866.01C1082.96 1922.75 998.36 1922.75 946.127 1866.01L802.152 1709.48C802.104 1709.42 802.141 1709.34 802.211 1709.34V1709.34C802.281 1709.34 802.318 1709.26 802.271 1709.21L693.239 1590.73C660.226 1554.85 606.614 1554.85 573.6 1590.73L464.231 1709.57C464.191 1709.61 464.135 1709.64 464.077 1709.64V1709.64C464.018 1709.64 463.962 1709.66 463.923 1709.71L320.161 1865.91C268.02 1922.65 183.417 1922.65 131.184 1865.91L-12.9159 1709.24L-18.4334 1703.81L-164.189 1548.92C-216.973 1492.87 -216.973 1401.94 -164.189 1345.79L-18.3415 1191.1L92.3775 1073.48C125.759 1037.99 125.759 980.364 92.3775 944.879L-18.2399 827.362C-18.2764 827.323 -18.3415 827.349 -18.3415 827.402V827.402C-18.3415 827.456 -18.4066 827.481 -18.4431 827.443L-164.097 672.662C-216.882 616.617 -216.882 525.68 -164.097 469.537L-18.2495 314.647L-11.9963 308.124L132.104 151.455C184.245 94.7187 268.847 94.7187 321.08 151.455L465.056 307.988C465.104 308.04 465.067 308.124 464.997 308.124V308.124C464.926 308.124 464.89 308.207 464.937 308.259L573.968 426.737C606.982 462.617 660.594 462.617 693.607 426.737L803.068 307.796C803.108 307.753 803.164 307.728 803.223 307.728V307.728C803.281 307.728 803.337 307.704 803.377 307.661L947.139 151.455C999.28 94.7188 1083.88 94.7188 1136.12 151.455L1280.22 308.124L1285.73 313.56L1431.49 468.449C1484.27 524.494 1484.27 615.431 1431.49 671.574L1285.83 826.365C1285.78 826.418 1285.69 826.418 1285.64 826.365V826.365Z" stroke="url(#paint25_linear)" stroke-width="1.75" stroke-miterlimit="10" stroke-linecap="round"/>
<path d="M1285.64 826.365C1285.59 826.311 1285.51 826.311 1285.46 826.364L1174.83 943.989C1141.45 979.474 1141.45 1037.1 1174.83 1072.59L1285.36 1190.1C1285.39 1190.14 1285.46 1190.12 1285.46 1190.06V1190.06C1285.46 1190.01 1285.52 1189.98 1285.56 1190.02L1431.21 1344.8C1484 1400.85 1484 1491.78 1431.21 1547.93L1285.46 1702.82L1279.2 1709.34L1135.1 1866.01C1082.96 1922.75 998.36 1922.75 946.127 1866.01L802.152 1709.48C802.104 1709.42 802.141 1709.34 802.211 1709.34V1709.34C802.281 1709.34 802.318 1709.26 802.271 1709.21L693.239 1590.73C660.226 1554.85 606.614 1554.85 573.6 1590.73L464.231 1709.57C464.191 1709.61 464.135 1709.64 464.077 1709.64V1709.64C464.018 1709.64 463.962 1709.66 463.923 1709.71L320.161 1865.91C268.02 1922.65 183.417 1922.65 131.184 1865.91L-12.9159 1709.24L-18.4334 1703.81L-164.189 1548.92C-216.973 1492.87 -216.973 1401.94 -164.189 1345.79L-18.3415 1191.1L92.3775 1073.48C125.759 1037.99 125.759 980.364 92.3775 944.879L-18.2399 827.362C-18.2764 827.323 -18.3415 827.349 -18.3415 827.402V827.402C-18.3415 827.456 -18.4066 827.481 -18.4431 827.443L-164.097 672.662C-216.882 616.617 -216.882 525.68 -164.097 469.537L-18.2495 314.647L-11.9963 308.124L132.104 151.455C184.245 94.7187 268.847 94.7187 321.08 151.455L465.056 307.988C465.104 308.04 465.067 308.124 464.997 308.124V308.124C464.926 308.124 464.89 308.207 464.937 308.259L573.968 426.737C606.982 462.617 660.594 462.617 693.607 426.737L803.068 307.796C803.108 307.753 803.164 307.728 803.223 307.728V307.728C803.281 307.728 803.337 307.704 803.377 307.661L947.139 151.455C999.28 94.7188 1083.88 94.7188 1136.12 151.455L1280.22 308.124L1285.73 313.56L1431.49 468.449C1484.27 524.494 1484.27 615.431 1431.49 671.574L1285.83 826.365C1285.78 826.418 1285.69 826.418 1285.64 826.365V826.365Z" stroke="url(#paint26_linear)" stroke-width="1.75" stroke-miterlimit="10" stroke-linecap="round"/>
<path d="M1279.07 828.241C1279.04 828.194 1278.98 828.184 1278.94 828.222L1169.4 944.68C1136.3 979.868 1136.3 1036.8 1169.4 1071.99L1278.83 1188.32C1278.86 1188.36 1278.93 1188.33 1278.93 1188.28V1188.28C1278.93 1188.23 1278.99 1188.2 1279.03 1188.24L1423.21 1341.44C1475.44 1396.99 1475.44 1486.94 1423.21 1542.49L1278.93 1695.8L1272.77 1702.22L1130.14 1857.31C1078.46 1913.45 994.774 1913.45 943.093 1857.31L800.588 1702.36C800.541 1702.31 800.577 1702.22 800.648 1702.22V1702.22C800.718 1702.22 800.755 1702.14 800.707 1702.09L692.779 1584.8C660.042 1549.21 607.073 1549.21 574.336 1584.8L465.978 1702.45C465.939 1702.49 465.883 1702.52 465.824 1702.52V1702.52C465.765 1702.52 465.709 1702.54 465.67 1702.59L323.287 1857.31C271.606 1913.45 187.923 1913.45 136.242 1857.31L-6.3867 1702.22L-11.8123 1696.89L-156.096 1543.58C-208.329 1488.03 -208.329 1398.08 -156.096 1342.53L-11.7203 1189.42L97.8951 1072.88C131 1037.69 131 980.758 97.8951 945.569L-11.5268 829.239C-11.5633 829.2 -11.6284 829.226 -11.6284 829.279V829.279C-11.6284 829.332 -11.6935 829.358 -11.7299 829.319L-155.912 676.12C-208.145 620.569 -208.145 530.621 -155.912 475.07L-11.6284 321.763L-5.4671 315.338L137.07 160.152C188.751 104.008 272.434 104.008 324.115 160.152L466.619 315.103C466.667 315.155 466.63 315.239 466.56 315.239V315.239C466.489 315.239 466.453 315.322 466.5 315.374L574.428 432.666C607.165 468.25 660.134 468.25 692.871 432.666L801.229 314.911C801.269 314.868 801.325 314.843 801.383 314.843V314.843C801.442 314.843 801.498 314.819 801.538 314.776L943.828 160.152C995.509 104.008 1079.19 104.008 1130.87 160.152L1273.5 315.239L1278.93 320.576L1423.21 473.884C1475.44 529.435 1475.44 619.383 1423.21 674.933L1279.19 828.26C1279.15 828.298 1279.09 828.288 1279.07 828.241V828.241Z" stroke="url(#paint27_linear)" stroke-width="1.75" stroke-miterlimit="10" stroke-linecap="round"/>
<path d="M1279.07 828.241C1279.04 828.194 1278.98 828.184 1278.94 828.222L1169.4 944.68C1136.3 979.868 1136.3 1036.8 1169.4 1071.99L1278.83 1188.32C1278.86 1188.36 1278.93 1188.33 1278.93 1188.28V1188.28C1278.93 1188.23 1278.99 1188.2 1279.03 1188.24L1423.21 1341.44C1475.44 1396.99 1475.44 1486.94 1423.21 1542.49L1278.93 1695.8L1272.77 1702.22L1130.14 1857.31C1078.46 1913.45 994.774 1913.45 943.093 1857.31L800.588 1702.36C800.541 1702.31 800.577 1702.22 800.648 1702.22V1702.22C800.718 1702.22 800.755 1702.14 800.707 1702.09L692.779 1584.8C660.042 1549.21 607.073 1549.21 574.336 1584.8L465.978 1702.45C465.939 1702.49 465.883 1702.52 465.824 1702.52V1702.52C465.765 1702.52 465.709 1702.54 465.67 1702.59L323.287 1857.31C271.606 1913.45 187.923 1913.45 136.242 1857.31L-6.3867 1702.22L-11.8123 1696.89L-156.096 1543.58C-208.329 1488.03 -208.329 1398.08 -156.096 1342.53L-11.7203 1189.42L97.8951 1072.88C131 1037.69 131 980.758 97.8951 945.569L-11.5268 829.239C-11.5633 829.2 -11.6284 829.226 -11.6284 829.279V829.279C-11.6284 829.332 -11.6935 829.358 -11.7299 829.319L-155.912 676.12C-208.145 620.569 -208.145 530.621 -155.912 475.07L-11.6284 321.763L-5.4671 315.338L137.07 160.152C188.751 104.008 272.434 104.008 324.115 160.152L466.619 315.103C466.667 315.155 466.63 315.239 466.56 315.239V315.239C466.489 315.239 466.453 315.322 466.5 315.374L574.428 432.666C607.165 468.25 660.134 468.25 692.871 432.666L801.229 314.911C801.269 314.868 801.325 314.843 801.383 314.843V314.843C801.442 314.843 801.498 314.819 801.538 314.776L943.828 160.152C995.509 104.008 1079.19 104.008 1130.87 160.152L1273.5 315.239L1278.93 320.576L1423.21 473.884C1475.44 529.435 1475.44 619.383 1423.21 674.933L1279.19 828.26C1279.15 828.298 1279.09 828.288 1279.07 828.241V828.241Z" stroke="url(#paint28_linear)" stroke-width="1.75" stroke-miterlimit="10" stroke-linecap="round"/>
<path d="M1272.45 830.071C1272.43 830.005 1272.34 829.986 1272.3 830.036L1163.89 945.274C1131.15 980.067 1131.15 1036.51 1163.89 1071.3L1272.21 1186.45C1272.24 1186.48 1272.31 1186.46 1272.31 1186.4V1186.4C1272.31 1186.35 1272.37 1186.33 1272.41 1186.36L1415.12 1338.08C1466.8 1393.04 1466.8 1482.1 1415.12 1537.06L1272.31 1688.88L1266.24 1695.21L1124.99 1848.71C1073.86 1904.26 991.006 1904.26 939.877 1848.71L798.752 1695.34C798.705 1695.29 798.741 1695.21 798.812 1695.21V1695.21C798.882 1695.21 798.919 1695.12 798.871 1695.07L692.047 1578.97C659.677 1543.78 607.169 1543.78 574.799 1578.97L467.545 1695.53C467.505 1695.58 467.449 1695.6 467.391 1695.6V1695.6C467.332 1695.6 467.276 1695.63 467.236 1695.67L326.509 1848.61C275.38 1904.16 192.524 1904.16 141.395 1848.61L0.145599 1695.11L-5.27999 1689.77L-148.093 1538.04C-199.774 1483.09 -199.774 1394.03 -148.093 1339.07L-5.18802 1187.44L103.324 1072.09C136.061 1037.3 136.061 980.858 103.324 946.065L-4.99446 830.921C-5.03095 830.882 -5.09609 830.908 -5.09609 830.961V830.961C-5.09609 831.014 -5.16121 831.04 -5.1977 831.001L-147.909 679.383C-199.59 624.426 -199.59 535.367 -147.909 480.409L-5.09608 328.584L0.973232 322.258L142.223 168.753C193.352 113.203 276.207 113.203 327.337 168.753L468.37 322.123C468.417 322.175 468.38 322.258 468.31 322.258V322.258C468.24 322.258 468.203 322.342 468.251 322.394L575.075 438.499C607.444 473.688 659.953 473.688 692.323 438.499L799.577 321.931C799.617 321.888 799.673 321.863 799.731 321.863V321.863C799.79 321.863 799.846 321.839 799.885 321.795L940.705 168.753C991.834 113.203 1074.69 113.203 1125.82 168.753L1267.07 322.258L1272.49 327.596L1415.31 479.421C1466.99 534.378 1466.99 623.437 1415.31 678.395L1272.6 830.106C1272.55 830.157 1272.47 830.137 1272.45 830.071V830.071Z" stroke="url(#paint29_linear)" stroke-width="1.75" stroke-miterlimit="10" stroke-linecap="round"/>
<path d="M1272.45 830.071C1272.43 830.005 1272.34 829.986 1272.3 830.036L1163.89 945.274C1131.15 980.067 1131.15 1036.51 1163.89 1071.3L1272.21 1186.45C1272.24 1186.48 1272.31 1186.46 1272.31 1186.4V1186.4C1272.31 1186.35 1272.37 1186.33 1272.41 1186.36L1415.12 1338.08C1466.8 1393.04 1466.8 1482.1 1415.12 1537.06L1272.31 1688.88L1266.24 1695.21L1124.99 1848.71C1073.86 1904.26 991.006 1904.26 939.877 1848.71L798.752 1695.34C798.705 1695.29 798.741 1695.21 798.812 1695.21V1695.21C798.882 1695.21 798.919 1695.12 798.871 1695.07L692.047 1578.97C659.677 1543.78 607.169 1543.78 574.799 1578.97L467.545 1695.53C467.505 1695.58 467.449 1695.6 467.391 1695.6V1695.6C467.332 1695.6 467.276 1695.63 467.236 1695.67L326.509 1848.61C275.38 1904.16 192.524 1904.16 141.395 1848.61L0.145599 1695.11L-5.27999 1689.77L-148.093 1538.04C-199.774 1483.09 -199.774 1394.03 -148.093 1339.07L-5.18802 1187.44L103.324 1072.09C136.061 1037.3 136.061 980.858 103.324 946.065L-4.99446 830.921C-5.03095 830.882 -5.09609 830.908 -5.09609 830.961V830.961C-5.09609 831.014 -5.16121 831.04 -5.1977 831.001L-147.909 679.383C-199.59 624.426 -199.59 535.367 -147.909 480.409L-5.09608 328.584L0.973232 322.258L142.223 168.753C193.352 113.203 276.207 113.203 327.337 168.753L468.37 322.123C468.417 322.175 468.38 322.258 468.31 322.258V322.258C468.24 322.258 468.203 322.342 468.251 322.394L575.075 438.499C607.444 473.688 659.953 473.688 692.323 438.499L799.577 321.931C799.617 321.888 799.673 321.863 799.731 321.863V321.863C799.79 321.863 799.846 321.839 799.885 321.795L940.705 168.753C991.834 113.203 1074.69 113.203 1125.82 168.753L1267.07 322.258L1272.49 327.596L1415.31 479.421C1466.99 534.378 1466.99 623.437 1415.31 678.395L1272.6 830.106C1272.55 830.157 1272.47 830.137 1272.45 830.071V830.071Z" stroke="url(#paint30_linear)" stroke-width="1.75" stroke-miterlimit="10" stroke-linecap="round"/>
<path d="M1265.87 831.849C1265.87 831.832 1265.85 831.823 1265.84 831.836L1158.46 945.965C1126.09 980.363 1126.09 1036.21 1158.46 1070.71L1265.68 1184.67C1265.71 1184.7 1265.78 1184.68 1265.78 1184.62V1184.62C1265.78 1184.57 1265.84 1184.55 1265.88 1184.58L1407.12 1334.72C1458.25 1389.08 1458.25 1477.25 1407.12 1531.62L1265.78 1681.86L1259.71 1688.19L1119.93 1840.11C1069.35 1895.07 987.325 1895.07 936.748 1840.11L797.094 1688.32C797.046 1688.27 797.083 1688.19 797.153 1688.19V1688.19C797.224 1688.19 797.26 1688.1 797.213 1688.05L691.492 1573.13C659.49 1538.34 607.533 1538.34 575.44 1573.13L469.381 1688.42C469.341 1688.46 469.285 1688.48 469.227 1688.48V1688.48C469.168 1688.48 469.112 1688.51 469.072 1688.55L329.632 1840.01C279.055 1894.97 197.027 1894.97 146.45 1840.01L6.67147 1688.09L1.33782 1682.85L-140.004 1532.61C-191.133 1478.24 -191.133 1390.07 -140.004 1335.71L1.42978 1185.66L108.746 1071.5C141.116 1037.1 141.116 981.253 108.746 946.756L1.53135 832.798C1.49488 832.759 1.42978 832.785 1.42978 832.838V832.838C1.42978 832.891 1.36468 832.917 1.32821 832.878L-139.912 682.743C-191.041 628.378 -191.041 540.209 -139.912 485.845L1.42979 335.601L7.4991 329.275L147.277 177.352C197.855 122.394 279.882 122.394 330.46 177.352L470.114 329.14C470.161 329.192 470.125 329.275 470.054 329.275V329.275C469.984 329.275 469.947 329.359 469.995 329.411L575.715 444.33C607.717 479.123 659.674 479.123 691.768 444.33L797.919 328.948C797.958 328.904 798.014 328.88 798.073 328.88V328.88C798.132 328.88 798.188 328.855 798.227 328.812L937.575 177.352C988.153 122.394 1070.18 122.394 1120.76 177.352L1260.54 329.275L1265.87 334.514L1407.21 484.758C1458.34 539.122 1458.34 627.291 1407.21 681.655L1265.9 831.863C1265.89 831.876 1265.87 831.867 1265.87 831.849V831.849Z" stroke="url(#paint31_linear)" stroke-width="1.75" stroke-miterlimit="10" stroke-linecap="round"/>
<path d="M1265.87 831.849C1265.87 831.832 1265.85 831.823 1265.84 831.836L1158.46 945.965C1126.09 980.363 1126.09 1036.21 1158.46 1070.71L1265.68 1184.67C1265.71 1184.7 1265.78 1184.68 1265.78 1184.62V1184.62C1265.78 1184.57 1265.84 1184.55 1265.88 1184.58L1407.12 1334.72C1458.25 1389.08 1458.25 1477.25 1407.12 1531.62L1265.78 1681.86L1259.71 1688.19L1119.93 1840.11C1069.35 1895.07 987.325 1895.07 936.748 1840.11L797.094 1688.32C797.046 1688.27 797.083 1688.19 797.153 1688.19V1688.19C797.224 1688.19 797.26 1688.1 797.213 1688.05L691.492 1573.13C659.49 1538.34 607.533 1538.34 575.44 1573.13L469.381 1688.42C469.341 1688.46 469.285 1688.48 469.227 1688.48V1688.48C469.168 1688.48 469.112 1688.51 469.072 1688.55L329.632 1840.01C279.055 1894.97 197.027 1894.97 146.45 1840.01L6.67147 1688.09L1.33782 1682.85L-140.004 1532.61C-191.133 1478.24 -191.133 1390.07 -140.004 1335.71L1.42978 1185.66L108.746 1071.5C141.116 1037.1 141.116 981.253 108.746 946.756L1.53135 832.798C1.49488 832.759 1.42978 832.785 1.42978 832.838V832.838C1.42978 832.891 1.36468 832.917 1.32821 832.878L-139.912 682.743C-191.041 628.378 -191.041 540.209 -139.912 485.845L1.42979 335.601L7.4991 329.275L147.277 177.352C197.855 122.394 279.882 122.394 330.46 177.352L470.114 329.14C470.161 329.192 470.125 329.275 470.054 329.275V329.275C469.984 329.275 469.947 329.359 469.995 329.411L575.715 444.33C607.717 479.123 659.674 479.123 691.768 444.33L797.919 328.948C797.958 328.904 798.014 328.88 798.073 328.88V328.88C798.132 328.88 798.188 328.855 798.227 328.812L937.575 177.352C988.153 122.394 1070.18 122.394 1120.76 177.352L1260.54 329.275L1265.87 334.514L1407.21 484.758C1458.34 539.122 1458.34 627.291 1407.21 681.655L1265.9 831.863C1265.89 831.876 1265.87 831.867 1265.87 831.849V831.849Z" stroke="url(#paint32_linear)" stroke-width="1.75" stroke-miterlimit="10" stroke-linecap="round"/>
</g>
<defs>
<linearGradient id="paint0_linear" x1="-0.504079" y1="62.0147" x2="156.506" y2="62.0147" gradientUnits="userSpaceOnUse">
<stop stop-color="#B480FF"/>
<stop offset="0.604167" stop-color="#5F00E6"/>
<stop offset="0.859375" stop-color="#1AA4FF" stop-opacity="0.49"/>
<stop offset="1" stop-color="#28B86A" stop-opacity="0.27"/>
</linearGradient>
<linearGradient id="paint1_linear" x1="633.828" y1="2023.78" x2="633.828" y2="-6.54859" gradientUnits="userSpaceOnUse">
<stop stop-color="#2DCF78"/>
</linearGradient>
<linearGradient id="paint2_linear" x1="633.828" y1="2023.78" x2="633.828" y2="-6.54859" gradientUnits="userSpaceOnUse">
<stop stop-color="#2DCF78"/>
</linearGradient>
<linearGradient id="paint3_linear" x1="633.916" y1="2014.68" x2="633.916" y2="2.75248" gradientUnits="userSpaceOnUse">
<stop stop-color="#2DCF78"/>
</linearGradient>
<linearGradient id="paint4_linear" x1="633.916" y1="2014.68" x2="633.916" y2="2.75248" gradientUnits="userSpaceOnUse">
<stop stop-color="#2DCF78"/>
</linearGradient>
<linearGradient id="paint5_linear" x1="633.871" y1="2005.55" x2="633.872" y2="11.8806" gradientUnits="userSpaceOnUse">
<stop stop-color="#2DCF78"/>
</linearGradient>
<linearGradient id="paint6_linear" x1="633.871" y1="2005.55" x2="633.872" y2="11.8806" gradientUnits="userSpaceOnUse">
<stop stop-color="#2DCF78"/>
</linearGradient>
<linearGradient id="paint7_linear" x1="633.823" y1="1996.45" x2="633.823" y2="20.8844" gradientUnits="userSpaceOnUse">
<stop stop-color="#2DCF78"/>
</linearGradient>
<linearGradient id="paint8_linear" x1="633.823" y1="1996.45" x2="633.823" y2="20.8844" gradientUnits="userSpaceOnUse">
<stop stop-color="#2DCF78"/>
</linearGradient>
<linearGradient id="paint9_linear" x1="633.961" y1="1987.35" x2="633.961" y2="29.9878" gradientUnits="userSpaceOnUse">
<stop stop-color="#2DCF78"/>
</linearGradient>
<linearGradient id="paint10_linear" x1="633.961" y1="1987.35" x2="633.961" y2="29.9878" gradientUnits="userSpaceOnUse">
<stop stop-color="#2DCF78"/>
</linearGradient>
<linearGradient id="paint11_linear" x1="633.91" y1="1978.15" x2="633.91" y2="39.1906" gradientUnits="userSpaceOnUse">
<stop stop-color="#2DCF78"/>
</linearGradient>
<linearGradient id="paint12_linear" x1="633.91" y1="1978.15" x2="633.91" y2="39.1906" gradientUnits="userSpaceOnUse">
<stop stop-color="#2DCF78"/>
</linearGradient>
<linearGradient id="paint13_linear" x1="633.86" y1="1969.04" x2="633.86" y2="48.293" gradientUnits="userSpaceOnUse">
<stop stop-color="#2DCF78"/>
</linearGradient>
<linearGradient id="paint14_linear" x1="633.86" y1="1969.04" x2="633.86" y2="48.293" gradientUnits="userSpaceOnUse">
<stop stop-color="#2DCF78"/>
</linearGradient>
<linearGradient id="paint15_linear" x1="633.814" y1="1959.92" x2="633.814" y2="57.422" gradientUnits="userSpaceOnUse">
<stop stop-color="#2DCF78"/>
</linearGradient>
<linearGradient id="paint16_linear" x1="633.814" y1="1959.92" x2="633.814" y2="57.422" gradientUnits="userSpaceOnUse">
<stop stop-color="#2DCF78"/>
</linearGradient>
<linearGradient id="paint17_linear" x1="633.86" y1="1950.81" x2="633.86" y2="66.5242" gradientUnits="userSpaceOnUse">
<stop stop-color="#2DCF78"/>
</linearGradient>
<linearGradient id="paint18_linear" x1="633.86" y1="1950.81" x2="633.86" y2="66.5242" gradientUnits="userSpaceOnUse">
<stop stop-color="#2DCF78"/>
</linearGradient>
<linearGradient id="paint19_linear" x1="633.806" y1="1941.81" x2="633.806" y2="75.7267" gradientUnits="userSpaceOnUse">
<stop stop-color="#2DCF78"/>
</linearGradient>
<linearGradient id="paint20_linear" x1="633.806" y1="1941.81" x2="633.806" y2="75.7267" gradientUnits="userSpaceOnUse">
<stop stop-color="#2DCF78"/>
</linearGradient>
<linearGradient id="paint21_linear" x1="633.806" y1="1932.51" x2="633.806" y2="84.8291" gradientUnits="userSpaceOnUse">
<stop stop-color="#2DCF78"/>
</linearGradient>
<linearGradient id="paint22_linear" x1="633.806" y1="1932.51" x2="633.806" y2="84.8291" gradientUnits="userSpaceOnUse">
<stop stop-color="#2DCF78"/>
</linearGradient>
<linearGradient id="paint23_linear" x1="633.856" y1="1923.4" x2="633.856" y2="94.0304" gradientUnits="userSpaceOnUse">
<stop stop-color="#2DCF78"/>
</linearGradient>
<linearGradient id="paint24_linear" x1="633.856" y1="1923.4" x2="633.856" y2="94.0304" gradientUnits="userSpaceOnUse">
<stop stop-color="#2DCF78"/>
</linearGradient>
<linearGradient id="paint25_linear" x1="633.848" y1="1914.38" x2="633.849" y2="103.061" gradientUnits="userSpaceOnUse">
<stop stop-color="#2DCF78"/>
</linearGradient>
<linearGradient id="paint26_linear" x1="633.848" y1="1914.38" x2="633.849" y2="103.061" gradientUnits="userSpaceOnUse">
<stop stop-color="#2DCF78"/>
</linearGradient>
<linearGradient id="paint27_linear" x1="633.754" y1="1905.17" x2="633.754" y2="112.262" gradientUnits="userSpaceOnUse">
<stop stop-color="#2DCF78"/>
</linearGradient>
<linearGradient id="paint28_linear" x1="633.754" y1="1905.17" x2="633.754" y2="112.262" gradientUnits="userSpaceOnUse">
<stop stop-color="#2DCF78"/>
</linearGradient>
<linearGradient id="paint29_linear" x1="633.802" y1="1896.07" x2="633.802" y2="121.366" gradientUnits="userSpaceOnUse">
<stop stop-color="#2DCF78"/>
</linearGradient>
<linearGradient id="paint30_linear" x1="633.802" y1="1896.07" x2="633.802" y2="121.366" gradientUnits="userSpaceOnUse">
<stop stop-color="#2DCF78"/>
</linearGradient>
<linearGradient id="paint31_linear" x1="633.796" y1="1886.97" x2="633.797" y2="130.468" gradientUnits="userSpaceOnUse">
<stop stop-color="#2DCF78"/>
</linearGradient>
<linearGradient id="paint32_linear" x1="633.796" y1="1886.97" x2="633.797" y2="130.468" gradientUnits="userSpaceOnUse">
<stop stop-color="#2DCF78"/>
</linearGradient>
</defs>
</svg>
