<svg width="257" height="73" viewBox="0 0 257 73" fill="none" xmlns="http://www.w3.org/2000/svg">
<path d="M110.994 36.2369C111.052 34.2885 110.662 32.3523 109.852 30.5734C109.043 28.7944 107.835 27.2187 106.319 25.964C102.916 23.249 98.6261 21.8449 94.249 22.0136H78.0207V29.1405H94.249C96.4719 29.054 98.649 29.7792 100.362 31.1768C101.151 31.8369 101.78 32.6621 102.204 33.5921C102.628 34.522 102.836 35.5334 102.813 36.5526C102.844 37.5614 102.64 38.5639 102.217 39.4833C101.794 40.4027 101.163 41.2147 100.372 41.857C98.6472 43.2403 96.4727 43.9635 94.249 43.8933H86.2745V33.1011H78V50.9897H94.2283C98.6364 51.1403 102.937 49.6332 106.257 46.7746C107.781 45.4652 108.994 43.8432 109.813 42.0227C110.631 40.2022 111.034 38.2273 110.994 36.2369V36.2369Z" fill="white"/>
<path d="M120.006 36.2372C119.967 38.2273 120.371 40.2017 121.19 42.022C122.008 43.8423 123.221 45.4645 124.744 46.7748C128.061 49.6319 132.359 51.139 136.765 50.9899H151V43.863H136.765C134.546 43.9385 132.376 43.2144 130.661 41.8267C129.876 41.1865 129.248 40.3793 128.825 39.4658C128.402 38.5523 128.195 37.5563 128.22 36.5528C128.197 35.5347 128.404 34.5243 128.826 33.5945C129.248 32.6648 129.875 31.8391 130.661 31.177C132.368 29.7749 134.544 29.0489 136.765 29.1408H151V22.0139H136.765C132.383 21.8436 128.089 23.2477 124.682 25.9642C123.166 27.2189 121.958 28.7947 121.148 30.5736C120.338 32.3526 119.948 34.2887 120.006 36.2372V36.2372Z" fill="white"/>
<path d="M177.807 29.1328L184.5 22H155.5V51H183.086V43.8977H163.607V39.8626H183.086V33.0559H163.607V29.1328H177.807Z" fill="white"/>
<path d="M221 22H212.727V38.9057L194.869 23.2321C194.438 22.8185 193.922 22.4985 193.355 22.2932C192.789 22.0878 192.184 22.0017 191.581 22.0404C191.09 22.0136 190.598 22.0899 190.14 22.2641C189.681 22.4383 189.267 22.7064 188.923 23.0503C188.296 23.7331 187.965 24.628 188.003 25.5447V50.7921H196.275V33.9269L214.123 49.6105C214.598 50.0788 215.169 50.4441 215.798 50.6825C216.426 50.9209 217.1 51.0271 217.774 50.9941C219.945 50.9941 221 49.7822 221 47.2777V22Z" fill="white"/>
<path d="M257 22H225V29.1328H236.943V51H245.067V29.1328H257V22Z" fill="white"/>
<path d="M117.301 29H113.709L111 22H120L117.301 29Z" fill="white"/>
<path d="M32.8999 13.787L38.3507 10.6456V3.14133L32.8999 0V13.787Z" fill="white"/>
<path d="M12.8247 46.4424V25.3462L31.0898 14.8443V0L0.925593 17.38C0.644699 17.5431 0.41146 17.7767 0.249076 18.0576C0.0866924 18.3386 0.000827988 18.6571 0 18.9814V53.8851L12.8247 46.4424Z" fill="white"/>
<path d="M50.1982 47.9309L31.9639 58.4328L13.8428 47.9925L0.966675 55.4147L31.0898 72.7536C31.3715 72.9149 31.6906 72.9999 32.0154 73C32.3403 73.0013 32.6598 72.9163 32.941 72.7536L63.1155 55.3634L50.1982 47.9309Z" fill="white"/>
<path d="M63.0641 17.3799L51.1033 10.4916V17.9959L38.2889 25.3975L51.1445 32.7991V46.3192L64 53.7824V18.9814C63.9981 18.656 63.9107 18.3369 63.7465 18.0558C63.5822 17.7748 63.3469 17.5417 63.0641 17.3799V17.3799Z" fill="white"/>
<path d="M25.5876 32.7067L25.5978 47.4073L38.1037 40.2007V25.4899L25.5876 32.7067Z" fill="white"/>
</svg>
