<svg width="127" height="28" viewBox="0 0 127 28" fill="none" xmlns="http://www.w3.org/2000/svg">
<g clip-path="url(#clip0)">
<path d="M5.09703 0.79982C4.97333 0.570028 4.79383 0.37611 4.57556 0.236454C4.35729 0.0967975 4.10748 0.0160335 3.84982 0.00182028H1.234C1.13666 -0.0125403 1.0373 0.0021016 0.948009 0.0439664C0.858715 0.0858312 0.783327 0.153116 0.73101 0.237642C0.678693 0.322169 0.6517 0.420296 0.653311 0.520098C0.654922 0.6199 0.685068 0.717078 0.740085 0.79982L6.53463 13.0582C6.74 13.5708 6.74 14.1445 6.53463 14.657L0.734566 27.201C0.679459 27.2844 0.649425 27.3823 0.648116 27.4827C0.646807 27.5831 0.674282 27.6817 0.727196 27.7665C0.78011 27.8514 0.856184 27.9188 0.946161 27.9606C1.03614 28.0023 1.13614 28.0167 1.234 28.0018H3.84706C4.10443 27.988 4.35393 27.907 4.57144 27.7667C4.78895 27.6264 4.96713 27.4316 5.08875 27.201L10.8833 14.6542C11.0887 14.1417 11.0887 13.568 10.8833 13.0554L5.09703 0.79982Z" fill="white"/>
<path d="M23.0794 0.79875C23.1355 0.715207 23.1661 0.616758 23.1675 0.515667C23.1689 0.414577 23.1409 0.315313 23.087 0.230241C23.0332 0.145169 22.9559 0.0780484 22.8647 0.0372411C22.7736 -0.00356613 22.6726 -0.0162567 22.5744 0.000750351H19.9696C19.7101 0.0130876 19.458 0.0929717 19.2376 0.232724C19.0173 0.372476 18.8361 0.567397 18.7114 0.79875L12.9168 13.0571C12.7115 13.5697 12.7115 14.1434 12.9168 14.6559L18.7114 27.2027C18.833 27.4333 19.0112 27.6282 19.2287 27.7684C19.4462 27.9087 19.6957 27.9897 19.9531 28.0035H22.5744C22.6725 28.019 22.7729 28.0052 22.8633 27.9637C22.9538 27.9222 23.0303 27.8548 23.0836 27.7698C23.1369 27.6848 23.1646 27.5859 23.1634 27.4852C23.1621 27.3845 23.132 27.2863 23.0766 27.2027L17.2821 14.6559C17.0767 14.1434 17.0767 13.5697 17.2821 13.0571L23.0794 0.79875Z" fill="white"/>
<path d="M55.1508 28H58.9256C59.1566 27.9993 59.378 27.9058 59.5413 27.74C59.7047 27.5743 59.7968 27.3496 59.7975 27.1152V25.6424C59.7968 25.408 59.7047 25.1833 59.5413 25.0176C59.378 24.8518 59.1566 24.7583 58.9256 24.7576H56.3125C56.0815 24.7569 55.8601 24.6634 55.6968 24.4976C55.5334 24.3319 55.4413 24.1072 55.4406 23.8728V0.8848C55.4399 0.652761 55.3497 0.430218 55.1893 0.264838C55.0289 0.0994576 54.8111 0.0043909 54.5824 0L52.5488 0C52.3178 0.000738388 52.0964 0.0941952 51.9331 0.259968C51.7697 0.42574 51.6776 0.650364 51.6769 0.8848V27.1152C51.6776 27.3496 51.7697 27.5743 51.9331 27.74C52.0964 27.9058 52.3178 27.9993 52.5488 28H55.1508Z" fill="white"/>
<path d="M110.337 3.2424C110.568 3.24166 110.789 3.1482 110.953 2.98243C111.116 2.81666 111.208 2.59204 111.209 2.3576V0.8848C111.208 0.650364 111.116 0.42574 110.953 0.259968C110.789 0.0941952 110.568 0.000738388 110.337 0L103.946 0C103.715 0.000738388 103.494 0.0941952 103.331 0.259968C103.167 0.42574 103.075 0.650364 103.074 0.8848V27.1152C103.075 27.3496 103.167 27.5743 103.331 27.74C103.494 27.9058 103.715 27.9993 103.946 28H110.337C110.568 27.9993 110.789 27.9058 110.953 27.74C111.116 27.5743 111.208 27.3496 111.209 27.1152V25.6424C111.208 25.408 111.116 25.1833 110.953 25.0176C110.789 24.8518 110.568 24.7583 110.337 24.7576H107.724C107.493 24.7569 107.272 24.6634 107.108 24.4976C106.945 24.3319 106.853 24.1072 106.852 23.8728V16.2092C106.853 15.9748 106.945 15.7501 107.108 15.5844C107.272 15.4186 107.493 15.3251 107.724 15.3244H110.337C110.568 15.3237 110.789 15.2302 110.953 15.0644C111.116 14.8987 111.208 14.674 111.209 14.4396V13.2636C111.208 13.0292 111.116 12.8045 110.953 12.6388C110.789 12.473 110.568 12.3795 110.337 12.3788H107.724C107.493 12.3781 107.272 12.2846 107.108 12.1188C106.945 11.9531 106.853 11.7284 106.852 11.494V4.1272C106.853 3.89276 106.945 3.66814 107.108 3.50237C107.272 3.3366 107.493 3.24314 107.724 3.2424H110.337Z" fill="white"/>
<path d="M30.7944 14.6524C30.6979 14.4121 30.6662 14.15 30.7026 13.8931C30.7389 13.6363 30.842 13.3938 31.0013 13.1908L36.0177 7.4424C36.1727 7.26033 36.2579 7.02777 36.2579 6.7872C36.2579 6.54662 36.1727 6.31407 36.0177 6.132L31.0179 0.6496C30.6232 0.261668 30.104 0.0310461 29.5554 0L26.9396 0C26.4595 0 26.3353 0.28 26.6637 0.6496L31.6525 6.1292C31.8075 6.31127 31.8927 6.54382 31.8927 6.7844C31.8927 7.02497 31.8075 7.25753 31.6525 7.4396L26.6471 13.1908C26.4874 13.3936 26.3838 13.6359 26.3469 13.8927C26.3101 14.1496 26.3413 14.4118 26.4374 14.6524L32.232 27.1992C32.3536 27.4298 32.5317 27.6246 32.7493 27.7649C32.9668 27.9052 33.2163 27.9861 33.4736 28H36.095C36.1931 28.0155 36.2935 28.0016 36.3839 27.9601C36.4743 27.9186 36.5509 27.8512 36.6042 27.7663C36.6575 27.6813 36.6852 27.5824 36.6839 27.4817C36.6827 27.381 36.6525 27.2828 36.5972 27.1992L30.7944 14.6524Z" fill="white"/>
<path d="M120.019 14.6524C119.923 14.4121 119.891 14.15 119.928 13.8931C119.964 13.6363 120.067 13.3938 120.226 13.1908L125.243 7.4424C125.398 7.26033 125.483 7.02777 125.483 6.7872C125.483 6.54662 125.398 6.31407 125.243 6.132L120.254 0.6496C119.856 0.25858 119.331 0.0277186 118.778 0L116.165 0C115.684 0 115.56 0.28 115.889 0.6496L120.877 6.1292C121.032 6.31127 121.118 6.54382 121.118 6.7844C121.118 7.02497 121.032 7.25753 120.877 7.4396L115.869 13.1908C115.71 13.3938 115.607 13.6363 115.571 13.8931C115.534 14.15 115.566 14.4121 115.662 14.6524L121.457 27.1992C121.579 27.4298 121.757 27.6246 121.974 27.7649C122.192 27.9052 122.441 27.9861 122.699 28H125.312C125.41 28.0155 125.51 28.0016 125.601 27.9601C125.691 27.9186 125.768 27.8512 125.821 27.7663C125.874 27.6813 125.902 27.5824 125.901 27.4817C125.899 27.381 125.869 27.2828 125.814 27.1992L120.019 14.6524Z" fill="white"/>
<path d="M97.76 7.4396C97.915 7.25753 98.0002 7.02497 98.0002 6.7844C98.0002 6.54382 97.915 6.31127 97.76 6.1292L92.7574 0.6496C92.3592 0.25858 91.8346 0.0277186 91.2811 0L88.6681 0C88.188 0 88.0638 0.28 88.3921 0.6496L93.381 6.1292C93.5359 6.31127 93.6212 6.54382 93.6212 6.7844C93.6212 7.02497 93.5359 7.25753 93.381 7.4396L88.3866 13.1908C88.2274 13.3938 88.1243 13.6363 88.0879 13.8931C88.0515 14.15 88.0832 14.4121 88.1797 14.6524L93.9742 27.1992C94.0958 27.4298 94.274 27.6246 94.4915 27.7649C94.709 27.9052 94.9585 27.9861 95.2159 28H97.829C97.9271 28.0155 98.0275 28.0016 98.1179 27.9601C98.2083 27.9186 98.2849 27.8512 98.3382 27.7663C98.3915 27.6813 98.4192 27.5824 98.4179 27.4817C98.4167 27.381 98.3865 27.2828 98.3312 27.1992L92.5366 14.6524C92.4401 14.4121 92.4085 14.15 92.4448 13.8931C92.4812 13.6363 92.5843 13.3938 92.7436 13.1908L97.76 7.4396Z" fill="white"/>
<path d="M42.6346 0.6496C42.24 0.261668 41.7208 0.0310461 41.1722 0L38.5591 0C38.079 0 37.9548 0.28 38.2832 0.6496L43.2693 6.1292C43.4242 6.31127 43.5095 6.54382 43.5095 6.7844C43.5095 7.02498 43.4242 7.25753 43.2693 7.4396L38.2639 13.1908C37.9466 13.5548 38.079 13.8516 38.5564 13.8516H41.1694C41.7164 13.8213 42.2327 13.5858 42.6181 13.1908L47.6345 7.4424C47.7894 7.26033 47.8747 7.02778 47.8747 6.7872C47.8747 6.54662 47.7894 6.31407 47.6345 6.132L42.6346 0.6496Z" fill="white"/>
<path d="M79.1264 0.79982C79.0027 0.570028 78.8232 0.37611 78.6049 0.236454C78.3867 0.0967975 78.1369 0.0160335 77.8792 0.00182028H75.2772C75.1798 -0.0125403 75.0805 0.0021016 74.9912 0.0439664C74.9019 0.0858312 74.8265 0.153116 74.7742 0.237642C74.7219 0.322169 74.6949 0.420296 74.6965 0.520098C74.6981 0.6199 74.7282 0.717078 74.7833 0.79982L80.5778 13.0582C80.7832 13.5708 80.7832 14.1445 80.5778 14.657L74.7833 27.2038C74.7295 27.2868 74.7004 27.3837 74.6994 27.483C74.6984 27.5823 74.7255 27.6798 74.7775 27.7639C74.8296 27.8479 74.9044 27.9151 74.9929 27.9573C75.0815 27.9995 75.1802 28.0149 75.2772 28.0018H77.8902C78.1476 27.988 78.3971 27.907 78.6146 27.7667C78.8321 27.6264 79.0103 27.4316 79.1319 27.201L84.9265 14.6542C85.1318 14.1417 85.1318 13.568 84.9265 13.0554L79.1264 0.79982Z" fill="white"/>
<path d="M72.0571 0.797109C72.1124 0.714166 72.1426 0.616674 72.1442 0.516556C72.1457 0.416438 72.1185 0.318033 72.0658 0.233373C72.0131 0.148714 71.9372 0.0814706 71.8475 0.0398657C71.7577 -0.00173922 71.658 -0.0159022 71.5604 -0.000891378H68.9474C68.6897 0.0133218 68.4399 0.0940858 68.2216 0.233742C68.0034 0.373398 67.8239 0.567317 67.7002 0.797109L61.9056 13.0555C61.7002 13.5681 61.7002 14.1418 61.9056 14.6543L67.7002 27.2011C67.8218 27.4317 68 27.6265 68.2175 27.7668C68.435 27.9071 68.6845 27.9881 68.9418 28.0019H71.5549C71.653 28.0174 71.7534 28.0036 71.8438 27.962C71.9343 27.9205 72.0108 27.8532 72.0641 27.7682C72.1174 27.6832 72.1451 27.5843 72.1439 27.4836C72.1426 27.3829 72.1125 27.2847 72.0571 27.2011L66.2626 14.6543C66.0572 14.1418 66.0572 13.5681 66.2626 13.0555L72.0571 0.797109Z" fill="white"/>
<path d="M75.3627 13.1609C75.5095 13.3586 75.589 13.5994 75.589 13.8469C75.589 14.0944 75.5095 14.3352 75.3627 14.5329L73.961 16.2857C73.8981 16.3747 73.8153 16.4473 73.7193 16.4973C73.6234 16.5473 73.517 16.5735 73.4091 16.5735C73.3012 16.5735 73.1949 16.5473 73.0989 16.4973C73.0029 16.4473 72.9201 16.3747 72.8572 16.2857L71.4555 14.5329C71.3087 14.3352 71.2292 14.0944 71.2292 13.8469C71.2292 13.5994 71.3087 13.3586 71.4555 13.1609L72.8572 11.4081C72.9201 11.3191 73.0029 11.2465 73.0989 11.1965C73.1949 11.1465 73.3012 11.1204 73.4091 11.1204C73.517 11.1204 73.6234 11.1465 73.7193 11.1965C73.8153 11.2465 73.8981 11.3191 73.961 11.4081L75.3627 13.1609Z" fill="white"/>
</g>
<defs>
<clipPath id="clip0">
<rect width="125.548" height="28" fill="white" transform="translate(0.5)"/>
</clipPath>
</defs>
</svg>
