<svg width="48" height="48" viewBox="0 0 48 48" fill="none" xmlns="http://www.w3.org/2000/svg">
<g clip-path="url(#clip0_1952_16927)">
<path d="M10 22C15.5228 22 20 17.5228 20 12C20 6.47715 15.5228 2 10 2C4.47715 2 0 6.47715 0 12C0 17.5228 4.47715 22 10 22Z" fill="#FF6719"/>
<mask id="mask0_1952_16927" style="mask-type:luminance" maskUnits="userSpaceOnUse" x="0" y="0" width="48" height="48">
<path d="M48 0H0V48H48V0Z" fill="white"/>
</mask>
<g mask="url(#mask0_1952_16927)">
<path d="M39.7909 6H8.20912C6.98906 6 6 6.98906 6 8.20912V39.7909C6 41.0109 6.98906 42 8.20912 42H39.7909C41.0109 42 42 41.0109 42 39.7909V8.20912C42 6.98906 41.0109 6 39.7909 6Z" stroke="#343437" stroke-width="2" stroke-linecap="round" stroke-linejoin="round"/>
<path d="M31.5562 21.3359C32.7833 21.3359 33.7782 22.3308 33.7782 23.5579V25.7799C33.7837 26.6103 34.2563 27.3668 35.0002 27.7359V28.2679C34.2563 28.6371 33.7837 29.3936 33.7782 30.2239V32.4459C33.7782 33.6731 32.7833 34.6679 31.5562 34.6679" stroke="#343437" stroke-width="2" stroke-linecap="round" stroke-linejoin="round"/>
<path d="M16.444 34.6679C15.2168 34.6679 14.222 33.6731 14.222 32.4459V30.2239C14.2165 29.3936 13.7438 28.6371 13 28.2679V27.7359C13.7438 27.3668 14.2165 26.6103 14.222 25.7799V23.5579C14.222 22.3308 15.2168 21.3359 16.444 21.3359" stroke="#343437" stroke-width="2" stroke-linecap="round" stroke-linejoin="round"/>
<path d="M42 14H6" stroke="#343437" stroke-width="2" stroke-linecap="round" stroke-linejoin="round"/>
<path d="M20 29C20.5523 29 21 28.5523 21 28C21 27.4477 20.5523 27 20 27C19.4477 27 19 27.4477 19 28C19 28.5523 19.4477 29 20 29Z" fill="#343437"/>
<path d="M24 29C24.5523 29 25 28.5523 25 28C25 27.4477 24.5523 27 24 27C23.4477 27 23 27.4477 23 28C23 28.5523 23.4477 29 24 29Z" fill="#343437"/>
<path d="M28 29C28.5523 29 29 28.5523 29 28C29 27.4477 28.5523 27 28 27C27.4477 27 27 27.4477 27 28C27 28.5523 27.4477 29 28 29Z" fill="#343437"/>
</g>
</g>
<defs>
<clipPath id="clip0_1952_16927">
<rect width="48" height="48" fill="white"/>
</clipPath>
</defs>
</svg>
