<svg width="44" height="40" viewBox="0 0 44 40" fill="none" xmlns="http://www.w3.org/2000/svg">
<g clip-path="url(#clip0_1050_30293)">
<rect width="43.2" height="40" rx="20" fill="black"/>
<path d="M-0.347656 19.991L2.56202 18.4386L-0.347656 19.991Z" fill="#00FF76"/>
<path d="M18.7695 17.6263L21.5816 16.1232L18.7695 17.6263Z" fill="#00FF76"/>
<path d="M13.3496 12.6649L21.5819 8.27051L13.3496 12.6649Z" fill="#00FF76"/>
<path d="M10.6445 10.1841L21.5824 4.33578L10.6445 10.1841Z" fill="#00FF76"/>
<path d="M7.93848 7.70337L21.582 0.409454L7.93848 7.70337Z" fill="#00FF76"/>
<path d="M5.2334 5.22268L21.5826 -3.51688L5.2334 5.22268Z" fill="#00FF76"/>
<path d="M2.52734 2.74251L21.5822 -7.44269L2.52734 2.74251Z" fill="#00FF76"/>
<path d="M-0.177657 0.26181L21.5828 -11.369L-0.186523 0.26181H-0.177657Z" fill="#00FF76"/>
<path d="M20.1179 18.8666L21.5816 18.0863V16.1232L18.7695 17.6263L20.1179 18.8666Z" fill="#00FF76"/>
<path d="M17.4129 16.3859L21.5823 14.16V12.1968L16.0557 15.1456L17.4129 16.3859Z" fill="#00FF76"/>
<path d="M-0.347656 19.991H3.32492L3.9104 19.6789L2.56202 18.4386L-0.347656 19.991Z" fill="#00FF76"/>
<path d="M14.7069 13.9052L21.5819 10.2336V8.27051L13.3496 12.6649L14.7069 13.9052Z" fill="#00FF76"/>
<path d="M-7.69238 19.9916H-4.0198L1.2052 17.1989L-0.15206 15.9586L-7.69238 19.9916Z" fill="#00FF76"/>
<path d="M12.0018 11.4243L21.5824 6.30711V4.33578L10.6445 10.1841L12.0018 11.4243Z" fill="#00FF76"/>
<path d="M9.28686 8.94366L21.582 2.37257V0.409454L7.93848 7.70337L9.28686 8.94366Z" fill="#00FF76"/>
<path d="M6.58179 6.46297L21.5826 -1.55376V-3.51688L5.2334 5.22268L6.58179 6.46297Z" fill="#00FF76"/>
<path d="M3.87573 3.9828L21.5822 -5.47957V-7.44269L2.52734 2.74251L3.87573 3.9828Z" fill="#00FF76"/>
<path d="M1.16968 1.50211L21.5818 -9.40591V-11.369L-0.178711 0.261813L1.16968 1.50211Z" fill="#00FF76"/>
<path d="M-2.85795 13.4783L7.93801 7.72864L6.58076 6.48834L-4.20634 12.238L-2.85795 13.4783ZM-0.196663 15.9425L10.5993 10.1928L9.25092 8.9525L-1.54505 14.7022L-0.196663 15.9425ZM2.51785 18.4067L13.3049 12.657L11.9566 11.4167L1.1606 17.1664L2.51785 18.4067ZM17.9799 19.9591H21.2977L20.0735 18.8338L17.9799 19.9591ZM10.6259 19.9591H14.3074L18.7429 17.5935L17.3856 16.3532L10.6437 19.9591M4.22995 19.9591H6.97108L16.0283 15.1129L14.6799 13.8726L3.88398 19.6223L4.22995 19.9344M-84.87 19.9344H-81.1975L-76.6023 17.4703L-72.5749 13.774L-71.466 12.7637L-84.8789 19.9344" fill="#00FF76"/>
<path d="M-13.6795 3.55527L-2.89242 -2.19443L-4.24081 -3.43473L-15.0368 2.31498L-13.6795 3.55527ZM-11.0182 6.01943L-0.231133 0.269728L-1.57952 -0.970568L-12.3045 4.79557L-10.9739 6.03587M-8.31258 8.50002L2.48338 2.75032L1.12613 1.51002L-9.64323 7.27616L-8.28597 8.51645M-5.62468 10.9806L5.17129 5.2309L3.81403 3.99061L-6.98194 9.74031L-5.62468 10.9806ZM-86.7852 11.1613L-28.1481 -20.191C-29.0352 -20.421 -29.8513 -20.6181 -30.7118 -20.7824L-81.5779 6.46298L-86.7231 11.1777" fill="#00FF76"/>
<path d="M43.5112 19.991L40.6016 18.4386L43.5112 19.991Z" fill="#00FF76"/>
<path d="M24.3941 17.6263L21.582 16.1232L24.3941 17.6263Z" fill="#00FF76"/>
<path d="M29.8143 12.6649L21.582 8.27051L29.8143 12.6649Z" fill="#00FF76"/>
<path d="M32.5199 10.1841L21.582 4.33578L32.5199 10.1841Z" fill="#00FF76"/>
<path d="M35.2256 7.70337L21.582 0.409454L35.2256 7.70337Z" fill="#00FF76"/>
<path d="M37.9312 5.22268L21.582 -3.51688L37.9312 5.22268Z" fill="#00FF76"/>
<path d="M40.6369 2.74251L21.582 -7.44269L40.6369 2.74251Z" fill="#00FF76"/>
<path d="M43.3514 0.26181L21.582 -11.369L43.3514 0.26181Z" fill="#00FF76"/>
<path d="M23.0457 18.8666L21.582 18.0863V16.1232L24.3941 17.6263L23.0457 18.8666Z" fill="#00FF76"/>
<path d="M25.7514 16.3859L21.582 14.16V12.1968L27.1086 15.1456L25.7514 16.3859Z" fill="#00FF76"/>
<path d="M43.511 19.991H39.8384L39.2529 19.6789L40.6013 18.4386L43.511 19.991Z" fill="#00FF76"/>
<path d="M28.457 13.9052L21.582 10.2336V8.27051L29.8143 12.6649L28.457 13.9052Z" fill="#00FF76"/>
<path d="M50.8566 19.9916H47.184L41.959 17.1989L43.3162 15.9586L50.8566 19.9916Z" fill="#00FF76"/>
<path d="M31.1627 11.4243L21.582 6.30711V4.33578L32.5199 10.1841L31.1627 11.4243Z" fill="#00FF76"/>
<path d="M33.8683 8.94366L21.582 2.37257V0.409454L35.2256 7.70337L33.8683 8.94366Z" fill="#00FF76"/>
<path d="M36.5828 6.46297L21.582 -1.55376V-3.51688L37.9312 5.22268L36.5828 6.46297Z" fill="#00FF76"/>
<path d="M39.2885 3.9828L21.582 -5.47957V-7.44269L40.6369 2.74251L39.2885 3.9828Z" fill="#00FF76"/>
<path d="M41.9941 1.50211L21.582 -9.40591V-11.369L43.3514 0.261813L41.9941 1.50211Z" fill="#00FF76"/>
<path d="M46.0213 13.4783L47.3697 12.238L36.5826 6.48834L35.2253 7.72864L46.0213 13.4783ZM43.3156 15.9425L44.664 14.7022L33.8681 8.9525L32.5197 10.1928L43.3156 15.9425ZM40.6011 18.4067L41.9584 17.1664L31.1624 11.4167L29.814 12.657L40.6011 18.4067ZM25.139 19.9591L23.0455 18.8338L21.8213 19.9591H25.139ZM32.4931 19.9591L25.7511 16.3532L24.3939 17.5935L28.8293 19.9591H32.5019M38.9156 19.9591L39.2616 19.647L28.4656 13.8973L27.1173 15.1375L36.1745 19.9837H38.9156M128.016 19.9837L114.603 12.813L115.712 13.8233L119.739 17.5196L124.334 19.9837H128.007" fill="#00FF76"/>
<path d="M56.8886 3.55557L58.2459 2.31527L47.4499 -3.43443L46.1015 -2.19414L56.8886 3.55557ZM54.2274 6.01973L55.5846 4.77943L44.7886 -0.970272L43.4403 0.270023L54.2274 6.01973ZM51.5217 8.48389L52.879 7.24359L42.083 1.49389L40.7257 2.73418L51.5217 8.48389ZM48.8604 10.948L50.2177 9.70775L39.4217 3.95805L38.0645 5.19834L48.8604 10.948ZM130.021 11.1288L124.876 6.414L73.8145 -20.7657C72.9274 -20.6014 72.1024 -20.4043 71.2507 -20.1743L129.888 11.178" fill="#00FF76"/>
<path d="M-0.347656 19.9915L2.56202 21.5439L-0.347656 19.9915Z" fill="#00FF76"/>
<path d="M18.7695 22.3566L21.5816 23.8597L18.7695 22.3566Z" fill="#00FF76"/>
<path d="M13.3496 27.3182L21.5819 31.7126L13.3496 27.3182Z" fill="#00FF76"/>
<path d="M10.6445 29.7993L21.5824 35.6393L10.6445 29.7993Z" fill="#00FF76"/>
<path d="M7.93848 32.2792L21.582 39.5732L7.93848 32.2792Z" fill="#00FF76"/>
<path d="M5.2334 34.7603L21.5826 43.4999L5.2334 34.7603Z" fill="#00FF76"/>
<path d="M2.52734 37.2403L21.5822 47.4255L2.52734 37.2403Z" fill="#00FF76"/>
<path d="M-0.177657 39.7214L21.5828 51.3522L-0.186523 39.7214H-0.177657Z" fill="#00FF76"/>
<path d="M20.1179 21.1172L21.5816 21.8975V23.8606L18.7695 22.3574L20.1179 21.1172Z" fill="#00FF76"/>
<path d="M17.4129 23.5971L21.5823 25.8231V27.7862L16.0557 24.8374L17.4129 23.5971Z" fill="#00FF76"/>
<path d="M-0.347656 19.9915H3.32492L3.9104 20.3036L2.56202 21.5439L-0.347656 19.9915Z" fill="#00FF76"/>
<path d="M14.7069 26.0776L21.5819 29.7492V31.7124L13.3496 27.3179L14.7069 26.0776Z" fill="#00FF76"/>
<path d="M-7.69238 19.9915H-4.0198L1.2052 22.7842L-0.15206 24.0245L-7.69238 19.9915Z" fill="#00FF76"/>
<path d="M12.0018 28.5587L21.5824 33.676V35.6391L10.6445 29.799L12.0018 28.5587Z" fill="#00FF76"/>
<path d="M9.28686 31.0392L21.582 37.6103V39.5735L7.93848 32.2795L9.28686 31.0392Z" fill="#00FF76"/>
<path d="M6.58179 33.5198L21.5826 41.5365V43.4996L5.2334 34.7601L6.58179 33.5198Z" fill="#00FF76"/>
<path d="M3.87573 36.0003L21.5822 45.4627V47.4258L2.52734 37.2406L3.87573 36.0003Z" fill="#00FF76"/>
<path d="M1.16968 38.4808L21.5818 49.3888V51.352L-0.178711 39.7211L1.16968 38.4808Z" fill="#00FF76"/>
<path d="M-2.85729 26.5048L-4.20568 27.7451L6.58141 33.4948L7.93867 32.2545L-2.85729 26.5048ZM-0.195999 24.0407L-1.5444 25.281L9.25159 31.0307L10.6 29.7904L-0.195999 24.0407ZM2.51851 21.5765L1.16125 22.8168L11.9572 28.5665L13.3056 27.3262L2.51851 21.5765ZM17.9806 20.0241L20.0742 21.1494L21.2984 20.0241H17.9806ZM10.6266 20.0241L17.3685 23.63L18.7258 22.3897L14.2903 20.0241H10.6709M4.25723 20.0241L3.91126 20.3362L14.7072 26.0859L16.0556 24.8456L6.99835 19.9994H4.25723M-84.8428 19.9994L-71.4299 27.1455L-72.5387 26.1352L-76.5662 22.439L-81.1613 19.9748H-84.8428" fill="#00FF76"/>
<path d="M-13.6801 36.4274L-15.0374 37.6677L-4.24139 43.4174L-2.893 42.1771L-13.6801 36.4274ZM-11.0188 33.9633L-12.3051 35.1871L-1.50913 40.9368L-0.160744 39.6966L-10.9478 33.9468M-8.28655 31.4827L-9.64381 32.7066L1.15216 38.4563L2.50941 37.216L-8.28655 31.4663M-5.62526 29.0021L-6.98251 30.2424L3.81345 35.9921L5.17071 34.7518L-5.62526 29.0021ZM-86.7236 28.7885L-81.5785 33.5033L-30.6503 60.7323C-29.7632 60.568 -28.9382 60.3709 -28.0865 60.1409L-86.7236 28.7885Z" fill="#00FF76"/>
<path d="M43.5112 19.9915L40.6016 21.5439L43.5112 19.9915Z" fill="#00FF76"/>
<path d="M24.3941 22.3566L21.582 23.8597L24.3941 22.3566Z" fill="#00FF76"/>
<path d="M29.8143 27.3182L21.582 31.7126L29.8143 27.3182Z" fill="#00FF76"/>
<path d="M32.5199 29.7993L21.582 35.6393L32.5199 29.7993Z" fill="#00FF76"/>
<path d="M35.2256 32.2792L21.582 39.5732L35.2256 32.2792Z" fill="#00FF76"/>
<path d="M37.9322 34.7603L21.583 43.4999L37.9322 34.7603Z" fill="#00FF76"/>
<path d="M40.6369 37.2403L21.582 47.4255L40.6369 37.2403Z" fill="#00FF76"/>
<path d="M43.3514 39.7208L21.582 51.3517L43.3514 39.7208Z" fill="#00FF76"/>
<path d="M23.0457 21.1172L21.582 21.8975V23.8606L24.3941 22.3574L23.0457 21.1172Z" fill="#00FF76"/>
<path d="M25.7514 23.5971L21.582 25.8231V27.7862L27.1086 24.8374L25.7514 23.5971Z" fill="#00FF76"/>
<path d="M43.511 19.9915H39.8384L39.2529 20.3036L40.6013 21.5439L43.511 19.9915Z" fill="#00FF76"/>
<path d="M28.457 26.0776L21.582 29.7492V31.7124L29.8143 27.3179L28.457 26.0776Z" fill="#00FF76"/>
<path d="M50.8566 19.9915H47.184L41.959 22.7842L43.3162 24.0245L50.8566 19.9915Z" fill="#00FF76"/>
<path d="M31.1627 28.5587L21.582 33.676V35.6391L32.5199 29.799L31.1627 28.5587Z" fill="#00FF76"/>
<path d="M33.8693 31.0392L21.583 37.6103V39.5735L35.2266 32.2795L33.8693 31.0392Z" fill="#00FF76"/>
<path d="M36.5828 33.5198L21.582 41.5365V43.4996L37.9312 34.7601L36.5828 33.5198Z" fill="#00FF76"/>
<path d="M39.2885 36.0003L21.582 45.4627V47.4258L40.6369 37.2406L39.2885 36.0003Z" fill="#00FF76"/>
<path d="M41.9941 38.4808L21.582 49.3888V51.352L43.3514 39.7211L41.9941 38.4808Z" fill="#00FF76"/>
<path d="M46.0213 26.5048L35.2253 32.2545L36.5826 33.4948L47.3697 27.7451L46.0213 26.5048ZM43.3156 24.0407L32.5197 29.7904L33.8681 31.0307L44.664 25.281L43.3156 24.0407ZM40.6011 21.5765L29.814 27.3262L31.1624 28.5665L41.9584 22.8168L40.6011 21.5765ZM25.139 20.0241H21.8213L23.0455 21.1494L25.139 20.0241ZM32.4931 20.0241H28.8205L24.385 22.3897L25.7423 23.63L32.4842 20.0241M38.8979 20.0241H36.1568L27.0995 24.8703L28.5011 26.0777L39.2971 20.328L38.9511 20.0159M128.051 20.0159H124.308L119.712 22.48L115.685 26.1763L114.594 27.1455L128.007 19.9748" fill="#00FF76"/>
<path d="M56.8886 36.4276L46.1015 42.1773L47.4499 43.4175L58.2459 37.6678L56.8886 36.4276ZM54.2274 33.9634L43.4403 39.7131L44.7886 40.9534L55.5846 35.2037L54.2274 33.9634ZM51.5217 31.4992L40.7257 37.2489L42.083 38.4892L52.879 32.7395L51.5217 31.4992ZM48.8604 29.0351L38.0645 34.7848L39.4217 36.0251L50.2177 30.2754L48.8604 29.0351ZM130.021 28.8544L71.3838 60.2067C72.2709 60.4367 73.087 60.6338 73.9475 60.7981L124.876 33.5691L130.021 28.8544Z" fill="#00FF76"/>
</g>
<defs>
<clipPath id="clip0_1050_30293">
<rect width="43.2" height="40" rx="20" fill="white"/>
</clipPath>
</defs>
</svg>
