<svg width="150" height="48" viewBox="0 0 150 48" fill="none" xmlns="http://www.w3.org/2000/svg">
<g id="amy logo">
<path id="Vector" d="M106.5 31.592C106.544 32.567 106.189 33.4107 105.435 34.1192C104.681 34.8277 103.816 35.1826 102.842 35.1826C101.866 35.1826 101.013 34.8612 100.282 34.2197C99.549 33.5768 99.1834 32.7679 99.1834 31.7915V18.7549C99.1834 16.0509 98.183 13.7219 96.1861 11.7705C94.1879 9.81921 91.7852 8.84421 88.974 8.84421C86.8673 8.84421 84.9455 9.43215 83.2111 10.6067C81.4754 11.7826 80.2352 13.3 79.4892 15.163C79.0941 16.1393 78.8973 16.8263 78.8973 17.2241C78.8973 18.9545 78.8973 21.2822 78.8973 24.2085C78.8973 27.6679 78.8973 29.9955 78.8973 31.1929C78.8973 32.2134 78.5196 33.1335 77.7656 33.9531C77.0115 34.7728 76.1035 35.1826 75.0388 35.1826C74.0624 35.1826 73.2093 34.8625 72.4781 34.2223C71.7468 33.5808 71.3812 32.7518 71.3812 31.7326V18.7951C71.3812 18.6183 71.3812 18.3531 71.3812 17.9996C71.3812 17.646 71.3812 17.3808 71.3812 17.2027C71.3812 16.7165 71.2044 16.0094 70.8535 15.0799C70.1075 13.1339 68.8553 11.5643 67.0981 10.3697C65.3423 9.17501 63.3883 8.57769 61.2374 8.57769C58.4263 8.57769 56.033 9.54063 54.0575 11.4638C52.0807 13.3884 51.0937 15.7214 51.0937 18.463C51.0937 18.4201 51.0937 22.6656 51.0937 31.2022C51.0937 32.1746 50.716 33.0156 49.9633 33.7228C49.208 34.4313 48.3441 34.7848 47.3691 34.7848C46.3928 34.7848 45.5397 34.4621 44.8084 33.8205C44.0758 33.1777 43.7102 32.3674 43.7102 31.3924V18.3558C43.7102 13.6991 45.4084 9.7201 48.8035 6.41608C52.1999 3.1134 56.3169 1.46072 61.1557 1.46072C66.9709 1.46072 71.6544 3.70001 75.2048 8.17858C78.6669 3.96653 83.2165 1.85983 88.8548 1.85983C93.6937 1.85983 97.8428 3.51251 101.305 6.81519C104.768 10.1192 106.5 14.121 106.5 18.8205C106.5 18.7777 106.5 23.0339 106.5 31.592Z" fill="white"/>
<path id="Vector_2" d="M150 15.2554C150 20.3848 148.519 24.763 145.558 28.3871C142.598 32.0138 138.624 34.1808 133.638 34.888V44.1732C133.638 45.1455 133.296 45.9746 132.616 46.6603C131.936 47.3446 131.112 47.6888 130.145 47.6888C129.178 47.6888 128.354 47.3446 127.674 46.6589C126.994 45.9719 126.654 45.1429 126.654 44.1679V34.8692C121.752 34.1179 117.832 31.9362 114.895 28.3281C111.958 24.7188 110.49 20.346 110.49 15.2098V4.71519C110.49 3.74153 110.842 2.92188 111.545 2.2576C112.247 1.59331 113.06 1.26117 113.983 1.26117C114.95 1.26117 115.772 1.60403 116.452 2.28974C117.134 2.97679 117.474 3.80581 117.474 4.77813V15.1951C117.474 19.0884 118.641 22.1955 120.976 24.5179C123.311 26.8388 126.41 28 130.279 28C134.147 28 137.237 26.8429 139.548 24.5259C141.86 22.2089 143.016 19.1085 143.016 15.2259V4.76876C143.016 3.79778 143.358 2.97144 144.047 2.28706C144.734 1.60403 145.566 1.26117 146.541 1.26117C147.516 1.26117 148.337 1.60403 149.002 2.28974C149.668 2.97546 150 3.80313 150 4.77679V15.2554Z" fill="white"/>
<path id="Vector_3" d="M23.3464 1.18215C28.2321 1.88795 32.1683 4.11653 35.1054 7.72456C38.0424 11.3326 39.5089 15.7067 39.5089 20.8429V31.3362C39.5089 32.3112 39.158 33.1308 38.4549 33.7938C37.7531 34.458 36.9402 34.7902 36.0174 34.7902C35.0504 34.7902 34.2281 34.4473 33.5464 33.7616C32.8661 33.0759 32.5259 32.2469 32.5259 31.2746V20.8576C32.5259 16.9643 31.358 13.8558 29.0237 11.5348C26.6893 9.21251 23.5902 8.05135 19.721 8.05135C15.8531 8.05135 12.7634 9.20983 10.4518 11.5268C8.14018 13.8424 6.98438 16.9429 6.98438 20.8255V31.2839C6.98438 32.2536 6.64152 33.0813 5.95313 33.7656C5.26607 34.4487 4.43437 34.7902 3.45937 34.7902C2.48438 34.7902 1.66339 34.4473 0.997768 33.763C0.332143 33.0772 0 32.2482 0 31.2759V20.7973C0 15.6665 1.48125 11.2897 4.44241 7.66429C7.40223 4.03885 11.3759 1.87188 16.3621 1.16474C16.3621 1.16474 17.2487 0.908936 19.9299 0.908936C19.9299 0.908936 22.4585 1.05358 23.3464 1.18215Z" fill="white"/>
<path id="Vector_4" d="M26.1347 21.5098C26.1347 25.0335 23.278 27.8902 19.7544 27.8902C16.2307 27.8902 13.374 25.0335 13.374 21.5098C13.374 17.9862 16.2307 15.1295 19.7544 15.1295C23.278 15.1295 26.1347 17.9862 26.1347 21.5098Z" fill="white"/>
</g>
</svg>
