<svg width="180" height="32" viewBox="0 0 180 32" fill="none" xmlns="http://www.w3.org/2000/svg">
<g id="trustwhitelogo">
<g id="Gruppe 21">
<path id="Pfad 96" d="M5.36806 6.27706C3.27736 8.36374 1.50928 10.7503 0.12207 13.3582C0.712452 10.3079 2.20192 7.50408 4.39889 5.30728C6.59585 3.11049 9.39981 1.62122 12.4501 1.03107C9.84192 2.4182 7.45503 4.18628 5.36806 6.27706Z" fill="white"/>
<path id="Pfad 97" d="M1.58481 18.6759C1.25378 19.6302 0.978265 20.6028 0.759635 21.5889C0.403953 20.6005 0.149439 19.5787 0 18.5389C1.3623 14.4301 3.66572 10.6964 6.72661 7.63555C9.78751 4.57466 13.5212 2.27123 17.63 0.908936C18.6696 1.05845 19.6913 1.31296 20.6795 1.66857C16.3108 2.64035 12.2631 4.71307 8.92104 7.68979C5.579 10.6665 3.0536 14.4483 1.58481 18.6759Z" fill="white"/>
<path id="Pfad 98" d="M3.81958 24.2087C3.73887 24.7998 3.68152 25.3931 3.64754 25.9888C3.63161 26.2646 3.47868 26.3151 3.30436 26.1007C2.92604 25.6347 2.57514 25.147 2.25343 24.6402C2.23173 24.6019 2.22161 24.5581 2.2243 24.5141C2.44648 22.573 2.90172 20.6657 3.58018 18.8334C4.79696 15.5508 6.71096 12.5709 9.19029 10.0992C10.9137 8.37243 12.8871 6.91482 15.0443 5.77535C16.9786 4.75527 19.0422 4.00198 21.1788 3.53604C21.98 3.36098 22.7895 3.22654 23.6042 3.13324C23.6482 3.13054 23.692 3.14066 23.7303 3.16237C24.2372 3.484 24.7249 3.83491 25.1909 4.2133C25.4053 4.38762 25.3547 4.54054 25.0789 4.55647C24.4842 4.59046 23.891 4.64781 23.2993 4.72852C18.3688 5.39838 13.7938 7.66627 10.2753 11.1847C6.75688 14.7032 4.48945 19.2781 3.81958 24.2087Z" fill="white"/>
<path id="Pfad 99" d="M27.6847 25.854C28.9656 24.2044 29.9021 22.3143 30.4387 20.296C30.9754 18.2776 31.1012 16.172 30.8088 14.104C30.6204 12.7736 30.2604 11.4732 29.7379 10.2353C29.4275 9.50035 29.0604 8.79061 28.6401 8.11252C28.2998 7.56262 27.9252 7.03467 27.5186 6.5318C27.4818 6.49104 27.4312 6.46541 27.3766 6.45989C26.7136 6.42955 26.05 6.42955 25.3858 6.45989C24.5215 6.50128 23.6607 6.59644 22.8083 6.74481C18.5783 7.47877 14.6785 9.50213 11.6427 12.5379C8.60693 15.5737 6.58358 19.4735 5.84962 23.7035C5.70115 24.5559 5.60599 25.4167 5.5647 26.281C5.53162 26.9731 5.53284 27.6657 5.56834 28.3587C6.09135 28.7864 6.64189 29.1793 7.21642 29.5348C7.89445 29.9553 8.60419 30.3223 9.33921 30.6326C12.8913 32.1293 16.8715 32.259 20.5135 30.9967C21.6267 30.6107 22.6921 30.0987 23.689 29.4706C24.6722 28.8499 25.5833 28.1215 26.4053 27.2991C26.8611 26.8442 27.2884 26.3616 27.6847 25.854ZM24.4873 26.9714C22.2146 28.9086 19.3815 30.0675 16.4026 30.2785C14.4748 30.4165 12.5392 30.1553 10.7169 29.5111C9.41867 29.0519 8.19573 28.4027 7.08807 27.5845C7.06542 26.1385 7.20496 24.6946 7.50407 23.2797C7.6705 22.4898 7.88683 21.7111 8.15174 20.9485C9.10722 18.195 10.6743 15.6939 12.7351 13.6331C14.796 11.5722 17.2971 10.0051 20.0506 9.04966C21.4201 8.57538 22.8386 8.2563 24.2793 8.09841C25.0792 8.01071 25.8838 7.97301 26.6884 7.98553C27.9315 9.66883 28.7798 11.6104 29.1703 13.6662C29.4963 15.3799 29.501 17.1393 29.1844 18.8548C29.0672 19.4906 28.906 20.1175 28.702 20.7309C28.3305 21.8483 27.8189 22.9141 27.1795 23.9028C26.8448 24.42 26.4763 24.9145 26.0762 25.383C25.835 25.6661 25.5807 25.9414 25.3134 26.2091C25.0461 26.4767 24.7707 26.7308 24.4873 26.9714Z" fill="white"/>
<path id="Pfad 100" d="M24.1655 24.6188C24.1705 24.6148 24.1778 24.6079 24.1819 24.6034C24.9506 23.7927 25.603 22.8791 26.1204 21.8889C26.9232 20.3485 27.3841 18.6531 27.4717 16.9183C27.5048 16.2698 27.486 15.6198 27.4153 14.9743C27.2246 13.2211 26.6513 11.5311 25.7358 10.0237C25.7161 9.9957 25.6901 9.9728 25.6597 9.95695C25.6294 9.94111 25.5957 9.9328 25.5615 9.93271C25.0129 9.9585 24.4667 10.0104 23.9229 10.0884C23.2053 10.1908 22.4948 10.3381 21.7956 10.5294C21.2396 10.6809 20.6917 10.8605 20.1539 11.0674C16.9885 12.2835 14.2484 14.3998 12.272 17.1553C10.2955 19.9107 9.16918 23.1846 9.03198 26.5728C10.5636 27.5222 12.2882 28.1169 14.0795 28.3133C15.2387 28.4399 16.4101 28.3994 17.5577 28.1931C18.7559 27.9771 19.9144 27.581 20.9941 27.0184C21.9844 26.5012 22.898 25.8488 23.7086 25.0799C23.7131 25.0758 23.7199 25.0685 23.724 25.0635C23.79 24.9843 23.8606 24.9065 23.9357 24.8323C24.0108 24.7581 24.0863 24.6848 24.1655 24.6188ZM21.5635 24.8532C19.9284 26.0318 17.9892 26.7157 15.9766 26.8236C14.1763 26.9228 12.3806 26.5583 10.7615 25.7649C10.7274 25.7459 10.6993 25.7177 10.6804 25.6835C10.6616 25.6493 10.6528 25.6105 10.655 25.5715C11.0431 21.9855 12.6452 18.64 15.1957 16.0896C17.7461 13.5391 21.0917 11.937 24.6776 11.5489C24.7166 11.5467 24.7554 11.5555 24.7896 11.5743C24.8238 11.5932 24.8521 11.6213 24.871 11.6554C25.1479 12.22 25.3735 12.8083 25.5451 13.4132C26.0065 15.0472 26.0689 16.768 25.7271 18.4312C25.4288 19.8839 24.8258 21.2569 23.958 22.4596C23.2927 23.3799 22.4846 24.1879 21.5644 24.8532H21.5635Z" fill="white"/>
<path id="Pfad 101" d="M21.7588 22.1109C22.76 21.0129 23.4607 19.6749 23.793 18.2266C24.1254 16.7783 24.0781 15.2688 23.6558 13.8441C23.6418 13.797 23.6107 13.7569 23.5686 13.7316C23.5264 13.7064 23.4764 13.6978 23.4283 13.7075C22.9825 13.804 22.541 13.9228 22.1038 14.0639C20.0137 14.7431 18.1139 15.9073 16.5599 17.4614C15.0059 19.0154 13.8417 20.9151 13.1625 23.0052C13.0214 23.4419 12.9026 23.8834 12.8061 24.3297C12.7964 24.3778 12.8051 24.4278 12.8303 24.4699C12.8556 24.512 12.8956 24.5432 12.9427 24.5573C14.5778 25.0412 16.3194 25.0318 17.9492 24.5304C19.1614 24.1563 20.2753 23.5175 21.2103 22.6602C21.2955 22.5647 21.3847 22.4709 21.4766 22.379C21.5685 22.287 21.6623 22.1969 21.7579 22.1127L21.7588 22.1109ZM16.7854 23.2328C16.1765 23.3536 15.5543 23.394 14.9348 23.353C14.9041 23.3533 14.8738 23.3459 14.8468 23.3314C14.8197 23.3169 14.7968 23.2958 14.78 23.27C14.7633 23.2443 14.7534 23.2147 14.7512 23.1841C14.7489 23.1535 14.7545 23.1228 14.7673 23.0949C15.3855 21.3884 16.3712 19.8385 17.6546 18.5551C18.938 17.2717 20.4878 16.286 22.1944 15.6679C22.2223 15.6549 22.253 15.6493 22.2837 15.6515C22.3144 15.6536 22.344 15.6635 22.3698 15.6803C22.3957 15.697 22.4168 15.72 22.4313 15.7471C22.4459 15.7742 22.4533 15.8046 22.4529 15.8353C22.5674 17.5462 22.0555 19.2403 21.0127 20.6014C19.9699 21.9626 18.4676 22.8979 16.7859 23.2328H16.7854Z" fill="white"/>
</g>
<path id="Pfad 102" d="M45.2115 18.1317H46.83C46.7454 18.531 46.6028 18.9157 46.4067 19.2736C46.1155 19.8082 45.6842 20.2533 45.1591 20.5612C44.6341 20.8691 44.0351 21.0282 43.4264 21.0214C42.9424 21.0251 42.4628 20.9302 42.0167 20.7424C41.5707 20.5546 41.1676 20.2778 40.8321 19.9291C40.4918 19.5746 40.2263 19.1553 40.0515 18.6961C39.6807 17.6742 39.6807 16.5546 40.0515 15.5328C40.2231 15.0796 40.4838 14.6654 40.8183 14.3147C41.1527 13.964 41.5541 13.6839 41.9986 13.491C42.449 13.2955 42.9354 13.1964 43.4264 13.2002C43.8475 13.1961 44.2656 13.2705 44.6594 13.4196C45.0311 13.5621 45.3742 13.7704 45.6721 14.0345C45.9676 14.2965 46.2148 14.6083 46.4026 14.9557C46.5953 15.3126 46.739 15.6938 46.83 16.089H45.211C45.1028 15.6878 44.8841 15.3251 44.5797 15.0422C44.2603 14.7668 43.8477 14.6242 43.4264 14.6435C43.151 14.6444 42.879 14.7053 42.6294 14.8219C42.368 14.9414 42.1352 15.1155 41.9467 15.3325C41.5228 15.8274 41.2898 16.4576 41.2898 17.1092C41.2898 17.7608 41.5228 18.391 41.9467 18.8859C42.1351 19.103 42.3679 19.2772 42.6294 19.3965C42.879 19.5132 43.1509 19.5741 43.4264 19.5749C43.849 19.5938 44.2629 19.4513 44.5843 19.1762C44.8897 18.8958 45.1075 18.5331 45.2115 18.1317Z" fill="white"/>
<path id="Pfad 103" d="M55.4312 15.9245V20.9388H55.1631C54.9141 20.9388 54.6706 20.8666 54.4618 20.7311C54.253 20.5956 54.0879 20.4024 53.9865 20.1751C53.8306 20.3409 53.6518 20.4834 53.4554 20.5984C53.2383 20.7239 53.007 20.8228 52.7663 20.8929C52.4425 20.9853 52.1067 21.0289 51.77 21.0221C51.0597 21.0708 50.3583 20.8424 49.8129 20.3849C49.5886 20.173 49.4123 19.9157 49.2955 19.6301C49.1788 19.3446 49.1244 19.0374 49.1361 18.7291C49.1306 18.3671 49.2058 18.0084 49.3563 17.6791C49.5232 17.3441 49.7863 17.0666 50.1119 16.8821C50.5633 16.6291 51.0547 16.455 51.5647 16.3674C52.3331 16.2293 53.1131 16.1666 53.8937 16.1803V15.9245C53.9014 15.7527 53.873 15.5811 53.8103 15.4209C53.7476 15.2607 53.6519 15.1155 53.5296 14.9946C53.2289 14.7424 52.8418 14.6173 52.4504 14.646C52.0598 14.6138 51.6693 14.7097 51.338 14.9191C51.1195 15.0789 50.9708 15.3167 50.9229 15.5831H49.3973C49.4144 15.2557 49.4992 14.9355 49.6464 14.6425C49.7935 14.3495 49.9997 14.0902 50.2521 13.8809C50.878 13.3932 51.6602 13.1505 52.4522 13.1982C52.8672 13.1933 53.2795 13.2651 53.6684 13.4098C54.0171 13.5391 54.3373 13.7352 54.611 13.987C54.8696 14.2289 55.0757 14.5214 55.2168 14.8463C55.3627 15.1868 55.4357 15.5541 55.4312 15.9245ZM53.8955 17.5353C53.3446 17.5273 52.7938 17.5592 52.2474 17.6308C51.9095 17.673 51.5786 17.7596 51.2634 17.8884C51.0637 17.9634 50.8953 18.104 50.786 18.2872C50.7046 18.4508 50.6634 18.6315 50.6658 18.8142C50.6698 18.9285 50.6994 19.0405 50.7526 19.1417C50.8058 19.243 50.8811 19.3309 50.973 19.3991C51.2286 19.5895 51.5439 19.6823 51.8619 19.6608C52.4082 19.6955 52.9466 19.517 53.3639 19.1629C53.5338 19.0103 53.6691 18.8232 53.7607 18.6141C53.8523 18.405 53.8981 18.1786 53.895 17.9503L53.8955 17.5353Z" fill="white"/>
<path id="Pfad 104" d="M62.2869 13.3726V14.8191C62.2426 14.8081 62.19 14.7971 62.129 14.7858C62.0738 14.7749 62.0157 14.7625 61.9547 14.7485C61.8949 14.7351 61.8339 14.7282 61.7726 14.728C61.5217 14.7266 61.2733 14.779 61.0444 14.8819C60.8235 14.9806 60.6229 15.1195 60.4527 15.2915C60.2832 15.4639 60.148 15.6668 60.054 15.8896C59.9576 16.1151 59.9082 16.3579 59.9088 16.6032V20.9371H58.3813V13.2843H58.6412C58.8923 13.2845 59.1379 13.3578 59.348 13.4952C59.5581 13.6326 59.7237 13.8282 59.8246 14.0581C59.9682 13.893 60.133 13.7478 60.3148 13.6261C60.507 13.5113 60.7099 13.4154 60.9206 13.3398C61.195 13.2435 61.4846 13.1972 61.7754 13.2033C61.8491 13.2021 61.9229 13.2076 61.9957 13.2197C62.0706 13.2339 62.1387 13.2484 62.2 13.2629L62.2869 13.3726Z" fill="white"/>
<path id="Pfad 105" d="M72.1343 17.1109C72.1408 17.6513 72.0451 18.1881 71.8521 18.693C71.6755 19.1534 71.4087 19.574 71.0675 19.93C70.7319 20.2788 70.3288 20.5555 69.8828 20.7433C69.4367 20.9311 68.9571 21.0261 68.4732 21.0224C68.1368 21.029 67.8012 20.987 67.4768 20.8977C67.2361 20.8312 67.0062 20.7305 66.7941 20.5986C66.6002 20.48 66.4216 20.3378 66.2625 20.1754C66.1612 20.4027 65.9962 20.5958 65.7875 20.7313C65.5788 20.8668 65.3353 20.939 65.0864 20.9391H64.8184V10.2291H66.3458V14.0564C66.5032 13.8898 66.682 13.7447 66.8774 13.6249C67.0907 13.5119 67.3126 13.4161 67.541 13.3382C67.8412 13.241 68.1555 13.1949 68.4709 13.2016C68.9619 13.1981 69.4482 13.2971 69.8987 13.4925C70.3368 13.6833 70.7332 13.9584 71.0652 14.3022C71.4057 14.6573 71.6724 15.0763 71.8499 15.5352C72.0435 16.0377 72.14 16.5724 72.1343 17.1109ZM70.5987 17.1109C70.6033 16.7704 70.5427 16.4323 70.4203 16.1146C70.3086 15.8274 70.1454 15.563 69.9387 15.3345C69.7419 15.1169 69.5018 14.9429 69.2337 14.8238C68.9684 14.7056 68.6812 14.6448 68.3908 14.6454C68.1017 14.6444 67.8157 14.7053 67.5519 14.8238C67.2845 14.9443 67.0445 15.1181 66.8465 15.3345C66.6371 15.5633 66.4724 15.8293 66.3608 16.1187C66.1227 16.7601 66.1227 17.4657 66.3608 18.1072C66.473 18.3951 66.6377 18.6596 66.8465 18.8873C67.0444 19.1038 67.2845 19.2776 67.5519 19.398C67.8156 19.5166 68.1017 19.5774 68.3908 19.5764C68.6812 19.5771 68.9685 19.5163 69.2337 19.398C69.5019 19.279 69.742 19.105 69.9387 18.8873C70.1454 18.6587 70.3085 18.3944 70.4203 18.1072C70.5425 17.7896 70.6029 17.4516 70.5982 17.1113L70.5987 17.1109Z" fill="white"/>
<path id="Pfad 106" d="M81.7273 17.1079C81.7338 17.6479 81.6396 18.1844 81.4497 18.69C81.276 19.1516 81.0108 19.5733 80.67 19.9298C80.3335 20.2777 79.9303 20.5544 79.4846 20.7433C79.0389 20.9322 78.5598 21.0296 78.0757 21.0296C77.5916 21.0296 77.1125 20.9322 76.6668 20.7433C76.2211 20.5544 75.818 20.2777 75.4814 19.9298C75.1411 19.5753 74.8757 19.156 74.7008 18.6968C74.3305 17.6749 74.3305 16.5555 74.7008 15.5336C74.8725 15.0803 75.1332 14.6661 75.4676 14.3153C75.8021 13.9646 76.2034 13.6844 76.6479 13.4913C77.0996 13.2995 77.5853 13.2007 78.076 13.2007C78.5667 13.2007 79.0523 13.2995 79.504 13.4913C79.9485 13.6843 80.3499 13.9645 80.6844 14.3152C81.0188 14.666 81.2795 15.0803 81.4511 15.5336C81.6403 16.0366 81.734 16.5705 81.7273 17.1079ZM80.1999 17.1079C80.2088 16.4568 79.9783 15.8252 79.5522 15.3328C79.3639 15.1157 79.131 14.9415 78.8695 14.8222C78.6204 14.7046 78.3484 14.6436 78.073 14.6436C77.7976 14.6436 77.5256 14.7046 77.2765 14.8222C77.015 14.9415 76.7821 15.1157 76.5938 15.3328C76.1698 15.8277 75.9368 16.4579 75.9368 17.1095C75.9368 17.7611 76.1698 18.3913 76.5938 18.8862C76.7821 19.1034 77.0149 19.2776 77.2765 19.3968C77.5256 19.5142 77.7976 19.5751 78.073 19.5751C78.3484 19.5751 78.6204 19.5142 78.8695 19.3968C79.1311 19.2776 79.364 19.1035 79.5522 18.8862C79.9783 18.3938 80.2088 17.7621 80.1999 17.1111V17.1079Z" fill="white"/>
<path id="Pfad 107" d="M91.103 16.5207V20.9356H89.5773V16.5207C89.578 16.2754 89.5284 16.0325 89.4317 15.807C89.2448 15.3631 88.9005 15.0039 88.4649 14.7984C88.2575 14.6994 88.0308 14.6469 87.8009 14.6446C87.5435 14.6406 87.2884 14.6931 87.0535 14.7984C86.8326 14.897 86.6319 15.0359 86.4619 15.2081C86.2932 15.3787 86.158 15.5794 86.0631 15.7998C85.9659 16.0267 85.9165 16.2711 85.9179 16.518V20.9329H84.3887V13.2846H84.649C84.9 13.285 85.1455 13.3584 85.3556 13.4957C85.5657 13.6331 85.7314 13.8286 85.8324 14.0584C85.9876 13.8929 86.1634 13.7479 86.3554 13.6269C86.5762 13.5112 86.8067 13.4152 87.0444 13.3402C87.3671 13.2424 87.7032 13.1964 88.0403 13.2036C88.4506 13.2014 88.8568 13.2862 89.2319 13.4526C89.5986 13.6143 89.9301 13.8462 90.2077 14.1353C90.4925 14.4364 90.7154 14.7905 90.8636 15.1776C91.0272 15.6062 91.1084 16.0619 91.103 16.5207Z" fill="white"/>
<path id="Pfad 108" d="M95.7189 10.2291V20.9386H94.1915V11.8358H93.6257V10.2291H95.7189Z" fill="white"/>
<path id="Pfad 109" d="M104.719 15.9245V20.9388H104.452C104.203 20.9387 103.959 20.8666 103.75 20.731C103.542 20.5955 103.376 20.4024 103.275 20.1751C103.119 20.3409 102.94 20.4834 102.744 20.5984C102.527 20.724 102.295 20.8229 102.055 20.8928C101.731 20.9854 101.395 21.0289 101.058 21.0221C100.348 21.0709 99.6465 20.8425 99.1012 20.3849C98.877 20.173 98.7006 19.9157 98.5839 19.6301C98.4672 19.3445 98.4128 19.0374 98.4244 18.7291C98.4189 18.3671 98.4942 18.0084 98.6447 17.6791C98.8118 17.3443 99.0748 17.0669 99.4002 16.8821C99.8518 16.6291 100.343 16.455 100.853 16.3673C101.622 16.2293 102.402 16.1666 103.182 16.1803V15.9245C103.19 15.7526 103.162 15.581 103.099 15.4208C103.036 15.2606 102.94 15.1154 102.818 14.9946C102.517 14.7422 102.13 14.6171 101.738 14.646C101.348 14.6138 100.957 14.7097 100.626 14.9191C100.407 15.0789 100.259 15.3167 100.211 15.5831H98.6834C98.7005 15.2557 98.7854 14.9354 98.9326 14.6424C99.0798 14.3494 99.2861 14.0901 99.5386 13.8809C100.164 13.3933 100.946 13.1506 101.738 13.1982C102.153 13.1933 102.566 13.265 102.955 13.4098C103.303 13.5392 103.623 13.7352 103.897 13.9869C104.156 14.2289 104.362 14.5214 104.503 14.8462C104.65 15.1867 104.723 15.5539 104.719 15.9245ZM103.184 17.5352C102.633 17.5273 102.082 17.5592 101.536 17.6308C101.198 17.673 100.867 17.7597 100.552 17.8884C100.352 17.9634 100.184 18.104 100.075 18.2871C99.9933 18.4507 99.9521 18.6314 99.9546 18.8142C99.9585 18.9285 99.9882 19.0404 100.041 19.1417C100.095 19.243 100.17 19.3309 100.262 19.3991C100.517 19.5896 100.833 19.6824 101.151 19.6608C101.697 19.6956 102.235 19.5171 102.653 19.1628C102.823 19.0103 102.958 18.8232 103.049 18.6141C103.141 18.4049 103.187 18.1786 103.184 17.9503V17.5352Z" fill="white"/>
<path id="Pfad 110" d="M114.38 16.5207V20.9356H112.853V16.5207C112.854 16.2755 112.804 16.0327 112.708 15.807C112.521 15.3632 112.176 15.0041 111.741 14.7984C111.533 14.6993 111.307 14.6468 111.077 14.6446C110.819 14.6406 110.564 14.6932 110.329 14.7984C109.884 14.9962 109.529 15.355 109.337 15.8029C109.24 16.0297 109.19 16.2743 109.192 16.5212V20.9361H107.664V13.2846H107.925C108.176 13.2849 108.421 13.3582 108.631 13.4956C108.841 13.633 109.007 13.8285 109.108 14.0584C109.263 13.8931 109.439 13.7481 109.631 13.6269C109.852 13.5114 110.082 13.4155 110.32 13.3402C110.643 13.2425 110.979 13.1964 111.316 13.2036C111.727 13.2014 112.133 13.2863 112.508 13.4526C112.875 13.6143 113.206 13.8462 113.483 14.1353C113.769 14.4361 113.992 14.7903 114.14 15.1776C114.304 15.6061 114.385 16.0618 114.38 16.5207Z" fill="white"/>
<path id="Pfad 111" d="M124.225 10.2291V20.9386H123.957C123.708 20.9386 123.465 20.8664 123.256 20.7309C123.047 20.5954 122.882 20.4023 122.781 20.1749C122.626 20.3392 122.45 20.4816 122.258 20.5982C122.041 20.7237 121.809 20.8226 121.568 20.8927C121.245 20.9851 120.909 21.0287 120.572 21.0219C120.088 21.0258 119.608 20.9309 119.162 20.7431C118.716 20.5553 118.313 20.2785 117.978 19.9296C117.637 19.5752 117.372 19.1559 117.197 18.6966C116.826 17.6748 116.826 16.5552 117.197 15.5333C117.369 15.0802 117.63 14.666 117.964 14.3152C118.298 13.9645 118.7 13.6843 119.144 13.4911C119.595 13.2958 120.081 13.1967 120.572 13.2003C120.89 13.1931 121.207 13.2393 121.51 13.3368C121.739 13.4148 121.961 13.5107 122.174 13.6236C122.368 13.742 122.544 13.8873 122.697 14.055V10.2291H124.225ZM122.864 17.1113C122.868 16.7709 122.808 16.4327 122.685 16.115C122.574 15.8278 122.41 15.5634 122.203 15.3349C122.007 15.1173 121.766 14.9433 121.498 14.8242C121.233 14.706 120.946 14.6452 120.655 14.6458C120.366 14.6449 120.081 14.7057 119.817 14.8242C119.549 14.9447 119.309 15.1184 119.111 15.3349C118.902 15.5638 118.737 15.8297 118.626 16.1191C118.388 16.7606 118.388 17.4661 118.626 18.1076C118.738 18.3955 118.902 18.66 119.111 18.8878C119.309 19.1043 119.549 19.2781 119.817 19.3984C120.081 19.517 120.366 19.5779 120.655 19.5768C120.946 19.5776 121.233 19.5168 121.498 19.3984C121.767 19.2795 122.007 19.1055 122.203 18.8878C122.41 18.6592 122.573 18.3948 122.685 18.1076C122.808 17.7899 122.868 17.4518 122.864 17.1113Z" fill="white"/>
<path id="Ellipse 2" d="M131.518 16.9C132.141 16.9 132.646 16.3948 132.646 15.7717C132.646 15.1486 132.141 14.6434 131.518 14.6434C130.895 14.6434 130.39 15.1486 130.39 15.7717C130.39 16.3948 130.895 16.9 131.518 16.9Z" fill="white"/>
<path id="Pfad 184" d="M142.796 14.0867V12.4914H140.905V10.2434H139.208V12.4896H137.636V14.0667H139.208V18.1288C139.201 18.5408 139.268 18.9508 139.406 19.339C139.528 19.6767 139.718 19.9856 139.965 20.2466C140.203 20.4963 140.491 20.6944 140.809 20.8287C141.14 20.9679 141.497 21.038 141.856 21.0349C142.084 21.0394 142.311 21.0087 142.529 20.9439C142.622 20.9238 142.712 20.8933 142.797 20.8528V19.3509C142.741 19.3756 142.682 19.3941 142.622 19.4059C142.556 19.4187 142.49 19.4278 142.423 19.4333C142.352 19.4393 142.286 19.4424 142.225 19.4424C142.051 19.447 141.877 19.4161 141.716 19.3514C141.554 19.2868 141.407 19.1898 141.284 19.0664C141.16 18.9449 141.062 18.7991 140.997 18.6383C140.932 18.4775 140.901 18.305 140.905 18.1315V14.0867H142.796ZM151.174 12.4655C151.106 12.4497 151.03 12.4345 150.946 12.4199C150.865 12.4065 150.783 12.4004 150.702 12.4017C150.378 12.3953 150.056 12.4467 149.751 12.5533C149.517 12.6375 149.291 12.7442 149.078 12.8719C148.875 13.0058 148.692 13.1661 148.531 13.3484C148.419 13.0939 148.235 12.8774 148.002 12.7253C147.769 12.5732 147.497 12.4919 147.218 12.4914H146.929V20.9448H148.627V16.1603C148.626 15.8893 148.681 15.6209 148.789 15.372C148.893 15.1259 149.043 14.9018 149.231 14.7116C149.421 14.5202 149.645 14.3658 149.891 14.2564C150.147 14.1426 150.424 14.0848 150.703 14.0867C150.772 14.0867 150.84 14.0944 150.906 14.1094C150.974 14.1249 151.039 14.1387 151.1 14.1509C151.168 14.163 151.226 14.1751 151.276 14.1873V12.5897L151.174 12.4655ZM160.407 17.3778C160.409 17.656 160.35 17.9313 160.236 18.1848C160.015 18.6794 159.614 19.0712 159.114 19.2803C158.863 19.387 158.593 19.4415 158.321 19.4405C158.06 19.4414 157.802 19.3868 157.564 19.2803C157.327 19.1755 157.112 19.0261 156.932 18.8402C156.748 18.6504 156.601 18.4282 156.498 18.1848C156.389 17.9297 156.334 17.6551 156.336 17.3778V12.4914H154.637V17.3778C154.631 17.8835 154.721 18.3857 154.9 18.8584C155.063 19.2884 155.311 19.6812 155.629 20.0136C155.936 20.3322 156.303 20.5877 156.708 20.7655C157.129 20.9481 157.583 21.0402 158.042 21.0358C158.415 21.0439 158.788 20.9961 159.147 20.8938C159.413 20.8158 159.668 20.7066 159.908 20.5684C160.127 20.4416 160.326 20.2842 160.5 20.101L160.51 20.9443H162.106V12.4909H160.407V17.3778ZM171.66 17.2176C171.434 16.9228 171.145 16.6817 170.815 16.5117C170.471 16.3343 170.107 16.1989 169.731 16.1084C169.343 16.0138 168.982 15.9236 168.647 15.8381C168.352 15.7683 168.068 15.6588 167.803 15.5126C167.698 15.459 167.61 15.3768 167.549 15.2754C167.489 15.174 167.458 15.0576 167.461 14.9396C167.466 14.8125 167.499 14.6881 167.558 14.5754C167.617 14.4628 167.701 14.3649 167.803 14.2888C168.096 14.0958 168.44 13.9937 168.792 13.9953C169.143 13.997 169.486 14.1022 169.778 14.2979C170.002 14.4837 170.153 14.7438 170.202 15.0311H171.909C171.888 14.305 171.581 13.6166 171.056 13.1149C170.419 12.5964 169.609 12.3406 168.79 12.3999C168.374 12.3934 167.96 12.4601 167.567 12.597C167.228 12.7163 166.916 12.9019 166.649 13.1432C166.4 13.3702 166.2 13.6459 166.061 13.9533C165.923 14.2632 165.852 14.5992 165.854 14.9387C165.831 15.3635 165.953 15.7836 166.198 16.1312C166.424 16.4231 166.71 16.6624 167.038 16.8326C167.381 17.0109 167.745 17.1464 168.122 17.2358C168.512 17.3305 168.875 17.4215 169.211 17.5089C169.506 17.5815 169.789 17.6924 170.055 17.8389C170.16 17.8925 170.248 17.9748 170.309 18.0762C170.369 18.1776 170.399 18.2939 170.397 18.4119C170.397 18.5528 170.364 18.6919 170.302 18.8182C170.24 18.9446 170.149 19.0548 170.037 19.1401C169.697 19.3675 169.29 19.4726 168.883 19.4383C168.494 19.4679 168.109 19.3501 167.803 19.1083C167.556 18.8739 167.402 18.558 167.369 18.2189H165.67C165.669 18.6055 165.744 18.9884 165.892 19.3459C166.039 19.7033 166.255 20.0282 166.528 20.3021C167.19 20.838 168.032 21.1004 168.881 21.0354C169.717 21.0897 170.543 20.8223 171.188 20.288C171.451 20.0527 171.659 19.7633 171.8 19.4397C171.94 19.116 172.008 18.7659 172 18.4133C172.023 17.9875 171.902 17.5665 171.659 17.2167L171.66 17.2176ZM180 14.0867V12.4914H178.108V10.2434H176.41V12.4896H174.839V14.0667H176.41V18.1288C176.403 18.5408 176.47 18.9508 176.608 19.339C176.73 19.6767 176.92 19.9856 177.167 20.2466C177.406 20.4963 177.693 20.6944 178.011 20.8287C178.342 20.9679 178.699 21.038 179.058 21.0349C179.286 21.0394 179.513 21.0087 179.732 20.9439C179.824 20.9238 179.914 20.8933 179.999 20.8528V19.3509C179.943 19.3756 179.884 19.3941 179.824 19.4059C179.758 19.4187 179.692 19.4278 179.626 19.4333C179.555 19.4393 179.488 19.4424 179.427 19.4424C179.253 19.4467 179.08 19.4155 178.918 19.3506C178.756 19.2857 178.61 19.1886 178.487 19.065C178.363 18.9435 178.266 18.7978 178.2 18.6369C178.135 18.4761 178.104 18.3036 178.109 18.1302V14.0867H180Z" fill="white"/>
</g>
</svg>
