<svg width="170" height="25" viewBox="0 0 170 25" fill="none" xmlns="http://www.w3.org/2000/svg">
<g id="evernode logo">
<path id="Path 1" d="M159.679 20.2698L155.702 23.6066H170V20.2698H159.679ZM0 23.6066H14.2979V20.2698H3.97774V14.0361L0 10.7927V23.6066ZM0 0.936504L3.97774 4.27451H14.2979V0.936504H0ZM155.702 0.936504V13.7511L159.691 10.6252H159.678V4.27451H170V0.936504H155.701H155.702ZM34.8308 0.936504L31.7989 7.73714C30.5054 10.6335 29.1786 13.5926 28.2002 15.986C27.1617 13.3094 26.0221 10.8227 24.6653 7.73714L21.6053 0.936504H17.3132L28.1708 23.9511H28.2986L39.1217 0.936504H34.8308ZM42.5 0.936504V23.6053H57.2702V20.2673H46.4765V13.7504H55.218V10.5076H46.4765V4.27451H56.7973V0.936504H42.5ZM65.3567 4.27323H69.144C71.8282 4.27323 73.5314 5.62684 73.5314 8.14553C73.5314 10.6642 71.8902 11.9865 69.3338 11.9865H65.3567V4.27451V4.27323ZM61.4416 0.936504V23.6053H65.3554V15.1992H69.3638L73.7193 23.6053H77.9801L73.0246 14.5384C74.3605 14.0982 75.5185 13.2383 76.3261 12.0867C77.1337 10.9351 77.5478 9.55341 77.5066 8.14744C77.5066 3.5191 74.2561 0.937782 69.1108 0.937782H61.4416V0.936504ZM136.387 4.27323H139.291C144.468 4.27323 147.719 7.60996 147.719 12.2703C147.719 16.9306 144.467 20.2673 139.387 20.2673H136.389V4.27451L136.387 4.27323ZM132.41 0.936504V23.6053H139.417C146.895 23.6053 151.726 19.0095 151.726 12.2715C151.726 5.53353 146.833 0.936504 139.323 0.936504H132.41ZM82.7453 0.591391V23.6053H86.6617V9.37451C87.0406 9.68959 87.4196 10.0673 87.766 10.3824L101.054 23.9523H101.149V0.936504H97.2323V15.1992L96.128 14.1281L82.8718 0.591391H82.7453ZM108.982 12.2722C108.982 7.7071 112.265 4.1812 116.778 4.1812C121.292 4.1812 124.544 7.70774 124.544 12.2722C124.544 16.8366 121.293 20.3632 116.778 20.3632C112.264 20.3632 108.982 16.8692 108.982 12.2722ZM105.004 12.2722C105.004 15.3945 106.245 18.389 108.453 20.5968C110.66 22.8047 113.655 24.045 116.777 24.045C119.9 24.045 122.894 22.8047 125.102 20.5968C127.31 18.389 128.55 15.3945 128.55 12.2722C128.55 9.15 127.31 6.1557 125.102 3.94799C122.894 1.74028 119.9 0.5 116.778 0.5C113.656 0.5 110.661 1.74028 108.454 3.94799C106.246 6.1557 105.006 9.15 105.006 12.2722" fill="white"/>
<path id="Path 2" d="M155.705 13.7641H168.336V10.5124H159.682L155.705 13.7641Z" fill="white"/>
<path id="Path 3" d="M0 10.7791H12.7915V14.0309H3.94515L0 10.7791Z" fill="white"/>
</g>
</svg>
