<svg width="50" height="51" viewBox="0 0 50 51" fill="none" xmlns="http://www.w3.org/2000/svg">
<g id="Group 3873">
<path id="path37" d="M25 50.5967C18.32 50.5967 12.0396 47.9994 7.32279 43.2739C2.59729 38.5484 0 32.268 0 25.5967C0 18.9254 2.59729 12.6363 7.32279 7.91947C12.0483 3.19397 18.3287 0.59668 25 0.59668C31.6713 0.59668 37.9604 3.19397 42.6772 7.91947C47.4027 12.645 50 18.9254 50 25.5967C50 32.268 47.4027 38.5571 42.6772 43.2739C37.9517 47.9907 31.6713 50.5967 25 50.5967ZM25 1.91704C18.6762 1.91704 12.7345 4.37535 8.26095 8.84894C3.78735 13.3225 1.32905 19.2642 1.32905 25.588C1.32905 31.9118 3.78735 37.8535 8.26095 42.327C12.7345 46.8006 18.6762 49.2589 25 49.2589C31.3238 49.2589 37.2655 46.8006 41.7391 42.327C46.2126 37.8535 48.671 31.9118 48.671 25.588C48.671 19.2642 46.204 13.3225 41.7304 8.84894C37.2655 4.37535 31.3152 1.91704 25 1.91704Z" fill="white"/>
<g id="g47">
<path id="path43" d="M14.9595 33.389L14.9595 33.389L34.97 32.8969L35.0561 33.3894C35.0563 33.3894 35.0566 33.3894 35.0568 33.3893C35.1143 33.3793 35.1714 33.3693 35.2283 33.3593C37.0956 33.0328 38.6439 32.7621 39.7778 32.7621C40.5587 32.7621 41.0022 32.8899 41.2458 33.0714C41.4538 33.2265 41.593 33.4808 41.593 33.9892C41.593 34.917 41.1352 36.1965 40.2716 37.6138C39.4171 39.0159 38.1997 40.4968 36.7612 41.8167C34.6733 43.7205 30.4223 46.8484 24.9996 46.8484C19.5771 46.8484 15.3261 43.7113 13.2572 41.8172C11.8185 40.4972 10.6008 39.0161 9.74628 37.6138C8.88268 36.1965 8.4248 34.917 8.4248 33.9892C8.4248 33.4808 8.56405 33.2265 8.77207 33.0714C9.01562 32.8899 9.45908 32.7621 10.24 32.7621C11.4084 32.7621 13.0202 33.0407 14.9595 33.389Z" stroke="white"/>
<path id="path45" d="M39.7687 32.4209C40.5342 32.4209 41.0664 32.533 41.4118 32.7757C41.7572 33.0184 41.9252 33.4012 41.9252 33.9893C41.9252 35.6977 40.3755 38.9558 36.9774 42.0739C34.8956 43.9877 30.5638 47.1992 24.9998 47.1992C19.4358 47.1992 15.1041 43.9877 13.0223 42.0739C9.62414 38.9558 8.07443 35.6977 8.07443 33.9893C8.07443 33.4012 8.23314 33.0184 8.58789 32.7757C8.9333 32.533 9.46544 32.4209 10.231 32.4209C11.4352 32.4209 13.097 32.7103 15.0108 33.0464C17.8021 33.5412 21.2749 34.148 24.9998 34.148C28.7247 34.148 32.1976 33.5412 34.9889 33.0464C36.9027 32.7103 38.5551 32.4209 39.7687 32.4209ZM39.7687 32.1129C36.7533 32.1129 31.264 33.8399 24.9998 33.8399C18.7357 33.8399 13.2463 32.1129 10.231 32.1129C8.66258 32.1129 7.76636 32.5796 7.76636 33.9986C7.76636 38.1436 15.4869 47.5166 24.9998 47.5166C34.5128 47.5166 42.2333 38.1343 42.2333 33.9893C42.2333 32.5796 41.3278 32.1129 39.7687 32.1129Z" fill="white"/>
</g>
<path id="path53" d="M38.574 32.2529C38.574 35.5203 32.4965 42.9048 24.9907 42.9048C17.4849 42.9048 11.4167 35.511 11.4167 32.2529C11.4167 28.9948 17.4942 32.1315 25 32.1315C32.5058 32.1315 38.574 28.9854 38.574 32.2529Z" fill="white"/>
<g id="g57">
<path id="path55" d="M24.9999 43.5023C18.633 43.5023 13.5918 38.5638 11.762 35.2403C11.6033 34.9509 11.706 34.5775 11.9954 34.4188C12.2848 34.2601 12.6582 34.3628 12.8169 34.6522C13.8345 36.5006 15.5523 38.3491 17.5314 39.7401C19.1838 40.8977 21.8258 42.2887 24.9905 42.2887C25.3266 42.2887 25.5973 42.5594 25.5973 42.8955C25.5973 43.2316 25.3266 43.5023 24.9999 43.5023Z" fill="white"/>
</g>
<g id="g63">
<path id="path59" d="M25.0002 35.623C22.1902 35.623 20.2577 35.4643 18.736 35.1189C16.9996 34.7175 15.7486 34.0546 14.7964 33.0371C12.8826 30.9739 12.0984 27.3144 12.0984 20.4247C12.0984 13.0963 17.8864 7.13083 25.0002 7.13083C32.1139 7.13083 37.9019 13.0963 37.9019 20.4247C37.9019 27.3144 37.1177 30.9739 35.2039 33.0371C33.2061 35.1936 29.8173 35.623 25.0002 35.623Z" fill="#232325"/>
<path id="path61" d="M25.0001 7.27088C28.4075 7.27088 31.6096 8.63388 34.0182 11.1171C36.4268 13.6004 37.7618 16.9052 37.7618 20.4154C37.7618 27.2677 36.9963 30.8992 35.1012 32.9344C34.1769 33.9333 32.9446 34.5868 31.2362 34.9789C29.7239 35.3243 27.8007 35.483 25.0001 35.483C22.1994 35.483 20.2763 35.3243 18.7639 34.9789C17.0555 34.5868 15.8232 33.9333 14.899 32.9344C13.0132 30.8992 12.2383 27.2677 12.2383 20.4154C12.2383 16.9052 13.564 13.6004 15.9819 11.1171C18.3811 8.64321 21.5926 7.27088 25.0001 7.27088ZM25.0001 6.99081C17.793 6.99081 11.9583 13.0029 11.9583 20.4247C11.9583 33.8586 14.899 35.7631 25.0001 35.7631C35.1012 35.7631 38.0419 33.8586 38.0419 20.4247C38.0419 13.0029 32.1978 6.99081 25.0001 6.99081Z" fill="#232325"/>
</g>
<path id="ellipse65" d="M25.0001 33.8586C32.2028 33.8586 38.0419 27.8441 38.0419 20.4247C38.0419 13.0054 32.2028 6.99081 25.0001 6.99081C17.7973 6.99081 11.9583 13.0054 11.9583 20.4247C11.9583 27.8441 17.7973 33.8586 25.0001 33.8586Z" fill="#232325" stroke="white" stroke-width="2" stroke-miterlimit="10" stroke-linecap="round" stroke-linejoin="round"/>
<path id="path77" d="M17.1022 9.72618C17.6996 9.28741 18.8012 8.85797 20.4256 9.71684L19.1 8.45654L17.1022 9.72618Z" fill="white" stroke="white" stroke-width="2" stroke-miterlimit="10" stroke-linecap="round" stroke-linejoin="round"/>
<path id="path79" d="M32.8698 9.72618C32.2723 9.28741 31.1427 8.86731 29.5183 9.73552L30.7879 8.45654L32.8698 9.72618Z" fill="white" stroke="white" stroke-width="2" stroke-miterlimit="10" stroke-linecap="round" stroke-linejoin="round"/>
<path id="path81" d="M31.2642 6.58007C31.2642 5.04904 28.4542 3.81674 24.9907 3.81674C21.5272 3.81674 18.7172 5.05838 18.7172 6.58007V7.82171C18.7172 9.35274 21.5272 10.585 24.9907 10.585C28.4542 10.585 31.2642 9.34341 31.2642 7.82171C31.2642 7.60699 31.2642 6.79479 31.2642 6.58007Z" fill="#232325" stroke="white" stroke-width="2" stroke-miterlimit="10" stroke-linecap="round" stroke-linejoin="round"/>
<g id="g85">
<path id="path83" d="M16.2338 33.7839C15.6924 33.7839 15.2629 33.3452 15.2629 32.813C15.2629 32.2809 15.7017 31.8421 16.2338 31.8421C16.766 31.8421 17.2047 32.2809 17.2047 32.813C17.2047 33.3452 16.766 33.7839 16.2338 33.7839ZM16.2338 32.2996C15.9538 32.2996 15.7297 32.5236 15.7297 32.8037C15.7297 33.0838 15.9538 33.3078 16.2338 33.3078C16.5139 33.3078 16.738 33.0838 16.738 32.8037C16.738 32.5236 16.5139 32.2996 16.2338 32.2996Z" fill="white"/>
</g>
<g id="g89">
<path id="path87" d="M33.7102 33.952C33.1687 33.952 32.7393 33.5132 32.7393 32.9811C32.7393 32.4489 33.178 32.0102 33.7102 32.0102C34.2423 32.0102 34.6811 32.4489 34.6811 32.9811C34.6811 33.5132 34.2516 33.952 33.7102 33.952ZM33.7102 32.4676C33.4301 32.4676 33.206 32.6917 33.206 32.9717C33.206 33.2518 33.4301 33.4758 33.7102 33.4758C33.9902 33.4758 34.2143 33.2518 34.2143 32.9717C34.2143 32.6917 33.9902 32.4676 33.7102 32.4676Z" fill="white"/>
</g>
<path id="ellipse96" d="M25.0001 7.8964C27.4697 7.8964 29.4718 7.01449 29.4718 5.9266C29.4718 4.8387 27.4697 3.95679 25.0001 3.95679C22.5304 3.95679 20.5283 4.8387 20.5283 5.9266C20.5283 7.01449 22.5304 7.8964 25.0001 7.8964Z" fill="#232325" stroke="white" stroke-width="2" stroke-miterlimit="10"/>
<g id="g100">
<path id="path98" d="M25 8.05512C21.6205 8.05512 18.9785 7.12156 18.9785 5.92661C18.9785 4.73166 21.6205 3.7981 25 3.7981C28.3794 3.7981 31.0214 4.73166 31.0214 5.92661C31.0214 7.12156 28.3701 8.05512 25 8.05512ZM25 4.11551C21.5925 4.11551 19.3053 5.04907 19.3053 5.92661C19.3053 6.80415 21.5925 7.73771 25 7.73771C28.4075 7.73771 30.6947 6.80415 30.6947 5.92661C30.6947 5.04907 28.4075 4.11551 25 4.11551Z" fill="white"/>
</g>
<g id="g104">
<path id="path102" d="M29.0331 6.8508C26.4005 5.95459 23.3851 5.95459 20.9579 6.8508L20.8645 6.58941C23.3478 5.66518 26.4378 5.66518 29.1265 6.58941L29.0331 6.8508Z" fill="white"/>
</g>
<g id="g108">
<path id="path106" d="M29.1542 5.38512C26.5309 4.48891 23.2728 4.48891 20.8456 5.38512L20.7522 5.12373C23.2261 4.20884 26.5683 4.20884 29.2476 5.12373L29.1542 5.38512Z" fill="white"/>
</g>
<g id="g118">
<g id="g112">
<path id="path110" d="M23.2636 7.87778C22.8249 6.7015 22.8249 5.18913 23.2636 3.91949L23.525 4.01285C23.1143 5.22648 23.1143 6.67349 23.525 7.78442L23.2636 7.87778Z" fill="white"/>
</g>
<g id="g116">
<path id="path114" d="M26.7272 7.86847L26.4658 7.77512C26.8766 6.56149 26.8766 5.11448 26.4658 4.00354L26.7272 3.91019C27.1567 5.08647 27.1567 6.59883 26.7272 7.86847Z" fill="white"/>
</g>
</g>
<path id="path120" d="M15.4496 11.2759C15.4776 11.2292 13.5825 14.1139 13.5825 14.1139L15.2629 15.785C15.2536 15.785 14.012 13.6378 15.4496 11.2759Z" fill="white" stroke="white" stroke-width="2" stroke-miterlimit="10" stroke-linecap="round" stroke-linejoin="round"/>
<path id="path122" d="M34.513 11.2759C34.485 11.2292 36.3801 14.1139 36.3801 14.1139L34.6997 15.785C34.709 15.785 35.9507 13.6378 34.513 11.2759Z" fill="white" stroke="white" stroke-width="2" stroke-miterlimit="10" stroke-linecap="round" stroke-linejoin="round"/>
<path id="path124" d="M14.3294 26.1474C13.7973 26.7916 13.3491 27.9025 13.7319 28.5373L12.7237 26.9876C12.7237 26.9876 12.705 25.5779 12.7703 25.5779C12.8357 25.5779 14.3294 26.1474 14.3294 26.1474Z" fill="white" stroke="white" stroke-width="2" stroke-miterlimit="10" stroke-linecap="round" stroke-linejoin="round"/>
<path id="path126" d="M35.6893 26.2594C36.2215 26.9036 36.6416 27.8932 36.2588 28.5373L37.267 26.9876C37.267 26.9876 37.2857 25.5779 37.2204 25.5779C37.155 25.5779 35.6893 26.2594 35.6893 26.2594Z" fill="white" stroke="white" stroke-width="2" stroke-miterlimit="10" stroke-linecap="round" stroke-linejoin="round"/>
<g id="g159">
<path id="path128" d="M12.7887 14.0767C11.2577 14.0767 10.0254 16.8867 10.0254 20.3502C10.0254 23.8137 11.267 26.6237 12.7887 26.6237H13.3489C14.8799 26.6237 16.1122 23.8137 16.1122 20.3502C16.1122 16.8867 14.8706 14.0767 13.3489 14.0767C13.1248 14.0767 13.0034 14.0767 12.7887 14.0767Z" fill="#232325" stroke="white" stroke-width="2" stroke-miterlimit="10" stroke-linecap="round" stroke-linejoin="round"/>
<path id="ellipse135" d="M11.8365 24.8126C12.9244 24.8126 13.8063 22.8106 13.8063 20.3409C13.8063 17.8712 12.9244 15.8691 11.8365 15.8691C10.7486 15.8691 9.8667 17.8712 9.8667 20.3409C9.8667 22.8106 10.7486 24.8126 11.8365 24.8126Z" fill="#232325" stroke="white" stroke-width="2" stroke-miterlimit="10"/>
<g id="g139">
<path id="path137" d="M12.2474 26.661V26.3436C13.153 26.3436 13.8905 23.655 13.8905 20.3502C13.8905 18.7911 13.6944 17.2508 13.3583 16.1212C13.0316 15.0289 12.5928 14.4034 12.1541 14.4034V14.086C12.7609 14.086 13.2837 14.7582 13.6664 16.0278C14.0212 17.1947 14.2172 18.7258 14.2172 20.3502C14.2079 23.4776 13.5357 26.661 12.2474 26.661Z" fill="white"/>
</g>
<g id="g143">
<path id="path141" d="M12.4993 24.4766C11.5751 21.9933 11.5751 18.9032 12.4993 16.2146L12.7607 16.3079C11.8645 18.9406 11.8645 21.956 12.7607 24.3832L12.4993 24.4766Z" fill="white"/>
</g>
<g id="g147">
<path id="path145" d="M11.4071 24.8126C10.4268 22.1706 10.4268 18.7445 11.4071 15.8878L11.6684 15.9811C10.7069 18.7818 10.7069 22.1333 11.6684 24.7192L11.4071 24.8126Z" fill="white"/>
</g>
<g id="g157">
<g id="g151">
<path id="path149" d="M11.8831 22.4041C11.2296 22.4041 10.5574 22.2921 9.92261 22.0774L10.016 21.816C11.2296 22.2267 12.5646 22.2267 13.6848 21.816L13.7782 22.0774C13.1901 22.2921 12.5459 22.4041 11.8831 22.4041Z" fill="white"/>
</g>
<g id="g155">
<path id="path153" d="M13.6851 18.8752C12.4715 18.4645 11.1365 18.4645 10.0162 18.8752L9.92285 18.6138C11.0991 18.1751 12.5088 18.1751 13.7784 18.6138L13.6851 18.8752Z" fill="white"/>
</g>
</g>
</g>
<g id="g192">
<path id="path161" d="M37.1643 14.0766C38.6953 14.0766 39.9276 16.8866 39.9276 20.3501C39.9276 23.8136 38.686 26.6236 37.1643 26.6236H36.6042C35.0731 26.6236 33.8408 23.8136 33.8408 20.3501C33.8408 16.8866 35.0825 14.0766 36.6042 14.0766C36.8189 14.0766 36.9496 14.0766 37.1643 14.0766Z" fill="#232325" stroke="white" stroke-width="2" stroke-miterlimit="10" stroke-linecap="round" stroke-linejoin="round"/>
<path id="ellipse168" d="M38.1073 24.8126C39.1952 24.8126 40.0771 22.8106 40.0771 20.3409C40.0771 17.8712 39.1952 15.8691 38.1073 15.8691C37.0194 15.8691 36.1375 17.8712 36.1375 20.3409C36.1375 22.8106 37.0194 24.8126 38.1073 24.8126Z" fill="#232325" stroke="white" stroke-width="2" stroke-miterlimit="10"/>
<g id="g172">
<path id="path170" d="M38.1071 26.3997C36.9122 26.3997 35.9786 23.739 35.9786 20.3409C35.9786 16.9427 36.9122 14.2821 38.1071 14.2821V14.5995C37.2296 14.5995 36.296 16.9054 36.296 20.3315C36.296 23.7577 37.2296 26.0636 38.1071 26.0636V26.3997Z" fill="white"/>
</g>
<g id="g176">
<path id="path174" d="M37.4443 24.4766L37.1829 24.3832C38.0791 21.956 38.0791 18.9406 37.1829 16.3079L37.4443 16.2146C38.3685 18.9032 38.3685 21.9933 37.4443 24.4766Z" fill="white"/>
</g>
<g id="g180">
<path id="path178" d="M38.5367 24.8126L38.2753 24.7192C39.2368 22.1333 39.2368 18.7818 38.2753 15.9811L38.5367 15.8878C39.5169 18.7445 39.5169 22.1706 38.5367 24.8126Z" fill="white"/>
</g>
<g id="g190">
<g id="g184">
<path id="path182" d="M38.0604 22.4041C37.3976 22.4041 36.7534 22.2921 36.1653 22.0774L36.2586 21.816C37.3789 22.2267 38.7139 22.2267 39.9275 21.816L40.0209 22.0774C39.3861 22.2921 38.7139 22.4041 38.0604 22.4041Z" fill="white"/>
</g>
<g id="g188">
<path id="path186" d="M36.2588 18.8752L36.1654 18.6138C37.4444 18.1751 38.8447 18.1751 40.021 18.6138L39.9276 18.8752C38.8074 18.4645 37.4724 18.4645 36.2588 18.8752Z" fill="white"/>
</g>
</g>
</g>
<path id="path194" d="M20.4817 4.65696C20.7991 4.5636 21.0045 4.80633 20.9578 5.03038C21.5739 4.39556 22.5729 4.16217 22.5729 4.16217L20.4817 4.65696Z" fill="white" stroke="white" stroke-width="2" stroke-miterlimit="10" stroke-linecap="round" stroke-linejoin="round"/>
<path id="path196" d="M29.5185 4.65696C29.2011 4.5636 28.921 4.86234 29.0798 5.12374C28.3796 4.58227 27.5861 4.16217 27.5861 4.16217L29.5185 4.65696Z" fill="white" stroke="white" stroke-width="2" stroke-miterlimit="10" stroke-linecap="round" stroke-linejoin="round"/>
<path id="circle198" d="M24.9534 28.3413C29.2998 28.3413 32.8233 24.8178 32.8233 20.4714C32.8233 16.1249 29.2998 12.6015 24.9534 12.6015C20.607 12.6015 17.0835 16.1249 17.0835 20.4714C17.0835 24.8178 20.607 28.3413 24.9534 28.3413Z" fill="white" stroke="white" stroke-width="2" stroke-miterlimit="10"/>
<path id="circle205" d="M24.9533 27.1557C28.6449 27.1557 31.6376 24.163 31.6376 20.4714C31.6376 16.7798 28.6449 13.7871 24.9533 13.7871C21.2617 13.7871 18.269 16.7798 18.269 20.4714C18.269 24.163 21.2617 27.1557 24.9533 27.1557Z" fill="#232325" stroke="white" stroke-width="2" stroke-miterlimit="10"/>
<g id="g223">
<g id="g217">
<path id="path215" d="M27.3806 26.5115C26.9138 26.5115 26.447 26.3342 26.0923 25.9794L19.4453 19.3325C18.7358 18.623 18.7358 17.4654 19.4453 16.7465L21.2284 14.9634C21.9379 14.2539 23.0955 14.2539 23.8144 14.9634L30.4613 21.6104C31.1708 22.3199 31.1708 23.4775 30.4613 24.1963L28.6782 25.9794C28.3235 26.3342 27.8567 26.5115 27.3806 26.5115ZM22.5167 15.0194C22.1807 15.0194 21.8726 15.1501 21.6392 15.3835L19.8561 17.1666C19.6227 17.4 19.492 17.7081 19.492 18.0442C19.492 18.3803 19.6227 18.6883 19.8561 18.9217L26.503 25.5687C26.9885 26.0541 27.7727 26.0541 28.2581 25.5687L30.0412 23.7856C30.5267 23.3001 30.5267 22.5159 30.0412 22.0305L23.3943 15.3835C23.1609 15.1408 22.8528 15.0194 22.5167 15.0194Z" fill="white"/>
</g>
<g id="g221">
<path id="path219" d="M22.5167 26.5115C22.05 26.5115 21.5832 26.3342 21.2284 25.9794L19.4453 24.1963C18.7358 23.4868 18.7358 22.3292 19.4453 21.6104L26.0923 14.9634C26.8018 14.2539 27.9594 14.2539 28.6782 14.9634L30.4613 16.7465C31.1708 17.456 31.1708 18.6136 30.4613 19.3325L23.8144 25.9794C23.4503 26.3342 22.9835 26.5115 22.5167 26.5115ZM21.6392 25.5593C21.8726 25.7927 22.1807 25.9234 22.5167 25.9234C22.8528 25.9234 23.1609 25.7927 23.3943 25.5593L30.0412 18.9124C30.5267 18.4269 30.5267 17.6427 30.0412 17.1573L28.2581 15.3742C27.7727 14.8887 26.9885 14.8887 26.503 15.3742L19.8561 22.0211C19.3706 22.5066 19.3706 23.2908 19.8561 23.7762L21.6392 25.5593Z" fill="white"/>
</g>
</g>
</g>
</svg>
