<svg width="158" height="29" viewBox="0 0 158 29" fill="none" xmlns="http://www.w3.org/2000/svg">
<g id="onXRP logo">
<g id="Group">
<g id="Mask group">
<mask id="mask0_503_71" style="mask-type:luminance" maskUnits="userSpaceOnUse" x="0" y="0" width="42" height="29">
<g id="Group_2">
<path id="Vector" d="M7.17842 0C7.10246 0.0018759 7.0266 0.00657553 6.95098 0.0140892C6.01204 0.0140892 5.07209 0.480038 4.50853 1.22676C1.59225 4.88256 0.00275779 9.41971 0 14.0962C0 18.7587 1.59711 23.3286 4.50853 26.9656C5.07209 27.7124 6.01204 28.0847 6.95098 28.1783H7.13917C7.98452 28.1783 8.82987 27.8059 9.58163 26.9656L17.1898 19.4118C18.0873 18.516 19.3036 18.0129 20.5717 18.0129C21.8398 18.0129 23.056 18.516 23.9536 19.4118L31.5617 26.9656C32.3135 27.7124 33.2524 28.0847 34.1924 27.9921C35.1323 27.9921 36.0713 27.5252 36.6348 26.7795C39.5472 23.236 41.1433 18.6661 41.1433 14.0026C41.1433 9.43369 39.5472 4.86378 36.6348 1.22676C36.0713 0.480038 35.1323 0.107681 34.1924 0.0140892C33.1588 0.0140892 32.2199 0.386445 31.5627 1.04058L23.9536 8.59338C23.0561 9.48889 21.84 9.99182 20.5722 9.99182C19.3043 9.99182 18.0883 9.48889 17.1908 8.59338L9.58062 1.03958C8.92045 0.384433 8.11435 0.0161019 7.29114 0H7.17842ZM25.9271 10.5528L33.5352 2.99797C33.7234 2.90538 33.817 2.90538 33.9106 2.90538C34.0052 2.90538 34.0988 2.99797 34.1924 3.09156C36.7284 6.26162 38.1373 10.0858 38.1373 14.0962C38.1373 18.1066 36.7284 22.0234 34.1924 25.1008C34.0988 25.287 34.0052 25.287 33.9106 25.287C33.817 25.287 33.6288 25.287 33.5352 25.1944L25.9271 17.6396C22.92 14.6557 18.0361 14.6557 15.0301 17.6396L7.42096 25.1944C7.23277 25.287 7.13917 25.287 7.04558 25.287C6.95098 25.287 6.85739 25.1944 6.7638 25.1008C4.22775 21.9308 2.81884 18.1066 2.81884 14.0962C2.81884 10.0858 4.22775 6.16904 6.7638 3.09156C6.85739 2.90538 7.04558 2.90538 7.13917 2.90538C7.13917 2.90538 7.32737 2.90538 7.42096 2.99797L15.0291 10.5528C16.4774 11.9906 18.4368 12.7955 20.4776 12.7909C22.5184 12.7955 24.4778 11.9906 25.9261 10.5528H25.9271Z" fill="white"/>
</g>
</mask>
<g mask="url(#mask0_503_71)">
<g id="Group_3">
<path id="Vector_2" d="M7.17842 0C7.10246 0.0018759 7.0266 0.00657553 6.95098 0.0140892C6.01204 0.0140892 5.07209 0.480038 4.50853 1.22676C1.59225 4.88256 0.00275779 9.41971 0 14.0962C0 18.7587 1.59711 23.3286 4.50853 26.9656C5.07209 27.7124 6.01204 28.0847 6.95098 28.1783H7.13917C7.98452 28.1783 8.82987 27.8059 9.58163 26.9656L17.1898 19.4118C18.0873 18.516 19.3036 18.0129 20.5717 18.0129C21.8398 18.0129 23.056 18.516 23.9536 19.4118L31.5617 26.9656C32.3135 27.7124 33.2524 28.0847 34.1924 27.9921C35.1323 27.9921 36.0713 27.5252 36.6348 26.7795C39.5472 23.236 41.1433 18.6661 41.1433 14.0026C41.1433 9.43369 39.5472 4.86378 36.6348 1.22676C36.0713 0.480038 35.1323 0.107681 34.1924 0.0140892C33.1588 0.0140892 32.2199 0.386445 31.5627 1.04058L23.9536 8.59338C23.0561 9.48889 21.84 9.99182 20.5722 9.99182C19.3043 9.99182 18.0883 9.48889 17.1908 8.59338L9.58062 1.03958C8.92045 0.384433 8.11435 0.0161019 7.29114 0H7.17842ZM25.9271 10.5528L33.5352 2.99797C33.7234 2.90538 33.817 2.90538 33.9106 2.90538C34.0052 2.90538 34.0988 2.99797 34.1924 3.09156C36.7284 6.26162 38.1373 10.0858 38.1373 14.0962C38.1373 18.1066 36.7284 22.0234 34.1924 25.1008C34.0988 25.287 34.0052 25.287 33.9106 25.287C33.817 25.287 33.6288 25.287 33.5352 25.1944L25.9271 17.6396C22.92 14.6557 18.0361 14.6557 15.0301 17.6396L7.42096 25.1944C7.23277 25.287 7.13917 25.287 7.04558 25.287C6.95098 25.287 6.85739 25.1944 6.7638 25.1008C4.22775 21.9308 2.81884 18.1066 2.81884 14.0962C2.81884 10.0858 4.22775 6.16904 6.7638 3.09156C6.85739 2.90538 7.04558 2.90538 7.13917 2.90538C7.13917 2.90538 7.32737 2.90538 7.42096 2.99797L15.0291 10.5528C16.4774 11.9906 18.4368 12.7955 20.4776 12.7909C22.5184 12.7955 24.4778 11.9906 25.9261 10.5528H25.9271Z" fill="white"/>
<path id="Vector_3" d="M7.17842 0C7.10246 0.0018759 7.0266 0.00657553 6.95098 0.0140892C6.01204 0.0140892 5.07209 0.480038 4.50853 1.22676C1.59225 4.88256 0.00275779 9.41971 0 14.0962C0 18.7587 1.59711 23.3286 4.50853 26.9656C5.07209 27.7124 6.01204 28.0847 6.95098 28.1783H7.13917C7.98452 28.1783 8.82987 27.8059 9.58163 26.9656L17.1898 19.4118C18.0873 18.516 19.3036 18.0129 20.5717 18.0129C21.8398 18.0129 23.056 18.516 23.9536 19.4118L31.5617 26.9656C32.3135 27.7124 33.2524 28.0847 34.1924 27.9921C35.1323 27.9921 36.0713 27.5252 36.6348 26.7795C39.5472 23.236 41.1433 18.6661 41.1433 14.0026C41.1433 9.43369 39.5472 4.86378 36.6348 1.22676C36.0713 0.480038 35.1323 0.107681 34.1924 0.0140892C33.1588 0.0140892 32.2199 0.386445 31.5627 1.04058L23.9536 8.59338C23.0561 9.48889 21.84 9.99182 20.5722 9.99182C19.3043 9.99182 18.0883 9.48889 17.1908 8.59338L9.58062 1.03958C8.92045 0.384433 8.11435 0.0161019 7.29114 0H7.17842ZM25.9271 10.5528L33.5352 2.99797C33.7234 2.90538 33.817 2.90538 33.9106 2.90538C34.0052 2.90538 34.0988 2.99797 34.1924 3.09156C36.7284 6.26162 38.1373 10.0858 38.1373 14.0962C38.1373 18.1066 36.7284 22.0234 34.1924 25.1008C34.0988 25.287 34.0052 25.287 33.9106 25.287C33.817 25.287 33.6288 25.287 33.5352 25.1944L25.9271 17.6396C22.92 14.6557 18.0361 14.6557 15.0301 17.6396L7.42096 25.1944C7.23277 25.287 7.13917 25.287 7.04558 25.287C6.95098 25.287 6.85739 25.1944 6.7638 25.1008C4.22775 21.9308 2.81884 18.1066 2.81884 14.0962C2.81884 10.0858 4.22775 6.16904 6.7638 3.09156C6.85739 2.90538 7.04558 2.90538 7.13917 2.90538C7.13917 2.90538 7.32737 2.90538 7.42096 2.99797L15.0291 10.5528C16.4774 11.9906 18.4368 12.7955 20.4776 12.7909C22.5184 12.7955 24.4778 11.9906 25.9261 10.5528H25.9271Z" fill="white"/>
</g>
</g>
</g>
</g>
<g id="Group_4">
<path id="Vector_4" fill-rule="evenodd" clip-rule="evenodd" d="M107.369 11.6719L100.887 5.32974H98.5383V7.5679L105.019 14.0026L98.5383 20.3448V22.7701H100.699L107.368 16.2408L114.037 22.7691H116.198V20.3437L109.717 14.0036L116.198 7.5679V5.32974H113.85L107.369 11.6719ZM72.7059 18.6661C72.1423 19.2257 71.3906 19.598 70.5452 19.598H68.0092C67.1638 19.598 66.5066 19.3183 65.8485 18.6661C65.2849 18.1066 64.9095 17.3599 64.9095 16.5206C64.9095 15.6812 65.1913 14.9355 65.8485 14.376C66.4121 13.8164 67.1638 13.5367 68.0092 13.5367H70.5452C71.3906 13.5367 72.0487 13.8164 72.7059 14.376C73.2694 14.9355 73.6458 15.6812 73.6458 16.5206C73.6458 17.3599 73.364 18.1066 72.7059 18.6661ZM73.7394 11.1123C72.7995 10.5528 71.6723 10.273 70.5452 10.273H68.0092C66.882 10.273 65.8485 10.5528 64.8149 11.1123C63.876 11.6719 63.0307 12.4176 62.5607 13.3505C61.9971 14.2824 61.7153 15.4015 61.7153 16.5206C61.7153 17.6396 61.9971 18.6661 62.5607 19.6916C63.1242 20.6245 63.876 21.4628 64.8149 21.9298C65.7549 22.4893 66.882 22.7691 68.0092 22.7691H70.5452C71.6723 22.7691 72.7059 22.4893 73.7394 21.9298C74.6784 21.3702 75.5237 20.6245 75.9937 19.6916C76.5572 18.7587 76.839 17.6396 76.839 16.5216C76.839 15.4015 76.5572 14.376 75.9937 13.3505C75.5237 12.4176 74.773 11.6719 73.7394 11.1123ZM154.336 12.9771C154.055 13.4431 153.678 13.8164 153.209 14.0962C152.739 14.376 152.176 14.4686 151.706 14.4686H143.628V8.5944H151.706C152.269 8.5944 152.739 8.68799 153.209 8.96776C153.678 9.24753 154.055 9.5273 154.336 9.99426C154.618 10.4602 154.805 10.9262 154.805 11.3931C154.805 11.9527 154.618 12.5112 154.336 12.9771ZM157.154 8.40923C156.601 7.48662 155.826 6.71689 154.9 6.17006C153.963 5.61124 152.891 5.32087 151.8 5.33075H140.433V22.7711H143.721V17.6406H151.799C152.926 17.6406 153.96 17.3609 154.899 16.8013C155.825 16.2548 156.6 15.4854 157.153 14.5632C157.718 13.6313 158 12.5122 158 11.4857C158.009 10.4013 157.716 9.3356 157.154 8.40822M133.482 12.9771C133.201 13.4431 132.825 13.8164 132.355 14.0962C131.885 14.376 131.415 14.4686 130.852 14.4686H122.68V8.5944H130.758C131.322 8.5944 131.792 8.68799 132.261 8.96776C132.731 9.24753 133.106 9.5273 133.388 9.99426C133.67 10.4602 133.858 10.9262 133.858 11.3931C133.952 11.9527 133.764 12.5112 133.482 12.9771ZM136.207 14.5632C136.77 13.6313 137.052 12.5122 137.052 11.4857C137.062 10.4013 136.769 9.3356 136.207 8.40822C135.654 7.48598 134.879 6.71661 133.952 6.17006C133.016 5.61124 131.943 5.32087 130.853 5.33075H119.486V22.7711H122.774V17.6406H128.598L133.858 22.7701H137.146V21.4648L132.919 17.2683C133.294 17.1747 133.671 16.9885 134.046 16.8013C134.923 16.225 135.662 15.4604 136.207 14.5632ZM92.1509 11.1123C91.211 10.5528 90.0838 10.273 88.9567 10.273H86.4207C85.2935 10.273 84.26 10.5528 83.4146 11.0177V10.273H80.1268V22.7691H83.4146V16.5206C83.4146 15.6812 83.6964 15.0291 84.26 14.376C84.8236 13.8164 85.5753 13.5367 86.4207 13.5367H88.9567C89.8021 13.5367 90.5538 13.8164 91.1174 14.376C91.6809 14.9355 91.9627 15.6812 91.9627 16.5206V22.7701H95.2505V16.5206C95.2505 15.4015 94.9688 14.376 94.4052 13.3505C93.9352 12.4176 93.0899 11.6719 92.1509 11.1123Z" fill="white"/>
</g>
</g>
</svg>
