<svg width="180" height="44" viewBox="0 0 180 44" fill="none" xmlns="http://www.w3.org/2000/svg">
<g id="raised in space logo">
<path id="Vector" d="M32.9617 0.758202C34.5544 0.736598 36.1494 0.735398 37.742 0.759402C37.4804 1.82156 37.1924 2.87773 36.9067 3.93269C35.3165 3.94949 33.7262 3.94349 32.136 3.93629C32.3772 2.86933 32.6821 1.81676 32.9617 0.758202Z" fill="white"/>
<path id="Vector_2" d="M75.8168 0.760557C77.4094 0.734153 79.0045 0.737754 80.5983 0.759357C79.3177 5.64051 77.9915 10.5109 76.6941 15.3884C75.9968 17.9568 75.3355 20.5336 74.6178 23.096C71.4601 23.1056 68.3024 23.096 65.1447 23.1008C64.3706 23.0948 63.4801 22.9964 62.946 22.3675C62.4227 21.7146 62.5163 20.8048 62.7084 20.0451C63.7129 16.2813 64.7187 12.5164 65.7232 8.75258C65.9513 7.89325 66.3509 7.04832 67.0266 6.45183C67.6411 5.90575 68.4536 5.6153 69.2686 5.56369C71.0304 5.49648 72.7983 5.6225 74.5578 5.50008C74.973 3.91824 75.3919 2.3388 75.8168 0.760557ZM70.5264 8.74778C70.1699 9.90116 69.8975 11.0773 69.5722 12.2391C68.9037 14.7871 68.1896 17.3255 67.5475 19.8807C68.5989 19.8855 69.6514 19.8975 70.704 19.8735C71.6881 16.1661 72.6879 12.4612 73.6492 8.74778C72.6087 8.72618 71.5669 8.74058 70.5264 8.74778Z" fill="white"/>
<path id="Vector_3" d="M86.2871 3.93598C86.5824 2.86901 86.802 1.77805 87.1704 0.733887C88.7463 0.765092 90.3221 0.724285 91.898 0.75669C91.6483 1.82485 91.3675 2.88702 91.0566 3.93958C89.4664 3.94078 87.8762 3.94558 86.2871 3.93598Z" fill="white"/>
<path id="Vector_4" d="M4.6938 5.55616C7.28019 5.53576 9.86779 5.55616 12.4542 5.54656C13.1035 5.54296 13.7936 5.55496 14.3685 5.89702C14.8077 6.14665 15.1042 6.61233 15.1618 7.1128C15.265 7.93853 15.0286 8.75705 14.7669 9.53357C13.1995 9.52877 11.6321 9.54918 10.0646 9.52277C10.0994 9.26593 10.1342 9.01149 10.1666 8.75465C9.65776 8.73185 9.14528 8.71745 8.6364 8.77026C7.3414 13.541 6.08121 18.3225 4.77781 23.0921C3.18517 23.1041 1.59252 23.1065 -0.00012207 23.0897C1.55172 17.2424 3.12756 11.3999 4.6938 5.55616Z" fill="white"/>
<path id="Vector_5" d="M17.7098 6.58317C18.4299 5.85106 19.4813 5.53541 20.4907 5.54861C22.6546 5.54621 24.8185 5.54861 26.9825 5.54741C27.6042 5.54501 28.2667 5.62543 28.7767 6.01069C29.1932 6.31913 29.4116 6.83401 29.4428 7.34169C29.5088 8.12541 29.2508 8.88273 29.054 9.62924C28.0062 13.5442 26.9597 17.4592 25.9107 21.3742C25.7547 21.9491 25.6202 22.5312 25.4318 23.0965C22.2657 23.1025 19.1008 23.0977 15.936 23.0989C15.1654 23.0917 14.2761 22.9885 13.7552 22.3488C13.2668 21.7343 13.3268 20.8822 13.502 20.1633C13.868 18.7278 14.2569 17.2996 14.6278 15.8654C14.8414 15.0277 15.055 14.1587 15.5759 13.4494C16.0284 12.8001 16.7089 12.3189 17.471 12.1028C18.3351 11.8424 19.2473 11.9384 20.1354 11.9204C21.2876 11.9048 22.441 11.9492 23.5907 11.9024C23.7732 11.7212 23.7708 11.4271 23.8536 11.1943C24.0468 10.3722 24.3144 9.56923 24.4693 8.7387C23.4287 8.7195 22.3894 8.7279 21.35 8.7339C21.2708 9.00034 21.1724 9.26078 21.0968 9.52723C19.5161 9.53563 17.9355 9.54403 16.356 9.52362C16.5733 8.46146 16.9141 7.35969 17.7098 6.58317ZM19.6397 15.1069C19.1801 16.6863 18.7732 18.2814 18.3555 19.8728C19.4069 19.8764 20.4571 19.9004 21.5084 19.8752C21.9261 18.2886 22.375 16.7091 22.7626 15.1153C21.7221 15.0925 20.6803 15.1057 19.6397 15.1069Z" fill="white"/>
<path id="Vector_6" d="M31.6846 5.55635C33.2749 5.53955 34.8663 5.54555 36.4566 5.55395C34.9263 11.406 33.3337 17.2413 31.7747 23.0862C30.1796 23.1114 28.5846 23.1042 26.9907 23.0886C28.5402 17.2413 30.1136 11.3988 31.6846 5.55635Z" fill="white"/>
<path id="Vector_7" d="M38.5978 6.34561C39.3083 5.77672 40.2349 5.54269 41.1326 5.54869C43.3374 5.54869 45.5421 5.54389 47.7468 5.55109C48.5594 5.54869 49.5267 5.81033 49.8832 6.62045C50.2756 7.5626 49.9696 8.60676 49.6791 9.5321C48.0997 9.5297 46.5203 9.5465 44.9408 9.5237C44.9948 9.26206 45.044 9.00042 45.0944 8.73758C44.0515 8.72077 43.0097 8.72677 41.968 8.73398C41.5923 10.0494 41.2214 11.3672 40.8974 12.6958C42.4984 12.7138 44.0995 12.6898 45.7005 12.7054C46.429 12.7366 47.2584 12.8374 47.76 13.4315C48.3049 14.076 48.2101 14.9989 48.0301 15.7647C47.6664 17.1485 47.2836 18.5287 46.9127 19.9113C46.6823 20.7754 46.2754 21.6264 45.5805 22.2132C44.8268 22.8721 43.7958 23.1002 42.8177 23.099C40.8182 23.1014 38.8187 23.0966 36.8192 23.1014C36.1519 23.1002 35.4534 23.0498 34.8581 22.7221C34.4068 22.4725 34.0923 22.0068 34.0215 21.4967C33.9003 20.689 34.1656 19.8969 34.3624 19.124C35.0585 19.0244 35.7594 19.124 36.4579 19.1084C37.3484 19.124 38.239 19.0232 39.1283 19.1084C39.0755 19.3652 39.0407 19.6256 38.9951 19.8837C40.0273 19.8885 41.0594 19.8825 42.0916 19.8873C42.4948 18.5851 42.8225 17.2589 43.1489 15.9363C41.4759 15.9099 39.8028 15.9435 38.131 15.9219C37.4361 15.8955 36.6619 15.713 36.2251 15.125C35.7618 14.4757 35.8578 13.6127 36.0294 12.8782C36.4003 11.4992 36.7796 10.1214 37.154 8.74238C37.3977 7.83264 37.8405 6.9349 38.5978 6.34561Z" fill="white"/>
<path id="Vector_8" d="M54.2505 5.67974C54.7882 5.53692 55.3487 5.54652 55.9008 5.54652C57.9423 5.55132 59.985 5.54412 62.0265 5.55012C62.767 5.55132 63.6108 5.72295 64.0608 6.36865C64.5385 7.08396 64.3813 8.0033 64.1725 8.78342C63.4487 11.4238 62.7898 14.0822 62.0409 16.7142C59.3969 16.7214 56.7541 16.7106 54.1101 16.719C53.7993 17.7644 53.5244 18.8206 53.27 19.8815C54.3189 19.8839 55.3691 19.8971 56.4181 19.8743C56.4841 19.6139 56.5789 19.3618 56.6521 19.1026C57.521 19.0354 58.3912 19.1374 59.2613 19.1086C59.9742 19.123 60.6883 19.033 61.4 19.1086C61.1432 20.3772 60.6619 21.7334 59.5229 22.4703C58.5316 23.1412 57.287 23.1196 56.1408 23.0992C54.4606 23.1004 52.7803 23.098 51.1012 23.1016C50.4087 23.1016 49.6634 23.0764 49.0657 22.6851C48.6541 22.4199 48.3984 21.9626 48.33 21.485C48.2028 20.7 48.45 19.9259 48.6493 19.1758C49.505 15.9833 50.3559 12.7896 51.2093 9.59714C51.4469 8.6754 51.6761 7.71165 52.281 6.94954C52.7611 6.31224 53.4752 5.86337 54.2505 5.67974ZM56.2536 8.74021C55.8168 10.3221 55.3907 11.9063 54.9898 13.4965C56.0244 13.5253 57.059 13.4977 58.0947 13.5133C58.3468 12.8676 58.4704 12.1823 58.6648 11.5186C58.8976 10.5969 59.1857 9.68836 59.3777 8.75701C58.3372 8.72821 57.2954 8.73781 56.2536 8.74021Z" fill="white"/>
<path id="Vector_9" d="M85.8419 5.5611C87.4357 5.5347 89.0295 5.5491 90.6222 5.5539C89.332 10.5167 87.9734 15.4638 86.6556 20.4206C86.4035 21.3111 86.2019 22.2149 85.9211 23.097C84.3344 23.097 82.7478 23.1114 81.1611 23.0898C82.695 17.2401 84.29 11.406 85.8419 5.5611Z" fill="white"/>
<path id="Vector_10" d="M92.1741 5.55605C95.327 5.53685 98.4799 5.55485 101.633 5.54645C102.265 5.54165 102.942 5.58965 103.482 5.95691C103.935 6.25816 104.192 6.79224 104.219 7.32632C104.28 8.02003 104.09 8.69813 103.906 9.35943C102.661 13.9309 101.465 18.5156 100.199 23.0799C98.6155 23.0847 97.0325 23.1063 95.4507 23.0811C96.1588 20.3399 96.9113 17.6107 97.6362 14.8731C98.1631 12.8268 98.7692 10.7985 99.2444 8.73894C98.1991 8.72334 97.1525 8.71853 96.1071 8.74134C94.8145 13.5205 93.5508 18.3068 92.2618 23.0859C90.6679 23.1099 89.0741 23.1051 87.4802 23.0883C89.0273 17.2398 90.6019 11.3973 92.1741 5.55605Z" fill="white"/>
<path id="Vector_11" d="M112.157 5.86341C112.771 5.60057 113.446 5.53696 114.108 5.54657C116.271 5.55497 118.434 5.53696 120.597 5.55617C121.374 5.56937 122.278 5.85141 122.615 6.62073C123.009 7.56287 122.701 8.60824 122.409 9.53358C120.831 9.52878 119.251 9.54678 117.673 9.52398C117.726 9.26234 117.775 8.9995 117.824 8.73785C116.782 8.72225 115.741 8.72585 114.7 8.73545C114.322 10.0497 113.954 11.3675 113.628 12.6961C115.189 12.7117 116.749 12.6961 118.31 12.7021C118.894 12.7237 119.507 12.7657 120.03 13.0525C120.453 13.283 120.759 13.7042 120.85 14.1771C120.991 14.8756 120.82 15.5849 120.636 16.2582C120.289 17.5064 119.961 18.7594 119.616 20.0076C119.371 20.8921 118.922 21.7551 118.181 22.3215C117.405 22.9276 116.39 23.1113 115.429 23.1005C113.347 23.0945 111.266 23.1065 109.186 23.0945C108.356 23.0693 107.373 22.8664 106.943 22.0707C106.479 21.1322 106.853 20.0736 107.093 19.1266C107.629 19.063 108.17 19.0594 108.709 19.087C109.759 19.1543 110.812 19.0138 111.863 19.1002C111.809 19.3607 111.773 19.6223 111.726 19.884C112.758 19.8888 113.79 19.8828 114.823 19.8876C115.226 18.5866 115.553 17.2604 115.88 15.9366C114.246 15.9126 112.614 15.939 110.981 15.9258C110.274 15.9138 109.487 15.7601 109.01 15.1936C108.586 14.686 108.578 13.9791 108.664 13.3586C108.837 12.4416 109.137 11.5535 109.366 10.6497C109.622 9.77721 109.805 8.88188 110.124 8.02855C110.486 7.0816 111.2 6.24267 112.157 5.86341Z" fill="white"/>
<path id="Vector_12" d="M125.056 5.53857C126.606 5.48096 128.16 5.50497 129.712 5.54937C131.394 5.55057 133.076 5.54457 134.759 5.55057C135.498 5.55057 136.34 5.7258 136.79 6.3703C137.243 7.0508 137.126 7.92934 136.947 8.68185C135.962 12.3808 134.972 16.0774 133.984 19.7764C133.669 20.9525 132.998 22.1263 131.864 22.6736C130.828 23.2077 129.635 23.0901 128.512 23.0997C127.38 23.1093 126.247 23.0817 125.117 23.1129C124.678 24.7007 124.29 26.3018 123.829 27.8836C122.242 27.8872 120.655 27.8968 119.068 27.8776C120.734 21.5214 122.468 15.182 124.159 8.83188C124.464 7.73611 124.728 6.62834 125.056 5.53857ZM128.981 8.74906C128.697 9.6432 128.492 10.5613 128.236 11.4639C127.497 14.2711 126.719 17.0687 126.001 19.882C127.055 19.8856 128.109 19.8952 129.161 19.876C130.142 16.165 131.148 12.4612 132.105 8.74546C131.064 8.72986 130.022 8.73946 128.981 8.74906Z" fill="white"/>
<path id="Vector_13" d="M139.704 6.51854C140.425 5.82723 141.445 5.53559 142.428 5.54879C144.632 5.54759 146.836 5.54519 149.04 5.54999C149.728 5.55239 150.487 5.70481 150.958 6.2485C151.403 6.77058 151.432 7.51109 151.337 8.16039C151.227 8.82289 151.016 9.46379 150.852 10.1143C149.687 14.4398 148.552 18.7736 147.367 23.0931C144.402 23.1099 141.438 23.0931 138.474 23.1003C137.589 23.0991 136.583 23.1495 135.864 22.541C135.252 22.0021 135.221 21.0936 135.389 20.3507C135.653 19.2333 135.968 18.1291 136.254 17.0166C136.494 16.1632 136.666 15.2883 136.971 14.453C137.297 13.5924 137.888 12.8027 138.72 12.3766C139.341 12.0502 140.051 11.9218 140.749 11.9218C142.355 11.9134 143.962 11.929 145.569 11.917C145.873 10.8656 146.162 9.80944 146.402 8.74248C145.363 8.71368 144.324 8.73408 143.286 8.73048C143.206 9.00052 143.092 9.25856 143.02 9.531C141.442 9.5322 139.862 9.5454 138.285 9.5238C138.508 8.43403 138.864 7.29626 139.704 6.51854ZM141.534 15.1491C141.131 16.7273 140.677 18.2923 140.288 19.873C141.337 19.8754 142.386 19.903 143.435 19.873C143.86 18.2899 144.298 16.7105 144.693 15.1191C143.64 15.1107 142.583 15.0578 141.534 15.1491Z" fill="white"/>
<path id="Vector_14" d="M153.642 6.89307C154.334 5.99894 155.475 5.54767 156.589 5.55127C158.712 5.54167 160.834 5.55247 162.957 5.54647C163.577 5.54527 164.232 5.55367 164.792 5.85731C165.265 6.10095 165.595 6.58463 165.658 7.11271C165.761 7.93963 165.521 8.75816 165.262 9.53468C163.696 9.52868 162.129 9.54428 160.564 9.52628C160.597 9.26944 160.633 9.0138 160.666 8.75696C159.632 8.72935 158.597 8.73175 157.563 8.74616C156.559 12.4547 155.559 16.1657 154.577 19.8803C155.629 19.8863 156.68 19.8935 157.733 19.8767C157.799 19.6198 157.887 19.3702 157.956 19.1133C159.021 19.0257 160.089 19.1301 161.157 19.1037C161.674 19.0977 162.192 19.0557 162.71 19.1109C162.486 20.1971 162.132 21.3313 161.293 22.1066C160.561 22.8183 159.513 23.092 158.514 23.098C156.396 23.1016 154.276 23.098 152.157 23.0992C151.466 23.0896 150.701 23.0079 150.168 22.5183C149.717 22.1138 149.584 21.4705 149.611 20.8884C149.657 20.1455 149.902 19.4374 150.087 18.7209C150.869 15.7864 151.654 12.8508 152.439 9.91634C152.722 8.87098 152.93 7.75 153.642 6.89307Z" fill="white"/>
<path id="Vector_15" d="M168.465 6.35793C169.167 5.77945 170.095 5.54421 170.993 5.54901C173.116 5.54421 175.239 5.55141 177.363 5.54541C178.026 5.54541 178.744 5.58622 179.299 5.99308C179.647 6.24392 179.83 6.64838 180 7.03004V7.96138C179.21 10.8634 178.458 13.7763 177.673 16.6795C175.019 16.7719 172.362 16.6783 169.707 16.7263C169.406 17.7705 169.135 18.8242 168.868 19.8792C169.914 19.8876 170.96 19.8972 172.006 19.8732C172.093 19.6212 172.175 19.3667 172.264 19.1147C173.081 19.0283 173.901 19.1351 174.719 19.0955C175.478 19.0643 176.239 19.0547 176.997 19.1135C176.778 20.2309 176.397 21.3938 175.516 22.168C174.754 22.8713 173.686 23.1077 172.678 23.1005C170.557 23.0969 168.436 23.1041 166.317 23.0969C165.562 23.0789 164.687 22.9265 164.232 22.2556C163.759 21.5439 163.876 20.6341 164.076 19.8504C165.06 16.1586 166.05 12.4693 167.035 8.77871C167.278 7.86417 167.713 6.95923 168.465 6.35793ZM171.852 8.7547C171.43 10.3329 170.981 11.9064 170.605 13.4966C171.653 13.5086 172.702 13.535 173.748 13.4834C174.141 11.904 174.634 10.3485 174.971 8.7559C173.932 8.7355 172.891 8.7211 171.852 8.7547Z" fill="white"/>
<path id="Vector_16" d="M26.3705 24.729C26.5481 24.4422 26.7101 24.0389 27.1014 24.0161C27.9379 23.9573 28.7781 24.0113 29.617 23.9933C30.1439 24.0077 30.6912 23.9213 31.1964 24.1109C31.5397 27.3502 30.8148 30.6351 29.4718 33.5804C29.3637 33.7592 29.3001 34.1073 29.0205 33.962C28.8537 33.1891 28.8729 32.3886 28.712 31.6145C28.4432 31.9913 28.334 32.4486 28.1684 32.8759C26.895 36.2892 25.6312 39.7061 24.353 43.1158C24.2954 43.4039 24.0253 43.4723 23.7661 43.4411C23.7661 43.2034 23.7733 42.9658 23.8057 42.7306C24.2738 39.5873 24.725 36.4416 25.1883 33.2971C25.2687 32.7186 25.3779 32.1426 25.4067 31.5581C24.8847 32.2506 24.4838 33.0235 24.0001 33.7412C23.9173 33.9008 23.7445 33.9632 23.5933 34.0364C23.6245 30.7539 24.7694 27.5638 26.3705 24.729Z" fill="white"/>
</g>
</svg>
