<svg width="170" height="23" viewBox="0 0 170 23" fill="none" xmlns="http://www.w3.org/2000/svg">
<g id="sologenic logo">
<path id="Vector" d="M10.4087 1.16977C8.35984 1.16977 6.34819 1.76581 4.63455 2.92065C2.92092 4.07549 1.57982 5.67737 0.79751 7.57726C0.0151999 9.47716 -0.20832 11.5633 0.201462 13.575C0.611243 15.5866 1.57982 17.4493 3.03268 18.9021C4.48554 20.355 6.34819 21.3608 8.35984 21.7334C10.3715 22.1431 12.4577 21.9196 14.3576 21.1373C16.2574 20.355 17.8966 19.0139 19.0142 17.3003C20.169 15.5866 20.765 13.575 20.765 11.5261C20.765 8.76936 19.6847 6.1244 17.7103 4.18725C15.8104 2.2501 13.1655 1.16977 10.4087 1.16977ZM13.4635 16.1082C12.5322 16.7787 11.3773 17.114 10.2225 17.0767C9.14215 17.1512 8.06182 16.816 7.16775 16.1454C6.79522 15.8474 6.53445 15.5121 6.34819 15.0651C6.16192 14.6553 6.05016 14.2083 6.08742 13.7612C6.05016 13.1279 6.23643 12.5319 6.64621 12.0476C7.05599 11.6378 7.54028 11.3398 8.06182 11.1535C8.69512 10.93 9.32842 10.7438 9.99897 10.632C10.595 10.5202 11.1538 10.2967 11.6753 10.0732C11.8616 9.9987 12.0106 9.88694 12.1224 9.73793C12.2341 9.58892 12.3086 9.40266 12.3086 9.21639C12.3086 9.03013 12.2714 8.88111 12.1969 8.69485C12.1224 8.54584 12.0106 8.39682 11.8616 8.32232C11.4891 8.06155 11.042 7.94979 10.5578 7.98705C10.0735 7.94979 9.58919 8.0988 9.17941 8.35957C8.99314 8.47133 8.88138 8.6576 8.76962 8.80661C8.65786 8.99287 8.58336 9.17914 8.58336 9.40266H6.45994C6.4972 8.95562 6.64621 8.50859 6.83247 8.0988C7.05599 7.68902 7.35401 7.31649 7.72654 7.05572C8.54611 6.45968 9.51468 6.16165 10.5205 6.19891C11.5636 6.1244 12.6067 6.45968 13.4635 7.13023C13.7988 7.391 14.0595 7.76353 14.2458 8.17331C14.4321 8.58309 14.5066 8.99287 14.5066 9.4399C14.5066 9.73793 14.4693 9.9987 14.3948 10.2967C14.283 10.5575 14.134 10.8183 13.9478 11.0418C13.538 11.4516 13.0537 11.7496 12.4949 11.9359C11.9361 12.1594 11.3401 12.3084 10.744 12.4574C10.148 12.5691 9.55193 12.7554 8.99314 12.9789C8.76962 13.0534 8.62061 13.2397 8.50885 13.426C8.39709 13.6122 8.35984 13.8357 8.35984 14.0593C8.35984 14.2455 8.39709 14.4318 8.4716 14.5808C8.54611 14.7298 8.65787 14.8788 8.80688 15.0278C9.21666 15.3631 9.7382 15.5121 10.2597 15.4376C10.8558 15.4749 11.4518 15.2886 11.8989 14.9161C12.3086 14.6181 12.5694 14.171 12.6812 13.6867H14.9163C14.8791 14.2083 14.6928 14.6926 14.4693 15.1396C14.2085 15.4004 13.8733 15.7729 13.4635 16.1082Z" fill="white"/>
<path id="Vector_2" d="M30.6369 17.2257C29.7801 17.2257 28.9233 17.0767 28.141 16.7787C27.4704 16.5179 26.8744 16.0708 26.4273 15.512C25.9803 14.9533 25.7195 14.32 25.645 13.6122H28.439C28.5507 14.0592 28.7743 14.4317 29.1468 14.6925C29.5938 14.9905 30.0781 15.1395 30.6369 15.1395C31.1212 15.1768 31.5682 15.065 31.978 14.767C32.0898 14.6552 32.2015 14.5435 32.276 14.3945C32.3505 14.2455 32.3878 14.0964 32.3878 13.9102C32.3878 13.7239 32.3505 13.5004 32.2388 13.3514C32.127 13.1651 31.978 13.0534 31.7917 12.9789C31.2329 12.7553 30.6742 12.6063 30.1154 12.4946C29.6683 12.3828 29.184 12.2711 28.6998 12.122C28.2527 11.973 27.8057 11.7868 27.3959 11.5632C27.0234 11.3397 26.6881 11.0417 26.4273 10.7064C26.1666 10.3339 26.0548 9.84962 26.0548 9.40258C26.0548 8.95555 26.1666 8.50851 26.3528 8.06148C26.5391 7.65169 26.8371 7.27917 27.2096 6.98115C28.1037 6.27334 29.2585 5.93806 30.3761 6.01257C31.4565 5.97532 32.5368 6.27334 33.3936 6.90664C33.7661 7.20466 34.1014 7.57719 34.3249 7.98697C34.5485 8.39675 34.6975 8.88104 34.7347 9.32808H32.127C31.978 8.54577 31.382 8.13598 30.3389 8.13598C29.9291 8.09873 29.4821 8.21049 29.1468 8.434C29.035 8.50851 28.9233 8.62027 28.8488 8.76928C28.7743 8.9183 28.737 9.06731 28.737 9.21632C28.737 9.55159 28.9605 9.77511 29.3703 9.96137C29.8918 10.1849 30.4506 10.3712 31.0467 10.4829C31.7917 10.6692 32.4623 10.8554 33.0956 11.0417C33.6544 11.228 34.1759 11.526 34.5857 11.973C34.9955 12.4573 35.1818 13.0906 35.1445 13.7239C35.1818 14.3572 34.9955 14.9905 34.623 15.512C34.2504 16.0708 33.6916 16.5179 33.0583 16.7787C32.276 17.0767 31.4565 17.2257 30.6369 17.2257Z" fill="white"/>
<path id="Vector_3" d="M42.1108 17.2257C41.1422 17.2257 40.1736 17.0022 39.3168 16.5179C38.4973 16.0336 37.8267 15.3631 37.3424 14.5435C36.8581 13.6494 36.5974 12.6436 36.6346 11.6378C36.5974 10.6319 36.8581 9.58886 37.3797 8.73204C37.864 7.91248 38.5345 7.24192 39.3541 6.75764C40.2109 6.27335 41.1795 6.04984 42.148 6.04984C43.1166 6.04984 44.0852 6.3106 44.942 6.75764C45.7616 7.24192 46.4321 7.91248 46.9164 8.73204C47.4007 9.62611 47.6242 10.6319 47.6242 11.6378C47.6242 12.6436 47.3634 13.6494 46.9164 14.5435C46.4321 15.3631 45.7616 16.0336 44.942 16.5179C44.0479 16.9649 43.0794 17.2257 42.1108 17.2257ZM42.1108 14.8043C42.4461 14.8043 42.8186 14.7297 43.1166 14.5807C43.4146 14.4317 43.7127 14.2455 43.9734 13.9847C44.495 13.2769 44.7557 12.4573 44.7557 11.5633C44.7557 10.7064 44.4577 9.84963 43.9734 9.14182C43.7499 8.88105 43.4519 8.69479 43.1166 8.54578C42.7813 8.39676 42.4461 8.32226 42.1108 8.32226C41.7755 8.32226 41.403 8.39676 41.105 8.54578C40.7697 8.69479 40.5089 8.88105 40.2481 9.14182C39.7266 9.84963 39.4658 10.6692 39.4658 11.5633C39.4658 12.4201 39.7266 13.2769 40.2481 13.9847C40.4717 14.2455 40.7697 14.4317 41.105 14.5807C41.403 14.767 41.7383 14.8043 42.1108 14.8043Z" fill="white"/>
<path id="Vector_4" d="M49.4497 17.2258V1.16977H52.2064V17.2258H49.4497Z" fill="white"/>
<path id="Vector_5" d="M59.6198 17.2257C58.6512 17.2257 57.6827 17.0022 56.8259 16.5179C56.0063 16.0336 55.3357 15.3631 54.8514 14.5435C54.3672 13.6494 54.1064 12.6436 54.1436 11.6378C54.1064 10.6319 54.3672 9.58886 54.8887 8.73204C55.373 7.91248 56.0435 7.24192 56.8631 6.75764C57.7199 6.27335 58.6885 6.04984 59.6571 6.04984C60.6256 6.04984 61.5942 6.3106 62.451 6.75764C63.2706 7.24192 63.9412 7.91248 64.4254 8.73204C64.9097 9.62611 65.1332 10.6319 65.1332 11.6378C65.1332 12.6436 64.8725 13.6494 64.4254 14.5435C63.9412 15.3631 63.2706 16.0336 62.451 16.5179C61.557 16.9649 60.5884 17.2257 59.6198 17.2257ZM59.6198 14.8043C59.9551 14.8043 60.3276 14.7297 60.6256 14.5807C60.9609 14.4317 61.2217 14.2455 61.4825 13.9847C62.004 13.2769 62.2648 12.4573 62.2648 11.5633C62.2648 10.7064 61.9667 9.84963 61.4825 9.14182C61.2589 8.88105 60.9609 8.69479 60.6256 8.54578C60.2904 8.39676 59.9551 8.32226 59.6198 8.32226C59.2845 8.32226 58.912 8.39676 58.614 8.54578C58.2787 8.69479 58.0179 8.88105 57.7572 9.14182C57.2356 9.84963 56.9749 10.6692 56.9749 11.5633C56.9749 12.4201 57.2356 13.2769 57.7572 13.9847C57.9807 14.2455 58.2787 14.4317 58.614 14.5807C58.9493 14.7297 59.2473 14.8043 59.6198 14.8043Z" fill="white"/>
<path id="Vector_6" d="M77.4639 6.12436H73.4778H73.4406C72.8818 5.9381 72.323 5.8636 71.727 5.8636C70.9074 5.82634 70.1251 6.0126 69.38 6.38513C68.784 6.68316 68.2997 7.16745 67.9644 7.72624C67.6291 8.32228 67.4801 8.95558 67.4801 9.62613C67.4429 10.1477 67.5546 10.7065 67.7782 11.1908C68.0017 11.675 68.337 12.1221 68.7467 12.4574L69.0075 12.6809L66.8841 14.767V15.0278C67.0331 15.1768 67.2194 15.3258 67.4056 15.4376C67.6664 15.6238 67.9272 15.7356 68.2252 15.8474L68.7467 16.0709L68.2997 16.4062C67.7782 16.7414 67.3684 17.1885 67.1076 17.71C66.9213 18.1198 66.8096 18.5296 66.7723 18.9766C66.7351 19.6472 66.9586 20.3177 67.3684 20.8392C67.8154 21.3608 68.4115 21.7706 69.1193 21.9568C69.9761 22.2176 70.8701 22.3666 71.7642 22.3294C72.6955 22.3666 73.6641 22.1803 74.5209 21.7706C75.1542 21.4725 75.6758 20.9883 76.0483 20.3922C76.3836 19.8707 76.5326 19.2746 76.5326 18.6413C76.5326 18.2315 76.4953 17.859 76.3091 17.4865C76.1601 17.114 75.9365 16.7787 75.6385 16.5179C74.7444 15.8474 73.6269 15.5121 72.5093 15.5493C71.6525 15.4748 70.9446 15.4003 70.4604 15.3258C70.0878 15.2886 69.6781 15.2141 69.3055 15.0651C69.0448 14.9905 68.8212 14.8788 68.5977 14.6925L68.2997 14.469L69.8643 13.0161L70.0506 13.0534C70.6094 13.2024 71.1682 13.3142 71.727 13.2769C72.5465 13.3142 73.3288 13.1279 74.0366 12.7554C74.6327 12.4574 75.117 11.9731 75.4523 11.4143C75.7875 10.8182 75.9738 10.1849 75.9365 9.51438C75.9365 8.76932 75.7503 8.06151 75.3032 7.42821L74.968 6.98118L77.3894 6.86942L77.4639 6.12436ZM69.7526 16.3689L69.8271 16.3316H69.9388C70.5349 16.4062 71.2799 16.5179 72.0995 16.5552C72.9563 16.5179 73.8131 16.7787 74.5209 17.263C74.7444 17.4492 74.9307 17.6728 75.0425 17.9335C75.1542 18.1943 75.2287 18.4923 75.2287 18.7531C75.2287 19.1256 75.1542 19.4981 74.968 19.8334C74.7817 20.1687 74.5209 20.4667 74.2229 20.653C73.4778 21.1373 72.621 21.3608 71.727 21.3235C70.8329 21.3608 69.9388 21.1373 69.1565 20.7275C68.784 20.5412 68.5232 20.2432 68.2997 19.9079C68.1134 19.5726 68.0017 19.1629 68.0389 18.7531C68.0389 18.3433 68.1879 17.9335 68.3742 17.561C68.7095 17.0395 69.1938 16.6297 69.7526 16.3689ZM73.8876 11.675C73.2916 12.1593 72.5093 12.4201 71.727 12.3828C70.9447 12.4201 70.1623 12.1593 69.529 11.675C69.231 11.4143 69.0075 11.079 68.8957 10.7437C68.7467 10.3712 68.6722 9.99866 68.7095 9.62613C68.6722 9.2536 68.7467 8.84382 68.8957 8.50855C69.0448 8.13602 69.2683 7.83799 69.529 7.57722C70.1623 7.09294 70.9074 6.83217 71.727 6.86942C72.5093 6.83217 73.2916 7.09294 73.8876 7.57722C74.1857 7.83799 74.4092 8.13602 74.5209 8.50855C74.6699 8.88107 74.7444 9.2536 74.7072 9.62613C74.7444 9.99866 74.6699 10.4084 74.5209 10.7437C74.4092 11.079 74.1857 11.4143 73.8876 11.675Z" fill="white"/>
<path id="Vector_7" d="M88.081 8.47125C87.6712 7.72619 87.0752 7.09289 86.3674 6.64585C85.5478 6.16157 84.6165 5.93805 83.6852 5.93805C82.7166 5.9008 81.748 6.16157 80.8912 6.64585C80.1089 7.09289 79.4383 7.8007 79.0286 8.58301C78.5815 9.51433 78.3208 10.5202 78.358 11.5632C78.3208 12.6063 78.5815 13.6121 79.0286 14.5435C79.4756 15.363 80.1089 16.0336 80.8912 16.4806C81.7108 16.9649 82.6421 17.1884 83.6107 17.1884C84.6165 17.2257 85.5851 16.9649 86.4046 16.4434C87.2242 15.8846 87.8575 15.1023 88.23 14.1709H86.9634C86.7027 14.767 86.2929 15.2513 85.7713 15.5865C85.138 15.9963 84.3557 16.2198 83.6107 16.1826C82.9401 16.1826 82.2696 16.0336 81.7108 15.6983C81.1147 15.363 80.6304 14.8787 80.2952 14.3199C79.8854 13.6121 79.6619 12.8298 79.6619 12.0103V11.675H88.7143C88.7143 11.5632 88.7143 11.4887 88.7143 11.4142C88.7143 11.2652 88.7143 11.0789 88.7143 10.9299C88.6771 10.0731 88.4535 9.2163 88.081 8.47125ZM79.6246 10.8182L79.6619 10.4829C79.6991 9.96136 79.8109 9.47707 80.0344 9.03004C80.2579 8.583 80.5932 8.17322 80.9657 7.83795C81.7108 7.2419 82.6421 6.94388 83.5734 6.94388C84.542 6.90662 85.4733 7.2419 86.2184 7.8752C86.5909 8.21047 86.8889 8.62025 87.0752 9.06729C87.2614 9.51432 87.3732 9.99861 87.3732 10.4829V10.8182H79.6246Z" fill="white"/>
<path id="Vector_8" d="M99.4058 6.98107C98.996 6.60854 98.5117 6.27326 97.9902 6.087C97.4687 5.90073 96.9099 5.78898 96.3511 5.82623C95.5688 5.82623 94.8237 6.0125 94.1531 6.42228C93.5571 6.75755 93.0356 7.20458 92.6258 7.76338L92.067 8.50844L92.1042 6.087H90.8376V17.0393H92.1415V11.3024C92.067 10.1103 92.4395 8.95547 93.1846 8.02415C93.5198 7.65162 93.9296 7.3536 94.4139 7.13008C94.861 6.94382 95.3825 6.83206 95.904 6.83206C96.3511 6.7948 96.8354 6.86931 97.2451 7.05558C97.6549 7.24184 98.0647 7.50261 98.3627 7.83789C98.9588 8.6947 99.2568 9.70053 99.1823 10.7436V17.0393H100.523V10.5201C100.635 9.29075 100.263 7.9869 99.4058 6.98107Z" fill="white"/>
<path id="Vector_9" d="M104.659 1.20696C104.472 1.0207 104.211 0.908936 103.913 0.908936C103.615 0.908936 103.392 1.0207 103.168 1.20696C103.057 1.28147 102.982 1.39322 102.945 1.54223C102.908 1.65399 102.87 1.803 102.87 1.91476C102.87 2.06377 102.87 2.17553 102.945 2.32455C102.982 2.4363 103.057 2.58531 103.168 2.65982C103.28 2.77158 103.392 2.84609 103.504 2.88334C103.615 2.92059 103.764 2.95784 103.913 2.95784C104.062 2.95784 104.174 2.92059 104.323 2.88334C104.435 2.84609 104.547 2.77158 104.659 2.65982C104.77 2.54806 104.845 2.4363 104.882 2.32455C104.919 2.21279 104.957 2.06377 104.957 1.91476C104.957 1.76575 104.919 1.65399 104.882 1.54223C104.808 1.43047 104.733 1.31872 104.659 1.20696ZM103.243 6.19884V17.1884H104.584V6.19884H103.243Z" fill="white"/>
<path id="Vector_10" d="M115.946 13.9847C115.76 14.6552 115.313 15.2513 114.754 15.6238C114.083 16.0708 113.264 16.2943 112.481 16.2571C111.774 16.2571 111.103 16.0708 110.507 15.7356C109.874 15.363 109.352 14.8042 109.017 14.1337C108.644 13.3514 108.458 12.4573 108.458 11.5632C108.458 10.6692 108.644 9.81234 109.017 8.99278C109.352 8.35948 109.837 7.83795 110.47 7.46542C111.103 7.09289 111.811 6.90662 112.519 6.90662C113.338 6.90662 114.121 7.09289 114.791 7.53992C115.387 7.91245 115.797 8.47124 115.983 9.1418H117.324C117.064 8.21047 116.505 7.42816 115.76 6.86937C114.828 6.19882 113.674 5.82629 112.519 5.86354C111.55 5.86354 110.582 6.08706 109.725 6.57135C108.905 7.05563 108.235 7.72619 107.788 8.54575C107.303 9.47707 107.08 10.5202 107.08 11.5632C107.08 12.6063 107.341 13.6494 107.788 14.5807C108.235 15.4003 108.905 16.1081 109.725 16.5551C110.582 17.0394 111.55 17.2629 112.519 17.2629C113.674 17.3002 114.828 16.9276 115.797 16.2571C116.542 15.6983 117.101 14.8787 117.362 13.9847H115.946Z" fill="white"/>
<path id="Vector_11" fill-rule="evenodd" clip-rule="evenodd" d="M138.484 2.02648C137.031 1.31868 135.392 0.983401 133.79 1.02065H128.426V17.3747H133.79C135.429 17.4492 137.031 17.0766 138.484 16.3688C139.676 15.7355 140.645 14.7297 141.241 13.5376C141.837 12.1593 142.135 10.7064 142.135 9.21628C142.135 7.72617 141.837 6.27331 141.241 4.89495C140.645 3.6656 139.676 2.65978 138.484 2.02648ZM131.22 3.40483H133.716C134.871 3.36758 136.025 3.5911 137.068 4.11264C137.851 4.55968 138.484 5.26748 138.819 6.08704C139.192 7.09287 139.378 8.13595 139.378 9.21628C139.415 10.2594 139.229 11.3397 138.819 12.3083C138.484 13.1278 137.851 13.8356 137.068 14.2454C136.025 14.767 134.871 14.9905 133.716 14.916H131.22V3.40483ZM144.631 1.02065H144.445V17.3747H154.987V15.0277H147.238V10.2594H154.279V7.94968H147.238V3.33033H154.987V0.983398H144.631V1.02065ZM164.859 9.21628L169.814 17.0766L170 17.3747H166.796L166.759 17.3002L163.108 11.526L159.755 17.3002L159.718 17.3747H156.552L156.738 17.0766L161.618 9.10452L156.701 1.31868L156.514 1.02065H159.718L159.755 1.09516L163.369 6.8321L166.722 1.13241L166.759 1.0579H169.925L169.739 1.35593L164.859 9.21628Z" fill="white"/>
</g>
</svg>
