<svg width="151" height="23" viewBox="0 0 151 23" fill="none" xmlns="http://www.w3.org/2000/svg">
<g id="xaman labs">
<path id="Vector" d="M144.288 1.2362C144.767 0.886599 145.308 0.611817 145.886 0.468621C146.516 0.441529 147.183 0.365416 147.776 0.631168C148.501 0.944652 149.229 1.38843 149.621 2.10054C150.31 3.18935 150.383 4.6368 149.76 5.76947C149.145 6.73959 148.248 7.47879 147.526 8.36119C144.799 11.3103 142.105 14.289 139.386 17.242C138.728 18.0418 137.954 18.7345 137.301 19.5383C136.616 20.3884 135.617 20.9651 134.53 21.0863C133.359 21.1573 132.187 20.6284 131.422 19.746C129.906 18.0818 128.285 16.5182 126.769 14.8528C125.83 13.8246 124.602 12.9396 124.168 11.558C123.815 10.5388 124.1 9.38937 124.707 8.52632C125.209 7.75616 126.067 7.28787 126.934 7.04921C127.626 7.02082 128.365 6.9331 129.01 7.24916C130.332 7.79744 131.122 9.0617 132.127 10.0125C132.84 10.6743 133.433 11.4548 134.151 12.1088C134.592 11.9605 134.816 11.4935 135.132 11.1787C137.608 8.45795 140.104 5.75657 142.58 3.03713C143.19 2.47466 143.627 1.74707 144.288 1.2362Z" fill="white"/>
<path id="Vector_2" d="M3.19574 1.71612C4.11555 1.23493 5.0818 1.85674 5.76425 2.46436C7.33425 3.98792 8.84232 5.58114 10.4252 7.08921C10.7606 6.99246 10.9477 6.67253 11.1876 6.44419C11.6443 5.91268 12.2094 5.48696 12.6519 4.94127C13.1266 4.34655 13.7058 3.84601 14.2296 3.29515C14.8617 2.64238 15.5351 1.98446 16.3892 1.63356C16.7517 1.58325 17.1284 1.58712 17.4922 1.63872C18.1501 1.88512 18.7087 2.34051 19.1925 2.84105C19.8168 3.46673 20.4232 4.17239 20.6541 5.04447C20.7534 5.56179 20.4528 6.02879 20.2116 6.45838C19.3653 7.69941 18.1939 8.65534 17.18 9.74931C16.5633 10.3905 15.9118 10.9981 15.2991 11.6444C15.0346 12.0082 15.4848 12.2869 15.7067 12.5242C16.7388 13.5976 17.8482 14.6012 18.8158 15.7378C19.573 16.4783 20.409 17.2562 20.6567 18.3308C20.7199 19.0622 20.2413 19.7008 19.8156 20.2504C19.0209 21.1212 18.1256 22.1158 16.8755 22.2255C15.6899 22.0049 14.8708 21.0412 14.0374 20.253C13.3833 19.6582 12.8892 18.9126 12.2107 18.3411C11.6637 17.887 11.2289 17.3207 10.7219 16.8279C10.5117 16.7866 10.2407 16.7479 10.0963 16.9465C8.77524 18.2972 7.42971 19.6247 6.09579 20.9625C5.45592 21.5392 4.73349 22.1661 3.84077 22.2409C2.74422 21.9778 1.87988 21.1844 1.1381 20.3781C0.694318 19.8608 0.29698 19.2674 0.189906 18.581C0.303431 17.6006 0.930398 16.7672 1.64122 16.1209C2.47202 15.3611 3.18413 14.4838 4.02267 13.7317C4.5503 13.2596 4.96312 12.6803 5.46882 12.1862C5.72296 12.0005 5.61976 11.6444 5.394 11.4832C4.20198 10.3079 3.08221 9.06171 1.88246 7.89679C1.11488 7.14727 0.280209 6.28809 0.186035 5.16574C0.597564 3.63831 1.83989 2.45146 3.19574 1.71612Z" fill="white"/>
<path id="Vector_3" d="M100.95 2.10571C101.739 1.77546 102.605 1.88253 103.437 1.86318C104.201 1.8348 104.998 2.00638 105.624 2.46048C106.098 2.85008 105.964 3.61379 106.389 3.99952C107.315 3.03972 108.433 2.17796 109.775 1.92382C111.37 1.72515 113.045 1.91866 114.476 2.68753C115.376 3.18033 116.219 3.80472 116.904 4.57359C117.597 5.43019 118.28 6.31517 118.725 7.33045C119.278 8.55471 119.497 9.89766 119.608 11.2264C119.608 13.8943 119.607 16.5634 119.608 19.2325C119.518 19.9691 119.488 20.8322 118.858 21.3379C117.998 22.019 116.838 21.8759 115.815 21.8888C114.975 21.9146 114.043 21.721 113.478 21.0515C113.014 20.569 113.022 19.8505 112.925 19.2325C112.909 16.6911 112.925 14.151 112.919 11.6109C112.95 10.602 112.431 9.58289 111.567 9.05009C110.194 8.12125 108.202 8.37152 107.057 9.54935C106.59 10.1273 106.285 10.8626 106.319 11.6134C106.314 14.1097 106.32 16.606 106.315 19.1009C106.238 19.8776 106.142 20.7574 105.504 21.2966C104.806 21.9597 103.788 21.823 102.916 21.9855C102.089 21.8565 101.168 21.912 100.454 21.4037C99.8932 20.898 99.5823 20.1136 99.6171 19.3615C99.6184 14.2452 99.612 9.1275 99.6223 4.00984C99.692 3.21387 100.133 2.35082 100.95 2.10571Z" fill="white"/>
<path id="Vector_4" d="M26.9263 2.78556C28.8497 1.71868 31.2944 1.51614 33.2811 2.53271C33.9609 2.82039 34.455 3.37899 34.9659 3.88727C35.1491 3.48219 35.2484 3.0268 35.5464 2.68365C36.0779 2.09151 36.9074 1.85672 37.6815 1.86575C38.6697 1.86188 39.7185 1.79222 40.628 2.25148C41.3001 2.72106 41.6084 3.58798 41.5826 4.38652C41.5916 9.37647 41.5865 14.3677 41.5852 19.3589C41.6136 20.1472 41.3362 21.0089 40.6693 21.4798C40.1119 21.8191 39.4398 21.89 38.8 21.8784C37.8711 21.8681 36.8829 21.9313 36.025 21.5107C35.4742 21.2398 35.2136 20.64 35.1194 20.0646C35.042 20.0672 34.9659 20.0672 34.8898 20.0672C33.8384 21.3392 32.1691 21.9481 30.5436 21.8758C28.9323 21.9881 27.352 21.3895 26.0593 20.4555C23.2702 18.5127 21.2449 15.214 21.4422 11.7411C21.3868 10.6768 21.6112 9.62287 21.9286 8.61275C22.8355 6.16164 24.6429 4.05627 26.9263 2.78556ZM30.5952 8.59082C29.278 8.93527 28.3182 10.1789 28.0512 11.4818C27.8177 13.4105 29.6147 15.3765 31.5795 15.1791C32.5625 15.2398 33.4862 14.6502 34.0293 13.8581C34.6731 13.0351 34.9672 11.8753 34.5647 10.882C34.1893 9.84476 33.3907 8.89527 32.2955 8.59856C31.7317 8.54954 31.1602 8.5547 30.5952 8.59082Z" fill="white"/>
<path id="Vector_5" d="M45.9882 2.11727C46.85 1.71993 47.8214 1.90054 48.7387 1.87216C49.5037 1.95085 50.3951 2.16371 50.7989 2.89259C51.0917 3.32476 51.1446 3.84724 51.1717 4.35423C51.5407 4.14008 51.7303 3.74145 52.0141 3.43958C52.7107 2.66167 53.6486 2.0618 54.6832 1.87216C55.6688 1.85539 56.688 1.75992 57.6336 2.10566C58.9907 2.49784 60.1544 3.42926 60.9129 4.61224C61.0445 4.75157 61.1232 5.05989 61.3683 4.96443C61.9282 4.33488 62.4494 3.64857 63.1705 3.18931C64.2284 2.44107 65.4488 1.73541 66.7943 1.8541C67.8999 1.77669 69.0093 2.05019 69.9769 2.58556C70.8193 3.06159 71.5185 3.74919 72.1506 4.47162C73.4716 6.30996 73.8406 8.62819 73.9528 10.8342C73.9464 13.7613 73.9644 16.6898 73.9451 19.6169C73.8664 20.4438 73.482 21.3946 72.6318 21.6836C71.3237 22.1261 69.8595 22.1274 68.5591 21.6578C67.6728 21.3378 67.3839 20.3277 67.2729 19.484C67.2316 16.6459 67.2832 13.8052 67.2458 10.9658C67.2007 9.83052 66.3802 8.50434 65.1159 8.57143C64.3471 8.48628 63.4518 8.74559 63.097 9.49124C62.6726 10.215 62.71 11.0651 62.6235 11.8701C62.6171 14.4038 62.6364 16.9362 62.6145 19.4698C62.63 20.36 62.2069 21.374 61.3128 21.69C60.4175 21.9816 59.4629 22.068 58.5276 21.9635C57.9522 21.85 57.324 21.8164 56.8428 21.441C56.3177 21.0424 56.012 20.3677 56.0172 19.7124C56.021 19.2015 55.8198 18.6971 55.9746 18.1901C56.0275 17.3322 56.0468 16.4627 55.9127 15.6126C55.8907 15.3507 56.0159 15.0978 55.9785 14.8385C55.8546 14.3664 56.0933 13.8955 55.9823 13.4208C55.7501 12.2313 56.1642 10.949 55.6366 9.81504C55.305 9.05391 54.4884 8.46951 53.6383 8.57143C52.8152 8.46693 51.9973 8.98941 51.7032 9.7557C51.302 10.5336 51.4258 11.425 51.2788 12.2597C51.2814 14.3225 51.2633 16.3866 51.2878 18.4494C51.4568 19.0441 51.2775 19.6388 51.2272 20.2335C51.0556 20.8412 50.6712 21.4475 50.0494 21.6668C48.7412 22.1067 47.3002 22.1119 45.9805 21.7094C45.1252 21.4307 44.6879 20.4567 44.6608 19.6169C44.6543 14.5405 44.6569 9.46286 44.6595 4.38648C44.5937 3.46538 45.1033 2.46558 45.9882 2.11727Z" fill="white"/>
<path id="Vector_6" d="M84.1715 1.99472C85.7531 1.64511 87.4534 1.98311 88.8118 2.85519C89.2362 3.13642 89.5355 3.5673 89.9638 3.84466C90.1793 3.40604 90.2618 2.88615 90.6295 2.53654C91.1881 2.02568 91.9789 1.83346 92.7233 1.86313C93.6869 1.8799 94.7216 1.75477 95.5975 2.24886C96.2838 2.70812 96.5767 3.59439 96.5496 4.39164C96.5522 9.42158 96.556 14.4515 96.5483 19.4815C96.5728 20.1523 96.3509 20.8605 95.8581 21.3314C95.3047 21.7571 94.5745 21.8939 93.8908 21.8758C92.8897 21.8693 91.8305 21.9442 90.912 21.472C90.4618 21.1366 90.1341 20.6412 90.1419 20.0646C89.809 20.0362 89.6013 20.3484 89.3717 20.5367C88.3319 21.5752 86.7993 21.9197 85.3725 21.8771C84.294 21.9145 83.191 21.6978 82.2493 21.1585C79.8562 19.9975 78.0179 17.8521 77.0091 15.4126C76.5962 14.2374 76.3486 12.9925 76.4079 11.7424C76.3434 8.54821 78.1211 5.51915 80.6264 3.62277C81.6675 2.8268 82.8608 2.18952 84.1715 1.99472ZM85.6821 8.58433C83.818 8.97522 82.457 11.2612 83.2723 13.0544C83.7096 14.0697 84.6385 14.8618 85.7028 15.152C86.4755 15.2023 87.3063 15.2604 87.9875 14.8166C88.9253 14.2 89.7097 13.1692 89.7007 12.0043C89.7755 10.7839 89.0234 9.64347 88.0649 8.94942C87.3721 8.44243 86.4845 8.56756 85.6821 8.58433Z" fill="white"/>
</g>
</svg>
