<svg width="150" height="41" viewBox="0 0 150 41" fill="none" xmlns="http://www.w3.org/2000/svg">
<g id="xrpcafe logo">
<path id="Vector" d="M45.4521 31.4956L49.4276 26.7477L45.7444 22.3952C45.397 21.9724 45.215 21.6047 45.215 21.1821C45.215 20.2874 45.9043 19.7056 46.6983 19.7056C47.3324 19.7056 47.7845 19.9966 48.1815 20.4961L51.3354 24.6071L54.539 20.5179C54.9084 20.0459 55.3605 19.7002 55.9174 19.7002C56.7665 19.7002 57.4283 20.3094 57.4283 21.0998C57.4283 21.5498 57.2407 21.8627 56.976 22.1811L53.188 26.6928L57.1084 31.3089C57.4502 31.7316 57.6377 32.0993 57.6377 32.5219C57.6377 33.4166 56.9485 33.9984 56.1545 33.9984C55.5204 33.9984 55.0682 33.7076 54.6712 33.1806L51.2803 28.8279L47.8893 33.1806C47.5199 33.6307 47.0677 33.9984 46.4832 33.9984C45.6616 33.9984 45 33.3892 45 32.5988C45 32.1487 45.1599 31.8084 45.4521 31.4901V31.4956ZM61.0563 21.3413C61.0563 20.4466 61.7455 19.7331 62.6442 19.7331C63.543 19.7331 64.2599 20.4466 64.2599 21.3413V22.7683C64.9986 21.0284 66.3771 19.7111 67.7831 19.7111C68.7923 19.7111 69.3711 20.3698 69.3711 21.2919C69.3711 22.1372 68.8143 22.6916 68.0975 22.8233C65.8203 23.2184 64.2544 24.9584 64.2544 28.2572V32.3683C64.2544 33.2409 63.5375 33.9491 62.6388 33.9491C61.74 33.9491 61.0507 33.2629 61.0507 32.3683V21.3468L61.0563 21.3413ZM72.1336 21.3413C72.1336 20.4466 72.8229 19.7331 73.7216 19.7331C74.6204 19.7331 75.3371 20.4466 75.3371 21.3413V22.2139C76.3682 20.7649 77.8294 19.6013 80.1066 19.6013C83.3929 19.6013 86.5964 22.1866 86.5964 26.8246V26.8794C86.5964 31.4956 83.4204 34.1027 80.1066 34.1027C77.7742 34.1027 76.3186 32.9446 75.3371 31.6492V36.5782C75.3371 37.4728 74.6204 38.1589 73.7216 38.1589C72.8229 38.1589 72.1336 37.4728 72.1336 36.5782V21.3358V21.3413ZM83.3377 26.8794V26.8246C83.3377 24.1351 81.5071 22.3677 79.3346 22.3677C77.1623 22.3677 75.2544 24.1626 75.2544 26.8246V26.8794C75.2544 29.5416 77.1623 31.3363 79.3346 31.3363C81.5071 31.3363 83.3377 29.6238 83.3377 26.8794ZM91.3437 30.0466C92.4025 30.0466 93.1965 30.8369 93.1965 31.8688V32.1322C93.1965 33.1587 92.4025 33.9546 91.3437 33.9546C90.2851 33.9546 89.4636 33.1642 89.4636 32.1322V31.8688C89.4636 30.8424 90.2576 30.0466 91.3437 30.0466ZM95.7384 26.9343V26.8794C95.7384 22.9221 98.8095 19.6013 103.022 19.6013C105.222 19.6013 106.733 20.3149 107.924 21.3413C108.139 21.5279 108.426 21.9231 108.426 22.4501C108.426 23.2678 107.764 23.8991 106.943 23.8991C106.546 23.8991 106.204 23.7399 105.989 23.5807C105.167 22.8946 104.268 22.3952 102.994 22.3952C100.662 22.3952 98.9419 24.3986 98.9419 26.8246V26.8794C98.9419 29.3604 100.662 31.3363 103.127 31.3363C104.401 31.3363 105.377 30.8369 106.253 30.0959C106.441 29.9367 106.755 29.7556 107.13 29.7556C107.896 29.7556 108.508 30.3868 108.508 31.1552C108.508 31.5779 108.348 31.9182 108.056 32.1597C106.81 33.3453 105.299 34.1357 102.972 34.1357C98.815 34.1357 95.7384 30.8918 95.7384 26.9343ZM110.841 29.8104V29.7556C110.841 26.7477 113.201 25.2713 116.614 25.2713C118.174 25.2713 119.288 25.5073 120.374 25.8531V25.5128C120.374 23.5368 119.156 22.4774 116.906 22.4774C115.687 22.4774 114.678 22.6861 113.807 23.0318C113.62 23.0867 113.465 23.1087 113.305 23.1087C112.567 23.1087 111.954 22.5268 111.954 21.7913C111.954 21.2096 112.352 20.7101 112.831 20.5234C114.155 20.0239 115.505 19.7056 117.336 19.7056C119.431 19.7056 120.992 20.2599 121.973 21.2644C123.004 22.2634 123.484 23.7453 123.484 25.5622V32.4177C123.484 33.2904 122.795 33.9491 121.924 33.9491C120.997 33.9491 120.363 33.3178 120.363 32.6043V32.0773C119.409 33.2136 117.954 34.1082 115.809 34.1082C113.184 34.1082 110.852 32.6043 110.852 29.8104H110.841ZM120.429 28.8061V27.8564C119.608 27.5381 118.521 27.3021 117.253 27.3021C115.186 27.3021 113.967 28.1748 113.967 29.6238V29.6788C113.967 31.0236 115.158 31.7864 116.696 31.7864C118.814 31.7864 120.429 30.5734 120.429 28.8061ZM128.171 22.6367H127.614C126.875 22.6367 126.263 22.0548 126.263 21.3193C126.263 20.5838 126.875 19.9746 127.614 19.9746H128.171V18.9482C128.171 17.4168 128.567 16.2587 129.312 15.5177C130.051 14.7822 131.088 14.4089 132.466 14.4089C133.1 14.4089 133.63 14.4638 134.081 14.5407C134.666 14.6176 135.195 15.1499 135.195 15.8579C135.195 16.5661 134.589 17.2027 133.845 17.1753C133.625 17.1424 133.404 17.1242 133.182 17.1204C131.964 17.1204 131.33 17.7791 131.33 19.2281V19.9911H133.822C134.589 19.9911 135.174 20.5728 135.174 21.3083C135.174 22.0438 134.561 22.6257 133.822 22.6257H131.385V32.3573C131.385 33.2299 130.669 33.9381 129.77 33.9381C128.871 33.9381 128.181 33.2246 128.181 32.3573V22.6257L128.171 22.6367ZM143.693 34.1357C139.64 34.1357 136.514 31.2102 136.514 26.9124V26.8576C136.514 22.8727 139.348 19.6068 143.35 19.6068C147.8 19.6068 150 23.2459 150 26.4623C150 27.3569 149.311 27.9937 148.489 27.9937H139.723C140.064 30.2606 141.68 31.5284 143.747 31.5284C145.099 31.5284 146.156 31.0564 147.061 30.3154C147.299 30.1288 147.514 30.0246 147.882 30.0246C148.6 30.0246 149.156 30.5789 149.156 31.3144C149.156 31.7096 148.969 32.0499 148.731 32.2914C147.458 33.4276 145.87 34.1357 143.698 34.1357H143.693ZM146.874 25.8806C146.659 23.8222 145.44 22.2139 143.322 22.2139C141.365 22.2139 139.986 23.7179 139.695 25.8806H146.874Z" fill="white"/>
<g id="Group">
<path id="Vector_2" d="M29.4421 14.8774V36.2636C29.4391 36.4095 29.4062 36.5535 29.3457 36.6946C28.6035 38.4255 23.672 39.763 17.7002 39.763C11.7286 39.763 6.79706 38.4255 6.05486 36.6946C5.99375 36.5535 5.96143 36.4095 5.9585 36.2636V14.878" stroke="white" stroke-width="2" stroke-miterlimit="10"/>
<path id="Vector_3" d="M29.4424 19.7846C33.3571 19.7846 36.5311 22.8704 36.5311 26.6765C36.5311 30.4825 33.3571 33.5684 29.4424 33.5684" stroke="white" stroke-width="2" stroke-miterlimit="10"/>
<path id="Vector_4" d="M17.7002 17.331C24.1851 17.331 29.4421 16.3109 29.4421 15.0527C29.4421 13.7945 24.1851 12.7744 17.7002 12.7744C11.2155 12.7744 5.9585 13.7945 5.9585 15.0527C5.9585 16.3109 11.2155 17.331 17.7002 17.331Z" stroke="white" stroke-width="2" stroke-miterlimit="10"/>
<path id="Vector_5" d="M13.6693 30.6501C13.6693 31.8113 12.7276 32.7531 11.5664 32.7531C10.4051 32.7531 9.46338 31.8113 9.46338 30.6501" stroke="white" stroke-width="2" stroke-miterlimit="10" stroke-linecap="round"/>
<path id="Vector_6" d="M13.7729 1.90894C13.0656 2.96707 13.1969 4.37347 14.0873 5.28382C14.9495 6.1657 15.1028 7.5176 14.4594 8.56846" stroke="white" stroke-width="2" stroke-miterlimit="10" stroke-linecap="round"/>
<path id="Vector_7" d="M21.35 1.90894C20.6428 2.96707 20.774 4.37347 21.6644 5.28382C22.5267 6.1657 22.6799 7.5176 22.0365 8.56846" stroke="white" stroke-width="2" stroke-miterlimit="10" stroke-linecap="round"/>
</g>
<g id="Group_2">
<path id="Vector_8" d="M18.9273 26.4441C19.8952 26.4441 20.6798 25.6595 20.6798 24.6916C20.6798 23.7237 19.8952 22.9391 18.9273 22.9391C17.9594 22.9391 17.1748 23.7237 17.1748 24.6916C17.1748 25.6595 17.9594 26.4441 18.9273 26.4441Z" fill="white"/>
<path id="Vector_9" d="M1.75251 24.3411C2.72039 24.3411 3.50501 23.5565 3.50501 22.5886C3.50501 21.6207 2.72039 20.8361 1.75251 20.8361C0.784625 20.8361 0 21.6207 0 22.5886C0 23.5565 0.784625 24.3411 1.75251 24.3411Z" fill="white"/>
</g>
</g>
</svg>
