<svg width="44" height="44" viewBox="0 0 44 44" fill="none" xmlns="http://www.w3.org/2000/svg">
<path d="M38.7578 11.6016L29.7344 9.02344L27.1562 0H9.10938C6.97357 0 5.24219 1.73138 5.24219 3.86719V40.1328C5.24219 42.2686 6.97357 44 9.10938 44H34.8906C37.0264 44 38.7578 42.2686 38.7578 40.1328V11.6016Z" fill="black"/>
<path d="M38.7578 11.6016H29.7344C28.3164 11.6016 27.1562 10.4414 27.1562 9.02344V0C27.4914 0 27.8266 0.128906 28.0585 0.386805L38.371 10.6993C38.6289 10.9312 38.7578 11.2664 38.7578 11.6016Z" fill="#646467"/>
<path opacity="0.9" d="M28.8817 14.3516H31.6992L25.8272 19.8549C24.7737 20.8082 23.4036 21.3361 21.9828 21.3361C20.562 21.3361 19.1919 20.8082 18.1383 19.8549L12.2664 14.3516H15.0839L19.5339 18.512C20.1985 19.1219 21.0676 19.4603 21.9696 19.4603C22.8716 19.4603 23.7408 19.1219 24.4053 18.512L28.8817 14.3516Z" fill="#F5F5F7"/>
<path opacity="0.9" d="M15.056 29.6237H12.2385L18.1368 24.094C19.1846 23.129 20.5569 22.5933 21.9813 22.5933C23.4057 22.5933 24.778 23.129 25.8257 24.094L31.7241 29.6237H28.9066L24.4302 25.4106C23.7656 24.8007 22.8964 24.4623 21.9945 24.4623C21.0925 24.4623 20.2233 24.8007 19.5588 25.4106L15.056 29.6237Z" fill="#F5F5F7"/>
</svg>
