<svg width="220" height="80" viewBox="0 0 220 80" fill="none" xmlns="http://www.w3.org/2000/svg">
<path d="M21.816 65.72C16.44 65.72 12.216 63.632 9.144 59.456C6.072 55.232 4.536 49.16 4.536 41.24C4.536 33.32 6.072 27.272 9.144 23.096C12.216 18.872 16.44 16.76 21.816 16.76C27.24 16.76 31.488 18.872 34.56 23.096C37.632 27.272 39.168 33.32 39.168 41.24C39.168 49.16 37.632 55.232 34.56 59.456C31.488 63.632 27.24 65.72 21.816 65.72ZM21.888 62.48C24.816 62.48 27.288 61.688 29.304 60.104C31.32 58.472 32.856 56.072 33.912 52.904C34.968 49.736 35.496 45.848 35.496 41.24C35.496 36.632 34.968 32.744 33.912 29.576C32.856 26.408 31.32 24.032 29.304 22.448C27.288 20.816 24.816 20 21.888 20C18.96 20 16.464 20.816 14.4 22.448C12.384 24.032 10.848 26.408 9.792 29.576C8.736 32.744 8.208 36.632 8.208 41.24C8.208 45.8 8.736 49.688 9.792 52.904C10.848 56.072 12.384 58.472 14.4 60.104C16.464 61.688 18.96 62.48 21.888 62.48ZM58.7104 65V27.344C58.7104 26.528 58.7104 25.712 58.7104 24.896C58.7584 24.032 58.7824 23.168 58.7824 22.304C57.2464 24.224 55.3744 25.88 53.1664 27.272C50.9584 28.616 48.6784 29.6 46.3264 30.224L45.3904 26.984C46.4464 26.696 47.6224 26.264 48.9184 25.688C50.2144 25.064 51.5104 24.32 52.8064 23.456C54.1504 22.592 55.3744 21.656 56.4784 20.648C57.5824 19.64 58.4464 18.584 59.0704 17.48H62.3104V65H58.7104ZM77.2481 59.096C78.2081 59.096 78.9761 59.408 79.5521 60.032C80.1761 60.608 80.4881 61.376 80.4881 62.336C80.4881 63.296 80.1761 64.088 79.5521 64.712C78.9761 65.288 78.2081 65.576 77.2481 65.576C76.2881 65.576 75.4961 65.288 74.8721 64.712C74.2961 64.088 74.0081 63.296 74.0081 62.336C74.0081 61.376 74.2961 60.608 74.8721 60.032C75.4961 59.408 76.2881 59.096 77.2481 59.096Z" fill="url(#paint0_linear_195_18834)"/>
<mask id="mask0_195_18834" style="mask-type:alpha" maskUnits="userSpaceOnUse" x="4" y="16" width="77" height="50">
<path d="M21.816 65.72C16.44 65.72 12.216 63.632 9.144 59.456C6.072 55.232 4.536 49.16 4.536 41.24C4.536 33.32 6.072 27.272 9.144 23.096C12.216 18.872 16.44 16.76 21.816 16.76C27.24 16.76 31.488 18.872 34.56 23.096C37.632 27.272 39.168 33.32 39.168 41.24C39.168 49.16 37.632 55.232 34.56 59.456C31.488 63.632 27.24 65.72 21.816 65.72ZM21.888 62.48C24.816 62.48 27.288 61.688 29.304 60.104C31.32 58.472 32.856 56.072 33.912 52.904C34.968 49.736 35.496 45.848 35.496 41.24C35.496 36.632 34.968 32.744 33.912 29.576C32.856 26.408 31.32 24.032 29.304 22.448C27.288 20.816 24.816 20 21.888 20C18.96 20 16.464 20.816 14.4 22.448C12.384 24.032 10.848 26.408 9.792 29.576C8.736 32.744 8.208 36.632 8.208 41.24C8.208 45.8 8.736 49.688 9.792 52.904C10.848 56.072 12.384 58.472 14.4 60.104C16.464 61.688 18.96 62.48 21.888 62.48ZM58.7104 65V27.344C58.7104 26.528 58.7104 25.712 58.7104 24.896C58.7584 24.032 58.7824 23.168 58.7824 22.304C57.2464 24.224 55.3744 25.88 53.1664 27.272C50.9584 28.616 48.6784 29.6 46.3264 30.224L45.3904 26.984C46.4464 26.696 47.6224 26.264 48.9184 25.688C50.2144 25.064 51.5104 24.32 52.8064 23.456C54.1504 22.592 55.3744 21.656 56.4784 20.648C57.5824 19.64 58.4464 18.584 59.0704 17.48H62.3104V65H58.7104ZM77.2481 59.096C78.2081 59.096 78.9761 59.408 79.5521 60.032C80.1761 60.608 80.4881 61.376 80.4881 62.336C80.4881 63.296 80.1761 64.088 79.5521 64.712C78.9761 65.288 78.2081 65.576 77.2481 65.576C76.2881 65.576 75.4961 65.288 74.8721 64.712C74.2961 64.088 74.0081 63.296 74.0081 62.336C74.0081 61.376 74.2961 60.608 74.8721 60.032C75.4961 59.408 76.2881 59.096 77.2481 59.096Z" fill="url(#paint1_linear_195_18834)"/>
</mask>
<g mask="url(#mask0_195_18834)">
<path d="M655.5 1.5L456.7 206.7C377.2 288.7 248.4 288.7 168.9 206.7L-30 1.49997" stroke="url(#paint2_linear_195_18834)" stroke-width="2" stroke-miterlimit="10" stroke-linecap="round"/>
<path d="M649.398 1.19922L460.998 195.599C382.298 276.799 254.598 276.799 175.798 195.599L-12.1016 1.59919" stroke="url(#paint3_linear_195_18834)" stroke-width="2" stroke-miterlimit="10" stroke-linecap="round"/>
<path d="M643 1.30078L465.5 184.501C387.4 265.101 260.9 265.101 182.8 184.501L5.40002 1.50075" stroke="url(#paint4_linear_195_18834)" stroke-width="2" stroke-miterlimit="10" stroke-linecap="round"/>
<path d="M636.602 1.09961L469.702 173.4C392.302 253.2 267.002 253.2 189.702 173.4L22.8016 1.19958" stroke="url(#paint5_linear_195_18834)" stroke-width="2" stroke-miterlimit="10" stroke-linecap="round"/>
<path d="M630 1L473.8 162.2C397.2 241.3 273 241.3 196.4 162.2L40.3 1.09997" stroke="url(#paint6_linear_195_18834)" stroke-width="2" stroke-miterlimit="10" stroke-linecap="round"/>
<path d="M623.199 1.10039L478.099 150.8C402.199 229.1 279.199 229.1 203.299 150.8L57.9992 0.900366" stroke="url(#paint7_linear_195_18834)" stroke-width="2" stroke-miterlimit="10" stroke-linecap="round"/>
<path d="M617 1.09922L482.5 139.899C407.3 217.399 285.4 217.399 210.2 139.899L75.3 0.699195" stroke="url(#paint8_linear_195_18834)" stroke-width="2" stroke-miterlimit="10" stroke-linecap="round"/>
</g>
<defs>
<linearGradient id="paint0_linear_195_18834" x1="0.210325" y1="40.2837" x2="220.21" y2="40.2837" gradientUnits="userSpaceOnUse">
<stop stop-color="#FFAA80"/>
<stop offset="0.234375" stop-color="#FF80BF"/>
</linearGradient>
<linearGradient id="paint1_linear_195_18834" x1="0.210325" y1="40.2837" x2="220.21" y2="40.2837" gradientUnits="userSpaceOnUse">
<stop stop-color="#FFAA80"/>
<stop offset="0.234375" stop-color="#FF80BF"/>
</linearGradient>
<linearGradient id="paint2_linear_195_18834" x1="658.449" y1="134.838" x2="-32.9264" y2="134.838" gradientUnits="userSpaceOnUse">
<stop offset="0.4115" stop-color="#D919FF"/>
<stop offset="1" stop-color="#9A52FF"/>
</linearGradient>
<linearGradient id="paint3_linear_195_18834" x1="652.308" y1="128.872" x2="-15.0008" y2="128.872" gradientUnits="userSpaceOnUse">
<stop offset="0.4115" stop-color="#D919FF"/>
<stop offset="1" stop-color="#9A52FF"/>
</linearGradient>
<linearGradient id="paint4_linear_195_18834" x1="645.779" y1="123.124" x2="2.61303" y2="123.124" gradientUnits="userSpaceOnUse">
<stop offset="0.4115" stop-color="#D919FF"/>
<stop offset="1" stop-color="#9A52FF"/>
</linearGradient>
<linearGradient id="paint5_linear_195_18834" x1="639.358" y1="117.203" x2="20.0513" y2="117.203" gradientUnits="userSpaceOnUse">
<stop offset="0.4115" stop-color="#D919FF"/>
<stop offset="1" stop-color="#9A52FF"/>
</linearGradient>
<linearGradient id="paint6_linear_195_18834" x1="632.68" y1="111.273" x2="37.6108" y2="111.273" gradientUnits="userSpaceOnUse">
<stop offset="0.4115" stop-color="#D919FF"/>
<stop offset="1" stop-color="#9A52FF"/>
</linearGradient>
<linearGradient id="paint7_linear_195_18834" x1="625.771" y1="105.238" x2="55.3456" y2="105.238" gradientUnits="userSpaceOnUse">
<stop offset="0.4115" stop-color="#D919FF"/>
<stop offset="1" stop-color="#9A52FF"/>
</linearGradient>
<linearGradient id="paint8_linear_195_18834" x1="619.486" y1="99.3571" x2="72.7158" y2="99.3571" gradientUnits="userSpaceOnUse">
<stop offset="0.4115" stop-color="#D919FF"/>
<stop offset="1" stop-color="#9A52FF"/>
</linearGradient>
</defs>
</svg>
