<svg width="112" height="116" viewBox="0 0 112 116" fill="none" xmlns="http://www.w3.org/2000/svg">
<g clip-path="url(#clip0_1090_628)">
<path d="M16.8727 0.0499407C35.8289 -0.0499407 54.7851 0.0499407 73.7476 0C78.1707 0.0124852 82.6939 -0.118609 86.9856 1.14239C90.0199 2.03508 92.8915 3.40221 95.663 4.91291C98.4094 6.65459 100.599 9.12666 102.695 11.5862C106.861 16.6864 107.888 23.5907 107.425 29.9831C107.206 33.3666 105.329 36.3194 103.652 39.166C99.8859 44.8655 93.1667 47.6746 86.7729 49.3227C83.1068 49.8033 79.3531 49.9844 75.8622 51.3016C78.1832 51.6761 80.5293 51.9508 82.8753 52.1318C87.0357 52.4814 91.121 53.5052 95.0123 54.9909C97.8902 56.2706 100.518 58.081 102.889 60.1411C106.467 63.2623 108.788 67.5135 110.609 71.8334C111.798 74.5489 111.854 77.5579 111.96 80.4732C112.048 84.5433 112.098 88.7009 110.89 92.6337C109.395 97.5841 106.524 102.06 103.039 105.849C98.0966 110.119 92.2533 113.378 85.9409 115.119C82.1746 116.156 78.2333 115.993 74.367 115.987C55.2043 115.925 36.0354 116.037 16.8727 115.937C16.635 111.243 16.635 106.536 16.8602 101.842C36.0291 101.792 55.2043 101.829 74.3795 101.835C77.3887 101.779 80.473 101.629 83.332 100.568C85.8783 99.6254 88.093 97.9898 90.1012 96.1982C90.2576 96.0484 90.5767 95.7488 90.7331 95.5989C91.9968 94.3816 93.2606 93.052 93.8299 91.3477C95.3439 86.9654 95.5441 82.115 94.1802 77.664C92.4848 70.897 86.4163 65.7968 79.6847 64.4422C76.9132 63.8804 74.0792 63.7742 71.2639 63.7867C59.6024 63.8866 47.9409 63.7992 36.2794 63.8242C32.4318 63.793 28.4842 64.5546 25.306 66.8269C24.718 67.1889 24.1549 67.5885 23.6231 68.0254C21.5961 69.6984 19.8131 71.7398 18.7746 74.1681C17.198 77.5766 16.854 81.3783 16.7288 85.0802C16.3973 85.0427 15.7404 84.9741 15.4088 84.9366C10.529 84.4622 5.59285 84.3997 0.713032 84.9491L0.0811589 85.0053C-0.194113 80.9101 0.137465 76.5278 2.54609 73.057C6.11211 67.9006 12.043 64.7606 18.0989 63.5495C22.3344 62.6194 26.6949 62.6506 30.9679 61.9452C28.309 60.7591 25.4061 60.4469 22.5346 60.2534C18.6682 59.4606 15.0334 57.694 11.7302 55.559C6.96295 52.3566 3.54708 47.4312 1.4888 42.1374C0.106184 38.5979 0.0248534 34.74 0.306381 31.0007C5.74925 30.8821 11.2109 30.6698 16.6475 31.1255C16.8977 35.9573 18.1052 40.9763 21.4835 44.6282C23.5731 47.1128 26.7137 48.3738 29.8543 48.8732L30.3861 48.9606C34.3838 49.5786 38.4377 49.3913 42.4667 49.3851C47.6781 49.3601 52.8895 49.3851 58.1072 49.3726C63.2122 49.3601 68.3297 49.5724 73.416 49.048C78.2333 48.6485 83.307 47.0816 86.5102 43.2611C90.5079 38.4044 91.2398 31.4314 89.4381 25.5447C88.0492 20.9064 84.1766 17.3232 79.6346 15.7875C76.7818 14.6326 73.7038 14.1644 70.6383 14.1519C52.7143 14.1519 34.7841 14.1956 16.8602 14.1457C16.635 9.45127 16.635 4.74436 16.8727 0.0499407Z" fill="#141414"/>
</g>
<defs>
<clipPath id="clip0_1090_628">
<rect width="112" height="116" fill="white"/>
</clipPath>
</defs>
</svg>
