<svg width="132" height="132" viewBox="0 0 132 132" fill="none" xmlns="http://www.w3.org/2000/svg">
<g clip-path="url(#clip0_1089_618)">
<path d="M61.0177 0.1474C67.0137 -0.173775 73.0939 -0.0421458 78.9743 1.27677C84.6968 2.44564 90.2458 4.38848 95.4976 6.93945C106.835 12.6442 116.555 21.6134 122.932 32.6176C126.214 38.3355 128.805 44.4905 130.209 50.9482C131.747 56.6188 132.131 62.5421 131.96 68.3969C131.692 72.2405 131.45 76.1156 130.54 79.8723C129.233 85.9115 127.064 91.7584 124.152 97.2052C118.049 108.728 108.418 118.363 96.8704 124.416C93.0124 126.393 89.0177 128.162 84.8204 129.278C82.3878 129.96 79.9684 130.726 77.4595 131.071C74.5746 131.45 71.6975 131.995 68.7784 131.982C65.2675 131.987 61.7356 132.121 58.2511 131.595C55.4556 131.176 52.6364 130.86 49.9039 130.107C44.9467 128.741 40.0683 126.993 35.516 124.579C23.3951 118.234 13.2307 108.094 7.16627 95.7942C5.16233 91.84 3.53708 87.6858 2.40624 83.4C1.37797 79.8039 0.660026 76.113 0.360223 72.3827C-6.65903e-05 68.905 -0.149968 65.3932 0.189283 61.9076C0.389151 59.7963 0.478566 57.6692 0.844115 55.5789C1.48317 51.8275 2.37469 48.1103 3.67909 44.5326C7.68961 32.7492 15.1584 22.1952 24.8546 14.4133C28.5022 11.5596 32.4023 9.01128 36.5417 6.93155C38.7744 5.89168 41.0414 4.92553 43.3346 4.02255C45.5279 3.1696 47.8158 2.61412 50.0775 1.97177C53.6489 0.979294 57.3333 0.468574 61.0177 0.1474ZM62.5614 8.11884C56.7547 8.37157 51.0032 9.61414 45.5857 11.7176C35.7633 15.3874 27.0059 21.8346 20.5233 30.0772C12.4575 40.3705 7.78429 53.4202 8.07094 66.5436C8.06568 68.5733 8.10513 70.6109 8.43123 72.6196C8.92301 76.5132 9.62781 80.4067 10.9243 84.1213C14.3799 94.7832 21.0598 104.35 29.7988 111.347C35.3609 115.799 41.7514 119.219 48.5496 121.356C52.5312 122.702 56.6916 123.473 60.8783 123.823C65.4858 124.271 70.1512 124.115 74.7245 123.389C79.3477 122.72 83.9105 121.533 88.2024 119.677C98.7744 115.299 108.024 107.733 114.288 98.1371C115.753 96.0048 117.012 93.7407 118.12 91.4056C120.155 87.3752 121.57 83.0577 122.627 78.6771C123.929 72.5906 124.271 66.3119 123.771 60.1122C123.44 57.5691 122.937 55.0471 122.451 52.5304C120.805 45.7936 117.999 39.3254 114.08 33.5969C109.602 26.7996 103.54 21.0895 96.6574 16.7774C91.3924 13.4445 85.5489 11.1068 79.5292 9.54833C76.3129 8.73223 73.0019 8.38473 69.7015 8.13463C67.3267 7.94246 64.9362 7.93193 62.5614 8.11884Z" fill="#141414"/>
<path d="M62.038 14.7214C66.6823 14.3791 71.4082 14.516 75.9604 15.5638C78.6297 16.1193 81.3016 16.7248 83.8421 17.7383C89.4594 19.8338 94.7349 22.8771 99.2977 26.7733C107.561 33.7207 113.507 43.3822 115.976 53.8967C117.544 59.6042 117.77 65.617 117.146 71.4797C116.773 74.3361 116.442 77.2187 115.566 79.975C114.088 85.1375 111.811 90.0736 108.857 94.5543C103.939 101.936 97.136 108.099 89.1517 111.99C86.2063 113.493 83.1189 114.715 79.942 115.625C76.6547 116.644 73.2228 117.036 69.8145 117.376C64.7047 117.745 59.5502 117.318 54.5403 116.268C46.848 114.441 39.5659 110.868 33.4279 105.877C27.4897 100.994 22.6481 94.7806 19.416 87.7991C17.441 83.4027 15.9131 78.7772 15.2214 73.9938C14.4903 69.9765 14.514 65.8618 14.7375 61.7971C14.8611 59.3383 15.4502 56.9426 15.9315 54.5391C16.6047 51.043 17.9039 47.7076 19.3319 44.459C20.4391 41.9817 21.825 39.6413 23.3214 37.3826C26.706 32.2096 31.1215 27.7421 36.1182 24.1197C40.9992 20.7263 46.4036 18.0384 52.1419 16.4483C55.3556 15.469 58.7112 15.0978 62.038 14.7214ZM87.0663 41.4789C85.5278 41.7079 84.0656 42.5609 83.2109 43.8798C82.2221 45.2593 81.9907 47.0942 82.4535 48.7106C83.1978 51.0035 85.5357 52.7489 87.9815 52.5541C90.9348 52.541 93.3832 49.7399 93.3411 46.8493C93.2017 43.7587 90.1774 41.0366 87.0663 41.4789ZM100.202 41.4631C98.7244 41.6842 97.3595 42.5161 96.418 43.6665C95.3661 44.9539 95.0715 46.7493 95.4266 48.3499C95.9867 50.7771 98.3588 52.6752 100.87 52.5568C102.901 52.6226 104.784 51.3195 105.733 49.5714C106.809 47.5259 106.432 44.7854 104.755 43.1743C103.555 42.0344 101.88 41.2472 100.202 41.4631ZM28.4364 41.9817C27.1399 42.1397 25.967 43.1874 25.8039 44.509C25.6383 45.791 25.7487 47.0915 25.7356 48.3815C25.7356 60.315 25.7382 72.2484 25.7356 84.1819C25.7513 85.4534 25.6383 86.7355 25.8302 87.9965C26.0327 89.3233 27.2609 90.3684 28.5968 90.3948C30.2352 90.4659 31.8815 90.4685 33.5199 90.3948C34.7034 90.3632 35.8 89.5234 36.1577 88.3967C36.3628 87.7174 36.3496 86.9988 36.3602 86.2985C36.3076 80.4094 36.3759 74.523 36.3181 68.6365C36.3444 67.9152 36.2865 67.1439 36.6284 66.4831C37.1333 65.6749 38.0827 65.2826 38.9795 65.0905C41.9275 64.6376 44.9282 65.1405 47.8868 64.8325C49.3464 64.6771 50.5403 63.4135 50.7454 61.9814C50.8927 60.8862 50.8874 59.77 50.7691 58.6749C50.6324 57.2901 49.5173 56.0791 48.1603 55.8106C46.8112 55.55 45.4279 55.6737 44.063 55.6606C41.4963 55.7132 38.9059 55.4815 36.3628 55.9449C36.3023 54.4101 36.2944 52.8727 36.4154 51.3405C49.7513 51.3326 63.0899 51.3273 76.4259 51.3484C76.9861 51.33 77.5541 51.301 78.0959 51.1404C79.2083 50.8008 80.1366 49.7873 80.2155 48.6C80.3181 47.239 80.3339 45.8621 80.1918 44.5011C79.9946 42.9479 78.4456 41.8527 76.9282 41.9054C62.0301 41.9027 47.1294 41.9106 32.2313 41.9027C30.9663 41.9159 29.6961 41.8159 28.4391 41.9791L28.4364 41.9817ZM64.9545 55.9159C64.3049 56.0712 63.7711 56.4977 63.2241 56.8558C62.4272 56.3845 61.5988 55.8738 60.6442 55.8659C59.2346 55.8212 57.8171 55.7843 56.4128 55.9265C54.848 56.066 53.8171 57.6745 53.8855 59.1619C53.896 68.4628 53.896 77.7663 53.8855 87.0672C53.7776 88.5967 54.8506 90.2316 56.4469 90.3763C57.9144 90.4948 59.395 90.4606 60.8651 90.4027C62.0512 90.3869 63.182 89.6076 63.5922 88.4914C63.8605 87.7017 63.8395 86.8513 63.8526 86.0273C63.8 80.2304 63.8684 74.4308 63.8131 68.6313C63.8447 67.8415 63.7579 66.9254 64.3286 66.2935C65.0387 65.4801 66.1511 65.201 67.1872 65.1352C69.775 65.0115 72.3707 65.2405 74.9585 65.0694C76.5416 64.9694 77.9538 63.7136 78.251 62.1578C78.4298 61.1284 78.4193 60.0675 78.2878 59.0329C78.1143 57.764 77.2622 56.5872 76.0682 56.1002C75.2583 55.7922 74.3746 55.8369 73.5252 55.8238C71.3266 55.8501 69.1281 55.8606 66.9295 55.8238C66.2721 55.8238 65.6067 55.7948 64.9545 55.9159ZM84.9519 55.9159C83.921 56.3029 83.1794 57.327 83.0847 58.4169C82.9585 59.7174 83.0531 61.0258 83.0426 62.3315C83.0426 70.4951 83.0479 78.6614 83.0347 86.825C82.9585 88.2361 83.7211 89.7867 85.1649 90.1631C86.606 90.4764 88.1077 90.4132 89.5699 90.2868C90.706 90.1921 91.7132 89.3654 92.0814 88.294C92.2655 87.7385 92.2839 87.1435 92.2997 86.5644C92.2576 77.3372 92.3049 68.11 92.276 58.8855C92.3207 57.4323 91.3082 55.9607 89.8145 55.7711C88.2076 55.5869 86.5272 55.4973 84.9519 55.9159ZM98.109 55.9028C97.1412 56.2503 96.3549 57.1243 96.1866 58.151C95.9893 59.3567 96.0867 60.5861 96.0788 61.805C96.0919 70.1476 96.0788 78.4929 96.0814 86.8355C96.0446 88.1308 96.6205 89.5655 97.9118 90.0446C99.3661 90.5159 100.939 90.4 102.44 90.3026C103.716 90.2289 104.939 89.326 105.217 88.0518C105.491 86.6907 105.354 85.2955 105.373 83.9186C105.373 75.8419 105.357 67.7625 105.383 59.6858C105.375 58.6143 105.299 57.4033 104.457 56.6267C103.621 55.7053 102.296 55.6474 101.136 55.6316C100.126 55.6369 99.0847 55.5948 98.109 55.9028ZM99.3056 92.3797C100.068 93.3196 100.255 94.5148 100.218 95.6942C100.352 95.6942 100.615 95.6968 100.747 95.6994C100.781 94.9623 100.752 94.2173 100.915 93.4959C101.199 93.1458 101.557 92.8668 101.893 92.5719C101.031 92.4903 100.168 92.4324 99.3056 92.3797ZM104.931 92.4903C104.663 93.2143 104.4 93.9409 104.152 94.6727C103.86 93.9356 103.55 93.2064 103.237 92.4824C103.011 92.4956 102.564 92.5245 102.34 92.5377C102.309 93.5986 102.046 94.7543 102.646 95.7152C102.782 94.9307 102.856 94.1409 102.903 93.3485C103.227 94.1146 103.545 94.8807 103.858 95.652C103.992 95.6547 104.255 95.6573 104.389 95.6599C104.676 94.7859 105.01 93.9277 105.412 93.1011C105.407 93.9909 105.409 94.8807 105.494 95.7705C106.354 94.8517 105.888 93.5065 105.851 92.3903C105.544 92.4245 105.236 92.4587 104.931 92.4903Z" fill="#141414"/>
</g>
<defs>
<clipPath id="clip0_1089_618">
<rect width="132" height="132" fill="white"/>
</clipPath>
</defs>
</svg>
