<svg width="40" height="40" viewBox="0 0 40 40" fill="none" xmlns="http://www.w3.org/2000/svg">
<rect width="40" height="40" fill="#70EE97"/>
<path d="M30.9999 10.9999V15.9998H26.5" stroke="#141414" stroke-width="1.83333"/>
<path d="M9 28.9998V23.9999H13.4999" stroke="#141414" stroke-width="1.83333"/>
<path d="M9 19.9999C9 13.9248 13.9248 9 19.9999 9C24.6638 9 28.6498 11.9026 30.2499 15.9999" stroke="#141414" stroke-width="1.83333"/>
<path d="M30.9999 19.9998C30.9999 26.0748 26.0751 30.9996 20 30.9996C15.3361 30.9996 11.3501 28.0971 9.75 23.9997" stroke="#141414" stroke-width="1.83333"/>
<path d="M19.9999 25.9998C23.3136 25.9998 25.9999 23.3135 25.9999 19.9999C25.9999 16.6861 23.3136 13.9999 19.9999 13.9999C16.6863 13.9999 14 16.6861 14 19.9999C14 23.3135 16.6863 25.9998 19.9999 25.9998Z" stroke="#141414" stroke-width="1.83333"/>
<path d="M25.9999 19.999H14" stroke="#141414" stroke-width="1.83333"/>
<path d="M19.2702 14.0439L17.375 20.0001L19.27 25.9559" stroke="#141414" stroke-width="1.83333"/>
<path d="M20.73 14.0439L22.6252 20.0001L20.7302 25.9559" stroke="#141414" stroke-width="1.83333"/>
</svg>
