<svg width="40" height="40" viewBox="0 0 40 40" fill="none" xmlns="http://www.w3.org/2000/svg">
<rect width="40" height="40" fill="#70EE97"/>
<path d="M9 17.4364V18.3486C9 19.0533 9.61208 19.6247 10.3671 19.6247H13.8826C14.6376 19.6247 15.2497 19.0539 15.2497 18.3492L15.2497 16.632C15.2497 16.0649 14.8487 15.566 14.2654 15.4072L9.98434 14.2418C9.40103 14.083 9.00001 13.584 9 13.0169V12.1509C8.99999 11.4462 9.61208 10.875 10.3671 10.875H13.8826C14.6376 10.875 15.2497 11.4463 15.2497 12.151V13.0636" stroke="#141414" stroke-width="2"/>
<path d="M12.125 10.8748V7.99988" stroke="#141414" stroke-width="2"/>
<path d="M12.125 22.499V19.6241" stroke="#141414" stroke-width="2"/>
<path d="M22.5664 19.2499L26.5664 24.7499L30.5664 19.2499" stroke="#141414" stroke-width="2"/>
<path d="M26.5664 24.7498V31.7498" stroke="#141414" stroke-width="2"/>
<path d="M23.5664 27.75H29.5664" stroke="#141414" stroke-width="2"/>
<path d="M27.612 10.875V14.9206H23.5664" stroke="#141414" stroke-width="2"/>
<path d="M12.125 28.9382V24.8925H16.1706" stroke="#141414" stroke-width="2"/>
<path d="M21.7836 28.7686C21.1397 28.9111 20.4704 28.9863 19.7836 28.9863C16.5899 28.9863 13.7759 27.361 12.1235 24.8925" stroke="#141414" stroke-width="2"/>
<path d="M17.7837 10.7818C18.4276 10.6393 19.0969 10.5641 19.7837 10.5641C23.0881 10.5641 25.9861 12.3041 27.6114 14.9178" stroke="#141414" stroke-width="2"/>
</svg>
