<svg width="40" height="40" viewBox="0 0 40 40" fill="none" xmlns="http://www.w3.org/2000/svg">
<rect width="40" height="40" fill="#70EE97"/>
<g clip-path="url(#clip0_1060_4158)">
<path d="M9 32.0999H20.55L31 28.7999V28.3686C31 26.7842 29.7156 25.4999 28.1313 25.4999C27.8454 25.4999 27.5611 25.5427 27.2877 25.6267L20.7397 27.6415C20.6139 27.6802 20.4831 27.6999 20.3516 27.6999H15.05" stroke="#141414" stroke-width="2"/>
<path d="M20.5502 27.6997V24.3997L13.6304 23.3351C11.6296 23.0273 9.8252 24.5754 9.8252 26.5997" stroke="#141414" stroke-width="2"/>
<path d="M26.6001 10.6498V7.89978" stroke="#141414" stroke-width="2"/>
<path d="M26.6001 21.0997V18.3497" stroke="#141414" stroke-width="2"/>
<path d="M29.3501 12.2998V11.7498C29.3501 11.1423 28.8576 10.6498 28.2501 10.6498H24.9501C24.3426 10.6498 23.8501 11.1423 23.8501 11.7498V12.773C23.8501 13.2973 24.2202 13.7488 24.7344 13.8516L28.4658 14.5979C28.9799 14.7008 29.3501 15.1522 29.3501 15.6766V17.2498C29.3501 17.8573 28.8576 18.3498 28.2501 18.3498H24.9501C24.3426 18.3498 23.8501 17.8573 23.8501 17.2498V16.6998" stroke="#141414" stroke-width="2"/>
</g>
<defs>
<clipPath id="clip0_1060_4158">
<rect width="28" height="28" fill="white" transform="translate(6 5.99988)"/>
</clipPath>
</defs>
</svg>
