<svg width="192" height="50" viewBox="0 0 192 50" fill="none" xmlns="http://www.w3.org/2000/svg">
<g clip-path="url(#clip0_1003_15641)">
<path d="M73.7862 11.466H80.81V39.8331H73.7983L73.7862 11.466ZM73.3163 4.03305C73.3163 2.96415 73.7335 1.93636 74.4788 1.1799C75.2241 0.42345 76.2327 0 77.29 0C78.3472 0 79.3558 0.42345 80.1011 1.1799C80.8464 1.93636 81.2636 2.96004 81.2636 4.03305C81.2636 5.10607 80.8464 6.12975 80.1011 6.8862C79.3558 7.64266 78.3472 8.06611 77.29 8.06611C76.2327 8.06611 75.2241 7.64266 74.4788 6.8862C73.7335 6.12975 73.3163 5.10607 73.3163 4.03305ZM185.292 23.4871C184.972 21.9207 184.133 20.5188 182.914 19.5075C181.695 18.4961 180.168 17.9493 178.592 17.9493C177.017 17.9493 175.493 18.5002 174.27 19.5075C173.047 20.5147 172.208 21.9207 171.892 23.4871H185.292ZM164.634 25.6455C164.634 17.6369 171.022 11.1495 178.604 11.1495C186.187 11.1495 192 17.0038 192 25.6455C191.971 26.5828 191.866 27.5201 191.688 28.441H172.217C172.84 31.1832 174.987 33.3292 178.604 33.3292C181.877 33.3292 183.178 31.804 183.178 31.804H190.76C189.355 35.504 184.992 40.1291 178.608 40.1291C171.022 40.1414 164.634 33.6581 164.634 25.6455ZM152.482 0.978458H159.493V39.8249H152.482V0.978458ZM140.33 25.6455C140.33 21.0081 137.316 17.9493 133.367 17.9493C129.418 17.9493 126.355 20.9957 126.355 25.6455C126.355 30.2952 129.422 33.3292 133.367 33.3292C137.312 33.3292 140.33 30.287 140.33 25.6455ZM119.967 11.466H126.355V14.2082C128.539 12.2554 131.342 11.17 134.25 11.1495C141.262 11.1495 147.338 17.3162 147.338 25.6455C147.338 33.9747 141.262 40.1414 134.25 40.1414C131.572 40.1455 128.984 39.1547 126.979 37.3499V50H119.967V11.466ZM107.816 25.6455C107.816 21.0081 104.802 17.9493 100.857 17.9493C96.9112 17.9493 93.8449 20.9957 93.8449 25.6455C93.8449 30.2952 96.9072 33.3292 100.861 33.3292C104.814 33.3292 107.816 30.287 107.816 25.6455ZM87.457 11.466H93.8449V14.2082C96.0241 12.2554 98.8312 11.1659 101.74 11.1495C108.751 11.1495 114.827 17.3162 114.827 25.6455C114.827 33.9747 108.751 40.1414 101.74 40.1414C99.0621 40.1496 96.4738 39.1547 94.4687 37.3499V50H87.457V11.466ZM53.1279 11.466H59.5158V14.5247C60.3664 13.4723 61.4358 12.6254 62.651 12.0416C63.8621 11.4578 65.1867 11.1536 66.5274 11.1495C67.4388 11.1166 68.3462 11.2235 69.2251 11.466V18.8661C69.2251 18.8661 68.3421 18.5496 66.2155 18.5496C62.57 18.5496 60.1396 21.0163 60.1396 24.7163V39.8249H53.1279V11.466Z" fill="#141414"/>
<path d="M31.3276 47.891C36.4921 47.891 40.5063 43.6524 40.5063 38.7395C40.5063 33.4813 36.7433 29.6004 31.3276 29.2756C28.7838 29.1235 27.2689 27.7545 27.2689 25.6084C27.2689 23.4624 28.7838 22.0934 31.3276 21.9413C36.7433 21.6165 40.5063 17.7356 40.5063 12.4774C40.5063 7.56454 36.4921 3.32593 31.3276 3.32593C26.163 3.32593 22.1691 7.6221 22.1691 12.4774C22.1691 14.0067 22.5539 15.6265 23.3762 17.2957C23.8137 18.1796 24.0162 18.9977 24.0162 19.7295C24.0162 21.9207 22.0921 23.1993 20.5246 23.1993C19.2608 23.1993 18.0739 22.4141 17.1261 20.9546C15.1494 17.9123 12.3909 16.2967 9.17063 16.2967C4.10329 16.3049 0 20.4736 0 25.6084C0 30.7433 4.10329 34.912 9.16658 34.912C12.3868 34.912 15.1453 33.2963 17.122 30.2541C18.0699 28.7946 19.2567 28.0094 20.5205 28.0094C22.0881 28.0094 24.0121 29.2921 24.0121 31.4792C24.0121 32.211 23.8096 33.0332 23.3722 33.913C22.5458 35.5821 22.1651 37.2019 22.1651 38.7313C22.1651 43.5537 26.0901 47.8827 31.3235 47.8827L31.3276 47.891Z" fill="#141414"/>
</g>
<defs>
<clipPath id="clip0_1003_15641">
<rect width="192" height="50" fill="white"/>
</clipPath>
</defs>
</svg>
