<svg width="40" height="40" viewBox="0 0 40 40" fill="none" xmlns="http://www.w3.org/2000/svg">
<rect width="40" height="40" fill="#70EE97"/>
<path d="M21.3115 11.7357V18.782H31.0001V11.7357H21.3115Z" stroke="#141414" stroke-width="2"/>
<path d="M28.3575 11.7352V10.7443C28.3575 9.5282 27.3717 8.54236 26.1556 8.54236C24.9395 8.54236 23.9536 9.5282 23.9536 10.7443V11.7352" stroke="#141414" stroke-width="2"/>
<path d="M16.7016 11.1973H10.0645V16.1516" stroke="#141414" stroke-width="2"/>
<path d="M13.4219 7.91736L16.7018 11.1973L13.4219 14.4773" stroke="#141414" stroke-width="2"/>
<path d="M26.8507 31.5247L23.5708 28.2448L26.8507 24.9648" stroke="#141414" stroke-width="2"/>
<path d="M8.99072 23.3774V30.4237H18.6793V23.3774H8.99072Z" stroke="#141414" stroke-width="2"/>
<path d="M16.0372 23.3771V22.3863C16.0372 21.1701 15.0513 20.1843 13.8352 20.1843C12.6191 20.1843 11.6333 21.1701 11.6333 22.3863V23.3771" stroke="#141414" stroke-width="2"/>
<path d="M23.2681 28.2448H29.9052V23.2904" stroke="#141414" stroke-width="2"/>
</svg>
