<svg width="35" height="35" viewBox="0 0 35 35" fill="none" xmlns="http://www.w3.org/2000/svg">
<path fill-rule="evenodd" clip-rule="evenodd" d="M18.3058 2.15741L19.0599 2.21041L19.8139 2.3186L20.5679 2.4268L21.3219 2.64322L22.0759 2.80441L22.777 3.07382L23.4759 3.34322L24.1219 3.66782L24.823 3.99022L25.469 4.36782L26.0598 4.74542L26.6529 5.17823L27.246 5.66183L27.784 6.14762L28.3219 6.63343L28.8599 7.17224L29.3449 7.71104L29.777 8.30505L30.2069 8.89904L30.6368 9.54606L30.9609 10.1931L31.338 10.8401L31.6069 11.5401L31.9288 12.2423L32.1449 12.9423L32.361 13.6445L32.5219 14.3997L32.6828 15.1549L32.738 15.9101L32.846 16.7183V17.5265V18.2817L32.738 19.0921L32.6828 19.8473L32.5219 20.6025L32.361 21.3555L32.1449 22.0577L31.9288 22.7577L31.6069 23.4599L31.338 24.1599L30.9609 24.8091L30.6368 25.4562L30.2069 26.1032L29.777 26.695L29.3449 27.289L28.8599 27.8278L28.3219 28.3666L27.784 28.8524L27.246 29.3382L26.6529 29.824L26.0598 30.2546L25.469 30.6322L24.823 31.0098L24.1219 31.3344L23.4759 31.6568L22.777 31.9262L22.0759 32.1956L21.3219 32.359L20.5679 32.5732L19.8139 32.6814L19.0599 32.7896L18.3058 32.8448H16.692L15.938 32.7896L15.1839 32.6814L14.4299 32.5732L13.6759 32.359L12.9219 32.1956L12.223 31.9262L11.5219 31.6568L10.8759 31.3344L10.177 31.0098L9.53102 30.6322L8.93798 30.2546L8.3449 29.824L7.75404 29.3382L7.21386 28.8524L6.67591 28.3666L6.13796 27.8278L5.65291 27.289L5.22299 26.695L4.79089 26.1032L4.36097 25.4562L4.03687 24.8091L3.65985 24.1599L3.39088 23.4599L3.069 22.7577L2.85293 22.0577L2.63686 21.3555L2.47591 20.6025L2.31497 19.8473L2.25985 19.0921L2.15403 18.2817V17.5265V16.7183L2.25985 15.9101L2.31497 15.1549L2.47591 14.3997L2.63686 13.6445L2.85293 12.9423L3.069 12.2423L3.39088 11.5401L3.65985 10.8401L4.03687 10.1931L4.36097 9.54606L4.79089 8.89904L5.22299 8.30505L5.65291 7.71104L6.13796 7.17224L6.67591 6.63343L7.21386 6.14762L7.75404 5.66183L8.3449 5.17823L8.93798 4.74542L9.53102 4.36782L10.177 3.99022L10.8759 3.66782L11.5219 3.34322L12.223 3.07382L12.9219 2.80441L13.6759 2.64322L14.4299 2.4268L15.1839 2.3186L15.938 2.21041L16.692 2.15741H18.3058ZM16.5839 0L15.7219 0.0529848L14.8599 0.161191L14 0.3224L13.138 0.538793L12.2759 0.755204L11.469 1.0246L10.715 1.347L9.90585 1.7246L9.15401 2.1022L8.45293 2.53501L7.69891 2.96562L7.05292 3.45142L6.35403 3.99022L5.76095 4.52901L5.11496 5.12302L4.57701 5.71704L3.98396 6.36403L3.49891 7.01103L3.01387 7.71104L2.53104 8.41324L2.0989 9.16846L1.72189 9.92366L1.40001 10.6789L1.07591 11.4871L0.806929 12.2953L0.537953 13.1057L0.377011 13.9669L0.213883 14.8303L0.105848 15.6937L0.0529417 16.6101L0 17.5265L0.0529417 18.3899L0.105848 19.3063L0.213883 20.1697L0.377011 21.0331L0.537953 21.8965L0.806929 22.7047L1.07591 23.5129L1.40001 24.3234L1.72189 25.0786L2.0989 25.8338L2.53104 26.5867L3.01387 27.289L3.49891 27.989L3.98396 28.6382L4.57701 29.2852L5.11496 29.877L5.76095 30.471L6.35403 31.0098L7.05292 31.5486L7.69891 32.0344L8.45293 32.4672L9.15401 32.8978L9.90585 33.2754L10.715 33.653L11.469 33.9754L12.2759 34.247L13.138 34.4612L14 34.6776L14.8599 34.8388L15.7219 34.947L16.5839 35H18.4139L19.2759 34.947L20.1379 34.8388L21 34.6776L21.8598 34.4612L22.7219 34.247L23.5288 33.9754L24.2829 33.653L25.092 33.2754L25.846 32.8978L26.5449 32.4672L27.2989 32.0344L27.9449 31.5486L28.646 31.0098L29.2369 30.471L29.8829 29.877L30.423 29.2852L31.0139 28.6382L31.4989 27.989L31.9839 27.289L32.469 26.5867L32.8989 25.8338L33.2759 25.0786L33.6 24.3234L33.9219 23.5129L34.1909 22.7047L34.4599 21.8965L34.623 21.0331L34.7839 20.1697L34.892 19.3063L34.9449 18.3899L35 17.5265L34.9449 16.6101L34.892 15.6937L34.7839 14.8303L34.623 13.9669L34.4599 13.1057L34.1909 12.2953L33.9219 11.4871L33.6 10.6789L33.2759 9.92366L32.8989 9.16846L32.469 8.41324L31.9839 7.71104L31.4989 7.01103L31.0139 6.36403L30.423 5.71704L29.8829 5.12302L29.2369 4.52901L28.646 3.99022L27.9449 3.45142L27.2989 2.96562L26.5449 2.53501L25.846 2.1022L25.092 1.7246L24.2829 1.347L23.5288 1.0246L22.7219 0.755204L21.8598 0.538793L21 0.3224L20.1379 0.161191L19.2759 0.0529848L18.4139 0H16.5839Z" fill="url(#paint0_linear_1_171)"/>
<path fill-rule="evenodd" clip-rule="evenodd" d="M17.4989 6.14747L17.6599 6.20268L17.823 6.25568L18.092 6.41689L18.3058 6.68629L18.361 6.84969V7.01088V17.1487L23.207 21.9494L23.315 22.1106L23.3679 22.274L23.423 22.5964L23.3679 22.921L23.315 23.0822L23.207 23.1904L23.046 23.2986L22.8829 23.4068L22.561 23.4598L22.2369 23.4068L22.0759 23.2986L21.9679 23.1904L16.9058 18.1204L16.7449 17.798L16.6369 17.5263V7.01088V6.84969L16.692 6.68629L16.9058 6.41689L17.177 6.25568L17.338 6.20268L17.4989 6.14747ZM16.961 3.23486L16.154 3.29007L15.3449 3.39827L14.538 3.50426L13.784 3.72067L13.0299 3.93706L12.2759 4.20648L11.5219 4.52886L10.823 4.85348L11.2529 5.55348L11.3058 5.76987V5.98628L11.2 6.20268L11.0369 6.30868L10.931 6.36389H10.6599L10.4989 6.30868L10.3909 6.25568L10.338 6.09449L9.90586 5.39227L9.25987 5.87808L8.61388 6.36389L8.02303 6.84969L7.42994 7.38849L6.89199 7.9825L6.35404 8.5743L5.86899 9.2213L5.43689 9.92351L6.13797 10.3011L6.29891 10.4623L6.40695 10.6235V10.8399L6.35404 11.0563L6.246 11.1623L6.13797 11.2705L5.97703 11.3257H5.70587L5.60002 11.2705L4.89894 10.8399L4.52192 11.5399L4.25295 12.2421L3.98397 12.9973L3.715 13.7525L3.55405 14.5607L3.39089 15.3159L3.28286 16.1241L3.22995 16.9876H4.68287L4.89894 17.0958L5.00694 17.3121V17.5263V17.6898L4.89894 17.9039L4.68287 18.0122L4.46898 18.0674H3.22995L3.28286 18.8756L3.39089 19.6838L3.55405 20.439L3.715 21.2494L3.98397 22.0046L4.25295 22.7576L4.52192 23.4598L4.89894 24.1598L5.60002 23.7822L5.81386 23.6762L6.02993 23.7292L6.19088 23.7822L6.35404 23.9456L6.40695 24.1598V24.3762L6.29891 24.5374L6.13797 24.7008L5.43689 25.0784L5.86899 25.7784L6.35404 26.4254L6.89199 27.0194L7.42994 27.6134L8.02303 28.1522L8.61388 28.638L9.25987 29.1216L9.90586 29.6074L10.338 28.9074L10.446 28.744L10.6599 28.638H10.8759L11.0369 28.691L11.2 28.8522L11.3058 29.0156V29.2298L11.2529 29.4462L10.823 30.1462L11.5219 30.4708L12.2759 30.7932L13.0299 31.0648L13.784 31.279L14.538 31.4954L15.3449 31.6036L16.154 31.7118L16.961 31.7648V30.5238L17.0139 30.3096L17.1219 30.1462L17.2829 30.0402L17.4989 29.985L17.715 30.0402L17.8759 30.1462L17.984 30.3096L18.0369 30.5238V31.7648L18.846 31.7118L19.653 31.6036L20.4599 31.4954L21.2139 31.279L21.9679 31.0648L22.7219 30.7932L23.4759 30.4708L24.177 30.1462L23.7449 29.4462L23.692 29.2298V29.0156L23.8 28.8522L23.961 28.691L24.1219 28.638H24.338L24.554 28.744L24.6599 28.9074L25.092 29.6074L25.738 29.1216L26.384 28.638L26.977 28.1522L27.5679 27.6134L28.1058 27.0194L28.646 26.4254L29.1288 25.7784L29.561 25.0784L28.8599 24.7008L28.6989 24.5374L28.5909 24.3762V24.1598L28.646 23.9456L28.807 23.7822L28.9679 23.7292L29.184 23.6762L29.4 23.7822L30.0989 24.1598L30.4759 23.4598L30.7449 22.7576L31.0139 22.0046L31.2828 21.2494L31.446 20.439L31.6069 19.6838L31.715 18.8756L31.7679 18.0674H30.5289L30.315 18.0122L30.0989 17.9039L29.9909 17.6898V17.5263V17.3121L30.0989 17.0958L30.315 16.9876H31.7679L31.715 16.1241L31.6069 15.3159L31.446 14.5607L31.2828 13.7525L31.0139 12.9973L30.7449 12.2421L30.4759 11.5399L30.0989 10.8399L29.4 11.2705L29.292 11.3257H29.023L28.8599 11.2705L28.754 11.1623L28.646 11.0563L28.5909 10.8399V10.6235L28.6989 10.4623L28.8599 10.3011L29.561 9.92351L29.1288 9.2213L28.646 8.5743L28.1058 7.9825L27.5679 7.38849L26.977 6.84969L26.384 6.36389L25.738 5.87808L25.092 5.39227L24.6599 6.09449L24.607 6.25568L24.4989 6.30868L24.338 6.36389H24.069L23.961 6.30868L23.8 6.20268L23.692 5.98628V5.76987L23.7449 5.55348L24.177 4.85348L23.4759 4.52886L22.7219 4.20648L21.9679 3.93706L21.2139 3.72067L20.4599 3.50426L19.653 3.39827L18.846 3.29007L18.0369 3.23486V4.47588L17.984 4.69227L17.8759 4.85348L17.715 4.96168L17.4989 5.01467L17.2829 4.96168L17.1219 4.85348L17.0139 4.69227L16.961 4.47588V3.23486Z" fill="url(#paint1_linear_1_171)"/>
<defs>
<linearGradient id="paint0_linear_1_171" x1="17.5" y1="0" x2="17.5" y2="35" gradientUnits="userSpaceOnUse">
<stop stop-color="#F5F5F7"/>
<stop offset="1" stop-color="#C1C1C2"/>
</linearGradient>
<linearGradient id="paint1_linear_1_171" x1="17.4989" y1="3.23486" x2="17.4989" y2="31.7648" gradientUnits="userSpaceOnUse">
<stop stop-color="#F5F5F7"/>
<stop offset="1" stop-color="#C1C1C2"/>
</linearGradient>
</defs>
</svg>
