<svg width="31" height="35" viewBox="0 0 31 35" fill="none" xmlns="http://www.w3.org/2000/svg">
<path fill-rule="evenodd" clip-rule="evenodd" d="M31 35L15.5 0L0 35H31ZM14.8749 14.0217C15.0862 14.0071 15.2974 14 15.5082 14C17.274 14 19.0118 14.5006 20.5813 15.34C20.7781 15.4309 20.8343 15.7491 20.7219 15.9309C20.6573 16.0703 20.5259 16.1443 20.3876 16.1443C20.3154 16.1443 20.2412 16.1241 20.1738 16.0825C19.1758 15.537 18.0795 15.143 16.9551 14.946C16.489 14.8735 16.0215 14.838 15.5557 14.838C14.5608 14.838 13.5738 15.0001 12.626 15.3097C12.387 15.3855 12.1341 15.4764 11.9092 15.5673C11.853 15.5976 11.8249 15.6127 11.7827 15.6279C11.7827 15.6279 11.7381 15.6599 11.7354 15.6599C11.7345 15.6599 11.7379 15.6567 11.7483 15.6481L11.7301 15.6569C11.6972 15.6726 11.65 15.6952 11.6422 15.7036C11.5794 15.7488 11.5244 15.7771 11.4657 15.8073C11.4455 15.8177 11.4248 15.8284 11.4032 15.84L11.39 15.8466C11.213 15.9346 11.0621 16.0096 10.9113 16.1279C10.8539 16.166 10.7883 16.1832 10.7226 16.1832C10.5789 16.1832 10.435 16.1012 10.3772 15.9765C10.2507 15.7643 10.349 15.5218 10.5177 15.3855C10.7286 15.2339 10.9534 15.1127 11.1924 15.0066C12.3449 14.4308 13.5959 14.1126 14.8749 14.0217ZM21.3041 23.4702C21.3029 23.4702 21.3174 23.4979 21.3263 23.5075C21.3107 23.4796 21.3048 23.4702 21.3041 23.4702ZM18.0894 25.6191C18.0708 25.571 18.0728 25.5119 18.0747 25.4539C18.0765 25.4025 18.0782 25.3519 18.0655 25.3107C18.0655 25.2174 18.0548 25.1241 18.0433 25.0238C18.0362 24.9612 18.0287 24.8957 18.0233 24.8258C17.7785 23.535 16.621 22.7949 15.4796 22.7949C14.7853 22.7949 14.0971 23.0687 13.6239 23.659C12.6823 24.8258 12.9493 26.5533 13.4553 27.8867C14.0316 29.4172 15.1419 30.6295 16.5053 31.3719C16.9551 31.6144 17.4189 31.7962 17.8968 31.9781C17.9411 31.9931 17.9831 32 18.0226 32C18.421 32 18.5552 31.2963 18.1076 31.1447C17.2643 30.8416 16.4069 30.4022 15.7322 29.796C15.17 29.296 14.7906 28.7656 14.4392 28.114L14.2283 27.6595L14.2002 27.614C14.1861 27.5837 14.1721 27.5382 14.1721 27.523C14.1301 27.4476 14.116 27.372 14.1019 27.2965L14.1018 27.2958C14.0175 27.023 13.9472 26.7502 13.891 26.4624C13.8835 26.3891 13.8719 26.3245 13.8606 26.2617C13.8508 26.2076 13.8413 26.1547 13.8348 26.0986C13.8348 26.0684 13.8348 26.0381 13.8207 26.0229C13.8207 25.9926 13.8172 25.9661 13.8137 25.9395C13.8102 25.913 13.8067 25.8865 13.8067 25.8563C13.7504 25.3865 13.8207 24.9015 14.0456 24.4925C14.375 23.9039 14.9186 23.6416 15.4824 23.6416C15.7606 23.6416 16.0438 23.7055 16.3086 23.8257C16.6177 23.9621 16.8989 24.1894 17.0675 24.4925C17.231 24.7744 17.2593 25.0747 17.2899 25.4002C17.2988 25.4945 17.3079 25.5909 17.3205 25.6896C17.3261 25.7316 17.3273 25.7451 17.3266 25.7451C17.3256 25.7451 17.3205 25.7139 17.3205 25.7047C17.3205 25.735 17.324 25.7577 17.3275 25.7804L17.3275 25.7805C17.331 25.8032 17.3345 25.8259 17.3345 25.8563C17.3413 25.8851 17.3448 25.9174 17.3481 25.9483C17.3518 25.9822 17.3553 26.0143 17.3627 26.0381C17.3932 26.1368 17.4311 26.2436 17.4657 26.3409L17.4658 26.3411C17.479 26.3781 17.4916 26.4138 17.5032 26.4472C17.5594 26.5684 17.6438 26.72 17.7422 26.8412C18.0655 27.311 18.5292 27.6595 19.0774 27.8262C19.3261 27.9062 19.5904 27.946 19.8568 27.946C20.599 27.946 21.3565 27.6363 21.8322 27.023C22.6194 26.0077 22.535 24.5076 22.1696 23.2953C21.9166 22.5074 21.495 21.7497 21.0171 21.0982C20.497 20.3557 19.8224 19.7344 19.0494 19.2949C17.9576 18.6732 16.7438 18.3463 15.5302 18.3463C14.525 18.3463 13.5199 18.5705 12.5838 19.0373C11.1643 19.7344 9.94147 20.9315 9.32299 22.5074C8.84512 23.7196 8.70461 25.0531 8.83109 26.3866C8.90138 27.1745 9.04189 27.9776 9.28083 28.7353C9.30897 28.7656 9.32299 28.811 9.32299 28.8414C9.39243 29.0284 9.52841 29.1642 9.6997 29.1642C9.73665 29.1642 9.77512 29.1579 9.81498 29.1444C9.92735 29.1293 10.0961 28.8717 10.0118 28.6444C9.81498 28.1292 9.71655 27.5988 9.61821 27.0534L9.57605 26.6896C9.57605 26.6442 9.57605 26.6291 9.5479 26.5987C9.5479 26.5608 9.5444 26.5229 9.54089 26.485C9.53738 26.4472 9.53388 26.4093 9.53388 26.3715C9.50576 26.0835 9.50576 25.7956 9.50576 25.4925C9.50576 25.1895 9.51976 24.8713 9.5479 24.5682C9.5479 24.5269 9.5479 24.4982 9.56894 24.4592L9.56891 24.4594L9.56889 24.4594L9.56886 24.4596C9.56574 24.4757 9.56297 24.4901 9.56363 24.4901C9.56424 24.4901 9.56758 24.4787 9.57605 24.447C9.5734 24.4511 9.57109 24.4552 9.56894 24.4592L9.56943 24.4566C9.57264 24.4398 9.57605 24.4219 9.57605 24.4167C9.58306 24.3788 9.58656 24.3409 9.59007 24.303C9.59358 24.2652 9.59708 24.2273 9.6041 24.1894L9.61015 24.1534C9.6364 23.9968 9.66438 23.83 9.71655 23.6893C9.8852 23.0074 10.0961 22.462 10.4896 21.871C10.6583 21.6134 10.8691 21.3406 11.1221 21.0982C11.4033 20.8102 11.6844 20.5677 12.0076 20.3405C12.8369 19.7798 13.7927 19.3707 14.7765 19.2797C14.9865 19.2589 15.1965 19.2486 15.406 19.2486C16.2619 19.2486 17.1091 19.4208 17.9108 19.7495C18.698 20.0829 19.4288 20.5677 20.0051 21.2345C20.3143 21.5679 20.5673 21.977 20.7922 22.3862C20.9186 22.6134 21.0452 22.8559 21.1435 23.1135C21.1617 23.1526 21.1813 23.1933 21.2014 23.235L21.2015 23.2352L21.2015 23.2352L21.2015 23.2353L21.2016 23.2354C21.2438 23.323 21.2882 23.4152 21.3263 23.5075C21.3662 23.6043 21.392 23.6935 21.4186 23.786L21.4187 23.7862C21.4296 23.8238 21.4406 23.862 21.4528 23.9015C21.4669 23.9621 21.4774 24.0189 21.488 24.0757L21.488 24.0758L21.488 24.0759L21.488 24.0759L21.488 24.0759L21.488 24.0759C21.4985 24.1327 21.509 24.1894 21.5231 24.25C21.5308 24.2749 21.5343 24.3091 21.5382 24.3473L21.5382 24.3474C21.5413 24.3788 21.5448 24.4129 21.5511 24.447C21.5511 24.4697 21.5547 24.4887 21.5582 24.5076C21.5617 24.5266 21.5653 24.5455 21.5653 24.5682C21.5637 24.5545 21.5624 24.5447 21.5615 24.5381C21.5604 24.5301 21.5597 24.5268 21.5594 24.5268C21.5581 24.5268 21.5607 24.5685 21.5629 24.6024L21.5645 24.6276C21.5649 24.6357 21.5653 24.6417 21.5653 24.6439C21.5933 24.7955 21.5933 24.947 21.5933 25.1137V25.3562V25.4925V25.5683C21.5371 25.9472 21.4668 26.1593 21.256 26.4624L21.2139 26.5229L21.1295 26.6139C21.0964 26.6495 21.0634 26.6799 21.036 26.7051L21.036 26.7051C21.0169 26.7227 21.0005 26.7378 20.9889 26.7502C20.8063 26.9018 20.5954 26.9927 20.3846 27.0534C20.2116 27.1116 20.0262 27.1408 19.8386 27.1408C19.5385 27.1408 19.2331 27.0662 18.9649 26.9169C18.6277 26.72 18.3887 26.4624 18.206 26.0986C18.1965 26.0732 18.1887 26.0529 18.1808 26.0325C18.1653 25.9923 18.1496 25.9519 18.1216 25.8714C18.1076 25.8108 18.0936 25.735 18.0936 25.6896C18.0747 25.6387 18.0495 25.5537 18.0562 25.5537C18.0593 25.5537 18.0691 25.5716 18.0894 25.6191ZM18.0936 25.6289L18.0894 25.6191C18.0907 25.6224 18.0921 25.6257 18.0936 25.6289ZM15.4378 16.1996C14.6114 16.1996 13.7679 16.2971 12.9774 16.5371C11.6702 16.9311 10.4755 17.6736 9.46354 18.6131C8.95752 19.1132 8.43748 19.6586 8.07206 20.2799C7.86758 20.6159 8.13534 20.93 8.41268 20.93C8.53557 20.93 8.66033 20.8683 8.74671 20.7194C8.76065 20.6892 8.77467 20.6741 8.81623 20.6293L8.81624 20.6293L8.81701 20.6285C8.84507 20.5981 8.87319 20.5527 8.88722 20.5223C8.90509 20.4968 8.91596 20.4799 8.92203 20.4698L8.92273 20.469L8.92274 20.469C8.93662 20.454 8.95054 20.4389 8.95752 20.4163C9.18244 20.1132 9.44942 19.8102 9.7165 19.5374C10.1101 19.1132 10.4615 18.8101 10.9253 18.4918C11.4734 18.113 12.0497 17.7948 12.6401 17.5676C13.3428 17.2947 14.0877 17.128 14.8467 17.0675C15.0084 17.0599 15.1735 17.0561 15.3386 17.0561C15.5038 17.0561 15.669 17.0599 15.8306 17.0675C15.9062 17.0675 15.9852 17.0711 16.0659 17.0748H16.0659C16.1502 17.0786 16.2364 17.0826 16.3225 17.0826C16.3767 17.0826 16.4368 17.0951 16.4989 17.1081L16.4989 17.1081C16.5334 17.1153 16.5685 17.1226 16.6036 17.128C16.6232 17.128 16.6458 17.1313 16.67 17.1348L16.6701 17.1348C16.698 17.1389 16.7282 17.1433 16.7582 17.1433C16.779 17.1464 16.7872 17.1476 16.7883 17.1476C16.7896 17.1476 16.7773 17.1454 16.7651 17.1432C16.753 17.141 16.7409 17.1388 16.7423 17.1388C16.7433 17.1388 16.7515 17.14 16.7723 17.1433C16.8144 17.1433 16.8426 17.1433 16.8566 17.1584C17.3907 17.2645 17.9108 17.3856 18.4308 17.5827C19.9348 18.1433 21.2841 19.3101 22.2539 20.7194C22.3388 20.8516 22.468 20.936 22.6033 20.936C22.6696 20.936 22.7373 20.9157 22.8021 20.8709C22.9707 20.7648 23.0691 20.4769 22.9426 20.2799C21.9868 18.8707 20.7499 17.7039 19.246 17.0069C18.2481 16.5371 17.1799 16.2643 16.0836 16.2189C15.8704 16.2063 15.6547 16.1996 15.4378 16.1996ZM8.92203 20.4698C8.91056 20.482 8.8992 20.4944 8.89167 20.5108C8.90296 20.4855 8.92485 20.4569 8.92777 20.4569C8.92878 20.4569 8.92732 20.4606 8.92203 20.4698ZM16.1539 26.7351C16.1539 26.7401 16.1569 26.745 16.1609 26.7499L16.1539 26.7351ZM15.0717 25.3713C15.0788 25.0871 15.2845 24.947 15.4858 24.947C15.6814 24.947 15.8728 25.0795 15.8728 25.3411V25.6896C15.8728 25.6928 15.8741 25.7016 15.8758 25.7124L15.8765 25.7112L15.8774 25.7103L15.878 25.7101C15.8862 25.7101 15.9009 25.7846 15.9009 25.7956C15.929 25.9774 15.9712 26.1441 16.0133 26.3108C16.0344 26.3563 16.0485 26.4055 16.0626 26.4548L16.0626 26.4549C16.0766 26.5041 16.0907 26.5533 16.1118 26.5987C16.1188 26.6292 16.1258 26.652 16.1329 26.6748C16.1399 26.6974 16.1469 26.7201 16.1539 26.7502C16.1583 26.7526 16.1623 26.7561 16.1658 26.7599L16.1609 26.7499C16.1626 26.752 16.1645 26.7541 16.1664 26.7561L16.1681 26.758C16.1751 26.7655 16.1821 26.773 16.1821 26.7806C16.2664 26.9927 16.3507 27.1897 16.4632 27.3716C16.4982 27.417 16.5263 27.4699 16.5544 27.5229C16.5825 27.576 16.6106 27.6291 16.6458 27.6746C16.6458 27.6822 16.6739 27.7201 16.695 27.7485L16.6951 27.7486L16.6951 27.7486L16.6951 27.7486L16.6952 27.7488C16.7086 27.7668 16.7191 27.781 16.7177 27.781C16.7168 27.781 16.7122 27.7765 16.7021 27.7655C16.7194 27.7842 16.7344 27.8055 16.7489 27.8261C16.7697 27.8557 16.7896 27.8841 16.8145 27.9019C16.9551 28.0989 17.1237 28.2807 17.3065 28.4323C17.3065 28.4398 17.31 28.4436 17.3152 28.4493C17.3205 28.455 17.3275 28.4626 17.3345 28.4777C17.3484 28.4926 17.3758 28.5075 17.4034 28.5224L17.4048 28.5232C17.446 28.5453 17.472 28.5675 17.505 28.5955C17.5172 28.6059 17.5303 28.617 17.5454 28.6292C17.6151 28.6574 17.6794 28.6972 17.745 28.7379L17.745 28.7379C17.7852 28.7628 17.8259 28.788 17.8687 28.811C18.0654 28.9323 18.2622 29.0081 18.5433 29.0839C18.8403 29.1621 19.1497 29.1903 19.4657 29.1903C19.8226 29.1903 20.1879 29.1543 20.5532 29.1142L20.5632 29.1136L20.5745 29.1135C20.7895 29.1135 20.9609 29.3335 20.9609 29.5536C20.9609 29.796 20.7641 29.9627 20.5532 29.993C20.1992 30.0312 19.8503 30.0587 19.5052 30.0587C19.0281 30.0587 18.5585 30.0061 18.0936 29.8567C17.0534 29.5082 16.2101 28.7201 15.6901 27.6897C15.3106 26.9927 15.0576 26.1744 15.0717 25.3713ZM19.3332 24.9017C19.3392 24.9227 19.3445 24.9424 19.3445 24.9622L19.3332 24.9017ZM15.5182 20.5483C15.2972 20.5483 15.0773 20.5648 14.8608 20.5981C13.3288 20.7951 11.8108 21.9165 11.1924 23.447C10.7848 24.4622 10.7145 25.5532 10.8551 26.6139C11.1221 28.5535 12.0498 30.3112 13.3428 31.6599C13.4274 31.7444 13.5211 31.7799 13.6114 31.7799C13.9262 31.7799 14.2 31.3482 13.905 31.0538C12.8228 29.9173 12.0076 28.4929 11.6984 26.8867C11.6615 26.7672 11.6461 26.6477 11.6334 26.5487L11.6281 26.5079C11.6281 26.4798 11.6281 26.4518 11.617 26.4358C11.617 26.4302 11.6161 26.4196 11.6141 26.4017C11.6141 26.3807 11.608 26.3531 11.6015 26.3235C11.594 26.2893 11.5859 26.2524 11.5859 26.2199C11.5719 26.0532 11.5578 25.8563 11.5578 25.6896C11.5578 25.3108 11.5859 24.947 11.6562 24.5834C11.7967 23.8864 12.1201 23.2499 12.5698 22.7498C12.8088 22.5075 12.9774 22.371 13.2023 22.1892C13.5256 21.9619 13.8348 21.7649 14.2143 21.6285C14.609 21.4866 15.01 21.4212 15.4099 21.4212C15.8643 21.4212 16.3173 21.5057 16.7583 21.6589C17.3768 21.8558 17.8968 22.2044 18.3184 22.6742C18.5433 22.9165 18.6698 23.0984 18.8526 23.4166C18.9044 23.4949 18.941 23.5897 18.9792 23.6889L18.9792 23.6889L18.9793 23.6891C18.9928 23.7242 19.0065 23.7598 19.0212 23.7955C19.0259 23.8055 19.0321 23.8156 19.0384 23.8257C19.0509 23.8459 19.0634 23.8662 19.0634 23.8864C19.0705 23.9094 19.0722 23.9169 19.0715 23.9169C19.0641 23.8985 19.0613 23.8923 19.0612 23.8923C19.0606 23.8923 19.0701 23.9169 19.0715 23.9169L19.0774 23.9318C19.0831 23.9503 19.0935 23.9738 19.1047 23.9992C19.1211 24.0364 19.1394 24.0777 19.1477 24.1137C19.218 24.3409 19.2883 24.5683 19.3164 24.8107C19.3164 24.8434 19.3245 24.8716 19.3321 24.8979L19.3321 24.898L19.3322 24.8982L19.3341 24.9121C19.3376 24.9371 19.3445 24.9853 19.3445 25.0077C19.3585 25.1592 19.3585 25.3108 19.3585 25.4471C19.3723 25.7068 19.5749 25.8394 19.778 25.8394C19.9896 25.8394 20.2018 25.6955 20.2018 25.4017C20.2299 24.3107 19.8364 23.2196 19.2039 22.371C18.3311 21.1948 16.9041 20.5483 15.5182 20.5483Z" fill="url(#paint0_linear_102_33)"/>
<defs>
<linearGradient id="paint0_linear_102_33" x1="15.5" y1="0" x2="15.5" y2="35" gradientUnits="userSpaceOnUse">
<stop stop-color="#F5F5F7"/>
<stop offset="1" stop-color="#C1C1C2"/>
</linearGradient>
</defs>
</svg>
