<svg width="32" height="35" viewBox="0 0 32 35" fill="none" xmlns="http://www.w3.org/2000/svg">
<path fill-rule="evenodd" clip-rule="evenodd" d="M16.0174 0C15.5677 0 15.1173 0.0138048 14.6665 0.042125C11.9379 0.21889 9.26912 0.837749 6.81036 1.95733C6.30059 2.16349 5.82097 2.39924 5.37108 2.69396C5.01129 2.95912 4.8015 3.43061 5.07133 3.84312C5.19465 4.08567 5.50171 4.24505 5.8082 4.24505C5.94831 4.24505 6.08841 4.21171 6.21067 4.13767C6.5405 3.90192 6.87036 3.75456 7.26026 3.57779C7.44013 3.48941 7.58993 3.43061 7.76999 3.31265C7.79007 3.29275 7.9329 3.23287 7.99641 3.20472C7.97414 3.2214 7.96702 3.22767 7.96884 3.22767C7.97452 3.22767 8.06974 3.16528 8.06974 3.16528C8.1597 3.13588 8.21969 3.10648 8.33957 3.04749C8.81938 2.87073 9.35904 2.69396 9.86878 2.5466C11.8908 1.94459 13.9963 1.62943 16.1188 1.62943C17.1124 1.62943 18.1098 1.69845 19.1042 1.83954C21.5029 2.22247 23.8418 2.98852 25.9707 4.04928C26.1146 4.13014 26.2728 4.1694 26.427 4.1694C26.722 4.1694 27.0022 4.02562 27.1402 3.75456C27.3799 3.40102 27.26 2.78235 26.8402 2.60559C23.4919 0.97346 19.7845 0 16.0174 0Z" fill="url(#paint0_linear_102_11)"/>
<path fill-rule="evenodd" clip-rule="evenodd" d="M28.382 18.4142C28.3795 18.4142 28.4105 18.4682 28.4295 18.4868C28.3962 18.4325 28.3835 18.4142 28.382 18.4142ZM3.36223 20.3136C3.35658 20.3217 3.35166 20.3296 3.34707 20.3373C3.34033 20.369 3.33431 20.3973 3.33575 20.3973C3.33704 20.3973 3.34416 20.3753 3.36223 20.3136ZM21.5241 22.5927C21.5268 22.5992 21.5297 22.6055 21.533 22.6117C21.5299 22.6051 21.527 22.5988 21.5241 22.5927ZM16.0643 8.45117C13.9199 8.45117 11.7757 8.88717 9.77887 9.79484C6.75054 11.1502 4.14179 13.4779 2.82238 16.5422C1.80291 18.8993 1.50316 21.4922 1.77299 24.085C1.92294 25.6171 2.22269 27.1788 2.73242 28.6521C2.79246 28.7109 2.82238 28.7992 2.82238 28.8582C2.97051 29.222 3.2606 29.4859 3.62603 29.4859C3.70485 29.4859 3.78693 29.4737 3.87196 29.4475C4.11168 29.4181 4.47165 28.9172 4.29178 28.4753C3.87196 27.4735 3.66198 26.4421 3.45218 25.3815L3.36223 24.6743C3.36223 24.5859 3.36223 24.5565 3.30219 24.4975C3.30219 24.3502 3.27227 24.2028 3.27227 24.0556C3.21227 23.4958 3.21227 22.9359 3.21227 22.3466C3.21227 21.7573 3.24216 21.1386 3.30219 20.5494C3.30219 20.4691 3.30219 20.4131 3.34707 20.3373C3.3542 20.3032 3.36223 20.2654 3.36223 20.2546C3.39215 20.1073 3.39215 19.9601 3.42207 19.8127C3.4821 19.4886 3.5421 19.1351 3.66198 18.8403C4.02176 17.5144 4.47165 16.4538 5.31125 15.3047C5.67103 14.8038 6.12073 14.2733 6.66039 13.802C7.26027 13.2421 7.85996 12.7706 8.54957 12.3287C10.3187 11.2385 12.3577 10.4431 14.4565 10.2662C14.9046 10.2256 15.3524 10.2056 15.7994 10.2056C17.6255 10.2056 19.4327 10.5404 21.1431 11.1796C22.8223 11.8278 24.3815 12.7706 25.6109 14.0671C26.2705 14.7154 26.8103 15.5108 27.2899 16.3065C27.5598 16.7484 27.8298 17.2199 28.0396 17.7208C28.1596 17.9565 28.3094 18.2217 28.4295 18.4868C28.5493 18.752 28.6093 18.9877 28.6993 19.2529C28.7593 19.4886 28.7892 19.6948 28.8492 19.9305C28.8792 20.0189 28.8792 20.1663 28.9091 20.3136C28.9091 20.402 28.9392 20.461 28.9392 20.5494C28.9317 20.4909 28.9281 20.4687 28.9266 20.4687C28.9222 20.4687 28.9392 20.6745 28.9392 20.6966C28.999 20.9913 28.999 21.2858 28.999 21.61V22.0815V22.3466V22.494C28.8792 23.2306 28.7292 23.6431 28.2795 24.2324L28.1896 24.3502L28.0096 24.5269C27.8896 24.6449 27.7697 24.7333 27.7097 24.7921C27.32 25.0868 26.8701 25.2636 26.4204 25.3815C26.0513 25.4948 25.6558 25.5515 25.2557 25.5515C24.6155 25.5515 23.964 25.4065 23.3919 25.1162C22.6723 24.7333 22.1626 24.2324 21.7727 23.5252C21.7129 23.378 21.6828 23.319 21.5928 23.0832C21.5629 22.9655 21.533 22.8181 21.533 22.7297C21.4927 22.6307 21.4388 22.4656 21.4533 22.4656C21.4598 22.4656 21.4808 22.5004 21.5241 22.5927C21.4491 22.4163 21.5308 22.1636 21.473 21.9931C21.473 21.6983 21.4129 21.4038 21.383 21.0503C20.8609 18.5402 18.3914 17.1012 15.9565 17.1012C14.4753 17.1012 13.0072 17.6336 11.9977 18.7814C9.98886 21.0503 10.5584 24.4092 11.6379 27.002C12.8674 29.978 15.236 32.3351 18.1447 33.7788C19.1042 34.2503 20.0937 34.6038 21.1132 34.9573C21.2077 34.9866 21.2973 35 21.3816 35C22.2314 35 22.5178 33.6318 21.5629 33.3369C19.7639 32.7476 17.9347 31.8932 16.4954 30.7144C15.2961 29.7422 14.4866 28.7109 13.7369 27.4439L13.287 26.5601L13.2272 26.4717C13.1971 26.4127 13.1671 26.3244 13.1671 26.2948C13.0772 26.1476 13.0473 26.0002 13.0172 25.8529C12.8373 25.3226 12.6873 24.7921 12.5675 24.2324C12.5376 23.9673 12.4775 23.7609 12.4476 23.5252C12.4476 23.4664 12.4476 23.4074 12.4175 23.378C12.4175 23.26 12.3876 23.1716 12.3876 23.0538C12.2676 22.1404 12.4175 21.1974 12.8973 20.402C13.5999 19.2577 14.7597 18.7477 15.9624 18.7477C16.556 18.7477 17.1601 18.8719 17.7249 19.1055C18.3844 19.3708 18.9843 19.8127 19.3441 20.402C19.7938 21.1091 19.7639 21.8753 19.8837 22.7297C19.8956 22.8115 19.8982 22.8376 19.8967 22.8376C19.8947 22.8376 19.8837 22.777 19.8837 22.7591C19.8837 22.8771 19.9137 22.9359 19.9137 23.0538C19.9438 23.1716 19.9438 23.319 19.9737 23.4074C20.0636 23.6725 20.1837 23.9673 20.2736 24.2028C20.3935 24.4386 20.5733 24.7333 20.7834 24.969C21.473 25.8824 22.4624 26.5601 23.6318 26.8842C24.1624 27.0398 24.7263 27.1173 25.2946 27.1173C26.8778 27.1173 28.4939 26.5151 29.5088 25.3226C31.188 23.3484 31.0081 20.4314 30.2285 18.0743C29.6888 16.5422 28.7892 15.0689 27.7697 13.802C26.6603 12.3583 25.2211 11.1502 23.5719 10.2957C21.2429 9.08688 18.6535 8.45117 16.0643 8.45117Z" fill="url(#paint1_linear_102_11)"/>
<path fill-rule="evenodd" clip-rule="evenodd" d="M15.8674 4.27701C14.1042 4.27701 12.3048 4.4665 10.6184 4.93333C7.82975 5.69938 5.28104 7.14307 3.12222 8.96989C2.04271 9.94228 0.933289 11.0029 0.153726 12.211C-0.282492 12.8643 0.288716 13.4751 0.880377 13.4751C1.14255 13.4751 1.40871 13.355 1.59298 13.0654C1.6229 13.0064 1.65301 12.977 1.74296 12.8887C1.80281 12.8297 1.8628 12.7413 1.89273 12.6823C1.89549 12.6744 1.8986 12.6671 1.90223 12.6599C1.89841 12.6676 1.8953 12.6751 1.89273 12.6823C1.93087 12.6327 1.95405 12.5999 1.967 12.5801C1.94253 12.604 1.91829 12.628 1.90223 12.6599C1.92632 12.6106 1.97302 12.555 1.97923 12.555C1.98139 12.555 1.97829 12.5624 1.967 12.5801C1.99711 12.5504 2.02756 12.5208 2.04271 12.4762C2.52253 11.8869 3.09211 11.2976 3.66188 10.7671C4.50147 9.94228 5.25111 9.35301 6.24066 8.73415C7.40993 7.9975 8.63942 7.37883 9.8988 6.93691C11.3979 6.40644 12.9872 6.08231 14.6063 5.96452C14.9512 5.94982 15.3034 5.94247 15.6557 5.94247C16.0082 5.94247 16.3605 5.94982 16.7053 5.96452C17.0352 5.96452 17.395 5.99392 17.7547 5.99392C17.9346 5.99392 18.1446 6.05291 18.3544 6.08231C18.4443 6.08231 18.5644 6.11188 18.6842 6.11188C18.7286 6.11798 18.7461 6.12031 18.7483 6.12031C18.7541 6.12031 18.6445 6.10328 18.6502 6.10328C18.6523 6.10328 18.6699 6.10561 18.7142 6.11188C18.8041 6.11188 18.8642 6.11188 18.8941 6.14128C20.0336 6.34764 21.143 6.5832 22.2524 6.96631C25.4609 8.05649 28.3394 10.3252 30.4083 13.0654C30.5895 13.3225 30.8651 13.4867 31.1537 13.4867C31.2951 13.4867 31.4396 13.4473 31.5777 13.3602C31.9375 13.1538 32.1473 12.5939 31.8775 12.211C29.8385 9.47078 27.1999 7.20206 23.9915 5.84674C21.8626 4.93333 19.5839 4.40286 17.245 4.31448C16.7901 4.29009 16.33 4.27701 15.8674 4.27701Z" fill="url(#paint2_linear_102_11)"/>
<path fill-rule="evenodd" clip-rule="evenodd" d="M17.395 24.7627C17.395 24.7724 17.4014 24.7819 17.41 24.7916C17.4055 24.783 17.4005 24.7734 17.395 24.7627ZM15.9696 21.2858C15.5403 21.2858 15.1014 21.5583 15.0862 22.1109C15.0562 23.6725 15.596 25.2636 16.4055 26.6189C17.5149 28.6225 19.314 30.1547 21.533 30.8324C22.5247 31.123 23.5265 31.2252 24.5444 31.2252C25.2807 31.2252 26.025 31.1718 26.7802 31.0976C27.2301 31.0386 27.6499 30.7144 27.6499 30.2431C27.6499 29.8152 27.2843 29.3873 26.8256 29.3873C26.8106 29.3873 26.7955 29.3876 26.7802 29.3887C26.001 29.4667 25.2216 29.5366 24.4601 29.5366C23.786 29.5366 23.1261 29.4819 22.4924 29.3297C21.8928 29.1824 21.473 29.035 21.0532 28.7993C20.8133 28.6815 20.6034 28.5341 20.3635 28.4457C20.2435 28.3573 20.1837 28.2984 20.0636 28.2396C20.0037 28.21 19.9438 28.1806 19.9136 28.1512C19.8837 28.0922 19.8538 28.0922 19.8538 28.0628C19.4639 27.7681 19.1042 27.4145 18.8042 27.0314C18.7143 26.9726 18.6544 26.8546 18.5645 26.7663C18.586 26.7876 18.5959 26.7964 18.5977 26.7964C18.6057 26.7964 18.4444 26.6137 18.4444 26.5895C18.2945 26.4127 18.2045 26.177 18.0548 26.0002C17.8148 25.6467 17.6349 25.2636 17.4551 24.8511C17.4551 24.8312 17.4277 24.8115 17.41 24.7916C17.4138 24.7987 17.4173 24.8052 17.4204 24.8109C17.4129 24.8036 17.4044 24.7968 17.395 24.7921C17.3649 24.6743 17.335 24.6153 17.3051 24.4975C17.2152 24.3208 17.1851 24.1144 17.0951 23.9377C17.0051 23.6135 16.9152 23.2894 16.8552 22.9359C16.8552 22.9145 16.8238 22.7697 16.8065 22.7697C16.8049 22.7697 16.8032 22.7711 16.8018 22.7742C16.7981 22.753 16.7953 22.736 16.7953 22.7297V22.0521C16.7953 21.5435 16.387 21.2858 15.9696 21.2858Z" fill="url(#paint3_linear_102_11)"/>
<path fill-rule="evenodd" clip-rule="evenodd" d="M24.1775 21.1977C24.1903 21.2386 24.2016 21.2769 24.2016 21.3155C24.1883 21.2501 24.1808 21.2138 24.1775 21.1977ZM16.0388 12.7329C15.5674 12.7329 15.0983 12.765 14.6364 12.8297C11.3681 13.2128 8.12981 15.3931 6.8104 18.3691C5.94088 20.3431 5.79089 22.4646 6.09083 24.527C6.66041 28.2984 8.63955 31.7163 11.3981 34.3388C11.5785 34.503 11.7783 34.572 11.9709 34.572C12.6425 34.572 13.2267 33.7326 12.5974 33.1602C10.2886 30.9503 8.54959 28.1806 7.8899 25.0575C7.79995 24.7922 7.77003 24.527 7.73992 24.3209C7.73992 24.2664 7.73992 24.2119 7.7162 24.1807C7.7162 24.1699 7.71439 24.1493 7.70999 24.1145C7.70999 24.0261 7.64996 23.8789 7.64996 23.761C7.62004 23.4369 7.58996 23.0539 7.58996 22.7298C7.58996 21.9932 7.64996 21.2859 7.79995 20.5789C8.0997 19.2235 8.7895 17.986 9.74897 17.0136C10.2587 16.5423 10.6185 16.277 11.0983 15.9234C11.7879 15.4815 12.4476 15.0984 13.2571 14.8333C14.0993 14.5574 14.9547 14.4301 15.8078 14.4301C16.7771 14.4301 17.7435 14.5945 18.6844 14.8922C20.0038 15.2752 21.1132 15.953 22.0126 16.8664C22.4925 17.3377 22.7623 17.6913 23.1522 18.3101C23.302 18.5163 23.3919 18.7814 23.512 19.0468C23.5419 19.1056 23.6019 19.1645 23.6019 19.2235C23.617 19.2683 23.6207 19.2829 23.6192 19.2829C23.6034 19.247 23.5975 19.235 23.5972 19.235C23.5961 19.235 23.6163 19.2829 23.6192 19.2829C23.6229 19.2913 23.6271 19.3008 23.6318 19.3119C23.6619 19.4003 23.7519 19.5477 23.7818 19.6654C23.9317 20.1074 24.0817 20.5494 24.1416 21.0208C24.1416 21.0846 24.1591 21.1396 24.1753 21.1909C24.1782 21.2135 24.2016 21.3488 24.2016 21.4039C24.2315 21.6984 24.2315 21.9932 24.2315 22.2583C24.2609 22.7633 24.6931 23.0211 25.1264 23.0211C25.5777 23.0211 26.0306 22.7413 26.0306 22.1699C26.0906 20.0486 25.251 17.927 23.9016 16.277C22.0397 13.99 18.9954 12.7329 16.0388 12.7329Z" fill="url(#paint4_linear_102_11)"/>
<defs>
<linearGradient id="paint0_linear_102_11" x1="16.1056" y1="0" x2="16.1056" y2="4.24505" gradientUnits="userSpaceOnUse">
<stop stop-color="#F5F5F7"/>
<stop offset="1" stop-color="#C1C1C2"/>
</linearGradient>
<linearGradient id="paint1_linear_102_11" x1="16.2405" y1="8.45117" x2="16.2405" y2="35" gradientUnits="userSpaceOnUse">
<stop stop-color="#F5F5F7"/>
<stop offset="1" stop-color="#C1C1C2"/>
</linearGradient>
<linearGradient id="paint2_linear_102_11" x1="16" y1="4.27701" x2="16" y2="13.4867" gradientUnits="userSpaceOnUse">
<stop stop-color="#F5F5F7"/>
<stop offset="1" stop-color="#C1C1C2"/>
</linearGradient>
<linearGradient id="paint3_linear_102_11" x1="21.3675" y1="21.2858" x2="21.3675" y2="31.2252" gradientUnits="userSpaceOnUse">
<stop stop-color="#F5F5F7"/>
<stop offset="1" stop-color="#C1C1C2"/>
</linearGradient>
<linearGradient id="paint4_linear_102_11" x1="15.9916" y1="12.7329" x2="15.9916" y2="34.572" gradientUnits="userSpaceOnUse">
<stop stop-color="#F5F5F7"/>
<stop offset="1" stop-color="#C1C1C2"/>
</linearGradient>
</defs>
</svg>
