<svg width="31" height="35" viewBox="0 0 31 35" fill="none" xmlns="http://www.w3.org/2000/svg">
<path fill-rule="evenodd" clip-rule="evenodd" d="M8.23352 0L6.75569 0.155606L5.60593 0.622388L4.29212 1.09064L3.30641 1.87008L2.32221 2.80368L1.50052 3.73872L0.842842 4.82934L0.350758 6.07559L0.186706 7.32183L0.0226898 9.0363L0.350758 10.5937L1.17245 12.1512L2.15665 13.553L2.97834 14.3324L3.96409 15.1119L4.94979 15.5787L6.09955 16.0469L7.41337 16.3581H9.71134L11.0267 16.2025L12.0109 15.8899L12.8326 15.4231L13.6542 14.9563L14.4744 14.3324L15.2961 13.553L15.7882 12.775L16.4459 11.9956L16.774 11.0605L17.102 9.81429L17.2676 8.56806V7.32183L16.938 5.91999L16.774 5.14054L16.2818 4.36256L15.2961 2.95926L14.1464 1.87008L12.5045 0.935039L11.1907 0.4668L9.71134 0.155606L8.23352 0Z" fill="url(#paint0_linear_1_180)"/>
<path fill-rule="evenodd" clip-rule="evenodd" d="M5.45564 17.4084H11.8237C13.2705 17.4084 14.6582 17.9788 15.6813 18.9942C16.7044 20.0096 17.2792 21.3869 17.2792 22.8229V34.9999C17.2792 34.9999 17.2791 35 17.279 35L0.000143214 34.9999C7.16071e-05 34.9999 0 34.9998 0 34.9997L0.000143214 22.8229C0.000143214 19.8325 2.44266 17.4084 5.45564 17.4084Z" fill="url(#paint1_linear_1_180)"/>
<path fill-rule="evenodd" clip-rule="evenodd" d="M22.4853 21.3242H27.0692C28.1107 21.3242 29.1095 21.7349 29.846 22.4658C30.5824 23.1967 30.9962 24.1881 30.9962 25.2217V34.9594C30.9962 34.9595 30.9963 34.9594 30.9962 34.9594H18.5583C18.5583 34.9594 18.5583 34.9595 18.5583 34.9594V25.2217C18.5583 23.0692 20.3165 21.3242 22.4853 21.3242Z" fill="url(#paint2_linear_1_180)"/>
<path fill-rule="evenodd" clip-rule="evenodd" d="M24.486 9.52783L23.4204 9.64003L22.5913 9.97662L21.644 10.3142L20.9333 10.8763L20.2236 11.5494L19.6311 12.2236L19.1569 13.01L18.8021 13.9086L18.6838 14.8073L18.5655 16.0435L18.8021 17.1665L19.3946 18.2895L20.1042 19.3003L20.6967 19.8623L21.4075 20.4243L22.1182 20.7609L22.9473 21.0985L23.8946 21.3229H25.5516L26.5 21.2107L27.2096 20.9853L27.8021 20.6487L28.3946 20.3121L28.986 19.8623L29.5785 19.3003L29.9333 18.7393L30.4075 18.1773L30.6441 17.503L30.8806 16.6045L31 15.7059V14.8073L30.7623 13.7965L30.6441 13.2344L30.2892 12.6735L29.5785 11.6616L28.7494 10.8763L27.5656 10.202L26.6183 9.86442L25.5516 9.64003L24.486 9.52783Z" fill="url(#paint3_linear_1_180)"/>
<defs>
<linearGradient id="paint0_linear_1_180" x1="8.64513" y1="0" x2="8.64513" y2="16.3581" gradientUnits="userSpaceOnUse">
<stop stop-color="#F5F5F7"/>
<stop offset="1" stop-color="#C1C1C2"/>
</linearGradient>
<linearGradient id="paint1_linear_1_180" x1="8.63958" y1="17.4084" x2="8.63958" y2="35" gradientUnits="userSpaceOnUse">
<stop stop-color="#F5F5F7"/>
<stop offset="1" stop-color="#C1C1C2"/>
</linearGradient>
<linearGradient id="paint2_linear_1_180" x1="24.7772" y1="21.3242" x2="24.7772" y2="34.9595" gradientUnits="userSpaceOnUse">
<stop stop-color="#F5F5F7"/>
<stop offset="1" stop-color="#C1C1C2"/>
</linearGradient>
<linearGradient id="paint3_linear_1_180" x1="24.7828" y1="9.52783" x2="24.7828" y2="21.3229" gradientUnits="userSpaceOnUse">
<stop stop-color="#F5F5F7"/>
<stop offset="1" stop-color="#C1C1C2"/>
</linearGradient>
</defs>
</svg>
