<svg width="75" height="66" viewBox="0 0 75 66" fill="none" xmlns="http://www.w3.org/2000/svg">
<mask id="mask0_102_58" style="mask-type:alpha" maskUnits="userSpaceOnUse" x="0" y="0" width="75" height="66">
<path d="M56.6547 65.2598H18.8849L0 32.6299L18.8849 0H56.6547L75 32.6299L56.6547 65.2598Z" fill="#848488"/>
</mask>
<g mask="url(#mask0_102_58)">
<ellipse cx="38.1758" cy="38.1758" rx="38.1758" ry="38.1758" transform="matrix(1 0 0 -1 -0.964218 70.7258)" fill="url(#paint0_linear_102_58)"/>
<ellipse cx="38.1758" cy="38.1758" rx="38.1758" ry="38.1758" transform="matrix(1 0 0 -1 -0.964218 70.7258)" fill="url(#paint1_radial_102_58)"/>
<ellipse cx="38.1758" cy="38.1758" rx="38.1758" ry="38.1758" transform="matrix(1 0 0 -1 -0.964218 70.7258)" fill="url(#paint2_radial_102_58)"/>
<ellipse cx="38.1758" cy="38.1758" rx="38.1758" ry="38.1758" transform="matrix(1 0 0 -1 -0.964218 70.7258)" fill="url(#paint3_radial_102_58)"/>
<ellipse cx="38.1758" cy="38.1758" rx="38.1758" ry="38.1758" transform="matrix(1 0 0 -1 -0.964218 70.7258)" fill="url(#paint4_radial_102_58)"/>
<ellipse cx="38.1758" cy="38.1758" rx="38.1758" ry="38.1758" transform="matrix(1 0 0 -1 -0.964218 70.7258)" fill="url(#paint5_radial_102_58)"/>
<ellipse cx="38.1758" cy="38.1758" rx="38.1758" ry="38.1758" transform="matrix(1 0 0 -1 -0.964218 70.7258)" fill="url(#paint6_radial_102_58)"/>
<ellipse cx="38.1758" cy="38.1758" rx="38.1758" ry="38.1758" transform="matrix(1 0 0 -1 -0.964218 70.7258)" fill="url(#paint7_radial_102_58)"/>
<g style="mix-blend-mode:soft-light" opacity="0.5">
<ellipse cx="38.1758" cy="38.1758" rx="38.1758" ry="38.1758" transform="matrix(1 0 0 -1 -0.964218 70.7258)" fill="url(#paint8_linear_102_58)"/>
<ellipse cx="38.1758" cy="38.1758" rx="38.1758" ry="38.1758" transform="matrix(1 0 0 -1 -0.964218 70.7258)" fill="url(#paint9_radial_102_58)"/>
<ellipse cx="38.1758" cy="38.1758" rx="38.1758" ry="38.1758" transform="matrix(1 0 0 -1 -0.964218 70.7258)" fill="url(#paint10_radial_102_58)"/>
<ellipse cx="38.1758" cy="38.1758" rx="38.1758" ry="38.1758" transform="matrix(1 0 0 -1 -0.964218 70.7258)" fill="url(#paint11_radial_102_58)"/>
<ellipse cx="38.1758" cy="38.1758" rx="38.1758" ry="38.1758" transform="matrix(1 0 0 -1 -0.964218 70.7258)" fill="url(#paint12_radial_102_58)"/>
<ellipse cx="38.1758" cy="38.1758" rx="38.1758" ry="38.1758" transform="matrix(1 0 0 -1 -0.964218 70.7258)" fill="url(#paint13_radial_102_58)"/>
<ellipse cx="38.1758" cy="38.1758" rx="38.1758" ry="38.1758" transform="matrix(1 0 0 -1 -0.964218 70.7258)" fill="url(#paint14_radial_102_58)"/>
<ellipse cx="38.1758" cy="38.1758" rx="38.1758" ry="38.1758" transform="matrix(1 0 0 -1 -0.964218 70.7258)" fill="url(#paint15_radial_102_58)"/>
</g>
<g style="mix-blend-mode:soft-light" opacity="0.5">
<ellipse cx="38.1758" cy="38.1758" rx="38.1758" ry="38.1758" transform="matrix(1 0 0 -1 -0.964218 70.7258)" fill="url(#paint16_linear_102_58)"/>
<ellipse cx="38.1758" cy="38.1758" rx="38.1758" ry="38.1758" transform="matrix(1 0 0 -1 -0.964218 70.7258)" fill="url(#paint17_radial_102_58)"/>
<ellipse cx="38.1758" cy="38.1758" rx="38.1758" ry="38.1758" transform="matrix(1 0 0 -1 -0.964218 70.7258)" fill="url(#paint18_radial_102_58)"/>
<ellipse cx="38.1758" cy="38.1758" rx="38.1758" ry="38.1758" transform="matrix(1 0 0 -1 -0.964218 70.7258)" fill="url(#paint19_radial_102_58)"/>
<ellipse cx="38.1758" cy="38.1758" rx="38.1758" ry="38.1758" transform="matrix(1 0 0 -1 -0.964218 70.7258)" fill="url(#paint20_radial_102_58)"/>
<ellipse cx="38.1758" cy="38.1758" rx="38.1758" ry="38.1758" transform="matrix(1 0 0 -1 -0.964218 70.7258)" fill="url(#paint21_radial_102_58)"/>
<ellipse cx="38.1758" cy="38.1758" rx="38.1758" ry="38.1758" transform="matrix(1 0 0 -1 -0.964218 70.7258)" fill="url(#paint22_radial_102_58)"/>
<ellipse cx="38.1758" cy="38.1758" rx="38.1758" ry="38.1758" transform="matrix(1 0 0 -1 -0.964218 70.7258)" fill="url(#paint23_radial_102_58)"/>
</g>
</g>
<path d="M49.3433 23.8757L35.018 41.3844L27.0595 33.4259" stroke="#111112" stroke-width="5.76772" stroke-linecap="square" stroke-linejoin="round"/>
<defs>
<linearGradient id="paint0_linear_102_58" x1="38.1758" y1="8.74863" x2="55.6731" y2="66.0124" gradientUnits="userSpaceOnUse">
<stop stop-color="#2DCF78"/>
<stop offset="1" stop-color="#28B86A"/>
</linearGradient>
<radialGradient id="paint1_radial_102_58" cx="0" cy="0" r="1" gradientUnits="userSpaceOnUse" gradientTransform="translate(9.54396 58.8544) rotate(-41.6335) scale(38.3082 36.7201)">
<stop stop-color="#FAFF19"/>
<stop offset="1" stop-color="#FAFF19" stop-opacity="0.4"/>
</radialGradient>
<radialGradient id="paint2_radial_102_58" cx="0" cy="0" r="1" gradientUnits="userSpaceOnUse" gradientTransform="translate(66.8077 71.5797) rotate(-130.855) scale(38.9062 37.2934)">
<stop stop-color="#2DCF78"/>
<stop offset="1" stop-color="#84F0B6" stop-opacity="0.4"/>
</radialGradient>
<radialGradient id="paint3_radial_102_58" cx="0" cy="0" r="1" gradientUnits="userSpaceOnUse" gradientTransform="translate(88.2816 32.6085) rotate(154.29) scale(47.6668 45.6908)">
<stop stop-color="#5BEB9D"/>
<stop offset="1" stop-color="#84F0B6" stop-opacity="0.4"/>
</radialGradient>
<radialGradient id="paint4_radial_102_58" cx="0" cy="0" r="1" gradientUnits="userSpaceOnUse" gradientTransform="translate(57.2638 3.93489e-06) rotate(116.565) scale(42.6819 40.9125)">
<stop stop-color="#FAFF19"/>
<stop offset="1" stop-color="#FCFF80" stop-opacity="0"/>
</radialGradient>
<radialGradient id="paint5_radial_102_58" cx="0" cy="0" r="1" gradientUnits="userSpaceOnUse" gradientTransform="translate(-9.54396 -3.18132) rotate(36.6071) scale(69.3535 56.2359)">
<stop stop-color="white" stop-opacity="0.79"/>
<stop offset="1" stop-color="white" stop-opacity="0"/>
</radialGradient>
<radialGradient id="paint6_radial_102_58" cx="0" cy="0" r="1" gradientUnits="userSpaceOnUse" gradientTransform="translate(6.36264 6.36264) rotate(45) scale(28.1192 20.4229)">
<stop stop-color="white" stop-opacity="0.49"/>
<stop offset="1" stop-color="white" stop-opacity="0"/>
</radialGradient>
<radialGradient id="paint7_radial_102_58" cx="0" cy="0" r="1" gradientUnits="userSpaceOnUse" gradientTransform="translate(52.9256 38.1759) rotate(49.8991) scale(21.5516 17.7823)">
<stop stop-color="white" stop-opacity="0.15"/>
<stop offset="1" stop-color="white" stop-opacity="0"/>
</radialGradient>
<linearGradient id="paint8_linear_102_58" x1="38.1758" y1="8.74863" x2="55.6731" y2="66.0124" gradientUnits="userSpaceOnUse">
<stop stop-color="#2DCF78"/>
<stop offset="1" stop-color="#28B86A"/>
</linearGradient>
<radialGradient id="paint9_radial_102_58" cx="0" cy="0" r="1" gradientUnits="userSpaceOnUse" gradientTransform="translate(9.54396 58.8544) rotate(-41.6335) scale(38.3082 36.7201)">
<stop stop-color="#FAFF19"/>
<stop offset="1" stop-color="#FAFF19" stop-opacity="0.4"/>
</radialGradient>
<radialGradient id="paint10_radial_102_58" cx="0" cy="0" r="1" gradientUnits="userSpaceOnUse" gradientTransform="translate(66.8077 71.5797) rotate(-130.855) scale(38.9062 37.2934)">
<stop stop-color="#2DCF78"/>
<stop offset="1" stop-color="#84F0B6" stop-opacity="0.4"/>
</radialGradient>
<radialGradient id="paint11_radial_102_58" cx="0" cy="0" r="1" gradientUnits="userSpaceOnUse" gradientTransform="translate(88.2816 32.6085) rotate(154.29) scale(47.6668 45.6908)">
<stop stop-color="#5BEB9D"/>
<stop offset="1" stop-color="#84F0B6" stop-opacity="0.4"/>
</radialGradient>
<radialGradient id="paint12_radial_102_58" cx="0" cy="0" r="1" gradientUnits="userSpaceOnUse" gradientTransform="translate(57.2638 5.91155e-06) rotate(116.189) scale(49.7541 47.6916)">
<stop stop-color="#2DCF78"/>
<stop offset="1" stop-color="#84F0B6" stop-opacity="0.5"/>
</radialGradient>
<radialGradient id="paint13_radial_102_58" cx="0" cy="0" r="1" gradientUnits="userSpaceOnUse" gradientTransform="translate(-9.54396 -3.18132) rotate(39.6947) scale(70.8707 57.4661)">
<stop stop-color="white" stop-opacity="0.79"/>
<stop offset="1" stop-color="white" stop-opacity="0"/>
</radialGradient>
<radialGradient id="paint14_radial_102_58" cx="0" cy="0" r="1" gradientUnits="userSpaceOnUse" gradientTransform="translate(6.36264 6.36264) rotate(43.5113) scale(40.301 29.2705)">
<stop stop-color="white" stop-opacity="0.49"/>
<stop offset="1" stop-color="white" stop-opacity="0"/>
</radialGradient>
<radialGradient id="paint15_radial_102_58" cx="0" cy="0" r="1" gradientUnits="userSpaceOnUse" gradientTransform="translate(54.101 38.1758) rotate(22.0971) scale(24.0146 19.8145)">
<stop stop-color="#FAFF19"/>
<stop offset="1" stop-color="#FBFF4C" stop-opacity="0.5"/>
</radialGradient>
<linearGradient id="paint16_linear_102_58" x1="38.1758" y1="8.74863" x2="55.6731" y2="66.0124" gradientUnits="userSpaceOnUse">
<stop stop-color="#9A52FF"/>
<stop offset="1" stop-color="#B480FF"/>
</linearGradient>
<radialGradient id="paint17_radial_102_58" cx="0" cy="0" r="1" gradientUnits="userSpaceOnUse" gradientTransform="translate(9.54396 58.8544) rotate(-41.6335) scale(38.3082 36.7201)">
<stop offset="0.0884655" stop-color="#19A3FF"/>
<stop offset="1" stop-color="#19A3FF" stop-opacity="0.4"/>
</radialGradient>
<radialGradient id="paint18_radial_102_58" cx="0" cy="0" r="1" gradientUnits="userSpaceOnUse" gradientTransform="translate(66.8077 71.5797) rotate(-130.855) scale(38.9062 37.2934)">
<stop stop-color="#5F00E5"/>
<stop offset="1" stop-color="#909ADD" stop-opacity="0"/>
</radialGradient>
<radialGradient id="paint19_radial_102_58" cx="0" cy="0" r="1" gradientUnits="userSpaceOnUse" gradientTransform="translate(88.2816 32.6085) rotate(154.29) scale(47.6668 45.6908)">
<stop stop-color="#9A52FF"/>
<stop offset="1" stop-color="#FCA1FE" stop-opacity="0"/>
</radialGradient>
<radialGradient id="paint20_radial_102_58" cx="0" cy="0" r="1" gradientUnits="userSpaceOnUse" gradientTransform="translate(57.2638 5.91155e-06) rotate(116.189) scale(49.7541 47.6916)">
<stop stop-color="#8874FF"/>
<stop offset="1" stop-color="#8874FF" stop-opacity="0"/>
</radialGradient>
<radialGradient id="paint21_radial_102_58" cx="0" cy="0" r="1" gradientUnits="userSpaceOnUse" gradientTransform="translate(-9.54396 -3.18132) rotate(39.6947) scale(70.8707 57.4661)">
<stop stop-color="white" stop-opacity="0.79"/>
<stop offset="1" stop-color="white" stop-opacity="0"/>
</radialGradient>
<radialGradient id="paint22_radial_102_58" cx="0" cy="0" r="1" gradientUnits="userSpaceOnUse" gradientTransform="translate(6.36264 6.36264) rotate(43.5113) scale(40.301 29.2705)">
<stop stop-color="white" stop-opacity="0.49"/>
<stop offset="1" stop-color="white" stop-opacity="0"/>
</radialGradient>
<radialGradient id="paint23_radial_102_58" cx="0" cy="0" r="1" gradientUnits="userSpaceOnUse" gradientTransform="translate(54.101 38.1758) rotate(22.0971) scale(24.0146 19.8145)">
<stop stop-color="white" stop-opacity="0.49"/>
<stop offset="1" stop-color="#19A3FF" stop-opacity="0.5"/>
</radialGradient>
</defs>
</svg>
