<svg width="25" height="35" viewBox="0 0 25 35" fill="none" xmlns="http://www.w3.org/2000/svg">
<path fill-rule="evenodd" clip-rule="evenodd" d="M0.0915394 5.12379C0.163146 6.36828 1.31301 7.66678 3.54702 8.69786C5.80424 9.73966 8.96474 10.4 12.488 10.4C16.0112 10.4 19.1717 9.73966 21.4289 8.69786C23.7088 7.6456 24.8596 6.31484 24.8875 5.04719C24.0648 2.19731 18.8323 0 12.5 0C6.11112 0 0.841725 2.23678 0.0915394 5.12379ZM25 7.63918C24.256 8.4875 23.1804 9.21113 21.9318 9.78741C19.4839 10.9172 16.1444 11.6 12.488 11.6C8.83149 11.6 5.49199 10.9172 3.04415 9.78741C1.80893 9.21731 0.743037 8.50301 0 7.66644V29.1667C0 32.3883 5.59644 35 12.5 35C19.4036 35 25 32.3883 25 29.1667V7.63918ZM11.8749 14.0217C12.0862 14.0071 12.2974 14 12.5082 14C14.274 14 16.0118 14.5006 17.5814 15.34C17.7781 15.4309 17.8343 15.7491 17.7219 15.9309C17.6573 16.0703 17.5259 16.1443 17.3877 16.1443C17.3154 16.1443 17.2412 16.1241 17.1738 16.0825C16.1758 15.537 15.0795 15.143 13.9551 14.946C13.489 14.8735 13.0215 14.838 12.5557 14.838C11.5608 14.838 10.5738 15.0001 9.62599 15.3097C9.38705 15.3855 9.13409 15.4764 8.90918 15.5673C8.85298 15.5976 8.82486 15.6127 8.78269 15.6279C8.78269 15.6279 8.73806 15.6599 8.7354 15.6599C8.73454 15.6599 8.73788 15.6567 8.74832 15.6481C8.74319 15.6506 8.73697 15.6536 8.73012 15.6569C8.6972 15.6726 8.64997 15.6952 8.64219 15.7036C8.57938 15.7488 8.52443 15.7771 8.46568 15.8073C8.44548 15.8177 8.42482 15.8284 8.40325 15.84L8.39005 15.8466C8.21301 15.9346 8.06213 16.0096 7.91126 16.1279C7.85394 16.166 7.78827 16.1832 7.7226 16.1832C7.57893 16.1832 7.43499 16.1012 7.37719 15.9765C7.2507 15.7643 7.34905 15.5218 7.51769 15.3855C7.72858 15.2339 7.9534 15.1127 8.19236 15.0066C9.3449 14.4308 10.5959 14.1126 11.8749 14.0217ZM18.3041 23.4702C18.3029 23.4702 18.3174 23.4979 18.3263 23.5075C18.3107 23.4796 18.3048 23.4702 18.3041 23.4702ZM15.0894 25.6191C15.0708 25.571 15.0728 25.5119 15.0747 25.4539C15.0765 25.4025 15.0782 25.3519 15.0655 25.3107C15.0655 25.2174 15.0548 25.1241 15.0433 25.0238C15.0362 24.9612 15.0287 24.8957 15.0233 24.8258C14.7785 23.535 13.621 22.7949 12.4796 22.7949C11.7853 22.7949 11.0971 23.0687 10.6239 23.659C9.68228 24.8258 9.94927 26.5533 10.4553 27.8867C11.0316 29.4172 12.1419 30.6295 13.5053 31.3719C13.9551 31.6144 14.4189 31.7962 14.8968 31.9781C14.9411 31.9931 14.9831 32 15.0226 32C15.421 32 15.5552 31.2963 15.1076 31.1447C14.2643 30.8416 13.4069 30.4022 12.7322 29.796C12.17 29.296 11.7906 28.7656 11.4392 28.114L11.2283 27.6595L11.2002 27.614C11.1861 27.5837 11.1721 27.5382 11.1721 27.523C11.1301 27.4476 11.116 27.372 11.1019 27.2965L11.1018 27.2958C11.0175 27.023 10.9472 26.7502 10.891 26.4624C10.8835 26.3891 10.8719 26.3245 10.8606 26.2617C10.8508 26.2076 10.8413 26.1547 10.8348 26.0986C10.8348 26.0684 10.8348 26.0381 10.8207 26.0229C10.8207 25.9926 10.8172 25.9661 10.8137 25.9395C10.8102 25.913 10.8067 25.8865 10.8067 25.8563C10.7504 25.3865 10.8207 24.9015 11.0456 24.4925C11.375 23.9039 11.9186 23.6416 12.4824 23.6416C12.7606 23.6416 13.0438 23.7055 13.3086 23.8257C13.6177 23.9621 13.8989 24.1894 14.0675 24.4925C14.231 24.7744 14.2593 25.0747 14.2899 25.4002C14.2988 25.4945 14.3079 25.5909 14.3205 25.6896C14.3261 25.7316 14.3273 25.7451 14.3266 25.7451C14.3256 25.7451 14.3205 25.7139 14.3205 25.7047C14.3205 25.735 14.324 25.7577 14.3275 25.7805C14.331 25.8032 14.3345 25.8259 14.3345 25.8563C14.3413 25.8851 14.3448 25.9174 14.3481 25.9483C14.3518 25.9822 14.3553 26.0143 14.3627 26.0381C14.3932 26.1369 14.4312 26.2436 14.4658 26.3411C14.479 26.3781 14.4916 26.4138 14.5033 26.4472C14.5594 26.5684 14.6438 26.72 14.7422 26.8412C15.0655 27.311 15.5292 27.6595 16.0774 27.8262C16.3261 27.9062 16.5904 27.946 16.8568 27.946C17.599 27.946 18.3565 27.6363 18.8322 27.023C19.6194 26.0077 19.5351 24.5076 19.1696 23.2953C18.9166 22.5074 18.495 21.7497 18.0171 21.0982C17.497 20.3557 16.8224 19.7344 16.0494 19.2949C14.9576 18.6732 13.7438 18.3463 12.5302 18.3463C11.525 18.3463 10.5199 18.5705 9.58385 19.0373C8.16432 19.7344 6.94147 20.9315 6.323 22.5074C5.84512 23.7196 5.70461 25.0531 5.83109 26.3866C5.90138 27.1745 6.04189 27.9776 6.28083 28.7353C6.30897 28.7656 6.323 28.811 6.323 28.8414C6.39243 29.0284 6.52841 29.1642 6.69971 29.1642C6.73665 29.1642 6.77513 29.1579 6.81499 29.1444C6.92735 29.1293 7.09609 28.8717 7.01178 28.6444C6.81499 28.1292 6.71656 27.5988 6.61822 27.0534L6.57605 26.6896C6.57605 26.6442 6.57605 26.6291 6.54791 26.5987C6.54791 26.5608 6.5444 26.5229 6.54089 26.485C6.53739 26.4472 6.53388 26.4093 6.53388 26.3715C6.50576 26.0835 6.50576 25.7956 6.50576 25.4925C6.50576 25.1895 6.51977 24.8713 6.54791 24.5682C6.54791 24.5269 6.54791 24.4982 6.56895 24.4592L6.56894 24.4592C6.56578 24.4755 6.56296 24.4901 6.56364 24.4901C6.56424 24.4901 6.56758 24.4787 6.57605 24.447C6.5734 24.4511 6.5711 24.4552 6.56895 24.4592C6.57229 24.4417 6.57605 24.4222 6.57605 24.4167C6.58306 24.3788 6.58657 24.3409 6.59008 24.303C6.59358 24.2652 6.59709 24.2273 6.6041 24.1894C6.60611 24.1775 6.60813 24.1655 6.61015 24.1534C6.63641 23.9968 6.66439 23.83 6.71656 23.6893C6.88521 23.0074 7.09609 22.462 7.48965 21.871C7.6583 21.6134 7.8691 21.3406 8.12206 21.0982C8.40326 20.8102 8.68436 20.5677 9.00762 20.3405C9.8369 19.7798 10.7927 19.3707 11.7765 19.2797C11.9865 19.2589 12.1965 19.2486 12.406 19.2486C13.262 19.2486 14.1091 19.4208 14.9108 19.7495C15.698 20.0829 16.4288 20.5677 17.0051 21.2345C17.3143 21.5679 17.5673 21.977 17.7922 22.3862C17.9186 22.6134 18.0452 22.8559 18.1436 23.1135C18.1617 23.1527 18.1813 23.1934 18.2015 23.2352C18.2437 23.3228 18.2882 23.4151 18.3263 23.5075C18.3662 23.6043 18.392 23.6935 18.4186 23.786C18.4295 23.8237 18.4406 23.8619 18.4528 23.9015C18.4669 23.9621 18.4774 24.019 18.488 24.0758C18.4985 24.1326 18.509 24.1894 18.5231 24.25C18.5308 24.2749 18.5343 24.3091 18.5382 24.3473C18.5413 24.3787 18.5448 24.4129 18.5511 24.447C18.5511 24.4697 18.5547 24.4887 18.5582 24.5076C18.5617 24.5266 18.5653 24.5455 18.5653 24.5682C18.5618 24.5382 18.56 24.5268 18.5594 24.5268C18.5581 24.5268 18.5607 24.5685 18.5629 24.6024C18.5642 24.6224 18.5653 24.6397 18.5653 24.6439C18.5933 24.7955 18.5933 24.947 18.5933 25.1137V25.3562V25.4925V25.5683C18.5371 25.9472 18.4668 26.1593 18.256 26.4624L18.2139 26.5229L18.1295 26.6139C18.0964 26.6495 18.0634 26.6799 18.036 26.7051C18.0169 26.7227 18.0005 26.7378 17.9889 26.7502C17.8063 26.9018 17.5954 26.9927 17.3846 27.0534C17.2116 27.1116 17.0262 27.1408 16.8386 27.1408C16.5385 27.1408 16.2331 27.0662 15.9649 26.9169C15.6277 26.72 15.3887 26.4624 15.206 26.0986C15.1965 26.0732 15.1887 26.0529 15.1808 26.0325C15.1653 25.9923 15.1496 25.9519 15.1217 25.8714C15.1076 25.8108 15.0936 25.735 15.0936 25.6896C15.0747 25.6387 15.0495 25.5537 15.0562 25.5537C15.0593 25.5537 15.0691 25.5716 15.0894 25.6191ZM15.0936 25.6289L15.0894 25.6191C15.0907 25.6224 15.0921 25.6257 15.0936 25.6289ZM9.97736 16.5371C10.7679 16.2971 11.6114 16.1996 12.4378 16.1996C12.6547 16.1996 12.8704 16.2063 13.0836 16.2189C14.1799 16.2643 15.2481 16.5371 16.246 17.0069C17.7499 17.7039 18.9868 18.8707 19.9426 20.2799C20.0691 20.4769 19.9707 20.7648 19.8021 20.8709C19.7373 20.9157 19.6696 20.936 19.6033 20.936C19.468 20.936 19.3388 20.8516 19.2539 20.7194C18.2841 19.3101 16.9348 18.1433 15.4308 17.5827C14.9108 17.3856 14.3907 17.2645 13.8566 17.1584C13.8426 17.1433 13.8144 17.1433 13.7723 17.1433C13.7629 17.1418 13.7561 17.1408 13.7513 17.14C13.7455 17.1392 13.7428 17.1388 13.7423 17.1388C13.7409 17.1388 13.753 17.141 13.7651 17.1432C13.7773 17.1454 13.7896 17.1476 13.7883 17.1476C13.7872 17.1476 13.779 17.1464 13.7582 17.1433C13.7281 17.1433 13.698 17.1389 13.67 17.1348C13.6458 17.1313 13.6232 17.128 13.6036 17.128C13.5685 17.1226 13.5334 17.1153 13.4989 17.1081C13.4368 17.0951 13.3768 17.0826 13.3225 17.0826C13.2364 17.0826 13.1502 17.0786 13.0659 17.0748C12.9852 17.0711 12.9062 17.0675 12.8306 17.0675C12.669 17.0599 12.5038 17.0561 12.3386 17.0561C12.1735 17.0561 12.0084 17.0599 11.8467 17.0675C11.0877 17.128 10.3428 17.2947 9.64007 17.5676C9.04973 17.7948 8.47341 18.113 7.92531 18.4918C7.46146 18.8101 7.11007 19.1132 6.71651 19.5374C6.44943 19.8102 6.18244 20.1132 5.95753 20.4163C5.95054 20.4389 5.93662 20.454 5.92273 20.469L5.92204 20.4698C5.92733 20.4606 5.92878 20.4569 5.92777 20.4569C5.92486 20.4569 5.90297 20.4855 5.89168 20.5108C5.88997 20.5145 5.88851 20.5183 5.88722 20.5223C5.87319 20.5527 5.84507 20.5981 5.81702 20.6285L5.81624 20.6293C5.77468 20.6741 5.76065 20.6892 5.74671 20.7194C5.66034 20.8683 5.53558 20.93 5.41268 20.93C5.13534 20.93 4.86759 20.6159 5.07206 20.2799C5.43748 19.6586 5.95753 19.1132 6.46354 18.6131C7.47549 17.6736 8.6702 16.9311 9.97736 16.5371ZM5.88722 20.5223C5.9051 20.4968 5.91596 20.4799 5.92204 20.4698C5.91057 20.482 5.8992 20.4944 5.89168 20.5108C5.88988 20.5148 5.88843 20.5186 5.88722 20.5223ZM13.1539 26.7351C13.1539 26.7401 13.1569 26.745 13.1609 26.7499L13.1539 26.7351ZM12.0717 25.3713C12.0788 25.0871 12.2845 24.947 12.4858 24.947C12.6814 24.947 12.8728 25.0795 12.8728 25.3411V25.6896C12.8728 25.6928 12.8741 25.7016 12.8758 25.7124C12.8765 25.7109 12.8773 25.7101 12.878 25.7101C12.8862 25.7101 12.9009 25.7846 12.9009 25.7956C12.929 25.9774 12.9712 26.1441 13.0133 26.3108C13.0344 26.3563 13.0485 26.4055 13.0626 26.4548C13.0766 26.5041 13.0907 26.5533 13.1118 26.5987C13.1188 26.6292 13.1259 26.652 13.1329 26.6748C13.1399 26.6974 13.1469 26.7201 13.1539 26.7502C13.1583 26.7526 13.1623 26.7561 13.1658 26.7599L13.1609 26.7499C13.1631 26.7526 13.1656 26.7553 13.1681 26.758C13.1751 26.7655 13.1821 26.773 13.1821 26.7806C13.2664 26.9927 13.3507 27.1897 13.4632 27.3716C13.4982 27.417 13.5263 27.4699 13.5544 27.5229C13.5825 27.576 13.6107 27.6291 13.6458 27.6746C13.6458 27.6822 13.674 27.7202 13.6951 27.7486C13.7085 27.7667 13.7191 27.781 13.7177 27.781C13.7168 27.781 13.7122 27.7765 13.7021 27.7655C13.7194 27.7842 13.7344 27.8055 13.7489 27.8261C13.7697 27.8557 13.7897 27.8841 13.8145 27.9019C13.9551 28.0989 14.1237 28.2807 14.3065 28.4323C14.3065 28.4398 14.31 28.4436 14.3152 28.4493C14.3205 28.455 14.3275 28.4626 14.3345 28.4777C14.3484 28.4926 14.3758 28.5075 14.4034 28.5224L14.4048 28.5232C14.446 28.5453 14.472 28.5675 14.505 28.5955C14.5172 28.6059 14.5303 28.617 14.5454 28.6292C14.6151 28.6574 14.6794 28.6973 14.745 28.7379C14.7853 28.7628 14.8259 28.788 14.8687 28.811C15.0655 28.9323 15.2622 29.0081 15.5433 29.0839C15.8403 29.1621 16.1497 29.1903 16.4657 29.1903C16.8226 29.1903 17.188 29.1543 17.5532 29.1142C17.5604 29.1136 17.5675 29.1135 17.5745 29.1135C17.7895 29.1135 17.9609 29.3335 17.9609 29.5536C17.9609 29.796 17.7641 29.9627 17.5532 29.993C17.1992 30.0312 16.8503 30.0587 16.5052 30.0587C16.0281 30.0587 15.5585 30.0061 15.0936 29.8567C14.0534 29.5082 13.2101 28.7201 12.6901 27.6897C12.3106 26.9927 12.0576 26.1744 12.0717 25.3713ZM16.3332 24.9017C16.3392 24.9227 16.3445 24.9424 16.3445 24.9622L16.3332 24.9017ZM11.8608 20.5981C12.0773 20.5648 12.2972 20.5483 12.5182 20.5483C13.9041 20.5483 15.3311 21.1948 16.2039 22.371C16.8364 23.2196 17.23 24.3107 17.2018 25.4017C17.2018 25.6955 16.9896 25.8394 16.778 25.8394C16.5749 25.8394 16.3723 25.7068 16.3585 25.4471C16.3585 25.3108 16.3585 25.1592 16.3445 25.0077C16.3445 24.9853 16.3376 24.9371 16.3341 24.9121C16.3332 24.9056 16.3325 24.9006 16.3322 24.8982L16.3321 24.898C16.3245 24.8717 16.3164 24.8434 16.3164 24.8107C16.2883 24.5683 16.218 24.3409 16.1477 24.1137C16.1394 24.0777 16.1211 24.0364 16.1047 23.9992C16.0935 23.9738 16.0831 23.9503 16.0774 23.9318L16.0715 23.9169C16.0722 23.9169 16.0705 23.9094 16.0634 23.8864C16.0634 23.8662 16.0509 23.8459 16.0384 23.8257C16.0321 23.8156 16.0259 23.8055 16.0212 23.7955C16.0065 23.7598 15.9927 23.7241 15.9792 23.6889C15.941 23.5897 15.9044 23.4949 15.8526 23.4166C15.6698 23.0984 15.5433 22.9165 15.3184 22.6742C14.8968 22.2044 14.3768 21.8558 13.7583 21.6589C13.3173 21.5057 12.8643 21.4212 12.4099 21.4212C12.01 21.4212 11.609 21.4866 11.2143 21.6285C10.8348 21.7649 10.5256 21.9619 10.2023 22.1892C9.97742 22.371 9.80877 22.5075 9.56983 22.7498C9.12008 23.2499 8.79674 23.8864 8.65623 24.5834C8.58592 24.947 8.5578 25.3108 8.5578 25.6896C8.5578 25.8563 8.57189 26.0532 8.58592 26.2199C8.58592 26.2524 8.59401 26.2893 8.60151 26.3235C8.608 26.3531 8.61406 26.3807 8.61406 26.4017C8.61612 26.4196 8.61697 26.4302 8.61697 26.4358C8.62809 26.4518 8.62809 26.4798 8.62809 26.5079C8.62984 26.521 8.63159 26.5347 8.63339 26.5487C8.64612 26.6477 8.66146 26.7672 8.69839 26.8867C9.00762 28.4929 9.8228 29.9173 10.905 31.0538C11.2 31.3482 10.9262 31.7799 10.6114 31.7799C10.5211 31.7799 10.4274 31.7444 10.3428 31.6599C9.04979 30.3112 8.12207 28.5535 7.85508 26.6139C7.71448 25.5532 7.78479 24.4622 8.19238 23.447C8.81085 21.9165 10.3288 20.7951 11.8608 20.5981ZM16.0612 23.8923C16.0607 23.8923 16.0702 23.9169 16.0715 23.9169C16.0641 23.8985 16.0613 23.8923 16.0612 23.8923Z" fill="url(#paint0_linear_1_186)"/>
<defs>
<linearGradient id="paint0_linear_1_186" x1="12.5" y1="0" x2="12.5" y2="35" gradientUnits="userSpaceOnUse">
<stop stop-color="#F5F5F7"/>
<stop offset="1" stop-color="#C1C1C2"/>
</linearGradient>
</defs>
</svg>
