<?xml version="1.0" encoding="UTF-8" ?>
<!DOCTYPE svg PUBLIC "-//W3C//DTD SVG 1.1//EN" "http://www.w3.org/Graphics/SVG/1.1/DTD/svg11.dtd">
<svg width="1056pt" height="1326pt" viewBox="0 0 1056 1326" version="1.1" xmlns="http://www.w3.org/2000/svg">
<g id="#2bc572f2">
<path fill="#2bc572" opacity="0.95" d=" M 822.50 946.49 C 900.33 859.21 978.18 771.95 1056.00 684.67 L 1056.00 692.54 C 985.18 772.18 914.14 851.64 843.23 931.21 C 820.24 957.31 796.00 982.49 776.06 1011.11 C 711.18 1102.29 677.89 1214.41 677.64 1326.00 L 672.31 1326.00 C 672.55 1281.62 677.67 1237.25 688.03 1194.09 C 705.70 1120.10 738.58 1049.52 785.54 989.55 C 797.09 974.55 809.92 960.62 822.50 946.49 Z" />
<path fill="#2bc572" opacity="0.95" d=" M 847.25 935.28 C 916.85 857.27 986.33 779.15 1056.00 701.21 L 1056.00 709.06 C 982.35 791.73 908.65 874.36 834.98 957.01 C 784.51 1013.41 747.64 1081.54 726.19 1154.03 C 709.68 1209.70 702.04 1267.96 703.29 1326.00 L 698.01 1326.00 C 697.02 1280.75 701.40 1235.38 711.15 1191.18 C 727.88 1114.81 760.93 1041.80 808.97 979.99 C 820.88 964.38 834.23 949.95 847.25 935.28 Z" />
<path fill="#2bc572" opacity="0.95" d=" M 872.23 923.22 C 933.51 854.56 994.67 785.79 1056.00 717.18 L 1056.00 725.05 C 994.78 793.79 933.47 862.48 872.23 931.20 C 861.86 942.87 851.29 954.36 841.61 966.61 C 791.81 1028.83 757.75 1103.13 740.92 1180.91 C 730.58 1228.47 726.55 1277.39 728.84 1326.00 L 723.50 1326.00 C 721.23 1275.33 725.58 1224.33 736.84 1174.86 C 754.16 1098.11 788.19 1024.92 837.39 963.40 C 848.39 949.47 860.51 936.52 872.23 923.22 Z" />
<path fill="#2bc572" opacity="0.95" d=" M 876.63 934.58 C 936.38 867.47 996.28 800.47 1056.00 733.33 L 1056.00 741.38 C 996.82 807.74 937.60 874.08 878.48 940.50 C 825.06 1001.89 787.86 1076.77 768.85 1155.77 C 755.41 1211.33 750.80 1268.99 754.91 1326.00 L 749.60 1326.00 C 744.92 1261.04 751.58 1195.25 769.47 1132.62 C 790.20 1059.87 826.54 991.38 876.63 934.58 Z" />
<path fill="#2bc572" opacity="0.95" d=" M 983.38 831.42 C 1007.54 804.15 1032.06 777.18 1056.00 749.73 L 1056.00 757.97 C 1006.01 813.98 956.06 870.03 906.09 926.06 C 853.95 984.71 816.94 1056.24 797.01 1132.01 C 780.36 1195.07 775.25 1261.11 781.63 1326.00 L 776.31 1326.00 C 769.14 1252.11 776.65 1176.72 799.07 1105.91 C 820.71 1037.11 856.71 972.66 905.16 919.14 C 931.22 889.89 957.31 860.66 983.38 831.42 Z" />
<path fill="#2bc572" opacity="0.95" d=" M 949.11 886.07 C 984.74 846.12 1020.33 806.12 1056.00 766.21 L 1056.00 774.11 C 1019.60 815.00 983.14 855.84 946.73 896.72 C 935.10 909.80 923.22 922.68 912.46 936.50 C 864.06 997.91 831.32 1071.14 815.65 1147.62 C 803.59 1206.17 801.30 1266.70 808.79 1326.00 L 803.41 1326.00 C 795.58 1262.73 798.61 1198.09 812.76 1135.91 C 830.13 1059.04 864.72 985.82 914.96 924.95 C 925.94 911.64 937.71 899.02 949.11 886.07 Z" />
<path fill="#2bc572" opacity="0.95" d=" M 949.56 901.52 C 985.05 861.75 1020.44 821.90 1056.00 782.20 L 1056.00 790.07 C 1020.12 830.48 983.95 870.65 948.20 911.18 C 897.19 970.89 861.83 1043.37 843.85 1119.69 C 827.90 1187.09 825.21 1257.55 835.71 1326.00 L 830.37 1326.00 C 819.03 1251.77 823.18 1175.18 842.68 1102.65 C 862.50 1028.70 898.77 958.95 949.56 901.52 Z" />
<path fill="#2bc572" opacity="0.95" d=" M 981.24 882.24 C 1006.16 854.27 1031.13 826.36 1056.00 798.35 L 1056.00 806.41 C 1030.88 834.49 1005.84 862.64 980.76 890.76 C 929.97 947.01 893.58 1015.73 873.61 1088.73 C 852.47 1165.72 849.14 1247.48 863.51 1326.00 L 858.15 1326.00 C 836.19 1205.61 855.89 1077.24 916.65 970.65 C 934.68 938.82 956.53 909.21 981.24 882.24 Z" />
<path fill="#2bc572" opacity="0.95" d=" M 1019.53 856.50 C 1031.65 842.80 1043.97 829.27 1056.00 815.49 L 1056.00 823.45 C 1044.90 836.19 1033.52 848.69 1022.32 861.34 C 1009.47 875.86 996.22 890.04 984.36 905.40 C 936.13 967.04 904.15 1040.81 889.72 1117.60 C 876.78 1186.32 877.52 1257.62 892.15 1326.00 L 886.78 1326.00 C 872.13 1257.32 871.53 1185.72 884.49 1116.73 C 898.98 1039.54 931.03 965.39 979.29 903.28 C 991.81 886.94 1005.90 871.90 1019.53 856.50 Z" />
<path fill="#2bc572" opacity="0.95" d=" M 1019.38 871.41 C 1031.54 857.67 1043.76 843.98 1056.00 830.30 L 1056.00 838.25 C 1045.21 850.36 1034.38 862.44 1023.63 874.59 C 974.58 930.88 939.91 999.21 921.49 1071.47 C 900.23 1154.49 899.82 1242.78 920.32 1326.00 L 914.93 1326.00 C 895.39 1246.46 895.03 1162.34 913.35 1082.54 C 931.08 1005.04 967.09 931.46 1019.38 871.41 Z" />
<path fill="#2bc572" opacity="0.95" d=" M 989.71 937.70 C 1008.07 905.01 1030.49 874.68 1056.00 847.22 L 1056.00 855.11 C 1003.89 911.92 966.88 982.02 947.51 1056.54 C 924.49 1144.45 925.21 1238.45 949.58 1326.00 L 944.15 1326.00 C 930.73 1277.94 924.72 1227.88 925.54 1178.02 C 927.02 1094.32 948.51 1010.71 989.71 937.70 Z" />
<path fill="#2bc572" opacity="0.95" d=" M 959.85 1078.06 C 974.28 1000.81 1006.75 926.58 1056.00 865.15 L 1056.00 873.53 C 1006.75 937.28 974.99 1013.93 962.59 1093.41 C 950.36 1170.85 955.92 1251.16 979.40 1326.00 L 973.92 1326.00 C 948.98 1246.19 944.55 1160.20 959.85 1078.06 Z" />
<path fill="#2bc572" opacity="0.95" d=" M 1003.09 994.94 C 1016.20 957.01 1033.59 920.40 1056.00 887.06 L 1056.00 896.44 C 1011.10 967.37 986.02 1050.27 981.96 1134.00 C 978.73 1198.96 987.84 1264.62 1009.46 1326.00 L 1003.90 1326.00 C 966.86 1219.85 966.84 1101.32 1003.09 994.94 Z" />
<path fill="#2bc572" opacity="0.95" d=" M 1002.03 1168.00 C 998.33 1082.01 1016.20 994.72 1056.00 918.23 L 1056.00 930.02 C 1042.14 957.95 1031.45 987.41 1023.41 1017.51 C 998.90 1110.30 1001.55 1210.20 1031.57 1301.40 C 1033.95 1309.37 1037.35 1316.99 1039.63 1324.99 C 1037.99 1325.26 1036.35 1325.55 1034.73 1325.84 C 1015.16 1275.54 1004.42 1221.89 1002.03 1168.00 Z" />
<path fill="#2bc572" opacity="0.95" d=" M 1040.46 1014.73 C 1044.77 997.31 1049.51 979.94 1056.00 963.20 L 1056.00 979.29 C 1024.09 1077.35 1024.09 1185.58 1056.00 1283.64 L 1056.00 1300.49 C 1023.30 1209.41 1017.97 1108.82 1040.46 1014.73 Z" />
<path fill="#2bc572" opacity="0.95" d=" M 1052.50 1131.73 C 1051.88 1106.90 1052.82 1082.00 1056.00 1057.35 L 1056.00 1176.74 C 1053.80 1161.84 1053.06 1146.77 1052.50 1131.73 Z" />
</g>
</svg>
