<svg width="44" height="44" viewBox="0 0 44 44" fill="none" xmlns="http://www.w3.org/2000/svg">
<rect x="3.03418" y="14.3291" width="37.4253" height="25.7931" fill="black"/>
<rect x="3.03418" y="2.69727" width="37.4253" height="7.75479" fill="black"/>
<path d="M44 10.3984V3.95312C44 1.82076 42.2652 0.0859375 40.1328 0.0859375H3.86719C1.73482 0.0859375 0 1.82076 0 3.95312V10.3984H44ZM29.7344 5.24219H37.4688C38.1807 5.24219 38.7578 5.81934 38.7578 6.53125C38.7578 7.24316 38.1807 7.82031 37.4688 7.82031H29.7344C29.0225 7.82031 28.4453 7.24316 28.4453 6.53125C28.4453 5.81934 29.0225 5.24219 29.7344 5.24219ZM16.8438 5.24219C17.5557 5.24219 18.1328 5.81934 18.1328 6.53125C18.1328 7.24316 17.5557 7.82031 16.8438 7.82031C16.1318 7.82031 15.5547 7.24316 15.5547 6.53125C15.5547 5.81934 16.1318 5.24219 16.8438 5.24219ZM11.6875 5.24219C12.3994 5.24219 12.9766 5.81934 12.9766 6.53125C12.9766 7.24316 12.3994 7.82031 11.6875 7.82031C10.9756 7.82031 10.3984 7.24316 10.3984 6.53125C10.3984 5.81934 10.9756 5.24219 11.6875 5.24219ZM6.53125 5.24219C7.24316 5.24219 7.82031 5.81934 7.82031 6.53125C7.82031 7.24316 7.24316 7.82031 6.53125 7.82031C5.81934 7.82031 5.24219 7.24316 5.24219 6.53125C5.24219 5.81934 5.81934 5.24219 6.53125 5.24219Z" fill="#C1C1C2"/>
<path d="M0 12.9766V40.0469C0 42.1792 1.73482 43.9141 3.86719 43.9141H40.1328C42.2652 43.9141 44 42.1792 44 40.0469V12.9766H0ZM15.0709 31.3059C15.6269 31.7506 15.7169 32.5618 15.2722 33.1177C14.8276 33.6736 14.0162 33.7638 13.4604 33.319L7.01508 28.1628C6.37063 27.6474 6.3702 26.6654 7.01508 26.1496L13.4604 20.9933C14.0161 20.5486 14.8274 20.6387 15.2722 21.1946C15.7169 21.7505 15.6269 22.5618 15.0709 23.0064L9.88384 27.1562L15.0709 31.3059ZM27.052 18.6406L19.3176 36.6875C19.0372 37.3417 18.2796 37.6451 17.625 37.3645C16.9707 37.0841 16.6675 36.3262 16.948 35.6719L24.6824 17.625C24.9629 16.9707 25.7207 16.6676 26.375 16.948C27.0293 17.2284 27.3325 17.9862 27.052 18.6406ZM36.9849 28.1628L30.5396 33.3191C29.9846 33.7632 29.1732 33.6745 28.7278 33.1178C28.2831 32.5619 28.3731 31.7506 28.9291 31.306L34.1162 27.1562L28.9291 23.0066C28.3731 22.5619 28.2831 21.7507 28.7278 21.1948C29.1724 20.6388 29.9837 20.5487 30.5396 20.9935L36.9849 26.1498C37.6294 26.6651 37.6298 27.647 36.9849 28.1628Z" fill="#C1C1C2"/>
</svg>
