<svg width="44" height="44" viewBox="0 0 44 44" fill="none" xmlns="http://www.w3.org/2000/svg">
<path d="M38.7578 11.6016L29.7344 9.02344L27.1562 0H9.10938C6.97357 0 5.24219 1.73138 5.24219 3.86719V40.1328C5.24219 42.2686 6.97357 44 9.10938 44H34.8906C37.0264 44 38.7578 42.2686 38.7578 40.1328V11.6016Z" fill="#E0E0E1"/>
<path d="M38.7578 11.6016H29.7344C28.3164 11.6016 27.1562 10.4414 27.1562 9.02344V0C27.4914 0 27.8266 0.128906 28.0585 0.386805L38.371 10.6993C38.6289 10.9312 38.7578 11.2664 38.7578 11.6016Z" fill="#C1C1C2"/>
<path d="M28.882 14.3516H31.6995L25.8275 19.8549C24.774 20.8082 23.4038 21.3361 21.983 21.3361C20.5622 21.3361 19.1921 20.8082 18.1386 19.8549L12.2666 14.3516H15.0841L19.5342 18.512C20.1987 19.1219 21.0679 19.4603 21.9699 19.4603C22.8719 19.4603 23.741 19.1219 24.4056 18.512L28.882 14.3516Z" fill="black"/>
<path d="M15.0558 29.6242H12.2383L18.1366 24.0945C19.1843 23.1295 20.5566 22.5938 21.981 22.5938C23.4055 22.5938 24.7778 23.1295 25.8255 24.0945L31.7238 29.6242H28.9063L24.4299 25.4111C23.7654 24.8012 22.8962 24.4628 21.9942 24.4628C21.0922 24.4628 20.2231 24.8012 19.5585 25.4111L15.0558 29.6242Z" fill="black"/>
</svg>
