<svg width="48" height="49" viewBox="0 0 48 49" fill="none" xmlns="http://www.w3.org/2000/svg">
<path d="M10 20C15.5228 20 20 15.5228 20 10C20 4.47715 15.5228 0 10 0C4.47715 0 0 4.47715 0 10C0 15.5228 4.47715 20 10 20Z" fill="#FF198B"/>
<mask id="mask0_1952_16952" style="mask-type:luminance" maskUnits="userSpaceOnUse" x="0" y="0" width="48" height="49">
<path d="M48 0.259766H0V48.2598H48V0.259766Z" fill="white"/>
</mask>
<g mask="url(#mask0_1952_16952)">
<path d="M32.8954 12.2598H15.1046C14.4945 12.2598 14 12.7543 14 13.3643V17.1552C14 17.7652 14.4945 18.2598 15.1046 18.2598H32.8954C33.5055 18.2598 34 17.7652 34 17.1552V13.3643C34 12.7543 33.5055 12.2598 32.8954 12.2598Z" stroke="#343437" stroke-width="2" stroke-linecap="round" stroke-linejoin="round"/>
<path d="M16.1641 18.2598L10.9692 24.1968C7.76056 27.8638 7.08794 33.1071 9.26704 37.4653L9.45304 37.8373C10.8081 40.5477 13.5783 42.2597 16.6085 42.2598H31.4146C34.4448 42.2598 37.2149 40.5477 38.57 37.8374L38.7328 37.5117C40.9236 33.1303 40.2312 27.8571 36.9835 24.1897L31.7324 18.2598" stroke="#343437" stroke-width="2" stroke-linecap="round" stroke-linejoin="round"/>
<path d="M30.902 12.2598L32.4935 9.17724C33.0002 8.19576 32.6154 6.98932 31.6339 6.48262C31.3502 6.33618 31.0356 6.25977 30.7164 6.25977H17.2834C16.1788 6.25979 15.2834 7.15524 15.2834 8.25981C15.2835 8.57902 15.3599 8.8936 15.5063 9.17724L17.098 12.2598" stroke="#343437" stroke-width="2" stroke-linecap="round" stroke-linejoin="round"/>
</g>
</svg>
