<svg width="50" height="50" viewBox="0 0 50 50" fill="none" xmlns="http://www.w3.org/2000/svg">
<circle cx="10" cy="10" r="10" fill="#FAFF19"/>
<path d="M25.0013 14.1665C21.9141 14.1665 19.4141 16.6532 19.4141 19.7216C19.4141 22.7895 21.914 25.2777 25.0013 25.2777C28.0868 25.2777 30.588 22.7894 30.588 19.7216C30.588 16.6531 28.0868 14.1665 25.0013 14.1665ZM25.0013 23.611C22.8451 23.611 21.0907 21.8661 21.0907 19.7216C21.0907 17.5776 22.8452 15.8332 25.0013 15.8332C27.1574 15.8332 28.9112 17.5776 28.9112 19.7216C28.9113 21.8661 27.1574 23.611 25.0013 23.611Z" fill="#343437"/>
<path d="M32.2298 4.72229C29.7598 4.72229 27.7598 6.71174 27.7598 9.16614C27.7598 11.621 29.7592 13.6111 32.2298 13.6111C34.6976 13.6111 36.6987 11.621 36.6987 9.16614C36.6987 6.71174 34.6977 4.72229 32.2298 4.72229ZM32.2298 11.9445C30.6893 11.9445 29.4359 10.6978 29.4359 9.16614C29.4354 7.63499 30.6887 6.38889 32.2298 6.38889C33.7698 6.38889 35.0221 7.63499 35.0221 9.16614C35.0221 10.6978 33.7698 11.9445 32.2298 11.9445Z" fill="#343437"/>
<path d="M46.2438 27.3689C45.6916 27.3689 45.1822 27.5028 44.7294 27.7045C44.0433 26.83 42.9771 26.2645 41.7749 26.2634C41.1532 26.2628 40.5821 26.4272 40.091 26.6729L38.5049 27.6067C37.8166 26.7884 36.7859 26.264 35.6293 26.2634C35.0077 26.2628 34.4371 26.4272 33.9459 26.6729L28.237 30.1467C26.8515 29.7389 20.8342 28.0416 19.6771 27.7512C19.0965 27.6057 18.5898 27.4861 18.1749 27.4012C17.9672 27.359 17.7827 27.3245 17.6188 27.2995C17.4526 27.2751 17.3143 27.2579 17.1576 27.2573C17.037 27.2579 16.9332 27.269 16.8137 27.2829C16.381 27.3401 15.7653 27.4713 15.0393 27.64C13.5554 27.9872 11.6609 28.4911 10.6148 28.7745V27.2223C10.6148 26.0001 9.60986 25 8.38096 25H2.23437C1.00615 25 0 26 0 27.2223V44.4445C0 45.6667 1.00615 46.6668 2.23437 46.6668H8.37988C9.60937 46.6668 10.6138 45.6668 10.6138 44.4445V43.1073C11.9398 43.3945 14.8838 44.0268 17.9871 44.6607C20.0859 45.089 22.2555 45.5179 24.0466 45.8412C24.9427 46.0024 25.7449 46.1373 26.4005 46.2328C27.0621 46.3283 27.5561 46.3872 27.9321 46.389C28.2249 46.3879 28.5016 46.3322 28.801 46.2512C29.3582 46.095 29.9921 45.8301 30.7177 45.4795C33.2432 44.255 36.8705 41.9607 40.2921 39.6905C43.7076 37.4238 46.902 35.1845 48.4677 34.1127C49.4487 33.4404 49.9999 32.3061 49.9999 31.105C49.9988 29.0422 48.3194 27.3694 46.2438 27.3689ZM8.93887 44.4444C8.93887 44.7455 8.68271 45 8.37998 45H2.23437C1.93164 45 1.67549 44.7455 1.67549 44.4444V27.2223C1.67549 26.9212 1.93164 26.6667 2.23437 26.6667H8.37988C8.68262 26.6667 8.93877 26.9212 8.93877 27.2223V44.4444H8.93887ZM47.5194 32.7399C45.5938 34.0589 41.286 37.0838 37.1161 39.7766C35.0333 41.1222 32.9839 42.3838 31.3039 43.2988C30.465 43.7561 29.7167 44.1261 29.1178 44.3728C28.8189 44.4967 28.5572 44.5889 28.35 44.6461C28.1438 44.7044 27.989 44.7238 27.9322 44.7228C27.7494 44.7244 27.2656 44.6762 26.6444 44.5844C24.4428 44.2639 20.3228 43.4454 16.7755 42.71C15.0005 42.3416 13.3645 41.9944 12.1727 41.7383C11.4805 41.59 10.9454 41.4738 10.6132 41.4022V30.5027C10.7765 30.4583 10.9915 30.3999 11.2493 30.33C12.1327 30.0917 13.481 29.7344 14.6898 29.4384C15.2932 29.29 15.8637 29.1579 16.3171 29.064C16.5432 29.0174 16.7398 28.9806 16.8915 28.9567C17.0403 28.9317 17.1554 28.9234 17.1565 28.9245C17.1599 28.9239 17.2477 28.9295 17.3671 28.9479C17.8293 29.0167 18.7776 29.2372 19.9321 29.5384C23.4122 30.4417 28.8993 32.0756 31.116 32.7456C31.8827 32.9756 32.5776 33.3223 33.0327 33.7429C33.2621 33.9529 33.4338 34.1774 33.5494 34.4201C33.6655 34.664 33.7305 34.9284 33.7316 35.2507C33.7311 35.9045 33.4678 36.4891 33.0366 36.9185C32.6089 37.3423 32.0277 37.6024 31.3783 37.6078L29.2167 37.3973L21.8367 36.4556C21.3773 36.3973 20.9567 36.7194 20.8983 37.1756C20.84 37.6323 21.1645 38.0501 21.6233 38.1084L29.0272 39.0533L31.3189 39.2767H31.3601C33.5951 39.2756 35.4073 37.4744 35.4084 35.2511C35.4095 34.691 35.2845 34.1661 35.064 33.705C34.7317 33.0111 34.1968 32.4738 33.5929 32.0649C32.9862 31.655 32.3018 31.3628 31.604 31.1517C31.2696 31.0505 30.8584 30.9267 30.3946 30.7883L34.7124 28.1577C35.0074 28.0127 35.3097 27.9311 35.6291 27.9305C36.1708 27.9299 36.6596 28.1388 37.0297 28.4767L34.7825 29.8017C34.3847 30.0361 34.2536 30.5478 34.4897 30.9439C34.7265 31.3394 35.2403 31.4699 35.6381 31.235L40.8531 28.1594C41.1498 28.0127 41.4537 27.9311 41.7748 27.9305C42.3531 27.9299 42.873 28.1693 43.2492 28.5494L37.1765 32.1312C36.7781 32.3656 36.647 32.8773 36.8837 33.2733C37.1198 33.6689 37.6337 33.7994 38.0314 33.5645L45.323 29.264C45.6191 29.1189 45.9225 29.0367 46.2431 29.0361C46.8191 29.0367 47.3348 29.2661 47.7131 29.6428C48.0908 30.02 48.3226 30.5322 48.3231 31.1062C48.3238 31.8033 48.0016 32.4133 47.5194 32.7399Z" fill="#343437"/>
</svg>
