<svg id="Layer_1" data-name="Layer 1" xmlns="http://www.w3.org/2000/svg" viewBox="0 0 60 60"><defs><style>.cls-1{fill:#f1f5f5;}.cls-2{fill:#e9eded;}.cls-3{fill:#2fd184;}.cls-4{fill:#d0d4d4;}</style></defs><title>icon-xrp-use-payment-channels</title><path class="cls-1" d="M34.12,20H40V0H27.45C15.21,0,15,20,0,20H12.55a8,8,0,0,1,1.69.18,8.82,8.82,0,0,1,1.63.52,9.93,9.93,0,0,1,1.56.85A16,16,0,0,1,23.33,30h0C25.38,23.87,29.55,20,34.12,20Z"/><path class="cls-2" d="M17.43,38.45a9.93,9.93,0,0,1-1.56.85,8.82,8.82,0,0,1-1.63.52,8,8,0,0,1-1.69.18H0c15,0,16.16,20,27.45,20H40V40H34.12c-4.57,0-8.74-3.87-10.79-10a17.91,17.91,0,0,1-3.76,6.61A12.16,12.16,0,0,1,17.43,38.45Z"/><path class="cls-3" d="M14.24,39.82a8.82,8.82,0,0,0,1.63-.52,9.93,9.93,0,0,0,1.56-.85,12.16,12.16,0,0,0,2.14-1.84A17.91,17.91,0,0,0,23.33,30a16,16,0,0,0-5.9-8.45,9.93,9.93,0,0,0-1.56-.85,8.82,8.82,0,0,0-1.63-.52A8,8,0,0,0,12.55,20H0V40H12.55A8,8,0,0,0,14.24,39.82Z"/><path class="cls-3" d="M60,0H40V20A20,20,0,0,0,60,0Z"/><path class="cls-4" d="M60,60A20,20,0,0,0,40,40V60Z"/></svg>