<svg width="352" height="442" viewBox="0 0 352 442" fill="none" xmlns="http://www.w3.org/2000/svg">
<rect width="352" height="442" rx="8" fill="#232325"/>
<mask id="mask0_1873_55416" style="mask-type:alpha" maskUnits="userSpaceOnUse" x="0" y="0" width="352" height="442">
<rect width="352" height="442" rx="8" fill="#232325"/>
</mask>
<g mask="url(#mask0_1873_55416)">
<path d="M1888.41 230.556C1888.39 230.488 1888.3 230.468 1888.25 230.521L1764.21 369.933C1726.79 412.054 1726.79 480.305 1764.21 522.427L1888.13 661.7C1888.18 661.754 1888.27 661.72 1888.27 661.647V661.647C1888.27 661.574 1888.36 661.539 1888.41 661.594L2051.68 845.079C2110.81 911.553 2110.81 1019.31 2051.68 1085.79L1888.27 1269.43L1881.28 1277.16L1719.8 1462.69C1661.31 1529.89 1566.5 1529.89 1508.02 1462.69L1346.56 1277.09C1346.52 1277.04 1346.56 1276.95 1346.63 1276.95V1276.95C1346.7 1276.95 1346.74 1276.87 1346.69 1276.82L1224.41 1136.38C1187.35 1093.84 1127.3 1093.84 1090.24 1136.38L967.51 1277.44C967.49 1277.46 967.463 1277.48 967.433 1277.48V1277.48C967.404 1277.48 967.376 1277.49 967.357 1277.51L806.275 1462.69C747.789 1529.89 652.979 1529.89 594.493 1462.69L432.92 1276.95L426.759 1270.47L263.347 1086.94C204.218 1020.46 204.218 912.703 263.347 846.229L426.851 662.901L550.996 523.367C588.423 481.246 588.423 412.995 550.996 370.873L427.082 231.6C427.033 231.546 426.943 231.58 426.943 231.653V231.653C426.943 231.726 426.853 231.761 426.804 231.706L263.531 48.2214C204.401 -18.2531 204.401 -126.013 263.531 -192.487L426.943 -376.128L433.932 -383.863L595.504 -569.594C653.99 -636.8 748.8 -636.8 807.286 -569.594L968.616 -383.932C968.675 -383.864 968.627 -383.758 968.537 -383.758V-383.758C968.447 -383.758 968.399 -383.653 968.458 -383.585L1090.7 -243.179C1127.76 -200.64 1187.81 -200.64 1224.87 -243.179L1347.55 -384.177C1347.61 -384.243 1347.69 -384.281 1347.78 -384.281V-384.281C1347.86 -384.281 1347.95 -384.319 1348.01 -384.385L1509.12 -569.49C1567.61 -636.696 1662.42 -636.696 1720.9 -569.49L1882.29 -383.758L1888.45 -377.278L2051.86 -193.637C2110.99 -127.163 2110.99 -19.4029 2051.86 47.0716L1888.56 230.591C1888.51 230.644 1888.43 230.624 1888.41 230.556V230.556Z" stroke="url(#paint0_linear_1873_55416)" stroke-width="1.75" stroke-miterlimit="10" stroke-linecap="round"/>
<path d="M1888.41 230.556C1888.39 230.488 1888.3 230.468 1888.25 230.521L1764.21 369.933C1726.79 412.054 1726.79 480.305 1764.21 522.427L1888.13 661.7C1888.18 661.754 1888.27 661.72 1888.27 661.647V661.647C1888.27 661.574 1888.36 661.539 1888.41 661.594L2051.68 845.079C2110.81 911.553 2110.81 1019.31 2051.68 1085.79L1888.27 1269.43L1881.28 1277.16L1719.8 1462.69C1661.31 1529.89 1566.5 1529.89 1508.02 1462.69L1346.56 1277.09C1346.52 1277.04 1346.56 1276.95 1346.63 1276.95V1276.95C1346.7 1276.95 1346.74 1276.87 1346.69 1276.82L1224.41 1136.38C1187.35 1093.84 1127.3 1093.84 1090.24 1136.38L967.51 1277.44C967.49 1277.46 967.463 1277.48 967.433 1277.48V1277.48C967.404 1277.48 967.376 1277.49 967.357 1277.51L806.275 1462.69C747.789 1529.89 652.979 1529.89 594.493 1462.69L432.92 1276.95L426.759 1270.47L263.347 1086.94C204.218 1020.46 204.218 912.703 263.347 846.229L426.851 662.901L550.996 523.367C588.423 481.246 588.423 412.995 550.996 370.873L427.082 231.6C427.033 231.546 426.943 231.58 426.943 231.653V231.653C426.943 231.726 426.853 231.761 426.804 231.706L263.531 48.2214C204.401 -18.2531 204.401 -126.013 263.531 -192.487L426.943 -376.128L433.932 -383.863L595.504 -569.594C653.99 -636.8 748.8 -636.8 807.286 -569.594L968.616 -383.932C968.675 -383.864 968.627 -383.758 968.537 -383.758V-383.758C968.447 -383.758 968.399 -383.653 968.458 -383.585L1090.7 -243.179C1127.76 -200.64 1187.81 -200.64 1224.87 -243.179L1347.55 -384.177C1347.61 -384.243 1347.69 -384.281 1347.78 -384.281V-384.281C1347.86 -384.281 1347.95 -384.319 1348.01 -384.385L1509.12 -569.49C1567.61 -636.696 1662.42 -636.696 1720.9 -569.49L1882.29 -383.758L1888.45 -377.278L2051.86 -193.637C2110.99 -127.163 2110.99 -19.4029 2051.86 47.0716L1888.56 230.591C1888.51 230.644 1888.43 230.624 1888.41 230.556V230.556Z" stroke="url(#paint1_linear_1873_55416)" stroke-width="1.75" stroke-miterlimit="10" stroke-linecap="round"/>
<path d="M1881.92 232.489C1881.88 232.391 1881.75 232.371 1881.68 232.451L1758.88 370.559C1721.73 412.263 1721.73 479.887 1758.88 521.59L1881.69 659.609C1881.74 659.664 1881.83 659.629 1881.83 659.556V659.556C1881.83 659.483 1881.92 659.449 1881.97 659.503L2043.77 841.316C2102.35 907.163 2102.35 1013.98 2043.77 1079.83L1881.83 1261.8L1874.93 1269.43L1714.74 1453.59C1656.8 1520.17 1562.82 1520.17 1504.89 1453.59L1344.91 1269.67C1344.86 1269.62 1344.9 1269.53 1344.97 1269.53V1269.53C1345.04 1269.53 1345.08 1269.45 1345.03 1269.39L1223.95 1130.21C1187.26 1087.98 1127.76 1087.98 1091.07 1130.21L969.5 1269.85C969.442 1269.91 969.359 1269.95 969.271 1269.95V1269.95C969.184 1269.95 969.1 1269.99 969.043 1270.05L809.4 1453.59C751.466 1520.17 657.483 1520.17 599.549 1453.59L439.448 1269.53L433.287 1263.16L271.438 1081.19C212.86 1015.34 212.86 908.522 271.438 842.675L433.471 660.915L556.42 522.636C593.572 480.932 593.572 413.308 556.42 371.605L433.61 233.586C433.561 233.531 433.471 233.566 433.471 233.639V233.639C433.471 233.712 433.38 233.746 433.332 233.692L271.53 51.8792C212.952 -13.9681 212.952 -120.787 271.53 -186.635L433.471 -368.603L440.368 -376.233L600.469 -560.292C658.403 -626.871 752.385 -626.871 810.32 -560.292L970.3 -376.372C970.347 -376.318 970.309 -376.233 970.237 -376.233V-376.233C970.165 -376.233 970.126 -376.149 970.174 -376.094L1091.35 -236.909C1128.04 -194.683 1187.54 -194.683 1224.23 -236.908L1345.8 -376.547C1345.86 -376.613 1345.94 -376.651 1346.03 -376.651V-376.651C1346.12 -376.651 1346.2 -376.689 1346.26 -376.755L1505.9 -560.188C1563.83 -626.767 1657.82 -626.767 1715.75 -560.188L1875.85 -376.129L1882.01 -369.753L2043.95 -187.784C2102.53 -121.937 2102.53 -15.1179 2043.95 50.7294L1882.16 232.528C1882.09 232.607 1881.96 232.587 1881.92 232.489V232.489Z" stroke="url(#paint2_linear_1873_55416)" stroke-width="1.75" stroke-miterlimit="10" stroke-linecap="round"/>
<path d="M1881.92 232.489C1881.88 232.391 1881.75 232.371 1881.68 232.451L1758.88 370.559C1721.73 412.263 1721.73 479.887 1758.88 521.59L1881.69 659.609C1881.74 659.664 1881.83 659.629 1881.83 659.556V659.556C1881.83 659.483 1881.92 659.449 1881.97 659.503L2043.77 841.316C2102.35 907.163 2102.35 1013.98 2043.77 1079.83L1881.83 1261.8L1874.93 1269.43L1714.74 1453.59C1656.8 1520.17 1562.82 1520.17 1504.89 1453.59L1344.91 1269.67C1344.86 1269.62 1344.9 1269.53 1344.97 1269.53V1269.53C1345.04 1269.53 1345.08 1269.45 1345.03 1269.39L1223.95 1130.21C1187.26 1087.98 1127.76 1087.98 1091.07 1130.21L969.5 1269.85C969.442 1269.91 969.359 1269.95 969.271 1269.95V1269.95C969.184 1269.95 969.1 1269.99 969.043 1270.05L809.4 1453.59C751.466 1520.17 657.483 1520.17 599.549 1453.59L439.448 1269.53L433.287 1263.16L271.438 1081.19C212.86 1015.34 212.86 908.522 271.438 842.675L433.471 660.915L556.42 522.636C593.572 480.932 593.572 413.308 556.42 371.605L433.61 233.586C433.561 233.531 433.471 233.566 433.471 233.639V233.639C433.471 233.712 433.38 233.746 433.332 233.692L271.53 51.8792C212.952 -13.9681 212.952 -120.787 271.53 -186.635L433.471 -368.603L440.368 -376.233L600.469 -560.292C658.403 -626.871 752.385 -626.871 810.32 -560.292L970.3 -376.372C970.347 -376.318 970.309 -376.233 970.237 -376.233V-376.233C970.165 -376.233 970.126 -376.149 970.174 -376.094L1091.35 -236.909C1128.04 -194.683 1187.54 -194.683 1224.23 -236.908L1345.8 -376.547C1345.86 -376.613 1345.94 -376.651 1346.03 -376.651V-376.651C1346.12 -376.651 1346.2 -376.689 1346.26 -376.755L1505.9 -560.188C1563.83 -626.767 1657.82 -626.767 1715.75 -560.188L1875.85 -376.129L1882.01 -369.753L2043.95 -187.784C2102.53 -121.937 2102.53 -15.1179 2043.95 50.7294L1882.16 232.528C1882.09 232.607 1881.96 232.587 1881.92 232.489V232.489Z" stroke="url(#paint3_linear_1873_55416)" stroke-width="1.75" stroke-miterlimit="10" stroke-linecap="round"/>
<path d="M1875.3 234.424C1875.26 234.346 1875.15 234.336 1875.09 234.403L1753.36 371.292C1716.58 412.682 1716.58 479.679 1753.36 520.964L1875.07 657.729C1875.12 657.783 1875.21 657.749 1875.21 657.676V657.676C1875.21 657.603 1875.3 657.568 1875.35 657.623L2035.68 837.763C2093.8 903.088 2093.8 1008.86 2035.68 1074.19L1875.21 1254.48L1868.41 1262.01L1709.68 1444.4C1652.21 1510.45 1559.15 1510.45 1501.67 1444.4L1343.16 1262.15C1343.12 1262.09 1343.15 1262.01 1343.23 1262.01V1262.01C1343.3 1262.01 1343.34 1261.92 1343.29 1261.87L1223.22 1123.94C1186.8 1082.13 1127.86 1082.13 1091.53 1123.94L971.157 1262.43C971.1 1262.49 971.017 1262.53 970.929 1262.53V1262.53C970.841 1262.53 970.758 1262.57 970.7 1262.64L812.529 1444.4C755.055 1510.45 661.992 1510.45 604.517 1444.4L445.979 1262.11L439.91 1255.84L279.441 1075.44C221.323 1010.12 221.323 904.342 279.441 839.017L440.002 658.93L561.848 522.009C598.632 480.62 598.632 413.623 561.848 372.337L440.141 235.573C440.092 235.518 440.002 235.552 440.002 235.626V235.626C440.002 235.699 439.912 235.733 439.863 235.678L279.533 55.5382C221.415 -9.78653 221.415 -115.56 279.533 -180.885L440.002 -361.182L446.807 -368.707L605.437 -551.094C662.911 -617.15 755.974 -617.15 813.449 -551.094L971.958 -368.846C972.005 -368.792 971.966 -368.707 971.895 -368.707V-368.707C971.823 -368.707 971.784 -368.622 971.831 -368.568L1091.9 -230.637C1128.32 -188.829 1187.26 -188.829 1223.59 -230.637L1344.05 -369.021C1344.11 -369.087 1344.2 -369.125 1344.28 -369.125V-369.125C1344.37 -369.125 1344.45 -369.163 1344.51 -369.229L1502.68 -551.094C1560.16 -617.15 1653.22 -617.15 1710.7 -551.094L1869.32 -368.707L1875.39 -362.436L2035.86 -182.139C2093.98 -116.815 2093.98 -11.0408 2035.86 54.284L1875.52 234.445C1875.46 234.512 1875.35 234.501 1875.3 234.424V234.424Z" stroke="url(#paint4_linear_1873_55416)" stroke-width="1.75" stroke-miterlimit="10" stroke-linecap="round"/>
<path d="M1875.3 234.424C1875.26 234.346 1875.15 234.336 1875.09 234.403L1753.36 371.292C1716.58 412.682 1716.58 479.679 1753.36 520.964L1875.07 657.729C1875.12 657.783 1875.21 657.749 1875.21 657.676V657.676C1875.21 657.603 1875.3 657.568 1875.35 657.623L2035.68 837.763C2093.8 903.088 2093.8 1008.86 2035.68 1074.19L1875.21 1254.48L1868.41 1262.01L1709.68 1444.4C1652.21 1510.45 1559.15 1510.45 1501.67 1444.4L1343.16 1262.15C1343.12 1262.09 1343.15 1262.01 1343.23 1262.01V1262.01C1343.3 1262.01 1343.34 1261.92 1343.29 1261.87L1223.22 1123.94C1186.8 1082.13 1127.86 1082.13 1091.53 1123.94L971.157 1262.43C971.1 1262.49 971.017 1262.53 970.929 1262.53V1262.53C970.841 1262.53 970.758 1262.57 970.7 1262.64L812.529 1444.4C755.055 1510.45 661.992 1510.45 604.517 1444.4L445.979 1262.11L439.91 1255.84L279.441 1075.44C221.323 1010.12 221.323 904.342 279.441 839.017L440.002 658.93L561.848 522.009C598.632 480.62 598.632 413.623 561.848 372.337L440.141 235.573C440.092 235.518 440.002 235.552 440.002 235.626V235.626C440.002 235.699 439.912 235.733 439.863 235.678L279.533 55.5382C221.415 -9.78653 221.415 -115.56 279.533 -180.885L440.002 -361.182L446.807 -368.707L605.437 -551.094C662.911 -617.15 755.974 -617.15 813.449 -551.094L971.958 -368.846C972.005 -368.792 971.966 -368.707 971.895 -368.707V-368.707C971.823 -368.707 971.784 -368.622 971.831 -368.568L1091.9 -230.637C1128.32 -188.829 1187.26 -188.829 1223.59 -230.637L1344.05 -369.021C1344.11 -369.087 1344.2 -369.125 1344.28 -369.125V-369.125C1344.37 -369.125 1344.45 -369.163 1344.51 -369.229L1502.68 -551.094C1560.16 -617.15 1653.22 -617.15 1710.7 -551.094L1869.32 -368.707L1875.39 -362.436L2035.86 -182.139C2093.98 -116.815 2093.98 -11.0408 2035.86 54.284L1875.52 234.445C1875.46 234.512 1875.35 234.501 1875.3 234.424V234.424Z" stroke="url(#paint5_linear_1873_55416)" stroke-width="1.75" stroke-miterlimit="10" stroke-linecap="round"/>
<path d="M1868.73 236.304C1868.7 236.276 1868.66 236.276 1868.63 236.304L1747.94 371.918C1711.52 412.89 1711.52 479.26 1747.94 520.232L1868.54 655.742C1868.59 655.797 1868.68 655.762 1868.68 655.689V655.689C1868.68 655.616 1868.77 655.582 1868.82 655.636L2027.68 834.104C2085.24 898.802 2085.24 1003.63 2027.68 1068.33L1868.68 1246.96L1861.88 1254.48L1704.63 1435.3C1647.7 1500.73 1555.47 1500.73 1498.54 1435.3L1341.51 1254.73C1341.46 1254.67 1341.5 1254.59 1341.57 1254.59V1254.59C1341.64 1254.59 1341.68 1254.5 1341.63 1254.45L1222.67 1117.77C1186.62 1076.38 1128.22 1076.38 1092.18 1117.77L972.904 1254.9C972.847 1254.97 972.763 1255 972.676 1255V1255C972.588 1255 972.505 1255.04 972.447 1255.11L815.747 1435.3C758.824 1500.73 666.589 1500.73 609.667 1435.3L452.416 1254.59L446.347 1248.32L287.441 1069.69C229.875 1004.99 229.875 900.16 287.441 835.463L446.531 657.048L567.273 521.277C603.689 480.305 603.689 413.935 567.273 372.964L446.67 237.453C446.621 237.399 446.531 237.433 446.531 237.506V237.506C446.531 237.579 446.441 237.614 446.392 237.559L287.533 59.0913C229.967 -5.60637 229.967 -110.439 287.533 -175.137L446.531 -353.761L453.336 -361.286L610.586 -542.001C667.509 -607.43 759.744 -607.43 816.667 -542.001L973.704 -361.53C973.752 -361.475 973.713 -361.391 973.641 -361.391V-361.391C973.569 -361.391 973.531 -361.306 973.578 -361.252L1092.45 -224.575C1128.5 -183.185 1186.89 -183.185 1222.94 -224.575L1342.31 -361.705C1342.36 -361.771 1342.45 -361.809 1342.54 -361.809V-361.809C1342.62 -361.809 1342.71 -361.847 1342.76 -361.913L1499.46 -542.105C1556.39 -607.535 1648.62 -607.535 1705.54 -542.105L1862.7 -361.391L1868.77 -355.12L2027.77 -176.496C2085.34 -111.798 2085.34 -6.96502 2027.77 57.7326L1868.82 236.305C1868.79 236.332 1868.75 236.332 1868.73 236.304V236.304Z" stroke="url(#paint6_linear_1873_55416)" stroke-width="1.75" stroke-miterlimit="10" stroke-linecap="round"/>
<path d="M1868.73 236.304C1868.7 236.276 1868.66 236.276 1868.63 236.304L1747.94 371.918C1711.52 412.89 1711.52 479.26 1747.94 520.232L1868.54 655.742C1868.59 655.797 1868.68 655.762 1868.68 655.689V655.689C1868.68 655.616 1868.77 655.582 1868.82 655.636L2027.68 834.104C2085.24 898.802 2085.24 1003.63 2027.68 1068.33L1868.68 1246.96L1861.88 1254.48L1704.63 1435.3C1647.7 1500.73 1555.47 1500.73 1498.54 1435.3L1341.51 1254.73C1341.46 1254.67 1341.5 1254.59 1341.57 1254.59V1254.59C1341.64 1254.59 1341.68 1254.5 1341.63 1254.45L1222.67 1117.77C1186.62 1076.38 1128.22 1076.38 1092.18 1117.77L972.904 1254.9C972.847 1254.97 972.763 1255 972.676 1255V1255C972.588 1255 972.505 1255.04 972.447 1255.11L815.747 1435.3C758.824 1500.73 666.589 1500.73 609.667 1435.3L452.416 1254.59L446.347 1248.32L287.441 1069.69C229.875 1004.99 229.875 900.16 287.441 835.463L446.531 657.048L567.273 521.277C603.689 480.305 603.689 413.935 567.273 372.964L446.67 237.453C446.621 237.399 446.531 237.433 446.531 237.506V237.506C446.531 237.579 446.441 237.614 446.392 237.559L287.533 59.0913C229.967 -5.60637 229.967 -110.439 287.533 -175.137L446.531 -353.761L453.336 -361.286L610.586 -542.001C667.509 -607.43 759.744 -607.43 816.667 -542.001L973.704 -361.53C973.752 -361.475 973.713 -361.391 973.641 -361.391V-361.391C973.569 -361.391 973.531 -361.306 973.578 -361.252L1092.45 -224.575C1128.5 -183.185 1186.89 -183.185 1222.94 -224.575L1342.31 -361.705C1342.36 -361.771 1342.45 -361.809 1342.54 -361.809V-361.809C1342.62 -361.809 1342.71 -361.847 1342.76 -361.913L1499.46 -542.105C1556.39 -607.535 1648.62 -607.535 1705.54 -542.105L1862.7 -361.391L1868.77 -355.12L2027.77 -176.496C2085.34 -111.798 2085.34 -6.96502 2027.77 57.7326L1868.82 236.305C1868.79 236.332 1868.75 236.332 1868.73 236.304V236.304Z" stroke="url(#paint7_linear_1873_55416)" stroke-width="1.75" stroke-miterlimit="10" stroke-linecap="round"/>
<path d="M1862.29 238.239C1862.21 238.18 1862.1 238.191 1862.04 238.264L1742.52 372.651C1706.38 413.205 1706.38 479.052 1742.52 519.606L1862.02 653.862C1862.06 653.916 1862.15 653.882 1862.15 653.809V653.809C1862.15 653.736 1862.24 653.701 1862.29 653.756L2019.68 830.656C2076.7 894.727 2076.7 998.619 2019.68 1062.69L1862.15 1239.75L1855.44 1247.17L1699.57 1426.1C1643.2 1490.91 1551.79 1490.91 1495.42 1426.1L1339.76 1247.2C1339.72 1247.15 1339.75 1247.06 1339.83 1247.06V1247.06C1339.9 1247.06 1339.94 1246.98 1339.89 1246.92L1222.12 1111.6C1186.44 1070.53 1128.5 1070.53 1092.82 1111.6L974.562 1247.48C974.505 1247.55 974.421 1247.58 974.334 1247.58V1247.58C974.246 1247.58 974.163 1247.62 974.105 1247.69L818.785 1426.21C762.414 1491.01 671.006 1491.01 614.635 1426.21L458.856 1247.17L452.879 1241L295.536 1063.94C238.522 999.873 238.522 895.981 295.536 831.91L453.155 655.168L572.794 520.651C608.934 480.097 608.934 414.25 572.794 373.696L453.294 239.336C453.245 239.281 453.155 239.315 453.155 239.388V239.388C453.155 239.462 453.064 239.496 453.016 239.441L295.628 62.5412C238.614 -1.52934 238.614 -105.422 295.628 -169.492L453.155 -346.549L459.868 -353.97L615.647 -533.012C672.018 -597.814 763.425 -597.814 819.796 -533.012L975.454 -354.108C975.502 -354.054 975.463 -353.97 975.391 -353.97V-353.97C975.319 -353.97 975.281 -353.885 975.328 -353.831L1093.19 -218.408C1128.87 -177.331 1186.81 -177.331 1222.49 -218.408L1340.75 -354.284C1340.8 -354.35 1340.89 -354.388 1340.98 -354.388V-354.388C1341.06 -354.388 1341.15 -354.426 1341.2 -354.492L1496.52 -533.012C1552.9 -597.814 1644.3 -597.814 1700.67 -533.012L1856.45 -353.97L1862.43 -347.803L2019.96 -170.747C2076.97 -106.676 2076.97 -2.78349 2019.96 61.287L1862.55 238.214C1862.48 238.287 1862.37 238.298 1862.29 238.239V238.239Z" stroke="url(#paint8_linear_1873_55416)" stroke-width="1.75" stroke-miterlimit="10" stroke-linecap="round"/>
<path d="M1862.29 238.239C1862.21 238.18 1862.1 238.191 1862.04 238.264L1742.52 372.651C1706.38 413.205 1706.38 479.052 1742.52 519.606L1862.02 653.862C1862.06 653.916 1862.15 653.882 1862.15 653.809V653.809C1862.15 653.736 1862.24 653.701 1862.29 653.756L2019.68 830.656C2076.7 894.727 2076.7 998.619 2019.68 1062.69L1862.15 1239.75L1855.44 1247.17L1699.57 1426.1C1643.2 1490.91 1551.79 1490.91 1495.42 1426.1L1339.76 1247.2C1339.72 1247.15 1339.75 1247.06 1339.83 1247.06V1247.06C1339.9 1247.06 1339.94 1246.98 1339.89 1246.92L1222.12 1111.6C1186.44 1070.53 1128.5 1070.53 1092.82 1111.6L974.562 1247.48C974.505 1247.55 974.421 1247.58 974.334 1247.58V1247.58C974.246 1247.58 974.163 1247.62 974.105 1247.69L818.785 1426.21C762.414 1491.01 671.006 1491.01 614.635 1426.21L458.856 1247.17L452.879 1241L295.536 1063.94C238.522 999.873 238.522 895.981 295.536 831.91L453.155 655.168L572.794 520.651C608.934 480.097 608.934 414.25 572.794 373.696L453.294 239.336C453.245 239.281 453.155 239.315 453.155 239.388V239.388C453.155 239.462 453.064 239.496 453.016 239.441L295.628 62.5412C238.614 -1.52934 238.614 -105.422 295.628 -169.492L453.155 -346.549L459.868 -353.97L615.647 -533.012C672.018 -597.814 763.425 -597.814 819.796 -533.012L975.454 -354.108C975.502 -354.054 975.463 -353.97 975.391 -353.97V-353.97C975.319 -353.97 975.281 -353.885 975.328 -353.831L1093.19 -218.408C1128.87 -177.331 1186.81 -177.331 1222.49 -218.408L1340.75 -354.284C1340.8 -354.35 1340.89 -354.388 1340.98 -354.388V-354.388C1341.06 -354.388 1341.15 -354.426 1341.2 -354.492L1496.52 -533.012C1552.9 -597.814 1644.3 -597.814 1700.67 -533.012L1856.45 -353.97L1862.43 -347.803L2019.96 -170.747C2076.97 -106.676 2076.97 -2.78349 2019.96 61.287L1862.55 238.214C1862.48 238.287 1862.37 238.298 1862.29 238.239V238.239Z" stroke="url(#paint9_linear_1873_55416)" stroke-width="1.75" stroke-miterlimit="10" stroke-linecap="round"/>
<path d="M1855.62 240.225C1855.57 240.169 1855.49 240.169 1855.44 240.225L1736.99 373.383C1701.22 413.623 1701.22 478.739 1736.99 518.979L1855.39 651.876C1855.44 651.931 1855.53 651.896 1855.53 651.823V651.823C1855.53 651.75 1855.62 651.716 1855.67 651.77L2011.58 826.998C2068.05 890.442 2068.05 993.393 2011.58 1056.84L1855.53 1232.22L1848.91 1239.54L1694.6 1416.91C1638.78 1481.08 1548.2 1481.08 1492.38 1416.91L1338.1 1239.78C1338.06 1239.73 1338.1 1239.64 1338.17 1239.64V1239.64C1338.24 1239.64 1338.28 1239.56 1338.23 1239.5L1221.47 1105.33C1186.07 1064.68 1128.78 1064.68 1093.37 1105.33L976.306 1239.96C976.249 1240.02 976.165 1240.06 976.078 1240.06V1240.06C975.99 1240.06 975.907 1240.1 975.849 1240.16L822.092 1417.01C766.273 1481.19 675.693 1481.19 619.873 1417.01L465.566 1239.64L459.68 1233.47L303.626 1058.09C247.163 994.648 247.163 891.696 303.626 828.252L459.772 653.077L578.308 519.815C614.08 479.575 614.08 414.459 578.308 374.219L460.003 241.217C459.955 241.163 459.864 241.197 459.864 241.27V241.27C459.864 241.343 459.774 241.378 459.725 241.323L303.81 66.0953C247.347 2.6519 247.347 -100.3 303.81 -163.743L459.864 -339.127L466.485 -346.444L620.701 -523.813C676.52 -587.988 767.1 -587.988 822.92 -523.813L977.106 -346.582C977.154 -346.528 977.115 -346.444 977.043 -346.444V-346.444C976.971 -346.444 976.933 -346.359 976.98 -346.305L1093.74 -212.136C1129.14 -171.478 1186.43 -171.478 1221.84 -212.136L1339 -346.758C1339.05 -346.824 1339.14 -346.862 1339.22 -346.862V-346.862C1339.31 -346.862 1339.4 -346.9 1339.45 -346.966L1493.3 -523.813C1549.12 -587.988 1639.7 -587.988 1695.52 -523.813L1849.83 -346.444L1855.71 -340.277L2011.77 -164.893C2068.23 -101.45 2068.23 1.50224 2011.77 64.9457L1855.81 240.226C1855.76 240.281 1855.67 240.281 1855.62 240.225V240.225Z" stroke="url(#paint10_linear_1873_55416)" stroke-width="1.75" stroke-miterlimit="10" stroke-linecap="round"/>
<path d="M1855.62 240.225C1855.57 240.169 1855.49 240.169 1855.44 240.225L1736.99 373.383C1701.22 413.623 1701.22 478.739 1736.99 518.979L1855.39 651.876C1855.44 651.931 1855.53 651.896 1855.53 651.823V651.823C1855.53 651.75 1855.62 651.716 1855.67 651.77L2011.58 826.998C2068.05 890.442 2068.05 993.393 2011.58 1056.84L1855.53 1232.22L1848.91 1239.54L1694.6 1416.91C1638.78 1481.08 1548.2 1481.08 1492.38 1416.91L1338.1 1239.78C1338.06 1239.73 1338.1 1239.64 1338.17 1239.64V1239.64C1338.24 1239.64 1338.28 1239.56 1338.23 1239.5L1221.47 1105.33C1186.07 1064.68 1128.78 1064.68 1093.37 1105.33L976.306 1239.96C976.249 1240.02 976.165 1240.06 976.078 1240.06V1240.06C975.99 1240.06 975.907 1240.1 975.849 1240.16L822.092 1417.01C766.273 1481.19 675.693 1481.19 619.873 1417.01L465.566 1239.64L459.68 1233.47L303.626 1058.09C247.163 994.648 247.163 891.696 303.626 828.252L459.772 653.077L578.308 519.815C614.08 479.575 614.08 414.459 578.308 374.219L460.003 241.217C459.955 241.163 459.864 241.197 459.864 241.27V241.27C459.864 241.343 459.774 241.378 459.725 241.323L303.81 66.0953C247.347 2.6519 247.347 -100.3 303.81 -163.743L459.864 -339.127L466.485 -346.444L620.701 -523.813C676.52 -587.988 767.1 -587.988 822.92 -523.813L977.106 -346.582C977.154 -346.528 977.115 -346.444 977.043 -346.444V-346.444C976.971 -346.444 976.933 -346.359 976.98 -346.305L1093.74 -212.136C1129.14 -171.478 1186.43 -171.478 1221.84 -212.136L1339 -346.758C1339.05 -346.824 1339.14 -346.862 1339.22 -346.862V-346.862C1339.31 -346.862 1339.4 -346.9 1339.45 -346.966L1493.3 -523.813C1549.12 -587.988 1639.7 -587.988 1695.52 -523.813L1849.83 -346.444L1855.71 -340.277L2011.77 -164.893C2068.23 -101.45 2068.23 1.50224 2011.77 64.9457L1855.81 240.226C1855.76 240.281 1855.67 240.281 1855.62 240.225V240.225Z" stroke="url(#paint11_linear_1873_55416)" stroke-width="1.75" stroke-miterlimit="10" stroke-linecap="round"/>
<path d="M1849.05 242.158C1849.03 242.089 1848.94 242.07 1848.89 242.123L1731.57 374.009C1696.16 413.831 1696.16 478.424 1731.57 518.246L1848.77 649.994C1848.82 650.049 1848.91 650.014 1848.91 649.941V649.941C1848.91 649.868 1849 649.834 1849.05 649.888L2003.49 823.444C2059.4 886.364 2059.4 988.271 2003.49 1051.19L1848.91 1224.9L1842.29 1232.22L1689.45 1407.92C1634.09 1471.47 1544.43 1471.47 1489.07 1407.92L1336.36 1232.36C1336.31 1232.3 1336.35 1232.22 1336.42 1232.22V1232.22C1336.49 1232.22 1336.53 1232.14 1336.48 1232.08L1220.83 1099.17C1185.79 1058.93 1128.96 1058.93 1093.92 1099.17L978.052 1232.53C977.995 1232.6 977.911 1232.64 977.824 1232.64V1232.64C977.736 1232.64 977.653 1232.68 977.595 1232.74L825.217 1407.92C769.858 1471.47 680.198 1471.47 624.838 1407.92L472.002 1232.22L466.117 1226.16L311.533 1052.45C255.622 989.525 255.622 887.619 311.533 824.698L466.209 651.195L583.64 519.187C619.045 479.365 619.045 414.772 583.64 374.95L466.439 243.202C466.391 243.148 466.3 243.182 466.3 243.255V243.255C466.3 243.328 466.21 243.363 466.162 243.308L311.717 69.7526C255.806 6.83184 255.806 -95.0748 311.717 -157.996L466.3 -331.707L472.922 -339.024L625.758 -514.721C681.117 -578.269 770.778 -578.269 826.137 -514.721L978.853 -339.162C978.9 -339.108 978.861 -339.023 978.789 -339.023V-339.023C978.718 -339.023 978.679 -338.939 978.726 -338.885L1094.29 -205.97C1129.33 -165.73 1186.16 -165.73 1221.19 -205.97L1337.25 -339.338C1337.31 -339.404 1337.39 -339.442 1337.48 -339.442V-339.442C1337.56 -339.442 1337.65 -339.48 1337.7 -339.546L1490.08 -514.721C1545.44 -578.269 1635.1 -578.269 1690.46 -514.721L1843.3 -339.023L1849.18 -332.961L2003.77 -159.25C2059.68 -96.329 2059.68 5.57756 2003.77 68.4984L1849.2 242.192C1849.15 242.246 1849.07 242.226 1849.05 242.158V242.158Z" stroke="url(#paint12_linear_1873_55416)" stroke-width="1.75" stroke-miterlimit="10" stroke-linecap="round"/>
<path d="M1849.05 242.158C1849.03 242.089 1848.94 242.07 1848.89 242.123L1731.57 374.009C1696.16 413.831 1696.16 478.424 1731.57 518.246L1848.77 649.994C1848.82 650.049 1848.91 650.014 1848.91 649.941V649.941C1848.91 649.868 1849 649.834 1849.05 649.888L2003.49 823.444C2059.4 886.364 2059.4 988.271 2003.49 1051.19L1848.91 1224.9L1842.29 1232.22L1689.45 1407.92C1634.09 1471.47 1544.43 1471.47 1489.07 1407.92L1336.36 1232.36C1336.31 1232.3 1336.35 1232.22 1336.42 1232.22V1232.22C1336.49 1232.22 1336.53 1232.14 1336.48 1232.08L1220.83 1099.17C1185.79 1058.93 1128.96 1058.93 1093.92 1099.17L978.052 1232.53C977.995 1232.6 977.911 1232.64 977.824 1232.64V1232.64C977.736 1232.64 977.653 1232.68 977.595 1232.74L825.217 1407.92C769.858 1471.47 680.198 1471.47 624.838 1407.92L472.002 1232.22L466.117 1226.16L311.533 1052.45C255.622 989.525 255.622 887.619 311.533 824.698L466.209 651.195L583.64 519.187C619.045 479.365 619.045 414.772 583.64 374.95L466.439 243.202C466.391 243.148 466.3 243.182 466.3 243.255V243.255C466.3 243.328 466.21 243.363 466.162 243.308L311.717 69.7526C255.806 6.83184 255.806 -95.0748 311.717 -157.996L466.3 -331.707L472.922 -339.024L625.758 -514.721C681.117 -578.269 770.778 -578.269 826.137 -514.721L978.853 -339.162C978.9 -339.108 978.861 -339.023 978.789 -339.023V-339.023C978.718 -339.023 978.679 -338.939 978.726 -338.885L1094.29 -205.97C1129.33 -165.73 1186.16 -165.73 1221.19 -205.97L1337.25 -339.338C1337.31 -339.404 1337.39 -339.442 1337.48 -339.442V-339.442C1337.56 -339.442 1337.65 -339.48 1337.7 -339.546L1490.08 -514.721C1545.44 -578.269 1635.1 -578.269 1690.46 -514.721L1843.3 -339.023L1849.18 -332.961L2003.77 -159.25C2059.68 -96.329 2059.68 5.57756 2003.77 68.4984L1849.2 242.192C1849.15 242.246 1849.07 242.226 1849.05 242.158V242.158Z" stroke="url(#paint13_linear_1873_55416)" stroke-width="1.75" stroke-miterlimit="10" stroke-linecap="round"/>
<path d="M1842.43 244.093C1842.41 244.044 1842.34 244.033 1842.3 244.073L1726.05 374.742C1690.92 414.146 1690.92 478.112 1726.05 517.62L1842.15 648.114C1842.2 648.168 1842.29 648.134 1842.29 648.061V648.061C1842.29 647.988 1842.38 647.953 1842.43 648.008L1995.4 819.891C2050.85 882.185 2050.85 983.15 1995.4 1045.44L1842.38 1217.48L1835.85 1224.7L1684.49 1398.72C1629.68 1461.75 1540.85 1461.75 1486.04 1398.72L1334.79 1224.83C1334.75 1224.78 1334.79 1224.7 1334.86 1224.7V1224.7C1334.93 1224.7 1334.97 1224.61 1334.92 1224.56L1220.28 1093C1185.61 1053.07 1129.33 1053.07 1094.57 1093L979.679 1225.04C979.641 1225.09 979.586 1225.11 979.527 1225.11V1225.11C979.469 1225.11 979.413 1225.14 979.375 1225.18L828.346 1398.72C773.538 1461.75 684.706 1461.75 629.898 1398.72L478.533 1224.7L472.74 1218.63L319.628 1046.59C264.176 984.3 264.176 883.334 319.628 821.041L472.832 649.21L589.16 518.456C624.289 479.052 624.289 415.086 589.16 375.578L473.028 245.046C472.991 245.005 472.924 245.031 472.924 245.085V245.085C472.924 245.14 472.856 245.166 472.819 245.125L319.812 73.2029C264.36 10.9092 264.36 -90.0566 319.812 -152.35L472.924 -324.389L479.453 -331.601L630.818 -505.522C685.625 -568.547 774.458 -568.547 829.266 -505.522L980.51 -331.636C980.557 -331.581 980.519 -331.497 980.447 -331.497V-331.497C980.375 -331.497 980.336 -331.412 980.384 -331.358L1094.94 -199.698C1129.6 -159.771 1185.88 -159.771 1220.64 -199.698L1335.62 -331.846C1335.66 -331.89 1335.72 -331.915 1335.78 -331.915V-331.915C1335.84 -331.915 1335.89 -331.94 1335.93 -331.984L1486.87 -505.522C1541.67 -568.547 1630.51 -568.547 1685.31 -505.522L1836.68 -331.497L1842.47 -325.435L1995.58 -153.395C2051.04 -91.1018 2051.04 9.86405 1995.58 72.1577L1842.55 244.112C1842.51 244.152 1842.45 244.141 1842.43 244.093V244.093Z" stroke="url(#paint14_linear_1873_55416)" stroke-width="1.75" stroke-miterlimit="10" stroke-linecap="round"/>
<path d="M1842.43 244.093C1842.41 244.044 1842.34 244.033 1842.3 244.073L1726.05 374.742C1690.92 414.146 1690.92 478.112 1726.05 517.62L1842.15 648.114C1842.2 648.168 1842.29 648.134 1842.29 648.061V648.061C1842.29 647.988 1842.38 647.953 1842.43 648.008L1995.4 819.891C2050.85 882.185 2050.85 983.15 1995.4 1045.44L1842.38 1217.48L1835.85 1224.7L1684.49 1398.72C1629.68 1461.75 1540.85 1461.75 1486.04 1398.72L1334.79 1224.83C1334.75 1224.78 1334.79 1224.7 1334.86 1224.7V1224.7C1334.93 1224.7 1334.97 1224.61 1334.92 1224.56L1220.28 1093C1185.61 1053.07 1129.33 1053.07 1094.57 1093L979.679 1225.04C979.641 1225.09 979.586 1225.11 979.527 1225.11V1225.11C979.469 1225.11 979.413 1225.14 979.375 1225.18L828.346 1398.72C773.538 1461.75 684.706 1461.75 629.898 1398.72L478.533 1224.7L472.74 1218.63L319.628 1046.59C264.176 984.3 264.176 883.334 319.628 821.041L472.832 649.21L589.16 518.456C624.289 479.052 624.289 415.086 589.16 375.578L473.028 245.046C472.991 245.005 472.924 245.031 472.924 245.085V245.085C472.924 245.14 472.856 245.166 472.819 245.125L319.812 73.2029C264.36 10.9092 264.36 -90.0566 319.812 -152.35L472.924 -324.389L479.453 -331.601L630.818 -505.522C685.625 -568.547 774.458 -568.547 829.266 -505.522L980.51 -331.636C980.557 -331.581 980.519 -331.497 980.447 -331.497V-331.497C980.375 -331.497 980.336 -331.412 980.384 -331.358L1094.94 -199.698C1129.6 -159.771 1185.88 -159.771 1220.64 -199.698L1335.62 -331.846C1335.66 -331.89 1335.72 -331.915 1335.78 -331.915V-331.915C1335.84 -331.915 1335.89 -331.94 1335.93 -331.984L1486.87 -505.522C1541.67 -568.547 1630.51 -568.547 1685.31 -505.522L1836.68 -331.497L1842.47 -325.435L1995.58 -153.395C2051.04 -91.1018 2051.04 9.86405 1995.58 72.1577L1842.55 244.112C1842.51 244.152 1842.45 244.141 1842.43 244.093V244.093Z" stroke="url(#paint15_linear_1873_55416)" stroke-width="1.75" stroke-miterlimit="10" stroke-linecap="round"/>
<path d="Mnan nanL1835.85 245.973L1720.63 375.473C1685.87 414.563 1685.87 477.902 1720.63 516.992L1835.66 646.271C1835.69 646.311 1835.76 646.286 1835.76 646.231V646.231C1835.76 646.176 1835.83 646.15 1835.86 646.191L1987.4 816.441C2042.3 878.108 2042.3 978.133 1987.4 1039.8L1835.76 1210.17L1829.32 1217.27L1679.43 1389.63C1625.17 1452.02 1537.17 1452.02 1482.91 1389.63L1333.14 1217.41C1333.09 1217.36 1333.13 1217.27 1333.2 1217.27V1217.27C1333.27 1217.27 1333.31 1217.19 1333.27 1217.14L1219.82 1086.73C1185.42 1047.22 1129.7 1047.22 1095.3 1086.73L981.427 1217.62C981.389 1217.67 981.333 1217.69 981.275 1217.69V1217.69C981.217 1217.69 981.161 1217.72 981.123 1217.76L831.565 1389.63C777.309 1452.02 689.304 1452.02 635.048 1389.63L485.155 1217.27L479.453 1211.32L327.812 1040.95C272.913 979.283 272.913 879.257 327.812 817.591L479.545 647.433L594.77 517.933C629.531 478.843 629.531 415.504 594.77 376.414L479.741 247.135C479.705 247.094 479.637 247.12 479.637 247.175V247.175C479.637 247.23 479.569 247.256 479.533 247.215L327.996 76.9648C273.097 15.2983 273.097 -84.7271 327.996 -146.394L479.637 -316.761L486.074 -323.868L635.968 -496.221C690.224 -558.619 778.229 -558.619 832.485 -496.221L982.258 -324.007C982.305 -323.952 982.266 -323.868 982.195 -323.868V-323.868C982.123 -323.868 982.084 -323.783 982.131 -323.729L1095.49 -193.532C1129.88 -154.024 1185.61 -154.024 1220 -193.532L1333.88 -324.426C1333.92 -324.47 1333.97 -324.495 1334.03 -324.495V-324.495C1334.09 -324.495 1334.14 -324.52 1334.18 -324.564L1483.74 -496.43C1538 -558.828 1626 -558.828 1680.26 -496.43L1830.15 -324.077L1835.85 -318.119L1987.49 -147.752C2042.39 -86.0857 2042.39 13.9395 1987.49 75.6061L1835.85 245.973Lnan nanLnan nanZ" stroke="url(#paint16_linear_1873_55416)" stroke-width="1.75" stroke-miterlimit="10" stroke-linecap="round"/>
<path d="Mnan nanL1835.85 245.973L1720.63 375.473C1685.87 414.563 1685.87 477.902 1720.63 516.992L1835.66 646.271C1835.69 646.311 1835.76 646.286 1835.76 646.231V646.231C1835.76 646.176 1835.83 646.15 1835.86 646.191L1987.4 816.441C2042.3 878.108 2042.3 978.133 1987.4 1039.8L1835.76 1210.17L1829.32 1217.27L1679.43 1389.63C1625.17 1452.02 1537.17 1452.02 1482.91 1389.63L1333.14 1217.41C1333.09 1217.36 1333.13 1217.27 1333.2 1217.27V1217.27C1333.27 1217.27 1333.31 1217.19 1333.27 1217.14L1219.82 1086.73C1185.42 1047.22 1129.7 1047.22 1095.3 1086.73L981.427 1217.62C981.389 1217.67 981.333 1217.69 981.275 1217.69V1217.69C981.217 1217.69 981.161 1217.72 981.123 1217.76L831.565 1389.63C777.309 1452.02 689.304 1452.02 635.048 1389.63L485.155 1217.27L479.453 1211.32L327.812 1040.95C272.913 979.283 272.913 879.257 327.812 817.591L479.545 647.433L594.77 517.933C629.531 478.843 629.531 415.504 594.77 376.414L479.741 247.135C479.705 247.094 479.637 247.12 479.637 247.175V247.175C479.637 247.23 479.569 247.256 479.533 247.215L327.996 76.9648C273.097 15.2983 273.097 -84.7271 327.996 -146.394L479.637 -316.761L486.074 -323.868L635.968 -496.221C690.224 -558.619 778.229 -558.619 832.485 -496.221L982.258 -324.007C982.305 -323.952 982.266 -323.868 982.195 -323.868V-323.868C982.123 -323.868 982.084 -323.783 982.131 -323.729L1095.49 -193.532C1129.88 -154.024 1185.61 -154.024 1220 -193.532L1333.88 -324.426C1333.92 -324.47 1333.97 -324.495 1334.03 -324.495V-324.495C1334.09 -324.495 1334.14 -324.52 1334.18 -324.564L1483.74 -496.43C1538 -558.828 1626 -558.828 1680.26 -496.43L1830.15 -324.077L1835.85 -318.119L1987.49 -147.752C2042.39 -86.0857 2042.39 13.9395 1987.49 75.6061L1835.85 245.973Lnan nanLnan nanZ" stroke="url(#paint17_linear_1873_55416)" stroke-width="1.75" stroke-miterlimit="10" stroke-linecap="round"/>
<path d="M1829.32 248.064C1829.28 247.966 1829.15 247.946 1829.07 248.026L1715.2 376.101C1680.8 414.773 1680.8 477.485 1715.2 516.157L1829.12 644.181C1829.16 644.222 1829.23 644.196 1829.23 644.141V644.141C1829.23 644.086 1829.29 644.06 1829.33 644.101L1979.4 812.783C2033.74 873.927 2033.74 972.908 1979.4 1034.05L1829.23 1202.85L1822.79 1209.96L1674.28 1380.64C1620.48 1442.41 1533.39 1442.41 1479.6 1380.64L1331.2 1210.1C1331.16 1210.04 1331.2 1209.96 1331.27 1209.96V1209.96C1331.34 1209.96 1331.38 1209.87 1331.33 1209.82L1219.08 1080.56C1185.05 1041.47 1129.88 1041.47 1095.85 1080.56L983.078 1210.1C983.039 1210.14 982.984 1210.17 982.925 1210.17V1210.17C982.867 1210.17 982.811 1210.19 982.773 1210.24L834.687 1380.43C780.891 1442.2 693.806 1442.2 640.009 1380.43L491.495 1209.75L485.794 1203.79L335.624 1034.99C281.276 973.848 281.276 874.868 335.624 813.724L485.886 645.134L599.915 516.888C634.308 478.216 634.308 415.504 599.915 376.832L485.99 248.808C485.953 248.767 485.886 248.793 485.886 248.848V248.848C485.886 248.903 485.818 248.929 485.781 248.888L335.716 80.2055C281.368 19.0616 281.368 -79.9186 335.716 -141.063L485.978 -309.548L492.415 -316.655L640.929 -487.231C694.725 -549.003 781.811 -549.003 835.607 -487.231L984 -316.69C984.047 -316.635 984.009 -316.551 983.937 -316.551V-316.551C983.865 -316.551 983.827 -316.466 983.874 -316.412L1096.13 -187.365C1130.15 -148.274 1185.33 -148.274 1219.35 -187.365L1332.13 -316.9C1332.16 -316.944 1332.22 -316.969 1332.28 -316.969V-316.969C1332.34 -316.969 1332.39 -316.994 1332.43 -317.038L1480.52 -487.231C1534.31 -549.003 1621.4 -549.003 1675.19 -487.231L1823.71 -316.551L1829.41 -310.593L1979.58 -141.794C2033.93 -80.6501 2033.93 18.3299 1979.58 79.4738L1829.56 248.102C1829.49 248.182 1829.36 248.162 1829.32 248.064V248.064Z" stroke="url(#paint18_linear_1873_55416)" stroke-width="1.75" stroke-miterlimit="10" stroke-linecap="round"/>
<path d="M1829.32 248.064C1829.28 247.966 1829.15 247.946 1829.07 248.026L1715.2 376.101C1680.8 414.773 1680.8 477.485 1715.2 516.157L1829.12 644.181C1829.16 644.222 1829.23 644.196 1829.23 644.141V644.141C1829.23 644.086 1829.29 644.06 1829.33 644.101L1979.4 812.783C2033.74 873.927 2033.74 972.908 1979.4 1034.05L1829.23 1202.85L1822.79 1209.96L1674.28 1380.64C1620.48 1442.41 1533.39 1442.41 1479.6 1380.64L1331.2 1210.1C1331.16 1210.04 1331.2 1209.96 1331.27 1209.96V1209.96C1331.34 1209.96 1331.38 1209.87 1331.33 1209.82L1219.08 1080.56C1185.05 1041.47 1129.88 1041.47 1095.85 1080.56L983.078 1210.1C983.039 1210.14 982.984 1210.17 982.925 1210.17V1210.17C982.867 1210.17 982.811 1210.19 982.773 1210.24L834.687 1380.43C780.891 1442.2 693.806 1442.2 640.009 1380.43L491.495 1209.75L485.794 1203.79L335.624 1034.99C281.276 973.848 281.276 874.868 335.624 813.724L485.886 645.134L599.915 516.888C634.308 478.216 634.308 415.504 599.915 376.832L485.99 248.808C485.953 248.767 485.886 248.793 485.886 248.848V248.848C485.886 248.903 485.818 248.929 485.781 248.888L335.716 80.2055C281.368 19.0616 281.368 -79.9186 335.716 -141.063L485.978 -309.548L492.415 -316.655L640.929 -487.231C694.725 -549.003 781.811 -549.003 835.607 -487.231L984 -316.69C984.047 -316.635 984.009 -316.551 983.937 -316.551V-316.551C983.865 -316.551 983.827 -316.466 983.874 -316.412L1096.13 -187.365C1130.15 -148.274 1185.33 -148.274 1219.35 -187.365L1332.13 -316.9C1332.16 -316.944 1332.22 -316.969 1332.28 -316.969V-316.969C1332.34 -316.969 1332.39 -316.994 1332.43 -317.038L1480.52 -487.231C1534.31 -549.003 1621.4 -549.003 1675.19 -487.231L1823.71 -316.551L1829.41 -310.593L1979.58 -141.794C2033.93 -80.6501 2033.93 18.3299 1979.58 79.4738L1829.56 248.102C1829.49 248.182 1829.36 248.162 1829.32 248.064V248.064Z" stroke="url(#paint19_linear_1873_55416)" stroke-width="1.75" stroke-miterlimit="10" stroke-linecap="round"/>
<path d="M1822.74 249.944C1822.72 249.895 1822.66 249.885 1822.62 249.925L1709.77 376.831C1675.66 415.189 1675.66 477.274 1709.77 515.528L1822.5 642.298C1822.54 642.339 1822.61 642.313 1822.61 642.258V642.258C1822.61 642.204 1822.67 642.178 1822.71 642.219L1971.31 809.228C2025.1 869.745 2025.1 967.785 1971.31 1028.3L1822.61 1195.32L1816.26 1202.33L1669.22 1371.33C1615.97 1432.48 1529.72 1432.48 1476.47 1371.33L1329.55 1202.47C1329.5 1202.41 1329.54 1202.33 1329.61 1202.33V1202.33C1329.69 1202.33 1329.72 1202.24 1329.68 1202.19L1218.43 1074.39C1184.69 1035.62 1130.06 1035.62 1096.4 1074.39L984.827 1202.68C984.788 1202.72 984.733 1202.74 984.674 1202.74V1202.74C984.616 1202.74 984.56 1202.77 984.522 1202.81L837.815 1371.33C784.571 1432.48 698.313 1432.48 645.069 1371.33L498.026 1202.33L492.416 1196.47L343.718 1029.35C289.922 968.83 289.922 870.791 343.718 810.274L492.508 643.356L605.434 516.365C639.551 478.006 639.551 415.921 605.434 377.667L492.613 250.897C492.576 250.856 492.508 250.882 492.508 250.937V250.937C492.508 250.992 492.441 251.018 492.404 250.977L343.902 84.0715C290.106 23.5546 290.106 -74.4848 343.902 -135.002L492.6 -302.128L498.945 -309.131L645.988 -478.14C699.233 -539.283 785.49 -539.283 838.735 -478.14L985.657 -309.27C985.704 -309.216 985.666 -309.131 985.594 -309.131V-309.131C985.522 -309.131 985.484 -309.047 985.531 -308.992L1096.77 -181.199C1130.52 -142.422 1185.15 -142.422 1218.8 -181.199L1330.47 -309.48C1330.51 -309.524 1330.57 -309.549 1330.62 -309.549V-309.549C1330.68 -309.549 1330.74 -309.575 1330.78 -309.619L1477.39 -478.14C1530.64 -539.283 1616.89 -539.283 1670.14 -478.14L1817.18 -309.131L1822.79 -303.278L1971.49 -136.151C2025.29 -75.6344 2025.29 22.4049 1971.49 82.9218L1822.87 249.963C1822.83 250.003 1822.77 249.993 1822.74 249.944V249.944Z" stroke="url(#paint20_linear_1873_55416)" stroke-width="1.75" stroke-miterlimit="10" stroke-linecap="round"/>
<path d="M1822.74 249.944C1822.72 249.895 1822.66 249.885 1822.62 249.925L1709.77 376.831C1675.66 415.189 1675.66 477.274 1709.77 515.528L1822.5 642.298C1822.54 642.339 1822.61 642.313 1822.61 642.258V642.258C1822.61 642.204 1822.67 642.178 1822.71 642.219L1971.31 809.228C2025.1 869.745 2025.1 967.785 1971.31 1028.3L1822.61 1195.32L1816.26 1202.33L1669.22 1371.33C1615.97 1432.48 1529.72 1432.48 1476.47 1371.33L1329.55 1202.47C1329.5 1202.41 1329.54 1202.33 1329.61 1202.33V1202.33C1329.69 1202.33 1329.72 1202.24 1329.68 1202.19L1218.43 1074.39C1184.69 1035.62 1130.06 1035.62 1096.4 1074.39L984.827 1202.68C984.788 1202.72 984.733 1202.74 984.674 1202.74V1202.74C984.616 1202.74 984.56 1202.77 984.522 1202.81L837.815 1371.33C784.571 1432.48 698.313 1432.48 645.069 1371.33L498.026 1202.33L492.416 1196.47L343.718 1029.35C289.922 968.83 289.922 870.791 343.718 810.274L492.508 643.356L605.434 516.365C639.551 478.006 639.551 415.921 605.434 377.667L492.613 250.897C492.576 250.856 492.508 250.882 492.508 250.937V250.937C492.508 250.992 492.441 251.018 492.404 250.977L343.902 84.0715C290.106 23.5546 290.106 -74.4848 343.902 -135.002L492.6 -302.128L498.945 -309.131L645.988 -478.14C699.233 -539.283 785.49 -539.283 838.735 -478.14L985.657 -309.27C985.704 -309.216 985.666 -309.131 985.594 -309.131V-309.131C985.522 -309.131 985.484 -309.047 985.531 -308.992L1096.77 -181.199C1130.52 -142.422 1185.15 -142.422 1218.8 -181.199L1330.47 -309.48C1330.51 -309.524 1330.57 -309.549 1330.62 -309.549V-309.549C1330.68 -309.549 1330.74 -309.575 1330.78 -309.619L1477.39 -478.14C1530.64 -539.283 1616.89 -539.283 1670.14 -478.14L1817.18 -309.131L1822.79 -303.278L1971.49 -136.151C2025.29 -75.6344 2025.29 22.4049 1971.49 82.9218L1822.87 249.963C1822.83 250.003 1822.77 249.993 1822.74 249.944V249.944Z" stroke="url(#paint21_linear_1873_55416)" stroke-width="1.75" stroke-miterlimit="10" stroke-linecap="round"/>
<path d="M1816.13 251.825C1816.11 251.776 1816.04 251.766 1816.01 251.806L1704.26 377.458C1670.51 415.398 1670.51 476.856 1704.26 514.796L1815.98 640.312C1816.02 640.353 1816.08 640.327 1816.08 640.272V640.272C1816.08 640.217 1816.15 640.191 1816.19 640.232L1963.31 805.57C2016.55 865.46 2016.55 962.558 1963.31 1022.45L1816.08 1187.9L1809.83 1194.8L1664.26 1362.14C1611.57 1422.65 1526.14 1422.65 1473.44 1362.14L1327.99 1194.94C1327.95 1194.89 1327.98 1194.8 1328.06 1194.8V1194.8C1328.13 1194.8 1328.17 1194.72 1328.12 1194.66L1217.98 1068.12C1184.6 1029.76 1130.53 1029.76 1097.15 1068.12L986.487 1195.15C986.449 1195.19 986.394 1195.22 986.335 1195.22V1195.22C986.277 1195.22 986.221 1195.24 986.183 1195.29L841.039 1362.24C788.347 1422.76 702.917 1422.76 650.224 1362.24L504.652 1194.91L499.043 1189.16L351.816 1023.7C298.572 963.812 298.572 866.714 351.816 806.824L499.135 641.579L610.957 515.841C644.706 477.901 644.706 416.443 610.957 378.503L499.239 252.883C499.203 252.842 499.135 252.867 499.135 252.922V252.922C499.135 252.977 499.067 253.003 499.031 252.962L351.908 87.6245C298.664 27.7347 298.664 -69.364 351.908 -129.254L499.135 -294.708L505.388 -301.607L651.052 -468.942C703.744 -529.459 789.174 -529.459 841.867 -468.942L987.318 -301.745C987.365 -301.691 987.327 -301.607 987.255 -301.607V-301.607C987.183 -301.607 987.144 -301.522 987.192 -301.468L1097.33 -174.929C1130.71 -136.57 1184.78 -136.57 1218.16 -174.929L1328.73 -301.955C1328.77 -301.999 1328.82 -302.025 1328.88 -302.025V-302.025C1328.94 -302.025 1329 -302.05 1329.04 -302.094L1474.18 -468.942C1526.87 -529.459 1612.3 -529.459 1664.99 -468.942L1810.66 -301.607L1816.27 -295.858L1963.49 -130.403C2016.74 -70.5137 2016.74 26.5851 1963.49 86.4748L1816.25 251.844C1816.22 251.884 1816.15 251.874 1816.13 251.825V251.825Z" stroke="url(#paint22_linear_1873_55416)" stroke-width="1.75" stroke-miterlimit="10" stroke-linecap="round"/>
<path d="M1816.13 251.825C1816.11 251.776 1816.04 251.766 1816.01 251.806L1704.26 377.458C1670.51 415.398 1670.51 476.856 1704.26 514.796L1815.98 640.312C1816.02 640.353 1816.08 640.327 1816.08 640.272V640.272C1816.08 640.217 1816.15 640.191 1816.19 640.232L1963.31 805.57C2016.55 865.46 2016.55 962.558 1963.31 1022.45L1816.08 1187.9L1809.83 1194.8L1664.26 1362.14C1611.57 1422.65 1526.14 1422.65 1473.44 1362.14L1327.99 1194.94C1327.95 1194.89 1327.98 1194.8 1328.06 1194.8V1194.8C1328.13 1194.8 1328.17 1194.72 1328.12 1194.66L1217.98 1068.12C1184.6 1029.76 1130.53 1029.76 1097.15 1068.12L986.487 1195.15C986.449 1195.19 986.394 1195.22 986.335 1195.22V1195.22C986.277 1195.22 986.221 1195.24 986.183 1195.29L841.039 1362.24C788.347 1422.76 702.917 1422.76 650.224 1362.24L504.652 1194.91L499.043 1189.16L351.816 1023.7C298.572 963.812 298.572 866.714 351.816 806.824L499.135 641.579L610.957 515.841C644.706 477.901 644.706 416.443 610.957 378.503L499.239 252.883C499.203 252.842 499.135 252.867 499.135 252.922V252.922C499.135 252.977 499.067 253.003 499.031 252.962L351.908 87.6245C298.664 27.7347 298.664 -69.364 351.908 -129.254L499.135 -294.708L505.388 -301.607L651.052 -468.942C703.744 -529.459 789.174 -529.459 841.867 -468.942L987.318 -301.745C987.365 -301.691 987.327 -301.607 987.255 -301.607V-301.607C987.183 -301.607 987.144 -301.522 987.192 -301.468L1097.33 -174.929C1130.71 -136.57 1184.78 -136.57 1218.16 -174.929L1328.73 -301.955C1328.77 -301.999 1328.82 -302.025 1328.88 -302.025V-302.025C1328.94 -302.025 1329 -302.05 1329.04 -302.094L1474.18 -468.942C1526.87 -529.459 1612.3 -529.459 1664.99 -468.942L1810.66 -301.607L1816.27 -295.858L1963.49 -130.403C2016.74 -70.5137 2016.74 26.5851 1963.49 86.4748L1816.25 251.844C1816.22 251.884 1816.15 251.874 1816.13 251.825V251.825Z" stroke="url(#paint23_linear_1873_55416)" stroke-width="1.75" stroke-miterlimit="10" stroke-linecap="round"/>
<path d="M1809.64 253.813C1809.59 253.757 1809.51 253.757 1809.46 253.812L1698.83 378.191C1665.45 415.713 1665.45 476.648 1698.83 514.171L1809.35 638.432C1809.39 638.473 1809.46 638.447 1809.46 638.392V638.392C1809.46 638.338 1809.52 638.312 1809.56 638.353L1955.21 802.018C2008 861.281 2008 957.439 1955.21 1016.81L1809.46 1180.59L1803.2 1187.49L1659.1 1353.15C1606.96 1413.14 1522.36 1413.14 1470.13 1353.15L1326.15 1187.62C1326.1 1187.57 1326.14 1187.49 1326.21 1187.49V1187.49C1326.28 1187.49 1326.32 1187.4 1326.27 1187.35L1217.24 1062.06C1184.23 1024.12 1130.61 1024.12 1097.6 1062.06L988.229 1187.73C988.191 1187.77 988.135 1187.8 988.077 1187.8V1187.8C988.018 1187.8 987.963 1187.83 987.925 1187.87L844.161 1353.05C792.02 1413.04 707.417 1413.04 655.184 1353.05L511.084 1187.38L505.567 1181.63L359.811 1017.85C307.027 958.588 307.027 862.43 359.811 803.063L505.659 639.49L616.377 515.112C649.759 477.589 649.759 416.654 616.377 379.132L505.763 254.87C505.726 254.829 505.659 254.855 505.659 254.91V254.91C505.659 254.965 505.591 254.991 505.554 254.95L359.903 91.2845C307.118 32.0219 307.118 -64.1362 359.903 -123.503L505.751 -287.286L512.004 -294.184L656.104 -459.847C708.245 -519.842 792.847 -519.842 845.08 -459.847L989.06 -294.323C989.107 -294.268 989.068 -294.184 988.997 -294.184V-294.184C988.925 -294.184 988.886 -294.099 988.933 -294.045L1097.97 -168.76C1130.98 -130.82 1184.59 -130.82 1217.61 -168.76L1327.07 -294.532C1327.11 -294.577 1327.16 -294.602 1327.22 -294.602V-294.602C1327.28 -294.602 1327.34 -294.627 1327.38 -294.671L1471.14 -459.847C1523.28 -519.842 1607.88 -519.842 1660.12 -459.847L1804.22 -294.184L1809.73 -288.435L1955.49 -124.653C2008.27 -65.3904 2008.27 30.7677 1955.49 90.1348L1809.83 253.813C1809.78 253.868 1809.69 253.868 1809.64 253.813V253.813Z" stroke="url(#paint24_linear_1873_55416)" stroke-width="1.75" stroke-miterlimit="10" stroke-linecap="round"/>
<path d="M1809.64 253.813C1809.59 253.757 1809.51 253.757 1809.46 253.812L1698.83 378.191C1665.45 415.713 1665.45 476.648 1698.83 514.171L1809.35 638.432C1809.39 638.473 1809.46 638.447 1809.46 638.392V638.392C1809.46 638.338 1809.52 638.312 1809.56 638.353L1955.21 802.018C2008 861.281 2008 957.439 1955.21 1016.81L1809.46 1180.59L1803.2 1187.49L1659.1 1353.15C1606.96 1413.14 1522.36 1413.14 1470.13 1353.15L1326.15 1187.62C1326.1 1187.57 1326.14 1187.49 1326.21 1187.49V1187.49C1326.28 1187.49 1326.32 1187.4 1326.27 1187.35L1217.24 1062.06C1184.23 1024.12 1130.61 1024.12 1097.6 1062.06L988.229 1187.73C988.191 1187.77 988.135 1187.8 988.077 1187.8V1187.8C988.018 1187.8 987.963 1187.83 987.925 1187.87L844.161 1353.05C792.02 1413.04 707.417 1413.04 655.184 1353.05L511.084 1187.38L505.567 1181.63L359.811 1017.85C307.027 958.588 307.027 862.43 359.811 803.063L505.659 639.49L616.377 515.112C649.759 477.589 649.759 416.654 616.377 379.132L505.763 254.87C505.726 254.829 505.659 254.855 505.659 254.91V254.91C505.659 254.965 505.591 254.991 505.554 254.95L359.903 91.2845C307.118 32.0219 307.118 -64.1362 359.903 -123.503L505.751 -287.286L512.004 -294.184L656.104 -459.847C708.245 -519.842 792.847 -519.842 845.08 -459.847L989.06 -294.323C989.107 -294.268 989.068 -294.184 988.997 -294.184V-294.184C988.925 -294.184 988.886 -294.099 988.933 -294.045L1097.97 -168.76C1130.98 -130.82 1184.59 -130.82 1217.61 -168.76L1327.07 -294.532C1327.11 -294.577 1327.16 -294.602 1327.22 -294.602V-294.602C1327.28 -294.602 1327.34 -294.627 1327.38 -294.671L1471.14 -459.847C1523.28 -519.842 1607.88 -519.842 1660.12 -459.847L1804.22 -294.184L1809.73 -288.435L1955.49 -124.653C2008.27 -65.3904 2008.27 30.7677 1955.49 90.1348L1809.83 253.813C1809.78 253.868 1809.69 253.868 1809.64 253.813V253.813Z" stroke="url(#paint25_linear_1873_55416)" stroke-width="1.75" stroke-miterlimit="10" stroke-linecap="round"/>
<path d="M1803.07 255.797C1803.04 255.748 1802.98 255.738 1802.94 255.778L1693.4 378.921C1660.3 416.13 1660.3 476.333 1693.4 513.542L1802.82 636.549C1802.86 636.59 1802.93 636.564 1802.93 636.51V636.51C1802.93 636.455 1803 636.429 1803.03 636.47L1947.21 798.463C1999.45 857.203 1999.45 952.316 1947.21 1011.06L1802.93 1173.17L1796.77 1179.96L1654.14 1343.95C1602.46 1403.32 1518.77 1403.32 1467.09 1343.95L1324.58 1180.1C1324.54 1180.04 1324.58 1179.96 1324.65 1179.96V1179.96C1324.72 1179.96 1324.76 1179.87 1324.71 1179.82L1216.78 1055.79C1184.04 1018.16 1131.07 1018.16 1098.34 1055.79L989.977 1180.2C989.939 1180.25 989.883 1180.27 989.825 1180.27V1180.27C989.766 1180.27 989.711 1180.3 989.672 1180.34L847.288 1343.95C795.607 1403.32 711.924 1403.32 660.243 1343.95L517.614 1179.96L512.188 1174.32L367.904 1012.21C315.671 953.465 315.671 858.353 367.904 799.613L512.28 637.712L621.896 514.483C655.001 477.274 655.001 417.071 621.896 379.862L512.476 256.855C512.44 256.814 512.372 256.84 512.372 256.894V256.894C512.372 256.949 512.304 256.975 512.268 256.934L368.088 94.9412C315.855 36.2011 315.855 -58.9118 368.088 -117.652L512.372 -279.762L518.533 -286.555L661.07 -450.651C712.751 -510.018 796.434 -510.018 848.115 -450.651L990.623 -286.799C990.671 -286.745 990.632 -286.66 990.56 -286.66V-286.66C990.488 -286.66 990.45 -286.575 990.497 -286.521L1098.43 -162.491C1131.17 -124.864 1184.13 -124.864 1216.87 -162.491L1325.23 -287.009C1325.27 -287.053 1325.33 -287.078 1325.38 -287.078V-287.078C1325.44 -287.078 1325.5 -287.103 1325.54 -287.147L1467.83 -450.651C1519.51 -510.018 1603.19 -510.018 1654.87 -450.651L1797.5 -286.66L1802.93 -281.016L1947.21 -118.906C1999.45 -60.1659 1999.45 34.947 1947.21 93.687L1803.19 255.816C1803.15 255.856 1803.09 255.846 1803.07 255.797V255.797Z" stroke="url(#paint26_linear_1873_55416)" stroke-width="1.75" stroke-miterlimit="10" stroke-linecap="round"/>
<path d="M1803.07 255.797C1803.04 255.748 1802.98 255.738 1802.94 255.778L1693.4 378.921C1660.3 416.13 1660.3 476.333 1693.4 513.542L1802.82 636.549C1802.86 636.59 1802.93 636.564 1802.93 636.51V636.51C1802.93 636.455 1803 636.429 1803.03 636.47L1947.21 798.463C1999.45 857.203 1999.45 952.316 1947.21 1011.06L1802.93 1173.17L1796.77 1179.96L1654.14 1343.95C1602.46 1403.32 1518.77 1403.32 1467.09 1343.95L1324.58 1180.1C1324.54 1180.04 1324.58 1179.96 1324.65 1179.96V1179.96C1324.72 1179.96 1324.76 1179.87 1324.71 1179.82L1216.78 1055.79C1184.04 1018.16 1131.07 1018.16 1098.34 1055.79L989.977 1180.2C989.939 1180.25 989.883 1180.27 989.825 1180.27V1180.27C989.766 1180.27 989.711 1180.3 989.672 1180.34L847.288 1343.95C795.607 1403.32 711.924 1403.32 660.243 1343.95L517.614 1179.96L512.188 1174.32L367.904 1012.21C315.671 953.465 315.671 858.353 367.904 799.613L512.28 637.712L621.896 514.483C655.001 477.274 655.001 417.071 621.896 379.862L512.476 256.855C512.44 256.814 512.372 256.84 512.372 256.894V256.894C512.372 256.949 512.304 256.975 512.268 256.934L368.088 94.9412C315.855 36.2011 315.855 -58.9118 368.088 -117.652L512.372 -279.762L518.533 -286.555L661.07 -450.651C712.751 -510.018 796.434 -510.018 848.115 -450.651L990.623 -286.799C990.671 -286.745 990.632 -286.66 990.56 -286.66V-286.66C990.488 -286.66 990.45 -286.575 990.497 -286.521L1098.43 -162.491C1131.17 -124.864 1184.13 -124.864 1216.87 -162.491L1325.23 -287.009C1325.27 -287.053 1325.33 -287.078 1325.38 -287.078V-287.078C1325.44 -287.078 1325.5 -287.103 1325.54 -287.147L1467.83 -450.651C1519.51 -510.018 1603.19 -510.018 1654.87 -450.651L1797.5 -286.66L1802.93 -281.016L1947.21 -118.906C1999.45 -60.1659 1999.45 34.947 1947.21 93.687L1803.19 255.816C1803.15 255.856 1803.09 255.846 1803.07 255.797V255.797Z" stroke="url(#paint27_linear_1873_55416)" stroke-width="1.75" stroke-miterlimit="10" stroke-linecap="round"/>
<path d="M1796.45 257.732C1796.43 257.664 1796.34 257.644 1796.29 257.698L1687.89 379.55C1655.15 416.341 1655.15 476.021 1687.89 512.812L1796.21 634.565C1796.24 634.606 1796.31 634.58 1796.31 634.525V634.525C1796.31 634.471 1796.38 634.445 1796.41 634.486L1939.12 794.911C1990.8 853.024 1990.8 947.196 1939.12 1005.31L1796.31 1165.85L1790.24 1172.54L1648.99 1334.86C1597.86 1393.6 1515.01 1393.6 1463.88 1334.86L1322.75 1172.68C1322.7 1172.62 1322.74 1172.54 1322.81 1172.54V1172.54C1322.88 1172.54 1322.92 1172.46 1322.87 1172.4L1216.05 1049.63C1183.68 1012.42 1131.17 1012.42 1098.8 1049.63L991.543 1172.89C991.504 1172.93 991.449 1172.96 991.391 1172.96V1172.96C991.332 1172.96 991.277 1172.98 991.238 1173.03L850.509 1334.75C799.38 1393.49 716.524 1393.49 665.395 1334.75L524.146 1172.44L518.72 1166.79L375.907 1006.35C324.226 948.241 324.226 854.069 375.907 795.956L518.812 635.623L627.324 513.648C660.061 476.858 660.061 417.177 627.324 380.386L519.008 258.633C518.972 258.592 518.904 258.618 518.904 258.673V258.673C518.904 258.728 518.836 258.754 518.8 258.713L376.091 98.3922C324.41 40.2793 324.41 -53.8929 376.091 -112.006L518.904 -272.548L524.973 -279.237L666.223 -441.556C717.352 -500.296 800.207 -500.296 851.337 -441.556L992.373 -279.376C992.421 -279.322 992.382 -279.237 992.31 -279.237V-279.237C992.238 -279.237 992.2 -279.153 992.247 -279.098L1099.07 -156.322C1131.44 -119.113 1183.95 -119.113 1216.32 -156.322L1323.58 -279.586C1323.62 -279.63 1323.67 -279.655 1323.73 -279.655V-279.655C1323.79 -279.655 1323.85 -279.681 1323.88 -279.725L1464.7 -441.556C1515.83 -500.296 1598.69 -500.296 1649.82 -441.556L1791.07 -279.237L1796.49 -273.593L1939.31 -113.051C1990.99 -54.9381 1990.99 39.2341 1939.31 97.347L1796.6 257.767C1796.56 257.82 1796.47 257.801 1796.45 257.732V257.732Z" stroke="url(#paint28_linear_1873_55416)" stroke-width="1.75" stroke-miterlimit="10" stroke-linecap="round"/>
<path d="M1796.45 257.732C1796.43 257.664 1796.34 257.644 1796.29 257.698L1687.89 379.55C1655.15 416.341 1655.15 476.021 1687.89 512.812L1796.21 634.565C1796.24 634.606 1796.31 634.58 1796.31 634.525V634.525C1796.31 634.471 1796.38 634.445 1796.41 634.486L1939.12 794.911C1990.8 853.024 1990.8 947.196 1939.12 1005.31L1796.31 1165.85L1790.24 1172.54L1648.99 1334.86C1597.86 1393.6 1515.01 1393.6 1463.88 1334.86L1322.75 1172.68C1322.7 1172.62 1322.74 1172.54 1322.81 1172.54V1172.54C1322.88 1172.54 1322.92 1172.46 1322.87 1172.4L1216.05 1049.63C1183.68 1012.42 1131.17 1012.42 1098.8 1049.63L991.543 1172.89C991.504 1172.93 991.449 1172.96 991.391 1172.96V1172.96C991.332 1172.96 991.277 1172.98 991.238 1173.03L850.509 1334.75C799.38 1393.49 716.524 1393.49 665.395 1334.75L524.146 1172.44L518.72 1166.79L375.907 1006.35C324.226 948.241 324.226 854.069 375.907 795.956L518.812 635.623L627.324 513.648C660.061 476.858 660.061 417.177 627.324 380.386L519.008 258.633C518.972 258.592 518.904 258.618 518.904 258.673V258.673C518.904 258.728 518.836 258.754 518.8 258.713L376.091 98.3922C324.41 40.2793 324.41 -53.8929 376.091 -112.006L518.904 -272.548L524.973 -279.237L666.223 -441.556C717.352 -500.296 800.207 -500.296 851.337 -441.556L992.373 -279.376C992.421 -279.322 992.382 -279.237 992.31 -279.237V-279.237C992.238 -279.237 992.2 -279.153 992.247 -279.098L1099.07 -156.322C1131.44 -119.113 1183.95 -119.113 1216.32 -156.322L1323.58 -279.586C1323.62 -279.63 1323.67 -279.655 1323.73 -279.655V-279.655C1323.79 -279.655 1323.85 -279.681 1323.88 -279.725L1464.7 -441.556C1515.83 -500.296 1598.69 -500.296 1649.82 -441.556L1791.07 -279.237L1796.49 -273.593L1939.31 -113.051C1990.99 -54.9381 1990.99 39.2341 1939.31 97.347L1796.6 257.767C1796.56 257.82 1796.47 257.801 1796.45 257.732V257.732Z" stroke="url(#paint29_linear_1873_55416)" stroke-width="1.75" stroke-miterlimit="10" stroke-linecap="round"/>
<path d="M1789.87 259.613C1789.87 259.594 1789.85 259.586 1789.84 259.599L1682.46 380.281C1650.09 416.653 1650.09 475.707 1682.46 512.184L1789.67 632.683C1789.71 632.724 1789.78 632.698 1789.78 632.643V632.643C1789.78 632.588 1789.85 632.562 1789.88 632.603L1931.12 791.356C1982.25 848.842 1982.25 942.073 1931.12 999.559L1789.78 1158.43L1783.71 1165.12L1643.93 1325.76C1593.35 1383.88 1511.33 1383.88 1460.75 1325.76L1321.09 1165.26C1321.04 1165.2 1321.08 1165.12 1321.15 1165.12V1165.12C1321.23 1165.12 1321.26 1165.03 1321.22 1164.98L1215.49 1043.46C1183.49 1006.67 1131.53 1006.67 1099.44 1043.46L993.379 1165.36C993.341 1165.41 993.285 1165.43 993.227 1165.43V1165.43C993.168 1165.43 993.113 1165.46 993.074 1165.5L853.632 1325.66C803.055 1383.77 721.027 1383.77 670.45 1325.66L530.671 1165.01L525.338 1159.47L383.996 1000.6C332.867 943.119 332.867 849.887 383.996 792.401L525.43 633.741L632.746 513.02C665.116 476.648 665.116 417.594 632.746 381.117L525.534 260.618C525.498 260.577 525.43 260.603 525.43 260.658V260.658C525.43 260.713 525.362 260.738 525.326 260.697L384.088 101.945C332.959 44.4588 332.959 -48.7726 384.088 -106.258L525.43 -265.128L531.499 -271.817L671.277 -432.464C721.855 -490.577 803.882 -490.577 854.46 -432.464L994.117 -271.956C994.165 -271.902 994.126 -271.817 994.054 -271.817V-271.817C993.982 -271.817 993.944 -271.733 993.991 -271.679L1099.72 -150.157C1131.72 -113.366 1183.67 -113.366 1215.77 -150.157L1321.92 -272.166C1321.96 -272.21 1322.01 -272.236 1322.07 -272.236V-272.236C1322.13 -272.236 1322.19 -272.261 1322.23 -272.305L1461.58 -432.464C1512.15 -490.577 1594.18 -490.577 1644.76 -432.464L1784.54 -271.817L1789.87 -266.278L1931.21 -107.408C1982.34 -49.9223 1982.34 43.3092 1931.21 100.795L1789.9 259.626C1789.89 259.639 1789.87 259.631 1789.87 259.613V259.613Z" stroke="url(#paint30_linear_1873_55416)" stroke-width="1.75" stroke-miterlimit="10" stroke-linecap="round"/>
<path d="M1789.87 259.613C1789.87 259.594 1789.85 259.586 1789.84 259.599L1682.46 380.281C1650.09 416.653 1650.09 475.707 1682.46 512.184L1789.67 632.683C1789.71 632.724 1789.78 632.698 1789.78 632.643V632.643C1789.78 632.588 1789.85 632.562 1789.88 632.603L1931.12 791.356C1982.25 848.842 1982.25 942.073 1931.12 999.559L1789.78 1158.43L1783.71 1165.12L1643.93 1325.76C1593.35 1383.88 1511.33 1383.88 1460.75 1325.76L1321.09 1165.26C1321.04 1165.2 1321.08 1165.12 1321.15 1165.12V1165.12C1321.23 1165.12 1321.26 1165.03 1321.22 1164.98L1215.49 1043.46C1183.49 1006.67 1131.53 1006.67 1099.44 1043.46L993.379 1165.36C993.341 1165.41 993.285 1165.43 993.227 1165.43V1165.43C993.168 1165.43 993.113 1165.46 993.074 1165.5L853.632 1325.66C803.055 1383.77 721.027 1383.77 670.45 1325.66L530.671 1165.01L525.338 1159.47L383.996 1000.6C332.867 943.119 332.867 849.887 383.996 792.401L525.43 633.741L632.746 513.02C665.116 476.648 665.116 417.594 632.746 381.117L525.534 260.618C525.498 260.577 525.43 260.603 525.43 260.658V260.658C525.43 260.713 525.362 260.738 525.326 260.697L384.088 101.945C332.959 44.4588 332.959 -48.7726 384.088 -106.258L525.43 -265.128L531.499 -271.817L671.277 -432.464C721.855 -490.577 803.882 -490.577 854.46 -432.464L994.117 -271.956C994.165 -271.902 994.126 -271.817 994.054 -271.817V-271.817C993.982 -271.817 993.944 -271.733 993.991 -271.679L1099.72 -150.157C1131.72 -113.366 1183.67 -113.366 1215.77 -150.157L1321.92 -272.166C1321.96 -272.21 1322.01 -272.236 1322.07 -272.236V-272.236C1322.13 -272.236 1322.19 -272.261 1322.23 -272.305L1461.58 -432.464C1512.15 -490.577 1594.18 -490.577 1644.76 -432.464L1784.54 -271.817L1789.87 -266.278L1931.21 -107.408C1982.34 -49.9223 1982.34 43.3092 1931.21 100.795L1789.9 259.626C1789.89 259.639 1789.87 259.631 1789.87 259.613V259.613Z" stroke="url(#paint31_linear_1873_55416)" stroke-width="1.75" stroke-miterlimit="10" stroke-linecap="round"/>
<path d="M1783.29 261.6C1783.27 261.531 1783.19 261.512 1783.14 261.565L1677.04 380.909C1644.94 416.968 1644.94 475.394 1677.04 511.454L1783.14 630.698C1783.18 630.739 1783.25 630.713 1783.25 630.658V630.658C1783.25 630.603 1783.32 630.578 1783.35 630.619L1923.12 787.699C1973.79 844.558 1973.79 936.848 1923.12 993.812L1783.25 1151.01L1777.27 1157.59L1638.96 1316.57C1588.94 1374.16 1507.74 1374.16 1457.62 1316.57L1319.43 1157.73C1319.39 1157.68 1319.43 1157.59 1319.5 1157.59V1157.59C1319.57 1157.59 1319.61 1157.51 1319.56 1157.45L1214.94 1037.19C1183.21 1000.71 1131.81 1000.71 1100.08 1037.19L995.034 1157.84C994.995 1157.88 994.94 1157.91 994.881 1157.91V1157.91C994.823 1157.91 994.767 1157.93 994.729 1157.98L856.758 1316.46C806.733 1374.05 725.533 1374.05 675.415 1316.46L537.108 1157.49L531.774 1151.95L391.996 994.857C341.327 937.998 341.327 845.707 391.996 788.744L531.958 631.756L638.171 512.29C670.265 476.23 670.265 417.804 638.171 381.745L532.063 262.5C532.026 262.46 531.958 262.485 531.958 262.54V262.54C531.958 262.595 531.891 262.621 531.854 262.58L392.088 105.499C341.419 48.6408 341.419 -43.6499 392.088 -100.613L531.958 -257.811L537.936 -264.395L676.242 -423.37C726.268 -480.96 807.468 -480.96 857.586 -423.37L995.772 -264.43C995.819 -264.375 995.781 -264.291 995.709 -264.291V-264.291C995.637 -264.291 995.599 -264.206 995.646 -264.152L1100.27 -143.884C1131.99 -107.407 1183.4 -107.407 1215.12 -143.884L1320.17 -264.535C1320.21 -264.579 1320.27 -264.604 1320.33 -264.604V-264.604C1320.38 -264.604 1320.44 -264.63 1320.48 -264.674L1458.45 -423.161C1508.47 -480.751 1589.67 -480.751 1639.79 -423.161L1778.1 -264.186L1783.43 -258.647L1923.21 -101.554C1973.88 -44.6951 1973.88 47.5956 1923.21 104.559L1783.45 261.634C1783.4 261.687 1783.31 261.668 1783.29 261.6V261.6Z" stroke="url(#paint32_linear_1873_55416)" stroke-width="1.75" stroke-miterlimit="10" stroke-linecap="round"/>
<path d="M1783.29 261.6C1783.27 261.531 1783.19 261.512 1783.14 261.565L1677.04 380.909C1644.94 416.968 1644.94 475.394 1677.04 511.454L1783.14 630.698C1783.18 630.739 1783.25 630.713 1783.25 630.658V630.658C1783.25 630.603 1783.32 630.578 1783.35 630.619L1923.12 787.699C1973.79 844.558 1973.79 936.848 1923.12 993.812L1783.25 1151.01L1777.27 1157.59L1638.96 1316.57C1588.94 1374.16 1507.74 1374.16 1457.62 1316.57L1319.43 1157.73C1319.39 1157.68 1319.43 1157.59 1319.5 1157.59V1157.59C1319.57 1157.59 1319.61 1157.51 1319.56 1157.45L1214.94 1037.19C1183.21 1000.71 1131.81 1000.71 1100.08 1037.19L995.034 1157.84C994.995 1157.88 994.94 1157.91 994.881 1157.91V1157.91C994.823 1157.91 994.767 1157.93 994.729 1157.98L856.758 1316.46C806.733 1374.05 725.533 1374.05 675.415 1316.46L537.108 1157.49L531.774 1151.95L391.996 994.857C341.327 937.998 341.327 845.707 391.996 788.744L531.958 631.756L638.171 512.29C670.265 476.23 670.265 417.804 638.171 381.745L532.063 262.5C532.026 262.46 531.958 262.485 531.958 262.54V262.54C531.958 262.595 531.891 262.621 531.854 262.58L392.088 105.499C341.419 48.6408 341.419 -43.6499 392.088 -100.613L531.958 -257.811L537.936 -264.395L676.242 -423.37C726.268 -480.96 807.468 -480.96 857.586 -423.37L995.772 -264.43C995.819 -264.375 995.781 -264.291 995.709 -264.291V-264.291C995.637 -264.291 995.599 -264.206 995.646 -264.152L1100.27 -143.884C1131.99 -107.407 1183.4 -107.407 1215.12 -143.884L1320.17 -264.535C1320.21 -264.579 1320.27 -264.604 1320.33 -264.604V-264.604C1320.38 -264.604 1320.44 -264.63 1320.48 -264.674L1458.45 -423.161C1508.47 -480.751 1589.67 -480.751 1639.79 -423.161L1778.1 -264.186L1783.43 -258.647L1923.21 -101.554C1973.88 -44.6951 1973.88 47.5956 1923.21 104.559L1783.45 261.634C1783.4 261.687 1783.31 261.668 1783.29 261.6V261.6Z" stroke="url(#paint33_linear_1873_55416)" stroke-width="1.75" stroke-miterlimit="10" stroke-linecap="round"/>
<path d="M1776.72 263.585C1776.72 263.53 1776.65 263.505 1776.62 263.546L1671.61 381.64C1639.89 417.281 1639.89 475.081 1671.61 510.826L1776.62 628.816C1776.65 628.857 1776.72 628.832 1776.72 628.777V628.777C1776.72 628.722 1776.79 628.696 1776.83 628.737L1915.12 784.145C1965.24 840.481 1965.24 931.727 1915.12 988.063L1776.63 1143.59L1770.74 1150.07L1633.91 1307.37C1584.34 1364.33 1504.06 1364.33 1454.5 1307.37L1317.78 1150.21C1317.73 1150.15 1317.77 1150.07 1317.84 1150.07V1150.07C1317.92 1150.07 1317.95 1149.98 1317.91 1149.93L1214.39 1030.92C1183.03 994.857 1132.18 994.857 1100.73 1030.92L996.783 1150.42C996.744 1150.46 996.689 1150.49 996.63 1150.49V1150.49C996.572 1150.49 996.516 1150.51 996.478 1150.56L859.979 1307.37C810.413 1364.33 730.132 1364.33 680.566 1307.37L543.731 1150.07L538.489 1144.63L399.999 989.108C349.881 932.772 349.881 841.526 399.999 785.19L538.489 629.874L643.691 511.663C675.417 476.021 675.417 418.222 643.691 382.476L538.685 264.486C538.649 264.445 538.581 264.471 538.581 264.526V264.526C538.581 264.581 538.513 264.607 538.477 264.566L400.182 109.157C350.065 52.8214 350.065 -38.4242 400.182 -94.7603L538.581 -250.286L544.467 -256.766L681.302 -414.068C730.868 -471.031 811.148 -471.031 860.714 -414.068L997.429 -256.904C997.476 -256.85 997.438 -256.766 997.366 -256.766V-256.766C997.294 -256.766 997.256 -256.681 997.303 -256.627L1100.82 -137.613C1132.18 -101.554 1183.03 -101.554 1214.48 -137.613L1318.43 -257.01C1318.47 -257.054 1318.52 -257.079 1318.58 -257.079V-257.079C1318.64 -257.079 1318.69 -257.105 1318.73 -257.149L1455.23 -413.963C1504.8 -470.926 1585.08 -470.926 1634.64 -413.963L1771.48 -256.661L1776.72 -251.226L1915.12 -95.701C1965.24 -39.3649 1965.24 51.8807 1915.12 108.217L1776.82 263.625C1776.79 263.666 1776.72 263.64 1776.72 263.585V263.585Z" stroke="url(#paint34_linear_1873_55416)" stroke-width="1.75" stroke-miterlimit="10" stroke-linecap="round"/>
<path d="M1776.72 263.585C1776.72 263.53 1776.65 263.505 1776.62 263.546L1671.61 381.64C1639.89 417.281 1639.89 475.081 1671.61 510.826L1776.62 628.816C1776.65 628.857 1776.72 628.832 1776.72 628.777V628.777C1776.72 628.722 1776.79 628.696 1776.83 628.737L1915.12 784.145C1965.24 840.481 1965.24 931.727 1915.12 988.063L1776.63 1143.59L1770.74 1150.07L1633.91 1307.37C1584.34 1364.33 1504.06 1364.33 1454.5 1307.37L1317.78 1150.21C1317.73 1150.15 1317.77 1150.07 1317.84 1150.07V1150.07C1317.92 1150.07 1317.95 1149.98 1317.91 1149.93L1214.39 1030.92C1183.03 994.857 1132.18 994.857 1100.73 1030.92L996.783 1150.42C996.744 1150.46 996.689 1150.49 996.63 1150.49V1150.49C996.572 1150.49 996.516 1150.51 996.478 1150.56L859.979 1307.37C810.413 1364.33 730.132 1364.33 680.566 1307.37L543.731 1150.07L538.489 1144.63L399.999 989.108C349.881 932.772 349.881 841.526 399.999 785.19L538.489 629.874L643.691 511.663C675.417 476.021 675.417 418.222 643.691 382.476L538.685 264.486C538.649 264.445 538.581 264.471 538.581 264.526V264.526C538.581 264.581 538.513 264.607 538.477 264.566L400.182 109.157C350.065 52.8214 350.065 -38.4242 400.182 -94.7603L538.581 -250.286L544.467 -256.766L681.302 -414.068C730.868 -471.031 811.148 -471.031 860.714 -414.068L997.429 -256.904C997.476 -256.85 997.438 -256.766 997.366 -256.766V-256.766C997.294 -256.766 997.256 -256.681 997.303 -256.627L1100.82 -137.613C1132.18 -101.554 1183.03 -101.554 1214.48 -137.613L1318.43 -257.01C1318.47 -257.054 1318.52 -257.079 1318.58 -257.079V-257.079C1318.64 -257.079 1318.69 -257.105 1318.73 -257.149L1455.23 -413.963C1504.8 -470.926 1585.08 -470.926 1634.64 -413.963L1771.48 -256.661L1776.72 -251.226L1915.12 -95.701C1965.24 -39.3649 1965.24 51.8807 1915.12 108.217L1776.82 263.625C1776.79 263.666 1776.72 263.64 1776.72 263.585V263.585Z" stroke="url(#paint35_linear_1873_55416)" stroke-width="1.75" stroke-miterlimit="10" stroke-linecap="round"/>
</g>
<defs>
<linearGradient id="paint0_linear_1873_55416" x1="1157.83" y1="1519.98" x2="1157.83" y2="-626.923" gradientUnits="userSpaceOnUse">
<stop stop-color="#2DCF78"/>
</linearGradient>
<linearGradient id="paint1_linear_1873_55416" x1="1157.83" y1="1519.98" x2="1157.83" y2="-626.923" gradientUnits="userSpaceOnUse">
<stop stop-color="#2DCF78"/>
</linearGradient>
<linearGradient id="paint2_linear_1873_55416" x1="1157.92" y1="1510.36" x2="1157.92" y2="-617.088" gradientUnits="userSpaceOnUse">
<stop stop-color="#2DCF78"/>
</linearGradient>
<linearGradient id="paint3_linear_1873_55416" x1="1157.92" y1="1510.36" x2="1157.92" y2="-617.088" gradientUnits="userSpaceOnUse">
<stop stop-color="#2DCF78"/>
</linearGradient>
<linearGradient id="paint4_linear_1873_55416" x1="1157.87" y1="1500.71" x2="1157.87" y2="-607.436" gradientUnits="userSpaceOnUse">
<stop stop-color="#2DCF78"/>
</linearGradient>
<linearGradient id="paint5_linear_1873_55416" x1="1157.87" y1="1500.71" x2="1157.87" y2="-607.436" gradientUnits="userSpaceOnUse">
<stop stop-color="#2DCF78"/>
</linearGradient>
<linearGradient id="paint6_linear_1873_55416" x1="1157.82" y1="1491.08" x2="1157.82" y2="-597.915" gradientUnits="userSpaceOnUse">
<stop stop-color="#2DCF78"/>
</linearGradient>
<linearGradient id="paint7_linear_1873_55416" x1="1157.82" y1="1491.08" x2="1157.82" y2="-597.915" gradientUnits="userSpaceOnUse">
<stop stop-color="#2DCF78"/>
</linearGradient>
<linearGradient id="paint8_linear_1873_55416" x1="1157.96" y1="1481.46" x2="1157.96" y2="-588.289" gradientUnits="userSpaceOnUse">
<stop stop-color="#2DCF78"/>
</linearGradient>
<linearGradient id="paint9_linear_1873_55416" x1="1157.96" y1="1481.46" x2="1157.96" y2="-588.289" gradientUnits="userSpaceOnUse">
<stop stop-color="#2DCF78"/>
</linearGradient>
<linearGradient id="paint10_linear_1873_55416" x1="1157.91" y1="1471.72" x2="1157.91" y2="-578.558" gradientUnits="userSpaceOnUse">
<stop stop-color="#2DCF78"/>
</linearGradient>
<linearGradient id="paint11_linear_1873_55416" x1="1157.91" y1="1471.72" x2="1157.91" y2="-578.558" gradientUnits="userSpaceOnUse">
<stop stop-color="#2DCF78"/>
</linearGradient>
<linearGradient id="paint12_linear_1873_55416" x1="1157.86" y1="1462.1" x2="1157.86" y2="-568.933" gradientUnits="userSpaceOnUse">
<stop stop-color="#2DCF78"/>
</linearGradient>
<linearGradient id="paint13_linear_1873_55416" x1="1157.86" y1="1462.1" x2="1157.86" y2="-568.933" gradientUnits="userSpaceOnUse">
<stop stop-color="#2DCF78"/>
</linearGradient>
<linearGradient id="paint14_linear_1873_55416" x1="1157.81" y1="1452.45" x2="1157.81" y2="-559.279" gradientUnits="userSpaceOnUse">
<stop stop-color="#2DCF78"/>
</linearGradient>
<linearGradient id="paint15_linear_1873_55416" x1="1157.81" y1="1452.45" x2="1157.81" y2="-559.279" gradientUnits="userSpaceOnUse">
<stop stop-color="#2DCF78"/>
</linearGradient>
<linearGradient id="paint16_linear_1873_55416" x1="1157.86" y1="1442.82" x2="1157.86" y2="-549.655" gradientUnits="userSpaceOnUse">
<stop stop-color="#2DCF78"/>
</linearGradient>
<linearGradient id="paint17_linear_1873_55416" x1="1157.86" y1="1442.82" x2="1157.86" y2="-549.655" gradientUnits="userSpaceOnUse">
<stop stop-color="#2DCF78"/>
</linearGradient>
<linearGradient id="paint18_linear_1873_55416" x1="1157.81" y1="1433.3" x2="1157.81" y2="-539.924" gradientUnits="userSpaceOnUse">
<stop stop-color="#2DCF78"/>
</linearGradient>
<linearGradient id="paint19_linear_1873_55416" x1="1157.81" y1="1433.3" x2="1157.81" y2="-539.924" gradientUnits="userSpaceOnUse">
<stop stop-color="#2DCF78"/>
</linearGradient>
<linearGradient id="paint20_linear_1873_55416" x1="1157.81" y1="1423.47" x2="1157.81" y2="-530.299" gradientUnits="userSpaceOnUse">
<stop stop-color="#2DCF78"/>
</linearGradient>
<linearGradient id="paint21_linear_1873_55416" x1="1157.81" y1="1423.47" x2="1157.81" y2="-530.299" gradientUnits="userSpaceOnUse">
<stop stop-color="#2DCF78"/>
</linearGradient>
<linearGradient id="paint22_linear_1873_55416" x1="1157.86" y1="1413.84" x2="1157.86" y2="-520.569" gradientUnits="userSpaceOnUse">
<stop stop-color="#2DCF78"/>
</linearGradient>
<linearGradient id="paint23_linear_1873_55416" x1="1157.86" y1="1413.84" x2="1157.86" y2="-520.569" gradientUnits="userSpaceOnUse">
<stop stop-color="#2DCF78"/>
</linearGradient>
<linearGradient id="paint24_linear_1873_55416" x1="1157.85" y1="1404.29" x2="1157.85" y2="-511.021" gradientUnits="userSpaceOnUse">
<stop stop-color="#2DCF78"/>
</linearGradient>
<linearGradient id="paint25_linear_1873_55416" x1="1157.85" y1="1404.29" x2="1157.85" y2="-511.021" gradientUnits="userSpaceOnUse">
<stop stop-color="#2DCF78"/>
</linearGradient>
<linearGradient id="paint26_linear_1873_55416" x1="1157.75" y1="1394.56" x2="1157.75" y2="-501.291" gradientUnits="userSpaceOnUse">
<stop stop-color="#2DCF78"/>
</linearGradient>
<linearGradient id="paint27_linear_1873_55416" x1="1157.75" y1="1394.56" x2="1157.75" y2="-501.291" gradientUnits="userSpaceOnUse">
<stop stop-color="#2DCF78"/>
</linearGradient>
<linearGradient id="paint28_linear_1873_55416" x1="1157.8" y1="1384.94" x2="1157.8" y2="-491.664" gradientUnits="userSpaceOnUse">
<stop stop-color="#2DCF78"/>
</linearGradient>
<linearGradient id="paint29_linear_1873_55416" x1="1157.8" y1="1384.94" x2="1157.8" y2="-491.664" gradientUnits="userSpaceOnUse">
<stop stop-color="#2DCF78"/>
</linearGradient>
<linearGradient id="paint30_linear_1873_55416" x1="1157.8" y1="1375.31" x2="1157.8" y2="-482.04" gradientUnits="userSpaceOnUse">
<stop stop-color="#2DCF78"/>
</linearGradient>
<linearGradient id="paint31_linear_1873_55416" x1="1157.8" y1="1375.31" x2="1157.8" y2="-482.04" gradientUnits="userSpaceOnUse">
<stop stop-color="#2DCF78"/>
</linearGradient>
<linearGradient id="paint32_linear_1873_55416" x1="1157.79" y1="1365.66" x2="1157.79" y2="-472.491" gradientUnits="userSpaceOnUse">
<stop stop-color="#2DCF78"/>
</linearGradient>
<linearGradient id="paint33_linear_1873_55416" x1="1157.79" y1="1365.66" x2="1157.79" y2="-472.491" gradientUnits="userSpaceOnUse">
<stop stop-color="#2DCF78"/>
</linearGradient>
<linearGradient id="paint34_linear_1873_55416" x1="1157.75" y1="1355.93" x2="1157.75" y2="-462.656" gradientUnits="userSpaceOnUse">
<stop stop-color="#2DCF78"/>
</linearGradient>
<linearGradient id="paint35_linear_1873_55416" x1="1157.75" y1="1355.93" x2="1157.75" y2="-462.656" gradientUnits="userSpaceOnUse">
<stop stop-color="#2DCF78"/>
</linearGradient>
</defs>
</svg>
