<svg width="auto" height="442" viewBox="0 0 352 442" fill="none" xmlns="http://www.w3.org/2000/svg">
<rect width="352" height="442" rx="8" fill="#232325"/>
<mask id="mask0_1873_55414" style="mask-type:alpha" maskUnits="userSpaceOnUse" x="0" y="0" width="352" height="442">
<rect width="352" height="442" rx="8" fill="#232325"/>
</mask>
<g mask="url(#mask0_1873_55414)">
<path d="M-63.5947 -840.445C-63.6147 -840.513 -63.702 -840.533 -63.7493 -840.48L-187.786 -701.068C-225.213 -658.947 -225.213 -590.696 -187.786 -548.574L-63.8716 -409.301C-63.823 -409.247 -63.7326 -409.281 -63.7326 -409.354V-409.354C-63.7326 -409.427 -63.6423 -409.462 -63.5936 -409.407L99.6789 -225.922C158.809 -159.448 158.809 -51.6879 99.6789 14.7866L-63.7326 198.428L-70.7215 206.162L-232.202 391.684C-290.688 458.89 -385.498 458.89 -443.984 391.684L-605.436 206.092C-605.483 206.037 -605.445 205.953 -605.373 205.953V205.953C-605.301 205.953 -605.262 205.868 -605.31 205.814L-727.587 65.374C-764.646 22.8345 -824.695 22.8345 -861.755 65.374L-984.49 206.441C-984.51 206.463 -984.537 206.476 -984.567 206.476V206.476C-984.596 206.476 -984.624 206.488 -984.643 206.51L-1145.73 391.684C-1204.21 458.89 -1299.02 458.89 -1357.51 391.684L-1519.08 205.953L-1525.24 199.473L-1688.65 15.9363C-1747.78 -50.5382 -1747.78 -158.298 -1688.65 -224.772L-1525.15 -408.1L-1401 -547.634C-1363.58 -589.755 -1363.58 -658.006 -1401 -700.128L-1524.92 -839.401C-1524.97 -839.455 -1525.06 -839.421 -1525.06 -839.348V-839.348C-1525.06 -839.275 -1525.15 -839.24 -1525.2 -839.295L-1688.47 -1022.78C-1747.6 -1089.25 -1747.6 -1197.01 -1688.47 -1263.49L-1525.06 -1447.13L-1518.07 -1454.86L-1356.5 -1640.6C-1298.01 -1707.8 -1203.2 -1707.8 -1144.71 -1640.6L-983.384 -1454.93C-983.325 -1454.86 -983.373 -1454.76 -983.463 -1454.76V-1454.76C-983.553 -1454.76 -983.601 -1454.65 -983.542 -1454.59L-861.295 -1314.18C-824.236 -1271.64 -764.186 -1271.64 -727.127 -1314.18L-604.452 -1455.18C-604.394 -1455.24 -604.311 -1455.28 -604.223 -1455.28V-1455.28C-604.135 -1455.28 -604.052 -1455.32 -603.995 -1455.39L-442.881 -1640.49C-384.395 -1707.7 -289.585 -1707.7 -231.098 -1640.49L-69.7099 -1454.76L-63.5487 -1448.28L99.8629 -1264.64C158.993 -1198.16 158.993 -1090.4 99.8629 -1023.93L-63.4401 -840.41C-63.4874 -840.357 -63.5747 -840.377 -63.5947 -840.445V-840.445Z" stroke="url(#paint0_linear_1873_55414)" stroke-width="1.75" stroke-miterlimit="10" stroke-linecap="round"/>
<path d="M-63.5947 -840.445C-63.6147 -840.513 -63.702 -840.533 -63.7493 -840.48L-187.786 -701.068C-225.213 -658.947 -225.213 -590.696 -187.786 -548.574L-63.8716 -409.301C-63.823 -409.247 -63.7326 -409.281 -63.7326 -409.354V-409.354C-63.7326 -409.427 -63.6423 -409.462 -63.5936 -409.407L99.6789 -225.922C158.809 -159.448 158.809 -51.6879 99.6789 14.7866L-63.7326 198.428L-70.7215 206.162L-232.202 391.684C-290.688 458.89 -385.498 458.89 -443.984 391.684L-605.436 206.092C-605.483 206.037 -605.445 205.953 -605.373 205.953V205.953C-605.301 205.953 -605.262 205.868 -605.31 205.814L-727.587 65.374C-764.646 22.8345 -824.695 22.8345 -861.755 65.374L-984.49 206.441C-984.51 206.463 -984.537 206.476 -984.567 206.476V206.476C-984.596 206.476 -984.624 206.488 -984.643 206.51L-1145.73 391.684C-1204.21 458.89 -1299.02 458.89 -1357.51 391.684L-1519.08 205.953L-1525.24 199.473L-1688.65 15.9363C-1747.78 -50.5382 -1747.78 -158.298 -1688.65 -224.772L-1525.15 -408.1L-1401 -547.634C-1363.58 -589.755 -1363.58 -658.006 -1401 -700.128L-1524.92 -839.401C-1524.97 -839.455 -1525.06 -839.421 -1525.06 -839.348V-839.348C-1525.06 -839.275 -1525.15 -839.24 -1525.2 -839.295L-1688.47 -1022.78C-1747.6 -1089.25 -1747.6 -1197.01 -1688.47 -1263.49L-1525.06 -1447.13L-1518.07 -1454.86L-1356.5 -1640.6C-1298.01 -1707.8 -1203.2 -1707.8 -1144.71 -1640.6L-983.384 -1454.93C-983.325 -1454.86 -983.373 -1454.76 -983.463 -1454.76V-1454.76C-983.553 -1454.76 -983.601 -1454.65 -983.542 -1454.59L-861.295 -1314.18C-824.236 -1271.64 -764.186 -1271.64 -727.127 -1314.18L-604.452 -1455.18C-604.394 -1455.24 -604.311 -1455.28 -604.223 -1455.28V-1455.28C-604.135 -1455.28 -604.052 -1455.32 -603.995 -1455.39L-442.881 -1640.49C-384.395 -1707.7 -289.585 -1707.7 -231.098 -1640.49L-69.7099 -1454.76L-63.5487 -1448.28L99.8629 -1264.64C158.993 -1198.16 158.993 -1090.4 99.8629 -1023.93L-63.4401 -840.41C-63.4874 -840.357 -63.5747 -840.377 -63.5947 -840.445V-840.445Z" stroke="url(#paint1_linear_1873_55414)" stroke-width="1.75" stroke-miterlimit="10" stroke-linecap="round"/>
<path d="M-70.0795 -838.512C-70.1225 -838.61 -70.2522 -838.63 -70.3232 -838.55L-193.121 -700.442C-230.273 -658.738 -230.273 -591.114 -193.121 -549.411L-70.3104 -411.392C-70.2618 -411.337 -70.1714 -411.372 -70.1714 -411.445V-411.445C-70.1714 -411.518 -70.0811 -411.552 -70.0325 -411.498L91.7688 -229.685C150.347 -163.838 150.347 -57.0188 91.7688 8.82858L-70.1714 190.797L-77.0684 198.427L-237.261 382.591C-295.196 449.17 -389.178 449.17 -447.112 382.591L-607.093 198.67C-607.14 198.616 -607.101 198.532 -607.029 198.532V198.532C-606.958 198.532 -606.919 198.447 -606.966 198.393L-728.048 59.207C-764.74 16.9811 -824.237 16.9811 -860.929 59.207L-982.5 198.846C-982.558 198.912 -982.641 198.95 -982.729 198.95V198.95C-982.816 198.95 -982.9 198.988 -982.957 199.054L-1142.6 382.591C-1200.53 449.17 -1294.52 449.17 -1352.45 382.591L-1512.55 198.532L-1518.71 192.156L-1680.56 10.1873C-1739.14 -55.66 -1739.14 -162.479 -1680.56 -228.326L-1518.53 -410.086L-1395.58 -548.365C-1358.43 -590.069 -1358.43 -657.693 -1395.58 -699.396L-1518.39 -837.415C-1518.44 -837.47 -1518.53 -837.435 -1518.53 -837.362V-837.362C-1518.53 -837.289 -1518.62 -837.255 -1518.67 -837.309L-1680.47 -1019.12C-1739.05 -1084.97 -1739.05 -1191.79 -1680.47 -1257.64L-1518.53 -1439.6L-1511.63 -1447.23L-1351.53 -1631.29C-1293.6 -1697.87 -1199.61 -1697.87 -1141.68 -1631.29L-981.7 -1447.37C-981.653 -1447.32 -981.691 -1447.23 -981.763 -1447.23V-1447.23C-981.835 -1447.23 -981.874 -1447.15 -981.826 -1447.1L-860.653 -1307.91C-823.961 -1265.68 -764.464 -1265.68 -727.772 -1307.91L-606.2 -1447.55C-606.143 -1447.61 -606.06 -1447.65 -605.972 -1447.65V-1447.65C-605.884 -1447.65 -605.801 -1447.69 -605.743 -1447.76L-446.101 -1631.19C-388.167 -1697.77 -294.184 -1697.77 -236.25 -1631.19L-76.1488 -1447.13L-69.9875 -1440.75L91.9527 -1258.79C150.531 -1192.94 150.531 -1086.12 91.9526 -1020.27L-69.8358 -838.473C-69.9068 -838.394 -70.0365 -838.414 -70.0795 -838.512V-838.512Z" stroke="url(#paint2_linear_1873_55414)" stroke-width="1.75" stroke-miterlimit="10" stroke-linecap="round"/>
<path d="M-70.0795 -838.512C-70.1225 -838.61 -70.2522 -838.63 -70.3232 -838.55L-193.121 -700.442C-230.273 -658.738 -230.273 -591.114 -193.121 -549.411L-70.3104 -411.392C-70.2618 -411.337 -70.1714 -411.372 -70.1714 -411.445V-411.445C-70.1714 -411.518 -70.0811 -411.552 -70.0325 -411.498L91.7688 -229.685C150.347 -163.838 150.347 -57.0188 91.7688 8.82858L-70.1714 190.797L-77.0684 198.427L-237.261 382.591C-295.196 449.17 -389.178 449.17 -447.112 382.591L-607.093 198.67C-607.14 198.616 -607.101 198.532 -607.029 198.532V198.532C-606.958 198.532 -606.919 198.447 -606.966 198.393L-728.048 59.207C-764.74 16.9811 -824.237 16.9811 -860.929 59.207L-982.5 198.846C-982.558 198.912 -982.641 198.95 -982.729 198.95V198.95C-982.816 198.95 -982.9 198.988 -982.957 199.054L-1142.6 382.591C-1200.53 449.17 -1294.52 449.17 -1352.45 382.591L-1512.55 198.532L-1518.71 192.156L-1680.56 10.1873C-1739.14 -55.66 -1739.14 -162.479 -1680.56 -228.326L-1518.53 -410.086L-1395.58 -548.365C-1358.43 -590.069 -1358.43 -657.693 -1395.58 -699.396L-1518.39 -837.415C-1518.44 -837.47 -1518.53 -837.435 -1518.53 -837.362V-837.362C-1518.53 -837.289 -1518.62 -837.255 -1518.67 -837.309L-1680.47 -1019.12C-1739.05 -1084.97 -1739.05 -1191.79 -1680.47 -1257.64L-1518.53 -1439.6L-1511.63 -1447.23L-1351.53 -1631.29C-1293.6 -1697.87 -1199.61 -1697.87 -1141.68 -1631.29L-981.7 -1447.37C-981.653 -1447.32 -981.691 -1447.23 -981.763 -1447.23V-1447.23C-981.835 -1447.23 -981.874 -1447.15 -981.826 -1447.1L-860.653 -1307.91C-823.961 -1265.68 -764.464 -1265.68 -727.772 -1307.91L-606.2 -1447.55C-606.143 -1447.61 -606.06 -1447.65 -605.972 -1447.65V-1447.65C-605.884 -1447.65 -605.801 -1447.69 -605.743 -1447.76L-446.101 -1631.19C-388.167 -1697.77 -294.184 -1697.77 -236.25 -1631.19L-76.1488 -1447.13L-69.9875 -1440.75L91.9527 -1258.79C150.531 -1192.94 150.531 -1086.12 91.9526 -1020.27L-69.8358 -838.473C-69.9068 -838.394 -70.0365 -838.414 -70.0795 -838.512V-838.512Z" stroke="url(#paint3_linear_1873_55414)" stroke-width="1.75" stroke-miterlimit="10" stroke-linecap="round"/>
<path d="M-76.6977 -836.577C-76.7432 -836.655 -76.8509 -836.665 -76.9105 -836.598L-198.636 -699.709C-235.419 -658.319 -235.419 -591.322 -198.636 -550.037L-76.9287 -413.272C-76.8801 -413.218 -76.7897 -413.252 -76.7897 -413.325V-413.325C-76.7897 -413.398 -76.6994 -413.433 -76.6508 -413.378L83.6792 -233.238C141.797 -167.913 141.797 -62.1391 83.6792 3.18566L-76.7897 183.482L-83.5946 191.007L-242.316 373.394C-299.791 439.451 -392.854 439.451 -450.328 373.394L-608.837 191.146C-608.884 191.092 -608.846 191.007 -608.774 191.007V191.007C-608.702 191.007 -608.664 190.923 -608.711 190.869L-728.781 52.937C-765.197 11.1292 -824.143 11.1292 -860.467 52.937L-980.843 191.426C-980.9 191.492 -980.983 191.53 -981.071 191.53V191.53C-981.159 191.53 -981.242 191.568 -981.3 191.634L-1139.47 373.394C-1196.95 439.451 -1290.01 439.451 -1347.48 373.394L-1506.02 191.112L-1512.09 184.841L-1672.56 4.43989C-1730.68 -60.8849 -1730.68 -166.659 -1672.56 -231.984L-1512 -412.071L-1390.15 -548.992C-1353.37 -590.381 -1353.37 -657.378 -1390.15 -698.664L-1511.86 -835.428C-1511.91 -835.483 -1512 -835.449 -1512 -835.375V-835.375C-1512 -835.302 -1512.09 -835.268 -1512.14 -835.322L-1672.47 -1015.46C-1730.59 -1080.79 -1730.59 -1186.56 -1672.47 -1251.89L-1512 -1432.18L-1505.19 -1439.71L-1346.56 -1622.09C-1289.09 -1688.15 -1196.03 -1688.15 -1138.55 -1622.09L-980.042 -1439.85C-979.995 -1439.79 -980.034 -1439.71 -980.105 -1439.71V-1439.71C-980.177 -1439.71 -980.216 -1439.62 -980.169 -1439.57L-860.099 -1301.64C-823.683 -1259.83 -764.737 -1259.83 -728.413 -1301.64L-607.945 -1440.02C-607.887 -1440.09 -607.804 -1440.13 -607.717 -1440.13V-1440.13C-607.629 -1440.13 -607.546 -1440.16 -607.488 -1440.23L-449.317 -1622.09C-391.842 -1688.15 -298.779 -1688.15 -241.305 -1622.09L-82.675 -1439.71L-76.6057 -1433.44L83.8632 -1253.14C141.981 -1187.82 141.981 -1082.04 83.8632 -1016.72L-76.4849 -836.556C-76.5446 -836.489 -76.6523 -836.5 -76.6977 -836.577V-836.577Z" stroke="url(#paint4_linear_1873_55414)" stroke-width="1.75" stroke-miterlimit="10" stroke-linecap="round"/>
<path d="M-76.6977 -836.577C-76.7432 -836.655 -76.8509 -836.665 -76.9105 -836.598L-198.636 -699.709C-235.419 -658.319 -235.419 -591.322 -198.636 -550.037L-76.9287 -413.272C-76.8801 -413.218 -76.7897 -413.252 -76.7897 -413.325V-413.325C-76.7897 -413.398 -76.6994 -413.433 -76.6508 -413.378L83.6792 -233.238C141.797 -167.913 141.797 -62.1391 83.6792 3.18566L-76.7897 183.482L-83.5946 191.007L-242.316 373.394C-299.791 439.451 -392.854 439.451 -450.328 373.394L-608.837 191.146C-608.884 191.092 -608.846 191.007 -608.774 191.007V191.007C-608.702 191.007 -608.664 190.923 -608.711 190.869L-728.781 52.937C-765.197 11.1292 -824.143 11.1292 -860.467 52.937L-980.843 191.426C-980.9 191.492 -980.983 191.53 -981.071 191.53V191.53C-981.159 191.53 -981.242 191.568 -981.3 191.634L-1139.47 373.394C-1196.95 439.451 -1290.01 439.451 -1347.48 373.394L-1506.02 191.112L-1512.09 184.841L-1672.56 4.43989C-1730.68 -60.8849 -1730.68 -166.659 -1672.56 -231.984L-1512 -412.071L-1390.15 -548.992C-1353.37 -590.381 -1353.37 -657.378 -1390.15 -698.664L-1511.86 -835.428C-1511.91 -835.483 -1512 -835.449 -1512 -835.375V-835.375C-1512 -835.302 -1512.09 -835.268 -1512.14 -835.322L-1672.47 -1015.46C-1730.59 -1080.79 -1730.59 -1186.56 -1672.47 -1251.89L-1512 -1432.18L-1505.19 -1439.71L-1346.56 -1622.09C-1289.09 -1688.15 -1196.03 -1688.15 -1138.55 -1622.09L-980.042 -1439.85C-979.995 -1439.79 -980.034 -1439.71 -980.105 -1439.71V-1439.71C-980.177 -1439.71 -980.216 -1439.62 -980.169 -1439.57L-860.099 -1301.64C-823.683 -1259.83 -764.737 -1259.83 -728.413 -1301.64L-607.945 -1440.02C-607.887 -1440.09 -607.804 -1440.13 -607.717 -1440.13V-1440.13C-607.629 -1440.13 -607.546 -1440.16 -607.488 -1440.23L-449.317 -1622.09C-391.842 -1688.15 -298.779 -1688.15 -241.305 -1622.09L-82.675 -1439.71L-76.6057 -1433.44L83.8632 -1253.14C141.981 -1187.82 141.981 -1082.04 83.8632 -1016.72L-76.4849 -836.556C-76.5446 -836.489 -76.6523 -836.5 -76.6977 -836.577V-836.577Z" stroke="url(#paint5_linear_1873_55414)" stroke-width="1.75" stroke-miterlimit="10" stroke-linecap="round"/>
<path d="M-83.2735 -834.697C-83.2979 -834.724 -83.3412 -834.725 -83.3658 -834.697L-204.062 -699.083C-240.478 -658.111 -240.478 -591.741 -204.062 -550.769L-83.4585 -415.259C-83.4098 -415.204 -83.3195 -415.239 -83.3195 -415.312V-415.312C-83.3195 -415.385 -83.2291 -415.419 -83.1805 -415.365L75.6781 -236.897C133.245 -172.199 133.245 -67.3662 75.6781 -2.66861L-83.3195 175.955L-90.1245 183.481L-247.375 364.3C-304.298 429.729 -396.533 429.729 -453.455 364.3L-610.493 183.724C-610.54 183.67 -610.502 183.585 -610.43 183.585V183.585C-610.358 183.585 -610.32 183.501 -610.367 183.447L-729.333 46.7692C-765.381 5.37941 -823.775 5.37941 -859.823 46.7692L-979.096 183.899C-979.153 183.965 -979.237 184.003 -979.324 184.003V184.003C-979.412 184.003 -979.495 184.041 -979.553 184.107L-1136.25 364.3C-1193.18 429.729 -1285.41 429.729 -1342.33 364.3L-1499.58 183.585L-1505.65 177.314L-1664.56 -1.30986C-1722.13 -66.0075 -1722.13 -170.841 -1664.56 -235.538L-1505.47 -413.953L-1384.73 -549.724C-1348.31 -590.696 -1348.31 -657.066 -1384.73 -698.037L-1505.33 -833.548C-1505.38 -833.602 -1505.47 -833.568 -1505.47 -833.495V-833.495C-1505.47 -833.422 -1505.56 -833.387 -1505.61 -833.442L-1664.47 -1011.91C-1722.03 -1076.61 -1722.03 -1181.44 -1664.47 -1246.14L-1505.47 -1424.76L-1498.66 -1432.29L-1341.41 -1613C-1284.49 -1678.43 -1192.26 -1678.43 -1135.33 -1613L-978.296 -1432.53C-978.248 -1432.48 -978.287 -1432.39 -978.359 -1432.39V-1432.39C-978.431 -1432.39 -978.469 -1432.31 -978.422 -1432.25L-859.547 -1295.58C-823.499 -1254.19 -765.105 -1254.19 -729.057 -1295.58L-609.693 -1432.71C-609.635 -1432.77 -609.552 -1432.81 -609.464 -1432.81V-1432.81C-609.377 -1432.81 -609.293 -1432.85 -609.236 -1432.91L-452.536 -1613.11C-395.613 -1678.54 -303.378 -1678.54 -246.455 -1613.11L-89.2968 -1432.39L-83.2275 -1426.12L75.77 -1247.5C133.336 -1182.8 133.336 -1077.97 75.77 -1013.27L-83.1812 -834.696C-83.2058 -834.669 -83.2491 -834.669 -83.2735 -834.697V-834.697Z" stroke="url(#paint6_linear_1873_55414)" stroke-width="1.75" stroke-miterlimit="10" stroke-linecap="round"/>
<path d="M-83.2735 -834.697C-83.2979 -834.724 -83.3412 -834.725 -83.3658 -834.697L-204.062 -699.083C-240.478 -658.111 -240.478 -591.741 -204.062 -550.769L-83.4585 -415.259C-83.4098 -415.204 -83.3195 -415.239 -83.3195 -415.312V-415.312C-83.3195 -415.385 -83.2291 -415.419 -83.1805 -415.365L75.6781 -236.897C133.245 -172.199 133.245 -67.3662 75.6781 -2.66861L-83.3195 175.955L-90.1245 183.481L-247.375 364.3C-304.298 429.729 -396.533 429.729 -453.455 364.3L-610.493 183.724C-610.54 183.67 -610.502 183.585 -610.43 183.585V183.585C-610.358 183.585 -610.32 183.501 -610.367 183.447L-729.333 46.7692C-765.381 5.37941 -823.775 5.37941 -859.823 46.7692L-979.096 183.899C-979.153 183.965 -979.237 184.003 -979.324 184.003V184.003C-979.412 184.003 -979.495 184.041 -979.553 184.107L-1136.25 364.3C-1193.18 429.729 -1285.41 429.729 -1342.33 364.3L-1499.58 183.585L-1505.65 177.314L-1664.56 -1.30986C-1722.13 -66.0075 -1722.13 -170.841 -1664.56 -235.538L-1505.47 -413.953L-1384.73 -549.724C-1348.31 -590.696 -1348.31 -657.066 -1384.73 -698.037L-1505.33 -833.548C-1505.38 -833.602 -1505.47 -833.568 -1505.47 -833.495V-833.495C-1505.47 -833.422 -1505.56 -833.387 -1505.61 -833.442L-1664.47 -1011.91C-1722.03 -1076.61 -1722.03 -1181.44 -1664.47 -1246.14L-1505.47 -1424.76L-1498.66 -1432.29L-1341.41 -1613C-1284.49 -1678.43 -1192.26 -1678.43 -1135.33 -1613L-978.296 -1432.53C-978.248 -1432.48 -978.287 -1432.39 -978.359 -1432.39V-1432.39C-978.431 -1432.39 -978.469 -1432.31 -978.422 -1432.25L-859.547 -1295.58C-823.499 -1254.19 -765.105 -1254.19 -729.057 -1295.58L-609.693 -1432.71C-609.635 -1432.77 -609.552 -1432.81 -609.464 -1432.81V-1432.81C-609.377 -1432.81 -609.293 -1432.85 -609.236 -1432.91L-452.536 -1613.11C-395.613 -1678.54 -303.378 -1678.54 -246.455 -1613.11L-89.2968 -1432.39L-83.2275 -1426.12L75.77 -1247.5C133.336 -1182.8 133.336 -1077.97 75.77 -1013.27L-83.1812 -834.696C-83.2058 -834.669 -83.2491 -834.669 -83.2735 -834.697V-834.697Z" stroke="url(#paint7_linear_1873_55414)" stroke-width="1.75" stroke-miterlimit="10" stroke-linecap="round"/>
<path d="M-89.7078 -832.762C-89.7857 -832.821 -89.8959 -832.81 -89.9608 -832.737L-209.485 -698.35C-245.625 -657.796 -245.625 -591.949 -209.485 -551.395L-89.9848 -417.139C-89.9361 -417.085 -89.8458 -417.119 -89.8458 -417.192V-417.192C-89.8458 -417.265 -89.7554 -417.3 -89.7068 -417.245L67.6804 -240.345C124.695 -176.274 124.695 -72.3819 67.6804 -8.31134L-89.8458 168.745L-96.5589 176.166L-252.43 355.103C-308.801 419.906 -400.208 419.906 -456.579 355.103L-612.238 176.2C-612.285 176.146 -612.246 176.061 -612.174 176.061V176.061C-612.103 176.061 -612.064 175.977 -612.111 175.923L-729.882 40.6038C-765.562 -0.472387 -823.497 -0.472388 -859.177 40.6038L-977.438 176.48C-977.495 176.546 -977.579 176.584 -977.666 176.584V176.584C-977.754 176.584 -977.837 176.622 -977.895 176.688L-1133.22 355.208C-1189.59 420.01 -1280.99 420.01 -1337.36 355.208L-1493.14 176.166L-1499.12 169.999L-1656.46 -7.05711C-1713.48 -71.1277 -1713.48 -175.02 -1656.46 -239.091L-1498.85 -415.833L-1379.21 -550.35C-1343.07 -590.904 -1343.07 -656.751 -1379.21 -697.305L-1498.71 -831.665C-1498.76 -831.72 -1498.85 -831.686 -1498.85 -831.612V-831.612C-1498.85 -831.539 -1498.94 -831.505 -1498.98 -831.56L-1656.37 -1008.46C-1713.39 -1072.53 -1713.39 -1176.42 -1656.37 -1240.49L-1498.85 -1417.55L-1492.13 -1424.97L-1336.35 -1604.01C-1279.98 -1668.81 -1188.57 -1668.81 -1132.2 -1604.01L-976.546 -1425.11C-976.498 -1425.06 -976.537 -1424.97 -976.609 -1424.97V-1424.97C-976.681 -1424.97 -976.719 -1424.89 -976.672 -1424.83L-858.809 -1289.41C-823.129 -1248.33 -765.194 -1248.33 -729.514 -1289.41L-611.253 -1425.28C-611.196 -1425.35 -611.112 -1425.39 -611.025 -1425.39V-1425.39C-610.937 -1425.39 -610.854 -1425.43 -610.796 -1425.49L-455.476 -1604.01C-399.105 -1668.81 -307.697 -1668.81 -251.326 -1604.01L-95.5472 -1424.97L-89.5699 -1418.8L67.9563 -1241.75C124.971 -1177.68 124.971 -1073.78 67.9563 -1009.71L-89.4548 -832.787C-89.5198 -832.714 -89.6299 -832.703 -89.7078 -832.762V-832.762Z" stroke="url(#paint8_linear_1873_55414)" stroke-width="1.75" stroke-miterlimit="10" stroke-linecap="round"/>
<path d="M-89.7078 -832.762C-89.7857 -832.821 -89.8959 -832.81 -89.9608 -832.737L-209.485 -698.35C-245.625 -657.796 -245.625 -591.949 -209.485 -551.395L-89.9848 -417.139C-89.9361 -417.085 -89.8458 -417.119 -89.8458 -417.192V-417.192C-89.8458 -417.265 -89.7554 -417.3 -89.7068 -417.245L67.6804 -240.345C124.695 -176.274 124.695 -72.3819 67.6804 -8.31134L-89.8458 168.745L-96.5589 176.166L-252.43 355.103C-308.801 419.906 -400.208 419.906 -456.579 355.103L-612.238 176.2C-612.285 176.146 -612.246 176.061 -612.174 176.061V176.061C-612.103 176.061 -612.064 175.977 -612.111 175.923L-729.882 40.6038C-765.562 -0.472387 -823.497 -0.472388 -859.177 40.6038L-977.438 176.48C-977.495 176.546 -977.579 176.584 -977.666 176.584V176.584C-977.754 176.584 -977.837 176.622 -977.895 176.688L-1133.22 355.208C-1189.59 420.01 -1280.99 420.01 -1337.36 355.208L-1493.14 176.166L-1499.12 169.999L-1656.46 -7.05711C-1713.48 -71.1277 -1713.48 -175.02 -1656.46 -239.091L-1498.85 -415.833L-1379.21 -550.35C-1343.07 -590.904 -1343.07 -656.751 -1379.21 -697.305L-1498.71 -831.665C-1498.76 -831.72 -1498.85 -831.686 -1498.85 -831.612V-831.612C-1498.85 -831.539 -1498.94 -831.505 -1498.98 -831.56L-1656.37 -1008.46C-1713.39 -1072.53 -1713.39 -1176.42 -1656.37 -1240.49L-1498.85 -1417.55L-1492.13 -1424.97L-1336.35 -1604.01C-1279.98 -1668.81 -1188.57 -1668.81 -1132.2 -1604.01L-976.546 -1425.11C-976.498 -1425.06 -976.537 -1424.97 -976.609 -1424.97V-1424.97C-976.681 -1424.97 -976.719 -1424.89 -976.672 -1424.83L-858.809 -1289.41C-823.129 -1248.33 -765.194 -1248.33 -729.514 -1289.41L-611.253 -1425.28C-611.196 -1425.35 -611.112 -1425.39 -611.025 -1425.39V-1425.39C-610.937 -1425.39 -610.854 -1425.43 -610.796 -1425.49L-455.476 -1604.01C-399.105 -1668.81 -307.697 -1668.81 -251.326 -1604.01L-95.5472 -1424.97L-89.5699 -1418.8L67.9563 -1241.75C124.971 -1177.68 124.971 -1073.78 67.9563 -1009.71L-89.4548 -832.787C-89.5198 -832.714 -89.6299 -832.703 -89.7078 -832.762V-832.762Z" stroke="url(#paint9_linear_1873_55414)" stroke-width="1.75" stroke-miterlimit="10" stroke-linecap="round"/>
<path d="M-96.378 -830.776C-96.4268 -830.832 -96.5133 -830.832 -96.5624 -830.776L-215.005 -697.618C-250.778 -657.378 -250.778 -592.262 -215.005 -552.022L-96.6089 -419.125C-96.5603 -419.07 -96.4699 -419.105 -96.4699 -419.178V-419.178C-96.4699 -419.251 -96.3795 -419.285 -96.3309 -419.231L59.5849 -244.003C116.048 -180.559 116.048 -77.6077 59.5849 -14.1643L-96.4699 161.22L-103.091 168.536L-257.399 345.906C-313.218 410.081 -403.798 410.081 -459.617 345.906L-613.896 168.779C-613.943 168.725 -613.905 168.641 -613.833 168.641V168.641C-613.761 168.641 -613.722 168.556 -613.77 168.502L-730.529 34.3328C-765.933 -6.3253 -823.224 -6.3253 -858.628 34.3328L-975.694 168.955C-975.751 169.021 -975.835 169.059 -975.922 169.059V169.059C-976.01 169.059 -976.093 169.097 -976.151 169.163L-1129.91 346.01C-1185.73 410.185 -1276.31 410.185 -1332.13 346.01L-1486.43 168.641L-1492.32 162.474L-1648.37 -12.9101C-1704.84 -76.3535 -1704.84 -179.305 -1648.37 -242.749L-1492.23 -417.924L-1373.69 -551.186C-1337.92 -591.426 -1337.92 -656.542 -1373.69 -696.782L-1492 -829.784C-1492.05 -829.838 -1492.14 -829.804 -1492.14 -829.731V-829.731C-1492.14 -829.658 -1492.23 -829.623 -1492.27 -829.678L-1648.19 -1004.91C-1704.65 -1068.35 -1704.65 -1171.3 -1648.19 -1234.74L-1492.14 -1410.13L-1485.51 -1417.44L-1331.3 -1594.81C-1275.48 -1658.99 -1184.9 -1658.99 -1129.08 -1594.81L-974.894 -1417.58C-974.846 -1417.53 -974.885 -1417.44 -974.957 -1417.44V-1417.44C-975.029 -1417.44 -975.067 -1417.36 -975.02 -1417.31L-858.26 -1283.14C-822.856 -1242.48 -765.566 -1242.48 -730.161 -1283.14L-613.004 -1417.76C-612.946 -1417.82 -612.863 -1417.86 -612.775 -1417.86V-1417.86C-612.688 -1417.86 -612.604 -1417.9 -612.547 -1417.97L-458.697 -1594.81C-402.878 -1658.99 -312.298 -1658.99 -256.479 -1594.81L-102.171 -1417.44L-96.286 -1411.28L59.7688 -1235.89C116.232 -1172.45 116.232 -1069.5 59.7688 -1006.06L-96.1935 -830.775C-96.2427 -830.72 -96.3291 -830.72 -96.378 -830.776V-830.776Z" stroke="url(#paint10_linear_1873_55414)" stroke-width="1.75" stroke-miterlimit="10" stroke-linecap="round"/>
<path d="M-96.378 -830.776C-96.4268 -830.832 -96.5133 -830.832 -96.5624 -830.776L-215.005 -697.618C-250.778 -657.378 -250.778 -592.262 -215.005 -552.022L-96.6089 -419.125C-96.5603 -419.07 -96.4699 -419.105 -96.4699 -419.178V-419.178C-96.4699 -419.251 -96.3795 -419.285 -96.3309 -419.231L59.5849 -244.003C116.048 -180.559 116.048 -77.6077 59.5849 -14.1643L-96.4699 161.22L-103.091 168.536L-257.399 345.906C-313.218 410.081 -403.798 410.081 -459.617 345.906L-613.896 168.779C-613.943 168.725 -613.905 168.641 -613.833 168.641V168.641C-613.761 168.641 -613.722 168.556 -613.77 168.502L-730.529 34.3328C-765.933 -6.3253 -823.224 -6.3253 -858.628 34.3328L-975.694 168.955C-975.751 169.021 -975.835 169.059 -975.922 169.059V169.059C-976.01 169.059 -976.093 169.097 -976.151 169.163L-1129.91 346.01C-1185.73 410.185 -1276.31 410.185 -1332.13 346.01L-1486.43 168.641L-1492.32 162.474L-1648.37 -12.9101C-1704.84 -76.3535 -1704.84 -179.305 -1648.37 -242.749L-1492.23 -417.924L-1373.69 -551.186C-1337.92 -591.426 -1337.92 -656.542 -1373.69 -696.782L-1492 -829.784C-1492.05 -829.838 -1492.14 -829.804 -1492.14 -829.731V-829.731C-1492.14 -829.658 -1492.23 -829.623 -1492.27 -829.678L-1648.19 -1004.91C-1704.65 -1068.35 -1704.65 -1171.3 -1648.19 -1234.74L-1492.14 -1410.13L-1485.51 -1417.44L-1331.3 -1594.81C-1275.48 -1658.99 -1184.9 -1658.99 -1129.08 -1594.81L-974.894 -1417.58C-974.846 -1417.53 -974.885 -1417.44 -974.957 -1417.44V-1417.44C-975.029 -1417.44 -975.067 -1417.36 -975.02 -1417.31L-858.26 -1283.14C-822.856 -1242.48 -765.566 -1242.48 -730.161 -1283.14L-613.004 -1417.76C-612.946 -1417.82 -612.863 -1417.86 -612.775 -1417.86V-1417.86C-612.688 -1417.86 -612.604 -1417.9 -612.547 -1417.97L-458.697 -1594.81C-402.878 -1658.99 -312.298 -1658.99 -256.479 -1594.81L-102.171 -1417.44L-96.286 -1411.28L59.7688 -1235.89C116.232 -1172.45 116.232 -1069.5 59.7688 -1006.06L-96.1935 -830.775C-96.2427 -830.72 -96.3291 -830.72 -96.378 -830.776V-830.776Z" stroke="url(#paint11_linear_1873_55414)" stroke-width="1.75" stroke-miterlimit="10" stroke-linecap="round"/>
<path d="M-102.954 -828.843C-102.974 -828.912 -103.061 -828.931 -103.109 -828.878L-220.432 -696.992C-255.836 -657.17 -255.836 -592.577 -220.432 -552.755L-103.231 -421.007C-103.182 -420.952 -103.092 -420.987 -103.092 -421.06V-421.06C-103.092 -421.133 -103.002 -421.167 -102.953 -421.113L51.4914 -247.557C107.403 -184.637 107.403 -82.73 51.4914 -19.8092L-103.092 153.902L-109.713 161.219L-262.549 336.916C-317.909 400.464 -407.569 400.464 -462.929 336.916L-615.644 161.358C-615.691 161.303 -615.653 161.219 -615.581 161.219V161.219C-615.509 161.219 -615.471 161.134 -615.518 161.08L-731.174 28.1653C-766.21 -12.0747 -823.041 -12.0747 -858.078 28.1653L-973.948 161.533C-974.005 161.599 -974.089 161.637 -974.176 161.637V161.637C-974.264 161.637 -974.347 161.675 -974.405 161.741L-1126.78 336.916C-1182.14 400.464 -1271.8 400.464 -1327.16 336.916L-1480 161.219L-1485.88 155.157L-1640.47 -18.555C-1696.38 -81.4758 -1696.38 -183.382 -1640.47 -246.303L-1485.79 -419.806L-1368.36 -551.814C-1332.96 -591.636 -1332.96 -656.229 -1368.36 -696.051L-1485.56 -827.799C-1485.61 -827.853 -1485.7 -827.819 -1485.7 -827.746V-827.746C-1485.7 -827.673 -1485.79 -827.638 -1485.84 -827.693L-1640.28 -1001.25C-1696.19 -1064.17 -1696.19 -1166.08 -1640.28 -1229L-1485.7 -1402.71L-1479.08 -1410.02L-1326.24 -1585.72C-1270.88 -1649.27 -1181.22 -1649.27 -1125.86 -1585.72L-973.147 -1410.16C-973.1 -1410.11 -973.139 -1410.02 -973.211 -1410.02V-1410.02C-973.282 -1410.02 -973.321 -1409.94 -973.274 -1409.89L-857.71 -1276.97C-822.673 -1236.73 -765.842 -1236.73 -730.806 -1276.97L-614.752 -1410.34C-614.694 -1410.4 -614.611 -1410.44 -614.523 -1410.44V-1410.44C-614.436 -1410.44 -614.353 -1410.48 -614.295 -1410.55L-461.917 -1585.72C-406.558 -1649.27 -316.897 -1649.27 -261.538 -1585.72L-108.702 -1410.02L-102.816 -1403.96L51.7673 -1230.25C107.679 -1167.33 107.679 -1065.42 51.7673 -1002.5L-102.799 -828.809C-102.847 -828.755 -102.934 -828.775 -102.954 -828.843V-828.843Z" stroke="url(#paint12_linear_1873_55414)" stroke-width="1.75" stroke-miterlimit="10" stroke-linecap="round"/>
<path d="M-102.954 -828.843C-102.974 -828.912 -103.061 -828.931 -103.109 -828.878L-220.432 -696.992C-255.836 -657.17 -255.836 -592.577 -220.432 -552.755L-103.231 -421.007C-103.182 -420.952 -103.092 -420.987 -103.092 -421.06V-421.06C-103.092 -421.133 -103.002 -421.167 -102.953 -421.113L51.4914 -247.557C107.403 -184.637 107.403 -82.73 51.4914 -19.8092L-103.092 153.902L-109.713 161.219L-262.549 336.916C-317.909 400.464 -407.569 400.464 -462.929 336.916L-615.644 161.358C-615.691 161.303 -615.653 161.219 -615.581 161.219V161.219C-615.509 161.219 -615.471 161.134 -615.518 161.08L-731.174 28.1653C-766.21 -12.0747 -823.041 -12.0747 -858.078 28.1653L-973.948 161.533C-974.005 161.599 -974.089 161.637 -974.176 161.637V161.637C-974.264 161.637 -974.347 161.675 -974.405 161.741L-1126.78 336.916C-1182.14 400.464 -1271.8 400.464 -1327.16 336.916L-1480 161.219L-1485.88 155.157L-1640.47 -18.555C-1696.38 -81.4758 -1696.38 -183.382 -1640.47 -246.303L-1485.79 -419.806L-1368.36 -551.814C-1332.96 -591.636 -1332.96 -656.229 -1368.36 -696.051L-1485.56 -827.799C-1485.61 -827.853 -1485.7 -827.819 -1485.7 -827.746V-827.746C-1485.7 -827.673 -1485.79 -827.638 -1485.84 -827.693L-1640.28 -1001.25C-1696.19 -1064.17 -1696.19 -1166.08 -1640.28 -1229L-1485.7 -1402.71L-1479.08 -1410.02L-1326.24 -1585.72C-1270.88 -1649.27 -1181.22 -1649.27 -1125.86 -1585.72L-973.147 -1410.16C-973.1 -1410.11 -973.139 -1410.02 -973.211 -1410.02V-1410.02C-973.282 -1410.02 -973.321 -1409.94 -973.274 -1409.89L-857.71 -1276.97C-822.673 -1236.73 -765.842 -1236.73 -730.806 -1276.97L-614.752 -1410.34C-614.694 -1410.4 -614.611 -1410.44 -614.523 -1410.44V-1410.44C-614.436 -1410.44 -614.353 -1410.48 -614.295 -1410.55L-461.917 -1585.72C-406.558 -1649.27 -316.897 -1649.27 -261.538 -1585.72L-108.702 -1410.02L-102.816 -1403.96L51.7673 -1230.25C107.679 -1167.33 107.679 -1065.42 51.7673 -1002.5L-102.799 -828.809C-102.847 -828.755 -102.934 -828.775 -102.954 -828.843V-828.843Z" stroke="url(#paint13_linear_1873_55414)" stroke-width="1.75" stroke-miterlimit="10" stroke-linecap="round"/>
<path d="M-109.573 -826.908C-109.595 -826.957 -109.66 -826.968 -109.695 -826.928L-225.948 -696.259C-261.076 -656.855 -261.076 -592.889 -225.948 -553.381L-109.85 -422.887C-109.802 -422.833 -109.711 -422.867 -109.711 -422.94V-422.94C-109.711 -423.013 -109.621 -423.048 -109.572 -422.993L43.4009 -251.11C98.8523 -188.816 98.8523 -87.8505 43.4008 -25.5569L-109.619 146.482L-116.148 153.694L-267.513 327.719C-322.321 390.745 -411.154 390.745 -465.961 327.719L-617.206 153.833C-617.253 153.779 -617.214 153.694 -617.142 153.694V153.694C-617.071 153.694 -617.032 153.61 -617.079 153.555L-731.724 21.9995C-766.392 -17.9269 -822.671 -17.927 -857.432 21.9995L-972.321 154.043C-972.359 154.087 -972.414 154.112 -972.473 154.112V154.112C-972.531 154.112 -972.587 154.138 -972.625 154.182L-1123.65 327.719C-1178.46 390.745 -1267.29 390.745 -1322.1 327.719L-1473.47 153.694L-1479.26 147.632L-1632.37 -24.4072C-1687.82 -86.7008 -1687.82 -187.667 -1632.37 -249.96L-1479.17 -421.791L-1362.84 -552.545C-1327.71 -591.948 -1327.71 -655.914 -1362.84 -695.423L-1478.97 -825.955C-1479.01 -825.996 -1479.08 -825.97 -1479.08 -825.916V-825.916C-1479.08 -825.861 -1479.14 -825.835 -1479.18 -825.876L-1632.19 -997.798C-1687.64 -1060.09 -1687.64 -1161.06 -1632.19 -1223.35L-1479.08 -1395.39L-1472.55 -1402.6L-1321.18 -1576.52C-1266.37 -1639.55 -1177.54 -1639.55 -1122.73 -1576.52L-971.49 -1402.64C-971.443 -1402.58 -971.481 -1402.5 -971.553 -1402.5V-1402.5C-971.625 -1402.5 -971.664 -1402.41 -971.616 -1402.36L-857.064 -1270.7C-822.395 -1230.77 -766.116 -1230.77 -731.356 -1270.7L-616.375 -1402.85C-616.337 -1402.89 -616.281 -1402.92 -616.223 -1402.92V-1402.92C-616.164 -1402.92 -616.109 -1402.94 -616.071 -1402.99L-465.134 -1576.52C-410.326 -1639.55 -321.493 -1639.55 -266.686 -1576.52L-115.321 -1402.5L-109.527 -1396.44L43.5847 -1224.4C99.0362 -1162.1 99.0362 -1061.14 43.5847 -998.843L-109.451 -826.889C-109.487 -826.849 -109.552 -826.86 -109.573 -826.908V-826.908Z" stroke="url(#paint14_linear_1873_55414)" stroke-width="1.75" stroke-miterlimit="10" stroke-linecap="round"/>
<path d="M-109.573 -826.908C-109.595 -826.957 -109.66 -826.968 -109.695 -826.928L-225.948 -696.259C-261.076 -656.855 -261.076 -592.889 -225.948 -553.381L-109.85 -422.887C-109.802 -422.833 -109.711 -422.867 -109.711 -422.94V-422.94C-109.711 -423.013 -109.621 -423.048 -109.572 -422.993L43.4009 -251.11C98.8523 -188.816 98.8523 -87.8505 43.4008 -25.5569L-109.619 146.482L-116.148 153.694L-267.513 327.719C-322.321 390.745 -411.154 390.745 -465.961 327.719L-617.206 153.833C-617.253 153.779 -617.214 153.694 -617.142 153.694V153.694C-617.071 153.694 -617.032 153.61 -617.079 153.555L-731.724 21.9995C-766.392 -17.9269 -822.671 -17.927 -857.432 21.9995L-972.321 154.043C-972.359 154.087 -972.414 154.112 -972.473 154.112V154.112C-972.531 154.112 -972.587 154.138 -972.625 154.182L-1123.65 327.719C-1178.46 390.745 -1267.29 390.745 -1322.1 327.719L-1473.47 153.694L-1479.26 147.632L-1632.37 -24.4072C-1687.82 -86.7008 -1687.82 -187.667 -1632.37 -249.96L-1479.17 -421.791L-1362.84 -552.545C-1327.71 -591.948 -1327.71 -655.914 -1362.84 -695.423L-1478.97 -825.955C-1479.01 -825.996 -1479.08 -825.97 -1479.08 -825.916V-825.916C-1479.08 -825.861 -1479.14 -825.835 -1479.18 -825.876L-1632.19 -997.798C-1687.64 -1060.09 -1687.64 -1161.06 -1632.19 -1223.35L-1479.08 -1395.39L-1472.55 -1402.6L-1321.18 -1576.52C-1266.37 -1639.55 -1177.54 -1639.55 -1122.73 -1576.52L-971.49 -1402.64C-971.443 -1402.58 -971.481 -1402.5 -971.553 -1402.5V-1402.5C-971.625 -1402.5 -971.664 -1402.41 -971.616 -1402.36L-857.064 -1270.7C-822.395 -1230.77 -766.116 -1230.77 -731.356 -1270.7L-616.375 -1402.85C-616.337 -1402.89 -616.281 -1402.92 -616.223 -1402.92V-1402.92C-616.164 -1402.92 -616.109 -1402.94 -616.071 -1402.99L-465.134 -1576.52C-410.326 -1639.55 -321.493 -1639.55 -266.686 -1576.52L-115.321 -1402.5L-109.527 -1396.44L43.5847 -1224.4C99.0362 -1162.1 99.0362 -1061.14 43.5847 -998.843L-109.451 -826.889C-109.487 -826.849 -109.552 -826.86 -109.573 -826.908V-826.908Z" stroke="url(#paint15_linear_1873_55414)" stroke-width="1.75" stroke-miterlimit="10" stroke-linecap="round"/>
<path d="Mnan nanL-116.148 -825.028L-231.373 -695.528C-266.133 -656.438 -266.133 -593.099 -231.373 -554.009L-116.344 -424.73C-116.307 -424.689 -116.24 -424.715 -116.24 -424.77V-424.77C-116.24 -424.825 -116.172 -424.851 -116.135 -424.81L35.4011 -254.56C90.3008 -192.893 90.3008 -92.8681 35.4011 -31.2015L-116.24 139.166L-122.677 146.273L-272.57 318.626C-326.826 381.024 -414.831 381.024 -469.087 318.626L-618.86 146.412C-618.907 146.357 -618.869 146.273 -618.797 146.273V146.273C-618.725 146.273 -618.687 146.188 -618.734 146.134L-732.183 15.7278C-766.576 -23.7806 -822.303 -23.7806 -856.696 15.7278L-970.573 146.622C-970.611 146.666 -970.667 146.691 -970.725 146.691V146.691C-970.783 146.691 -970.839 146.716 -970.877 146.76L-1120.43 318.626C-1174.69 381.024 -1262.7 381.024 -1316.95 318.626L-1466.85 146.273L-1472.55 140.315L-1624.19 -30.0518C-1679.09 -91.7184 -1679.09 -191.744 -1624.19 -253.41L-1472.45 -423.568L-1357.23 -553.068C-1322.47 -592.158 -1322.47 -655.497 -1357.23 -694.587L-1472.26 -823.866C-1472.3 -823.907 -1472.36 -823.881 -1472.36 -823.826V-823.826C-1472.36 -823.771 -1472.43 -823.745 -1472.47 -823.786L-1624 -994.036C-1678.9 -1055.7 -1678.9 -1155.73 -1624 -1217.39L-1472.36 -1387.76L-1465.93 -1394.87L-1316.03 -1567.22C-1261.78 -1629.62 -1173.77 -1629.62 -1119.52 -1567.22L-969.742 -1395.01C-969.695 -1394.95 -969.734 -1394.87 -969.805 -1394.87V-1394.87C-969.877 -1394.87 -969.916 -1394.78 -969.869 -1394.73L-856.512 -1264.53C-822.119 -1225.02 -766.392 -1225.02 -731.999 -1264.53L-618.122 -1395.43C-618.083 -1395.47 -618.028 -1395.5 -617.969 -1395.5V-1395.5C-617.911 -1395.5 -617.855 -1395.52 -617.817 -1395.57L-468.26 -1567.43C-414.004 -1629.83 -325.999 -1629.83 -271.743 -1567.43L-121.849 -1395.08L-116.148 -1389.12L35.4932 -1218.75C90.3929 -1157.09 90.3929 -1057.06 35.4932 -995.395L-116.148 -825.028Lnan nanLnan nanZ" stroke="url(#paint16_linear_1873_55414)" stroke-width="1.75" stroke-miterlimit="10" stroke-linecap="round"/>
<path d="Mnan nanL-116.148 -825.028L-231.373 -695.528C-266.133 -656.438 -266.133 -593.099 -231.373 -554.009L-116.344 -424.73C-116.307 -424.689 -116.24 -424.715 -116.24 -424.77V-424.77C-116.24 -424.825 -116.172 -424.851 -116.135 -424.81L35.4011 -254.56C90.3008 -192.893 90.3008 -92.8681 35.4011 -31.2015L-116.24 139.166L-122.677 146.273L-272.57 318.626C-326.826 381.024 -414.831 381.024 -469.087 318.626L-618.86 146.412C-618.907 146.357 -618.869 146.273 -618.797 146.273V146.273C-618.725 146.273 -618.687 146.188 -618.734 146.134L-732.183 15.7278C-766.576 -23.7806 -822.303 -23.7806 -856.696 15.7278L-970.573 146.622C-970.611 146.666 -970.667 146.691 -970.725 146.691V146.691C-970.783 146.691 -970.839 146.716 -970.877 146.76L-1120.43 318.626C-1174.69 381.024 -1262.7 381.024 -1316.95 318.626L-1466.85 146.273L-1472.55 140.315L-1624.19 -30.0518C-1679.09 -91.7184 -1679.09 -191.744 -1624.19 -253.41L-1472.45 -423.568L-1357.23 -553.068C-1322.47 -592.158 -1322.47 -655.497 -1357.23 -694.587L-1472.26 -823.866C-1472.3 -823.907 -1472.36 -823.881 -1472.36 -823.826V-823.826C-1472.36 -823.771 -1472.43 -823.745 -1472.47 -823.786L-1624 -994.036C-1678.9 -1055.7 -1678.9 -1155.73 -1624 -1217.39L-1472.36 -1387.76L-1465.93 -1394.87L-1316.03 -1567.22C-1261.78 -1629.62 -1173.77 -1629.62 -1119.52 -1567.22L-969.742 -1395.01C-969.695 -1394.95 -969.734 -1394.87 -969.805 -1394.87V-1394.87C-969.877 -1394.87 -969.916 -1394.78 -969.869 -1394.73L-856.512 -1264.53C-822.119 -1225.02 -766.392 -1225.02 -731.999 -1264.53L-618.122 -1395.43C-618.083 -1395.47 -618.028 -1395.5 -617.969 -1395.5V-1395.5C-617.911 -1395.5 -617.855 -1395.52 -617.817 -1395.57L-468.26 -1567.43C-414.004 -1629.83 -325.999 -1629.83 -271.743 -1567.43L-121.849 -1395.08L-116.148 -1389.12L35.4932 -1218.75C90.3929 -1157.09 90.3929 -1057.06 35.4932 -995.395L-116.148 -825.028Lnan nanLnan nanZ" stroke="url(#paint17_linear_1873_55414)" stroke-width="1.75" stroke-miterlimit="10" stroke-linecap="round"/>
<path d="M-122.682 -822.937C-122.725 -823.035 -122.854 -823.055 -122.925 -822.975L-236.803 -694.9C-271.196 -656.228 -271.196 -593.516 -236.803 -554.844L-122.878 -426.82C-122.841 -426.779 -122.774 -426.805 -122.774 -426.86V-426.86C-122.774 -426.915 -122.706 -426.94 -122.669 -426.9L27.396 -258.217C81.7439 -197.074 81.7439 -98.0935 27.396 -36.9495L-122.774 131.85L-129.211 138.957L-277.725 309.638C-331.521 371.409 -418.606 371.409 -472.403 309.638L-620.796 139.096C-620.843 139.042 -620.805 138.957 -620.733 138.957V138.957C-620.661 138.957 -620.622 138.872 -620.669 138.818L-732.923 9.56171C-766.948 -29.5286 -822.124 -29.5286 -856.149 9.56171L-968.922 139.097C-968.961 139.141 -969.016 139.166 -969.075 139.166V139.166C-969.133 139.166 -969.189 139.191 -969.227 139.235L-1117.31 309.428C-1171.11 371.2 -1258.19 371.2 -1311.99 309.428L-1460.5 138.748L-1466.21 132.79L-1616.38 -36.0089C-1670.72 -97.1528 -1670.72 -196.133 -1616.38 -257.277L-1466.11 -425.867L-1352.08 -554.112C-1317.69 -592.785 -1317.69 -655.497 -1352.08 -694.169L-1466.01 -822.193C-1466.05 -822.234 -1466.11 -822.208 -1466.11 -822.153V-822.153C-1466.11 -822.098 -1466.18 -822.072 -1466.22 -822.113L-1616.28 -990.795C-1670.63 -1051.94 -1670.63 -1150.92 -1616.28 -1212.06L-1466.02 -1380.55L-1459.59 -1387.66L-1311.07 -1558.23C-1257.27 -1620 -1170.19 -1620 -1116.39 -1558.23L-968 -1387.69C-967.953 -1387.64 -967.991 -1387.55 -968.063 -1387.55V-1387.55C-968.135 -1387.55 -968.173 -1387.47 -968.126 -1387.41L-855.873 -1258.37C-821.848 -1219.28 -766.672 -1219.28 -732.647 -1258.37L-619.874 -1387.9C-619.835 -1387.94 -619.78 -1387.97 -619.721 -1387.97V-1387.97C-619.663 -1387.97 -619.607 -1388 -619.569 -1388.04L-471.483 -1558.23C-417.687 -1620 -330.601 -1620 -276.805 -1558.23L-128.291 -1387.55L-122.59 -1381.59L27.5799 -1212.8C81.9278 -1151.65 81.9278 -1052.67 27.5799 -991.527L-122.438 -822.899C-122.509 -822.819 -122.638 -822.839 -122.682 -822.937V-822.937Z" stroke="url(#paint18_linear_1873_55414)" stroke-width="1.75" stroke-miterlimit="10" stroke-linecap="round"/>
<path d="M-122.682 -822.937C-122.725 -823.035 -122.854 -823.055 -122.925 -822.975L-236.803 -694.9C-271.196 -656.228 -271.196 -593.516 -236.803 -554.844L-122.878 -426.82C-122.841 -426.779 -122.774 -426.805 -122.774 -426.86V-426.86C-122.774 -426.915 -122.706 -426.94 -122.669 -426.9L27.396 -258.217C81.7439 -197.074 81.7439 -98.0935 27.396 -36.9495L-122.774 131.85L-129.211 138.957L-277.725 309.638C-331.521 371.409 -418.606 371.409 -472.403 309.638L-620.796 139.096C-620.843 139.042 -620.805 138.957 -620.733 138.957V138.957C-620.661 138.957 -620.622 138.872 -620.669 138.818L-732.923 9.56171C-766.948 -29.5286 -822.124 -29.5286 -856.149 9.56171L-968.922 139.097C-968.961 139.141 -969.016 139.166 -969.075 139.166V139.166C-969.133 139.166 -969.189 139.191 -969.227 139.235L-1117.31 309.428C-1171.11 371.2 -1258.19 371.2 -1311.99 309.428L-1460.5 138.748L-1466.21 132.79L-1616.38 -36.0089C-1670.72 -97.1528 -1670.72 -196.133 -1616.38 -257.277L-1466.11 -425.867L-1352.08 -554.112C-1317.69 -592.785 -1317.69 -655.497 -1352.08 -694.169L-1466.01 -822.193C-1466.05 -822.234 -1466.11 -822.208 -1466.11 -822.153V-822.153C-1466.11 -822.098 -1466.18 -822.072 -1466.22 -822.113L-1616.28 -990.795C-1670.63 -1051.94 -1670.63 -1150.92 -1616.28 -1212.06L-1466.02 -1380.55L-1459.59 -1387.66L-1311.07 -1558.23C-1257.27 -1620 -1170.19 -1620 -1116.39 -1558.23L-968 -1387.69C-967.953 -1387.64 -967.991 -1387.55 -968.063 -1387.55V-1387.55C-968.135 -1387.55 -968.173 -1387.47 -968.126 -1387.41L-855.873 -1258.37C-821.848 -1219.28 -766.672 -1219.28 -732.647 -1258.37L-619.874 -1387.9C-619.835 -1387.94 -619.78 -1387.97 -619.721 -1387.97V-1387.97C-619.663 -1387.97 -619.607 -1388 -619.569 -1388.04L-471.483 -1558.23C-417.687 -1620 -330.601 -1620 -276.805 -1558.23L-128.291 -1387.55L-122.59 -1381.59L27.5799 -1212.8C81.9278 -1151.65 81.9278 -1052.67 27.5799 -991.527L-122.438 -822.899C-122.509 -822.819 -122.638 -822.839 -122.682 -822.937V-822.937Z" stroke="url(#paint19_linear_1873_55414)" stroke-width="1.75" stroke-miterlimit="10" stroke-linecap="round"/>
<path d="M-129.255 -821.057C-129.277 -821.106 -129.342 -821.116 -129.377 -821.076L-242.227 -694.17C-276.344 -655.811 -276.344 -593.727 -242.227 -555.473L-129.497 -428.703C-129.461 -428.662 -129.393 -428.688 -129.393 -428.743V-428.743C-129.393 -428.797 -129.325 -428.823 -129.289 -428.782L19.305 -261.772C73.1012 -201.256 73.1012 -103.216 19.305 -42.6994L-129.393 124.323L-135.738 131.326L-282.781 300.334C-336.026 361.478 -422.283 361.478 -475.528 300.334L-622.45 131.464C-622.497 131.41 -622.459 131.326 -622.387 131.326V131.326C-622.315 131.326 -622.276 131.241 -622.324 131.187L-733.565 3.39376C-767.314 -35.383 -821.938 -35.383 -855.595 3.39376L-967.173 131.674C-967.212 131.718 -967.267 131.744 -967.326 131.744V131.744C-967.384 131.744 -967.44 131.769 -967.478 131.813L-1114.18 300.334C-1167.43 361.478 -1253.69 361.478 -1306.93 300.334L-1453.97 131.326L-1459.58 125.473L-1608.28 -41.6542C-1662.08 -102.171 -1662.08 -200.21 -1608.28 -260.727L-1459.49 -427.645L-1346.57 -554.636C-1312.45 -592.995 -1312.45 -655.08 -1346.57 -693.334L-1459.39 -820.104C-1459.42 -820.145 -1459.49 -820.119 -1459.49 -820.064V-820.064C-1459.49 -820.009 -1459.56 -819.983 -1459.6 -820.024L-1608.1 -986.93C-1661.89 -1047.45 -1661.89 -1145.49 -1608.1 -1206L-1459.4 -1373.13L-1453.05 -1380.13L-1306.01 -1549.14C-1252.77 -1610.28 -1166.51 -1610.28 -1113.27 -1549.14L-966.343 -1380.27C-966.296 -1380.22 -966.334 -1380.13 -966.406 -1380.13V-1380.13C-966.478 -1380.13 -966.516 -1380.05 -966.469 -1379.99L-855.227 -1252.2C-821.478 -1213.42 -766.855 -1213.42 -733.197 -1252.2L-621.527 -1380.48C-621.489 -1380.53 -621.433 -1380.55 -621.375 -1380.55V-1380.55C-621.317 -1380.55 -621.261 -1380.58 -621.223 -1380.62L-474.608 -1549.14C-421.364 -1610.28 -335.106 -1610.28 -281.862 -1549.14L-134.819 -1380.13L-129.209 -1374.28L19.489 -1207.15C73.2852 -1146.64 73.2852 -1048.6 19.489 -988.079L-129.133 -821.038C-129.169 -820.998 -129.234 -821.008 -129.255 -821.057V-821.057Z" stroke="url(#paint20_linear_1873_55414)" stroke-width="1.75" stroke-miterlimit="10" stroke-linecap="round"/>
<path d="M-129.255 -821.057C-129.277 -821.106 -129.342 -821.116 -129.377 -821.076L-242.227 -694.17C-276.344 -655.811 -276.344 -593.727 -242.227 -555.473L-129.497 -428.703C-129.461 -428.662 -129.393 -428.688 -129.393 -428.743V-428.743C-129.393 -428.797 -129.325 -428.823 -129.289 -428.782L19.305 -261.772C73.1012 -201.256 73.1012 -103.216 19.305 -42.6994L-129.393 124.323L-135.738 131.326L-282.781 300.334C-336.026 361.478 -422.283 361.478 -475.528 300.334L-622.45 131.464C-622.497 131.41 -622.459 131.326 -622.387 131.326V131.326C-622.315 131.326 -622.276 131.241 -622.324 131.187L-733.565 3.39376C-767.314 -35.383 -821.938 -35.383 -855.595 3.39376L-967.173 131.674C-967.212 131.718 -967.267 131.744 -967.326 131.744V131.744C-967.384 131.744 -967.44 131.769 -967.478 131.813L-1114.18 300.334C-1167.43 361.478 -1253.69 361.478 -1306.93 300.334L-1453.97 131.326L-1459.58 125.473L-1608.28 -41.6542C-1662.08 -102.171 -1662.08 -200.21 -1608.28 -260.727L-1459.49 -427.645L-1346.57 -554.636C-1312.45 -592.995 -1312.45 -655.08 -1346.57 -693.334L-1459.39 -820.104C-1459.42 -820.145 -1459.49 -820.119 -1459.49 -820.064V-820.064C-1459.49 -820.009 -1459.56 -819.983 -1459.6 -820.024L-1608.1 -986.93C-1661.89 -1047.45 -1661.89 -1145.49 -1608.1 -1206L-1459.4 -1373.13L-1453.05 -1380.13L-1306.01 -1549.14C-1252.77 -1610.28 -1166.51 -1610.28 -1113.27 -1549.14L-966.343 -1380.27C-966.296 -1380.22 -966.334 -1380.13 -966.406 -1380.13V-1380.13C-966.478 -1380.13 -966.516 -1380.05 -966.469 -1379.99L-855.227 -1252.2C-821.478 -1213.42 -766.855 -1213.42 -733.197 -1252.2L-621.527 -1380.48C-621.489 -1380.53 -621.433 -1380.55 -621.375 -1380.55V-1380.55C-621.317 -1380.55 -621.261 -1380.58 -621.223 -1380.62L-474.608 -1549.14C-421.364 -1610.28 -335.106 -1610.28 -281.862 -1549.14L-134.819 -1380.13L-129.209 -1374.28L19.489 -1207.15C73.2852 -1146.64 73.2852 -1048.6 19.489 -988.079L-129.133 -821.038C-129.169 -820.998 -129.234 -821.008 -129.255 -821.057V-821.057Z" stroke="url(#paint21_linear_1873_55414)" stroke-width="1.75" stroke-miterlimit="10" stroke-linecap="round"/>
<path d="M-135.87 -819.176C-135.892 -819.225 -135.957 -819.235 -135.992 -819.195L-247.739 -693.543C-281.488 -655.603 -281.488 -594.145 -247.739 -556.205L-136.021 -430.689C-135.984 -430.648 -135.916 -430.674 -135.916 -430.729V-430.729C-135.916 -430.784 -135.849 -430.81 -135.812 -430.769L11.3104 -265.431C64.5548 -205.541 64.5548 -108.443 11.3104 -48.553L-135.916 116.902L-142.17 123.8L-287.741 291.136C-340.434 351.653 -425.864 351.653 -478.557 291.136L-624.007 123.939C-624.055 123.884 -624.016 123.8 -623.944 123.8V123.8C-623.872 123.8 -623.834 123.715 -623.881 123.661L-734.019 -2.87788C-767.401 -41.2366 -821.473 -41.2366 -854.854 -2.87789L-965.513 124.149C-965.551 124.193 -965.606 124.218 -965.665 124.218V124.218C-965.723 124.218 -965.779 124.243 -965.817 124.287L-1110.96 291.24C-1163.65 351.757 -1249.08 351.757 -1301.78 291.24L-1447.35 123.904L-1452.96 118.156L-1600.18 -47.2987C-1653.43 -107.188 -1653.43 -204.287 -1600.18 -264.177L-1452.87 -429.422L-1341.04 -555.16C-1307.29 -593.1 -1307.29 -654.558 -1341.04 -692.498L-1452.76 -818.118C-1452.8 -818.159 -1452.87 -818.134 -1452.87 -818.079V-818.079C-1452.87 -818.024 -1452.93 -817.998 -1452.97 -818.039L-1600.09 -983.377C-1653.34 -1043.27 -1653.34 -1140.36 -1600.09 -1200.25L-1452.87 -1365.71L-1446.61 -1372.61L-1300.95 -1539.94C-1248.26 -1600.46 -1162.83 -1600.46 -1110.13 -1539.94L-964.682 -1372.75C-964.635 -1372.69 -964.673 -1372.61 -964.745 -1372.61V-1372.61C-964.817 -1372.61 -964.856 -1372.52 -964.808 -1372.47L-854.67 -1245.93C-821.289 -1207.57 -767.217 -1207.57 -733.836 -1245.93L-623.269 -1372.96C-623.231 -1373 -623.175 -1373.03 -623.117 -1373.03V-1373.03C-623.058 -1373.03 -623.003 -1373.05 -622.964 -1373.1L-477.821 -1539.94C-425.128 -1600.46 -339.698 -1600.46 -287.005 -1539.94L-141.342 -1372.61L-135.732 -1366.86L11.4943 -1201.4C64.7387 -1141.51 64.7387 -1044.42 11.4943 -984.526L-135.749 -819.157C-135.784 -819.117 -135.849 -819.127 -135.87 -819.176V-819.176Z" stroke="url(#paint22_linear_1873_55414)" stroke-width="1.75" stroke-miterlimit="10" stroke-linecap="round"/>
<path d="M-135.87 -819.176C-135.892 -819.225 -135.957 -819.235 -135.992 -819.195L-247.739 -693.543C-281.488 -655.603 -281.488 -594.145 -247.739 -556.205L-136.021 -430.689C-135.984 -430.648 -135.916 -430.674 -135.916 -430.729V-430.729C-135.916 -430.784 -135.849 -430.81 -135.812 -430.769L11.3104 -265.431C64.5548 -205.541 64.5548 -108.443 11.3104 -48.553L-135.916 116.902L-142.17 123.8L-287.741 291.136C-340.434 351.653 -425.864 351.653 -478.557 291.136L-624.007 123.939C-624.055 123.884 -624.016 123.8 -623.944 123.8V123.8C-623.872 123.8 -623.834 123.715 -623.881 123.661L-734.019 -2.87788C-767.401 -41.2366 -821.473 -41.2366 -854.854 -2.87789L-965.513 124.149C-965.551 124.193 -965.606 124.218 -965.665 124.218V124.218C-965.723 124.218 -965.779 124.243 -965.817 124.287L-1110.96 291.24C-1163.65 351.757 -1249.08 351.757 -1301.78 291.24L-1447.35 123.904L-1452.96 118.156L-1600.18 -47.2987C-1653.43 -107.188 -1653.43 -204.287 -1600.18 -264.177L-1452.87 -429.422L-1341.04 -555.16C-1307.29 -593.1 -1307.29 -654.558 -1341.04 -692.498L-1452.76 -818.118C-1452.8 -818.159 -1452.87 -818.134 -1452.87 -818.079V-818.079C-1452.87 -818.024 -1452.93 -817.998 -1452.97 -818.039L-1600.09 -983.377C-1653.34 -1043.27 -1653.34 -1140.36 -1600.09 -1200.25L-1452.87 -1365.71L-1446.61 -1372.61L-1300.95 -1539.94C-1248.26 -1600.46 -1162.83 -1600.46 -1110.13 -1539.94L-964.682 -1372.75C-964.635 -1372.69 -964.673 -1372.61 -964.745 -1372.61V-1372.61C-964.817 -1372.61 -964.856 -1372.52 -964.808 -1372.47L-854.67 -1245.93C-821.289 -1207.57 -767.217 -1207.57 -733.836 -1245.93L-623.269 -1372.96C-623.231 -1373 -623.175 -1373.03 -623.117 -1373.03V-1373.03C-623.058 -1373.03 -623.003 -1373.05 -622.964 -1373.1L-477.821 -1539.94C-425.128 -1600.46 -339.698 -1600.46 -287.005 -1539.94L-141.342 -1372.61L-135.732 -1366.86L11.4943 -1201.4C64.7387 -1141.51 64.7387 -1044.42 11.4943 -984.526L-135.749 -819.157C-135.784 -819.117 -135.849 -819.127 -135.87 -819.176V-819.176Z" stroke="url(#paint23_linear_1873_55414)" stroke-width="1.75" stroke-miterlimit="10" stroke-linecap="round"/>
<path d="M-142.359 -817.188C-142.408 -817.244 -142.494 -817.244 -142.543 -817.189L-253.17 -692.81C-286.551 -655.288 -286.551 -594.353 -253.17 -556.83L-142.647 -432.569C-142.611 -432.528 -142.543 -432.554 -142.543 -432.609V-432.609C-142.543 -432.663 -142.475 -432.689 -142.439 -432.648L3.21253 -268.983C55.9972 -209.72 55.9971 -113.562 3.21252 -54.1953L-142.543 109.587L-148.796 116.485L-292.896 282.149C-345.037 342.143 -429.64 342.143 -481.873 282.149L-625.852 116.624C-625.899 116.57 -625.861 116.485 -625.789 116.485V116.485C-625.717 116.485 -625.679 116.401 -625.726 116.346L-734.761 -8.9383C-767.774 -46.8789 -821.386 -46.8789 -854.4 -8.93831L-963.771 116.729C-963.809 116.774 -963.865 116.799 -963.923 116.799V116.799C-963.982 116.799 -964.037 116.824 -964.075 116.868L-1107.84 282.044C-1159.98 342.039 -1244.58 342.039 -1296.82 282.044L-1440.92 116.381L-1446.43 110.632L-1592.19 -53.1501C-1644.97 -112.413 -1644.97 -208.571 -1592.19 -267.938L-1446.34 -431.511L-1335.62 -555.889C-1302.24 -593.412 -1302.24 -654.347 -1335.62 -691.869L-1446.24 -816.131C-1446.27 -816.172 -1446.34 -816.146 -1446.34 -816.091V-816.091C-1446.34 -816.036 -1446.41 -816.01 -1446.45 -816.051L-1592.1 -979.716C-1644.88 -1038.98 -1644.88 -1135.14 -1592.1 -1194.5L-1446.25 -1358.29L-1440 -1365.18L-1295.9 -1530.85C-1243.76 -1590.84 -1159.15 -1590.84 -1106.92 -1530.85L-962.94 -1365.32C-962.893 -1365.27 -962.932 -1365.18 -963.003 -1365.18V-1365.18C-963.075 -1365.18 -963.114 -1365.1 -963.067 -1365.05L-854.032 -1239.76C-821.018 -1201.82 -767.406 -1201.82 -734.393 -1239.76L-624.93 -1365.53C-624.891 -1365.58 -624.836 -1365.6 -624.777 -1365.6V-1365.6C-624.719 -1365.6 -624.663 -1365.63 -624.625 -1365.67L-480.861 -1530.85C-428.72 -1590.84 -344.118 -1590.84 -291.885 -1530.85L-147.785 -1365.18L-142.267 -1359.44L3.48846 -1195.65C56.2731 -1136.39 56.2731 -1040.23 3.48846 -980.866L-142.174 -817.188C-142.224 -817.133 -142.31 -817.133 -142.359 -817.188V-817.188Z" stroke="url(#paint24_linear_1873_55414)" stroke-width="1.75" stroke-miterlimit="10" stroke-linecap="round"/>
<path d="M-142.359 -817.188C-142.408 -817.244 -142.494 -817.244 -142.543 -817.189L-253.17 -692.81C-286.551 -655.288 -286.551 -594.353 -253.17 -556.83L-142.647 -432.569C-142.611 -432.528 -142.543 -432.554 -142.543 -432.609V-432.609C-142.543 -432.663 -142.475 -432.689 -142.439 -432.648L3.21253 -268.983C55.9972 -209.72 55.9971 -113.562 3.21252 -54.1953L-142.543 109.587L-148.796 116.485L-292.896 282.149C-345.037 342.143 -429.64 342.143 -481.873 282.149L-625.852 116.624C-625.899 116.57 -625.861 116.485 -625.789 116.485V116.485C-625.717 116.485 -625.679 116.401 -625.726 116.346L-734.761 -8.9383C-767.774 -46.8789 -821.386 -46.8789 -854.4 -8.93831L-963.771 116.729C-963.809 116.774 -963.865 116.799 -963.923 116.799V116.799C-963.982 116.799 -964.037 116.824 -964.075 116.868L-1107.84 282.044C-1159.98 342.039 -1244.58 342.039 -1296.82 282.044L-1440.92 116.381L-1446.43 110.632L-1592.19 -53.1501C-1644.97 -112.413 -1644.97 -208.571 -1592.19 -267.938L-1446.34 -431.511L-1335.62 -555.889C-1302.24 -593.412 -1302.24 -654.347 -1335.62 -691.869L-1446.24 -816.131C-1446.27 -816.172 -1446.34 -816.146 -1446.34 -816.091V-816.091C-1446.34 -816.036 -1446.41 -816.01 -1446.45 -816.051L-1592.1 -979.716C-1644.88 -1038.98 -1644.88 -1135.14 -1592.1 -1194.5L-1446.25 -1358.29L-1440 -1365.18L-1295.9 -1530.85C-1243.76 -1590.84 -1159.15 -1590.84 -1106.92 -1530.85L-962.94 -1365.32C-962.893 -1365.27 -962.932 -1365.18 -963.003 -1365.18V-1365.18C-963.075 -1365.18 -963.114 -1365.1 -963.067 -1365.05L-854.032 -1239.76C-821.018 -1201.82 -767.406 -1201.82 -734.393 -1239.76L-624.93 -1365.53C-624.891 -1365.58 -624.836 -1365.6 -624.777 -1365.6V-1365.6C-624.719 -1365.6 -624.663 -1365.63 -624.625 -1365.67L-480.861 -1530.85C-428.72 -1590.84 -344.118 -1590.84 -291.885 -1530.85L-147.785 -1365.18L-142.267 -1359.44L3.48846 -1195.65C56.2731 -1136.39 56.2731 -1040.23 3.48846 -980.866L-142.174 -817.188C-142.224 -817.133 -142.31 -817.133 -142.359 -817.188V-817.188Z" stroke="url(#paint25_linear_1873_55414)" stroke-width="1.75" stroke-miterlimit="10" stroke-linecap="round"/>
<path d="M-148.934 -815.204C-148.955 -815.253 -149.02 -815.263 -149.056 -815.223L-258.595 -692.08C-291.701 -654.871 -291.701 -594.668 -258.595 -557.459L-149.176 -434.452C-149.14 -434.411 -149.072 -434.437 -149.072 -434.491V-434.491C-149.072 -434.546 -149.004 -434.572 -148.968 -434.531L-4.7877 -272.538C47.4452 -213.798 47.4451 -118.685 -4.7877 -59.9453L-149.072 102.165L-155.233 108.958L-297.862 272.95C-349.543 332.317 -433.226 332.317 -484.907 272.95L-627.415 109.097C-627.462 109.043 -627.424 108.958 -627.352 108.958V108.958C-627.28 108.958 -627.242 108.874 -627.289 108.82L-735.22 -15.2109C-767.958 -52.838 -820.926 -52.838 -853.664 -15.2109L-962.023 109.203C-962.061 109.247 -962.117 109.272 -962.175 109.272V109.272C-962.234 109.272 -962.289 109.297 -962.328 109.341L-1104.71 272.95C-1156.39 332.317 -1240.08 332.317 -1291.76 272.95L-1434.39 108.958L-1439.81 103.314L-1584.1 -58.7956C-1636.33 -117.536 -1636.33 -212.648 -1584.1 -271.388L-1439.72 -433.289L-1330.1 -556.518C-1297 -593.727 -1297 -653.93 -1330.1 -691.139L-1439.52 -814.146C-1439.56 -814.187 -1439.63 -814.161 -1439.63 -814.107V-814.107C-1439.63 -814.052 -1439.7 -814.026 -1439.73 -814.067L-1583.91 -976.06C-1636.14 -1034.8 -1636.14 -1129.91 -1583.91 -1188.65L-1439.63 -1350.76L-1433.47 -1357.56L-1290.93 -1521.65C-1239.25 -1581.02 -1155.57 -1581.02 -1103.88 -1521.65L-961.377 -1357.8C-961.329 -1357.75 -961.368 -1357.66 -961.44 -1357.66V-1357.66C-961.512 -1357.66 -961.55 -1357.58 -961.503 -1357.52L-853.572 -1233.49C-820.834 -1195.86 -767.866 -1195.86 -735.128 -1233.49L-626.769 -1358.01C-626.73 -1358.05 -626.675 -1358.08 -626.616 -1358.08V-1358.08C-626.558 -1358.08 -626.502 -1358.1 -626.464 -1358.15L-484.171 -1521.65C-432.49 -1581.02 -348.807 -1581.02 -297.126 -1521.65L-154.497 -1357.66L-149.072 -1352.02L-4.78769 -1189.91C47.4452 -1131.17 47.4452 -1036.05 -4.78769 -977.314L-148.812 -815.185C-148.847 -815.145 -148.912 -815.155 -148.934 -815.204V-815.204Z" stroke="url(#paint26_linear_1873_55414)" stroke-width="1.75" stroke-miterlimit="10" stroke-linecap="round"/>
<path d="M-148.934 -815.204C-148.955 -815.253 -149.02 -815.263 -149.056 -815.223L-258.595 -692.08C-291.701 -654.871 -291.701 -594.668 -258.595 -557.459L-149.176 -434.452C-149.14 -434.411 -149.072 -434.437 -149.072 -434.491V-434.491C-149.072 -434.546 -149.004 -434.572 -148.968 -434.531L-4.7877 -272.538C47.4452 -213.798 47.4451 -118.685 -4.7877 -59.9453L-149.072 102.165L-155.233 108.958L-297.862 272.95C-349.543 332.317 -433.226 332.317 -484.907 272.95L-627.415 109.097C-627.462 109.043 -627.424 108.958 -627.352 108.958V108.958C-627.28 108.958 -627.242 108.874 -627.289 108.82L-735.22 -15.2109C-767.958 -52.838 -820.926 -52.838 -853.664 -15.2109L-962.023 109.203C-962.061 109.247 -962.117 109.272 -962.175 109.272V109.272C-962.234 109.272 -962.289 109.297 -962.328 109.341L-1104.71 272.95C-1156.39 332.317 -1240.08 332.317 -1291.76 272.95L-1434.39 108.958L-1439.81 103.314L-1584.1 -58.7956C-1636.33 -117.536 -1636.33 -212.648 -1584.1 -271.388L-1439.72 -433.289L-1330.1 -556.518C-1297 -593.727 -1297 -653.93 -1330.1 -691.139L-1439.52 -814.146C-1439.56 -814.187 -1439.63 -814.161 -1439.63 -814.107V-814.107C-1439.63 -814.052 -1439.7 -814.026 -1439.73 -814.067L-1583.91 -976.06C-1636.14 -1034.8 -1636.14 -1129.91 -1583.91 -1188.65L-1439.63 -1350.76L-1433.47 -1357.56L-1290.93 -1521.65C-1239.25 -1581.02 -1155.57 -1581.02 -1103.88 -1521.65L-961.377 -1357.8C-961.329 -1357.75 -961.368 -1357.66 -961.44 -1357.66V-1357.66C-961.512 -1357.66 -961.55 -1357.58 -961.503 -1357.52L-853.572 -1233.49C-820.834 -1195.86 -767.866 -1195.86 -735.128 -1233.49L-626.769 -1358.01C-626.73 -1358.05 -626.675 -1358.08 -626.616 -1358.08V-1358.08C-626.558 -1358.08 -626.502 -1358.1 -626.464 -1358.15L-484.171 -1521.65C-432.49 -1581.02 -348.807 -1581.02 -297.126 -1521.65L-154.497 -1357.66L-149.072 -1352.02L-4.78769 -1189.91C47.4452 -1131.17 47.4452 -1036.05 -4.78769 -977.314L-148.812 -815.185C-148.847 -815.145 -148.912 -815.155 -148.934 -815.204V-815.204Z" stroke="url(#paint27_linear_1873_55414)" stroke-width="1.75" stroke-miterlimit="10" stroke-linecap="round"/>
<path d="M-155.552 -813.269C-155.572 -813.337 -155.66 -813.357 -155.707 -813.303L-264.11 -691.451C-296.848 -654.66 -296.848 -594.98 -264.11 -558.189L-155.794 -436.436C-155.758 -436.395 -155.69 -436.421 -155.69 -436.476V-436.476C-155.69 -436.53 -155.622 -436.556 -155.586 -436.515L-12.8776 -276.09C38.8035 -217.977 38.8035 -123.805 -12.8776 -65.6922L-155.69 94.8499L-161.759 101.539L-303.009 263.858C-354.138 322.598 -436.994 322.598 -488.123 263.858L-629.252 101.678C-629.299 101.624 -629.26 101.539 -629.188 101.539V101.539C-629.117 101.539 -629.078 101.455 -629.125 101.4L-735.953 -21.3759C-768.323 -58.5849 -820.831 -58.5849 -853.201 -21.3759L-960.457 101.888C-960.496 101.932 -960.551 101.957 -960.609 101.957V101.957C-960.668 101.957 -960.723 101.983 -960.762 102.027L-1101.49 263.754C-1152.62 322.494 -1235.48 322.494 -1286.6 263.754L-1427.85 101.435L-1433.28 95.7906L-1576.09 -64.6471C-1627.77 -122.76 -1627.77 -216.932 -1576.09 -275.045L-1433.19 -435.378L-1324.68 -557.353C-1291.94 -594.143 -1291.94 -653.824 -1324.68 -690.615L-1432.99 -812.368C-1433.03 -812.409 -1433.1 -812.383 -1433.1 -812.328V-812.328C-1433.1 -812.273 -1433.16 -812.247 -1433.2 -812.288L-1575.91 -972.609C-1627.59 -1030.72 -1627.59 -1124.89 -1575.91 -1183.01L-1433.1 -1343.55L-1427.03 -1350.24L-1285.78 -1512.56C-1234.65 -1571.3 -1151.79 -1571.3 -1100.66 -1512.56L-959.627 -1350.38C-959.579 -1350.32 -959.618 -1350.24 -959.69 -1350.24V-1350.24C-959.762 -1350.24 -959.8 -1350.15 -959.753 -1350.1L-852.925 -1227.32C-820.556 -1190.11 -768.047 -1190.11 -735.677 -1227.32L-628.421 -1350.59C-628.383 -1350.63 -628.327 -1350.66 -628.269 -1350.66V-1350.66C-628.21 -1350.66 -628.155 -1350.68 -628.116 -1350.73L-487.295 -1512.56C-436.166 -1571.3 -353.311 -1571.3 -302.181 -1512.56L-160.932 -1350.24L-155.506 -1344.59L-12.6936 -1184.05C38.9875 -1125.94 38.9875 -1031.77 -12.6936 -973.654L-155.398 -813.234C-155.445 -813.181 -155.532 -813.2 -155.552 -813.269V-813.269Z" stroke="url(#paint28_linear_1873_55414)" stroke-width="1.75" stroke-miterlimit="10" stroke-linecap="round"/>
<path d="M-155.552 -813.269C-155.572 -813.337 -155.66 -813.357 -155.707 -813.303L-264.11 -691.451C-296.848 -654.66 -296.848 -594.98 -264.11 -558.189L-155.794 -436.436C-155.758 -436.395 -155.69 -436.421 -155.69 -436.476V-436.476C-155.69 -436.53 -155.622 -436.556 -155.586 -436.515L-12.8776 -276.09C38.8035 -217.977 38.8035 -123.805 -12.8776 -65.6922L-155.69 94.8499L-161.759 101.539L-303.009 263.858C-354.138 322.598 -436.994 322.598 -488.123 263.858L-629.252 101.678C-629.299 101.624 -629.26 101.539 -629.188 101.539V101.539C-629.117 101.539 -629.078 101.455 -629.125 101.4L-735.953 -21.3759C-768.323 -58.5849 -820.831 -58.5849 -853.201 -21.3759L-960.457 101.888C-960.496 101.932 -960.551 101.957 -960.609 101.957V101.957C-960.668 101.957 -960.723 101.983 -960.762 102.027L-1101.49 263.754C-1152.62 322.494 -1235.48 322.494 -1286.6 263.754L-1427.85 101.435L-1433.28 95.7906L-1576.09 -64.6471C-1627.77 -122.76 -1627.77 -216.932 -1576.09 -275.045L-1433.19 -435.378L-1324.68 -557.353C-1291.94 -594.143 -1291.94 -653.824 -1324.68 -690.615L-1432.99 -812.368C-1433.03 -812.409 -1433.1 -812.383 -1433.1 -812.328V-812.328C-1433.1 -812.273 -1433.16 -812.247 -1433.2 -812.288L-1575.91 -972.609C-1627.59 -1030.72 -1627.59 -1124.89 -1575.91 -1183.01L-1433.1 -1343.55L-1427.03 -1350.24L-1285.78 -1512.56C-1234.65 -1571.3 -1151.79 -1571.3 -1100.66 -1512.56L-959.627 -1350.38C-959.579 -1350.32 -959.618 -1350.24 -959.69 -1350.24V-1350.24C-959.762 -1350.24 -959.8 -1350.15 -959.753 -1350.1L-852.925 -1227.32C-820.556 -1190.11 -768.047 -1190.11 -735.677 -1227.32L-628.421 -1350.59C-628.383 -1350.63 -628.327 -1350.66 -628.269 -1350.66V-1350.66C-628.21 -1350.66 -628.155 -1350.68 -628.116 -1350.73L-487.295 -1512.56C-436.166 -1571.3 -353.311 -1571.3 -302.181 -1512.56L-160.932 -1350.24L-155.506 -1344.59L-12.6936 -1184.05C38.9875 -1125.94 38.9875 -1031.77 -12.6936 -973.654L-155.398 -813.234C-155.445 -813.181 -155.532 -813.2 -155.552 -813.269V-813.269Z" stroke="url(#paint29_linear_1873_55414)" stroke-width="1.75" stroke-miterlimit="10" stroke-linecap="round"/>
<path d="M-162.13 -811.388C-162.13 -811.407 -162.153 -811.415 -162.165 -811.402L-269.539 -690.72C-301.908 -654.348 -301.908 -595.294 -269.539 -558.817L-162.326 -438.318C-162.29 -438.277 -162.222 -438.303 -162.222 -438.358V-438.358C-162.222 -438.413 -162.154 -438.438 -162.118 -438.398L-20.8808 -279.645C30.2486 -222.159 30.2486 -128.928 -20.8808 -71.4418L-162.222 87.4281L-168.292 94.1173L-308.07 254.764C-358.647 312.877 -440.675 312.877 -491.252 254.764L-630.91 94.2561C-630.957 94.2018 -630.918 94.1173 -630.847 94.1173V94.1173C-630.775 94.1173 -630.736 94.0328 -630.783 93.9785L-736.508 -27.5435C-768.51 -64.3344 -820.467 -64.3344 -852.56 -27.5435L-958.621 94.3615C-958.659 94.4056 -958.715 94.4309 -958.773 94.4309V94.4309C-958.832 94.4309 -958.887 94.4562 -958.926 94.5002L-1098.37 254.659C-1148.95 312.772 -1230.97 312.772 -1281.55 254.659L-1421.33 94.0128L-1426.66 88.4732L-1568 -70.3966C-1619.13 -127.882 -1619.13 -221.114 -1568 -278.6L-1426.57 -437.26L-1319.25 -557.981C-1286.88 -594.353 -1286.88 -653.407 -1319.25 -689.884L-1426.47 -810.383C-1426.5 -810.424 -1426.57 -810.398 -1426.57 -810.343V-810.343C-1426.57 -810.288 -1426.64 -810.263 -1426.67 -810.304L-1567.91 -969.056C-1619.04 -1026.54 -1619.04 -1119.77 -1567.91 -1177.26L-1426.57 -1336.13L-1420.5 -1342.82L-1280.72 -1503.47C-1230.15 -1561.58 -1148.12 -1561.58 -1097.54 -1503.47L-957.883 -1342.96C-957.835 -1342.9 -957.874 -1342.82 -957.946 -1342.82V-1342.82C-958.018 -1342.82 -958.056 -1342.73 -958.009 -1342.68L-852.285 -1221.16C-820.283 -1184.37 -768.326 -1184.37 -736.232 -1221.16L-630.079 -1343.17C-630.041 -1343.21 -629.985 -1343.24 -629.927 -1343.24V-1343.24C-629.869 -1343.24 -629.813 -1343.26 -629.775 -1343.31L-490.425 -1503.47C-439.847 -1561.58 -357.82 -1561.58 -307.242 -1503.47L-167.464 -1342.82L-162.13 -1337.28L-20.7888 -1178.41C30.3405 -1120.92 30.3405 -1027.69 -20.7888 -970.206L-162.095 -811.375C-162.108 -811.362 -162.13 -811.37 -162.13 -811.388V-811.388Z" stroke="url(#paint30_linear_1873_55414)" stroke-width="1.75" stroke-miterlimit="10" stroke-linecap="round"/>
<path d="M-162.13 -811.388C-162.13 -811.407 -162.153 -811.415 -162.165 -811.402L-269.539 -690.72C-301.908 -654.348 -301.908 -595.294 -269.539 -558.817L-162.326 -438.318C-162.29 -438.277 -162.222 -438.303 -162.222 -438.358V-438.358C-162.222 -438.413 -162.154 -438.438 -162.118 -438.398L-20.8808 -279.645C30.2486 -222.159 30.2486 -128.928 -20.8808 -71.4418L-162.222 87.4281L-168.292 94.1173L-308.07 254.764C-358.647 312.877 -440.675 312.877 -491.252 254.764L-630.91 94.2561C-630.957 94.2018 -630.918 94.1173 -630.847 94.1173V94.1173C-630.775 94.1173 -630.736 94.0328 -630.783 93.9785L-736.508 -27.5435C-768.51 -64.3344 -820.467 -64.3344 -852.56 -27.5435L-958.621 94.3615C-958.659 94.4056 -958.715 94.4309 -958.773 94.4309V94.4309C-958.832 94.4309 -958.887 94.4562 -958.926 94.5002L-1098.37 254.659C-1148.95 312.772 -1230.97 312.772 -1281.55 254.659L-1421.33 94.0128L-1426.66 88.4732L-1568 -70.3966C-1619.13 -127.882 -1619.13 -221.114 -1568 -278.6L-1426.57 -437.26L-1319.25 -557.981C-1286.88 -594.353 -1286.88 -653.407 -1319.25 -689.884L-1426.47 -810.383C-1426.5 -810.424 -1426.57 -810.398 -1426.57 -810.343V-810.343C-1426.57 -810.288 -1426.64 -810.263 -1426.67 -810.304L-1567.91 -969.056C-1619.04 -1026.54 -1619.04 -1119.77 -1567.91 -1177.26L-1426.57 -1336.13L-1420.5 -1342.82L-1280.72 -1503.47C-1230.15 -1561.58 -1148.12 -1561.58 -1097.54 -1503.47L-957.883 -1342.96C-957.835 -1342.9 -957.874 -1342.82 -957.946 -1342.82V-1342.82C-958.018 -1342.82 -958.056 -1342.73 -958.009 -1342.68L-852.285 -1221.16C-820.283 -1184.37 -768.326 -1184.37 -736.232 -1221.16L-630.079 -1343.17C-630.041 -1343.21 -629.985 -1343.24 -629.927 -1343.24V-1343.24C-629.869 -1343.24 -629.813 -1343.26 -629.775 -1343.31L-490.425 -1503.47C-439.847 -1561.58 -357.82 -1561.58 -307.242 -1503.47L-167.464 -1342.82L-162.13 -1337.28L-20.7888 -1178.41C30.3405 -1120.92 30.3405 -1027.69 -20.7888 -970.206L-162.095 -811.375C-162.108 -811.362 -162.13 -811.37 -162.13 -811.388V-811.388Z" stroke="url(#paint31_linear_1873_55414)" stroke-width="1.75" stroke-miterlimit="10" stroke-linecap="round"/>
<path d="M-168.706 -809.401C-168.726 -809.47 -168.813 -809.489 -168.861 -809.436L-274.965 -690.092C-307.059 -654.033 -307.059 -595.607 -274.965 -559.547L-168.856 -440.303C-168.82 -440.262 -168.752 -440.288 -168.752 -440.343V-440.343C-168.752 -440.398 -168.684 -440.423 -168.648 -440.382L-28.8819 -283.302C21.7876 -226.443 21.7876 -134.153 -28.8819 -77.1894L-168.752 80.008L-174.729 86.5928L-313.036 245.567C-363.062 303.157 -444.262 303.157 -494.38 245.567L-632.566 86.7315C-632.613 86.6773 -632.574 86.5928 -632.503 86.5928V86.5928C-632.431 86.5928 -632.392 86.5082 -632.439 86.454L-737.06 -33.8138C-768.786 -70.2912 -820.191 -70.2912 -851.917 -33.8138L-956.966 86.837C-957.005 86.881 -957.06 86.9063 -957.119 86.9063V86.9063C-957.177 86.9063 -957.233 86.9316 -957.271 86.9757L-1095.24 245.463C-1145.27 303.053 -1226.47 303.053 -1276.59 245.463L-1414.89 86.4882L-1420.23 80.9487L-1560 -76.1443C-1610.67 -133.003 -1610.67 -225.294 -1560 -282.257L-1420.04 -439.245L-1313.83 -558.711C-1281.73 -594.77 -1281.73 -653.197 -1313.83 -689.256L-1419.94 -808.5C-1419.97 -808.541 -1420.04 -808.516 -1420.04 -808.461V-808.461C-1420.04 -808.406 -1420.11 -808.38 -1420.15 -808.421L-1559.91 -965.502C-1610.58 -1022.36 -1610.58 -1114.65 -1559.91 -1171.61L-1420.04 -1328.81L-1414.06 -1335.4L-1275.76 -1494.37C-1225.73 -1551.96 -1144.53 -1551.96 -1094.41 -1494.37L-956.228 -1335.43C-956.181 -1335.38 -956.219 -1335.29 -956.291 -1335.29V-1335.29C-956.363 -1335.29 -956.401 -1335.21 -956.354 -1335.15L-851.733 -1214.89C-820.007 -1178.41 -768.602 -1178.41 -736.876 -1214.89L-631.827 -1335.54C-631.789 -1335.58 -631.733 -1335.61 -631.675 -1335.61V-1335.61C-631.616 -1335.61 -631.561 -1335.63 -631.523 -1335.67L-493.552 -1494.16C-443.526 -1551.75 -362.326 -1551.75 -312.208 -1494.16L-173.902 -1335.19L-168.568 -1329.65L-28.79 -1172.55C21.8796 -1115.7 21.8796 -1023.41 -28.79 -966.442L-168.551 -809.367C-168.599 -809.314 -168.686 -809.333 -168.706 -809.401V-809.401Z" stroke="url(#paint32_linear_1873_55414)" stroke-width="1.75" stroke-miterlimit="10" stroke-linecap="round"/>
<path d="M-168.706 -809.401C-168.726 -809.47 -168.813 -809.489 -168.861 -809.436L-274.965 -690.092C-307.059 -654.033 -307.059 -595.607 -274.965 -559.547L-168.856 -440.303C-168.82 -440.262 -168.752 -440.288 -168.752 -440.343V-440.343C-168.752 -440.398 -168.684 -440.423 -168.648 -440.382L-28.8819 -283.302C21.7876 -226.443 21.7876 -134.153 -28.8819 -77.1894L-168.752 80.008L-174.729 86.5928L-313.036 245.567C-363.062 303.157 -444.262 303.157 -494.38 245.567L-632.566 86.7315C-632.613 86.6773 -632.574 86.5928 -632.503 86.5928V86.5928C-632.431 86.5928 -632.392 86.5082 -632.439 86.454L-737.06 -33.8138C-768.786 -70.2912 -820.191 -70.2912 -851.917 -33.8138L-956.966 86.837C-957.005 86.881 -957.06 86.9063 -957.119 86.9063V86.9063C-957.177 86.9063 -957.233 86.9316 -957.271 86.9757L-1095.24 245.463C-1145.27 303.053 -1226.47 303.053 -1276.59 245.463L-1414.89 86.4882L-1420.23 80.9487L-1560 -76.1443C-1610.67 -133.003 -1610.67 -225.294 -1560 -282.257L-1420.04 -439.245L-1313.83 -558.711C-1281.73 -594.77 -1281.73 -653.197 -1313.83 -689.256L-1419.94 -808.5C-1419.97 -808.541 -1420.04 -808.516 -1420.04 -808.461V-808.461C-1420.04 -808.406 -1420.11 -808.38 -1420.15 -808.421L-1559.91 -965.502C-1610.58 -1022.36 -1610.58 -1114.65 -1559.91 -1171.61L-1420.04 -1328.81L-1414.06 -1335.4L-1275.76 -1494.37C-1225.73 -1551.96 -1144.53 -1551.96 -1094.41 -1494.37L-956.228 -1335.43C-956.181 -1335.38 -956.219 -1335.29 -956.291 -1335.29V-1335.29C-956.363 -1335.29 -956.401 -1335.21 -956.354 -1335.15L-851.733 -1214.89C-820.007 -1178.41 -768.602 -1178.41 -736.876 -1214.89L-631.827 -1335.54C-631.789 -1335.58 -631.733 -1335.61 -631.675 -1335.61V-1335.61C-631.616 -1335.61 -631.561 -1335.63 -631.523 -1335.67L-493.552 -1494.16C-443.526 -1551.75 -362.326 -1551.75 -312.208 -1494.16L-173.902 -1335.19L-168.568 -1329.65L-28.79 -1172.55C21.8796 -1115.7 21.8796 -1023.41 -28.79 -966.442L-168.551 -809.367C-168.599 -809.314 -168.686 -809.333 -168.706 -809.401V-809.401Z" stroke="url(#paint33_linear_1873_55414)" stroke-width="1.75" stroke-miterlimit="10" stroke-linecap="round"/>
<path d="M-175.279 -807.416C-175.279 -807.471 -175.347 -807.496 -175.383 -807.455L-280.389 -689.361C-312.115 -653.72 -312.115 -595.92 -280.389 -560.175L-175.383 -442.185C-175.347 -442.144 -175.279 -442.169 -175.279 -442.224V-442.224C-175.279 -442.279 -175.211 -442.305 -175.175 -442.264L-36.8805 -286.856C13.2373 -230.52 13.2373 -139.274 -36.8805 -82.938L-175.371 72.5872L-181.257 79.0674L-318.092 236.369C-367.658 293.333 -447.938 293.333 -497.505 236.369L-634.219 79.2062C-634.266 79.1519 -634.228 79.0674 -634.156 79.0674V79.0674C-634.084 79.0674 -634.046 78.9828 -634.093 78.9286L-737.61 -40.085C-768.968 -76.1442 -819.822 -76.1442 -851.272 -40.085L-955.217 79.4161C-955.256 79.4601 -955.311 79.4855 -955.37 79.4855V79.4855C-955.428 79.4855 -955.484 79.5108 -955.522 79.5548L-1092.02 236.369C-1141.59 293.333 -1221.87 293.333 -1271.43 236.369L-1408.27 79.0674L-1413.51 73.6323L-1552 -81.8928C-1602.12 -138.229 -1602.12 -229.475 -1552 -285.811L-1413.51 -441.127L-1308.31 -559.338C-1276.58 -594.98 -1276.58 -652.779 -1308.31 -688.525L-1413.31 -806.515C-1413.35 -806.556 -1413.42 -806.53 -1413.42 -806.475V-806.475C-1413.42 -806.42 -1413.49 -806.394 -1413.52 -806.435L-1551.82 -961.844C-1601.94 -1018.18 -1601.94 -1109.43 -1551.82 -1165.76L-1413.42 -1321.29L-1407.53 -1327.77L-1270.7 -1485.07C-1221.13 -1542.03 -1140.85 -1542.03 -1091.29 -1485.07L-954.571 -1327.91C-954.524 -1327.85 -954.562 -1327.77 -954.634 -1327.77V-1327.77C-954.706 -1327.77 -954.744 -1327.68 -954.697 -1327.63L-851.18 -1208.61C-819.822 -1172.56 -768.968 -1172.56 -737.518 -1208.61L-633.573 -1328.01C-633.534 -1328.05 -633.479 -1328.08 -633.42 -1328.08V-1328.08C-633.362 -1328.08 -633.306 -1328.11 -633.268 -1328.15L-496.769 -1484.96C-447.203 -1541.93 -366.922 -1541.93 -317.356 -1484.96L-180.521 -1327.66L-175.279 -1322.23L-36.8805 -1166.7C13.2373 -1110.37 13.2373 -1019.12 -36.8805 -962.784L-175.175 -807.376C-175.211 -807.335 -175.279 -807.361 -175.279 -807.416V-807.416Z" stroke="url(#paint34_linear_1873_55414)" stroke-width="1.75" stroke-miterlimit="10" stroke-linecap="round"/>
<path d="M-175.279 -807.416C-175.279 -807.471 -175.347 -807.496 -175.383 -807.455L-280.389 -689.361C-312.115 -653.72 -312.115 -595.92 -280.389 -560.175L-175.383 -442.185C-175.347 -442.144 -175.279 -442.169 -175.279 -442.224V-442.224C-175.279 -442.279 -175.211 -442.305 -175.175 -442.264L-36.8805 -286.856C13.2373 -230.52 13.2373 -139.274 -36.8805 -82.938L-175.371 72.5872L-181.257 79.0674L-318.092 236.369C-367.658 293.333 -447.938 293.333 -497.505 236.369L-634.219 79.2062C-634.266 79.1519 -634.228 79.0674 -634.156 79.0674V79.0674C-634.084 79.0674 -634.046 78.9828 -634.093 78.9286L-737.61 -40.085C-768.968 -76.1442 -819.822 -76.1442 -851.272 -40.085L-955.217 79.4161C-955.256 79.4601 -955.311 79.4855 -955.37 79.4855V79.4855C-955.428 79.4855 -955.484 79.5108 -955.522 79.5548L-1092.02 236.369C-1141.59 293.333 -1221.87 293.333 -1271.43 236.369L-1408.27 79.0674L-1413.51 73.6323L-1552 -81.8928C-1602.12 -138.229 -1602.12 -229.475 -1552 -285.811L-1413.51 -441.127L-1308.31 -559.338C-1276.58 -594.98 -1276.58 -652.779 -1308.31 -688.525L-1413.31 -806.515C-1413.35 -806.556 -1413.42 -806.53 -1413.42 -806.475V-806.475C-1413.42 -806.42 -1413.49 -806.394 -1413.52 -806.435L-1551.82 -961.844C-1601.94 -1018.18 -1601.94 -1109.43 -1551.82 -1165.76L-1413.42 -1321.29L-1407.53 -1327.77L-1270.7 -1485.07C-1221.13 -1542.03 -1140.85 -1542.03 -1091.29 -1485.07L-954.571 -1327.91C-954.524 -1327.85 -954.562 -1327.77 -954.634 -1327.77V-1327.77C-954.706 -1327.77 -954.744 -1327.68 -954.697 -1327.63L-851.18 -1208.61C-819.822 -1172.56 -768.968 -1172.56 -737.518 -1208.61L-633.573 -1328.01C-633.534 -1328.05 -633.479 -1328.08 -633.42 -1328.08V-1328.08C-633.362 -1328.08 -633.306 -1328.11 -633.268 -1328.15L-496.769 -1484.96C-447.203 -1541.93 -366.922 -1541.93 -317.356 -1484.96L-180.521 -1327.66L-175.279 -1322.23L-36.8805 -1166.7C13.2373 -1110.37 13.2373 -1019.12 -36.8805 -962.784L-175.175 -807.376C-175.211 -807.335 -175.279 -807.361 -175.279 -807.416V-807.416Z" stroke="url(#paint35_linear_1873_55414)" stroke-width="1.75" stroke-miterlimit="10" stroke-linecap="round"/>
<path d="M-181.854 -805.482C-181.875 -805.531 -181.94 -805.541 -181.976 -805.501L-285.906 -688.629C-317.264 -653.302 -317.264 -596.13 -285.906 -560.906L-182.004 -444.171C-181.967 -444.13 -181.9 -444.155 -181.9 -444.21V-444.21C-181.9 -444.265 -181.832 -444.291 -181.795 -444.25L-44.9724 -290.514C4.59369 -234.805 4.59369 -144.5 -44.9724 -88.7914L-181.9 65.0614L-187.785 71.5416L-323.241 227.171C-372.255 283.507 -451.708 283.507 -500.723 227.171L-635.966 71.7849C-636.013 71.7307 -635.974 71.6461 -635.903 71.6461V71.6461C-635.831 71.6461 -635.792 71.5616 -635.839 71.5074L-738.253 -46.252C-769.336 -81.8932 -819.637 -81.8932 -850.628 -46.252L-953.562 71.8904C-953.6 71.9344 -953.655 71.9597 -953.714 71.9597V71.9597C-953.772 71.9597 -953.828 71.985 -953.866 72.0291L-1088.89 227.276C-1137.91 283.612 -1217.36 283.612 -1266.38 227.276L-1401.83 71.6461L-1406.98 66.2111L-1543.91 -87.6418C-1593.47 -143.351 -1593.47 -233.656 -1543.91 -289.365L-1406.89 -443.113L-1302.88 -560.07C-1271.53 -595.398 -1271.53 -652.57 -1302.88 -687.793L-1406.78 -804.529C-1406.82 -804.57 -1406.89 -804.544 -1406.89 -804.489V-804.489C-1406.89 -804.435 -1406.96 -804.409 -1406.99 -804.45L-1543.82 -958.29C-1593.38 -1014 -1593.38 -1104.3 -1543.82 -1160.01L-1406.89 -1313.97L-1401 -1320.45L-1265.64 -1476.08C-1216.63 -1532.42 -1137.17 -1532.42 -1088.16 -1476.08L-952.823 -1320.59C-952.776 -1320.53 -952.814 -1320.45 -952.886 -1320.45V-1320.45C-952.958 -1320.45 -952.997 -1320.37 -952.95 -1320.31L-850.536 -1202.55C-819.453 -1166.91 -769.152 -1166.91 -738.161 -1202.55L-635.319 -1320.69C-635.281 -1320.74 -635.225 -1320.76 -635.167 -1320.76V-1320.76C-635.109 -1320.76 -635.053 -1320.79 -635.015 -1320.83L-499.987 -1476.08C-450.973 -1532.42 -371.52 -1532.42 -322.505 -1476.08L-187.049 -1320.45L-181.9 -1315.02L-44.8804 -1161.06C4.68564 -1105.35 4.68563 -1015.04 -44.8804 -959.335L-181.732 -805.463C-181.767 -805.423 -181.832 -805.433 -181.854 -805.482V-805.482Z" stroke="url(#paint36_linear_1873_55414)" stroke-width="1.75" stroke-miterlimit="10" stroke-linecap="round"/>
<path d="M-181.854 -805.482C-181.875 -805.531 -181.94 -805.541 -181.976 -805.501L-285.906 -688.629C-317.264 -653.302 -317.264 -596.13 -285.906 -560.906L-182.004 -444.171C-181.967 -444.13 -181.9 -444.155 -181.9 -444.21V-444.21C-181.9 -444.265 -181.832 -444.291 -181.795 -444.25L-44.9724 -290.514C4.59369 -234.805 4.59369 -144.5 -44.9724 -88.7914L-181.9 65.0614L-187.785 71.5416L-323.241 227.171C-372.255 283.507 -451.708 283.507 -500.723 227.171L-635.966 71.7849C-636.013 71.7307 -635.974 71.6461 -635.903 71.6461V71.6461C-635.831 71.6461 -635.792 71.5616 -635.839 71.5074L-738.253 -46.252C-769.336 -81.8932 -819.637 -81.8932 -850.628 -46.252L-953.562 71.8904C-953.6 71.9344 -953.655 71.9597 -953.714 71.9597V71.9597C-953.772 71.9597 -953.828 71.985 -953.866 72.0291L-1088.89 227.276C-1137.91 283.612 -1217.36 283.612 -1266.38 227.276L-1401.83 71.6461L-1406.98 66.2111L-1543.91 -87.6418C-1593.47 -143.351 -1593.47 -233.656 -1543.91 -289.365L-1406.89 -443.113L-1302.88 -560.07C-1271.53 -595.398 -1271.53 -652.57 -1302.88 -687.793L-1406.78 -804.529C-1406.82 -804.57 -1406.89 -804.544 -1406.89 -804.489V-804.489C-1406.89 -804.435 -1406.96 -804.409 -1406.99 -804.45L-1543.82 -958.29C-1593.38 -1014 -1593.38 -1104.3 -1543.82 -1160.01L-1406.89 -1313.97L-1401 -1320.45L-1265.64 -1476.08C-1216.63 -1532.42 -1137.17 -1532.42 -1088.16 -1476.08L-952.823 -1320.59C-952.776 -1320.53 -952.814 -1320.45 -952.886 -1320.45V-1320.45C-952.958 -1320.45 -952.997 -1320.37 -952.95 -1320.31L-850.536 -1202.55C-819.453 -1166.91 -769.152 -1166.91 -738.161 -1202.55L-635.319 -1320.69C-635.281 -1320.74 -635.225 -1320.76 -635.167 -1320.76V-1320.76C-635.109 -1320.76 -635.053 -1320.79 -635.015 -1320.83L-499.987 -1476.08C-450.973 -1532.42 -371.52 -1532.42 -322.505 -1476.08L-187.049 -1320.45L-181.9 -1315.02L-44.8804 -1161.06C4.68564 -1105.35 4.68563 -1015.04 -44.8804 -959.335L-181.732 -805.463C-181.767 -805.423 -181.832 -805.433 -181.854 -805.482V-805.482Z" stroke="url(#paint37_linear_1873_55414)" stroke-width="1.75" stroke-miterlimit="10" stroke-linecap="round"/>
</g>
<defs>
<linearGradient id="paint0_linear_1873_55414" x1="-794.172" y1="448.981" x2="-794.172" y2="-1697.92" gradientUnits="userSpaceOnUse">
<stop stop-color="#2DCF78"/>
</linearGradient>
<linearGradient id="paint1_linear_1873_55414" x1="-794.172" y1="448.981" x2="-794.172" y2="-1697.92" gradientUnits="userSpaceOnUse">
<stop stop-color="#2DCF78"/>
</linearGradient>
<linearGradient id="paint2_linear_1873_55414" x1="-794.084" y1="439.355" x2="-794.084" y2="-1688.09" gradientUnits="userSpaceOnUse">
<stop stop-color="#2DCF78"/>
</linearGradient>
<linearGradient id="paint3_linear_1873_55414" x1="-794.084" y1="439.355" x2="-794.084" y2="-1688.09" gradientUnits="userSpaceOnUse">
<stop stop-color="#2DCF78"/>
</linearGradient>
<linearGradient id="paint4_linear_1873_55414" x1="-794.129" y1="429.705" x2="-794.129" y2="-1678.44" gradientUnits="userSpaceOnUse">
<stop stop-color="#2DCF78"/>
</linearGradient>
<linearGradient id="paint5_linear_1873_55414" x1="-794.129" y1="429.705" x2="-794.129" y2="-1678.44" gradientUnits="userSpaceOnUse">
<stop stop-color="#2DCF78"/>
</linearGradient>
<linearGradient id="paint6_linear_1873_55414" x1="-794.178" y1="420.078" x2="-794.177" y2="-1668.92" gradientUnits="userSpaceOnUse">
<stop stop-color="#2DCF78"/>
</linearGradient>
<linearGradient id="paint7_linear_1873_55414" x1="-794.178" y1="420.078" x2="-794.177" y2="-1668.92" gradientUnits="userSpaceOnUse">
<stop stop-color="#2DCF78"/>
</linearGradient>
<linearGradient id="paint8_linear_1873_55414" x1="-794.039" y1="410.454" x2="-794.039" y2="-1659.29" gradientUnits="userSpaceOnUse">
<stop stop-color="#2DCF78"/>
</linearGradient>
<linearGradient id="paint9_linear_1873_55414" x1="-794.039" y1="410.454" x2="-794.039" y2="-1659.29" gradientUnits="userSpaceOnUse">
<stop stop-color="#2DCF78"/>
</linearGradient>
<linearGradient id="paint10_linear_1873_55414" x1="-794.09" y1="400.724" x2="-794.09" y2="-1649.56" gradientUnits="userSpaceOnUse">
<stop stop-color="#2DCF78"/>
</linearGradient>
<linearGradient id="paint11_linear_1873_55414" x1="-794.09" y1="400.724" x2="-794.09" y2="-1649.56" gradientUnits="userSpaceOnUse">
<stop stop-color="#2DCF78"/>
</linearGradient>
<linearGradient id="paint12_linear_1873_55414" x1="-794.139" y1="391.098" x2="-794.139" y2="-1639.93" gradientUnits="userSpaceOnUse">
<stop stop-color="#2DCF78"/>
</linearGradient>
<linearGradient id="paint13_linear_1873_55414" x1="-794.139" y1="391.098" x2="-794.139" y2="-1639.93" gradientUnits="userSpaceOnUse">
<stop stop-color="#2DCF78"/>
</linearGradient>
<linearGradient id="paint14_linear_1873_55414" x1="-794.185" y1="381.447" x2="-794.185" y2="-1630.28" gradientUnits="userSpaceOnUse">
<stop stop-color="#2DCF78"/>
</linearGradient>
<linearGradient id="paint15_linear_1873_55414" x1="-794.185" y1="381.447" x2="-794.185" y2="-1630.28" gradientUnits="userSpaceOnUse">
<stop stop-color="#2DCF78"/>
</linearGradient>
<linearGradient id="paint16_linear_1873_55414" x1="-794.14" y1="371.821" x2="-794.14" y2="-1620.66" gradientUnits="userSpaceOnUse">
<stop stop-color="#2DCF78"/>
</linearGradient>
<linearGradient id="paint17_linear_1873_55414" x1="-794.14" y1="371.821" x2="-794.14" y2="-1620.66" gradientUnits="userSpaceOnUse">
<stop stop-color="#2DCF78"/>
</linearGradient>
<linearGradient id="paint18_linear_1873_55414" x1="-794.193" y1="362.301" x2="-794.193" y2="-1610.93" gradientUnits="userSpaceOnUse">
<stop stop-color="#2DCF78"/>
</linearGradient>
<linearGradient id="paint19_linear_1873_55414" x1="-794.193" y1="362.301" x2="-794.193" y2="-1610.93" gradientUnits="userSpaceOnUse">
<stop stop-color="#2DCF78"/>
</linearGradient>
<linearGradient id="paint20_linear_1873_55414" x1="-794.194" y1="352.464" x2="-794.194" y2="-1601.3" gradientUnits="userSpaceOnUse">
<stop stop-color="#2DCF78"/>
</linearGradient>
<linearGradient id="paint21_linear_1873_55414" x1="-794.194" y1="352.464" x2="-794.194" y2="-1601.3" gradientUnits="userSpaceOnUse">
<stop stop-color="#2DCF78"/>
</linearGradient>
<linearGradient id="paint22_linear_1873_55414" x1="-794.144" y1="342.838" x2="-794.144" y2="-1591.57" gradientUnits="userSpaceOnUse">
<stop stop-color="#2DCF78"/>
</linearGradient>
<linearGradient id="paint23_linear_1873_55414" x1="-794.144" y1="342.838" x2="-794.144" y2="-1591.57" gradientUnits="userSpaceOnUse">
<stop stop-color="#2DCF78"/>
</linearGradient>
<linearGradient id="paint24_linear_1873_55414" x1="-794.152" y1="333.294" x2="-794.151" y2="-1582.02" gradientUnits="userSpaceOnUse">
<stop stop-color="#2DCF78"/>
</linearGradient>
<linearGradient id="paint25_linear_1873_55414" x1="-794.152" y1="333.294" x2="-794.151" y2="-1582.02" gradientUnits="userSpaceOnUse">
<stop stop-color="#2DCF78"/>
</linearGradient>
<linearGradient id="paint26_linear_1873_55414" x1="-794.245" y1="323.562" x2="-794.245" y2="-1572.29" gradientUnits="userSpaceOnUse">
<stop stop-color="#2DCF78"/>
</linearGradient>
<linearGradient id="paint27_linear_1873_55414" x1="-794.245" y1="323.562" x2="-794.245" y2="-1572.29" gradientUnits="userSpaceOnUse">
<stop stop-color="#2DCF78"/>
</linearGradient>
<linearGradient id="paint28_linear_1873_55414" x1="-794.198" y1="313.938" x2="-794.198" y2="-1562.66" gradientUnits="userSpaceOnUse">
<stop stop-color="#2DCF78"/>
</linearGradient>
<linearGradient id="paint29_linear_1873_55414" x1="-794.198" y1="313.938" x2="-794.198" y2="-1562.66" gradientUnits="userSpaceOnUse">
<stop stop-color="#2DCF78"/>
</linearGradient>
<linearGradient id="paint30_linear_1873_55414" x1="-794.204" y1="304.312" x2="-794.203" y2="-1553.04" gradientUnits="userSpaceOnUse">
<stop stop-color="#2DCF78"/>
</linearGradient>
<linearGradient id="paint31_linear_1873_55414" x1="-794.204" y1="304.312" x2="-794.203" y2="-1553.04" gradientUnits="userSpaceOnUse">
<stop stop-color="#2DCF78"/>
</linearGradient>
<linearGradient id="paint32_linear_1873_55414" x1="-794.206" y1="294.661" x2="-794.206" y2="-1543.49" gradientUnits="userSpaceOnUse">
<stop stop-color="#2DCF78"/>
</linearGradient>
<linearGradient id="paint33_linear_1873_55414" x1="-794.206" y1="294.661" x2="-794.206" y2="-1543.49" gradientUnits="userSpaceOnUse">
<stop stop-color="#2DCF78"/>
</linearGradient>
<linearGradient id="paint34_linear_1873_55414" x1="-794.252" y1="284.93" x2="-794.252" y2="-1533.66" gradientUnits="userSpaceOnUse">
<stop stop-color="#2DCF78"/>
</linearGradient>
<linearGradient id="paint35_linear_1873_55414" x1="-794.252" y1="284.93" x2="-794.252" y2="-1533.66" gradientUnits="userSpaceOnUse">
<stop stop-color="#2DCF78"/>
</linearGradient>
<linearGradient id="paint36_linear_1873_55414" x1="-794.208" y1="275.305" x2="-794.208" y2="-1524.14" gradientUnits="userSpaceOnUse">
<stop stop-color="#2DCF78"/>
</linearGradient>
<linearGradient id="paint37_linear_1873_55414" x1="-794.208" y1="275.305" x2="-794.208" y2="-1524.14" gradientUnits="userSpaceOnUse">
<stop stop-color="#2DCF78"/>
</linearGradient>
</defs>
</svg>
