<?xml version="1.0" encoding="UTF-8" ?>
<!DOCTYPE svg PUBLIC "-//W3C//DTD SVG 1.1//EN" "http://www.w3.org/Graphics/SVG/1.1/DTD/svg11.dtd">
<svg width="1056pt" height="1326pt" viewBox="0 0 1056 1326" version="1.1" xmlns="http://www.w3.org/2000/svg">
<g id="#2ac371f1">
<path fill="#2ac371" opacity="0.95" d=" M 697.28 0.00 L 703.04 0.00 C 724.88 51.94 754.87 100.54 792.36 142.65 C 876.33 237.02 960.29 331.38 1044.26 425.74 C 1048.13 430.22 1052.25 434.50 1056.00 439.09 L 1056.00 446.99 C 967.72 347.61 879.27 248.38 790.95 149.04 C 751.38 105.28 719.94 54.42 697.28 0.00 Z" />
<path fill="#2ac371" opacity="0.95" d=" M 717.26 0.00 L 722.87 0.00 C 745.18 56.73 776.98 109.87 817.80 155.24 C 897.17 244.53 976.72 333.66 1056.00 423.03 L 1056.00 430.98 C 973.86 338.46 891.49 246.14 809.31 153.66 C 769.84 108.42 738.80 56.00 717.26 0.00 Z" />
<path fill="#2ac371" opacity="0.95" d=" M 737.47 0.00 L 743.03 0.00 C 764.29 58.49 795.77 113.40 836.67 160.39 C 909.70 242.66 983.03 324.69 1056.00 407.00 L 1056.00 415.00 C 989.13 339.55 921.97 264.35 854.98 189.01 C 843.72 176.22 832.10 163.75 821.43 150.46 C 785.15 105.56 756.86 54.34 737.47 0.00 Z" />
<path fill="#2ac371" opacity="0.95" d=" M 758.21 0.00 L 763.78 0.00 C 782.32 55.40 810.03 107.84 846.31 153.69 C 857.63 168.21 870.20 181.69 882.37 195.50 C 940.25 260.51 998.14 325.53 1056.00 390.56 L 1056.00 398.64 C 997.48 332.65 938.73 266.87 880.13 200.94 C 867.77 186.92 854.98 173.25 843.40 158.56 C 805.77 111.39 777.08 57.26 758.21 0.00 Z" />
<path fill="#2ac371" opacity="0.95" d=" M 779.59 0.00 L 785.08 0.00 C 803.25 58.36 831.30 113.78 868.98 161.99 C 880.66 177.15 893.69 191.19 906.35 205.51 C 956.24 261.55 1006.06 317.65 1056.00 373.64 L 1056.00 381.71 C 1002.23 321.26 948.45 260.81 894.67 200.37 C 882.15 186.48 869.85 172.36 858.73 157.31 C 823.36 110.06 796.83 56.40 779.59 0.00 Z" />
<path fill="#2ac371" opacity="0.95" d=" M 801.51 0.00 L 807.08 0.00 C 827.76 73.92 865.02 143.42 916.76 200.27 C 963.16 252.45 1009.60 304.60 1056.00 356.79 L 1056.00 364.72 C 1008.28 311.17 960.62 257.56 912.94 203.97 C 887.69 176.16 865.71 145.39 847.49 112.53 C 827.71 77.05 812.53 39.08 801.51 0.00 Z" />
<path fill="#2ac371" opacity="0.95" d=" M 822.90 0.00 L 828.42 0.00 C 847.54 75.53 883.83 146.95 935.39 205.52 C 975.57 250.73 1015.81 295.88 1056.00 341.08 L 1056.00 349.15 C 1014.02 301.72 971.77 254.54 929.76 207.14 C 878.19 147.96 842.04 75.99 822.90 0.00 Z" />
<path fill="#2ac371" opacity="0.95" d=" M 845.18 0.00 L 850.64 0.00 C 868.09 76.73 903.26 149.69 954.34 209.72 C 988.05 248.01 1022.15 285.96 1056.00 324.13 L 1056.00 332.13 C 1021.97 293.82 987.84 255.58 953.82 217.25 C 900.03 155.51 863.14 79.75 845.18 0.00 Z" />
<path fill="#2ac371" opacity="0.95" d=" M 867.96 0.00 L 873.40 0.00 C 887.77 71.58 917.36 140.32 961.21 198.82 C 977.54 220.89 996.58 240.72 1014.65 261.34 C 1028.42 276.86 1042.26 292.31 1056.00 307.86 L 1056.00 315.71 C 1041.99 300.15 1028.15 284.43 1014.18 268.82 C 998.03 250.32 981.08 232.48 965.71 213.31 C 916.35 151.57 883.39 77.39 867.96 0.00 Z" />
<path fill="#2ac371" opacity="0.95" d=" M 890.02 0.00 L 895.47 0.00 C 908.63 74.62 938.36 146.55 983.62 207.46 C 998.10 227.33 1014.95 245.28 1031.22 263.67 C 1039.47 272.98 1047.77 282.24 1056.00 291.57 L 1056.00 299.64 C 1046.63 288.83 1036.98 278.25 1027.53 267.51 C 1010.08 247.84 992.07 228.55 976.78 207.10 C 932.20 146.06 903.15 74.29 890.02 0.00 Z" />
<path fill="#2ac371" opacity="0.95" d=" M 913.55 0.00 L 918.88 0.00 C 929.04 67.78 952.59 133.75 989.41 191.66 C 1003.38 213.80 1019.39 234.64 1036.92 254.09 C 1043.29 261.24 1049.67 268.38 1056.00 275.57 L 1056.00 283.60 C 1048.65 275.11 1041.07 266.82 1033.66 258.39 C 1014.60 237.39 997.41 214.70 982.47 190.59 C 946.53 132.78 923.45 67.28 913.55 0.00 Z" />
<path fill="#2ac371" opacity="0.95" d=" M 936.99 0.00 L 942.31 0.00 C 950.48 66.25 971.45 131.09 1005.25 188.75 C 1019.85 213.80 1036.91 237.40 1056.00 259.22 L 1056.00 267.12 C 1037.58 246.78 1021.09 224.71 1006.65 201.38 C 968.94 140.47 945.56 71.04 936.99 0.00 Z" />
<path fill="#2ac371" opacity="0.95" d=" M 960.53 0.00 L 965.88 0.00 C 973.93 86.23 1004.51 170.67 1056.00 240.52 L 1056.00 249.31 C 1001.25 177.53 968.83 89.69 960.53 0.00 Z" />
<path fill="#2ac371" opacity="0.95" d=" M 985.23 0.00 L 990.56 0.00 C 995.52 75.18 1017.65 149.34 1056.00 214.28 L 1056.00 224.44 C 1014.28 157.02 990.45 79.01 985.23 0.00 Z" />
<path fill="#2ac371" opacity="0.95" d=" M 1009.80 0.00 L 1015.04 0.00 C 1017.56 61.02 1031.17 121.69 1056.00 177.54 L 1056.00 190.35 C 1027.86 130.93 1012.32 65.66 1009.80 0.00 Z" />
<path fill="#2ac371" opacity="0.95" d=" M 1034.61 0.01 C 1036.38 0.40 1038.16 0.81 1039.95 1.22 C 1040.55 40.83 1045.91 80.38 1056.00 118.69 L 1056.00 137.94 C 1042.26 93.32 1035.26 46.68 1034.61 0.01 Z" />
</g>
</svg>
