<svg width="468" height="308" viewBox="0 0 468 308" fill="none" xmlns="http://www.w3.org/2000/svg">
    <g filter="url(#filter0_d_172_65)">
        <path
            d="M18 37C18 25.9543 26.9543 17 38 17H430C441.046 17 450 25.9543 450 37V269C450 280.046 441.046 289 430 289H38C26.9543 289 18 280.046 18 269V37Z"
            fill="url(#paint0_linear_172_65)" />
    </g>
    <path
        d="M34.0001 53C34.0001 41.9543 42.9544 33 54.0001 33L414 33C425.046 33 434 41.9543 434 53V253C434 264.046 425.046 273 414 273H54.0001C42.9544 273 34.0001 264.046 34.0001 253L34.0001 53Z"
        fill="url(#paint1_linear_172_65)" />
    <path
        d="M147.355 135.33C147.355 133.931 148.337 133.364 149.548 134.064L155.425 137.457L155.425 226.34L149.548 222.947C148.337 222.248 147.355 220.547 147.355 219.149L147.355 135.33Z"
        fill="#181818" />
    <rect width="151.692" height="10.9195" rx="2.53178" transform="matrix(0.866025 -0.5 0.866025 0.5 146 134.963)"
        fill="#454549" />
    <g filter="url(#filter1_d_172_65)">
        <rect width="150.89" height="88.3608" rx="2" transform="matrix(0.866025 -0.5 2.20305e-08 1 155.411 139.45)"
            fill="#232325" />
        <rect width="100.728" height="8.83369" rx="2.71323"
            transform="matrix(0.866025 -0.5 2.20305e-08 1 193.333 143.867)" fill="#454549" />
        <circle cx="13.5004" cy="13.5004" r="13.5004" transform="matrix(0.866025 -0.5 2.20305e-08 1 163.563 144.124)"
            fill="#7919FF" />
        <rect width="100.728" height="8.83369" rx="2.71323"
            transform="matrix(0.866025 -0.5 2.20305e-08 1 162.415 188.035)" fill="#454549" />
        <rect width="100.728" height="8.83369" rx="2.71323"
            transform="matrix(0.866025 -0.5 2.20305e-08 1 162.415 202.39)" fill="#454549" />
        <circle cx="13.5004" cy="13.5004" r="13.5004" transform="matrix(0.866025 -0.5 2.20305e-08 1 256.272 130.578)"
            fill="#2DCF78" />
        <path
            d="M262.539 146.219C262.473 144.601 263.523 142.544 264.872 141.648L267.325 140.02C268.675 139.125 269.833 139.716 269.899 141.334"
            stroke="white" stroke-linecap="round" stroke-linejoin="round" />
        <path
            d="M267.362 133.197C268.262 133.657 268.328 135.275 267.509 136.801C266.689 138.327 265.343 139.296 264.503 138.796C263.664 138.295 263.539 136.791 264.295 135.232C265.05 133.673 266.464 132.811 267.362 133.197"
            stroke="white" stroke-linecap="round" stroke-linejoin="round" />
        <path d="M270.975 136.842L272.816 135.621C273.858 134.929 274.695 135.356 274.746 136.607" stroke="white"
            stroke-linecap="round" stroke-linejoin="round" />
        <path
            d="M272.78 130.13C273.424 130.458 273.472 131.635 272.885 132.704C272.299 133.773 271.321 134.498 270.739 134.129C270.157 133.76 270.047 132.623 270.633 131.554C271.158 130.526 272.14 129.875 272.78 130.13"
            stroke="white" stroke-linecap="round" stroke-linejoin="round" />
    </g>
    <path
        d="M168.106 149.472C168.106 148.074 169.087 147.507 170.298 148.206L176.637 151.865L176.637 245.821L170.298 242.161C169.087 241.462 168.106 239.762 168.106 238.363L168.106 149.472Z"
        fill="#181818" />
    <rect width="160.348" height="11.5426" rx="2.53178" transform="matrix(0.866025 -0.5 0.866025 0.5 166.673 149.228)"
        fill="#454549" />
    <g filter="url(#filter2_d_172_65)">
        <rect width="159.5" height="93.403" rx="2" transform="matrix(0.866025 -0.5 2.20305e-08 1 176.622 153.972)"
            fill="#232325" />
        <rect width="106.476" height="9.33777" rx="2.71323"
            transform="matrix(0.866025 -0.5 2.20305e-08 1 216.707 144.634)" fill="#454549" />
        <rect width="106.476" height="9.33777" rx="2.71323"
            transform="matrix(0.866025 -0.5 2.20305e-08 1 216.707 158.641)" fill="#454549" />
        <circle cx="14.2708" cy="14.2708" r="14.2708" transform="matrix(0.866025 -0.5 2.20305e-08 1 185.238 158.913)"
            fill="#7919FF" />
        <path fill-rule="evenodd" clip-rule="evenodd"
            d="M191.862 175.447C191.792 173.736 192.902 171.562 194.329 170.615L196.922 168.894C198.348 167.948 199.573 168.573 199.643 170.283"
            fill="#7919FF" />
        <path
            d="M191.862 175.447C191.792 173.736 192.902 171.562 194.329 170.615L196.922 168.894C198.348 167.948 199.573 168.573 199.643 170.283"
            stroke="white" stroke-linecap="round" stroke-linejoin="round" />
        <path fill-rule="evenodd" clip-rule="evenodd"
            d="M196.96 161.682C197.912 162.168 197.982 163.878 197.116 165.492C196.25 167.105 194.826 168.129 193.939 167.6C193.052 167.071 192.92 165.481 193.718 163.833C194.517 162.185 196.011 161.273 196.96 161.682"
            fill="#7919FF" />
        <path
            d="M196.96 161.682C197.912 162.168 197.982 163.878 197.116 165.492C196.25 167.105 194.826 168.129 193.939 167.6C193.052 167.071 192.92 165.481 193.718 163.833C194.517 162.185 196.011 161.273 196.96 161.682"
            stroke="white" stroke-linecap="round" stroke-linejoin="round" />
        <path fill-rule="evenodd" clip-rule="evenodd"
            d="M200.78 165.535L202.725 164.244C203.828 163.513 204.712 163.964 204.766 165.286" fill="#7919FF" />
        <path d="M200.78 165.535L202.725 164.244C203.828 163.513 204.712 163.964 204.766 165.286" stroke="white"
            stroke-linecap="round" stroke-linejoin="round" />
        <path fill-rule="evenodd" clip-rule="evenodd"
            d="M202.688 158.44C203.368 158.787 203.419 160.031 202.799 161.161C202.179 162.291 201.145 163.057 200.53 162.667C199.915 162.277 199.799 161.076 200.419 159.946C200.974 158.859 202.011 158.17 202.688 158.44"
            fill="#7919FF" />
        <path
            d="M202.688 158.44C203.368 158.787 203.419 160.031 202.799 161.161C202.179 162.291 201.145 163.057 200.53 162.667C199.915 162.277 199.799 161.076 200.419 159.946C200.974 158.859 202.011 158.17 202.688 158.44"
            stroke="white" stroke-linecap="round" stroke-linejoin="round" />
        <rect width="106.476" height="9.33777" rx="2.71323"
            transform="matrix(0.866025 -0.5 2.20305e-08 1 184.025 205.33)" fill="#454549" />
        <rect width="106.476" height="9.33777" rx="2.71323"
            transform="matrix(0.866025 -0.5 2.20305e-08 1 184.025 220.504)" fill="#454549" />
        <circle cx="14.2708" cy="14.2708" r="14.2708" transform="matrix(0.866025 -0.5 2.20305e-08 1 283.238 144.594)"
            fill="#2DCF78" />
        <path
            d="M289.862 161.127C289.792 159.417 290.902 157.243 292.329 156.296L294.922 154.575C296.349 153.628 297.573 154.253 297.643 155.964"
            stroke="white" stroke-linecap="round" stroke-linejoin="round" />
        <path
            d="M294.96 147.362C295.913 147.848 295.982 149.559 295.116 151.172C294.25 152.785 292.826 153.81 291.939 153.28C291.052 152.751 290.92 151.162 291.719 149.514C292.517 147.866 294.011 146.954 294.96 147.362"
            stroke="white" stroke-linecap="round" stroke-linejoin="round" />
        <path d="M298.781 151.216L300.726 149.925C301.828 149.193 302.712 149.645 302.766 150.966" stroke="white"
            stroke-linecap="round" stroke-linejoin="round" />
        <path
            d="M300.688 144.12C301.368 144.467 301.419 145.711 300.799 146.841C300.18 147.971 299.145 148.737 298.53 148.347C297.915 147.957 297.799 146.756 298.419 145.626C298.974 144.539 300.011 143.851 300.688 144.12"
            stroke="white" stroke-linecap="round" stroke-linejoin="round" />
    </g>
    <defs>
        <filter id="filter0_d_172_65" x="0" y="0" width="468" height="308" filterUnits="userSpaceOnUse"
            color-interpolation-filters="sRGB">
            <feFlood flood-opacity="0" result="BackgroundImageFix" />
            <feColorMatrix in="SourceAlpha" type="matrix" values="0 0 0 0 0 0 0 0 0 0 0 0 0 0 0 0 0 0 127 0"
                result="hardAlpha" />
            <feOffset dy="1" />
            <feGaussianBlur stdDeviation="9" />
            <feComposite in2="hardAlpha" operator="out" />
            <feColorMatrix type="matrix" values="0 0 0 0 0.094043 0 0 0 0 0.094043 0 0 0 0 0.094043 0 0 0 0.5 0" />
            <feBlend mode="normal" in2="BackgroundImageFix" result="effect1_dropShadow_172_65" />
            <feBlend mode="normal" in="SourceGraphic" in2="effect1_dropShadow_172_65" result="shape" />
        </filter>
        <filter id="filter1_d_172_65" x="127.748" y="39.8007" width="186.003" height="219.134"
            filterUnits="userSpaceOnUse" color-interpolation-filters="sRGB">
            <feFlood flood-opacity="0" result="BackgroundImageFix" />
            <feColorMatrix in="SourceAlpha" type="matrix" values="0 0 0 0 0 0 0 0 0 0 0 0 0 0 0 0 0 0 127 0"
                result="hardAlpha" />
            <feOffset dy="3.4601" />
            <feGaussianBlur stdDeviation="13.832" />
            <feComposite in2="hardAlpha" operator="out" />
            <feColorMatrix type="matrix" values="0 0 0 0 0.0666667 0 0 0 0 0.0666667 0 0 0 0 0.0705882 0 0 0 1 0" />
            <feBlend mode="normal" in2="BackgroundImageFix" result="effect1_dropShadow_172_65" />
            <feBlend mode="normal" in="SourceGraphic" in2="effect1_dropShadow_172_65" result="shape" />
        </filter>
        <filter id="filter2_d_172_65" x="148.958" y="50.0175" width="193.459" height="228.481"
            filterUnits="userSpaceOnUse" color-interpolation-filters="sRGB">
            <feFlood flood-opacity="0" result="BackgroundImageFix" />
            <feColorMatrix in="SourceAlpha" type="matrix" values="0 0 0 0 0 0 0 0 0 0 0 0 0 0 0 0 0 0 127 0"
                result="hardAlpha" />
            <feOffset dy="3.4601" />
            <feGaussianBlur stdDeviation="13.832" />
            <feComposite in2="hardAlpha" operator="out" />
            <feColorMatrix type="matrix" values="0 0 0 0 0.0666667 0 0 0 0 0.0666667 0 0 0 0 0.0705882 0 0 0 1 0" />
            <feBlend mode="normal" in2="BackgroundImageFix" result="effect1_dropShadow_172_65" />
            <feBlend mode="normal" in="SourceGraphic" in2="effect1_dropShadow_172_65" result="shape" />
        </filter>
        <linearGradient id="paint0_linear_172_65" x1="-50.0276" y1="342.55" x2="490.123" y2="230.057"
            gradientUnits="userSpaceOnUse">
            <stop stop-color="#FEFF01" />
            <stop offset="0.352722" stop-color="#FF2D9A" />
            <stop offset="0.635235" stop-color="#E24CFF" />
            <stop offset="1" stop-color="#9A52FF" />
        </linearGradient>
        <linearGradient id="paint1_linear_172_65" x1="34.0001" y1="206.488" x2="458.715" y2="100.387"
            gradientUnits="userSpaceOnUse">
            <stop offset="0.048982" />
            <stop offset="0.998963" stop-color="#343437" />
        </linearGradient>
    </defs>
</svg>
