<svg width="48" height="45" viewBox="0 0 48 45" fill="none" xmlns="http://www.w3.org/2000/svg">
<circle cx="10" cy="10" r="10" fill="#FF6719"/>
<path d="M45.5066 1.80469H2.49347C1.1221 1.80469 0 2.92678 0 4.29816V41.7008C0 43.0723 1.1221 44.1943 2.49347 44.1943H45.5065C46.878 44.1943 48 43.0722 48 41.7008V4.29816C48.0001 2.92678 46.878 1.80469 45.5066 1.80469ZM1.87013 4.29816C1.87013 3.96038 2.1556 3.67482 2.49347 3.67482H45.5065C45.8444 3.67482 46.1299 3.96029 46.1299 4.29816V9.2852H1.87013V4.29816ZM30.8384 42.3243H17.785C17.601 41.7096 17.4944 41.0613 17.4944 40.3874C17.4944 36.6284 20.5521 33.5702 24.3117 33.5702C28.0712 33.5702 31.1289 36.6285 31.1289 40.3874C31.1289 41.0613 31.0223 41.7095 30.8384 42.3243ZM41.1109 41.7141L41.0405 41.7983C40.8696 41.8544 40.432 42.0159 39.9233 42.3251H32.7676C32.9109 41.7018 32.9982 41.0559 32.9982 40.3882C32.9982 35.5908 29.1095 31.7009 24.3108 31.7009C19.5139 31.7009 15.6235 35.5908 15.6235 40.3882C15.6235 41.0558 15.7108 41.7011 15.8541 42.3251H8.69983C8.19114 42.0144 7.75417 41.8536 7.58336 41.7975L7.5123 41.7133C7.50048 41.5705 7.4718 41.1591 7.4718 40.5439C7.4718 39.9255 7.50114 39.5128 7.5123 39.3744L7.58336 39.2897C8.01602 39.1475 10.1267 38.3527 10.8368 36.1666C11.5412 34.0009 10.3312 32.132 10.0488 31.7374L10.0463 31.7057L11.495 29.7121L11.5324 29.7033C11.7568 29.7744 12.3926 29.9495 13.1937 29.9495C14.2385 29.9495 15.2029 29.6503 15.9839 29.083C17.8285 27.7427 17.9463 25.5173 17.9494 25.0329L17.9668 25.0035L20.3114 24.2468L20.3444 24.2599C20.6317 24.6495 22.0349 26.3769 24.3115 26.3769C26.588 26.3769 27.9913 24.6495 28.2786 24.2599L28.3116 24.2468L30.6556 25.003L30.6737 25.0323C30.6767 25.5185 30.7939 27.7441 32.6386 29.0836C33.4184 29.6503 34.3834 29.9502 35.4275 29.9502C36.2304 29.9502 36.8669 29.7744 37.0907 29.7033L37.1281 29.7121L38.5775 31.7057L38.5749 31.7362C38.2925 32.1302 37.0807 34.0003 37.7845 36.1666C38.4958 38.3553 40.609 39.1501 41.0405 39.291L41.1109 39.3752C41.1227 39.518 41.1514 39.9288 41.1514 40.544C41.1514 41.1631 41.122 41.5751 41.1109 41.7141ZM46.13 41.7008C46.13 42.0387 45.8445 42.3243 45.5066 42.3243H42.8797C42.9221 42.2064 42.9527 42.0868 42.9658 41.9683C42.9658 41.9683 43.0225 41.4484 43.0225 40.5433C43.0225 39.6394 42.9658 39.1202 42.9658 39.1202C42.8922 38.4382 42.2945 37.7176 41.6387 37.5181C41.6387 37.5181 40.0323 37.0294 39.5641 35.5881C39.0953 34.1463 40.1083 32.8072 40.1083 32.8072C40.5222 32.2606 40.5634 31.3373 40.1993 30.7557L38.5299 28.4592C38.1983 28.0671 37.6142 27.8302 37.0699 27.8302C36.8873 27.8302 36.7097 27.8564 36.5469 27.9125C36.5469 27.9125 36.0657 28.0789 35.4274 28.0789C34.9087 28.0789 34.2872 27.9686 33.7374 27.5696C32.5099 26.6781 32.5436 24.9981 32.5436 24.9981C32.5567 24.3124 32.048 23.54 31.4134 23.2814L28.7111 22.4093C28.5939 22.3799 28.4699 22.3663 28.344 22.3663C27.7548 22.3663 27.1103 22.6679 26.7868 23.1312C26.7868 23.1312 25.8268 24.5057 24.3113 24.5057C22.7958 24.5057 21.8358 23.1312 21.8358 23.1312C21.5123 22.668 20.8678 22.3663 20.2786 22.3663C20.1527 22.3663 20.0293 22.3799 19.9115 22.4093L17.2092 23.282C16.5733 23.5407 16.0652 24.3131 16.079 24.9988C16.079 24.9988 16.1114 26.6769 14.884 27.5689C14.3341 27.9679 13.712 28.0783 13.1934 28.0783C12.5569 28.0783 12.0757 27.9124 12.0757 27.9124C11.913 27.8564 11.7353 27.8301 11.5526 27.8301C11.0084 27.8301 10.4244 28.0664 10.0927 28.4591L8.42327 30.7556C8.0598 31.3372 8.10039 32.2605 8.5143 32.8071C8.5143 32.8071 9.52671 34.1462 9.05786 35.5874C8.58967 37.028 6.98448 37.5168 6.98448 37.5168C6.3287 37.7163 5.73151 38.4375 5.65736 39.1194C5.65736 39.1194 5.60064 39.6394 5.60064 40.5439C5.60064 41.4484 5.65736 41.9676 5.65736 41.9676C5.67048 42.0867 5.70039 42.207 5.74342 42.3248H2.49347C2.1556 42.3248 1.87013 42.0394 1.87013 41.7015V11.1553H46.13V41.7008V41.7008Z" fill="#343437"/>
<path d="M43.324 8.03869C44.1847 8.03869 44.8824 7.34097 44.8824 6.48028C44.8824 5.6196 44.1847 4.92188 43.324 4.92188C42.4633 4.92188 41.7656 5.6196 41.7656 6.48028C41.7656 7.34097 42.4633 8.03869 43.324 8.03869Z" fill="#343437"/>
<path d="M38.9608 8.03869C39.8214 8.03869 40.5192 7.34097 40.5192 6.48028C40.5192 5.6196 39.8214 4.92188 38.9608 4.92188C38.1001 4.92188 37.4023 5.6196 37.4023 6.48028C37.4023 7.34097 38.1001 8.03869 38.9608 8.03869Z" fill="#343437"/>
<path d="M34.5965 8.03869C35.4572 8.03869 36.1549 7.34097 36.1549 6.48028C36.1549 5.6196 35.4572 4.92188 34.5965 4.92188C33.7358 4.92188 33.0381 5.6196 33.0381 6.48028C33.0381 7.34097 33.7358 8.03869 34.5965 8.03869Z" fill="#343437"/>
</svg>
