<svg width="148" height="123" viewBox="0 0 148 123" fill="none" xmlns="http://www.w3.org/2000/svg">
<mask id="mask0" mask-type="alpha" maskUnits="userSpaceOnUse" x="0" y="0" width="148" height="123">
<path d="M0.5 10C0.5 4.75329 4.75329 0.5 10 0.5H147.5V122.5H0.5V10Z" fill="#232325" stroke="url(#paint0_linear)"/>
</mask>
<g mask="url(#mask0)">
<path d="M243.405 -1087.63C243.385 -1087.7 243.3 -1087.71 243.253 -1087.66L119.214 -955.82C81.7869 -915.986 81.7869 -851.441 119.214 -811.606L243.132 -679.892C243.181 -679.84 243.267 -679.875 243.267 -679.946V-679.946C243.267 -680.017 243.354 -680.051 243.403 -680L406.679 -506.474C465.809 -443.609 465.809 -341.7 406.679 -278.835L243.267 -105.166L236.279 -97.8515L74.798 77.5972C16.3119 141.154 -78.4981 141.154 -136.984 77.5972L-298.432 -97.9138C-298.48 -97.9656 -298.443 -98.0492 -298.373 -98.0492V-98.0492C-298.302 -98.0492 -298.266 -98.1328 -298.313 -98.1845L-420.587 -230.995C-457.646 -271.224 -517.695 -271.224 -554.755 -230.995L-677.49 -97.5888C-677.509 -97.5672 -677.537 -97.555 -677.567 -97.555V-97.555C-677.596 -97.555 -677.624 -97.5427 -677.644 -97.5211L-838.725 77.5972C-897.211 141.154 -992.021 141.154 -1050.51 77.5972L-1212.08 -98.0492L-1218.24 -104.178L-1381.65 -277.748C-1440.78 -340.613 -1440.78 -442.522 -1381.65 -505.387L-1218.15 -678.76L-1094 -810.717C-1056.58 -850.551 -1056.58 -915.096 -1094 -954.931L-1217.92 -1086.65C-1217.97 -1086.7 -1218.06 -1086.66 -1218.06 -1086.59V-1086.59C-1218.06 -1086.52 -1218.14 -1086.49 -1218.19 -1086.54L-1381.47 -1260.06C-1440.6 -1322.93 -1440.6 -1424.84 -1381.47 -1487.7L-1218.06 -1661.37L-1211.07 -1668.69L-1049.5 -1844.33C-991.01 -1907.89 -896.2 -1907.89 -837.714 -1844.33L-676.389 -1668.76C-676.329 -1668.69 -676.375 -1668.59 -676.463 -1668.59V-1668.59C-676.551 -1668.59 -676.597 -1668.48 -676.537 -1668.42L-554.295 -1535.64C-517.236 -1495.41 -457.186 -1495.41 -420.127 -1535.64L-297.455 -1668.98C-297.395 -1669.04 -297.311 -1669.08 -297.223 -1669.08V-1669.08C-297.135 -1669.08 -297.051 -1669.12 -296.992 -1669.18L-135.881 -1844.23C-77.3946 -1907.79 17.4155 -1907.79 75.9016 -1844.23L237.29 -1668.59L243.451 -1662.46L406.863 -1488.79C465.993 -1425.92 465.993 -1324.02 406.863 -1261.15L243.558 -1087.59C243.51 -1087.54 243.426 -1087.56 243.405 -1087.63V-1087.63Z" stroke="url(#paint1_linear)" stroke-width="1.75" stroke-miterlimit="10" stroke-linecap="round"/>
<path d="M243.405 -1087.63C243.385 -1087.7 243.3 -1087.71 243.253 -1087.66L119.214 -955.82C81.7869 -915.986 81.7869 -851.441 119.214 -811.606L243.132 -679.892C243.181 -679.84 243.267 -679.875 243.267 -679.946V-679.946C243.267 -680.017 243.354 -680.051 243.403 -680L406.679 -506.474C465.809 -443.609 465.809 -341.7 406.679 -278.835L243.267 -105.166L236.279 -97.8515L74.798 77.5972C16.3119 141.154 -78.4981 141.154 -136.984 77.5972L-298.432 -97.9138C-298.48 -97.9656 -298.443 -98.0492 -298.373 -98.0492V-98.0492C-298.302 -98.0492 -298.266 -98.1328 -298.313 -98.1845L-420.587 -230.995C-457.646 -271.224 -517.695 -271.224 -554.755 -230.995L-677.49 -97.5888C-677.509 -97.5672 -677.537 -97.555 -677.567 -97.555V-97.555C-677.596 -97.555 -677.624 -97.5427 -677.644 -97.5211L-838.725 77.5972C-897.211 141.154 -992.021 141.154 -1050.51 77.5972L-1212.08 -98.0492L-1218.24 -104.178L-1381.65 -277.748C-1440.78 -340.613 -1440.78 -442.522 -1381.65 -505.387L-1218.15 -678.76L-1094 -810.717C-1056.58 -850.551 -1056.58 -915.096 -1094 -954.931L-1217.92 -1086.65C-1217.97 -1086.7 -1218.06 -1086.66 -1218.06 -1086.59V-1086.59C-1218.06 -1086.52 -1218.14 -1086.49 -1218.19 -1086.54L-1381.47 -1260.06C-1440.6 -1322.93 -1440.6 -1424.84 -1381.47 -1487.7L-1218.06 -1661.37L-1211.07 -1668.69L-1049.5 -1844.33C-991.01 -1907.89 -896.2 -1907.89 -837.714 -1844.33L-676.389 -1668.76C-676.329 -1668.69 -676.375 -1668.59 -676.463 -1668.59V-1668.59C-676.551 -1668.59 -676.597 -1668.48 -676.537 -1668.42L-554.295 -1535.64C-517.236 -1495.41 -457.186 -1495.41 -420.127 -1535.64L-297.455 -1668.98C-297.395 -1669.04 -297.311 -1669.08 -297.223 -1669.08V-1669.08C-297.135 -1669.08 -297.051 -1669.12 -296.992 -1669.18L-135.881 -1844.23C-77.3946 -1907.79 17.4155 -1907.79 75.9016 -1844.23L237.29 -1668.59L243.451 -1662.46L406.863 -1488.79C465.993 -1425.92 465.993 -1324.02 406.863 -1261.15L243.558 -1087.59C243.51 -1087.54 243.426 -1087.56 243.405 -1087.63V-1087.63Z" stroke="url(#paint2_linear)" stroke-width="1.75" stroke-miterlimit="10" stroke-linecap="round"/>
<path d="M236.921 -1085.8C236.876 -1085.9 236.751 -1085.92 236.679 -1085.84L113.879 -955.228C76.7275 -915.789 76.7275 -851.837 113.879 -812.398L236.693 -681.87C236.742 -681.818 236.829 -681.852 236.829 -681.923V-681.923C236.829 -681.994 236.915 -682.029 236.964 -681.977L398.769 -510.033C457.347 -447.761 457.347 -346.742 398.769 -284.47L236.829 -112.382L229.932 -105.167L69.7386 68.9971C11.8042 131.961 -82.1781 131.961 -140.112 68.9971L-300.089 -104.932C-300.136 -104.984 -300.1 -105.068 -300.029 -105.068V-105.068C-299.959 -105.068 -299.922 -105.151 -299.97 -105.203L-421.048 -236.827C-457.74 -276.76 -517.237 -276.76 -553.929 -236.827L-675.498 -104.774C-675.557 -104.709 -675.641 -104.672 -675.729 -104.672V-104.672C-675.817 -104.672 -675.901 -104.636 -675.96 -104.571L-835.6 68.9971C-893.534 131.961 -987.517 131.961 -1045.45 68.9971L-1205.55 -105.068L-1211.71 -111.097L-1373.56 -283.185C-1432.14 -345.457 -1432.14 -446.476 -1373.56 -508.748L-1211.53 -680.638L-1088.58 -811.409C-1051.43 -850.848 -1051.43 -914.801 -1088.58 -954.24L-1211.39 -1084.77C-1211.44 -1084.82 -1211.53 -1084.78 -1211.53 -1084.71V-1084.71C-1211.53 -1084.64 -1211.62 -1084.61 -1211.66 -1084.66L-1373.47 -1256.6C-1432.05 -1318.88 -1432.05 -1419.9 -1373.47 -1482.17L-1211.53 -1654.26L-1204.63 -1661.47L-1044.53 -1835.54C-986.597 -1898.5 -892.615 -1898.5 -834.68 -1835.54L-674.704 -1661.61C-674.656 -1661.55 -674.693 -1661.47 -674.763 -1661.47V-1661.47C-674.834 -1661.47 -674.87 -1661.39 -674.823 -1661.34L-553.653 -1529.71C-516.961 -1489.78 -457.464 -1489.78 -420.772 -1529.71L-299.203 -1661.76C-299.144 -1661.83 -299.06 -1661.87 -298.972 -1661.87V-1661.87C-298.884 -1661.87 -298.8 -1661.9 -298.741 -1661.97L-139.101 -1835.44C-81.1665 -1898.4 12.8159 -1898.4 70.7502 -1835.44L230.851 -1661.37L237.012 -1655.34L398.953 -1483.25C457.531 -1420.98 457.531 -1319.96 398.953 -1257.69L237.162 -1085.76C237.09 -1085.69 236.965 -1085.71 236.921 -1085.8V-1085.8Z" stroke="url(#paint3_linear)" stroke-width="1.75" stroke-miterlimit="10" stroke-linecap="round"/>
<path d="M236.921 -1085.8C236.876 -1085.9 236.751 -1085.92 236.679 -1085.84L113.879 -955.228C76.7275 -915.789 76.7275 -851.837 113.879 -812.398L236.693 -681.87C236.742 -681.818 236.829 -681.852 236.829 -681.923V-681.923C236.829 -681.994 236.915 -682.029 236.964 -681.977L398.769 -510.033C457.347 -447.761 457.347 -346.742 398.769 -284.47L236.829 -112.382L229.932 -105.167L69.7386 68.9971C11.8042 131.961 -82.1781 131.961 -140.112 68.9971L-300.089 -104.932C-300.136 -104.984 -300.1 -105.068 -300.029 -105.068V-105.068C-299.959 -105.068 -299.922 -105.151 -299.97 -105.203L-421.048 -236.827C-457.74 -276.76 -517.237 -276.76 -553.929 -236.827L-675.498 -104.774C-675.557 -104.709 -675.641 -104.672 -675.729 -104.672V-104.672C-675.817 -104.672 -675.901 -104.636 -675.96 -104.571L-835.6 68.9971C-893.534 131.961 -987.517 131.961 -1045.45 68.9971L-1205.55 -105.068L-1211.71 -111.097L-1373.56 -283.185C-1432.14 -345.457 -1432.14 -446.476 -1373.56 -508.748L-1211.53 -680.638L-1088.58 -811.409C-1051.43 -850.848 -1051.43 -914.801 -1088.58 -954.24L-1211.39 -1084.77C-1211.44 -1084.82 -1211.53 -1084.78 -1211.53 -1084.71V-1084.71C-1211.53 -1084.64 -1211.62 -1084.61 -1211.66 -1084.66L-1373.47 -1256.6C-1432.05 -1318.88 -1432.05 -1419.9 -1373.47 -1482.17L-1211.53 -1654.26L-1204.63 -1661.47L-1044.53 -1835.54C-986.597 -1898.5 -892.615 -1898.5 -834.68 -1835.54L-674.704 -1661.61C-674.656 -1661.55 -674.693 -1661.47 -674.763 -1661.47V-1661.47C-674.834 -1661.47 -674.87 -1661.39 -674.823 -1661.34L-553.653 -1529.71C-516.961 -1489.78 -457.464 -1489.78 -420.772 -1529.71L-299.203 -1661.76C-299.144 -1661.83 -299.06 -1661.87 -298.972 -1661.87V-1661.87C-298.884 -1661.87 -298.8 -1661.9 -298.741 -1661.97L-139.101 -1835.44C-81.1665 -1898.4 12.8159 -1898.4 70.7502 -1835.44L230.851 -1661.37L237.012 -1655.34L398.953 -1483.25C457.531 -1420.98 457.531 -1319.96 398.953 -1257.69L237.162 -1085.76C237.09 -1085.69 236.965 -1085.71 236.921 -1085.8V-1085.8Z" stroke="url(#paint4_linear)" stroke-width="1.75" stroke-miterlimit="10" stroke-linecap="round"/>
<path d="M230.301 -1083.97C230.255 -1084.05 230.15 -1084.06 230.09 -1083.99L108.363 -954.535C71.5796 -915.393 71.5796 -852.034 108.363 -812.99L230.074 -683.648C230.122 -683.596 230.209 -683.631 230.209 -683.702V-683.702C230.209 -683.773 230.296 -683.807 230.345 -683.755L390.678 -513.393C448.796 -451.615 448.796 -351.585 390.678 -289.807L230.209 -119.3L223.404 -112.184L64.6826 60.2999C7.20807 122.77 -85.8547 122.77 -143.329 60.2999L-301.834 -112.048C-301.882 -112.1 -301.845 -112.184 -301.775 -112.184V-112.184C-301.705 -112.184 -301.668 -112.267 -301.716 -112.319L-421.782 -242.757C-458.198 -282.295 -517.144 -282.295 -553.468 -242.757L-673.841 -111.791C-673.9 -111.726 -673.984 -111.689 -674.072 -111.689V-111.689C-674.16 -111.689 -674.244 -111.653 -674.303 -111.588L-832.472 60.2999C-889.946 122.77 -983.009 122.77 -1040.48 60.2999L-1199.02 -112.085L-1205.09 -118.015L-1365.56 -288.621C-1423.68 -350.398 -1423.68 -450.429 -1365.56 -512.207L-1205 -682.516L-1083.15 -812.002C-1046.37 -851.144 -1046.37 -914.503 -1083.15 -953.547L-1204.86 -1082.89C-1204.91 -1082.94 -1205 -1082.91 -1205 -1082.84V-1082.84C-1205 -1082.76 -1205.09 -1082.73 -1205.13 -1082.78L-1365.47 -1253.14C-1423.59 -1314.92 -1423.59 -1414.95 -1365.47 -1476.73L-1205 -1647.24L-1198.19 -1654.35L-1039.56 -1826.84C-982.09 -1889.31 -889.027 -1889.31 -831.552 -1826.84L-673.047 -1654.49C-672.999 -1654.44 -673.036 -1654.35 -673.106 -1654.35V-1654.35C-673.177 -1654.35 -673.213 -1654.27 -673.166 -1654.22L-553.1 -1523.78C-516.684 -1484.24 -457.738 -1484.24 -421.414 -1523.78L-300.949 -1654.65C-300.889 -1654.71 -300.805 -1654.75 -300.718 -1654.75V-1654.75C-300.63 -1654.75 -300.546 -1654.79 -300.486 -1654.85L-142.318 -1826.84C-84.8431 -1889.31 8.21973 -1889.31 65.6943 -1826.84L224.324 -1654.35L230.393 -1648.42L390.862 -1477.92C448.98 -1416.14 448.98 -1316.11 390.862 -1254.33L230.513 -1083.95C230.452 -1083.89 230.348 -1083.9 230.301 -1083.97V-1083.97Z" stroke="url(#paint5_linear)" stroke-width="1.75" stroke-miterlimit="10" stroke-linecap="round"/>
<path d="M230.301 -1083.97C230.255 -1084.05 230.15 -1084.06 230.09 -1083.99L108.363 -954.535C71.5796 -915.393 71.5796 -852.034 108.363 -812.99L230.074 -683.648C230.122 -683.596 230.209 -683.631 230.209 -683.702V-683.702C230.209 -683.773 230.296 -683.807 230.345 -683.755L390.678 -513.393C448.796 -451.615 448.796 -351.585 390.678 -289.807L230.209 -119.3L223.404 -112.184L64.6826 60.2999C7.20807 122.77 -85.8547 122.77 -143.329 60.2999L-301.834 -112.048C-301.882 -112.1 -301.845 -112.184 -301.775 -112.184V-112.184C-301.705 -112.184 -301.668 -112.267 -301.716 -112.319L-421.782 -242.757C-458.198 -282.295 -517.144 -282.295 -553.468 -242.757L-673.841 -111.791C-673.9 -111.726 -673.984 -111.689 -674.072 -111.689V-111.689C-674.16 -111.689 -674.244 -111.653 -674.303 -111.588L-832.472 60.2999C-889.946 122.77 -983.009 122.77 -1040.48 60.2999L-1199.02 -112.085L-1205.09 -118.015L-1365.56 -288.621C-1423.68 -350.398 -1423.68 -450.429 -1365.56 -512.207L-1205 -682.516L-1083.15 -812.002C-1046.37 -851.144 -1046.37 -914.503 -1083.15 -953.547L-1204.86 -1082.89C-1204.91 -1082.94 -1205 -1082.91 -1205 -1082.84V-1082.84C-1205 -1082.76 -1205.09 -1082.73 -1205.13 -1082.78L-1365.47 -1253.14C-1423.59 -1314.92 -1423.59 -1414.95 -1365.47 -1476.73L-1205 -1647.24L-1198.19 -1654.35L-1039.56 -1826.84C-982.09 -1889.31 -889.027 -1889.31 -831.552 -1826.84L-673.047 -1654.49C-672.999 -1654.44 -673.036 -1654.35 -673.106 -1654.35V-1654.35C-673.177 -1654.35 -673.213 -1654.27 -673.166 -1654.22L-553.1 -1523.78C-516.684 -1484.24 -457.738 -1484.24 -421.414 -1523.78L-300.949 -1654.65C-300.889 -1654.71 -300.805 -1654.75 -300.718 -1654.75V-1654.75C-300.63 -1654.75 -300.546 -1654.79 -300.486 -1654.85L-142.318 -1826.84C-84.8431 -1889.31 8.21973 -1889.31 65.6943 -1826.84L224.324 -1654.35L230.393 -1648.42L390.862 -1477.92C448.98 -1416.14 448.98 -1316.11 390.862 -1254.33L230.513 -1083.95C230.452 -1083.89 230.348 -1083.9 230.301 -1083.97V-1083.97Z" stroke="url(#paint6_linear)" stroke-width="1.75" stroke-miterlimit="10" stroke-linecap="round"/>
<path d="M223.726 -1082.19C223.701 -1082.22 223.658 -1082.22 223.633 -1082.19L102.937 -953.943C66.5213 -915.196 66.5213 -852.43 102.937 -813.683L223.544 -685.527C223.593 -685.475 223.68 -685.509 223.68 -685.58V-685.58C223.68 -685.651 223.766 -685.686 223.815 -685.634L382.677 -516.853C440.244 -455.668 440.244 -356.528 382.677 -295.343L223.68 -126.418L216.875 -119.301L59.6242 51.6993C2.70147 113.576 -89.5336 113.576 -146.456 51.6993L-303.49 -119.067C-303.538 -119.119 -303.501 -119.203 -303.431 -119.203V-119.203C-303.361 -119.203 -303.324 -119.286 -303.371 -119.338L-422.334 -248.59C-458.382 -287.732 -516.776 -287.732 -552.824 -248.59L-672.094 -118.909C-672.153 -118.844 -672.237 -118.807 -672.325 -118.807V-118.807C-672.413 -118.807 -672.497 -118.77 -672.557 -118.706L-829.254 51.6993C-886.177 113.576 -978.412 113.576 -1035.33 51.6993L-1192.58 -119.203L-1198.65 -125.133L-1357.56 -294.058C-1415.13 -355.243 -1415.13 -454.384 -1357.56 -515.568L-1198.47 -684.295L-1077.73 -812.694C-1041.31 -851.441 -1041.31 -914.207 -1077.73 -952.954L-1198.33 -1081.11C-1198.38 -1081.16 -1198.47 -1081.13 -1198.47 -1081.06V-1081.06C-1198.47 -1080.99 -1198.56 -1080.95 -1198.61 -1081L-1357.47 -1249.78C-1415.03 -1310.97 -1415.03 -1410.11 -1357.47 -1471.29L-1198.47 -1640.22L-1191.67 -1647.34L-1034.41 -1818.24C-977.492 -1880.11 -885.257 -1880.11 -828.334 -1818.24L-671.3 -1647.57C-671.253 -1647.52 -671.289 -1647.43 -671.36 -1647.43V-1647.43C-671.43 -1647.43 -671.467 -1647.35 -671.419 -1647.3L-552.548 -1518.05C-516.5 -1478.9 -458.106 -1478.9 -422.058 -1518.05L-302.696 -1647.73C-302.637 -1647.79 -302.553 -1647.83 -302.465 -1647.83V-1647.83C-302.377 -1647.83 -302.293 -1647.87 -302.234 -1647.93L-145.537 -1818.34C-88.614 -1880.21 3.62108 -1880.21 60.5438 -1818.34L217.702 -1647.43L223.771 -1641.5L382.769 -1472.58C440.336 -1411.39 440.336 -1312.25 382.769 -1251.07L223.818 -1082.19C223.793 -1082.17 223.75 -1082.17 223.726 -1082.19V-1082.19Z" stroke="url(#paint7_linear)" stroke-width="1.75" stroke-miterlimit="10" stroke-linecap="round"/>
<path d="M223.726 -1082.19C223.701 -1082.22 223.658 -1082.22 223.633 -1082.19L102.937 -953.943C66.5213 -915.196 66.5213 -852.43 102.937 -813.683L223.544 -685.527C223.593 -685.475 223.68 -685.509 223.68 -685.58V-685.58C223.68 -685.651 223.766 -685.686 223.815 -685.634L382.677 -516.853C440.244 -455.668 440.244 -356.528 382.677 -295.343L223.68 -126.418L216.875 -119.301L59.6242 51.6993C2.70147 113.576 -89.5336 113.576 -146.456 51.6993L-303.49 -119.067C-303.538 -119.119 -303.501 -119.203 -303.431 -119.203V-119.203C-303.361 -119.203 -303.324 -119.286 -303.371 -119.338L-422.334 -248.59C-458.382 -287.732 -516.776 -287.732 -552.824 -248.59L-672.094 -118.909C-672.153 -118.844 -672.237 -118.807 -672.325 -118.807V-118.807C-672.413 -118.807 -672.497 -118.77 -672.557 -118.706L-829.254 51.6993C-886.177 113.576 -978.412 113.576 -1035.33 51.6993L-1192.58 -119.203L-1198.65 -125.133L-1357.56 -294.058C-1415.13 -355.243 -1415.13 -454.384 -1357.56 -515.568L-1198.47 -684.295L-1077.73 -812.694C-1041.31 -851.441 -1041.31 -914.207 -1077.73 -952.954L-1198.33 -1081.11C-1198.38 -1081.16 -1198.47 -1081.13 -1198.47 -1081.06V-1081.06C-1198.47 -1080.99 -1198.56 -1080.95 -1198.61 -1081L-1357.47 -1249.78C-1415.03 -1310.97 -1415.03 -1410.11 -1357.47 -1471.29L-1198.47 -1640.22L-1191.67 -1647.34L-1034.41 -1818.24C-977.492 -1880.11 -885.257 -1880.11 -828.334 -1818.24L-671.3 -1647.57C-671.253 -1647.52 -671.289 -1647.43 -671.36 -1647.43V-1647.43C-671.43 -1647.43 -671.467 -1647.35 -671.419 -1647.3L-552.548 -1518.05C-516.5 -1478.9 -458.106 -1478.9 -422.058 -1518.05L-302.696 -1647.73C-302.637 -1647.79 -302.553 -1647.83 -302.465 -1647.83V-1647.83C-302.377 -1647.83 -302.293 -1647.87 -302.234 -1647.93L-145.537 -1818.34C-88.614 -1880.21 3.62108 -1880.21 60.5438 -1818.34L217.702 -1647.43L223.771 -1641.5L382.769 -1472.58C440.336 -1411.39 440.336 -1312.25 382.769 -1251.07L223.818 -1082.19C223.793 -1082.17 223.75 -1082.17 223.726 -1082.19V-1082.19Z" stroke="url(#paint8_linear)" stroke-width="1.75" stroke-miterlimit="10" stroke-linecap="round"/>
<path d="M217.294 -1080.36C217.215 -1080.42 217.106 -1080.41 217.04 -1080.34L97.5172 -953.25C61.3772 -914.898 61.3772 -852.626 97.5172 -814.275L217.021 -687.305C217.069 -687.253 217.156 -687.288 217.156 -687.359V-687.359C217.156 -687.43 217.243 -687.464 217.292 -687.412L374.682 -520.114C431.697 -459.522 431.697 -361.271 374.682 -300.68L217.156 -133.237L210.443 -126.219L54.5722 43.0023C-1.79886 104.286 -93.2064 104.286 -149.577 43.0023L-305.232 -126.183C-305.279 -126.235 -305.243 -126.318 -305.172 -126.318V-126.318C-305.102 -126.318 -305.065 -126.402 -305.113 -126.453L-422.88 -254.42C-458.56 -293.266 -516.495 -293.266 -552.175 -254.42L-670.433 -125.925C-670.493 -125.861 -670.576 -125.824 -670.664 -125.824V-125.824C-670.752 -125.824 -670.836 -125.787 -670.896 -125.722L-826.213 43.1011C-882.584 104.385 -973.992 104.385 -1030.36 43.1011L-1186.14 -126.219L-1192.12 -132.051L-1349.46 -299.493C-1406.48 -360.085 -1406.48 -458.336 -1349.46 -518.928L-1191.84 -686.074L-1072.2 -813.286C-1036.06 -851.638 -1036.06 -913.91 -1072.2 -952.262L-1191.71 -1079.33C-1191.76 -1079.38 -1191.84 -1079.35 -1191.84 -1079.28V-1079.28C-1191.84 -1079.21 -1191.93 -1079.17 -1191.98 -1079.22L-1349.37 -1246.52C-1406.38 -1307.11 -1406.38 -1405.36 -1349.37 -1465.96L-1191.84 -1633.4L-1185.13 -1640.42L-1029.35 -1809.74C-972.98 -1871.02 -881.573 -1871.02 -825.202 -1809.74L-669.547 -1640.55C-669.5 -1640.5 -669.537 -1640.42 -669.607 -1640.42V-1640.42C-669.677 -1640.42 -669.714 -1640.33 -669.666 -1640.28L-551.807 -1512.21C-516.127 -1473.37 -458.193 -1473.37 -422.512 -1512.21L-304.254 -1640.71C-304.195 -1640.77 -304.111 -1640.81 -304.023 -1640.81V-1640.81C-303.935 -1640.81 -303.851 -1640.85 -303.791 -1640.91L-148.474 -1809.74C-92.1028 -1871.02 -0.695268 -1871.02 55.6758 -1809.74L211.455 -1640.42L217.432 -1634.58L374.958 -1467.14C431.973 -1406.55 431.973 -1308.3 374.958 -1247.71L217.548 -1080.39C217.482 -1080.32 217.373 -1080.31 217.294 -1080.36V-1080.36Z" stroke="url(#paint9_linear)" stroke-width="1.75" stroke-miterlimit="10" stroke-linecap="round"/>
<path d="M217.294 -1080.36C217.215 -1080.42 217.106 -1080.41 217.04 -1080.34L97.5172 -953.25C61.3772 -914.898 61.3772 -852.626 97.5172 -814.275L217.021 -687.305C217.069 -687.253 217.156 -687.288 217.156 -687.359V-687.359C217.156 -687.43 217.243 -687.464 217.292 -687.412L374.682 -520.114C431.697 -459.522 431.697 -361.271 374.682 -300.68L217.156 -133.237L210.443 -126.219L54.5722 43.0023C-1.79886 104.286 -93.2064 104.286 -149.577 43.0023L-305.232 -126.183C-305.279 -126.235 -305.243 -126.318 -305.172 -126.318V-126.318C-305.102 -126.318 -305.065 -126.402 -305.113 -126.453L-422.88 -254.42C-458.56 -293.266 -516.495 -293.266 -552.175 -254.42L-670.433 -125.925C-670.493 -125.861 -670.576 -125.824 -670.664 -125.824V-125.824C-670.752 -125.824 -670.836 -125.787 -670.896 -125.722L-826.213 43.1011C-882.584 104.385 -973.992 104.385 -1030.36 43.1011L-1186.14 -126.219L-1192.12 -132.051L-1349.46 -299.493C-1406.48 -360.085 -1406.48 -458.336 -1349.46 -518.928L-1191.84 -686.074L-1072.2 -813.286C-1036.06 -851.638 -1036.06 -913.91 -1072.2 -952.262L-1191.71 -1079.33C-1191.76 -1079.38 -1191.84 -1079.35 -1191.84 -1079.28V-1079.28C-1191.84 -1079.21 -1191.93 -1079.17 -1191.98 -1079.22L-1349.37 -1246.52C-1406.38 -1307.11 -1406.38 -1405.36 -1349.37 -1465.96L-1191.84 -1633.4L-1185.13 -1640.42L-1029.35 -1809.74C-972.98 -1871.02 -881.573 -1871.02 -825.202 -1809.74L-669.547 -1640.55C-669.5 -1640.5 -669.537 -1640.42 -669.607 -1640.42V-1640.42C-669.677 -1640.42 -669.714 -1640.33 -669.666 -1640.28L-551.807 -1512.21C-516.127 -1473.37 -458.193 -1473.37 -422.512 -1512.21L-304.254 -1640.71C-304.195 -1640.77 -304.111 -1640.81 -304.023 -1640.81V-1640.81C-303.935 -1640.81 -303.851 -1640.85 -303.791 -1640.91L-148.474 -1809.74C-92.1028 -1871.02 -0.695268 -1871.02 55.6758 -1809.74L211.455 -1640.42L217.432 -1634.58L374.958 -1467.14C431.973 -1406.55 431.973 -1308.3 374.958 -1247.71L217.548 -1080.39C217.482 -1080.32 217.373 -1080.31 217.294 -1080.36V-1080.36Z" stroke="url(#paint10_linear)" stroke-width="1.75" stroke-miterlimit="10" stroke-linecap="round"/>
<path d="M210.622 -1078.49C210.572 -1078.54 210.488 -1078.54 210.438 -1078.49L91.9946 -952.558C56.2224 -914.503 56.2224 -852.923 91.9946 -814.868L210.395 -689.183C210.443 -689.131 210.53 -689.166 210.53 -689.237V-689.237C210.53 -689.308 210.617 -689.342 210.666 -689.29L366.585 -523.573C423.048 -463.575 423.048 -366.213 366.585 -306.215L210.53 -140.354L203.909 -133.435L49.6014 34.304C-6.21789 94.9944 -96.7978 94.9944 -152.617 34.304L-306.892 -133.201C-306.94 -133.252 -306.903 -133.336 -306.833 -133.336V-133.336C-306.762 -133.336 -306.726 -133.42 -306.773 -133.471L-423.529 -260.351C-458.933 -298.801 -516.224 -298.801 -551.628 -260.351L-668.691 -133.042C-668.751 -132.977 -668.834 -132.941 -668.922 -132.941V-132.941C-669.01 -132.941 -669.094 -132.904 -669.154 -132.839L-822.908 34.4028C-878.727 95.0933 -969.307 95.0933 -1025.13 34.4028L-1179.43 -133.336L-1185.32 -139.168L-1341.37 -305.029C-1397.84 -365.027 -1397.84 -462.389 -1341.37 -522.387L-1185.23 -688.05L-1066.69 -814.077C-1030.92 -852.132 -1030.92 -913.712 -1066.69 -951.767L-1185 -1077.55C-1185.05 -1077.6 -1185.14 -1077.57 -1185.14 -1077.5V-1077.5C-1185.14 -1077.43 -1185.22 -1077.39 -1185.27 -1077.44L-1341.19 -1243.16C-1397.65 -1303.16 -1397.65 -1400.52 -1341.19 -1460.52L-1185.14 -1626.38L-1178.51 -1633.3L-1024.3 -1801.04C-968.48 -1861.73 -877.9 -1861.73 -822.08 -1801.04L-667.897 -1633.43C-667.85 -1633.38 -667.886 -1633.3 -667.957 -1633.3V-1633.3C-668.027 -1633.3 -668.064 -1633.22 -668.016 -1633.16L-551.26 -1506.28C-515.856 -1467.83 -458.566 -1467.83 -423.161 -1506.28L-306.007 -1633.59C-305.947 -1633.66 -305.863 -1633.69 -305.775 -1633.69V-1633.69C-305.687 -1633.69 -305.603 -1633.73 -305.544 -1633.8L-151.697 -1801.04C-95.8782 -1861.73 -5.29828 -1861.73 50.521 -1801.04L204.829 -1633.3L210.714 -1627.47L366.769 -1461.61C423.232 -1401.61 423.232 -1304.25 366.769 -1244.25L210.806 -1078.49C210.756 -1078.43 210.672 -1078.43 210.622 -1078.49V-1078.49Z" stroke="url(#paint11_linear)" stroke-width="1.75" stroke-miterlimit="10" stroke-linecap="round"/>
<path d="M210.622 -1078.49C210.572 -1078.54 210.488 -1078.54 210.438 -1078.49L91.9946 -952.558C56.2224 -914.503 56.2224 -852.923 91.9946 -814.868L210.395 -689.183C210.443 -689.131 210.53 -689.166 210.53 -689.237V-689.237C210.53 -689.308 210.617 -689.342 210.666 -689.29L366.585 -523.573C423.048 -463.575 423.048 -366.213 366.585 -306.215L210.53 -140.354L203.909 -133.435L49.6014 34.304C-6.21789 94.9944 -96.7978 94.9944 -152.617 34.304L-306.892 -133.201C-306.94 -133.252 -306.903 -133.336 -306.833 -133.336V-133.336C-306.762 -133.336 -306.726 -133.42 -306.773 -133.471L-423.529 -260.351C-458.933 -298.801 -516.224 -298.801 -551.628 -260.351L-668.691 -133.042C-668.751 -132.977 -668.834 -132.941 -668.922 -132.941V-132.941C-669.01 -132.941 -669.094 -132.904 -669.154 -132.839L-822.908 34.4028C-878.727 95.0933 -969.307 95.0933 -1025.13 34.4028L-1179.43 -133.336L-1185.32 -139.168L-1341.37 -305.029C-1397.84 -365.027 -1397.84 -462.389 -1341.37 -522.387L-1185.23 -688.05L-1066.69 -814.077C-1030.92 -852.132 -1030.92 -913.712 -1066.69 -951.767L-1185 -1077.55C-1185.05 -1077.6 -1185.14 -1077.57 -1185.14 -1077.5V-1077.5C-1185.14 -1077.43 -1185.22 -1077.39 -1185.27 -1077.44L-1341.19 -1243.16C-1397.65 -1303.16 -1397.65 -1400.52 -1341.19 -1460.52L-1185.14 -1626.38L-1178.51 -1633.3L-1024.3 -1801.04C-968.48 -1861.73 -877.9 -1861.73 -822.08 -1801.04L-667.897 -1633.43C-667.85 -1633.38 -667.886 -1633.3 -667.957 -1633.3V-1633.3C-668.027 -1633.3 -668.064 -1633.22 -668.016 -1633.16L-551.26 -1506.28C-515.856 -1467.83 -458.566 -1467.83 -423.161 -1506.28L-306.007 -1633.59C-305.947 -1633.66 -305.863 -1633.69 -305.775 -1633.69V-1633.69C-305.687 -1633.69 -305.603 -1633.73 -305.544 -1633.8L-151.697 -1801.04C-95.8782 -1861.73 -5.29828 -1861.73 50.521 -1801.04L204.829 -1633.3L210.714 -1627.47L366.769 -1461.61C423.232 -1401.61 423.232 -1304.25 366.769 -1244.25L210.806 -1078.49C210.756 -1078.43 210.672 -1078.43 210.622 -1078.49V-1078.49Z" stroke="url(#paint12_linear)" stroke-width="1.75" stroke-miterlimit="10" stroke-linecap="round"/>
<path d="M204.044 -1076.66C204.023 -1076.72 203.939 -1076.74 203.891 -1076.69L86.566 -951.965C51.1616 -914.306 51.1616 -853.22 86.566 -815.56L203.77 -690.963C203.819 -690.911 203.906 -690.945 203.906 -691.016V-691.016C203.906 -691.087 203.993 -691.122 204.041 -691.07L358.489 -526.935C414.401 -467.43 414.401 -371.057 358.489 -311.553L203.906 -147.274L197.285 -140.355L44.4486 25.8028C-10.9109 85.9002 -100.571 85.9002 -155.931 25.8028L-308.642 -140.219C-308.69 -140.271 -308.653 -140.355 -308.583 -140.355V-140.355C-308.513 -140.355 -308.476 -140.438 -308.524 -140.49L-424.176 -266.183C-459.212 -304.238 -516.043 -304.238 -551.08 -266.183L-666.947 -140.061C-667.006 -139.996 -667.09 -139.959 -667.178 -139.959V-139.959C-667.266 -139.959 -667.35 -139.922 -667.409 -139.858L-819.785 25.8028C-875.144 85.9001 -964.804 85.9001 -1020.16 25.8028L-1173 -140.355L-1178.89 -146.088L-1333.47 -310.367C-1389.38 -369.871 -1389.38 -466.244 -1333.47 -525.749L-1178.79 -689.83L-1061.36 -814.671C-1025.96 -852.33 -1025.96 -913.416 -1061.36 -951.076L-1178.57 -1075.67C-1178.61 -1075.73 -1178.7 -1075.69 -1178.7 -1075.62V-1075.62C-1178.7 -1075.55 -1178.79 -1075.51 -1178.84 -1075.57L-1333.28 -1239.7C-1389.2 -1299.21 -1389.2 -1395.58 -1333.28 -1455.08L-1178.7 -1619.36L-1172.08 -1626.28L-1019.24 -1792.44C-963.885 -1852.54 -874.224 -1852.54 -818.865 -1792.44L-666.153 -1626.42C-666.106 -1626.36 -666.142 -1626.28 -666.213 -1626.28V-1626.28C-666.283 -1626.28 -666.32 -1626.2 -666.272 -1626.15L-550.712 -1500.45C-515.675 -1462.4 -458.844 -1462.4 -423.808 -1500.45L-307.757 -1626.58C-307.697 -1626.64 -307.613 -1626.68 -307.525 -1626.68V-1626.68C-307.438 -1626.68 -307.354 -1626.71 -307.294 -1626.78L-154.919 -1792.44C-99.5595 -1852.54 -9.89925 -1852.54 45.4602 -1792.44L198.296 -1626.28L204.182 -1620.55L358.765 -1456.27C414.677 -1396.76 414.677 -1300.39 358.765 -1240.89L204.196 -1076.62C204.149 -1076.57 204.064 -1076.59 204.044 -1076.66V-1076.66Z" stroke="url(#paint13_linear)" stroke-width="1.75" stroke-miterlimit="10" stroke-linecap="round"/>
<path d="M204.044 -1076.66C204.023 -1076.72 203.939 -1076.74 203.891 -1076.69L86.566 -951.965C51.1616 -914.306 51.1616 -853.22 86.566 -815.56L203.77 -690.963C203.819 -690.911 203.906 -690.945 203.906 -691.016V-691.016C203.906 -691.087 203.993 -691.122 204.041 -691.07L358.489 -526.935C414.401 -467.43 414.401 -371.057 358.489 -311.553L203.906 -147.274L197.285 -140.355L44.4486 25.8028C-10.9109 85.9002 -100.571 85.9002 -155.931 25.8028L-308.642 -140.219C-308.69 -140.271 -308.653 -140.355 -308.583 -140.355V-140.355C-308.513 -140.355 -308.476 -140.438 -308.524 -140.49L-424.176 -266.183C-459.212 -304.238 -516.043 -304.238 -551.08 -266.183L-666.947 -140.061C-667.006 -139.996 -667.09 -139.959 -667.178 -139.959V-139.959C-667.266 -139.959 -667.35 -139.922 -667.409 -139.858L-819.785 25.8028C-875.144 85.9001 -964.804 85.9001 -1020.16 25.8028L-1173 -140.355L-1178.89 -146.088L-1333.47 -310.367C-1389.38 -369.871 -1389.38 -466.244 -1333.47 -525.749L-1178.79 -689.83L-1061.36 -814.671C-1025.96 -852.33 -1025.96 -913.416 -1061.36 -951.076L-1178.57 -1075.67C-1178.61 -1075.73 -1178.7 -1075.69 -1178.7 -1075.62V-1075.62C-1178.7 -1075.55 -1178.79 -1075.51 -1178.84 -1075.57L-1333.28 -1239.7C-1389.2 -1299.21 -1389.2 -1395.58 -1333.28 -1455.08L-1178.7 -1619.36L-1172.08 -1626.28L-1019.24 -1792.44C-963.885 -1852.54 -874.224 -1852.54 -818.865 -1792.44L-666.153 -1626.42C-666.106 -1626.36 -666.142 -1626.28 -666.213 -1626.28V-1626.28C-666.283 -1626.28 -666.32 -1626.2 -666.272 -1626.15L-550.712 -1500.45C-515.675 -1462.4 -458.844 -1462.4 -423.808 -1500.45L-307.757 -1626.58C-307.697 -1626.64 -307.613 -1626.68 -307.525 -1626.68V-1626.68C-307.438 -1626.68 -307.354 -1626.71 -307.294 -1626.78L-154.919 -1792.44C-99.5595 -1852.54 -9.89925 -1852.54 45.4602 -1792.44L198.296 -1626.28L204.182 -1620.55L358.765 -1456.27C414.677 -1396.76 414.677 -1300.39 358.765 -1240.89L204.196 -1076.62C204.149 -1076.57 204.064 -1076.59 204.044 -1076.66V-1076.66Z" stroke="url(#paint14_linear)" stroke-width="1.75" stroke-miterlimit="10" stroke-linecap="round"/>
<path d="M197.427 -1074.83C197.405 -1074.88 197.342 -1074.89 197.306 -1074.85L81.0522 -951.273C45.9238 -914.008 45.9238 -853.516 81.0522 -816.152L197.153 -692.741C197.202 -692.689 197.289 -692.724 197.289 -692.795V-692.795C197.289 -692.866 197.376 -692.9 197.424 -692.848L350.401 -530.295C405.852 -471.383 405.852 -375.9 350.401 -316.989L197.381 -154.291L190.852 -147.471L39.4867 17.1051C-15.321 76.7082 -104.154 76.7082 -158.961 17.1051L-310.202 -147.335C-310.249 -147.387 -310.213 -147.471 -310.142 -147.471V-147.471C-310.072 -147.471 -310.036 -147.554 -310.083 -147.606L-424.724 -272.014C-459.392 -309.773 -515.671 -309.773 -550.432 -272.014L-665.319 -147.143C-665.358 -147.1 -665.414 -147.075 -665.473 -147.075V-147.075C-665.532 -147.075 -665.587 -147.051 -665.627 -147.008L-816.654 17.1051C-871.462 76.7082 -960.294 76.7082 -1015.1 17.1051L-1166.47 -147.471L-1172.26 -153.204L-1325.37 -315.901C-1380.82 -374.813 -1380.82 -470.296 -1325.37 -529.207L-1172.17 -691.707L-1055.84 -815.362C-1020.71 -852.626 -1020.71 -913.119 -1055.84 -950.482L-1171.97 -1073.93C-1172.01 -1073.97 -1172.08 -1073.94 -1172.08 -1073.89V-1073.89C-1172.08 -1073.84 -1172.14 -1073.81 -1172.18 -1073.85L-1325.19 -1236.44C-1380.64 -1295.35 -1380.64 -1390.83 -1325.19 -1449.74L-1172.08 -1612.44L-1165.55 -1619.26L-1014.18 -1783.74C-959.375 -1843.34 -870.542 -1843.34 -815.734 -1783.74L-664.494 -1619.3C-664.446 -1619.25 -664.483 -1619.16 -664.553 -1619.16V-1619.16C-664.624 -1619.16 -664.66 -1619.08 -664.613 -1619.03L-550.064 -1494.52C-515.395 -1456.76 -459.116 -1456.76 -424.356 -1494.52L-309.377 -1619.49C-309.337 -1619.53 -309.281 -1619.56 -309.223 -1619.56V-1619.56C-309.164 -1619.56 -309.108 -1619.58 -309.069 -1619.63L-158.134 -1783.74C-103.326 -1843.34 -14.4935 -1843.34 40.3142 -1783.74L191.679 -1619.16L197.473 -1613.43L350.585 -1450.73C406.036 -1391.82 406.036 -1296.34 350.585 -1237.43L197.547 -1074.81C197.512 -1074.77 197.449 -1074.78 197.427 -1074.83V-1074.83Z" stroke="url(#paint15_linear)" stroke-width="1.75" stroke-miterlimit="10" stroke-linecap="round"/>
<path d="M197.427 -1074.83C197.405 -1074.88 197.342 -1074.89 197.306 -1074.85L81.0522 -951.273C45.9238 -914.008 45.9238 -853.516 81.0522 -816.152L197.153 -692.741C197.202 -692.689 197.289 -692.724 197.289 -692.795V-692.795C197.289 -692.866 197.376 -692.9 197.424 -692.848L350.401 -530.295C405.852 -471.383 405.852 -375.9 350.401 -316.989L197.381 -154.291L190.852 -147.471L39.4867 17.1051C-15.321 76.7082 -104.154 76.7082 -158.961 17.1051L-310.202 -147.335C-310.249 -147.387 -310.213 -147.471 -310.142 -147.471V-147.471C-310.072 -147.471 -310.036 -147.554 -310.083 -147.606L-424.724 -272.014C-459.392 -309.773 -515.671 -309.773 -550.432 -272.014L-665.319 -147.143C-665.358 -147.1 -665.414 -147.075 -665.473 -147.075V-147.075C-665.532 -147.075 -665.587 -147.051 -665.627 -147.008L-816.654 17.1051C-871.462 76.7082 -960.294 76.7082 -1015.1 17.1051L-1166.47 -147.471L-1172.26 -153.204L-1325.37 -315.901C-1380.82 -374.813 -1380.82 -470.296 -1325.37 -529.207L-1172.17 -691.707L-1055.84 -815.362C-1020.71 -852.626 -1020.71 -913.119 -1055.84 -950.482L-1171.97 -1073.93C-1172.01 -1073.97 -1172.08 -1073.94 -1172.08 -1073.89V-1073.89C-1172.08 -1073.84 -1172.14 -1073.81 -1172.18 -1073.85L-1325.19 -1236.44C-1380.64 -1295.35 -1380.64 -1390.83 -1325.19 -1449.74L-1172.08 -1612.44L-1165.55 -1619.26L-1014.18 -1783.74C-959.375 -1843.34 -870.542 -1843.34 -815.734 -1783.74L-664.494 -1619.3C-664.446 -1619.25 -664.483 -1619.16 -664.553 -1619.16V-1619.16C-664.624 -1619.16 -664.66 -1619.08 -664.613 -1619.03L-550.064 -1494.52C-515.395 -1456.76 -459.116 -1456.76 -424.356 -1494.52L-309.377 -1619.49C-309.337 -1619.53 -309.281 -1619.56 -309.223 -1619.56V-1619.56C-309.164 -1619.56 -309.108 -1619.58 -309.069 -1619.63L-158.134 -1783.74C-103.326 -1843.34 -14.4935 -1843.34 40.3142 -1783.74L191.679 -1619.16L197.473 -1613.43L350.585 -1450.73C406.036 -1391.82 406.036 -1296.34 350.585 -1237.43L197.547 -1074.81C197.512 -1074.77 197.449 -1074.78 197.427 -1074.83V-1074.83Z" stroke="url(#paint16_linear)" stroke-width="1.75" stroke-miterlimit="10" stroke-linecap="round"/>
<path d="M-nan -nanL190.851 -1073.05L75.6264 -950.581C40.8658 -913.613 40.8658 -853.714 75.6264 -816.746L190.658 -694.485C190.694 -694.446 190.759 -694.472 190.759 -694.525V-694.525C190.759 -694.578 190.825 -694.604 190.861 -694.565L342.4 -533.557C397.3 -475.239 397.3 -380.645 342.4 -322.327L190.759 -161.21L184.322 -154.489L34.4287 8.50547C-19.8273 67.5155 -107.832 67.5155 -162.088 8.50547L-311.857 -154.353C-311.905 -154.405 -311.868 -154.489 -311.798 -154.489V-154.489C-311.728 -154.489 -311.691 -154.572 -311.739 -154.624L-425.184 -277.945C-459.576 -315.309 -515.304 -315.309 -549.697 -277.945L-663.572 -154.161C-663.611 -154.118 -663.667 -154.093 -663.726 -154.093V-154.093C-663.785 -154.093 -663.841 -154.069 -663.88 -154.026L-813.436 8.50546C-867.692 67.5155 -955.697 67.5155 -1009.95 8.50545L-1159.85 -154.489L-1165.55 -160.123L-1317.19 -321.239C-1372.09 -379.557 -1372.09 -474.151 -1317.19 -532.47L-1165.46 -693.388L-1050.23 -815.856C-1015.47 -852.824 -1015.47 -912.724 -1050.23 -949.691L-1165.26 -1071.95C-1165.3 -1071.99 -1165.36 -1071.97 -1165.36 -1071.91V-1071.91C-1165.36 -1071.86 -1165.43 -1071.83 -1165.47 -1071.87L-1317 -1232.88C-1371.9 -1291.2 -1371.9 -1385.79 -1317 -1444.11L-1165.36 -1605.23L-1158.93 -1611.95L-1009.03 -1774.94C-954.777 -1833.95 -866.772 -1833.95 -812.516 -1774.94L-662.747 -1612.08C-662.699 -1612.03 -662.736 -1611.95 -662.806 -1611.95V-1611.95C-662.877 -1611.95 -662.913 -1611.86 -662.866 -1611.81L-549.513 -1488.69C-515.12 -1451.33 -459.393 -1451.33 -425 -1488.69L-311.125 -1612.47C-311.085 -1612.52 -311.029 -1612.54 -310.97 -1612.54V-1612.54C-310.912 -1612.54 -310.856 -1612.57 -310.816 -1612.61L-161.261 -1775.14C-107.005 -1834.15 -18.9997 -1834.15 35.2562 -1775.14L185.15 -1612.15L190.851 -1606.51L342.492 -1445.4C397.392 -1387.08 397.392 -1292.48 342.492 -1234.17L190.851 -1073.05L-nan -nanL-nan -nanZ" stroke="url(#paint17_linear)" stroke-width="1.75" stroke-miterlimit="10" stroke-linecap="round"/>
<path d="M-nan -nanL190.851 -1073.05L75.6264 -950.581C40.8658 -913.613 40.8658 -853.714 75.6264 -816.746L190.658 -694.485C190.694 -694.446 190.759 -694.472 190.759 -694.525V-694.525C190.759 -694.578 190.825 -694.604 190.861 -694.565L342.4 -533.557C397.3 -475.239 397.3 -380.645 342.4 -322.327L190.759 -161.21L184.322 -154.489L34.4287 8.50547C-19.8273 67.5155 -107.832 67.5155 -162.088 8.50547L-311.857 -154.353C-311.905 -154.405 -311.868 -154.489 -311.798 -154.489V-154.489C-311.728 -154.489 -311.691 -154.572 -311.739 -154.624L-425.184 -277.945C-459.576 -315.309 -515.304 -315.309 -549.697 -277.945L-663.572 -154.161C-663.611 -154.118 -663.667 -154.093 -663.726 -154.093V-154.093C-663.785 -154.093 -663.841 -154.069 -663.88 -154.026L-813.436 8.50546C-867.692 67.5155 -955.697 67.5155 -1009.95 8.50545L-1159.85 -154.489L-1165.55 -160.123L-1317.19 -321.239C-1372.09 -379.557 -1372.09 -474.151 -1317.19 -532.47L-1165.46 -693.388L-1050.23 -815.856C-1015.47 -852.824 -1015.47 -912.724 -1050.23 -949.691L-1165.26 -1071.95C-1165.3 -1071.99 -1165.36 -1071.97 -1165.36 -1071.91V-1071.91C-1165.36 -1071.86 -1165.43 -1071.83 -1165.47 -1071.87L-1317 -1232.88C-1371.9 -1291.2 -1371.9 -1385.79 -1317 -1444.11L-1165.36 -1605.23L-1158.93 -1611.95L-1009.03 -1774.94C-954.777 -1833.95 -866.772 -1833.95 -812.516 -1774.94L-662.747 -1612.08C-662.699 -1612.03 -662.736 -1611.95 -662.806 -1611.95V-1611.95C-662.877 -1611.95 -662.913 -1611.86 -662.866 -1611.81L-549.513 -1488.69C-515.12 -1451.33 -459.393 -1451.33 -425 -1488.69L-311.125 -1612.47C-311.085 -1612.52 -311.029 -1612.54 -310.97 -1612.54V-1612.54C-310.912 -1612.54 -310.856 -1612.57 -310.816 -1612.61L-161.261 -1775.14C-107.005 -1834.15 -18.9997 -1834.15 35.2562 -1775.14L185.15 -1612.15L190.851 -1606.51L342.492 -1445.4C397.392 -1387.08 397.392 -1292.48 342.492 -1234.17L190.851 -1073.05L-nan -nanL-nan -nanZ" stroke="url(#paint18_linear)" stroke-width="1.75" stroke-miterlimit="10" stroke-linecap="round"/>
<path d="M184.318 -1071.07C184.274 -1071.17 184.149 -1071.19 184.077 -1071.11L70.197 -949.988C35.8042 -913.415 35.8042 -854.109 70.197 -817.536L184.125 -696.461C184.161 -696.422 184.226 -696.448 184.226 -696.501V-696.501C184.226 -696.554 184.292 -696.58 184.328 -696.542L334.396 -537.016C388.744 -479.192 388.744 -385.586 334.396 -327.762L184.226 -168.129L177.789 -161.407L29.2751 0.00539149C-24.5211 58.4224 -111.606 58.4224 -165.403 0.00538785L-313.792 -161.272C-313.84 -161.324 -313.803 -161.407 -313.733 -161.407V-161.407C-313.662 -161.407 -313.626 -161.491 -313.673 -161.543L-425.923 -283.777C-459.948 -320.745 -515.124 -320.745 -549.149 -283.777L-661.92 -161.277C-661.96 -161.234 -662.016 -161.21 -662.075 -161.21V-161.21C-662.133 -161.21 -662.189 -161.185 -662.229 -161.142L-810.313 -0.192325C-864.109 58.2247 -951.194 58.2247 -1004.99 -0.192329L-1153.5 -161.605L-1159.21 -167.239L-1309.38 -326.873C-1363.72 -384.697 -1363.72 -478.302 -1309.38 -536.126L-1159.11 -695.562L-1045.08 -816.844C-1010.69 -853.417 -1010.69 -912.723 -1045.08 -949.296L-1159.01 -1070.37C-1159.05 -1070.41 -1159.11 -1070.38 -1159.11 -1070.33V-1070.33C-1159.11 -1070.28 -1159.18 -1070.25 -1159.22 -1070.29L-1309.28 -1229.82C-1363.63 -1287.64 -1363.63 -1381.25 -1309.28 -1439.07L-1159.02 -1598.41L-1152.59 -1605.13L-1004.07 -1766.44C-950.275 -1824.86 -863.189 -1824.86 -809.393 -1766.44L-661.004 -1605.16C-660.956 -1605.11 -660.993 -1605.03 -661.063 -1605.03V-1605.03C-661.133 -1605.03 -661.17 -1604.95 -661.122 -1604.89L-548.873 -1482.86C-514.848 -1445.89 -459.672 -1445.89 -425.647 -1482.86L-312.876 -1605.36C-312.836 -1605.4 -312.78 -1605.42 -312.721 -1605.42V-1605.42C-312.663 -1605.42 -312.607 -1605.45 -312.567 -1605.49L-164.483 -1766.44C-110.687 -1824.86 -23.6014 -1824.86 30.1947 -1766.44L178.709 -1605.03L184.41 -1599.39L334.58 -1439.76C388.928 -1381.94 388.928 -1288.33 334.58 -1230.51L184.56 -1071.03C184.488 -1070.96 184.363 -1070.98 184.318 -1071.07V-1071.07Z" stroke="url(#paint19_linear)" stroke-width="1.75" stroke-miterlimit="10" stroke-linecap="round"/>
<path d="M184.318 -1071.07C184.274 -1071.17 184.149 -1071.19 184.077 -1071.11L70.197 -949.988C35.8042 -913.415 35.8042 -854.109 70.197 -817.536L184.125 -696.461C184.161 -696.422 184.226 -696.448 184.226 -696.501V-696.501C184.226 -696.554 184.292 -696.58 184.328 -696.542L334.396 -537.016C388.744 -479.192 388.744 -385.586 334.396 -327.762L184.226 -168.129L177.789 -161.407L29.2751 0.00539149C-24.5211 58.4224 -111.606 58.4224 -165.403 0.00538785L-313.792 -161.272C-313.84 -161.324 -313.803 -161.407 -313.733 -161.407V-161.407C-313.662 -161.407 -313.626 -161.491 -313.673 -161.543L-425.923 -283.777C-459.948 -320.745 -515.124 -320.745 -549.149 -283.777L-661.92 -161.277C-661.96 -161.234 -662.016 -161.21 -662.075 -161.21V-161.21C-662.133 -161.21 -662.189 -161.185 -662.229 -161.142L-810.313 -0.192325C-864.109 58.2247 -951.194 58.2247 -1004.99 -0.192329L-1153.5 -161.605L-1159.21 -167.239L-1309.38 -326.873C-1363.72 -384.697 -1363.72 -478.302 -1309.38 -536.126L-1159.11 -695.562L-1045.08 -816.844C-1010.69 -853.417 -1010.69 -912.723 -1045.08 -949.296L-1159.01 -1070.37C-1159.05 -1070.41 -1159.11 -1070.38 -1159.11 -1070.33V-1070.33C-1159.11 -1070.28 -1159.18 -1070.25 -1159.22 -1070.29L-1309.28 -1229.82C-1363.63 -1287.64 -1363.63 -1381.25 -1309.28 -1439.07L-1159.02 -1598.41L-1152.59 -1605.13L-1004.07 -1766.44C-950.275 -1824.86 -863.189 -1824.86 -809.393 -1766.44L-661.004 -1605.16C-660.956 -1605.11 -660.993 -1605.03 -661.063 -1605.03V-1605.03C-661.133 -1605.03 -661.17 -1604.95 -661.122 -1604.89L-548.873 -1482.86C-514.848 -1445.89 -459.672 -1445.89 -425.647 -1482.86L-312.876 -1605.36C-312.836 -1605.4 -312.78 -1605.42 -312.721 -1605.42V-1605.42C-312.663 -1605.42 -312.607 -1605.45 -312.567 -1605.49L-164.483 -1766.44C-110.687 -1824.86 -23.6014 -1824.86 30.1947 -1766.44L178.709 -1605.03L184.41 -1599.39L334.58 -1439.76C388.928 -1381.94 388.928 -1288.33 334.58 -1230.51L184.56 -1071.03C184.488 -1070.96 184.363 -1070.98 184.318 -1071.07V-1071.07Z" stroke="url(#paint20_linear)" stroke-width="1.75" stroke-miterlimit="10" stroke-linecap="round"/>
<path d="M177.745 -1069.29C177.723 -1069.34 177.66 -1069.35 177.625 -1069.31L64.7735 -949.297C30.6566 -913.021 30.6566 -854.307 64.7735 -818.13L177.506 -698.241C177.542 -698.203 177.607 -698.228 177.607 -698.282V-698.282C177.607 -698.335 177.673 -698.361 177.709 -698.322L326.305 -540.378C380.102 -483.147 380.102 -390.431 326.305 -333.2L177.607 -175.247L171.262 -168.624L24.2193 -8.79297C-29.0251 49.031 -115.283 49.031 -168.527 -8.79298L-315.446 -168.489C-315.493 -168.541 -315.457 -168.624 -315.386 -168.624V-168.624C-315.316 -168.624 -315.279 -168.708 -315.327 -168.76L-426.565 -289.61C-460.314 -326.281 -514.938 -326.281 -548.595 -289.61L-660.171 -168.297C-660.211 -168.253 -660.267 -168.229 -660.325 -168.229V-168.229C-660.384 -168.229 -660.44 -168.204 -660.479 -168.161L-807.184 -8.79299C-860.429 49.0309 -946.686 49.0309 -999.931 -8.79299L-1146.97 -168.624L-1152.58 -174.16L-1301.28 -332.212C-1355.08 -389.443 -1355.08 -482.158 -1301.28 -539.389L-1152.49 -697.244L-1039.57 -817.34C-1005.45 -853.615 -1005.45 -912.329 -1039.57 -948.506L-1152.39 -1068.4C-1152.43 -1068.43 -1152.49 -1068.41 -1152.49 -1068.35V-1068.35C-1152.49 -1068.3 -1152.56 -1068.28 -1152.59 -1068.31L-1301.1 -1226.16C-1354.89 -1283.39 -1354.89 -1376.11 -1301.1 -1433.34L-1152.4 -1591.39L-1146.05 -1598.01L-999.011 -1757.84C-945.767 -1815.67 -859.509 -1815.67 -806.265 -1757.84L-659.346 -1598.15C-659.299 -1598.1 -659.335 -1598.01 -659.406 -1598.01V-1598.01C-659.476 -1598.01 -659.513 -1597.93 -659.465 -1597.88L-548.227 -1477.03C-514.478 -1440.36 -459.854 -1440.36 -426.197 -1477.03L-314.529 -1598.34C-314.489 -1598.38 -314.433 -1598.41 -314.375 -1598.41V-1598.41C-314.316 -1598.41 -314.26 -1598.43 -314.22 -1598.48L-167.608 -1757.84C-114.363 -1815.67 -28.1055 -1815.67 25.1389 -1757.84L172.182 -1598.01L177.791 -1592.48L326.489 -1434.42C380.286 -1377.19 380.286 -1284.48 326.489 -1227.25L177.866 -1069.27C177.83 -1069.24 177.767 -1069.25 177.745 -1069.29V-1069.29Z" stroke="url(#paint21_linear)" stroke-width="1.75" stroke-miterlimit="10" stroke-linecap="round"/>
<path d="M177.745 -1069.29C177.723 -1069.34 177.66 -1069.35 177.625 -1069.31L64.7735 -949.297C30.6566 -913.021 30.6566 -854.307 64.7735 -818.13L177.506 -698.241C177.542 -698.203 177.607 -698.228 177.607 -698.282V-698.282C177.607 -698.335 177.673 -698.361 177.709 -698.322L326.305 -540.378C380.102 -483.147 380.102 -390.431 326.305 -333.2L177.607 -175.247L171.262 -168.624L24.2193 -8.79297C-29.0251 49.031 -115.283 49.031 -168.527 -8.79298L-315.446 -168.489C-315.493 -168.541 -315.457 -168.624 -315.386 -168.624V-168.624C-315.316 -168.624 -315.279 -168.708 -315.327 -168.76L-426.565 -289.61C-460.314 -326.281 -514.938 -326.281 -548.595 -289.61L-660.171 -168.297C-660.211 -168.253 -660.267 -168.229 -660.325 -168.229V-168.229C-660.384 -168.229 -660.44 -168.204 -660.479 -168.161L-807.184 -8.79299C-860.429 49.0309 -946.686 49.0309 -999.931 -8.79299L-1146.97 -168.624L-1152.58 -174.16L-1301.28 -332.212C-1355.08 -389.443 -1355.08 -482.158 -1301.28 -539.389L-1152.49 -697.244L-1039.57 -817.34C-1005.45 -853.615 -1005.45 -912.329 -1039.57 -948.506L-1152.39 -1068.4C-1152.43 -1068.43 -1152.49 -1068.41 -1152.49 -1068.35V-1068.35C-1152.49 -1068.3 -1152.56 -1068.28 -1152.59 -1068.31L-1301.1 -1226.16C-1354.89 -1283.39 -1354.89 -1376.11 -1301.1 -1433.34L-1152.4 -1591.39L-1146.05 -1598.01L-999.011 -1757.84C-945.767 -1815.67 -859.509 -1815.67 -806.265 -1757.84L-659.346 -1598.15C-659.299 -1598.1 -659.335 -1598.01 -659.406 -1598.01V-1598.01C-659.476 -1598.01 -659.513 -1597.93 -659.465 -1597.88L-548.227 -1477.03C-514.478 -1440.36 -459.854 -1440.36 -426.197 -1477.03L-314.529 -1598.34C-314.489 -1598.38 -314.433 -1598.41 -314.375 -1598.41V-1598.41C-314.316 -1598.41 -314.26 -1598.43 -314.22 -1598.48L-167.608 -1757.84C-114.363 -1815.67 -28.1055 -1815.67 25.1389 -1757.84L172.182 -1598.01L177.791 -1592.48L326.489 -1434.42C380.286 -1377.19 380.286 -1284.48 326.489 -1227.25L177.866 -1069.27C177.83 -1069.24 177.767 -1069.25 177.745 -1069.29V-1069.29Z" stroke="url(#paint22_linear)" stroke-width="1.75" stroke-miterlimit="10" stroke-linecap="round"/>
<path d="M171.13 -1067.52C171.108 -1067.56 171.045 -1067.57 171.009 -1067.53L59.2617 -948.705C25.5126 -912.824 25.5126 -854.704 59.2617 -818.823L170.982 -700.12C171.019 -700.081 171.084 -700.107 171.084 -700.16V-700.16C171.084 -700.214 171.149 -700.239 171.186 -700.201L318.311 -543.838C371.555 -487.2 371.555 -395.374 318.311 -338.736L171.084 -182.265L164.831 -175.742L19.2594 -17.492C-33.4333 39.7389 -118.863 39.7389 -171.556 -17.492L-317.003 -175.606C-317.051 -175.658 -317.014 -175.742 -316.944 -175.742V-175.742C-316.873 -175.742 -316.837 -175.825 -316.884 -175.877L-427.019 -295.541C-460.4 -331.817 -514.472 -331.817 -547.853 -295.541L-658.51 -175.414C-658.55 -175.371 -658.606 -175.346 -658.664 -175.346V-175.346C-658.723 -175.346 -658.779 -175.322 -658.819 -175.279L-803.96 -17.3931C-856.653 39.8378 -942.083 39.8378 -994.776 -17.3931L-1140.35 -175.643L-1145.96 -181.079L-1293.18 -337.55C-1346.43 -394.188 -1346.43 -486.014 -1293.18 -542.652L-1145.86 -698.925L-1034.04 -817.835C-1000.29 -853.715 -1000.29 -911.836 -1034.04 -947.716L-1145.76 -1066.52C-1145.8 -1066.56 -1145.86 -1066.53 -1145.86 -1066.48V-1066.48C-1145.86 -1066.42 -1145.93 -1066.4 -1145.97 -1066.44L-1293.09 -1222.8C-1346.34 -1279.44 -1346.34 -1371.26 -1293.09 -1427.9L-1145.86 -1584.37L-1139.61 -1590.9L-993.948 -1749.15C-941.255 -1806.38 -855.825 -1806.38 -803.132 -1749.15L-657.685 -1591.03C-657.638 -1590.98 -657.674 -1590.9 -657.745 -1590.9V-1590.9C-657.815 -1590.9 -657.852 -1590.81 -657.804 -1590.76L-547.67 -1471.1C-514.288 -1434.82 -460.216 -1434.82 -426.835 -1471.1L-316.27 -1591.22C-316.231 -1591.27 -316.175 -1591.29 -316.116 -1591.29V-1591.29C-316.058 -1591.29 -316.002 -1591.32 -315.962 -1591.36L-170.82 -1749.15C-118.128 -1806.38 -32.6977 -1806.38 19.995 -1749.15L165.659 -1590.9L171.268 -1585.46L318.495 -1428.99C371.739 -1372.35 371.739 -1280.53 318.495 -1223.89L171.251 -1067.5C171.215 -1067.46 171.152 -1067.47 171.13 -1067.52V-1067.52Z" stroke="url(#paint23_linear)" stroke-width="1.75" stroke-miterlimit="10" stroke-linecap="round"/>
<path d="M171.13 -1067.52C171.108 -1067.56 171.045 -1067.57 171.009 -1067.53L59.2617 -948.705C25.5126 -912.824 25.5126 -854.704 59.2617 -818.823L170.982 -700.12C171.019 -700.081 171.084 -700.107 171.084 -700.16V-700.16C171.084 -700.214 171.149 -700.239 171.186 -700.201L318.311 -543.838C371.555 -487.2 371.555 -395.374 318.311 -338.736L171.084 -182.265L164.831 -175.742L19.2594 -17.492C-33.4333 39.7389 -118.863 39.7389 -171.556 -17.492L-317.003 -175.606C-317.051 -175.658 -317.014 -175.742 -316.944 -175.742V-175.742C-316.873 -175.742 -316.837 -175.825 -316.884 -175.877L-427.019 -295.541C-460.4 -331.817 -514.472 -331.817 -547.853 -295.541L-658.51 -175.414C-658.55 -175.371 -658.606 -175.346 -658.664 -175.346V-175.346C-658.723 -175.346 -658.779 -175.322 -658.819 -175.279L-803.96 -17.3931C-856.653 39.8378 -942.083 39.8378 -994.776 -17.3931L-1140.35 -175.643L-1145.96 -181.079L-1293.18 -337.55C-1346.43 -394.188 -1346.43 -486.014 -1293.18 -542.652L-1145.86 -698.925L-1034.04 -817.835C-1000.29 -853.715 -1000.29 -911.836 -1034.04 -947.716L-1145.76 -1066.52C-1145.8 -1066.56 -1145.86 -1066.53 -1145.86 -1066.48V-1066.48C-1145.86 -1066.42 -1145.93 -1066.4 -1145.97 -1066.44L-1293.09 -1222.8C-1346.34 -1279.44 -1346.34 -1371.26 -1293.09 -1427.9L-1145.86 -1584.37L-1139.61 -1590.9L-993.948 -1749.15C-941.255 -1806.38 -855.825 -1806.38 -803.132 -1749.15L-657.685 -1591.03C-657.638 -1590.98 -657.674 -1590.9 -657.745 -1590.9V-1590.9C-657.815 -1590.9 -657.852 -1590.81 -657.804 -1590.76L-547.67 -1471.1C-514.288 -1434.82 -460.216 -1434.82 -426.835 -1471.1L-316.27 -1591.22C-316.231 -1591.27 -316.175 -1591.29 -316.116 -1591.29V-1591.29C-316.058 -1591.29 -316.002 -1591.32 -315.962 -1591.36L-170.82 -1749.15C-118.128 -1806.38 -32.6977 -1806.38 19.995 -1749.15L165.659 -1590.9L171.268 -1585.46L318.495 -1428.99C371.739 -1372.35 371.739 -1280.53 318.495 -1223.89L171.251 -1067.5C171.215 -1067.46 171.152 -1067.47 171.13 -1067.52V-1067.52Z" stroke="url(#paint24_linear)" stroke-width="1.75" stroke-miterlimit="10" stroke-linecap="round"/>
<path d="M164.641 -1065.64C164.591 -1065.69 164.507 -1065.69 164.457 -1065.64L53.8301 -948.011C20.4489 -912.526 20.4489 -854.899 53.8301 -819.414L164.355 -701.897C164.392 -701.859 164.457 -701.884 164.457 -701.938V-701.938C164.457 -701.991 164.522 -702.017 164.559 -701.978L310.213 -547.197C362.997 -491.152 362.997 -400.215 310.213 -344.072L164.457 -189.183L158.204 -182.659L14.1037 -25.9907C-38.0373 30.746 -122.64 30.746 -174.873 -25.9907L-318.848 -182.524C-318.896 -182.575 -318.859 -182.659 -318.789 -182.659V-182.659C-318.719 -182.659 -318.682 -182.743 -318.729 -182.794L-427.761 -301.272C-460.774 -337.153 -514.386 -337.153 -547.4 -301.272L-656.769 -182.43C-656.809 -182.387 -656.865 -182.362 -656.923 -182.362V-182.362C-656.982 -182.362 -657.038 -182.338 -657.077 -182.295L-800.839 -26.0896C-852.98 30.6471 -937.583 30.6471 -989.816 -26.0896L-1133.92 -182.758L-1139.43 -188.194L-1285.19 -343.083C-1337.97 -399.128 -1337.97 -490.065 -1285.19 -546.208L-1139.34 -700.9L-1028.62 -818.525C-995.241 -854.01 -995.241 -911.636 -1028.62 -947.121L-1139.24 -1064.64C-1139.28 -1064.68 -1139.34 -1064.65 -1139.34 -1064.6V-1064.6C-1139.34 -1064.54 -1139.41 -1064.52 -1139.44 -1064.56L-1285.1 -1219.34C-1337.88 -1275.38 -1337.88 -1366.32 -1285.1 -1422.46L-1139.25 -1577.35L-1133 -1583.88L-988.896 -1740.54C-936.755 -1797.28 -852.153 -1797.28 -799.92 -1740.54L-655.944 -1584.01C-655.896 -1583.96 -655.933 -1583.88 -656.003 -1583.88V-1583.88C-656.074 -1583.88 -656.11 -1583.79 -656.063 -1583.74L-547.032 -1465.26C-514.018 -1429.38 -460.406 -1429.38 -427.393 -1465.26L-317.932 -1584.2C-317.892 -1584.25 -317.836 -1584.27 -317.777 -1584.27V-1584.27C-317.719 -1584.27 -317.663 -1584.3 -317.623 -1584.34L-173.861 -1740.54C-121.72 -1797.28 -37.1176 -1797.28 15.1153 -1740.54L159.215 -1583.88L164.733 -1578.44L310.488 -1423.55C363.273 -1367.51 363.273 -1276.57 310.488 -1220.43L164.825 -1065.63C164.775 -1065.58 164.691 -1065.58 164.641 -1065.64V-1065.64Z" stroke="url(#paint25_linear)" stroke-width="1.75" stroke-miterlimit="10" stroke-linecap="round"/>
<path d="M164.641 -1065.64C164.591 -1065.69 164.507 -1065.69 164.457 -1065.64L53.8301 -948.011C20.4489 -912.526 20.4489 -854.899 53.8301 -819.414L164.355 -701.897C164.392 -701.859 164.457 -701.884 164.457 -701.938V-701.938C164.457 -701.991 164.522 -702.017 164.559 -701.978L310.213 -547.197C362.997 -491.152 362.997 -400.215 310.213 -344.072L164.457 -189.183L158.204 -182.659L14.1037 -25.9907C-38.0373 30.746 -122.64 30.746 -174.873 -25.9907L-318.848 -182.524C-318.896 -182.575 -318.859 -182.659 -318.789 -182.659V-182.659C-318.719 -182.659 -318.682 -182.743 -318.729 -182.794L-427.761 -301.272C-460.774 -337.153 -514.386 -337.153 -547.4 -301.272L-656.769 -182.43C-656.809 -182.387 -656.865 -182.362 -656.923 -182.362V-182.362C-656.982 -182.362 -657.038 -182.338 -657.077 -182.295L-800.839 -26.0896C-852.98 30.6471 -937.583 30.6471 -989.816 -26.0896L-1133.92 -182.758L-1139.43 -188.194L-1285.19 -343.083C-1337.97 -399.128 -1337.97 -490.065 -1285.19 -546.208L-1139.34 -700.9L-1028.62 -818.525C-995.241 -854.01 -995.241 -911.636 -1028.62 -947.121L-1139.24 -1064.64C-1139.28 -1064.68 -1139.34 -1064.65 -1139.34 -1064.6V-1064.6C-1139.34 -1064.54 -1139.41 -1064.52 -1139.44 -1064.56L-1285.1 -1219.34C-1337.88 -1275.38 -1337.88 -1366.32 -1285.1 -1422.46L-1139.25 -1577.35L-1133 -1583.88L-988.896 -1740.54C-936.755 -1797.28 -852.153 -1797.28 -799.92 -1740.54L-655.944 -1584.01C-655.896 -1583.96 -655.933 -1583.88 -656.003 -1583.88V-1583.88C-656.074 -1583.88 -656.11 -1583.79 -656.063 -1583.74L-547.032 -1465.26C-514.018 -1429.38 -460.406 -1429.38 -427.393 -1465.26L-317.932 -1584.2C-317.892 -1584.25 -317.836 -1584.27 -317.777 -1584.27V-1584.27C-317.719 -1584.27 -317.663 -1584.3 -317.623 -1584.34L-173.861 -1740.54C-121.72 -1797.28 -37.1176 -1797.28 15.1153 -1740.54L159.215 -1583.88L164.733 -1578.44L310.488 -1423.55C363.273 -1367.51 363.273 -1276.57 310.488 -1220.43L164.825 -1065.63C164.775 -1065.58 164.691 -1065.58 164.641 -1065.64V-1065.64Z" stroke="url(#paint26_linear)" stroke-width="1.75" stroke-miterlimit="10" stroke-linecap="round"/>
<path d="M158.067 -1063.76C158.045 -1063.81 157.982 -1063.82 157.946 -1063.78L48.4057 -947.32C15.3004 -912.132 15.3004 -855.197 48.4057 -820.009L157.828 -703.678C157.864 -703.639 157.929 -703.665 157.929 -703.718V-703.718C157.929 -703.772 157.994 -703.798 158.031 -703.759L302.213 -550.559C354.446 -495.009 354.446 -405.06 302.213 -349.51L157.929 -196.202L151.768 -189.777L9.13918 -34.6904C-42.5419 21.4532 -126.225 21.4532 -177.906 -34.6904L-320.41 -189.642C-320.458 -189.694 -320.421 -189.777 -320.351 -189.777V-189.777C-320.281 -189.777 -320.244 -189.861 -320.292 -189.913L-428.219 -307.204C-460.957 -342.788 -513.925 -342.788 -546.663 -307.204L-655.02 -189.548C-655.06 -189.505 -655.116 -189.481 -655.174 -189.481V-189.481C-655.233 -189.481 -655.289 -189.456 -655.329 -189.413L-797.711 -34.6904C-849.392 21.4531 -933.075 21.4531 -984.756 -34.6905L-1127.39 -189.777L-1132.81 -195.115L-1277.09 -348.422C-1329.33 -403.973 -1329.33 -493.921 -1277.09 -549.472L-1132.72 -702.582L-1023.1 -819.119C-989.998 -854.308 -989.998 -911.242 -1023.1 -946.431L-1132.53 -1062.76C-1132.56 -1062.8 -1132.63 -1062.77 -1132.63 -1062.72V-1062.72C-1132.63 -1062.67 -1132.69 -1062.64 -1132.73 -1062.68L-1276.91 -1215.88C-1329.14 -1271.43 -1329.14 -1361.38 -1276.91 -1416.93L-1132.63 -1570.24L-1126.47 -1576.66L-983.929 -1731.85C-932.248 -1787.99 -848.565 -1787.99 -796.884 -1731.85L-654.379 -1576.9C-654.332 -1576.84 -654.368 -1576.76 -654.439 -1576.76V-1576.76C-654.509 -1576.76 -654.546 -1576.68 -654.498 -1576.63L-546.571 -1459.33C-513.833 -1423.75 -460.865 -1423.75 -428.127 -1459.33L-319.769 -1577.09C-319.73 -1577.13 -319.674 -1577.16 -319.615 -1577.16V-1577.16C-319.557 -1577.16 -319.501 -1577.18 -319.461 -1577.22L-177.17 -1731.85C-125.489 -1787.99 -41.8063 -1787.99 9.87481 -1731.85L152.504 -1576.76L157.929 -1571.42L302.213 -1418.12C354.446 -1362.57 354.446 -1272.62 302.213 -1217.07L158.188 -1063.74C158.152 -1063.7 158.089 -1063.71 158.067 -1063.76V-1063.76Z" stroke="url(#paint27_linear)" stroke-width="1.75" stroke-miterlimit="10" stroke-linecap="round"/>
<path d="M158.067 -1063.76C158.045 -1063.81 157.982 -1063.82 157.946 -1063.78L48.4057 -947.32C15.3004 -912.132 15.3004 -855.197 48.4057 -820.009L157.828 -703.678C157.864 -703.639 157.929 -703.665 157.929 -703.718V-703.718C157.929 -703.772 157.994 -703.798 158.031 -703.759L302.213 -550.559C354.446 -495.009 354.446 -405.06 302.213 -349.51L157.929 -196.202L151.768 -189.777L9.13918 -34.6904C-42.5419 21.4532 -126.225 21.4532 -177.906 -34.6904L-320.41 -189.642C-320.458 -189.694 -320.421 -189.777 -320.351 -189.777V-189.777C-320.281 -189.777 -320.244 -189.861 -320.292 -189.913L-428.219 -307.204C-460.957 -342.788 -513.925 -342.788 -546.663 -307.204L-655.02 -189.548C-655.06 -189.505 -655.116 -189.481 -655.174 -189.481V-189.481C-655.233 -189.481 -655.289 -189.456 -655.329 -189.413L-797.711 -34.6904C-849.392 21.4531 -933.075 21.4531 -984.756 -34.6905L-1127.39 -189.777L-1132.81 -195.115L-1277.09 -348.422C-1329.33 -403.973 -1329.33 -493.921 -1277.09 -549.472L-1132.72 -702.582L-1023.1 -819.119C-989.998 -854.308 -989.998 -911.242 -1023.1 -946.431L-1132.53 -1062.76C-1132.56 -1062.8 -1132.63 -1062.77 -1132.63 -1062.72V-1062.72C-1132.63 -1062.67 -1132.69 -1062.64 -1132.73 -1062.68L-1276.91 -1215.88C-1329.14 -1271.43 -1329.14 -1361.38 -1276.91 -1416.93L-1132.63 -1570.24L-1126.47 -1576.66L-983.929 -1731.85C-932.248 -1787.99 -848.565 -1787.99 -796.884 -1731.85L-654.379 -1576.9C-654.332 -1576.84 -654.368 -1576.76 -654.439 -1576.76V-1576.76C-654.509 -1576.76 -654.546 -1576.68 -654.498 -1576.63L-546.571 -1459.33C-513.833 -1423.75 -460.865 -1423.75 -428.127 -1459.33L-319.769 -1577.09C-319.73 -1577.13 -319.674 -1577.16 -319.615 -1577.16V-1577.16C-319.557 -1577.16 -319.501 -1577.18 -319.461 -1577.22L-177.17 -1731.85C-125.489 -1787.99 -41.8063 -1787.99 9.87481 -1731.85L152.504 -1576.76L157.929 -1571.42L302.213 -1418.12C354.446 -1362.57 354.446 -1272.62 302.213 -1217.07L158.188 -1063.74C158.152 -1063.7 158.089 -1063.71 158.067 -1063.76V-1063.76Z" stroke="url(#paint28_linear)" stroke-width="1.75" stroke-miterlimit="10" stroke-linecap="round"/>
<path d="M151.45 -1061.93C151.429 -1061.99 151.345 -1062.01 151.297 -1061.96L42.8918 -946.726C10.1543 -911.932 10.1543 -855.492 42.8918 -820.699L151.21 -705.555C151.247 -705.516 151.312 -705.542 151.312 -705.595V-705.595C151.312 -705.648 151.377 -705.674 151.413 -705.635L294.124 -553.918C345.805 -498.961 345.805 -409.902 294.124 -354.945L151.312 -203.12L145.242 -196.794L3.99297 -43.2885C-47.1364 12.262 -129.992 12.262 -181.121 -43.2885L-322.246 -196.658C-322.293 -196.71 -322.257 -196.794 -322.186 -196.794V-196.794C-322.116 -196.794 -322.079 -196.877 -322.127 -196.929L-428.951 -313.035C-461.321 -348.223 -513.829 -348.223 -546.199 -313.035L-653.453 -196.466C-653.493 -196.423 -653.549 -196.398 -653.608 -196.398V-196.398C-653.666 -196.398 -653.722 -196.374 -653.762 -196.331L-794.489 -43.3874C-845.618 12.1631 -928.474 12.1631 -979.603 -43.3874L-1120.85 -196.893L-1126.28 -202.23L-1269.09 -353.956C-1320.77 -408.914 -1320.77 -497.972 -1269.09 -552.93L-1126.19 -704.557L-1017.67 -819.909C-984.937 -854.702 -984.937 -911.142 -1017.67 -945.935L-1125.99 -1061.08C-1126.03 -1061.12 -1126.09 -1061.09 -1126.09 -1061.04V-1061.04C-1126.09 -1060.99 -1126.16 -1060.96 -1126.2 -1061L-1268.91 -1212.62C-1320.59 -1267.57 -1320.59 -1356.63 -1268.91 -1411.59L-1126.09 -1563.42L-1120.02 -1569.74L-978.775 -1723.25C-927.646 -1778.8 -844.791 -1778.8 -793.661 -1723.25L-652.628 -1569.88C-652.581 -1569.83 -652.618 -1569.74 -652.688 -1569.74V-1569.74C-652.758 -1569.74 -652.795 -1569.66 -652.747 -1569.61L-545.923 -1453.5C-513.554 -1418.31 -461.045 -1418.31 -428.675 -1453.5L-321.421 -1570.07C-321.381 -1570.11 -321.325 -1570.14 -321.267 -1570.14V-1570.14C-321.208 -1570.14 -321.152 -1570.16 -321.113 -1570.2L-180.293 -1723.25C-129.164 -1778.8 -46.3087 -1778.8 4.82064 -1723.25L146.07 -1569.74L151.496 -1564.4L294.308 -1412.58C345.989 -1357.62 345.989 -1268.56 294.308 -1213.61L151.602 -1061.89C151.555 -1061.84 151.47 -1061.86 151.45 -1061.93V-1061.93Z" stroke="url(#paint29_linear)" stroke-width="1.75" stroke-miterlimit="10" stroke-linecap="round"/>
<path d="M151.45 -1061.93C151.429 -1061.99 151.345 -1062.01 151.297 -1061.96L42.8918 -946.726C10.1543 -911.932 10.1543 -855.492 42.8918 -820.699L151.21 -705.555C151.247 -705.516 151.312 -705.542 151.312 -705.595V-705.595C151.312 -705.648 151.377 -705.674 151.413 -705.635L294.124 -553.918C345.805 -498.961 345.805 -409.902 294.124 -354.945L151.312 -203.12L145.242 -196.794L3.99297 -43.2885C-47.1364 12.262 -129.992 12.262 -181.121 -43.2885L-322.246 -196.658C-322.293 -196.71 -322.257 -196.794 -322.186 -196.794V-196.794C-322.116 -196.794 -322.079 -196.877 -322.127 -196.929L-428.951 -313.035C-461.321 -348.223 -513.829 -348.223 -546.199 -313.035L-653.453 -196.466C-653.493 -196.423 -653.549 -196.398 -653.608 -196.398V-196.398C-653.666 -196.398 -653.722 -196.374 -653.762 -196.331L-794.489 -43.3874C-845.618 12.1631 -928.474 12.1631 -979.603 -43.3874L-1120.85 -196.893L-1126.28 -202.23L-1269.09 -353.956C-1320.77 -408.914 -1320.77 -497.972 -1269.09 -552.93L-1126.19 -704.557L-1017.67 -819.909C-984.937 -854.702 -984.937 -911.142 -1017.67 -945.935L-1125.99 -1061.08C-1126.03 -1061.12 -1126.09 -1061.09 -1126.09 -1061.04V-1061.04C-1126.09 -1060.99 -1126.16 -1060.96 -1126.2 -1061L-1268.91 -1212.62C-1320.59 -1267.57 -1320.59 -1356.63 -1268.91 -1411.59L-1126.09 -1563.42L-1120.02 -1569.74L-978.775 -1723.25C-927.646 -1778.8 -844.791 -1778.8 -793.661 -1723.25L-652.628 -1569.88C-652.581 -1569.83 -652.618 -1569.74 -652.688 -1569.74V-1569.74C-652.758 -1569.74 -652.795 -1569.66 -652.747 -1569.61L-545.923 -1453.5C-513.554 -1418.31 -461.045 -1418.31 -428.675 -1453.5L-321.421 -1570.07C-321.381 -1570.11 -321.325 -1570.14 -321.267 -1570.14V-1570.14C-321.208 -1570.14 -321.152 -1570.16 -321.113 -1570.2L-180.293 -1723.25C-129.164 -1778.8 -46.3087 -1778.8 4.82064 -1723.25L146.07 -1569.74L151.496 -1564.4L294.308 -1412.58C345.989 -1357.62 345.989 -1268.56 294.308 -1213.61L151.602 -1061.89C151.555 -1061.84 151.47 -1061.86 151.45 -1061.93V-1061.93Z" stroke="url(#paint30_linear)" stroke-width="1.75" stroke-miterlimit="10" stroke-linecap="round"/>
<path d="M144.869 -1060.15C144.869 -1060.17 144.847 -1060.18 144.835 -1060.16L37.4604 -946.035C5.0907 -911.637 5.0907 -855.79 37.4604 -821.293L144.675 -707.335C144.712 -707.296 144.777 -707.322 144.777 -707.375V-707.375C144.777 -707.428 144.842 -707.454 144.878 -707.415L286.118 -557.28C337.248 -502.915 337.248 -414.746 286.118 -360.382L144.777 -210.138L138.707 -203.812L-1.0706 -51.8887C-51.6482 3.0688 -133.676 3.06879 -184.253 -51.8887L-323.907 -203.677C-323.955 -203.729 -323.918 -203.812 -323.848 -203.812V-203.812C-323.777 -203.812 -323.741 -203.896 -323.788 -203.948L-429.509 -318.867C-461.511 -353.66 -513.468 -353.66 -545.561 -318.867L-651.62 -203.584C-651.66 -203.54 -651.716 -203.516 -651.774 -203.516V-203.516C-651.833 -203.516 -651.889 -203.491 -651.929 -203.448L-791.369 -51.9875C-841.946 2.96993 -923.974 2.96993 -974.551 -51.9875L-1114.33 -203.911L-1119.66 -209.15L-1261 -359.393C-1312.13 -413.758 -1312.13 -501.927 -1261 -556.291L-1119.57 -706.337L-1012.25 -820.502C-979.885 -854.9 -979.885 -910.747 -1012.25 -945.244L-1119.47 -1059.2C-1119.51 -1059.24 -1119.57 -1059.22 -1119.57 -1059.16V-1059.16C-1119.57 -1059.11 -1119.64 -1059.08 -1119.67 -1059.12L-1260.91 -1209.26C-1312.04 -1263.62 -1312.04 -1351.79 -1260.91 -1406.16L-1119.57 -1556.4L-1113.5 -1562.72L-973.724 -1714.65C-923.146 -1769.61 -841.118 -1769.61 -790.541 -1714.65L-650.887 -1562.86C-650.84 -1562.81 -650.876 -1562.72 -650.947 -1562.72V-1562.72C-651.017 -1562.72 -651.054 -1562.64 -651.006 -1562.59L-545.286 -1447.67C-513.284 -1412.88 -461.327 -1412.88 -429.233 -1447.67L-323.082 -1563.05C-323.043 -1563.1 -322.987 -1563.12 -322.928 -1563.12V-1563.12C-322.869 -1563.12 -322.813 -1563.14 -322.774 -1563.19L-183.426 -1714.65C-132.848 -1769.61 -50.8205 -1769.61 -0.242931 -1714.65L139.535 -1562.72L144.869 -1557.49L286.21 -1407.24C337.34 -1352.88 337.34 -1264.71 286.21 -1210.34L144.903 -1060.14C144.891 -1060.12 144.869 -1060.13 144.869 -1060.15V-1060.15Z" stroke="url(#paint31_linear)" stroke-width="1.75" stroke-miterlimit="10" stroke-linecap="round"/>
<path d="M144.869 -1060.15C144.869 -1060.17 144.847 -1060.18 144.835 -1060.16L37.4604 -946.035C5.0907 -911.637 5.0907 -855.79 37.4604 -821.293L144.675 -707.335C144.712 -707.296 144.777 -707.322 144.777 -707.375V-707.375C144.777 -707.428 144.842 -707.454 144.878 -707.415L286.118 -557.28C337.248 -502.915 337.248 -414.746 286.118 -360.382L144.777 -210.138L138.707 -203.812L-1.0706 -51.8887C-51.6482 3.0688 -133.676 3.06879 -184.253 -51.8887L-323.907 -203.677C-323.955 -203.729 -323.918 -203.812 -323.848 -203.812V-203.812C-323.777 -203.812 -323.741 -203.896 -323.788 -203.948L-429.509 -318.867C-461.511 -353.66 -513.468 -353.66 -545.561 -318.867L-651.62 -203.584C-651.66 -203.54 -651.716 -203.516 -651.774 -203.516V-203.516C-651.833 -203.516 -651.889 -203.491 -651.929 -203.448L-791.369 -51.9875C-841.946 2.96993 -923.974 2.96993 -974.551 -51.9875L-1114.33 -203.911L-1119.66 -209.15L-1261 -359.393C-1312.13 -413.758 -1312.13 -501.927 -1261 -556.291L-1119.57 -706.337L-1012.25 -820.502C-979.885 -854.9 -979.885 -910.747 -1012.25 -945.244L-1119.47 -1059.2C-1119.51 -1059.24 -1119.57 -1059.22 -1119.57 -1059.16V-1059.16C-1119.57 -1059.11 -1119.64 -1059.08 -1119.67 -1059.12L-1260.91 -1209.26C-1312.04 -1263.62 -1312.04 -1351.79 -1260.91 -1406.16L-1119.57 -1556.4L-1113.5 -1562.72L-973.724 -1714.65C-923.146 -1769.61 -841.118 -1769.61 -790.541 -1714.65L-650.887 -1562.86C-650.84 -1562.81 -650.876 -1562.72 -650.947 -1562.72V-1562.72C-651.017 -1562.72 -651.054 -1562.64 -651.006 -1562.59L-545.286 -1447.67C-513.284 -1412.88 -461.327 -1412.88 -429.233 -1447.67L-323.082 -1563.05C-323.043 -1563.1 -322.987 -1563.12 -322.928 -1563.12V-1563.12C-322.869 -1563.12 -322.813 -1563.14 -322.774 -1563.19L-183.426 -1714.65C-132.848 -1769.61 -50.8205 -1769.61 -0.242931 -1714.65L139.535 -1562.72L144.869 -1557.49L286.21 -1407.24C337.34 -1352.88 337.34 -1264.71 286.21 -1210.34L144.903 -1060.14C144.891 -1060.12 144.869 -1060.13 144.869 -1060.15V-1060.15Z" stroke="url(#paint32_linear)" stroke-width="1.75" stroke-miterlimit="10" stroke-linecap="round"/>
</g>
<defs>
<linearGradient id="paint0_linear" x1="-0.478229" y1="61.5146" x2="148.48" y2="61.5146" gradientUnits="userSpaceOnUse">
<stop stop-color="#B480FF"/>
<stop offset="0.604167" stop-color="#5F00E6"/>
<stop offset="0.859375" stop-color="#1AA4FF" stop-opacity="0.49"/>
<stop offset="1" stop-color="#28B86A" stop-opacity="0.27"/>
</linearGradient>
<linearGradient id="paint1_linear" x1="-487.172" y1="131.783" x2="-487.172" y2="-1898.55" gradientUnits="userSpaceOnUse">
<stop stop-color="#9A52FF"/>
</linearGradient>
<linearGradient id="paint2_linear" x1="-487.172" y1="131.783" x2="-487.172" y2="-1898.55" gradientUnits="userSpaceOnUse">
<stop stop-color="#9A52FF"/>
</linearGradient>
<linearGradient id="paint3_linear" x1="-487.084" y1="122.679" x2="-487.084" y2="-1889.25" gradientUnits="userSpaceOnUse">
<stop stop-color="#9A52FF"/>
</linearGradient>
<linearGradient id="paint4_linear" x1="-487.084" y1="122.679" x2="-487.084" y2="-1889.25" gradientUnits="userSpaceOnUse">
<stop stop-color="#9A52FF"/>
</linearGradient>
<linearGradient id="paint5_linear" x1="-487.13" y1="113.553" x2="-487.13" y2="-1880.12" gradientUnits="userSpaceOnUse">
<stop stop-color="#9A52FF"/>
</linearGradient>
<linearGradient id="paint6_linear" x1="-487.13" y1="113.553" x2="-487.13" y2="-1880.12" gradientUnits="userSpaceOnUse">
<stop stop-color="#9A52FF"/>
</linearGradient>
<linearGradient id="paint7_linear" x1="-487.178" y1="104.449" x2="-487.178" y2="-1871.12" gradientUnits="userSpaceOnUse">
<stop stop-color="#9A52FF"/>
</linearGradient>
<linearGradient id="paint8_linear" x1="-487.178" y1="104.449" x2="-487.178" y2="-1871.12" gradientUnits="userSpaceOnUse">
<stop stop-color="#9A52FF"/>
</linearGradient>
<linearGradient id="paint9_linear" x1="-487.037" y1="95.3478" x2="-487.037" y2="-1862.01" gradientUnits="userSpaceOnUse">
<stop stop-color="#9A52FF"/>
</linearGradient>
<linearGradient id="paint10_linear" x1="-487.037" y1="95.3478" x2="-487.037" y2="-1862.01" gradientUnits="userSpaceOnUse">
<stop stop-color="#9A52FF"/>
</linearGradient>
<linearGradient id="paint11_linear" x1="-487.09" y1="86.1456" x2="-487.09" y2="-1852.81" gradientUnits="userSpaceOnUse">
<stop stop-color="#9A52FF"/>
</linearGradient>
<linearGradient id="paint12_linear" x1="-487.09" y1="86.1456" x2="-487.09" y2="-1852.81" gradientUnits="userSpaceOnUse">
<stop stop-color="#9A52FF"/>
</linearGradient>
<linearGradient id="paint13_linear" x1="-487.141" y1="77.0423" x2="-487.141" y2="-1843.71" gradientUnits="userSpaceOnUse">
<stop stop-color="#9A52FF"/>
</linearGradient>
<linearGradient id="paint14_linear" x1="-487.141" y1="77.0423" x2="-487.141" y2="-1843.71" gradientUnits="userSpaceOnUse">
<stop stop-color="#9A52FF"/>
</linearGradient>
<linearGradient id="paint15_linear" x1="-487.185" y1="67.9154" x2="-487.185" y2="-1834.58" gradientUnits="userSpaceOnUse">
<stop stop-color="#9A52FF"/>
</linearGradient>
<linearGradient id="paint16_linear" x1="-487.185" y1="67.9154" x2="-487.185" y2="-1834.58" gradientUnits="userSpaceOnUse">
<stop stop-color="#9A52FF"/>
</linearGradient>
<linearGradient id="paint17_linear" x1="-487.141" y1="58.8125" x2="-487.141" y2="-1825.48" gradientUnits="userSpaceOnUse">
<stop stop-color="#9A52FF"/>
</linearGradient>
<linearGradient id="paint18_linear" x1="-487.141" y1="58.8125" x2="-487.141" y2="-1825.48" gradientUnits="userSpaceOnUse">
<stop stop-color="#9A52FF"/>
</linearGradient>
<linearGradient id="paint19_linear" x1="-487.193" y1="49.8092" x2="-487.193" y2="-1816.27" gradientUnits="userSpaceOnUse">
<stop stop-color="#9A52FF"/>
</linearGradient>
<linearGradient id="paint20_linear" x1="-487.193" y1="49.8092" x2="-487.193" y2="-1816.27" gradientUnits="userSpaceOnUse">
<stop stop-color="#9A52FF"/>
</linearGradient>
<linearGradient id="paint21_linear" x1="-487.193" y1="40.5069" x2="-487.193" y2="-1807.17" gradientUnits="userSpaceOnUse">
<stop stop-color="#9A52FF"/>
</linearGradient>
<linearGradient id="paint22_linear" x1="-487.193" y1="40.5069" x2="-487.193" y2="-1807.17" gradientUnits="userSpaceOnUse">
<stop stop-color="#9A52FF"/>
</linearGradient>
<linearGradient id="paint23_linear" x1="-487.144" y1="31.4032" x2="-487.144" y2="-1797.97" gradientUnits="userSpaceOnUse">
<stop stop-color="#9A52FF"/>
</linearGradient>
<linearGradient id="paint24_linear" x1="-487.144" y1="31.4032" x2="-487.144" y2="-1797.97" gradientUnits="userSpaceOnUse">
<stop stop-color="#9A52FF"/>
</linearGradient>
<linearGradient id="paint25_linear" x1="-487.152" y1="22.377" x2="-487.151" y2="-1788.94" gradientUnits="userSpaceOnUse">
<stop stop-color="#9A52FF"/>
</linearGradient>
<linearGradient id="paint26_linear" x1="-487.152" y1="22.377" x2="-487.151" y2="-1788.94" gradientUnits="userSpaceOnUse">
<stop stop-color="#9A52FF"/>
</linearGradient>
<linearGradient id="paint27_linear" x1="-487.244" y1="13.1734" x2="-487.244" y2="-1779.74" gradientUnits="userSpaceOnUse">
<stop stop-color="#9A52FF"/>
</linearGradient>
<linearGradient id="paint28_linear" x1="-487.244" y1="13.1734" x2="-487.244" y2="-1779.74" gradientUnits="userSpaceOnUse">
<stop stop-color="#9A52FF"/>
</linearGradient>
<linearGradient id="paint29_linear" x1="-487.197" y1="4.072" x2="-487.196" y2="-1770.63" gradientUnits="userSpaceOnUse">
<stop stop-color="#9A52FF"/>
</linearGradient>
<linearGradient id="paint30_linear" x1="-487.197" y1="4.072" x2="-487.196" y2="-1770.63" gradientUnits="userSpaceOnUse">
<stop stop-color="#9A52FF"/>
</linearGradient>
<linearGradient id="paint31_linear" x1="-487.205" y1="-5.03137" x2="-487.204" y2="-1761.53" gradientUnits="userSpaceOnUse">
<stop stop-color="#9A52FF"/>
</linearGradient>
<linearGradient id="paint32_linear" x1="-487.205" y1="-5.03137" x2="-487.204" y2="-1761.53" gradientUnits="userSpaceOnUse">
<stop stop-color="#9A52FF"/>
</linearGradient>
</defs>
</svg>
