<svg width="142" height="108" viewBox="0 0 142 108" fill="none" xmlns="http://www.w3.org/2000/svg">
<mask id="mask0" mask-type="alpha" maskUnits="userSpaceOnUse" x="0" y="0" width="142" height="108">
<path d="M0.5 0.5H141.5V98C141.5 103.247 137.247 107.5 132 107.5H0.5V0.5Z" fill="#232325" stroke="url(#paint0_linear)"/>
</mask>
<g mask="url(#mask0)">
<path d="M1350.41 804.371C1350.38 804.305 1350.3 804.285 1350.25 804.336L1226.21 936.18C1188.79 976.014 1188.79 1040.56 1226.21 1080.39L1350.13 1212.11C1350.18 1212.16 1350.27 1212.13 1350.27 1212.05V1212.05C1350.27 1211.98 1350.35 1211.95 1350.4 1212L1513.68 1385.53C1572.81 1448.39 1572.81 1550.3 1513.68 1613.16L1350.27 1786.83L1343.28 1794.15L1181.8 1969.6C1123.31 2033.15 1028.5 2033.15 970.016 1969.6L808.568 1794.09C808.52 1794.03 808.557 1793.95 808.627 1793.95V1793.95C808.698 1793.95 808.734 1793.87 808.687 1793.82L686.413 1661.01C649.354 1620.78 589.305 1620.78 552.245 1661.01L429.51 1794.41C429.491 1794.43 429.463 1794.45 429.433 1794.45V1794.45C429.404 1794.45 429.376 1794.46 429.356 1794.48L268.275 1969.6C209.789 2033.15 114.979 2033.15 56.4926 1969.6L-105.08 1793.95L-111.241 1787.82L-274.653 1614.25C-333.782 1551.39 -333.782 1449.48 -274.653 1386.61L-111.149 1213.24L12.9959 1081.28C50.4234 1041.45 50.4234 976.904 12.9959 937.069L-110.922 805.355C-110.97 805.303 -111.057 805.338 -111.057 805.409V805.409C-111.057 805.48 -111.144 805.514 -111.193 805.462L-274.469 631.937C-333.599 569.072 -333.599 467.163 -274.469 404.298L-111.057 230.629L-104.068 223.314L57.5042 47.6678C115.99 -15.8891 210.8 -15.8891 269.286 47.6678L430.611 223.244C430.671 223.309 430.625 223.413 430.537 223.413V223.413C430.449 223.413 430.403 223.518 430.463 223.582L552.705 356.359C589.764 396.588 649.814 396.588 686.873 356.359L809.546 223.02C809.605 222.956 809.689 222.919 809.777 222.919V222.919C809.865 222.919 809.949 222.882 810.008 222.817L971.119 47.7667C1029.61 -15.7902 1124.42 -15.7902 1182.9 47.7667L1344.29 223.413L1350.45 229.541L1513.86 403.211C1572.99 466.076 1572.99 567.984 1513.86 630.849L1350.56 804.406C1350.51 804.456 1350.43 804.437 1350.41 804.371V804.371Z" stroke="url(#paint1_linear)" stroke-width="1.75" stroke-miterlimit="10" stroke-linecap="round"/>
<path d="M1350.41 804.371C1350.38 804.305 1350.3 804.285 1350.25 804.336L1226.21 936.18C1188.79 976.014 1188.79 1040.56 1226.21 1080.39L1350.13 1212.11C1350.18 1212.16 1350.27 1212.13 1350.27 1212.05V1212.05C1350.27 1211.98 1350.35 1211.95 1350.4 1212L1513.68 1385.53C1572.81 1448.39 1572.81 1550.3 1513.68 1613.16L1350.27 1786.83L1343.28 1794.15L1181.8 1969.6C1123.31 2033.15 1028.5 2033.15 970.016 1969.6L808.568 1794.09C808.52 1794.03 808.557 1793.95 808.627 1793.95V1793.95C808.698 1793.95 808.734 1793.87 808.687 1793.82L686.413 1661.01C649.354 1620.78 589.305 1620.78 552.245 1661.01L429.51 1794.41C429.491 1794.43 429.463 1794.45 429.433 1794.45V1794.45C429.404 1794.45 429.376 1794.46 429.356 1794.48L268.275 1969.6C209.789 2033.15 114.979 2033.15 56.4926 1969.6L-105.08 1793.95L-111.241 1787.82L-274.653 1614.25C-333.782 1551.39 -333.782 1449.48 -274.653 1386.61L-111.149 1213.24L12.9959 1081.28C50.4234 1041.45 50.4234 976.904 12.9959 937.069L-110.922 805.355C-110.97 805.303 -111.057 805.338 -111.057 805.409V805.409C-111.057 805.48 -111.144 805.514 -111.193 805.462L-274.469 631.937C-333.599 569.072 -333.599 467.163 -274.469 404.298L-111.057 230.629L-104.068 223.314L57.5042 47.6678C115.99 -15.8891 210.8 -15.8891 269.286 47.6678L430.611 223.244C430.671 223.309 430.625 223.413 430.537 223.413V223.413C430.449 223.413 430.403 223.518 430.463 223.582L552.705 356.359C589.764 396.588 649.814 396.588 686.873 356.359L809.546 223.02C809.605 222.956 809.689 222.919 809.777 222.919V222.919C809.865 222.919 809.949 222.882 810.008 222.817L971.119 47.7667C1029.61 -15.7902 1124.42 -15.7902 1182.9 47.7667L1344.29 223.413L1350.45 229.541L1513.86 403.211C1572.99 466.076 1572.99 567.984 1513.86 630.849L1350.56 804.406C1350.51 804.456 1350.43 804.437 1350.41 804.371V804.371Z" stroke="url(#paint2_linear)" stroke-width="1.75" stroke-miterlimit="10" stroke-linecap="round"/>
<path d="M1343.92 806.199C1343.88 806.104 1343.75 806.084 1343.68 806.16L1220.88 936.772C1183.73 976.211 1183.73 1040.16 1220.88 1079.6L1343.69 1210.13C1343.74 1210.18 1343.83 1210.15 1343.83 1210.08V1210.08C1343.83 1210.01 1343.91 1209.97 1343.96 1210.02L1505.77 1381.97C1564.35 1444.24 1564.35 1545.26 1505.77 1607.53L1343.83 1779.62L1336.93 1786.83L1176.74 1961C1118.8 2023.96 1024.82 2023.96 966.887 1961L806.911 1787.07C806.863 1787.02 806.9 1786.93 806.97 1786.93V1786.93C807.04 1786.93 807.077 1786.85 807.029 1786.8L685.952 1655.17C649.26 1615.24 589.762 1615.24 553.071 1655.17L431.502 1787.23C431.442 1787.29 431.359 1787.33 431.271 1787.33V1787.33C431.183 1787.33 431.099 1787.36 431.039 1787.43L271.399 1961C213.465 2023.96 119.483 2023.96 61.5485 1961L-98.5526 1786.93L-104.714 1780.9L-266.562 1608.81C-325.14 1546.54 -325.14 1445.52 -266.562 1383.25L-104.53 1211.36L18.4196 1080.59C55.5712 1041.15 55.5712 977.199 18.4196 937.76L-104.394 807.232C-104.443 807.181 -104.53 807.215 -104.53 807.286V807.286C-104.53 807.357 -104.617 807.391 -104.665 807.34L-266.47 635.396C-325.048 573.124 -325.048 472.105 -266.47 409.833L-104.53 237.745L-97.6329 230.529L62.4681 56.4644C120.402 -6.4994 214.385 -6.4994 272.319 56.4644L432.296 230.394C432.343 230.446 432.307 230.529 432.236 230.529V230.529C432.166 230.529 432.129 230.613 432.177 230.665L553.347 362.289C590.038 402.222 649.536 402.222 686.228 362.289L807.796 230.235C807.856 230.171 807.94 230.134 808.028 230.134V230.134C808.116 230.134 808.199 230.097 808.259 230.032L967.899 56.5633C1025.83 -6.40057 1119.82 -6.40057 1177.75 56.5633L1337.85 230.628L1344.01 236.658L1505.95 408.746C1564.53 471.018 1564.53 572.036 1505.95 634.308L1344.16 806.238C1344.09 806.314 1343.96 806.293 1343.92 806.199V806.199Z" stroke="url(#paint3_linear)" stroke-width="1.75" stroke-miterlimit="10" stroke-linecap="round"/>
<path d="M1343.92 806.199C1343.88 806.104 1343.75 806.084 1343.68 806.16L1220.88 936.772C1183.73 976.211 1183.73 1040.16 1220.88 1079.6L1343.69 1210.13C1343.74 1210.18 1343.83 1210.15 1343.83 1210.08V1210.08C1343.83 1210.01 1343.91 1209.97 1343.96 1210.02L1505.77 1381.97C1564.35 1444.24 1564.35 1545.26 1505.77 1607.53L1343.83 1779.62L1336.93 1786.83L1176.74 1961C1118.8 2023.96 1024.82 2023.96 966.887 1961L806.911 1787.07C806.863 1787.02 806.9 1786.93 806.97 1786.93V1786.93C807.04 1786.93 807.077 1786.85 807.029 1786.8L685.952 1655.17C649.26 1615.24 589.762 1615.24 553.071 1655.17L431.502 1787.23C431.442 1787.29 431.359 1787.33 431.271 1787.33V1787.33C431.183 1787.33 431.099 1787.36 431.039 1787.43L271.399 1961C213.465 2023.96 119.483 2023.96 61.5485 1961L-98.5526 1786.93L-104.714 1780.9L-266.562 1608.81C-325.14 1546.54 -325.14 1445.52 -266.562 1383.25L-104.53 1211.36L18.4196 1080.59C55.5712 1041.15 55.5712 977.199 18.4196 937.76L-104.394 807.232C-104.443 807.181 -104.53 807.215 -104.53 807.286V807.286C-104.53 807.357 -104.617 807.391 -104.665 807.34L-266.47 635.396C-325.048 573.124 -325.048 472.105 -266.47 409.833L-104.53 237.745L-97.6329 230.529L62.4681 56.4644C120.402 -6.4994 214.385 -6.4994 272.319 56.4644L432.296 230.394C432.343 230.446 432.307 230.529 432.236 230.529V230.529C432.166 230.529 432.129 230.613 432.177 230.665L553.347 362.289C590.038 402.222 649.536 402.222 686.228 362.289L807.796 230.235C807.856 230.171 807.94 230.134 808.028 230.134V230.134C808.116 230.134 808.199 230.097 808.259 230.032L967.899 56.5633C1025.83 -6.40057 1119.82 -6.40057 1177.75 56.5633L1337.85 230.628L1344.01 236.658L1505.95 408.746C1564.53 471.018 1564.53 572.036 1505.95 634.308L1344.16 806.238C1344.09 806.314 1343.96 806.293 1343.92 806.199V806.199Z" stroke="url(#paint4_linear)" stroke-width="1.75" stroke-miterlimit="10" stroke-linecap="round"/>
<path d="M1337.3 808.028C1337.26 807.953 1337.15 807.943 1337.09 808.007L1215.36 937.465C1178.58 976.607 1178.58 1039.97 1215.36 1079.01L1337.08 1208.35C1337.12 1208.4 1337.21 1208.37 1337.21 1208.3V1208.3C1337.21 1208.23 1337.3 1208.19 1337.35 1208.24L1497.68 1378.61C1555.8 1440.38 1555.8 1540.42 1497.68 1602.19L1337.21 1772.7L1330.41 1779.82L1171.68 1952.3C1114.21 2014.77 1021.15 2014.77 963.672 1952.3L805.167 1779.95C805.119 1779.9 805.156 1779.82 805.226 1779.82V1779.82C805.297 1779.82 805.333 1779.73 805.286 1779.68L685.22 1649.24C648.804 1609.71 589.858 1609.71 553.534 1649.24L433.161 1780.21C433.101 1780.27 433.017 1780.31 432.929 1780.31V1780.31C432.841 1780.31 432.758 1780.35 432.698 1780.41L274.53 1952.3C217.055 2014.77 123.992 2014.77 66.5177 1952.3L-92.0201 1779.92L-98.0894 1773.98L-258.558 1603.38C-316.677 1541.6 -316.677 1441.57 -258.558 1379.79L-97.9974 1209.48L23.8486 1080C60.6323 1040.86 60.6323 977.497 23.8486 938.453L-97.8619 809.111C-97.9105 809.059 -97.9974 809.094 -97.9974 809.165V809.165C-97.9974 809.236 -98.0842 809.27 -98.1329 809.218L-258.466 638.856C-316.585 577.078 -316.585 477.048 -258.466 415.27L-97.9974 244.763L-91.1924 237.647L67.4373 65.1631C124.912 2.69348 217.975 2.69348 275.449 65.1631L433.954 237.511C434.002 237.563 433.965 237.647 433.895 237.647V237.647C433.825 237.647 433.788 237.73 433.836 237.782L553.902 368.22C590.318 407.758 649.264 407.758 685.587 368.22L806.053 237.353C806.112 237.288 806.196 237.251 806.284 237.251V237.251C806.372 237.251 806.456 237.214 806.515 237.15L964.684 65.1631C1022.16 2.69348 1115.22 2.69348 1172.7 65.1631L1331.33 237.647L1337.39 243.577L1497.86 414.084C1555.98 475.861 1555.98 575.892 1497.86 637.67L1337.51 808.049C1337.45 808.113 1337.35 808.103 1337.3 808.028V808.028Z" stroke="url(#paint5_linear)" stroke-width="1.75" stroke-miterlimit="10" stroke-linecap="round"/>
<path d="M1337.3 808.028C1337.26 807.953 1337.15 807.943 1337.09 808.007L1215.36 937.465C1178.58 976.607 1178.58 1039.97 1215.36 1079.01L1337.08 1208.35C1337.12 1208.4 1337.21 1208.37 1337.21 1208.3V1208.3C1337.21 1208.23 1337.3 1208.19 1337.35 1208.24L1497.68 1378.61C1555.8 1440.38 1555.8 1540.42 1497.68 1602.19L1337.21 1772.7L1330.41 1779.82L1171.68 1952.3C1114.21 2014.77 1021.15 2014.77 963.672 1952.3L805.167 1779.95C805.119 1779.9 805.156 1779.82 805.226 1779.82V1779.82C805.297 1779.82 805.333 1779.73 805.286 1779.68L685.22 1649.24C648.804 1609.71 589.858 1609.71 553.534 1649.24L433.161 1780.21C433.101 1780.27 433.017 1780.31 432.929 1780.31V1780.31C432.841 1780.31 432.758 1780.35 432.698 1780.41L274.53 1952.3C217.055 2014.77 123.992 2014.77 66.5177 1952.3L-92.0201 1779.92L-98.0894 1773.98L-258.558 1603.38C-316.677 1541.6 -316.677 1441.57 -258.558 1379.79L-97.9974 1209.48L23.8486 1080C60.6323 1040.86 60.6323 977.497 23.8486 938.453L-97.8619 809.111C-97.9105 809.059 -97.9974 809.094 -97.9974 809.165V809.165C-97.9974 809.236 -98.0842 809.27 -98.1329 809.218L-258.466 638.856C-316.585 577.078 -316.585 477.048 -258.466 415.27L-97.9974 244.763L-91.1924 237.647L67.4373 65.1631C124.912 2.69348 217.975 2.69348 275.449 65.1631L433.954 237.511C434.002 237.563 433.965 237.647 433.895 237.647V237.647C433.825 237.647 433.788 237.73 433.836 237.782L553.902 368.22C590.318 407.758 649.264 407.758 685.587 368.22L806.053 237.353C806.112 237.288 806.196 237.251 806.284 237.251V237.251C806.372 237.251 806.456 237.214 806.515 237.15L964.684 65.1631C1022.16 2.69348 1115.22 2.69348 1172.7 65.1631L1331.33 237.647L1337.39 243.577L1497.86 414.084C1555.98 475.861 1555.98 575.892 1497.86 637.67L1337.51 808.049C1337.45 808.113 1337.35 808.103 1337.3 808.028V808.028Z" stroke="url(#paint6_linear)" stroke-width="1.75" stroke-miterlimit="10" stroke-linecap="round"/>
<path d="M1330.73 809.807C1330.7 809.78 1330.66 809.78 1330.63 809.807L1209.94 938.057C1173.52 976.804 1173.52 1039.57 1209.94 1078.32L1330.55 1206.47C1330.59 1206.53 1330.68 1206.49 1330.68 1206.42V1206.42C1330.68 1206.35 1330.77 1206.31 1330.82 1206.37L1489.68 1375.15C1547.25 1436.33 1547.25 1535.47 1489.68 1596.66L1330.68 1765.58L1323.88 1772.7L1166.63 1943.7C1109.7 2005.58 1017.47 2005.58 960.545 1943.7L803.511 1772.93C803.464 1772.88 803.5 1772.8 803.571 1772.8V1772.8C803.641 1772.8 803.678 1772.71 803.63 1772.66L684.667 1643.41C648.619 1604.27 590.225 1604.27 554.177 1643.41L434.908 1773.09C434.848 1773.16 434.764 1773.19 434.676 1773.19V1773.19C434.588 1773.19 434.504 1773.23 434.445 1773.29L277.748 1943.7C220.825 2005.58 128.59 2005.58 71.6671 1943.7L-85.5832 1772.8L-91.6525 1766.87L-250.558 1597.94C-308.125 1536.76 -308.125 1437.62 -250.558 1376.43L-91.4685 1207.7L29.2739 1079.31C65.6898 1040.56 65.6898 977.793 29.2739 939.046L-91.333 810.89C-91.3817 810.838 -91.4685 810.873 -91.4685 810.944V810.944C-91.4685 811.015 -91.5554 811.049 -91.604 810.997L-250.466 642.216C-308.033 581.032 -308.033 481.891 -250.466 420.706L-91.4685 251.781L-84.6635 244.665L72.5868 73.7627C129.51 11.8861 221.745 11.8861 278.667 73.7627L435.701 244.43C435.749 244.482 435.712 244.566 435.642 244.566V244.566C435.571 244.566 435.535 244.649 435.582 244.701L554.453 373.953C590.501 413.095 648.895 413.095 684.943 373.953L804.305 244.272C804.365 244.207 804.448 244.17 804.536 244.17V244.17C804.624 244.17 804.708 244.133 804.768 244.069L961.465 73.6639C1018.39 11.7873 1110.62 11.7873 1167.55 73.6639L1324.7 244.566L1330.77 250.496L1489.77 419.421C1547.34 480.606 1547.34 579.747 1489.77 640.931L1330.82 809.807C1330.79 809.834 1330.75 809.834 1330.73 809.807V809.807Z" stroke="url(#paint7_linear)" stroke-width="1.75" stroke-miterlimit="10" stroke-linecap="round"/>
<path d="M1330.73 809.807C1330.7 809.78 1330.66 809.78 1330.63 809.807L1209.94 938.057C1173.52 976.804 1173.52 1039.57 1209.94 1078.32L1330.55 1206.47C1330.59 1206.53 1330.68 1206.49 1330.68 1206.42V1206.42C1330.68 1206.35 1330.77 1206.31 1330.82 1206.37L1489.68 1375.15C1547.25 1436.33 1547.25 1535.47 1489.68 1596.66L1330.68 1765.58L1323.88 1772.7L1166.63 1943.7C1109.7 2005.58 1017.47 2005.58 960.545 1943.7L803.511 1772.93C803.464 1772.88 803.5 1772.8 803.571 1772.8V1772.8C803.641 1772.8 803.678 1772.71 803.63 1772.66L684.667 1643.41C648.619 1604.27 590.225 1604.27 554.177 1643.41L434.908 1773.09C434.848 1773.16 434.764 1773.19 434.676 1773.19V1773.19C434.588 1773.19 434.504 1773.23 434.445 1773.29L277.748 1943.7C220.825 2005.58 128.59 2005.58 71.6671 1943.7L-85.5832 1772.8L-91.6525 1766.87L-250.558 1597.94C-308.125 1536.76 -308.125 1437.62 -250.558 1376.43L-91.4685 1207.7L29.2739 1079.31C65.6898 1040.56 65.6898 977.793 29.2739 939.046L-91.333 810.89C-91.3817 810.838 -91.4685 810.873 -91.4685 810.944V810.944C-91.4685 811.015 -91.5554 811.049 -91.604 810.997L-250.466 642.216C-308.033 581.032 -308.033 481.891 -250.466 420.706L-91.4685 251.781L-84.6635 244.665L72.5868 73.7627C129.51 11.8861 221.745 11.8861 278.667 73.7627L435.701 244.43C435.749 244.482 435.712 244.566 435.642 244.566V244.566C435.571 244.566 435.535 244.649 435.582 244.701L554.453 373.953C590.501 413.095 648.895 413.095 684.943 373.953L804.305 244.272C804.365 244.207 804.448 244.17 804.536 244.17V244.17C804.624 244.17 804.708 244.133 804.768 244.069L961.465 73.6639C1018.39 11.7873 1110.62 11.7873 1167.55 73.6639L1324.7 244.566L1330.77 250.496L1489.77 419.421C1547.34 480.606 1547.34 579.747 1489.77 640.931L1330.82 809.807C1330.79 809.834 1330.75 809.834 1330.73 809.807V809.807Z" stroke="url(#paint8_linear)" stroke-width="1.75" stroke-miterlimit="10" stroke-linecap="round"/>
<path d="M1324.29 811.636C1324.21 811.58 1324.1 811.59 1324.04 811.661L1204.52 938.75C1168.38 977.102 1168.38 1039.37 1204.52 1077.73L1324.02 1204.7C1324.07 1204.75 1324.15 1204.71 1324.15 1204.64V1204.64C1324.15 1204.57 1324.24 1204.54 1324.29 1204.59L1481.68 1371.89C1538.7 1432.48 1538.7 1530.73 1481.68 1591.32L1324.15 1758.76L1317.44 1765.78L1161.57 1935C1105.2 1996.29 1013.79 1996.29 957.421 1935L801.766 1765.82C801.719 1765.77 801.755 1765.68 801.826 1765.68V1765.68C801.896 1765.68 801.933 1765.6 801.885 1765.55L684.118 1637.58C648.438 1598.73 590.503 1598.73 554.823 1637.58L436.565 1766.07C436.505 1766.14 436.422 1766.18 436.334 1766.18V1766.18C436.246 1766.18 436.162 1766.21 436.102 1766.28L280.785 1935.1C224.414 1996.38 133.006 1996.38 76.635 1935.1L-79.1439 1765.78L-85.1213 1759.95L-242.464 1592.51C-299.478 1531.91 -299.478 1433.66 -242.464 1373.07L-84.8454 1205.93L34.7936 1078.71C70.9336 1040.36 70.9336 978.09 34.7936 939.738L-84.7099 812.67C-84.7585 812.618 -84.8454 812.653 -84.8454 812.724V812.724C-84.8454 812.795 -84.9322 812.829 -84.9808 812.777L-242.372 645.479C-299.386 584.887 -299.386 486.636 -242.372 426.044L-84.8454 258.602L-78.1323 251.584L77.6466 82.2637C134.018 20.9802 225.425 20.9802 281.796 82.2637L437.451 251.449C437.498 251.5 437.462 251.584 437.391 251.584V251.584C437.321 251.584 437.284 251.668 437.332 251.719L555.191 379.785C590.871 418.631 648.806 418.631 684.486 379.785L802.744 251.29C802.803 251.225 802.887 251.189 802.975 251.189V251.189C803.063 251.189 803.147 251.152 803.207 251.087L958.524 82.2637C1014.9 20.9802 1106.3 20.9802 1162.67 82.2637L1318.45 251.584L1324.43 257.416L1481.96 424.858C1538.97 485.45 1538.97 583.701 1481.96 644.293L1324.55 811.611C1324.48 811.682 1324.37 811.693 1324.29 811.636V811.636Z" stroke="url(#paint9_linear)" stroke-width="1.75" stroke-miterlimit="10" stroke-linecap="round"/>
<path d="M1324.29 811.636C1324.21 811.58 1324.1 811.59 1324.04 811.661L1204.52 938.75C1168.38 977.102 1168.38 1039.37 1204.52 1077.73L1324.02 1204.7C1324.07 1204.75 1324.15 1204.71 1324.15 1204.64V1204.64C1324.15 1204.57 1324.24 1204.54 1324.29 1204.59L1481.68 1371.89C1538.7 1432.48 1538.7 1530.73 1481.68 1591.32L1324.15 1758.76L1317.44 1765.78L1161.57 1935C1105.2 1996.29 1013.79 1996.29 957.421 1935L801.766 1765.82C801.719 1765.77 801.755 1765.68 801.826 1765.68V1765.68C801.896 1765.68 801.933 1765.6 801.885 1765.55L684.118 1637.58C648.438 1598.73 590.503 1598.73 554.823 1637.58L436.565 1766.07C436.505 1766.14 436.422 1766.18 436.334 1766.18V1766.18C436.246 1766.18 436.162 1766.21 436.102 1766.28L280.785 1935.1C224.414 1996.38 133.006 1996.38 76.635 1935.1L-79.1439 1765.78L-85.1213 1759.95L-242.464 1592.51C-299.478 1531.91 -299.478 1433.66 -242.464 1373.07L-84.8454 1205.93L34.7936 1078.71C70.9336 1040.36 70.9336 978.09 34.7936 939.738L-84.7099 812.67C-84.7585 812.618 -84.8454 812.653 -84.8454 812.724V812.724C-84.8454 812.795 -84.9322 812.829 -84.9808 812.777L-242.372 645.479C-299.386 584.887 -299.386 486.636 -242.372 426.044L-84.8454 258.602L-78.1323 251.584L77.6466 82.2637C134.018 20.9802 225.425 20.9802 281.796 82.2637L437.451 251.449C437.498 251.5 437.462 251.584 437.391 251.584V251.584C437.321 251.584 437.284 251.668 437.332 251.719L555.191 379.785C590.871 418.631 648.806 418.631 684.486 379.785L802.744 251.29C802.803 251.225 802.887 251.189 802.975 251.189V251.189C803.063 251.189 803.147 251.152 803.207 251.087L958.524 82.2637C1014.9 20.9802 1106.3 20.9802 1162.67 82.2637L1318.45 251.584L1324.43 257.416L1481.96 424.858C1538.97 485.45 1538.97 583.701 1481.96 644.293L1324.55 811.611C1324.48 811.682 1324.37 811.693 1324.29 811.636V811.636Z" stroke="url(#paint10_linear)" stroke-width="1.75" stroke-miterlimit="10" stroke-linecap="round"/>
<path d="M1317.62 813.514C1317.57 813.461 1317.49 813.461 1317.44 813.514L1198.99 939.442C1163.22 977.497 1163.22 1039.08 1198.99 1077.13L1317.39 1202.82C1317.44 1202.87 1317.53 1202.83 1317.53 1202.76V1202.76C1317.53 1202.69 1317.62 1202.66 1317.67 1202.71L1473.58 1368.43C1530.05 1428.43 1530.05 1525.79 1473.58 1585.79L1317.53 1751.65L1310.91 1758.57L1156.6 1926.3C1100.78 1986.99 1010.2 1986.99 954.383 1926.3L800.108 1758.8C800.06 1758.75 800.097 1758.66 800.167 1758.66V1758.66C800.238 1758.66 800.274 1758.58 800.227 1758.53L683.471 1631.65C648.067 1593.2 590.776 1593.2 555.372 1631.65L438.309 1758.96C438.249 1759.02 438.166 1759.06 438.078 1759.06V1759.06C437.99 1759.06 437.906 1759.1 437.846 1759.16L284.092 1926.4C228.273 1987.09 137.693 1987.09 81.8735 1926.4L-72.4342 1758.66L-78.3196 1752.83L-234.374 1586.97C-290.837 1526.97 -290.837 1429.61 -234.374 1369.61L-78.2276 1203.95L40.3079 1077.92C76.0801 1039.87 76.0801 978.288 40.3079 940.233L-78.0002 814.449C-78.0488 814.398 -78.1356 814.432 -78.1356 814.503V814.503C-78.1356 814.574 -78.2224 814.608 -78.271 814.557L-234.19 648.84C-290.653 588.841 -290.653 491.48 -234.19 431.481L-78.1356 265.62L-71.5145 258.701L82.7012 90.9623C138.52 30.2718 229.1 30.2718 284.92 90.9623L439.103 258.566C439.15 258.617 439.114 258.701 439.043 258.701V258.701C438.973 258.701 438.936 258.785 438.984 258.836L555.74 385.716C591.144 424.167 648.434 424.167 683.839 385.716L800.993 258.407C801.053 258.343 801.137 258.306 801.225 258.306V258.306C801.313 258.306 801.397 258.269 801.456 258.204L955.303 90.9623C1011.12 30.2718 1101.7 30.2718 1157.52 90.9623L1311.83 258.701L1317.71 264.533L1473.77 430.394C1530.23 490.392 1530.23 587.754 1473.77 647.753L1317.81 813.515C1317.76 813.568 1317.67 813.568 1317.62 813.514V813.514Z" stroke="url(#paint11_linear)" stroke-width="1.75" stroke-miterlimit="10" stroke-linecap="round"/>
<path d="M1317.62 813.514C1317.57 813.461 1317.49 813.461 1317.44 813.514L1198.99 939.442C1163.22 977.497 1163.22 1039.08 1198.99 1077.13L1317.39 1202.82C1317.44 1202.87 1317.53 1202.83 1317.53 1202.76V1202.76C1317.53 1202.69 1317.62 1202.66 1317.67 1202.71L1473.58 1368.43C1530.05 1428.43 1530.05 1525.79 1473.58 1585.79L1317.53 1751.65L1310.91 1758.57L1156.6 1926.3C1100.78 1986.99 1010.2 1986.99 954.383 1926.3L800.108 1758.8C800.06 1758.75 800.097 1758.66 800.167 1758.66V1758.66C800.238 1758.66 800.274 1758.58 800.227 1758.53L683.471 1631.65C648.067 1593.2 590.776 1593.2 555.372 1631.65L438.309 1758.96C438.249 1759.02 438.166 1759.06 438.078 1759.06V1759.06C437.99 1759.06 437.906 1759.1 437.846 1759.16L284.092 1926.4C228.273 1987.09 137.693 1987.09 81.8735 1926.4L-72.4342 1758.66L-78.3196 1752.83L-234.374 1586.97C-290.837 1526.97 -290.837 1429.61 -234.374 1369.61L-78.2276 1203.95L40.3079 1077.92C76.0801 1039.87 76.0801 978.288 40.3079 940.233L-78.0002 814.449C-78.0488 814.398 -78.1356 814.432 -78.1356 814.503V814.503C-78.1356 814.574 -78.2224 814.608 -78.271 814.557L-234.19 648.84C-290.653 588.841 -290.653 491.48 -234.19 431.481L-78.1356 265.62L-71.5145 258.701L82.7012 90.9623C138.52 30.2718 229.1 30.2718 284.92 90.9623L439.103 258.566C439.15 258.617 439.114 258.701 439.043 258.701V258.701C438.973 258.701 438.936 258.785 438.984 258.836L555.74 385.716C591.144 424.167 648.434 424.167 683.839 385.716L800.993 258.407C801.053 258.343 801.137 258.306 801.225 258.306V258.306C801.313 258.306 801.397 258.269 801.456 258.204L955.303 90.9623C1011.12 30.2718 1101.7 30.2718 1157.52 90.9623L1311.83 258.701L1317.71 264.533L1473.77 430.394C1530.23 490.392 1530.23 587.754 1473.77 647.753L1317.81 813.515C1317.76 813.568 1317.67 813.568 1317.62 813.514V813.514Z" stroke="url(#paint12_linear)" stroke-width="1.75" stroke-miterlimit="10" stroke-linecap="round"/>
<path d="M1311.05 815.342C1311.03 815.276 1310.94 815.257 1310.89 815.307L1193.57 940.035C1158.16 977.694 1158.16 1038.78 1193.57 1076.44L1310.77 1201.04C1310.82 1201.09 1310.91 1201.05 1310.91 1200.98V1200.98C1310.91 1200.91 1310.99 1200.88 1311.04 1200.93L1465.49 1365.07C1521.4 1424.57 1521.4 1520.94 1465.49 1580.45L1310.91 1744.73L1304.29 1751.65L1151.45 1917.8C1096.09 1977.9 1006.43 1977.9 951.071 1917.8L798.36 1751.78C798.312 1751.73 798.349 1751.65 798.419 1751.65V1751.65C798.489 1751.65 798.526 1751.56 798.478 1751.51L682.826 1625.82C647.79 1587.76 590.959 1587.76 555.922 1625.82L440.055 1751.94C439.996 1752 439.912 1752.04 439.824 1752.04V1752.04C439.736 1752.04 439.652 1752.08 439.593 1752.14L287.217 1917.8C231.858 1977.9 142.198 1977.9 86.8382 1917.8L-65.9981 1751.65L-71.8835 1745.91L-226.467 1581.63C-282.378 1522.13 -282.378 1425.76 -226.467 1366.25L-71.7915 1202.17L45.6405 1077.33C81.0448 1039.67 81.0448 978.584 45.6405 940.924L-71.564 816.327C-71.6127 816.275 -71.6995 816.309 -71.6995 816.38V816.38C-71.6995 816.451 -71.7863 816.486 -71.835 816.434L-226.283 652.299C-282.194 592.794 -282.194 496.421 -226.283 436.917L-71.6995 272.638L-65.0784 265.719L87.7578 99.5611C143.117 39.4638 232.778 39.4638 288.137 99.5611L440.849 265.583C440.896 265.635 440.86 265.719 440.789 265.719V265.719C440.719 265.719 440.682 265.802 440.73 265.854L556.29 391.547C591.327 429.602 648.158 429.602 683.194 391.547L799.245 265.425C799.305 265.36 799.389 265.323 799.477 265.323V265.323C799.564 265.323 799.648 265.286 799.708 265.222L952.083 99.5611C1007.44 39.4638 1097.1 39.4638 1152.46 99.5612L1305.3 265.719L1311.18 271.451L1465.77 435.731C1521.68 495.235 1521.68 591.608 1465.77 651.113L1311.2 815.378C1311.15 815.428 1311.07 815.409 1311.05 815.342V815.342Z" stroke="url(#paint13_linear)" stroke-width="1.75" stroke-miterlimit="10" stroke-linecap="round"/>
<path d="M1311.05 815.342C1311.03 815.276 1310.94 815.257 1310.89 815.307L1193.57 940.035C1158.16 977.694 1158.16 1038.78 1193.57 1076.44L1310.77 1201.04C1310.82 1201.09 1310.91 1201.05 1310.91 1200.98V1200.98C1310.91 1200.91 1310.99 1200.88 1311.04 1200.93L1465.49 1365.07C1521.4 1424.57 1521.4 1520.94 1465.49 1580.45L1310.91 1744.73L1304.29 1751.65L1151.45 1917.8C1096.09 1977.9 1006.43 1977.9 951.071 1917.8L798.36 1751.78C798.312 1751.73 798.349 1751.65 798.419 1751.65V1751.65C798.489 1751.65 798.526 1751.56 798.478 1751.51L682.826 1625.82C647.79 1587.76 590.959 1587.76 555.922 1625.82L440.055 1751.94C439.996 1752 439.912 1752.04 439.824 1752.04V1752.04C439.736 1752.04 439.652 1752.08 439.593 1752.14L287.217 1917.8C231.858 1977.9 142.198 1977.9 86.8382 1917.8L-65.9981 1751.65L-71.8835 1745.91L-226.467 1581.63C-282.378 1522.13 -282.378 1425.76 -226.467 1366.25L-71.7915 1202.17L45.6405 1077.33C81.0448 1039.67 81.0448 978.584 45.6405 940.924L-71.564 816.327C-71.6127 816.275 -71.6995 816.309 -71.6995 816.38V816.38C-71.6995 816.451 -71.7863 816.486 -71.835 816.434L-226.283 652.299C-282.194 592.794 -282.194 496.421 -226.283 436.917L-71.6995 272.638L-65.0784 265.719L87.7578 99.5611C143.117 39.4638 232.778 39.4638 288.137 99.5611L440.849 265.583C440.896 265.635 440.86 265.719 440.789 265.719V265.719C440.719 265.719 440.682 265.802 440.73 265.854L556.29 391.547C591.327 429.602 648.158 429.602 683.194 391.547L799.245 265.425C799.305 265.36 799.389 265.323 799.477 265.323V265.323C799.564 265.323 799.648 265.286 799.708 265.222L952.083 99.5611C1007.44 39.4638 1097.1 39.4638 1152.46 99.5612L1305.3 265.719L1311.18 271.451L1465.77 435.731C1521.68 495.235 1521.68 591.608 1465.77 651.113L1311.2 815.378C1311.15 815.428 1311.07 815.409 1311.05 815.342V815.342Z" stroke="url(#paint14_linear)" stroke-width="1.75" stroke-miterlimit="10" stroke-linecap="round"/>
<path d="M1304.43 817.172C1304.4 817.125 1304.34 817.114 1304.31 817.153L1188.05 940.727C1152.92 977.992 1152.92 1038.48 1188.05 1075.85L1304.15 1199.26C1304.2 1199.31 1304.29 1199.28 1304.29 1199.21V1199.21C1304.29 1199.13 1304.38 1199.1 1304.42 1199.15L1457.4 1361.71C1512.85 1420.62 1512.85 1516.1 1457.4 1575.01L1304.38 1737.71L1297.85 1744.53L1146.49 1909.11C1091.68 1968.71 1002.85 1968.71 948.038 1909.11L796.798 1744.66C796.75 1744.61 796.787 1744.53 796.857 1744.53V1744.53C796.927 1744.53 796.964 1744.45 796.916 1744.39L682.276 1619.99C647.607 1582.23 591.328 1582.23 556.568 1619.99L441.681 1744.86C441.641 1744.9 441.585 1744.92 441.527 1744.92V1744.92C441.468 1744.92 441.412 1744.95 441.372 1744.99L290.346 1909.11C235.538 1968.71 146.705 1968.71 91.8976 1909.11L-59.4673 1744.53L-65.2607 1738.8L-218.373 1576.1C-273.824 1517.19 -273.824 1421.7 -218.373 1362.79L-65.1687 1200.29L51.1597 1076.64C86.2881 1039.37 86.2881 978.881 51.1597 941.518L-64.9752 818.071C-65.0117 818.032 -65.0768 818.058 -65.0768 818.111V818.111C-65.0768 818.164 -65.1419 818.19 -65.1784 818.151L-218.189 655.561C-273.64 596.65 -273.64 501.167 -218.189 442.256L-65.0768 279.558L-58.5477 272.738L92.8173 108.261C147.625 48.6575 236.458 48.6575 291.265 108.261L442.506 272.701C442.553 272.753 442.517 272.836 442.446 272.836V272.836C442.376 272.836 442.339 272.92 442.387 272.972L556.936 397.479C591.604 435.238 647.883 435.238 682.644 397.479L797.623 272.509C797.662 272.465 797.718 272.441 797.777 272.441V272.441C797.835 272.441 797.891 272.416 797.931 272.373L948.866 108.261C1003.67 48.6575 1092.51 48.6575 1147.31 108.261L1298.68 272.836L1304.47 278.569L1457.58 441.267C1513.04 500.178 1513.04 595.662 1457.58 654.573L1304.55 817.191C1304.51 817.229 1304.45 817.219 1304.43 817.172V817.172Z" stroke="url(#paint15_linear)" stroke-width="1.75" stroke-miterlimit="10" stroke-linecap="round"/>
<path d="M1304.43 817.172C1304.4 817.125 1304.34 817.114 1304.31 817.153L1188.05 940.727C1152.92 977.992 1152.92 1038.48 1188.05 1075.85L1304.15 1199.26C1304.2 1199.31 1304.29 1199.28 1304.29 1199.21V1199.21C1304.29 1199.13 1304.38 1199.1 1304.42 1199.15L1457.4 1361.71C1512.85 1420.62 1512.85 1516.1 1457.4 1575.01L1304.38 1737.71L1297.85 1744.53L1146.49 1909.11C1091.68 1968.71 1002.85 1968.71 948.038 1909.11L796.798 1744.66C796.75 1744.61 796.787 1744.53 796.857 1744.53V1744.53C796.927 1744.53 796.964 1744.45 796.916 1744.39L682.276 1619.99C647.607 1582.23 591.328 1582.23 556.568 1619.99L441.681 1744.86C441.641 1744.9 441.585 1744.92 441.527 1744.92V1744.92C441.468 1744.92 441.412 1744.95 441.372 1744.99L290.346 1909.11C235.538 1968.71 146.705 1968.71 91.8976 1909.11L-59.4673 1744.53L-65.2607 1738.8L-218.373 1576.1C-273.824 1517.19 -273.824 1421.7 -218.373 1362.79L-65.1687 1200.29L51.1597 1076.64C86.2881 1039.37 86.2881 978.881 51.1597 941.518L-64.9752 818.071C-65.0117 818.032 -65.0768 818.058 -65.0768 818.111V818.111C-65.0768 818.164 -65.1419 818.19 -65.1784 818.151L-218.189 655.561C-273.64 596.65 -273.64 501.167 -218.189 442.256L-65.0768 279.558L-58.5477 272.738L92.8173 108.261C147.625 48.6575 236.458 48.6575 291.265 108.261L442.506 272.701C442.553 272.753 442.517 272.836 442.446 272.836V272.836C442.376 272.836 442.339 272.92 442.387 272.972L556.936 397.479C591.604 435.238 647.883 435.238 682.644 397.479L797.623 272.509C797.662 272.465 797.718 272.441 797.777 272.441V272.441C797.835 272.441 797.891 272.416 797.931 272.373L948.866 108.261C1003.67 48.6575 1092.51 48.6575 1147.31 108.261L1298.68 272.836L1304.47 278.569L1457.58 441.267C1513.04 500.178 1513.04 595.662 1457.58 654.573L1304.55 817.191C1304.51 817.229 1304.45 817.219 1304.43 817.172V817.172Z" stroke="url(#paint16_linear)" stroke-width="1.75" stroke-miterlimit="10" stroke-linecap="round"/>
<path d="M-nan -nanL1297.85 818.951L1182.63 941.419C1147.87 978.387 1147.87 1038.29 1182.63 1075.25L1297.66 1197.52C1297.7 1197.55 1297.76 1197.53 1297.76 1197.48V1197.48C1297.76 1197.42 1297.83 1197.4 1297.86 1197.43L1449.4 1358.44C1504.3 1416.76 1504.3 1511.36 1449.4 1569.67L1297.76 1730.79L1291.32 1737.51L1141.43 1900.51C1087.17 1959.52 999.169 1959.52 944.913 1900.51L795.144 1737.65C795.096 1737.59 795.133 1737.51 795.203 1737.51V1737.51C795.273 1737.51 795.31 1737.43 795.262 1737.38L681.817 1614.05C647.425 1576.69 591.697 1576.69 557.304 1614.05L443.429 1737.84C443.389 1737.88 443.334 1737.91 443.275 1737.91V1737.91C443.216 1737.91 443.16 1737.93 443.121 1737.97L293.565 1900.51C239.309 1959.52 151.304 1959.52 97.0483 1900.51L-52.8453 1737.51L-58.5467 1731.88L-210.188 1570.76C-265.087 1512.44 -265.087 1417.85 -210.188 1359.53L-58.4548 1198.61L56.7702 1076.14C91.5308 1039.18 91.5308 979.276 56.7702 942.308L-58.2612 820.047C-58.2976 820.008 -58.3628 820.034 -58.3628 820.087V820.087C-58.3628 820.141 -58.4279 820.167 -58.4644 820.128L-210.004 659.119C-264.903 600.801 -264.903 506.207 -210.004 447.889L-58.3628 286.773L-51.9256 280.051L97.968 117.057C152.224 58.047 240.229 58.047 294.485 117.057L444.254 279.916C444.302 279.968 444.265 280.051 444.195 280.051V280.051C444.124 280.051 444.088 280.135 444.135 280.187L557.488 403.31C591.881 440.673 647.608 440.673 682.001 403.31L795.876 279.526C795.916 279.483 795.972 279.458 796.031 279.458V279.458C796.089 279.458 796.145 279.434 796.185 279.391L945.74 116.859C999.996 57.8492 1088 57.8492 1142.26 116.859L1292.15 279.854L1297.85 285.488L1449.49 446.604C1504.39 504.922 1504.39 599.516 1449.49 657.834L1297.85 818.951L-nan -nanL-nan -nanZ" stroke="url(#paint17_linear)" stroke-width="1.75" stroke-miterlimit="10" stroke-linecap="round"/>
<path d="M-nan -nanL1297.85 818.951L1182.63 941.419C1147.87 978.387 1147.87 1038.29 1182.63 1075.25L1297.66 1197.52C1297.7 1197.55 1297.76 1197.53 1297.76 1197.48V1197.48C1297.76 1197.42 1297.83 1197.4 1297.86 1197.43L1449.4 1358.44C1504.3 1416.76 1504.3 1511.36 1449.4 1569.67L1297.76 1730.79L1291.32 1737.51L1141.43 1900.51C1087.17 1959.52 999.169 1959.52 944.913 1900.51L795.144 1737.65C795.096 1737.59 795.133 1737.51 795.203 1737.51V1737.51C795.273 1737.51 795.31 1737.43 795.262 1737.38L681.817 1614.05C647.425 1576.69 591.697 1576.69 557.304 1614.05L443.429 1737.84C443.389 1737.88 443.334 1737.91 443.275 1737.91V1737.91C443.216 1737.91 443.16 1737.93 443.121 1737.97L293.565 1900.51C239.309 1959.52 151.304 1959.52 97.0483 1900.51L-52.8453 1737.51L-58.5467 1731.88L-210.188 1570.76C-265.087 1512.44 -265.087 1417.85 -210.188 1359.53L-58.4548 1198.61L56.7702 1076.14C91.5308 1039.18 91.5308 979.276 56.7702 942.308L-58.2612 820.047C-58.2976 820.008 -58.3628 820.034 -58.3628 820.087V820.087C-58.3628 820.141 -58.4279 820.167 -58.4644 820.128L-210.004 659.119C-264.903 600.801 -264.903 506.207 -210.004 447.889L-58.3628 286.773L-51.9256 280.051L97.968 117.057C152.224 58.047 240.229 58.047 294.485 117.057L444.254 279.916C444.302 279.968 444.265 280.051 444.195 280.051V280.051C444.124 280.051 444.088 280.135 444.135 280.187L557.488 403.31C591.881 440.673 647.608 440.673 682.001 403.31L795.876 279.526C795.916 279.483 795.972 279.458 796.031 279.458V279.458C796.089 279.458 796.145 279.434 796.185 279.391L945.74 116.859C999.996 57.8492 1088 57.8492 1142.26 116.859L1292.15 279.854L1297.85 285.488L1449.49 446.604C1504.39 504.922 1504.39 599.516 1449.49 657.834L1297.85 818.951L-nan -nanL-nan -nanZ" stroke="url(#paint18_linear)" stroke-width="1.75" stroke-miterlimit="10" stroke-linecap="round"/>
<path d="M1291.32 820.928C1291.27 820.833 1291.15 820.813 1291.08 820.889L1177.2 942.012C1142.8 978.585 1142.8 1037.89 1177.2 1074.46L1291.12 1195.54C1291.16 1195.58 1291.23 1195.55 1291.23 1195.5V1195.5C1291.23 1195.45 1291.29 1195.42 1291.33 1195.46L1441.4 1354.98C1495.74 1412.81 1495.74 1506.41 1441.4 1564.24L1291.23 1723.87L1284.79 1730.59L1136.27 1892.01C1082.48 1950.42 995.393 1950.42 941.597 1892.01L793.207 1730.73C793.16 1730.68 793.196 1730.59 793.267 1730.59V1730.59C793.337 1730.59 793.374 1730.51 793.326 1730.46L681.076 1608.22C647.051 1571.26 591.876 1571.26 557.851 1608.22L445.079 1730.72C445.04 1730.77 444.984 1730.79 444.925 1730.79V1730.79C444.866 1730.79 444.81 1730.81 444.771 1730.86L296.687 1891.81C242.891 1950.22 155.805 1950.22 102.009 1891.81L-46.5053 1730.39L-52.2068 1724.76L-202.376 1565.13C-256.724 1507.3 -256.724 1413.7 -202.376 1355.87L-52.1148 1196.44L61.9147 1075.16C96.3075 1038.58 96.3075 979.277 61.9147 942.704L-52.0132 821.629C-52.0497 821.59 -52.1148 821.616 -52.1148 821.669V821.669C-52.1148 821.723 -52.1799 821.748 -52.2164 821.71L-202.284 662.184C-256.632 604.36 -256.632 510.754 -202.284 452.931L-52.0228 293.594L-45.5857 286.872L102.929 125.558C156.725 67.1412 243.81 67.1412 297.606 125.558L445.996 286.836C446.044 286.887 446.007 286.971 445.937 286.971V286.971C445.866 286.971 445.83 287.055 445.877 287.106L558.127 409.143C592.152 446.11 647.327 446.11 681.352 409.143L794.124 286.643C794.164 286.6 794.22 286.576 794.278 286.576V286.576C794.337 286.576 794.393 286.551 794.432 286.508L942.517 125.558C996.313 67.1412 1083.4 67.1412 1137.19 125.558L1285.71 286.971L1291.41 292.605L1441.58 452.239C1495.93 510.063 1495.93 603.668 1441.58 661.492L1291.56 820.967C1291.49 821.043 1291.36 821.023 1291.32 820.928V820.928Z" stroke="url(#paint19_linear)" stroke-width="1.75" stroke-miterlimit="10" stroke-linecap="round"/>
<path d="M1291.32 820.928C1291.27 820.833 1291.15 820.813 1291.08 820.889L1177.2 942.012C1142.8 978.585 1142.8 1037.89 1177.2 1074.46L1291.12 1195.54C1291.16 1195.58 1291.23 1195.55 1291.23 1195.5V1195.5C1291.23 1195.45 1291.29 1195.42 1291.33 1195.46L1441.4 1354.98C1495.74 1412.81 1495.74 1506.41 1441.4 1564.24L1291.23 1723.87L1284.79 1730.59L1136.27 1892.01C1082.48 1950.42 995.393 1950.42 941.597 1892.01L793.207 1730.73C793.16 1730.68 793.196 1730.59 793.267 1730.59V1730.59C793.337 1730.59 793.374 1730.51 793.326 1730.46L681.076 1608.22C647.051 1571.26 591.876 1571.26 557.851 1608.22L445.079 1730.72C445.04 1730.77 444.984 1730.79 444.925 1730.79V1730.79C444.866 1730.79 444.81 1730.81 444.771 1730.86L296.687 1891.81C242.891 1950.22 155.805 1950.22 102.009 1891.81L-46.5053 1730.39L-52.2068 1724.76L-202.376 1565.13C-256.724 1507.3 -256.724 1413.7 -202.376 1355.87L-52.1148 1196.44L61.9147 1075.16C96.3075 1038.58 96.3075 979.277 61.9147 942.704L-52.0132 821.629C-52.0497 821.59 -52.1148 821.616 -52.1148 821.669V821.669C-52.1148 821.723 -52.1799 821.748 -52.2164 821.71L-202.284 662.184C-256.632 604.36 -256.632 510.754 -202.284 452.931L-52.0228 293.594L-45.5857 286.872L102.929 125.558C156.725 67.1412 243.81 67.1412 297.606 125.558L445.996 286.836C446.044 286.887 446.007 286.971 445.937 286.971V286.971C445.866 286.971 445.83 287.055 445.877 287.106L558.127 409.143C592.152 446.11 647.327 446.11 681.352 409.143L794.124 286.643C794.164 286.6 794.22 286.576 794.278 286.576V286.576C794.337 286.576 794.393 286.551 794.432 286.508L942.517 125.558C996.313 67.1412 1083.4 67.1412 1137.19 125.558L1285.71 286.971L1291.41 292.605L1441.58 452.239C1495.93 510.063 1495.93 603.668 1441.58 661.492L1291.56 820.967C1291.49 821.043 1291.36 821.023 1291.32 820.928V820.928Z" stroke="url(#paint20_linear)" stroke-width="1.75" stroke-miterlimit="10" stroke-linecap="round"/>
<path d="M1284.74 822.706C1284.72 822.659 1284.66 822.649 1284.62 822.687L1171.77 942.703C1137.66 978.979 1137.66 1037.69 1171.77 1073.87L1284.51 1193.76C1284.54 1193.8 1284.61 1193.77 1284.61 1193.72V1193.72C1284.61 1193.67 1284.67 1193.64 1284.71 1193.68L1433.31 1351.62C1487.1 1408.85 1487.1 1501.57 1433.31 1558.8L1284.61 1716.75L1278.26 1723.38L1131.22 1883.21C1077.97 1941.03 991.717 1941.03 938.472 1883.21L791.554 1723.51C791.506 1723.46 791.543 1723.38 791.613 1723.38V1723.38C791.684 1723.38 791.72 1723.29 791.673 1723.24L680.435 1602.39C646.686 1565.72 592.062 1565.72 558.405 1602.39L446.829 1723.7C446.789 1723.75 446.733 1723.77 446.674 1723.77V1723.77C446.616 1723.77 446.56 1723.8 446.52 1723.84L299.815 1883.21C246.571 1941.03 160.313 1941.03 107.069 1883.21L-39.9741 1723.38L-45.5837 1717.84L-194.282 1559.79C-248.078 1502.56 -248.078 1409.84 -194.282 1352.61L-45.4917 1194.76L67.4343 1074.66C101.551 1038.38 101.551 979.671 67.4343 943.494L-45.3901 823.605C-45.4266 823.566 -45.4917 823.592 -45.4917 823.645V823.645C-45.4917 823.698 -45.5568 823.724 -45.5933 823.686L-194.098 665.84C-247.894 608.609 -247.894 515.893 -194.098 458.663L-45.3997 300.61L-39.0545 293.988L107.988 134.157C161.233 76.3326 247.491 76.3326 300.735 134.157L447.653 293.853C447.701 293.904 447.664 293.988 447.594 293.988V293.988C447.524 293.988 447.487 294.072 447.535 294.123L558.773 414.973C592.522 451.645 647.145 451.645 680.803 414.973L792.471 293.66C792.51 293.617 792.566 293.593 792.625 293.593V293.593C792.684 293.593 792.739 293.568 792.779 293.525L939.392 134.157C992.636 76.3326 1078.89 76.3326 1132.14 134.157L1279.18 293.988L1284.79 299.523L1433.49 457.575C1487.29 514.806 1487.29 607.522 1433.49 664.753L1284.87 822.726C1284.83 822.764 1284.77 822.754 1284.74 822.706V822.706Z" stroke="url(#paint21_linear)" stroke-width="1.75" stroke-miterlimit="10" stroke-linecap="round"/>
<path d="M1284.74 822.706C1284.72 822.659 1284.66 822.649 1284.62 822.687L1171.77 942.703C1137.66 978.979 1137.66 1037.69 1171.77 1073.87L1284.51 1193.76C1284.54 1193.8 1284.61 1193.77 1284.61 1193.72V1193.72C1284.61 1193.67 1284.67 1193.64 1284.71 1193.68L1433.31 1351.62C1487.1 1408.85 1487.1 1501.57 1433.31 1558.8L1284.61 1716.75L1278.26 1723.38L1131.22 1883.21C1077.97 1941.03 991.717 1941.03 938.472 1883.21L791.554 1723.51C791.506 1723.46 791.543 1723.38 791.613 1723.38V1723.38C791.684 1723.38 791.72 1723.29 791.673 1723.24L680.435 1602.39C646.686 1565.72 592.062 1565.72 558.405 1602.39L446.829 1723.7C446.789 1723.75 446.733 1723.77 446.674 1723.77V1723.77C446.616 1723.77 446.56 1723.8 446.52 1723.84L299.815 1883.21C246.571 1941.03 160.313 1941.03 107.069 1883.21L-39.9741 1723.38L-45.5837 1717.84L-194.282 1559.79C-248.078 1502.56 -248.078 1409.84 -194.282 1352.61L-45.4917 1194.76L67.4343 1074.66C101.551 1038.38 101.551 979.671 67.4343 943.494L-45.3901 823.605C-45.4266 823.566 -45.4917 823.592 -45.4917 823.645V823.645C-45.4917 823.698 -45.5568 823.724 -45.5933 823.686L-194.098 665.84C-247.894 608.609 -247.894 515.893 -194.098 458.663L-45.3997 300.61L-39.0545 293.988L107.988 134.157C161.233 76.3326 247.491 76.3326 300.735 134.157L447.653 293.853C447.701 293.904 447.664 293.988 447.594 293.988V293.988C447.524 293.988 447.487 294.072 447.535 294.123L558.773 414.973C592.522 451.645 647.145 451.645 680.803 414.973L792.471 293.66C792.51 293.617 792.566 293.593 792.625 293.593V293.593C792.684 293.593 792.739 293.568 792.779 293.525L939.392 134.157C992.636 76.3326 1078.89 76.3326 1132.14 134.157L1279.18 293.988L1284.79 299.523L1433.49 457.575C1487.29 514.806 1487.29 607.522 1433.49 664.753L1284.87 822.726C1284.83 822.764 1284.77 822.754 1284.74 822.706V822.706Z" stroke="url(#paint22_linear)" stroke-width="1.75" stroke-miterlimit="10" stroke-linecap="round"/>
<path d="M1278.13 824.484C1278.11 824.437 1278.05 824.427 1278.01 824.465L1166.26 943.295C1132.51 979.176 1132.51 1037.3 1166.26 1073.18L1277.98 1191.88C1278.02 1191.92 1278.08 1191.89 1278.08 1191.84V1191.84C1278.08 1191.79 1278.15 1191.76 1278.19 1191.8L1425.31 1348.16C1478.56 1404.8 1478.56 1496.63 1425.31 1553.26L1278.08 1709.73L1271.83 1716.26L1126.26 1874.51C1073.57 1931.74 988.137 1931.74 935.444 1874.51L789.997 1716.39C789.949 1716.34 789.986 1716.26 790.056 1716.26V1716.26C790.127 1716.26 790.163 1716.17 790.116 1716.12L679.981 1596.46C646.6 1560.18 592.528 1560.18 559.147 1596.46L448.49 1716.59C448.45 1716.63 448.394 1716.65 448.336 1716.65V1716.65C448.277 1716.65 448.221 1716.68 448.181 1716.72L303.04 1874.61C250.347 1931.84 164.917 1931.84 112.224 1874.61L-33.3471 1716.36L-38.9566 1710.92L-186.183 1554.45C-239.428 1497.81 -239.428 1405.99 -186.183 1349.35L-38.8646 1193.08L72.9578 1074.17C106.707 1038.28 106.707 980.164 72.9579 944.284L-38.763 825.482C-38.7995 825.443 -38.8646 825.469 -38.8646 825.522V825.522C-38.8646 825.576 -38.9297 825.601 -38.9662 825.563L-186.091 669.2C-239.336 612.562 -239.336 520.736 -186.091 464.098L-38.8646 307.627L-32.6114 301.104L113.052 142.854C165.745 85.6229 251.175 85.6229 303.868 142.854L449.315 300.968C449.362 301.02 449.326 301.104 449.255 301.104V301.104C449.185 301.104 449.148 301.187 449.196 301.239L559.33 420.903C592.712 457.179 646.784 457.179 680.165 420.903L790.73 300.776C790.769 300.733 790.825 300.708 790.884 300.708V300.708C790.942 300.708 790.998 300.684 791.038 300.641L936.18 142.854C988.872 85.6229 1074.3 85.6229 1127 142.854L1272.66 301.104L1278.27 306.54L1425.49 463.011C1478.74 519.649 1478.74 611.475 1425.49 668.113L1278.25 824.504C1278.21 824.542 1278.15 824.532 1278.13 824.484V824.484Z" stroke="url(#paint23_linear)" stroke-width="1.75" stroke-miterlimit="10" stroke-linecap="round"/>
<path d="M1278.13 824.484C1278.11 824.437 1278.05 824.427 1278.01 824.465L1166.26 943.295C1132.51 979.176 1132.51 1037.3 1166.26 1073.18L1277.98 1191.88C1278.02 1191.92 1278.08 1191.89 1278.08 1191.84V1191.84C1278.08 1191.79 1278.15 1191.76 1278.19 1191.8L1425.31 1348.16C1478.56 1404.8 1478.56 1496.63 1425.31 1553.26L1278.08 1709.73L1271.83 1716.26L1126.26 1874.51C1073.57 1931.74 988.137 1931.74 935.444 1874.51L789.997 1716.39C789.949 1716.34 789.986 1716.26 790.056 1716.26V1716.26C790.127 1716.26 790.163 1716.17 790.116 1716.12L679.981 1596.46C646.6 1560.18 592.528 1560.18 559.147 1596.46L448.49 1716.59C448.45 1716.63 448.394 1716.65 448.336 1716.65V1716.65C448.277 1716.65 448.221 1716.68 448.181 1716.72L303.04 1874.61C250.347 1931.84 164.917 1931.84 112.224 1874.61L-33.3471 1716.36L-38.9566 1710.92L-186.183 1554.45C-239.428 1497.81 -239.428 1405.99 -186.183 1349.35L-38.8646 1193.08L72.9578 1074.17C106.707 1038.28 106.707 980.164 72.9579 944.284L-38.763 825.482C-38.7995 825.443 -38.8646 825.469 -38.8646 825.522V825.522C-38.8646 825.576 -38.9297 825.601 -38.9662 825.563L-186.091 669.2C-239.336 612.562 -239.336 520.736 -186.091 464.098L-38.8646 307.627L-32.6114 301.104L113.052 142.854C165.745 85.6229 251.175 85.6229 303.868 142.854L449.315 300.968C449.362 301.02 449.326 301.104 449.255 301.104V301.104C449.185 301.104 449.148 301.187 449.196 301.239L559.33 420.903C592.712 457.179 646.784 457.179 680.165 420.903L790.73 300.776C790.769 300.733 790.825 300.708 790.884 300.708V300.708C790.942 300.708 790.998 300.684 791.038 300.641L936.18 142.854C988.872 85.6229 1074.3 85.6229 1127 142.854L1272.66 301.104L1278.27 306.54L1425.49 463.011C1478.74 519.649 1478.74 611.475 1425.49 668.113L1278.25 824.504C1278.21 824.542 1278.15 824.532 1278.13 824.484V824.484Z" stroke="url(#paint24_linear)" stroke-width="1.75" stroke-miterlimit="10" stroke-linecap="round"/>
<path d="M1271.64 826.365C1271.59 826.311 1271.51 826.311 1271.46 826.364L1160.83 943.989C1127.45 979.474 1127.45 1037.1 1160.83 1072.59L1271.36 1190.1C1271.39 1190.14 1271.46 1190.12 1271.46 1190.06V1190.06C1271.46 1190.01 1271.52 1189.98 1271.56 1190.02L1417.21 1344.8C1470 1400.85 1470 1491.78 1417.21 1547.93L1271.46 1702.82L1265.2 1709.34L1121.1 1866.01C1068.96 1922.75 984.36 1922.75 932.127 1866.01L788.152 1709.48C788.104 1709.42 788.141 1709.34 788.211 1709.34V1709.34C788.281 1709.34 788.318 1709.26 788.271 1709.21L679.239 1590.73C646.226 1554.85 592.614 1554.85 559.6 1590.73L450.231 1709.57C450.191 1709.61 450.135 1709.64 450.077 1709.64V1709.64C450.018 1709.64 449.962 1709.66 449.923 1709.71L306.161 1865.91C254.02 1922.65 169.417 1922.65 117.184 1865.91L-26.9159 1709.24L-32.4334 1703.81L-178.189 1548.92C-230.973 1492.87 -230.973 1401.94 -178.189 1345.79L-32.3415 1191.1L78.3775 1073.48C111.759 1037.99 111.759 980.364 78.3775 944.879L-32.2399 827.362C-32.2763 827.323 -32.3414 827.349 -32.3414 827.402V827.402C-32.3414 827.456 -32.4066 827.481 -32.443 827.443L-178.097 672.662C-230.882 616.617 -230.882 525.68 -178.097 469.537L-32.2495 314.647L-25.9962 308.124L118.104 151.455C170.245 94.7187 254.847 94.7187 307.08 151.455L451.056 307.988C451.104 308.04 451.067 308.124 450.997 308.124V308.124C450.926 308.124 450.89 308.207 450.937 308.259L559.968 426.737C592.982 462.617 646.594 462.617 679.607 426.737L789.068 307.796C789.108 307.753 789.164 307.728 789.223 307.728V307.728C789.281 307.728 789.337 307.704 789.377 307.661L933.139 151.455C985.28 94.7187 1069.88 94.7187 1122.12 151.455L1266.22 308.124L1271.73 313.56L1417.49 468.449C1470.27 524.494 1470.27 615.431 1417.49 671.574L1271.83 826.365C1271.78 826.418 1271.69 826.418 1271.64 826.365V826.365Z" stroke="url(#paint25_linear)" stroke-width="1.75" stroke-miterlimit="10" stroke-linecap="round"/>
<path d="M1271.64 826.365C1271.59 826.311 1271.51 826.311 1271.46 826.364L1160.83 943.989C1127.45 979.474 1127.45 1037.1 1160.83 1072.59L1271.36 1190.1C1271.39 1190.14 1271.46 1190.12 1271.46 1190.06V1190.06C1271.46 1190.01 1271.52 1189.98 1271.56 1190.02L1417.21 1344.8C1470 1400.85 1470 1491.78 1417.21 1547.93L1271.46 1702.82L1265.2 1709.34L1121.1 1866.01C1068.96 1922.75 984.36 1922.75 932.127 1866.01L788.152 1709.48C788.104 1709.42 788.141 1709.34 788.211 1709.34V1709.34C788.281 1709.34 788.318 1709.26 788.271 1709.21L679.239 1590.73C646.226 1554.85 592.614 1554.85 559.6 1590.73L450.231 1709.57C450.191 1709.61 450.135 1709.64 450.077 1709.64V1709.64C450.018 1709.64 449.962 1709.66 449.923 1709.71L306.161 1865.91C254.02 1922.65 169.417 1922.65 117.184 1865.91L-26.9159 1709.24L-32.4334 1703.81L-178.189 1548.92C-230.973 1492.87 -230.973 1401.94 -178.189 1345.79L-32.3415 1191.1L78.3775 1073.48C111.759 1037.99 111.759 980.364 78.3775 944.879L-32.2399 827.362C-32.2763 827.323 -32.3414 827.349 -32.3414 827.402V827.402C-32.3414 827.456 -32.4066 827.481 -32.443 827.443L-178.097 672.662C-230.882 616.617 -230.882 525.68 -178.097 469.537L-32.2495 314.647L-25.9962 308.124L118.104 151.455C170.245 94.7187 254.847 94.7187 307.08 151.455L451.056 307.988C451.104 308.04 451.067 308.124 450.997 308.124V308.124C450.926 308.124 450.89 308.207 450.937 308.259L559.968 426.737C592.982 462.617 646.594 462.617 679.607 426.737L789.068 307.796C789.108 307.753 789.164 307.728 789.223 307.728V307.728C789.281 307.728 789.337 307.704 789.377 307.661L933.139 151.455C985.28 94.7187 1069.88 94.7187 1122.12 151.455L1266.22 308.124L1271.73 313.56L1417.49 468.449C1470.27 524.494 1470.27 615.431 1417.49 671.574L1271.83 826.365C1271.78 826.418 1271.69 826.418 1271.64 826.365V826.365Z" stroke="url(#paint26_linear)" stroke-width="1.75" stroke-miterlimit="10" stroke-linecap="round"/>
<path d="M1265.07 828.241C1265.04 828.194 1264.98 828.184 1264.95 828.222L1155.4 944.68C1122.3 979.868 1122.3 1036.8 1155.4 1071.99L1264.83 1188.32C1264.86 1188.36 1264.93 1188.33 1264.93 1188.28V1188.28C1264.93 1188.23 1264.99 1188.2 1265.03 1188.24L1409.21 1341.44C1461.44 1396.99 1461.44 1486.94 1409.21 1542.49L1264.93 1695.8L1258.77 1702.22L1116.14 1857.31C1064.46 1913.45 980.774 1913.45 929.093 1857.31L786.588 1702.36C786.541 1702.31 786.577 1702.22 786.648 1702.22V1702.22C786.718 1702.22 786.755 1702.14 786.707 1702.09L678.779 1584.8C646.042 1549.21 593.073 1549.21 560.336 1584.8L451.978 1702.45C451.939 1702.49 451.883 1702.52 451.824 1702.52V1702.52C451.765 1702.52 451.709 1702.54 451.67 1702.59L309.287 1857.31C257.606 1913.45 173.923 1913.45 122.242 1857.31L-20.3867 1702.22L-25.8123 1696.89L-170.096 1543.58C-222.329 1488.03 -222.329 1398.08 -170.096 1342.53L-25.7203 1189.42L83.8951 1072.88C117 1037.69 117 980.758 83.8951 945.569L-25.5268 829.239C-25.5632 829.2 -25.6283 829.226 -25.6283 829.279V829.279C-25.6283 829.332 -25.6934 829.358 -25.7299 829.319L-169.912 676.12C-222.145 620.569 -222.145 530.621 -169.912 475.07L-25.6283 321.763L-19.4671 315.338L123.07 160.152C174.751 104.008 258.434 104.008 310.115 160.152L452.619 315.103C452.667 315.155 452.63 315.239 452.56 315.239V315.239C452.49 315.239 452.453 315.322 452.5 315.374L560.428 432.666C593.165 468.25 646.134 468.25 678.872 432.666L787.229 314.911C787.269 314.868 787.325 314.843 787.383 314.843V314.843C787.442 314.843 787.498 314.819 787.538 314.776L929.828 160.152C981.509 104.008 1065.19 104.008 1116.87 160.152L1259.5 315.239L1264.93 320.576L1409.21 473.884C1461.44 529.435 1461.44 619.383 1409.21 674.933L1265.19 828.26C1265.15 828.298 1265.09 828.288 1265.07 828.241V828.241Z" stroke="url(#paint27_linear)" stroke-width="1.75" stroke-miterlimit="10" stroke-linecap="round"/>
<path d="M1265.07 828.241C1265.04 828.194 1264.98 828.184 1264.95 828.222L1155.4 944.68C1122.3 979.868 1122.3 1036.8 1155.4 1071.99L1264.83 1188.32C1264.86 1188.36 1264.93 1188.33 1264.93 1188.28V1188.28C1264.93 1188.23 1264.99 1188.2 1265.03 1188.24L1409.21 1341.44C1461.44 1396.99 1461.44 1486.94 1409.21 1542.49L1264.93 1695.8L1258.77 1702.22L1116.14 1857.31C1064.46 1913.45 980.774 1913.45 929.093 1857.31L786.588 1702.36C786.541 1702.31 786.577 1702.22 786.648 1702.22V1702.22C786.718 1702.22 786.755 1702.14 786.707 1702.09L678.779 1584.8C646.042 1549.21 593.073 1549.21 560.336 1584.8L451.978 1702.45C451.939 1702.49 451.883 1702.52 451.824 1702.52V1702.52C451.765 1702.52 451.709 1702.54 451.67 1702.59L309.287 1857.31C257.606 1913.45 173.923 1913.45 122.242 1857.31L-20.3867 1702.22L-25.8123 1696.89L-170.096 1543.58C-222.329 1488.03 -222.329 1398.08 -170.096 1342.53L-25.7203 1189.42L83.8951 1072.88C117 1037.69 117 980.758 83.8951 945.569L-25.5268 829.239C-25.5632 829.2 -25.6283 829.226 -25.6283 829.279V829.279C-25.6283 829.332 -25.6934 829.358 -25.7299 829.319L-169.912 676.12C-222.145 620.569 -222.145 530.621 -169.912 475.07L-25.6283 321.763L-19.4671 315.338L123.07 160.152C174.751 104.008 258.434 104.008 310.115 160.152L452.619 315.103C452.667 315.155 452.63 315.239 452.56 315.239V315.239C452.49 315.239 452.453 315.322 452.5 315.374L560.428 432.666C593.165 468.25 646.134 468.25 678.872 432.666L787.229 314.911C787.269 314.868 787.325 314.843 787.383 314.843V314.843C787.442 314.843 787.498 314.819 787.538 314.776L929.828 160.152C981.509 104.008 1065.19 104.008 1116.87 160.152L1259.5 315.239L1264.93 320.576L1409.21 473.884C1461.44 529.435 1461.44 619.383 1409.21 674.933L1265.19 828.26C1265.15 828.298 1265.09 828.288 1265.07 828.241V828.241Z" stroke="url(#paint28_linear)" stroke-width="1.75" stroke-miterlimit="10" stroke-linecap="round"/>
</g>
<defs>
<linearGradient id="paint0_linear" x1="-0.458841" y1="54.0128" x2="142.461" y2="54.0128" gradientUnits="userSpaceOnUse">
<stop stop-color="#B480FF"/>
<stop offset="0.604167" stop-color="#5F00E6"/>
<stop offset="0.859375" stop-color="#1AA4FF" stop-opacity="0.49"/>
<stop offset="1" stop-color="#28B86A" stop-opacity="0.27"/>
</linearGradient>
<linearGradient id="paint1_linear" x1="619.828" y1="2023.78" x2="619.828" y2="-6.5486" gradientUnits="userSpaceOnUse">
<stop stop-color="#2DCF78"/>
</linearGradient>
<linearGradient id="paint2_linear" x1="619.828" y1="2023.78" x2="619.828" y2="-6.5486" gradientUnits="userSpaceOnUse">
<stop stop-color="#2DCF78"/>
</linearGradient>
<linearGradient id="paint3_linear" x1="619.916" y1="2014.68" x2="619.916" y2="2.75246" gradientUnits="userSpaceOnUse">
<stop stop-color="#2DCF78"/>
</linearGradient>
<linearGradient id="paint4_linear" x1="619.916" y1="2014.68" x2="619.916" y2="2.75246" gradientUnits="userSpaceOnUse">
<stop stop-color="#2DCF78"/>
</linearGradient>
<linearGradient id="paint5_linear" x1="619.871" y1="2005.55" x2="619.871" y2="11.8805" gradientUnits="userSpaceOnUse">
<stop stop-color="#2DCF78"/>
</linearGradient>
<linearGradient id="paint6_linear" x1="619.871" y1="2005.55" x2="619.871" y2="11.8805" gradientUnits="userSpaceOnUse">
<stop stop-color="#2DCF78"/>
</linearGradient>
<linearGradient id="paint7_linear" x1="619.823" y1="1996.45" x2="619.823" y2="20.8844" gradientUnits="userSpaceOnUse">
<stop stop-color="#2DCF78"/>
</linearGradient>
<linearGradient id="paint8_linear" x1="619.823" y1="1996.45" x2="619.823" y2="20.8844" gradientUnits="userSpaceOnUse">
<stop stop-color="#2DCF78"/>
</linearGradient>
<linearGradient id="paint9_linear" x1="619.961" y1="1987.35" x2="619.961" y2="29.9878" gradientUnits="userSpaceOnUse">
<stop stop-color="#2DCF78"/>
</linearGradient>
<linearGradient id="paint10_linear" x1="619.961" y1="1987.35" x2="619.961" y2="29.9878" gradientUnits="userSpaceOnUse">
<stop stop-color="#2DCF78"/>
</linearGradient>
<linearGradient id="paint11_linear" x1="619.91" y1="1978.15" x2="619.91" y2="39.1906" gradientUnits="userSpaceOnUse">
<stop stop-color="#2DCF78"/>
</linearGradient>
<linearGradient id="paint12_linear" x1="619.91" y1="1978.15" x2="619.91" y2="39.1906" gradientUnits="userSpaceOnUse">
<stop stop-color="#2DCF78"/>
</linearGradient>
<linearGradient id="paint13_linear" x1="619.861" y1="1969.04" x2="619.861" y2="48.293" gradientUnits="userSpaceOnUse">
<stop stop-color="#2DCF78"/>
</linearGradient>
<linearGradient id="paint14_linear" x1="619.861" y1="1969.04" x2="619.861" y2="48.293" gradientUnits="userSpaceOnUse">
<stop stop-color="#2DCF78"/>
</linearGradient>
<linearGradient id="paint15_linear" x1="619.814" y1="1959.92" x2="619.814" y2="57.4219" gradientUnits="userSpaceOnUse">
<stop stop-color="#2DCF78"/>
</linearGradient>
<linearGradient id="paint16_linear" x1="619.814" y1="1959.92" x2="619.814" y2="57.4219" gradientUnits="userSpaceOnUse">
<stop stop-color="#2DCF78"/>
</linearGradient>
<linearGradient id="paint17_linear" x1="619.86" y1="1950.81" x2="619.86" y2="66.5241" gradientUnits="userSpaceOnUse">
<stop stop-color="#2DCF78"/>
</linearGradient>
<linearGradient id="paint18_linear" x1="619.86" y1="1950.81" x2="619.86" y2="66.5241" gradientUnits="userSpaceOnUse">
<stop stop-color="#2DCF78"/>
</linearGradient>
<linearGradient id="paint19_linear" x1="619.806" y1="1941.81" x2="619.806" y2="75.7266" gradientUnits="userSpaceOnUse">
<stop stop-color="#2DCF78"/>
</linearGradient>
<linearGradient id="paint20_linear" x1="619.806" y1="1941.81" x2="619.806" y2="75.7266" gradientUnits="userSpaceOnUse">
<stop stop-color="#2DCF78"/>
</linearGradient>
<linearGradient id="paint21_linear" x1="619.806" y1="1932.51" x2="619.806" y2="84.8291" gradientUnits="userSpaceOnUse">
<stop stop-color="#2DCF78"/>
</linearGradient>
<linearGradient id="paint22_linear" x1="619.806" y1="1932.51" x2="619.806" y2="84.8291" gradientUnits="userSpaceOnUse">
<stop stop-color="#2DCF78"/>
</linearGradient>
<linearGradient id="paint23_linear" x1="619.856" y1="1923.4" x2="619.856" y2="94.0304" gradientUnits="userSpaceOnUse">
<stop stop-color="#2DCF78"/>
</linearGradient>
<linearGradient id="paint24_linear" x1="619.856" y1="1923.4" x2="619.856" y2="94.0304" gradientUnits="userSpaceOnUse">
<stop stop-color="#2DCF78"/>
</linearGradient>
<linearGradient id="paint25_linear" x1="619.848" y1="1914.38" x2="619.848" y2="103.061" gradientUnits="userSpaceOnUse">
<stop stop-color="#2DCF78"/>
</linearGradient>
<linearGradient id="paint26_linear" x1="619.848" y1="1914.38" x2="619.848" y2="103.061" gradientUnits="userSpaceOnUse">
<stop stop-color="#2DCF78"/>
</linearGradient>
<linearGradient id="paint27_linear" x1="619.754" y1="1905.17" x2="619.754" y2="112.261" gradientUnits="userSpaceOnUse">
<stop stop-color="#2DCF78"/>
</linearGradient>
<linearGradient id="paint28_linear" x1="619.754" y1="1905.17" x2="619.754" y2="112.261" gradientUnits="userSpaceOnUse">
<stop stop-color="#2DCF78"/>
</linearGradient>
</defs>
</svg>
