<svg width="150" height="139" viewBox="0 0 150 139" fill="none" xmlns="http://www.w3.org/2000/svg">
<mask id="mask0" mask-type="alpha" maskUnits="userSpaceOnUse" x="0" y="0" width="150" height="139">
<path d="M0.5 0.5H149.5V129C149.5 134.247 145.247 138.5 140 138.5H0.5V0.5Z" fill="#232325" stroke="url(#paint0_linear)"/>
</mask>
<g mask="url(#mask0)">
<path d="M1385.41 797.371C1385.38 797.305 1385.3 797.285 1385.25 797.336L1261.21 929.18C1223.79 969.014 1223.79 1033.56 1261.21 1073.39L1385.13 1205.11C1385.18 1205.16 1385.27 1205.13 1385.27 1205.05V1205.05C1385.27 1204.98 1385.35 1204.95 1385.4 1205L1548.68 1378.53C1607.81 1441.39 1607.81 1543.3 1548.68 1606.16L1385.27 1779.83L1378.28 1787.15L1216.8 1962.6C1158.31 2026.15 1063.5 2026.15 1005.02 1962.6L843.568 1787.09C843.52 1787.03 843.557 1786.95 843.627 1786.95V1786.95C843.698 1786.95 843.734 1786.87 843.687 1786.82L721.413 1654.01C684.354 1613.78 624.305 1613.78 587.245 1654.01L464.51 1787.41C464.491 1787.43 464.463 1787.45 464.433 1787.45V1787.45C464.404 1787.45 464.376 1787.46 464.356 1787.48L303.275 1962.6C244.789 2026.15 149.979 2026.15 91.4926 1962.6L-70.0798 1786.95L-76.241 1780.82L-239.653 1607.25C-298.782 1544.39 -298.782 1442.48 -239.653 1379.61L-76.1491 1206.24L47.9959 1074.28C85.4234 1034.45 85.4234 969.904 47.9959 930.069L-75.9216 798.355C-75.9703 798.303 -76.0571 798.338 -76.0571 798.409V798.409C-76.0571 798.48 -76.1439 798.514 -76.1926 798.463L-239.469 624.937C-298.599 562.072 -298.599 460.163 -239.469 397.298L-76.0571 223.629L-69.0682 216.315L92.5042 40.668C150.99 -22.8889 245.8 -22.8889 304.286 40.668L465.611 216.244C465.671 216.309 465.625 216.413 465.537 216.413V216.413C465.449 216.413 465.403 216.518 465.463 216.583L587.705 349.359C624.764 389.589 684.814 389.589 721.873 349.359L844.545 216.021C844.605 215.956 844.689 215.919 844.777 215.919V215.919C844.865 215.919 844.949 215.882 845.008 215.818L1006.12 40.767C1064.61 -22.7899 1159.42 -22.7899 1217.9 40.767L1379.29 216.413L1385.45 222.542L1548.86 396.211C1607.99 459.076 1607.99 560.985 1548.86 623.85L1385.56 797.406C1385.51 797.457 1385.43 797.437 1385.41 797.371V797.371Z" stroke="url(#paint1_linear)" stroke-width="1.75" stroke-miterlimit="10" stroke-linecap="round"/>
<path d="M1385.41 797.371C1385.38 797.305 1385.3 797.285 1385.25 797.336L1261.21 929.18C1223.79 969.014 1223.79 1033.56 1261.21 1073.39L1385.13 1205.11C1385.18 1205.16 1385.27 1205.13 1385.27 1205.05V1205.05C1385.27 1204.98 1385.35 1204.95 1385.4 1205L1548.68 1378.53C1607.81 1441.39 1607.81 1543.3 1548.68 1606.16L1385.27 1779.83L1378.28 1787.15L1216.8 1962.6C1158.31 2026.15 1063.5 2026.15 1005.02 1962.6L843.568 1787.09C843.52 1787.03 843.557 1786.95 843.627 1786.95V1786.95C843.698 1786.95 843.734 1786.87 843.687 1786.82L721.413 1654.01C684.354 1613.78 624.305 1613.78 587.245 1654.01L464.51 1787.41C464.491 1787.43 464.463 1787.45 464.433 1787.45V1787.45C464.404 1787.45 464.376 1787.46 464.356 1787.48L303.275 1962.6C244.789 2026.15 149.979 2026.15 91.4926 1962.6L-70.0798 1786.95L-76.241 1780.82L-239.653 1607.25C-298.782 1544.39 -298.782 1442.48 -239.653 1379.61L-76.1491 1206.24L47.9959 1074.28C85.4234 1034.45 85.4234 969.904 47.9959 930.069L-75.9216 798.355C-75.9703 798.303 -76.0571 798.338 -76.0571 798.409V798.409C-76.0571 798.48 -76.1439 798.514 -76.1926 798.463L-239.469 624.937C-298.599 562.072 -298.599 460.163 -239.469 397.298L-76.0571 223.629L-69.0682 216.315L92.5042 40.668C150.99 -22.8889 245.8 -22.8889 304.286 40.668L465.611 216.244C465.671 216.309 465.625 216.413 465.537 216.413V216.413C465.449 216.413 465.403 216.518 465.463 216.583L587.705 349.359C624.764 389.589 684.814 389.589 721.873 349.359L844.545 216.021C844.605 215.956 844.689 215.919 844.777 215.919V215.919C844.865 215.919 844.949 215.882 845.008 215.818L1006.12 40.767C1064.61 -22.7899 1159.42 -22.7899 1217.9 40.767L1379.29 216.413L1385.45 222.542L1548.86 396.211C1607.99 459.076 1607.99 560.985 1548.86 623.85L1385.56 797.406C1385.51 797.457 1385.43 797.437 1385.41 797.371V797.371Z" stroke="url(#paint2_linear)" stroke-width="1.75" stroke-miterlimit="10" stroke-linecap="round"/>
<path d="M1378.92 799.199C1378.88 799.104 1378.75 799.084 1378.68 799.16L1255.88 929.772C1218.73 969.211 1218.73 1033.16 1255.88 1072.6L1378.69 1203.13C1378.74 1203.18 1378.83 1203.15 1378.83 1203.08V1203.08C1378.83 1203.01 1378.91 1202.97 1378.96 1203.02L1540.77 1374.97C1599.35 1437.24 1599.35 1538.26 1540.77 1600.53L1378.83 1772.62L1371.93 1779.83L1211.74 1954C1153.8 2016.96 1059.82 2016.96 1001.89 1954L841.911 1780.07C841.863 1780.02 841.9 1779.93 841.97 1779.93V1779.93C842.04 1779.93 842.077 1779.85 842.029 1779.8L720.952 1648.17C684.26 1608.24 624.762 1608.24 588.071 1648.17L466.502 1780.23C466.442 1780.29 466.359 1780.33 466.271 1780.33V1780.33C466.183 1780.33 466.099 1780.36 466.039 1780.43L306.399 1954C248.465 2016.96 154.483 2016.96 96.5485 1954L-63.5526 1779.93L-69.7138 1773.9L-231.562 1601.82C-290.14 1539.54 -290.14 1438.52 -231.562 1376.25L-69.5299 1204.36L53.4196 1073.59C90.5712 1034.15 90.5712 970.2 53.4196 930.761L-69.3944 800.233C-69.4431 800.181 -69.5299 800.215 -69.5299 800.286V800.286C-69.5299 800.357 -69.6167 800.392 -69.6654 800.34L-231.47 628.396C-290.048 566.124 -290.048 465.105 -231.47 402.833L-69.5299 230.745L-62.633 223.53L97.4681 49.4647C155.402 -13.4991 249.385 -13.4991 307.319 49.4647L467.296 223.394C467.343 223.446 467.307 223.53 467.236 223.53V223.53C467.166 223.53 467.129 223.613 467.177 223.665L588.347 355.289C625.038 395.222 684.536 395.222 721.228 355.289L842.796 223.236C842.856 223.171 842.94 223.134 843.028 223.134V223.134C843.115 223.134 843.199 223.097 843.259 223.033L1002.9 49.5635C1060.83 -13.4003 1154.82 -13.4003 1212.75 49.5635L1372.85 223.628L1379.01 229.658L1540.95 401.746C1599.53 464.018 1599.53 565.037 1540.95 627.309L1379.16 799.238C1379.09 799.314 1378.96 799.294 1378.92 799.199V799.199Z" stroke="url(#paint3_linear)" stroke-width="1.75" stroke-miterlimit="10" stroke-linecap="round"/>
<path d="M1378.92 799.199C1378.88 799.104 1378.75 799.084 1378.68 799.16L1255.88 929.772C1218.73 969.211 1218.73 1033.16 1255.88 1072.6L1378.69 1203.13C1378.74 1203.18 1378.83 1203.15 1378.83 1203.08V1203.08C1378.83 1203.01 1378.91 1202.97 1378.96 1203.02L1540.77 1374.97C1599.35 1437.24 1599.35 1538.26 1540.77 1600.53L1378.83 1772.62L1371.93 1779.83L1211.74 1954C1153.8 2016.96 1059.82 2016.96 1001.89 1954L841.911 1780.07C841.863 1780.02 841.9 1779.93 841.97 1779.93V1779.93C842.04 1779.93 842.077 1779.85 842.029 1779.8L720.952 1648.17C684.26 1608.24 624.762 1608.24 588.071 1648.17L466.502 1780.23C466.442 1780.29 466.359 1780.33 466.271 1780.33V1780.33C466.183 1780.33 466.099 1780.36 466.039 1780.43L306.399 1954C248.465 2016.96 154.483 2016.96 96.5485 1954L-63.5526 1779.93L-69.7138 1773.9L-231.562 1601.82C-290.14 1539.54 -290.14 1438.52 -231.562 1376.25L-69.5299 1204.36L53.4196 1073.59C90.5712 1034.15 90.5712 970.2 53.4196 930.761L-69.3944 800.233C-69.4431 800.181 -69.5299 800.215 -69.5299 800.286V800.286C-69.5299 800.357 -69.6167 800.392 -69.6654 800.34L-231.47 628.396C-290.048 566.124 -290.048 465.105 -231.47 402.833L-69.5299 230.745L-62.633 223.53L97.4681 49.4647C155.402 -13.4991 249.385 -13.4991 307.319 49.4647L467.296 223.394C467.343 223.446 467.307 223.53 467.236 223.53V223.53C467.166 223.53 467.129 223.613 467.177 223.665L588.347 355.289C625.038 395.222 684.536 395.222 721.228 355.289L842.796 223.236C842.856 223.171 842.94 223.134 843.028 223.134V223.134C843.115 223.134 843.199 223.097 843.259 223.033L1002.9 49.5635C1060.83 -13.4003 1154.82 -13.4003 1212.75 49.5635L1372.85 223.628L1379.01 229.658L1540.95 401.746C1599.53 464.018 1599.53 565.037 1540.95 627.309L1379.16 799.238C1379.09 799.314 1378.96 799.294 1378.92 799.199V799.199Z" stroke="url(#paint4_linear)" stroke-width="1.75" stroke-miterlimit="10" stroke-linecap="round"/>
<path d="M1372.3 801.028C1372.25 800.953 1372.15 800.943 1372.09 801.007L1250.36 930.465C1213.58 969.607 1213.58 1032.97 1250.36 1072.01L1372.07 1201.35C1372.12 1201.4 1372.21 1201.37 1372.21 1201.3V1201.3C1372.21 1201.23 1372.3 1201.19 1372.34 1201.24L1532.68 1371.61C1590.8 1433.39 1590.8 1533.42 1532.68 1595.19L1372.21 1765.7L1365.4 1772.82L1206.68 1945.3C1149.21 2007.77 1056.15 2007.77 998.671 1945.3L840.166 1772.95C840.118 1772.9 840.155 1772.82 840.225 1772.82V1772.82C840.295 1772.82 840.332 1772.73 840.284 1772.68L720.218 1642.24C683.802 1602.71 624.856 1602.71 588.532 1642.24L468.159 1773.21C468.1 1773.27 468.016 1773.31 467.928 1773.31V1773.31C467.84 1773.31 467.756 1773.35 467.697 1773.41L309.528 1945.3C252.054 2007.77 158.991 2007.77 101.516 1945.3L-57.0215 1772.92L-63.0908 1766.98L-223.56 1596.38C-281.678 1534.6 -281.678 1434.57 -223.56 1372.79L-62.9989 1202.48L58.8472 1073C95.6309 1033.86 95.6309 970.497 58.8472 931.453L-62.8634 802.111C-62.912 802.06 -62.9989 802.094 -62.9989 802.165V802.165C-62.9989 802.236 -63.0857 802.27 -63.1344 802.219L-223.468 631.856C-281.586 570.078 -281.586 470.048 -223.468 408.27L-62.9989 237.764L-56.1939 230.647L102.436 58.1634C159.91 -4.30628 252.973 -4.30627 310.448 58.1634L468.953 230.511C469.001 230.563 468.964 230.647 468.894 230.647V230.647C468.823 230.647 468.787 230.73 468.834 230.782L588.9 361.22C625.316 400.758 684.262 400.758 720.586 361.22L841.051 230.353C841.111 230.288 841.195 230.251 841.282 230.251V230.251C841.37 230.251 841.454 230.215 841.514 230.15L999.682 58.1634C1057.16 -4.30626 1150.22 -4.30626 1207.69 58.1634L1366.32 230.647L1372.39 236.577L1532.86 407.084C1590.98 468.862 1590.98 568.892 1532.86 630.67L1372.51 801.049C1372.45 801.114 1372.35 801.103 1372.3 801.028V801.028Z" stroke="url(#paint5_linear)" stroke-width="1.75" stroke-miterlimit="10" stroke-linecap="round"/>
<path d="M1372.3 801.028C1372.25 800.953 1372.15 800.943 1372.09 801.007L1250.36 930.465C1213.58 969.607 1213.58 1032.97 1250.36 1072.01L1372.07 1201.35C1372.12 1201.4 1372.21 1201.37 1372.21 1201.3V1201.3C1372.21 1201.23 1372.3 1201.19 1372.34 1201.24L1532.68 1371.61C1590.8 1433.39 1590.8 1533.42 1532.68 1595.19L1372.21 1765.7L1365.4 1772.82L1206.68 1945.3C1149.21 2007.77 1056.15 2007.77 998.671 1945.3L840.166 1772.95C840.118 1772.9 840.155 1772.82 840.225 1772.82V1772.82C840.295 1772.82 840.332 1772.73 840.284 1772.68L720.218 1642.24C683.802 1602.71 624.856 1602.71 588.532 1642.24L468.159 1773.21C468.1 1773.27 468.016 1773.31 467.928 1773.31V1773.31C467.84 1773.31 467.756 1773.35 467.697 1773.41L309.528 1945.3C252.054 2007.77 158.991 2007.77 101.516 1945.3L-57.0215 1772.92L-63.0908 1766.98L-223.56 1596.38C-281.678 1534.6 -281.678 1434.57 -223.56 1372.79L-62.9989 1202.48L58.8472 1073C95.6309 1033.86 95.6309 970.497 58.8472 931.453L-62.8634 802.111C-62.912 802.06 -62.9989 802.094 -62.9989 802.165V802.165C-62.9989 802.236 -63.0857 802.27 -63.1344 802.219L-223.468 631.856C-281.586 570.078 -281.586 470.048 -223.468 408.27L-62.9989 237.764L-56.1939 230.647L102.436 58.1634C159.91 -4.30628 252.973 -4.30627 310.448 58.1634L468.953 230.511C469.001 230.563 468.964 230.647 468.894 230.647V230.647C468.823 230.647 468.787 230.73 468.834 230.782L588.9 361.22C625.316 400.758 684.262 400.758 720.586 361.22L841.051 230.353C841.111 230.288 841.195 230.251 841.282 230.251V230.251C841.37 230.251 841.454 230.215 841.514 230.15L999.682 58.1634C1057.16 -4.30626 1150.22 -4.30626 1207.69 58.1634L1366.32 230.647L1372.39 236.577L1532.86 407.084C1590.98 468.862 1590.98 568.892 1532.86 630.67L1372.51 801.049C1372.45 801.114 1372.35 801.103 1372.3 801.028V801.028Z" stroke="url(#paint6_linear)" stroke-width="1.75" stroke-miterlimit="10" stroke-linecap="round"/>
<path d="M1365.73 802.807C1365.7 802.78 1365.66 802.78 1365.63 802.807L1244.94 931.058C1208.52 969.805 1208.52 1032.57 1244.94 1071.32L1365.54 1199.47C1365.59 1199.53 1365.68 1199.49 1365.68 1199.42V1199.42C1365.68 1199.35 1365.77 1199.31 1365.82 1199.37L1524.68 1368.15C1582.24 1429.33 1582.24 1528.47 1524.68 1589.66L1365.68 1758.58L1358.87 1765.7L1201.62 1936.7C1144.7 1998.58 1052.47 1998.58 995.544 1936.7L838.51 1765.93C838.462 1765.88 838.499 1765.8 838.569 1765.8V1765.8C838.639 1765.8 838.676 1765.71 838.629 1765.66L719.666 1636.41C683.618 1597.27 625.224 1597.27 589.176 1636.41L469.906 1766.09C469.847 1766.16 469.763 1766.19 469.675 1766.19V1766.19C469.587 1766.19 469.503 1766.23 469.443 1766.29L312.746 1936.7C255.823 1998.58 163.588 1998.58 106.666 1936.7L-50.5846 1765.8L-56.6539 1759.87L-215.56 1590.94C-273.126 1529.76 -273.126 1430.62 -215.56 1369.43L-56.47 1200.7L64.2725 1072.31C100.688 1033.56 100.688 970.793 64.2725 932.046L-56.3345 803.89C-56.3832 803.838 -56.47 803.873 -56.47 803.944V803.944C-56.47 804.015 -56.5568 804.049 -56.6055 803.998L-215.468 635.217C-273.034 574.032 -273.034 474.891 -215.468 413.706L-56.47 244.781L-49.665 237.665L107.585 66.7629C164.508 4.88639 256.743 4.88639 313.666 66.7629L470.7 237.431C470.747 237.482 470.711 237.566 470.64 237.566V237.566C470.57 237.566 470.533 237.65 470.581 237.701L589.452 366.953C625.5 406.096 683.894 406.096 719.942 366.953L839.304 237.272C839.363 237.207 839.447 237.171 839.535 237.171V237.171C839.623 237.171 839.707 237.134 839.766 237.069L996.463 66.6641C1053.39 4.78759 1145.62 4.78759 1202.54 66.6641L1359.7 237.566L1365.77 243.497L1524.77 412.422C1582.34 473.606 1582.34 572.747 1524.77 633.932L1365.82 802.807C1365.79 802.834 1365.75 802.834 1365.73 802.807V802.807Z" stroke="url(#paint7_linear)" stroke-width="1.75" stroke-miterlimit="10" stroke-linecap="round"/>
<path d="M1365.73 802.807C1365.7 802.78 1365.66 802.78 1365.63 802.807L1244.94 931.058C1208.52 969.805 1208.52 1032.57 1244.94 1071.32L1365.54 1199.47C1365.59 1199.53 1365.68 1199.49 1365.68 1199.42V1199.42C1365.68 1199.35 1365.77 1199.31 1365.82 1199.37L1524.68 1368.15C1582.24 1429.33 1582.24 1528.47 1524.68 1589.66L1365.68 1758.58L1358.87 1765.7L1201.62 1936.7C1144.7 1998.58 1052.47 1998.58 995.544 1936.7L838.51 1765.93C838.462 1765.88 838.499 1765.8 838.569 1765.8V1765.8C838.639 1765.8 838.676 1765.71 838.629 1765.66L719.666 1636.41C683.618 1597.27 625.224 1597.27 589.176 1636.41L469.906 1766.09C469.847 1766.16 469.763 1766.19 469.675 1766.19V1766.19C469.587 1766.19 469.503 1766.23 469.443 1766.29L312.746 1936.7C255.823 1998.58 163.588 1998.58 106.666 1936.7L-50.5846 1765.8L-56.6539 1759.87L-215.56 1590.94C-273.126 1529.76 -273.126 1430.62 -215.56 1369.43L-56.47 1200.7L64.2725 1072.31C100.688 1033.56 100.688 970.793 64.2725 932.046L-56.3345 803.89C-56.3832 803.838 -56.47 803.873 -56.47 803.944V803.944C-56.47 804.015 -56.5568 804.049 -56.6055 803.998L-215.468 635.217C-273.034 574.032 -273.034 474.891 -215.468 413.706L-56.47 244.781L-49.665 237.665L107.585 66.7629C164.508 4.88639 256.743 4.88639 313.666 66.7629L470.7 237.431C470.747 237.482 470.711 237.566 470.64 237.566V237.566C470.57 237.566 470.533 237.65 470.581 237.701L589.452 366.953C625.5 406.096 683.894 406.096 719.942 366.953L839.304 237.272C839.363 237.207 839.447 237.171 839.535 237.171V237.171C839.623 237.171 839.707 237.134 839.766 237.069L996.463 66.6641C1053.39 4.78759 1145.62 4.78759 1202.54 66.6641L1359.7 237.566L1365.77 243.497L1524.77 412.422C1582.34 473.606 1582.34 572.747 1524.77 633.932L1365.82 802.807C1365.79 802.834 1365.75 802.834 1365.73 802.807V802.807Z" stroke="url(#paint8_linear)" stroke-width="1.75" stroke-miterlimit="10" stroke-linecap="round"/>
<path d="M1359.29 804.636C1359.21 804.58 1359.1 804.59 1359.04 804.661L1239.51 931.75C1203.37 970.102 1203.37 1032.37 1239.51 1070.73L1359.02 1197.7C1359.07 1197.75 1359.15 1197.71 1359.15 1197.64V1197.64C1359.15 1197.57 1359.24 1197.54 1359.29 1197.59L1516.68 1364.89C1573.69 1425.48 1573.69 1523.73 1516.68 1584.32L1359.15 1751.76L1352.44 1758.78L1196.57 1928C1140.2 1989.29 1048.79 1989.29 992.419 1928L836.764 1758.82C836.717 1758.77 836.753 1758.68 836.824 1758.68V1758.68C836.894 1758.68 836.931 1758.6 836.883 1758.55L719.116 1630.58C683.436 1591.73 625.501 1591.73 589.821 1630.58L471.563 1759.07C471.503 1759.14 471.42 1759.18 471.332 1759.18V1759.18C471.244 1759.18 471.16 1759.21 471.1 1759.28L315.783 1928.1C259.412 1989.38 168.004 1989.38 111.633 1928.1L-44.1459 1758.78L-50.1232 1752.95L-207.466 1585.51C-264.48 1524.92 -264.48 1426.66 -207.466 1366.07L-49.8474 1198.93L69.7916 1071.71C105.932 1033.36 105.932 971.09 69.7916 932.739L-49.7119 805.67C-49.7605 805.618 -49.8474 805.653 -49.8474 805.724V805.724C-49.8474 805.795 -49.9342 805.829 -49.9828 805.777L-207.374 638.479C-264.388 577.887 -264.388 479.636 -207.374 419.045L-49.8473 251.602L-43.1343 244.584L112.645 75.2639C169.016 13.9804 260.423 13.9804 316.794 75.2639L472.449 244.449C472.496 244.501 472.46 244.584 472.389 244.584V244.584C472.319 244.584 472.282 244.668 472.33 244.72L590.189 372.785C625.869 411.631 683.804 411.631 719.484 372.785L837.742 244.29C837.801 244.226 837.885 244.189 837.973 244.189V244.189C838.061 244.189 838.145 244.152 838.205 244.087L993.522 75.2639C1049.89 13.9804 1141.3 13.9804 1197.67 75.2639L1353.45 244.584L1359.43 250.416L1516.95 417.859C1573.97 478.45 1573.97 576.701 1516.95 637.293L1359.54 804.612C1359.48 804.682 1359.37 804.693 1359.29 804.636V804.636Z" stroke="url(#paint9_linear)" stroke-width="1.75" stroke-miterlimit="10" stroke-linecap="round"/>
<path d="M1359.29 804.636C1359.21 804.58 1359.1 804.59 1359.04 804.661L1239.51 931.75C1203.37 970.102 1203.37 1032.37 1239.51 1070.73L1359.02 1197.7C1359.07 1197.75 1359.15 1197.71 1359.15 1197.64V1197.64C1359.15 1197.57 1359.24 1197.54 1359.29 1197.59L1516.68 1364.89C1573.69 1425.48 1573.69 1523.73 1516.68 1584.32L1359.15 1751.76L1352.44 1758.78L1196.57 1928C1140.2 1989.29 1048.79 1989.29 992.419 1928L836.764 1758.82C836.717 1758.77 836.753 1758.68 836.824 1758.68V1758.68C836.894 1758.68 836.931 1758.6 836.883 1758.55L719.116 1630.58C683.436 1591.73 625.501 1591.73 589.821 1630.58L471.563 1759.07C471.503 1759.14 471.42 1759.18 471.332 1759.18V1759.18C471.244 1759.18 471.16 1759.21 471.1 1759.28L315.783 1928.1C259.412 1989.38 168.004 1989.38 111.633 1928.1L-44.1459 1758.78L-50.1232 1752.95L-207.466 1585.51C-264.48 1524.92 -264.48 1426.66 -207.466 1366.07L-49.8474 1198.93L69.7916 1071.71C105.932 1033.36 105.932 971.09 69.7916 932.739L-49.7119 805.67C-49.7605 805.618 -49.8474 805.653 -49.8474 805.724V805.724C-49.8474 805.795 -49.9342 805.829 -49.9828 805.777L-207.374 638.479C-264.388 577.887 -264.388 479.636 -207.374 419.045L-49.8473 251.602L-43.1343 244.584L112.645 75.2639C169.016 13.9804 260.423 13.9804 316.794 75.2639L472.449 244.449C472.496 244.501 472.46 244.584 472.389 244.584V244.584C472.319 244.584 472.282 244.668 472.33 244.72L590.189 372.785C625.869 411.631 683.804 411.631 719.484 372.785L837.742 244.29C837.801 244.226 837.885 244.189 837.973 244.189V244.189C838.061 244.189 838.145 244.152 838.205 244.087L993.522 75.2639C1049.89 13.9804 1141.3 13.9804 1197.67 75.2639L1353.45 244.584L1359.43 250.416L1516.95 417.859C1573.97 478.45 1573.97 576.701 1516.95 637.293L1359.54 804.612C1359.48 804.682 1359.37 804.693 1359.29 804.636V804.636Z" stroke="url(#paint10_linear)" stroke-width="1.75" stroke-miterlimit="10" stroke-linecap="round"/>
<path d="M1352.62 806.515C1352.57 806.461 1352.49 806.461 1352.44 806.514L1233.99 932.442C1198.22 970.497 1198.22 1032.08 1233.99 1070.13L1352.39 1195.82C1352.44 1195.87 1352.53 1195.83 1352.53 1195.76V1195.76C1352.53 1195.69 1352.62 1195.66 1352.67 1195.71L1508.58 1361.43C1565.05 1421.43 1565.05 1518.79 1508.58 1578.79L1352.53 1744.65L1345.91 1751.57L1191.6 1919.3C1135.78 1979.99 1045.2 1979.99 989.383 1919.3L835.108 1751.8C835.06 1751.75 835.097 1751.66 835.167 1751.66V1751.66C835.238 1751.66 835.274 1751.58 835.227 1751.53L718.471 1624.65C683.067 1586.2 625.776 1586.2 590.372 1624.65L473.309 1751.96C473.249 1752.02 473.166 1752.06 473.078 1752.06V1752.06C472.99 1752.06 472.906 1752.1 472.846 1752.16L319.092 1919.4C263.273 1980.09 172.693 1980.09 116.873 1919.4L-37.4342 1751.66L-43.3196 1745.83L-199.374 1579.97C-255.837 1519.97 -255.837 1422.61 -199.374 1362.61L-43.2276 1196.95L75.3079 1070.92C111.08 1032.87 111.08 971.288 75.3079 933.233L-43.0002 807.449C-43.0488 807.398 -43.1356 807.432 -43.1356 807.503V807.503C-43.1356 807.574 -43.2224 807.609 -43.271 807.557L-199.191 641.84C-255.653 581.841 -255.653 484.48 -199.191 424.481L-43.1356 258.62L-36.5146 251.701L117.701 83.9625C173.52 23.2721 264.1 23.2721 319.92 83.9625L474.103 251.566C474.15 251.618 474.114 251.701 474.043 251.701V251.701C473.973 251.701 473.936 251.785 473.984 251.837L590.74 378.716C626.144 417.167 683.434 417.167 718.839 378.716L835.993 251.408C836.053 251.343 836.137 251.306 836.225 251.306V251.306C836.313 251.306 836.397 251.269 836.456 251.205L990.303 83.9625C1046.12 23.2721 1136.7 23.2721 1192.52 83.9625L1346.83 251.701L1352.71 257.533L1508.77 423.394C1565.23 483.393 1565.23 580.754 1508.77 640.753L1352.81 806.515C1352.76 806.568 1352.67 806.568 1352.62 806.515V806.515Z" stroke="url(#paint11_linear)" stroke-width="1.75" stroke-miterlimit="10" stroke-linecap="round"/>
<path d="M1352.62 806.515C1352.57 806.461 1352.49 806.461 1352.44 806.514L1233.99 932.442C1198.22 970.497 1198.22 1032.08 1233.99 1070.13L1352.39 1195.82C1352.44 1195.87 1352.53 1195.83 1352.53 1195.76V1195.76C1352.53 1195.69 1352.62 1195.66 1352.67 1195.71L1508.58 1361.43C1565.05 1421.43 1565.05 1518.79 1508.58 1578.79L1352.53 1744.65L1345.91 1751.57L1191.6 1919.3C1135.78 1979.99 1045.2 1979.99 989.383 1919.3L835.108 1751.8C835.06 1751.75 835.097 1751.66 835.167 1751.66V1751.66C835.238 1751.66 835.274 1751.58 835.227 1751.53L718.471 1624.65C683.067 1586.2 625.776 1586.2 590.372 1624.65L473.309 1751.96C473.249 1752.02 473.166 1752.06 473.078 1752.06V1752.06C472.99 1752.06 472.906 1752.1 472.846 1752.16L319.092 1919.4C263.273 1980.09 172.693 1980.09 116.873 1919.4L-37.4342 1751.66L-43.3196 1745.83L-199.374 1579.97C-255.837 1519.97 -255.837 1422.61 -199.374 1362.61L-43.2276 1196.95L75.3079 1070.92C111.08 1032.87 111.08 971.288 75.3079 933.233L-43.0002 807.449C-43.0488 807.398 -43.1356 807.432 -43.1356 807.503V807.503C-43.1356 807.574 -43.2224 807.609 -43.271 807.557L-199.191 641.84C-255.653 581.841 -255.653 484.48 -199.191 424.481L-43.1356 258.62L-36.5146 251.701L117.701 83.9625C173.52 23.2721 264.1 23.2721 319.92 83.9625L474.103 251.566C474.15 251.618 474.114 251.701 474.043 251.701V251.701C473.973 251.701 473.936 251.785 473.984 251.837L590.74 378.716C626.144 417.167 683.434 417.167 718.839 378.716L835.993 251.408C836.053 251.343 836.137 251.306 836.225 251.306V251.306C836.313 251.306 836.397 251.269 836.456 251.205L990.303 83.9625C1046.12 23.2721 1136.7 23.2721 1192.52 83.9625L1346.83 251.701L1352.71 257.533L1508.77 423.394C1565.23 483.393 1565.23 580.754 1508.77 640.753L1352.81 806.515C1352.76 806.568 1352.67 806.568 1352.62 806.515V806.515Z" stroke="url(#paint12_linear)" stroke-width="1.75" stroke-miterlimit="10" stroke-linecap="round"/>
<path d="M1346.04 808.343C1346.02 808.276 1345.94 808.257 1345.89 808.307L1228.57 933.035C1193.16 970.695 1193.16 1031.78 1228.57 1069.44L1345.77 1194.04C1345.82 1194.09 1345.91 1194.05 1345.91 1193.98V1193.98C1345.91 1193.91 1345.99 1193.88 1346.04 1193.93L1500.49 1358.07C1556.4 1417.57 1556.4 1513.94 1500.49 1573.45L1345.91 1737.73L1339.28 1744.65L1186.45 1910.8C1131.09 1970.9 1041.43 1970.9 986.069 1910.8L833.358 1744.78C833.31 1744.73 833.347 1744.65 833.417 1744.65V1744.65C833.487 1744.65 833.524 1744.56 833.476 1744.51L717.824 1618.82C682.788 1580.76 625.957 1580.76 590.92 1618.82L475.053 1744.94C474.994 1745 474.91 1745.04 474.822 1745.04V1745.04C474.734 1745.04 474.65 1745.08 474.591 1745.14L322.215 1910.8C266.856 1970.9 177.196 1970.9 121.836 1910.8L-31 1744.65L-36.8854 1738.91L-191.469 1574.63C-247.38 1515.13 -247.38 1418.76 -191.469 1359.25L-36.7934 1195.17L80.6385 1070.33C116.043 1032.67 116.043 971.584 80.6385 933.924L-36.566 809.327C-36.6146 809.275 -36.7015 809.31 -36.7015 809.381V809.381C-36.7015 809.452 -36.7883 809.486 -36.8369 809.434L-191.285 645.299C-247.196 585.795 -247.196 489.421 -191.285 429.917L-36.7015 265.638L-30.0804 258.719L122.756 92.5614C178.115 32.464 267.776 32.464 323.135 92.5614L475.847 258.583C475.894 258.635 475.858 258.719 475.787 258.719V258.719C475.717 258.719 475.68 258.802 475.728 258.854L591.288 384.548C626.325 422.603 683.156 422.603 718.192 384.548L834.243 258.425C834.303 258.36 834.387 258.323 834.475 258.323V258.323C834.562 258.323 834.646 258.287 834.706 258.222L987.081 92.5614C1042.44 32.4641 1132.1 32.4641 1187.46 92.5614L1340.3 258.719L1346.18 264.452L1500.77 428.731C1556.68 488.235 1556.68 584.609 1500.77 644.113L1346.2 808.378C1346.15 808.428 1346.06 808.409 1346.04 808.343V808.343Z" stroke="url(#paint13_linear)" stroke-width="1.75" stroke-miterlimit="10" stroke-linecap="round"/>
<path d="M1346.04 808.343C1346.02 808.276 1345.94 808.257 1345.89 808.307L1228.57 933.035C1193.16 970.695 1193.16 1031.78 1228.57 1069.44L1345.77 1194.04C1345.82 1194.09 1345.91 1194.05 1345.91 1193.98V1193.98C1345.91 1193.91 1345.99 1193.88 1346.04 1193.93L1500.49 1358.07C1556.4 1417.57 1556.4 1513.94 1500.49 1573.45L1345.91 1737.73L1339.28 1744.65L1186.45 1910.8C1131.09 1970.9 1041.43 1970.9 986.069 1910.8L833.358 1744.78C833.31 1744.73 833.347 1744.65 833.417 1744.65V1744.65C833.487 1744.65 833.524 1744.56 833.476 1744.51L717.824 1618.82C682.788 1580.76 625.957 1580.76 590.92 1618.82L475.053 1744.94C474.994 1745 474.91 1745.04 474.822 1745.04V1745.04C474.734 1745.04 474.65 1745.08 474.591 1745.14L322.215 1910.8C266.856 1970.9 177.196 1970.9 121.836 1910.8L-31 1744.65L-36.8854 1738.91L-191.469 1574.63C-247.38 1515.13 -247.38 1418.76 -191.469 1359.25L-36.7934 1195.17L80.6385 1070.33C116.043 1032.67 116.043 971.584 80.6385 933.924L-36.566 809.327C-36.6146 809.275 -36.7015 809.31 -36.7015 809.381V809.381C-36.7015 809.452 -36.7883 809.486 -36.8369 809.434L-191.285 645.299C-247.196 585.795 -247.196 489.421 -191.285 429.917L-36.7015 265.638L-30.0804 258.719L122.756 92.5614C178.115 32.464 267.776 32.464 323.135 92.5614L475.847 258.583C475.894 258.635 475.858 258.719 475.787 258.719V258.719C475.717 258.719 475.68 258.802 475.728 258.854L591.288 384.548C626.325 422.603 683.156 422.603 718.192 384.548L834.243 258.425C834.303 258.36 834.387 258.323 834.475 258.323V258.323C834.562 258.323 834.646 258.287 834.706 258.222L987.081 92.5614C1042.44 32.4641 1132.1 32.4641 1187.46 92.5614L1340.3 258.719L1346.18 264.452L1500.77 428.731C1556.68 488.235 1556.68 584.609 1500.77 644.113L1346.2 808.378C1346.15 808.428 1346.06 808.409 1346.04 808.343V808.343Z" stroke="url(#paint14_linear)" stroke-width="1.75" stroke-miterlimit="10" stroke-linecap="round"/>
<path d="M1339.43 810.172C1339.4 810.125 1339.34 810.115 1339.31 810.153L1223.05 933.728C1187.92 970.992 1187.92 1031.48 1223.05 1068.85L1339.15 1192.26C1339.2 1192.31 1339.29 1192.28 1339.29 1192.21V1192.21C1339.29 1192.13 1339.38 1192.1 1339.42 1192.15L1492.4 1354.71C1547.85 1413.62 1547.85 1509.1 1492.4 1568.01L1339.38 1730.71L1332.85 1737.53L1181.49 1902.11C1126.68 1961.71 1037.85 1961.71 983.038 1902.11L831.798 1737.66C831.75 1737.61 831.787 1737.53 831.857 1737.53V1737.53C831.927 1737.53 831.964 1737.45 831.916 1737.39L717.276 1612.99C682.607 1575.23 626.328 1575.23 591.568 1612.99L476.681 1737.86C476.641 1737.9 476.585 1737.92 476.527 1737.92V1737.92C476.468 1737.92 476.412 1737.95 476.372 1737.99L325.346 1902.11C270.538 1961.71 181.705 1961.71 126.898 1902.11L-24.4673 1737.53L-30.2607 1731.8L-183.373 1569.1C-238.824 1510.19 -238.824 1414.7 -183.373 1355.79L-30.1688 1193.29L86.1597 1069.64C121.288 1032.37 121.288 971.882 86.1597 934.518L-29.9752 811.071C-30.0117 811.032 -30.0768 811.058 -30.0768 811.111V811.111C-30.0768 811.165 -30.1419 811.19 -30.1784 811.152L-183.189 648.562C-238.64 589.651 -238.64 494.167 -183.189 435.256L-30.0768 272.558L-23.5477 265.738L127.817 101.261C182.625 41.6577 271.458 41.6577 326.265 101.261L477.506 265.701C477.553 265.753 477.517 265.837 477.446 265.837V265.837C477.376 265.837 477.339 265.92 477.387 265.972L591.936 390.479C626.604 428.238 682.883 428.238 717.644 390.479L832.623 265.509C832.662 265.466 832.718 265.441 832.777 265.441V265.441C832.835 265.441 832.891 265.417 832.931 265.374L983.866 101.261C1038.67 41.6577 1127.51 41.6577 1182.31 101.261L1333.68 265.837L1339.47 271.57L1492.58 434.267C1548.04 493.179 1548.04 588.662 1492.58 647.573L1339.55 810.192C1339.51 810.23 1339.45 810.22 1339.43 810.172V810.172Z" stroke="url(#paint15_linear)" stroke-width="1.75" stroke-miterlimit="10" stroke-linecap="round"/>
<path d="M1339.43 810.172C1339.4 810.125 1339.34 810.115 1339.31 810.153L1223.05 933.728C1187.92 970.992 1187.92 1031.48 1223.05 1068.85L1339.15 1192.26C1339.2 1192.31 1339.29 1192.28 1339.29 1192.21V1192.21C1339.29 1192.13 1339.38 1192.1 1339.42 1192.15L1492.4 1354.71C1547.85 1413.62 1547.85 1509.1 1492.4 1568.01L1339.38 1730.71L1332.85 1737.53L1181.49 1902.11C1126.68 1961.71 1037.85 1961.71 983.038 1902.11L831.798 1737.66C831.75 1737.61 831.787 1737.53 831.857 1737.53V1737.53C831.927 1737.53 831.964 1737.45 831.916 1737.39L717.276 1612.99C682.607 1575.23 626.328 1575.23 591.568 1612.99L476.681 1737.86C476.641 1737.9 476.585 1737.92 476.527 1737.92V1737.92C476.468 1737.92 476.412 1737.95 476.372 1737.99L325.346 1902.11C270.538 1961.71 181.705 1961.71 126.898 1902.11L-24.4673 1737.53L-30.2607 1731.8L-183.373 1569.1C-238.824 1510.19 -238.824 1414.7 -183.373 1355.79L-30.1688 1193.29L86.1597 1069.64C121.288 1032.37 121.288 971.882 86.1597 934.518L-29.9752 811.071C-30.0117 811.032 -30.0768 811.058 -30.0768 811.111V811.111C-30.0768 811.165 -30.1419 811.19 -30.1784 811.152L-183.189 648.562C-238.64 589.651 -238.64 494.167 -183.189 435.256L-30.0768 272.558L-23.5477 265.738L127.817 101.261C182.625 41.6577 271.458 41.6577 326.265 101.261L477.506 265.701C477.553 265.753 477.517 265.837 477.446 265.837V265.837C477.376 265.837 477.339 265.92 477.387 265.972L591.936 390.479C626.604 428.238 682.883 428.238 717.644 390.479L832.623 265.509C832.662 265.466 832.718 265.441 832.777 265.441V265.441C832.835 265.441 832.891 265.417 832.931 265.374L983.866 101.261C1038.67 41.6577 1127.51 41.6577 1182.31 101.261L1333.68 265.837L1339.47 271.57L1492.58 434.267C1548.04 493.179 1548.04 588.662 1492.58 647.573L1339.55 810.192C1339.51 810.23 1339.45 810.22 1339.43 810.172V810.172Z" stroke="url(#paint16_linear)" stroke-width="1.75" stroke-miterlimit="10" stroke-linecap="round"/>
<path d="M-nan -nanL1332.85 811.951L1217.63 934.419C1182.87 971.387 1182.87 1031.29 1217.63 1068.25L1332.66 1190.52C1332.69 1190.55 1332.76 1190.53 1332.76 1190.48V1190.48C1332.76 1190.42 1332.82 1190.4 1332.86 1190.44L1484.4 1351.44C1539.3 1409.76 1539.3 1504.36 1484.4 1562.67L1332.76 1723.79L1326.32 1730.51L1176.43 1893.51C1122.17 1952.52 1034.17 1952.52 979.912 1893.51L830.143 1730.65C830.095 1730.59 830.132 1730.51 830.202 1730.51V1730.51C830.272 1730.51 830.309 1730.43 830.261 1730.38L716.816 1607.05C682.424 1569.69 626.696 1569.69 592.303 1607.05L478.428 1730.84C478.389 1730.88 478.333 1730.91 478.274 1730.91V1730.91C478.215 1730.91 478.159 1730.93 478.12 1730.97L328.564 1893.51C274.308 1952.52 186.303 1952.52 132.047 1893.51L-17.8462 1730.51L-23.5477 1724.88L-175.189 1563.76C-230.088 1505.44 -230.088 1410.85 -175.189 1352.53L-23.4558 1191.61L91.7692 1069.14C126.53 1032.18 126.53 972.276 91.7692 935.309L-23.2621 813.047C-23.2986 813.009 -23.3638 813.034 -23.3638 813.088V813.088C-23.3638 813.141 -23.4289 813.167 -23.4654 813.128L-175.005 652.12C-229.904 593.802 -229.904 499.207 -175.005 440.889L-23.3638 279.773L-16.9266 273.052L132.967 110.057C187.223 51.0472 275.228 51.0472 329.484 110.057L479.253 272.916C479.301 272.968 479.264 273.052 479.194 273.052V273.052C479.123 273.052 479.087 273.135 479.134 273.187L592.487 396.31C626.88 433.674 682.607 433.674 717 396.31L830.875 272.526C830.915 272.483 830.971 272.458 831.03 272.458V272.458C831.088 272.458 831.144 272.434 831.184 272.391L980.739 109.86C1035 50.8495 1123 50.8495 1177.26 109.86L1327.15 272.854L1332.85 278.488L1484.49 439.604C1539.39 497.923 1539.39 592.517 1484.49 650.835L1332.85 811.951L-nan -nanL-nan -nanZ" stroke="url(#paint17_linear)" stroke-width="1.75" stroke-miterlimit="10" stroke-linecap="round"/>
<path d="M-nan -nanL1332.85 811.951L1217.63 934.419C1182.87 971.387 1182.87 1031.29 1217.63 1068.25L1332.66 1190.52C1332.69 1190.55 1332.76 1190.53 1332.76 1190.48V1190.48C1332.76 1190.42 1332.82 1190.4 1332.86 1190.44L1484.4 1351.44C1539.3 1409.76 1539.3 1504.36 1484.4 1562.67L1332.76 1723.79L1326.32 1730.51L1176.43 1893.51C1122.17 1952.52 1034.17 1952.52 979.912 1893.51L830.143 1730.65C830.095 1730.59 830.132 1730.51 830.202 1730.51V1730.51C830.272 1730.51 830.309 1730.43 830.261 1730.38L716.816 1607.05C682.424 1569.69 626.696 1569.69 592.303 1607.05L478.428 1730.84C478.389 1730.88 478.333 1730.91 478.274 1730.91V1730.91C478.215 1730.91 478.159 1730.93 478.12 1730.97L328.564 1893.51C274.308 1952.52 186.303 1952.52 132.047 1893.51L-17.8462 1730.51L-23.5477 1724.88L-175.189 1563.76C-230.088 1505.44 -230.088 1410.85 -175.189 1352.53L-23.4558 1191.61L91.7692 1069.14C126.53 1032.18 126.53 972.276 91.7692 935.309L-23.2621 813.047C-23.2986 813.009 -23.3638 813.034 -23.3638 813.088V813.088C-23.3638 813.141 -23.4289 813.167 -23.4654 813.128L-175.005 652.12C-229.904 593.802 -229.904 499.207 -175.005 440.889L-23.3638 279.773L-16.9266 273.052L132.967 110.057C187.223 51.0472 275.228 51.0472 329.484 110.057L479.253 272.916C479.301 272.968 479.264 273.052 479.194 273.052V273.052C479.123 273.052 479.087 273.135 479.134 273.187L592.487 396.31C626.88 433.674 682.607 433.674 717 396.31L830.875 272.526C830.915 272.483 830.971 272.458 831.03 272.458V272.458C831.088 272.458 831.144 272.434 831.184 272.391L980.739 109.86C1035 50.8495 1123 50.8495 1177.26 109.86L1327.15 272.854L1332.85 278.488L1484.49 439.604C1539.39 497.923 1539.39 592.517 1484.49 650.835L1332.85 811.951L-nan -nanL-nan -nanZ" stroke="url(#paint18_linear)" stroke-width="1.75" stroke-miterlimit="10" stroke-linecap="round"/>
<path d="M1326.32 813.928C1326.27 813.834 1326.15 813.813 1326.08 813.89L1212.2 935.013C1177.8 971.585 1177.8 1030.89 1212.2 1067.46L1326.12 1188.54C1326.16 1188.58 1326.23 1188.55 1326.23 1188.5V1188.5C1326.23 1188.45 1326.29 1188.42 1326.33 1188.46L1476.4 1347.98C1530.74 1405.81 1530.74 1499.41 1476.4 1557.24L1326.23 1716.87L1319.79 1723.59L1171.27 1885.01C1117.48 1943.42 1030.39 1943.42 976.597 1885.01L828.207 1723.73C828.16 1723.68 828.196 1723.59 828.267 1723.59V1723.59C828.337 1723.59 828.374 1723.51 828.326 1723.46L716.076 1601.22C682.051 1564.26 626.876 1564.26 592.851 1601.22L480.079 1723.72C480.04 1723.77 479.984 1723.79 479.925 1723.79V1723.79C479.866 1723.79 479.81 1723.82 479.771 1723.86L331.687 1884.81C277.891 1943.22 190.805 1943.22 137.009 1884.81L-11.5053 1723.4L-17.2068 1717.76L-167.376 1558.13C-221.724 1500.3 -221.724 1406.7 -167.376 1348.87L-17.1148 1189.44L96.9147 1068.16C131.307 1031.58 131.307 972.277 96.9147 935.705L-17.0132 814.629C-17.0497 814.591 -17.1148 814.616 -17.1148 814.67V814.67C-17.1148 814.723 -17.18 814.749 -17.2164 814.71L-167.284 655.184C-221.632 597.36 -221.632 503.755 -167.284 445.931L-17.0229 286.594L-10.5857 279.872L137.929 118.558C191.725 60.1414 278.81 60.1414 332.606 118.558L480.996 279.836C481.044 279.888 481.007 279.971 480.937 279.971V279.971C480.866 279.971 480.83 280.055 480.877 280.107L593.127 402.143C627.152 439.111 682.327 439.111 716.352 402.143L829.124 279.644C829.164 279.6 829.22 279.576 829.278 279.576V279.576C829.337 279.576 829.393 279.551 829.432 279.508L977.517 118.558C1031.31 60.1414 1118.4 60.1414 1172.19 118.558L1320.71 279.971L1326.41 285.605L1476.58 445.239C1530.93 503.063 1530.93 596.668 1476.58 654.492L1326.56 813.967C1326.49 814.043 1326.36 814.023 1326.32 813.928V813.928Z" stroke="url(#paint19_linear)" stroke-width="1.75" stroke-miterlimit="10" stroke-linecap="round"/>
<path d="M1326.32 813.928C1326.27 813.834 1326.15 813.813 1326.08 813.89L1212.2 935.013C1177.8 971.585 1177.8 1030.89 1212.2 1067.46L1326.12 1188.54C1326.16 1188.58 1326.23 1188.55 1326.23 1188.5V1188.5C1326.23 1188.45 1326.29 1188.42 1326.33 1188.46L1476.4 1347.98C1530.74 1405.81 1530.74 1499.41 1476.4 1557.24L1326.23 1716.87L1319.79 1723.59L1171.27 1885.01C1117.48 1943.42 1030.39 1943.42 976.597 1885.01L828.207 1723.73C828.16 1723.68 828.196 1723.59 828.267 1723.59V1723.59C828.337 1723.59 828.374 1723.51 828.326 1723.46L716.076 1601.22C682.051 1564.26 626.876 1564.26 592.851 1601.22L480.079 1723.72C480.04 1723.77 479.984 1723.79 479.925 1723.79V1723.79C479.866 1723.79 479.81 1723.82 479.771 1723.86L331.687 1884.81C277.891 1943.22 190.805 1943.22 137.009 1884.81L-11.5053 1723.4L-17.2068 1717.76L-167.376 1558.13C-221.724 1500.3 -221.724 1406.7 -167.376 1348.87L-17.1148 1189.44L96.9147 1068.16C131.307 1031.58 131.307 972.277 96.9147 935.705L-17.0132 814.629C-17.0497 814.591 -17.1148 814.616 -17.1148 814.67V814.67C-17.1148 814.723 -17.18 814.749 -17.2164 814.71L-167.284 655.184C-221.632 597.36 -221.632 503.755 -167.284 445.931L-17.0229 286.594L-10.5857 279.872L137.929 118.558C191.725 60.1414 278.81 60.1414 332.606 118.558L480.996 279.836C481.044 279.888 481.007 279.971 480.937 279.971V279.971C480.866 279.971 480.83 280.055 480.877 280.107L593.127 402.143C627.152 439.111 682.327 439.111 716.352 402.143L829.124 279.644C829.164 279.6 829.22 279.576 829.278 279.576V279.576C829.337 279.576 829.393 279.551 829.432 279.508L977.517 118.558C1031.31 60.1414 1118.4 60.1414 1172.19 118.558L1320.71 279.971L1326.41 285.605L1476.58 445.239C1530.93 503.063 1530.93 596.668 1476.58 654.492L1326.56 813.967C1326.49 814.043 1326.36 814.023 1326.32 813.928V813.928Z" stroke="url(#paint20_linear)" stroke-width="1.75" stroke-miterlimit="10" stroke-linecap="round"/>
<path d="M1319.74 815.706C1319.72 815.659 1319.66 815.649 1319.62 815.687L1206.77 935.703C1172.66 971.979 1172.66 1030.69 1206.77 1066.87L1319.51 1186.76C1319.54 1186.8 1319.61 1186.77 1319.61 1186.72V1186.72C1319.61 1186.67 1319.67 1186.64 1319.71 1186.68L1468.31 1344.62C1522.1 1401.85 1522.1 1494.57 1468.31 1551.8L1319.61 1709.75L1313.26 1716.38L1166.22 1876.21C1112.97 1934.03 1026.72 1934.03 973.472 1876.21L826.554 1716.51C826.506 1716.46 826.543 1716.38 826.613 1716.38V1716.38C826.684 1716.38 826.72 1716.29 826.673 1716.24L715.435 1595.39C681.686 1558.72 627.062 1558.72 593.405 1595.39L481.829 1716.7C481.789 1716.75 481.733 1716.77 481.674 1716.77V1716.77C481.616 1716.77 481.56 1716.8 481.52 1716.84L334.815 1876.21C281.571 1934.03 195.313 1934.03 142.069 1876.21L-4.97415 1716.38L-10.5837 1710.84L-159.282 1552.79C-213.078 1495.56 -213.078 1402.84 -159.282 1345.61L-10.4917 1187.76L102.434 1067.66C136.551 1031.38 136.551 972.671 102.434 936.494L-10.3901 816.605C-10.4266 816.566 -10.4917 816.592 -10.4917 816.645V816.645C-10.4917 816.699 -10.5568 816.725 -10.5933 816.686L-159.098 658.84C-212.894 601.61 -212.894 508.894 -159.098 451.663L-10.3997 293.611L-4.05454 286.988L142.988 127.157C196.233 69.3329 282.49 69.3329 335.735 127.157L482.653 286.853C482.701 286.905 482.664 286.988 482.594 286.988V286.988C482.524 286.988 482.487 287.072 482.534 287.124L593.773 407.974C627.522 444.645 682.145 444.645 715.803 407.974L827.471 286.66C827.51 286.617 827.566 286.593 827.625 286.593V286.593C827.684 286.593 827.739 286.568 827.779 286.525L974.392 127.157C1027.64 69.3329 1113.89 69.3329 1167.14 127.157L1314.18 286.988L1319.79 292.523L1468.49 450.576C1522.29 507.806 1522.29 600.522 1468.49 657.753L1319.87 815.726C1319.83 815.764 1319.77 815.754 1319.74 815.706V815.706Z" stroke="url(#paint21_linear)" stroke-width="1.75" stroke-miterlimit="10" stroke-linecap="round"/>
<path d="M1319.74 815.706C1319.72 815.659 1319.66 815.649 1319.62 815.687L1206.77 935.703C1172.66 971.979 1172.66 1030.69 1206.77 1066.87L1319.51 1186.76C1319.54 1186.8 1319.61 1186.77 1319.61 1186.72V1186.72C1319.61 1186.67 1319.67 1186.64 1319.71 1186.68L1468.31 1344.62C1522.1 1401.85 1522.1 1494.57 1468.31 1551.8L1319.61 1709.75L1313.26 1716.38L1166.22 1876.21C1112.97 1934.03 1026.72 1934.03 973.472 1876.21L826.554 1716.51C826.506 1716.46 826.543 1716.38 826.613 1716.38V1716.38C826.684 1716.38 826.72 1716.29 826.673 1716.24L715.435 1595.39C681.686 1558.72 627.062 1558.72 593.405 1595.39L481.829 1716.7C481.789 1716.75 481.733 1716.77 481.674 1716.77V1716.77C481.616 1716.77 481.56 1716.8 481.52 1716.84L334.815 1876.21C281.571 1934.03 195.313 1934.03 142.069 1876.21L-4.97415 1716.38L-10.5837 1710.84L-159.282 1552.79C-213.078 1495.56 -213.078 1402.84 -159.282 1345.61L-10.4917 1187.76L102.434 1067.66C136.551 1031.38 136.551 972.671 102.434 936.494L-10.3901 816.605C-10.4266 816.566 -10.4917 816.592 -10.4917 816.645V816.645C-10.4917 816.699 -10.5568 816.725 -10.5933 816.686L-159.098 658.84C-212.894 601.61 -212.894 508.894 -159.098 451.663L-10.3997 293.611L-4.05454 286.988L142.988 127.157C196.233 69.3329 282.49 69.3329 335.735 127.157L482.653 286.853C482.701 286.905 482.664 286.988 482.594 286.988V286.988C482.524 286.988 482.487 287.072 482.534 287.124L593.773 407.974C627.522 444.645 682.145 444.645 715.803 407.974L827.471 286.66C827.51 286.617 827.566 286.593 827.625 286.593V286.593C827.684 286.593 827.739 286.568 827.779 286.525L974.392 127.157C1027.64 69.3329 1113.89 69.3329 1167.14 127.157L1314.18 286.988L1319.79 292.523L1468.49 450.576C1522.29 507.806 1522.29 600.522 1468.49 657.753L1319.87 815.726C1319.83 815.764 1319.77 815.754 1319.74 815.706V815.706Z" stroke="url(#paint22_linear)" stroke-width="1.75" stroke-miterlimit="10" stroke-linecap="round"/>
<path d="M1313.13 817.485C1313.11 817.437 1313.05 817.427 1313.01 817.465L1201.26 936.296C1167.51 972.176 1167.51 1030.3 1201.26 1066.18L1312.98 1184.88C1313.02 1184.92 1313.08 1184.89 1313.08 1184.84V1184.84C1313.08 1184.79 1313.15 1184.76 1313.19 1184.8L1460.31 1341.16C1513.56 1397.8 1513.56 1489.63 1460.31 1546.26L1313.08 1702.73L1306.83 1709.26L1161.26 1867.51C1108.57 1924.74 1023.14 1924.74 970.444 1867.51L824.997 1709.39C824.949 1709.34 824.986 1709.26 825.056 1709.26V1709.26C825.127 1709.26 825.163 1709.17 825.116 1709.12L714.981 1589.46C681.6 1553.18 627.528 1553.18 594.147 1589.46L483.49 1709.59C483.45 1709.63 483.394 1709.65 483.336 1709.65V1709.65C483.277 1709.65 483.221 1709.68 483.181 1709.72L338.04 1867.61C285.347 1924.84 199.917 1924.84 147.224 1867.61L1.65292 1709.36L-3.95658 1703.92L-151.183 1547.45C-204.428 1490.81 -204.428 1398.99 -151.183 1342.35L-3.86464 1186.08L107.958 1067.17C141.707 1031.29 141.707 973.165 107.958 937.284L-3.76303 818.482C-3.79951 818.444 -3.86463 818.469 -3.86463 818.523V818.523C-3.86463 818.576 -3.92975 818.602 -3.96623 818.563L-151.091 662.2C-204.336 605.562 -204.336 513.736 -151.091 457.098L-3.86463 300.628L2.38862 294.104L148.052 135.854C200.745 78.6232 286.175 78.6232 338.868 135.854L484.315 293.969C484.362 294.02 484.326 294.104 484.255 294.104V294.104C484.185 294.104 484.148 294.187 484.196 294.239L594.33 413.903C627.712 450.179 681.784 450.179 715.165 413.903L825.73 293.776C825.769 293.733 825.825 293.708 825.884 293.708V293.708C825.942 293.708 825.998 293.684 826.038 293.641L971.18 135.854C1023.87 78.6232 1109.3 78.6232 1161.99 135.854L1307.66 294.104L1313.27 299.54L1460.49 456.011C1513.74 512.649 1513.74 604.475 1460.49 661.113L1313.25 817.504C1313.21 817.542 1313.15 817.532 1313.13 817.485V817.485Z" stroke="url(#paint23_linear)" stroke-width="1.75" stroke-miterlimit="10" stroke-linecap="round"/>
<path d="M1313.13 817.485C1313.11 817.437 1313.05 817.427 1313.01 817.465L1201.26 936.296C1167.51 972.176 1167.51 1030.3 1201.26 1066.18L1312.98 1184.88C1313.02 1184.92 1313.08 1184.89 1313.08 1184.84V1184.84C1313.08 1184.79 1313.15 1184.76 1313.19 1184.8L1460.31 1341.16C1513.56 1397.8 1513.56 1489.63 1460.31 1546.26L1313.08 1702.73L1306.83 1709.26L1161.26 1867.51C1108.57 1924.74 1023.14 1924.74 970.444 1867.51L824.997 1709.39C824.949 1709.34 824.986 1709.26 825.056 1709.26V1709.26C825.127 1709.26 825.163 1709.17 825.116 1709.12L714.981 1589.46C681.6 1553.18 627.528 1553.18 594.147 1589.46L483.49 1709.59C483.45 1709.63 483.394 1709.65 483.336 1709.65V1709.65C483.277 1709.65 483.221 1709.68 483.181 1709.72L338.04 1867.61C285.347 1924.84 199.917 1924.84 147.224 1867.61L1.65292 1709.36L-3.95658 1703.92L-151.183 1547.45C-204.428 1490.81 -204.428 1398.99 -151.183 1342.35L-3.86464 1186.08L107.958 1067.17C141.707 1031.29 141.707 973.165 107.958 937.284L-3.76303 818.482C-3.79951 818.444 -3.86463 818.469 -3.86463 818.523V818.523C-3.86463 818.576 -3.92975 818.602 -3.96623 818.563L-151.091 662.2C-204.336 605.562 -204.336 513.736 -151.091 457.098L-3.86463 300.628L2.38862 294.104L148.052 135.854C200.745 78.6232 286.175 78.6232 338.868 135.854L484.315 293.969C484.362 294.02 484.326 294.104 484.255 294.104V294.104C484.185 294.104 484.148 294.187 484.196 294.239L594.33 413.903C627.712 450.179 681.784 450.179 715.165 413.903L825.73 293.776C825.769 293.733 825.825 293.708 825.884 293.708V293.708C825.942 293.708 825.998 293.684 826.038 293.641L971.18 135.854C1023.87 78.6232 1109.3 78.6232 1161.99 135.854L1307.66 294.104L1313.27 299.54L1460.49 456.011C1513.74 512.649 1513.74 604.475 1460.49 661.113L1313.25 817.504C1313.21 817.542 1313.15 817.532 1313.13 817.485V817.485Z" stroke="url(#paint24_linear)" stroke-width="1.75" stroke-miterlimit="10" stroke-linecap="round"/>
<path d="M1306.64 819.365C1306.59 819.311 1306.51 819.311 1306.46 819.364L1195.83 936.99C1162.45 972.475 1162.45 1030.1 1195.83 1065.59L1306.36 1183.1C1306.39 1183.14 1306.46 1183.12 1306.46 1183.06V1183.06C1306.46 1183.01 1306.52 1182.98 1306.56 1183.02L1452.21 1337.8C1505 1393.85 1505 1484.78 1452.21 1540.93L1306.46 1695.82L1300.2 1702.34L1156.1 1859.01C1103.96 1915.75 1019.36 1915.75 967.127 1859.01L823.152 1702.48C823.104 1702.42 823.141 1702.34 823.211 1702.34V1702.34C823.281 1702.34 823.318 1702.26 823.271 1702.21L714.239 1583.73C681.226 1547.85 627.614 1547.85 594.6 1583.73L485.231 1702.57C485.191 1702.61 485.135 1702.64 485.077 1702.64V1702.64C485.018 1702.64 484.962 1702.66 484.923 1702.71L341.161 1858.91C289.02 1915.65 204.417 1915.65 152.184 1858.91L8.08412 1702.24L2.56656 1696.81L-143.189 1541.92C-195.973 1485.87 -195.973 1394.94 -143.189 1338.79L2.65853 1184.1L113.377 1066.48C146.759 1030.99 146.759 973.364 113.377 937.879L2.76012 820.362C2.72363 820.324 2.65854 820.349 2.65854 820.403V820.403C2.65854 820.456 2.59343 820.482 2.55694 820.443L-143.097 665.662C-195.882 609.617 -195.882 518.68 -143.097 462.537L2.75051 307.648L9.00372 301.124L153.104 144.456C205.245 87.719 289.847 87.719 342.08 144.456L486.056 300.989C486.104 301.04 486.067 301.124 485.997 301.124V301.124C485.926 301.124 485.89 301.208 485.937 301.259L594.968 419.737C627.982 455.618 681.594 455.618 714.607 419.737L824.068 300.796C824.108 300.753 824.164 300.729 824.223 300.729V300.729C824.281 300.729 824.337 300.704 824.377 300.661L968.139 144.456C1020.28 87.719 1104.88 87.719 1157.12 144.456L1301.22 301.124L1306.73 306.56L1452.49 461.45C1505.27 517.494 1505.27 608.431 1452.49 664.575L1306.83 819.365C1306.78 819.419 1306.69 819.418 1306.64 819.365V819.365Z" stroke="url(#paint25_linear)" stroke-width="1.75" stroke-miterlimit="10" stroke-linecap="round"/>
<path d="M1306.64 819.365C1306.59 819.311 1306.51 819.311 1306.46 819.364L1195.83 936.99C1162.45 972.475 1162.45 1030.1 1195.83 1065.59L1306.36 1183.1C1306.39 1183.14 1306.46 1183.12 1306.46 1183.06V1183.06C1306.46 1183.01 1306.52 1182.98 1306.56 1183.02L1452.21 1337.8C1505 1393.85 1505 1484.78 1452.21 1540.93L1306.46 1695.82L1300.2 1702.34L1156.1 1859.01C1103.96 1915.75 1019.36 1915.75 967.127 1859.01L823.152 1702.48C823.104 1702.42 823.141 1702.34 823.211 1702.34V1702.34C823.281 1702.34 823.318 1702.26 823.271 1702.21L714.239 1583.73C681.226 1547.85 627.614 1547.85 594.6 1583.73L485.231 1702.57C485.191 1702.61 485.135 1702.64 485.077 1702.64V1702.64C485.018 1702.64 484.962 1702.66 484.923 1702.71L341.161 1858.91C289.02 1915.65 204.417 1915.65 152.184 1858.91L8.08412 1702.24L2.56656 1696.81L-143.189 1541.92C-195.973 1485.87 -195.973 1394.94 -143.189 1338.79L2.65853 1184.1L113.377 1066.48C146.759 1030.99 146.759 973.364 113.377 937.879L2.76012 820.362C2.72363 820.324 2.65854 820.349 2.65854 820.403V820.403C2.65854 820.456 2.59343 820.482 2.55694 820.443L-143.097 665.662C-195.882 609.617 -195.882 518.68 -143.097 462.537L2.75051 307.648L9.00372 301.124L153.104 144.456C205.245 87.719 289.847 87.719 342.08 144.456L486.056 300.989C486.104 301.04 486.067 301.124 485.997 301.124V301.124C485.926 301.124 485.89 301.208 485.937 301.259L594.968 419.737C627.982 455.618 681.594 455.618 714.607 419.737L824.068 300.796C824.108 300.753 824.164 300.729 824.223 300.729V300.729C824.281 300.729 824.337 300.704 824.377 300.661L968.139 144.456C1020.28 87.719 1104.88 87.719 1157.12 144.456L1301.22 301.124L1306.73 306.56L1452.49 461.45C1505.27 517.494 1505.27 608.431 1452.49 664.575L1306.83 819.365C1306.78 819.419 1306.69 819.418 1306.64 819.365V819.365Z" stroke="url(#paint26_linear)" stroke-width="1.75" stroke-miterlimit="10" stroke-linecap="round"/>
<path d="M1300.07 821.241C1300.05 821.194 1299.98 821.184 1299.95 821.222L1190.41 937.68C1157.3 972.868 1157.3 1029.8 1190.41 1064.99L1299.83 1181.32C1299.86 1181.36 1299.93 1181.34 1299.93 1181.28V1181.28C1299.93 1181.23 1299.99 1181.2 1300.03 1181.24L1444.21 1334.44C1496.45 1389.99 1496.45 1479.94 1444.21 1535.49L1299.93 1688.8L1293.77 1695.22L1151.14 1850.31C1099.46 1906.45 1015.78 1906.45 964.094 1850.31L821.59 1695.36C821.542 1695.31 821.579 1695.22 821.649 1695.22V1695.22C821.719 1695.22 821.756 1695.14 821.708 1695.09L713.781 1577.8C681.043 1542.21 628.075 1542.21 595.337 1577.8L486.98 1695.45C486.94 1695.5 486.884 1695.52 486.826 1695.52V1695.52C486.767 1695.52 486.711 1695.54 486.671 1695.59L344.289 1850.31C292.608 1906.45 208.925 1906.45 157.244 1850.31L14.6148 1695.22L9.18917 1689.89L-135.095 1536.58C-187.328 1481.03 -187.328 1391.08 -135.095 1335.53L9.28114 1182.42L118.897 1065.88C152.002 1030.69 152.002 973.758 118.897 938.569L9.47469 822.239C9.43822 822.2 9.37311 822.226 9.37311 822.279V822.279C9.37311 822.332 9.30802 822.358 9.27154 822.319L-134.911 669.12C-187.144 613.569 -187.144 523.621 -134.911 468.07L9.37312 314.763L15.5344 308.338L158.071 153.152C209.752 97.0086 293.435 97.0086 345.116 153.152L487.621 308.104C487.668 308.155 487.632 308.239 487.561 308.239V308.239C487.491 308.239 487.454 308.323 487.502 308.374L595.429 425.666C628.167 461.25 681.135 461.25 713.873 425.666L822.231 307.911C822.27 307.868 822.326 307.844 822.385 307.844V307.844C822.443 307.844 822.499 307.819 822.539 307.776L964.83 153.152C1016.51 97.0087 1100.19 97.0087 1151.87 153.152L1294.5 308.239L1299.93 313.577L1444.21 466.884C1496.45 522.435 1496.45 612.383 1444.21 667.934L1300.19 821.261C1300.15 821.299 1300.09 821.289 1300.07 821.241V821.241Z" stroke="url(#paint27_linear)" stroke-width="1.75" stroke-miterlimit="10" stroke-linecap="round"/>
<path d="M1300.07 821.241C1300.05 821.194 1299.98 821.184 1299.95 821.222L1190.41 937.68C1157.3 972.868 1157.3 1029.8 1190.41 1064.99L1299.83 1181.32C1299.86 1181.36 1299.93 1181.34 1299.93 1181.28V1181.28C1299.93 1181.23 1299.99 1181.2 1300.03 1181.24L1444.21 1334.44C1496.45 1389.99 1496.45 1479.94 1444.21 1535.49L1299.93 1688.8L1293.77 1695.22L1151.14 1850.31C1099.46 1906.45 1015.78 1906.45 964.094 1850.31L821.59 1695.36C821.542 1695.31 821.579 1695.22 821.649 1695.22V1695.22C821.719 1695.22 821.756 1695.14 821.708 1695.09L713.781 1577.8C681.043 1542.21 628.075 1542.21 595.337 1577.8L486.98 1695.45C486.94 1695.5 486.884 1695.52 486.826 1695.52V1695.52C486.767 1695.52 486.711 1695.54 486.671 1695.59L344.289 1850.31C292.608 1906.45 208.925 1906.45 157.244 1850.31L14.6148 1695.22L9.18917 1689.89L-135.095 1536.58C-187.328 1481.03 -187.328 1391.08 -135.095 1335.53L9.28114 1182.42L118.897 1065.88C152.002 1030.69 152.002 973.758 118.897 938.569L9.47469 822.239C9.43822 822.2 9.37311 822.226 9.37311 822.279V822.279C9.37311 822.332 9.30802 822.358 9.27154 822.319L-134.911 669.12C-187.144 613.569 -187.144 523.621 -134.911 468.07L9.37312 314.763L15.5344 308.338L158.071 153.152C209.752 97.0086 293.435 97.0086 345.116 153.152L487.621 308.104C487.668 308.155 487.632 308.239 487.561 308.239V308.239C487.491 308.239 487.454 308.323 487.502 308.374L595.429 425.666C628.167 461.25 681.135 461.25 713.873 425.666L822.231 307.911C822.27 307.868 822.326 307.844 822.385 307.844V307.844C822.443 307.844 822.499 307.819 822.539 307.776L964.83 153.152C1016.51 97.0087 1100.19 97.0087 1151.87 153.152L1294.5 308.239L1299.93 313.577L1444.21 466.884C1496.45 522.435 1496.45 612.383 1444.21 667.934L1300.19 821.261C1300.15 821.299 1300.09 821.289 1300.07 821.241V821.241Z" stroke="url(#paint28_linear)" stroke-width="1.75" stroke-miterlimit="10" stroke-linecap="round"/>
<path d="M1293.45 823.071C1293.43 823.005 1293.34 822.986 1293.3 823.036L1184.89 938.274C1152.15 973.068 1152.15 1029.51 1184.89 1064.3L1293.21 1179.45C1293.25 1179.48 1293.31 1179.46 1293.31 1179.41V1179.41C1293.31 1179.35 1293.38 1179.33 1293.41 1179.36L1436.12 1331.08C1487.81 1386.04 1487.81 1475.1 1436.12 1530.06L1293.31 1681.88L1287.24 1688.21L1145.99 1841.71C1094.86 1897.26 1012.01 1897.26 960.879 1841.71L819.754 1688.34C819.707 1688.29 819.743 1688.21 819.814 1688.21V1688.21C819.884 1688.21 819.921 1688.12 819.873 1688.07L713.049 1571.97C680.679 1536.78 628.171 1536.78 595.801 1571.97L488.547 1688.53C488.507 1688.58 488.451 1688.6 488.392 1688.6V1688.6C488.334 1688.6 488.278 1688.63 488.238 1688.67L347.511 1841.61C296.382 1897.16 213.526 1897.16 162.397 1841.61L21.1476 1688.11L15.722 1682.77L-127.091 1531.04C-178.772 1476.09 -178.772 1387.03 -127.091 1332.07L15.8139 1180.44L124.326 1065.09C157.063 1030.3 157.063 973.858 124.326 939.065L16.0075 823.921C15.971 823.882 15.9059 823.908 15.9059 823.961V823.961C15.9059 824.014 15.8408 824.04 15.8043 824.001L-126.907 672.383C-178.588 617.426 -178.588 528.367 -126.907 473.41L15.9059 321.585L21.9752 315.259L163.225 161.753C214.354 106.203 297.209 106.203 348.339 161.753L489.372 315.123C489.419 315.175 489.382 315.259 489.312 315.259V315.259C489.242 315.259 489.205 315.342 489.253 315.394L596.077 431.5C628.446 466.688 680.955 466.688 713.325 431.5L820.579 314.931C820.619 314.888 820.675 314.863 820.733 314.863V314.863C820.792 314.863 820.848 314.839 820.887 314.796L961.707 161.753C1012.84 106.203 1095.69 106.203 1146.82 161.753L1288.07 315.259L1293.5 320.596L1436.31 472.421C1487.99 527.379 1487.99 616.437 1436.31 671.395L1293.6 823.107C1293.55 823.157 1293.47 823.138 1293.45 823.071V823.071Z" stroke="url(#paint29_linear)" stroke-width="1.75" stroke-miterlimit="10" stroke-linecap="round"/>
<path d="M1293.45 823.071C1293.43 823.005 1293.34 822.986 1293.3 823.036L1184.89 938.274C1152.15 973.068 1152.15 1029.51 1184.89 1064.3L1293.21 1179.45C1293.25 1179.48 1293.31 1179.46 1293.31 1179.41V1179.41C1293.31 1179.35 1293.38 1179.33 1293.41 1179.36L1436.12 1331.08C1487.81 1386.04 1487.81 1475.1 1436.12 1530.06L1293.31 1681.88L1287.24 1688.21L1145.99 1841.71C1094.86 1897.26 1012.01 1897.26 960.879 1841.71L819.754 1688.34C819.707 1688.29 819.743 1688.21 819.814 1688.21V1688.21C819.884 1688.21 819.921 1688.12 819.873 1688.07L713.049 1571.97C680.679 1536.78 628.171 1536.78 595.801 1571.97L488.547 1688.53C488.507 1688.58 488.451 1688.6 488.392 1688.6V1688.6C488.334 1688.6 488.278 1688.63 488.238 1688.67L347.511 1841.61C296.382 1897.16 213.526 1897.16 162.397 1841.61L21.1476 1688.11L15.722 1682.77L-127.091 1531.04C-178.772 1476.09 -178.772 1387.03 -127.091 1332.07L15.8139 1180.44L124.326 1065.09C157.063 1030.3 157.063 973.858 124.326 939.065L16.0075 823.921C15.971 823.882 15.9059 823.908 15.9059 823.961V823.961C15.9059 824.014 15.8408 824.04 15.8043 824.001L-126.907 672.383C-178.588 617.426 -178.588 528.367 -126.907 473.41L15.9059 321.585L21.9752 315.259L163.225 161.753C214.354 106.203 297.209 106.203 348.339 161.753L489.372 315.123C489.419 315.175 489.382 315.259 489.312 315.259V315.259C489.242 315.259 489.205 315.342 489.253 315.394L596.077 431.5C628.446 466.688 680.955 466.688 713.325 431.5L820.579 314.931C820.619 314.888 820.675 314.863 820.733 314.863V314.863C820.792 314.863 820.848 314.839 820.887 314.796L961.707 161.753C1012.84 106.203 1095.69 106.203 1146.82 161.753L1288.07 315.259L1293.5 320.596L1436.31 472.421C1487.99 527.379 1487.99 616.437 1436.31 671.395L1293.6 823.107C1293.55 823.157 1293.47 823.138 1293.45 823.071V823.071Z" stroke="url(#paint30_linear)" stroke-width="1.75" stroke-miterlimit="10" stroke-linecap="round"/>
<path d="M1286.87 824.85C1286.87 824.832 1286.85 824.823 1286.83 824.836L1179.46 938.966C1147.09 973.363 1147.09 1029.21 1179.46 1063.71L1286.68 1177.67C1286.71 1177.7 1286.78 1177.68 1286.78 1177.63V1177.63C1286.78 1177.57 1286.84 1177.55 1286.88 1177.58L1428.12 1327.72C1479.25 1382.08 1479.25 1470.25 1428.12 1524.62L1286.78 1674.86L1280.71 1681.19L1140.93 1833.11C1090.35 1888.07 1008.32 1888.07 957.747 1833.11L818.093 1681.32C818.045 1681.27 818.082 1681.19 818.152 1681.19V1681.19C818.223 1681.19 818.259 1681.1 818.212 1681.05L712.491 1566.13C680.489 1531.34 628.532 1531.34 596.439 1566.13L490.38 1681.42C490.34 1681.46 490.284 1681.48 490.226 1681.48V1681.48C490.167 1681.48 490.111 1681.51 490.071 1681.55L350.631 1833.01C300.054 1887.97 218.026 1887.97 167.449 1833.01L27.6705 1681.09L22.3368 1675.85L-119.005 1525.61C-170.134 1471.24 -170.134 1383.07 -119.005 1328.71L22.4288 1178.66L129.745 1064.5C162.115 1030.1 162.115 974.253 129.745 939.756L22.5304 825.798C22.4939 825.759 22.4288 825.785 22.4288 825.838V825.838C22.4288 825.891 22.3637 825.917 22.3272 825.878L-118.913 675.743C-170.042 621.379 -170.042 533.209 -118.913 478.845L22.4288 328.602L28.4981 322.276L168.276 170.352C218.854 115.394 300.882 115.394 351.459 170.352L491.113 322.14C491.16 322.192 491.124 322.276 491.053 322.276V322.276C490.983 322.276 490.946 322.359 490.994 322.411L596.714 437.33C628.716 472.124 680.673 472.124 712.767 437.33L818.918 321.948C818.957 321.905 819.013 321.88 819.072 321.88V321.88C819.131 321.88 819.187 321.856 819.226 321.812L958.574 170.352C1009.15 115.394 1091.18 115.394 1141.76 170.352L1281.54 322.276L1286.87 327.514L1428.21 477.758C1479.34 532.122 1479.34 620.291 1428.21 674.656L1286.9 824.863C1286.89 824.876 1286.87 824.867 1286.87 824.85V824.85Z" stroke="url(#paint31_linear)" stroke-width="1.75" stroke-miterlimit="10" stroke-linecap="round"/>
<path d="M1286.87 824.85C1286.87 824.832 1286.85 824.823 1286.83 824.836L1179.46 938.966C1147.09 973.363 1147.09 1029.21 1179.46 1063.71L1286.68 1177.67C1286.71 1177.7 1286.78 1177.68 1286.78 1177.63V1177.63C1286.78 1177.57 1286.84 1177.55 1286.88 1177.58L1428.12 1327.72C1479.25 1382.08 1479.25 1470.25 1428.12 1524.62L1286.78 1674.86L1280.71 1681.19L1140.93 1833.11C1090.35 1888.07 1008.32 1888.07 957.747 1833.11L818.093 1681.32C818.045 1681.27 818.082 1681.19 818.152 1681.19V1681.19C818.223 1681.19 818.259 1681.1 818.212 1681.05L712.491 1566.13C680.489 1531.34 628.532 1531.34 596.439 1566.13L490.38 1681.42C490.34 1681.46 490.284 1681.48 490.226 1681.48V1681.48C490.167 1681.48 490.111 1681.51 490.071 1681.55L350.631 1833.01C300.054 1887.97 218.026 1887.97 167.449 1833.01L27.6705 1681.09L22.3368 1675.85L-119.005 1525.61C-170.134 1471.24 -170.134 1383.07 -119.005 1328.71L22.4288 1178.66L129.745 1064.5C162.115 1030.1 162.115 974.253 129.745 939.756L22.5304 825.798C22.4939 825.759 22.4288 825.785 22.4288 825.838V825.838C22.4288 825.891 22.3637 825.917 22.3272 825.878L-118.913 675.743C-170.042 621.379 -170.042 533.209 -118.913 478.845L22.4288 328.602L28.4981 322.276L168.276 170.352C218.854 115.394 300.882 115.394 351.459 170.352L491.113 322.14C491.16 322.192 491.124 322.276 491.053 322.276V322.276C490.983 322.276 490.946 322.359 490.994 322.411L596.714 437.33C628.716 472.124 680.673 472.124 712.767 437.33L818.918 321.948C818.957 321.905 819.013 321.88 819.072 321.88V321.88C819.131 321.88 819.187 321.856 819.226 321.812L958.574 170.352C1009.15 115.394 1091.18 115.394 1141.76 170.352L1281.54 322.276L1286.87 327.514L1428.21 477.758C1479.34 532.122 1479.34 620.291 1428.21 674.656L1286.9 824.863C1286.89 824.876 1286.87 824.867 1286.87 824.85V824.85Z" stroke="url(#paint32_linear)" stroke-width="1.75" stroke-miterlimit="10" stroke-linecap="round"/>
<path d="M1280.3 826.729C1280.28 826.663 1280.19 826.643 1280.14 826.694L1174.04 939.56C1141.94 973.661 1141.94 1028.91 1174.04 1063.02L1280.15 1175.79C1280.18 1175.83 1280.25 1175.8 1280.25 1175.75V1175.75C1280.25 1175.69 1280.32 1175.67 1280.35 1175.71L1420.12 1324.26C1470.79 1378.03 1470.79 1465.31 1420.12 1519.18L1280.25 1667.84L1274.27 1674.07L1135.97 1824.41C1085.94 1878.88 1004.74 1878.88 954.622 1824.41L816.44 1674.21C816.392 1674.16 816.429 1674.07 816.499 1674.07V1674.07C816.57 1674.07 816.606 1673.99 816.559 1673.94L711.942 1560.2C680.216 1525.71 628.811 1525.71 597.085 1560.2L492.037 1674.3C491.998 1674.34 491.942 1674.37 491.883 1674.37V1674.37C491.825 1674.37 491.769 1674.39 491.729 1674.44L353.76 1824.31C303.735 1878.78 222.534 1878.78 172.417 1824.31L34.11 1673.97L28.7763 1668.73L-111.002 1520.17C-161.671 1466.4 -161.671 1379.12 -111.002 1325.25L28.9603 1176.79L135.173 1063.81C167.267 1029.71 167.267 974.452 135.173 940.35L29.0619 827.578C29.0254 827.539 28.9603 827.565 28.9603 827.618V827.618C28.9603 827.672 28.8951 827.697 28.8586 827.659L-110.91 679.105C-161.579 625.333 -161.579 538.054 -110.91 484.184L28.9603 335.522L34.9376 329.295L173.244 178.953C223.27 124.489 304.47 124.489 354.588 178.953L492.77 329.258C492.818 329.31 492.781 329.394 492.711 329.394V329.394C492.641 329.394 492.604 329.477 492.651 329.529L597.269 443.262C628.994 477.759 680.4 477.759 712.126 443.262L817.173 329.165C817.212 329.122 817.268 329.097 817.327 329.097V329.097C817.386 329.097 817.442 329.073 817.481 329.029L955.45 179.15C1005.48 124.687 1086.68 124.687 1136.79 179.15L1275.1 329.492L1280.43 334.731L1420.21 483.294C1470.88 537.066 1470.88 624.345 1420.21 678.215L1280.45 826.764C1280.4 826.814 1280.32 826.795 1280.3 826.729V826.729Z" stroke="url(#paint33_linear)" stroke-width="1.75" stroke-miterlimit="10" stroke-linecap="round"/>
<path d="M1280.3 826.729C1280.28 826.663 1280.19 826.643 1280.14 826.694L1174.04 939.56C1141.94 973.661 1141.94 1028.91 1174.04 1063.02L1280.15 1175.79C1280.18 1175.83 1280.25 1175.8 1280.25 1175.75V1175.75C1280.25 1175.69 1280.32 1175.67 1280.35 1175.71L1420.12 1324.26C1470.79 1378.03 1470.79 1465.31 1420.12 1519.18L1280.25 1667.84L1274.27 1674.07L1135.97 1824.41C1085.94 1878.88 1004.74 1878.88 954.622 1824.41L816.44 1674.21C816.392 1674.16 816.429 1674.07 816.499 1674.07V1674.07C816.57 1674.07 816.606 1673.99 816.559 1673.94L711.942 1560.2C680.216 1525.71 628.811 1525.71 597.085 1560.2L492.037 1674.3C491.998 1674.34 491.942 1674.37 491.883 1674.37V1674.37C491.825 1674.37 491.769 1674.39 491.729 1674.44L353.76 1824.31C303.735 1878.78 222.534 1878.78 172.417 1824.31L34.11 1673.97L28.7763 1668.73L-111.002 1520.17C-161.671 1466.4 -161.671 1379.12 -111.002 1325.25L28.9603 1176.79L135.173 1063.81C167.267 1029.71 167.267 974.452 135.173 940.35L29.0619 827.578C29.0254 827.539 28.9603 827.565 28.9603 827.618V827.618C28.9603 827.672 28.8951 827.697 28.8586 827.659L-110.91 679.105C-161.579 625.333 -161.579 538.054 -110.91 484.184L28.9603 335.522L34.9376 329.295L173.244 178.953C223.27 124.489 304.47 124.489 354.588 178.953L492.77 329.258C492.818 329.31 492.781 329.394 492.711 329.394V329.394C492.641 329.394 492.604 329.477 492.651 329.529L597.269 443.262C628.994 477.759 680.4 477.759 712.126 443.262L817.173 329.165C817.212 329.122 817.268 329.097 817.327 329.097V329.097C817.386 329.097 817.442 329.073 817.481 329.029L955.45 179.15C1005.48 124.687 1086.68 124.687 1136.79 179.15L1275.1 329.492L1280.43 334.731L1420.21 483.294C1470.88 537.066 1470.88 624.345 1420.21 678.215L1280.45 826.764C1280.4 826.814 1280.32 826.795 1280.3 826.729V826.729Z" stroke="url(#paint34_linear)" stroke-width="1.75" stroke-miterlimit="10" stroke-linecap="round"/>
<path d="M1273.72 828.607C1273.72 828.553 1273.66 828.527 1273.62 828.566L1168.61 940.251C1136.89 973.957 1136.89 1028.62 1168.61 1062.42L1273.62 1174.01C1273.66 1174.05 1273.72 1174.02 1273.72 1173.97V1173.97C1273.72 1173.92 1273.79 1173.89 1273.82 1173.93L1412.12 1320.9C1462.24 1374.18 1462.24 1460.47 1412.12 1513.75L1273.63 1660.83L1267.74 1666.95L1130.91 1815.72C1081.34 1869.59 1001.06 1869.59 951.495 1815.72L814.785 1667.09C814.737 1667.04 814.774 1666.95 814.844 1666.95V1666.95C814.914 1666.95 814.951 1666.87 814.903 1666.82L711.39 1554.27C680.032 1520.17 629.178 1520.17 597.728 1554.27L493.785 1667.28C493.745 1667.33 493.689 1667.35 493.63 1667.35V1667.35C493.572 1667.35 493.516 1667.37 493.476 1667.42L356.979 1815.72C307.413 1869.59 227.132 1869.59 177.566 1815.72L40.7308 1666.95L35.4892 1661.81L-103.001 1514.73C-153.119 1461.46 -153.119 1375.17 -103.001 1321.89L35.4892 1175.01L140.691 1063.21C172.417 1029.51 172.417 974.847 140.691 941.042L35.6828 829.456C35.6463 829.417 35.5812 829.443 35.5812 829.496V829.496C35.5812 829.549 35.516 829.575 35.4795 829.536L-102.818 682.564C-152.935 629.287 -152.935 542.996 -102.818 489.719L35.5812 342.638L41.4665 336.51L178.302 187.749C227.868 133.879 308.148 133.879 357.714 187.749L494.425 336.375C494.473 336.426 494.436 336.51 494.366 336.51V336.51C494.296 336.51 494.259 336.594 494.307 336.645L597.82 449.193C629.178 483.294 680.032 483.294 711.482 449.193L815.426 336.281C815.465 336.238 815.521 336.213 815.58 336.213V336.213C815.638 336.213 815.694 336.189 815.734 336.146L952.231 187.848C1001.8 133.978 1082.08 133.978 1131.64 187.848L1268.48 336.609L1273.72 341.749L1412.12 488.829C1462.24 542.106 1462.24 628.397 1412.12 681.674L1273.82 828.647C1273.79 828.686 1273.72 828.66 1273.72 828.607V828.607Z" stroke="url(#paint35_linear)" stroke-width="1.75" stroke-miterlimit="10" stroke-linecap="round"/>
<path d="M1273.72 828.607C1273.72 828.553 1273.66 828.527 1273.62 828.566L1168.61 940.251C1136.89 973.957 1136.89 1028.62 1168.61 1062.42L1273.62 1174.01C1273.66 1174.05 1273.72 1174.02 1273.72 1173.97V1173.97C1273.72 1173.92 1273.79 1173.89 1273.82 1173.93L1412.12 1320.9C1462.24 1374.18 1462.24 1460.47 1412.12 1513.75L1273.63 1660.83L1267.74 1666.95L1130.91 1815.72C1081.34 1869.59 1001.06 1869.59 951.495 1815.72L814.785 1667.09C814.737 1667.04 814.774 1666.95 814.844 1666.95V1666.95C814.914 1666.95 814.951 1666.87 814.903 1666.82L711.39 1554.27C680.032 1520.17 629.178 1520.17 597.728 1554.27L493.785 1667.28C493.745 1667.33 493.689 1667.35 493.63 1667.35V1667.35C493.572 1667.35 493.516 1667.37 493.476 1667.42L356.979 1815.72C307.413 1869.59 227.132 1869.59 177.566 1815.72L40.7308 1666.95L35.4892 1661.81L-103.001 1514.73C-153.119 1461.46 -153.119 1375.17 -103.001 1321.89L35.4892 1175.01L140.691 1063.21C172.417 1029.51 172.417 974.847 140.691 941.042L35.6828 829.456C35.6463 829.417 35.5812 829.443 35.5812 829.496V829.496C35.5812 829.549 35.516 829.575 35.4795 829.536L-102.818 682.564C-152.935 629.287 -152.935 542.996 -102.818 489.719L35.5812 342.638L41.4665 336.51L178.302 187.749C227.868 133.879 308.148 133.879 357.714 187.749L494.425 336.375C494.473 336.426 494.436 336.51 494.366 336.51V336.51C494.296 336.51 494.259 336.594 494.307 336.645L597.82 449.193C629.178 483.294 680.032 483.294 711.482 449.193L815.426 336.281C815.465 336.238 815.521 336.213 815.58 336.213V336.213C815.638 336.213 815.694 336.189 815.734 336.146L952.231 187.848C1001.8 133.978 1082.08 133.978 1131.64 187.848L1268.48 336.609L1273.72 341.749L1412.12 488.829C1462.24 542.106 1462.24 628.397 1412.12 681.674L1273.82 828.647C1273.79 828.686 1273.72 828.66 1273.72 828.607V828.607Z" stroke="url(#paint36_linear)" stroke-width="1.75" stroke-miterlimit="10" stroke-linecap="round"/>
</g>
<defs>
<linearGradient id="paint0_linear" x1="-0.484692" y1="69.5165" x2="150.487" y2="69.5165" gradientUnits="userSpaceOnUse">
<stop stop-color="#B480FF"/>
<stop offset="0.604167" stop-color="#5F00E6"/>
<stop offset="0.859375" stop-color="#1AA4FF" stop-opacity="0.49"/>
<stop offset="1" stop-color="#28B86A" stop-opacity="0.27"/>
</linearGradient>
<linearGradient id="paint1_linear" x1="654.828" y1="2016.78" x2="654.828" y2="-13.5484" gradientUnits="userSpaceOnUse">
<stop stop-color="#2DCF78"/>
</linearGradient>
<linearGradient id="paint2_linear" x1="654.828" y1="2016.78" x2="654.828" y2="-13.5484" gradientUnits="userSpaceOnUse">
<stop stop-color="#2DCF78"/>
</linearGradient>
<linearGradient id="paint3_linear" x1="654.916" y1="2007.68" x2="654.916" y2="-4.24729" gradientUnits="userSpaceOnUse">
<stop stop-color="#2DCF78"/>
</linearGradient>
<linearGradient id="paint4_linear" x1="654.916" y1="2007.68" x2="654.916" y2="-4.24729" gradientUnits="userSpaceOnUse">
<stop stop-color="#2DCF78"/>
</linearGradient>
<linearGradient id="paint5_linear" x1="654.87" y1="1998.55" x2="654.87" y2="4.8808" gradientUnits="userSpaceOnUse">
<stop stop-color="#2DCF78"/>
</linearGradient>
<linearGradient id="paint6_linear" x1="654.87" y1="1998.55" x2="654.87" y2="4.8808" gradientUnits="userSpaceOnUse">
<stop stop-color="#2DCF78"/>
</linearGradient>
<linearGradient id="paint7_linear" x1="654.822" y1="1989.45" x2="654.822" y2="13.8846" gradientUnits="userSpaceOnUse">
<stop stop-color="#2DCF78"/>
</linearGradient>
<linearGradient id="paint8_linear" x1="654.822" y1="1989.45" x2="654.822" y2="13.8846" gradientUnits="userSpaceOnUse">
<stop stop-color="#2DCF78"/>
</linearGradient>
<linearGradient id="paint9_linear" x1="654.959" y1="1980.35" x2="654.959" y2="22.988" gradientUnits="userSpaceOnUse">
<stop stop-color="#2DCF78"/>
</linearGradient>
<linearGradient id="paint10_linear" x1="654.959" y1="1980.35" x2="654.959" y2="22.988" gradientUnits="userSpaceOnUse">
<stop stop-color="#2DCF78"/>
</linearGradient>
<linearGradient id="paint11_linear" x1="654.91" y1="1971.15" x2="654.91" y2="32.1908" gradientUnits="userSpaceOnUse">
<stop stop-color="#2DCF78"/>
</linearGradient>
<linearGradient id="paint12_linear" x1="654.91" y1="1971.15" x2="654.91" y2="32.1908" gradientUnits="userSpaceOnUse">
<stop stop-color="#2DCF78"/>
</linearGradient>
<linearGradient id="paint13_linear" x1="654.859" y1="1962.04" x2="654.859" y2="41.2933" gradientUnits="userSpaceOnUse">
<stop stop-color="#2DCF78"/>
</linearGradient>
<linearGradient id="paint14_linear" x1="654.859" y1="1962.04" x2="654.859" y2="41.2933" gradientUnits="userSpaceOnUse">
<stop stop-color="#2DCF78"/>
</linearGradient>
<linearGradient id="paint15_linear" x1="654.814" y1="1952.92" x2="654.814" y2="50.4222" gradientUnits="userSpaceOnUse">
<stop stop-color="#2DCF78"/>
</linearGradient>
<linearGradient id="paint16_linear" x1="654.814" y1="1952.92" x2="654.814" y2="50.4222" gradientUnits="userSpaceOnUse">
<stop stop-color="#2DCF78"/>
</linearGradient>
<linearGradient id="paint17_linear" x1="654.859" y1="1943.81" x2="654.859" y2="59.5244" gradientUnits="userSpaceOnUse">
<stop stop-color="#2DCF78"/>
</linearGradient>
<linearGradient id="paint18_linear" x1="654.859" y1="1943.81" x2="654.859" y2="59.5244" gradientUnits="userSpaceOnUse">
<stop stop-color="#2DCF78"/>
</linearGradient>
<linearGradient id="paint19_linear" x1="654.806" y1="1934.81" x2="654.806" y2="68.7269" gradientUnits="userSpaceOnUse">
<stop stop-color="#2DCF78"/>
</linearGradient>
<linearGradient id="paint20_linear" x1="654.806" y1="1934.81" x2="654.806" y2="68.7269" gradientUnits="userSpaceOnUse">
<stop stop-color="#2DCF78"/>
</linearGradient>
<linearGradient id="paint21_linear" x1="654.806" y1="1925.51" x2="654.806" y2="77.8294" gradientUnits="userSpaceOnUse">
<stop stop-color="#2DCF78"/>
</linearGradient>
<linearGradient id="paint22_linear" x1="654.806" y1="1925.51" x2="654.806" y2="77.8294" gradientUnits="userSpaceOnUse">
<stop stop-color="#2DCF78"/>
</linearGradient>
<linearGradient id="paint23_linear" x1="654.856" y1="1916.4" x2="654.856" y2="87.0306" gradientUnits="userSpaceOnUse">
<stop stop-color="#2DCF78"/>
</linearGradient>
<linearGradient id="paint24_linear" x1="654.856" y1="1916.4" x2="654.856" y2="87.0306" gradientUnits="userSpaceOnUse">
<stop stop-color="#2DCF78"/>
</linearGradient>
<linearGradient id="paint25_linear" x1="654.848" y1="1907.38" x2="654.849" y2="96.0609" gradientUnits="userSpaceOnUse">
<stop stop-color="#2DCF78"/>
</linearGradient>
<linearGradient id="paint26_linear" x1="654.848" y1="1907.38" x2="654.849" y2="96.0609" gradientUnits="userSpaceOnUse">
<stop stop-color="#2DCF78"/>
</linearGradient>
<linearGradient id="paint27_linear" x1="654.756" y1="1898.17" x2="654.756" y2="105.262" gradientUnits="userSpaceOnUse">
<stop stop-color="#2DCF78"/>
</linearGradient>
<linearGradient id="paint28_linear" x1="654.756" y1="1898.17" x2="654.756" y2="105.262" gradientUnits="userSpaceOnUse">
<stop stop-color="#2DCF78"/>
</linearGradient>
<linearGradient id="paint29_linear" x1="654.803" y1="1889.07" x2="654.804" y2="114.366" gradientUnits="userSpaceOnUse">
<stop stop-color="#2DCF78"/>
</linearGradient>
<linearGradient id="paint30_linear" x1="654.803" y1="1889.07" x2="654.804" y2="114.366" gradientUnits="userSpaceOnUse">
<stop stop-color="#2DCF78"/>
</linearGradient>
<linearGradient id="paint31_linear" x1="654.795" y1="1879.97" x2="654.796" y2="123.468" gradientUnits="userSpaceOnUse">
<stop stop-color="#2DCF78"/>
</linearGradient>
<linearGradient id="paint32_linear" x1="654.795" y1="1879.97" x2="654.796" y2="123.468" gradientUnits="userSpaceOnUse">
<stop stop-color="#2DCF78"/>
</linearGradient>
<linearGradient id="paint33_linear" x1="654.796" y1="1870.84" x2="654.796" y2="132.498" gradientUnits="userSpaceOnUse">
<stop stop-color="#2DCF78"/>
</linearGradient>
<linearGradient id="paint34_linear" x1="654.796" y1="1870.84" x2="654.796" y2="132.498" gradientUnits="userSpaceOnUse">
<stop stop-color="#2DCF78"/>
</linearGradient>
<linearGradient id="paint35_linear" x1="654.748" y1="1861.64" x2="654.748" y2="141.799" gradientUnits="userSpaceOnUse">
<stop stop-color="#2DCF78"/>
</linearGradient>
<linearGradient id="paint36_linear" x1="654.748" y1="1861.64" x2="654.748" y2="141.799" gradientUnits="userSpaceOnUse">
<stop stop-color="#2DCF78"/>
</linearGradient>
</defs>
</svg>
