<svg width="146" height="121" viewBox="0 0 146 121" fill="none" xmlns="http://www.w3.org/2000/svg">
<mask id="mask0" mask-type="alpha" maskUnits="userSpaceOnUse" x="0" y="0" width="146" height="121">
<path d="M0.5 0.5H145.5V111C145.5 116.247 141.247 120.5 136 120.5H0.5V0.5Z" fill="#232325" stroke="url(#paint0_linear)"/>
</mask>
<g mask="url(#mask0)">
<path d="M1364.24 802.371C1364.22 802.304 1364.14 802.285 1364.09 802.335L1240.05 934.179C1202.62 974.014 1202.62 1038.56 1240.05 1078.39L1363.97 1210.11C1364.02 1210.16 1364.1 1210.12 1364.1 1210.05V1210.05C1364.1 1209.98 1364.19 1209.95 1364.24 1210L1527.52 1383.53C1586.65 1446.39 1586.65 1548.3 1527.52 1611.16L1364.1 1784.83L1357.12 1792.15L1195.64 1967.6C1137.15 2031.15 1042.34 2031.15 983.853 1967.6L822.405 1792.09C822.358 1792.03 822.394 1791.95 822.465 1791.95V1791.95C822.535 1791.95 822.572 1791.87 822.524 1791.82L700.251 1659C663.191 1618.78 603.142 1618.78 566.082 1659L443.348 1792.41C443.328 1792.43 443.3 1792.44 443.271 1792.44V1792.44C443.242 1792.44 443.214 1792.46 443.194 1792.48L282.112 1967.6C223.626 2031.15 128.816 2031.15 70.33 1967.6L-91.2424 1791.95L-97.4036 1785.82L-260.815 1612.25C-319.945 1549.39 -319.945 1447.48 -260.815 1384.61L-97.3117 1211.24L26.8333 1079.28C64.2608 1039.45 64.2608 974.903 26.8333 935.069L-97.0842 803.355C-97.1329 803.303 -97.2197 803.337 -97.2197 803.408V803.408C-97.2197 803.479 -97.3065 803.514 -97.3552 803.462L-260.631 629.937C-319.761 567.072 -319.761 465.163 -260.631 402.298L-97.2197 228.629L-90.2308 221.314L71.3416 45.6676C129.828 -17.8894 224.638 -17.8894 283.124 45.6676L444.449 221.244C444.508 221.308 444.462 221.413 444.374 221.413V221.413C444.287 221.413 444.241 221.517 444.3 221.582L566.542 354.359C603.602 394.588 663.651 394.588 700.711 354.359L823.383 221.02C823.442 220.955 823.526 220.919 823.614 220.919V220.919C823.702 220.919 823.786 220.882 823.846 220.817L984.957 45.7665C1043.44 -17.7904 1138.25 -17.7904 1196.74 45.7665L1358.13 221.413L1364.29 227.541L1527.7 401.211C1586.83 464.076 1586.83 565.984 1527.7 628.849L1364.4 802.406C1364.35 802.456 1364.26 802.437 1364.24 802.371V802.371Z" stroke="url(#paint1_linear)" stroke-width="1.75" stroke-miterlimit="10" stroke-linecap="round"/>
<path d="M1364.24 802.371C1364.22 802.304 1364.14 802.285 1364.09 802.335L1240.05 934.179C1202.62 974.014 1202.62 1038.56 1240.05 1078.39L1363.97 1210.11C1364.02 1210.16 1364.1 1210.12 1364.1 1210.05V1210.05C1364.1 1209.98 1364.19 1209.95 1364.24 1210L1527.52 1383.53C1586.65 1446.39 1586.65 1548.3 1527.52 1611.16L1364.1 1784.83L1357.12 1792.15L1195.64 1967.6C1137.15 2031.15 1042.34 2031.15 983.853 1967.6L822.405 1792.09C822.358 1792.03 822.394 1791.95 822.465 1791.95V1791.95C822.535 1791.95 822.572 1791.87 822.524 1791.82L700.251 1659C663.191 1618.78 603.142 1618.78 566.082 1659L443.348 1792.41C443.328 1792.43 443.3 1792.44 443.271 1792.44V1792.44C443.242 1792.44 443.214 1792.46 443.194 1792.48L282.112 1967.6C223.626 2031.15 128.816 2031.15 70.33 1967.6L-91.2424 1791.95L-97.4036 1785.82L-260.815 1612.25C-319.945 1549.39 -319.945 1447.48 -260.815 1384.61L-97.3117 1211.24L26.8333 1079.28C64.2608 1039.45 64.2608 974.903 26.8333 935.069L-97.0842 803.355C-97.1329 803.303 -97.2197 803.337 -97.2197 803.408V803.408C-97.2197 803.479 -97.3065 803.514 -97.3552 803.462L-260.631 629.937C-319.761 567.072 -319.761 465.163 -260.631 402.298L-97.2197 228.629L-90.2308 221.314L71.3416 45.6676C129.828 -17.8894 224.638 -17.8894 283.124 45.6676L444.449 221.244C444.508 221.308 444.462 221.413 444.374 221.413V221.413C444.287 221.413 444.241 221.517 444.3 221.582L566.542 354.359C603.602 394.588 663.651 394.588 700.711 354.359L823.383 221.02C823.442 220.955 823.526 220.919 823.614 220.919V220.919C823.702 220.919 823.786 220.882 823.846 220.817L984.957 45.7665C1043.44 -17.7904 1138.25 -17.7904 1196.74 45.7665L1358.13 221.413L1364.29 227.541L1527.7 401.211C1586.83 464.076 1586.83 565.984 1527.7 628.849L1364.4 802.406C1364.35 802.456 1364.26 802.437 1364.24 802.371V802.371Z" stroke="url(#paint2_linear)" stroke-width="1.75" stroke-miterlimit="10" stroke-linecap="round"/>
<path d="M1357.76 804.199C1357.71 804.104 1357.59 804.084 1357.52 804.16L1234.72 934.772C1197.56 974.211 1197.56 1038.16 1234.72 1077.6L1357.53 1208.13C1357.58 1208.18 1357.67 1208.15 1357.67 1208.08V1208.08C1357.67 1208.01 1357.75 1207.97 1357.8 1208.02L1519.61 1379.97C1578.18 1442.24 1578.18 1543.26 1519.61 1605.53L1357.67 1777.62L1350.77 1784.83L1190.58 1959C1132.64 2021.96 1038.66 2021.96 980.725 1959L820.748 1785.07C820.7 1785.02 820.737 1784.93 820.807 1784.93V1784.93C820.878 1784.93 820.914 1784.85 820.867 1784.8L699.789 1653.17C663.097 1613.24 603.6 1613.24 566.908 1653.17L445.339 1785.23C445.28 1785.29 445.196 1785.33 445.108 1785.33V1785.33C445.02 1785.33 444.936 1785.36 444.877 1785.43L285.237 1959C227.303 2021.96 133.32 2021.96 75.3859 1959L-84.7152 1784.93L-90.8764 1778.9L-252.725 1606.81C-311.303 1544.54 -311.303 1443.52 -252.725 1381.25L-90.6925 1209.36L32.257 1078.59C69.4086 1039.15 69.4086 975.199 32.257 935.76L-90.557 805.232C-90.6057 805.18 -90.6925 805.215 -90.6925 805.286V805.286C-90.6925 805.357 -90.7793 805.391 -90.828 805.34L-252.633 633.396C-311.211 571.124 -311.211 470.105 -252.633 407.833L-90.6925 235.745L-83.7956 228.529L76.3055 54.4642C134.24 -8.49963 228.222 -8.49963 286.156 54.4642L446.133 228.394C446.181 228.445 446.144 228.529 446.074 228.529V228.529C446.003 228.529 445.967 228.613 446.014 228.664L567.184 360.289C603.876 400.222 663.373 400.222 700.065 360.289L821.634 228.235C821.693 228.171 821.777 228.134 821.865 228.134V228.134C821.953 228.134 822.037 228.097 822.096 228.032L981.736 54.5631C1039.67 -8.40078 1133.65 -8.40078 1191.59 54.5631L1351.69 228.628L1357.85 234.658L1519.79 406.745C1578.37 469.017 1578.37 570.036 1519.79 632.308L1358 804.238C1357.93 804.314 1357.8 804.293 1357.76 804.199V804.199Z" stroke="url(#paint3_linear)" stroke-width="1.75" stroke-miterlimit="10" stroke-linecap="round"/>
<path d="M1357.76 804.199C1357.71 804.104 1357.59 804.084 1357.52 804.16L1234.72 934.772C1197.56 974.211 1197.56 1038.16 1234.72 1077.6L1357.53 1208.13C1357.58 1208.18 1357.67 1208.15 1357.67 1208.08V1208.08C1357.67 1208.01 1357.75 1207.97 1357.8 1208.02L1519.61 1379.97C1578.18 1442.24 1578.18 1543.26 1519.61 1605.53L1357.67 1777.62L1350.77 1784.83L1190.58 1959C1132.64 2021.96 1038.66 2021.96 980.725 1959L820.748 1785.07C820.7 1785.02 820.737 1784.93 820.807 1784.93V1784.93C820.878 1784.93 820.914 1784.85 820.867 1784.8L699.789 1653.17C663.097 1613.24 603.6 1613.24 566.908 1653.17L445.339 1785.23C445.28 1785.29 445.196 1785.33 445.108 1785.33V1785.33C445.02 1785.33 444.936 1785.36 444.877 1785.43L285.237 1959C227.303 2021.96 133.32 2021.96 75.3859 1959L-84.7152 1784.93L-90.8764 1778.9L-252.725 1606.81C-311.303 1544.54 -311.303 1443.52 -252.725 1381.25L-90.6925 1209.36L32.257 1078.59C69.4086 1039.15 69.4086 975.199 32.257 935.76L-90.557 805.232C-90.6057 805.18 -90.6925 805.215 -90.6925 805.286V805.286C-90.6925 805.357 -90.7793 805.391 -90.828 805.34L-252.633 633.396C-311.211 571.124 -311.211 470.105 -252.633 407.833L-90.6925 235.745L-83.7956 228.529L76.3055 54.4642C134.24 -8.49963 228.222 -8.49963 286.156 54.4642L446.133 228.394C446.181 228.445 446.144 228.529 446.074 228.529V228.529C446.003 228.529 445.967 228.613 446.014 228.664L567.184 360.289C603.876 400.222 663.373 400.222 700.065 360.289L821.634 228.235C821.693 228.171 821.777 228.134 821.865 228.134V228.134C821.953 228.134 822.037 228.097 822.096 228.032L981.736 54.5631C1039.67 -8.40078 1133.65 -8.40078 1191.59 54.5631L1351.69 228.628L1357.85 234.658L1519.79 406.745C1578.37 469.017 1578.37 570.036 1519.79 632.308L1358 804.238C1357.93 804.314 1357.8 804.293 1357.76 804.199V804.199Z" stroke="url(#paint4_linear)" stroke-width="1.75" stroke-miterlimit="10" stroke-linecap="round"/>
<path d="M1351.14 806.028C1351.09 805.953 1350.99 805.943 1350.93 806.007L1229.2 935.465C1192.42 974.607 1192.42 1037.97 1229.2 1077.01L1350.91 1206.35C1350.96 1206.4 1351.05 1206.37 1351.05 1206.3V1206.3C1351.05 1206.23 1351.13 1206.19 1351.18 1206.24L1511.52 1376.61C1569.64 1438.38 1569.64 1538.42 1511.52 1600.19L1351.05 1770.7L1344.24 1777.82L1185.52 1950.3C1128.05 2012.77 1034.98 2012.77 977.51 1950.3L819.004 1777.95C818.957 1777.9 818.994 1777.82 819.064 1777.82V1777.82C819.134 1777.82 819.171 1777.73 819.123 1777.68L699.057 1647.24C662.641 1607.71 603.695 1607.71 567.371 1647.24L446.998 1778.21C446.939 1778.27 446.855 1778.31 446.767 1778.31V1778.31C446.679 1778.31 446.595 1778.35 446.536 1778.41L288.367 1950.3C230.892 2012.77 137.83 2012.77 80.3551 1950.3L-78.1827 1777.92L-84.252 1771.98L-244.721 1601.38C-302.839 1539.6 -302.839 1439.57 -244.721 1377.79L-84.16 1207.48L37.686 1078C74.4697 1038.86 74.4697 975.496 37.686 936.453L-84.0245 807.111C-84.0732 807.059 -84.16 807.094 -84.16 807.164V807.164C-84.16 807.235 -84.2468 807.27 -84.2955 807.218L-244.629 636.856C-302.747 575.078 -302.747 475.047 -244.629 413.27L-84.16 242.763L-77.355 235.646L81.2747 63.1629C138.749 0.693242 231.812 0.693245 289.287 63.1629L447.792 235.511C447.839 235.563 447.803 235.646 447.732 235.646V235.646C447.662 235.646 447.625 235.73 447.673 235.782L567.739 366.22C604.155 405.757 663.101 405.757 699.425 366.22L819.89 235.352C819.95 235.288 820.033 235.251 820.121 235.251V235.251C820.209 235.251 820.293 235.214 820.353 235.149L978.521 63.1629C1036 0.693272 1129.06 0.693275 1186.53 63.1629L1345.16 235.646L1351.23 241.577L1511.7 412.084C1569.82 473.861 1569.82 573.892 1511.7 635.669L1351.35 806.049C1351.29 806.113 1351.19 806.103 1351.14 806.028V806.028Z" stroke="url(#paint5_linear)" stroke-width="1.75" stroke-miterlimit="10" stroke-linecap="round"/>
<path d="M1351.14 806.028C1351.09 805.953 1350.99 805.943 1350.93 806.007L1229.2 935.465C1192.42 974.607 1192.42 1037.97 1229.2 1077.01L1350.91 1206.35C1350.96 1206.4 1351.05 1206.37 1351.05 1206.3V1206.3C1351.05 1206.23 1351.13 1206.19 1351.18 1206.24L1511.52 1376.61C1569.64 1438.38 1569.64 1538.42 1511.52 1600.19L1351.05 1770.7L1344.24 1777.82L1185.52 1950.3C1128.05 2012.77 1034.98 2012.77 977.51 1950.3L819.004 1777.95C818.957 1777.9 818.994 1777.82 819.064 1777.82V1777.82C819.134 1777.82 819.171 1777.73 819.123 1777.68L699.057 1647.24C662.641 1607.71 603.695 1607.71 567.371 1647.24L446.998 1778.21C446.939 1778.27 446.855 1778.31 446.767 1778.31V1778.31C446.679 1778.31 446.595 1778.35 446.536 1778.41L288.367 1950.3C230.892 2012.77 137.83 2012.77 80.3551 1950.3L-78.1827 1777.92L-84.252 1771.98L-244.721 1601.38C-302.839 1539.6 -302.839 1439.57 -244.721 1377.79L-84.16 1207.48L37.686 1078C74.4697 1038.86 74.4697 975.496 37.686 936.453L-84.0245 807.111C-84.0732 807.059 -84.16 807.094 -84.16 807.164V807.164C-84.16 807.235 -84.2468 807.27 -84.2955 807.218L-244.629 636.856C-302.747 575.078 -302.747 475.047 -244.629 413.27L-84.16 242.763L-77.355 235.646L81.2747 63.1629C138.749 0.693242 231.812 0.693245 289.287 63.1629L447.792 235.511C447.839 235.563 447.803 235.646 447.732 235.646V235.646C447.662 235.646 447.625 235.73 447.673 235.782L567.739 366.22C604.155 405.757 663.101 405.757 699.425 366.22L819.89 235.352C819.95 235.288 820.033 235.251 820.121 235.251V235.251C820.209 235.251 820.293 235.214 820.353 235.149L978.521 63.1629C1036 0.693272 1129.06 0.693275 1186.53 63.1629L1345.16 235.646L1351.23 241.577L1511.7 412.084C1569.82 473.861 1569.82 573.892 1511.7 635.669L1351.35 806.049C1351.29 806.113 1351.19 806.103 1351.14 806.028V806.028Z" stroke="url(#paint6_linear)" stroke-width="1.75" stroke-miterlimit="10" stroke-linecap="round"/>
<path d="M1344.56 807.807C1344.54 807.78 1344.5 807.78 1344.47 807.806L1223.78 936.057C1187.36 974.804 1187.36 1037.57 1223.78 1076.32L1344.38 1204.47C1344.43 1204.52 1344.52 1204.49 1344.52 1204.42V1204.42C1344.52 1204.35 1344.61 1204.31 1344.65 1204.37L1503.52 1373.15C1561.08 1434.33 1561.08 1533.47 1503.52 1594.66L1344.52 1763.58L1337.71 1770.7L1180.46 1941.7C1123.54 2003.58 1031.31 2003.58 974.382 1941.7L817.349 1770.93C817.301 1770.88 817.338 1770.8 817.408 1770.8V1770.8C817.478 1770.8 817.515 1770.71 817.467 1770.66L698.505 1641.41C662.457 1602.27 604.063 1602.27 568.015 1641.41L448.745 1771.09C448.685 1771.16 448.602 1771.19 448.514 1771.19V1771.19C448.426 1771.19 448.342 1771.23 448.282 1771.29L291.585 1941.7C234.662 2003.58 142.427 2003.58 85.5045 1941.7L-71.7458 1770.8L-77.8151 1764.87L-236.721 1595.94C-294.287 1534.76 -294.287 1435.62 -236.721 1374.43L-77.6311 1205.7L43.1113 1077.31C79.5272 1038.56 79.5272 975.793 43.1113 937.046L-77.4957 808.89C-77.5443 808.838 -77.6311 808.872 -77.6311 808.943V808.943C-77.6311 809.014 -77.718 809.049 -77.7666 808.997L-236.629 640.216C-294.195 579.031 -294.195 479.891 -236.629 418.706L-77.6311 249.781L-70.8262 242.664L86.4241 71.7624C143.347 9.88591 235.582 9.88591 292.505 71.7624L449.539 242.43C449.586 242.482 449.549 242.565 449.479 242.565V242.565C449.409 242.565 449.372 242.649 449.42 242.701L568.291 371.953C604.339 411.095 662.733 411.095 698.781 371.953L818.142 242.272C818.202 242.207 818.286 242.17 818.374 242.17V242.17C818.462 242.17 818.545 242.133 818.605 242.069L975.302 71.6637C1032.22 9.78712 1124.46 9.78712 1181.38 71.6637L1338.54 242.565L1344.61 248.496L1503.61 417.421C1561.17 478.606 1561.17 577.747 1503.61 638.931L1344.66 807.807C1344.63 807.834 1344.59 807.833 1344.56 807.807V807.807Z" stroke="url(#paint7_linear)" stroke-width="1.75" stroke-miterlimit="10" stroke-linecap="round"/>
<path d="M1344.56 807.807C1344.54 807.78 1344.5 807.78 1344.47 807.806L1223.78 936.057C1187.36 974.804 1187.36 1037.57 1223.78 1076.32L1344.38 1204.47C1344.43 1204.52 1344.52 1204.49 1344.52 1204.42V1204.42C1344.52 1204.35 1344.61 1204.31 1344.65 1204.37L1503.52 1373.15C1561.08 1434.33 1561.08 1533.47 1503.52 1594.66L1344.52 1763.58L1337.71 1770.7L1180.46 1941.7C1123.54 2003.58 1031.31 2003.58 974.382 1941.7L817.349 1770.93C817.301 1770.88 817.338 1770.8 817.408 1770.8V1770.8C817.478 1770.8 817.515 1770.71 817.467 1770.66L698.505 1641.41C662.457 1602.27 604.063 1602.27 568.015 1641.41L448.745 1771.09C448.685 1771.16 448.602 1771.19 448.514 1771.19V1771.19C448.426 1771.19 448.342 1771.23 448.282 1771.29L291.585 1941.7C234.662 2003.58 142.427 2003.58 85.5045 1941.7L-71.7458 1770.8L-77.8151 1764.87L-236.721 1595.94C-294.287 1534.76 -294.287 1435.62 -236.721 1374.43L-77.6311 1205.7L43.1113 1077.31C79.5272 1038.56 79.5272 975.793 43.1113 937.046L-77.4957 808.89C-77.5443 808.838 -77.6311 808.872 -77.6311 808.943V808.943C-77.6311 809.014 -77.718 809.049 -77.7666 808.997L-236.629 640.216C-294.195 579.031 -294.195 479.891 -236.629 418.706L-77.6311 249.781L-70.8262 242.664L86.4241 71.7624C143.347 9.88591 235.582 9.88591 292.505 71.7624L449.539 242.43C449.586 242.482 449.549 242.565 449.479 242.565V242.565C449.409 242.565 449.372 242.649 449.42 242.701L568.291 371.953C604.339 411.095 662.733 411.095 698.781 371.953L818.142 242.272C818.202 242.207 818.286 242.17 818.374 242.17V242.17C818.462 242.17 818.545 242.133 818.605 242.069L975.302 71.6637C1032.22 9.78712 1124.46 9.78712 1181.38 71.6637L1338.54 242.565L1344.61 248.496L1503.61 417.421C1561.17 478.606 1561.17 577.747 1503.61 638.931L1344.66 807.807C1344.63 807.834 1344.59 807.833 1344.56 807.807V807.807Z" stroke="url(#paint8_linear)" stroke-width="1.75" stroke-miterlimit="10" stroke-linecap="round"/>
<path d="M1338.13 809.636C1338.05 809.579 1337.94 809.59 1337.88 809.661L1218.35 936.75C1182.21 975.101 1182.21 1037.37 1218.35 1075.72L1337.86 1202.69C1337.9 1202.75 1337.99 1202.71 1337.99 1202.64V1202.64C1337.99 1202.57 1338.08 1202.54 1338.13 1202.59L1495.52 1369.89C1552.53 1430.48 1552.53 1528.73 1495.52 1589.32L1337.99 1756.76L1331.28 1763.78L1175.41 1933C1119.04 1994.29 1027.63 1994.29 971.258 1933L815.604 1763.82C815.556 1763.77 815.593 1763.68 815.663 1763.68V1763.68C815.733 1763.68 815.77 1763.6 815.722 1763.55L697.955 1635.58C662.275 1596.73 604.341 1596.73 568.661 1635.58L450.402 1764.07C450.343 1764.14 450.259 1764.18 450.171 1764.18V1764.18C450.083 1764.18 449.999 1764.21 449.94 1764.28L294.622 1933.1C238.251 1994.38 146.843 1994.38 90.4724 1933.1L-65.3065 1763.78L-71.2839 1757.95L-228.626 1590.51C-285.641 1529.91 -285.641 1431.66 -228.626 1371.07L-71.008 1203.93L48.631 1076.71C84.771 1038.36 84.771 976.09 48.631 937.738L-70.8725 810.67C-70.9212 810.618 -71.008 810.652 -71.008 810.723V810.723C-71.008 810.794 -71.0948 810.829 -71.1435 810.777L-228.534 643.479C-285.549 582.887 -285.549 484.636 -228.534 424.044L-71.008 256.602L-64.295 249.584L91.484 80.2634C147.855 18.9799 239.262 18.9799 295.634 80.2634L451.288 249.449C451.336 249.5 451.299 249.584 451.229 249.584V249.584C451.158 249.584 451.122 249.667 451.169 249.719L569.028 377.785C604.709 416.631 662.643 416.631 698.323 377.785L816.581 249.29C816.641 249.225 816.725 249.188 816.813 249.188V249.188C816.9 249.188 816.984 249.152 817.044 249.087L972.362 80.2635C1028.73 18.98 1120.14 18.98 1176.51 80.2635L1332.29 249.584L1338.27 255.416L1495.79 422.858C1552.81 483.45 1552.81 581.701 1495.79 642.293L1338.38 809.611C1338.32 809.682 1338.21 809.693 1338.13 809.636V809.636Z" stroke="url(#paint9_linear)" stroke-width="1.75" stroke-miterlimit="10" stroke-linecap="round"/>
<path d="M1338.13 809.636C1338.05 809.579 1337.94 809.59 1337.88 809.661L1218.35 936.75C1182.21 975.101 1182.21 1037.37 1218.35 1075.72L1337.86 1202.69C1337.9 1202.75 1337.99 1202.71 1337.99 1202.64V1202.64C1337.99 1202.57 1338.08 1202.54 1338.13 1202.59L1495.52 1369.89C1552.53 1430.48 1552.53 1528.73 1495.52 1589.32L1337.99 1756.76L1331.28 1763.78L1175.41 1933C1119.04 1994.29 1027.63 1994.29 971.258 1933L815.604 1763.82C815.556 1763.77 815.593 1763.68 815.663 1763.68V1763.68C815.733 1763.68 815.77 1763.6 815.722 1763.55L697.955 1635.58C662.275 1596.73 604.341 1596.73 568.661 1635.58L450.402 1764.07C450.343 1764.14 450.259 1764.18 450.171 1764.18V1764.18C450.083 1764.18 449.999 1764.21 449.94 1764.28L294.622 1933.1C238.251 1994.38 146.843 1994.38 90.4724 1933.1L-65.3065 1763.78L-71.2839 1757.95L-228.626 1590.51C-285.641 1529.91 -285.641 1431.66 -228.626 1371.07L-71.008 1203.93L48.631 1076.71C84.771 1038.36 84.771 976.09 48.631 937.738L-70.8725 810.67C-70.9212 810.618 -71.008 810.652 -71.008 810.723V810.723C-71.008 810.794 -71.0948 810.829 -71.1435 810.777L-228.534 643.479C-285.549 582.887 -285.549 484.636 -228.534 424.044L-71.008 256.602L-64.295 249.584L91.484 80.2634C147.855 18.9799 239.262 18.9799 295.634 80.2634L451.288 249.449C451.336 249.5 451.299 249.584 451.229 249.584V249.584C451.158 249.584 451.122 249.667 451.169 249.719L569.028 377.785C604.709 416.631 662.643 416.631 698.323 377.785L816.581 249.29C816.641 249.225 816.725 249.188 816.813 249.188V249.188C816.9 249.188 816.984 249.152 817.044 249.087L972.362 80.2635C1028.73 18.98 1120.14 18.98 1176.51 80.2635L1332.29 249.584L1338.27 255.416L1495.79 422.858C1552.81 483.45 1552.81 581.701 1495.79 642.293L1338.38 809.611C1338.32 809.682 1338.21 809.693 1338.13 809.636V809.636Z" stroke="url(#paint10_linear)" stroke-width="1.75" stroke-miterlimit="10" stroke-linecap="round"/>
<path d="M1331.46 811.514C1331.41 811.461 1331.33 811.461 1331.28 811.514L1212.83 937.442C1177.06 975.497 1177.06 1037.08 1212.83 1075.13L1331.23 1200.82C1331.28 1200.87 1331.37 1200.83 1331.37 1200.76V1200.76C1331.37 1200.69 1331.45 1200.66 1331.5 1200.71L1487.42 1366.43C1543.89 1426.42 1543.89 1523.79 1487.42 1583.79L1331.37 1749.65L1324.75 1756.56L1170.44 1924.3C1114.62 1984.99 1024.04 1984.99 968.22 1924.3L813.945 1756.8C813.898 1756.75 813.934 1756.66 814.005 1756.66V1756.66C814.075 1756.66 814.112 1756.58 814.064 1756.53L697.308 1629.65C661.904 1591.2 604.613 1591.2 569.209 1629.65L452.146 1756.96C452.087 1757.02 452.003 1757.06 451.915 1757.06V1757.06C451.827 1757.06 451.743 1757.1 451.684 1757.16L297.929 1924.4C242.11 1985.09 151.53 1985.09 95.7109 1924.4L-58.5968 1756.66L-64.4822 1750.83L-220.537 1584.97C-277 1524.97 -277 1427.61 -220.537 1367.61L-64.3902 1201.95L54.1453 1075.92C89.9174 1037.87 89.9174 976.288 54.1453 938.233L-64.1628 812.449C-64.2114 812.397 -64.2982 812.432 -64.2982 812.503V812.503C-64.2982 812.574 -64.385 812.608 -64.4337 812.556L-220.353 646.84C-276.816 586.841 -276.816 489.479 -220.353 429.481L-64.2982 263.62L-57.6772 256.701L96.5385 88.962C152.358 28.2716 242.938 28.2716 298.757 88.962L452.94 256.565C452.988 256.617 452.951 256.701 452.881 256.701V256.701C452.81 256.701 452.774 256.784 452.821 256.836L569.577 383.716C604.981 422.166 662.272 422.166 697.676 383.716L814.831 256.407C814.89 256.342 814.974 256.306 815.062 256.306V256.306C815.15 256.306 815.234 256.269 815.294 256.204L969.14 88.9621C1024.96 28.2716 1115.54 28.2716 1171.36 88.9621L1325.67 256.701L1331.55 262.533L1487.61 428.394C1544.07 488.392 1544.07 585.754 1487.61 645.752L1331.64 811.515C1331.59 811.568 1331.51 811.568 1331.46 811.514V811.514Z" stroke="url(#paint11_linear)" stroke-width="1.75" stroke-miterlimit="10" stroke-linecap="round"/>
<path d="M1331.46 811.514C1331.41 811.461 1331.33 811.461 1331.28 811.514L1212.83 937.442C1177.06 975.497 1177.06 1037.08 1212.83 1075.13L1331.23 1200.82C1331.28 1200.87 1331.37 1200.83 1331.37 1200.76V1200.76C1331.37 1200.69 1331.45 1200.66 1331.5 1200.71L1487.42 1366.43C1543.89 1426.42 1543.89 1523.79 1487.42 1583.79L1331.37 1749.65L1324.75 1756.56L1170.44 1924.3C1114.62 1984.99 1024.04 1984.99 968.22 1924.3L813.945 1756.8C813.898 1756.75 813.934 1756.66 814.005 1756.66V1756.66C814.075 1756.66 814.112 1756.58 814.064 1756.53L697.308 1629.65C661.904 1591.2 604.613 1591.2 569.209 1629.65L452.146 1756.96C452.087 1757.02 452.003 1757.06 451.915 1757.06V1757.06C451.827 1757.06 451.743 1757.1 451.684 1757.16L297.929 1924.4C242.11 1985.09 151.53 1985.09 95.7109 1924.4L-58.5968 1756.66L-64.4822 1750.83L-220.537 1584.97C-277 1524.97 -277 1427.61 -220.537 1367.61L-64.3902 1201.95L54.1453 1075.92C89.9174 1037.87 89.9174 976.288 54.1453 938.233L-64.1628 812.449C-64.2114 812.397 -64.2982 812.432 -64.2982 812.503V812.503C-64.2982 812.574 -64.385 812.608 -64.4337 812.556L-220.353 646.84C-276.816 586.841 -276.816 489.479 -220.353 429.481L-64.2982 263.62L-57.6772 256.701L96.5385 88.962C152.358 28.2716 242.938 28.2716 298.757 88.962L452.94 256.565C452.988 256.617 452.951 256.701 452.881 256.701V256.701C452.81 256.701 452.774 256.784 452.821 256.836L569.577 383.716C604.981 422.166 662.272 422.166 697.676 383.716L814.831 256.407C814.89 256.342 814.974 256.306 815.062 256.306V256.306C815.15 256.306 815.234 256.269 815.294 256.204L969.14 88.9621C1024.96 28.2716 1115.54 28.2716 1171.36 88.9621L1325.67 256.701L1331.55 262.533L1487.61 428.394C1544.07 488.392 1544.07 585.754 1487.61 645.752L1331.64 811.515C1331.59 811.568 1331.51 811.568 1331.46 811.514V811.514Z" stroke="url(#paint12_linear)" stroke-width="1.75" stroke-miterlimit="10" stroke-linecap="round"/>
<path d="M1324.88 813.342C1324.86 813.276 1324.78 813.256 1324.73 813.307L1207.41 938.034C1172 975.694 1172 1036.78 1207.41 1074.44L1324.61 1199.04C1324.66 1199.09 1324.75 1199.05 1324.75 1198.98V1198.98C1324.75 1198.91 1324.83 1198.88 1324.88 1198.93L1479.33 1363.07C1535.24 1422.57 1535.24 1518.94 1479.33 1578.45L1324.75 1742.73L1318.12 1749.65L1165.29 1915.8C1109.93 1975.9 1020.27 1975.9 964.909 1915.8L812.197 1749.78C812.149 1749.73 812.186 1749.65 812.256 1749.65V1749.65C812.327 1749.65 812.363 1749.56 812.316 1749.51L696.664 1623.82C661.627 1585.76 604.796 1585.76 569.76 1623.82L453.893 1749.94C453.833 1750 453.749 1750.04 453.661 1750.04V1750.04C453.573 1750.04 453.489 1750.08 453.43 1750.14L301.055 1915.8C245.695 1975.9 156.035 1975.9 100.676 1915.8L-52.1607 1749.65L-58.0461 1743.91L-212.63 1579.63C-268.541 1520.13 -268.541 1423.76 -212.63 1364.25L-57.9541 1200.17L59.4779 1075.33C94.8822 1037.67 94.8822 976.584 59.4779 938.924L-57.7267 814.326C-57.7753 814.275 -57.8621 814.309 -57.8621 814.38V814.38C-57.8621 814.451 -57.9489 814.485 -57.9976 814.434L-212.446 650.298C-268.357 590.794 -268.357 494.421 -212.446 434.917L-57.8621 270.637L-51.2411 263.718L101.595 97.5609C156.955 37.4636 246.615 37.4636 301.974 97.5609L454.686 263.583C454.734 263.635 454.697 263.718 454.627 263.718V263.718C454.556 263.718 454.52 263.802 454.567 263.854L570.128 389.547C605.164 427.602 661.995 427.602 697.031 389.547L813.083 263.424C813.142 263.36 813.226 263.323 813.314 263.323V263.323C813.402 263.323 813.486 263.286 813.545 263.221L965.92 97.5609C1021.28 37.4636 1110.94 37.4636 1166.3 97.5609L1319.14 263.718L1325.02 269.451L1479.6 433.731C1535.52 493.235 1535.52 589.608 1479.6 649.112L1325.04 813.377C1324.99 813.428 1324.9 813.408 1324.88 813.342V813.342Z" stroke="url(#paint13_linear)" stroke-width="1.75" stroke-miterlimit="10" stroke-linecap="round"/>
<path d="M1324.88 813.342C1324.86 813.276 1324.78 813.256 1324.73 813.307L1207.41 938.034C1172 975.694 1172 1036.78 1207.41 1074.44L1324.61 1199.04C1324.66 1199.09 1324.75 1199.05 1324.75 1198.98V1198.98C1324.75 1198.91 1324.83 1198.88 1324.88 1198.93L1479.33 1363.07C1535.24 1422.57 1535.24 1518.94 1479.33 1578.45L1324.75 1742.73L1318.12 1749.65L1165.29 1915.8C1109.93 1975.9 1020.27 1975.9 964.909 1915.8L812.197 1749.78C812.149 1749.73 812.186 1749.65 812.256 1749.65V1749.65C812.327 1749.65 812.363 1749.56 812.316 1749.51L696.664 1623.82C661.627 1585.76 604.796 1585.76 569.76 1623.82L453.893 1749.94C453.833 1750 453.749 1750.04 453.661 1750.04V1750.04C453.573 1750.04 453.489 1750.08 453.43 1750.14L301.055 1915.8C245.695 1975.9 156.035 1975.9 100.676 1915.8L-52.1607 1749.65L-58.0461 1743.91L-212.63 1579.63C-268.541 1520.13 -268.541 1423.76 -212.63 1364.25L-57.9541 1200.17L59.4779 1075.33C94.8822 1037.67 94.8822 976.584 59.4779 938.924L-57.7267 814.326C-57.7753 814.275 -57.8621 814.309 -57.8621 814.38V814.38C-57.8621 814.451 -57.9489 814.485 -57.9976 814.434L-212.446 650.298C-268.357 590.794 -268.357 494.421 -212.446 434.917L-57.8621 270.637L-51.2411 263.718L101.595 97.5609C156.955 37.4636 246.615 37.4636 301.974 97.5609L454.686 263.583C454.734 263.635 454.697 263.718 454.627 263.718V263.718C454.556 263.718 454.52 263.802 454.567 263.854L570.128 389.547C605.164 427.602 661.995 427.602 697.031 389.547L813.083 263.424C813.142 263.36 813.226 263.323 813.314 263.323V263.323C813.402 263.323 813.486 263.286 813.545 263.221L965.92 97.5609C1021.28 37.4636 1110.94 37.4636 1166.3 97.5609L1319.14 263.718L1325.02 269.451L1479.6 433.731C1535.52 493.235 1535.52 589.608 1479.6 649.112L1325.04 813.377C1324.99 813.428 1324.9 813.408 1324.88 813.342V813.342Z" stroke="url(#paint14_linear)" stroke-width="1.75" stroke-miterlimit="10" stroke-linecap="round"/>
<path d="M1318.26 815.172C1318.24 815.124 1318.18 815.114 1318.14 815.152L1201.89 938.727C1166.76 975.991 1166.76 1036.48 1201.89 1073.85L1317.99 1197.26C1318.04 1197.31 1318.13 1197.28 1318.13 1197.21V1197.21C1318.13 1197.13 1318.21 1197.1 1318.26 1197.15L1471.24 1359.71C1526.69 1418.62 1526.69 1514.1 1471.24 1573.01L1318.22 1735.71L1311.69 1742.53L1160.32 1907.1C1105.52 1966.71 1016.68 1966.71 961.876 1907.1L810.635 1742.66C810.588 1742.61 810.624 1742.53 810.694 1742.53V1742.53C810.765 1742.53 810.801 1742.45 810.754 1742.39L696.113 1617.99C661.445 1580.23 605.166 1580.23 570.405 1617.99L455.518 1742.86C455.479 1742.9 455.423 1742.92 455.364 1742.92V1742.92C455.305 1742.92 455.249 1742.95 455.21 1742.99L304.183 1907.1C249.375 1966.71 160.543 1966.71 105.735 1907.1L-45.6299 1742.53L-51.4233 1736.8L-204.535 1574.1C-259.987 1515.19 -259.987 1419.7 -204.535 1360.79L-51.3314 1198.29L64.9971 1074.64C100.126 1037.37 100.126 976.881 64.9971 939.518L-51.1378 816.071C-51.1743 816.032 -51.2394 816.058 -51.2394 816.111V816.111C-51.2394 816.164 -51.3045 816.19 -51.341 816.151L-204.352 653.561C-259.803 594.65 -259.803 499.166 -204.352 440.255L-51.2394 277.558L-44.7103 270.737L106.655 106.26C161.462 46.6572 250.295 46.6572 305.103 106.26L456.343 270.701C456.391 270.753 456.354 270.836 456.284 270.836V270.836C456.213 270.836 456.177 270.92 456.224 270.972L570.773 395.479C605.442 433.237 661.721 433.237 696.481 395.479L811.46 270.508C811.5 270.465 811.556 270.441 811.614 270.441V270.441C811.673 270.441 811.729 270.416 811.768 270.373L962.703 106.26C1017.51 46.6573 1106.34 46.6573 1161.15 106.26L1312.52 270.836L1318.31 276.569L1471.42 439.267C1526.87 498.178 1526.87 593.662 1471.42 652.573L1318.38 815.191C1318.35 815.229 1318.29 815.219 1318.26 815.172V815.172Z" stroke="url(#paint15_linear)" stroke-width="1.75" stroke-miterlimit="10" stroke-linecap="round"/>
<path d="M1318.26 815.172C1318.24 815.124 1318.18 815.114 1318.14 815.152L1201.89 938.727C1166.76 975.991 1166.76 1036.48 1201.89 1073.85L1317.99 1197.26C1318.04 1197.31 1318.13 1197.28 1318.13 1197.21V1197.21C1318.13 1197.13 1318.21 1197.1 1318.26 1197.15L1471.24 1359.71C1526.69 1418.62 1526.69 1514.1 1471.24 1573.01L1318.22 1735.71L1311.69 1742.53L1160.32 1907.1C1105.52 1966.71 1016.68 1966.71 961.876 1907.1L810.635 1742.66C810.588 1742.61 810.624 1742.53 810.694 1742.53V1742.53C810.765 1742.53 810.801 1742.45 810.754 1742.39L696.113 1617.99C661.445 1580.23 605.166 1580.23 570.405 1617.99L455.518 1742.86C455.479 1742.9 455.423 1742.92 455.364 1742.92V1742.92C455.305 1742.92 455.249 1742.95 455.21 1742.99L304.183 1907.1C249.375 1966.71 160.543 1966.71 105.735 1907.1L-45.6299 1742.53L-51.4233 1736.8L-204.535 1574.1C-259.987 1515.19 -259.987 1419.7 -204.535 1360.79L-51.3314 1198.29L64.9971 1074.64C100.126 1037.37 100.126 976.881 64.9971 939.518L-51.1378 816.071C-51.1743 816.032 -51.2394 816.058 -51.2394 816.111V816.111C-51.2394 816.164 -51.3045 816.19 -51.341 816.151L-204.352 653.561C-259.803 594.65 -259.803 499.166 -204.352 440.255L-51.2394 277.558L-44.7103 270.737L106.655 106.26C161.462 46.6572 250.295 46.6572 305.103 106.26L456.343 270.701C456.391 270.753 456.354 270.836 456.284 270.836V270.836C456.213 270.836 456.177 270.92 456.224 270.972L570.773 395.479C605.442 433.237 661.721 433.237 696.481 395.479L811.46 270.508C811.5 270.465 811.556 270.441 811.614 270.441V270.441C811.673 270.441 811.729 270.416 811.768 270.373L962.703 106.26C1017.51 46.6573 1106.34 46.6573 1161.15 106.26L1312.52 270.836L1318.31 276.569L1471.42 439.267C1526.87 498.178 1526.87 593.662 1471.42 652.573L1318.38 815.191C1318.35 815.229 1318.29 815.219 1318.26 815.172V815.172Z" stroke="url(#paint16_linear)" stroke-width="1.75" stroke-miterlimit="10" stroke-linecap="round"/>
<path d="M-nan -nanL1311.69 816.95L1196.46 939.419C1161.7 976.386 1161.7 1036.29 1196.46 1073.25L1311.5 1195.52C1311.53 1195.55 1311.6 1195.53 1311.6 1195.47V1195.47C1311.6 1195.42 1311.66 1195.4 1311.7 1195.43L1463.24 1356.44C1518.14 1414.76 1518.14 1509.36 1463.24 1567.67L1311.6 1728.79L1305.16 1735.51L1155.27 1898.51C1101.01 1957.52 1013.01 1957.52 958.75 1898.51L808.981 1735.65C808.933 1735.59 808.97 1735.51 809.04 1735.51V1735.51C809.111 1735.51 809.147 1735.43 809.1 1735.38L695.655 1612.05C661.262 1574.69 605.535 1574.69 571.142 1612.05L457.267 1735.84C457.227 1735.88 457.171 1735.91 457.112 1735.91V1735.91C457.054 1735.91 456.998 1735.93 456.958 1735.97L307.403 1898.51C253.147 1957.52 165.142 1957.52 110.886 1898.51L-39.0079 1735.51L-44.7093 1729.88L-196.35 1568.76C-251.25 1510.44 -251.25 1415.85 -196.35 1357.53L-44.6174 1196.61L70.6076 1074.14C105.368 1037.18 105.368 977.276 70.6076 940.308L-44.4238 818.047C-44.4603 818.008 -44.5254 818.034 -44.5254 818.087V818.087C-44.5254 818.14 -44.5905 818.166 -44.627 818.127L-196.166 657.119C-251.066 598.801 -251.066 504.207 -196.166 445.889L-44.5254 284.772L-38.0883 278.051L111.805 115.057C166.061 56.0468 254.066 56.0468 308.322 115.057L458.091 277.916C458.139 277.968 458.102 278.051 458.032 278.051V278.051C457.962 278.051 457.925 278.135 457.973 278.187L571.326 401.31C605.719 438.673 661.446 438.673 695.839 401.31L809.714 277.526C809.753 277.483 809.809 277.458 809.868 277.458V277.458C809.927 277.458 809.983 277.433 810.022 277.39L959.578 114.859C1013.83 55.849 1101.84 55.849 1156.09 114.859L1305.99 277.853L1311.69 283.488L1463.33 444.604C1518.23 502.922 1518.23 597.516 1463.33 655.834L1311.69 816.95L-nan -nanL-nan -nanZ" stroke="url(#paint17_linear)" stroke-width="1.75" stroke-miterlimit="10" stroke-linecap="round"/>
<path d="M-nan -nanL1311.69 816.95L1196.46 939.419C1161.7 976.386 1161.7 1036.29 1196.46 1073.25L1311.5 1195.52C1311.53 1195.55 1311.6 1195.53 1311.6 1195.47V1195.47C1311.6 1195.42 1311.66 1195.4 1311.7 1195.43L1463.24 1356.44C1518.14 1414.76 1518.14 1509.36 1463.24 1567.67L1311.6 1728.79L1305.16 1735.51L1155.27 1898.51C1101.01 1957.52 1013.01 1957.52 958.75 1898.51L808.981 1735.65C808.933 1735.59 808.97 1735.51 809.04 1735.51V1735.51C809.111 1735.51 809.147 1735.43 809.1 1735.38L695.655 1612.05C661.262 1574.69 605.535 1574.69 571.142 1612.05L457.267 1735.84C457.227 1735.88 457.171 1735.91 457.112 1735.91V1735.91C457.054 1735.91 456.998 1735.93 456.958 1735.97L307.403 1898.51C253.147 1957.52 165.142 1957.52 110.886 1898.51L-39.0079 1735.51L-44.7093 1729.88L-196.35 1568.76C-251.25 1510.44 -251.25 1415.85 -196.35 1357.53L-44.6174 1196.61L70.6076 1074.14C105.368 1037.18 105.368 977.276 70.6076 940.308L-44.4238 818.047C-44.4603 818.008 -44.5254 818.034 -44.5254 818.087V818.087C-44.5254 818.14 -44.5905 818.166 -44.627 818.127L-196.166 657.119C-251.066 598.801 -251.066 504.207 -196.166 445.889L-44.5254 284.772L-38.0883 278.051L111.805 115.057C166.061 56.0468 254.066 56.0468 308.322 115.057L458.091 277.916C458.139 277.968 458.102 278.051 458.032 278.051V278.051C457.962 278.051 457.925 278.135 457.973 278.187L571.326 401.31C605.719 438.673 661.446 438.673 695.839 401.31L809.714 277.526C809.753 277.483 809.809 277.458 809.868 277.458V277.458C809.927 277.458 809.983 277.433 810.022 277.39L959.578 114.859C1013.83 55.849 1101.84 55.849 1156.09 114.859L1305.99 277.853L1311.69 283.488L1463.33 444.604C1518.23 502.922 1518.23 597.516 1463.33 655.834L1311.69 816.95L-nan -nanL-nan -nanZ" stroke="url(#paint18_linear)" stroke-width="1.75" stroke-miterlimit="10" stroke-linecap="round"/>
<path d="M1305.16 818.928C1305.11 818.833 1304.99 818.813 1304.91 818.889L1191.03 940.012C1156.64 976.585 1156.64 1035.89 1191.03 1072.46L1304.96 1193.54C1305 1193.58 1305.06 1193.55 1305.06 1193.5V1193.5C1305.06 1193.45 1305.13 1193.42 1305.16 1193.46L1455.23 1352.98C1509.58 1410.81 1509.58 1504.41 1455.23 1562.24L1305.06 1721.87L1298.63 1728.59L1150.11 1890.01C1096.32 1948.42 1009.23 1948.42 955.434 1890.01L807.045 1728.73C806.997 1728.68 807.034 1728.59 807.104 1728.59V1728.59C807.174 1728.59 807.211 1728.51 807.164 1728.46L694.914 1606.22C660.889 1569.26 605.713 1569.26 571.688 1606.22L458.917 1728.72C458.877 1728.77 458.821 1728.79 458.762 1728.79V1728.79C458.704 1728.79 458.648 1728.81 458.608 1728.86L310.524 1889.81C256.728 1948.22 169.642 1948.22 115.846 1889.81L-32.6679 1728.39L-38.3694 1722.76L-188.539 1563.13C-242.887 1505.3 -242.887 1411.7 -188.539 1353.87L-38.2774 1194.44L75.7521 1073.16C110.145 1036.58 110.145 977.276 75.7521 940.704L-38.1758 819.629C-38.2123 819.59 -38.2774 819.616 -38.2774 819.669V819.669C-38.2774 819.722 -38.3426 819.748 -38.379 819.709L-188.447 660.184C-242.795 602.36 -242.795 508.754 -188.447 450.93L-38.1855 291.593L-31.7483 284.872L116.766 123.558C170.562 65.1409 257.648 65.1409 311.444 123.558L459.833 284.835C459.881 284.887 459.844 284.971 459.774 284.971V284.971C459.704 284.971 459.667 285.054 459.715 285.106L571.964 407.142C605.989 444.11 661.165 444.11 695.19 407.142L807.961 284.643C808.001 284.6 808.057 284.575 808.116 284.575V284.575C808.174 284.575 808.23 284.551 808.27 284.508L956.354 123.558C1010.15 65.141 1097.24 65.141 1151.03 123.558L1299.55 284.971L1305.25 290.605L1455.42 450.239C1509.76 508.062 1509.76 601.668 1455.42 659.492L1305.4 818.967C1305.33 819.043 1305.2 819.023 1305.16 818.928V818.928Z" stroke="url(#paint19_linear)" stroke-width="1.75" stroke-miterlimit="10" stroke-linecap="round"/>
<path d="M1305.16 818.928C1305.11 818.833 1304.99 818.813 1304.91 818.889L1191.03 940.012C1156.64 976.585 1156.64 1035.89 1191.03 1072.46L1304.96 1193.54C1305 1193.58 1305.06 1193.55 1305.06 1193.5V1193.5C1305.06 1193.45 1305.13 1193.42 1305.16 1193.46L1455.23 1352.98C1509.58 1410.81 1509.58 1504.41 1455.23 1562.24L1305.06 1721.87L1298.63 1728.59L1150.11 1890.01C1096.32 1948.42 1009.23 1948.42 955.434 1890.01L807.045 1728.73C806.997 1728.68 807.034 1728.59 807.104 1728.59V1728.59C807.174 1728.59 807.211 1728.51 807.164 1728.46L694.914 1606.22C660.889 1569.26 605.713 1569.26 571.688 1606.22L458.917 1728.72C458.877 1728.77 458.821 1728.79 458.762 1728.79V1728.79C458.704 1728.79 458.648 1728.81 458.608 1728.86L310.524 1889.81C256.728 1948.22 169.642 1948.22 115.846 1889.81L-32.6679 1728.39L-38.3694 1722.76L-188.539 1563.13C-242.887 1505.3 -242.887 1411.7 -188.539 1353.87L-38.2774 1194.44L75.7521 1073.16C110.145 1036.58 110.145 977.276 75.7521 940.704L-38.1758 819.629C-38.2123 819.59 -38.2774 819.616 -38.2774 819.669V819.669C-38.2774 819.722 -38.3426 819.748 -38.379 819.709L-188.447 660.184C-242.795 602.36 -242.795 508.754 -188.447 450.93L-38.1855 291.593L-31.7483 284.872L116.766 123.558C170.562 65.1409 257.648 65.1409 311.444 123.558L459.833 284.835C459.881 284.887 459.844 284.971 459.774 284.971V284.971C459.704 284.971 459.667 285.054 459.715 285.106L571.964 407.142C605.989 444.11 661.165 444.11 695.19 407.142L807.961 284.643C808.001 284.6 808.057 284.575 808.116 284.575V284.575C808.174 284.575 808.23 284.551 808.27 284.508L956.354 123.558C1010.15 65.141 1097.24 65.141 1151.03 123.558L1299.55 284.971L1305.25 290.605L1455.42 450.239C1509.76 508.062 1509.76 601.668 1455.42 659.492L1305.4 818.967C1305.33 819.043 1305.2 819.023 1305.16 818.928V818.928Z" stroke="url(#paint20_linear)" stroke-width="1.75" stroke-miterlimit="10" stroke-linecap="round"/>
<path d="M1298.58 820.706C1298.56 820.659 1298.5 820.649 1298.46 820.687L1185.61 940.703C1151.49 976.979 1151.49 1035.69 1185.61 1071.87L1298.34 1191.76C1298.38 1191.8 1298.44 1191.77 1298.44 1191.72V1191.72C1298.44 1191.66 1298.51 1191.64 1298.55 1191.68L1447.14 1349.62C1500.94 1406.85 1500.94 1499.57 1447.14 1556.8L1298.44 1714.75L1292.1 1721.38L1145.06 1881.21C1091.81 1939.03 1005.55 1939.03 952.31 1881.21L805.391 1721.51C805.344 1721.46 805.38 1721.38 805.451 1721.38V1721.38C805.521 1721.38 805.558 1721.29 805.51 1721.24L694.272 1600.39C660.523 1563.72 605.899 1563.72 572.242 1600.39L460.666 1721.7C460.626 1721.75 460.57 1721.77 460.512 1721.77V1721.77C460.453 1721.77 460.397 1721.8 460.357 1721.84L313.653 1881.21C260.408 1939.03 174.151 1939.03 120.906 1881.21L-26.1367 1721.38L-31.7463 1715.84L-180.444 1557.79C-234.241 1500.56 -234.241 1407.84 -180.444 1350.61L-31.6543 1192.76L81.2716 1072.66C115.389 1036.38 115.389 977.671 81.2716 941.494L-31.5527 821.605C-31.5892 821.566 -31.6543 821.592 -31.6543 821.645V821.645C-31.6543 821.698 -31.7194 821.724 -31.7559 821.685L-180.26 663.84C-234.057 606.609 -234.057 513.893 -180.26 456.662L-31.5623 298.61L-25.2171 291.988L121.826 132.156C175.07 74.3324 261.328 74.3324 314.572 132.156L461.491 291.852C461.538 291.904 461.502 291.988 461.431 291.988V291.988C461.361 291.988 461.324 292.071 461.372 292.123L572.61 412.973C606.359 449.644 660.983 449.644 694.64 412.973L806.308 291.66C806.348 291.617 806.404 291.592 806.462 291.592V291.592C806.521 291.592 806.577 291.568 806.617 291.525L953.229 132.156C1006.47 74.3324 1092.73 74.3324 1145.98 132.156L1293.02 291.988L1298.63 297.523L1447.33 455.575C1501.12 512.806 1501.12 605.522 1447.33 662.753L1298.7 820.725C1298.67 820.764 1298.6 820.753 1298.58 820.706V820.706Z" stroke="url(#paint21_linear)" stroke-width="1.75" stroke-miterlimit="10" stroke-linecap="round"/>
<path d="M1298.58 820.706C1298.56 820.659 1298.5 820.649 1298.46 820.687L1185.61 940.703C1151.49 976.979 1151.49 1035.69 1185.61 1071.87L1298.34 1191.76C1298.38 1191.8 1298.44 1191.77 1298.44 1191.72V1191.72C1298.44 1191.66 1298.51 1191.64 1298.55 1191.68L1447.14 1349.62C1500.94 1406.85 1500.94 1499.57 1447.14 1556.8L1298.44 1714.75L1292.1 1721.38L1145.06 1881.21C1091.81 1939.03 1005.55 1939.03 952.31 1881.21L805.391 1721.51C805.344 1721.46 805.38 1721.38 805.451 1721.38V1721.38C805.521 1721.38 805.558 1721.29 805.51 1721.24L694.272 1600.39C660.523 1563.72 605.899 1563.72 572.242 1600.39L460.666 1721.7C460.626 1721.75 460.57 1721.77 460.512 1721.77V1721.77C460.453 1721.77 460.397 1721.8 460.357 1721.84L313.653 1881.21C260.408 1939.03 174.151 1939.03 120.906 1881.21L-26.1367 1721.38L-31.7463 1715.84L-180.444 1557.79C-234.241 1500.56 -234.241 1407.84 -180.444 1350.61L-31.6543 1192.76L81.2716 1072.66C115.389 1036.38 115.389 977.671 81.2716 941.494L-31.5527 821.605C-31.5892 821.566 -31.6543 821.592 -31.6543 821.645V821.645C-31.6543 821.698 -31.7194 821.724 -31.7559 821.685L-180.26 663.84C-234.057 606.609 -234.057 513.893 -180.26 456.662L-31.5623 298.61L-25.2171 291.988L121.826 132.156C175.07 74.3324 261.328 74.3324 314.572 132.156L461.491 291.852C461.538 291.904 461.502 291.988 461.431 291.988V291.988C461.361 291.988 461.324 292.071 461.372 292.123L572.61 412.973C606.359 449.644 660.983 449.644 694.64 412.973L806.308 291.66C806.348 291.617 806.404 291.592 806.462 291.592V291.592C806.521 291.592 806.577 291.568 806.617 291.525L953.229 132.156C1006.47 74.3324 1092.73 74.3324 1145.98 132.156L1293.02 291.988L1298.63 297.523L1447.33 455.575C1501.12 512.806 1501.12 605.522 1447.33 662.753L1298.7 820.725C1298.67 820.764 1298.6 820.753 1298.58 820.706V820.706Z" stroke="url(#paint22_linear)" stroke-width="1.75" stroke-miterlimit="10" stroke-linecap="round"/>
<path d="M1291.97 822.484C1291.95 822.437 1291.88 822.427 1291.85 822.465L1180.1 941.295C1146.35 977.176 1146.35 1035.3 1180.1 1071.18L1291.82 1189.88C1291.86 1189.92 1291.92 1189.89 1291.92 1189.84V1189.84C1291.92 1189.79 1291.99 1189.76 1292.02 1189.8L1439.15 1346.16C1492.39 1402.8 1492.39 1494.63 1439.15 1551.26L1291.92 1707.73L1285.67 1714.26L1140.1 1872.51C1087.4 1929.74 1001.97 1929.74 949.281 1872.51L803.834 1714.39C803.787 1714.34 803.823 1714.26 803.894 1714.26V1714.26C803.964 1714.26 804.001 1714.17 803.953 1714.12L693.818 1594.46C660.437 1558.18 606.365 1558.18 572.984 1594.46L462.327 1714.59C462.288 1714.63 462.232 1714.65 462.173 1714.65V1714.65C462.114 1714.65 462.058 1714.68 462.019 1714.72L316.877 1872.61C264.185 1929.84 178.755 1929.84 126.062 1872.61L-19.5097 1714.36L-25.1192 1708.92L-172.346 1552.45C-225.59 1495.81 -225.59 1403.99 -172.346 1347.35L-25.0272 1191.07L86.7952 1072.17C120.544 1036.28 120.544 978.164 86.7952 942.284L-24.9256 823.482C-24.9621 823.443 -25.0272 823.469 -25.0272 823.522V823.522C-25.0272 823.575 -25.0923 823.601 -25.1288 823.562L-172.254 667.2C-225.498 610.562 -225.498 518.736 -172.254 462.098L-25.0272 305.627L-18.774 299.103L126.889 140.854C179.582 83.6227 265.012 83.6227 317.705 140.854L463.152 298.968C463.2 299.02 463.163 299.103 463.093 299.103V299.103C463.022 299.103 462.986 299.187 463.033 299.239L573.168 418.903C606.549 455.179 660.621 455.179 694.002 418.903L804.567 298.776C804.607 298.733 804.663 298.708 804.721 298.708V298.708C804.78 298.708 804.836 298.683 804.875 298.64L950.017 140.854C1002.71 83.6227 1088.14 83.6227 1140.83 140.854L1286.5 299.103L1292.11 304.54L1439.33 461.011C1492.58 517.648 1492.58 609.475 1439.33 666.113L1292.09 822.504C1292.05 822.542 1291.99 822.532 1291.97 822.484V822.484Z" stroke="url(#paint23_linear)" stroke-width="1.75" stroke-miterlimit="10" stroke-linecap="round"/>
<path d="M1291.97 822.484C1291.95 822.437 1291.88 822.427 1291.85 822.465L1180.1 941.295C1146.35 977.176 1146.35 1035.3 1180.1 1071.18L1291.82 1189.88C1291.86 1189.92 1291.92 1189.89 1291.92 1189.84V1189.84C1291.92 1189.79 1291.99 1189.76 1292.02 1189.8L1439.15 1346.16C1492.39 1402.8 1492.39 1494.63 1439.15 1551.26L1291.92 1707.73L1285.67 1714.26L1140.1 1872.51C1087.4 1929.74 1001.97 1929.74 949.281 1872.51L803.834 1714.39C803.787 1714.34 803.823 1714.26 803.894 1714.26V1714.26C803.964 1714.26 804.001 1714.17 803.953 1714.12L693.818 1594.46C660.437 1558.18 606.365 1558.18 572.984 1594.46L462.327 1714.59C462.288 1714.63 462.232 1714.65 462.173 1714.65V1714.65C462.114 1714.65 462.058 1714.68 462.019 1714.72L316.877 1872.61C264.185 1929.84 178.755 1929.84 126.062 1872.61L-19.5097 1714.36L-25.1192 1708.92L-172.346 1552.45C-225.59 1495.81 -225.59 1403.99 -172.346 1347.35L-25.0272 1191.07L86.7952 1072.17C120.544 1036.28 120.544 978.164 86.7952 942.284L-24.9256 823.482C-24.9621 823.443 -25.0272 823.469 -25.0272 823.522V823.522C-25.0272 823.575 -25.0923 823.601 -25.1288 823.562L-172.254 667.2C-225.498 610.562 -225.498 518.736 -172.254 462.098L-25.0272 305.627L-18.774 299.103L126.889 140.854C179.582 83.6227 265.012 83.6227 317.705 140.854L463.152 298.968C463.2 299.02 463.163 299.103 463.093 299.103V299.103C463.022 299.103 462.986 299.187 463.033 299.239L573.168 418.903C606.549 455.179 660.621 455.179 694.002 418.903L804.567 298.776C804.607 298.733 804.663 298.708 804.721 298.708V298.708C804.78 298.708 804.836 298.683 804.875 298.64L950.017 140.854C1002.71 83.6227 1088.14 83.6227 1140.83 140.854L1286.5 299.103L1292.11 304.54L1439.33 461.011C1492.58 517.648 1492.58 609.475 1439.33 666.113L1292.09 822.504C1292.05 822.542 1291.99 822.532 1291.97 822.484V822.484Z" stroke="url(#paint24_linear)" stroke-width="1.75" stroke-miterlimit="10" stroke-linecap="round"/>
<path d="M1285.48 824.364C1285.43 824.311 1285.34 824.311 1285.29 824.364L1174.67 941.989C1141.29 977.474 1141.29 1035.1 1174.67 1070.59L1285.19 1188.1C1285.23 1188.14 1285.29 1188.12 1285.29 1188.06V1188.06C1285.29 1188.01 1285.36 1187.98 1285.4 1188.02L1431.05 1342.8C1483.83 1398.85 1483.83 1489.78 1431.05 1545.93L1285.29 1700.82L1279.04 1707.34L1134.94 1864.01C1082.8 1920.75 998.198 1920.75 945.965 1864.01L801.989 1707.48C801.942 1707.42 801.978 1707.34 802.049 1707.34V1707.34C802.119 1707.34 802.156 1707.26 802.108 1707.21L693.077 1588.73C660.063 1552.85 606.451 1552.85 573.438 1588.73L464.068 1707.57C464.029 1707.61 463.973 1707.64 463.914 1707.64V1707.64C463.856 1707.64 463.8 1707.66 463.76 1707.7L319.998 1863.91C267.857 1920.65 183.255 1920.65 131.022 1863.91L-13.0785 1707.24L-18.596 1701.81L-164.351 1546.92C-217.136 1490.87 -217.136 1399.93 -164.351 1343.79L-18.5041 1189.1L92.2149 1071.48C125.596 1035.99 125.596 978.364 92.2149 942.879L-18.4025 825.362C-18.439 825.323 -18.5041 825.349 -18.5041 825.402V825.402C-18.5041 825.455 -18.5692 825.481 -18.6057 825.442L-164.26 670.661C-217.044 614.617 -217.044 523.68 -164.26 467.536L-18.4121 312.647L-12.1589 306.123L131.941 149.455C184.082 92.7185 268.685 92.7185 320.918 149.455L464.893 305.988C464.941 306.04 464.904 306.123 464.834 306.123V306.123C464.764 306.123 464.727 306.207 464.775 306.259L573.806 424.737C606.819 460.617 660.431 460.617 693.445 424.737L802.906 305.796C802.945 305.753 803.001 305.728 803.06 305.728V305.728C803.119 305.728 803.175 305.704 803.214 305.66L946.976 149.455C999.117 92.7185 1083.72 92.7185 1135.95 149.455L1280.05 306.123L1285.57 311.56L1431.33 466.449C1484.11 522.494 1484.11 613.431 1431.33 669.574L1285.66 824.365C1285.61 824.418 1285.53 824.418 1285.48 824.364V824.364Z" stroke="url(#paint25_linear)" stroke-width="1.75" stroke-miterlimit="10" stroke-linecap="round"/>
<path d="M1285.48 824.364C1285.43 824.311 1285.34 824.311 1285.29 824.364L1174.67 941.989C1141.29 977.474 1141.29 1035.1 1174.67 1070.59L1285.19 1188.1C1285.23 1188.14 1285.29 1188.12 1285.29 1188.06V1188.06C1285.29 1188.01 1285.36 1187.98 1285.4 1188.02L1431.05 1342.8C1483.83 1398.85 1483.83 1489.78 1431.05 1545.93L1285.29 1700.82L1279.04 1707.34L1134.94 1864.01C1082.8 1920.75 998.198 1920.75 945.965 1864.01L801.989 1707.48C801.942 1707.42 801.978 1707.34 802.049 1707.34V1707.34C802.119 1707.34 802.156 1707.26 802.108 1707.21L693.077 1588.73C660.063 1552.85 606.451 1552.85 573.438 1588.73L464.068 1707.57C464.029 1707.61 463.973 1707.64 463.914 1707.64V1707.64C463.856 1707.64 463.8 1707.66 463.76 1707.7L319.998 1863.91C267.857 1920.65 183.255 1920.65 131.022 1863.91L-13.0785 1707.24L-18.596 1701.81L-164.351 1546.92C-217.136 1490.87 -217.136 1399.93 -164.351 1343.79L-18.5041 1189.1L92.2149 1071.48C125.596 1035.99 125.596 978.364 92.2149 942.879L-18.4025 825.362C-18.439 825.323 -18.5041 825.349 -18.5041 825.402V825.402C-18.5041 825.455 -18.5692 825.481 -18.6057 825.442L-164.26 670.661C-217.044 614.617 -217.044 523.68 -164.26 467.536L-18.4121 312.647L-12.1589 306.123L131.941 149.455C184.082 92.7185 268.685 92.7185 320.918 149.455L464.893 305.988C464.941 306.04 464.904 306.123 464.834 306.123V306.123C464.764 306.123 464.727 306.207 464.775 306.259L573.806 424.737C606.819 460.617 660.431 460.617 693.445 424.737L802.906 305.796C802.945 305.753 803.001 305.728 803.06 305.728V305.728C803.119 305.728 803.175 305.704 803.214 305.66L946.976 149.455C999.117 92.7185 1083.72 92.7185 1135.95 149.455L1280.05 306.123L1285.57 311.56L1431.33 466.449C1484.11 522.494 1484.11 613.431 1431.33 669.574L1285.66 824.365C1285.61 824.418 1285.53 824.418 1285.48 824.364V824.364Z" stroke="url(#paint26_linear)" stroke-width="1.75" stroke-miterlimit="10" stroke-linecap="round"/>
<path d="M1278.9 826.241C1278.88 826.193 1278.82 826.183 1278.78 826.221L1169.24 942.679C1136.14 977.868 1136.14 1034.8 1169.24 1069.99L1278.66 1186.32C1278.7 1186.36 1278.77 1186.33 1278.77 1186.28V1186.28C1278.77 1186.23 1278.83 1186.2 1278.87 1186.24L1423.05 1339.44C1475.28 1394.99 1475.28 1484.94 1423.05 1540.49L1278.77 1693.8L1272.6 1700.22L1129.98 1855.31C1078.29 1911.45 994.611 1911.45 942.93 1855.31L800.426 1700.36C800.378 1700.31 800.415 1700.22 800.485 1700.22V1700.22C800.555 1700.22 800.592 1700.14 800.544 1700.09L692.617 1582.8C659.879 1547.21 606.911 1547.21 574.173 1582.8L465.816 1700.45C465.776 1700.49 465.72 1700.52 465.661 1700.52V1700.52C465.603 1700.52 465.547 1700.54 465.507 1700.59L323.125 1855.31C271.444 1911.45 187.761 1911.45 136.08 1855.31L-6.5493 1700.22L-11.9749 1694.88L-156.259 1541.58C-208.492 1486.03 -208.492 1396.08 -156.259 1340.53L-11.8829 1187.42L97.7325 1070.88C130.838 1035.69 130.838 978.758 97.7325 943.569L-11.6894 827.238C-11.7258 827.2 -11.791 827.225 -11.791 827.279V827.279C-11.791 827.332 -11.856 827.358 -11.8925 827.319L-156.075 674.119C-208.308 618.569 -208.308 528.62 -156.075 473.07L-11.791 319.762L-5.6297 313.337L136.907 158.152C188.588 102.008 272.271 102.008 323.952 158.152L466.457 313.103C466.504 313.155 466.467 313.239 466.397 313.239V313.239C466.327 313.239 466.29 313.322 466.338 313.374L574.265 430.666C607.003 466.25 659.971 466.25 692.709 430.666L801.066 312.911C801.106 312.868 801.162 312.843 801.221 312.843V312.843C801.279 312.843 801.335 312.819 801.375 312.775L943.666 158.152C995.347 102.008 1079.03 102.008 1130.71 158.152L1273.34 313.239L1278.77 318.576L1423.05 471.884C1475.28 527.434 1475.28 617.383 1423.05 672.933L1279.02 826.26C1278.99 826.298 1278.93 826.288 1278.9 826.241V826.241Z" stroke="url(#paint27_linear)" stroke-width="1.75" stroke-miterlimit="10" stroke-linecap="round"/>
<path d="M1278.9 826.241C1278.88 826.193 1278.82 826.183 1278.78 826.221L1169.24 942.679C1136.14 977.868 1136.14 1034.8 1169.24 1069.99L1278.66 1186.32C1278.7 1186.36 1278.77 1186.33 1278.77 1186.28V1186.28C1278.77 1186.23 1278.83 1186.2 1278.87 1186.24L1423.05 1339.44C1475.28 1394.99 1475.28 1484.94 1423.05 1540.49L1278.77 1693.8L1272.6 1700.22L1129.98 1855.31C1078.29 1911.45 994.611 1911.45 942.93 1855.31L800.426 1700.36C800.378 1700.31 800.415 1700.22 800.485 1700.22V1700.22C800.555 1700.22 800.592 1700.14 800.544 1700.09L692.617 1582.8C659.879 1547.21 606.911 1547.21 574.173 1582.8L465.816 1700.45C465.776 1700.49 465.72 1700.52 465.661 1700.52V1700.52C465.603 1700.52 465.547 1700.54 465.507 1700.59L323.125 1855.31C271.444 1911.45 187.761 1911.45 136.08 1855.31L-6.5493 1700.22L-11.9749 1694.88L-156.259 1541.58C-208.492 1486.03 -208.492 1396.08 -156.259 1340.53L-11.8829 1187.42L97.7325 1070.88C130.838 1035.69 130.838 978.758 97.7325 943.569L-11.6894 827.238C-11.7258 827.2 -11.791 827.225 -11.791 827.279V827.279C-11.791 827.332 -11.856 827.358 -11.8925 827.319L-156.075 674.119C-208.308 618.569 -208.308 528.62 -156.075 473.07L-11.791 319.762L-5.6297 313.337L136.907 158.152C188.588 102.008 272.271 102.008 323.952 158.152L466.457 313.103C466.504 313.155 466.467 313.239 466.397 313.239V313.239C466.327 313.239 466.29 313.322 466.338 313.374L574.265 430.666C607.003 466.25 659.971 466.25 692.709 430.666L801.066 312.911C801.106 312.868 801.162 312.843 801.221 312.843V312.843C801.279 312.843 801.335 312.819 801.375 312.775L943.666 158.152C995.347 102.008 1079.03 102.008 1130.71 158.152L1273.34 313.239L1278.77 318.576L1423.05 471.884C1475.28 527.434 1475.28 617.383 1423.05 672.933L1279.02 826.26C1278.99 826.298 1278.93 826.288 1278.9 826.241V826.241Z" stroke="url(#paint28_linear)" stroke-width="1.75" stroke-miterlimit="10" stroke-linecap="round"/>
<path d="M1272.29 828.071C1272.26 828.005 1272.18 827.985 1272.13 828.036L1163.73 943.274C1130.99 978.067 1130.99 1034.51 1163.73 1069.3L1272.05 1184.45C1272.08 1184.48 1272.15 1184.46 1272.15 1184.4V1184.4C1272.15 1184.35 1272.21 1184.33 1272.25 1184.36L1414.96 1336.08C1466.64 1391.04 1466.64 1480.1 1414.96 1535.06L1272.15 1686.88L1266.08 1693.21L1124.83 1846.71C1073.7 1902.26 990.844 1902.26 939.715 1846.71L798.59 1693.34C798.542 1693.29 798.579 1693.21 798.649 1693.21V1693.21C798.719 1693.21 798.756 1693.12 798.708 1693.07L691.884 1576.96C659.515 1541.78 607.006 1541.78 574.636 1576.96L467.382 1693.53C467.342 1693.58 467.287 1693.6 467.228 1693.6V1693.6C467.169 1693.6 467.113 1693.63 467.074 1693.67L326.346 1846.61C275.217 1902.16 192.362 1902.16 141.232 1846.61L-0.0169981 1693.11L-5.44259 1687.77L-148.255 1536.04C-199.936 1481.09 -199.936 1392.03 -148.255 1337.07L-5.35062 1185.44L103.161 1070.09C135.899 1035.3 135.899 978.858 103.161 944.065L-5.15706 828.92C-5.19355 828.882 -5.25868 828.907 -5.25868 828.961V828.961C-5.25868 829.014 -5.3238 829.04 -5.3603 829.001L-148.071 677.383C-199.752 622.425 -199.752 533.367 -148.071 478.409L-5.25868 326.584L0.810636 320.258L142.06 166.753C193.189 111.202 276.045 111.202 327.174 166.753L468.207 320.123C468.255 320.175 468.218 320.258 468.148 320.258V320.258C468.077 320.258 468.041 320.342 468.088 320.394L574.912 436.499C607.282 471.688 659.791 471.688 692.16 436.499L799.414 319.93C799.454 319.887 799.51 319.863 799.569 319.863V319.863C799.627 319.863 799.683 319.838 799.723 319.795L940.542 166.753C991.672 111.202 1074.53 111.202 1125.66 166.753L1266.91 320.258L1272.33 325.596L1415.14 477.421C1466.82 532.378 1466.82 621.437 1415.14 676.394L1272.44 828.106C1272.39 828.157 1272.31 828.137 1272.29 828.071V828.071Z" stroke="url(#paint29_linear)" stroke-width="1.75" stroke-miterlimit="10" stroke-linecap="round"/>
<path d="M1272.29 828.071C1272.26 828.005 1272.18 827.985 1272.13 828.036L1163.73 943.274C1130.99 978.067 1130.99 1034.51 1163.73 1069.3L1272.05 1184.45C1272.08 1184.48 1272.15 1184.46 1272.15 1184.4V1184.4C1272.15 1184.35 1272.21 1184.33 1272.25 1184.36L1414.96 1336.08C1466.64 1391.04 1466.64 1480.1 1414.96 1535.06L1272.15 1686.88L1266.08 1693.21L1124.83 1846.71C1073.7 1902.26 990.844 1902.26 939.715 1846.71L798.59 1693.34C798.542 1693.29 798.579 1693.21 798.649 1693.21V1693.21C798.719 1693.21 798.756 1693.12 798.708 1693.07L691.884 1576.96C659.515 1541.78 607.006 1541.78 574.636 1576.96L467.382 1693.53C467.342 1693.58 467.287 1693.6 467.228 1693.6V1693.6C467.169 1693.6 467.113 1693.63 467.074 1693.67L326.346 1846.61C275.217 1902.16 192.362 1902.16 141.232 1846.61L-0.0169981 1693.11L-5.44259 1687.77L-148.255 1536.04C-199.936 1481.09 -199.936 1392.03 -148.255 1337.07L-5.35062 1185.44L103.161 1070.09C135.899 1035.3 135.899 978.858 103.161 944.065L-5.15706 828.92C-5.19355 828.882 -5.25868 828.907 -5.25868 828.961V828.961C-5.25868 829.014 -5.3238 829.04 -5.3603 829.001L-148.071 677.383C-199.752 622.425 -199.752 533.367 -148.071 478.409L-5.25868 326.584L0.810636 320.258L142.06 166.753C193.189 111.202 276.045 111.202 327.174 166.753L468.207 320.123C468.255 320.175 468.218 320.258 468.148 320.258V320.258C468.077 320.258 468.041 320.342 468.088 320.394L574.912 436.499C607.282 471.688 659.791 471.688 692.16 436.499L799.414 319.93C799.454 319.887 799.51 319.863 799.569 319.863V319.863C799.627 319.863 799.683 319.838 799.723 319.795L940.542 166.753C991.672 111.202 1074.53 111.202 1125.66 166.753L1266.91 320.258L1272.33 325.596L1415.14 477.421C1466.82 532.378 1466.82 621.437 1415.14 676.394L1272.44 828.106C1272.39 828.157 1272.31 828.137 1272.29 828.071V828.071Z" stroke="url(#paint30_linear)" stroke-width="1.75" stroke-miterlimit="10" stroke-linecap="round"/>
<path d="M1265.71 829.849C1265.71 829.831 1265.69 829.823 1265.67 829.836L1158.3 943.965C1125.93 978.363 1125.93 1034.21 1158.3 1068.71L1265.51 1182.67C1265.55 1182.7 1265.62 1182.68 1265.62 1182.62V1182.62C1265.62 1182.57 1265.68 1182.55 1265.72 1182.58L1406.96 1332.72C1458.09 1387.08 1458.09 1475.25 1406.96 1529.62L1265.62 1679.86L1259.55 1686.19L1119.77 1838.11C1069.19 1893.07 987.163 1893.07 936.585 1838.11L796.931 1686.32C796.884 1686.27 796.92 1686.19 796.991 1686.19V1686.19C797.061 1686.19 797.098 1686.1 797.05 1686.05L691.33 1571.13C659.328 1536.34 607.371 1536.34 575.277 1571.13L469.218 1686.42C469.179 1686.46 469.123 1686.48 469.064 1686.48V1686.48C469.005 1686.48 468.949 1686.51 468.91 1686.55L329.47 1838.01C278.892 1892.97 196.865 1892.97 146.287 1838.01L6.50887 1686.09L1.17522 1680.85L-140.166 1530.61C-191.296 1476.24 -191.296 1388.07 -140.166 1333.71L1.26719 1183.66L108.584 1069.5C140.953 1035.1 140.953 979.253 108.584 944.756L1.36875 830.797C1.33228 830.759 1.26719 830.784 1.26719 830.838V830.838C1.26719 830.891 1.20209 830.917 1.16562 830.878L-140.074 680.742C-191.204 626.378 -191.204 538.209 -140.074 483.845L1.26719 333.601L7.33651 327.275L147.115 175.351C197.692 120.394 279.72 120.394 330.297 175.351L469.951 327.14C469.999 327.191 469.962 327.275 469.892 327.275V327.275C469.821 327.275 469.785 327.359 469.832 327.41L575.553 442.33C607.555 477.123 659.512 477.123 691.605 442.33L797.756 326.947C797.796 326.904 797.852 326.88 797.91 326.88V326.88C797.969 326.88 798.025 326.855 798.065 326.812L937.413 175.351C987.99 120.394 1070.02 120.394 1120.6 175.351L1260.37 327.275L1265.71 332.514L1407.05 482.757C1458.18 537.122 1458.18 625.291 1407.05 679.655L1265.74 829.863C1265.73 829.876 1265.71 829.867 1265.71 829.849V829.849Z" stroke="url(#paint31_linear)" stroke-width="1.75" stroke-miterlimit="10" stroke-linecap="round"/>
<path d="M1265.71 829.849C1265.71 829.831 1265.69 829.823 1265.67 829.836L1158.3 943.965C1125.93 978.363 1125.93 1034.21 1158.3 1068.71L1265.51 1182.67C1265.55 1182.7 1265.62 1182.68 1265.62 1182.62V1182.62C1265.62 1182.57 1265.68 1182.55 1265.72 1182.58L1406.96 1332.72C1458.09 1387.08 1458.09 1475.25 1406.96 1529.62L1265.62 1679.86L1259.55 1686.19L1119.77 1838.11C1069.19 1893.07 987.163 1893.07 936.585 1838.11L796.931 1686.32C796.884 1686.27 796.92 1686.19 796.991 1686.19V1686.19C797.061 1686.19 797.098 1686.1 797.05 1686.05L691.33 1571.13C659.328 1536.34 607.371 1536.34 575.277 1571.13L469.218 1686.42C469.179 1686.46 469.123 1686.48 469.064 1686.48V1686.48C469.005 1686.48 468.949 1686.51 468.91 1686.55L329.47 1838.01C278.892 1892.97 196.865 1892.97 146.287 1838.01L6.50887 1686.09L1.17522 1680.85L-140.166 1530.61C-191.296 1476.24 -191.296 1388.07 -140.166 1333.71L1.26719 1183.66L108.584 1069.5C140.953 1035.1 140.953 979.253 108.584 944.756L1.36875 830.797C1.33228 830.759 1.26719 830.784 1.26719 830.838V830.838C1.26719 830.891 1.20209 830.917 1.16562 830.878L-140.074 680.742C-191.204 626.378 -191.204 538.209 -140.074 483.845L1.26719 333.601L7.33651 327.275L147.115 175.351C197.692 120.394 279.72 120.394 330.297 175.351L469.951 327.14C469.999 327.191 469.962 327.275 469.892 327.275V327.275C469.821 327.275 469.785 327.359 469.832 327.41L575.553 442.33C607.555 477.123 659.512 477.123 691.605 442.33L797.756 326.947C797.796 326.904 797.852 326.88 797.91 326.88V326.88C797.969 326.88 798.025 326.855 798.065 326.812L937.413 175.351C987.99 120.394 1070.02 120.394 1120.6 175.351L1260.37 327.275L1265.71 332.514L1407.05 482.757C1458.18 537.122 1458.18 625.291 1407.05 679.655L1265.74 829.863C1265.73 829.876 1265.71 829.867 1265.71 829.849V829.849Z" stroke="url(#paint32_linear)" stroke-width="1.75" stroke-miterlimit="10" stroke-linecap="round"/>
</g>
<defs>
<linearGradient id="paint0_linear" x1="-0.471766" y1="60.5144" x2="146.474" y2="60.5144" gradientUnits="userSpaceOnUse">
<stop stop-color="#B480FF"/>
<stop offset="0.604167" stop-color="#5F00E6"/>
<stop offset="0.859375" stop-color="#1AA4FF" stop-opacity="0.49"/>
<stop offset="1" stop-color="#28B86A" stop-opacity="0.27"/>
</linearGradient>
<linearGradient id="paint1_linear" x1="633.665" y1="2021.78" x2="633.665" y2="-8.54884" gradientUnits="userSpaceOnUse">
<stop stop-color="#2DCF78"/>
</linearGradient>
<linearGradient id="paint2_linear" x1="633.665" y1="2021.78" x2="633.665" y2="-8.54884" gradientUnits="userSpaceOnUse">
<stop stop-color="#2DCF78"/>
</linearGradient>
<linearGradient id="paint3_linear" x1="633.753" y1="2012.68" x2="633.753" y2="0.752237" gradientUnits="userSpaceOnUse">
<stop stop-color="#2DCF78"/>
</linearGradient>
<linearGradient id="paint4_linear" x1="633.753" y1="2012.68" x2="633.753" y2="0.752237" gradientUnits="userSpaceOnUse">
<stop stop-color="#2DCF78"/>
</linearGradient>
<linearGradient id="paint5_linear" x1="633.709" y1="2003.55" x2="633.709" y2="9.88033" gradientUnits="userSpaceOnUse">
<stop stop-color="#2DCF78"/>
</linearGradient>
<linearGradient id="paint6_linear" x1="633.709" y1="2003.55" x2="633.709" y2="9.88033" gradientUnits="userSpaceOnUse">
<stop stop-color="#2DCF78"/>
</linearGradient>
<linearGradient id="paint7_linear" x1="633.66" y1="1994.45" x2="633.66" y2="18.8842" gradientUnits="userSpaceOnUse">
<stop stop-color="#2DCF78"/>
</linearGradient>
<linearGradient id="paint8_linear" x1="633.66" y1="1994.45" x2="633.66" y2="18.8842" gradientUnits="userSpaceOnUse">
<stop stop-color="#2DCF78"/>
</linearGradient>
<linearGradient id="paint9_linear" x1="633.798" y1="1985.35" x2="633.799" y2="27.9876" gradientUnits="userSpaceOnUse">
<stop stop-color="#2DCF78"/>
</linearGradient>
<linearGradient id="paint10_linear" x1="633.798" y1="1985.35" x2="633.799" y2="27.9876" gradientUnits="userSpaceOnUse">
<stop stop-color="#2DCF78"/>
</linearGradient>
<linearGradient id="paint11_linear" x1="633.747" y1="1976.15" x2="633.747" y2="37.1904" gradientUnits="userSpaceOnUse">
<stop stop-color="#2DCF78"/>
</linearGradient>
<linearGradient id="paint12_linear" x1="633.747" y1="1976.15" x2="633.747" y2="37.1904" gradientUnits="userSpaceOnUse">
<stop stop-color="#2DCF78"/>
</linearGradient>
<linearGradient id="paint13_linear" x1="633.698" y1="1967.04" x2="633.698" y2="46.2928" gradientUnits="userSpaceOnUse">
<stop stop-color="#2DCF78"/>
</linearGradient>
<linearGradient id="paint14_linear" x1="633.698" y1="1967.04" x2="633.698" y2="46.2928" gradientUnits="userSpaceOnUse">
<stop stop-color="#2DCF78"/>
</linearGradient>
<linearGradient id="paint15_linear" x1="633.652" y1="1957.92" x2="633.652" y2="55.4217" gradientUnits="userSpaceOnUse">
<stop stop-color="#2DCF78"/>
</linearGradient>
<linearGradient id="paint16_linear" x1="633.652" y1="1957.92" x2="633.652" y2="55.4217" gradientUnits="userSpaceOnUse">
<stop stop-color="#2DCF78"/>
</linearGradient>
<linearGradient id="paint17_linear" x1="633.697" y1="1948.81" x2="633.697" y2="64.5239" gradientUnits="userSpaceOnUse">
<stop stop-color="#2DCF78"/>
</linearGradient>
<linearGradient id="paint18_linear" x1="633.697" y1="1948.81" x2="633.697" y2="64.5239" gradientUnits="userSpaceOnUse">
<stop stop-color="#2DCF78"/>
</linearGradient>
<linearGradient id="paint19_linear" x1="633.644" y1="1939.81" x2="633.644" y2="73.7264" gradientUnits="userSpaceOnUse">
<stop stop-color="#2DCF78"/>
</linearGradient>
<linearGradient id="paint20_linear" x1="633.644" y1="1939.81" x2="633.644" y2="73.7264" gradientUnits="userSpaceOnUse">
<stop stop-color="#2DCF78"/>
</linearGradient>
<linearGradient id="paint21_linear" x1="633.644" y1="1930.51" x2="633.644" y2="82.8289" gradientUnits="userSpaceOnUse">
<stop stop-color="#2DCF78"/>
</linearGradient>
<linearGradient id="paint22_linear" x1="633.644" y1="1930.51" x2="633.644" y2="82.8289" gradientUnits="userSpaceOnUse">
<stop stop-color="#2DCF78"/>
</linearGradient>
<linearGradient id="paint23_linear" x1="633.694" y1="1921.4" x2="633.694" y2="92.0301" gradientUnits="userSpaceOnUse">
<stop stop-color="#2DCF78"/>
</linearGradient>
<linearGradient id="paint24_linear" x1="633.694" y1="1921.4" x2="633.694" y2="92.0301" gradientUnits="userSpaceOnUse">
<stop stop-color="#2DCF78"/>
</linearGradient>
<linearGradient id="paint25_linear" x1="633.686" y1="1912.38" x2="633.686" y2="101.06" gradientUnits="userSpaceOnUse">
<stop stop-color="#2DCF78"/>
</linearGradient>
<linearGradient id="paint26_linear" x1="633.686" y1="1912.38" x2="633.686" y2="101.06" gradientUnits="userSpaceOnUse">
<stop stop-color="#2DCF78"/>
</linearGradient>
<linearGradient id="paint27_linear" x1="633.592" y1="1903.17" x2="633.592" y2="110.261" gradientUnits="userSpaceOnUse">
<stop stop-color="#2DCF78"/>
</linearGradient>
<linearGradient id="paint28_linear" x1="633.592" y1="1903.17" x2="633.592" y2="110.261" gradientUnits="userSpaceOnUse">
<stop stop-color="#2DCF78"/>
</linearGradient>
<linearGradient id="paint29_linear" x1="633.639" y1="1894.07" x2="633.639" y2="119.366" gradientUnits="userSpaceOnUse">
<stop stop-color="#2DCF78"/>
</linearGradient>
<linearGradient id="paint30_linear" x1="633.639" y1="1894.07" x2="633.639" y2="119.366" gradientUnits="userSpaceOnUse">
<stop stop-color="#2DCF78"/>
</linearGradient>
<linearGradient id="paint31_linear" x1="633.634" y1="1884.97" x2="633.634" y2="128.468" gradientUnits="userSpaceOnUse">
<stop stop-color="#2DCF78"/>
</linearGradient>
<linearGradient id="paint32_linear" x1="633.634" y1="1884.97" x2="633.634" y2="128.468" gradientUnits="userSpaceOnUse">
<stop stop-color="#2DCF78"/>
</linearGradient>
</defs>
</svg>
