<svg width="166" height="143" viewBox="0 0 166 143" fill="none" xmlns="http://www.w3.org/2000/svg">
<mask id="mask0" mask-type="alpha" maskUnits="userSpaceOnUse" x="0" y="0" width="166" height="143">
<path d="M0.5 0.5H165.5V133C165.5 138.247 161.247 142.5 156 142.5H0.5V0.5Z" fill="#232325" stroke="url(#paint0_linear)"/>
</mask>
<g mask="url(#mask0)">
<path d="M1384.24 802.371C1384.22 802.304 1384.14 802.285 1384.09 802.335L1260.05 934.179C1222.62 974.014 1222.62 1038.56 1260.05 1078.39L1383.97 1210.11C1384.02 1210.16 1384.1 1210.12 1384.1 1210.05V1210.05C1384.1 1209.98 1384.19 1209.95 1384.24 1210L1547.52 1383.53C1606.65 1446.39 1606.65 1548.3 1547.52 1611.16L1384.1 1784.83L1377.12 1792.15L1215.64 1967.6C1157.15 2031.15 1062.34 2031.15 1003.85 1967.6L842.405 1792.09C842.358 1792.03 842.394 1791.95 842.465 1791.95V1791.95C842.535 1791.95 842.572 1791.87 842.524 1791.82L720.251 1659C683.191 1618.78 623.142 1618.78 586.082 1659L463.348 1792.41C463.328 1792.43 463.3 1792.44 463.271 1792.44V1792.44C463.242 1792.44 463.214 1792.46 463.194 1792.48L302.112 1967.6C243.626 2031.15 148.816 2031.15 90.33 1967.6L-71.2424 1791.95L-77.4036 1785.82L-240.815 1612.25C-299.945 1549.39 -299.945 1447.48 -240.815 1384.61L-77.3117 1211.24L46.8333 1079.28C84.2608 1039.45 84.2608 974.903 46.8333 935.069L-77.0842 803.355C-77.1329 803.303 -77.2197 803.337 -77.2197 803.408V803.408C-77.2197 803.479 -77.3065 803.514 -77.3552 803.462L-240.631 629.937C-299.761 567.072 -299.761 465.163 -240.631 402.298L-77.2197 228.629L-70.2308 221.314L91.3416 45.6676C149.828 -17.8894 244.638 -17.8894 303.124 45.6676L464.449 221.244C464.508 221.308 464.462 221.413 464.374 221.413V221.413C464.287 221.413 464.241 221.517 464.3 221.582L586.542 354.359C623.602 394.588 683.651 394.588 720.711 354.359L843.383 221.02C843.442 220.955 843.526 220.919 843.614 220.919V220.919C843.702 220.919 843.786 220.882 843.846 220.817L1004.96 45.7665C1063.44 -17.7904 1158.25 -17.7904 1216.74 45.7665L1378.13 221.413L1384.29 227.541L1547.7 401.211C1606.83 464.076 1606.83 565.984 1547.7 628.849L1384.4 802.406C1384.35 802.456 1384.26 802.437 1384.24 802.371V802.371Z" stroke="#FF6719" stroke-width="1.75" stroke-miterlimit="10" stroke-linecap="round"/>
<path d="M1384.24 802.371C1384.22 802.304 1384.14 802.285 1384.09 802.335L1260.05 934.179C1222.62 974.014 1222.62 1038.56 1260.05 1078.39L1383.97 1210.11C1384.02 1210.16 1384.1 1210.12 1384.1 1210.05V1210.05C1384.1 1209.98 1384.19 1209.95 1384.24 1210L1547.52 1383.53C1606.65 1446.39 1606.65 1548.3 1547.52 1611.16L1384.1 1784.83L1377.12 1792.15L1215.64 1967.6C1157.15 2031.15 1062.34 2031.15 1003.85 1967.6L842.405 1792.09C842.358 1792.03 842.394 1791.95 842.465 1791.95V1791.95C842.535 1791.95 842.572 1791.87 842.524 1791.82L720.251 1659C683.191 1618.78 623.142 1618.78 586.082 1659L463.348 1792.41C463.328 1792.43 463.3 1792.44 463.271 1792.44V1792.44C463.242 1792.44 463.214 1792.46 463.194 1792.48L302.112 1967.6C243.626 2031.15 148.816 2031.15 90.33 1967.6L-71.2424 1791.95L-77.4036 1785.82L-240.815 1612.25C-299.945 1549.39 -299.945 1447.48 -240.815 1384.61L-77.3117 1211.24L46.8333 1079.28C84.2608 1039.45 84.2608 974.903 46.8333 935.069L-77.0842 803.355C-77.1329 803.303 -77.2197 803.337 -77.2197 803.408V803.408C-77.2197 803.479 -77.3065 803.514 -77.3552 803.462L-240.631 629.937C-299.761 567.072 -299.761 465.163 -240.631 402.298L-77.2197 228.629L-70.2308 221.314L91.3416 45.6676C149.828 -17.8894 244.638 -17.8894 303.124 45.6676L464.449 221.244C464.508 221.308 464.462 221.413 464.374 221.413V221.413C464.287 221.413 464.241 221.517 464.3 221.582L586.542 354.359C623.602 394.588 683.651 394.588 720.711 354.359L843.383 221.02C843.442 220.955 843.526 220.919 843.614 220.919V220.919C843.702 220.919 843.786 220.882 843.846 220.817L1004.96 45.7665C1063.44 -17.7904 1158.25 -17.7904 1216.74 45.7665L1378.13 221.413L1384.29 227.541L1547.7 401.211C1606.83 464.076 1606.83 565.984 1547.7 628.849L1384.4 802.406C1384.35 802.456 1384.26 802.437 1384.24 802.371V802.371Z" stroke="#FF6719" stroke-width="1.75" stroke-miterlimit="10" stroke-linecap="round"/>
<path d="M1377.76 804.199C1377.71 804.104 1377.59 804.084 1377.52 804.16L1254.72 934.772C1217.56 974.211 1217.56 1038.16 1254.72 1077.6L1377.53 1208.13C1377.58 1208.18 1377.67 1208.15 1377.67 1208.08V1208.08C1377.67 1208.01 1377.75 1207.97 1377.8 1208.02L1539.61 1379.97C1598.18 1442.24 1598.18 1543.26 1539.61 1605.53L1377.67 1777.62L1370.77 1784.83L1210.58 1959C1152.64 2021.96 1058.66 2021.96 1000.72 1959L840.748 1785.07C840.7 1785.02 840.737 1784.93 840.807 1784.93V1784.93C840.878 1784.93 840.914 1784.85 840.867 1784.8L719.789 1653.17C683.097 1613.24 623.6 1613.24 586.908 1653.17L465.339 1785.23C465.28 1785.29 465.196 1785.33 465.108 1785.33V1785.33C465.02 1785.33 464.936 1785.36 464.877 1785.43L305.237 1959C247.303 2021.96 153.32 2021.96 95.3859 1959L-64.7152 1784.93L-70.8764 1778.9L-232.725 1606.81C-291.303 1544.54 -291.303 1443.52 -232.725 1381.25L-70.6925 1209.36L52.257 1078.59C89.4086 1039.15 89.4086 975.199 52.257 935.76L-70.557 805.232C-70.6057 805.18 -70.6925 805.215 -70.6925 805.286V805.286C-70.6925 805.357 -70.7793 805.391 -70.828 805.34L-232.633 633.396C-291.211 571.124 -291.211 470.105 -232.633 407.833L-70.6925 235.745L-63.7956 228.529L96.3055 54.4642C154.24 -8.49963 248.222 -8.49963 306.156 54.4642L466.133 228.394C466.181 228.445 466.144 228.529 466.074 228.529V228.529C466.003 228.529 465.967 228.613 466.014 228.664L587.184 360.289C623.876 400.222 683.373 400.222 720.065 360.289L841.634 228.235C841.693 228.171 841.777 228.134 841.865 228.134V228.134C841.953 228.134 842.037 228.097 842.096 228.032L1001.74 54.5631C1059.67 -8.40078 1153.65 -8.40078 1211.59 54.5631L1371.69 228.628L1377.85 234.658L1539.79 406.745C1598.37 469.017 1598.37 570.036 1539.79 632.308L1378 804.238C1377.93 804.314 1377.8 804.293 1377.76 804.199V804.199Z" stroke="#FF6719" stroke-width="1.75" stroke-miterlimit="10" stroke-linecap="round"/>
<path d="M1377.76 804.199C1377.71 804.104 1377.59 804.084 1377.52 804.16L1254.72 934.772C1217.56 974.211 1217.56 1038.16 1254.72 1077.6L1377.53 1208.13C1377.58 1208.18 1377.67 1208.15 1377.67 1208.08V1208.08C1377.67 1208.01 1377.75 1207.97 1377.8 1208.02L1539.61 1379.97C1598.18 1442.24 1598.18 1543.26 1539.61 1605.53L1377.67 1777.62L1370.77 1784.83L1210.58 1959C1152.64 2021.96 1058.66 2021.96 1000.72 1959L840.748 1785.07C840.7 1785.02 840.737 1784.93 840.807 1784.93V1784.93C840.878 1784.93 840.914 1784.85 840.867 1784.8L719.789 1653.17C683.097 1613.24 623.6 1613.24 586.908 1653.17L465.339 1785.23C465.28 1785.29 465.196 1785.33 465.108 1785.33V1785.33C465.02 1785.33 464.936 1785.36 464.877 1785.43L305.237 1959C247.303 2021.96 153.32 2021.96 95.3859 1959L-64.7152 1784.93L-70.8764 1778.9L-232.725 1606.81C-291.303 1544.54 -291.303 1443.52 -232.725 1381.25L-70.6925 1209.36L52.257 1078.59C89.4086 1039.15 89.4086 975.199 52.257 935.76L-70.557 805.232C-70.6057 805.18 -70.6925 805.215 -70.6925 805.286V805.286C-70.6925 805.357 -70.7793 805.391 -70.828 805.34L-232.633 633.396C-291.211 571.124 -291.211 470.105 -232.633 407.833L-70.6925 235.745L-63.7956 228.529L96.3055 54.4642C154.24 -8.49963 248.222 -8.49963 306.156 54.4642L466.133 228.394C466.181 228.445 466.144 228.529 466.074 228.529V228.529C466.003 228.529 465.967 228.613 466.014 228.664L587.184 360.289C623.876 400.222 683.373 400.222 720.065 360.289L841.634 228.235C841.693 228.171 841.777 228.134 841.865 228.134V228.134C841.953 228.134 842.037 228.097 842.096 228.032L1001.74 54.5631C1059.67 -8.40078 1153.65 -8.40078 1211.59 54.5631L1371.69 228.628L1377.85 234.658L1539.79 406.745C1598.37 469.017 1598.37 570.036 1539.79 632.308L1378 804.238C1377.93 804.314 1377.8 804.293 1377.76 804.199V804.199Z" stroke="#FF6719" stroke-width="1.75" stroke-miterlimit="10" stroke-linecap="round"/>
<path d="M1371.14 806.028C1371.09 805.953 1370.99 805.943 1370.93 806.007L1249.2 935.465C1212.42 974.607 1212.42 1037.97 1249.2 1077.01L1370.91 1206.35C1370.96 1206.4 1371.05 1206.37 1371.05 1206.3V1206.3C1371.05 1206.23 1371.13 1206.19 1371.18 1206.24L1531.52 1376.61C1589.64 1438.38 1589.64 1538.42 1531.52 1600.19L1371.05 1770.7L1364.24 1777.82L1205.52 1950.3C1148.05 2012.77 1054.98 2012.77 997.51 1950.3L839.004 1777.95C838.957 1777.9 838.994 1777.82 839.064 1777.82V1777.82C839.134 1777.82 839.171 1777.73 839.123 1777.68L719.057 1647.24C682.641 1607.71 623.695 1607.71 587.371 1647.24L466.998 1778.21C466.939 1778.27 466.855 1778.31 466.767 1778.31V1778.31C466.679 1778.31 466.595 1778.35 466.536 1778.41L308.367 1950.3C250.892 2012.77 157.83 2012.77 100.355 1950.3L-58.1827 1777.92L-64.252 1771.98L-224.721 1601.38C-282.839 1539.6 -282.839 1439.57 -224.721 1377.79L-64.16 1207.48L57.686 1078C94.4697 1038.86 94.4697 975.496 57.686 936.453L-64.0245 807.111C-64.0732 807.059 -64.16 807.094 -64.16 807.164V807.164C-64.16 807.235 -64.2468 807.27 -64.2955 807.218L-224.629 636.856C-282.747 575.078 -282.747 475.047 -224.629 413.27L-64.16 242.763L-57.355 235.646L101.275 63.1629C158.749 0.693242 251.812 0.693245 309.287 63.1629L467.792 235.511C467.839 235.563 467.803 235.646 467.732 235.646V235.646C467.662 235.646 467.625 235.73 467.673 235.782L587.739 366.22C624.155 405.757 683.101 405.757 719.425 366.22L839.89 235.352C839.95 235.288 840.033 235.251 840.121 235.251V235.251C840.209 235.251 840.293 235.214 840.353 235.149L998.521 63.1629C1056 0.693272 1149.06 0.693275 1206.53 63.1629L1365.16 235.646L1371.23 241.577L1531.7 412.084C1589.82 473.861 1589.82 573.892 1531.7 635.669L1371.35 806.049C1371.29 806.113 1371.19 806.103 1371.14 806.028V806.028Z" stroke="#FF6719" stroke-width="1.75" stroke-miterlimit="10" stroke-linecap="round"/>
<path d="M1371.14 806.028C1371.09 805.953 1370.99 805.943 1370.93 806.007L1249.2 935.465C1212.42 974.607 1212.42 1037.97 1249.2 1077.01L1370.91 1206.35C1370.96 1206.4 1371.05 1206.37 1371.05 1206.3V1206.3C1371.05 1206.23 1371.13 1206.19 1371.18 1206.24L1531.52 1376.61C1589.64 1438.38 1589.64 1538.42 1531.52 1600.19L1371.05 1770.7L1364.24 1777.82L1205.52 1950.3C1148.05 2012.77 1054.98 2012.77 997.51 1950.3L839.004 1777.95C838.957 1777.9 838.994 1777.82 839.064 1777.82V1777.82C839.134 1777.82 839.171 1777.73 839.123 1777.68L719.057 1647.24C682.641 1607.71 623.695 1607.71 587.371 1647.24L466.998 1778.21C466.939 1778.27 466.855 1778.31 466.767 1778.31V1778.31C466.679 1778.31 466.595 1778.35 466.536 1778.41L308.367 1950.3C250.892 2012.77 157.83 2012.77 100.355 1950.3L-58.1827 1777.92L-64.252 1771.98L-224.721 1601.38C-282.839 1539.6 -282.839 1439.57 -224.721 1377.79L-64.16 1207.48L57.686 1078C94.4697 1038.86 94.4697 975.496 57.686 936.453L-64.0245 807.111C-64.0732 807.059 -64.16 807.094 -64.16 807.164V807.164C-64.16 807.235 -64.2468 807.27 -64.2955 807.218L-224.629 636.856C-282.747 575.078 -282.747 475.047 -224.629 413.27L-64.16 242.763L-57.355 235.646L101.275 63.1629C158.749 0.693242 251.812 0.693245 309.287 63.1629L467.792 235.511C467.839 235.563 467.803 235.646 467.732 235.646V235.646C467.662 235.646 467.625 235.73 467.673 235.782L587.739 366.22C624.155 405.757 683.101 405.757 719.425 366.22L839.89 235.352C839.95 235.288 840.033 235.251 840.121 235.251V235.251C840.209 235.251 840.293 235.214 840.353 235.149L998.521 63.1629C1056 0.693272 1149.06 0.693275 1206.53 63.1629L1365.16 235.646L1371.23 241.577L1531.7 412.084C1589.82 473.861 1589.82 573.892 1531.7 635.669L1371.35 806.049C1371.29 806.113 1371.19 806.103 1371.14 806.028V806.028Z" stroke="#FF6719" stroke-width="1.75" stroke-miterlimit="10" stroke-linecap="round"/>
<path d="M1364.56 807.807C1364.54 807.78 1364.5 807.78 1364.47 807.806L1243.78 936.057C1207.36 974.804 1207.36 1037.57 1243.78 1076.32L1364.38 1204.47C1364.43 1204.52 1364.52 1204.49 1364.52 1204.42V1204.42C1364.52 1204.35 1364.61 1204.31 1364.65 1204.37L1523.52 1373.15C1581.08 1434.33 1581.08 1533.47 1523.52 1594.66L1364.52 1763.58L1357.71 1770.7L1200.46 1941.7C1143.54 2003.58 1051.31 2003.58 994.382 1941.7L837.349 1770.93C837.301 1770.88 837.338 1770.8 837.408 1770.8V1770.8C837.478 1770.8 837.515 1770.71 837.467 1770.66L718.505 1641.41C682.457 1602.27 624.063 1602.27 588.015 1641.41L468.745 1771.09C468.685 1771.16 468.602 1771.19 468.514 1771.19V1771.19C468.426 1771.19 468.342 1771.23 468.282 1771.29L311.585 1941.7C254.662 2003.58 162.427 2003.58 105.505 1941.7L-51.7458 1770.8L-57.8151 1764.87L-216.721 1595.94C-274.287 1534.76 -274.287 1435.62 -216.721 1374.43L-57.6311 1205.7L63.1113 1077.31C99.5272 1038.56 99.5272 975.793 63.1113 937.046L-57.4957 808.89C-57.5443 808.838 -57.6311 808.872 -57.6311 808.943V808.943C-57.6311 809.014 -57.718 809.049 -57.7666 808.997L-216.629 640.216C-274.195 579.031 -274.195 479.891 -216.629 418.706L-57.6311 249.781L-50.8262 242.664L106.424 71.7624C163.347 9.88591 255.582 9.88591 312.505 71.7624L469.539 242.43C469.586 242.482 469.549 242.565 469.479 242.565V242.565C469.409 242.565 469.372 242.649 469.42 242.701L588.291 371.953C624.339 411.095 682.733 411.095 718.781 371.953L838.142 242.272C838.202 242.207 838.286 242.17 838.374 242.17V242.17C838.462 242.17 838.545 242.133 838.605 242.069L995.302 71.6637C1052.22 9.78712 1144.46 9.78712 1201.38 71.6637L1358.54 242.565L1364.61 248.496L1523.61 417.421C1581.17 478.606 1581.17 577.747 1523.61 638.931L1364.66 807.807C1364.63 807.834 1364.59 807.833 1364.56 807.807V807.807Z" stroke="#FF6719" stroke-width="1.75" stroke-miterlimit="10" stroke-linecap="round"/>
<path d="M1364.56 807.807C1364.54 807.78 1364.5 807.78 1364.47 807.806L1243.78 936.057C1207.36 974.804 1207.36 1037.57 1243.78 1076.32L1364.38 1204.47C1364.43 1204.52 1364.52 1204.49 1364.52 1204.42V1204.42C1364.52 1204.35 1364.61 1204.31 1364.65 1204.37L1523.52 1373.15C1581.08 1434.33 1581.08 1533.47 1523.52 1594.66L1364.52 1763.58L1357.71 1770.7L1200.46 1941.7C1143.54 2003.58 1051.31 2003.58 994.382 1941.7L837.349 1770.93C837.301 1770.88 837.338 1770.8 837.408 1770.8V1770.8C837.478 1770.8 837.515 1770.71 837.467 1770.66L718.505 1641.41C682.457 1602.27 624.063 1602.27 588.015 1641.41L468.745 1771.09C468.685 1771.16 468.602 1771.19 468.514 1771.19V1771.19C468.426 1771.19 468.342 1771.23 468.282 1771.29L311.585 1941.7C254.662 2003.58 162.427 2003.58 105.505 1941.7L-51.7458 1770.8L-57.8151 1764.87L-216.721 1595.94C-274.287 1534.76 -274.287 1435.62 -216.721 1374.43L-57.6311 1205.7L63.1113 1077.31C99.5272 1038.56 99.5272 975.793 63.1113 937.046L-57.4957 808.89C-57.5443 808.838 -57.6311 808.872 -57.6311 808.943V808.943C-57.6311 809.014 -57.718 809.049 -57.7666 808.997L-216.629 640.216C-274.195 579.031 -274.195 479.891 -216.629 418.706L-57.6311 249.781L-50.8262 242.664L106.424 71.7624C163.347 9.88591 255.582 9.88591 312.505 71.7624L469.539 242.43C469.586 242.482 469.549 242.565 469.479 242.565V242.565C469.409 242.565 469.372 242.649 469.42 242.701L588.291 371.953C624.339 411.095 682.733 411.095 718.781 371.953L838.142 242.272C838.202 242.207 838.286 242.17 838.374 242.17V242.17C838.462 242.17 838.545 242.133 838.605 242.069L995.302 71.6637C1052.22 9.78712 1144.46 9.78712 1201.38 71.6637L1358.54 242.565L1364.61 248.496L1523.61 417.421C1581.17 478.606 1581.17 577.747 1523.61 638.931L1364.66 807.807C1364.63 807.834 1364.59 807.833 1364.56 807.807V807.807Z" stroke="#FF6719" stroke-width="1.75" stroke-miterlimit="10" stroke-linecap="round"/>
<path d="M1358.13 809.636C1358.05 809.579 1357.94 809.59 1357.88 809.661L1238.35 936.75C1202.21 975.101 1202.21 1037.37 1238.35 1075.72L1357.86 1202.69C1357.9 1202.75 1357.99 1202.71 1357.99 1202.64V1202.64C1357.99 1202.57 1358.08 1202.54 1358.13 1202.59L1515.52 1369.89C1572.53 1430.48 1572.53 1528.73 1515.52 1589.32L1357.99 1756.76L1351.28 1763.78L1195.41 1933C1139.04 1994.29 1047.63 1994.29 991.258 1933L835.604 1763.82C835.556 1763.77 835.593 1763.68 835.663 1763.68V1763.68C835.733 1763.68 835.77 1763.6 835.722 1763.55L717.955 1635.58C682.275 1596.73 624.341 1596.73 588.661 1635.58L470.402 1764.07C470.343 1764.14 470.259 1764.18 470.171 1764.18V1764.18C470.083 1764.18 469.999 1764.21 469.94 1764.28L314.622 1933.1C258.251 1994.38 166.843 1994.38 110.472 1933.1L-45.3065 1763.78L-51.2839 1757.95L-208.626 1590.51C-265.641 1529.91 -265.641 1431.66 -208.626 1371.07L-51.008 1203.93L68.631 1076.71C104.771 1038.36 104.771 976.09 68.631 937.738L-50.8725 810.67C-50.9212 810.618 -51.008 810.652 -51.008 810.723V810.723C-51.008 810.794 -51.0948 810.829 -51.1435 810.777L-208.534 643.479C-265.549 582.887 -265.549 484.636 -208.534 424.044L-51.008 256.602L-44.295 249.584L111.484 80.2634C167.855 18.9799 259.262 18.9799 315.634 80.2634L471.288 249.449C471.336 249.5 471.299 249.584 471.229 249.584V249.584C471.158 249.584 471.122 249.667 471.169 249.719L589.028 377.785C624.709 416.631 682.643 416.631 718.323 377.785L836.581 249.29C836.641 249.225 836.725 249.188 836.813 249.188V249.188C836.9 249.188 836.984 249.152 837.044 249.087L992.362 80.2635C1048.73 18.98 1140.14 18.98 1196.51 80.2635L1352.29 249.584L1358.27 255.416L1515.79 422.858C1572.81 483.45 1572.81 581.701 1515.79 642.293L1358.38 809.611C1358.32 809.682 1358.21 809.693 1358.13 809.636V809.636Z" stroke="#FF6719" stroke-width="1.75" stroke-miterlimit="10" stroke-linecap="round"/>
<path d="M1358.13 809.636C1358.05 809.579 1357.94 809.59 1357.88 809.661L1238.35 936.75C1202.21 975.101 1202.21 1037.37 1238.35 1075.72L1357.86 1202.69C1357.9 1202.75 1357.99 1202.71 1357.99 1202.64V1202.64C1357.99 1202.57 1358.08 1202.54 1358.13 1202.59L1515.52 1369.89C1572.53 1430.48 1572.53 1528.73 1515.52 1589.32L1357.99 1756.76L1351.28 1763.78L1195.41 1933C1139.04 1994.29 1047.63 1994.29 991.258 1933L835.604 1763.82C835.556 1763.77 835.593 1763.68 835.663 1763.68V1763.68C835.733 1763.68 835.77 1763.6 835.722 1763.55L717.955 1635.58C682.275 1596.73 624.341 1596.73 588.661 1635.58L470.402 1764.07C470.343 1764.14 470.259 1764.18 470.171 1764.18V1764.18C470.083 1764.18 469.999 1764.21 469.94 1764.28L314.622 1933.1C258.251 1994.38 166.843 1994.38 110.472 1933.1L-45.3065 1763.78L-51.2839 1757.95L-208.626 1590.51C-265.641 1529.91 -265.641 1431.66 -208.626 1371.07L-51.008 1203.93L68.631 1076.71C104.771 1038.36 104.771 976.09 68.631 937.738L-50.8725 810.67C-50.9212 810.618 -51.008 810.652 -51.008 810.723V810.723C-51.008 810.794 -51.0948 810.829 -51.1435 810.777L-208.534 643.479C-265.549 582.887 -265.549 484.636 -208.534 424.044L-51.008 256.602L-44.295 249.584L111.484 80.2634C167.855 18.9799 259.262 18.9799 315.634 80.2634L471.288 249.449C471.336 249.5 471.299 249.584 471.229 249.584V249.584C471.158 249.584 471.122 249.667 471.169 249.719L589.028 377.785C624.709 416.631 682.643 416.631 718.323 377.785L836.581 249.29C836.641 249.225 836.725 249.188 836.813 249.188V249.188C836.9 249.188 836.984 249.152 837.044 249.087L992.362 80.2635C1048.73 18.98 1140.14 18.98 1196.51 80.2635L1352.29 249.584L1358.27 255.416L1515.79 422.858C1572.81 483.45 1572.81 581.701 1515.79 642.293L1358.38 809.611C1358.32 809.682 1358.21 809.693 1358.13 809.636V809.636Z" stroke="#FF6719" stroke-width="1.75" stroke-miterlimit="10" stroke-linecap="round"/>
<path d="M1351.46 811.514C1351.41 811.461 1351.33 811.461 1351.28 811.514L1232.83 937.442C1197.06 975.497 1197.06 1037.08 1232.83 1075.13L1351.23 1200.82C1351.28 1200.87 1351.37 1200.83 1351.37 1200.76V1200.76C1351.37 1200.69 1351.45 1200.66 1351.5 1200.71L1507.42 1366.43C1563.89 1426.42 1563.89 1523.79 1507.42 1583.79L1351.37 1749.65L1344.75 1756.56L1190.44 1924.3C1134.62 1984.99 1044.04 1984.99 988.22 1924.3L833.945 1756.8C833.898 1756.75 833.934 1756.66 834.005 1756.66V1756.66C834.075 1756.66 834.112 1756.58 834.064 1756.53L717.308 1629.65C681.904 1591.2 624.613 1591.2 589.209 1629.65L472.146 1756.96C472.087 1757.02 472.003 1757.06 471.915 1757.06V1757.06C471.827 1757.06 471.743 1757.1 471.684 1757.16L317.929 1924.4C262.11 1985.09 171.53 1985.09 115.711 1924.4L-38.5968 1756.66L-44.4822 1750.83L-200.537 1584.97C-257 1524.97 -257 1427.61 -200.537 1367.61L-44.3902 1201.95L74.1453 1075.92C109.917 1037.87 109.917 976.288 74.1453 938.233L-44.1628 812.449C-44.2114 812.397 -44.2982 812.432 -44.2982 812.503V812.503C-44.2982 812.574 -44.385 812.608 -44.4337 812.556L-200.353 646.84C-256.816 586.841 -256.816 489.479 -200.353 429.481L-44.2982 263.62L-37.6772 256.701L116.539 88.962C172.358 28.2716 262.938 28.2716 318.757 88.962L472.94 256.565C472.988 256.617 472.951 256.701 472.881 256.701V256.701C472.81 256.701 472.774 256.784 472.821 256.836L589.577 383.716C624.981 422.166 682.272 422.166 717.676 383.716L834.831 256.407C834.89 256.342 834.974 256.306 835.062 256.306V256.306C835.15 256.306 835.234 256.269 835.294 256.204L989.14 88.9621C1044.96 28.2716 1135.54 28.2716 1191.36 88.9621L1345.67 256.701L1351.55 262.533L1507.61 428.394C1564.07 488.392 1564.07 585.754 1507.61 645.752L1351.64 811.515C1351.59 811.568 1351.51 811.568 1351.46 811.514V811.514Z" stroke="#FF6719" stroke-width="1.75" stroke-miterlimit="10" stroke-linecap="round"/>
<path d="M1351.46 811.514C1351.41 811.461 1351.33 811.461 1351.28 811.514L1232.83 937.442C1197.06 975.497 1197.06 1037.08 1232.83 1075.13L1351.23 1200.82C1351.28 1200.87 1351.37 1200.83 1351.37 1200.76V1200.76C1351.37 1200.69 1351.45 1200.66 1351.5 1200.71L1507.42 1366.43C1563.89 1426.42 1563.89 1523.79 1507.42 1583.79L1351.37 1749.65L1344.75 1756.56L1190.44 1924.3C1134.62 1984.99 1044.04 1984.99 988.22 1924.3L833.945 1756.8C833.898 1756.75 833.934 1756.66 834.005 1756.66V1756.66C834.075 1756.66 834.112 1756.58 834.064 1756.53L717.308 1629.65C681.904 1591.2 624.613 1591.2 589.209 1629.65L472.146 1756.96C472.087 1757.02 472.003 1757.06 471.915 1757.06V1757.06C471.827 1757.06 471.743 1757.1 471.684 1757.16L317.929 1924.4C262.11 1985.09 171.53 1985.09 115.711 1924.4L-38.5968 1756.66L-44.4822 1750.83L-200.537 1584.97C-257 1524.97 -257 1427.61 -200.537 1367.61L-44.3902 1201.95L74.1453 1075.92C109.917 1037.87 109.917 976.288 74.1453 938.233L-44.1628 812.449C-44.2114 812.397 -44.2982 812.432 -44.2982 812.503V812.503C-44.2982 812.574 -44.385 812.608 -44.4337 812.556L-200.353 646.84C-256.816 586.841 -256.816 489.479 -200.353 429.481L-44.2982 263.62L-37.6772 256.701L116.539 88.962C172.358 28.2716 262.938 28.2716 318.757 88.962L472.94 256.565C472.988 256.617 472.951 256.701 472.881 256.701V256.701C472.81 256.701 472.774 256.784 472.821 256.836L589.577 383.716C624.981 422.166 682.272 422.166 717.676 383.716L834.831 256.407C834.89 256.342 834.974 256.306 835.062 256.306V256.306C835.15 256.306 835.234 256.269 835.294 256.204L989.14 88.9621C1044.96 28.2716 1135.54 28.2716 1191.36 88.9621L1345.67 256.701L1351.55 262.533L1507.61 428.394C1564.07 488.392 1564.07 585.754 1507.61 645.752L1351.64 811.515C1351.59 811.568 1351.51 811.568 1351.46 811.514V811.514Z" stroke="#FF6719" stroke-width="1.75" stroke-miterlimit="10" stroke-linecap="round"/>
<path d="M1344.88 813.342C1344.86 813.276 1344.78 813.256 1344.73 813.307L1227.41 938.034C1192 975.694 1192 1036.78 1227.41 1074.44L1344.61 1199.04C1344.66 1199.09 1344.75 1199.05 1344.75 1198.98V1198.98C1344.75 1198.91 1344.83 1198.88 1344.88 1198.93L1499.33 1363.07C1555.24 1422.57 1555.24 1518.94 1499.33 1578.45L1344.75 1742.73L1338.12 1749.65L1185.29 1915.8C1129.93 1975.9 1040.27 1975.9 984.909 1915.8L832.197 1749.78C832.149 1749.73 832.186 1749.65 832.256 1749.65V1749.65C832.327 1749.65 832.363 1749.56 832.316 1749.51L716.664 1623.82C681.627 1585.76 624.796 1585.76 589.76 1623.82L473.893 1749.94C473.833 1750 473.749 1750.04 473.661 1750.04V1750.04C473.573 1750.04 473.489 1750.08 473.43 1750.14L321.055 1915.8C265.695 1975.9 176.035 1975.9 120.676 1915.8L-32.1607 1749.65L-38.0461 1743.91L-192.63 1579.63C-248.541 1520.13 -248.541 1423.76 -192.63 1364.25L-37.9541 1200.17L79.4779 1075.33C114.882 1037.67 114.882 976.584 79.4779 938.924L-37.7267 814.326C-37.7753 814.275 -37.8621 814.309 -37.8621 814.38V814.38C-37.8621 814.451 -37.9489 814.485 -37.9976 814.434L-192.446 650.298C-248.357 590.794 -248.357 494.421 -192.446 434.917L-37.8621 270.637L-31.2411 263.718L121.595 97.5609C176.955 37.4636 266.615 37.4636 321.974 97.5609L474.686 263.583C474.734 263.635 474.697 263.718 474.627 263.718V263.718C474.556 263.718 474.52 263.802 474.567 263.854L590.128 389.547C625.164 427.602 681.995 427.602 717.031 389.547L833.083 263.424C833.142 263.36 833.226 263.323 833.314 263.323V263.323C833.402 263.323 833.486 263.286 833.545 263.221L985.92 97.5609C1041.28 37.4636 1130.94 37.4636 1186.3 97.5609L1339.14 263.718L1345.02 269.451L1499.6 433.731C1555.52 493.235 1555.52 589.608 1499.6 649.112L1345.04 813.377C1344.99 813.428 1344.9 813.408 1344.88 813.342V813.342Z" stroke="#FF6719" stroke-width="1.75" stroke-miterlimit="10" stroke-linecap="round"/>
<path d="M1344.88 813.342C1344.86 813.276 1344.78 813.256 1344.73 813.307L1227.41 938.034C1192 975.694 1192 1036.78 1227.41 1074.44L1344.61 1199.04C1344.66 1199.09 1344.75 1199.05 1344.75 1198.98V1198.98C1344.75 1198.91 1344.83 1198.88 1344.88 1198.93L1499.33 1363.07C1555.24 1422.57 1555.24 1518.94 1499.33 1578.45L1344.75 1742.73L1338.12 1749.65L1185.29 1915.8C1129.93 1975.9 1040.27 1975.9 984.909 1915.8L832.197 1749.78C832.149 1749.73 832.186 1749.65 832.256 1749.65V1749.65C832.327 1749.65 832.363 1749.56 832.316 1749.51L716.664 1623.82C681.627 1585.76 624.796 1585.76 589.76 1623.82L473.893 1749.94C473.833 1750 473.749 1750.04 473.661 1750.04V1750.04C473.573 1750.04 473.489 1750.08 473.43 1750.14L321.055 1915.8C265.695 1975.9 176.035 1975.9 120.676 1915.8L-32.1607 1749.65L-38.0461 1743.91L-192.63 1579.63C-248.541 1520.13 -248.541 1423.76 -192.63 1364.25L-37.9541 1200.17L79.4779 1075.33C114.882 1037.67 114.882 976.584 79.4779 938.924L-37.7267 814.326C-37.7753 814.275 -37.8621 814.309 -37.8621 814.38V814.38C-37.8621 814.451 -37.9489 814.485 -37.9976 814.434L-192.446 650.298C-248.357 590.794 -248.357 494.421 -192.446 434.917L-37.8621 270.637L-31.2411 263.718L121.595 97.5609C176.955 37.4636 266.615 37.4636 321.974 97.5609L474.686 263.583C474.734 263.635 474.697 263.718 474.627 263.718V263.718C474.556 263.718 474.52 263.802 474.567 263.854L590.128 389.547C625.164 427.602 681.995 427.602 717.031 389.547L833.083 263.424C833.142 263.36 833.226 263.323 833.314 263.323V263.323C833.402 263.323 833.486 263.286 833.545 263.221L985.92 97.5609C1041.28 37.4636 1130.94 37.4636 1186.3 97.5609L1339.14 263.718L1345.02 269.451L1499.6 433.731C1555.52 493.235 1555.52 589.608 1499.6 649.112L1345.04 813.377C1344.99 813.428 1344.9 813.408 1344.88 813.342V813.342Z" stroke="#FF6719" stroke-width="1.75" stroke-miterlimit="10" stroke-linecap="round"/>
<path d="M1338.26 815.172C1338.24 815.124 1338.18 815.114 1338.14 815.152L1221.89 938.727C1186.76 975.991 1186.76 1036.48 1221.89 1073.85L1337.99 1197.26C1338.04 1197.31 1338.13 1197.28 1338.13 1197.21V1197.21C1338.13 1197.13 1338.21 1197.1 1338.26 1197.15L1491.24 1359.71C1546.69 1418.62 1546.69 1514.1 1491.24 1573.01L1338.22 1735.71L1331.69 1742.53L1180.32 1907.1C1125.52 1966.71 1036.68 1966.71 981.876 1907.1L830.635 1742.66C830.588 1742.61 830.624 1742.53 830.694 1742.53V1742.53C830.765 1742.53 830.801 1742.45 830.754 1742.39L716.113 1617.99C681.445 1580.23 625.166 1580.23 590.405 1617.99L475.518 1742.86C475.479 1742.9 475.423 1742.92 475.364 1742.92V1742.92C475.305 1742.92 475.249 1742.95 475.21 1742.99L324.183 1907.1C269.375 1966.71 180.543 1966.71 125.735 1907.1L-25.6299 1742.53L-31.4233 1736.8L-184.535 1574.1C-239.987 1515.19 -239.987 1419.7 -184.535 1360.79L-31.3314 1198.29L84.9971 1074.64C120.126 1037.37 120.126 976.881 84.9971 939.518L-31.1378 816.071C-31.1743 816.032 -31.2394 816.058 -31.2394 816.111V816.111C-31.2394 816.164 -31.3045 816.19 -31.341 816.151L-184.352 653.561C-239.803 594.65 -239.803 499.166 -184.352 440.255L-31.2394 277.558L-24.7103 270.737L126.655 106.26C181.462 46.6572 270.295 46.6572 325.103 106.26L476.343 270.701C476.391 270.753 476.354 270.836 476.284 270.836V270.836C476.213 270.836 476.177 270.92 476.224 270.972L590.773 395.479C625.442 433.237 681.721 433.237 716.481 395.479L831.46 270.508C831.5 270.465 831.556 270.441 831.614 270.441V270.441C831.673 270.441 831.729 270.416 831.768 270.373L982.703 106.26C1037.51 46.6573 1126.34 46.6573 1181.15 106.26L1332.52 270.836L1338.31 276.569L1491.42 439.267C1546.87 498.178 1546.87 593.662 1491.42 652.573L1338.38 815.191C1338.35 815.229 1338.29 815.219 1338.26 815.172V815.172Z" stroke="#FF6719" stroke-width="1.75" stroke-miterlimit="10" stroke-linecap="round"/>
<path d="M1338.26 815.172C1338.24 815.124 1338.18 815.114 1338.14 815.152L1221.89 938.727C1186.76 975.991 1186.76 1036.48 1221.89 1073.85L1337.99 1197.26C1338.04 1197.31 1338.13 1197.28 1338.13 1197.21V1197.21C1338.13 1197.13 1338.21 1197.1 1338.26 1197.15L1491.24 1359.71C1546.69 1418.62 1546.69 1514.1 1491.24 1573.01L1338.22 1735.71L1331.69 1742.53L1180.32 1907.1C1125.52 1966.71 1036.68 1966.71 981.876 1907.1L830.635 1742.66C830.588 1742.61 830.624 1742.53 830.694 1742.53V1742.53C830.765 1742.53 830.801 1742.45 830.754 1742.39L716.113 1617.99C681.445 1580.23 625.166 1580.23 590.405 1617.99L475.518 1742.86C475.479 1742.9 475.423 1742.92 475.364 1742.92V1742.92C475.305 1742.92 475.249 1742.95 475.21 1742.99L324.183 1907.1C269.375 1966.71 180.543 1966.71 125.735 1907.1L-25.6299 1742.53L-31.4233 1736.8L-184.535 1574.1C-239.987 1515.19 -239.987 1419.7 -184.535 1360.79L-31.3314 1198.29L84.9971 1074.64C120.126 1037.37 120.126 976.881 84.9971 939.518L-31.1378 816.071C-31.1743 816.032 -31.2394 816.058 -31.2394 816.111V816.111C-31.2394 816.164 -31.3045 816.19 -31.341 816.151L-184.352 653.561C-239.803 594.65 -239.803 499.166 -184.352 440.255L-31.2394 277.558L-24.7103 270.737L126.655 106.26C181.462 46.6572 270.295 46.6572 325.103 106.26L476.343 270.701C476.391 270.753 476.354 270.836 476.284 270.836V270.836C476.213 270.836 476.177 270.92 476.224 270.972L590.773 395.479C625.442 433.237 681.721 433.237 716.481 395.479L831.46 270.508C831.5 270.465 831.556 270.441 831.614 270.441V270.441C831.673 270.441 831.729 270.416 831.768 270.373L982.703 106.26C1037.51 46.6573 1126.34 46.6573 1181.15 106.26L1332.52 270.836L1338.31 276.569L1491.42 439.267C1546.87 498.178 1546.87 593.662 1491.42 652.573L1338.38 815.191C1338.35 815.229 1338.29 815.219 1338.26 815.172V815.172Z" stroke="#FF6719" stroke-width="1.75" stroke-miterlimit="10" stroke-linecap="round"/>
<path d="M-nan -nanL1331.69 816.95L1216.47 939.419C1181.7 976.386 1181.7 1036.29 1216.47 1073.25L1331.5 1195.52C1331.53 1195.55 1331.6 1195.53 1331.6 1195.47V1195.47C1331.6 1195.42 1331.66 1195.4 1331.7 1195.43L1483.24 1356.44C1538.14 1414.76 1538.14 1509.36 1483.24 1567.67L1331.6 1728.79L1325.16 1735.51L1175.27 1898.51C1121.01 1957.52 1033.01 1957.52 978.751 1898.51L828.981 1735.65C828.934 1735.59 828.971 1735.51 829.041 1735.51V1735.51C829.111 1735.51 829.148 1735.43 829.1 1735.38L715.655 1612.05C681.262 1574.69 625.535 1574.69 591.142 1612.05L477.267 1735.84C477.227 1735.88 477.171 1735.91 477.113 1735.91V1735.91C477.054 1735.91 476.998 1735.93 476.959 1735.97L327.403 1898.51C273.147 1957.52 185.142 1957.52 130.886 1898.51L-19.0074 1735.51L-24.7089 1729.88L-176.35 1568.76C-231.249 1510.44 -231.249 1415.85 -176.35 1357.53L-24.6169 1196.61L90.608 1074.14C125.369 1037.18 125.369 977.276 90.6081 940.308L-24.4233 818.047C-24.4598 818.008 -24.5249 818.034 -24.5249 818.087V818.087C-24.5249 818.14 -24.59 818.166 -24.6265 818.127L-176.166 657.119C-231.065 598.801 -231.065 504.207 -176.166 445.889L-24.5249 284.772L-18.0878 278.051L131.806 115.057C186.062 56.0468 274.067 56.0468 328.323 115.057L478.092 277.916C478.139 277.968 478.103 278.051 478.033 278.051V278.051C477.962 278.051 477.926 278.135 477.973 278.187L591.326 401.31C625.719 438.673 681.446 438.673 715.839 401.31L829.714 277.526C829.754 277.483 829.81 277.458 829.869 277.458V277.458C829.927 277.458 829.983 277.433 830.023 277.39L979.578 114.859C1033.83 55.849 1121.84 55.849 1176.1 114.859L1325.99 277.853L1331.69 283.488L1483.33 444.604C1538.23 502.922 1538.23 597.516 1483.33 655.834L1331.69 816.95L-nan -nanL-nan -nanZ" stroke="#FF6719" stroke-width="1.75" stroke-miterlimit="10" stroke-linecap="round"/>
<path d="M-nan -nanL1331.69 816.95L1216.47 939.419C1181.7 976.386 1181.7 1036.29 1216.47 1073.25L1331.5 1195.52C1331.53 1195.55 1331.6 1195.53 1331.6 1195.47V1195.47C1331.6 1195.42 1331.66 1195.4 1331.7 1195.43L1483.24 1356.44C1538.14 1414.76 1538.14 1509.36 1483.24 1567.67L1331.6 1728.79L1325.16 1735.51L1175.27 1898.51C1121.01 1957.52 1033.01 1957.52 978.751 1898.51L828.981 1735.65C828.934 1735.59 828.971 1735.51 829.041 1735.51V1735.51C829.111 1735.51 829.148 1735.43 829.1 1735.38L715.655 1612.05C681.262 1574.69 625.535 1574.69 591.142 1612.05L477.267 1735.84C477.227 1735.88 477.171 1735.91 477.113 1735.91V1735.91C477.054 1735.91 476.998 1735.93 476.959 1735.97L327.403 1898.51C273.147 1957.52 185.142 1957.52 130.886 1898.51L-19.0074 1735.51L-24.7089 1729.88L-176.35 1568.76C-231.249 1510.44 -231.249 1415.85 -176.35 1357.53L-24.6169 1196.61L90.608 1074.14C125.369 1037.18 125.369 977.276 90.6081 940.308L-24.4233 818.047C-24.4598 818.008 -24.5249 818.034 -24.5249 818.087V818.087C-24.5249 818.14 -24.59 818.166 -24.6265 818.127L-176.166 657.119C-231.065 598.801 -231.065 504.207 -176.166 445.889L-24.5249 284.772L-18.0878 278.051L131.806 115.057C186.062 56.0468 274.067 56.0468 328.323 115.057L478.092 277.916C478.139 277.968 478.103 278.051 478.033 278.051V278.051C477.962 278.051 477.926 278.135 477.973 278.187L591.326 401.31C625.719 438.673 681.446 438.673 715.839 401.31L829.714 277.526C829.754 277.483 829.81 277.458 829.869 277.458V277.458C829.927 277.458 829.983 277.433 830.023 277.39L979.578 114.859C1033.83 55.849 1121.84 55.849 1176.1 114.859L1325.99 277.853L1331.69 283.488L1483.33 444.604C1538.23 502.922 1538.23 597.516 1483.33 655.834L1331.69 816.95L-nan -nanL-nan -nanZ" stroke="#FF6719" stroke-width="1.75" stroke-miterlimit="10" stroke-linecap="round"/>
<path d="M1325.16 818.928C1325.11 818.833 1324.99 818.813 1324.91 818.889L1211.03 940.012C1176.64 976.585 1176.64 1035.89 1211.03 1072.46L1324.96 1193.54C1325 1193.58 1325.06 1193.55 1325.06 1193.5V1193.5C1325.06 1193.45 1325.13 1193.42 1325.16 1193.46L1475.23 1352.98C1529.58 1410.81 1529.58 1504.41 1475.23 1562.24L1325.06 1721.87L1318.63 1728.59L1170.11 1890.01C1116.32 1948.42 1029.23 1948.42 975.434 1890.01L827.045 1728.73C826.997 1728.68 827.034 1728.59 827.104 1728.59V1728.59C827.174 1728.59 827.211 1728.51 827.164 1728.46L714.914 1606.22C680.889 1569.26 625.713 1569.26 591.688 1606.22L478.917 1728.72C478.877 1728.77 478.821 1728.79 478.762 1728.79V1728.79C478.704 1728.79 478.648 1728.81 478.608 1728.86L330.524 1889.81C276.728 1948.22 189.642 1948.22 135.846 1889.81L-12.6679 1728.39L-18.3694 1722.76L-168.539 1563.13C-222.887 1505.3 -222.887 1411.7 -168.539 1353.87L-18.2774 1194.44L95.7521 1073.16C130.145 1036.58 130.145 977.276 95.7521 940.704L-18.1758 819.629C-18.2123 819.59 -18.2774 819.616 -18.2774 819.669V819.669C-18.2774 819.722 -18.3426 819.748 -18.379 819.709L-168.447 660.184C-222.795 602.36 -222.795 508.754 -168.447 450.93L-18.1855 291.593L-11.7483 284.872L136.766 123.558C190.562 65.1409 277.648 65.1409 331.444 123.558L479.833 284.835C479.881 284.887 479.844 284.971 479.774 284.971V284.971C479.704 284.971 479.667 285.054 479.715 285.106L591.964 407.142C625.989 444.11 681.165 444.11 715.19 407.142L827.961 284.643C828.001 284.6 828.057 284.575 828.116 284.575V284.575C828.174 284.575 828.23 284.551 828.27 284.508L976.354 123.558C1030.15 65.141 1117.24 65.141 1171.03 123.558L1319.55 284.971L1325.25 290.605L1475.42 450.239C1529.76 508.062 1529.76 601.668 1475.42 659.492L1325.4 818.967C1325.33 819.043 1325.2 819.023 1325.16 818.928V818.928Z" stroke="#FF6719" stroke-width="1.75" stroke-miterlimit="10" stroke-linecap="round"/>
<path d="M1325.16 818.928C1325.11 818.833 1324.99 818.813 1324.91 818.889L1211.03 940.012C1176.64 976.585 1176.64 1035.89 1211.03 1072.46L1324.96 1193.54C1325 1193.58 1325.06 1193.55 1325.06 1193.5V1193.5C1325.06 1193.45 1325.13 1193.42 1325.16 1193.46L1475.23 1352.98C1529.58 1410.81 1529.58 1504.41 1475.23 1562.24L1325.06 1721.87L1318.63 1728.59L1170.11 1890.01C1116.32 1948.42 1029.23 1948.42 975.434 1890.01L827.045 1728.73C826.997 1728.68 827.034 1728.59 827.104 1728.59V1728.59C827.174 1728.59 827.211 1728.51 827.164 1728.46L714.914 1606.22C680.889 1569.26 625.713 1569.26 591.688 1606.22L478.917 1728.72C478.877 1728.77 478.821 1728.79 478.762 1728.79V1728.79C478.704 1728.79 478.648 1728.81 478.608 1728.86L330.524 1889.81C276.728 1948.22 189.642 1948.22 135.846 1889.81L-12.6679 1728.39L-18.3694 1722.76L-168.539 1563.13C-222.887 1505.3 -222.887 1411.7 -168.539 1353.87L-18.2774 1194.44L95.7521 1073.16C130.145 1036.58 130.145 977.276 95.7521 940.704L-18.1758 819.629C-18.2123 819.59 -18.2774 819.616 -18.2774 819.669V819.669C-18.2774 819.722 -18.3426 819.748 -18.379 819.709L-168.447 660.184C-222.795 602.36 -222.795 508.754 -168.447 450.93L-18.1855 291.593L-11.7483 284.872L136.766 123.558C190.562 65.1409 277.648 65.1409 331.444 123.558L479.833 284.835C479.881 284.887 479.844 284.971 479.774 284.971V284.971C479.704 284.971 479.667 285.054 479.715 285.106L591.964 407.142C625.989 444.11 681.165 444.11 715.19 407.142L827.961 284.643C828.001 284.6 828.057 284.575 828.116 284.575V284.575C828.174 284.575 828.23 284.551 828.27 284.508L976.354 123.558C1030.15 65.141 1117.24 65.141 1171.03 123.558L1319.55 284.971L1325.25 290.605L1475.42 450.239C1529.76 508.062 1529.76 601.668 1475.42 659.492L1325.4 818.967C1325.33 819.043 1325.2 819.023 1325.16 818.928V818.928Z" stroke="#FF6719" stroke-width="1.75" stroke-miterlimit="10" stroke-linecap="round"/>
<path d="M1318.58 820.706C1318.56 820.659 1318.5 820.649 1318.46 820.687L1205.61 940.703C1171.49 976.979 1171.49 1035.69 1205.61 1071.87L1318.34 1191.76C1318.38 1191.8 1318.44 1191.77 1318.44 1191.72V1191.72C1318.44 1191.66 1318.51 1191.64 1318.55 1191.68L1467.14 1349.62C1520.94 1406.85 1520.94 1499.57 1467.14 1556.8L1318.44 1714.75L1312.1 1721.38L1165.06 1881.21C1111.81 1939.03 1025.55 1939.03 972.31 1881.21L825.391 1721.51C825.344 1721.46 825.38 1721.38 825.451 1721.38V1721.38C825.521 1721.38 825.558 1721.29 825.51 1721.24L714.272 1600.39C680.523 1563.72 625.899 1563.72 592.242 1600.39L480.666 1721.7C480.626 1721.75 480.57 1721.77 480.512 1721.77V1721.77C480.453 1721.77 480.397 1721.8 480.357 1721.84L333.653 1881.21C280.408 1939.03 194.151 1939.03 140.906 1881.21L-6.13675 1721.38L-11.7463 1715.84L-160.444 1557.79C-214.241 1500.56 -214.241 1407.84 -160.444 1350.61L-11.6543 1192.76L101.272 1072.66C135.389 1036.38 135.389 977.671 101.272 941.494L-11.5527 821.605C-11.5892 821.566 -11.6543 821.592 -11.6543 821.645V821.645C-11.6543 821.698 -11.7194 821.724 -11.7559 821.685L-160.26 663.84C-214.057 606.609 -214.057 513.893 -160.26 456.662L-11.5623 298.61L-5.21715 291.988L141.826 132.156C195.07 74.3324 281.328 74.3324 334.572 132.156L481.491 291.852C481.538 291.904 481.502 291.988 481.431 291.988V291.988C481.361 291.988 481.324 292.071 481.372 292.123L592.61 412.973C626.359 449.644 680.983 449.644 714.64 412.973L826.308 291.66C826.348 291.617 826.404 291.592 826.462 291.592V291.592C826.521 291.592 826.577 291.568 826.617 291.525L973.229 132.156C1026.47 74.3324 1112.73 74.3324 1165.98 132.156L1313.02 291.988L1318.63 297.523L1467.33 455.575C1521.12 512.806 1521.12 605.522 1467.33 662.753L1318.7 820.725C1318.67 820.764 1318.6 820.753 1318.58 820.706V820.706Z" stroke="#FF6719" stroke-width="1.75" stroke-miterlimit="10" stroke-linecap="round"/>
<path d="M1318.58 820.706C1318.56 820.659 1318.5 820.649 1318.46 820.687L1205.61 940.703C1171.49 976.979 1171.49 1035.69 1205.61 1071.87L1318.34 1191.76C1318.38 1191.8 1318.44 1191.77 1318.44 1191.72V1191.72C1318.44 1191.66 1318.51 1191.64 1318.55 1191.68L1467.14 1349.62C1520.94 1406.85 1520.94 1499.57 1467.14 1556.8L1318.44 1714.75L1312.1 1721.38L1165.06 1881.21C1111.81 1939.03 1025.55 1939.03 972.31 1881.21L825.391 1721.51C825.344 1721.46 825.38 1721.38 825.451 1721.38V1721.38C825.521 1721.38 825.558 1721.29 825.51 1721.24L714.272 1600.39C680.523 1563.72 625.899 1563.72 592.242 1600.39L480.666 1721.7C480.626 1721.75 480.57 1721.77 480.512 1721.77V1721.77C480.453 1721.77 480.397 1721.8 480.357 1721.84L333.653 1881.21C280.408 1939.03 194.151 1939.03 140.906 1881.21L-6.13675 1721.38L-11.7463 1715.84L-160.444 1557.79C-214.241 1500.56 -214.241 1407.84 -160.444 1350.61L-11.6543 1192.76L101.272 1072.66C135.389 1036.38 135.389 977.671 101.272 941.494L-11.5527 821.605C-11.5892 821.566 -11.6543 821.592 -11.6543 821.645V821.645C-11.6543 821.698 -11.7194 821.724 -11.7559 821.685L-160.26 663.84C-214.057 606.609 -214.057 513.893 -160.26 456.662L-11.5623 298.61L-5.21715 291.988L141.826 132.156C195.07 74.3324 281.328 74.3324 334.572 132.156L481.491 291.852C481.538 291.904 481.502 291.988 481.431 291.988V291.988C481.361 291.988 481.324 292.071 481.372 292.123L592.61 412.973C626.359 449.644 680.983 449.644 714.64 412.973L826.308 291.66C826.348 291.617 826.404 291.592 826.462 291.592V291.592C826.521 291.592 826.577 291.568 826.617 291.525L973.229 132.156C1026.47 74.3324 1112.73 74.3324 1165.98 132.156L1313.02 291.988L1318.63 297.523L1467.33 455.575C1521.12 512.806 1521.12 605.522 1467.33 662.753L1318.7 820.725C1318.67 820.764 1318.6 820.753 1318.58 820.706V820.706Z" stroke="#FF6719" stroke-width="1.75" stroke-miterlimit="10" stroke-linecap="round"/>
<path d="M1311.97 822.484C1311.95 822.437 1311.88 822.427 1311.85 822.465L1200.1 941.295C1166.35 977.176 1166.35 1035.3 1200.1 1071.18L1311.82 1189.88C1311.86 1189.92 1311.92 1189.89 1311.92 1189.84V1189.84C1311.92 1189.79 1311.99 1189.76 1312.02 1189.8L1459.15 1346.16C1512.39 1402.8 1512.39 1494.63 1459.15 1551.26L1311.92 1707.73L1305.67 1714.26L1160.1 1872.51C1107.4 1929.74 1021.97 1929.74 969.281 1872.51L823.834 1714.39C823.787 1714.34 823.823 1714.26 823.894 1714.26V1714.26C823.964 1714.26 824.001 1714.17 823.953 1714.12L713.818 1594.46C680.437 1558.18 626.365 1558.18 592.984 1594.46L482.327 1714.59C482.288 1714.63 482.232 1714.65 482.173 1714.65V1714.65C482.114 1714.65 482.058 1714.68 482.019 1714.72L336.877 1872.61C284.185 1929.84 198.755 1929.84 146.062 1872.61L0.490318 1714.36L-5.11918 1708.92L-152.346 1552.45C-205.59 1495.81 -205.59 1403.99 -152.346 1347.35L-5.02724 1191.07L106.795 1072.17C140.544 1036.28 140.544 978.164 106.795 942.284L-4.92563 823.482C-4.96211 823.443 -5.02723 823.469 -5.02723 823.522V823.522C-5.02723 823.575 -5.09235 823.601 -5.12883 823.562L-152.254 667.2C-205.498 610.562 -205.498 518.736 -152.254 462.098L-5.02723 305.627L1.22602 299.103L146.889 140.854C199.582 83.6227 285.012 83.6227 337.705 140.854L483.152 298.968C483.2 299.02 483.163 299.103 483.093 299.103V299.103C483.022 299.103 482.986 299.187 483.033 299.239L593.168 418.903C626.549 455.179 680.621 455.179 714.002 418.903L824.567 298.776C824.607 298.733 824.663 298.708 824.721 298.708V298.708C824.78 298.708 824.836 298.683 824.875 298.64L970.017 140.854C1022.71 83.6227 1108.14 83.6227 1160.83 140.854L1306.5 299.103L1312.11 304.54L1459.33 461.011C1512.58 517.648 1512.58 609.475 1459.33 666.113L1312.09 822.504C1312.05 822.542 1311.99 822.532 1311.97 822.484V822.484Z" stroke="#FF6719" stroke-width="1.75" stroke-miterlimit="10" stroke-linecap="round"/>
<path d="M1311.97 822.484C1311.95 822.437 1311.88 822.427 1311.85 822.465L1200.1 941.295C1166.35 977.176 1166.35 1035.3 1200.1 1071.18L1311.82 1189.88C1311.86 1189.92 1311.92 1189.89 1311.92 1189.84V1189.84C1311.92 1189.79 1311.99 1189.76 1312.02 1189.8L1459.15 1346.16C1512.39 1402.8 1512.39 1494.63 1459.15 1551.26L1311.92 1707.73L1305.67 1714.26L1160.1 1872.51C1107.4 1929.74 1021.97 1929.74 969.281 1872.51L823.834 1714.39C823.787 1714.34 823.823 1714.26 823.894 1714.26V1714.26C823.964 1714.26 824.001 1714.17 823.953 1714.12L713.818 1594.46C680.437 1558.18 626.365 1558.18 592.984 1594.46L482.327 1714.59C482.288 1714.63 482.232 1714.65 482.173 1714.65V1714.65C482.114 1714.65 482.058 1714.68 482.019 1714.72L336.877 1872.61C284.185 1929.84 198.755 1929.84 146.062 1872.61L0.490318 1714.36L-5.11918 1708.92L-152.346 1552.45C-205.59 1495.81 -205.59 1403.99 -152.346 1347.35L-5.02724 1191.07L106.795 1072.17C140.544 1036.28 140.544 978.164 106.795 942.284L-4.92563 823.482C-4.96211 823.443 -5.02723 823.469 -5.02723 823.522V823.522C-5.02723 823.575 -5.09235 823.601 -5.12883 823.562L-152.254 667.2C-205.498 610.562 -205.498 518.736 -152.254 462.098L-5.02723 305.627L1.22602 299.103L146.889 140.854C199.582 83.6227 285.012 83.6227 337.705 140.854L483.152 298.968C483.2 299.02 483.163 299.103 483.093 299.103V299.103C483.022 299.103 482.986 299.187 483.033 299.239L593.168 418.903C626.549 455.179 680.621 455.179 714.002 418.903L824.567 298.776C824.607 298.733 824.663 298.708 824.721 298.708V298.708C824.78 298.708 824.836 298.683 824.875 298.64L970.017 140.854C1022.71 83.6227 1108.14 83.6227 1160.83 140.854L1306.5 299.103L1312.11 304.54L1459.33 461.011C1512.58 517.648 1512.58 609.475 1459.33 666.113L1312.09 822.504C1312.05 822.542 1311.99 822.532 1311.97 822.484V822.484Z" stroke="#FF6719" stroke-width="1.75" stroke-miterlimit="10" stroke-linecap="round"/>
<path d="M1305.48 824.364C1305.43 824.311 1305.34 824.311 1305.29 824.364L1194.67 941.989C1161.29 977.474 1161.29 1035.1 1194.67 1070.59L1305.19 1188.1C1305.23 1188.14 1305.29 1188.12 1305.29 1188.06V1188.06C1305.29 1188.01 1305.36 1187.98 1305.4 1188.02L1451.05 1342.8C1503.83 1398.85 1503.83 1489.78 1451.05 1545.93L1305.29 1700.82L1299.04 1707.34L1154.94 1864.01C1102.8 1920.75 1018.2 1920.75 965.965 1864.01L821.989 1707.48C821.942 1707.42 821.978 1707.34 822.049 1707.34V1707.34C822.119 1707.34 822.156 1707.26 822.108 1707.21L713.077 1588.73C680.063 1552.85 626.451 1552.85 593.438 1588.73L484.068 1707.57C484.029 1707.61 483.973 1707.64 483.914 1707.64V1707.64C483.856 1707.64 483.8 1707.66 483.76 1707.7L339.998 1863.91C287.857 1920.65 203.255 1920.65 151.022 1863.91L6.92152 1707.24L1.40396 1701.81L-144.351 1546.92C-197.136 1490.87 -197.136 1399.93 -144.351 1343.79L1.49593 1189.1L112.215 1071.48C145.596 1035.99 145.596 978.364 112.215 942.879L1.59752 825.362C1.56103 825.323 1.49593 825.349 1.49593 825.402V825.402C1.49593 825.455 1.43082 825.481 1.39434 825.442L-144.26 670.661C-197.044 614.617 -197.044 523.68 -144.26 467.536L1.5879 312.647L7.84112 306.123L151.941 149.455C204.082 92.7185 288.685 92.7185 340.918 149.455L484.893 305.988C484.941 306.04 484.904 306.123 484.834 306.123V306.123C484.764 306.123 484.727 306.207 484.775 306.259L593.806 424.737C626.819 460.617 680.431 460.617 713.445 424.737L822.906 305.796C822.945 305.753 823.001 305.728 823.06 305.728V305.728C823.119 305.728 823.175 305.704 823.214 305.66L966.976 149.455C1019.12 92.7185 1103.72 92.7185 1155.95 149.455L1300.05 306.123L1305.57 311.56L1451.33 466.449C1504.11 522.494 1504.11 613.431 1451.33 669.574L1305.66 824.365C1305.61 824.418 1305.53 824.418 1305.48 824.364V824.364Z" stroke="#FF6719" stroke-width="1.75" stroke-miterlimit="10" stroke-linecap="round"/>
<path d="M1305.48 824.364C1305.43 824.311 1305.34 824.311 1305.29 824.364L1194.67 941.989C1161.29 977.474 1161.29 1035.1 1194.67 1070.59L1305.19 1188.1C1305.23 1188.14 1305.29 1188.12 1305.29 1188.06V1188.06C1305.29 1188.01 1305.36 1187.98 1305.4 1188.02L1451.05 1342.8C1503.83 1398.85 1503.83 1489.78 1451.05 1545.93L1305.29 1700.82L1299.04 1707.34L1154.94 1864.01C1102.8 1920.75 1018.2 1920.75 965.965 1864.01L821.989 1707.48C821.942 1707.42 821.978 1707.34 822.049 1707.34V1707.34C822.119 1707.34 822.156 1707.26 822.108 1707.21L713.077 1588.73C680.063 1552.85 626.451 1552.85 593.438 1588.73L484.068 1707.57C484.029 1707.61 483.973 1707.64 483.914 1707.64V1707.64C483.856 1707.64 483.8 1707.66 483.76 1707.7L339.998 1863.91C287.857 1920.65 203.255 1920.65 151.022 1863.91L6.92152 1707.24L1.40396 1701.81L-144.351 1546.92C-197.136 1490.87 -197.136 1399.93 -144.351 1343.79L1.49593 1189.1L112.215 1071.48C145.596 1035.99 145.596 978.364 112.215 942.879L1.59752 825.362C1.56103 825.323 1.49593 825.349 1.49593 825.402V825.402C1.49593 825.455 1.43082 825.481 1.39434 825.442L-144.26 670.661C-197.044 614.617 -197.044 523.68 -144.26 467.536L1.5879 312.647L7.84112 306.123L151.941 149.455C204.082 92.7185 288.685 92.7185 340.918 149.455L484.893 305.988C484.941 306.04 484.904 306.123 484.834 306.123V306.123C484.764 306.123 484.727 306.207 484.775 306.259L593.806 424.737C626.819 460.617 680.431 460.617 713.445 424.737L822.906 305.796C822.945 305.753 823.001 305.728 823.06 305.728V305.728C823.119 305.728 823.175 305.704 823.214 305.66L966.976 149.455C1019.12 92.7185 1103.72 92.7185 1155.95 149.455L1300.05 306.123L1305.57 311.56L1451.33 466.449C1504.11 522.494 1504.11 613.431 1451.33 669.574L1305.66 824.365C1305.61 824.418 1305.53 824.418 1305.48 824.364V824.364Z" stroke="#FF6719" stroke-width="1.75" stroke-miterlimit="10" stroke-linecap="round"/>
<path d="M1298.9 826.241C1298.88 826.193 1298.82 826.183 1298.78 826.221L1189.24 942.679C1156.14 977.868 1156.14 1034.8 1189.24 1069.99L1298.66 1186.32C1298.7 1186.36 1298.77 1186.33 1298.77 1186.28V1186.28C1298.77 1186.23 1298.83 1186.2 1298.87 1186.24L1443.05 1339.44C1495.28 1394.99 1495.28 1484.94 1443.05 1540.49L1298.77 1693.8L1292.6 1700.22L1149.98 1855.31C1098.29 1911.45 1014.61 1911.45 962.93 1855.31L820.426 1700.36C820.378 1700.31 820.415 1700.22 820.485 1700.22V1700.22C820.555 1700.22 820.592 1700.14 820.544 1700.09L712.617 1582.8C679.879 1547.21 626.911 1547.21 594.173 1582.8L485.816 1700.45C485.776 1700.49 485.72 1700.52 485.661 1700.52V1700.52C485.603 1700.52 485.547 1700.54 485.507 1700.59L343.125 1855.31C291.444 1911.45 207.761 1911.45 156.08 1855.31L13.4507 1700.22L8.02511 1694.88L-136.259 1541.58C-188.492 1486.03 -188.492 1396.08 -136.259 1340.53L8.11708 1187.42L117.732 1070.88C150.838 1035.69 150.838 978.758 117.732 943.569L8.31062 827.238C8.27415 827.2 8.20904 827.225 8.20904 827.279V827.279C8.20904 827.332 8.14395 827.358 8.10748 827.319L-136.075 674.119C-188.308 618.569 -188.308 528.62 -136.075 473.07L8.20905 319.762L14.3703 313.337L156.907 158.152C208.588 102.008 292.271 102.008 343.952 158.152L486.457 313.103C486.504 313.155 486.467 313.239 486.397 313.239V313.239C486.327 313.239 486.29 313.322 486.338 313.374L594.265 430.666C627.003 466.25 679.971 466.25 712.709 430.666L821.066 312.911C821.106 312.868 821.162 312.843 821.221 312.843V312.843C821.279 312.843 821.335 312.819 821.375 312.775L963.666 158.152C1015.35 102.008 1099.03 102.008 1150.71 158.152L1293.34 313.239L1298.77 318.576L1443.05 471.884C1495.28 527.434 1495.28 617.383 1443.05 672.933L1299.02 826.26C1298.99 826.298 1298.93 826.288 1298.9 826.241V826.241Z" stroke="#FF6719" stroke-width="1.75" stroke-miterlimit="10" stroke-linecap="round"/>
<path d="M1298.9 826.241C1298.88 826.193 1298.82 826.183 1298.78 826.221L1189.24 942.679C1156.14 977.868 1156.14 1034.8 1189.24 1069.99L1298.66 1186.32C1298.7 1186.36 1298.77 1186.33 1298.77 1186.28V1186.28C1298.77 1186.23 1298.83 1186.2 1298.87 1186.24L1443.05 1339.44C1495.28 1394.99 1495.28 1484.94 1443.05 1540.49L1298.77 1693.8L1292.6 1700.22L1149.98 1855.31C1098.29 1911.45 1014.61 1911.45 962.93 1855.31L820.426 1700.36C820.378 1700.31 820.415 1700.22 820.485 1700.22V1700.22C820.555 1700.22 820.592 1700.14 820.544 1700.09L712.617 1582.8C679.879 1547.21 626.911 1547.21 594.173 1582.8L485.816 1700.45C485.776 1700.49 485.72 1700.52 485.661 1700.52V1700.52C485.603 1700.52 485.547 1700.54 485.507 1700.59L343.125 1855.31C291.444 1911.45 207.761 1911.45 156.08 1855.31L13.4507 1700.22L8.02511 1694.88L-136.259 1541.58C-188.492 1486.03 -188.492 1396.08 -136.259 1340.53L8.11708 1187.42L117.732 1070.88C150.838 1035.69 150.838 978.758 117.732 943.569L8.31062 827.238C8.27415 827.2 8.20904 827.225 8.20904 827.279V827.279C8.20904 827.332 8.14395 827.358 8.10748 827.319L-136.075 674.119C-188.308 618.569 -188.308 528.62 -136.075 473.07L8.20905 319.762L14.3703 313.337L156.907 158.152C208.588 102.008 292.271 102.008 343.952 158.152L486.457 313.103C486.504 313.155 486.467 313.239 486.397 313.239V313.239C486.327 313.239 486.29 313.322 486.338 313.374L594.265 430.666C627.003 466.25 679.971 466.25 712.709 430.666L821.066 312.911C821.106 312.868 821.162 312.843 821.221 312.843V312.843C821.279 312.843 821.335 312.819 821.375 312.775L963.666 158.152C1015.35 102.008 1099.03 102.008 1150.71 158.152L1293.34 313.239L1298.77 318.576L1443.05 471.884C1495.28 527.434 1495.28 617.383 1443.05 672.933L1299.02 826.26C1298.99 826.298 1298.93 826.288 1298.9 826.241V826.241Z" stroke="#FF6719" stroke-width="1.75" stroke-miterlimit="10" stroke-linecap="round"/>
<path d="M1292.29 828.071C1292.26 828.005 1292.18 827.985 1292.13 828.036L1183.73 943.274C1150.99 978.067 1150.99 1034.51 1183.73 1069.3L1292.05 1184.45C1292.08 1184.48 1292.15 1184.46 1292.15 1184.4V1184.4C1292.15 1184.35 1292.21 1184.33 1292.25 1184.36L1434.96 1336.08C1486.64 1391.04 1486.64 1480.1 1434.96 1535.06L1292.15 1686.88L1286.08 1693.21L1144.83 1846.71C1093.7 1902.26 1010.84 1902.26 959.715 1846.71L818.59 1693.34C818.542 1693.29 818.579 1693.21 818.649 1693.21V1693.21C818.719 1693.21 818.756 1693.12 818.708 1693.07L711.884 1576.96C679.515 1541.78 627.006 1541.78 594.636 1576.96L487.382 1693.53C487.342 1693.58 487.287 1693.6 487.228 1693.6V1693.6C487.169 1693.6 487.113 1693.63 487.074 1693.67L346.346 1846.61C295.217 1902.16 212.362 1902.16 161.232 1846.61L19.983 1693.11L14.5574 1687.77L-128.255 1536.04C-179.936 1481.09 -179.936 1392.03 -128.255 1337.07L14.6494 1185.44L123.161 1070.09C155.899 1035.3 155.899 978.858 123.161 944.065L14.8429 828.92C14.8065 828.882 14.7413 828.907 14.7413 828.961V828.961C14.7413 829.014 14.6762 829.04 14.6397 829.001L-128.071 677.383C-179.752 622.425 -179.752 533.367 -128.071 478.409L14.7413 326.584L20.8106 320.258L162.06 166.753C213.189 111.202 296.045 111.202 347.174 166.753L488.207 320.123C488.255 320.175 488.218 320.258 488.148 320.258V320.258C488.077 320.258 488.041 320.342 488.088 320.394L594.912 436.499C627.282 471.688 679.791 471.688 712.16 436.499L819.414 319.93C819.454 319.887 819.51 319.863 819.569 319.863V319.863C819.627 319.863 819.683 319.838 819.723 319.795L960.542 166.753C1011.67 111.202 1094.53 111.202 1145.66 166.753L1286.91 320.258L1292.33 325.596L1435.14 477.421C1486.82 532.378 1486.82 621.437 1435.14 676.394L1292.44 828.106C1292.39 828.157 1292.31 828.137 1292.29 828.071V828.071Z" stroke="#FF6719" stroke-width="1.75" stroke-miterlimit="10" stroke-linecap="round"/>
<path d="M1292.29 828.071C1292.26 828.005 1292.18 827.985 1292.13 828.036L1183.73 943.274C1150.99 978.067 1150.99 1034.51 1183.73 1069.3L1292.05 1184.45C1292.08 1184.48 1292.15 1184.46 1292.15 1184.4V1184.4C1292.15 1184.35 1292.21 1184.33 1292.25 1184.36L1434.96 1336.08C1486.64 1391.04 1486.64 1480.1 1434.96 1535.06L1292.15 1686.88L1286.08 1693.21L1144.83 1846.71C1093.7 1902.26 1010.84 1902.26 959.715 1846.71L818.59 1693.34C818.542 1693.29 818.579 1693.21 818.649 1693.21V1693.21C818.719 1693.21 818.756 1693.12 818.708 1693.07L711.884 1576.96C679.515 1541.78 627.006 1541.78 594.636 1576.96L487.382 1693.53C487.342 1693.58 487.287 1693.6 487.228 1693.6V1693.6C487.169 1693.6 487.113 1693.63 487.074 1693.67L346.346 1846.61C295.217 1902.16 212.362 1902.16 161.232 1846.61L19.983 1693.11L14.5574 1687.77L-128.255 1536.04C-179.936 1481.09 -179.936 1392.03 -128.255 1337.07L14.6494 1185.44L123.161 1070.09C155.899 1035.3 155.899 978.858 123.161 944.065L14.8429 828.92C14.8065 828.882 14.7413 828.907 14.7413 828.961V828.961C14.7413 829.014 14.6762 829.04 14.6397 829.001L-128.071 677.383C-179.752 622.425 -179.752 533.367 -128.071 478.409L14.7413 326.584L20.8106 320.258L162.06 166.753C213.189 111.202 296.045 111.202 347.174 166.753L488.207 320.123C488.255 320.175 488.218 320.258 488.148 320.258V320.258C488.077 320.258 488.041 320.342 488.088 320.394L594.912 436.499C627.282 471.688 679.791 471.688 712.16 436.499L819.414 319.93C819.454 319.887 819.51 319.863 819.569 319.863V319.863C819.627 319.863 819.683 319.838 819.723 319.795L960.542 166.753C1011.67 111.202 1094.53 111.202 1145.66 166.753L1286.91 320.258L1292.33 325.596L1435.14 477.421C1486.82 532.378 1486.82 621.437 1435.14 676.394L1292.44 828.106C1292.39 828.157 1292.31 828.137 1292.29 828.071V828.071Z" stroke="#FF6719" stroke-width="1.75" stroke-miterlimit="10" stroke-linecap="round"/>
<path d="M1285.71 829.849C1285.71 829.831 1285.69 829.823 1285.67 829.836L1178.3 943.965C1145.93 978.363 1145.93 1034.21 1178.3 1068.71L1285.51 1182.67C1285.55 1182.7 1285.62 1182.68 1285.62 1182.62V1182.62C1285.62 1182.57 1285.68 1182.55 1285.72 1182.58L1426.96 1332.72C1478.09 1387.08 1478.09 1475.25 1426.96 1529.62L1285.62 1679.86L1279.55 1686.19L1139.77 1838.11C1089.19 1893.07 1007.16 1893.07 956.585 1838.11L816.931 1686.32C816.884 1686.27 816.92 1686.19 816.991 1686.19V1686.19C817.061 1686.19 817.098 1686.1 817.05 1686.05L711.33 1571.13C679.328 1536.34 627.371 1536.34 595.277 1571.13L489.218 1686.42C489.179 1686.46 489.123 1686.48 489.064 1686.48V1686.48C489.005 1686.48 488.949 1686.51 488.91 1686.55L349.47 1838.01C298.892 1892.97 216.865 1892.97 166.287 1838.01L26.5089 1686.09L21.1752 1680.85L-120.166 1530.61C-171.296 1476.24 -171.296 1388.07 -120.166 1333.71L21.2672 1183.66L128.584 1069.5C160.953 1035.1 160.953 979.253 128.584 944.756L21.3688 830.797C21.3323 830.759 21.2672 830.784 21.2672 830.838V830.838C21.2672 830.891 21.2021 830.917 21.1656 830.878L-120.074 680.742C-171.204 626.378 -171.204 538.209 -120.074 483.845L21.2672 333.601L27.3365 327.275L167.115 175.351C217.692 120.394 299.72 120.394 350.297 175.351L489.951 327.14C489.999 327.191 489.962 327.275 489.892 327.275V327.275C489.821 327.275 489.785 327.359 489.832 327.41L595.553 442.33C627.555 477.123 679.512 477.123 711.605 442.33L817.756 326.947C817.796 326.904 817.852 326.88 817.91 326.88V326.88C817.969 326.88 818.025 326.855 818.065 326.812L957.413 175.351C1007.99 120.394 1090.02 120.394 1140.6 175.351L1280.37 327.275L1285.71 332.514L1427.05 482.757C1478.18 537.122 1478.18 625.291 1427.05 679.655L1285.74 829.863C1285.73 829.876 1285.71 829.867 1285.71 829.849V829.849Z" stroke="#FF6719" stroke-width="1.75" stroke-miterlimit="10" stroke-linecap="round"/>
<path d="M1285.71 829.849C1285.71 829.831 1285.69 829.823 1285.67 829.836L1178.3 943.965C1145.93 978.363 1145.93 1034.21 1178.3 1068.71L1285.51 1182.67C1285.55 1182.7 1285.62 1182.68 1285.62 1182.62V1182.62C1285.62 1182.57 1285.68 1182.55 1285.72 1182.58L1426.96 1332.72C1478.09 1387.08 1478.09 1475.25 1426.96 1529.62L1285.62 1679.86L1279.55 1686.19L1139.77 1838.11C1089.19 1893.07 1007.16 1893.07 956.585 1838.11L816.931 1686.32C816.884 1686.27 816.92 1686.19 816.991 1686.19V1686.19C817.061 1686.19 817.098 1686.1 817.05 1686.05L711.33 1571.13C679.328 1536.34 627.371 1536.34 595.277 1571.13L489.218 1686.42C489.179 1686.46 489.123 1686.48 489.064 1686.48V1686.48C489.005 1686.48 488.949 1686.51 488.91 1686.55L349.47 1838.01C298.892 1892.97 216.865 1892.97 166.287 1838.01L26.5089 1686.09L21.1752 1680.85L-120.166 1530.61C-171.296 1476.24 -171.296 1388.07 -120.166 1333.71L21.2672 1183.66L128.584 1069.5C160.953 1035.1 160.953 979.253 128.584 944.756L21.3688 830.797C21.3323 830.759 21.2672 830.784 21.2672 830.838V830.838C21.2672 830.891 21.2021 830.917 21.1656 830.878L-120.074 680.742C-171.204 626.378 -171.204 538.209 -120.074 483.845L21.2672 333.601L27.3365 327.275L167.115 175.351C217.692 120.394 299.72 120.394 350.297 175.351L489.951 327.14C489.999 327.191 489.962 327.275 489.892 327.275V327.275C489.821 327.275 489.785 327.359 489.832 327.41L595.553 442.33C627.555 477.123 679.512 477.123 711.605 442.33L817.756 326.947C817.796 326.904 817.852 326.88 817.91 326.88V326.88C817.969 326.88 818.025 326.855 818.065 326.812L957.413 175.351C1007.99 120.394 1090.02 120.394 1140.6 175.351L1280.37 327.275L1285.71 332.514L1427.05 482.757C1478.18 537.122 1478.18 625.291 1427.05 679.655L1285.74 829.863C1285.73 829.876 1285.71 829.867 1285.71 829.849V829.849Z" stroke="#FF6719" stroke-width="1.75" stroke-miterlimit="10" stroke-linecap="round"/>
<path d="M1279.13 831.728C1279.11 831.662 1279.03 831.643 1278.98 831.693L1172.87 944.559C1140.78 978.66 1140.78 1033.91 1172.87 1068.02L1278.98 1180.79C1279.02 1180.83 1279.09 1180.8 1279.09 1180.75V1180.75C1279.09 1180.69 1279.15 1180.67 1279.19 1180.71L1418.96 1329.26C1469.63 1383.03 1469.63 1470.31 1418.96 1524.18L1279.09 1672.84L1273.11 1679.07L1134.8 1829.41C1084.78 1883.88 1003.58 1883.88 953.458 1829.41L815.276 1679.21C815.228 1679.15 815.265 1679.07 815.335 1679.07V1679.07C815.406 1679.07 815.442 1678.99 815.395 1678.94L710.778 1565.2C679.052 1530.71 627.646 1530.71 595.921 1565.2L490.873 1679.3C490.834 1679.34 490.778 1679.37 490.719 1679.37V1679.37C490.661 1679.37 490.605 1679.39 490.565 1679.44L352.596 1829.31C302.57 1883.78 221.37 1883.78 171.253 1829.31L32.9459 1678.97L27.6123 1673.73L-112.166 1525.17C-162.835 1471.4 -162.835 1384.12 -112.166 1330.25L27.7962 1181.79L134.009 1068.81C166.103 1034.71 166.103 979.451 134.009 945.35L27.8978 832.578C27.8613 832.539 27.7962 832.565 27.7962 832.618V832.618C27.7962 832.671 27.7311 832.697 27.6946 832.658L-112.074 684.104C-162.743 630.333 -162.743 543.053 -112.074 489.183L27.7962 340.521L33.7735 334.294L172.08 183.952C222.106 129.489 303.306 129.489 353.424 183.952L491.606 334.258C491.654 334.31 491.617 334.393 491.547 334.393V334.393C491.476 334.393 491.44 334.477 491.487 334.529L596.104 448.262C627.83 482.758 679.236 482.758 710.962 448.262L816.009 334.164C816.048 334.121 816.104 334.097 816.163 334.097V334.097C816.222 334.097 816.278 334.072 816.317 334.029L954.286 184.15C1004.31 129.687 1085.51 129.687 1135.63 184.15L1273.94 334.492L1279.27 339.731L1419.05 488.294C1469.72 542.065 1469.72 629.345 1419.05 683.215L1279.28 831.764C1279.24 831.814 1279.15 831.795 1279.13 831.728V831.728Z" stroke="#FF6719" stroke-width="1.75" stroke-miterlimit="10" stroke-linecap="round"/>
<path d="M1279.13 831.728C1279.11 831.662 1279.03 831.643 1278.98 831.693L1172.87 944.559C1140.78 978.66 1140.78 1033.91 1172.87 1068.02L1278.98 1180.79C1279.02 1180.83 1279.09 1180.8 1279.09 1180.75V1180.75C1279.09 1180.69 1279.15 1180.67 1279.19 1180.71L1418.96 1329.26C1469.63 1383.03 1469.63 1470.31 1418.96 1524.18L1279.09 1672.84L1273.11 1679.07L1134.8 1829.41C1084.78 1883.88 1003.58 1883.88 953.458 1829.41L815.276 1679.21C815.228 1679.15 815.265 1679.07 815.335 1679.07V1679.07C815.406 1679.07 815.442 1678.99 815.395 1678.94L710.778 1565.2C679.052 1530.71 627.646 1530.71 595.921 1565.2L490.873 1679.3C490.834 1679.34 490.778 1679.37 490.719 1679.37V1679.37C490.661 1679.37 490.605 1679.39 490.565 1679.44L352.596 1829.31C302.57 1883.78 221.37 1883.78 171.253 1829.31L32.9459 1678.97L27.6123 1673.73L-112.166 1525.17C-162.835 1471.4 -162.835 1384.12 -112.166 1330.25L27.7962 1181.79L134.009 1068.81C166.103 1034.71 166.103 979.451 134.009 945.35L27.8978 832.578C27.8613 832.539 27.7962 832.565 27.7962 832.618V832.618C27.7962 832.671 27.7311 832.697 27.6946 832.658L-112.074 684.104C-162.743 630.333 -162.743 543.053 -112.074 489.183L27.7962 340.521L33.7735 334.294L172.08 183.952C222.106 129.489 303.306 129.489 353.424 183.952L491.606 334.258C491.654 334.31 491.617 334.393 491.547 334.393V334.393C491.476 334.393 491.44 334.477 491.487 334.529L596.104 448.262C627.83 482.758 679.236 482.758 710.962 448.262L816.009 334.164C816.048 334.121 816.104 334.097 816.163 334.097V334.097C816.222 334.097 816.278 334.072 816.317 334.029L954.286 184.15C1004.31 129.687 1085.51 129.687 1135.63 184.15L1273.94 334.492L1279.27 339.731L1419.05 488.294C1469.72 542.065 1469.72 629.345 1419.05 683.215L1279.28 831.764C1279.24 831.814 1279.15 831.795 1279.13 831.728V831.728Z" stroke="#FF6719" stroke-width="1.75" stroke-miterlimit="10" stroke-linecap="round"/>
<path d="M1272.56 833.606C1272.56 833.553 1272.49 833.527 1272.46 833.566L1167.45 945.251C1135.72 978.957 1135.72 1033.62 1167.45 1067.42L1272.46 1179.01C1272.49 1179.05 1272.56 1179.02 1272.56 1178.97V1178.97C1272.56 1178.91 1272.62 1178.89 1272.66 1178.93L1410.96 1325.9C1461.07 1379.18 1461.07 1465.47 1410.96 1518.75L1272.47 1665.83L1266.58 1671.95L1129.75 1820.72C1080.18 1874.59 999.899 1874.59 950.333 1820.72L813.622 1672.09C813.574 1672.04 813.611 1671.95 813.681 1671.95V1671.95C813.752 1671.95 813.788 1671.87 813.741 1671.82L710.227 1559.27C678.869 1525.17 628.016 1525.17 596.566 1559.27L492.622 1672.28C492.582 1672.33 492.526 1672.35 492.468 1672.35V1672.35C492.409 1672.35 492.353 1672.37 492.313 1672.42L355.816 1820.72C306.25 1874.59 225.97 1874.59 176.404 1820.72L39.5682 1671.95L34.3266 1666.81L-104.164 1519.73C-154.282 1466.46 -154.282 1380.17 -104.164 1326.89L34.3266 1180.01L139.528 1068.21C171.254 1034.51 171.254 979.846 139.528 946.041L34.5202 834.455C34.4837 834.417 34.4186 834.442 34.4186 834.496V834.496C34.4186 834.549 34.3534 834.575 34.3169 834.536L-103.98 687.563C-154.098 634.286 -154.098 547.995 -103.98 494.718L34.4186 347.638L40.3039 341.509L177.139 192.749C226.705 138.879 306.986 138.879 356.552 192.749L493.263 341.374C493.31 341.426 493.274 341.509 493.203 341.509V341.509C493.133 341.509 493.096 341.593 493.144 341.645L596.658 454.192C628.016 488.293 678.869 488.293 710.319 454.192L814.263 341.281C814.303 341.237 814.359 341.213 814.417 341.213V341.213C814.476 341.213 814.532 341.188 814.571 341.145L951.069 192.848C1000.63 138.977 1080.92 138.977 1130.48 192.848L1267.32 341.608L1272.56 346.748L1410.96 493.829C1461.07 547.106 1461.07 633.397 1410.96 686.674L1272.66 833.646C1272.62 833.685 1272.56 833.659 1272.56 833.606V833.606Z" stroke="#FF6719" stroke-width="1.75" stroke-miterlimit="10" stroke-linecap="round"/>
<path d="M1272.56 833.606C1272.56 833.553 1272.49 833.527 1272.46 833.566L1167.45 945.251C1135.72 978.957 1135.72 1033.62 1167.45 1067.42L1272.46 1179.01C1272.49 1179.05 1272.56 1179.02 1272.56 1178.97V1178.97C1272.56 1178.91 1272.62 1178.89 1272.66 1178.93L1410.96 1325.9C1461.07 1379.18 1461.07 1465.47 1410.96 1518.75L1272.47 1665.83L1266.58 1671.95L1129.75 1820.72C1080.18 1874.59 999.899 1874.59 950.333 1820.72L813.622 1672.09C813.574 1672.04 813.611 1671.95 813.681 1671.95V1671.95C813.752 1671.95 813.788 1671.87 813.741 1671.82L710.227 1559.27C678.869 1525.17 628.016 1525.17 596.566 1559.27L492.622 1672.28C492.582 1672.33 492.526 1672.35 492.468 1672.35V1672.35C492.409 1672.35 492.353 1672.37 492.313 1672.42L355.816 1820.72C306.25 1874.59 225.97 1874.59 176.404 1820.72L39.5682 1671.95L34.3266 1666.81L-104.164 1519.73C-154.282 1466.46 -154.282 1380.17 -104.164 1326.89L34.3266 1180.01L139.528 1068.21C171.254 1034.51 171.254 979.846 139.528 946.041L34.5202 834.455C34.4837 834.417 34.4186 834.442 34.4186 834.496V834.496C34.4186 834.549 34.3534 834.575 34.3169 834.536L-103.98 687.563C-154.098 634.286 -154.098 547.995 -103.98 494.718L34.4186 347.638L40.3039 341.509L177.139 192.749C226.705 138.879 306.986 138.879 356.552 192.749L493.263 341.374C493.31 341.426 493.274 341.509 493.203 341.509V341.509C493.133 341.509 493.096 341.593 493.144 341.645L596.658 454.192C628.016 488.293 678.869 488.293 710.319 454.192L814.263 341.281C814.303 341.237 814.359 341.213 814.417 341.213V341.213C814.476 341.213 814.532 341.188 814.571 341.145L951.069 192.848C1000.63 138.977 1080.92 138.977 1130.48 192.848L1267.32 341.608L1272.56 346.748L1410.96 493.829C1461.07 547.106 1461.07 633.397 1410.96 686.674L1272.66 833.646C1272.62 833.685 1272.56 833.659 1272.56 833.606V833.606Z" stroke="#FF6719" stroke-width="1.75" stroke-miterlimit="10" stroke-linecap="round"/>
</g>
<defs>
<linearGradient id="paint0_linear" x1="-0.536392" y1="71.517" x2="166.539" y2="71.517" gradientUnits="userSpaceOnUse">
<stop stop-color="#B480FF"/>
<stop offset="0.604167" stop-color="#5F00E6"/>
<stop offset="0.859375" stop-color="#1AA4FF" stop-opacity="0.49"/>
<stop offset="1" stop-color="#28B86A" stop-opacity="0.27"/>
</linearGradient>
</defs>
</svg>
