<svg width="1586" height="792" viewBox="0 0 1586 792" xmlns="http://www.w3.org/2000/svg" role="img">
<title>Auction in Brokered Mode with a Reserve</title>
<desc>Seller creates the NFT and sets a reserve price with the broker as destination. Bidders make bids with the broker as destination. The broker selects the winning bid, completes the sale and takes a fee, then cancels the losing bids.</desc>
<defs>
<marker id="arrow" viewBox="0 0 10 10" refX="8" refY="5" markerWidth="7" markerHeight="7" orient="auto-start-reverse">
<path d="M1 1L8 5L1 9" fill="none" stroke="#838386" stroke-width="1.6" stroke-linecap="round" stroke-linejoin="round"/>
</marker>
</defs>
<rect x="0" y="0" width="1586" height="792" fill="#f5f5f7"/>
<rect x="0" y="56" width="1586" height="226" fill="#E7F3EB"/>
<rect x="0" y="282" width="1586" height="240" fill="#E2ECF7"/>
<rect x="0" y="522" width="1586" height="228" fill="#F0E0F7"/>
<line x1="0" y1="282" x2="1586" y2="282" stroke="#c7ccc9" stroke-width="1"/>
<line x1="0" y1="522" x2="1586" y2="522" stroke="#c7ccc9" stroke-width="1"/>
<text x="144" y="172" font-family="Helvetica Neue, Arial, sans-serif" font-size="15" font-weight="700" letter-spacing="0.5" fill="#72E38E">SELLER</text>
<text x="144" y="392" font-family="Helvetica Neue, Arial, sans-serif" font-size="15" font-weight="700" letter-spacing="0.5" fill="#4DA1F8">BUYERS /</text>
<text x="144" y="412" font-family="Helvetica Neue, Arial, sans-serif" font-size="15" font-weight="700" letter-spacing="0.5" fill="#4DA1F8">BIDDERS</text>
<text x="144" y="646" font-family="Helvetica Neue, Arial, sans-serif" font-size="15" font-weight="700" letter-spacing="0.5" fill="#C733F6">BROKER</text>
<line x1="468" y1="162" x2="509" y2="162" stroke="#838386" stroke-width="1.5" marker-end="url(#arrow)"/>
<path d="M660,230 V392 Q660,402 670,402 H752" fill="none" stroke="#838386" stroke-width="1.5" marker-end="url(#arrow)"/>
<path d="M903,471 V633 Q903,643 913,643 H996" fill="none" stroke="#838386" stroke-width="1.5" marker-end="url(#arrow)"/>
<line x1="1211" y1="643" x2="1239" y2="643" stroke="#838386" stroke-width="1.5" marker-end="url(#arrow)"/>
<g>
<rect x="266" y="94" width="202" height="136" rx="10" fill="#232325"/>
<rect x="268" y="108" width="4" height="108" rx="2" fill="#72E38E"/>
<circle cx="444" cy="117" r="14" fill="#72E38E"/>
<text x="444" y="117" text-anchor="middle" dominant-baseline="central" font-family="Helvetica Neue, Arial, sans-serif" font-size="14" font-weight="700" fill="#ffffff">1</text>
<text x="288" y="145.3" font-family="Helvetica Neue, Arial, sans-serif" font-size="15" font-weight="400" fill="#E0E0E1">Creates the NFT</text>
<text x="288" y="215.0" font-family="Courier New, monospace" font-size="12" fill="#72E38E">NFTokenMint</text>
</g>
<g>
<rect x="509" y="94" width="202" height="136" rx="10" fill="#232325"/>
<rect x="511" y="108" width="4" height="108" rx="2" fill="#72E38E"/>
<circle cx="687" cy="117" r="14" fill="#72E38E"/>
<text x="687" y="117" text-anchor="middle" dominant-baseline="central" font-family="Helvetica Neue, Arial, sans-serif" font-size="14" font-weight="700" fill="#ffffff">2</text>
<text x="531" y="145.3" font-family="Helvetica Neue, Arial, sans-serif" font-size="15" font-weight="400" fill="#E0E0E1">Sets minimum sale</text>
<text x="531" y="164.3" font-family="Helvetica Neue, Arial, sans-serif" font-size="15" font-weight="400" fill="#E0E0E1">price, broker as</text>
<text x="531" y="183.3" font-family="Helvetica Neue, Arial, sans-serif" font-size="15" font-weight="400" fill="#E0E0E1">destination</text>
<text x="531" y="215.0" font-family="Courier New, monospace" font-size="12" fill="#72E38E">NFTokenCreateOffer</text>
</g>
<g>
<rect x="752" y="334" width="202" height="137" rx="10" fill="#232325"/>
<rect x="754" y="348" width="4" height="109" rx="2" fill="#4DA1F8"/>
<circle cx="930" cy="357" r="14" fill="#4DA1F8"/>
<text x="930" y="357" text-anchor="middle" dominant-baseline="central" font-family="Helvetica Neue, Arial, sans-serif" font-size="14" font-weight="700" fill="#ffffff">3</text>
<text x="774" y="385.6" font-family="Helvetica Neue, Arial, sans-serif" font-size="15" font-weight="400" fill="#E0E0E1">Makes bids, broker</text>
<text x="774" y="404.6" font-family="Helvetica Neue, Arial, sans-serif" font-size="15" font-weight="400" fill="#E0E0E1">as destination</text>
<text x="774" y="455.9" font-family="Courier New, monospace" font-size="12" fill="#4DA1F8">NFTokenCreateOffer</text>
</g>
<g>
<rect x="996" y="575" width="215" height="136" rx="10" fill="#232325"/>
<rect x="998" y="589" width="4" height="108" rx="2" fill="#C733F6"/>
<circle cx="1187" cy="598" r="14" fill="#C733F6"/>
<text x="1187" y="598" text-anchor="middle" dominant-baseline="central" font-family="Helvetica Neue, Arial, sans-serif" font-size="14" font-weight="700" fill="#ffffff">4</text>
<text x="1018" y="626.3" font-family="Helvetica Neue, Arial, sans-serif" font-size="15" font-weight="400" fill="#E0E0E1">Selects winning bid,</text>
<text x="1018" y="645.3" font-family="Helvetica Neue, Arial, sans-serif" font-size="15" font-weight="400" fill="#E0E0E1">completes sale,</text>
<text x="1018" y="664.3" font-family="Helvetica Neue, Arial, sans-serif" font-size="15" font-weight="400" fill="#E0E0E1">takes fee</text>
<text x="1018" y="696.0" font-family="Courier New, monospace" font-size="12" fill="#C733F6">NFTokenAcceptOffer</text>
</g>
<g>
<rect x="1239" y="575" width="201" height="136" rx="10" fill="#232325"/>
<rect x="1241" y="589" width="4" height="108" rx="2" fill="#C733F6"/>
<circle cx="1416" cy="598" r="14" fill="#C733F6"/>
<text x="1416" y="598" text-anchor="middle" dominant-baseline="central" font-family="Helvetica Neue, Arial, sans-serif" font-size="14" font-weight="700" fill="#ffffff">5</text>
<text x="1261" y="626.3" font-family="Helvetica Neue, Arial, sans-serif" font-size="15" font-weight="400" fill="#E0E0E1">Cancels remaining</text>
<text x="1261" y="645.3" font-family="Helvetica Neue, Arial, sans-serif" font-size="15" font-weight="400" fill="#E0E0E1">bids</text>
<text x="1261" y="696.0" font-family="Courier New, monospace" font-size="12" fill="#C733F6">NFTokenCancelOffer</text>
</g>
</svg>
