<svg version="1.1" viewBox="0.0 0.0 684.6797900262467 228.2257217847769" fill="none" stroke="none" stroke-linecap="square" stroke-miterlimit="10" xmlns:xlink="http://www.w3.org/1999/xlink" xmlns="http://www.w3.org/2000/svg"><clipPath id="p.0"><path d="m0 0l684.6798 0l0 228.22572l-684.6798 0l0 -228.22572z" clip-rule="nonzero"/></clipPath><g clip-path="url(#p.0)"><path fill="#000000" fill-opacity="0.0" d="m0 0l684.6798 0l0 228.22572l-684.6798 0z" fill-rule="evenodd"/><path fill="#e6e7e8" d="m483.12003 84.57785l0 0c-1.6187744 -10.734978 3.6960144 -21.361954 13.689087 -27.371513c9.993103 -6.009556 22.911957 -6.3477516 33.274567 -0.87107086l0 0c3.6707764 -6.2417603 10.389343 -10.551266 18.123474 -11.624973c7.734131 -1.0737076 15.575439 1.2144928 21.152039 6.1724663l0 0c3.1270142 -5.6591835 9.266968 -9.46143 16.241089 -10.05751c6.974121 -0.59607697 13.795349 2.0983772 18.043213 7.127228l0 0c5.649414 -5.9987183 14.637817 -8.524429 23.075806 -6.4842415c8.437988 2.0401878 14.810059 8.279835 16.359009 16.019016l0 0c6.9214478 1.703659 12.68689 6.0345917 15.806702 11.873825c3.119812 5.8392334 3.2879639 12.613945 0.4609375 18.573769l0 0c6.815674 8.0047 8.410034 18.67086 4.1881104 28.018059c-4.221924 9.347206 -13.6258545 15.971138 -24.702393 17.39988c-0.078063965 8.77269 -5.409729 16.822388 -13.93988 21.046417c-8.530212 4.2240295 -18.92694 3.9627686 -27.1828 -0.6830597c-3.5165405 10.506805 -13.41449 18.23761 -25.417603 19.852432c-12.003052 1.6148071 -23.959412 -3.1758575 -30.703552 -12.302261c-8.266846 4.4984436 -18.186401 5.7942963 -27.520996 3.5952454c-9.334564 -2.1990356 -17.297913 -7.707733 -22.093597 -15.283447l0 0c-8.447693 0.8920593 -16.615448 -3.0574799 -20.449646 -9.8884735c-3.8341675 -6.8309937 -2.5185852 -15.089294 3.2938538 -20.67633l0 0c-7.535553 -4.002281 -11.380676 -11.944145 -9.530243 -19.684212c1.8504639 -7.740074 8.977112 -13.524422 17.663696 -14.336739z" fill-rule="evenodd"/><path fill="#000000" fill-opacity="0.0" d="m474.81958 119.01254l0 0c3.5560608 1.8886948 7.6641235 2.7454453 11.772675 2.4552307m5.3812866 28.11026c1.7668152 -0.18656921 3.4986267 -0.58166504 5.1507874 -1.1750793m44.461304 12.862793c-1.2426147 -1.6816254 -2.283081 -3.478592 -3.1035156 -5.3602753m59.226807 -2.190216l0 0c0.6411743 -1.9155579 1.0565186 -3.8870697 1.2392578 -5.881653m39.881897 -14.480972c0.08312988 -9.339874 -5.795532 -17.891563 -15.110962 -21.981865m35.62506 -23.43509c-1.508606 3.1804047 -3.8116455 6.0017014 -6.7285767 8.242676m-9.53772 -38.6911l0 0c0.25708008 1.2843208 0.3760376 2.5879402 0.35528564 3.8927994m-39.789368 -13.427185l0 0c-1.4092407 1.4963799 -2.5702515 3.1685677 -3.4469604 4.964493m-30.837708 -2.0348663l0 0c-0.75097656 1.3591537 -1.3117676 2.797371 -1.6694946 4.281521m-37.606567 1.1711044l0 0c2.192749 1.1588593 4.2213135 2.5536728 6.0411377 4.153801m-53.00418 24.088932l0 0c0.22311401 1.4795609 0.57562256 2.9408722 1.0542908 4.3702774" fill-rule="evenodd"/><path stroke="#00aae4" stroke-width="1.0" stroke-linejoin="round" stroke-linecap="butt" d="m483.12003 84.57785l0 0c-1.6187744 -10.734978 3.6960144 -21.361954 13.689087 -27.371513c9.993103 -6.009556 22.911957 -6.3477516 33.274567 -0.87107086l0 0c3.6707764 -6.2417603 10.389343 -10.551266 18.123474 -11.624973c7.734131 -1.0737076 15.575439 1.2144928 21.152039 6.1724663l0 0c3.1270142 -5.6591835 9.266968 -9.46143 16.241089 -10.05751c6.974121 -0.59607697 13.795349 2.0983772 18.043213 7.127228l0 0c5.649414 -5.9987183 14.637817 -8.524429 23.075806 -6.4842415c8.437988 2.0401878 14.810059 8.279835 16.359009 16.019016l0 0c6.9214478 1.703659 12.68689 6.0345917 15.806702 11.873825c3.119812 5.8392334 3.2879639 12.613945 0.4609375 18.573769l0 0c6.815674 8.0047 8.410034 18.67086 4.1881104 28.018059c-4.221924 9.347206 -13.6258545 15.971138 -24.702393 17.39988c-0.078063965 8.77269 -5.409729 16.822388 -13.93988 21.046417c-8.530212 4.2240295 -18.92694 3.9627686 -27.1828 -0.6830597c-3.5165405 10.506805 -13.41449 18.23761 -25.417603 19.852432c-12.003052 1.6148071 -23.959412 -3.1758575 -30.703552 -12.302261c-8.266846 4.4984436 -18.186401 5.7942963 -27.520996 3.5952454c-9.334564 -2.1990356 -17.297913 -7.707733 -22.093597 -15.283447l0 0c-8.447693 0.8920593 -16.615448 -3.0574799 -20.449646 -9.8884735c-3.8341675 -6.8309937 -2.5185852 -15.089294 3.2938538 -20.67633l0 0c-7.535553 -4.002281 -11.380676 -11.944145 -9.530243 -19.684212c1.8504639 -7.740074 8.977112 -13.524422 17.663696 -14.336739z" fill-rule="evenodd"/><path stroke="#00aae4" stroke-width="1.0" stroke-linejoin="round" stroke-linecap="butt" d="m474.81958 119.01254l0 0c3.5560608 1.8886948 7.6641235 2.7454453 11.772675 2.4552307m5.3812866 28.11026c1.7668152 -0.18656921 3.4986267 -0.58166504 5.1507874 -1.1750793m44.461304 12.862793c-1.2426147 -1.6816254 -2.283081 -3.478592 -3.1035156 -5.3602753m59.226807 -2.190216l0 0c0.6411743 -1.9155579 1.0565186 -3.8870697 1.2392578 -5.881653m39.881897 -14.480972c0.08312988 -9.339874 -5.795532 -17.891563 -15.110962 -21.981865m35.62506 -23.43509c-1.508606 3.1804047 -3.8116455 6.0017014 -6.7285767 8.242676m-9.53772 -38.6911l0 0c0.25708008 1.2843208 0.3760376 2.5879402 0.35528564 3.8927994m-39.789368 -13.427185l0 0c-1.4092407 1.4963799 -2.5702515 3.1685677 -3.4469604 4.964493m-30.837708 -2.0348663l0 0c-0.75097656 1.3591537 -1.3117676 2.797371 -1.6694946 4.281521m-37.606567 1.1711044l0 0c2.192749 1.1588593 4.2213135 2.5536728 6.0411377 4.153801m-53.00418 24.088932l0 0c0.22311401 1.4795609 0.57562256 2.9408722 1.0542908 4.3702774" fill-rule="evenodd"/><path fill="#e6e7e8" d="m24.181627 23.548557l350.39368 0l0 181.25984l-350.39368 0z" fill-rule="evenodd"/><path stroke="#23282f" stroke-width="1.0" stroke-linejoin="round" stroke-linecap="butt" d="m24.181627 23.548557l350.39368 0l0 181.25984l-350.39368 0z" fill-rule="evenodd"/><defs><linearGradient id="p.1" gradientUnits="userSpaceOnUse" gradientTransform="matrix(6.664321478911278 0.0 0.0 6.664321478911278 0.0 0.0)" spreadMethod="pad" x1="73.32292061690994" y1="17.50008608170255" x2="79.98724209582122" y2="17.50008608170255"><stop offset="0.0" stop-color="#29a1da"/><stop offset="0.45" stop-color="#29a1da"/><stop offset="0.56" stop-color="#2789b9"/><stop offset="1.0" stop-color="#2789b9"/></linearGradient></defs><path fill="url(#p.1)" d="m533.0607 104.16984l0 0c0 5.107498 0 5.107498 0 5.107498c0 0.14078522 -0.14068604 0.28168488 -0.56744385 0.42716217c-20.574432 6.8160324 -20.574432 6.8160324 -20.574432 6.8160324c-0.56744385 0.14089203 -1.5576172 0.14089203 -2.265686 0c-20.578888 -6.8160324 -20.578888 -6.8160324 -20.578888 -6.8160324c-0.14102173 0 -0.28167725 -0.1454773 -0.28167725 -0.1454773c-0.14511108 -0.14089966 -0.14511108 -0.14089966 -0.14511108 -0.28168488c0 -5.107498 0 -5.107498 0 -5.107498l44.41324 0" fill-rule="evenodd"/><defs><linearGradient id="p.2" gradientUnits="userSpaceOnUse" gradientTransform="matrix(6.66157326763643 0.0 0.0 6.66157326763643 0.0 0.0)" spreadMethod="pad" x1="80.01487846471161" y1="14.53327076188386" x2="73.35330519724604" y2="14.533223050727342"><stop offset="0.0" stop-color="#6bc1ec"/><stop offset="1.0" stop-color="#8ad6f4"/></linearGradient></defs><path fill="url(#p.2)" d="m511.91904 111.394844l0 0c20.574738 -6.8082504 20.574738 -6.8082504 20.574738 -6.8082504c0.7081299 -0.28611755 0.7081299 -0.56768036 0 -0.8537979c-20.574738 -6.812805 -20.574738 -6.812805 -20.574738 -6.812805c-0.567688 -0.14072418 -1.6982422 -0.14072418 -2.2659302 0c-20.579193 6.812805 -20.579193 6.812805 -20.579193 6.812805c-0.5673218 0.28611755 -0.5673218 0.56768036 0 0.8537979c20.579193 6.8082504 20.579193 6.8082504 20.579193 6.8082504c0.7084961 0.14084625 1.6982422 0.14084625 2.2659302 0" fill-rule="evenodd"/><defs><linearGradient id="p.3" gradientUnits="userSpaceOnUse" gradientTransform="matrix(6.664324555780346 0.0 0.0 6.664324555780346 0.0 0.0)" spreadMethod="pad" x1="73.32108371940602" y1="16.379994845148516" x2="79.98540827518636" y2="16.379994845148516"><stop offset="0.0" stop-color="#dbdcdd"/><stop offset="0.41" stop-color="#dbdcdd"/><stop offset="0.6" stop-color="#b1b3b5"/><stop offset="1.0" stop-color="#b1b3b5"/></linearGradient></defs><path fill="url(#p.3)" d="m533.0487 96.70524l0 0c0 5.107498 0 5.107498 0 5.107498c0 0.14078522 -0.140625 0.28168488 -0.56744385 0.42716217c-20.574402 6.8160324 -20.574402 6.8160324 -20.574402 6.8160324c-0.56744385 0.14089203 -1.5576172 0.14089203 -2.2657166 0c-20.578857 -6.8160324 -20.578857 -6.8160324 -20.578857 -6.8160324c-0.14102173 0 -0.28167725 -0.1454773 -0.28167725 -0.1454773c-0.14511108 -0.14089966 -0.14511108 -0.14089966 -0.14511108 -0.28168488c0 -5.107498 0 -5.107498 0 -5.107498l44.413208 0" fill-rule="evenodd"/><defs><linearGradient id="p.4" gradientUnits="userSpaceOnUse" gradientTransform="matrix(6.4624524194704795 0.0 0.0 6.4624524194704795 0.0 0.0)" spreadMethod="pad" x1="83.61328993005937" y1="14.962277380662192" x2="79.04368725011689" y2="10.392592203171043"><stop offset="0.0" stop-color="#e6e7e8"/><stop offset="1.0" stop-color="#ffffff"/></linearGradient></defs><path fill="url(#p.4)" d="m511.89807 103.930244l0 0c20.574707 -6.8082504 20.574707 -6.8082504 20.574707 -6.8082504c0.7081299 -0.28611755 0.7081299 -0.56768036 0 -0.8537979c-20.574707 -6.812805 -20.574707 -6.812805 -20.574707 -6.812805c-0.567688 -0.14072418 -1.6982422 -0.14072418 -2.2659302 0c-20.579193 6.812805 -20.579193 6.812805 -20.579193 6.812805c-0.5673218 0.28611755 -0.5673218 0.56768036 0 0.8537979c20.579193 6.8082504 20.579193 6.8082504 20.579193 6.8082504c0.7084961 0.14084625 1.6982422 0.14084625 2.2659302 0" fill-rule="evenodd"/><path fill="#23292f" d="m498.99362 77.73869l7.157776 7.309906l0.24404907 0.23965454l0.25561523 0.22763062l0.26727295 0.2037735l0.2788391 0.19174957l0.27893066 0.17971802l0.27886963 0.16778564l0.29049683 0.14383698l0.302063 0.13180542l0.30218506 0.119781494l0.302063 0.09592438l0.31375122 0.08389282l0.3137207 0.0718689l0.3137207 0.059936523l0.31375122 0.035888672l0.32540894 0.023956299l0.62734985 0l0.32540894 -0.023956299l0.3137207 -0.035888672l0.31375122 -0.059936523l0.3137207 -0.0718689l0.3137207 -0.08389282l0.30212402 -0.09592438l0.30212402 -0.119781494l0.29052734 -0.13180542l0.302063 -0.14383698l0.27893066 -0.16778564l0.27886963 -0.17971802l0.2788086 -0.19174957l0.26727295 -0.2037735l0.25561523 -0.22763062l0.24407959 -0.23965454l7.157776 -7.309906l-3.4395142 0l-5.4379883 5.5483093l-0.16265869 0.15576172l-0.16271973 0.14383698l-0.16271973 0.13180542l-0.17425537 0.11987305l-0.17425537 0.119781494l-0.18591309 0.09592438l-0.18597412 0.095825195l-0.18591309 0.08389282l-0.18591309 0.0718689l-0.19750977 0.059936523l-0.1975708 0.059944153l-0.19750977 0.04790497l-0.1975708 0.035987854l-0.19750977 0.023956299l-0.20913696 0.011924744l-0.39511108 0l-0.20913696 -0.011924744l-0.19750977 -0.023956299l-0.1975708 -0.035987854l-0.19750977 -0.04790497l-0.1975708 -0.059944153l-0.19750977 -0.059936523l-0.18591309 -0.0718689l-0.1859436 -0.08389282l-0.18591309 -0.095825195l-0.1859436 -0.09592438l-0.17425537 -0.119781494l-0.17428589 -0.11987305l-0.16268921 -0.13180542l-0.16268921 -0.14383698l-0.16268921 -0.15576172l-5.4379883 -5.5483093z" fill-rule="evenodd"/><path fill="#23292f" d="m510.53214 88.727455l-0.32540894 0.023956299l-0.31375122 0.04801178l-0.3137207 0.047912598l-0.3137207 0.0718689l-0.31375122 0.08389282l-0.302063 0.09592438l-0.30218506 0.119781494l-0.302063 0.13180542l-0.29049683 0.14382935l-0.27886963 0.16779327l-0.27893066 0.17971802l-0.2788391 0.19174194l-0.26727295 0.21570587l-0.25561523 0.21569824l-0.24404907 0.23966217l-7.204254 7.357811l3.4394226 0l5.484558 -5.5962143l0.16268921 -0.1558609l0.16268921 -0.1437378l0.16268921 -0.13180542l0.17428589 -0.119880676l0.17425537 -0.10784912l0.1859436 -0.10784912l0.18591309 -0.095825195l0.1859436 -0.08389282l0.18591309 -0.07196808l0.19750977 -0.05984497l0.1975708 -0.059936523l0.19750977 -0.035980225l0.1975708 -0.035888672l0.19750977 -0.024047852l0.20913696 -0.023956299l0.39511108 0l0.20913696 0.023956299l0.19750977 0.024047852l0.1975708 0.035888672l0.19750977 0.035980225l0.1975708 0.059936523l0.19750977 0.05984497l0.18591309 0.07196808l0.18591309 0.08389282l0.18597412 0.095825195l0.18591309 0.10784912l0.17425537 0.10784912l0.17425537 0.119880676l0.16271973 0.13180542l0.16271973 0.1437378l0.16265869 0.1558609l5.484558 5.5962143l3.439392 0l-7.2042236 -7.357811l-0.24407959 -0.23966217l-0.25561523 -0.21569824l-0.26727295 -0.21570587l-0.2788086 -0.19174194l-0.27886963 -0.17971802l-0.27893066 -0.16779327l-0.29052734 -0.14382935l-0.302063 -0.13180542l-0.30212402 -0.119781494l-0.30212402 -0.09592438l-0.3137207 -0.08389282l-0.3137207 -0.0718689l-0.31375122 -0.047912598l-0.3137207 -0.04801178l-0.32540894 -0.023956299z" fill-rule="evenodd"/><path fill="#ff00ff" d="m52.27034 54.472443l88.99475 0l0 84.46719l-88.99475 0z" fill-rule="evenodd"/><path fill="#000000" fill-opacity="0.0" d="m63.394684 54.472443l0 84.46719m66.74606 -84.46719l0 84.46719" fill-rule="evenodd"/><path fill="#000000" fill-opacity="0.0" d="m52.27034 54.472443l88.99475 0l0 84.46719l-88.99475 0z" fill-rule="evenodd"/><path stroke="#23282f" stroke-width="1.0" stroke-linejoin="round" stroke-linecap="butt" d="m63.394684 54.472443l0 84.46719m66.74606 -84.46719l0 84.46719" fill-rule="evenodd"/><path stroke="#23282f" stroke-width="1.0" stroke-linejoin="round" stroke-linecap="butt" d="m52.27034 54.472443l88.99475 0l0 84.46719l-88.99475 0z" fill-rule="evenodd"/><path fill="#000000" d="m77.97281 86.01666l3.46875 -6.65625l1.984375 0l-4.578125 8.3125l0 4.953125l-1.75 0l0 -4.953125l-4.5625 -8.3125l2.0 0l3.4375 6.65625zm5.8622284 1.59375q0 -1.453125 0.5625 -2.609375q0.578125 -1.15625 1.59375 -1.78125q1.015625 -0.625 2.3125 -0.625q2.015625 0 3.25 1.390625q1.25 1.390625 1.25 3.703125l0 0.125q0 1.4375 -0.546875 2.578125q-0.546875 1.140625 -1.578125 1.78125q-1.015625 0.640625 -2.359375 0.640625q-2.0 0 -3.25 -1.390625q-1.234375 -1.40625 -1.234375 -3.703125l0 -0.109375zm1.6875 0.203125q0 1.640625 0.765625 2.640625q0.765625 0.984375 2.03125 0.984375q1.296875 0 2.046875 -1.0q0.75 -1.015625 0.75 -2.828125q0 -1.625 -0.765625 -2.625q-0.765625 -1.015625 -2.046875 -1.015625q-1.25 0 -2.015625 1.0q-0.765625 0.984375 -0.765625 2.84375zm15.483643 3.84375q-0.984375 1.15625 -2.890625 1.15625q-1.578125 0 -2.40625 -0.921875q-0.8125 -0.921875 -0.828125 -2.703125l0 -6.421875l1.6875 0l0 6.375q0 2.234375 1.828125 2.234375q1.921875 0 2.5625 -1.4375l0 -7.171875l1.6875 0l0 9.859375l-1.609375 0l-0.03125 -0.96875zm8.972122 -7.375q-0.390625 -0.0625 -0.84375 -0.0625q-1.65625 0 -2.25 1.40625l0 7.0l-1.671875 0l0 -9.859375l1.640625 0l0.015625 1.140625q0.828125 -1.3125 2.359375 -1.3125q0.484375 0 0.75 0.125l0 1.5625z" fill-rule="nonzero"/><path fill="#000000" d="m77.62906 113.43854q0.890625 0 1.5625 -0.546875q0.6875 -0.546875 0.75 -1.375l1.59375 0q-0.046875 0.84375 -0.578125 1.609375q-0.53125 0.765625 -1.4375 1.234375q-0.890625 0.453125 -1.890625 0.453125q-2.015625 0 -3.203125 -1.34375q-1.1875 -1.34375 -1.1875 -3.6875l0 -0.28125q0 -1.4375 0.515625 -2.546875q0.53125 -1.125 1.515625 -1.734375q1.0 -0.625 2.34375 -0.625q1.65625 0 2.75 1.0q1.109375 0.984375 1.171875 2.5625l-1.59375 0q-0.0625 -0.953125 -0.71875 -1.5625q-0.65625 -0.625 -1.609375 -0.625q-1.28125 0 -2.0 0.921875q-0.703125 0.921875 -0.703125 2.671875l0 0.328125q0 1.703125 0.703125 2.625q0.703125 0.921875 2.015625 0.921875zm5.359131 -3.828125q0 -1.453125 0.5625 -2.609375q0.578125 -1.15625 1.59375 -1.78125q1.015625 -0.625 2.3125 -0.625q2.015625 0 3.25 1.390625q1.25 1.390625 1.25 3.703125l0 0.125q0 1.4375 -0.546875 2.578125q-0.546875 1.140625 -1.578125 1.78125q-1.015625 0.640625 -2.359375 0.640625q-2.0 0 -3.25 -1.390625q-1.234375 -1.40625 -1.234375 -3.703125l0 -0.109375zm1.6875 0.203125q0 1.640625 0.765625 2.640625q0.765625 0.984375 2.03125 0.984375q1.296875 0 2.046875 -1.0q0.75 -1.015625 0.75 -2.828125q0 -1.625 -0.765625 -2.625q-0.765625 -1.015625 -2.046875 -1.015625q-1.25 0 -2.015625 1.0q-0.765625 0.984375 -0.765625 2.84375zm8.983643 -0.203125q0 -2.265625 1.078125 -3.640625q1.078125 -1.375 2.8125 -1.375q1.734375 0 2.75 1.171875l0 -5.140625l1.6875 0l0 14.0l-1.546875 0l-0.09375 -1.0625q-1.0 1.25 -2.8125 1.25q-1.703125 0 -2.796875 -1.40625q-1.078125 -1.40625 -1.078125 -3.65625l0 -0.140625zm1.6875 0.203125q0 1.671875 0.6875 2.625q0.703125 0.9375 1.921875 0.9375q1.609375 0 2.34375 -1.4375l0 -4.53125q-0.765625 -1.390625 -2.328125 -1.390625q-1.234375 0 -1.9375 0.953125q-0.6875 0.953125 -0.6875 2.84375zm13.333969 5.0q-2.0 0 -3.265625 -1.3125q-1.25 -1.328125 -1.25 -3.53125l0 -0.3125q0 -1.46875 0.5625 -2.609375q0.5625 -1.15625 1.5625 -1.796875q1.015625 -0.65625 2.1875 -0.65625q1.921875 0 2.984375 1.265625q1.0625 1.265625 1.0625 3.625l0 0.6875l-6.671875 0q0.03125 1.46875 0.84375 2.375q0.828125 0.890625 2.078125 0.890625q0.890625 0 1.515625 -0.359375q0.625 -0.375 1.078125 -0.96875l1.03125 0.796875q-1.234375 1.90625 -3.71875 1.90625zm-0.203125 -8.84375q-1.015625 0 -1.71875 0.75q-0.6875 0.734375 -0.84375 2.078125l4.9375 0l0 -0.125q-0.078125 -1.28125 -0.703125 -1.984375q-0.609375 -0.71875 -1.671875 -0.71875z" fill-rule="nonzero"/><path fill="#000000" fill-opacity="0.0" d="m483.1299 116.666664l55.433075 0l0 33.95275l-55.433075 0z" fill-rule="evenodd"/><path fill="#000000" d="m496.70746 121.09417q0.375 0 0.6875 0.0625l-0.125 0.8125q-0.359375 -0.078125 -0.625 -0.078125q-0.6875 0 -1.1875 0.5625q-0.484375 0.5625 -0.484375 1.390625l0 3.0625l-0.859375 0l0 -5.703125l0.703125 0l0.109375 1.0625l0.03125 0q0.328125 -0.5625 0.765625 -0.859375q0.453125 -0.3125 0.984375 -0.3125zm2.6155396 5.8125l-0.859375 0l0 -5.703125l0.859375 0l0 5.703125zm-0.9375 -7.25q0 -0.296875 0.140625 -0.4375q0.15625 -0.140625 0.375 -0.140625q0.203125 0 0.34375 0.140625q0.15625 0.140625 0.15625 0.4375q0 0.296875 -0.15625 0.4375q-0.140625 0.140625 -0.34375 0.140625q-0.21875 0 -0.375 -0.140625q-0.140625 -0.140625 -0.140625 -0.4375zm5.414032 7.359375q-0.546875 0 -1.015625 -0.203125q-0.453125 -0.21875 -0.765625 -0.640625l-0.0625 0q0.0625 0.5 0.0625 0.953125l0 2.3437424l-0.859375 0l0 -8.265617l0.703125 0l0.109375 0.78125l0.046875 0q0.328125 -0.46875 0.765625 -0.671875q0.453125 -0.21875 1.015625 -0.21875q1.140625 0 1.75 0.78125q0.625 0.78125 0.625 2.171875q0 1.40625 -0.625 2.1875q-0.625 0.78125 -1.75 0.78125zm-0.125 -5.1875q-0.859375 0 -1.25 0.484375q-0.390625 0.484375 -0.40625 1.546875l0 0.1875q0 1.203125 0.390625 1.71875q0.40625 0.515625 1.296875 0.515625q0.734375 0 1.15625 -0.59375q0.421875 -0.59375 0.421875 -1.640625q0 -1.078125 -0.421875 -1.640625q-0.421875 -0.578125 -1.1875 -0.578125zm6.6550903 5.1875q-0.546875 0 -1.015625 -0.203125q-0.453125 -0.21875 -0.765625 -0.640625l-0.0625 0q0.0625 0.5 0.0625 0.953125l0 2.3437424l-0.859375 0l0 -8.265617l0.703125 0l0.109375 0.78125l0.046875 0q0.328125 -0.46875 0.765625 -0.671875q0.453125 -0.21875 1.015625 -0.21875q1.140625 0 1.7499695 0.78125q0.625 0.78125 0.625 2.171875q0 1.40625 -0.625 2.1875q-0.6249695 0.78125 -1.7499695 0.78125zm-0.125 -5.1875q-0.859375 0 -1.25 0.484375q-0.390625 0.484375 -0.40625 1.546875l0 0.1875q0 1.203125 0.390625 1.71875q0.40625 0.515625 1.296875 0.515625q0.734375 0 1.15625 -0.59375q0.421875 -0.59375 0.421875 -1.640625q0 -1.078125 -0.421875 -1.640625q-0.421875 -0.578125 -1.1875 -0.578125zm4.87381 5.078125l-0.859375 0l0 -8.09375l0.859375 0l0 8.09375zm4.2421875 0.109375q-1.265625 0 -2.0 -0.765625q-0.734375 -0.78125 -0.734375 -2.140625q0 -1.390625 0.671875 -2.203125q0.6875 -0.8125 1.828125 -0.8125q1.078125 0 1.703125 0.71875q0.625 0.703125 0.625 1.859375l0 0.546875l-3.921875 0q0.015625 1.0 0.5 1.515625q0.484375 0.515625 1.359375 0.515625q0.921875 0 1.8125 -0.375l0 0.765625q-0.453125 0.203125 -0.859375 0.28125q-0.40625 0.09375 -0.984375 0.09375zm-0.234375 -5.1875q-0.6875 0 -1.09375 0.453125q-0.40625 0.4375 -0.484375 1.234375l2.984375 0q0 -0.828125 -0.375 -1.25q-0.359375 -0.4375 -1.03125 -0.4375zm7.6816406 4.3125l-0.046875 0q-0.59375 0.875 -1.796875 0.875q-1.109375 0 -1.734375 -0.765625q-0.625 -0.765625 -0.625 -2.171875q0 -1.421875 0.625 -2.203125q0.625 -0.78125 1.734375 -0.78125q1.171875 0 1.78125 0.84375l0.078125 0l-0.046875 -0.40625l-0.015625 -0.40625l0 -2.3125l0.859375 0l0 8.09375l-0.703125 0l-0.109375 -0.765625zm-1.734375 0.140625q0.890625 0 1.28125 -0.46875q0.40625 -0.484375 0.40625 -1.5625l0 -0.171875q0 -1.21875 -0.40625 -1.734375q-0.40625 -0.515625 -1.28125 -0.515625q-0.765625 0 -1.171875 0.59375q-0.390625 0.578125 -0.390625 1.65625q0 1.09375 0.390625 1.65625q0.40625 0.546875 1.171875 0.546875z" fill-rule="nonzero"/><path fill="#000000" d="m500.26828 137.87541q0 1.015625 -0.734375 1.578125q-0.734375 0.5625 -1.96875 0.5625q-1.359375 0 -2.09375 -0.359375l0 -0.84375q0.46875 0.1875 1.015625 0.3125q0.5625 0.109375 1.109375 0.109375q0.875 0 1.3125 -0.328125q0.453125 -0.34375 0.453125 -0.9375q0 -0.40625 -0.15625 -0.65625q-0.15625 -0.25 -0.53125 -0.453125q-0.375 -0.21875 -1.125 -0.484375q-1.0625 -0.390625 -1.515625 -0.90625q-0.453125 -0.515625 -0.453125 -1.359375q0 -0.875 0.65625 -1.390625q0.65625 -0.53125 1.75 -0.53125q1.125 0 2.078125 0.421875l-0.265625 0.765625q-0.953125 -0.390625 -1.84375 -0.390625q-0.6875 0 -1.09375 0.296875q-0.390625 0.296875 -0.390625 0.84375q0 0.390625 0.140625 0.640625q0.15625 0.25 0.5 0.46875q0.34375 0.203125 1.046875 0.46875q1.203125 0.421875 1.65625 0.921875q0.453125 0.484375 0.453125 1.25zm3.8328247 2.140625q-1.265625 0 -2.0 -0.765625q-0.734375 -0.78125 -0.734375 -2.140625q0 -1.390625 0.671875 -2.203125q0.6875 -0.8125 1.828125 -0.8125q1.078125 0 1.703125 0.71875q0.625 0.703125 0.625 1.859375l0 0.546875l-3.921875 0q0.015625 1.0 0.5 1.515625q0.484375 0.515625 1.359375 0.515625q0.921875 0 1.8125 -0.375l0 0.765625q-0.453125 0.203125 -0.859375 0.28125q-0.40625 0.09375 -0.984375 0.09375zm-0.234375 -5.1875q-0.6875 0 -1.09375 0.453125q-0.40625 0.4375 -0.484375 1.234375l2.984375 0q0 -0.828125 -0.375 -1.25q-0.359375 -0.4375 -1.03125 -0.4375zm6.4003906 -0.734375q0.375 0 0.6875 0.0625l-0.125 0.8125q-0.359375 -0.078125 -0.625 -0.078125q-0.6875 0 -1.1875 0.5625q-0.484375 0.5625 -0.484375 1.390625l0 3.0625l-0.859375 0l0 -5.703125l0.703125 0l0.109375 1.0625l0.03125 0q0.328125 -0.5625 0.765625 -0.859375q0.453125 -0.3125 0.984375 -0.3125zm3.006195 5.8125l-2.1719055 -5.703125l0.9219055 0l1.234375 3.375q0.421875 1.1875 0.484375 1.546875l0.046875 0q0.046875 -0.28125 0.34375 -1.140625q0.3125 -0.859375 1.375 -3.78125l0.9375 0l-2.171875 5.703125l-1.0 0zm6.494751 0.109375q-1.265625 0 -2.0 -0.765625q-0.734375 -0.78125 -0.734375 -2.140625q0 -1.390625 0.671875 -2.203125q0.6875 -0.8125 1.828125 -0.8125q1.078125 0 1.703125 0.71875q0.625 0.703125 0.625 1.859375l0 0.546875l-3.921875 0q0.015625 1.0 0.5 1.515625q0.484375 0.515625 1.359375 0.515625q0.921875 0 1.8125 -0.375l0 0.765625q-0.453125 0.203125 -0.859375 0.28125q-0.40625 0.09375 -0.984375 0.09375zm-0.234375 -5.1875q-0.6875 0 -1.09375 0.453125q-0.40625 0.4375 -0.484375 1.234375l2.984375 0q0 -0.828125 -0.375 -1.25q-0.359375 -0.4375 -1.03125 -0.4375zm6.4003906 -0.734375q0.375 0 0.6875 0.0625l-0.125 0.8125q-0.359375 -0.078125 -0.625 -0.078125q-0.6875 0 -1.1875 0.5625q-0.484375 0.5625 -0.484375 1.390625l0 3.0625l-0.859375 0l0 -5.703125l0.703125 0l0.109375 1.0625l0.03125 0q0.328125 -0.5625 0.765625 -0.859375q0.453125 -0.3125 0.984375 -0.3125z" fill-rule="nonzero"/><path fill="#000000" fill-opacity="0.0" d="m141.26509 96.70604l126.67717 0" fill-rule="evenodd"/><path stroke="#e64b3b" stroke-width="2.0" stroke-linejoin="round" stroke-linecap="butt" d="m141.26509 96.70604l114.67717 0" fill-rule="evenodd"/><path fill="#e64b3b" stroke="#e64b3b" stroke-width="2.0" stroke-linecap="butt" d="m255.94226 100.0095l9.076202 -3.3034592l-9.076202 -3.3034668z" fill-rule="evenodd"/><path fill="#000000" fill-opacity="0.0" d="m141.26509 43.278214l123.59056 0l0 48.692917l-123.59056 0z" fill-rule="evenodd"/><path fill="#000000" d="m170.8799 56.078213l-1.109375 0l0 -8.53125l-3.015625 0l0 -0.984375l7.140625 0l0 0.984375l-3.015625 0l0 8.53125zm7.5453033 -7.265625q0.46875 0 0.84375 0.078125l-0.140625 1.0q-0.453125 -0.09375 -0.78125 -0.09375q-0.875 0 -1.5 0.703125q-0.609375 0.703125 -0.609375 1.75l0 3.828125l-1.078125 0l0 -7.125l0.890625 0l0.125 1.3125l0.0625 0q0.390625 -0.703125 0.953125 -1.078125q0.5625 -0.375 1.234375 -0.375zm6.5655823 7.265625l-0.21875 -1.015625l-0.046875 0q-0.53125 0.671875 -1.0625 0.90625q-0.53125 0.234375 -1.328125 0.234375q-1.0625 0 -1.671875 -0.546875q-0.59375 -0.546875 -0.59375 -1.546875q0 -2.15625 3.453125 -2.265625l1.21875 -0.046875l0 -0.4375q0 -0.84375 -0.359375 -1.234375q-0.359375 -0.40625 -1.15625 -0.40625q-0.890625 0 -2.015625 0.546875l-0.34375 -0.828125q0.53125 -0.28125 1.15625 -0.4375q0.640625 -0.171875 1.265625 -0.171875q1.28125 0 1.890625 0.5625q0.609375 0.5625 0.609375 1.8125l0 4.875l-0.796875 0zm-2.4375 -0.765625q1.0 0 1.578125 -0.546875q0.578125 -0.5625 0.578125 -1.546875l0 -0.640625l-1.078125 0.03125q-1.28125 0.046875 -1.859375 0.40625q-0.5625 0.359375 -0.5625 1.109375q0 0.578125 0.34375 0.890625q0.359375 0.296875 1.0 0.296875zm10.349976 0.765625l0 -4.609375q0 -0.875 -0.40625 -1.296875q-0.390625 -0.4375 -1.234375 -0.4375q-1.125 0 -1.65625 0.609375q-0.515625 0.59375 -0.515625 2.0l0 3.734375l-1.078125 0l0 -7.125l0.890625 0l0.171875 0.96875l0.046875 0q0.328125 -0.53125 0.921875 -0.8125q0.609375 -0.296875 1.34375 -0.296875q1.296875 0 1.9375 0.625q0.65625 0.625 0.65625 1.984375l0 4.65625l-1.078125 0zm7.8991547 -1.953125q0 1.0 -0.75 1.546875q-0.734375 0.53125 -2.078125 0.53125q-1.421875 0 -2.21875 -0.4375l0 -1.015625q0.515625 0.265625 1.109375 0.421875q0.59375 0.140625 1.140625 0.140625q0.84375 0 1.296875 -0.265625q0.453125 -0.265625 0.453125 -0.828125q0 -0.40625 -0.359375 -0.703125q-0.359375 -0.296875 -1.40625 -0.703125q-1.0 -0.375 -1.421875 -0.640625q-0.421875 -0.28125 -0.625 -0.625q-0.203125 -0.359375 -0.203125 -0.84375q0 -0.875 0.703125 -1.375q0.71875 -0.515625 1.953125 -0.515625q1.15625 0 2.25 0.46875l-0.375 0.875q-1.078125 -0.4375 -1.953125 -0.4375q-0.765625 0 -1.15625 0.25q-0.390625 0.234375 -0.390625 0.65625q0 0.28125 0.140625 0.484375q0.15625 0.203125 0.46875 0.390625q0.328125 0.171875 1.25 0.53125q1.28125 0.453125 1.71875 0.921875q0.453125 0.46875 0.453125 1.171875zm6.13945 1.953125l-0.21875 -1.015625l-0.046875 0q-0.53125 0.671875 -1.0625 0.90625q-0.53125 0.234375 -1.328125 0.234375q-1.0625 0 -1.671875 -0.546875q-0.59375 -0.546875 -0.59375 -1.546875q0 -2.15625 3.453125 -2.265625l1.21875 -0.046875l0 -0.4375q0 -0.84375 -0.359375 -1.234375q-0.359375 -0.40625 -1.15625 -0.40625q-0.890625 0 -2.015625 0.546875l-0.34375 -0.828125q0.53125 -0.28125 1.15625 -0.4375q0.640625 -0.171875 1.265625 -0.171875q1.28125 0 1.890625 0.5625q0.609375 0.5625 0.609375 1.8125l0 4.875l-0.796875 0zm-2.4375 -0.765625q1.0 0 1.578125 -0.546875q0.578125 -0.5625 0.578125 -1.546875l0 -0.640625l-1.078125 0.03125q-1.28125 0.046875 -1.859375 0.40625q-0.5625 0.359375 -0.5625 1.109375q0 0.578125 0.34375 0.890625q0.359375 0.296875 1.0 0.296875zm8.318726 0.890625q-1.546875 0 -2.40625 -0.953125q-0.84375 -0.953125 -0.84375 -2.6875q0 -1.796875 0.859375 -2.765625q0.859375 -0.984375 2.453125 -0.984375q0.515625 0 1.03125 0.109375q0.515625 0.109375 0.8125 0.265625l-0.328125 0.921875q-0.359375 -0.15625 -0.796875 -0.25q-0.421875 -0.09375 -0.734375 -0.09375q-2.171875 0 -2.171875 2.78125q0 1.3125 0.515625 2.015625q0.53125 0.703125 1.578125 0.703125q0.890625 0 1.828125 -0.390625l0 0.96875q-0.71875 0.359375 -1.796875 0.359375zm5.7983093 -0.890625q0.28125 0 0.546875 -0.03125q0.265625 -0.046875 0.421875 -0.09375l0 0.828125q-0.171875 0.078125 -0.515625 0.125q-0.34375 0.0625 -0.609375 0.0625q-2.078125 0 -2.078125 -2.171875l0 -4.25l-1.015625 0l0 -0.515625l1.015625 -0.453125l0.453125 -1.515625l0.625 0l0 1.65625l2.078125 0l0 0.828125l-2.078125 0l0 4.203125q0 0.640625 0.3125 0.984375q0.3125 0.34375 0.84375 0.34375zm3.4708252 0.765625l-1.078125 0l0 -7.125l1.078125 0l0 7.125zm-1.171875 -9.0625q0 -0.375 0.1875 -0.546875q0.1875 -0.171875 0.453125 -0.171875q0.265625 0 0.453125 0.171875q0.1875 0.171875 0.1875 0.546875q0 0.359375 -0.1875 0.546875q-0.1875 0.171875 -0.453125 0.171875q-0.265625 0 -0.453125 -0.171875q-0.1875 -0.1875 -0.1875 -0.546875zm9.6210785 5.484375q0 1.75 -0.875 2.734375q-0.875 0.96875 -2.421875 0.96875q-0.953125 0 -1.703125 -0.4375q-0.734375 -0.453125 -1.140625 -1.296875q-0.40625 -0.84375 -0.40625 -1.96875q0 -1.734375 0.875 -2.703125q0.875 -0.984375 2.421875 -0.984375q1.484375 0 2.359375 1.0q0.890625 1.0 0.890625 2.6875zm-5.421875 0q0 1.375 0.546875 2.09375q0.546875 0.703125 1.59375 0.703125q1.0625 0 1.609375 -0.703125q0.5625 -0.71875 0.5625 -2.09375q0 -1.359375 -0.5625 -2.0625q-0.546875 -0.703125 -1.609375 -0.703125q-1.0625 0 -1.609375 0.703125q-0.53125 0.6875 -0.53125 2.0625zm12.206497 3.578125l0 -4.609375q0 -0.875 -0.40625 -1.296875q-0.390625 -0.4375 -1.234375 -0.4375q-1.125 0 -1.65625 0.609375q-0.515625 0.59375 -0.515625 2.0l0 3.734375l-1.078125 0l0 -7.125l0.890625 0l0.171875 0.96875l0.046875 0q0.328125 -0.53125 0.921875 -0.8125q0.609375 -0.296875 1.34375 -0.296875q1.296875 0 1.9375 0.625q0.65625 0.625 0.65625 1.984375l0 4.65625l-1.078125 0z" fill-rule="nonzero"/><path fill="#000000" d="m163.11456 72.07822l-1.078125 0l0 -7.125l1.078125 0l0 7.125zm-1.171875 -9.062504q0 -0.375 0.1875 -0.546875q0.1875 -0.171875 0.453125 -0.171875q0.265625 0 0.453125 0.171875q0.1875 0.171875 0.1875 0.546875q0 0.359375 -0.1875 0.546875q-0.1875 0.171875 -0.453125 0.171875q-0.265625 0 -0.453125 -0.171875q-0.1875 -0.1875 -0.1875 -0.546875zm8.3554535 9.062504l0 -4.609375q0 -0.875 -0.40625 -1.296875q-0.390625 -0.4375 -1.234375 -0.4375q-1.125 0 -1.65625 0.609375q-0.515625 0.59375 -0.515625 2.0l0 3.734375l-1.078125 0l0 -7.125l0.890625 0l0.171875 0.96875l0.046875 0q0.328125 -0.53125 0.921875 -0.8125q0.609375 -0.296875 1.34375 -0.296875q1.296875 0 1.9375 0.625q0.65625 0.625 0.65625 1.984375l0 4.65625l-1.078125 0zm7.8991547 -1.953125q0 1.0 -0.75 1.546875q-0.734375 0.53125 -2.078125 0.53125q-1.421875 0 -2.21875 -0.4375l0 -1.015625q0.515625 0.265625 1.109375 0.421875q0.59375 0.140625 1.140625 0.140625q0.84375 0 1.296875 -0.265625q0.453125 -0.265625 0.453125 -0.828125q0 -0.40625 -0.359375 -0.703125q-0.359375 -0.296875 -1.40625 -0.703125q-1.0 -0.375 -1.421875 -0.640625q-0.421875 -0.28125 -0.625 -0.625q-0.203125 -0.359375 -0.203125 -0.84375q0 -0.875 0.703125 -1.375q0.71875 -0.515625 1.953125 -0.515625q1.15625 0 2.25 0.46875l-0.375 0.875q-1.078125 -0.4375 -1.953125 -0.4375q-0.765625 0 -1.15625 0.25q-0.390625 0.234375 -0.390625 0.65625q0 0.28125 0.140625 0.484375q0.15625 0.203125 0.46875 0.390625q0.328125 0.171875 1.25 0.53125q1.28125 0.453125 1.71875 0.921875q0.453125 0.46875 0.453125 1.171875zm4.061325 1.1875q0.28125 0 0.546875 -0.03125q0.265625 -0.046875 0.421875 -0.09375l0 0.828125q-0.171875 0.078125 -0.515625 0.125q-0.34375 0.0625 -0.609375 0.0625q-2.078125 0 -2.078125 -2.171875l0 -4.25l-1.015625 0l0 -0.515625l1.015625 -0.453125l0.453125 -1.5156288l0.625 0l0 1.6562538l2.078125 0l0 0.828125l-2.078125 0l0 4.203125q0 0.640625 0.3125 0.984375q0.3125 0.34375 0.84375 0.34375zm5.658325 -6.5q0.46875 0 0.84375 0.078125l-0.140625 1.0q-0.453125 -0.09375 -0.78125 -0.09375q-0.875 0 -1.5 0.703125q-0.609375 0.703125 -0.609375 1.75l0 3.828125l-1.078125 0l0 -7.125l0.890625 0l0.125 1.3125l0.0625 0q0.390625 -0.703125 0.953125 -1.078125q0.5625 -0.375 1.234375 -0.375zm3.1905823 0.140625l0 4.625q0 0.859375 0.390625 1.296875q0.40625 0.421875 1.25 0.421875q1.125 0 1.640625 -0.609375q0.515625 -0.609375 0.515625 -2.0l0 -3.734375l1.078125 0l0 7.125l-0.890625 0l-0.15625 -0.953125l-0.0625 0q-0.328125 0.53125 -0.921875 0.8125q-0.578125 0.265625 -1.34375 0.265625q-1.296875 0 -1.953125 -0.609375q-0.640625 -0.625 -0.640625 -1.984375l0 -4.65625l1.09375 0zm10.024155 7.25q-1.546875 0 -2.40625 -0.953125q-0.84375 -0.953125 -0.84375 -2.6875q0 -1.796875 0.859375 -2.765625q0.859375 -0.984375 2.453125 -0.984375q0.515625 0 1.03125 0.109375q0.515625 0.109375 0.8125 0.265625l-0.328125 0.921875q-0.359375 -0.15625 -0.796875 -0.25q-0.421875 -0.09375 -0.734375 -0.09375q-2.171875 0 -2.171875 2.78125q0 1.3125 0.515625 2.015625q0.53125 0.703125 1.578125 0.703125q0.890625 0 1.828125 -0.390625l0 0.96875q-0.71875 0.359375 -1.796875 0.359375zm5.7983093 -0.890625q0.28125 0 0.546875 -0.03125q0.265625 -0.046875 0.421875 -0.09375l0 0.828125q-0.171875 0.078125 -0.515625 0.125q-0.34375 0.0625 -0.609375 0.0625q-2.078125 0 -2.078125 -2.171875l0 -4.25l-1.015625 0l0 -0.515625l1.015625 -0.453125l0.453125 -1.5156288l0.625 0l0 1.6562538l2.078125 0l0 0.828125l-2.078125 0l0 4.203125q0 0.640625 0.3125 0.984375q0.3125 0.34375 0.84375 0.34375zm3.4708252 0.765625l-1.078125 0l0 -7.125l1.078125 0l0 7.125zm-1.171875 -9.062504q0 -0.375 0.1875 -0.546875q0.1875 -0.171875 0.453125 -0.171875q0.265625 0 0.453125 0.171875q0.1875 0.171875 0.1875 0.546875q0 0.359375 -0.1875 0.546875q-0.1875 0.171875 -0.453125 0.171875q-0.265625 0 -0.453125 -0.171875q-0.1875 -0.1875 -0.1875 -0.546875zm9.6210785 5.484379q0 1.75 -0.875 2.734375q-0.875 0.96875 -2.421875 0.96875q-0.953125 0 -1.703125 -0.4375q-0.734375 -0.453125 -1.140625 -1.296875q-0.40625 -0.84375 -0.40625 -1.96875q0 -1.734375 0.875 -2.703125q0.875 -0.984375 2.421875 -0.984375q1.484375 0 2.359375 1.0q0.890625 1.0 0.890625 2.6875zm-5.421875 0q0 1.375 0.546875 2.09375q0.546875 0.703125 1.59375 0.703125q1.0625 0 1.609375 -0.703125q0.5625 -0.71875 0.5625 -2.09375q0 -1.359375 -0.5625 -2.0625q-0.546875 -0.703125 -1.609375 -0.703125q-1.0625 0 -1.609375 0.703125q-0.53125 0.6875 -0.53125 2.0625zm12.206497 3.578125l0 -4.609375q0 -0.875 -0.40625 -1.296875q-0.390625 -0.4375 -1.234375 -0.4375q-1.125 0 -1.65625 0.609375q-0.515625 0.59375 -0.515625 2.0l0 3.734375l-1.078125 0l0 -7.125l0.890625 0l0.171875 0.96875l0.046875 0q0.328125 -0.53125 0.921875 -0.8125q0.609375 -0.296875 1.34375 -0.296875q1.296875 0 1.9375 0.625q0.65625 0.625 0.65625 1.984375l0 4.65625l-1.078125 0zm7.8991547 -1.953125q0 1.0 -0.75 1.546875q-0.734375 0.53125 -2.078125 0.53125q-1.421875 0 -2.21875 -0.4375l0 -1.015625q0.515625 0.265625 1.109375 0.421875q0.59375 0.140625 1.140625 0.140625q0.84375 0 1.296875 -0.265625q0.453125 -0.265625 0.453125 -0.828125q0 -0.40625 -0.359375 -0.703125q-0.359375 -0.296875 -1.40625 -0.703125q-1.0 -0.375 -1.421875 -0.640625q-0.421875 -0.28125 -0.625 -0.625q-0.203125 -0.359375 -0.203125 -0.84375q0 -0.875 0.703125 -1.375q0.71875 -0.515625 1.953125 -0.515625q1.15625 0 2.25 0.46875l-0.375 0.875q-1.078125 -0.4375 -1.953125 -0.4375q-0.765625 0 -1.15625 0.25q-0.390625 0.234375 -0.390625 0.65625q0 0.28125 0.140625 0.484375q0.15625 0.203125 0.46875 0.390625q0.328125 0.171875 1.25 0.53125q1.28125 0.453125 1.71875 0.921875q0.453125 0.46875 0.453125 1.171875zm8.320389 -3.1875l2.6875 0l0 0.890625l-2.6875 0l0 2.765625l-0.90625 0l0 -2.765625l-2.671875 0l0 -0.890625l2.671875 0l0 -2.796875l0.90625 0l0 2.796875z" fill-rule="nonzero"/><path fill="#000000" d="m177.5823 86.12509q0 1.0 -0.75 1.546875q-0.734375 0.53125 -2.078125 0.53125q-1.421875 0 -2.21875 -0.4375l0 -1.015625q0.515625 0.265625 1.109375 0.421875q0.59375 0.140625 1.140625 0.140625q0.84375 0 1.296875 -0.265625q0.453125 -0.265625 0.453125 -0.828125q0 -0.40625 -0.359375 -0.703125q-0.359375 -0.296875 -1.40625 -0.703125q-1.0 -0.375 -1.421875 -0.640625q-0.421875 -0.28125 -0.625 -0.625q-0.203125 -0.359375 -0.203125 -0.84375q0 -0.875 0.703125 -1.375q0.71875 -0.515625 1.953125 -0.515625q1.15625 0 2.25 0.46875l-0.375 0.875q-1.078125 -0.4375 -1.953125 -0.4375q-0.765625 0 -1.15625 0.25q-0.390625 0.234375 -0.390625 0.65625q0 0.28125 0.140625 0.484375q0.15625 0.203125 0.46875 0.390625q0.328125 0.171875 1.25 0.53125q1.28125 0.453125 1.71875 0.921875q0.453125 0.46875 0.453125 1.171875zm4.76445 2.078125q-1.578125 0 -2.5 -0.953125q-0.90625 -0.96875 -0.90625 -2.671875q0 -1.734375 0.84375 -2.75q0.859375 -1.015625 2.28125 -1.015625q1.34375 0 2.125 0.890625q0.78125 0.875 0.78125 2.328125l0 0.671875l-4.90625 0q0.03125 1.265625 0.625 1.921875q0.609375 0.640625 1.703125 0.640625q1.140625 0 2.265625 -0.484375l0 0.96875q-0.5625 0.25 -1.078125 0.34375q-0.515625 0.109375 -1.234375 0.109375zm-0.296875 -6.484375q-0.859375 0 -1.375 0.5625q-0.5 0.5625 -0.59375 1.546875l3.734375 0q0 -1.015625 -0.453125 -1.5625q-0.453125 -0.546875 -1.3125 -0.546875zm7.6181793 6.484375q-1.546875 0 -2.40625 -0.953125q-0.84375 -0.953125 -0.84375 -2.6875q0 -1.796875 0.859375 -2.765625q0.859375 -0.984375 2.453125 -0.984375q0.515625 0 1.03125 0.109375q0.515625 0.109375 0.8125 0.265625l-0.328125 0.921875q-0.359375 -0.15625 -0.796875 -0.25q-0.421875 -0.09375 -0.734375 -0.09375q-2.171875 0 -2.171875 2.78125q0 1.3125 0.515625 2.015625q0.53125 0.703125 1.578125 0.703125q0.890625 0 1.828125 -0.390625l0 0.96875q-0.71875 0.359375 -1.796875 0.359375zm6.7514343 -7.390625q0.46875 0 0.84375 0.078125l-0.140625 1.0q-0.453125 -0.09375 -0.78125 -0.09375q-0.875 0 -1.5 0.703125q-0.609375 0.703125 -0.609375 1.75l0 3.828125l-1.078125 0l0 -7.125l0.890625 0l0.125 1.3125l0.0625 0q0.390625 -0.703125 0.953125 -1.078125q0.5625 -0.375 1.234375 -0.375zm5.1905823 7.390625q-1.578125 0 -2.5 -0.953125q-0.90625 -0.96875 -0.90625 -2.671875q0 -1.734375 0.84375 -2.75q0.859375 -1.015625 2.28125 -1.015625q1.34375 0 2.125 0.890625q0.78125 0.875 0.78125 2.328125l0 0.671875l-4.90625 0q0.03125 1.265625 0.625 1.921875q0.609375 0.640625 1.703125 0.640625q1.140625 0 2.265625 -0.484375l0 0.96875q-0.5625 0.25 -1.078125 0.34375q-0.515625 0.109375 -1.234375 0.109375zm-0.296875 -6.484375q-0.859375 0 -1.375 0.5625q-0.5 0.5625 -0.59375 1.546875l3.734375 0q0 -1.015625 -0.453125 -1.5625q-0.453125 -0.546875 -1.3125 -0.546875zm7.0713043 5.59375q0.28125 0 0.546875 -0.03125q0.265625 -0.046875 0.421875 -0.09375l0 0.828125q-0.171875 0.078125 -0.515625 0.125q-0.34375 0.0625 -0.609375 0.0625q-2.078125 0 -2.078125 -2.171875l0 -4.25l-1.015625 0l0 -0.515625l1.015625 -0.453125l0.453125 -1.515625l0.625 0l0 1.65625l2.078125 0l0 0.828125l-2.078125 0l0 4.203125q0 0.640625 0.3125 0.984375q0.3125 0.34375 0.84375 0.34375zm6.933014 -2.890625q0.28125 -0.390625 0.84375 -1.03125l2.3125 -2.4375l1.28125 0l-2.890625 3.03125l3.09375 4.09375l-1.3125 0l-2.515625 -3.375l-0.8125 0.703125l0 2.671875l-1.078125 0l0 -10.125l1.078125 0l0 5.375q0 0.34375 -0.0625 1.09375l0.0625 0zm8.933472 3.78125q-1.578125 0 -2.5 -0.953125q-0.90625 -0.96875 -0.90625 -2.671875q0 -1.734375 0.84375 -2.75q0.859375 -1.015625 2.28125 -1.015625q1.34375 0 2.125 0.890625q0.78125 0.875 0.78125 2.328125l0 0.671875l-4.90625 0q0.03125 1.265625 0.625 1.921875q0.609375 0.640625 1.703125 0.640625q1.140625 0 2.265625 -0.484375l0 0.96875q-0.5625 0.25 -1.078125 0.34375q-0.515625 0.109375 -1.234375 0.109375zm-0.296875 -6.484375q-0.859375 0 -1.375 0.5625q-0.5 0.5625 -0.59375 1.546875l3.734375 0q0 -1.015625 -0.453125 -1.5625q-0.453125 -0.546875 -1.3125 -0.546875zm3.6338043 -0.765625l1.15625 0l1.5625 4.0625q0.515625 1.390625 0.640625 2.015625l0.046875 0q0.078125 -0.34375 0.34375 -1.140625q0.28125 -0.8125 1.78125 -4.9375l1.15625 0l-3.0625 8.109375q-0.453125 1.203125 -1.0625 1.703125q-0.609375 0.515625 -1.5 0.515625q-0.5 0 -0.96875 -0.109375l0 -0.875q0.359375 0.078125 0.796875 0.078125q1.109375 0 1.59375 -1.25l0.390625 -1.015625l-2.875 -7.15625z" fill-rule="nonzero"/><path fill="#000000" fill-opacity="0.0" d="m94.979004 173.38846l186.86615 0l0 33.952744l-186.86615 0z" fill-rule="evenodd"/><path fill="#000000" d="m137.13344 184.69908l3.46875 -6.65625l1.984375 0l-4.578125 8.3125l0 4.953125l-1.75 0l0 -4.953125l-4.5625 -8.3125l2.0 0l3.4375 6.65625zm5.8622284 1.59375q0 -1.453125 0.5625 -2.609375q0.578125 -1.15625 1.59375 -1.78125q1.015625 -0.625 2.3125 -0.625q2.015625 0 3.25 1.390625q1.25 1.390625 1.25 3.703125l0 0.125q0 1.4375 -0.546875 2.578125q-0.546875 1.140625 -1.578125 1.78125q-1.015625 0.640625 -2.359375 0.640625q-2.0 0 -3.25 -1.390625q-1.234375 -1.40625 -1.234375 -3.703125l0 -0.109375zm1.6875 0.203125q0 1.640625 0.765625 2.640625q0.765625 0.984375 2.03125 0.984375q1.296875 0 2.046875 -1.0q0.75 -1.015625 0.75 -2.828125q0 -1.625 -0.765625 -2.625q-0.765625 -1.015625 -2.046875 -1.015625q-1.25 0 -2.015625 1.0q-0.765625 0.984375 -0.765625 2.84375zm15.483643 3.84375q-0.984375 1.15625 -2.890625 1.15625q-1.578125 0 -2.40625 -0.921875q-0.8125 -0.921875 -0.828125 -2.703125l0 -6.421875l1.6875 0l0 6.375q0 2.234375 1.828125 2.234375q1.921875 0 2.5625 -1.4375l0 -7.171875l1.6875 0l0 9.859375l-1.609375 0l-0.03125 -0.96875zm8.972122 -7.375q-0.390625 -0.0625 -0.84375 -0.0625q-1.65625 0 -2.25 1.40625l0 7.0l-1.671875 0l0 -9.859375l1.640625 0l0.015625 1.140625q0.828125 -1.3125 2.359375 -1.3125q0.484375 0 0.75 0.125l0 1.5625zm7.7438965 -1.515625l0.046875 1.09375q1.078125 -1.265625 2.921875 -1.265625q2.0625 0 2.8125 1.578125q0.5 -0.71875 1.28125 -1.140625q0.796875 -0.4375 1.859375 -0.4375q3.25 0 3.296875 3.421875l0 6.609375l-1.671875 0l0 -6.5q0 -1.0625 -0.484375 -1.578125q-0.484375 -0.53125 -1.625 -0.53125q-0.9375 0 -1.5625 0.5625q-0.609375 0.5625 -0.71875 1.5l0 6.546875l-1.6875 0l0 -6.453125q0 -2.15625 -2.109375 -2.15625q-1.65625 0 -2.265625 1.40625l0 7.203125l-1.6875 0l0 -9.859375l1.59375 0zm20.851547 9.859375q-0.140625 -0.296875 -0.234375 -1.03125q-1.171875 1.21875 -2.8125 1.21875q-1.453125 0 -2.390625 -0.828125q-0.921875 -0.828125 -0.921875 -2.09375q0 -1.53125 1.15625 -2.375q1.171875 -0.859375 3.296875 -0.859375l1.640625 0l0 -0.78125q0 -0.890625 -0.53125 -1.40625q-0.515625 -0.53125 -1.546875 -0.53125q-0.90625 0 -1.515625 0.46875q-0.609375 0.453125 -0.609375 1.09375l-1.703125 0q0 -0.734375 0.515625 -1.421875q0.53125 -0.6875 1.421875 -1.078125q0.90625 -0.40625 1.984375 -0.40625q1.703125 0 2.671875 0.859375q0.96875 0.84375 1.0 2.328125l0 4.53125q0 1.359375 0.34375 2.171875l0 0.140625l-1.765625 0zm-2.796875 -1.28125q0.796875 0 1.5 -0.40625q0.71875 -0.421875 1.03125 -1.078125l0 -2.015625l-1.3125 0q-3.109375 0 -3.109375 1.8125q0 0.796875 0.53125 1.25q0.53125 0.4375 1.359375 0.4375zm10.819855 0.09375q0.890625 0 1.5625 -0.546875q0.6875 -0.546875 0.75 -1.375l1.59375 0q-0.046875 0.84375 -0.578125 1.609375q-0.53125 0.765625 -1.4375 1.234375q-0.890625 0.453125 -1.890625 0.453125q-2.015625 0 -3.203125 -1.34375q-1.1875 -1.34375 -1.1875 -3.6875l0 -0.28125q0 -1.4375 0.515625 -2.546875q0.53125 -1.125 1.515625 -1.734375q1.0 -0.625 2.34375 -0.625q1.65625 0 2.75 1.0q1.109375 0.984375 1.171875 2.5625l-1.59375 0q-0.0625 -0.953125 -0.71875 -1.5625q-0.65625 -0.625 -1.609375 -0.625q-1.28125 0 -2.0 0.921875q-0.703125 0.921875 -0.703125 2.671875l0 0.328125q0 1.703125 0.703125 2.625q0.703125 0.921875 2.015625 0.921875zm7.484131 -7.46875q1.125 -1.375 2.921875 -1.375q3.125 0 3.15625 3.515625l0 6.515625l-1.6875 0l0 -6.515625q-0.015625 -1.078125 -0.5 -1.578125q-0.46875 -0.515625 -1.484375 -0.515625q-0.8125 0 -1.4375 0.4375q-0.609375 0.4375 -0.96875 1.15625l0 7.015625l-1.671875 0l0 -14.0l1.671875 0l0 5.34375zm10.431763 8.65625l-1.6875 0l0 -9.859375l1.6875 0l0 9.859375zm-1.828125 -12.46875q0 -0.40625 0.25 -0.6875q0.25 -0.296875 0.734375 -0.296875q0.5 0 0.75 0.296875q0.265625 0.28125 0.265625 0.6875q0 0.40625 -0.265625 0.6875q-0.25 0.265625 -0.75 0.265625q-0.484375 0 -0.734375 -0.265625q-0.25 -0.28125 -0.25 -0.6875zm6.12117 2.609375l0.046875 1.234375q1.125 -1.40625 2.953125 -1.40625q3.125 0 3.15625 3.515625l0 6.515625l-1.6875 0l0 -6.515625q-0.015625 -1.078125 -0.5 -1.578125q-0.46875 -0.515625 -1.484375 -0.515625q-0.8125 0 -1.4375 0.4375q-0.609375 0.4375 -0.96875 1.15625l0 7.015625l-1.671875 0l0 -9.859375l1.59375 0zm12.778107 10.046875q-2.0 0 -3.265625 -1.3125q-1.25 -1.328125 -1.25 -3.53125l0 -0.3125q0 -1.46875 0.5625 -2.609375q0.5625 -1.15625 1.5625 -1.796875q1.015625 -0.65625 2.1875 -0.65625q1.921875 0 2.984375 1.265625q1.0625 1.265625 1.0625 3.625l0 0.6875l-6.671875 0q0.03125 1.46875 0.84375 2.375q0.828125 0.890625 2.078125 0.890625q0.890625 0 1.515625 -0.359375q0.625 -0.375 1.078125 -0.96875l1.03125 0.796875q-1.234375 1.90625 -3.71875 1.90625zm-0.203125 -8.84375q-1.015625 0 -1.71875 0.75q-0.6875 0.734375 -0.84375 2.078125l4.9375 0l0 -0.125q-0.078125 -1.28125 -0.703125 -1.984375q-0.609375 -0.71875 -1.671875 -0.71875z" fill-rule="nonzero"/><path fill="#000000" fill-opacity="0.0" d="m480.18164 61.948555l186.86615 0l0 33.95276l-186.86615 0z" fill-rule="evenodd"/><path fill="#000000" d="m545.07135 79.86855l-1.75 0l0 -13.265625l1.75 0l0 13.265625zm4.5270996 -9.859375l0.046875 1.234375q1.125 -1.40625 2.953125 -1.40625q3.125 0 3.15625 3.515625l0 6.515625l-1.6875 0l0 -6.515625q-0.015625 -1.078125 -0.5 -1.578125q-0.46875 -0.515625 -1.484375 -0.515625q-0.8125 0 -1.4375 0.4375q-0.609375 0.4375 -0.96875 1.15625l0 7.015625l-1.671875 0l0 -9.859375l1.59375 0zm10.981262 -2.390625l0 2.390625l1.84375 0l0 1.3125l-1.84375 0l0 6.109375q0 0.59375 0.234375 0.890625q0.25 0.296875 0.84375 0.296875q0.296875 0 0.8125 -0.109375l0 1.359375q-0.671875 0.1875 -1.296875 0.1875q-1.125 0 -1.703125 -0.6875q-0.578125 -0.6875 -0.578125 -1.9375l0 -6.109375l-1.796875 0l0 -1.3125l1.796875 0l0 -2.390625l1.6875 0zm7.8911133 12.4375q-2.0 0 -3.265625 -1.3125q-1.25 -1.328125 -1.25 -3.53125l0 -0.3125q0 -1.46875 0.5625 -2.609375q0.5625 -1.15625 1.5625 -1.796875q1.015625 -0.65625 2.1875 -0.65625q1.921875 0 2.984375 1.265625q1.0625 1.265625 1.0625 3.625l0 0.6875l-6.671875 0q0.03125 1.46875 0.84375 2.375q0.828125 0.890625 2.078125 0.890625q0.890625 0 1.515625 -0.359375q0.625 -0.375 1.078125 -0.96875l1.03125 0.796875q-1.234375 1.90625 -3.71875 1.90625zm-0.203125 -8.84375q-1.015625 0 -1.71875 0.75q-0.6875 0.734375 -0.84375 2.078125l4.9375 0l0 -0.125q-0.078125 -1.28125 -0.703125 -1.984375q-0.609375 -0.71875 -1.671875 -0.71875zm10.774414 0.3125q-0.390625 -0.0625 -0.84375 -0.0625q-1.65625 0 -2.25 1.40625l0 7.0l-1.671875 0l0 -9.859375l1.640625 0l0.015625 1.140625q0.828125 -1.3125 2.359375 -1.3125q0.484375 0 0.75 0.125l0 1.5625zm3.1409912 -1.515625l0.046875 1.234375q1.125 -1.40625 2.953125 -1.40625q3.125 0 3.15625 3.515625l0 6.515625l-1.6875 0l0 -6.515625q-0.015625 -1.078125 -0.5 -1.578125q-0.46875 -0.515625 -1.484375 -0.515625q-0.8125 0 -1.4375 0.4375q-0.609375 0.4375 -0.96875 1.15625l0 7.015625l-1.671875 0l0 -9.859375l1.59375 0zm12.778137 10.046875q-2.0 0 -3.265625 -1.3125q-1.25 -1.328125 -1.25 -3.53125l0 -0.3125q0 -1.46875 0.5625 -2.609375q0.5625 -1.15625 1.5625 -1.796875q1.015625 -0.65625 2.1875 -0.65625q1.921875 0 2.984375 1.265625q1.0625 1.265625 1.0625 3.625l0 0.6875l-6.671875 0q0.03125 1.46875 0.84375 2.375q0.828125 0.890625 2.078125 0.890625q0.890625 0 1.515625 -0.359375q0.625 -0.375 1.078125 -0.96875l1.03125 0.796875q-1.234375 1.90625 -3.71875 1.90625zm-0.203125 -8.84375q-1.015625 0 -1.71875 0.75q-0.6875 0.734375 -0.84375 2.078125l4.9375 0l0 -0.125q-0.078125 -1.28125 -0.703125 -1.984375q-0.609375 -0.71875 -1.671875 -0.71875zm8.290039 -3.59375l0 2.390625l1.84375 0l0 1.3125l-1.84375 0l0 6.109375q0 0.59375 0.234375 0.890625q0.25 0.296875 0.84375 0.296875q0.296875 0 0.8125 -0.109375l0 1.359375q-0.671875 0.1875 -1.296875 0.1875q-1.125 0 -1.703125 -0.6875q-0.578125 -0.6875 -0.578125 -1.9375l0 -6.109375l-1.796875 0l0 -1.3125l1.796875 0l0 -2.390625l1.6875 0z" fill-rule="nonzero"/><path fill="#00aae4" d="m265.01968 54.472443l88.99475 0l0 84.46719l-88.99475 0z" fill-rule="evenodd"/><path fill="#000000" fill-opacity="0.0" d="m276.14404 54.472443l0 84.46719m66.74606 -84.46719l0 84.46719" fill-rule="evenodd"/><path fill="#000000" fill-opacity="0.0" d="m265.01968 54.472443l88.99475 0l0 84.46719l-88.99475 0z" fill-rule="evenodd"/><path stroke="#23282f" stroke-width="1.0" stroke-linejoin="round" stroke-linecap="butt" d="m276.14404 54.472443l0 84.46719m66.74606 -84.46719l0 84.46719" fill-rule="evenodd"/><path stroke="#23282f" stroke-width="1.0" stroke-linejoin="round" stroke-linecap="butt" d="m265.01968 54.472443l88.99475 0l0 84.46719l-88.99475 0z" fill-rule="evenodd"/><path fill="#ffffff" d="m287.50342 84.49041l4.484375 0l0 1.015625l-5.75 0l0 -9.46875l1.265625 0l0 8.453125zm5.4060364 -2.5625q0 -1.046875 0.40625 -1.875q0.40625 -0.828125 1.125 -1.265625q0.734375 -0.453125 1.65625 -0.453125q1.4375 0 2.328125 1.0q0.890625 0.984375 0.890625 2.640625l0 0.09375q0 1.015625 -0.390625 1.84375q-0.390625 0.8125 -1.125 1.265625q-0.734375 0.453125 -1.6875 0.453125q-1.421875 0 -2.3125 -0.984375q-0.890625 -1.0 -0.890625 -2.640625l0 -0.078125zm1.203125 0.140625q0 1.171875 0.546875 1.875q0.546875 0.703125 1.453125 0.703125q0.921875 0 1.453125 -0.71875q0.546875 -0.71875 0.546875 -2.0q0 -1.171875 -0.546875 -1.890625q-0.546875 -0.71875 -1.46875 -0.71875q-0.890625 0 -1.4375 0.71875q-0.546875 0.703125 -0.546875 2.03125zm9.538696 2.578125q0.640625 0 1.125 -0.390625q0.484375 -0.390625 0.53125 -0.96875l1.140625 0q-0.03125 0.609375 -0.421875 1.15625q-0.375 0.546875 -1.015625 0.875q-0.640625 0.3125 -1.359375 0.3125q-1.4375 0 -2.296875 -0.953125q-0.84375 -0.96875 -0.84375 -2.625l0 -0.203125q0 -1.03125 0.375 -1.828125q0.390625 -0.796875 1.09375 -1.234375q0.703125 -0.453125 1.671875 -0.453125q1.171875 0 1.953125 0.71875q0.796875 0.703125 0.84375 1.828125l-1.140625 0q-0.046875 -0.671875 -0.515625 -1.109375q-0.46875 -0.453125 -1.140625 -0.453125q-0.921875 0 -1.4375 0.671875q-0.5 0.65625 -0.5 1.90625l0 0.21875q0 1.21875 0.5 1.875q0.515625 0.65625 1.4375 0.65625zm8.50769 0.859375q-0.109375 -0.203125 -0.171875 -0.734375q-0.84375 0.859375 -2.015625 0.859375q-1.03125 0 -1.703125 -0.578125q-0.671875 -0.59375 -0.671875 -1.5q0 -1.09375 0.828125 -1.703125q0.84375 -0.609375 2.359375 -0.609375l1.171875 0l0 -0.5625q0 -0.625 -0.375 -1.0q-0.375 -0.375 -1.109375 -0.375q-0.640625 0 -1.078125 0.328125q-0.4375 0.328125 -0.4375 0.78125l-1.203125 0q0 -0.515625 0.359375 -1.0q0.375 -0.5 1.015625 -0.78125q0.65625 -0.296875 1.421875 -0.296875q1.21875 0 1.90625 0.609375q0.6875 0.609375 0.71875 1.671875l0 3.25q0 0.96875 0.234375 1.53125l0 0.109375l-1.25 0zm-2.0 -0.921875q0.5625 0 1.0625 -0.28125q0.515625 -0.296875 0.734375 -0.765625l0 -1.453125l-0.9375 0q-2.21875 0 -2.21875 1.296875q0 0.5625 0.375 0.890625q0.390625 0.3125 0.984375 0.3125zm6.2029114 0.921875l-1.203125 0l0 -10.0l1.203125 0l0 10.0z" fill-rule="nonzero"/><path fill="#ffffff" d="m290.15967 99.631035q0 -0.484375 -0.375 -0.75q-0.359375 -0.265625 -1.28125 -0.453125q-0.90625 -0.203125 -1.453125 -0.46875q-0.53125 -0.28125 -0.796875 -0.65625q-0.25 -0.390625 -0.25 -0.90625q0 -0.859375 0.734375 -1.453125q0.734375 -0.609375 1.875 -0.609375q1.1875 0 1.9375 0.625q0.75 0.609375 0.75 1.578125l-1.21875 0q0 -0.5 -0.421875 -0.859375q-0.421875 -0.359375 -1.046875 -0.359375q-0.65625 0 -1.03125 0.296875q-0.375 0.28125 -0.375 0.75q0 0.421875 0.34375 0.65625q0.34375 0.21875 1.25 0.421875q0.90625 0.203125 1.453125 0.484375q0.5625 0.265625 0.828125 0.671875q0.28125 0.390625 0.28125 0.953125q0 0.9375 -0.765625 1.515625q-0.75 0.5625 -1.953125 0.5625q-0.84375 0 -1.5 -0.296875q-0.640625 -0.296875 -1.015625 -0.828125q-0.359375 -0.546875 -0.359375 -1.171875l1.203125 0q0.03125 0.609375 0.484375 0.96875q0.453125 0.34375 1.1875 0.34375q0.6875 0 1.09375 -0.265625q0.421875 -0.28125 0.421875 -0.75zm4.0754395 1.875l-1.203125 0l0 -7.046875l1.203125 0l0 7.046875zm-1.296875 -8.90625q0 -0.296875 0.171875 -0.5q0.1875 -0.203125 0.53125 -0.203125q0.359375 0 0.53125 0.203125q0.1875 0.203125 0.1875 0.5q0 0.296875 -0.1875 0.5q-0.171875 0.1875 -0.53125 0.1875q-0.34375 0 -0.53125 -0.1875q-0.171875 -0.203125 -0.171875 -0.5zm2.9375305 5.328125q0 -1.640625 0.75 -2.609375q0.765625 -0.984375 2.03125 -0.984375q1.28125 0 2.015625 0.90625l0.046875 -0.78125l1.109375 0l0 6.875q0 1.375 -0.8125 2.15625q-0.8125 0.78125 -2.1875 0.78125q-0.75 0 -1.484375 -0.328125q-0.734375 -0.3125 -1.109375 -0.875l0.625 -0.734375q0.765625 0.96875 1.890625 0.96875q0.875 0 1.359375 -0.5q0.5 -0.5 0.5 -1.390625l0 -0.609375q-0.71875 0.828125 -1.96875 0.828125q-1.234375 0 -2.0 -0.984375q-0.765625 -1.0 -0.765625 -2.71875zm1.203125 0.140625q0 1.1875 0.484375 1.875q0.5 0.671875 1.375 0.671875q1.140625 0 1.671875 -1.03125l0 -3.21875q-0.546875 -1.015625 -1.65625 -1.015625q-0.875 0 -1.375 0.6875q-0.5 0.6875 -0.5 2.03125zm7.6963196 -3.609375l0.046875 0.890625q0.796875 -1.015625 2.109375 -1.015625q2.234375 0 2.25 2.515625l0 4.65625l-1.203125 0l0 -4.65625q-0.015625 -0.765625 -0.359375 -1.125q-0.328125 -0.375 -1.0625 -0.375q-0.578125 0 -1.03125 0.3125q-0.4375 0.3125 -0.6875 0.828125l0 5.015625l-1.203125 0l0 -7.046875l1.140625 0zm7.525757 7.046875l-1.203125 0l0 -7.046875l1.203125 0l0 7.046875zm-1.296875 -8.90625q0 -0.296875 0.171875 -0.5q0.1875 -0.203125 0.53125 -0.203125q0.359375 0 0.53125 0.203125q0.1875 0.203125 0.1875 0.5q0 0.296875 -0.1875 0.5q-0.171875 0.1875 -0.53125 0.1875q-0.34375 0 -0.53125 -0.1875q-0.171875 -0.203125 -0.171875 -0.5zm4.359436 1.859375l0.046875 0.890625q0.796875 -1.015625 2.109375 -1.015625q2.234375 0 2.25 2.515625l0 4.65625l-1.203125 0l0 -4.65625q-0.015625 -0.765625 -0.359375 -1.125q-0.328125 -0.375 -1.0625 -0.375q-0.578125 0 -1.03125 0.3125q-0.4375 0.3125 -0.6875 0.828125l0 5.015625l-1.203125 0l0 -7.046875l1.140625 0zm5.932007 3.46875q0 -1.640625 0.75 -2.609375q0.765625 -0.984375 2.03125 -0.984375q1.28125 0 2.015625 0.90625l0.046875 -0.78125l1.109375 0l0 6.875q0 1.375 -0.8125 2.15625q-0.8125 0.78125 -2.1875 0.78125q-0.75 0 -1.484375 -0.328125q-0.734375 -0.3125 -1.109375 -0.875l0.625 -0.734375q0.765625 0.96875 1.890625 0.96875q0.875 0 1.359375 -0.5q0.5 -0.5 0.5 -1.390625l0 -0.609375q-0.71875 0.828125 -1.96875 0.828125q-1.234375 0 -2.0 -0.984375q-0.765625 -1.0 -0.765625 -2.71875zm1.203125 0.140625q0 1.1875 0.484375 1.875q0.5 0.671875 1.375 0.671875q1.140625 0 1.671875 -1.03125l0 -3.21875q-0.546875 -1.015625 -1.65625 -1.015625q-0.875 0 -1.375 0.6875q-0.5 0.6875 -0.5 2.03125z" fill-rule="nonzero"/><path fill="#ffffff" d="m287.3628 117.506035l-1.203125 0l0 -10.0l1.203125 0l0 10.0zm3.2344055 0l-1.203125 0l0 -7.046875l1.203125 0l0 7.046875zm-1.296875 -8.90625q0 -0.296875 0.171875 -0.5q0.1875 -0.203125 0.53125 -0.203125q0.359375 0 0.53125 0.203125q0.1875 0.203125 0.1875 0.5q0 0.296875 -0.1875 0.5q-0.171875 0.1875 -0.53125 0.1875q-0.34375 0 -0.53125 -0.1875q-0.171875 -0.203125 -0.171875 -0.5zm9.187561 5.46875q0 1.609375 -0.75 2.59375q-0.734375 0.96875 -1.984375 0.96875q-1.328125 0 -2.0625 -0.9375l-0.0625 0.8125l-1.109375 0l0 -10.0l1.203125 0l0 3.734375q0.734375 -0.90625 2.015625 -0.90625q1.28125 0 2.015625 0.96875q0.734375 0.96875 0.734375 2.65625l0 0.109375zm-1.203125 -0.140625q0 -1.234375 -0.484375 -1.90625q-0.46875 -0.671875 -1.359375 -0.671875q-1.1875 0 -1.71875 1.109375l0 3.046875q0.5625 1.109375 1.734375 1.109375q0.859375 0 1.34375 -0.671875q0.484375 -0.671875 0.484375 -2.015625zm6.118164 -2.390625q-0.265625 -0.03125 -0.59375 -0.03125q-1.1875 0 -1.609375 1.0l0 5.0l-1.203125 0l0 -7.046875l1.171875 0l0.03125 0.8125q0.578125 -0.9375 1.671875 -0.9375q0.34375 0 0.53125 0.09375l0 1.109375zm5.202667 5.96875q-0.109375 -0.203125 -0.171875 -0.734375q-0.84375 0.859375 -2.015625 0.859375q-1.03125 0 -1.703125 -0.578125q-0.671875 -0.59375 -0.671875 -1.5q0 -1.09375 0.828125 -1.703125q0.84375 -0.609375 2.359375 -0.609375l1.171875 0l0 -0.5625q0 -0.625 -0.375 -1.0q-0.375 -0.375 -1.109375 -0.375q-0.640625 0 -1.078125 0.328125q-0.4375 0.328125 -0.4375 0.78125l-1.203125 0q0 -0.515625 0.359375 -1.0q0.375 -0.5 1.015625 -0.78125q0.65625 -0.296875 1.421875 -0.296875q1.21875 0 1.90625 0.609375q0.6875 0.609375 0.71875 1.671875l0 3.25q0 0.96875 0.234375 1.53125l0 0.109375l-1.25 0zm-2.0 -0.921875q0.5625 0 1.0625 -0.28125q0.515625 -0.296875 0.734375 -0.765625l0 -1.453125l-0.9375 0q-2.21875 0 -2.21875 1.296875q0 0.5625 0.375 0.890625q0.390625 0.3125 0.984375 0.3125zm8.296661 -5.046875q-0.265625 -0.03125 -0.59375 -0.03125q-1.1875 0 -1.609375 1.0l0 5.0l-1.203125 0l0 -7.046875l1.171875 0l0.03125 0.8125q0.578125 -0.9375 1.671875 -0.9375q0.34375 0 0.53125 0.09375l0 1.109375zm3.5333862 4.203125l1.640625 -5.28125l1.28125 0l-2.828125 8.140633q-0.65625 1.75 -2.09375 1.75l-0.21875 -0.015625l-0.453125 -0.09375l0 -0.96875l0.328125 0.03125q0.609375 0 0.953125 -0.25q0.34375 -0.25 0.5625 -0.9062576l0.265625 -0.71875l-2.515625 -6.96875l1.3125 0l1.765625 5.28125z" fill-rule="nonzero"/><path fill="#000000" fill-opacity="0.0" d="m374.58163 47.548557l89.00787 0l0 48.692913l-89.00787 0z" fill-rule="evenodd"/><path fill="#000000" d="m404.8509 57.817307q0 1.25 -0.90625 1.953125q-0.90625 0.703125 -2.46875 0.703125q-1.703125 0 -2.609375 -0.4375l0 -1.0625q0.59375 0.25 1.28125 0.390625q0.6875 0.140625 1.359375 0.140625q1.109375 0 1.671875 -0.40625q0.5625 -0.421875 0.5625 -1.171875q0 -0.5 -0.203125 -0.8125q-0.203125 -0.3125 -0.671875 -0.578125q-0.453125 -0.28125 -1.40625 -0.609375q-1.328125 -0.484375 -1.90625 -1.125q-0.5625 -0.65625 -0.5625 -1.703125q0 -1.09375 0.828125 -1.75q0.828125 -0.65625 2.1875 -0.65625q1.421875 0 2.609375 0.53125l-0.34375 0.953125q-1.1875 -0.484375 -2.296875 -0.484375q-0.875 0 -1.375 0.375q-0.484375 0.375 -0.484375 1.046875q0 0.5 0.171875 0.8125q0.1875 0.3125 0.609375 0.578125q0.4375 0.265625 1.328125 0.578125q1.5 0.53125 2.0625 1.15625q0.5625 0.609375 0.5625 1.578125zm2.8617249 2.53125l-1.078125 0l0 -7.125l1.078125 0l0 7.125zm-1.171875 -9.0625q0 -0.375 0.1875 -0.546875q0.1875 -0.171875 0.453125 -0.171875q0.265625 0 0.453125 0.171875q0.1875 0.171875 0.1875 0.546875q0 0.359375 -0.1875 0.546875q-0.1875 0.171875 -0.453125 0.171875q-0.265625 0 -0.453125 -0.171875q-0.1875 -0.1875 -0.1875 -0.546875zm9.308563 1.9375l0 0.671875l-1.328125 0.15625q0.1875 0.234375 0.328125 0.609375q0.140625 0.359375 0.140625 0.8125q0 1.0625 -0.71875 1.6875q-0.703125 0.609375 -1.953125 0.609375q-0.328125 0 -0.609375 -0.046875q-0.6875 0.359375 -0.6875 0.921875q0 0.296875 0.234375 0.4375q0.25 0.140625 0.84375 0.140625l1.25 0q1.171875 0 1.78125 0.484375q0.625 0.484375 0.625 1.421875q0 1.171875 -0.953125 1.796875q-0.953125 0.625 -2.765625 0.625q-1.40625 0 -2.171875 -0.53125q-0.75 -0.515625 -0.75 -1.46875q0 -0.640625 0.421875 -1.125q0.421875 -0.46875 1.171875 -0.640625q-0.28125 -0.125 -0.46875 -0.375q-0.171875 -0.265625 -0.171875 -0.609375q0 -0.390625 0.203125 -0.6875q0.203125 -0.296875 0.65625 -0.5625q-0.546875 -0.234375 -0.90625 -0.78125q-0.34375 -0.546875 -0.34375 -1.25q0 -1.171875 0.703125 -1.796875q0.703125 -0.640625 1.984375 -0.640625q0.5625 0 1.015625 0.140625l2.46875 0zm-5.6875 8.328125q0 0.578125 0.484375 0.875q0.484375 0.296875 1.40625 0.296875q1.359375 0 2.0 -0.40625q0.65625 -0.40625 0.65625 -1.109375q0 -0.578125 -0.359375 -0.796875q-0.34375 -0.21875 -1.34375 -0.21875l-1.296875 0q-0.734375 0 -1.140625 0.34375q-0.40625 0.359375 -0.40625 1.015625zm0.578125 -6.046875q0 0.75 0.421875 1.140625q0.4375 0.375 1.1875 0.375q1.578125 0 1.578125 -1.546875q0 -1.59375 -1.59375 -1.59375q-0.765625 0 -1.1875 0.40625q-0.40625 0.40625 -0.40625 1.21875zm11.458099 4.84375l0 -4.609375q0 -0.875 -0.40625 -1.296875q-0.390625 -0.4375 -1.234375 -0.4375q-1.125 0 -1.65625 0.609375q-0.515625 0.59375 -0.515625 2.0l0 3.734375l-1.078125 0l0 -7.125l0.890625 0l0.171875 0.96875l0.046875 0q0.328125 -0.53125 0.921875 -0.8125q0.609375 -0.296875 1.34375 -0.296875q1.296875 0 1.9375 0.625q0.65625 0.625 0.65625 1.984375l0 4.65625l-1.078125 0zm6.3053894 0.125q-1.578125 0 -2.5 -0.953125q-0.90625 -0.96875 -0.90625 -2.671875q0 -1.734375 0.84375 -2.75q0.859375 -1.015625 2.28125 -1.015625q1.34375 0 2.125 0.890625q0.78125 0.875 0.78125 2.328125l0 0.671875l-4.90625 0q0.03125 1.265625 0.625 1.921875q0.609375 0.640625 1.703125 0.640625q1.140625 0 2.265625 -0.484375l0 0.96875q-0.5625 0.25 -1.078125 0.34375q-0.515625 0.109375 -1.234375 0.109375zm-0.296875 -6.484375q-0.859375 0 -1.375 0.5625q-0.5 0.5625 -0.59375 1.546875l3.734375 0q0 -1.015625 -0.453125 -1.5625q-0.453125 -0.546875 -1.3125 -0.546875zm9.618195 5.40625l-0.0625 0q-0.75 1.078125 -2.234375 1.078125q-1.40625 0 -2.1875 -0.953125q-0.765625 -0.953125 -0.765625 -2.71875q0 -1.765625 0.78125 -2.734375q0.78125 -0.984375 2.171875 -0.984375q1.453125 0 2.21875 1.0625l0.09375 0l-0.046875 -0.515625l-0.03125 -0.5l0 -2.90625l1.078125 0l0 10.125l-0.875 0l-0.140625 -0.953125zm-2.15625 0.171875q1.109375 0 1.59375 -0.59375q0.5 -0.609375 0.5 -1.9375l0 -0.234375q0 -1.515625 -0.5 -2.15625q-0.5 -0.65625 -1.609375 -0.65625q-0.953125 0 -1.453125 0.75q-0.5 0.734375 -0.5 2.078125q0 1.359375 0.5 2.0625q0.5 0.6875 1.46875 0.6875z" fill-rule="nonzero"/><path fill="#000000" d="m387.45798 75.58293q0.28125 0 0.546875 -0.03125q0.265625 -0.046875 0.421875 -0.09375l0 0.828125q-0.171875 0.078125 -0.515625 0.125q-0.34375 0.0625 -0.609375 0.0625q-2.078125 0 -2.078125 -2.171875l0 -4.25l-1.015625 0l0 -0.515625l1.015625 -0.453125l0.453125 -1.515625l0.625 0l0 1.65625l2.078125 0l0 0.828125l-2.078125 0l0 4.203125q0 0.640625 0.3125 0.984375q0.3125 0.34375 0.84375 0.34375zm5.658325 -6.5q0.46875 0 0.84375 0.078125l-0.140625 1.0q-0.453125 -0.09375 -0.78125 -0.09375q-0.875 0 -1.5 0.703125q-0.609375 0.703125 -0.609375 1.75l0 3.828125l-1.078125 0l0 -7.125l0.890625 0l0.125 1.3125l0.0625 0q0.390625 -0.703125 0.953125 -1.078125q0.5625 -0.375 1.234375 -0.375zm6.5655823 7.265625l-0.21875 -1.015625l-0.046875 0q-0.53125 0.671875 -1.0625 0.90625q-0.53125 0.234375 -1.328125 0.234375q-1.0625 0 -1.671875 -0.546875q-0.59375 -0.546875 -0.59375 -1.546875q0 -2.15625 3.453125 -2.265625l1.21875 -0.046875l0 -0.4375q0 -0.84375 -0.359375 -1.234375q-0.359375 -0.40625 -1.15625 -0.40625q-0.890625 0 -2.015625 0.546875l-0.34375 -0.828125q0.53125 -0.28125 1.15625 -0.4375q0.640625 -0.171875 1.265625 -0.171875q1.28125 0 1.890625 0.5625q0.609375 0.5625 0.609375 1.8125l0 4.875l-0.796875 0zm-2.4375 -0.765625q1.0 0 1.578125 -0.546875q0.578125 -0.5625 0.578125 -1.546875l0 -0.640625l-1.078125 0.03125q-1.28125 0.046875 -1.859375 0.40625q-0.5625 0.359375 -0.5625 1.109375q0 0.578125 0.34375 0.890625q0.359375 0.296875 1.0 0.296875zm10.349976 0.765625l0 -4.609375q0 -0.875 -0.40625 -1.296875q-0.390625 -0.4375 -1.234375 -0.4375q-1.125 0 -1.65625 0.609375q-0.515625 0.59375 -0.515625 2.0l0 3.734375l-1.078125 0l0 -7.125l0.890625 0l0.171875 0.96875l0.046875 0q0.328125 -0.53125 0.921875 -0.8125q0.609375 -0.296875 1.34375 -0.296875q1.296875 0 1.9375 0.625q0.65625 0.625 0.65625 1.984375l0 4.65625l-1.078125 0zm7.8991394 -1.953125q0 1.0 -0.75 1.546875q-0.734375 0.53125 -2.078125 0.53125q-1.421875 0 -2.21875 -0.4375l0 -1.015625q0.515625 0.265625 1.109375 0.421875q0.59375 0.140625 1.140625 0.140625q0.84375 0 1.296875 -0.265625q0.453125 -0.265625 0.453125 -0.828125q0 -0.40625 -0.359375 -0.703125q-0.359375 -0.296875 -1.40625 -0.703125q-1.0 -0.375 -1.421875 -0.640625q-0.421875 -0.28125 -0.625 -0.625q-0.203125 -0.359375 -0.203125 -0.84375q0 -0.875 0.703125 -1.375q0.71875 -0.515625 1.953125 -0.515625q1.15625 0 2.25 0.46875l-0.375 0.875q-1.078125 -0.4375 -1.953125 -0.4375q-0.765625 0 -1.15625 0.25q-0.390625 0.234375 -0.390625 0.65625q0 0.28125 0.140625 0.484375q0.15625 0.203125 0.46875 0.390625q0.328125 0.171875 1.25 0.53125q1.28125 0.453125 1.71875 0.921875q0.453125 0.46875 0.453125 1.171875zm6.1394653 1.953125l-0.21875 -1.015625l-0.046875 0q-0.53125 0.671875 -1.0625 0.90625q-0.53125 0.234375 -1.328125 0.234375q-1.0625 0 -1.671875 -0.546875q-0.59375 -0.546875 -0.59375 -1.546875q0 -2.15625 3.453125 -2.265625l1.21875 -0.046875l0 -0.4375q0 -0.84375 -0.359375 -1.234375q-0.359375 -0.40625 -1.15625 -0.40625q-0.890625 0 -2.015625 0.546875l-0.34375 -0.828125q0.53125 -0.28125 1.15625 -0.4375q0.640625 -0.171875 1.265625 -0.171875q1.28125 0 1.890625 0.5625q0.609375 0.5625 0.609375 1.8125l0 4.875l-0.796875 0zm-2.4375 -0.765625q1.0 0 1.578125 -0.546875q0.578125 -0.5625 0.578125 -1.546875l0 -0.640625l-1.078125 0.03125q-1.28125 0.046875 -1.859375 0.40625q-0.5625 0.359375 -0.5625 1.109375q0 0.578125 0.34375 0.890625q0.359375 0.296875 1.0 0.296875zm8.318726 0.890625q-1.546875 0 -2.40625 -0.953125q-0.84375 -0.953125 -0.84375 -2.6875q0 -1.796875 0.859375 -2.765625q0.859375 -0.984375 2.453125 -0.984375q0.515625 0 1.03125 0.109375q0.515625 0.109375 0.8125 0.265625l-0.328125 0.921875q-0.359375 -0.15625 -0.796875 -0.25q-0.421875 -0.09375 -0.734375 -0.09375q-2.171875 0 -2.171875 2.78125q0 1.3125 0.515625 2.015625q0.53125 0.703125 1.578125 0.703125q0.890625 0 1.828125 -0.390625l0 0.96875q-0.71875 0.359375 -1.796875 0.359375zm5.7983093 -0.890625q0.28125 0 0.546875 -0.03125q0.265625 -0.046875 0.421875 -0.09375l0 0.828125q-0.171875 0.078125 -0.515625 0.125q-0.34375 0.0625 -0.609375 0.0625q-2.078125 0 -2.078125 -2.171875l0 -4.25l-1.015625 0l0 -0.515625l1.015625 -0.453125l0.453125 -1.515625l0.625 0l0 1.65625l2.078125 0l0 0.828125l-2.078125 0l0 4.203125q0 0.640625 0.3125 0.984375q0.3125 0.34375 0.84375 0.34375zm3.4708252 0.765625l-1.078125 0l0 -7.125l1.078125 0l0 7.125zm-1.171875 -9.0625q0 -0.375 0.1875 -0.546875q0.1875 -0.171875 0.453125 -0.171875q0.265625 0 0.453125 0.171875q0.1875 0.171875 0.1875 0.546875q0 0.359375 -0.1875 0.546875q-0.1875 0.171875 -0.453125 0.171875q-0.265625 0 -0.453125 -0.171875q-0.1875 -0.1875 -0.1875 -0.546875zm9.621063 5.484375q0 1.75 -0.875 2.734375q-0.875 0.96875 -2.421875 0.96875q-0.953125 0 -1.703125 -0.4375q-0.734375 -0.453125 -1.140625 -1.296875q-0.40625 -0.84375 -0.40625 -1.96875q0 -1.734375 0.875 -2.703125q0.875 -0.984375 2.421875 -0.984375q1.484375 0 2.359375 1.0q0.890625 1.0 0.890625 2.6875zm-5.421875 0q0 1.375 0.546875 2.09375q0.546875 0.703125 1.59375 0.703125q1.0625 0 1.609375 -0.703125q0.5625 -0.71875 0.5625 -2.09375q0 -1.359375 -0.5625 -2.0625q-0.546875 -0.703125 -1.609375 -0.703125q-1.0625 0 -1.609375 0.703125q-0.53125 0.6875 -0.53125 2.0625zm12.206512 3.578125l0 -4.609375q0 -0.875 -0.40625 -1.296875q-0.390625 -0.4375 -1.234375 -0.4375q-1.125 0 -1.65625 0.609375q-0.515625 0.59375 -0.515625 2.0l0 3.734375l-1.078125 0l0 -7.125l0.890625 0l0.171875 0.96875l0.046875 0q0.328125 -0.53125 0.921875 -0.8125q0.609375 -0.296875 1.34375 -0.296875q1.296875 0 1.9375 0.625q0.65625 0.625 0.65625 1.984375l0 4.65625l-1.078125 0z" fill-rule="nonzero"/><path fill="#000000" d="m409.67627 85.09856q1.40625 0 2.171875 0.96875q0.78125 0.953125 0.78125 2.703125q0 1.765625 -0.78125 2.734375q-0.78125 0.96875 -2.171875 0.96875q-0.703125 0 -1.28125 -0.25q-0.578125 -0.265625 -0.96875 -0.796875l-0.078125 0l-0.21875 0.921875l-0.78125 0l0 -10.125l1.078125 0l0 2.453125q0 0.828125 -0.046875 1.484375l0.046875 0q0.765625 -1.0625 2.25 -1.0625zm-0.15625 0.90625q-1.109375 0 -1.609375 0.640625q-0.484375 0.625 -0.484375 2.125q0 1.515625 0.5 2.15625q0.515625 0.640625 1.609375 0.640625q1.0 0 1.484375 -0.71875q0.5 -0.71875 0.5 -2.078125q0 -1.40625 -0.5 -2.078125q-0.484375 -0.6875 -1.5 -0.6875zm6.073639 6.34375l-1.078125 0l0 -10.125l1.078125 0l0 10.125zm8.449188 -3.578125q0 1.75 -0.875 2.734375q-0.875 0.96875 -2.421875 0.96875q-0.953125 0 -1.703125 -0.4375q-0.734375 -0.453125 -1.140625 -1.296875q-0.40625 -0.84375 -0.40625 -1.96875q0 -1.734375 0.875 -2.703125q0.875 -0.984375 2.421875 -0.984375q1.484375 0 2.359375 1.0q0.890625 1.0 0.890625 2.6875zm-5.421875 0q0 1.375 0.546875 2.09375q0.546875 0.703125 1.59375 0.703125q1.0625 0 1.609375 -0.703125q0.5625 -0.71875 0.5625 -2.09375q0 -1.359375 -0.5625 -2.0625q-0.546875 -0.703125 -1.609375 -0.703125q-1.0625 0 -1.609375 0.703125q-0.53125 0.6875 -0.53125 2.0625zm10.644012 -3.671875q1.40625 0 2.171875 0.96875q0.78125 0.953125 0.78125 2.703125q0 1.765625 -0.78125 2.734375q-0.78125 0.96875 -2.171875 0.96875q-0.703125 0 -1.28125 -0.25q-0.578125 -0.265625 -0.96875 -0.796875l-0.078125 0l-0.21875 0.921875l-0.78125 0l0 -10.125l1.078125 0l0 2.453125q0 0.828125 -0.046875 1.484375l0.046875 0q0.765625 -1.0625 2.25 -1.0625zm-0.15625 0.90625q-1.109375 0 -1.609375 0.640625q-0.484375 0.625 -0.484375 2.125q0 1.515625 0.5 2.15625q0.515625 0.640625 1.609375 0.640625q1.0 0 1.484375 -0.71875q0.5 -0.71875 0.5 -2.078125q0 -1.40625 -0.5 -2.078125q-0.484375 -0.6875 -1.5 -0.6875z" fill-rule="nonzero"/><path fill="#000000" fill-opacity="0.0" d="m354.01443 96.70604l131.74805 0" fill-rule="evenodd"/><path stroke="#00aae4" stroke-width="2.0" stroke-linejoin="round" stroke-linecap="butt" d="m354.01443 96.70604l119.74805 0" fill-rule="evenodd"/><path fill="#00aae4" stroke="#00aae4" stroke-width="2.0" stroke-linecap="butt" d="m473.76248 100.0095l9.076172 -3.3034592l-9.076172 -3.3034668z" fill-rule="evenodd"/></g></svg>