<svg width="100%" viewBox="0 0 680 220" role="img" xmlns="http://www.w3.org/2000/svg">
  <title>XRP on the blockchain</title>
  <desc>A chain of blocks each containing a transaction, hash, and previous hash, linked together and secured by the XRP ledger.</desc>

  <!-- Block 1 -->
  <rect x="32" y="40" width="124" height="140" rx="4" fill="#141414" stroke="#3A4049" stroke-width="1"/>
  <rect x="32" y="40" width="124" height="3" rx="1" fill="#21E46B"/>
  <text x="94" y="72" text-anchor="middle" fill="#8A919A" font-family="Inter, 'Helvetica Neue', sans-serif" font-size="11">Block</text>
  <text x="94" y="88" text-anchor="middle" fill="#21E46B" font-family="Inter, 'Helvetica Neue', sans-serif" font-size="11" font-weight="600">001</text>
  <line x1="48" y1="98" x2="140" y2="98" stroke="#8A919A" stroke-width="0.5" opacity="0.3"/>
  <text x="48" y="113" fill="#72777E" font-family="Inter, 'Helvetica Neue', sans-serif" font-size="9" font-weight="500">HASH</text>
  <text x="48" y="127" fill="#21E46B" font-family="Inter, 'Helvetica Neue', sans-serif" font-size="9" font-weight="500">a3f9…</text>
  <line x1="48" y1="135" x2="140" y2="135" stroke="#8A919A" stroke-width="0.5" opacity="0.3"/>
  <text x="48" y="150" fill="#72777E" font-family="Inter, 'Helvetica Neue', sans-serif" font-size="9" font-weight="500">PREV HASH</text>
  <text x="48" y="164" fill="#8A919A" font-family="Inter, 'Helvetica Neue', sans-serif" font-size="9" font-weight="500">—</text>

  <circle cx="169" cy="110" r="3" fill="#CAD4DF"/>
  <circle cx="181" cy="110" r="3" fill="#CAD4DF"/>

  <!-- Block 2 -->
  <rect x="194" y="40" width="124" height="140" rx="4" fill="#141414" stroke="#3A4049" stroke-width="1"/>
  <rect x="194" y="40" width="124" height="3" rx="1" fill="#21E46B"/>
  <text x="256" y="72" text-anchor="middle" fill="#8A919A" font-family="Inter, 'Helvetica Neue', sans-serif" font-size="11">Block</text>
  <text x="256" y="88" text-anchor="middle" fill="#21E46B" font-family="Inter, 'Helvetica Neue', sans-serif" font-size="11" font-weight="600">002</text>
  <line x1="210" y1="98" x2="302" y2="98" stroke="#8A919A" stroke-width="0.5" opacity="0.3"/>
  <text x="210" y="113" fill="#72777E" font-family="Inter, 'Helvetica Neue', sans-serif" font-size="9" font-weight="500">HASH</text>
  <text x="210" y="127" fill="#21E46B" font-family="Inter, 'Helvetica Neue', sans-serif" font-size="9" font-weight="500">7c2b…</text>
  <line x1="210" y1="135" x2="302" y2="135" stroke="#8A919A" stroke-width="0.5" opacity="0.3"/>
  <text x="210" y="150" fill="#72777E" font-family="Inter, 'Helvetica Neue', sans-serif" font-size="9" font-weight="500">PREV HASH</text>
  <text x="210" y="164" fill="#21E46B" font-family="Inter, 'Helvetica Neue', sans-serif" font-size="9" font-weight="500">a3f9…</text>

  <circle cx="331" cy="110" r="3" fill="#CAD4DF"/>
  <circle cx="343" cy="110" r="3" fill="#CAD4DF"/>

  <!-- Block 3 -->
  <rect x="356" y="40" width="124" height="140" rx="4" fill="#141414" stroke="#3A4049" stroke-width="1"/>
  <rect x="356" y="40" width="124" height="3" rx="1" fill="#21E46B"/>
  <text x="418" y="72" text-anchor="middle" fill="#8A919A" font-family="Inter, 'Helvetica Neue', sans-serif" font-size="11">Block</text>
  <text x="418" y="88" text-anchor="middle" fill="#21E46B" font-family="Inter, 'Helvetica Neue', sans-serif" font-size="11" font-weight="600">003</text>
  <line x1="372" y1="98" x2="464" y2="98" stroke="#8A919A" stroke-width="0.5" opacity="0.3"/>
  <text x="372" y="113" fill="#72777E" font-family="Inter, 'Helvetica Neue', sans-serif" font-size="9" font-weight="500">HASH</text>
  <text x="372" y="127" fill="#21E46B" font-family="Inter, 'Helvetica Neue', sans-serif" font-size="9" font-weight="500">f1d4…</text>
  <line x1="372" y1="135" x2="464" y2="135" stroke="#8A919A" stroke-width="0.5" opacity="0.3"/>
  <text x="372" y="150" fill="#72777E" font-family="Inter, 'Helvetica Neue', sans-serif" font-size="9" font-weight="500">PREV HASH</text>
  <text x="372" y="164" fill="#21E46B" font-family="Inter, 'Helvetica Neue', sans-serif" font-size="9" font-weight="500">7c2b…</text>

  <circle cx="493" cy="110" r="3" fill="#CAD4DF"/>
  <circle cx="505" cy="110" r="3" fill="#CAD4DF"/>

  <!-- XRP circle (center 590,110, radius 46) -->
  <circle cx="590" cy="110" r="46" fill="#141414"/>
  <circle cx="590" cy="110" r="46" fill="none" stroke="#21E46B" stroke-width="1.5"/>
  <!-- XRP brand mark, 211x180 native scaled to 58x49.5 -->
  <g transform="translate(561, 85) scale(0.275)">
    <path fill="#F0F3F7" d="M135.007 43.7415C127.265 51.6966 117.426 56.0898 105.496 56.0898C93.5668 56.0898 83.7273 51.6966 75.9853 43.7415L34.1255 0H0.00763497L57.7784 57.7678C70.5469 70.5356 87.2893 78.6966 105.504 78.6966C123.718 78.6966 140.461 70.5356 153.229 57.7678L211 0H176.882L135.022 43.7415H135.007ZM176.874 180H210.992L153.222 122.232C140.453 109.464 123.711 101.303 105.496 101.303C87.2817 101.303 70.5393 109.464 57.7708 122.232L0 180H34.1179L75.9777 136.258C83.7196 128.303 93.5591 123.91 105.489 123.91C117.418 123.91 127.258 128.303 134.999 136.258L176.859 180H176.874Z"/>
  </g>

  <text x="340" y="205" text-anchor="middle" fill="currentColor" opacity="0.75" font-family="Inter, 'Helvetica Neue', sans-serif" font-size="11">Each block contains a transaction linked to the one before it</text>

</svg>
