<svg xmlns="http://www.w3.org/2000/svg" width="368" height="101" fill="none" viewBox="0 0 368 101">
  <path fill="#fff" d="M149.202 78.365q-2.597 3.135-6.125 4.802-3.528 1.617-7.889 1.617-3.92 0-7.301-1.421-3.332-1.421-5.782-3.871t-3.871-5.782q-1.42-3.38-1.421-7.252 0-3.87 1.421-7.203 1.421-3.381 3.871-5.831t5.782-3.871q3.381-1.42 7.301-1.421 4.214 0 7.399 1.47 3.234 1.47 5.733 4.263l-4.655 4.508a12.3 12.3 0 0 0-3.626-2.891q-2.009-1.078-4.802-1.078-2.45 0-4.606.882a11.1 11.1 0 0 0-3.773 2.401q-1.567 1.568-2.499 3.822-.931 2.205-.931 4.949t.931 4.998q.931 2.205 2.499 3.773a11.8 11.8 0 0 0 3.773 2.45q2.156.833 4.606.833 2.94 0 5.194-1.176 2.303-1.225 4.067-3.43zm14.937-19.159q2.793 0 5.096.98 2.352.93 4.018 2.646 1.716 1.666 2.646 4.018.98 2.352.98 5.145t-.98 5.145q-.93 2.352-2.646 4.067-1.666 1.666-4.018 2.646-2.303.93-5.096.931-2.793 0-5.145-.931a13 13 0 0 1-4.018-2.646q-1.665-1.715-2.646-4.067-.93-2.352-.931-5.145 0-2.793.931-5.145.981-2.352 2.646-4.018a12 12 0 0 1 4.018-2.646q2.352-.98 5.145-.98m0 19.649q1.226 0 2.352-.441a6.3 6.3 0 0 0 2.058-1.372q.882-.882 1.372-2.156.54-1.274.539-2.891 0-1.617-.539-2.891-.49-1.274-1.372-2.156a5.7 5.7 0 0 0-2.058-1.323 5.8 5.8 0 0 0-2.352-.49q-1.273 0-2.401.49a5.8 5.8 0 0 0-2.009 1.323q-.881.882-1.421 2.156-.49 1.275-.49 2.891t.49 2.891q.54 1.274 1.421 2.156a6.5 6.5 0 0 0 2.009 1.372 6.5 6.5 0 0 0 2.401.441m19.963-22.344a4.6 4.6 0 0 1-1.617-.294 5.2 5.2 0 0 1-1.323-.882 5.2 5.2 0 0 1-.882-1.323 4.3 4.3 0 0 1-.294-1.617q0-.882.294-1.617.344-.735.882-1.274a3.9 3.9 0 0 1 1.323-.882 4 4 0 0 1 1.617-.343q1.716 0 2.94 1.225 1.225 1.176 1.225 2.891 0 1.714-1.225 2.94-1.224 1.176-2.94 1.176M180.917 84V59.99h6.419V84zm18.316-20.874h.392a7.95 7.95 0 0 1 3.038-2.842q1.911-1.078 4.361-1.078 2.254 0 3.969.735t2.793 2.107q1.127 1.323 1.666 3.234.588 1.862.588 4.165V84h-6.419V70.231q0-2.596-1.176-3.822-1.127-1.274-3.332-1.274-1.323 0-2.352.588a5.4 5.4 0 0 0-1.715 1.519q-.686.93-1.078 2.254-.343 1.274-.343 2.744V84h-6.419V59.99h6.027zm28.954-14.21h7.007l5.439 20.482.784 3.773h.392l1.029-3.773 5.047-15.778h6.174l5.096 15.778.98 3.724h.392l.735-3.724 5.096-20.482h7.007L264.055 84h-6.37l-5.488-16.905-1.029-3.871h-.392l-1.029 3.871L244.259 84h-6.37zm61.547 32.536h-.392a10.7 10.7 0 0 1-2.744 2.352q-1.568.98-4.067.98a9.8 9.8 0 0 1-3.528-.637 8.8 8.8 0 0 1-2.842-1.666 7.6 7.6 0 0 1-1.911-2.597q-.686-1.519-.686-3.332 0-1.862.735-3.332a7.6 7.6 0 0 1 2.058-2.597q1.323-1.078 3.087-1.617 1.814-.588 3.92-.588 2.352 0 3.871.392 1.52.344 2.499.735v-.735q0-1.911-1.519-3.136-1.518-1.274-3.773-1.274-3.331 0-5.635 2.793l-4.655-3.185q3.822-4.802 10.437-4.802 5.586 0 8.526 2.646 2.94 2.597 2.94 7.742V84h-6.321zm0-7.203a12 12 0 0 0-2.352-.833q-1.175-.343-2.597-.343-2.302 0-3.577 1.029-1.224.98-1.225 2.45 0 1.47 1.176 2.352 1.226.882 2.793.882 1.275 0 2.352-.441 1.078-.49 1.813-1.225a5.2 5.2 0 0 0 1.176-1.764 5.3 5.3 0 0 0 .441-2.107M301.159 84V48.916h6.419V84zm11.915 0V48.916h6.419V84zm34.412-5.782a13.4 13.4 0 0 1-4.508 4.753q-2.793 1.813-6.86 1.813-2.744 0-5.096-.931a12.6 12.6 0 0 1-4.018-2.695 12.6 12.6 0 0 1-2.695-4.018q-.931-2.352-.931-5.145 0-2.597.931-4.9.931-2.352 2.597-4.067a12.4 12.4 0 0 1 3.92-2.793q2.303-1.029 5.047-1.029 2.89 0 5.145.98 2.254.93 3.773 2.646 1.519 1.666 2.303 3.969t.784 4.998v.588a3 3 0 0 0-.049.539 2.7 2.7 0 0 0-.049.539h-18.081q.196 1.47.784 2.548a7.2 7.2 0 0 0 1.519 1.764q.931.686 2.009 1.029a8.4 8.4 0 0 0 2.205.294q2.205 0 3.626-.98a7.46 7.46 0 0 0 2.303-2.548zm-5.831-9.31q-.05-.637-.441-1.421-.343-.785-1.078-1.47-.685-.686-1.764-1.127-1.029-.441-2.499-.441-2.058 0-3.626 1.176t-2.205 3.283zm12.251-3.43h-4.214V59.99h4.214v-7.35h6.419v7.35h5.88v5.488h-5.88v9.31q0 .833.147 1.568.195.686.686 1.176.685.784 1.96.784.832 0 1.323-.147a5 5 0 0 0 .931-.49l1.813 5.635q-1.127.539-2.45.784-1.275.294-2.842.294-1.813 0-3.283-.539-1.422-.588-2.401-1.568-2.303-2.204-2.303-6.272z"/>
  <g clip-path="url(#dark_svg__a)">
    <path fill="#68C481" d="M63.992 101H24.438c-8.821 0-13.232 0-16.565-1.798a15 15 0 0 1-6.075-6.075C0 89.794 0 85.384 0 76.562V49.41A25.1 25.1 0 0 1 8.474 30.6a6.86 6.86 0 0 0 6.853 6.519h42.368c8.822 0 13.232 0 16.565 1.798a15 15 0 0 1 6.075 6.075c1.319 2.444 1.67 5.467 1.764 10.385-.565-.007-1.2-.007-1.921-.007H64.533c-7.56 0-13.689 6.13-13.689 13.69s6.13 13.688 13.69 13.688h15.644c.735 0 1.381 0 1.955-.007v.118c0 2.925 0 4.388-.203 5.61a14.99 14.99 0 0 1-12.328 12.328c-1.222.203-2.685.203-5.61.203"/>
    <path fill="#68C481" fill-rule="evenodd" d="M65.185 59.282c-5.4 0-9.778 4.377-9.778 9.777s4.378 9.778 9.778 9.778h14.667c1.514 0 2.272 0 2.901-.125a6.52 6.52 0 0 0 5.122-5.122c.125-.63.125-1.386.125-2.9v-3.26c0-1.514 0-2.27-.125-2.9a6.52 6.52 0 0 0-5.122-5.122c-.63-.125-1.387-.125-2.901-.125zm0 13.037a3.26 3.26 0 1 0 0-6.519 3.26 3.26 0 0 0 0 6.519M23 24.734c-7.786.003-11.817.076-14.919 1.687a15 15 0 0 0-6.393 6.394C0 36.065 0 40.333 0 48.87v15.606c0 8.538 0 12.807 1.688 16.056a15 15 0 0 0 4.924 5.52c-.093-1.465-.093-3.276-.093-5.612V45.945c0-5.197 0-7.796 1.027-9.774a9.13 9.13 0 0 1 3.892-3.892c1.978-1.027 4.576-1.027 9.773-1.027H23zm34 6.518h10.44c4.163 0 6.658 0 8.503.528a15 15 0 0 0-5.802-5.359C67.284 24.938 63.64 24.758 57 24.736z" clip-rule="evenodd"/>
    <mask id="dark_svg__b" width="52" height="40" x="14" y="-6" maskUnits="userSpaceOnUse" style="mask-type:alpha">
      <path fill="#C4C4C4" d="M65.185-5.252H14.993V33.86h50.192z"/>
    </mask>
    <g mask="url(#dark_svg__b)">
      <path fill="#FFC700" fill-rule="evenodd" d="M39.926 48.526c13.122 0 23.76-10.638 23.76-23.76s-10.638-23.76-23.76-23.76-23.76 10.638-23.76 23.76 10.638 23.76 23.76 23.76m2.803-40.897h-5.886v4.855h-5.797v26.78h5.797v5.886h5.886v-5.895c4.579-.182 8.21-3.235 8.21-7.834 0-2.716-1.3-4.782-3.29-6.044 1.454-1.263 2.334-3.022 2.334-5.241 0-4.225-3.155-7.111-7.254-7.583zm1.133 12.966c0-1.377-.919-2.372-2.334-2.372h-4.361v4.744h4.361c1.377 0 2.334-.995 2.334-2.372m-6.695 12.93h5.126c1.53 0 2.525-1.07 2.525-2.563 0-1.492-.995-2.563-2.525-2.563h-5.126z" clip-rule="evenodd"/>
    </g>
  </g>
  <defs>
    <clipPath id="dark_svg__a">
      <path fill="#fff" d="M0 0h88v101H0z"/>
    </clipPath>
  </defs>
</svg>
