<svg width="332" height="48" viewBox="0 0 332 48" fill="none" xmlns="http://www.w3.org/2000/svg">
<g clip-path="url(#clip0_3116_737)">
<path d="M32.7305 25.2624L42.0461 34.6943C44.0603 36.7154 45.0674 38.4558 45.0674 39.9155C45.0674 41.3191 44.0603 43.0314 42.0461 45.0525C40.0319 47.0175 38.3254 48 36.9267 48C35.528 48 33.8215 46.9894 31.8073 44.9683L22.5756 35.6207L13.26 44.9683C11.2459 46.9894 9.5394 48 8.14066 48C6.79787 48 5.09141 47.0175 3.02128 45.0525C1.00709 43.0314 0 41.3191 0 39.9155C0 38.4558 1.00709 36.7154 3.02128 34.6943L12.3369 25.2624L3.02128 15.8306C1.00709 13.8095 0 12.0971 0 10.6936C0 9.23387 1.00709 7.49346 3.02128 5.47235C5.09141 3.45123 6.79787 2.44067 8.14066 2.44067C9.5394 2.44067 11.2459 3.45123 13.26 5.47235L22.5756 14.9042L31.8073 5.47235C33.8215 3.45123 35.528 2.44067 36.9267 2.44067C38.3254 2.44067 40.0319 3.45123 42.0461 5.47235C44.0603 7.49346 45.0674 9.23387 45.0674 10.6936C45.0674 12.0971 44.0603 13.8095 42.0461 15.8306L32.7305 25.2624Z" fill="white"/>
<path d="M76.7783 7.83032C77.114 4.68636 79.324 3.11438 83.4083 3.11438C85.5904 3.11438 87.2129 3.28281 88.2759 3.61966C89.339 3.95651 90.0663 4.546 90.458 5.38814C90.9056 6.23027 91.1573 6.98819 91.2133 7.66189C91.3252 8.27945 91.3811 9.23387 91.3811 10.5251V39.9997C91.3811 41.291 91.3252 42.2735 91.2133 42.9472C91.1573 43.5648 90.9335 44.2946 90.5419 45.1367C89.7586 46.5964 87.8283 47.3263 84.7511 47.3263C81.7298 47.3263 79.6877 46.9614 78.6246 46.2315C77.6176 45.4455 77.0301 44.3227 76.8622 42.863C74.7921 45.8385 71.3232 47.3263 66.4556 47.3263C61.644 47.3263 57.168 45.1087 53.0277 40.6735C48.8875 36.2382 46.8173 31.1012 46.8173 25.2624C46.8173 19.3675 48.8875 14.2305 53.0277 9.85143C57.2239 5.4162 61.8118 3.19859 66.7913 3.19859C68.6936 3.19859 70.428 3.53545 71.9946 4.20915C73.5612 4.88286 74.6522 5.52849 75.2677 6.14605C75.8831 6.70747 76.3867 7.2689 76.7783 7.83032ZM61.5041 25.3467C61.5041 27.1993 62.2314 28.8836 63.6861 30.3994C65.1408 31.8591 66.9032 32.589 68.9734 32.589C71.0435 32.589 72.7499 31.8311 74.0927 30.3152C75.4915 28.7994 76.1908 27.1432 76.1908 25.3467C76.1908 23.494 75.5194 21.7816 74.1767 20.2097C72.8898 18.6377 71.1274 17.8517 68.8894 17.8517C66.7074 17.8517 64.917 18.6377 63.5183 20.2097C62.1755 21.7816 61.5041 23.494 61.5041 25.3467Z" fill="white"/>
<path d="M112.505 9.0093C115.135 5.02321 118.296 3.03017 121.989 3.03017C127.695 3.03017 131.948 5.47235 134.745 10.3567C135.361 9.51458 136.088 8.64438 136.927 7.7461C137.822 6.79169 139.221 5.78113 141.123 4.71443C143.026 3.59159 144.984 3.03017 146.998 3.03017C151.474 3.03017 155.223 4.77057 158.244 8.25138C161.265 11.6761 162.776 17.3745 162.776 25.3467V40.084C162.776 41.3752 162.72 42.3577 162.608 43.0314C162.552 43.649 162.3 44.3788 161.853 45.221C161.125 46.7368 158.971 47.4947 155.391 47.4947C151.866 47.4947 149.712 46.7087 148.928 45.1367C148.537 44.2946 148.285 43.5648 148.173 42.9472C148.117 42.2735 148.089 41.291 148.089 39.9997V25.2624C148.089 20.3781 146.355 17.9359 142.886 17.9359C140.928 17.9359 139.585 18.5815 138.857 19.8728C138.186 21.1641 137.85 22.9887 137.85 25.3467V40.084C137.85 41.4314 137.794 42.4139 137.682 43.0314C137.627 43.649 137.375 44.3788 136.927 45.221C136.144 46.7368 133.962 47.4947 130.381 47.4947C126.856 47.4947 124.702 46.7087 123.919 45.1367C123.527 44.2946 123.275 43.5648 123.164 42.9472C123.108 42.2735 123.08 41.291 123.08 39.9997V25.2624C123.08 20.3781 121.345 17.9359 117.876 17.9359C114.519 17.9359 112.841 20.3781 112.841 25.2624V40.1682C112.841 41.4594 112.785 42.4419 112.673 43.1156C112.617 43.7332 112.365 44.463 111.918 45.3052C111.078 46.7649 108.896 47.4947 105.372 47.4947C101.847 47.4947 99.6927 46.7368 98.9094 45.221C98.5178 44.3788 98.266 43.649 98.1541 43.0314C98.0982 42.4139 98.0702 41.4314 98.0702 40.084V10.4409C98.0702 9.14966 98.0982 8.19524 98.1541 7.57768C98.266 6.90397 98.5457 6.17413 98.9933 5.38814C99.8326 3.8723 101.819 3.11438 104.952 3.11438C108.085 3.11438 110.127 3.61966 111.078 4.63022C112.03 5.64077 112.505 7.10047 112.505 9.0093Z" fill="white"/>
<path d="M198.157 7.83032C198.493 4.68636 200.703 3.11438 204.787 3.11438C206.969 3.11438 208.592 3.28281 209.655 3.61966C210.718 3.95651 211.445 4.546 211.837 5.38814C212.284 6.23027 212.536 6.98819 212.592 7.66189C212.704 8.27945 212.76 9.23387 212.76 10.5251V39.9997C212.76 41.291 212.704 42.2735 212.592 42.9472C212.536 43.5648 212.312 44.2946 211.921 45.1367C211.137 46.5964 209.207 47.3263 206.13 47.3263C203.109 47.3263 201.067 46.9614 200.003 46.2315C198.996 45.4455 198.409 44.3227 198.241 42.863C196.171 45.8385 192.702 47.3263 187.834 47.3263C183.023 47.3263 178.547 45.1087 174.407 40.6735C170.266 36.2382 168.196 31.1012 168.196 25.2624C168.196 19.3675 170.266 14.2305 174.407 9.85143C178.603 5.4162 183.191 3.19859 188.17 3.19859C190.072 3.19859 191.807 3.53545 193.373 4.20915C194.94 4.88286 196.031 5.52849 196.647 6.14605C197.262 6.70747 197.766 7.2689 198.157 7.83032ZM182.883 25.3467C182.883 27.1993 183.61 28.8836 185.065 30.3994C186.52 31.8591 188.282 32.589 190.352 32.589C192.422 32.589 194.129 31.8311 195.472 30.3152C196.87 28.7994 197.57 27.1432 197.57 25.3467C197.57 23.494 196.898 21.7816 195.556 20.2097C194.269 18.6377 192.506 17.8517 190.268 17.8517C188.086 17.8517 186.296 18.6377 184.897 20.2097C183.554 21.7816 182.883 23.494 182.883 25.3467Z" fill="white"/>
<path d="M244.039 3.11438C249.634 3.11438 254.278 5.27585 257.97 9.5988C261.719 13.8656 263.593 19.0868 263.593 25.2624V40.084C263.593 41.3752 263.537 42.3577 263.425 43.0314C263.369 43.649 263.146 44.3508 262.754 45.1367C261.971 46.6526 259.789 47.4105 256.208 47.4105C252.235 47.4105 249.942 46.3719 249.326 44.2946C248.99 43.3402 248.823 41.9086 248.823 39.9997V25.1782C248.823 22.8764 248.151 21.0799 246.808 19.7886C245.522 18.4973 243.759 17.8517 241.521 17.8517C239.339 17.8517 237.549 18.5254 236.15 19.8728C234.807 21.2202 234.136 22.9887 234.136 25.1782V40.084C234.136 41.3752 234.08 42.3577 233.968 43.0314C233.912 43.649 233.66 44.3508 233.213 45.1367C232.485 46.6526 230.331 47.4105 226.75 47.4105C223.226 47.4105 221.072 46.6526 220.288 45.1367C219.897 44.2946 219.645 43.5648 219.533 42.9472C219.477 42.2735 219.449 41.291 219.449 39.9997V10.1883C219.449 8.95316 219.477 8.02681 219.533 7.40925C219.645 6.73555 219.925 6.0057 220.372 5.21971C221.155 3.81616 223.31 3.11438 226.834 3.11438C230.247 3.11438 232.345 3.76002 233.129 5.05128C233.688 6.0057 233.968 7.15661 233.968 8.50402C234.192 8.11103 234.695 7.54961 235.479 6.81976C236.262 6.08991 237.017 5.50042 237.745 5.05128C239.647 3.76002 241.745 3.11438 244.039 3.11438Z" fill="white"/>
<path fill-rule="evenodd" clip-rule="evenodd" d="M328.492 2.06714C331.769 5.02139 332.013 10.0523 329.035 13.304L301.885 42.9538C300.388 44.5891 298.272 45.5327 296.046 45.5588C293.818 45.5847 291.681 44.6906 290.145 43.0906L275.568 27.9042C272.514 24.7228 272.638 19.6876 275.844 16.6577C279.05 13.6278 284.126 13.7506 287.179 16.932L295.812 25.926L317.167 2.60568C320.144 -0.646009 325.215 -0.887125 328.492 2.06714Z" fill="white"/>
</g>
<defs>
<clipPath id="clip0_3116_737">
<rect width="332" height="48" fill="white"/>
</clipPath>
</defs>
</svg>
