<svg xmlns="http://www.w3.org/2000/svg" viewBox="0 0 133.64 56"><title>coil-logo</title><g id="Layer_2" data-name="Layer 2"><g id="Layer_1-2" data-name="Layer 1"><g id="coil-logo"><g id="i"><ellipse id="dot" cx="108.11" cy="5.98" rx="6.2" ry="5.9"/><path id="stem" d="M103.42,20V53.7c0,1.82,2.44,2.3,4.88,2.3s4.88-.48,4.88-2.3V20c0-2.43-2.44-2.77-4.88-2.78S103.42,17.6,103.42,20Z"/></g><path id="l" d="M123.88,2.78V53.7c0,1.82,2.44,2.3,4.88,2.3s4.88-.48,4.88-2.3V2.78C133.64.34,131.2,0,128.76,0S123.88.34,123.88,2.78Z"/><g id="o"><path d="M53.89,36c0-10.58,8.45-20,20.65-20s20.81,9.28,20.81,20C95.35,47.45,85.76,56,74.66,56,62.37,56,53.89,46.57,53.89,36ZM74.54,47.86c6.5,0,11.37-5.36,11.37-11.94S81,24.12,74.54,24.12,63.24,29.4,63.24,36,68,47.86,74.54,47.86Z"/></g><g id="c"><path d="M48.3,45.69C48.3,50.81,36.34,56,28,56A28.19,28.19,0,0,1,3.42,41.76,27.49,27.49,0,0,1,0,28.38,28.24,28.24,0,0,1,4.56,12.94a28,28,0,0,1,15-11.25A32.32,32.32,0,0,1,29.31.08C40.8.08,48,8.13,48,15.14,48,20,44.1,26.81,34.5,26.81c-4.39,0-5.88-1.86-5.88-4,0-2.85,2.67-6.19,4.59-6.19.81,0,1.3.81,2.88.58a2.51,2.51,0,0,0,2.36-2.55c0-2.42-2.89-5.68-9-5.68a24,24,0,0,0-6.91,1.13,18.38,18.38,0,0,0-10,8,18.82,18.82,0,0,0-3,10.26,18.1,18.1,0,0,0,2.24,8.79A18.7,18.7,0,0,0,28,46.55c9.38,0,12-5,13.91-5.86C45.29,39.23,48.3,43.29,48.3,45.69Z"/></g></g></g></g></svg>