<svg width="1136" height="475" viewBox="0 0 1136 475" fill="none" xmlns="http://www.w3.org/2000/svg">
<rect width="1136" height="475" fill="black"/>
<rect x="249.5" y="171.5" width="832" height="236" rx="3.5" fill="#343437" stroke="white" stroke-dasharray="5 5"/>
<path d="M45.712 177.16C46.928 177.16 47.968 177.368 48.832 177.784C49.696 178.184 50.36 178.768 50.824 179.536C51.304 180.288 51.544 181.2 51.544 182.272C51.544 183.344 51.304 184.264 50.824 185.032C50.36 185.784 49.696 186.368 48.832 186.784C47.968 187.184 46.928 187.384 45.712 187.384H42.376V193H39.064V177.16H45.712ZM45.208 184.768C46.2 184.768 46.944 184.56 47.44 184.144C47.936 183.712 48.184 183.088 48.184 182.272C48.184 181.44 47.936 180.816 47.44 180.4C46.944 179.984 46.2 179.776 45.208 179.776H42.376V184.768H45.208ZM59.5069 193.24C58.2429 193.24 57.1389 192.992 56.1949 192.496C55.2669 192 54.5469 191.288 54.0349 190.36C53.5229 189.432 53.2669 188.312 53.2669 187C53.2669 185.688 53.5229 184.568 54.0349 183.64C54.5469 182.712 55.2589 182 56.1709 181.504C57.0989 181.008 58.1549 180.76 59.3389 180.76C60.5549 180.76 61.5869 181.008 62.4349 181.504C63.2829 181.984 63.9309 182.648 64.3789 183.496C64.8269 184.328 65.0509 185.28 65.0509 186.352C65.0509 186.672 65.0429 186.976 65.0269 187.264C65.0109 187.552 64.9869 187.808 64.9549 188.032H55.3789V185.752H63.5149L61.9309 186.328C61.9309 185.32 61.6989 184.544 61.2349 184C60.7869 183.456 60.1469 183.184 59.3149 183.184C58.7069 183.184 58.1789 183.328 57.7309 183.616C57.2989 183.904 56.9709 184.336 56.7469 184.912C56.5229 185.472 56.4109 186.184 56.4109 187.048C56.4109 187.896 56.5309 188.6 56.7709 189.16C57.0269 189.704 57.3789 190.112 57.8269 190.384C58.2909 190.656 58.8429 190.792 59.4829 190.792C60.1869 190.792 60.7549 190.656 61.1869 190.384C61.6189 190.112 61.9549 189.736 62.1949 189.256L64.8109 190.264C64.5549 190.888 64.1629 191.424 63.6349 191.872C63.1229 192.32 62.5069 192.664 61.7869 192.904C61.0829 193.128 60.3229 193.24 59.5069 193.24ZM73.4054 193.24C72.1414 193.24 71.0374 192.992 70.0934 192.496C69.1654 192 68.4454 191.288 67.9334 190.36C67.4214 189.432 67.1654 188.312 67.1654 187C67.1654 185.688 67.4214 184.568 67.9334 183.64C68.4454 182.712 69.1574 182 70.0694 181.504C70.9974 181.008 72.0534 180.76 73.2374 180.76C74.4534 180.76 75.4854 181.008 76.3334 181.504C77.1814 181.984 77.8294 182.648 78.2774 183.496C78.7254 184.328 78.9494 185.28 78.9494 186.352C78.9494 186.672 78.9414 186.976 78.9254 187.264C78.9094 187.552 78.8854 187.808 78.8534 188.032H69.2774V185.752H77.4134L75.8294 186.328C75.8294 185.32 75.5974 184.544 75.1334 184C74.6854 183.456 74.0454 183.184 73.2134 183.184C72.6054 183.184 72.0774 183.328 71.6294 183.616C71.1974 183.904 70.8694 184.336 70.6454 184.912C70.4214 185.472 70.3094 186.184 70.3094 187.048C70.3094 187.896 70.4294 188.6 70.6694 189.16C70.9254 189.704 71.2774 190.112 71.7254 190.384C72.1894 190.656 72.7414 190.792 73.3814 190.792C74.0854 190.792 74.6534 190.656 75.0854 190.384C75.5174 190.112 75.8534 189.736 76.0934 189.256L78.7094 190.264C78.4534 190.888 78.0614 191.424 77.5334 191.872C77.0214 192.32 76.4054 192.664 75.6854 192.904C74.9814 193.128 74.2214 193.24 73.4054 193.24ZM81.7358 193V181H84.5918L84.8078 183.352C85.1278 182.52 85.5918 181.88 86.1998 181.432C86.8238 180.984 87.5998 180.76 88.5278 180.76C88.7998 180.76 89.0478 180.784 89.2718 180.832C89.4958 180.88 89.6798 180.944 89.8238 181.024L89.4398 183.784C89.2798 183.72 89.0798 183.672 88.8398 183.64C88.6158 183.608 88.3198 183.592 87.9518 183.592C87.4718 183.592 87.0078 183.712 86.5598 183.952C86.1118 184.176 85.7438 184.528 85.4558 185.008C85.1678 185.472 85.0238 186.064 85.0238 186.784V193H81.7358ZM99.3552 185.224V188.056H90.8832V185.224H99.3552ZM106.96 177.328V189.088C106.96 189.664 107.104 190.088 107.392 190.36C107.696 190.616 108.104 190.744 108.616 190.744C109.016 190.744 109.368 190.688 109.672 190.576C109.976 190.448 110.248 190.28 110.488 190.072L111.016 192.256C110.632 192.56 110.152 192.8 109.576 192.976C109 193.152 108.392 193.24 107.752 193.24C106.952 193.24 106.24 193.12 105.616 192.88C105.008 192.64 104.528 192.256 104.176 191.728C103.84 191.2 103.672 190.496 103.672 189.616V178.24L106.96 177.328ZM110.8 181V183.448H101.464V181H110.8ZM118.497 180.76C119.713 180.76 120.777 181.008 121.689 181.504C122.617 182 123.337 182.712 123.849 183.64C124.377 184.568 124.641 185.688 124.641 187C124.641 188.296 124.377 189.416 123.849 190.36C123.337 191.288 122.617 192 121.689 192.496C120.777 192.992 119.713 193.24 118.497 193.24C117.297 193.24 116.233 192.992 115.305 192.496C114.377 192 113.649 191.288 113.121 190.36C112.609 189.416 112.353 188.296 112.353 187C112.353 185.688 112.609 184.568 113.121 183.64C113.649 182.712 114.377 182 115.305 181.504C116.233 181.008 117.297 180.76 118.497 180.76ZM118.497 183.208C117.889 183.208 117.369 183.352 116.937 183.64C116.521 183.912 116.201 184.328 115.977 184.888C115.753 185.448 115.641 186.152 115.641 187C115.641 187.848 115.753 188.552 115.977 189.112C116.201 189.672 116.521 190.096 116.937 190.384C117.369 190.656 117.889 190.792 118.497 190.792C119.089 190.792 119.593 190.656 120.009 190.384C120.441 190.096 120.769 189.672 120.993 189.112C121.217 188.552 121.329 187.848 121.329 187C121.329 186.152 121.217 185.448 120.993 184.888C120.769 184.328 120.441 183.912 120.009 183.64C119.593 183.352 119.089 183.208 118.497 183.208ZM136.152 185.224V188.056H127.68V185.224H136.152ZM146.892 177.16C148.108 177.16 149.148 177.368 150.012 177.784C150.876 178.184 151.54 178.768 152.004 179.536C152.484 180.288 152.724 181.2 152.724 182.272C152.724 183.344 152.484 184.264 152.004 185.032C151.54 185.784 150.876 186.368 150.012 186.784C149.148 187.184 148.108 187.384 146.892 187.384H143.556V193H140.244V177.16H146.892ZM146.388 184.768C147.38 184.768 148.124 184.56 148.62 184.144C149.116 183.712 149.364 183.088 149.364 182.272C149.364 181.44 149.116 180.816 148.62 180.4C148.124 179.984 147.38 179.776 146.388 179.776H143.556V184.768H146.388ZM160.687 193.24C159.423 193.24 158.319 192.992 157.375 192.496C156.447 192 155.727 191.288 155.215 190.36C154.703 189.432 154.447 188.312 154.447 187C154.447 185.688 154.703 184.568 155.215 183.64C155.727 182.712 156.439 182 157.351 181.504C158.279 181.008 159.335 180.76 160.519 180.76C161.735 180.76 162.767 181.008 163.615 181.504C164.463 181.984 165.111 182.648 165.559 183.496C166.007 184.328 166.231 185.28 166.231 186.352C166.231 186.672 166.223 186.976 166.207 187.264C166.191 187.552 166.167 187.808 166.135 188.032H156.559V185.752H164.695L163.111 186.328C163.111 185.32 162.879 184.544 162.415 184C161.967 183.456 161.327 183.184 160.495 183.184C159.887 183.184 159.359 183.328 158.911 183.616C158.479 183.904 158.151 184.336 157.927 184.912C157.703 185.472 157.591 186.184 157.591 187.048C157.591 187.896 157.711 188.6 157.951 189.16C158.207 189.704 158.559 190.112 159.007 190.384C159.471 190.656 160.023 190.792 160.663 190.792C161.367 190.792 161.935 190.656 162.367 190.384C162.799 190.112 163.135 189.736 163.375 189.256L165.991 190.264C165.735 190.888 165.343 191.424 164.815 191.872C164.303 192.32 163.687 192.664 162.967 192.904C162.263 193.128 161.503 193.24 160.687 193.24ZM174.585 193.24C173.321 193.24 172.217 192.992 171.273 192.496C170.345 192 169.625 191.288 169.113 190.36C168.601 189.432 168.345 188.312 168.345 187C168.345 185.688 168.601 184.568 169.113 183.64C169.625 182.712 170.337 182 171.249 181.504C172.177 181.008 173.233 180.76 174.417 180.76C175.633 180.76 176.665 181.008 177.513 181.504C178.361 181.984 179.009 182.648 179.457 183.496C179.905 184.328 180.129 185.28 180.129 186.352C180.129 186.672 180.121 186.976 180.105 187.264C180.089 187.552 180.065 187.808 180.033 188.032H170.457V185.752H178.593L177.009 186.328C177.009 185.32 176.777 184.544 176.313 184C175.865 183.456 175.225 183.184 174.393 183.184C173.785 183.184 173.257 183.328 172.809 183.616C172.377 183.904 172.049 184.336 171.825 184.912C171.601 185.472 171.489 186.184 171.489 187.048C171.489 187.896 171.609 188.6 171.849 189.16C172.105 189.704 172.457 190.112 172.905 190.384C173.369 190.656 173.921 190.792 174.561 190.792C175.265 190.792 175.833 190.656 176.265 190.384C176.697 190.112 177.033 189.736 177.273 189.256L179.889 190.264C179.633 190.888 179.241 191.424 178.713 191.872C178.201 192.32 177.585 192.664 176.865 192.904C176.161 193.128 175.401 193.24 174.585 193.24ZM182.916 193V181H185.772L185.988 183.352C186.308 182.52 186.772 181.88 187.38 181.432C188.004 180.984 188.78 180.76 189.708 180.76C189.98 180.76 190.228 180.784 190.452 180.832C190.676 180.88 190.86 180.944 191.004 181.024L190.62 183.784C190.46 183.72 190.26 183.672 190.02 183.64C189.796 183.608 189.5 183.592 189.132 183.592C188.652 183.592 188.188 183.712 187.74 183.952C187.292 184.176 186.924 184.528 186.636 185.008C186.348 185.472 186.204 186.064 186.204 186.784V193H182.916ZM52.672 205.16V221H48.88L43.336 211.688L41.968 209.096H41.944L42.04 211.832V221H39.064V205.16H42.832L48.376 214.448L49.744 217.064H49.792L49.696 214.328V205.16H52.672ZM61.921 221.24C60.657 221.24 59.553 220.992 58.609 220.496C57.681 220 56.961 219.288 56.449 218.36C55.937 217.432 55.681 216.312 55.681 215C55.681 213.688 55.937 212.568 56.449 211.64C56.961 210.712 57.673 210 58.585 209.504C59.513 209.008 60.569 208.76 61.753 208.76C62.969 208.76 64.001 209.008 64.849 209.504C65.697 209.984 66.345 210.648 66.793 211.496C67.241 212.328 67.465 213.28 67.465 214.352C67.465 214.672 67.457 214.976 67.441 215.264C67.425 215.552 67.401 215.808 67.369 216.032H57.793V213.752H65.929L64.345 214.328C64.345 213.32 64.113 212.544 63.649 212C63.201 211.456 62.561 211.184 61.729 211.184C61.121 211.184 60.593 211.328 60.145 211.616C59.713 211.904 59.385 212.336 59.161 212.912C58.937 213.472 58.825 214.184 58.825 215.048C58.825 215.896 58.945 216.6 59.185 217.16C59.441 217.704 59.793 218.112 60.241 218.384C60.705 218.656 61.257 218.792 61.897 218.792C62.601 218.792 63.169 218.656 63.601 218.384C64.033 218.112 64.369 217.736 64.609 217.256L67.225 218.264C66.969 218.888 66.577 219.424 66.049 219.872C65.537 220.32 64.921 220.664 64.201 220.904C63.497 221.128 62.737 221.24 61.921 221.24ZM74.2885 205.328V217.088C74.2885 217.664 74.4325 218.088 74.7205 218.36C75.0245 218.616 75.4325 218.744 75.9445 218.744C76.3445 218.744 76.6965 218.688 77.0005 218.576C77.3045 218.448 77.5765 218.28 77.8165 218.072L78.3445 220.256C77.9605 220.56 77.4805 220.8 76.9045 220.976C76.3285 221.152 75.7205 221.24 75.0805 221.24C74.2805 221.24 73.5685 221.12 72.9445 220.88C72.3365 220.64 71.8565 220.256 71.5045 219.728C71.1685 219.2 71.0005 218.496 71.0005 217.616V206.24L74.2885 205.328ZM78.1285 209V211.448H68.7925V209H78.1285ZM95.833 209H99.337L95.497 221H91.705L89.089 212.84L86.569 221H82.777L78.937 209H82.441L84.841 218.192L87.505 209H90.769L93.457 218.192L95.833 209ZM106.52 208.76C107.736 208.76 108.8 209.008 109.712 209.504C110.64 210 111.36 210.712 111.872 211.64C112.4 212.568 112.664 213.688 112.664 215C112.664 216.296 112.4 217.416 111.872 218.36C111.36 219.288 110.64 220 109.712 220.496C108.8 220.992 107.736 221.24 106.52 221.24C105.32 221.24 104.256 220.992 103.328 220.496C102.4 220 101.672 219.288 101.144 218.36C100.632 217.416 100.376 216.296 100.376 215C100.376 213.688 100.632 212.568 101.144 211.64C101.672 210.712 102.4 210 103.328 209.504C104.256 209.008 105.32 208.76 106.52 208.76ZM106.52 211.208C105.912 211.208 105.392 211.352 104.96 211.64C104.544 211.912 104.224 212.328 104 212.888C103.776 213.448 103.664 214.152 103.664 215C103.664 215.848 103.776 216.552 104 217.112C104.224 217.672 104.544 218.096 104.96 218.384C105.392 218.656 105.912 218.792 106.52 218.792C107.112 218.792 107.616 218.656 108.032 218.384C108.464 218.096 108.792 217.672 109.016 217.112C109.24 216.552 109.352 215.848 109.352 215C109.352 214.152 109.24 213.448 109.016 212.888C108.792 212.328 108.464 211.912 108.032 211.64C107.616 211.352 107.112 211.208 106.52 211.208ZM115.416 221V209H118.272L118.488 211.352C118.808 210.52 119.272 209.88 119.88 209.432C120.504 208.984 121.28 208.76 122.208 208.76C122.48 208.76 122.728 208.784 122.952 208.832C123.176 208.88 123.36 208.944 123.504 209.024L123.12 211.784C122.96 211.72 122.76 211.672 122.52 211.64C122.296 211.608 122 211.592 121.632 211.592C121.152 211.592 120.688 211.712 120.24 211.952C119.792 212.176 119.424 212.528 119.136 213.008C118.848 213.472 118.704 214.064 118.704 214.784V221H115.416ZM137.757 209L132.213 214.784L131.565 215.096L127.965 218.96L127.917 215.456L134.013 209H137.757ZM128.829 203.744V221H125.541V203.744H128.829ZM132.669 212.816L138.045 221H134.325L130.413 214.736L132.669 212.816Z" fill="white"/>
<path d="M280.976 215H277.04L273.584 209.384L270.176 215H266.384L271.832 207.008L266.768 199.16H270.656L273.848 204.488L277.088 199.16H280.688L275.6 206.888L280.976 215ZM290.4 199.16C292.192 199.16 293.6 199.592 294.624 200.456C295.648 201.32 296.16 202.48 296.16 203.936C296.16 205.488 295.648 206.68 294.624 207.512C293.6 208.328 292.2 208.736 290.424 208.736L290.088 208.928H286.68V215H283.416V199.16H290.4ZM290.016 206.408C290.944 206.408 291.632 206.224 292.08 205.856C292.544 205.472 292.776 204.888 292.776 204.104C292.776 203.32 292.544 202.744 292.08 202.376C291.632 201.992 290.944 201.8 290.016 201.8H286.68V206.408H290.016ZM291.96 207.104L297.096 215H293.376L289.128 208.064L291.96 207.104ZM306.376 199.16C307.592 199.16 308.632 199.368 309.496 199.784C310.36 200.184 311.024 200.768 311.488 201.536C311.968 202.288 312.208 203.2 312.208 204.272C312.208 205.344 311.968 206.264 311.488 207.032C311.024 207.784 310.36 208.368 309.496 208.784C308.632 209.184 307.592 209.384 306.376 209.384H303.04V215H299.728V199.16H306.376ZM305.872 206.768C306.864 206.768 307.608 206.56 308.104 206.144C308.6 205.712 308.848 205.088 308.848 204.272C308.848 203.44 308.6 202.816 308.104 202.4C307.608 201.984 306.864 201.776 305.872 201.776H303.04V206.768H305.872ZM325.54 212.336H333.892V215H322.228V199.16H325.54V212.336ZM341.663 215.24C340.399 215.24 339.295 214.992 338.351 214.496C337.423 214 336.703 213.288 336.191 212.36C335.679 211.432 335.423 210.312 335.423 209C335.423 207.688 335.679 206.568 336.191 205.64C336.703 204.712 337.415 204 338.327 203.504C339.255 203.008 340.311 202.76 341.495 202.76C342.711 202.76 343.743 203.008 344.591 203.504C345.439 203.984 346.087 204.648 346.535 205.496C346.983 206.328 347.207 207.28 347.207 208.352C347.207 208.672 347.199 208.976 347.183 209.264C347.167 209.552 347.143 209.808 347.111 210.032H337.535V207.752H345.671L344.087 208.328C344.087 207.32 343.855 206.544 343.391 206C342.943 205.456 342.303 205.184 341.471 205.184C340.863 205.184 340.335 205.328 339.887 205.616C339.455 205.904 339.127 206.336 338.903 206.912C338.679 207.472 338.567 208.184 338.567 209.048C338.567 209.896 338.687 210.6 338.927 211.16C339.183 211.704 339.535 212.112 339.983 212.384C340.447 212.656 340.999 212.792 341.639 212.792C342.343 212.792 342.911 212.656 343.343 212.384C343.775 212.112 344.111 211.736 344.351 211.256L346.967 212.264C346.711 212.888 346.319 213.424 345.791 213.872C345.279 214.32 344.663 214.664 343.943 214.904C343.239 215.128 342.479 215.24 341.663 215.24ZM354.53 215.24C353.538 215.24 352.65 214.992 351.866 214.496C351.098 214 350.49 213.288 350.042 212.36C349.61 211.432 349.394 210.32 349.394 209.024C349.394 207.696 349.626 206.568 350.09 205.64C350.554 204.696 351.178 203.984 351.962 203.504C352.762 203.008 353.658 202.76 354.65 202.76C355.706 202.76 356.578 203.064 357.266 203.672C357.954 204.28 358.402 205.064 358.61 206.024L358.298 206.408V197.744H361.586V215H358.634L358.418 211.352L358.826 211.544C358.714 212.296 358.458 212.952 358.058 213.512C357.658 214.056 357.154 214.48 356.546 214.784C355.938 215.088 355.266 215.24 354.53 215.24ZM355.49 212.72C356.066 212.72 356.562 212.576 356.978 212.288C357.394 211.984 357.714 211.544 357.938 210.968C358.178 210.392 358.298 209.704 358.298 208.904C358.298 208.136 358.186 207.488 357.962 206.96C357.738 206.416 357.418 206 357.002 205.712C356.586 205.424 356.098 205.28 355.538 205.28C354.642 205.28 353.938 205.6 353.426 206.24C352.93 206.864 352.682 207.784 352.682 209C352.682 210.216 352.93 211.144 353.426 211.784C353.922 212.408 354.61 212.72 355.49 212.72ZM376.105 200.144L376.489 202.496C376.425 202.496 376.353 202.496 376.273 202.496C376.209 202.48 376.137 202.472 376.057 202.472C375.321 202.472 374.769 202.64 374.401 202.976C374.033 203.296 373.849 203.744 373.849 204.32L372.505 203.768C372.505 203.128 372.633 202.536 372.889 201.992C373.145 201.432 373.521 200.984 374.017 200.648C374.529 200.312 375.137 200.144 375.841 200.144C375.873 200.144 375.913 200.144 375.961 200.144C376.009 200.144 376.057 200.144 376.105 200.144ZM372.169 212.744C373.465 212.744 374.465 213.024 375.169 213.584C375.873 214.144 376.225 214.928 376.225 215.936C376.225 216.848 375.961 217.616 375.432 218.24C374.905 218.88 374.161 219.36 373.201 219.68C372.257 220 371.161 220.16 369.913 220.16C367.849 220.16 366.337 219.872 365.377 219.296C364.433 218.72 363.961 217.968 363.961 217.04C363.961 216.384 364.209 215.832 364.705 215.384C365.217 214.936 366.057 214.688 367.225 214.64L367.105 215.024C366.273 214.88 365.633 214.608 365.185 214.208C364.753 213.792 364.537 213.224 364.537 212.504C364.537 211.768 364.817 211.168 365.377 210.704C365.953 210.224 366.729 209.944 367.705 209.864L369.145 210.536H368.809C368.121 210.584 367.633 210.728 367.345 210.968C367.073 211.192 366.937 211.448 366.937 211.736C366.937 212.072 367.065 212.328 367.321 212.504C367.593 212.664 367.977 212.744 368.473 212.744H372.169ZM369.937 217.904C370.769 217.904 371.449 217.832 371.977 217.688C372.521 217.544 372.921 217.36 373.177 217.136C373.449 216.912 373.585 216.664 373.585 216.392C373.585 216.088 373.465 215.84 373.225 215.648C372.985 215.472 372.553 215.384 371.929 215.384H367.873C367.489 215.384 367.169 215.48 366.913 215.672C366.673 215.864 366.553 216.128 366.553 216.464C366.553 216.912 366.849 217.264 367.441 217.52C368.049 217.776 368.881 217.904 369.937 217.904ZM369.961 202.76C371.081 202.76 372.049 202.928 372.865 203.264C373.697 203.584 374.329 204.048 374.761 204.656C375.209 205.264 375.432 205.992 375.432 206.84C375.432 207.672 375.209 208.392 374.761 209C374.329 209.608 373.697 210.08 372.865 210.416C372.049 210.736 371.081 210.896 369.961 210.896C368.185 210.896 366.825 210.536 365.881 209.816C364.953 209.08 364.489 208.088 364.489 206.84C364.489 205.992 364.705 205.264 365.137 204.656C365.585 204.048 366.217 203.584 367.033 203.264C367.849 202.928 368.825 202.76 369.961 202.76ZM369.961 204.824C369.321 204.824 368.793 205 368.377 205.352C367.961 205.704 367.753 206.192 367.753 206.816C367.753 207.44 367.961 207.936 368.377 208.304C368.793 208.656 369.321 208.832 369.961 208.832C370.601 208.832 371.121 208.656 371.521 208.304C371.937 207.936 372.145 207.44 372.145 206.816C372.145 206.192 371.937 205.704 371.521 205.352C371.121 205 370.601 204.824 369.961 204.824ZM383.78 215.24C382.516 215.24 381.412 214.992 380.468 214.496C379.54 214 378.82 213.288 378.308 212.36C377.796 211.432 377.54 210.312 377.54 209C377.54 207.688 377.796 206.568 378.308 205.64C378.82 204.712 379.532 204 380.444 203.504C381.372 203.008 382.428 202.76 383.612 202.76C384.828 202.76 385.86 203.008 386.708 203.504C387.556 203.984 388.204 204.648 388.652 205.496C389.1 206.328 389.324 207.28 389.324 208.352C389.324 208.672 389.316 208.976 389.3 209.264C389.284 209.552 389.26 209.808 389.228 210.032H379.652V207.752H387.788L386.204 208.328C386.204 207.32 385.972 206.544 385.508 206C385.06 205.456 384.42 205.184 383.588 205.184C382.98 205.184 382.452 205.328 382.004 205.616C381.572 205.904 381.244 206.336 381.02 206.912C380.796 207.472 380.684 208.184 380.684 209.048C380.684 209.896 380.804 210.6 381.044 211.16C381.3 211.704 381.652 212.112 382.1 212.384C382.564 212.656 383.116 212.792 383.756 212.792C384.46 212.792 385.028 212.656 385.46 212.384C385.892 212.112 386.228 211.736 386.468 211.256L389.084 212.264C388.828 212.888 388.436 213.424 387.908 213.872C387.396 214.32 386.78 214.664 386.06 214.904C385.356 215.128 384.596 215.24 383.78 215.24ZM392.111 215V203H394.967L395.183 205.352C395.503 204.52 395.967 203.88 396.575 203.432C397.199 202.984 397.975 202.76 398.903 202.76C399.175 202.76 399.423 202.784 399.647 202.832C399.871 202.88 400.055 202.944 400.199 203.024L399.815 205.784C399.655 205.72 399.455 205.672 399.215 205.64C398.991 205.608 398.695 205.592 398.327 205.592C397.847 205.592 397.383 205.712 396.935 205.952C396.487 206.176 396.119 206.528 395.831 207.008C395.543 207.472 395.399 208.064 395.399 208.784V215H392.111Z" fill="white"/>
<rect x="765.5" y="243.5" width="298" height="130" rx="3.5" fill="#7919FF" stroke="white"/>
<path d="M778.296 293V284H780.438L780.6 285.764C780.84 285.14 781.188 284.66 781.644 284.324C782.112 283.988 782.694 283.82 783.39 283.82C783.594 283.82 783.78 283.838 783.948 283.874C784.116 283.91 784.254 283.958 784.362 284.018L784.074 286.088C783.954 286.04 783.804 286.004 783.624 285.98C783.456 285.956 783.234 285.944 782.958 285.944C782.598 285.944 782.25 286.034 781.914 286.214C781.578 286.382 781.302 286.646 781.086 287.006C780.87 287.354 780.762 287.798 780.762 288.338V293H778.296ZM787.132 282.704C786.616 282.704 786.232 282.596 785.98 282.38C785.728 282.152 785.602 281.822 785.602 281.39C785.602 280.946 785.728 280.616 785.98 280.4C786.232 280.172 786.616 280.058 787.132 280.058C787.648 280.058 788.032 280.172 788.284 280.4C788.536 280.616 788.662 280.946 788.662 281.39C788.662 281.822 788.536 282.152 788.284 282.38C788.032 282.596 787.648 282.704 787.132 282.704ZM788.356 284V293H785.89V284H788.356ZM790.97 296.78V284H793.184L793.346 286.862L793.04 286.538C793.148 286.01 793.346 285.542 793.634 285.134C793.934 284.726 794.312 284.408 794.768 284.18C795.224 283.94 795.734 283.82 796.298 283.82C797.03 283.82 797.684 284.006 798.26 284.378C798.836 284.75 799.286 285.284 799.61 285.98C799.946 286.664 800.114 287.498 800.114 288.482C800.114 289.466 799.946 290.312 799.61 291.02C799.274 291.716 798.812 292.25 798.224 292.622C797.648 292.994 796.988 293.18 796.244 293.18C795.452 293.18 794.792 292.958 794.264 292.514C793.748 292.07 793.394 291.512 793.202 290.84L793.436 290.462V296.78H790.97ZM795.524 291.29C796.184 291.29 796.7 291.056 797.072 290.588C797.456 290.108 797.648 289.412 797.648 288.5C797.648 287.588 797.462 286.898 797.09 286.43C796.73 285.95 796.22 285.71 795.56 285.71C795.14 285.71 794.768 285.824 794.444 286.052C794.132 286.268 793.886 286.586 793.706 287.006C793.526 287.414 793.436 287.912 793.436 288.5C793.436 289.076 793.52 289.574 793.688 289.994C793.856 290.414 794.096 290.738 794.408 290.966C794.732 291.182 795.104 291.29 795.524 291.29ZM802.255 296.78V284H804.469L804.631 286.862L804.325 286.538C804.433 286.01 804.631 285.542 804.919 285.134C805.219 284.726 805.597 284.408 806.053 284.18C806.509 283.94 807.019 283.82 807.583 283.82C808.315 283.82 808.969 284.006 809.545 284.378C810.121 284.75 810.571 285.284 810.895 285.98C811.231 286.664 811.399 287.498 811.399 288.482C811.399 289.466 811.231 290.312 810.895 291.02C810.559 291.716 810.097 292.25 809.509 292.622C808.933 292.994 808.273 293.18 807.529 293.18C806.737 293.18 806.077 292.958 805.549 292.514C805.033 292.07 804.679 291.512 804.487 290.84L804.721 290.462V296.78H802.255ZM806.809 291.29C807.469 291.29 807.985 291.056 808.357 290.588C808.741 290.108 808.933 289.412 808.933 288.5C808.933 287.588 808.747 286.898 808.375 286.43C808.015 285.95 807.505 285.71 806.845 285.71C806.425 285.71 806.053 285.824 805.729 286.052C805.417 286.268 805.171 286.586 804.991 287.006C804.811 287.414 804.721 287.912 804.721 288.5C804.721 289.076 804.805 289.574 804.973 289.994C805.141 290.414 805.381 290.738 805.693 290.966C806.017 291.182 806.389 291.29 806.809 291.29ZM815.97 280.058V290.228C815.97 290.648 816.042 290.942 816.186 291.11C816.33 291.278 816.57 291.362 816.906 291.362C817.11 291.362 817.278 291.35 817.41 291.326C817.542 291.29 817.71 291.242 817.914 291.182L817.698 292.802C817.494 292.922 817.236 293.012 816.924 293.072C816.624 293.144 816.324 293.18 816.024 293.18C815.148 293.18 814.506 292.97 814.098 292.55C813.702 292.118 813.504 291.434 813.504 290.498V280.058H815.97ZM823.464 293.18C822.516 293.18 821.688 292.994 820.98 292.622C820.284 292.25 819.744 291.716 819.36 291.02C818.976 290.324 818.784 289.484 818.784 288.5C818.784 287.516 818.976 286.676 819.36 285.98C819.744 285.284 820.278 284.75 820.962 284.378C821.658 284.006 822.45 283.82 823.338 283.82C824.25 283.82 825.024 284.006 825.66 284.378C826.296 284.738 826.782 285.236 827.118 285.872C827.454 286.496 827.622 287.21 827.622 288.014C827.622 288.254 827.616 288.482 827.604 288.698C827.592 288.914 827.574 289.106 827.55 289.274H820.368V287.564H826.47L825.282 287.996C825.282 287.24 825.108 286.658 824.76 286.25C824.424 285.842 823.944 285.638 823.32 285.638C822.864 285.638 822.468 285.746 822.132 285.962C821.808 286.178 821.562 286.502 821.394 286.934C821.226 287.354 821.142 287.888 821.142 288.536C821.142 289.172 821.232 289.7 821.412 290.12C821.604 290.528 821.868 290.834 822.204 291.038C822.552 291.242 822.966 291.344 823.446 291.344C823.974 291.344 824.4 291.242 824.724 291.038C825.048 290.834 825.3 290.552 825.48 290.192L827.442 290.948C827.25 291.416 826.956 291.818 826.56 292.154C826.176 292.49 825.714 292.748 825.174 292.928C824.646 293.096 824.076 293.18 823.464 293.18ZM833.114 293.18C832.37 293.18 831.704 292.994 831.116 292.622C830.54 292.25 830.084 291.716 829.748 291.02C829.424 290.324 829.262 289.49 829.262 288.518C829.262 287.522 829.436 286.676 829.784 285.98C830.132 285.272 830.6 284.738 831.188 284.378C831.788 284.006 832.46 283.82 833.204 283.82C833.996 283.82 834.65 284.048 835.166 284.504C835.682 284.96 836.018 285.548 836.174 286.268L835.94 286.556V280.058H838.406V293H836.192L836.03 290.264L836.336 290.408C836.252 290.972 836.06 291.464 835.76 291.884C835.46 292.292 835.082 292.61 834.626 292.838C834.17 293.066 833.666 293.18 833.114 293.18ZM833.834 291.29C834.266 291.29 834.638 291.182 834.95 290.966C835.262 290.738 835.502 290.408 835.67 289.976C835.85 289.544 835.94 289.028 835.94 288.428C835.94 287.852 835.856 287.366 835.688 286.97C835.52 286.562 835.28 286.25 834.968 286.034C834.656 285.818 834.29 285.71 833.87 285.71C833.198 285.71 832.67 285.95 832.286 286.43C831.914 286.898 831.728 287.588 831.728 288.5C831.728 289.412 831.914 290.108 832.286 290.588C832.658 291.056 833.174 291.29 833.834 291.29ZM850.099 293.18C849.187 293.18 848.353 293.018 847.597 292.694C846.853 292.37 846.247 291.914 845.779 291.326L847.201 289.886C847.489 290.318 847.873 290.672 848.353 290.948C848.833 291.224 849.403 291.362 850.063 291.362C850.531 291.362 850.903 291.296 851.179 291.164C851.467 291.02 851.611 290.798 851.611 290.498C851.611 290.306 851.545 290.144 851.413 290.012C851.281 289.868 851.017 289.754 850.621 289.67L849.037 289.346C847.993 289.13 847.249 288.806 846.805 288.374C846.373 287.93 846.157 287.36 846.157 286.664C846.157 286.172 846.301 285.71 846.589 285.278C846.889 284.846 847.333 284.498 847.921 284.234C848.509 283.958 849.241 283.82 850.117 283.82C851.017 283.82 851.797 283.964 852.457 284.252C853.129 284.528 853.657 284.942 854.041 285.494L852.565 286.934C852.301 286.514 851.953 286.196 851.521 285.98C851.101 285.752 850.657 285.638 850.189 285.638C849.853 285.638 849.565 285.674 849.325 285.746C849.085 285.818 848.905 285.92 848.785 286.052C848.665 286.172 848.605 286.328 848.605 286.52C848.605 286.712 848.689 286.88 848.857 287.024C849.025 287.156 849.331 287.27 849.775 287.366L851.611 287.744C852.499 287.924 853.135 288.23 853.519 288.662C853.903 289.082 854.095 289.592 854.095 290.192C854.095 290.768 853.939 291.284 853.627 291.74C853.327 292.184 852.877 292.538 852.277 292.802C851.689 293.054 850.963 293.18 850.099 293.18ZM860.202 293.18C859.254 293.18 858.426 292.994 857.718 292.622C857.022 292.25 856.482 291.716 856.098 291.02C855.714 290.324 855.522 289.484 855.522 288.5C855.522 287.516 855.714 286.676 856.098 285.98C856.482 285.284 857.016 284.75 857.7 284.378C858.396 284.006 859.188 283.82 860.076 283.82C860.988 283.82 861.762 284.006 862.398 284.378C863.034 284.738 863.52 285.236 863.856 285.872C864.192 286.496 864.36 287.21 864.36 288.014C864.36 288.254 864.354 288.482 864.342 288.698C864.33 288.914 864.312 289.106 864.288 289.274H857.106V287.564H863.208L862.02 287.996C862.02 287.24 861.846 286.658 861.498 286.25C861.162 285.842 860.682 285.638 860.058 285.638C859.602 285.638 859.206 285.746 858.87 285.962C858.546 286.178 858.3 286.502 858.132 286.934C857.964 287.354 857.88 287.888 857.88 288.536C857.88 289.172 857.97 289.7 858.15 290.12C858.342 290.528 858.606 290.834 858.942 291.038C859.29 291.242 859.704 291.344 860.184 291.344C860.712 291.344 861.138 291.242 861.462 291.038C861.786 290.834 862.038 290.552 862.218 290.192L864.18 290.948C863.988 291.416 863.694 291.818 863.298 292.154C862.914 292.49 862.452 292.748 861.912 292.928C861.384 293.096 860.814 293.18 860.202 293.18ZM866.45 293V284H868.592L868.754 285.764C868.994 285.14 869.342 284.66 869.798 284.324C870.266 283.988 870.848 283.82 871.544 283.82C871.748 283.82 871.934 283.838 872.102 283.874C872.27 283.91 872.408 283.958 872.516 284.018L872.228 286.088C872.108 286.04 871.958 286.004 871.778 285.98C871.61 285.956 871.388 285.944 871.112 285.944C870.752 285.944 870.404 286.034 870.068 286.214C869.732 286.382 869.456 286.646 869.24 287.006C869.024 287.354 868.916 287.798 868.916 288.338V293H866.45ZM879.948 284H882.504L879.084 293H876.24L872.82 284H875.448L877.68 291.11L879.948 284ZM887.941 293.18C886.993 293.18 886.165 292.994 885.457 292.622C884.761 292.25 884.221 291.716 883.837 291.02C883.453 290.324 883.261 289.484 883.261 288.5C883.261 287.516 883.453 286.676 883.837 285.98C884.221 285.284 884.755 284.75 885.439 284.378C886.135 284.006 886.927 283.82 887.815 283.82C888.727 283.82 889.501 284.006 890.137 284.378C890.773 284.738 891.259 285.236 891.595 285.872C891.931 286.496 892.099 287.21 892.099 288.014C892.099 288.254 892.093 288.482 892.081 288.698C892.069 288.914 892.051 289.106 892.027 289.274H884.845V287.564H890.947L889.759 287.996C889.759 287.24 889.585 286.658 889.237 286.25C888.901 285.842 888.421 285.638 887.797 285.638C887.341 285.638 886.945 285.746 886.609 285.962C886.285 286.178 886.039 286.502 885.871 286.934C885.703 287.354 885.619 287.888 885.619 288.536C885.619 289.172 885.709 289.7 885.889 290.12C886.081 290.528 886.345 290.834 886.681 291.038C887.029 291.242 887.443 291.344 887.923 291.344C888.451 291.344 888.877 291.242 889.201 291.038C889.525 290.834 889.777 290.552 889.957 290.192L891.919 290.948C891.727 291.416 891.433 291.818 891.037 292.154C890.653 292.49 890.191 292.748 889.651 292.928C889.123 293.096 888.553 293.18 887.941 293.18ZM894.189 293V284H896.331L896.493 285.764C896.733 285.14 897.081 284.66 897.537 284.324C898.005 283.988 898.587 283.82 899.283 283.82C899.487 283.82 899.673 283.838 899.841 283.874C900.009 283.91 900.147 283.958 900.255 284.018L899.967 286.088C899.847 286.04 899.697 286.004 899.517 285.98C899.349 285.956 899.127 285.944 898.851 285.944C898.491 285.944 898.143 286.034 897.807 286.214C897.471 286.382 897.195 286.646 896.979 287.006C896.763 287.354 896.655 287.798 896.655 288.338V293H894.189Z" fill="white"/>
<circle cx="826.5" cy="107.955" r="16.5" stroke="#32E685" stroke-width="2"/>
<circle cx="970.5" cy="107.5" r="16.5" stroke="#32E685" stroke-width="2"/>
<path d="M1027.5 346.5C1027.5 348.109 1026.35 349.754 1023.99 351.34C1021.65 352.914 1018.22 354.35 1013.95 355.565C1005.41 357.992 993.584 359.5 980.5 359.5C967.416 359.5 955.589 357.992 947.049 355.565C942.776 354.35 939.354 352.914 937.012 351.34C934.652 349.754 933.5 348.109 933.5 346.5C933.5 344.891 934.652 343.246 937.012 341.66C939.354 340.086 942.776 338.65 947.049 337.435C955.589 335.008 967.416 333.5 980.5 333.5C993.584 333.5 1005.41 335.008 1013.95 337.435C1018.22 338.65 1021.65 340.086 1023.99 341.66C1026.35 343.246 1027.5 344.891 1027.5 346.5Z" fill="white" stroke="black"/>
<mask id="path-10-inside-1_487_498" fill="white">
<path d="M933 311H1028V347H933V311Z"/>
</mask>
<path d="M933 311H1028V347H933V311Z" fill="white"/>
<path d="M1027 311V347H1029V311H1027ZM934 347V311H932V347H934Z" fill="black" mask="url(#path-10-inside-1_487_498)"/>
<path d="M1027.5 310.5C1027.5 312.109 1026.35 313.754 1023.99 315.34C1021.65 316.914 1018.22 318.35 1013.95 319.565C1005.41 321.992 993.584 323.5 980.5 323.5C967.416 323.5 955.589 321.992 947.049 319.565C942.776 318.35 939.354 316.914 937.012 315.34C934.652 313.754 933.5 312.109 933.5 310.5C933.5 308.891 934.652 307.246 937.012 305.66C939.354 304.086 942.776 302.65 947.049 301.435C955.589 299.008 967.416 297.5 980.5 297.5C993.584 297.5 1005.41 299.008 1013.95 301.435C1018.22 302.65 1021.65 304.086 1023.99 305.66C1026.35 307.246 1027.5 308.891 1027.5 310.5Z" fill="white" stroke="black"/>
<path d="M947.688 333.08V341H946.032V333.08H947.688ZM949.544 341V335H951.02L951.116 336.8L950.912 336.608C951.008 336.216 951.16 335.892 951.368 335.636C951.576 335.38 951.828 335.192 952.124 335.072C952.428 334.944 952.76 334.88 953.12 334.88C953.536 334.88 953.904 334.96 954.224 335.12C954.552 335.28 954.808 335.524 954.992 335.852C955.184 336.172 955.28 336.576 955.28 337.064V341H953.636V337.532C953.636 337.02 953.536 336.668 953.336 336.476C953.136 336.276 952.876 336.176 952.556 336.176C952.332 336.176 952.112 336.232 951.896 336.344C951.688 336.448 951.516 336.62 951.38 336.86C951.252 337.1 951.188 337.42 951.188 337.82V341H949.544ZM959.051 333.164V339.044C959.051 339.332 959.123 339.544 959.267 339.68C959.419 339.808 959.623 339.872 959.879 339.872C960.079 339.872 960.255 339.844 960.407 339.788C960.559 339.724 960.695 339.64 960.815 339.536L961.079 340.628C960.887 340.78 960.647 340.9 960.359 340.988C960.071 341.076 959.767 341.12 959.447 341.12C959.047 341.12 958.691 341.06 958.379 340.94C958.075 340.82 957.835 340.628 957.659 340.364C957.491 340.1 957.407 339.748 957.407 339.308V333.62L959.051 333.164ZM960.971 335V336.224H956.303V335H960.971ZM964.867 341.12C964.235 341.12 963.683 340.996 963.211 340.748C962.747 340.5 962.387 340.144 962.131 339.68C961.875 339.216 961.747 338.656 961.747 338C961.747 337.344 961.875 336.784 962.131 336.32C962.387 335.856 962.743 335.5 963.199 335.252C963.663 335.004 964.191 334.88 964.783 334.88C965.391 334.88 965.907 335.004 966.331 335.252C966.755 335.492 967.079 335.824 967.303 336.248C967.527 336.664 967.639 337.14 967.639 337.676C967.639 337.836 967.635 337.988 967.627 338.132C967.619 338.276 967.607 338.404 967.591 338.516H962.803V337.376H966.871L966.079 337.664C966.079 337.16 965.963 336.772 965.731 336.5C965.507 336.228 965.187 336.092 964.771 336.092C964.467 336.092 964.203 336.164 963.979 336.308C963.763 336.452 963.599 336.668 963.487 336.956C963.375 337.236 963.319 337.592 963.319 338.024C963.319 338.448 963.379 338.8 963.499 339.08C963.627 339.352 963.803 339.556 964.027 339.692C964.259 339.828 964.535 339.896 964.855 339.896C965.207 339.896 965.491 339.828 965.707 339.692C965.923 339.556 966.091 339.368 966.211 339.128L967.519 339.632C967.391 339.944 967.195 340.212 966.931 340.436C966.675 340.66 966.367 340.832 966.007 340.952C965.655 341.064 965.275 341.12 964.867 341.12ZM969.032 341V335H970.46L970.568 336.176C970.728 335.76 970.96 335.44 971.264 335.216C971.576 334.992 971.964 334.88 972.428 334.88C972.564 334.88 972.688 334.892 972.8 334.916C972.912 334.94 973.004 334.972 973.076 335.012L972.884 336.392C972.804 336.36 972.704 336.336 972.584 336.32C972.472 336.304 972.324 336.296 972.14 336.296C971.9 336.296 971.668 336.356 971.444 336.476C971.22 336.588 971.036 336.764 970.892 337.004C970.748 337.236 970.676 337.532 970.676 337.892V341H969.032ZM974.094 341V335H975.57L975.666 336.8L975.462 336.608C975.558 336.216 975.71 335.892 975.918 335.636C976.126 335.38 976.378 335.192 976.674 335.072C976.978 334.944 977.31 334.88 977.67 334.88C978.086 334.88 978.454 334.96 978.774 335.12C979.102 335.28 979.358 335.524 979.542 335.852C979.734 336.172 979.83 336.576 979.83 337.064V341H978.186V337.532C978.186 337.02 978.086 336.668 977.886 336.476C977.686 336.276 977.426 336.176 977.106 336.176C976.882 336.176 976.662 336.232 976.446 336.344C976.238 336.448 976.066 336.62 975.93 336.86C975.802 337.1 975.738 337.42 975.738 337.82V341H974.094ZM984.944 337.172C984.944 336.828 984.844 336.56 984.644 336.368C984.452 336.176 984.196 336.08 983.876 336.08C983.58 336.08 983.32 336.156 983.096 336.308C982.872 336.46 982.708 336.712 982.604 337.064L981.2 336.632C981.336 336.104 981.632 335.68 982.088 335.36C982.552 335.04 983.172 334.88 983.948 334.88C984.476 334.88 984.936 334.964 985.328 335.132C985.72 335.292 986.024 335.536 986.24 335.864C986.464 336.192 986.576 336.604 986.576 337.1V339.536C986.576 339.84 986.72 339.992 987.008 339.992C987.144 339.992 987.272 339.972 987.392 339.932L987.296 340.952C987.088 341.056 986.828 341.108 986.516 341.108C986.236 341.108 985.984 341.06 985.76 340.964C985.536 340.868 985.36 340.724 985.232 340.532C985.104 340.332 985.04 340.084 985.04 339.788V339.74L985.328 339.692C985.28 339.996 985.148 340.256 984.932 340.472C984.716 340.68 984.452 340.84 984.14 340.952C983.836 341.064 983.52 341.12 983.192 341.12C982.784 341.12 982.432 341.06 982.136 340.94C981.84 340.812 981.612 340.628 981.452 340.388C981.292 340.148 981.212 339.852 981.212 339.5C981.212 339.052 981.356 338.688 981.644 338.408C981.932 338.12 982.344 337.924 982.88 337.82L985.136 337.364L985.124 338.384L983.684 338.672C983.412 338.728 983.204 338.804 983.06 338.9C982.924 338.988 982.856 339.136 982.856 339.344C982.856 339.544 982.928 339.696 983.072 339.8C983.224 339.904 983.404 339.956 983.612 339.956C983.78 339.956 983.944 339.936 984.104 339.896C984.264 339.856 984.408 339.792 984.536 339.704C984.664 339.616 984.764 339.496 984.836 339.344C984.908 339.192 984.944 339.008 984.944 338.792V337.172ZM990.035 332.372V339.152C990.035 339.432 990.083 339.628 990.179 339.74C990.275 339.852 990.435 339.908 990.659 339.908C990.795 339.908 990.907 339.9 990.995 339.884C991.083 339.86 991.195 339.828 991.331 339.788L991.187 340.868C991.051 340.948 990.879 341.008 990.671 341.048C990.471 341.096 990.271 341.12 990.071 341.12C989.487 341.12 989.059 340.98 988.787 340.7C988.523 340.412 988.391 339.956 988.391 339.332V332.372H990.035ZM998.885 333.08C1000.12 333.08 1001.08 333.424 1001.76 334.112C1002.44 334.792 1002.78 335.768 1002.78 337.04C1002.78 338.304 1002.44 339.28 1001.76 339.968C1001.08 340.656 1000.12 341 998.885 341H995.825V333.08H998.885ZM998.801 339.68C999.553 339.68 1000.12 339.456 1000.49 339.008C1000.88 338.552 1001.07 337.896 1001.07 337.04C1001.07 336.184 1000.88 335.532 1000.49 335.084C1000.12 334.628 999.553 334.4 998.801 334.4H997.481V339.68H998.801ZM1004.45 341V333.08H1007.92C1008.88 333.08 1009.59 333.268 1010.04 333.644C1010.5 334.02 1010.73 334.552 1010.73 335.24C1010.73 335.664 1010.6 336.04 1010.34 336.368C1010.09 336.696 1009.71 336.904 1009.21 336.992V337.004C1009.77 337.084 1010.19 337.292 1010.49 337.628C1010.78 337.964 1010.93 338.364 1010.93 338.828C1010.93 339.508 1010.68 340.04 1010.19 340.424C1009.7 340.808 1008.98 341 1008.04 341H1004.45ZM1006.06 339.752H1007.89C1008.34 339.752 1008.67 339.66 1008.89 339.476C1009.11 339.292 1009.21 339.036 1009.21 338.708C1009.21 338.372 1009.11 338.116 1008.89 337.94C1008.67 337.764 1008.34 337.676 1007.89 337.676H1006.06V339.752ZM1006.06 336.404H1007.7C1008.57 336.404 1009.01 336.064 1009.01 335.384C1009.01 334.704 1008.57 334.364 1007.7 334.364H1006.06V336.404ZM1014.74 341.12C1014.14 341.12 1013.58 341.012 1013.08 340.796C1012.58 340.58 1012.18 340.276 1011.86 339.884L1012.81 338.924C1013 339.212 1013.26 339.448 1013.58 339.632C1013.9 339.816 1014.28 339.908 1014.72 339.908C1015.03 339.908 1015.28 339.864 1015.46 339.776C1015.66 339.68 1015.75 339.532 1015.75 339.332C1015.75 339.204 1015.71 339.096 1015.62 339.008C1015.53 338.912 1015.36 338.836 1015.09 338.78L1014.04 338.564C1013.34 338.42 1012.84 338.204 1012.55 337.916C1012.26 337.62 1012.12 337.24 1012.12 336.776C1012.12 336.448 1012.21 336.14 1012.4 335.852C1012.6 335.564 1012.9 335.332 1013.29 335.156C1013.68 334.972 1014.17 334.88 1014.76 334.88C1015.36 334.88 1015.88 334.976 1016.32 335.168C1016.76 335.352 1017.12 335.628 1017.37 335.996L1016.39 336.956C1016.21 336.676 1015.98 336.464 1015.69 336.32C1015.41 336.168 1015.12 336.092 1014.8 336.092C1014.58 336.092 1014.39 336.116 1014.23 336.164C1014.07 336.212 1013.95 336.28 1013.87 336.368C1013.79 336.448 1013.75 336.552 1013.75 336.68C1013.75 336.808 1013.8 336.92 1013.92 337.016C1014.03 337.104 1014.23 337.18 1014.53 337.244L1015.75 337.496C1016.34 337.616 1016.77 337.82 1017.02 338.108C1017.28 338.388 1017.41 338.728 1017.41 339.128C1017.41 339.512 1017.3 339.856 1017.1 340.16C1016.9 340.456 1016.6 340.692 1016.2 340.868C1015.8 341.036 1015.32 341.12 1014.74 341.12Z" fill="black"/>
<rect x="299.5" y="249.5" width="266" height="80" rx="3.5" fill="#4A00B3" stroke="white"/>
<rect x="321.5" y="271.5" width="266" height="80" rx="3.5" fill="#4A00B3" stroke="white"/>
<rect x="343.5" y="293.5" width="266" height="80" rx="3.5" fill="#7919FF" stroke="white"/>
<path d="M351.296 330V321H353.438L353.6 322.764C353.84 322.14 354.188 321.66 354.644 321.324C355.112 320.988 355.694 320.82 356.39 320.82C356.594 320.82 356.78 320.838 356.948 320.874C357.116 320.91 357.254 320.958 357.362 321.018L357.074 323.088C356.954 323.04 356.804 323.004 356.624 322.98C356.456 322.956 356.234 322.944 355.958 322.944C355.598 322.944 355.25 323.034 354.914 323.214C354.578 323.382 354.302 323.646 354.086 324.006C353.87 324.354 353.762 324.798 353.762 325.338V330H351.296ZM360.132 319.704C359.616 319.704 359.232 319.596 358.98 319.38C358.728 319.152 358.602 318.822 358.602 318.39C358.602 317.946 358.728 317.616 358.98 317.4C359.232 317.172 359.616 317.058 360.132 317.058C360.648 317.058 361.032 317.172 361.284 317.4C361.536 317.616 361.662 317.946 361.662 318.39C361.662 318.822 361.536 319.152 361.284 319.38C361.032 319.596 360.648 319.704 360.132 319.704ZM361.356 321V330H358.89V321H361.356ZM363.97 333.78V321H366.184L366.346 323.862L366.04 323.538C366.148 323.01 366.346 322.542 366.634 322.134C366.934 321.726 367.312 321.408 367.768 321.18C368.224 320.94 368.734 320.82 369.298 320.82C370.03 320.82 370.684 321.006 371.26 321.378C371.836 321.75 372.286 322.284 372.61 322.98C372.946 323.664 373.114 324.498 373.114 325.482C373.114 326.466 372.946 327.312 372.61 328.02C372.274 328.716 371.812 329.25 371.224 329.622C370.648 329.994 369.988 330.18 369.244 330.18C368.452 330.18 367.792 329.958 367.264 329.514C366.748 329.07 366.394 328.512 366.202 327.84L366.436 327.462V333.78H363.97ZM368.524 328.29C369.184 328.29 369.7 328.056 370.072 327.588C370.456 327.108 370.648 326.412 370.648 325.5C370.648 324.588 370.462 323.898 370.09 323.43C369.73 322.95 369.22 322.71 368.56 322.71C368.14 322.71 367.768 322.824 367.444 323.052C367.132 323.268 366.886 323.586 366.706 324.006C366.526 324.414 366.436 324.912 366.436 325.5C366.436 326.076 366.52 326.574 366.688 326.994C366.856 327.414 367.096 327.738 367.408 327.966C367.732 328.182 368.104 328.29 368.524 328.29ZM375.255 333.78V321H377.469L377.631 323.862L377.325 323.538C377.433 323.01 377.631 322.542 377.919 322.134C378.219 321.726 378.597 321.408 379.053 321.18C379.509 320.94 380.019 320.82 380.583 320.82C381.315 320.82 381.969 321.006 382.545 321.378C383.121 321.75 383.571 322.284 383.895 322.98C384.231 323.664 384.399 324.498 384.399 325.482C384.399 326.466 384.231 327.312 383.895 328.02C383.559 328.716 383.097 329.25 382.509 329.622C381.933 329.994 381.273 330.18 380.529 330.18C379.737 330.18 379.077 329.958 378.549 329.514C378.033 329.07 377.679 328.512 377.487 327.84L377.721 327.462V333.78H375.255ZM379.809 328.29C380.469 328.29 380.985 328.056 381.357 327.588C381.741 327.108 381.933 326.412 381.933 325.5C381.933 324.588 381.747 323.898 381.375 323.43C381.015 322.95 380.505 322.71 379.845 322.71C379.425 322.71 379.053 322.824 378.729 323.052C378.417 323.268 378.171 323.586 377.991 324.006C377.811 324.414 377.721 324.912 377.721 325.5C377.721 326.076 377.805 326.574 377.973 326.994C378.141 327.414 378.381 327.738 378.693 327.966C379.017 328.182 379.389 328.29 379.809 328.29ZM388.97 317.058V327.228C388.97 327.648 389.042 327.942 389.186 328.11C389.33 328.278 389.57 328.362 389.906 328.362C390.11 328.362 390.278 328.35 390.41 328.326C390.542 328.29 390.71 328.242 390.914 328.182L390.698 329.802C390.494 329.922 390.236 330.012 389.924 330.072C389.624 330.144 389.324 330.18 389.024 330.18C388.148 330.18 387.506 329.97 387.098 329.55C386.702 329.118 386.504 328.434 386.504 327.498V317.058H388.97ZM396.464 330.18C395.516 330.18 394.688 329.994 393.98 329.622C393.284 329.25 392.744 328.716 392.36 328.02C391.976 327.324 391.784 326.484 391.784 325.5C391.784 324.516 391.976 323.676 392.36 322.98C392.744 322.284 393.278 321.75 393.962 321.378C394.658 321.006 395.45 320.82 396.338 320.82C397.25 320.82 398.024 321.006 398.66 321.378C399.296 321.738 399.782 322.236 400.118 322.872C400.454 323.496 400.622 324.21 400.622 325.014C400.622 325.254 400.616 325.482 400.604 325.698C400.592 325.914 400.574 326.106 400.55 326.274H393.368V324.564H399.47L398.282 324.996C398.282 324.24 398.108 323.658 397.76 323.25C397.424 322.842 396.944 322.638 396.32 322.638C395.864 322.638 395.468 322.746 395.132 322.962C394.808 323.178 394.562 323.502 394.394 323.934C394.226 324.354 394.142 324.888 394.142 325.536C394.142 326.172 394.232 326.7 394.412 327.12C394.604 327.528 394.868 327.834 395.204 328.038C395.552 328.242 395.966 328.344 396.446 328.344C396.974 328.344 397.4 328.242 397.724 328.038C398.048 327.834 398.3 327.552 398.48 327.192L400.442 327.948C400.25 328.416 399.956 328.818 399.56 329.154C399.176 329.49 398.714 329.748 398.174 329.928C397.646 330.096 397.076 330.18 396.464 330.18ZM406.114 330.18C405.37 330.18 404.704 329.994 404.116 329.622C403.54 329.25 403.084 328.716 402.748 328.02C402.424 327.324 402.262 326.49 402.262 325.518C402.262 324.522 402.436 323.676 402.784 322.98C403.132 322.272 403.6 321.738 404.188 321.378C404.788 321.006 405.46 320.82 406.204 320.82C406.996 320.82 407.65 321.048 408.166 321.504C408.682 321.96 409.018 322.548 409.174 323.268L408.94 323.556V317.058H411.406V330H409.192L409.03 327.264L409.336 327.408C409.252 327.972 409.06 328.464 408.76 328.884C408.46 329.292 408.082 329.61 407.626 329.838C407.17 330.066 406.666 330.18 406.114 330.18ZM406.834 328.29C407.266 328.29 407.638 328.182 407.95 327.966C408.262 327.738 408.502 327.408 408.67 326.976C408.85 326.544 408.94 326.028 408.94 325.428C408.94 324.852 408.856 324.366 408.688 323.97C408.52 323.562 408.28 323.25 407.968 323.034C407.656 322.818 407.29 322.71 406.87 322.71C406.198 322.71 405.67 322.95 405.286 323.43C404.914 323.898 404.728 324.588 404.728 325.5C404.728 326.412 404.914 327.108 405.286 327.588C405.658 328.056 406.174 328.29 406.834 328.29ZM423.099 330.18C422.187 330.18 421.353 330.018 420.597 329.694C419.853 329.37 419.247 328.914 418.779 328.326L420.201 326.886C420.489 327.318 420.873 327.672 421.353 327.948C421.833 328.224 422.403 328.362 423.063 328.362C423.531 328.362 423.903 328.296 424.179 328.164C424.467 328.02 424.611 327.798 424.611 327.498C424.611 327.306 424.545 327.144 424.413 327.012C424.281 326.868 424.017 326.754 423.621 326.67L422.037 326.346C420.993 326.13 420.249 325.806 419.805 325.374C419.373 324.93 419.157 324.36 419.157 323.664C419.157 323.172 419.301 322.71 419.589 322.278C419.889 321.846 420.333 321.498 420.921 321.234C421.509 320.958 422.241 320.82 423.117 320.82C424.017 320.82 424.797 320.964 425.457 321.252C426.129 321.528 426.657 321.942 427.041 322.494L425.565 323.934C425.301 323.514 424.953 323.196 424.521 322.98C424.101 322.752 423.657 322.638 423.189 322.638C422.853 322.638 422.565 322.674 422.325 322.746C422.085 322.818 421.905 322.92 421.785 323.052C421.665 323.172 421.605 323.328 421.605 323.52C421.605 323.712 421.689 323.88 421.857 324.024C422.025 324.156 422.331 324.27 422.775 324.366L424.611 324.744C425.499 324.924 426.135 325.23 426.519 325.662C426.903 326.082 427.095 326.592 427.095 327.192C427.095 327.768 426.939 328.284 426.627 328.74C426.327 329.184 425.877 329.538 425.277 329.802C424.689 330.054 423.963 330.18 423.099 330.18ZM433.202 330.18C432.254 330.18 431.426 329.994 430.718 329.622C430.022 329.25 429.482 328.716 429.098 328.02C428.714 327.324 428.522 326.484 428.522 325.5C428.522 324.516 428.714 323.676 429.098 322.98C429.482 322.284 430.016 321.75 430.7 321.378C431.396 321.006 432.188 320.82 433.076 320.82C433.988 320.82 434.762 321.006 435.398 321.378C436.034 321.738 436.52 322.236 436.856 322.872C437.192 323.496 437.36 324.21 437.36 325.014C437.36 325.254 437.354 325.482 437.342 325.698C437.33 325.914 437.312 326.106 437.288 326.274H430.106V324.564H436.208L435.02 324.996C435.02 324.24 434.846 323.658 434.498 323.25C434.162 322.842 433.682 322.638 433.058 322.638C432.602 322.638 432.206 322.746 431.87 322.962C431.546 323.178 431.3 323.502 431.132 323.934C430.964 324.354 430.88 324.888 430.88 325.536C430.88 326.172 430.97 326.7 431.15 327.12C431.342 327.528 431.606 327.834 431.942 328.038C432.29 328.242 432.704 328.344 433.184 328.344C433.712 328.344 434.138 328.242 434.462 328.038C434.786 327.834 435.038 327.552 435.218 327.192L437.18 327.948C436.988 328.416 436.694 328.818 436.298 329.154C435.914 329.49 435.452 329.748 434.912 329.928C434.384 330.096 433.814 330.18 433.202 330.18ZM439.45 330V321H441.592L441.754 322.764C441.994 322.14 442.342 321.66 442.798 321.324C443.266 320.988 443.848 320.82 444.544 320.82C444.748 320.82 444.934 320.838 445.102 320.874C445.27 320.91 445.408 320.958 445.516 321.018L445.228 323.088C445.108 323.04 444.958 323.004 444.778 322.98C444.61 322.956 444.388 322.944 444.112 322.944C443.752 322.944 443.404 323.034 443.068 323.214C442.732 323.382 442.456 323.646 442.24 324.006C442.024 324.354 441.916 324.798 441.916 325.338V330H439.45ZM452.948 321H455.504L452.084 330H449.24L445.82 321H448.448L450.68 328.11L452.948 321ZM460.941 330.18C459.993 330.18 459.165 329.994 458.457 329.622C457.761 329.25 457.221 328.716 456.837 328.02C456.453 327.324 456.261 326.484 456.261 325.5C456.261 324.516 456.453 323.676 456.837 322.98C457.221 322.284 457.755 321.75 458.439 321.378C459.135 321.006 459.927 320.82 460.815 320.82C461.727 320.82 462.501 321.006 463.137 321.378C463.773 321.738 464.259 322.236 464.595 322.872C464.931 323.496 465.099 324.21 465.099 325.014C465.099 325.254 465.093 325.482 465.081 325.698C465.069 325.914 465.051 326.106 465.027 326.274H457.845V324.564H463.947L462.759 324.996C462.759 324.24 462.585 323.658 462.237 323.25C461.901 322.842 461.421 322.638 460.797 322.638C460.341 322.638 459.945 322.746 459.609 322.962C459.285 323.178 459.039 323.502 458.871 323.934C458.703 324.354 458.619 324.888 458.619 325.536C458.619 326.172 458.709 326.7 458.889 327.12C459.081 327.528 459.345 327.834 459.681 328.038C460.029 328.242 460.443 328.344 460.923 328.344C461.451 328.344 461.877 328.242 462.201 328.038C462.525 327.834 462.777 327.552 462.957 327.192L464.919 327.948C464.727 328.416 464.433 328.818 464.037 329.154C463.653 329.49 463.191 329.748 462.651 329.928C462.123 330.096 461.553 330.18 460.941 330.18ZM467.189 330V321H469.331L469.493 322.764C469.733 322.14 470.081 321.66 470.537 321.324C471.005 320.988 471.587 320.82 472.283 320.82C472.487 320.82 472.673 320.838 472.841 320.874C473.009 320.91 473.147 320.958 473.255 321.018L472.967 323.088C472.847 323.04 472.697 323.004 472.517 322.98C472.349 322.956 472.127 322.944 471.851 322.944C471.491 322.944 471.143 323.034 470.807 323.214C470.471 323.382 470.195 323.646 469.979 324.006C469.763 324.354 469.655 324.798 469.655 325.338V330H467.189ZM478.136 330.18C477.224 330.18 476.39 330.018 475.634 329.694C474.89 329.37 474.284 328.914 473.816 328.326L475.238 326.886C475.526 327.318 475.91 327.672 476.39 327.948C476.87 328.224 477.44 328.362 478.1 328.362C478.568 328.362 478.94 328.296 479.216 328.164C479.504 328.02 479.648 327.798 479.648 327.498C479.648 327.306 479.582 327.144 479.45 327.012C479.318 326.868 479.054 326.754 478.658 326.67L477.074 326.346C476.03 326.13 475.286 325.806 474.842 325.374C474.41 324.93 474.194 324.36 474.194 323.664C474.194 323.172 474.338 322.71 474.626 322.278C474.926 321.846 475.37 321.498 475.958 321.234C476.546 320.958 477.278 320.82 478.154 320.82C479.054 320.82 479.834 320.964 480.494 321.252C481.166 321.528 481.694 321.942 482.078 322.494L480.602 323.934C480.338 323.514 479.99 323.196 479.558 322.98C479.138 322.752 478.694 322.638 478.226 322.638C477.89 322.638 477.602 322.674 477.362 322.746C477.122 322.818 476.942 322.92 476.822 323.052C476.702 323.172 476.642 323.328 476.642 323.52C476.642 323.712 476.726 323.88 476.894 324.024C477.062 324.156 477.368 324.27 477.812 324.366L479.648 324.744C480.536 324.924 481.172 325.23 481.556 325.662C481.94 326.082 482.132 326.592 482.132 327.192C482.132 327.768 481.976 328.284 481.664 328.74C481.364 329.184 480.914 329.538 480.314 329.802C479.726 330.054 479 330.18 478.136 330.18ZM355.238 337.644L356.462 338.85C355.742 339.498 355.16 340.188 354.716 340.92C354.272 341.64 353.948 342.42 353.744 343.26C353.552 344.1 353.456 345.024 353.456 346.032C353.456 347.04 353.552 347.97 353.744 348.822C353.948 349.662 354.272 350.442 354.716 351.162C355.16 351.882 355.742 352.572 356.462 353.232L355.238 354.438C353.906 353.442 352.892 352.242 352.196 350.838C351.512 349.434 351.17 347.832 351.17 346.032C351.17 344.244 351.512 342.648 352.196 341.244C352.892 339.828 353.906 338.628 355.238 337.644ZM360.692 351.18C359.948 351.18 359.282 350.994 358.694 350.622C358.118 350.25 357.662 349.716 357.326 349.02C357.002 348.324 356.84 347.49 356.84 346.518C356.84 345.522 357.014 344.676 357.362 343.98C357.71 343.272 358.178 342.738 358.766 342.378C359.366 342.006 360.038 341.82 360.782 341.82C361.574 341.82 362.228 342.048 362.744 342.504C363.26 342.96 363.596 343.548 363.752 344.268L363.518 344.556V338.058H365.984V351H363.77L363.608 348.264L363.914 348.408C363.83 348.972 363.638 349.464 363.338 349.884C363.038 350.292 362.66 350.61 362.204 350.838C361.748 351.066 361.244 351.18 360.692 351.18ZM361.412 349.29C361.844 349.29 362.216 349.182 362.528 348.966C362.84 348.738 363.08 348.408 363.248 347.976C363.428 347.544 363.518 347.028 363.518 346.428C363.518 345.852 363.434 345.366 363.266 344.97C363.098 344.562 362.858 344.25 362.546 344.034C362.234 343.818 361.868 343.71 361.448 343.71C360.776 343.71 360.248 343.95 359.864 344.43C359.492 344.898 359.306 345.588 359.306 346.5C359.306 347.412 359.492 348.108 359.864 348.588C360.236 349.056 360.752 349.29 361.412 349.29ZM369.817 340.704C369.301 340.704 368.917 340.596 368.665 340.38C368.413 340.152 368.287 339.822 368.287 339.39C368.287 338.946 368.413 338.616 368.665 338.4C368.917 338.172 369.301 338.058 369.817 338.058C370.333 338.058 370.717 338.172 370.969 338.4C371.221 338.616 371.347 338.946 371.347 339.39C371.347 339.822 371.221 340.152 370.969 340.38C370.717 340.596 370.333 340.704 369.817 340.704ZM371.041 342V351H368.575V342H371.041ZM373.655 351V342H375.797L375.959 343.764C376.199 343.14 376.547 342.66 377.003 342.324C377.471 341.988 378.053 341.82 378.749 341.82C378.953 341.82 379.139 341.838 379.307 341.874C379.475 341.91 379.613 341.958 379.721 342.018L379.433 344.088C379.313 344.04 379.163 344.004 378.983 343.98C378.815 343.956 378.593 343.944 378.317 343.944C377.957 343.944 377.609 344.034 377.273 344.214C376.937 344.382 376.661 344.646 376.445 345.006C376.229 345.354 376.121 345.798 376.121 346.338V351H373.655ZM385.249 351.18C384.301 351.18 383.473 350.994 382.765 350.622C382.069 350.25 381.529 349.716 381.145 349.02C380.761 348.324 380.569 347.484 380.569 346.5C380.569 345.516 380.761 344.676 381.145 343.98C381.529 343.284 382.063 342.75 382.747 342.378C383.443 342.006 384.235 341.82 385.123 341.82C386.035 341.82 386.809 342.006 387.445 342.378C388.081 342.738 388.567 343.236 388.903 343.872C389.239 344.496 389.407 345.21 389.407 346.014C389.407 346.254 389.401 346.482 389.389 346.698C389.377 346.914 389.359 347.106 389.335 347.274H382.153V345.564H388.255L387.067 345.996C387.067 345.24 386.893 344.658 386.545 344.25C386.209 343.842 385.729 343.638 385.105 343.638C384.649 343.638 384.253 343.746 383.917 343.962C383.593 344.178 383.347 344.502 383.179 344.934C383.011 345.354 382.927 345.888 382.927 346.536C382.927 347.172 383.017 347.7 383.197 348.12C383.389 348.528 383.653 348.834 383.989 349.038C384.337 349.242 384.751 349.344 385.231 349.344C385.759 349.344 386.185 349.242 386.509 349.038C386.833 348.834 387.085 348.552 387.265 348.192L389.227 348.948C389.035 349.416 388.741 349.818 388.345 350.154C387.961 350.49 387.499 350.748 386.959 350.928C386.431 351.096 385.861 351.18 385.249 351.18ZM395.583 341.82C396.387 341.82 397.065 341.94 397.617 342.18C398.181 342.408 398.631 342.726 398.967 343.134C399.315 343.53 399.561 343.974 399.705 344.466L397.401 345.294C397.281 344.754 397.077 344.346 396.789 344.07C396.501 343.794 396.111 343.656 395.619 343.656C395.163 343.656 394.773 343.764 394.449 343.98C394.125 344.184 393.879 344.502 393.711 344.934C393.543 345.354 393.459 345.882 393.459 346.518C393.459 347.154 393.543 347.682 393.711 348.102C393.891 348.522 394.143 348.834 394.467 349.038C394.803 349.242 395.193 349.344 395.637 349.344C395.997 349.344 396.303 349.284 396.555 349.164C396.807 349.032 397.011 348.846 397.167 348.606C397.335 348.366 397.449 348.078 397.509 347.742L399.741 348.462C399.609 349.002 399.363 349.476 399.003 349.884C398.643 350.292 398.181 350.61 397.617 350.838C397.053 351.066 396.399 351.18 395.655 351.18C394.731 351.18 393.915 350.994 393.207 350.622C392.499 350.25 391.953 349.716 391.569 349.02C391.185 348.324 390.993 347.484 390.993 346.5C390.993 345.516 391.185 344.676 391.569 343.98C391.953 343.284 392.493 342.75 393.189 342.378C393.885 342.006 394.683 341.82 395.583 341.82ZM404.843 339.246V348.066C404.843 348.498 404.951 348.816 405.167 349.02C405.395 349.212 405.701 349.308 406.085 349.308C406.385 349.308 406.649 349.266 406.877 349.182C407.105 349.086 407.309 348.96 407.489 348.804L407.885 350.442C407.597 350.67 407.237 350.85 406.805 350.982C406.373 351.114 405.917 351.18 405.437 351.18C404.837 351.18 404.303 351.09 403.835 350.91C403.379 350.73 403.019 350.442 402.755 350.046C402.503 349.65 402.377 349.122 402.377 348.462V339.93L404.843 339.246ZM407.723 342V343.836H400.721V342H407.723ZM420.024 345.258C420.024 344.742 419.874 344.34 419.574 344.052C419.286 343.764 418.902 343.62 418.422 343.62C417.978 343.62 417.588 343.734 417.252 343.962C416.916 344.19 416.67 344.568 416.514 345.096L414.408 344.448C414.612 343.656 415.056 343.02 415.74 342.54C416.436 342.06 417.366 341.82 418.53 341.82C419.322 341.82 420.012 341.946 420.6 342.198C421.188 342.438 421.644 342.804 421.968 343.296C422.304 343.788 422.472 344.406 422.472 345.15V348.804C422.472 349.26 422.688 349.488 423.12 349.488C423.324 349.488 423.516 349.458 423.696 349.398L423.552 350.928C423.24 351.084 422.85 351.162 422.382 351.162C421.962 351.162 421.584 351.09 421.248 350.946C420.912 350.802 420.648 350.586 420.456 350.298C420.264 349.998 420.168 349.626 420.168 349.182V349.11L420.6 349.038C420.528 349.494 420.33 349.884 420.006 350.208C419.682 350.52 419.286 350.76 418.818 350.928C418.362 351.096 417.888 351.18 417.396 351.18C416.784 351.18 416.256 351.09 415.812 350.91C415.368 350.718 415.026 350.442 414.786 350.082C414.546 349.722 414.426 349.278 414.426 348.75C414.426 348.078 414.642 347.532 415.074 347.112C415.506 346.68 416.124 346.386 416.928 346.23L420.312 345.546L420.294 347.076L418.134 347.508C417.726 347.592 417.414 347.706 417.198 347.85C416.994 347.982 416.892 348.204 416.892 348.516C416.892 348.816 417 349.044 417.216 349.2C417.444 349.356 417.714 349.434 418.026 349.434C418.278 349.434 418.524 349.404 418.764 349.344C419.004 349.284 419.22 349.188 419.412 349.056C419.604 348.924 419.754 348.744 419.862 348.516C419.97 348.288 420.024 348.012 420.024 347.688V345.258ZM425.23 351V342H427.444L427.588 344.7L427.282 344.412C427.426 343.824 427.654 343.338 427.966 342.954C428.278 342.57 428.656 342.288 429.1 342.108C429.556 341.916 430.054 341.82 430.594 341.82C431.218 341.82 431.77 341.94 432.25 342.18C432.742 342.42 433.126 342.786 433.402 343.278C433.69 343.758 433.834 344.364 433.834 345.096V351H431.368V345.798C431.368 345.03 431.218 344.502 430.918 344.214C430.618 343.914 430.228 343.764 429.748 343.764C429.412 343.764 429.082 343.848 428.758 344.016C428.446 344.172 428.188 344.43 427.984 344.79C427.792 345.15 427.696 345.63 427.696 346.23V351H425.23ZM439.776 351.18C439.032 351.18 438.366 350.994 437.778 350.622C437.202 350.25 436.746 349.716 436.41 349.02C436.086 348.324 435.924 347.49 435.924 346.518C435.924 345.522 436.098 344.676 436.446 343.98C436.794 343.272 437.262 342.738 437.85 342.378C438.45 342.006 439.122 341.82 439.866 341.82C440.658 341.82 441.312 342.048 441.828 342.504C442.344 342.96 442.68 343.548 442.836 344.268L442.602 344.556V338.058H445.068V351H442.854L442.692 348.264L442.998 348.408C442.914 348.972 442.722 349.464 442.422 349.884C442.122 350.292 441.744 350.61 441.288 350.838C440.832 351.066 440.328 351.18 439.776 351.18ZM440.496 349.29C440.928 349.29 441.3 349.182 441.612 348.966C441.924 348.738 442.164 348.408 442.332 347.976C442.512 347.544 442.602 347.028 442.602 346.428C442.602 345.852 442.518 345.366 442.35 344.97C442.182 344.562 441.942 344.25 441.63 344.034C441.318 343.818 440.952 343.71 440.532 343.71C439.86 343.71 439.332 343.95 438.948 344.43C438.576 344.898 438.39 345.588 438.39 346.5C438.39 347.412 438.576 348.108 438.948 348.588C439.32 349.056 439.836 349.29 440.496 349.29ZM454.403 340.704C453.887 340.704 453.503 340.596 453.251 340.38C452.999 340.152 452.873 339.822 452.873 339.39C452.873 338.946 452.999 338.616 453.251 338.4C453.503 338.172 453.887 338.058 454.403 338.058C454.919 338.058 455.303 338.172 455.555 338.4C455.807 338.616 455.933 338.946 455.933 339.39C455.933 339.822 455.807 340.152 455.555 340.38C455.303 340.596 454.919 340.704 454.403 340.704ZM455.627 342V351H453.161V342H455.627ZM458.241 351V342H460.455L460.599 344.7L460.293 344.412C460.437 343.824 460.665 343.338 460.977 342.954C461.289 342.57 461.667 342.288 462.111 342.108C462.567 341.916 463.065 341.82 463.605 341.82C464.229 341.82 464.781 341.94 465.261 342.18C465.753 342.42 466.137 342.786 466.413 343.278C466.701 343.758 466.845 344.364 466.845 345.096V351H464.379V345.798C464.379 345.03 464.229 344.502 463.929 344.214C463.629 343.914 463.239 343.764 462.759 343.764C462.423 343.764 462.093 343.848 461.769 344.016C461.457 344.172 461.199 344.43 460.995 344.79C460.803 345.15 460.707 345.63 460.707 346.23V351H458.241ZM472.788 351.18C472.044 351.18 471.378 350.994 470.79 350.622C470.214 350.25 469.758 349.716 469.422 349.02C469.098 348.324 468.936 347.49 468.936 346.518C468.936 345.522 469.11 344.676 469.458 343.98C469.806 343.272 470.274 342.738 470.862 342.378C471.462 342.006 472.134 341.82 472.878 341.82C473.67 341.82 474.324 342.048 474.84 342.504C475.356 342.96 475.692 343.548 475.848 344.268L475.614 344.556V338.058H478.08V351H475.866L475.704 348.264L476.01 348.408C475.926 348.972 475.734 349.464 475.434 349.884C475.134 350.292 474.756 350.61 474.3 350.838C473.844 351.066 473.34 351.18 472.788 351.18ZM473.508 349.29C473.94 349.29 474.312 349.182 474.624 348.966C474.936 348.738 475.176 348.408 475.344 347.976C475.524 347.544 475.614 347.028 475.614 346.428C475.614 345.852 475.53 345.366 475.362 344.97C475.194 344.562 474.954 344.25 474.642 344.034C474.33 343.818 473.964 343.71 473.544 343.71C472.872 343.71 472.344 343.95 471.96 344.43C471.588 344.898 471.402 345.588 471.402 346.5C471.402 347.412 471.588 348.108 471.96 348.588C472.332 349.056 472.848 349.29 473.508 349.29ZM481.913 340.704C481.397 340.704 481.013 340.596 480.761 340.38C480.509 340.152 480.383 339.822 480.383 339.39C480.383 338.946 480.509 338.616 480.761 338.4C481.013 338.172 481.397 338.058 481.913 338.058C482.429 338.058 482.813 338.172 483.065 338.4C483.317 338.616 483.443 338.946 483.443 339.39C483.443 339.822 483.317 340.152 483.065 340.38C482.813 340.596 482.429 340.704 481.913 340.704ZM483.137 342V351H480.671V342H483.137ZM485.751 351V342H487.893L488.055 343.764C488.295 343.14 488.643 342.66 489.099 342.324C489.567 341.988 490.149 341.82 490.845 341.82C491.049 341.82 491.235 341.838 491.403 341.874C491.571 341.91 491.709 341.958 491.817 342.018L491.529 344.088C491.409 344.04 491.259 344.004 491.079 343.98C490.911 343.956 490.689 343.944 490.413 343.944C490.053 343.944 489.705 344.034 489.369 344.214C489.033 344.382 488.757 344.646 488.541 345.006C488.325 345.354 488.217 345.798 488.217 346.338V351H485.751ZM497.345 351.18C496.397 351.18 495.569 350.994 494.861 350.622C494.165 350.25 493.625 349.716 493.241 349.02C492.857 348.324 492.665 347.484 492.665 346.5C492.665 345.516 492.857 344.676 493.241 343.98C493.625 343.284 494.159 342.75 494.843 342.378C495.539 342.006 496.331 341.82 497.219 341.82C498.131 341.82 498.905 342.006 499.541 342.378C500.177 342.738 500.663 343.236 500.999 343.872C501.335 344.496 501.503 345.21 501.503 346.014C501.503 346.254 501.497 346.482 501.485 346.698C501.473 346.914 501.455 347.106 501.431 347.274H494.249V345.564H500.351L499.163 345.996C499.163 345.24 498.989 344.658 498.641 344.25C498.305 343.842 497.825 343.638 497.201 343.638C496.745 343.638 496.349 343.746 496.013 343.962C495.689 344.178 495.443 344.502 495.275 344.934C495.107 345.354 495.023 345.888 495.023 346.536C495.023 347.172 495.113 347.7 495.293 348.12C495.485 348.528 495.749 348.834 496.085 349.038C496.433 349.242 496.847 349.344 497.327 349.344C497.855 349.344 498.281 349.242 498.605 349.038C498.929 348.834 499.181 348.552 499.361 348.192L501.323 348.948C501.131 349.416 500.837 349.818 500.441 350.154C500.057 350.49 499.595 350.748 499.055 350.928C498.527 351.096 497.957 351.18 497.345 351.18ZM507.679 341.82C508.483 341.82 509.161 341.94 509.713 342.18C510.277 342.408 510.727 342.726 511.063 343.134C511.411 343.53 511.657 343.974 511.801 344.466L509.497 345.294C509.377 344.754 509.173 344.346 508.885 344.07C508.597 343.794 508.207 343.656 507.715 343.656C507.259 343.656 506.869 343.764 506.545 343.98C506.221 344.184 505.975 344.502 505.807 344.934C505.639 345.354 505.555 345.882 505.555 346.518C505.555 347.154 505.639 347.682 505.807 348.102C505.987 348.522 506.239 348.834 506.563 349.038C506.899 349.242 507.289 349.344 507.733 349.344C508.093 349.344 508.399 349.284 508.651 349.164C508.903 349.032 509.107 348.846 509.263 348.606C509.431 348.366 509.545 348.078 509.605 347.742L511.837 348.462C511.705 349.002 511.459 349.476 511.099 349.884C510.739 350.292 510.277 350.61 509.713 350.838C509.149 351.066 508.495 351.18 507.751 351.18C506.827 351.18 506.011 350.994 505.303 350.622C504.595 350.25 504.049 349.716 503.665 349.02C503.281 348.324 503.089 347.484 503.089 346.5C503.089 345.516 503.281 344.676 503.665 343.98C504.049 343.284 504.589 342.75 505.285 342.378C505.981 342.006 506.779 341.82 507.679 341.82ZM516.939 339.246V348.066C516.939 348.498 517.047 348.816 517.263 349.02C517.491 349.212 517.797 349.308 518.181 349.308C518.481 349.308 518.745 349.266 518.973 349.182C519.201 349.086 519.405 348.96 519.585 348.804L519.981 350.442C519.693 350.67 519.333 350.85 518.901 350.982C518.469 351.114 518.013 351.18 517.533 351.18C516.933 351.18 516.399 351.09 515.931 350.91C515.475 350.73 515.115 350.442 514.851 350.046C514.599 349.65 514.473 349.122 514.473 348.462V339.93L516.939 339.246ZM519.819 342V343.836H512.817V342H519.819ZM526.989 354.78V342H529.203L529.365 344.862L529.059 344.538C529.167 344.01 529.365 343.542 529.653 343.134C529.953 342.726 530.331 342.408 530.787 342.18C531.243 341.94 531.753 341.82 532.317 341.82C533.049 341.82 533.703 342.006 534.279 342.378C534.855 342.75 535.305 343.284 535.629 343.98C535.965 344.664 536.133 345.498 536.133 346.482C536.133 347.466 535.965 348.312 535.629 349.02C535.293 349.716 534.831 350.25 534.243 350.622C533.667 350.994 533.007 351.18 532.263 351.18C531.471 351.18 530.811 350.958 530.283 350.514C529.767 350.07 529.413 349.512 529.221 348.84L529.455 348.462V354.78H526.989ZM531.543 349.29C532.203 349.29 532.719 349.056 533.091 348.588C533.475 348.108 533.667 347.412 533.667 346.5C533.667 345.588 533.481 344.898 533.109 344.43C532.749 343.95 532.239 343.71 531.579 343.71C531.159 343.71 530.787 343.824 530.463 344.052C530.151 344.268 529.905 344.586 529.725 345.006C529.545 345.414 529.455 345.912 529.455 346.5C529.455 347.076 529.539 347.574 529.707 347.994C529.875 348.414 530.115 348.738 530.427 348.966C530.751 349.182 531.123 349.29 531.543 349.29ZM542.451 351.18C541.503 351.18 540.675 350.994 539.967 350.622C539.271 350.25 538.731 349.716 538.347 349.02C537.963 348.324 537.771 347.484 537.771 346.5C537.771 345.516 537.963 344.676 538.347 343.98C538.731 343.284 539.265 342.75 539.949 342.378C540.645 342.006 541.437 341.82 542.325 341.82C543.237 341.82 544.011 342.006 544.647 342.378C545.283 342.738 545.769 343.236 546.105 343.872C546.441 344.496 546.609 345.21 546.609 346.014C546.609 346.254 546.603 346.482 546.591 346.698C546.579 346.914 546.561 347.106 546.537 347.274H539.355V345.564H545.457L544.269 345.996C544.269 345.24 544.095 344.658 543.747 344.25C543.411 343.842 542.931 343.638 542.307 343.638C541.851 343.638 541.455 343.746 541.119 343.962C540.795 344.178 540.549 344.502 540.381 344.934C540.213 345.354 540.129 345.888 540.129 346.536C540.129 347.172 540.219 347.7 540.399 348.12C540.591 348.528 540.855 348.834 541.191 349.038C541.539 349.242 541.953 349.344 542.433 349.344C542.961 349.344 543.387 349.242 543.711 349.038C544.035 348.834 544.287 348.552 544.467 348.192L546.429 348.948C546.237 349.416 545.943 349.818 545.547 350.154C545.163 350.49 544.701 350.748 544.161 350.928C543.633 351.096 543.063 351.18 542.451 351.18ZM552.874 351.18C551.926 351.18 551.098 350.994 550.39 350.622C549.694 350.25 549.154 349.716 548.77 349.02C548.386 348.324 548.194 347.484 548.194 346.5C548.194 345.516 548.386 344.676 548.77 343.98C549.154 343.284 549.688 342.75 550.372 342.378C551.068 342.006 551.86 341.82 552.748 341.82C553.66 341.82 554.434 342.006 555.07 342.378C555.706 342.738 556.192 343.236 556.528 343.872C556.864 344.496 557.032 345.21 557.032 346.014C557.032 346.254 557.026 346.482 557.014 346.698C557.002 346.914 556.984 347.106 556.96 347.274H549.778V345.564H555.88L554.692 345.996C554.692 345.24 554.518 344.658 554.17 344.25C553.834 343.842 553.354 343.638 552.73 343.638C552.274 343.638 551.878 343.746 551.542 343.962C551.218 344.178 550.972 344.502 550.804 344.934C550.636 345.354 550.552 345.888 550.552 346.536C550.552 347.172 550.642 347.7 550.822 348.12C551.014 348.528 551.278 348.834 551.614 349.038C551.962 349.242 552.376 349.344 552.856 349.344C553.384 349.344 553.81 349.242 554.134 349.038C554.458 348.834 554.71 348.552 554.89 348.192L556.852 348.948C556.66 349.416 556.366 349.818 555.97 350.154C555.586 350.49 555.124 350.748 554.584 350.928C554.056 351.096 553.486 351.18 552.874 351.18ZM559.122 351V342H561.264L561.426 343.764C561.666 343.14 562.014 342.66 562.47 342.324C562.938 341.988 563.52 341.82 564.216 341.82C564.42 341.82 564.606 341.838 564.774 341.874C564.942 341.91 565.08 341.958 565.188 342.018L564.9 344.088C564.78 344.04 564.63 344.004 564.45 343.98C564.282 343.956 564.06 343.944 563.784 343.944C563.424 343.944 563.076 344.034 562.74 344.214C562.404 344.382 562.128 344.646 561.912 345.006C561.696 345.354 561.588 345.798 561.588 346.338V351H559.122ZM570.07 351.18C569.158 351.18 568.324 351.018 567.568 350.694C566.824 350.37 566.218 349.914 565.75 349.326L567.172 347.886C567.46 348.318 567.844 348.672 568.324 348.948C568.804 349.224 569.374 349.362 570.034 349.362C570.502 349.362 570.874 349.296 571.15 349.164C571.438 349.02 571.582 348.798 571.582 348.498C571.582 348.306 571.516 348.144 571.384 348.012C571.252 347.868 570.988 347.754 570.592 347.67L569.008 347.346C567.964 347.13 567.22 346.806 566.776 346.374C566.344 345.93 566.128 345.36 566.128 344.664C566.128 344.172 566.272 343.71 566.56 343.278C566.86 342.846 567.304 342.498 567.892 342.234C568.48 341.958 569.212 341.82 570.088 341.82C570.988 341.82 571.768 341.964 572.428 342.252C573.1 342.528 573.628 342.942 574.012 343.494L572.536 344.934C572.272 344.514 571.924 344.196 571.492 343.98C571.072 343.752 570.628 343.638 570.16 343.638C569.824 343.638 569.536 343.674 569.296 343.746C569.056 343.818 568.876 343.92 568.756 344.052C568.636 344.172 568.576 344.328 568.576 344.52C568.576 344.712 568.66 344.88 568.828 345.024C568.996 345.156 569.302 345.27 569.746 345.366L571.582 345.744C572.47 345.924 573.106 346.23 573.49 346.662C573.874 347.082 574.066 347.592 574.066 348.192C574.066 348.768 573.91 349.284 573.598 349.74C573.298 350.184 572.848 350.538 572.248 350.802C571.66 351.054 570.934 351.18 570.07 351.18ZM575.774 354.438L574.568 353.232C575.288 352.572 575.87 351.882 576.314 351.162C576.758 350.442 577.076 349.662 577.268 348.822C577.472 347.97 577.574 347.046 577.574 346.05C577.574 345.03 577.472 344.1 577.268 343.26C577.076 342.42 576.758 341.64 576.314 340.92C575.87 340.188 575.288 339.498 574.568 338.85L575.774 337.644C577.118 338.628 578.132 339.828 578.816 341.244C579.512 342.648 579.86 344.25 579.86 346.05C579.86 347.838 579.512 349.434 578.816 350.838C578.132 352.242 577.118 353.442 575.774 354.438Z" fill="white"/>
<rect x="588" y="332" width="48" height="28" rx="4" fill="white"/>
<path d="M598.534 340.36C599.446 340.36 600.226 340.516 600.874 340.828C601.522 341.128 602.02 341.566 602.368 342.142C602.728 342.706 602.908 343.39 602.908 344.194C602.908 344.998 602.728 345.688 602.368 346.264C602.02 346.828 601.522 347.266 600.874 347.578C600.226 347.878 599.446 348.028 598.534 348.028H596.032V352.24H593.548V340.36H598.534ZM598.156 346.066C598.9 346.066 599.458 345.91 599.83 345.598C600.202 345.274 600.388 344.806 600.388 344.194C600.388 343.57 600.202 343.102 599.83 342.79C599.458 342.478 598.9 342.322 598.156 342.322H596.032V346.066H598.156ZM608.88 352.42C607.932 352.42 607.104 352.234 606.396 351.862C605.7 351.49 605.16 350.956 604.776 350.26C604.392 349.564 604.2 348.724 604.2 347.74C604.2 346.756 604.392 345.916 604.776 345.22C605.16 344.524 605.694 343.99 606.378 343.618C607.074 343.246 607.866 343.06 608.754 343.06C609.666 343.06 610.44 343.246 611.076 343.618C611.712 343.978 612.198 344.476 612.534 345.112C612.87 345.736 613.038 346.45 613.038 347.254C613.038 347.494 613.032 347.722 613.02 347.938C613.008 348.154 612.99 348.346 612.966 348.514H605.784V346.804H611.886L610.698 347.236C610.698 346.48 610.524 345.898 610.176 345.49C609.84 345.082 609.36 344.878 608.736 344.878C608.28 344.878 607.884 344.986 607.548 345.202C607.224 345.418 606.978 345.742 606.81 346.174C606.642 346.594 606.558 347.128 606.558 347.776C606.558 348.412 606.648 348.94 606.828 349.36C607.02 349.768 607.284 350.074 607.62 350.278C607.968 350.482 608.382 350.584 608.862 350.584C609.39 350.584 609.816 350.482 610.14 350.278C610.464 350.074 610.716 349.792 610.896 349.432L612.858 350.188C612.666 350.656 612.372 351.058 611.976 351.394C611.592 351.73 611.13 351.988 610.59 352.168C610.062 352.336 609.492 352.42 608.88 352.42ZM619.304 352.42C618.356 352.42 617.528 352.234 616.82 351.862C616.124 351.49 615.584 350.956 615.2 350.26C614.816 349.564 614.624 348.724 614.624 347.74C614.624 346.756 614.816 345.916 615.2 345.22C615.584 344.524 616.118 343.99 616.802 343.618C617.498 343.246 618.29 343.06 619.178 343.06C620.09 343.06 620.864 343.246 621.5 343.618C622.136 343.978 622.622 344.476 622.958 345.112C623.294 345.736 623.462 346.45 623.462 347.254C623.462 347.494 623.456 347.722 623.444 347.938C623.432 348.154 623.414 348.346 623.39 348.514H616.208V346.804H622.31L621.122 347.236C621.122 346.48 620.948 345.898 620.6 345.49C620.264 345.082 619.784 344.878 619.16 344.878C618.704 344.878 618.308 344.986 617.972 345.202C617.648 345.418 617.402 345.742 617.234 346.174C617.066 346.594 616.982 347.128 616.982 347.776C616.982 348.412 617.072 348.94 617.252 349.36C617.444 349.768 617.708 350.074 618.044 350.278C618.392 350.482 618.806 350.584 619.286 350.584C619.814 350.584 620.24 350.482 620.564 350.278C620.888 350.074 621.14 349.792 621.32 349.432L623.282 350.188C623.09 350.656 622.796 351.058 622.4 351.394C622.016 351.73 621.554 351.988 621.014 352.168C620.486 352.336 619.916 352.42 619.304 352.42ZM625.552 352.24V343.24H627.694L627.856 345.004C628.096 344.38 628.444 343.9 628.9 343.564C629.368 343.228 629.95 343.06 630.646 343.06C630.85 343.06 631.036 343.078 631.204 343.114C631.372 343.15 631.51 343.198 631.618 343.258L631.33 345.328C631.21 345.28 631.06 345.244 630.88 345.22C630.712 345.196 630.49 345.184 630.214 345.184C629.854 345.184 629.506 345.274 629.17 345.454C628.834 345.622 628.558 345.886 628.342 346.246C628.126 346.594 628.018 347.038 628.018 347.578V352.24H625.552Z" fill="black"/>
<rect x="739" y="332" width="48" height="28" rx="4" fill="white"/>
<path d="M749.534 340.36C750.446 340.36 751.226 340.516 751.874 340.828C752.522 341.128 753.02 341.566 753.368 342.142C753.728 342.706 753.908 343.39 753.908 344.194C753.908 344.998 753.728 345.688 753.368 346.264C753.02 346.828 752.522 347.266 751.874 347.578C751.226 347.878 750.446 348.028 749.534 348.028H747.032V352.24H744.548V340.36H749.534ZM749.156 346.066C749.9 346.066 750.458 345.91 750.83 345.598C751.202 345.274 751.388 344.806 751.388 344.194C751.388 343.57 751.202 343.102 750.83 342.79C750.458 342.478 749.9 342.322 749.156 342.322H747.032V346.066H749.156ZM759.88 352.42C758.932 352.42 758.104 352.234 757.396 351.862C756.7 351.49 756.16 350.956 755.776 350.26C755.392 349.564 755.2 348.724 755.2 347.74C755.2 346.756 755.392 345.916 755.776 345.22C756.16 344.524 756.694 343.99 757.378 343.618C758.074 343.246 758.866 343.06 759.754 343.06C760.666 343.06 761.44 343.246 762.076 343.618C762.712 343.978 763.198 344.476 763.534 345.112C763.87 345.736 764.038 346.45 764.038 347.254C764.038 347.494 764.032 347.722 764.02 347.938C764.008 348.154 763.99 348.346 763.966 348.514H756.784V346.804H762.886L761.698 347.236C761.698 346.48 761.524 345.898 761.176 345.49C760.84 345.082 760.36 344.878 759.736 344.878C759.28 344.878 758.884 344.986 758.548 345.202C758.224 345.418 757.978 345.742 757.81 346.174C757.642 346.594 757.558 347.128 757.558 347.776C757.558 348.412 757.648 348.94 757.828 349.36C758.02 349.768 758.284 350.074 758.62 350.278C758.968 350.482 759.382 350.584 759.862 350.584C760.39 350.584 760.816 350.482 761.14 350.278C761.464 350.074 761.716 349.792 761.896 349.432L763.858 350.188C763.666 350.656 763.372 351.058 762.976 351.394C762.592 351.73 762.13 351.988 761.59 352.168C761.062 352.336 760.492 352.42 759.88 352.42ZM770.304 352.42C769.356 352.42 768.528 352.234 767.82 351.862C767.124 351.49 766.584 350.956 766.2 350.26C765.816 349.564 765.624 348.724 765.624 347.74C765.624 346.756 765.816 345.916 766.2 345.22C766.584 344.524 767.118 343.99 767.802 343.618C768.498 343.246 769.29 343.06 770.178 343.06C771.09 343.06 771.864 343.246 772.5 343.618C773.136 343.978 773.622 344.476 773.958 345.112C774.294 345.736 774.462 346.45 774.462 347.254C774.462 347.494 774.456 347.722 774.444 347.938C774.432 348.154 774.414 348.346 774.39 348.514H767.208V346.804H773.31L772.122 347.236C772.122 346.48 771.948 345.898 771.6 345.49C771.264 345.082 770.784 344.878 770.16 344.878C769.704 344.878 769.308 344.986 768.972 345.202C768.648 345.418 768.402 345.742 768.234 346.174C768.066 346.594 767.982 347.128 767.982 347.776C767.982 348.412 768.072 348.94 768.252 349.36C768.444 349.768 768.708 350.074 769.044 350.278C769.392 350.482 769.806 350.584 770.286 350.584C770.814 350.584 771.24 350.482 771.564 350.278C771.888 350.074 772.14 349.792 772.32 349.432L774.282 350.188C774.09 350.656 773.796 351.058 773.4 351.394C773.016 351.73 772.554 351.988 772.014 352.168C771.486 352.336 770.916 352.42 770.304 352.42ZM776.552 352.24V343.24H778.694L778.856 345.004C779.096 344.38 779.444 343.9 779.9 343.564C780.368 343.228 780.95 343.06 781.646 343.06C781.85 343.06 782.036 343.078 782.204 343.114C782.372 343.15 782.51 343.198 782.618 343.258L782.33 345.328C782.21 345.28 782.06 345.244 781.88 345.22C781.712 345.196 781.49 345.184 781.214 345.184C780.854 345.184 780.506 345.274 780.17 345.454C779.834 345.622 779.558 345.886 779.342 346.246C779.126 346.594 779.018 347.038 779.018 347.578V352.24H776.552Z" fill="black"/>
<path d="M636 346.5H738.5" stroke="#32E685" stroke-width="2"/>
<rect x="798" y="229" width="48" height="28" rx="4" fill="white"/>
<path d="M810.798 250L807.342 238.12H809.988L812.328 247.93L814.704 238.12H817.08L819.492 247.93L821.814 238.12H824.352L820.896 250H818.106L816.45 243.52L815.892 240.712H815.856L815.298 243.52L813.66 250H810.798ZM830.534 237.94C831.614 237.94 832.562 238.126 833.378 238.498C834.194 238.87 834.89 239.422 835.466 240.154L834.08 241.756C833.588 241.132 833.048 240.676 832.46 240.388C831.884 240.088 831.212 239.938 830.444 239.938C829.94 239.938 829.52 240.004 829.184 240.136C828.86 240.268 828.62 240.442 828.464 240.658C828.32 240.874 828.248 241.114 828.248 241.378C828.248 241.702 828.374 241.978 828.626 242.206C828.878 242.422 829.31 242.602 829.922 242.746L832.136 243.25C833.312 243.514 834.152 243.91 834.656 244.438C835.172 244.954 835.43 245.626 835.43 246.454C835.43 247.234 835.226 247.906 834.818 248.47C834.41 249.022 833.84 249.448 833.108 249.748C832.376 250.036 831.536 250.18 830.588 250.18C829.76 250.18 828.998 250.084 828.302 249.892C827.618 249.688 827.006 249.412 826.466 249.064C825.926 248.716 825.476 248.314 825.116 247.858L826.52 246.184C826.796 246.568 827.138 246.91 827.546 247.21C827.954 247.51 828.416 247.75 828.932 247.93C829.46 248.098 830.012 248.182 830.588 248.182C831.08 248.182 831.494 248.128 831.83 248.02C832.178 247.9 832.436 247.738 832.604 247.534C832.784 247.318 832.874 247.06 832.874 246.76C832.874 246.448 832.766 246.184 832.55 245.968C832.346 245.74 831.962 245.566 831.398 245.446L828.986 244.906C828.29 244.738 827.69 244.522 827.186 244.258C826.694 243.982 826.316 243.634 826.052 243.214C825.8 242.782 825.674 242.272 825.674 241.684C825.674 240.976 825.866 240.34 826.25 239.776C826.634 239.212 827.186 238.768 827.906 238.444C828.638 238.108 829.514 237.94 830.534 237.94Z" fill="black"/>
<rect x="908" y="229" width="120" height="28" rx="4" fill="white"/>
<path d="M930.414 238.12V245.626C930.414 247.054 930.012 248.17 929.208 248.974C928.404 249.778 927.264 250.18 925.788 250.18C924.732 250.18 923.874 249.988 923.214 249.604C922.554 249.22 922.098 248.68 921.846 247.984C921.594 247.288 921.546 246.49 921.702 245.59L924.114 245.158C923.97 246.214 924.036 246.976 924.312 247.444C924.588 247.912 925.098 248.146 925.842 248.146C926.622 248.146 927.162 247.906 927.462 247.426C927.774 246.946 927.93 246.232 927.93 245.284V238.12H930.414ZM937.661 237.94C938.741 237.94 939.689 238.126 940.505 238.498C941.321 238.87 942.017 239.422 942.593 240.154L941.207 241.756C940.715 241.132 940.175 240.676 939.587 240.388C939.011 240.088 938.339 239.938 937.571 239.938C937.067 239.938 936.647 240.004 936.311 240.136C935.987 240.268 935.747 240.442 935.591 240.658C935.447 240.874 935.375 241.114 935.375 241.378C935.375 241.702 935.501 241.978 935.753 242.206C936.005 242.422 936.437 242.602 937.049 242.746L939.263 243.25C940.439 243.514 941.279 243.91 941.783 244.438C942.299 244.954 942.557 245.626 942.557 246.454C942.557 247.234 942.353 247.906 941.945 248.47C941.537 249.022 940.967 249.448 940.235 249.748C939.503 250.036 938.663 250.18 937.715 250.18C936.887 250.18 936.125 250.084 935.429 249.892C934.745 249.688 934.133 249.412 933.593 249.064C933.053 248.716 932.603 248.314 932.243 247.858L933.647 246.184C933.923 246.568 934.265 246.91 934.673 247.21C935.081 247.51 935.543 247.75 936.059 247.93C936.587 248.098 937.139 248.182 937.715 248.182C938.207 248.182 938.621 248.128 938.957 248.02C939.305 247.9 939.563 247.738 939.731 247.534C939.911 247.318 940.001 247.06 940.001 246.76C940.001 246.448 939.893 246.184 939.677 245.968C939.473 245.74 939.089 245.566 938.525 245.446L936.113 244.906C935.417 244.738 934.817 244.522 934.313 244.258C933.821 243.982 933.443 243.634 933.179 243.214C932.927 242.782 932.801 242.272 932.801 241.684C932.801 240.976 932.993 240.34 933.377 239.776C933.761 239.212 934.313 238.768 935.033 238.444C935.765 238.108 936.641 237.94 937.661 237.94ZM950.037 237.94C951.213 237.94 952.227 238.186 953.079 238.678C953.931 239.17 954.585 239.872 955.041 240.784C955.509 241.696 955.743 242.788 955.743 244.06C955.743 245.332 955.509 246.424 955.041 247.336C954.585 248.248 953.931 248.95 953.079 249.442C952.227 249.934 951.213 250.18 950.037 250.18C948.861 250.18 947.841 249.934 946.977 249.442C946.125 248.95 945.465 248.248 944.997 247.336C944.541 246.424 944.313 245.332 944.313 244.06C944.313 242.788 944.541 241.696 944.997 240.784C945.465 239.872 946.125 239.17 946.977 238.678C947.841 238.186 948.861 237.94 950.037 237.94ZM950.037 239.974C949.365 239.974 948.795 240.13 948.327 240.442C947.859 240.754 947.499 241.216 947.247 241.828C947.007 242.428 946.887 243.172 946.887 244.06C946.887 244.936 947.007 245.68 947.247 246.292C947.499 246.904 947.859 247.366 948.327 247.678C948.795 247.99 949.365 248.146 950.037 248.146C950.697 248.146 951.261 247.99 951.729 247.678C952.197 247.366 952.551 246.904 952.791 246.292C953.043 245.68 953.169 244.936 953.169 244.06C953.169 243.172 953.043 242.428 952.791 241.828C952.551 241.216 952.197 240.754 951.729 240.442C951.261 240.13 950.697 239.974 950.037 239.974ZM968.455 238.12V250H965.611L961.453 243.016L960.427 241.072H960.409L960.481 243.124V250H958.249V238.12H961.075L965.233 245.086L966.259 247.048H966.295L966.223 244.996V238.12H968.455ZM977.874 244.168V246.292H971.52V244.168H977.874ZM986.181 238.12C987.525 238.12 988.581 238.444 989.349 239.092C990.117 239.74 990.501 240.61 990.501 241.702C990.501 242.866 990.117 243.76 989.349 244.384C988.581 244.996 987.531 245.302 986.199 245.302L985.947 245.446H983.391V250H980.943V238.12H986.181ZM985.893 243.556C986.589 243.556 987.105 243.418 987.441 243.142C987.789 242.854 987.963 242.416 987.963 241.828C987.963 241.24 987.789 240.808 987.441 240.532C987.105 240.244 986.589 240.1 985.893 240.1H983.391V243.556H985.893ZM987.351 244.078L991.203 250H988.413L985.227 244.798L987.351 244.078ZM998.163 238.12C999.075 238.12 999.855 238.276 1000.5 238.588C1001.15 238.888 1001.65 239.326 1002 239.902C1002.36 240.466 1002.54 241.15 1002.54 241.954C1002.54 242.758 1002.36 243.448 1002 244.024C1001.65 244.588 1001.15 245.026 1000.5 245.338C999.855 245.638 999.075 245.788 998.163 245.788H995.661V250H993.177V238.12H998.163ZM997.785 243.826C998.529 243.826 999.087 243.67 999.459 243.358C999.831 243.034 1000.02 242.566 1000.02 241.954C1000.02 241.33 999.831 240.862 999.459 240.55C999.087 240.238 998.529 240.082 997.785 240.082H995.661V243.826H997.785ZM1014.98 246.724C1014.76 247.492 1014.4 248.134 1013.9 248.65C1013.41 249.166 1012.83 249.55 1012.16 249.802C1011.49 250.054 1010.75 250.18 1009.94 250.18C1008.77 250.18 1007.75 249.934 1006.88 249.442C1006.03 248.95 1005.37 248.248 1004.9 247.336C1004.45 246.424 1004.22 245.332 1004.22 244.06C1004.22 242.788 1004.45 241.696 1004.9 240.784C1005.37 239.872 1006.03 239.17 1006.88 238.678C1007.75 238.186 1008.76 237.94 1009.91 237.94C1010.72 237.94 1011.46 238.054 1012.12 238.282C1012.78 238.498 1013.34 238.834 1013.8 239.29C1014.26 239.746 1014.61 240.322 1014.82 241.018L1012.57 241.972C1012.37 241.252 1012.06 240.742 1011.64 240.442C1011.22 240.13 1010.68 239.974 1010.02 239.974C1009.37 239.974 1008.8 240.13 1008.31 240.442C1007.83 240.754 1007.45 241.216 1007.19 241.828C1006.93 242.428 1006.79 243.172 1006.79 244.06C1006.79 244.936 1006.91 245.68 1007.15 246.292C1007.41 246.904 1007.77 247.366 1008.25 247.678C1008.73 247.99 1009.32 248.146 1010.02 248.146C1010.66 248.146 1011.22 247.972 1011.69 247.624C1012.17 247.276 1012.51 246.748 1012.7 246.04L1014.98 246.724Z" fill="black"/>
<path d="M826 230L826 125" stroke="#32E685" stroke-width="2"/>
<path d="M970 228L970 125" stroke="#32E685" stroke-width="2"/>
</svg>
