<svg width="106" height="40" viewBox="0 0 106 40" fill="none" xmlns="http://www.w3.org/2000/svg">
<path d="M6.32122 1.30207C6.32122 8.81544 6.32589 16.3305 6.33524 23.8471C6.35777 24.1047 6.29011 24.3622 6.14257 24.5802C4.41298 25.0774 2.9145 26.1129 1.89313 27.5168C0.871752 28.9207 0.388181 30.6095 0.521797 32.3059C0.655413 34.0024 1.39828 35.6057 2.62844 36.8527C3.8586 38.0996 5.50295 38.9162 7.29155 39.1682C7.33008 39.1836 7.36862 39.1968 7.40715 39.2077H7.62083C8.18715 39.267 8.75871 39.267 9.32503 39.2077H9.50018L9.61052 39.1732C11.4064 38.9277 13.0595 38.1134 14.2968 36.8647C15.534 35.616 16.2814 34.0077 16.4153 32.3054C16.5492 30.6032 16.0618 28.9089 15.0334 27.5025C14.0051 26.0961 12.4974 25.0617 10.7595 24.5704V10.0466H18.7148V6.46017H10.784V3.88689H18.8899V0.367981H6.32122V1.30207ZM12.2921 31.7795C12.2921 32.483 12.0703 33.1706 11.6548 33.7555C11.2393 34.3405 10.6487 34.7963 9.95769 35.0655C9.26672 35.3348 8.50639 35.4052 7.77286 35.268C7.03933 35.1307 6.36553 34.792 5.83669 34.2945C5.30784 33.7971 4.94769 33.1633 4.80178 32.4734C4.65587 31.7834 4.73076 31.0683 5.01697 30.4184C5.30318 29.7684 5.78786 29.213 6.40972 28.8221C7.03158 28.4313 7.76268 28.2227 8.51059 28.2227C9.5135 28.2227 10.4753 28.5974 11.1845 29.2645C11.8937 29.9315 12.2921 30.8362 12.2921 31.7795Z" fill="white"/>
<path d="M61.682 10.4502C64.3338 9.38757 65.0554 7.0647 64.889 5.30854C64.8505 4.8757 64.772 4.44684 64.6543 4.02684C64.0991 2.04993 62.6874 0.862132 60.3421 0.489813C58.7255 0.232814 57.0406 0.346487 55.3872 0.32507C53.7057 0.303654 52.0261 0.32507 50.3236 0.32507V16.4303H54.6533V10.9938C55.1412 11.0157 55.63 11.0124 56.1175 10.9839C56.7603 10.9131 57.1194 11.1338 57.3891 11.6907C57.9146 12.778 59.3788 15.315 59.8167 16.4254L64.9363 16.4567C63.7102 14.3546 62.5893 12.465 61.4806 10.582C61.5442 10.5334 61.6115 10.4894 61.682 10.4502ZM58.6484 7.37277C57.3541 7.41395 56.0562 7.38265 54.6603 7.38265V4.02684H59.1879C59.5568 4.14578 59.8745 4.37437 60.0932 4.67809C60.3118 4.98181 60.4195 5.34418 60.3999 5.71051C60.4042 5.92864 60.3618 6.14536 60.2755 6.34786C60.1892 6.55035 60.0606 6.73452 59.8973 6.88948C59.734 7.04443 59.5394 7.16704 59.3249 7.25005C59.1104 7.33306 58.8804 7.37478 58.6484 7.37277Z" fill="white"/>
<path d="M34.2046 9.5706e-05C29.402 9.5706e-05 25.3841 3.76117 25.3071 8.34597C25.2317 12.8995 29.2882 16.7297 34.1924 16.7363C39.1824 16.7363 43.1127 13.0889 43.125 8.43658C43.1371 7.32941 42.9149 6.23103 42.4716 5.20536C42.0282 4.17968 41.3723 3.24718 40.5422 2.46211C39.7121 1.67704 38.7243 1.05507 37.6363 0.632403C36.5483 0.209732 35.3818 -0.00520502 34.2046 9.5706e-05ZM34.2589 12.7578C33.3408 12.7581 32.4433 12.5022 31.6799 12.0225C30.9165 11.5428 30.3215 10.8609 29.9703 10.063C29.6192 9.26515 29.5275 8.38721 29.7071 7.54034C29.8866 6.69346 30.3292 5.91573 30.9789 5.30557C31.6286 4.69541 32.4561 4.28027 33.3568 4.11268C34.2574 3.94509 35.1906 4.03259 36.0384 4.36411C36.8861 4.69563 37.6102 5.25626 38.1191 5.97504C38.6279 6.69382 38.8986 7.53844 38.8969 8.40198C38.8946 9.55768 38.405 10.6653 37.5355 11.4819C36.666 12.2985 35.4876 12.7573 34.2589 12.7578Z" fill="white"/>
<path d="M105.5 3.88848V0.374512H92.9406V16.4732H105.457V12.9114H97.3438V10.0713H105.282V6.50459H97.3578V3.88848H105.5Z" fill="white"/>
<path d="M71.4707 3.94229H76.3188V16.4298H80.6976V3.89286H85.3986V0.359131H71.4707V3.94229Z" fill="white"/>
</svg>
