<svg version="1.1" viewBox="0.0 0.0 684.6797900262467 230.03674540682414" fill="none" stroke="none" stroke-linecap="square" stroke-miterlimit="10" xmlns:xlink="http://www.w3.org/1999/xlink" xmlns="http://www.w3.org/2000/svg"><clipPath id="p.0"><path d="m0 0l684.6798 0l0 230.03674l-684.6798 0l0 -230.03674z" clip-rule="nonzero"/></clipPath><g clip-path="url(#p.0)"><path fill="#000000" fill-opacity="0.0" d="m0 0l684.6798 0l0 230.03674l-684.6798 0z" fill-rule="evenodd"/><path fill="#e6e7e8" d="m189.66534 24.38845l146.04724 0l0 181.25986l-146.04724 0z" fill-rule="evenodd"/><path stroke="#23282f" stroke-width="1.0" stroke-linejoin="round" stroke-linecap="butt" d="m189.66534 24.38845l146.04724 0l0 181.25986l-146.04724 0z" fill-rule="evenodd"/><path fill="#ff00ff" d="m216.45276 55.312336l97.33334 0l0 84.46719l-97.33334 0z" fill-rule="evenodd"/><path fill="#000000" fill-opacity="0.0" d="m228.61942 55.312336l0 84.46719m73.0 -84.46719l0 84.46719" fill-rule="evenodd"/><path fill="#000000" fill-opacity="0.0" d="m216.45276 55.312336l97.33334 0l0 84.46719l-97.33334 0z" fill-rule="evenodd"/><path stroke="#23282f" stroke-width="1.0" stroke-linejoin="round" stroke-linecap="butt" d="m228.61942 55.312336l0 84.46719m73.0 -84.46719l0 84.46719" fill-rule="evenodd"/><path stroke="#23282f" stroke-width="1.0" stroke-linejoin="round" stroke-linecap="butt" d="m216.45276 55.312336l97.33334 0l0 84.46719l-97.33334 0z" fill-rule="evenodd"/><path fill="#000000" d="m238.71317 86.34593l0 -9.46875l2.6875 0q1.234375 0 2.171875 0.546875q0.953125 0.546875 1.46875 1.5625q0.53125 1.0 0.53125 2.296875l0 0.609375q0 1.34375 -0.515625 2.359375q-0.515625 1.0 -1.484375 1.546875q-0.953125 0.53125 -2.234375 0.546875l-2.625 0zm1.25 -8.453125l0 7.4375l1.3125 0q1.453125 0 2.25 -0.890625q0.8125 -0.90625 0.8125 -2.578125l0 -0.546875q0 -1.609375 -0.765625 -2.5q-0.75 -0.90625 -2.140625 -0.921875l-1.46875 0zm10.224457 8.578125q-1.421875 0 -2.328125 -0.9375q-0.890625 -0.9375 -0.890625 -2.515625l0 -0.21875q0 -1.046875 0.390625 -1.859375q0.40625 -0.828125 1.125 -1.296875q0.71875 -0.46875 1.5625 -0.46875q1.375 0 2.125 0.90625q0.765625 0.90625 0.765625 2.59375l0 0.5l-4.765625 0q0.015625 1.03125 0.59375 1.671875q0.59375 0.640625 1.484375 0.640625q0.640625 0 1.078125 -0.25q0.453125 -0.265625 0.78125 -0.6875l0.734375 0.5625q-0.875 1.359375 -2.65625 1.359375zm-0.140625 -6.3125q-0.734375 0 -1.234375 0.53125q-0.484375 0.53125 -0.609375 1.484375l3.53125 0l0 -0.078125q-0.046875 -0.921875 -0.5 -1.421875q-0.4375 -0.515625 -1.1875 -0.515625zm6.523285 4.546875l1.75 -5.40625l1.21875 0l-2.515625 7.046875l-0.921875 0l-2.546875 -7.046875l1.21875 0l1.796875 5.40625zm5.4401855 1.640625l-1.203125 0l0 -7.046875l1.203125 0l0 7.046875zm-1.296875 -8.90625q0 -0.296875 0.171875 -0.5q0.1875 -0.203125 0.53125 -0.203125q0.359375 0 0.53125 0.203125q0.1875 0.203125 0.1875 0.5q0 0.296875 -0.1875 0.5q-0.171875 0.1875 -0.53125 0.1875q-0.34375 0 -0.53125 -0.1875q-0.171875 -0.203125 -0.171875 -0.5zm6.046936 8.046875q0.640625 0 1.125 -0.390625q0.484375 -0.390625 0.53125 -0.96875l1.140625 0q-0.03125 0.609375 -0.421875 1.15625q-0.375 0.546875 -1.015625 0.875q-0.640625 0.3125 -1.359375 0.3125q-1.4375 0 -2.296875 -0.953125q-0.84375 -0.96875 -0.84375 -2.625l0 -0.203125q0 -1.03125 0.375 -1.828125q0.390625 -0.796875 1.09375 -1.234375q0.703125 -0.453125 1.671875 -0.453125q1.171875 0 1.953125 0.71875q0.796875 0.703125 0.84375 1.828125l-1.140625 0q-0.046875 -0.671875 -0.515625 -1.109375q-0.46875 -0.453125 -1.140625 -0.453125q-0.921875 0 -1.4375 0.671875q-0.5 0.65625 -0.5 1.90625l0 0.21875q0 1.21875 0.5 1.875q0.515625 0.65625 1.4375 0.65625zm7.0701904 0.984375q-1.421875 0 -2.328125 -0.9375q-0.890625 -0.9375 -0.890625 -2.515625l0 -0.21875q0 -1.046875 0.390625 -1.859375q0.40625 -0.828125 1.125 -1.296875q0.71875 -0.46875 1.5625 -0.46875q1.375 0 2.125 0.90625q0.765625 0.90625 0.765625 2.59375l0 0.5l-4.765625 0q0.015625 1.03125 0.59375 1.671875q0.59375 0.640625 1.484375 0.640625q0.640625 0 1.078125 -0.25q0.453125 -0.265625 0.78125 -0.6875l0.734375 0.5625q-0.875 1.359375 -2.65625 1.359375zm-0.140625 -6.3125q-0.734375 0 -1.234375 0.53125q-0.484375 0.53125 -0.609375 1.484375l3.53125 0l0 -0.078125q-0.046875 -0.921875 -0.5 -1.421875q-0.4375 -0.515625 -1.1875 -0.515625z" fill-rule="nonzero"/><path fill="#000000" d="m240.33817 92.87718l3.09375 7.71875l3.09375 -7.71875l1.625 0l0 9.46875l-1.25 0l0 -3.6875l0.109375 -3.984375l-3.109375 7.671875l-0.953125 0l-3.109375 -7.65625l0.125 3.96875l0 3.6875l-1.25 0l0 -9.46875l1.625 0zm14.182953 9.46875q-0.109375 -0.203125 -0.171875 -0.734375q-0.84375 0.859375 -2.015625 0.859375q-1.03125 0 -1.703125 -0.578125q-0.671875 -0.59375 -0.671875 -1.5q0 -1.09375 0.828125 -1.703125q0.84375 -0.609375 2.359375 -0.609375l1.171875 0l0 -0.5625q0 -0.625 -0.375 -1.0q-0.375 -0.375 -1.109375 -0.375q-0.640625 0 -1.078125 0.328125q-0.4375 0.328125 -0.4375 0.78125l-1.203125 0q0 -0.515625 0.359375 -1.0q0.375 -0.5 1.015625 -0.78125q0.65625 -0.296875 1.421875 -0.296875q1.21875 0 1.90625 0.609375q0.6875 0.609375 0.71875 1.671875l0 3.25q0 0.96875 0.234375 1.53125l0 0.109375l-1.25 0zm-2.0 -0.921875q0.5625 0 1.0625 -0.28125q0.515625 -0.296875 0.734375 -0.765625l0 -1.453125l-0.9375 0q-2.21875 0 -2.21875 1.296875q0 0.5625 0.375 0.890625q0.390625 0.3125 0.984375 0.3125zm6.0310364 -6.125l0.046875 0.890625q0.796875 -1.015625 2.109375 -1.015625q2.234375 0 2.25 2.515625l0 4.65625l-1.203125 0l0 -4.65625q-0.015625 -0.765625 -0.359375 -1.125q-0.328125 -0.375 -1.0625 -0.375q-0.578125 0 -1.03125 0.3125q-0.4375 0.3125 -0.6875 0.828125l0 5.015625l-1.203125 0l0 -7.046875l1.140625 0zm10.572632 7.046875q-0.109375 -0.203125 -0.171875 -0.734375q-0.84375 0.859375 -2.015625 0.859375q-1.03125 0 -1.703125 -0.578125q-0.671875 -0.59375 -0.671875 -1.5q0 -1.09375 0.828125 -1.703125q0.84375 -0.609375 2.359375 -0.609375l1.171875 0l0 -0.5625q0 -0.625 -0.375 -1.0q-0.375 -0.375 -1.109375 -0.375q-0.640625 0 -1.078125 0.328125q-0.4375 0.328125 -0.4375 0.78125l-1.203125 0q0 -0.515625 0.359375 -1.0q0.375 -0.5 1.015625 -0.78125q0.65625 -0.296875 1.421875 -0.296875q1.21875 0 1.90625 0.609375q0.6875 0.609375 0.71875 1.671875l0 3.25q0 0.96875 0.234375 1.53125l0 0.109375l-1.25 0zm-2.0 -0.921875q0.5625 0 1.0625 -0.28125q0.515625 -0.296875 0.734375 -0.765625l0 -1.453125l-0.9375 0q-2.21875 0 -2.21875 1.296875q0 0.5625 0.375 0.890625q0.390625 0.3125 0.984375 0.3125zm4.6091614 -2.65625q0 -1.640625 0.75 -2.609375q0.765625 -0.984375 2.03125 -0.984375q1.28125 0 2.015625 0.90625l0.046875 -0.78125l1.109375 0l0 6.875q0 1.375 -0.8125 2.15625q-0.8125 0.78125 -2.1875 0.78125q-0.75 0 -1.484375 -0.328125q-0.734375 -0.3125 -1.109375 -0.875l0.625 -0.734375q0.765625 0.96875 1.890625 0.96875q0.875 0 1.359375 -0.5q0.5 -0.5 0.5 -1.390625l0 -0.609375q-0.71875 0.828125 -1.96875 0.828125q-1.234375 0 -2.0 -0.984375q-0.765625 -1.0 -0.765625 -2.71875zm1.203125 0.140625q0 1.1875 0.484375 1.875q0.5 0.671875 1.375 0.671875q1.140625 0 1.671875 -1.03125l0 -3.21875q-0.546875 -1.015625 -1.65625 -1.015625q-0.875 0 -1.375 0.6875q-0.5 0.6875 -0.5 2.03125zm9.477539 3.5625q-1.421875 0 -2.328125 -0.9375q-0.890625 -0.9375 -0.890625 -2.515625l0 -0.21875q0 -1.046875 0.390625 -1.859375q0.40625 -0.828125 1.125 -1.296875q0.71875 -0.46875 1.5625 -0.46875q1.375 0 2.125 0.90625q0.765625 0.90625 0.765625 2.59375l0 0.5l-4.765625 0q0.015625 1.03125 0.59375 1.671875q0.59375 0.640625 1.484375 0.640625q0.640625 0 1.078125 -0.25q0.453125 -0.265625 0.78125 -0.6875l0.734375 0.5625q-0.875 1.359375 -2.65625 1.359375zm-0.140625 -6.3125q-0.734375 0 -1.234375 0.53125q-0.484375 0.53125 -0.609375 1.484375l3.53125 0l0 -0.078125q-0.046875 -0.921875 -0.5 -1.421875q-0.4375 -0.515625 -1.1875 -0.515625zm7.6860657 0.21875q-0.265625 -0.03125 -0.59375 -0.03125q-1.1875 0 -1.609375 1.0l0 5.0l-1.203125 0l0 -7.046875l1.171875 0l0.03125 0.8125q0.578125 -0.9375 1.671875 -0.9375q0.34375 0 0.53125 0.09375l0 1.109375z" fill-rule="nonzero"/><path fill="#000000" d="m243.94754 115.87718l-3.96875 0l-0.890625 2.46875l-1.28125 0l3.609375 -9.46875l1.09375 0l3.625 9.46875l-1.28125 0l-0.90625 -2.46875zm-3.59375 -1.03125l3.234375 0l-1.625 -4.4375l-1.609375 4.4375zm12.819519 0.0625q0 1.609375 -0.734375 2.59375q-0.734375 0.96875 -2.0 0.96875q-1.28125 0 -2.015625 -0.8125l0 3.390625l-1.203125 0l0 -9.75l1.109375 0l0.046875 0.78125q0.75 -0.90625 2.046875 -0.90625q1.265625 0 2.0 0.953125q0.75 0.953125 0.75 2.671875l0 0.109375zm-1.203125 -0.140625q0 -1.1875 -0.515625 -1.875q-0.5 -0.703125 -1.390625 -0.703125q-1.09375 0 -1.640625 0.96875l0 3.375q0.546875 0.953125 1.65625 0.953125q0.875 0 1.375 -0.671875q0.515625 -0.6875 0.515625 -2.046875zm8.680695 0.140625q0 1.609375 -0.734375 2.59375q-0.734375 0.96875 -2.0 0.96875q-1.28125 0 -2.0156403 -0.8125l0 3.390625l-1.203125 0l0 -9.75l1.109375 0l0.046875 0.78125q0.75001526 -0.90625 2.0468903 -0.90625q1.265625 0 2.0 0.953125q0.75 0.953125 0.75 2.671875l0 0.109375zm-1.203125 -0.140625q0 -1.1875 -0.515625 -1.875q-0.5 -0.703125 -1.390625 -0.703125q-1.09375 0 -1.6406403 0.96875l0 3.375q0.54689026 0.953125 1.6562653 0.953125q0.875 0 1.375 -0.671875q0.515625 -0.6875 0.515625 -2.046875z" fill-rule="nonzero"/><path fill="#000000" fill-opacity="0.0" d="m69.255905 32.986877l106.29921 0l0 33.95276l-106.29921 0z" fill-rule="evenodd"/><path fill="#000000" d="m90.225044 45.786877l-1.109375 0l0 -8.53125l-3.015625 0l0 -0.984375l7.140625 0l0 0.984375l-3.015625 0l0 8.53125zm7.5453033 -7.265625q0.46875 0 0.84375 0.078125l-0.140625 1.0q-0.453125 -0.09375 -0.78125 -0.09375q-0.875 0 -1.5 0.703125q-0.609375 0.703125 -0.609375 1.75l0 3.828125l-1.078125 0l0 -7.125l0.890625 0l0.125 1.3125l0.0625 0q0.390625 -0.703125 0.953125 -1.078125q0.5625 -0.375 1.234375 -0.375zm6.5655823 7.265625l-0.21875 -1.015625l-0.046875 0q-0.53125 0.671875 -1.0625 0.90625q-0.53125 0.234375 -1.328125 0.234375q-1.0625 0 -1.671875 -0.546875q-0.59375 -0.546875 -0.59375 -1.546875q0 -2.15625 3.453125 -2.265625l1.21875 -0.046875l0 -0.4375q0 -0.84375 -0.359375 -1.234375q-0.359375 -0.40625 -1.15625 -0.40625q-0.890625 0 -2.015625 0.546875l-0.34375 -0.828125q0.53125 -0.28125 1.15625 -0.4375q0.640625 -0.171875 1.265625 -0.171875q1.28125 0 1.890625 0.5625q0.609375 0.5625 0.609375 1.8125l0 4.875l-0.796875 0zm-2.4375 -0.765625q1.0 0 1.578125 -0.546875q0.578125 -0.5625 0.578125 -1.546875l0 -0.640625l-1.078125 0.03125q-1.28125 0.046875 -1.859375 0.40625q-0.5625 0.359375 -0.5625 1.109375q0 0.578125 0.34375 0.890625q0.359375 0.296875 1.0 0.296875zm10.349976 0.765625l0 -4.609375q0 -0.875 -0.40625 -1.296875q-0.390625 -0.4375 -1.234375 -0.4375q-1.125 0 -1.65625 0.609375q-0.515625 0.59375 -0.515625 2.0l0 3.734375l-1.078125 0l0 -7.125l0.890625 0l0.171875 0.96875l0.046875 0q0.328125 -0.53125 0.921875 -0.8125q0.609375 -0.296875 1.34375 -0.296875q1.296875 0 1.9375 0.625q0.65625 0.625 0.65625 1.984375l0 4.65625l-1.078125 0zm7.8991547 -1.953125q0 1.0 -0.75 1.546875q-0.734375 0.53125 -2.078125 0.53125q-1.421875 0 -2.21875 -0.4375l0 -1.015625q0.515625 0.265625 1.109375 0.421875q0.59375 0.140625 1.140625 0.140625q0.84375 0 1.296875 -0.265625q0.453125 -0.265625 0.453125 -0.828125q0 -0.40625 -0.359375 -0.703125q-0.359375 -0.296875 -1.40625 -0.703125q-1.0 -0.375 -1.421875 -0.640625q-0.421875 -0.28125 -0.625 -0.625q-0.203125 -0.359375 -0.203125 -0.84375q0 -0.875 0.703125 -1.375q0.71875 -0.515625 1.953125 -0.515625q1.15625 0 2.25 0.46875l-0.375 0.875q-1.078125 -0.4375 -1.953125 -0.4375q-0.765625 0 -1.15625 0.25q-0.390625 0.234375 -0.390625 0.65625q0 0.28125 0.140625 0.484375q0.15625 0.203125 0.46875 0.390625q0.328125 0.171875 1.25 0.53125q1.28125 0.453125 1.71875 0.921875q0.453125 0.46875 0.453125 1.171875zm6.13945 1.953125l-0.21875 -1.015625l-0.046875 0q-0.53125 0.671875 -1.0625 0.90625q-0.53125 0.234375 -1.328125 0.234375q-1.0625 0 -1.671875 -0.546875q-0.59375 -0.546875 -0.59375 -1.546875q0 -2.15625 3.453125 -2.265625l1.21875 -0.046875l0 -0.4375q0 -0.84375 -0.359375 -1.234375q-0.359375 -0.40625 -1.15625 -0.40625q-0.890625 0 -2.015625 0.546875l-0.34375 -0.828125q0.53125 -0.28125 1.15625 -0.4375q0.640625 -0.171875 1.265625 -0.171875q1.28125 0 1.890625 0.5625q0.609375 0.5625 0.609375 1.8125l0 4.875l-0.796875 0zm-2.4375 -0.765625q1.0 0 1.578125 -0.546875q0.578125 -0.5625 0.578125 -1.546875l0 -0.640625l-1.078125 0.03125q-1.28125 0.046875 -1.859375 0.40625q-0.5625 0.359375 -0.5625 1.109375q0 0.578125 0.34375 0.890625q0.359375 0.296875 1.0 0.296875zm8.318733 0.890625q-1.546875 0 -2.40625 -0.953125q-0.84375 -0.953125 -0.84375 -2.6875q0 -1.796875 0.859375 -2.765625q0.859375 -0.984375 2.453125 -0.984375q0.515625 0 1.03125 0.109375q0.515625 0.109375 0.8125 0.265625l-0.328125 0.921875q-0.359375 -0.15625 -0.796875 -0.25q-0.421875 -0.09375 -0.734375 -0.09375q-2.171875 0 -2.171875 2.78125q0 1.3125 0.515625 2.015625q0.53125 0.703125 1.578125 0.703125q0.890625 0 1.828125 -0.390625l0 0.96875q-0.71875 0.359375 -1.796875 0.359375zm5.7983093 -0.890625q0.28125 0 0.546875 -0.03125q0.265625 -0.046875 0.421875 -0.09375l0 0.828125q-0.171875 0.078125 -0.515625 0.125q-0.34375 0.0625 -0.609375 0.0625q-2.078125 0 -2.078125 -2.171875l0 -4.25l-1.015625 0l0 -0.515625l1.015625 -0.453125l0.453125 -1.515625l0.625 0l0 1.65625l2.078125 0l0 0.828125l-2.078125 0l0 4.203125q0 0.640625 0.3125 0.984375q0.3125 0.34375 0.84375 0.34375zm3.4708252 0.765625l-1.078125 0l0 -7.125l1.078125 0l0 7.125zm-1.171875 -9.0625q0 -0.375 0.1875 -0.546875q0.1875 -0.171875 0.453125 -0.171875q0.265625 0 0.453125 0.171875q0.1875 0.171875 0.1875 0.546875q0 0.359375 -0.1875 0.546875q-0.1875 0.171875 -0.453125 0.171875q-0.265625 0 -0.453125 -0.171875q-0.1875 -0.1875 -0.1875 -0.546875zm9.6210785 5.484375q0 1.75 -0.875 2.734375q-0.875 0.96875 -2.421875 0.96875q-0.953125 0 -1.703125 -0.4375q-0.734375 -0.453125 -1.140625 -1.296875q-0.40625 -0.84375 -0.40625 -1.96875q0 -1.734375 0.875 -2.703125q0.875 -0.984375 2.421875 -0.984375q1.484375 0 2.359375 1.0q0.890625 1.0 0.890625 2.6875zm-5.421875 0q0 1.375 0.546875 2.09375q0.546875 0.703125 1.59375 0.703125q1.0625 0 1.609375 -0.703125q0.5625 -0.71875 0.5625 -2.09375q0 -1.359375 -0.5625 -2.0625q-0.546875 -0.703125 -1.609375 -0.703125q-1.0625 0 -1.609375 0.703125q-0.53125 0.6875 -0.53125 2.0625zm12.206497 3.578125l0 -4.609375q0 -0.875 -0.40625 -1.296875q-0.390625 -0.4375 -1.234375 -0.4375q-1.125 0 -1.65625 0.609375q-0.515625 0.59375 -0.515625 2.0l0 3.734375l-1.078125 0l0 -7.125l0.890625 0l0.171875 0.96875l0.046875 0q0.328125 -0.53125 0.921875 -0.8125q0.609375 -0.296875 1.34375 -0.296875q1.296875 0 1.9375 0.625q0.65625 0.625 0.65625 1.984375l0 4.65625l-1.078125 0z" fill-rule="nonzero"/><path fill="#000000" d="m88.00117 61.786877l-1.078125 0l0 -7.125l1.078125 0l0 7.125zm-1.171875 -9.0625q0 -0.375 0.1875 -0.546875q0.1875 -0.171875 0.453125 -0.171875q0.265625 0 0.453125 0.171875q0.1875 0.171875 0.1875 0.546875q0 0.359375 -0.1875 0.546875q-0.1875 0.171875 -0.453125 0.171875q-0.265625 0 -0.453125 -0.171875q-0.1875 -0.1875 -0.1875 -0.546875zm8.3554535 9.0625l0 -4.609375q0 -0.875 -0.40625 -1.296875q-0.390625 -0.4375 -1.234375 -0.4375q-1.125 0 -1.65625 0.609375q-0.515625 0.59375 -0.515625 2.0l0 3.734375l-1.078125 0l0 -7.125l0.890625 0l0.171875 0.96875l0.046875 0q0.328125 -0.53125 0.921875 -0.8125q0.609375 -0.296875 1.34375 -0.296875q1.296875 0 1.9375 0.625q0.65625 0.625 0.65625 1.984375l0 4.65625l-1.078125 0zm7.8991547 -1.953125q0 1.0 -0.75 1.546875q-0.734375 0.53125 -2.078125 0.53125q-1.421875 0 -2.21875 -0.4375l0 -1.015625q0.515625 0.265625 1.109375 0.421875q0.59375 0.140625 1.140625 0.140625q0.84375 0 1.296875 -0.265625q0.453125 -0.265625 0.453125 -0.828125q0 -0.40625 -0.359375 -0.703125q-0.359375 -0.296875 -1.40625 -0.703125q-1.0 -0.375 -1.421875 -0.640625q-0.421875 -0.28125 -0.625 -0.625q-0.203125 -0.359375 -0.203125 -0.84375q0 -0.875 0.703125 -1.375q0.71875 -0.515625 1.953125 -0.515625q1.15625 0 2.25 0.46875l-0.375 0.875q-1.078125 -0.4375 -1.953125 -0.4375q-0.765625 0 -1.15625 0.25q-0.390625 0.234375 -0.390625 0.65625q0 0.28125 0.140625 0.484375q0.15625 0.203125 0.46875 0.390625q0.328125 0.171875 1.25 0.53125q1.28125 0.453125 1.71875 0.921875q0.453125 0.46875 0.453125 1.171875zm4.061325 1.1875q0.28125 0 0.546875 -0.03125q0.265625 -0.046875 0.421875 -0.09375l0 0.828125q-0.171875 0.078125 -0.515625 0.125q-0.34375 0.0625 -0.609375 0.0625q-2.078125 0 -2.078125 -2.171875l0 -4.25l-1.015625 0l0 -0.515625l1.015625 -0.453125l0.453125 -1.515625l0.625 0l0 1.65625l2.078125 0l0 0.828125l-2.078125 0l0 4.203125q0 0.640625 0.3125 0.984375q0.3125 0.34375 0.84375 0.34375zm5.658325 -6.5q0.46875 0 0.84375 0.078125l-0.140625 1.0q-0.453125 -0.09375 -0.78125 -0.09375q-0.875 0 -1.5 0.703125q-0.609375 0.703125 -0.609375 1.75l0 3.828125l-1.078125 0l0 -7.125l0.890625 0l0.125 1.3125l0.0625 0q0.390625 -0.703125 0.953125 -1.078125q0.5625 -0.375 1.234375 -0.375zm3.1905823 0.140625l0 4.625q0 0.859375 0.390625 1.296875q0.40625 0.421875 1.25 0.421875q1.125 0 1.640625 -0.609375q0.515625 -0.609375 0.515625 -2.0l0 -3.734375l1.078125 0l0 7.125l-0.890625 0l-0.15625 -0.953125l-0.0625 0q-0.328125 0.53125 -0.921875 0.8125q-0.578125 0.265625 -1.34375 0.265625q-1.296875 0 -1.953125 -0.609375q-0.640625 -0.625 -0.640625 -1.984375l0 -4.65625l1.09375 0zm10.024155 7.25q-1.546875 0 -2.40625 -0.953125q-0.84375 -0.953125 -0.84375 -2.6875q0 -1.796875 0.859375 -2.765625q0.859375 -0.984375 2.453125 -0.984375q0.515625 0 1.03125 0.109375q0.515625 0.109375 0.8125 0.265625l-0.328125 0.921875q-0.359375 -0.15625 -0.796875 -0.25q-0.421875 -0.09375 -0.734375 -0.09375q-2.171875 0 -2.171875 2.78125q0 1.3125 0.515625 2.015625q0.53125 0.703125 1.578125 0.703125q0.890625 0 1.828125 -0.390625l0 0.96875q-0.71875 0.359375 -1.796875 0.359375zm5.798317 -0.890625q0.28125 0 0.546875 -0.03125q0.265625 -0.046875 0.421875 -0.09375l0 0.828125q-0.171875 0.078125 -0.515625 0.125q-0.34375 0.0625 -0.609375 0.0625q-2.078125 0 -2.078125 -2.171875l0 -4.25l-1.015625 0l0 -0.515625l1.015625 -0.453125l0.453125 -1.515625l0.625 0l0 1.65625l2.078125 0l0 0.828125l-2.078125 0l0 4.203125q0 0.640625 0.3125 0.984375q0.3125 0.34375 0.84375 0.34375zm3.4708252 0.765625l-1.078125 0l0 -7.125l1.078125 0l0 7.125zm-1.171875 -9.0625q0 -0.375 0.1875 -0.546875q0.1875 -0.171875 0.453125 -0.171875q0.265625 0 0.453125 0.171875q0.1875 0.171875 0.1875 0.546875q0 0.359375 -0.1875 0.546875q-0.1875 0.171875 -0.453125 0.171875q-0.265625 0 -0.453125 -0.171875q-0.1875 -0.1875 -0.1875 -0.546875zm9.6210785 5.484375q0 1.75 -0.875 2.734375q-0.875 0.96875 -2.421875 0.96875q-0.953125 0 -1.703125 -0.4375q-0.734375 -0.453125 -1.140625 -1.296875q-0.40625 -0.84375 -0.40625 -1.96875q0 -1.734375 0.875 -2.703125q0.875 -0.984375 2.421875 -0.984375q1.484375 0 2.359375 1.0q0.890625 1.0 0.890625 2.6875zm-5.421875 0q0 1.375 0.546875 2.09375q0.546875 0.703125 1.59375 0.703125q1.0625 0 1.609375 -0.703125q0.5625 -0.71875 0.5625 -2.09375q0 -1.359375 -0.5625 -2.0625q-0.546875 -0.703125 -1.609375 -0.703125q-1.0625 0 -1.609375 0.703125q-0.53125 0.6875 -0.53125 2.0625zm12.206497 3.578125l0 -4.609375q0 -0.875 -0.40625 -1.296875q-0.390625 -0.4375 -1.234375 -0.4375q-1.125 0 -1.65625 0.609375q-0.515625 0.59375 -0.515625 2.0l0 3.734375l-1.078125 0l0 -7.125l0.890625 0l0.171875 0.96875l0.046875 0q0.328125 -0.53125 0.921875 -0.8125q0.609375 -0.296875 1.34375 -0.296875q1.296875 0 1.9375 0.625q0.65625 0.625 0.65625 1.984375l0 4.65625l-1.078125 0zm7.8991547 -1.953125q0 1.0 -0.75 1.546875q-0.734375 0.53125 -2.078125 0.53125q-1.421875 0 -2.21875 -0.4375l0 -1.015625q0.515625 0.265625 1.109375 0.421875q0.59375 0.140625 1.140625 0.140625q0.84375 0 1.296875 -0.265625q0.453125 -0.265625 0.453125 -0.828125q0 -0.40625 -0.359375 -0.703125q-0.359375 -0.296875 -1.40625 -0.703125q-1.0 -0.375 -1.421875 -0.640625q-0.421875 -0.28125 -0.625 -0.625q-0.203125 -0.359375 -0.203125 -0.84375q0 -0.875 0.703125 -1.375q0.71875 -0.515625 1.953125 -0.515625q1.15625 0 2.25 0.46875l-0.375 0.875q-1.078125 -0.4375 -1.953125 -0.4375q-0.765625 0 -1.15625 0.25q-0.390625 0.234375 -0.390625 0.65625q0 0.28125 0.140625 0.484375q0.15625 0.203125 0.46875 0.390625q0.328125 0.171875 1.25 0.53125q1.28125 0.453125 1.71875 0.921875q0.453125 0.46875 0.453125 1.171875z" fill-rule="nonzero"/><path fill="#000000" fill-opacity="0.0" d="m189.22835 163.81364l146.04726 0l0 33.95276l-146.04726 0z" fill-rule="evenodd"/><path fill="#000000" d="m210.97333 175.12427l3.46875 -6.65625l1.984375 0l-4.578125 8.3125l0 4.953125l-1.75 0l0 -4.953125l-4.5625 -8.3125l2.0 0l3.4375 6.65625zm5.8622284 1.59375q0 -1.453125 0.5625 -2.609375q0.578125 -1.15625 1.59375 -1.78125q1.015625 -0.625 2.3125 -0.625q2.015625 0 3.25 1.390625q1.25 1.390625 1.25 3.703125l0 0.125q0 1.4375 -0.546875 2.578125q-0.546875 1.140625 -1.578125 1.78125q-1.015625 0.640625 -2.359375 0.640625q-2.0 0 -3.25 -1.390625q-1.234375 -1.40625 -1.234375 -3.703125l0 -0.109375zm1.6875 0.203125q0 1.640625 0.765625 2.640625q0.765625 0.984375 2.03125 0.984375q1.296875 0 2.046875 -1.0q0.75 -1.015625 0.75 -2.828125q0 -1.625 -0.765625 -2.625q-0.765625 -1.015625 -2.046875 -1.015625q-1.25 0 -2.015625 1.0q-0.765625 0.984375 -0.765625 2.84375zm15.483643 3.84375q-0.984375 1.15625 -2.890625 1.15625q-1.578125 0 -2.40625 -0.921875q-0.8125 -0.921875 -0.828125 -2.703125l0 -6.421875l1.6875 0l0 6.375q0 2.234375 1.828125 2.234375q1.921875 0 2.5625 -1.4375l0 -7.171875l1.6875 0l0 9.859375l-1.609375 0l-0.03125 -0.96875zm8.972122 -7.375q-0.390625 -0.0625 -0.84375 -0.0625q-1.65625 0 -2.25 1.40625l0 7.0l-1.671875 0l0 -9.859375l1.640625 0l0.015625 1.140625q0.828125 -1.3125 2.359375 -1.3125q0.484375 0 0.75 0.125l0 1.5625zm7.7438965 -1.515625l0.046875 1.09375q1.078125 -1.265625 2.921875 -1.265625q2.0625 0 2.8125 1.578125q0.5 -0.71875 1.28125 -1.140625q0.796875 -0.4375 1.859375 -0.4375q3.25 0 3.296875 3.421875l0 6.609375l-1.671875 0l0 -6.5q0 -1.0625 -0.484375 -1.578125q-0.484375 -0.53125 -1.625 -0.53125q-0.9375 0 -1.5625 0.5625q-0.609375 0.5625 -0.71875 1.5l0 6.546875l-1.6875 0l0 -6.453125q0 -2.15625 -2.109375 -2.15625q-1.65625 0 -2.265625 1.40625l0 7.203125l-1.6875 0l0 -9.859375l1.59375 0zm20.851562 9.859375q-0.140625 -0.296875 -0.234375 -1.03125q-1.171875 1.21875 -2.8125 1.21875q-1.453125 0 -2.390625 -0.828125q-0.921875 -0.828125 -0.921875 -2.09375q0 -1.53125 1.15625 -2.375q1.171875 -0.859375 3.296875 -0.859375l1.640625 0l0 -0.78125q0 -0.890625 -0.53125 -1.40625q-0.515625 -0.53125 -1.546875 -0.53125q-0.90625 0 -1.515625 0.46875q-0.609375 0.453125 -0.609375 1.09375l-1.703125 0q0 -0.734375 0.515625 -1.421875q0.53125 -0.6875 1.421875 -1.078125q0.90625 -0.40625 1.984375 -0.40625q1.703125 0 2.671875 0.859375q0.96875 0.84375 1.0 2.328125l0 4.53125q0 1.359375 0.34375 2.171875l0 0.140625l-1.765625 0zm-2.796875 -1.28125q0.796875 0 1.5 -0.40625q0.71875 -0.421875 1.03125 -1.078125l0 -2.015625l-1.3125 0q-3.109375 0 -3.109375 1.8125q0 0.796875 0.53125 1.25q0.53125 0.4375 1.359375 0.4375zm10.819855 0.09375q0.890625 0 1.5625 -0.546875q0.6875 -0.546875 0.75 -1.375l1.59375 0q-0.046875 0.84375 -0.578125 1.609375q-0.53125 0.765625 -1.4375 1.234375q-0.890625 0.453125 -1.890625 0.453125q-2.015625 0 -3.203125 -1.34375q-1.1875 -1.34375 -1.1875 -3.6875l0 -0.28125q0 -1.4375 0.515625 -2.546875q0.53125 -1.125 1.515625 -1.734375q1.0 -0.625 2.34375 -0.625q1.65625 0 2.75 1.0q1.109375 0.984375 1.171875 2.5625l-1.59375 0q-0.0625 -0.953125 -0.71875 -1.5625q-0.65625 -0.625 -1.609375 -0.625q-1.28125 0 -2.0 0.921875q-0.703125 0.921875 -0.703125 2.671875l0 0.328125q0 1.703125 0.703125 2.625q0.703125 0.921875 2.015625 0.921875zm7.484131 -7.46875q1.125 -1.375 2.921875 -1.375q3.125 0 3.15625 3.515625l0 6.515625l-1.6875 0l0 -6.515625q-0.015625 -1.078125 -0.5 -1.578125q-0.46875 -0.515625 -1.484375 -0.515625q-0.8125 0 -1.4375 0.4375q-0.609375 0.4375 -0.96875 1.15625l0 7.015625l-1.671875 0l0 -14.0l1.671875 0l0 5.34375zm10.431763 8.65625l-1.6875 0l0 -9.859375l1.6875 0l0 9.859375zm-1.828125 -12.46875q0 -0.40625 0.25 -0.6875q0.25 -0.296875 0.734375 -0.296875q0.5 0 0.75 0.296875q0.265625 0.28125 0.265625 0.6875q0 0.40625 -0.265625 0.6875q-0.25 0.265625 -0.75 0.265625q-0.484375 0 -0.734375 -0.265625q-0.25 -0.28125 -0.25 -0.6875zm6.121155 2.609375l0.046875 1.234375q1.125 -1.40625 2.953125 -1.40625q3.125 0 3.15625 3.515625l0 6.515625l-1.6875 0l0 -6.515625q-0.015625 -1.078125 -0.5 -1.578125q-0.46875 -0.515625 -1.484375 -0.515625q-0.8125 0 -1.4375 0.4375q-0.609375 0.4375 -0.96875 1.15625l0 7.015625l-1.671875 0l0 -9.859375l1.59375 0zm12.778107 10.046875q-2.0 0 -3.265625 -1.3125q-1.25 -1.328125 -1.25 -3.53125l0 -0.3125q0 -1.46875 0.5625 -2.609375q0.5625 -1.15625 1.5625 -1.796875q1.015625 -0.65625 2.1875 -0.65625q1.921875 0 2.984375 1.265625q1.0625 1.265625 1.0625 3.625l0 0.6875l-6.671875 0q0.03125 1.46875 0.84375 2.375q0.828125 0.890625 2.078125 0.890625q0.890625 0 1.515625 -0.359375q0.625 -0.375 1.078125 -0.96875l1.03125 0.796875q-1.234375 1.90625 -3.71875 1.90625zm-0.203125 -8.84375q-1.015625 0 -1.71875 0.75q-0.6875 0.734375 -0.84375 2.078125l4.9375 0l0 -0.125q-0.078125 -1.28125 -0.703125 -1.984375q-0.609375 -0.71875 -1.671875 -0.71875z" fill-rule="nonzero"/><path fill="#e6e7e8" d="m479.1056 93.48861l0 0c-1.6187744 -10.734978 3.6960144 -21.361954 13.689087 -27.371513c9.993103 -6.009556 22.911926 -6.347748 33.274597 -0.87107086l0 0c3.6707153 -6.2417564 10.389282 -10.551266 18.123413 -11.624973c7.734131 -1.0737076 15.575439 1.2144928 21.152039 6.1724663l0 0c3.1270142 -5.6591835 9.266968 -9.46143 16.241089 -10.057507c6.974121 -0.59607697 13.79541 2.0983734 18.043274 7.127224l0 0c5.649414 -5.9987183 14.637756 -8.524429 23.075745 -6.4842415c8.437988 2.0401878 14.810059 8.279839 16.359009 16.019016l0 0c6.921509 1.703659 12.686951 6.0345993 15.806763 11.873825c3.119812 5.8392334 3.2879028 12.613945 0.4609375 18.573769l0 0c6.815613 8.0047 8.409973 18.67086 4.1880493 28.018066c-4.221924 9.347206 -13.6258545 15.971138 -24.702332 17.39988c-0.078063965 8.772675 -5.409729 16.822388 -13.939941 21.046417c-8.530212 4.2240295 -18.92688 3.9627686 -27.18274 -0.68307495c-3.5166016 10.506805 -13.414551 18.237625 -25.417603 19.852432c-12.003052 1.6148224 -23.959473 -3.1758423 -30.703552 -12.302246c-8.266907 4.4984283 -18.186462 5.794281 -27.521027 3.5952454c-9.334564 -2.1990356 -17.297913 -7.707733 -22.093597 -15.283447l0 0c-8.447693 0.8920593 -16.615448 -3.0574799 -20.449646 -9.8884735c-3.8341675 -6.8309937 -2.5185852 -15.089294 3.2938538 -20.67633l0 0c-7.535553 -4.002289 -11.380676 -11.944153 -9.530243 -19.68422c1.8504333 -7.7400665 8.977112 -13.524422 17.663696 -14.336739z" fill-rule="evenodd"/><path fill="#000000" fill-opacity="0.0" d="m470.80515 127.9233l0 0c3.5560608 1.8886948 7.6641235 2.7454453 11.772675 2.4552383m5.381256 28.11026c1.7668457 -0.18658447 3.4986572 -0.58166504 5.1507874 -1.1750793m44.461365 12.862778c-1.2426758 -1.6816101 -2.283081 -3.4785767 -3.1035156 -5.36026m59.226807 -2.1902313l0 0c0.6411133 -1.9155426 1.0565186 -3.8870544 1.2392578 -5.881653m39.881897 -14.480957c0.08306885 -9.33989 -5.7955933 -17.891571 -15.111023 -21.981865m35.625122 -23.43509c-1.508606 3.1804047 -3.8117065 6.0016937 -6.7285767 8.242668m-9.53772 -38.6911l0 0c0.25701904 1.2843246 0.37597656 2.587944 0.3552246 3.8927994m-39.789307 -13.427185l0 0c-1.4092407 1.4963837 -2.5703125 3.1685715 -3.4469604 4.9644966m-30.837708 -2.0348663l0 0c-0.7510376 1.3591537 -1.3118286 2.797367 -1.6694946 4.281521m-37.606567 1.1711044l0 0c2.192688 1.1588593 4.2212524 2.5536728 6.0411377 4.153801m-53.00421 24.088928l0 0c0.22311401 1.4795609 0.57562256 2.9408798 1.0542908 4.3702774" fill-rule="evenodd"/><path stroke="#000000" stroke-width="1.0" stroke-linejoin="round" stroke-linecap="butt" d="m479.1056 93.48861l0 0c-1.6187744 -10.734978 3.6960144 -21.361954 13.689087 -27.371513c9.993103 -6.009556 22.911926 -6.347748 33.274597 -0.87107086l0 0c3.6707153 -6.2417564 10.389282 -10.551266 18.123413 -11.624973c7.734131 -1.0737076 15.575439 1.2144928 21.152039 6.1724663l0 0c3.1270142 -5.6591835 9.266968 -9.46143 16.241089 -10.057507c6.974121 -0.59607697 13.79541 2.0983734 18.043274 7.127224l0 0c5.649414 -5.9987183 14.637756 -8.524429 23.075745 -6.4842415c8.437988 2.0401878 14.810059 8.279839 16.359009 16.019016l0 0c6.921509 1.703659 12.686951 6.0345993 15.806763 11.873825c3.119812 5.8392334 3.2879028 12.613945 0.4609375 18.573769l0 0c6.815613 8.0047 8.409973 18.67086 4.1880493 28.018066c-4.221924 9.347206 -13.6258545 15.971138 -24.702332 17.39988c-0.078063965 8.772675 -5.409729 16.822388 -13.939941 21.046417c-8.530212 4.2240295 -18.92688 3.9627686 -27.18274 -0.68307495c-3.5166016 10.506805 -13.414551 18.237625 -25.417603 19.852432c-12.003052 1.6148224 -23.959473 -3.1758423 -30.703552 -12.302246c-8.266907 4.4984283 -18.186462 5.794281 -27.521027 3.5952454c-9.334564 -2.1990356 -17.297913 -7.707733 -22.093597 -15.283447l0 0c-8.447693 0.8920593 -16.615448 -3.0574799 -20.449646 -9.8884735c-3.8341675 -6.8309937 -2.5185852 -15.089294 3.2938538 -20.67633l0 0c-7.535553 -4.002289 -11.380676 -11.944153 -9.530243 -19.68422c1.8504333 -7.7400665 8.977112 -13.524422 17.663696 -14.336739z" fill-rule="evenodd"/><path stroke="#000000" stroke-width="1.0" stroke-linejoin="round" stroke-linecap="butt" d="m470.80515 127.9233l0 0c3.5560608 1.8886948 7.6641235 2.7454453 11.772675 2.4552383m5.381256 28.11026c1.7668457 -0.18658447 3.4986572 -0.58166504 5.1507874 -1.1750793m44.461365 12.862778c-1.2426758 -1.6816101 -2.283081 -3.4785767 -3.1035156 -5.36026m59.226807 -2.1902313l0 0c0.6411133 -1.9155426 1.0565186 -3.8870544 1.2392578 -5.881653m39.881897 -14.480957c0.08306885 -9.33989 -5.7955933 -17.891571 -15.111023 -21.981865m35.625122 -23.43509c-1.508606 3.1804047 -3.8117065 6.0016937 -6.7285767 8.242668m-9.53772 -38.6911l0 0c0.25701904 1.2843246 0.37597656 2.587944 0.3552246 3.8927994m-39.789307 -13.427185l0 0c-1.4092407 1.4963837 -2.5703125 3.1685715 -3.4469604 4.9644966m-30.837708 -2.0348663l0 0c-0.7510376 1.3591537 -1.3118286 2.797367 -1.6694946 4.281521m-37.606567 1.1711044l0 0c2.192688 1.1588593 4.2212524 2.5536728 6.0411377 4.153801m-53.00421 24.088928l0 0c0.22311401 1.4795609 0.57562256 2.9408798 1.0542908 4.3702774" fill-rule="evenodd"/><path fill="#000000" fill-opacity="0.0" d="m335.71332 105.61727l146.04724 0" fill-rule="evenodd"/><path stroke="#00aae4" stroke-width="2.0" stroke-linejoin="round" stroke-linecap="butt" d="m335.71332 105.61727l134.04727 0" fill-rule="evenodd"/><path fill="#00aae4" stroke="#00aae4" stroke-width="2.0" stroke-linecap="butt" d="m469.7606 108.92073l9.076172 -3.3034592l-9.076172 -3.3034668z" fill-rule="evenodd"/><path fill="#000000" fill-opacity="0.0" d="m476.1672 70.859314l186.86612 0l0 33.95276l-186.86612 0z" fill-rule="evenodd"/><path fill="#000000" d="m541.0569 88.77931l-1.75 0l0 -13.265625l1.75 0l0 13.265625zm4.5271606 -9.859375l0.046875 1.234375q1.125 -1.40625 2.953125 -1.40625q3.125 0 3.15625 3.515625l0 6.515625l-1.6875 0l0 -6.515625q-0.015625 -1.078125 -0.5 -1.578125q-0.46875 -0.515625 -1.484375 -0.515625q-0.8125 0 -1.4375 0.4375q-0.609375 0.4375 -0.96875 1.15625l0 7.015625l-1.671875 0l0 -9.859375l1.59375 0zm10.981201 -2.390625l0 2.390625l1.84375 0l0 1.3125l-1.84375 0l0 6.109375q0 0.59375 0.234375 0.890625q0.25 0.296875 0.84375 0.296875q0.296875 0 0.8125 -0.109375l0 1.359375q-0.671875 0.1875 -1.296875 0.1875q-1.125 0 -1.703125 -0.6875q-0.578125 -0.6875 -0.578125 -1.9375l0 -6.109375l-1.796875 0l0 -1.3125l1.796875 0l0 -2.390625l1.6875 0zm7.8911133 12.4375q-2.0 0 -3.265625 -1.3125q-1.25 -1.328125 -1.25 -3.53125l0 -0.3125q0 -1.46875 0.5625 -2.609375q0.5625 -1.15625 1.5625 -1.796875q1.015625 -0.65625 2.1875 -0.65625q1.921875 0 2.984375 1.265625q1.0625 1.265625 1.0625 3.625l0 0.6875l-6.671875 0q0.03125 1.46875 0.84375 2.375q0.828125 0.890625 2.078125 0.890625q0.890625 0 1.515625 -0.359375q0.625 -0.375 1.078125 -0.96875l1.03125 0.796875q-1.234375 1.90625 -3.71875 1.90625zm-0.203125 -8.84375q-1.015625 0 -1.71875 0.75q-0.6875 0.734375 -0.84375 2.078125l4.9375 0l0 -0.125q-0.078125 -1.28125 -0.703125 -1.984375q-0.609375 -0.71875 -1.671875 -0.71875zm10.774475 0.3125q-0.390625 -0.0625 -0.84375 -0.0625q-1.65625 0 -2.25 1.40625l0 7.0l-1.671875 0l0 -9.859375l1.640625 0l0.015625 1.140625q0.828125 -1.3125 2.359375 -1.3125q0.484375 0 0.75 0.125l0 1.5625zm3.1409912 -1.515625l0.046875 1.234375q1.125 -1.40625 2.953125 -1.40625q3.125 0 3.15625 3.515625l0 6.515625l-1.6875 0l0 -6.515625q-0.015625 -1.078125 -0.5 -1.578125q-0.46875 -0.515625 -1.484375 -0.515625q-0.8125 0 -1.4375 0.4375q-0.609375 0.4375 -0.96875 1.15625l0 7.015625l-1.671875 0l0 -9.859375l1.59375 0zm12.778076 10.046875q-2.0 0 -3.265625 -1.3125q-1.25 -1.328125 -1.25 -3.53125l0 -0.3125q0 -1.46875 0.5625 -2.609375q0.5625 -1.15625 1.5625 -1.796875q1.015625 -0.65625 2.1875 -0.65625q1.921875 0 2.984375 1.265625q1.0625 1.265625 1.0625 3.625l0 0.6875l-6.671875 0q0.03125 1.46875 0.84375 2.375q0.828125 0.890625 2.078125 0.890625q0.890625 0 1.515625 -0.359375q0.625 -0.375 1.078125 -0.96875l1.03125 0.796875q-1.234375 1.90625 -3.71875 1.90625zm-0.203125 -8.84375q-1.015625 0 -1.71875 0.75q-0.6875 0.734375 -0.84375 2.078125l4.9375 0l0 -0.125q-0.078125 -1.28125 -0.703125 -1.984375q-0.609375 -0.71875 -1.671875 -0.71875zm8.2901 -3.59375l0 2.390625l1.84375 0l0 1.3125l-1.84375 0l0 6.109375q0 0.59375 0.234375 0.890625q0.25 0.296875 0.84375 0.296875q0.296875 0 0.8125 -0.109375l0 1.359375q-0.671875 0.1875 -1.296875 0.1875q-1.125 0 -1.703125 -0.6875q-0.578125 -0.6875 -0.578125 -1.9375l0 -6.109375l-1.796875 0l0 -1.3125l1.796875 0l0 -2.390625l1.6875 0z" fill-rule="nonzero"/><path fill="#000000" fill-opacity="0.0" d="m370.5672 56.459316l89.00787 0l0 48.692913l-89.00787 0z" fill-rule="evenodd"/><path fill="#000000" d="m400.83646 66.728065q0 1.25 -0.90625 1.953125q-0.90625 0.703125 -2.46875 0.703125q-1.703125 0 -2.609375 -0.4375l0 -1.0625q0.59375 0.25 1.28125 0.390625q0.6875 0.140625 1.359375 0.140625q1.109375 0 1.671875 -0.40625q0.5625 -0.421875 0.5625 -1.171875q0 -0.5 -0.203125 -0.8125q-0.203125 -0.3125 -0.671875 -0.578125q-0.453125 -0.28125 -1.40625 -0.609375q-1.328125 -0.484375 -1.90625 -1.125q-0.5625 -0.65625 -0.5625 -1.703125q0 -1.09375 0.828125 -1.75q0.828125 -0.65625 2.1875 -0.65625q1.421875 0 2.609375 0.53125l-0.34375 0.953125q-1.1875 -0.484375 -2.296875 -0.484375q-0.875 0 -1.375 0.375q-0.484375 0.375 -0.484375 1.046875q0 0.5 0.171875 0.8125q0.1875 0.3125 0.609375 0.578125q0.4375 0.265625 1.328125 0.578125q1.5 0.53125 2.0625 1.15625q0.5625 0.609375 0.5625 1.578125zm2.8617249 2.53125l-1.078125 0l0 -7.125l1.078125 0l0 7.125zm-1.171875 -9.0625q0 -0.375 0.1875 -0.546875q0.1875 -0.171875 0.453125 -0.171875q0.265625 0 0.453125 0.171875q0.1875 0.171875 0.1875 0.546875q0 0.359375 -0.1875 0.546875q-0.1875 0.171875 -0.453125 0.171875q-0.265625 0 -0.453125 -0.171875q-0.1875 -0.1875 -0.1875 -0.546875zm9.308563 1.9375l0 0.671875l-1.328125 0.15625q0.1875 0.234375 0.328125 0.609375q0.140625 0.359375 0.140625 0.8125q0 1.0625 -0.71875 1.6875q-0.703125 0.609375 -1.953125 0.609375q-0.328125 0 -0.609375 -0.046875q-0.6875 0.359375 -0.6875 0.921875q0 0.296875 0.234375 0.4375q0.25 0.140625 0.84375 0.140625l1.25 0q1.171875 0 1.78125 0.484375q0.625 0.484375 0.625 1.421875q0 1.171875 -0.953125 1.796875q-0.953125 0.625 -2.765625 0.625q-1.40625 0 -2.171875 -0.53125q-0.75 -0.515625 -0.75 -1.46875q0 -0.640625 0.421875 -1.125q0.421875 -0.46875 1.171875 -0.640625q-0.28125 -0.125 -0.46875 -0.375q-0.171875 -0.265625 -0.171875 -0.609375q0 -0.390625 0.203125 -0.6875q0.203125 -0.296875 0.65625 -0.5625q-0.546875 -0.234375 -0.90625 -0.78125q-0.34375 -0.546875 -0.34375 -1.25q0 -1.171875 0.703125 -1.796875q0.703125 -0.640625 1.984375 -0.640625q0.5625 0 1.015625 0.140625l2.46875 0zm-5.6875 8.328125q0 0.578125 0.484375 0.875q0.484375 0.296875 1.40625 0.296875q1.359375 0 2.0 -0.40625q0.65625 -0.40625 0.65625 -1.109375q0 -0.578125 -0.359375 -0.796875q-0.34375 -0.21875 -1.34375 -0.21875l-1.296875 0q-0.734375 0 -1.140625 0.34375q-0.40625 0.359375 -0.40625 1.015625zm0.578125 -6.046875q0 0.75 0.421875 1.140625q0.4375 0.375 1.1875 0.375q1.578125 0 1.578125 -1.546875q0 -1.59375 -1.59375 -1.59375q-0.765625 0 -1.1875 0.40625q-0.40625 0.40625 -0.40625 1.21875zm11.458099 4.84375l0 -4.609375q0 -0.875 -0.40625 -1.296875q-0.390625 -0.4375 -1.234375 -0.4375q-1.125 0 -1.65625 0.609375q-0.515625 0.59375 -0.515625 2.0l0 3.734375l-1.078125 0l0 -7.125l0.890625 0l0.171875 0.96875l0.046875 0q0.328125 -0.53125 0.921875 -0.8125q0.609375 -0.296875 1.34375 -0.296875q1.296875 0 1.9375 0.625q0.65625 0.625 0.65625 1.984375l0 4.65625l-1.078125 0zm6.3053894 0.125q-1.578125 0 -2.5 -0.953125q-0.90625 -0.96875 -0.90625 -2.671875q0 -1.734375 0.84375 -2.75q0.859375 -1.015625 2.28125 -1.015625q1.34375 0 2.125 0.890625q0.78125 0.875 0.78125 2.328125l0 0.671875l-4.90625 0q0.03125 1.265625 0.625 1.921875q0.609375 0.640625 1.703125 0.640625q1.140625 0 2.265625 -0.484375l0 0.96875q-0.5625 0.25 -1.078125 0.34375q-0.515625 0.109375 -1.234375 0.109375zm-0.296875 -6.484375q-0.859375 0 -1.375 0.5625q-0.5 0.5625 -0.59375 1.546875l3.734375 0q0 -1.015625 -0.453125 -1.5625q-0.453125 -0.546875 -1.3125 -0.546875zm9.618195 5.40625l-0.0625 0q-0.75 1.078125 -2.234375 1.078125q-1.40625 0 -2.1875 -0.953125q-0.765625 -0.953125 -0.765625 -2.71875q0 -1.765625 0.78125 -2.734375q0.78125 -0.984375 2.171875 -0.984375q1.453125 0 2.21875 1.0625l0.09375 0l-0.046875 -0.515625l-0.03125 -0.5l0 -2.90625l1.078125 0l0 10.125l-0.875 0l-0.140625 -0.953125zm-2.15625 0.171875q1.109375 0 1.59375 -0.59375q0.5 -0.609375 0.5 -1.9375l0 -0.234375q0 -1.515625 -0.5 -2.15625q-0.5 -0.65625 -1.609375 -0.65625q-0.953125 0 -1.453125 0.75q-0.5 0.734375 -0.5 2.078125q0 1.359375 0.5 2.0625q0.5 0.6875 1.46875 0.6875z" fill-rule="nonzero"/><path fill="#000000" d="m383.4435 84.49369q0.28125 0 0.546875 -0.03125q0.265625 -0.046875 0.421875 -0.09375l0 0.828125q-0.171875 0.078125 -0.515625 0.125q-0.34375 0.0625 -0.609375 0.0625q-2.078125 0 -2.078125 -2.171875l0 -4.25l-1.015625 0l0 -0.515625l1.015625 -0.453125l0.453125 -1.515625l0.625 0l0 1.65625l2.078125 0l0 0.828125l-2.078125 0l0 4.203125q0 0.640625 0.3125 0.984375q0.3125 0.34375 0.84375 0.34375zm5.658325 -6.5q0.46875 0 0.84375 0.078125l-0.140625 1.0q-0.453125 -0.09375 -0.78125 -0.09375q-0.875 0 -1.5 0.703125q-0.609375 0.703125 -0.609375 1.75l0 3.828125l-1.078125 0l0 -7.125l0.890625 0l0.125 1.3125l0.0625 0q0.390625 -0.703125 0.953125 -1.078125q0.5625 -0.375 1.234375 -0.375zm6.5655823 7.265625l-0.21875 -1.015625l-0.046875 0q-0.53125 0.671875 -1.0625 0.90625q-0.53125 0.234375 -1.328125 0.234375q-1.0625 0 -1.671875 -0.546875q-0.59375 -0.546875 -0.59375 -1.546875q0 -2.15625 3.453125 -2.265625l1.21875 -0.046875l0 -0.4375q0 -0.84375 -0.359375 -1.234375q-0.359375 -0.40625 -1.15625 -0.40625q-0.890625 0 -2.015625 0.546875l-0.34375 -0.828125q0.53125 -0.28125 1.15625 -0.4375q0.640625 -0.171875 1.265625 -0.171875q1.28125 0 1.890625 0.5625q0.609375 0.5625 0.609375 1.8125l0 4.875l-0.796875 0zm-2.4375 -0.765625q1.0 0 1.578125 -0.546875q0.578125 -0.5625 0.578125 -1.546875l0 -0.640625l-1.078125 0.03125q-1.28125 0.046875 -1.859375 0.40625q-0.5625 0.359375 -0.5625 1.109375q0 0.578125 0.34375 0.890625q0.359375 0.296875 1.0 0.296875zm10.349976 0.765625l0 -4.609375q0 -0.875 -0.40625 -1.296875q-0.390625 -0.4375 -1.234375 -0.4375q-1.125 0 -1.65625 0.609375q-0.515625 0.59375 -0.515625 2.0l0 3.734375l-1.078125 0l0 -7.125l0.890625 0l0.171875 0.96875l0.046875 0q0.328125 -0.53125 0.921875 -0.8125q0.609375 -0.296875 1.34375 -0.296875q1.296875 0 1.9375 0.625q0.65625 0.625 0.65625 1.984375l0 4.65625l-1.078125 0zm7.89917 -1.953125q0 1.0 -0.75 1.546875q-0.734375 0.53125 -2.078125 0.53125q-1.421875 0 -2.21875 -0.4375l0 -1.015625q0.515625 0.265625 1.109375 0.421875q0.59375 0.140625 1.140625 0.140625q0.84375 0 1.296875 -0.265625q0.453125 -0.265625 0.453125 -0.828125q0 -0.40625 -0.359375 -0.703125q-0.359375 -0.296875 -1.40625 -0.703125q-1.0 -0.375 -1.421875 -0.640625q-0.421875 -0.28125 -0.625 -0.625q-0.203125 -0.359375 -0.203125 -0.84375q0 -0.875 0.703125 -1.375q0.71875 -0.515625 1.953125 -0.515625q1.15625 0 2.25 0.46875l-0.375 0.875q-1.078125 -0.4375 -1.953125 -0.4375q-0.765625 0 -1.15625 0.25q-0.390625 0.234375 -0.390625 0.65625q0 0.28125 0.140625 0.484375q0.15625 0.203125 0.46875 0.390625q0.328125 0.171875 1.25 0.53125q1.28125 0.453125 1.71875 0.921875q0.453125 0.46875 0.453125 1.171875zm6.139435 1.953125l-0.21875 -1.015625l-0.046875 0q-0.53125 0.671875 -1.0625 0.90625q-0.53125 0.234375 -1.328125 0.234375q-1.0625 0 -1.671875 -0.546875q-0.59375 -0.546875 -0.59375 -1.546875q0 -2.15625 3.453125 -2.265625l1.21875 -0.046875l0 -0.4375q0 -0.84375 -0.359375 -1.234375q-0.359375 -0.40625 -1.15625 -0.40625q-0.890625 0 -2.015625 0.546875l-0.34375 -0.828125q0.53125 -0.28125 1.15625 -0.4375q0.640625 -0.171875 1.265625 -0.171875q1.28125 0 1.890625 0.5625q0.609375 0.5625 0.609375 1.8125l0 4.875l-0.796875 0zm-2.4375 -0.765625q1.0 0 1.578125 -0.546875q0.578125 -0.5625 0.578125 -1.546875l0 -0.640625l-1.078125 0.03125q-1.28125 0.046875 -1.859375 0.40625q-0.5625 0.359375 -0.5625 1.109375q0 0.578125 0.34375 0.890625q0.359375 0.296875 1.0 0.296875zm8.318726 0.890625q-1.546875 0 -2.40625 -0.953125q-0.84375 -0.953125 -0.84375 -2.6875q0 -1.796875 0.859375 -2.765625q0.859375 -0.984375 2.453125 -0.984375q0.515625 0 1.03125 0.109375q0.515625 0.109375 0.8125 0.265625l-0.328125 0.921875q-0.359375 -0.15625 -0.796875 -0.25q-0.421875 -0.09375 -0.734375 -0.09375q-2.171875 0 -2.171875 2.78125q0 1.3125 0.515625 2.015625q0.53125 0.703125 1.578125 0.703125q0.890625 0 1.828125 -0.390625l0 0.96875q-0.71875 0.359375 -1.796875 0.359375zm5.7983093 -0.890625q0.28125 0 0.546875 -0.03125q0.265625 -0.046875 0.421875 -0.09375l0 0.828125q-0.171875 0.078125 -0.515625 0.125q-0.34375 0.0625 -0.609375 0.0625q-2.078125 0 -2.078125 -2.171875l0 -4.25l-1.015625 0l0 -0.515625l1.015625 -0.453125l0.453125 -1.515625l0.625 0l0 1.65625l2.078125 0l0 0.828125l-2.078125 0l0 4.203125q0 0.640625 0.3125 0.984375q0.3125 0.34375 0.84375 0.34375zm3.4708252 0.765625l-1.078125 0l0 -7.125l1.078125 0l0 7.125zm-1.171875 -9.0625q0 -0.375 0.1875 -0.546875q0.1875 -0.171875 0.453125 -0.171875q0.265625 0 0.453125 0.171875q0.1875 0.171875 0.1875 0.546875q0 0.359375 -0.1875 0.546875q-0.1875 0.171875 -0.453125 0.171875q-0.265625 0 -0.453125 -0.171875q-0.1875 -0.1875 -0.1875 -0.546875zm9.621094 5.484375q0 1.75 -0.875 2.734375q-0.875 0.96875 -2.421875 0.96875q-0.953125 0 -1.703125 -0.4375q-0.734375 -0.453125 -1.140625 -1.296875q-0.40625 -0.84375 -0.40625 -1.96875q0 -1.734375 0.875 -2.703125q0.875 -0.984375 2.421875 -0.984375q1.484375 0 2.359375 1.0q0.890625 1.0 0.890625 2.6875zm-5.421875 0q0 1.375 0.546875 2.09375q0.546875 0.703125 1.59375 0.703125q1.0625 0 1.609375 -0.703125q0.5625 -0.71875 0.5625 -2.09375q0 -1.359375 -0.5625 -2.0625q-0.546875 -0.703125 -1.609375 -0.703125q-1.0625 0 -1.609375 0.703125q-0.53125 0.6875 -0.53125 2.0625zm12.206482 3.578125l0 -4.609375q0 -0.875 -0.40625 -1.296875q-0.390625 -0.4375 -1.234375 -0.4375q-1.125 0 -1.65625 0.609375q-0.515625 0.59375 -0.515625 2.0l0 3.734375l-1.078125 0l0 -7.125l0.890625 0l0.171875 0.96875l0.046875 0q0.328125 -0.53125 0.921875 -0.8125q0.609375 -0.296875 1.34375 -0.296875q1.296875 0 1.9375 0.625q0.65625 0.625 0.65625 1.984375l0 4.65625l-1.078125 0z" fill-rule="nonzero"/><path fill="#000000" d="m405.66183 94.009315q1.40625 0 2.171875 0.96875q0.78125 0.953125 0.78125 2.703125q0 1.765625 -0.78125 2.734375q-0.78125 0.96875 -2.171875 0.96875q-0.703125 0 -1.28125 -0.25q-0.578125 -0.265625 -0.96875 -0.796875l-0.078125 0l-0.21875 0.921875l-0.78125 0l0 -10.125l1.078125 0l0 2.453125q0 0.828125 -0.046875 1.484375l0.046875 0q0.765625 -1.0625 2.25 -1.0625zm-0.15625 0.90625q-1.109375 0 -1.609375 0.640625q-0.484375 0.625 -0.484375 2.125q0 1.515625 0.5 2.15625q0.515625 0.640625 1.609375 0.640625q1.0 0 1.484375 -0.71875q0.5 -0.71875 0.5 -2.078125q0 -1.40625 -0.5 -2.078125q-0.484375 -0.6875 -1.5 -0.6875zm6.073639 6.34375l-1.078125 0l0 -10.125l1.078125 0l0 10.125zm8.449188 -3.578125q0 1.75 -0.875 2.734375q-0.875 0.96875 -2.421875 0.96875q-0.953125 0 -1.703125 -0.4375q-0.734375 -0.453125 -1.140625 -1.296875q-0.40625 -0.84375 -0.40625 -1.96875q0 -1.734375 0.875 -2.703125q0.875 -0.984375 2.421875 -0.984375q1.484375 0 2.359375 1.0q0.890625 1.0 0.890625 2.6875zm-5.421875 0q0 1.375 0.546875 2.09375q0.546875 0.703125 1.59375 0.703125q1.0625 0 1.609375 -0.703125q0.5625 -0.71875 0.5625 -2.09375q0 -1.359375 -0.5625 -2.0625q-0.546875 -0.703125 -1.609375 -0.703125q-1.0625 0 -1.609375 0.703125q-0.53125 0.6875 -0.53125 2.0625zm10.644012 -3.671875q1.40625 0 2.171875 0.96875q0.78125 0.953125 0.78125 2.703125q0 1.765625 -0.78125 2.734375q-0.78125 0.96875 -2.171875 0.96875q-0.703125 0 -1.28125 -0.25q-0.578125 -0.265625 -0.96875 -0.796875l-0.078125 0l-0.21875 0.921875l-0.78125 0l0 -10.125l1.078125 0l0 2.453125q0 0.828125 -0.046875 1.484375l0.046875 0q0.765625 -1.0625 2.25 -1.0625zm-0.15625 0.90625q-1.109375 0 -1.609375 0.640625q-0.484375 0.625 -0.484375 2.125q0 1.515625 0.5 2.15625q0.515625 0.640625 1.609375 0.640625q1.0 0 1.484375 -0.71875q0.5 -0.71875 0.5 -2.078125q0 -1.40625 -0.5 -2.078125q-0.484375 -0.6875 -1.5 -0.6875z" fill-rule="nonzero"/><path fill="#1c2835" d="m69.255905 90.45283l0 0c0 -2.0120392 1.6310806 -3.6431198 3.6431198 -3.6431198l60.304314 0c0.96621704 0 1.8928528 0.3838272 2.5760803 1.0670471c0.6832123 0.6832199 1.0670319 1.6098557 1.0670319 2.5760727l0 14.572037c0 2.0120392 -1.631073 3.6431122 -3.6431122 3.6431122l-60.304314 0c-2.0120392 0 -3.6431198 -1.631073 -3.6431198 -3.6431122z" fill-rule="evenodd"/><path fill="#1c2835" d="m128.76247 91.58137l13.669296 0l0 12.314957l-13.669296 0z" fill-rule="evenodd"/><path fill="#ffffff" d="m73.23491 92.97244l30.48819 0l0 9.448814l-30.48819 0z" fill-rule="evenodd"/><path fill="#e32527" d="m82.14306 95.25687l0.16287231 0.014709473l0.16249084 0.029426575l0.14778137 0.029808044l0.16249084 0.044136047l0.147789 0.05922699l0.14778137 0.05923462l0.147789 0.07394409l0.147789 0.088653564l0.13308716 0.103752136l0.13307953 0.10337067l0.13308716 0.11846161l0.16249084 0.17731476l0.13308716 0.1924057l0.13269806 0.20711517l0.10368347 0.22183228l0.08859253 0.22183228l0.059188843 0.22183228l0.04410553 0.23654175l0.015090942 0.23654175l0 0.23654175l-0.029792786 0.25164032l-0.04410553 0.23654175l-0.073890686 0.23654175l-0.08898163 0.22183228l-0.117996216 0.20711517l-0.13308716 0.2071228l-0.16249084 0.1920166l-0.14778137 0.16298676l-0.17758179 0.14788818l-0.17718506 0.13317871l-0.192276 0.11807251l-0.20697784 0.088661194l-0.22168732 0.089035034l-0.20658875 0.05884552l-0.23677063 0.029815674l-0.16248322 0.029418945l-0.17719269 0l-0.25147247 -0.014709473l-0.23638153 -0.029426575l-0.25108337 -0.05922699l-0.236763 -0.088653564l-0.22167969 -0.103759766l-0.20659637 -0.13317108l-0.20697784 -0.13278961l-0.17757416 -0.17769623l-0.10329437 -0.10337067l-0.10368347 -0.11846161l-0.147789 -0.22183228l-0.13269806 -0.22183228l-0.10368347 -0.25125122l-0.073898315 -0.25164032l-0.059188843 -0.2659607l-0.014701843 -0.26635742l0 -0.2663498l0.029792786 -0.2659607l0.0440979 -0.22183228l0.073898315 -0.2071228l0.073890686 -0.20711517l0.10368347 -0.19241333l0.117996216 -0.1920166l0.13308716 -0.17769623l0.16249084 -0.16259766l0.16248322 -0.14788818l0.17758179 -0.14788818l0.192276 -0.11846161l0.1918869 -0.10337067l0.20698547 -0.088653564l0.22167969 -0.05923462l0.22167969 -0.044517517l0.22167969 -0.029426575l0.22167969 -0.014709473zm-0.35476685 -1.4939728l-0.17719269 0.015098572l-0.28086853 0.029426575l-0.26578522 0.05923462l-0.26617432 0.07394409l-0.2661667 0.088653564l-0.25108337 0.10336304l-0.23638153 0.13317871l-0.23677063 0.14788818l-0.22167969 0.16297913l-0.22167969 0.16260529l-0.19189453 0.1920166l-0.192276 0.2071228l-0.17719269 0.20711517l-0.16287231 0.23654175l-0.13269806 0.23654175l-0.13308716 0.25164032l-0.10368347 0.25125885l-0.058799744 0.17769623l-0.059196472 0.17730713l-0.044487 0.1924057l-0.029403687 0.17731476l-0.029792786 0.1924057l-0.014701843 0.19202423l-0.014701843 0.36971283l0.029403687 0.37010956l0.029792786 0.1920166l0.029403687 0.17769623l0.044487 0.19202423l0.04410553 0.17769623l0.059188843 0.17730713l0.073898315 0.17731476l0.073890686 0.16297913l0.08859253 0.16260529l0.08898163 0.16259766l0.103302 0.14788818l0.10329437 0.16259766l0.118385315 0.14788818l0.118377686 0.13317108l0.13308716 0.14788818l0.22167969 0.2071228l0.23638153 0.1924057l0.26578522 0.16259766l0.26617432 0.14788818l0.28086853 0.13317108l0.295578 0.10337067l0.29557037 0.088653564l0.31027985 0.05923462l0.31027222 0.044517517l0.6356354 0l0.31027985 -0.044517517l0.28086853 -0.05923462l0.28087616 -0.07394409l0.2661667 -0.10336304l0.25108337 -0.11846924l0.25147247 -0.13317108l0.25108337 -0.14788818l0.22167969 -0.17731476l0.22167969 -0.17730713l0.22167969 -0.22183228l0.192276 -0.22182465l0.19189453 -0.25164032l0.16287231 -0.26596832l0.13269806 -0.2663498l0.118385315 -0.2810669l0.10329437 -0.29576874l0.073898315 -0.29577637l0.015083313 -0.10337067l4.2119293 0l0 1.4788742l0.6058502 0.014709473l0.7981262 0l0 -0.3995285l0 -0.3844223l-0.014701843 -0.59155273l0.014701843 -0.11808014l0.88671875 0l0 0.11808014l0 2.5140839l1.4043655 0l-0.015090942 -1.0352097l0 -0.7247238l0.015090942 -0.7541504l0 -0.11808014l2.0837173 0l0 -0.68058777l0.014701843 -0.70962524l-9.990707 0l-0.014701843 -0.103752136l-0.073890686 -0.26596832l-0.08898163 -0.28105927l-0.10329437 -0.2663498l-0.13308716 -0.25125885l-0.13308716 -0.25164032l-0.16248322 -0.23654175l-0.17719269 -0.22183228l-0.20697784 -0.22182465l-0.25147247 -0.22183228l-0.26578522 -0.2071228l-0.28086853 -0.1924057l-0.31027985 -0.14788818l-0.31066132 -0.13278961l-0.32497406 -0.103752136l-0.340065 -0.07394409l-0.3396759 -0.044136047l-0.340065 -0.015098572z" fill-rule="evenodd"/><path fill="#000000" fill-opacity="0.0" d="m207.48688 63.37008l-124.031494 14.236221" fill-rule="evenodd"/><path stroke="#00aae4" stroke-width="2.0" stroke-linejoin="round" stroke-linecap="butt" d="m207.48688 63.37008l-112.109764 12.867851" fill-rule="evenodd"/><path fill="#00aae4" stroke="#00aae4" stroke-width="2.0" stroke-linecap="butt" d="m95.00041 72.95602l-8.640297 4.3168793l9.393684 2.2469559z" fill-rule="evenodd"/><path fill="#000000" fill-opacity="0.0" d="m83.65748 114.59843l125.98426 14.047249" fill-rule="evenodd"/><path stroke="#00aae4" stroke-width="2.0" stroke-linejoin="round" stroke-linecap="butt" d="m83.65748 114.59843l114.05816 12.7174835" fill-rule="evenodd"/><path fill="#00aae4" stroke="#00aae4" stroke-width="2.0" stroke-linecap="butt" d="m197.34956 130.59903l9.386368 -2.277359l-8.654221 -4.2888794z" fill-rule="evenodd"/><path fill="#000000" fill-opacity="0.0" d="m69.255905 125.33071l106.29921 0l0 33.95275l-106.29921 0z" fill-rule="evenodd"/><path fill="#000000" d="m108.17083 135.59946q0 1.25 -0.90625 1.953125q-0.90625 0.703125 -2.46875 0.703125q-1.703125 0 -2.609375 -0.4375l0 -1.0625q0.59375 0.25 1.28125 0.390625q0.6875 0.140625 1.359375 0.140625q1.109375 0 1.671875 -0.40625q0.5625 -0.421875 0.5625 -1.171875q0 -0.5 -0.203125 -0.8125q-0.203125 -0.3125 -0.671875 -0.578125q-0.453125 -0.28125 -1.40625 -0.609375q-1.328125 -0.484375 -1.90625 -1.125q-0.5625 -0.65625 -0.5625 -1.703125q0 -1.09375 0.828125 -1.75q0.828125 -0.65625 2.1875 -0.65625q1.421875 0 2.609375 0.53125l-0.34375 0.953125q-1.1875 -0.484375 -2.296875 -0.484375q-0.875 0 -1.375 0.375q-0.484375 0.375 -0.484375 1.046875q0 0.5 0.171875 0.8125q0.1875 0.3125 0.609375 0.578125q0.4375 0.265625 1.328125 0.578125q1.5 0.53125 2.0625 1.15625q0.5625 0.609375 0.5625 1.578125zm2.8617249 2.53125l-1.078125 0l0 -7.125l1.078125 0l0 7.125zm-1.171875 -9.0625q0 -0.375 0.1875 -0.546875q0.1875 -0.171875 0.453125 -0.171875q0.265625 0 0.453125 0.171875q0.1875 0.171875 0.1875 0.546875q0 0.359375 -0.1875 0.546875q-0.1875 0.171875 -0.453125 0.171875q-0.265625 0 -0.453125 -0.171875q-0.1875 -0.1875 -0.1875 -0.546875zm9.3085785 1.9375l0 0.671875l-1.328125 0.15625q0.1875 0.234375 0.328125 0.609375q0.140625 0.359375 0.140625 0.8125q0 1.0625 -0.71875 1.6875q-0.703125 0.609375 -1.953125 0.609375q-0.328125 0 -0.609375 -0.046875q-0.6875 0.359375 -0.6875 0.921875q0 0.296875 0.234375 0.4375q0.25 0.140625 0.84375 0.140625l1.25 0q1.171875 0 1.78125 0.484375q0.625 0.484375 0.625 1.421875q0 1.171875 -0.953125 1.796875q-0.953125 0.625 -2.765625 0.625q-1.40625 0 -2.171875 -0.53125q-0.75 -0.515625 -0.75 -1.46875q0 -0.640625 0.421875 -1.125q0.421875 -0.46875 1.171875 -0.640625q-0.28125 -0.125 -0.46875 -0.375q-0.171875 -0.265625 -0.171875 -0.609375q0 -0.390625 0.203125 -0.6875q0.203125 -0.296875 0.65625 -0.5625q-0.546875 -0.234375 -0.90625 -0.78125q-0.34375 -0.546875 -0.34375 -1.25q0 -1.171875 0.703125 -1.796875q0.703125 -0.640625 1.984375 -0.640625q0.5625 0 1.015625 0.140625l2.46875 0zm-5.6875 8.328125q0 0.578125 0.484375 0.875q0.484375 0.296875 1.40625 0.296875q1.359375 0 2.0 -0.40625q0.65625 -0.40625 0.65625 -1.109375q0 -0.578125 -0.359375 -0.796875q-0.34375 -0.21875 -1.34375 -0.21875l-1.296875 0q-0.734375 0 -1.140625 0.34375q-0.40625 0.359375 -0.40625 1.015625zm0.578125 -6.046875q0 0.75 0.421875 1.140625q0.4375 0.375 1.1875 0.375q1.578125 0 1.578125 -1.546875q0 -1.59375 -1.59375 -1.59375q-0.765625 0 -1.1875 0.40625q-0.40625 0.40625 -0.40625 1.21875zm11.458084 4.84375l0 -4.609375q0 -0.875 -0.40625 -1.296875q-0.390625 -0.4375 -1.234375 -0.4375q-1.125 0 -1.65625 0.609375q-0.515625 0.59375 -0.515625 2.0l0 3.734375l-1.078125 0l0 -7.125l0.890625 0l0.171875 0.96875l0.046875 0q0.328125 -0.53125 0.921875 -0.8125q0.609375 -0.296875 1.34375 -0.296875q1.296875 0 1.9375 0.625q0.65625 0.625 0.65625 1.984375l0 4.65625l-1.078125 0zm6.3054123 0.125q-1.578125 0 -2.5 -0.953125q-0.90625 -0.96875 -0.90625 -2.671875q0 -1.734375 0.84375 -2.75q0.859375 -1.015625 2.28125 -1.015625q1.34375 0 2.125 0.890625q0.78125 0.875 0.78125 2.328125l0 0.671875l-4.90625 0q0.03125 1.265625 0.625 1.921875q0.609375 0.640625 1.703125 0.640625q1.140625 0 2.265625 -0.484375l0 0.96875q-0.5625 0.25 -1.078125 0.34375q-0.515625 0.109375 -1.234375 0.109375zm-0.296875 -6.484375q-0.859375 0 -1.375 0.5625q-0.5 0.5625 -0.59375 1.546875l3.734375 0q0 -1.015625 -0.453125 -1.5625q-0.453125 -0.546875 -1.3125 -0.546875zm9.618179 5.40625l-0.0625 0q-0.75 1.078125 -2.234375 1.078125q-1.40625 0 -2.1875 -0.953125q-0.765625 -0.953125 -0.765625 -2.71875q0 -1.765625 0.78125 -2.734375q0.78125 -0.984375 2.171875 -0.984375q1.453125 0 2.21875 1.0625l0.09375 0l-0.046875 -0.515625l-0.03125 -0.5l0 -2.90625l1.078125 0l0 10.125l-0.875 0l-0.140625 -0.953125zm-2.15625 0.171875q1.109375 0 1.59375 -0.59375q0.5 -0.609375 0.5 -1.9375l0 -0.234375q0 -1.515625 -0.5 -2.15625q-0.5 -0.65625 -1.609375 -0.65625q-0.953125 0 -1.453125 0.75q-0.5 0.734375 -0.5 2.078125q0 1.359375 0.5 2.0625q0.5 0.6875 1.46875 0.6875z" fill-rule="nonzero"/><path fill="#000000" d="m75.16876 153.36508q0.28125 0 0.546875 -0.03125q0.265625 -0.046875 0.421875 -0.09375l0 0.828125q-0.171875 0.078125 -0.515625 0.125q-0.34375 0.0625 -0.609375 0.0625q-2.078125 0 -2.078125 -2.171875l0 -4.25l-1.015625 0l0 -0.515625l1.015625 -0.453125l0.453125 -1.515625l0.625 0l0 1.65625l2.078125 0l0 0.828125l-2.078125 0l0 4.203125q0 0.640625 0.3125 0.984375q0.3125 0.34375 0.84375 0.34375zm5.658325 -6.5q0.46875 0 0.84375 0.078125l-0.140625 1.0q-0.453125 -0.09375 -0.78125 -0.09375q-0.875 0 -1.5 0.703125q-0.609375 0.703125 -0.609375 1.75l0 3.828125l-1.078125 0l0 -7.125l0.890625 0l0.125 1.3125l0.0625 0q0.390625 -0.703125 0.953125 -1.078125q0.5625 -0.375 1.234375 -0.375zm6.5655823 7.265625l-0.21875 -1.015625l-0.046875 0q-0.53125 0.671875 -1.0625 0.90625q-0.53125 0.234375 -1.328125 0.234375q-1.0625 0 -1.671875 -0.546875q-0.59375 -0.546875 -0.59375 -1.546875q0 -2.15625 3.453125 -2.265625l1.21875 -0.046875l0 -0.4375q0 -0.84375 -0.359375 -1.234375q-0.359375 -0.40625 -1.15625 -0.40625q-0.890625 0 -2.015625 0.546875l-0.34375 -0.828125q0.53125 -0.28125 1.15625 -0.4375q0.640625 -0.171875 1.265625 -0.171875q1.28125 0 1.890625 0.5625q0.609375 0.5625 0.609375 1.8125l0 4.875l-0.796875 0zm-2.4375 -0.765625q1.0 0 1.578125 -0.546875q0.578125 -0.5625 0.578125 -1.546875l0 -0.640625l-1.078125 0.03125q-1.28125 0.046875 -1.859375 0.40625q-0.5625 0.359375 -0.5625 1.109375q0 0.578125 0.34375 0.890625q0.359375 0.296875 1.0 0.296875zm10.349976 0.765625l0 -4.609375q0 -0.875 -0.40625 -1.296875q-0.390625 -0.4375 -1.234375 -0.4375q-1.125 0 -1.65625 0.609375q-0.515625 0.59375 -0.515625 2.0l0 3.734375l-1.078125 0l0 -7.125l0.890625 0l0.171875 0.96875l0.046875 0q0.328125 -0.53125 0.921875 -0.8125q0.609375 -0.296875 1.34375 -0.296875q1.296875 0 1.9375 0.625q0.65625 0.625 0.65625 1.984375l0 4.65625l-1.078125 0zm7.8991547 -1.953125q0 1.0 -0.75 1.546875q-0.734375 0.53125 -2.078125 0.53125q-1.421875 0 -2.21875 -0.4375l0 -1.015625q0.515625 0.265625 1.109375 0.421875q0.59375 0.140625 1.140625 0.140625q0.84375 0 1.296875 -0.265625q0.453125 -0.265625 0.453125 -0.828125q0 -0.40625 -0.359375 -0.703125q-0.359375 -0.296875 -1.40625 -0.703125q-1.0 -0.375 -1.421875 -0.640625q-0.421875 -0.28125 -0.625 -0.625q-0.203125 -0.359375 -0.203125 -0.84375q0 -0.875 0.703125 -1.375q0.71875 -0.515625 1.953125 -0.515625q1.15625 0 2.25 0.46875l-0.375 0.875q-1.078125 -0.4375 -1.953125 -0.4375q-0.765625 0 -1.15625 0.25q-0.390625 0.234375 -0.390625 0.65625q0 0.28125 0.140625 0.484375q0.15625 0.203125 0.46875 0.390625q0.328125 0.171875 1.25 0.53125q1.28125 0.453125 1.71875 0.921875q0.453125 0.46875 0.453125 1.171875zm6.13945 1.953125l-0.21875 -1.015625l-0.046875 0q-0.53125 0.671875 -1.0625 0.90625q-0.53125 0.234375 -1.328125 0.234375q-1.0625 0 -1.671875 -0.546875q-0.59375 -0.546875 -0.59375 -1.546875q0 -2.15625 3.453125 -2.265625l1.21875 -0.046875l0 -0.4375q0 -0.84375 -0.359375 -1.234375q-0.359375 -0.40625 -1.15625 -0.40625q-0.890625 0 -2.015625 0.546875l-0.34375 -0.828125q0.53125 -0.28125 1.15625 -0.4375q0.640625 -0.171875 1.265625 -0.171875q1.28125 0 1.890625 0.5625q0.609375 0.5625 0.609375 1.8125l0 4.875l-0.796875 0zm-2.4375 -0.765625q1.0 0 1.578125 -0.546875q0.578125 -0.5625 0.578125 -1.546875l0 -0.640625l-1.078125 0.03125q-1.28125 0.046875 -1.859375 0.40625q-0.5625 0.359375 -0.5625 1.109375q0 0.578125 0.34375 0.890625q0.359375 0.296875 1.0 0.296875zm8.318726 0.890625q-1.546875 0 -2.40625 -0.953125q-0.84375 -0.953125 -0.84375 -2.6875q0 -1.796875 0.859375 -2.765625q0.859375 -0.984375 2.453125 -0.984375q0.515625 0 1.03125 0.109375q0.515625 0.109375 0.8125 0.265625l-0.328125 0.921875q-0.359375 -0.15625 -0.796875 -0.25q-0.421875 -0.09375 -0.734375 -0.09375q-2.171875 0 -2.171875 2.78125q0 1.3125 0.515625 2.015625q0.53125 0.703125 1.578125 0.703125q0.890625 0 1.828125 -0.390625l0 0.96875q-0.71875 0.359375 -1.796875 0.359375zm5.7983093 -0.890625q0.28125 0 0.546875 -0.03125q0.265625 -0.046875 0.421875 -0.09375l0 0.828125q-0.171875 0.078125 -0.515625 0.125q-0.34375 0.0625 -0.609375 0.0625q-2.078125 0 -2.078125 -2.171875l0 -4.25l-1.015625 0l0 -0.515625l1.015625 -0.453125l0.453125 -1.515625l0.625 0l0 1.65625l2.078125 0l0 0.828125l-2.078125 0l0 4.203125q0 0.640625 0.3125 0.984375q0.3125 0.34375 0.84375 0.34375zm3.4708252 0.765625l-1.078125 0l0 -7.125l1.078125 0l0 7.125zm-1.171875 -9.0625q0 -0.375 0.1875 -0.546875q0.1875 -0.171875 0.453125 -0.171875q0.265625 0 0.453125 0.171875q0.1875 0.171875 0.1875 0.546875q0 0.359375 -0.1875 0.546875q-0.1875 0.171875 -0.453125 0.171875q-0.265625 0 -0.453125 -0.171875q-0.1875 -0.1875 -0.1875 -0.546875zm9.6210785 5.484375q0 1.75 -0.875 2.734375q-0.875 0.96875 -2.421875 0.96875q-0.953125 0 -1.703125 -0.4375q-0.734375 -0.453125 -1.140625 -1.296875q-0.40625 -0.84375 -0.40625 -1.96875q0 -1.734375 0.875 -2.703125q0.875 -0.984375 2.421875 -0.984375q1.484375 0 2.359375 1.0q0.890625 1.0 0.890625 2.6875zm-5.421875 0q0 1.375 0.546875 2.09375q0.546875 0.703125 1.59375 0.703125q1.0625 0 1.609375 -0.703125q0.5625 -0.71875 0.5625 -2.09375q0 -1.359375 -0.5625 -2.0625q-0.546875 -0.703125 -1.609375 -0.703125q-1.0625 0 -1.609375 0.703125q-0.53125 0.6875 -0.53125 2.0625zm12.206497 3.578125l0 -4.609375q0 -0.875 -0.40625 -1.296875q-0.390625 -0.4375 -1.234375 -0.4375q-1.125 0 -1.65625 0.609375q-0.515625 0.59375 -0.515625 2.0l0 3.734375l-1.078125 0l0 -7.125l0.890625 0l0.171875 0.96875l0.046875 0q0.328125 -0.53125 0.921875 -0.8125q0.609375 -0.296875 1.34375 -0.296875q1.296875 0 1.9375 0.625q0.65625 0.625 0.65625 1.984375l0 4.65625l-1.078125 0zm10.080093 -7.25q1.40625 0 2.171875 0.96875q0.78125 0.953125 0.78125 2.703125q0 1.765625 -0.78125 2.734375q-0.78125 0.96875 -2.171875 0.96875q-0.703125 0 -1.28125 -0.25q-0.578125 -0.265625 -0.96875 -0.796875l-0.078125 0l-0.21875 0.921875l-0.78125 0l0 -10.125l1.078125 0l0 2.453125q0 0.828125 -0.046875 1.484375l0.046875 0q0.765625 -1.0625 2.25 -1.0625zm-0.15625 0.90625q-1.109375 0 -1.609375 0.640625q-0.484375 0.625 -0.484375 2.125q0 1.515625 0.5 2.15625q0.515625 0.640625 1.609375 0.640625q1.0 0 1.484375 -0.71875q0.5 -0.71875 0.5 -2.078125q0 -1.40625 -0.5 -2.078125q-0.484375 -0.6875 -1.5 -0.6875zm6.073639 6.34375l-1.078125 0l0 -10.125l1.078125 0l0 10.125zm8.4492035 -3.578125q0 1.75 -0.875 2.734375q-0.875 0.96875 -2.421875 0.96875q-0.953125 0 -1.703125 -0.4375q-0.734375 -0.453125 -1.140625 -1.296875q-0.40625 -0.84375 -0.40625 -1.96875q0 -1.734375 0.875 -2.703125q0.875 -0.984375 2.421875 -0.984375q1.484375 0 2.359375 1.0q0.890625 1.0 0.890625 2.6875zm-5.421875 0q0 1.375 0.546875 2.09375q0.546875 0.703125 1.59375 0.703125q1.0625 0 1.609375 -0.703125q0.5625 -0.71875 0.5625 -2.09375q0 -1.359375 -0.5625 -2.0625q-0.546875 -0.703125 -1.609375 -0.703125q-1.0625 0 -1.609375 0.703125q-0.53125 0.6875 -0.53125 2.0625zm10.643997 -3.671875q1.40625 0 2.171875 0.96875q0.78125 0.953125 0.78125 2.703125q0 1.765625 -0.78125 2.734375q-0.78125 0.96875 -2.171875 0.96875q-0.703125 0 -1.28125 -0.25q-0.578125 -0.265625 -0.96875 -0.796875l-0.078125 0l-0.21875 0.921875l-0.78125 0l0 -10.125l1.078125 0l0 2.453125q0 0.828125 -0.046875 1.484375l0.046875 0q0.765625 -1.0625 2.25 -1.0625zm-0.15625 0.90625q-1.109375 0 -1.609375 0.640625q-0.484375 0.625 -0.484375 2.125q0 1.515625 0.5 2.15625q0.515625 0.640625 1.609375 0.640625q1.0 0 1.484375 -0.71875q0.5 -0.71875 0.5 -2.078125q0 -1.40625 -0.5 -2.078125q-0.484375 -0.6875 -1.5 -0.6875z" fill-rule="nonzero"/><path fill="#000000" fill-opacity="0.0" d="m21.647089 168.52756l157.98425 0l0 33.95276l-157.98425 0z" fill-rule="evenodd"/><path fill="#000000" d="m37.713432 183.88756l0 -11.375l3.203125 0q1.484375 0 2.625 0.65625q1.140625 0.65625 1.765625 1.875q0.625 1.203125 0.625 2.765625l0 0.734375q0 1.609375 -0.625 2.828125q-0.609375 1.203125 -1.765625 1.859375q-1.15625 0.640625 -2.6875 0.65625l-3.140625 0zm1.5 -10.140625l0 8.90625l1.578125 0q1.734375 0 2.6875 -1.078125q0.96875 -1.078125 0.96875 -3.0625l0 -0.671875q0 -1.9375 -0.90625 -3.0q-0.90625 -1.078125 -2.578125 -1.09375l-1.75 0zm12.2734375 10.296875q-1.71875 0 -2.796875 -1.125q-1.078125 -1.140625 -1.078125 -3.03125l0 -0.265625q0 -1.25 0.46875 -2.234375q0.484375 -1.0 1.34375 -1.546875q0.875 -0.5625 1.875 -0.5625q1.65625 0 2.5625 1.09375q0.921875 1.078125 0.921875 3.09375l0 0.609375l-5.734375 0q0.03125 1.25 0.734375 2.015625q0.703125 0.765625 1.78125 0.765625q0.765625 0 1.296875 -0.3125q0.53125 -0.3125 0.921875 -0.828125l0.890625 0.6875q-1.0625 1.640625 -3.1875 1.640625zm-0.1875 -7.578125q-0.875 0 -1.46875 0.640625q-0.59375 0.625 -0.734375 1.78125l4.234375 0l0 -0.109375q-0.0625 -1.109375 -0.59375 -1.703125q-0.53125 -0.609375 -1.4375 -0.609375zm4.8046875 3.125q0 -1.953125 0.921875 -3.125q0.921875 -1.1875 2.40625 -1.1875q1.484375 0 2.359375 1.015625l0 -4.40625l1.4375 0l0 12.0l-1.328125 0l-0.0625 -0.90625q-0.875 1.0625 -2.421875 1.0625q-1.46875 0 -2.390625 -1.203125q-0.921875 -1.203125 -0.921875 -3.140625l0 -0.109375zm1.4375 0.15625q0 1.4375 0.59375 2.25q0.59375 0.8125 1.640625 0.8125q1.375 0 2.015625 -1.234375l0 -3.875q-0.65625 -1.203125 -2.0 -1.203125q-1.0625 0 -1.65625 0.828125q-0.59375 0.8125 -0.59375 2.421875zm9.5078125 4.140625l-1.453125 0l0 -8.453125l1.453125 0l0 8.453125zm-1.5625 -10.703125q0 -0.34375 0.203125 -0.578125q0.21875 -0.25 0.640625 -0.25q0.421875 0 0.640625 0.25q0.21875 0.234375 0.21875 0.59375q0 0.34375 -0.21875 0.578125q-0.21875 0.234375 -0.640625 0.234375q-0.421875 0 -0.640625 -0.234375q-0.203125 -0.234375 -0.203125 -0.59375zm7.2578125 9.671875q0.78125 0 1.359375 -0.46875q0.578125 -0.46875 0.640625 -1.171875l1.359375 0q-0.03125 0.734375 -0.5 1.390625q-0.453125 0.65625 -1.234375 1.046875q-0.765625 0.390625 -1.625 0.390625q-1.71875 0 -2.75 -1.15625q-1.015625 -1.15625 -1.015625 -3.15625l0 -0.234375q0 -1.234375 0.453125 -2.1875q0.453125 -0.96875 1.296875 -1.5q0.859375 -0.53125 2.015625 -0.53125q1.421875 0 2.359375 0.859375q0.9375 0.84375 1.0 2.203125l-1.359375 0q-0.0625 -0.828125 -0.625 -1.34375q-0.5625 -0.53125 -1.375 -0.53125q-1.109375 0 -1.71875 0.796875q-0.59375 0.78125 -0.59375 2.28125l0 0.28125q0 1.453125 0.59375 2.25q0.609375 0.78125 1.71875 0.78125zm10.203125 1.03125q-0.125 -0.25 -0.203125 -0.890625q-1.0 1.046875 -2.40625 1.046875q-1.25 0 -2.046875 -0.703125q-0.796875 -0.71875 -0.796875 -1.796875q0 -1.328125 1.0 -2.046875q1.0 -0.734375 2.828125 -0.734375l1.40625 0l0 -0.671875q0 -0.75 -0.453125 -1.203125q-0.453125 -0.453125 -1.34375 -0.453125q-0.765625 0 -1.296875 0.390625q-0.515625 0.390625 -0.515625 0.953125l-1.453125 0q0 -0.640625 0.4375 -1.21875q0.453125 -0.59375 1.21875 -0.9375q0.78125 -0.34375 1.703125 -0.34375q1.453125 0 2.28125 0.734375q0.828125 0.71875 0.859375 2.0l0 3.890625q0 1.171875 0.296875 1.859375l0 0.125l-1.515625 0zm-2.390625 -1.109375q0.671875 0 1.28125 -0.34375q0.609375 -0.359375 0.890625 -0.921875l0 -1.734375l-1.140625 0q-2.65625 0 -2.65625 1.5625q0 0.671875 0.453125 1.0625q0.453125 0.375 1.171875 0.375zm7.84375 -9.390625l0 2.046875l1.578125 0l0 1.109375l-1.578125 0l0 5.25q0 0.5 0.203125 0.765625q0.21875 0.25 0.71875 0.25q0.25 0 0.6875 -0.09375l0 1.171875q-0.5625 0.15625 -1.109375 0.15625q-0.96875 0 -1.46875 -0.578125q-0.484375 -0.59375 -0.484375 -1.671875l0 -5.25l-1.53125 0l0 -1.109375l1.53125 0l0 -2.046875l1.453125 0zm6.7734375 10.65625q-1.71875 0 -2.796875 -1.125q-1.078125 -1.140625 -1.078125 -3.03125l0 -0.265625q0 -1.25 0.46875 -2.234375q0.484375 -1.0 1.34375 -1.546875q0.875 -0.5625 1.875 -0.5625q1.65625 0 2.5625 1.09375q0.921875 1.078125 0.921875 3.09375l0 0.609375l-5.734375 0q0.03125 1.25 0.734375 2.015625q0.703125 0.765625 1.78125 0.765625q0.765625 0 1.296875 -0.3125q0.53125 -0.3125 0.921875 -0.828125l0.890625 0.6875q-1.0625 1.640625 -3.1875 1.640625zm-0.1875 -7.578125q-0.875 0 -1.46875 0.640625q-0.59375 0.625 -0.734375 1.78125l4.234375 0l0 -0.109375q-0.0625 -1.109375 -0.59375 -1.703125q-0.53125 -0.609375 -1.4375 -0.609375zm4.8046875 3.125q0 -1.953125 0.921875 -3.125q0.921875 -1.1875 2.40625 -1.1875q1.484375 0 2.359375 1.015625l0 -4.40625l1.4375 0l0 12.0l-1.328125 0l-0.0625 -0.90625q-0.875 1.0625 -2.421875 1.0625q-1.46875 0 -2.390625 -1.203125q-0.921875 -1.203125 -0.921875 -3.140625l0 -0.109375zm1.4375 0.15625q0 1.4375 0.59375 2.25q0.59375 0.8125 1.640625 0.8125q1.375 0 2.015625 -1.234375l0 -3.875q-0.65625 -1.203125 -2.0 -1.203125q-1.0625 0 -1.65625 0.828125q-0.59375 0.8125 -0.59375 2.421875zm15.46875 -0.9375q-1.921875 -0.546875 -2.8125 -1.359375q-0.875 -0.8125 -0.875 -2.0q0 -1.34375 1.078125 -2.21875q1.078125 -0.875 2.796875 -0.875q1.171875 0 2.078125 0.453125q0.921875 0.453125 1.421875 1.25q0.515625 0.796875 0.515625 1.734375l-1.515625 0q0 -1.03125 -0.65625 -1.609375q-0.65625 -0.59375 -1.84375 -0.59375q-1.109375 0 -1.734375 0.484375q-0.625 0.484375 -0.625 1.359375q0 0.6875 0.59375 1.171875q0.59375 0.484375 2.0 0.890625q1.421875 0.390625 2.21875 0.875q0.8125 0.46875 1.1875 1.109375q0.390625 0.640625 0.390625 1.515625q0 1.375 -1.078125 2.21875q-1.078125 0.828125 -2.875 0.828125q-1.171875 0 -2.1875 -0.453125q-1.015625 -0.453125 -1.578125 -1.234375q-0.546875 -0.78125 -0.546875 -1.765625l1.515625 0q0 1.03125 0.75 1.625q0.765625 0.59375 2.046875 0.59375q1.1875 0 1.8125 -0.484375q0.640625 -0.484375 0.640625 -1.3125q0 -0.84375 -0.59375 -1.296875q-0.578125 -0.453125 -2.125 -0.90625zm7.4921875 5.078125l-1.453125 0l0 -8.453125l1.453125 0l0 8.453125zm-1.5625 -10.703125q0 -0.34375 0.203125 -0.578125q0.21875 -0.25 0.640625 -0.25q0.421875 0 0.640625 0.25q0.21875 0.234375 0.21875 0.59375q0 0.34375 -0.21875 0.578125q-0.21875 0.234375 -0.640625 0.234375q-0.421875 0 -0.640625 -0.234375q-0.203125 -0.234375 -0.203125 -0.59375zm3.5234375 6.40625q0 -1.984375 0.90625 -3.140625q0.921875 -1.171875 2.4375076 -1.171875q1.546875 0 2.40625 1.09375l0.078125 -0.9375l1.3125 0l0 8.25q0 1.640625 -0.96875 2.578125q-0.96875 0.953125 -2.609375 0.953125q-0.921875 0 -1.7968826 -0.390625q-0.875 -0.390625 -1.328125 -1.0625l0.75 -0.875q0.9218826 1.15625 2.2656326 1.15625q1.0625 0 1.640625 -0.59375q0.59375 -0.59375 0.59375 -1.6875l0 -0.71875q-0.859375 1.0 -2.359375 1.0q-1.4843826 0 -2.4062576 -1.1875q-0.921875 -1.203125 -0.921875 -3.265625zm1.453125 0.15625q0 1.4375 0.5781326 2.25q0.59375 0.8125 1.65625 0.8125q1.359375 0 2.0 -1.234375l0 -3.859375q-0.65625 -1.21875 -1.984375 -1.21875q-1.0625 0 -1.65625 0.828125q-0.5937576 0.8125 -0.5937576 2.421875zm9.242195 -4.3125l0.046875 1.0625q0.96875 -1.21875 2.53125 -1.21875q2.671875 0 2.703125 3.015625l0 5.59375l-1.453125 0l0 -5.59375q0 -0.921875 -0.421875 -1.359375q-0.40625 -0.4375 -1.265625 -0.4375q-0.703125 0 -1.234375 0.375q-0.53125 0.375 -0.828125 0.984375l0 6.03125l-1.453125 0l0 -8.453125l1.375 0zm9.03125 8.453125l-1.453125 0l0 -8.453125l1.453125 0l0 8.453125zm-1.5625 -10.703125q0 -0.34375 0.203125 -0.578125q0.21875 -0.25 0.640625 -0.25q0.421875 0 0.640625 0.25q0.21875 0.234375 0.21875 0.59375q0 0.34375 -0.21875 0.578125q-0.21875 0.234375 -0.640625 0.234375q-0.421875 0 -0.640625 -0.234375q-0.203125 -0.234375 -0.203125 -0.59375zm5.2421875 2.25l0.046875 1.0625q0.96875 -1.21875 2.53125 -1.21875q2.671875 0 2.703125 3.015625l0 5.59375l-1.453125 0l0 -5.59375q0 -0.921875 -0.421875 -1.359375q-0.40625 -0.4375 -1.265625 -0.4375q-0.703125 0 -1.234375 0.375q-0.53125 0.375 -0.828125 0.984375l0 6.03125l-1.453125 0l0 -8.453125l1.375 0zm7.109375 4.15625q0 -1.984375 0.90625 -3.140625q0.921875 -1.171875 2.4375 -1.171875q1.546875 0 2.40625 1.09375l0.078125 -0.9375l1.3125 0l0 8.25q0 1.640625 -0.96875 2.578125q-0.96875 0.953125 -2.609375 0.953125q-0.921875 0 -1.796875 -0.390625q-0.875 -0.390625 -1.328125 -1.0625l0.75 -0.875q0.921875 1.15625 2.265625 1.15625q1.0625 0 1.640625 -0.59375q0.59375 -0.59375 0.59375 -1.6875l0 -0.71875q-0.859375 1.0 -2.359375 1.0q-1.484375 0 -2.40625 -1.1875q-0.921875 -1.203125 -0.921875 -3.265625zm1.453125 0.15625q0 1.4375 0.578125 2.25q0.59375 0.8125 1.65625 0.8125q1.359375 0 2.0 -1.234375l0 -3.859375q-0.65625 -1.21875 -1.984375 -1.21875q-1.0625 0 -1.65625 0.828125q-0.59375 0.8125 -0.59375 2.421875z" fill-rule="nonzero"/><path fill="#000000" d="m76.26812 202.88756l-1.5 0l0 -5.265625l-5.734375 0l0 5.265625l-1.5 0l0 -11.375l1.5 0l0 4.890625l5.734375 0l0 -4.890625l1.5 0l0 11.375zm7.65625 0q-0.125 -0.25 -0.203125 -0.890625q-1.0 1.046875 -2.40625 1.046875q-1.25 0 -2.046875 -0.703125q-0.796875 -0.71875 -0.796875 -1.796875q0 -1.328125 1.0 -2.046875q1.0 -0.734375 2.828125 -0.734375l1.40625 0l0 -0.671875q0 -0.75 -0.453125 -1.203125q-0.453125 -0.453125 -1.34375 -0.453125q-0.765625 0 -1.296875 0.390625q-0.515625 0.390625 -0.515625 0.953125l-1.453125 0q0 -0.640625 0.4375 -1.21875q0.453125 -0.59375 1.21875 -0.9375q0.78125 -0.34375 1.703125 -0.34375q1.453125 0 2.28125 0.734375q0.828125 0.71875 0.859375 2.0l0 3.890625q0 1.171875 0.296875 1.859375l0 0.125l-1.515625 0zm-2.390625 -1.109375q0.671875 0 1.28125 -0.34375q0.609375 -0.359375 0.890625 -0.921875l0 -1.734375l-1.140625 0q-2.65625 0 -2.65625 1.5625q0 0.671875 0.453125 1.0625q0.453125 0.375 1.171875 0.375zm9.96875 -6.046875q-0.328125 -0.0625 -0.71875 -0.0625q-1.421875 0 -1.921875 1.21875l0 6.0l-1.453125 0l0 -8.453125l1.40625 0l0.03125 0.96875q0.703125 -1.125 2.015625 -1.125q0.421875 0 0.640625 0.109375l0 1.34375zm0.828125 2.859375q0 -1.953125 0.921875 -3.125q0.921875 -1.1875 2.40625 -1.1875q1.484375 0 2.359375 1.015625l0 -4.40625l1.4375 0l0 12.0l-1.328125 0l-0.0625 -0.90625q-0.875 1.0625 -2.421875 1.0625q-1.46875 0 -2.390625 -1.203125q-0.921875 -1.203125 -0.921875 -3.140625l0 -0.109375zm1.4375 0.15625q0 1.4375 0.59375 2.25q0.59375 0.8125 1.640625 0.8125q1.375 0 2.015625 -1.234375l0 -3.875q-0.65625 -1.203125 -2.0 -1.203125q-1.0625 0 -1.65625 0.828125q-0.59375 0.8125 -0.59375 2.421875zm15.4140625 2.140625l1.625 -6.453125l1.453125 0l-2.46875 8.453125l-1.171875 0l-2.046875 -6.40625l-2.0 6.40625l-1.171875 0l-2.453125 -8.453125l1.4375 0l1.65625 6.328125l1.96875 -6.328125l1.171875 0l2.0 6.453125zm9.7578125 2.0q-0.125 -0.25 -0.203125 -0.890625q-1.0 1.046875 -2.40625 1.046875q-1.25 0 -2.046875 -0.703125q-0.796875 -0.71875 -0.796875 -1.796875q0 -1.328125 1.0 -2.046875q1.0 -0.734375 2.828125 -0.734375l1.40625 0l0 -0.671875q0 -0.75 -0.453125 -1.203125q-0.453125 -0.453125 -1.34375 -0.453125q-0.765625 0 -1.296875 0.390625q-0.515625 0.390625 -0.515625 0.953125l-1.453125 0q0 -0.640625 0.4375 -1.21875q0.453125 -0.59375 1.21875 -0.9375q0.78125 -0.34375 1.703125 -0.34375q1.453125 0 2.28125 0.734375q0.828125 0.71875 0.859375 2.0l0 3.890625q0 1.171875 0.296875 1.859375l0 0.125l-1.515625 0zm-2.390625 -1.109375q0.671875 0 1.28125 -0.34375q0.609375 -0.359375 0.890625 -0.921875l0 -1.734375l-1.140625 0q-2.65625 0 -2.65625 1.5625q0 0.671875 0.453125 1.0625q0.453125 0.375 1.171875 0.375zm9.96875 -6.046875q-0.328125 -0.0625 -0.71875 -0.0625q-1.421875 0 -1.921875 1.21875l0 6.0l-1.453125 0l0 -8.453125l1.40625 0l0.03125 0.96875q0.703125 -1.125 2.015625 -1.125q0.421875 0 0.640625 0.109375l0 1.34375zm4.6875076 7.3125q-1.71875 0 -2.796875 -1.125q-1.0781326 -1.140625 -1.0781326 -3.03125l0 -0.265625q0 -1.25 0.46875 -2.234375q0.48438263 -1.0 1.3437576 -1.546875q0.875 -0.5625 1.875 -0.5625q1.65625 0 2.5625 1.09375q0.921875 1.078125 0.921875 3.09375l0 0.609375l-5.734375 0q0.03125 1.25 0.734375 2.015625q0.703125 0.765625 1.78125 0.765625q0.765625 0 1.296875 -0.3125q0.53125 -0.3125 0.921875 -0.828125l0.890625 0.6875q-1.0625 1.640625 -3.1875 1.640625zm-0.1875 -7.578125q-0.875 0 -1.46875 0.640625q-0.59375 0.625 -0.734375 1.78125l4.234375 0l0 -0.109375q-0.0625 -1.109375 -0.59375 -1.703125q-0.53125 -0.609375 -1.4375 -0.609375z" fill-rule="nonzero"/><defs><linearGradient id="p.1" gradientUnits="userSpaceOnUse" gradientTransform="matrix(6.664321478911278 0.0 0.0 6.664321478911278 0.0 0.0)" spreadMethod="pad" x1="72.72054335941397" y1="18.837170612071176" x2="79.38486483832524" y2="18.837170612071176"><stop offset="0.0" stop-color="#29a1da"/><stop offset="0.45" stop-color="#29a1da"/><stop offset="0.56" stop-color="#2789b9"/><stop offset="1.0" stop-color="#2789b9"/></linearGradient></defs><path fill="url(#p.1)" d="m529.04626 113.0806l0 0c0 5.107498 0 5.107498 0 5.107498c0 0.14079285 -0.140625 0.28168488 -0.56744385 0.42716217c-20.574402 6.8160324 -20.574402 6.8160324 -20.574402 6.8160324c-0.56744385 0.14089966 -1.5576172 0.14089966 -2.265686 0c-20.578888 -6.8160324 -20.578888 -6.8160324 -20.578888 -6.8160324c-0.14102173 0 -0.28167725 -0.1454773 -0.28167725 -0.1454773c-0.14511108 -0.14089203 -0.14511108 -0.14089203 -0.14511108 -0.28168488c0 -5.107498 0 -5.107498 0 -5.107498l44.413208 0" fill-rule="evenodd"/><defs><linearGradient id="p.2" gradientUnits="userSpaceOnUse" gradientTransform="matrix(6.661570189502189 0.0 0.0 6.661570189502189 0.0 0.0)" spreadMethod="pad" x1="79.41228323636358" y1="15.870914235828838" x2="72.75071304704345" y2="15.870864985579997"><stop offset="0.0" stop-color="#6bc1ec"/><stop offset="1.0" stop-color="#8ad6f4"/></linearGradient></defs><path fill="url(#p.2)" d="m507.9046 120.30561l0 0c20.574707 -6.808258 20.574707 -6.808258 20.574707 -6.808258c0.7081299 -0.28611755 0.7081299 -0.56768036 0 -0.8537979c-20.574707 -6.812805 -20.574707 -6.812805 -20.574707 -6.812805c-0.567688 -0.14072418 -1.6982422 -0.14072418 -2.2659302 0c-20.579193 6.812805 -20.579193 6.812805 -20.579193 6.812805c-0.5673218 0.28611755 -0.5673218 0.56768036 0 0.8537979c20.579193 6.808258 20.579193 6.808258 20.579193 6.808258c0.7084961 0.14084625 1.6982422 0.14084625 2.2659302 0" fill-rule="evenodd"/><defs><linearGradient id="p.3" gradientUnits="userSpaceOnUse" gradientTransform="matrix(6.664324555780346 0.0 0.0 6.664324555780346 0.0 0.0)" spreadMethod="pad" x1="72.71870674002314" y1="17.717078758195164" x2="79.38303129580349" y2="17.717078758195164"><stop offset="0.0" stop-color="#dbdcdd"/><stop offset="0.41" stop-color="#dbdcdd"/><stop offset="0.6" stop-color="#b1b3b5"/><stop offset="1.0" stop-color="#b1b3b5"/></linearGradient></defs><path fill="url(#p.3)" d="m529.0343 105.616l0 0c0 5.107498 0 5.107498 0 5.107498c0 0.14079285 -0.14068604 0.28168488 -0.56744385 0.42716217c-20.574432 6.8160324 -20.574432 6.8160324 -20.574432 6.8160324c-0.56744385 0.14089966 -1.5576172 0.14089966 -2.2657166 0c-20.578857 -6.8160324 -20.578857 -6.8160324 -20.578857 -6.8160324c-0.14102173 0 -0.28167725 -0.1454773 -0.28167725 -0.1454773c-0.14511108 -0.14089203 -0.14511108 -0.14089203 -0.14511108 -0.28168488c0 -5.107498 0 -5.107498 0 -5.107498l44.41324 0" fill-rule="evenodd"/><defs><linearGradient id="p.4" gradientUnits="userSpaceOnUse" gradientTransform="matrix(6.462452699927711 0.0 0.0 6.462452699927711 0.0 0.0)" spreadMethod="pad" x1="82.99209247889122" y1="16.341128007867006" x2="78.42248999726014" y2="11.771442235445221"><stop offset="0.0" stop-color="#e6e7e8"/><stop offset="1.0" stop-color="#ffffff"/></linearGradient></defs><path fill="url(#p.4)" d="m507.88364 112.84101l0 0c20.574738 -6.808258 20.574738 -6.808258 20.574738 -6.808258c0.7081299 -0.28611755 0.7081299 -0.56768036 0 -0.8537979c-20.574738 -6.812805 -20.574738 -6.812805 -20.574738 -6.812805c-0.567688 -0.14072418 -1.6982422 -0.14072418 -2.2659302 0c-20.579193 6.812805 -20.579193 6.812805 -20.579193 6.812805c-0.5673218 0.28611755 -0.5673218 0.56768036 0 0.8537979c20.579193 6.808258 20.579193 6.808258 20.579193 6.808258c0.7084961 0.14083862 1.6982422 0.14083862 2.2659302 0" fill-rule="evenodd"/><path fill="#23292f" d="m494.9792 86.64946l7.157776 7.3098984l0.24404907 0.23966217l0.25561523 0.22763062l0.26727295 0.2037735l0.2788391 0.19174194l0.27893066 0.17971802l0.27886963 0.16779327l0.29049683 0.14382935l0.302063 0.13180542l0.30218506 0.119781494l0.302063 0.09592438l0.3137207 0.08389282l0.31375122 0.0718689l0.3137207 0.059936523l0.31375122 0.035888672l0.32537842 0.023956299l0.6273804 0l0.32540894 -0.023956299l0.3137207 -0.035888672l0.31375122 -0.059936523l0.3137207 -0.0718689l0.31375122 -0.08389282l0.302063 -0.09592438l0.30218506 -0.119781494l0.29049683 -0.13180542l0.302063 -0.14382935l0.27893066 -0.16779327l0.27886963 -0.17971802l0.2788391 -0.19174194l0.26727295 -0.2037735l0.25561523 -0.22763062l0.24404907 -0.23966217l7.1578064 -7.3098984l-3.4395142 0l-5.438019 5.5483017l-0.16268921 0.15576172l-0.16268921 0.14383698l-0.16271973 0.13180542l-0.17425537 0.119880676l-0.17425537 0.119781494l-0.1859436 0.09591675l-0.18591309 0.095825195l-0.1859436 0.08389282l-0.18591309 0.0718689l-0.19750977 0.059944153l-0.1975708 0.059936523l-0.19750977 0.047912598l-0.1975708 0.035980225l-0.19750977 0.023956299l-0.20916748 0.011932373l-0.39508057 0l-0.20913696 -0.011932373l-0.19750977 -0.023956299l-0.1975708 -0.035980225l-0.19750977 -0.047912598l-0.19760132 -0.059936523l-0.19747925 -0.059944153l-0.1859436 -0.0718689l-0.18591309 -0.08389282l-0.18591309 -0.095825195l-0.1859436 -0.09591675l-0.17425537 -0.119781494l-0.17428589 -0.119880676l-0.16268921 -0.13180542l-0.16268921 -0.14383698l-0.16271973 -0.15576172l-5.437958 -5.5483017z" fill-rule="evenodd"/><path fill="#23292f" d="m506.51767 97.63822l-0.32537842 0.023956299l-0.31375122 0.04800415l-0.3137207 0.047912598l-0.31375122 0.0718689l-0.3137207 0.08389282l-0.302063 0.09592438l-0.30218506 0.119781494l-0.302063 0.13180542l-0.29049683 0.14383698l-0.27886963 0.16778564l-0.27893066 0.17971802l-0.2788391 0.19174957l-0.26727295 0.21569824l-0.25561523 0.21570587l-0.24404907 0.23965454l-7.204254 7.3578186l3.4394226 0l5.4845276 -5.596222l0.16271973 -0.1558609l0.16268921 -0.1437378l0.16268921 -0.13180542l0.17428589 -0.11987305l0.17425537 -0.10785675l0.1859436 -0.10784912l0.18591309 -0.095825195l0.18591309 -0.08389282l0.1859436 -0.07196808l0.19747925 -0.05983734l0.19760132 -0.059944153l0.19750977 -0.035980225l0.1975708 -0.035881042l0.19750977 -0.024055481l0.20913696 -0.023956299l0.39508057 0l0.20916748 0.023956299l0.19750977 0.024055481l0.1975708 0.035881042l0.19750977 0.035980225l0.1975708 0.059944153l0.19750977 0.05983734l0.18591309 0.07196808l0.1859436 0.08389282l0.18591309 0.095825195l0.1859436 0.10784912l0.17425537 0.10785675l0.17425537 0.11987305l0.16271973 0.13180542l0.16268921 0.1437378l0.16268921 0.1558609l5.4845276 5.596222l3.4394531 0l-7.204254 -7.3578186l-0.24404907 -0.23965454l-0.25561523 -0.21570587l-0.26727295 -0.21569824l-0.2788391 -0.19174957l-0.27886963 -0.17971802l-0.27893066 -0.16778564l-0.29049683 -0.14383698l-0.302063 -0.13180542l-0.30218506 -0.119781494l-0.302063 -0.09592438l-0.31375122 -0.08389282l-0.3137207 -0.0718689l-0.31375122 -0.047912598l-0.3137207 -0.04800415l-0.32540894 -0.023956299z" fill-rule="evenodd"/><path fill="#000000" fill-opacity="0.0" d="m479.11548 125.57743l55.433105 0l0 33.95275l-55.433105 0z" fill-rule="evenodd"/><path fill="#000000" d="m492.69302 130.00493q0.375 0 0.6875 0.0625l-0.125 0.8125q-0.359375 -0.078125 -0.625 -0.078125q-0.6875 0 -1.1875 0.5625q-0.484375 0.5625 -0.484375 1.390625l0 3.0625l-0.859375 0l0 -5.703125l0.703125 0l0.109375 1.0625l0.03125 0q0.328125 -0.5625 0.765625 -0.859375q0.453125 -0.3125 0.984375 -0.3125zm2.6155396 5.8125l-0.859375 0l0 -5.703125l0.859375 0l0 5.703125zm-0.9375 -7.25q0 -0.296875 0.140625 -0.4375q0.15625 -0.140625 0.375 -0.140625q0.203125 0 0.34375 0.140625q0.15625 0.140625 0.15625 0.4375q0 0.296875 -0.15625 0.4375q-0.140625 0.140625 -0.34375 0.140625q-0.21875 0 -0.375 -0.140625q-0.140625 -0.140625 -0.140625 -0.4375zm5.414032 7.359375q-0.546875 0 -1.015625 -0.203125q-0.453125 -0.21875 -0.765625 -0.640625l-0.0625 0q0.0625 0.5 0.0625 0.953125l0 2.34375l-0.859375 0l0 -8.265625l0.703125 0l0.109375 0.78125l0.046875 0q0.328125 -0.46875 0.765625 -0.671875q0.453125 -0.21875 1.015625 -0.21875q1.140625 0 1.75 0.78125q0.625 0.78125 0.625 2.171875q0 1.40625 -0.625 2.1875q-0.625 0.78125 -1.75 0.78125zm-0.125 -5.1875q-0.859375 0 -1.25 0.484375q-0.390625 0.484375 -0.40625 1.546875l0 0.1875q0 1.203125 0.390625 1.71875q0.40625 0.515625 1.296875 0.515625q0.734375 0 1.15625 -0.59375q0.421875 -0.59375 0.421875 -1.640625q0 -1.078125 -0.421875 -1.640625q-0.421875 -0.578125 -1.1875 -0.578125zm6.6550903 5.1875q-0.546875 0 -1.015625 -0.203125q-0.453125 -0.21875 -0.765625 -0.640625l-0.0625 0q0.0625 0.5 0.0625 0.953125l0 2.34375l-0.859375 0l0 -8.265625l0.703125 0l0.109375 0.78125l0.046875 0q0.328125 -0.46875 0.765625 -0.671875q0.453125 -0.21875 1.015625 -0.21875q1.140625 0 1.75 0.78125q0.625 0.78125 0.625 2.171875q0 1.40625 -0.625 2.1875q-0.625 0.78125 -1.75 0.78125zm-0.125 -5.1875q-0.859375 0 -1.25 0.484375q-0.390625 0.484375 -0.40625 1.546875l0 0.1875q0 1.203125 0.390625 1.71875q0.40625 0.515625 1.296875 0.515625q0.734375 0 1.15625 -0.59375q0.421875 -0.59375 0.421875 -1.640625q0 -1.078125 -0.421875 -1.640625q-0.421875 -0.578125 -1.1875 -0.578125zm4.87381 5.078125l-0.859375 0l0 -8.09375l0.859375 0l0 8.09375zm4.242157 0.109375q-1.265625 0 -2.0 -0.765625q-0.734375 -0.78125 -0.734375 -2.140625q0 -1.390625 0.671875 -2.203125q0.6875 -0.8125 1.828125 -0.8125q1.078125 0 1.703125 0.71875q0.625 0.703125 0.625 1.859375l0 0.546875l-3.921875 0q0.015625 1.0 0.5 1.515625q0.484375 0.515625 1.359375 0.515625q0.921875 0 1.8125 -0.375l0 0.765625q-0.453125 0.203125 -0.859375 0.28125q-0.40625 0.09375 -0.984375 0.09375zm-0.234375 -5.1875q-0.6875 0 -1.09375 0.453125q-0.40625 0.4375 -0.484375 1.234375l2.984375 0q0 -0.828125 -0.375 -1.25q-0.359375 -0.4375 -1.03125 -0.4375zm7.6816406 4.3125l-0.046875 0q-0.59375 0.875 -1.796875 0.875q-1.109375 0 -1.734375 -0.765625q-0.625 -0.765625 -0.625 -2.171875q0 -1.421875 0.625 -2.203125q0.625 -0.78125 1.734375 -0.78125q1.171875 0 1.78125 0.84375l0.078125 0l-0.046875 -0.40625l-0.015625 -0.40625l0 -2.3125l0.859375 0l0 8.09375l-0.703125 0l-0.109375 -0.765625zm-1.734375 0.140625q0.890625 0 1.28125 -0.46875q0.40625 -0.484375 0.40625 -1.5625l0 -0.171875q0 -1.21875 -0.40625 -1.734375q-0.40625 -0.515625 -1.28125 -0.515625q-0.765625 0 -1.171875 0.59375q-0.390625 0.578125 -0.390625 1.65625q0 1.09375 0.390625 1.65625q0.40625 0.546875 1.171875 0.546875z" fill-rule="nonzero"/><path fill="#000000" d="m496.25385 146.78618q0 1.015625 -0.734375 1.578125q-0.734375 0.5625 -1.96875 0.5625q-1.359375 0 -2.09375 -0.359375l0 -0.84375q0.46875 0.1875 1.015625 0.3125q0.5625 0.109375 1.109375 0.109375q0.875 0 1.3125 -0.328125q0.453125 -0.34375 0.453125 -0.9375q0 -0.40625 -0.15625 -0.65625q-0.15625 -0.25 -0.53125 -0.453125q-0.375 -0.21875 -1.125 -0.484375q-1.0625 -0.390625 -1.515625 -0.90625q-0.453125 -0.515625 -0.453125 -1.359375q0 -0.875 0.65625 -1.390625q0.65625 -0.53125 1.75 -0.53125q1.125 0 2.078125 0.421875l-0.265625 0.765625q-0.953125 -0.390625 -1.84375 -0.390625q-0.6875 0 -1.09375 0.296875q-0.390625 0.296875 -0.390625 0.84375q0 0.390625 0.140625 0.640625q0.15625 0.25 0.5 0.46875q0.34375 0.203125 1.046875 0.46875q1.203125 0.421875 1.65625 0.921875q0.453125 0.484375 0.453125 1.25zm3.8328247 2.140625q-1.265625 0 -2.0 -0.765625q-0.734375 -0.78125 -0.734375 -2.140625q0 -1.390625 0.671875 -2.203125q0.6875 -0.8125 1.828125 -0.8125q1.078125 0 1.703125 0.71875q0.625 0.703125 0.625 1.859375l0 0.546875l-3.921875 0q0.015625 1.0 0.5 1.515625q0.484375 0.515625 1.359375 0.515625q0.921875 0 1.8125 -0.375l0 0.765625q-0.453125 0.203125 -0.859375 0.28125q-0.40625 0.09375 -0.984375 0.09375zm-0.234375 -5.1875q-0.6875 0 -1.09375 0.453125q-0.40625 0.4375 -0.484375 1.234375l2.984375 0q0 -0.828125 -0.375 -1.25q-0.359375 -0.4375 -1.03125 -0.4375zm6.4003906 -0.734375q0.375 0 0.6875 0.0625l-0.125 0.8125q-0.359375 -0.078125 -0.625 -0.078125q-0.6875 0 -1.1875 0.5625q-0.484375 0.5625 -0.484375 1.390625l0 3.0625l-0.859375 0l0 -5.703125l0.703125 0l0.109375 1.0625l0.03125 0q0.328125 -0.5625 0.765625 -0.859375q0.453125 -0.3125 0.984375 -0.3125zm3.0061646 5.8125l-2.171875 -5.703125l0.921875 0l1.234375 3.375q0.421875 1.1875 0.484375 1.546875l0.046875 0q0.046875 -0.28125 0.34375 -1.140625q0.3125 -0.859375 1.375 -3.78125l0.9375 0l-2.171875 5.703125l-1.0 0zm6.494812 0.109375q-1.265625 0 -2.0 -0.765625q-0.734375 -0.78125 -0.734375 -2.140625q0 -1.390625 0.671875 -2.203125q0.6875 -0.8125 1.828125 -0.8125q1.078125 0 1.703125 0.71875q0.625 0.703125 0.625 1.859375l0 0.546875l-3.921875 0q0.015625 1.0 0.5 1.515625q0.484375 0.515625 1.359375 0.515625q0.921875 0 1.8125 -0.375l0 0.765625q-0.453125 0.203125 -0.859375 0.28125q-0.40625 0.09375 -0.984375 0.09375zm-0.234375 -5.1875q-0.6875 0 -1.09375 0.453125q-0.40625 0.4375 -0.484375 1.234375l2.984375 0q0 -0.828125 -0.375 -1.25q-0.359375 -0.4375 -1.03125 -0.4375zm6.4003906 -0.734375q0.375 0 0.6875 0.0625l-0.125 0.8125q-0.359375 -0.078125 -0.625 -0.078125q-0.6875 0 -1.1875 0.5625q-0.484375 0.5625 -0.484375 1.390625l0 3.0625l-0.859375 0l0 -5.703125l0.703125 0l0.109375 1.0625l0.03125 0q0.328125 -0.5625 0.765625 -0.859375q0.453125 -0.3125 0.984375 -0.3125z" fill-rule="nonzero"/></g></svg>