<svg width="262" height="40" viewBox="0 0 262 40" fill="none" xmlns="http://www.w3.org/2000/svg">
<path d="M0 10.0098L12.3047 2.92773L24.728 10.0494V13.2146L12.3442 6.13248L0.0395649 13.2146L0 10.0098Z" fill="#4BA7B5"/>
<path d="M2.8091 31.6121L0 29.99V15.7467L12.4629 8.625L24.728 15.7467V18.9514L12.3442 11.8297L2.8091 17.4084V31.6121Z" fill="#4BA7B5"/>
<path d="M34.6982 9.97027V24.174L22.3144 31.3748L19.5844 29.7922L31.8891 22.631L31.9286 8.42725L34.6982 9.97027Z" fill="#4BA7B5"/>
<path d="M14.5995 1.62216L17.3691 0L29.7528 7.12166V21.4441L17.4086 28.5262L14.5995 26.9041L26.9437 19.7824L26.9833 8.74382L14.5995 1.62216Z" fill="#4BA7B5"/>
<path d="M17.3293 39.9999L5.06421 32.8782V18.5953L7.83374 16.9731L7.79418 31.256L20.0988 38.3777L17.3293 39.9999Z" fill="#4BA7B5"/>
<path d="M34.6589 26.7852V30.0296L22.2751 37.1512L9.93089 29.9109V15.7862L12.74 14.1245V28.3678L22.3542 33.9069L34.6589 26.7852Z" fill="#4BA7B5"/>
</svg>
