<?xml version="1.0" encoding="UTF-8"?>
<svg id="Layer_1" data-name="Layer 1" xmlns="http://www.w3.org/2000/svg" viewBox="0 0 2000 2000">
  <defs>
    <style>
      .cls-1 {
        fill: #fff;
        stroke-width: 0px;
      }
    </style>
  </defs>
  <g>
    <path class="cls-1" d="M819.41,798.26h27.72v31.85h-31.61c-7.78,0-12.89,5.59-12.89,14.1v10.7h42.31v31.85h-42.31v84.12h-35.98v-84.12h-31.12v-31.85h31.12v-7.78c0-33.31,16.29-48.87,52.76-48.87Z"/>
    <path class="cls-1" d="M965.78,939.03h35.5v31.85h-114.03v-31.85h42.55v-65.16h-42.55v-31.85h78.53v97.01ZM929.79,798.26h35.5v29.18h-35.5v-29.18Z"/>
    <path class="cls-1" d="M1084.91,866.33c4.13-16.78,14.83-24.31,31.85-24.31h27.96v31.85h-23.34c-17.99,0-24.56,6.81-24.56,24.07v41.09h37.2v31.85h-104.3v-31.85h31.36v-65.16h-31.36v-31.85h53l2.19,24.31Z"/>
    <path class="cls-1" d="M1229.33,870.22c-9.24,0-16.05,3.4-15.07,10.21.73,7.29,9.73,9.72,28.45,13.86,26.26,5.35,45.22,19.94,45.22,40.6,0,25.53-20.91,38.9-54.22,38.9s-57.87-17.75-59.81-45.22l38.9-1.46c.97,10.21,9.24,15.56,20.91,15.56,9.97,0,16.05-2.43,16.05-8.51s-8.51-9.24-25.53-13.37c-29.18-7.05-48.14-20.18-48.14-40.85,0-24.56,23.58-40.85,55.43-40.85,28.69,0,51.79,16.78,55.68,43.52l-39.63,1.46c-1.46-9.73-8.27-13.86-18.23-13.86Z"/>
    <path class="cls-1" d="M1387.37,807.98v34.04h45.47v31.85h-45.47v47.9c0,10.7,5.84,17.26,16.53,17.26h28.45v31.85h-35.74c-30.39,0-44.98-14.83-44.98-43.52v-53.49h-35.01v-31.85h35.01v-34.04h35.74Z"/>
    <path class="cls-1" d="M782.21,1144.85v-95.31c0-9.24-4.13-13.62-12.89-13.62h-29.66v-31.85h29.66c32.34,0,48.63,15.07,48.63,45.47v95.31h37.44v31.85h-115.97v-31.85h42.79Z"/>
    <path class="cls-1" d="M940.25,1044.92c32.09,0,61.51,20.91,62,68.08v7.29h-86.31c1.94,17.51,10.7,28.2,24.31,28.2,9.97,0,18.23-6.08,22.12-16.29l37.93,3.89c-7.05,26.26-30.63,43.52-60.05,43.52-38.66,0-62.97-26.02-62.97-67.35s24.31-67.35,62.97-67.35ZM963.35,1098.41c-3.16-14.34-11.91-22.37-23.1-22.37-12.16,0-20.42,8.27-23.34,22.37h46.44Z"/>
    <path class="cls-1" d="M1142.29,1176.7h-34.77l-.73-18.72c-7.29,13.86-18.24,21.64-35.5,21.64-29.91,0-48.63-27.23-48.63-67.35s18.72-67.35,48.63-67.35c16.05,0,26.99,7.54,35.01,21.64v-62.49h35.98v172.62ZM1084.91,1148.5c15.56,0,23.83-15.07,23.83-36.23s-8.27-36.47-23.83-36.47-24.07,15.07-24.07,36.47,8.27,36.23,24.07,36.23Z"/>
    <path class="cls-1" d="M1172.93,1111.3c0-40.36,19.69-66.38,49.11-66.38,16.78,0,27.96,8.02,34.77,22.12l.73-19.21h34.77v107.46c-.97,41.82-19.69,60.78-57.38,60.78-31.61,0-51.3-14.34-57.14-36.71l37.44-2.43c3.4,8.02,10.21,12.64,19.69,12.64,13.13,0,20.91-9.72,21.4-27.47v-10.21c-5.83,11.18-20.18,17.99-34.28,17.99-29.18,0-49.11-24.31-49.11-58.6ZM1234.68,1145.82c14.59,0,23.58-14.1,23.83-35.25,0-21.4-9-35.25-23.83-35.25s-23.83,13.86-23.83,35.25,9.24,35.25,23.83,35.25Z"/>
    <path class="cls-1" d="M1377.89,1044.92c32.09,0,61.51,20.91,62,68.08v7.29h-86.31c1.94,17.51,10.7,28.2,24.31,28.2,9.97,0,18.24-6.08,22.13-16.29l37.93,3.89c-7.05,26.26-30.63,43.52-60.05,43.52-38.66,0-62.97-26.02-62.97-67.35s24.31-67.35,62.97-67.35ZM1400.99,1098.41c-3.16-14.34-11.91-22.37-23.1-22.37-12.16,0-20.42,8.27-23.34,22.37h46.44Z"/>
    <path class="cls-1" d="M1522.55,1072.15c4.13-16.78,14.83-24.31,31.85-24.31h27.96v31.85h-23.34c-17.99,0-24.56,6.81-24.56,24.07v41.09h37.2v31.85h-104.3v-31.85h31.36v-65.16h-31.36v-31.85h53l2.19,24.31Z"/>
    <path class="cls-1" d="M1729.71,1184.24v32.82h-122.05v-32.82h122.05Z"/>
  </g>
  <path class="cls-1" d="M644.52,792.94h-386.14v386.14h386.14v-386.14ZM562.24,875.22v221.58h-221.58v-166.15l83.06,83.06.03-.03v.03h55.4v-55.4h-.03l.03-.03-83.06-83.06h166.15Z"/>
</svg>