<svg width="480" height="480" viewBox="0 0 480 480" fill="none" xmlns="http://www.w3.org/2000/svg">
<g clip-path="url(#clip0_1_84)">
<g clip-path="url(#clip1_1_84)">
<path fill-rule="evenodd" clip-rule="evenodd" d="M415.029 297.083C426.814 313.715 437.319 329.986 446.317 345.647V345.663C479.496 403.388 488.537 446.596 471.777 467.346C464.953 475.803 454.249 480 440.205 480C419.763 480 392.228 471.12 359.12 453.565C304.533 424.624 240.635 375.496 179.197 315.234C49.2259 187.74 -25.888 54.8438 8.20043 12.6539C24.9603 -8.09645 64.9765 -3.19466 120.857 26.3884C151.107 42.4249 184.215 64.6944 218.175 91.5836H442.479C448.549 91.5836 453.482 97.1745 453.482 104.05V162.166C453.482 169.057 448.563 174.632 442.479 174.632H180.234C139.721 174.632 106.883 137.454 106.883 91.5993H191.777C175.742 80.1202 160.248 70.1443 145.649 61.9851C118.355 46.7316 96.0797 38.8856 80.9972 38.8856C72.9655 38.8856 66.9666 41.1094 63.3275 45.6197C52.8366 58.6024 61.6785 90.7381 87.6073 133.805C108.404 168.352 138.328 206.956 173.781 245.293C183.703 227.283 201.344 215.303 221.473 215.303H444.554C449.473 215.303 453.467 219.829 453.467 225.404V286.982C453.467 292.557 449.473 297.083 444.554 297.083H415.029H394.829H276.629C266.223 297.083 257.779 306.636 257.779 318.429V326.118C328.23 386.114 387.793 417.451 418.1 417.451C426.117 417.451 432.073 415.259 435.656 410.827H435.641C446.132 397.844 437.29 365.708 411.362 322.641C406.358 314.341 400.828 305.791 394.829 297.083H415.029ZM165.292 411.461V324.45C165.825 324.975 166.353 325.505 166.881 326.037C167.535 326.696 168.191 327.355 168.86 328.005C198.285 356.868 228.28 383.224 257.762 406.214V411.461C257.762 417.036 253.768 421.562 248.849 421.562H174.205C169.286 421.562 165.292 417.036 165.292 411.461Z" fill="white"/>
</g>
</g>
<defs>
<clipPath id="clip0_1_84">
<rect width="480" height="480" fill="white"/>
</clipPath>
<clipPath id="clip1_1_84">
<rect width="480" height="480" fill="white"/>
</clipPath>
</defs>
</svg>
