<svg width="1920" height="1080" viewBox="0 0 1920 1080" fill="none" xmlns="http://www.w3.org/2000/svg">
<g clip-path="url(#clip0_1758_7049)">
<path d="M192.658 512.694L161.008 552.653C159.289 554.82 158.635 557.621 159.196 560.311C160.587 567.023 171.038 582.449 178.78 582.449C198.271 582.449 201.259 537.99 197.393 513.41C197.066 511.335 193.984 511.05 192.658 512.694Z" fill="white"/>
<path d="M268.632 498.885C266.026 529.663 267.576 545.391 277.84 583.579C284.424 608.076 261.973 619.351 236.038 626.504C212.802 632.913 162.773 638.247 191.08 599.408C235.599 538.33 235.188 491.971 190.968 492.742C183.085 492.88 199.793 448.972 218.425 449C240.521 449.028 270.78 473.47 268.632 498.885Z" fill="white"/>
<path fill-rule="evenodd" clip-rule="evenodd" d="M562.886 539.518C562.886 508.573 583.898 479.998 619.919 479.998C655.939 479.998 680.268 505.903 680.268 540.478C680.268 571.423 659.586 599.998 623.4 599.998C587.215 599.998 562.886 574.258 562.886 539.518ZM655.789 577.738C655.789 543.793 620.714 488.848 598.126 488.848C591.807 488.848 587.545 493.423 587.545 502.258C587.545 536.203 623.25 591.148 645.043 591.148C651.992 591.148 655.789 586.888 655.789 577.738ZM463.469 556.648L437.279 485.263H379V594.748H414.781V518.278L444.738 594.733H481.974L511.916 517.903V594.733H547.697V485.263H489.418L463.469 556.648ZM727.185 485.263L679.143 594.733H719.306L726.795 576.343H777.824L785.314 594.733H825.477L777.434 485.263H727.185ZM752.302 513.737L752.31 513.718H752.295L752.302 513.737ZM752.302 513.737L738.982 546.418H765.622L752.302 513.737ZM835.262 485.263H872.949V594.733H835.262V485.263ZM1598.88 481.799C1565.31 481.799 1543.24 503.399 1543.24 536.324H1543.21C1543.21 572.459 1566.36 598.199 1601.61 598.199C1620.16 598.199 1636.87 588.704 1644.22 575.534L1644.07 575.384C1641.16 576.764 1635.8 577.379 1631.51 577.379C1598.87 577.379 1566.99 545.369 1566.99 506.309C1566.99 494.054 1572.21 488.849 1578.95 488.849C1589.83 488.849 1602.09 499.109 1625.39 544.604H1625.54L1639.03 491.144C1627.85 485.324 1614.67 481.799 1598.88 481.799ZM1036.72 516.568V485.068H934.988V594.958H972.81V559.498H1033.79V527.998H972.81V516.568H1036.72ZM1050.94 485.068H1088.76V594.958H1050.94V485.068ZM1208.23 567.405L1208.23 567.403V567.418L1208.23 567.405ZM1197.97 551.489V485.068H1234.62V594.958H1187.27L1142.99 526.209V594.958H1106.34V485.068H1155.16L1197.97 551.489ZM1341.63 485.068L1389.87 594.958H1349.55L1342.03 576.493H1290.82L1283.29 594.958H1242.98L1291.2 485.068H1341.63ZM1316.42 513.656L1329.79 546.463H1303.05L1316.42 513.656ZM1500.1 567.405L1500.11 567.403V567.418L1500.1 567.405ZM1489.84 551.489V485.068H1526.49V594.958H1479.14L1434.87 526.209V594.958H1398.21V485.068H1447.04L1489.84 551.489ZM1694.55 565.063L1696.53 553.063H1755.57V526.978H1696.55L1694.57 514.963H1760.28V485.068H1654.57L1662.63 540.013L1654.57 594.958H1761V565.063H1694.55Z" fill="white"/>
</g>
<defs>
<clipPath id="clip0_1758_7049">
<rect width="1920" height="1080" fill="white"/>
</clipPath>
</defs>
</svg>
