<svg width="1452" height="560" viewBox="0 0 1452 560" fill="none" xmlns="http://www.w3.org/2000/svg">
<g clip-path="url(#clip0_7282_5611)">
<path d="M373.543 264.699C388.82 325.805 376.848 366.788 342.642 377.597C308.436 388.406 266.609 364.505 251.244 303.927C235.879 243.349 249.511 201.923 283.716 191.115C317.922 180.306 358.267 203.593 373.543 264.699Z" stroke="url(#paint0_linear_7282_5611)" stroke-width="7.02466"/>
<path d="M389.954 247.143C405.171 299.068 405.023 357.564 358.27 374.667C313.807 394.435 260.629 381.906 235.427 321.016C210.224 260.126 221.37 212.828 265.943 190.487C310.517 168.147 374.736 195.218 389.954 247.143Z" stroke="url(#paint1_linear_7282_5611)" stroke-width="7.02466"/>
<path d="M384.91 210.321C421.869 243.125 436.736 325.937 394.536 361.816C352.336 397.694 283.084 397.695 240.607 361.454C198.131 325.214 185.168 252.728 226.044 208.265C266.919 163.803 347.951 177.518 384.91 210.321Z" stroke="url(#paint2_linear_7282_5611)" stroke-width="7.02466"/>
<path d="M351.684 182.479C424.265 200.3 460.881 278.059 433.819 331.499C406.757 384.939 343.808 402.966 273.537 385.654C203.266 368.342 162.981 306.785 184.574 245.219C206.168 183.654 279.104 164.658 351.684 182.479Z" stroke="url(#paint3_linear_7282_5611)" stroke-width="7.02466"/>
<path d="M355.105 178.606C444.959 196.978 480.604 272.342 456.166 326.321C431.728 380.3 353.298 405.757 271.825 390.481C190.352 375.204 139.448 315.802 161.834 251.975C184.22 188.149 265.252 160.233 355.105 178.606Z" stroke="url(#paint4_linear_7282_5611)" stroke-width="7.02466"/>
</g>
<path d="M580.025 306.435C571.068 306.435 563.087 304.655 556.083 301.096C549.193 297.536 543.796 292.483 539.892 285.938C536.103 279.278 534.208 271.527 534.208 262.685C534.208 253.958 536.16 246.265 540.064 239.605C543.968 232.944 549.365 227.777 556.255 224.103C563.26 220.428 571.183 218.591 580.025 218.591C588.867 218.591 596.732 220.428 603.622 224.103C610.627 227.777 616.081 232.944 619.985 239.605C623.89 246.265 625.842 253.958 625.842 262.685C625.842 271.527 623.89 279.278 619.985 285.938C616.196 292.483 610.799 297.536 603.794 301.096C596.905 304.655 588.982 306.435 580.025 306.435ZM580.025 295.928C589.9 295.928 597.766 292.943 603.622 286.972C609.593 280.886 612.579 272.79 612.579 262.685C612.579 252.465 609.593 244.37 603.622 238.399C597.766 232.313 589.9 229.27 580.025 229.27C570.149 229.27 562.226 232.313 556.255 238.399C550.399 244.37 547.471 252.465 547.471 262.685C547.471 272.79 550.399 280.886 556.255 286.972C562.226 292.943 570.149 295.928 580.025 295.928ZM646.483 221.174H659.401V237.365C666.061 226.571 678.52 221.174 696.778 221.174V231.854C676.798 231.854 664.454 238.456 659.746 251.662V303.852H646.483V221.174ZM755.293 306.435C746.566 306.435 738.7 304.713 731.695 301.268C724.805 297.708 719.408 292.656 715.504 286.11C711.6 279.45 709.648 271.642 709.648 262.685C709.648 253.843 711.6 246.092 715.504 239.432C719.523 232.657 725.035 227.49 732.04 223.93C739.044 220.371 746.967 218.591 755.809 218.591C762.125 218.591 767.694 219.165 772.517 220.313C777.34 221.461 781.646 223.299 785.435 225.825V237.021C778.201 231.854 768.728 229.27 757.015 229.27C746.91 229.27 738.7 232.198 732.384 238.054C726.068 243.911 722.911 252.121 722.911 262.685C722.911 273.25 726.068 281.46 732.384 287.316C738.7 293.058 746.738 295.928 756.498 295.928C762.584 295.928 768.039 295.239 772.861 293.861C777.684 292.483 782.277 290.359 786.641 287.488V298.684C782.622 301.44 778.086 303.392 773.034 304.541C768.096 305.804 762.182 306.435 755.293 306.435ZM807.289 176.563H820.552V233.232C828.475 223.471 839.441 218.591 853.45 218.591C864.359 218.591 872.454 221.461 877.737 227.203C883.134 232.944 885.832 240.638 885.832 250.284V303.852H872.569V251.489C872.569 244.37 870.847 238.916 867.402 235.126C863.957 231.222 858.445 229.27 850.866 229.27C838.12 229.27 828.015 235.011 820.552 246.494V303.852H807.289V176.563ZM953.493 306.435C938.45 306.435 926.68 302.588 918.183 294.895C909.8 287.201 905.609 276.465 905.609 262.685C905.609 249.135 909.398 238.399 916.977 230.476C924.556 222.552 935.35 218.591 949.359 218.591C958.775 218.591 966.756 220.428 973.301 224.103C979.846 227.662 984.784 232.6 988.114 238.916C991.444 245.231 993.109 252.408 993.109 260.446V267.68H918.011C918.47 277.096 921.915 284.158 928.345 288.866C934.891 293.574 943.732 295.928 954.871 295.928C960.268 295.928 965.55 295.469 970.717 294.55C975.999 293.517 980.707 292.139 984.841 290.417V301.612C981.396 302.99 976.688 304.139 970.717 305.057C964.861 305.976 959.12 306.435 953.493 306.435ZM980.707 258.207C980.478 249.25 977.722 242.188 972.44 237.021C967.158 231.854 959.407 229.27 949.187 229.27C939.197 229.27 931.561 231.968 926.278 237.365C920.996 242.648 918.24 249.595 918.011 258.207H980.707ZM1042.61 306.435C1037.21 306.435 1031.42 305.631 1025.22 304.024C1019.01 302.531 1014.19 300.636 1010.75 298.34V287.144C1015.11 289.785 1020.11 291.909 1025.73 293.517C1031.47 295.125 1036.99 295.928 1042.27 295.928C1049.39 295.928 1054.5 294.952 1057.6 293C1060.81 290.933 1062.42 287.89 1062.42 283.871C1062.42 280.771 1061.73 278.359 1060.35 276.637C1058.97 274.8 1056.68 273.192 1053.46 271.814C1050.25 270.436 1045.25 268.829 1038.48 266.991C1031.82 265.154 1026.48 263.259 1022.46 261.307C1018.56 259.24 1015.57 256.657 1013.5 253.556C1011.44 250.456 1010.4 246.494 1010.4 241.671C1010.4 234.208 1013.39 228.524 1019.36 224.619C1025.44 220.6 1033.48 218.591 1043.47 218.591C1048.87 218.591 1053.92 219.107 1058.63 220.141C1063.45 221.06 1067.47 222.38 1070.69 224.103V235.298C1067.36 233.461 1063.34 232.026 1058.63 230.992C1053.92 229.844 1049.04 229.27 1043.99 229.27C1037.33 229.27 1032.28 230.246 1028.83 232.198C1025.39 234.15 1023.66 237.308 1023.66 241.671C1023.66 244.657 1024.24 246.954 1025.39 248.561C1026.65 250.169 1028.89 251.662 1032.1 253.04C1035.43 254.303 1040.72 255.91 1047.95 257.862C1058.29 260.733 1065.46 264.121 1069.48 268.025C1073.62 271.814 1075.68 277.096 1075.68 283.871C1075.68 290.876 1072.93 296.388 1067.41 300.407C1062.02 304.426 1053.75 306.435 1042.61 306.435ZM1124.4 306.435C1116.6 306.435 1110.51 304.139 1106.15 299.545C1101.9 294.952 1099.77 288.407 1099.77 279.91V231.509H1086.86V221.174H1099.77V196.371H1113.04V221.174H1133.88V231.509H1113.04V280.254C1113.04 285.996 1114.18 290.072 1116.48 292.483C1118.78 294.78 1122.97 295.928 1129.06 295.928C1132.04 295.928 1135.2 295.239 1138.53 293.861V304.713C1134.74 305.861 1130.03 306.435 1124.4 306.435ZM1156.65 221.174H1169.57V237.365C1176.23 226.571 1188.69 221.174 1206.95 221.174V231.854C1186.97 231.854 1174.63 238.456 1169.92 251.662V303.852H1156.65V221.174ZM1245.31 306.435C1235.32 306.435 1227.39 303.966 1221.54 299.029C1215.79 293.976 1212.92 287.086 1212.92 278.359C1212.92 269.288 1215.74 262.341 1221.36 257.518C1226.99 252.58 1235.14 250.111 1245.82 250.111C1257.76 250.111 1268.04 252.58 1276.65 257.518V251.317C1276.65 243.853 1274.53 238.341 1270.28 234.782C1266.03 231.107 1259.31 229.27 1250.13 229.27C1240.37 229.27 1231.35 231.107 1223.09 234.782V223.586C1226.53 222.093 1230.89 220.887 1236.18 219.969C1241.46 219.05 1246.51 218.591 1251.33 218.591C1264.42 218.591 1274.13 221.576 1280.44 227.547C1286.76 233.404 1289.92 241.557 1289.92 252.006V303.852H1277.51V293.172C1270.28 302.014 1259.54 306.435 1245.31 306.435ZM1248.58 295.584C1254.78 295.584 1260.35 294.378 1265.29 291.967C1270.34 289.44 1274.13 285.938 1276.65 281.46V268.197C1272.18 265.556 1267.7 263.661 1263.22 262.513C1258.86 261.25 1253.92 260.618 1248.41 260.618C1240.6 260.618 1234.91 262.111 1231.35 265.097C1227.91 267.967 1226.19 272.388 1226.19 278.359C1226.19 289.842 1233.65 295.584 1248.58 295.584Z" fill="#F5F7F8"/>
<path d="M547.058 374.019H567.784V378.957H547.058V374.019ZM547.632 395.205H541.89V355.015H570.253V360.01H547.632V395.205ZM618.526 395.205V355.015H624.267V395.205H618.526ZM676.49 395.205V355.015H681.198L707.781 388.028H705.312V355.015H711.053V395.205H706.345L679.762 362.192H682.231V395.205H676.49ZM757.187 395.205L775.388 355.015H781.072L799.33 395.205H793.301L777.053 358.23H779.349L763.101 395.205H757.187ZM764.938 385.158L766.489 380.564H789.11L790.775 385.158H764.938ZM845.515 395.205V355.015H850.223L876.806 388.028H874.338V355.015H880.079V395.205H875.371L848.788 362.192H851.257V395.205H845.515ZM950.27 395.664C947.208 395.664 944.375 395.167 941.772 394.172C939.208 393.138 936.969 391.703 935.055 389.866C933.179 387.99 931.706 385.808 930.634 383.32C929.562 380.832 929.026 378.096 929.026 375.11C929.026 372.124 929.562 369.388 930.634 366.9C931.706 364.412 933.199 362.249 935.112 360.412C937.026 358.536 939.265 357.101 941.83 356.106C944.433 355.072 947.265 354.555 950.327 354.555C953.428 354.555 956.279 355.091 958.882 356.163C961.523 357.197 963.762 358.747 965.6 360.814L961.868 364.431C960.337 362.823 958.614 361.637 956.7 360.871C954.786 360.067 952.739 359.665 950.557 359.665C948.299 359.665 946.193 360.048 944.241 360.814C942.327 361.579 940.662 362.651 939.246 364.029C937.83 365.407 936.72 367.053 935.916 368.967C935.151 370.842 934.768 372.89 934.768 375.11C934.768 377.33 935.151 379.397 935.916 381.311C936.72 383.186 937.83 384.813 939.246 386.191C940.662 387.569 942.327 388.641 944.241 389.406C946.193 390.172 948.299 390.554 950.557 390.554C952.739 390.554 954.786 390.172 956.7 389.406C958.614 388.602 960.337 387.378 961.868 385.732L965.6 389.349C963.762 391.416 961.523 392.985 958.882 394.057C956.279 395.129 953.408 395.664 950.27 395.664ZM1019.21 372.354H1039.87V377.234H1019.21V372.354ZM1019.72 390.21H1043.15V395.205H1013.98V355.015H1042.34V360.01H1019.72V390.21Z" fill="#97A0B1"/>
<defs>
<linearGradient id="paint0_linear_7282_5611" x1="474.364" y1="422.118" x2="184.589" y2="460.345" gradientUnits="userSpaceOnUse">
<stop offset="0.181673" stop-color="#FF8F8F"/>
<stop offset="0.465531" stop-color="#FFA780"/>
<stop offset="0.554075" stop-color="#FFA780"/>
<stop offset="0.749726" stop-color="#FFD48F"/>
</linearGradient>
<linearGradient id="paint1_linear_7282_5611" x1="532.869" y1="384.606" x2="156.211" y2="478.373" gradientUnits="userSpaceOnUse">
<stop offset="0.181673" stop-color="#FF8F8F"/>
<stop offset="0.465531" stop-color="#FFA780"/>
<stop offset="0.554075" stop-color="#FFA780"/>
<stop offset="0.749726" stop-color="#FFD48F"/>
</linearGradient>
<linearGradient id="paint2_linear_7282_5611" x1="589.641" y1="292.041" x2="200.879" y2="550.743" gradientUnits="userSpaceOnUse">
<stop offset="0.181673" stop-color="#FF8F8F"/>
<stop offset="0.465531" stop-color="#FFA780"/>
<stop offset="0.554075" stop-color="#FFA780"/>
<stop offset="0.749726" stop-color="#FFD48F"/>
</linearGradient>
<linearGradient id="paint3_linear_7282_5611" x1="604.169" y1="183.426" x2="344.976" y2="601.094" gradientUnits="userSpaceOnUse">
<stop offset="0.181673" stop-color="#FF8F8F"/>
<stop offset="0.465531" stop-color="#FFA780"/>
<stop offset="0.554075" stop-color="#FFA780"/>
<stop offset="0.749726" stop-color="#FFD48F"/>
</linearGradient>
<linearGradient id="paint4_linear_7282_5611" x1="640.76" y1="185.032" x2="372.87" y2="632.65" gradientUnits="userSpaceOnUse">
<stop offset="0.181673" stop-color="#FF8F8F"/>
<stop offset="0.465531" stop-color="#FFA780"/>
<stop offset="0.554075" stop-color="#FFA780"/>
<stop offset="0.749726" stop-color="#FFD48F"/>
</linearGradient>
<clipPath id="clip0_7282_5611">
<rect width="314.128" height="314.13" fill="white" transform="translate(153.215 124.463)"/>
</clipPath>
</defs>
</svg>
