<svg width="48" height="45" viewBox="0 0 48 45" fill="none" xmlns="http://www.w3.org/2000/svg">
<circle cx="10" cy="10" r="10" fill="#E24CFF"/>
<path d="M27.0828 4.66027C26.8422 4.40443 26.4963 4.24768 26.1374 4.23006H26.1367L18.2682 3.81859C17.7835 3.79346 17.3709 4.16452 17.3451 4.64921C17.3194 5.13324 17.6922 5.54602 18.1758 5.57115L24.1986 5.88671L6.2261 18.599C5.83038 18.8794 5.73672 19.4267 6.01713 19.8224C6.29688 20.2187 6.84485 20.3123 7.24113 20.032L25.4484 7.15215L24.4141 13.3395C24.3339 13.8166 24.6571 14.2696 25.1352 14.3498C25.6129 14.43 26.066 14.1068 26.1461 13.6291L27.4451 5.85906V5.85727C27.458 5.77946 27.465 5.69977 27.4644 5.62018C27.4663 5.26318 27.3258 4.91377 27.0828 4.66027Z" fill="#343437"/>
<path d="M6.147 33.6504H2.04938C1.23806 33.6539 0.589406 34.3025 0.585938 35.1133V39.2091C0.5895 40.0204 1.23806 40.6683 2.04938 40.6719H6.147C6.95831 40.6684 7.60697 40.0204 7.61044 39.2091V35.1133C7.60697 34.3025 6.95831 33.654 6.147 33.6504ZM5.85431 38.9163H2.34216V35.4059H5.85431V38.9163Z" fill="#343437"/>
<path d="M16.0962 27.7988H11.9986C11.1873 27.8023 10.5386 28.451 10.5352 29.2617V39.2089C10.5386 40.0202 11.1873 40.6682 11.9986 40.6716H16.0962C16.907 40.6682 17.5562 40.0202 17.5597 39.2089V29.2617C17.5562 28.451 16.907 27.8024 16.0962 27.7988ZM15.8034 38.9161H12.2913V29.5543H15.8034V38.9161Z" fill="#343437"/>
<path d="M26.0493 21.3633H21.9517C21.1404 21.3668 20.4918 22.0154 20.4883 22.8261V39.2093C20.4918 40.0206 21.1404 40.6686 21.9517 40.672H26.0493C26.8601 40.6686 27.5093 40.0206 27.5128 39.2093V22.8261C27.5093 22.0153 26.8601 21.3661 26.0493 21.3633ZM25.7567 38.9166H22.2446V23.1188H25.7567V38.9166Z" fill="#343437"/>
<path d="M35.9986 14.3418H31.9009C31.0896 14.3453 30.441 14.9939 30.4375 15.8046V39.2093C30.4411 40.0211 31.0896 40.6691 31.9009 40.6727H35.9986C36.8093 40.6692 37.4585 40.0212 37.462 39.2099V15.8046C37.4585 14.9938 36.8093 14.3453 35.9986 14.3418ZM35.7059 38.9171H32.1937V23.1193H35.7059V38.9171ZM35.7059 21.3639H32.1937V16.0979H35.7059V21.3639Z" fill="#343437"/>
<path d="M45.9517 4.39453H41.8541C41.0427 4.398 40.3941 5.04666 40.3906 5.85731V39.2096C40.3941 40.021 41.0427 40.6689 41.8541 40.6725H45.9517C46.7624 40.669 47.4117 40.021 47.4151 39.2097V5.85731C47.4116 5.04656 46.7624 4.398 45.9517 4.39453ZM45.6589 38.9165H42.1467V16.0971H45.6589V38.9165ZM45.6589 14.3416H42.1467V6.15H45.6589V14.3416Z" fill="#343437"/>
<path d="M47.1219 42.4277H0.878063C0.393375 42.4277 0 42.8211 0 43.3051C0 43.7898 0.393375 44.1832 0.878063 44.1832H47.1219C47.6066 44.1832 48 43.7898 48 43.3051C48 42.8211 47.6066 42.4277 47.1219 42.4277Z" fill="#343437"/>
</svg>
