<svg width="50" height="50" viewBox="0 0 50 50" fill="none" xmlns="http://www.w3.org/2000/svg">
<circle cx="10" cy="10" r="10" fill="#28B86A"/>
<path d="M45.3874 10.5258C45.0683 10.0771 44.4455 9.9721 43.9968 10.2906C43.5475 10.6096 43.4431 11.2324 43.7616 11.6811C46.4344 15.4412 48.0057 20.0324 48.0063 24.9992C48.0056 31.3558 45.4333 37.1009 41.2681 41.2673C37.1024 45.4324 31.3574 48.0048 25.0007 48.0055C19.2848 48.0048 14.0662 45.919 10.0414 42.4719L14.0383 41.645C14.5781 41.5333 14.9244 41.0063 14.8127 40.4671C14.7009 39.9274 14.1739 39.5811 13.6347 39.6928L7.01101 41.0634L6.8947 47.8262C6.88474 48.3773 7.32409 48.8306 7.87517 48.8407C8.42556 48.8499 8.87956 48.4113 8.88884 47.8609L8.95261 44.1604C13.2937 47.8003 18.8933 50.0005 25.0007 49.9998C38.8087 49.9989 49.9997 38.8073 50.0004 24.9992C50.0004 19.6097 48.2914 14.6085 45.3874 10.5258Z" fill="#343437"/>
<path d="M42.1806 0.907715C41.6302 0.898438 41.1755 1.33711 41.1669 1.88818L41.099 5.87637C36.7512 2.21182 31.1303 0.000293127 24.9997 0.000976721C11.1918 0.00175797 0.000683818 11.1935 2.24071e-07 25.0001C-0.00068337 30.1549 1.56279 34.9535 4.23877 38.933C4.54658 39.3903 5.16602 39.5113 5.62275 39.2043C6.08008 38.8973 6.20108 38.2771 5.89404 37.8203C3.43135 34.1558 1.99482 29.7509 1.99482 25.0001C1.99551 18.6441 4.56787 12.899 8.73301 8.73262C12.8987 4.56826 18.6438 1.9959 25.0005 1.99512C30.6093 1.9958 35.7401 4.00186 39.7324 7.33535L36.0187 8.10371C35.4789 8.21465 35.1326 8.74248 35.2443 9.28164C35.3561 9.82139 35.8831 10.1677 36.4223 10.056L43.046 8.68535L43.161 1.92119C43.1703 1.371 42.7316 0.916992 42.1806 0.907715Z" fill="#343437"/>
<path d="M31.5498 16.9963C31.131 16.6387 30.5015 16.6892 30.1446 17.108L17.755 31.6445C17.3974 32.0633 17.4479 32.6928 17.8674 33.0503C18.2856 33.4066 18.915 33.3567 19.2726 32.9373L31.6621 18.4021C32.019 17.9826 31.9692 17.3539 31.5498 16.9963Z" fill="#343437"/>
<path d="M35.6613 34.9725C35.0159 35.3453 34.2787 35.5594 33.4857 35.5602C32.2806 35.5595 31.1979 35.0743 30.4062 34.2846C30.2007 34.0791 30.018 33.8531 29.8571 33.6111H34.3293C34.8797 33.6111 35.3264 33.1645 35.3264 32.6141C35.3264 32.063 34.8797 31.617 34.3293 31.617H29.1519C29.1392 31.4814 29.1312 31.3444 29.1312 31.2055C29.1312 31.0665 29.1397 30.929 29.1519 30.7934H34.3293C34.8797 30.7934 35.3264 30.3474 35.3264 29.7963C35.3264 29.2452 34.8797 28.7992 34.3293 28.7992H29.8571C30.018 28.5572 30.2015 28.3313 30.4062 28.1258C31.1972 27.3361 32.2801 26.851 33.4857 26.8503C34.2781 26.8503 35.0166 27.065 35.6613 27.4379C36.1379 27.7138 36.7481 27.5509 37.024 27.0743C37.2999 26.5978 37.1377 25.9875 36.661 25.7116H36.6604C35.7304 25.1726 34.6423 24.8555 33.4857 24.8555C30.8315 24.8562 28.5603 26.4859 27.6117 28.7985H27.0068C26.4558 28.7985 26.0098 29.2445 26.0098 29.7956C26.0098 30.3467 26.4558 30.7927 27.0068 30.7927H27.1577C27.1491 30.9296 27.137 31.0658 27.137 31.2048C27.137 31.3437 27.1497 31.48 27.1577 31.6162H27.0068C26.4558 31.6162 26.0098 32.0622 26.0098 32.6133C26.0098 33.1637 26.4558 33.6104 27.0068 33.6104H27.6117C28.5604 35.9229 30.8309 37.5534 33.4857 37.5534C34.6424 37.5534 35.7298 37.237 36.661 36.6973C37.1376 36.4214 37.2998 35.8112 37.024 35.3353C36.748 34.8595 36.138 34.6967 35.6613 34.9725Z" fill="#343437"/>
<path d="M19.1934 13.9805H20.976L17.2668 17.7061C16.6183 18.3543 15.7444 18.7177 14.834 18.7177C13.9235 18.7177 13.0496 18.3543 12.4011 17.7061L8.68989 13.9805H10.4746L13.2925 16.8096C13.7028 17.2204 14.2561 17.4508 14.8326 17.4508C15.4091 17.4508 15.9624 17.2204 16.3727 16.8096L19.1934 13.9805ZM10.4527 24.3394H8.66797L12.4018 20.5915C13.0503 19.9437 13.9239 19.5806 14.834 19.5806C15.7441 19.5806 16.6177 19.9437 17.2661 20.5915L21 24.3394H19.2153L16.3755 21.4859C15.9652 21.0751 15.4119 20.8447 14.8354 20.8447C14.2588 20.8447 13.7055 21.0751 13.2952 21.4859L10.4527 24.3394Z" fill="#343437" stroke="#343437" stroke-width="0.75" stroke-linejoin="round"/>
</svg>
