<svg width="50" height="50" viewBox="0 0 50 50" fill="none" xmlns="http://www.w3.org/2000/svg">
<circle cx="10" cy="10" r="10" fill="#FF198B"/>
<path d="M25.0013 14.167C21.9141 14.167 19.4141 16.6537 19.4141 19.7221C19.4141 22.7899 21.914 25.2782 25.0013 25.2782C28.0868 25.2782 30.588 22.7898 30.588 19.7221C30.588 16.6536 28.0868 14.167 25.0013 14.167ZM25.0013 23.6115C22.8451 23.6115 21.0907 21.8666 21.0907 19.7221C21.0907 17.5781 22.8452 15.8337 25.0013 15.8337C27.1574 15.8337 28.9112 17.5781 28.9112 19.7221C28.9113 21.8666 27.1574 23.6115 25.0013 23.6115Z" fill="#343437"/>
<path d="M32.2298 4.72266C29.7598 4.72266 27.7598 6.71211 27.7598 9.1665C27.7598 11.6214 29.7592 13.6114 32.2298 13.6114C34.6976 13.6114 36.6987 11.6214 36.6987 9.1665C36.6987 6.71211 34.6977 4.72266 32.2298 4.72266ZM32.2298 11.9448C30.6893 11.9448 29.4359 10.6981 29.4359 9.1665C29.4354 7.63535 30.6887 6.38926 32.2298 6.38926C33.7698 6.38926 35.0221 7.63535 35.0221 9.1665C35.0221 10.6981 33.7698 11.9448 32.2298 11.9448Z" fill="#343437"/>
<path d="M46.2438 25.9803C45.6916 25.9803 45.1822 26.1142 44.7294 26.3158C44.0433 25.4413 42.9771 24.8758 41.7749 24.8747C41.1532 24.8741 40.5821 25.0386 40.091 25.2842L38.5049 26.2181C37.8166 25.3997 36.7859 24.8753 35.6293 24.8747C35.0077 24.8741 34.4371 25.0386 33.9459 25.2842L28.237 28.758C26.8515 28.3502 20.8342 26.6529 19.6771 26.3625C19.0965 26.217 18.5898 26.0975 18.1749 26.0125C17.9672 25.9703 17.7827 25.9358 17.6188 25.9108C17.4526 25.8864 17.3143 25.8692 17.1576 25.8687C17.037 25.8692 16.9332 25.8804 16.8137 25.8942C16.381 25.9515 15.7653 26.0826 15.0393 26.2514C13.5554 26.5985 11.6609 27.1024 10.6148 27.3858V25.8336C10.6148 24.6114 9.60986 23.6113 8.38096 23.6113H2.23437C1.00615 23.6113 0 24.6113 0 25.8336V43.0559C0 44.278 1.00615 45.2781 2.23437 45.2781H8.37988C9.60937 45.2781 10.6138 44.2781 10.6138 43.0559V41.7187C11.9398 42.0059 14.8838 42.6381 17.9871 43.272C20.0859 43.7003 22.2555 44.1292 24.0466 44.4526C24.9427 44.6137 25.7449 44.7486 26.4005 44.8442C27.0621 44.9397 27.5561 44.9985 27.9321 45.0003C28.2249 44.9992 28.5016 44.9436 28.801 44.8625C29.3582 44.7064 29.9921 44.4414 30.7177 44.0908C33.2432 42.8663 36.8705 40.572 40.2921 38.3019C43.7076 36.0352 46.902 33.7958 48.4677 32.724C49.4487 32.0518 49.9999 30.9174 49.9999 29.7163C49.9988 27.6535 48.3194 25.9808 46.2438 25.9803ZM8.93887 43.0558C8.93887 43.3569 8.68271 43.6113 8.37998 43.6113H2.23437C1.93164 43.6113 1.67549 43.3569 1.67549 43.0558V25.8336C1.67549 25.5325 1.93164 25.278 2.23437 25.278H8.37988C8.68262 25.278 8.93877 25.5325 8.93877 25.8336V43.0558H8.93887ZM47.5194 31.3513C45.5938 32.6702 41.286 35.6951 37.1161 38.3879C35.0333 39.7335 32.9839 40.9951 31.3039 41.9102C30.465 42.3674 29.7167 42.7374 29.1178 42.9841C28.8189 43.108 28.5572 43.2002 28.35 43.2574C28.1438 43.3157 27.989 43.3352 27.9322 43.3341C27.7494 43.3358 27.2656 43.2875 26.6444 43.1957C24.4428 42.8752 20.3228 42.0568 16.7755 41.3213C15.0005 40.9529 13.3645 40.6058 12.1727 40.3496C11.4805 40.2013 10.9454 40.0852 10.6132 40.0135V29.1141C10.7765 29.0696 10.9915 29.0112 11.2493 28.9413C12.1327 28.703 13.481 28.3457 14.6898 28.0497C15.2932 27.9014 15.8637 27.7692 16.3171 27.6753C16.5432 27.6287 16.7398 27.5919 16.8915 27.5681C17.0403 27.5431 17.1554 27.5348 17.1565 27.5358C17.1599 27.5353 17.2477 27.5408 17.3671 27.5592C17.8293 27.628 18.7776 27.8485 19.9321 28.1497C23.4122 29.053 28.8993 30.6869 31.116 31.3569C31.8827 31.5869 32.5776 31.9336 33.0327 32.3542C33.2621 32.5643 33.4338 32.7887 33.5494 33.0315C33.6655 33.2753 33.7305 33.5398 33.7316 33.862C33.7311 34.5158 33.4678 35.1004 33.0366 35.5298C32.6089 35.9536 32.0277 36.2137 31.3783 36.2192L29.2167 36.0086L21.8367 35.0669C21.3773 35.0086 20.9567 35.3308 20.8983 35.7869C20.84 36.2437 21.1645 36.6614 21.6233 36.7197L29.0272 37.6647L31.3189 37.888H31.3601C33.5951 37.8869 35.4073 36.0858 35.4084 33.8624C35.4095 33.3023 35.2845 32.7774 35.064 32.3163C34.7317 31.6225 34.1968 31.0852 33.5929 30.6763C32.9862 30.2663 32.3018 29.9741 31.604 29.763C31.2696 29.6618 30.8584 29.538 30.3946 29.3996L34.7124 26.769C35.0074 26.624 35.3097 26.5424 35.6291 26.5418C36.1708 26.5412 36.6596 26.7501 37.0297 27.088L34.7825 28.413C34.3847 28.6475 34.2536 29.1591 34.4897 29.5552C34.7265 29.9507 35.2403 30.0813 35.6381 29.8463L40.8531 26.7707C41.1498 26.624 41.4537 26.5424 41.7748 26.5418C42.3531 26.5412 42.873 26.7807 43.2492 27.1607L37.1765 30.7425C36.7781 30.977 36.647 31.4886 36.8837 31.8847C37.1198 32.2802 37.6337 32.4107 38.0314 32.1758L45.323 27.8753C45.6191 27.7303 45.9225 27.648 46.2431 27.6475C46.8191 27.648 47.3348 27.8774 47.7131 28.2541C48.0908 28.6314 48.3226 29.1436 48.3231 29.7175C48.3238 30.4147 48.0016 31.0246 47.5194 31.3513Z" fill="#343437"/>
</svg>
