<svg width="48" height="48" viewBox="0 0 48 48" fill="none" xmlns="http://www.w3.org/2000/svg">
<g clip-path="url(#clip0_1952_16940)">
<path d="M10 22C15.5228 22 20 17.5228 20 12C20 6.47715 15.5228 2 10 2C4.47715 2 0 6.47715 0 12C0 17.5228 4.47715 22 10 22Z" fill="#E24CFF"/>
<mask id="mask0_1952_16940" style="mask-type:luminance" maskUnits="userSpaceOnUse" x="0" y="0" width="48" height="48">
<path d="M48 0H0V48H48V0Z" fill="white"/>
</mask>
<g mask="url(#mask0_1952_16940)">
<path d="M32 24.314V18H25.686" stroke="#343437" stroke-width="2" stroke-linecap="round" stroke-linejoin="round"/>
<path d="M38 12L40 10" stroke="#343437" stroke-width="2" stroke-linecap="round" stroke-linejoin="round"/>
<path d="M24 10H10C7.79 10 6 11.79 6 14V38C6 40.21 7.79 42 10 42H36C38.21 42 40 40.21 40 38V28" stroke="#343437" stroke-width="2" stroke-linecap="round" stroke-linejoin="round"/>
<path d="M40 18H42.82" stroke="#343437" stroke-width="2" stroke-linecap="round" stroke-linejoin="round"/>
<path d="M32 9.99969V7.17969" stroke="#343437" stroke-width="2" stroke-linecap="round" stroke-linejoin="round"/>
<path d="M6 27.24C22 30.834 29.5 20.5 29.5 20.5" stroke="#343437" stroke-width="2" stroke-linecap="round" stroke-linejoin="round"/>
</g>
</g>
<defs>
<clipPath id="clip0_1952_16940">
<rect width="48" height="48" fill="white"/>
</clipPath>
</defs>
</svg>
