<svg width="24" height="18" viewBox="0 0 24 18" fill="none" xmlns="http://www.w3.org/2000/svg">
<path d="M5.48196 1.11724H5.91556V1.37577e-06H5.48196C5.02225 -0.000406818 4.56697 0.0900231 4.14217 0.266117C3.71737 0.44221 3.3314 0.700511 3.00633 1.02624C2.68127 1.35196 2.42349 1.73872 2.24775 2.16438C2.07202 2.59004 1.98177 3.04625 1.98218 3.5069V6.05172C1.98311 6.59056 1.77831 7.10935 1.40975 7.50174C1.0412 7.89412 0.536816 8.13037 0 8.16207L0.0309715 8.72069L0 9.27931C0.536816 9.31101 1.0412 9.54726 1.40975 9.93965C1.77831 10.332 1.98311 10.8508 1.98218 11.3897V14.3224C1.98053 15.2956 2.36455 16.2296 3.04984 16.9192C3.73513 17.6088 4.66562 17.9975 5.63682 18V16.8828C4.96338 16.8823 4.31765 16.6141 3.84146 16.1369C3.36527 15.6598 3.09756 15.0127 3.09715 14.3379V11.3897C3.09762 10.8633 2.96943 10.3448 2.72377 9.87958C2.47812 9.41432 2.12248 9.01643 1.68795 8.72069C2.12124 8.42369 2.47594 8.02554 2.72144 7.56057C2.96695 7.0956 3.09589 6.57776 3.09715 6.05172V3.5069C3.1 2.874 3.35218 2.26784 3.7988 1.82031C4.24542 1.37278 4.85035 1.1201 5.48196 1.11724Z" fill="#F5F5F7"/>
<path d="M18.367 1.11724H17.9334V0H18.367C19.293 0.00246637 20.1802 0.373229 20.8335 1.03081C21.4868 1.68839 21.8529 2.57899 21.8513 3.5069V6.05172C21.8503 6.59056 22.0551 7.10935 22.4237 7.50173C22.7923 7.89412 23.2966 8.13037 23.8335 8.16207L23.8025 8.72069L23.8335 9.27931C23.2966 9.31101 22.7923 9.54726 22.4237 9.93964C22.0551 10.332 21.8503 10.8508 21.8513 11.3897V14.3224C21.8529 15.2956 21.4689 16.2296 20.7836 16.9192C20.0983 17.6088 19.1678 17.9975 18.1966 18V16.8828C18.8701 16.8823 19.5158 16.6141 19.992 16.1369C20.4682 15.6598 20.7359 15.0127 20.7363 14.3379V11.3897C20.7358 10.8633 20.864 10.3448 21.1097 9.87958C21.3553 9.41432 21.711 9.01643 22.1455 8.72069C21.7122 8.42369 21.3575 8.02554 21.112 7.56057C20.8665 7.0956 20.7376 6.57776 20.7363 6.05172V3.5069C20.7379 3.19393 20.6779 2.88372 20.5596 2.59407C20.4413 2.30442 20.2671 2.04102 20.0469 1.819C19.8268 1.59698 19.5651 1.4207 19.2768 1.30027C18.9885 1.17985 18.6793 1.11765 18.367 1.11724Z" fill="#F5F5F7"/>
<path fill-rule="evenodd" clip-rule="evenodd" d="M17.6816 4.27026H16.1087L13.6227 6.73386C12.8724 7.47734 11.6561 7.47734 10.9058 6.73386L8.41986 4.27026H6.84696L10.1194 7.51323C11.304 8.68714 13.2245 8.68714 14.4091 7.51323L17.6816 4.27026ZM6.8269 13.2882H8.39981L10.906 10.8046C11.6562 10.0611 12.8726 10.0611 13.6228 10.8046L16.129 13.2882H17.702L14.4093 10.0252C13.2247 8.85132 11.3041 8.85132 10.1196 10.0252L6.8269 13.2882Z" fill="white"/>
</svg>
