<svg width="262" height="40" viewBox="0 0 262 40" fill="none" xmlns="http://www.w3.org/2000/svg">
<g clip-path="url(#clip0_1117_2078)">
<path d="M20 0C8.97192 0 0 8.97192 0 20C0 31.0281 8.97192 40 20 40C31.0281 40 40 31.0281 40 20C40 8.97192 31.0281 0 20 0ZM32.527 7.61396L33.7162 6.3649C36.05 8.71143 37.7858 11.6515 38.6783 14.9375L36.9916 15.3454C36.3062 15.5098 35.4585 15.1468 35.1062 14.5361L32.2857 9.6509C31.9334 9.04025 32.0423 8.12427 32.527 7.61396ZM20 0.651222C21.7124 0.651222 23.3714 0.875414 24.9536 1.2939L24.4625 2.95933C24.2639 3.63403 23.5251 4.18704 22.8205 4.18704H17.1795C16.4749 4.18704 15.7361 3.63403 15.5375 2.95933L15.0464 1.2939C16.6286 0.875414 18.2897 0.651222 20 0.651222ZM6.28376 6.3649L7.47304 7.61396C7.95772 8.12427 8.06662 9.04025 7.71432 9.6509L4.89378 14.5361C4.54148 15.1447 3.69382 15.5098 3.01057 15.3454L1.32166 14.9375C2.21416 11.6537 3.95004 8.71143 6.28376 6.3649ZM7.47304 32.386L6.28376 33.6372C3.95004 31.2886 2.21416 28.3485 1.32166 25.0646L3.01057 24.6568C3.69595 24.4924 4.54361 24.8575 4.89378 25.466L7.71432 30.3512C8.06662 30.9598 7.95772 31.8757 7.47304 32.3882V32.386ZM20 39.3488C18.2876 39.3488 16.6286 39.1246 15.0464 38.7061L15.5375 37.0407C15.7361 36.366 16.4749 35.813 17.1795 35.813H22.8205C23.5251 35.813 24.2639 36.366 24.4625 37.0407L24.9536 38.7061C23.3714 39.1246 21.7124 39.3488 20 39.3488ZM20 34.4998C11.991 34.4998 5.50016 28.0068 5.50016 20C5.50016 11.9932 11.991 5.50016 20 5.50016C28.009 5.50016 34.4998 11.991 34.4998 20C34.4998 28.009 28.0068 34.4998 20 34.4998ZM33.7162 33.6351L32.527 32.386C32.0423 31.8757 31.9312 30.9598 32.2835 30.3491L35.1041 25.4639C35.4564 24.8553 36.304 24.4902 36.9873 24.6546L38.6762 25.0625C37.7837 28.3485 36.0478 31.2886 33.7141 33.6351H33.7162Z" fill="black"/>
<path d="M19.9998 6.69141C12.6506 6.69141 6.69141 12.6506 6.69141 19.9998C6.69141 27.349 12.6506 33.3104 19.9998 33.3104C27.349 33.3104 33.3083 27.3512 33.3083 19.9998C33.3083 12.6485 27.349 6.69141 19.9998 6.69141ZM27.5348 26.2644C27.4473 26.4224 27.2316 26.5249 27.0544 26.4907L21.0226 25.3228C20.8454 25.2865 20.7856 25.3804 20.8859 25.532L24.0694 30.1632C24.1741 30.3126 24.1079 30.4343 23.9285 30.4343H16.0968C15.9174 30.4343 15.8512 30.3148 15.9537 30.1632L19.1372 25.532C19.2397 25.3804 19.1757 25.2865 19.0006 25.3228L13.0734 26.4694C12.8962 26.5014 12.6741 26.401 12.5844 26.2473L10.1973 22.1329C10.1077 21.977 10.1247 21.7336 10.2379 21.5905L19.8034 9.66781C19.9166 9.52903 20.1002 9.52903 20.2155 9.66781L29.7554 21.5542C29.8685 21.6994 29.8899 21.9428 29.8045 22.103L27.5348 26.2644Z" fill="black"/>
</g>
<defs>
<clipPath id="clip0_1117_2078">
<rect width="40" height="40" fill="white"/>
</clipPath>
</defs>
</svg>
