<svg width="48" height="45" viewBox="0 0 48 45" fill="none" xmlns="http://www.w3.org/2000/svg">
<circle cx="10" cy="10" r="10" fill="#E24CFF"/>
<path d="M27.0828 4.65979C26.8422 4.40394 26.4963 4.24719 26.1374 4.22957H26.1367L18.2682 3.8181C17.7835 3.79297 17.3709 4.16404 17.3451 4.64872C17.3194 5.13275 17.6922 5.54554 18.1758 5.57066L24.1986 5.88622L6.2261 18.5985C5.83038 18.8789 5.73672 19.4263 6.01713 19.8219C6.29688 20.2182 6.84485 20.3118 7.24113 20.0315L25.4484 7.15166L24.4141 13.339C24.3339 13.8161 24.6571 14.2691 25.1352 14.3493C25.6129 14.4295 26.066 14.1063 26.1461 13.6287L27.4451 5.85857V5.85679C27.458 5.77897 27.465 5.69929 27.4644 5.61969C27.4663 5.26269 27.3258 4.91329 27.0828 4.65979Z" fill="white"/>
<path d="M6.147 33.6504H2.04938C1.23806 33.6539 0.589406 34.3025 0.585938 35.1133V39.2091C0.5895 40.0204 1.23806 40.6683 2.04938 40.6719H6.147C6.95831 40.6684 7.60697 40.0204 7.61044 39.2091V35.1133C7.60697 34.3025 6.95831 33.654 6.147 33.6504ZM5.85431 38.9163H2.34216V35.4059H5.85431V38.9163Z" fill="white"/>
<path d="M16.0962 27.7993H11.9986C11.1873 27.8028 10.5386 28.4514 10.5352 29.2622V39.2093C10.5386 40.0207 11.1873 40.6687 11.9986 40.6721H16.0962C16.907 40.6687 17.5562 40.0207 17.5597 39.2093V29.2622C17.5562 28.4514 16.907 27.8029 16.0962 27.7993ZM15.8034 38.9166H12.2913V29.5548H15.8034V38.9166Z" fill="white"/>
<path d="M26.0493 21.3633H21.9517C21.1404 21.3668 20.4918 22.0154 20.4883 22.8261V39.2093C20.4918 40.0206 21.1404 40.6686 21.9517 40.672H26.0493C26.8601 40.6686 27.5093 40.0206 27.5128 39.2093V22.8261C27.5093 22.0153 26.8601 21.3661 26.0493 21.3633ZM25.7568 38.9166H22.2446V23.1188H25.7568V38.9166Z" fill="white"/>
<path d="M35.9986 14.3413H31.9009C31.0896 14.3448 30.441 14.9934 30.4375 15.8041V39.2088C30.4411 40.0206 31.0896 40.6686 31.9009 40.6722H35.9986C36.8093 40.6687 37.4585 40.0207 37.462 39.2094V15.8041C37.4585 14.9933 36.8093 14.3448 35.9986 14.3413ZM35.7059 38.9166H32.1937V23.1188H35.7059V38.9166ZM35.7059 21.3634H32.1937V16.0974H35.7059V21.3634Z" fill="white"/>
<path d="M45.9517 4.39404H41.8541C41.0427 4.39751 40.3941 5.04617 40.3906 5.85682V39.2091C40.3941 40.0205 41.0427 40.6684 41.8541 40.672H45.9517C46.7624 40.6685 47.4117 40.0205 47.4151 39.2092V5.85682C47.4116 5.04607 46.7624 4.39751 45.9517 4.39404ZM45.6589 38.916H42.1467V16.0966H45.6589V38.916ZM45.6589 14.3411H42.1467V6.14951H45.6589V14.3411Z" fill="white"/>
<path d="M47.1219 42.4277H0.878062C0.393375 42.4277 0 42.8211 0 43.3051C0 43.7898 0.393375 44.1832 0.878062 44.1832H47.1219C47.6066 44.1832 48 43.7898 48 43.3051C48 42.8211 47.6066 42.4277 47.1219 42.4277Z" fill="white"/>
</svg>
