<svg width="47" height="48" viewBox="0 0 47 48" fill="none" xmlns="http://www.w3.org/2000/svg">
<circle cx="10" cy="10" r="10" fill="#9A52FF"/>
<path d="M46.5591 38.2668C46.5105 37.78 46.0757 37.4249 45.5889 37.4735L42.2299 37.8114C44.4499 34.3602 45.743 30.2522 45.7425 25.8464C45.7407 15.5444 38.712 6.8847 29.1839 4.4066C28.7095 4.28369 28.2264 4.56728 28.1029 5.041C27.98 5.51472 28.2636 5.99857 28.7374 6.12204C37.4981 8.40167 43.9721 16.3697 43.9704 25.847C43.9697 29.9402 42.7611 33.7429 40.6853 36.9352L39.5665 33.5769C39.4117 33.1126 38.9101 32.8616 38.4463 33.0163C37.9814 33.1711 37.731 33.6727 37.8858 34.1369L39.785 39.8387L45.7663 39.2374C46.253 39.1884 46.6081 38.7542 46.5591 38.2668Z" fill="#343437"/>
<path d="M27.7195 25.5519H23.8797V20.5307C23.8797 20.0416 23.4826 19.6445 22.9935 19.6445C22.5045 19.6445 22.1074 20.0409 22.1074 20.5307V26.438C22.1074 26.6714 22.2019 26.8994 22.3667 27.0649C22.5315 27.2302 22.7601 27.3242 22.9935 27.3242H27.7195C28.2086 27.3242 28.6056 26.9278 28.6056 26.438C28.6056 25.9482 28.2086 25.5519 27.7195 25.5519Z" fill="#343437"/>
<path d="M23.589 15.5088C17.879 15.5094 13.2515 20.1367 13.251 25.8468C13.2516 31.557 17.8789 36.1843 23.589 36.1848C29.2991 36.1842 33.9264 31.557 33.927 25.8468C33.9263 20.1367 29.2991 15.5094 23.589 15.5088ZM29.6459 31.9036C28.0928 33.4548 25.9573 34.4118 23.589 34.4124C21.2207 34.4117 19.0851 33.4548 17.5321 31.9036C15.9801 30.3505 15.0238 28.2149 15.0232 25.8466C15.0239 23.4783 15.9802 21.3422 17.5321 19.7897C19.0851 18.2384 21.2207 17.2815 23.589 17.2809C25.9573 17.2815 28.0928 18.2384 29.6459 19.7897C31.1978 21.3421 32.1542 23.4783 32.1548 25.8466C32.1541 28.2149 31.1978 30.3505 29.6459 31.9036Z" fill="#343437"/>
<path d="M38.4336 41.1021C38.1074 40.7372 37.5473 40.7064 37.1822 41.0331C33.5733 44.2645 28.8149 46.2269 23.5897 46.2275C15.8516 46.2282 9.1266 41.9134 5.67425 35.561L9.4296 35.8063C9.91757 35.8383 10.3393 35.4684 10.3712 34.9798C10.4037 34.4918 10.0334 34.0695 9.54538 34.0375L3.54818 33.6465L1.8498 39.4133C1.71161 39.8824 1.97974 40.375 2.44943 40.5139C2.91846 40.652 3.41112 40.3839 3.54931 39.9142L4.42718 36.9339C8.2581 43.5449 15.3985 47.9998 23.5898 48.0003C29.2633 48.0009 34.4466 45.8641 38.3649 42.3533C38.7295 42.0266 38.7602 41.4666 38.4336 41.1021Z" fill="#343437"/>
<path d="M22.0177 0.260886C21.6727 -0.0858963 21.1121 -0.0870213 20.7647 0.257886C20.4179 0.602886 20.4167 1.16407 20.7624 1.51086H20.7617L22.9511 3.71014C11.0133 4.04989 1.43913 13.8262 1.43848 25.8466C1.43848 27.6785 1.66113 29.4601 2.08188 31.1645C2.19823 31.6401 2.67851 31.9301 3.15345 31.8132C3.62904 31.6962 3.91911 31.216 3.80211 30.7409C3.41576 29.1732 3.21073 27.5351 3.21073 25.8466C3.21139 20.2163 5.49036 15.1264 9.17962 11.4354C12.8629 7.75331 17.9403 5.47668 23.5571 5.46655L21.5386 8.64112C21.2756 9.054 21.398 9.60169 21.8104 9.86456C22.2233 10.1275 22.7716 10.0052 23.0338 9.59278L26.2587 4.52183L22.0177 0.260886Z" fill="#343437"/>
</svg>
