<svg width="50" height="48" viewBox="0 0 50 48" fill="none" xmlns="http://www.w3.org/2000/svg">
<circle cx="10" cy="10" r="10" fill="#19A3FF"/>
<path d="M5.88232 19.4121C2.63477 19.4121 0 22.0457 0 25.2944C0 28.5427 2.63477 31.1768 5.88232 31.1768C9.13115 31.1768 11.7646 28.5427 11.7646 25.2944C11.7646 22.0456 9.13115 19.4121 5.88232 19.4121ZM5.88232 29.4121C3.6123 29.4121 1.76465 27.5644 1.76465 25.2944C1.76465 23.0243 3.6123 21.1768 5.88232 21.1768C8.15234 21.1768 10 23.0244 10 25.2944C10 27.5644 8.15234 29.4121 5.88232 29.4121Z" fill="#343437"/>
<path d="M34.1178 2.35254C30.8689 2.35254 28.2354 4.98604 28.2354 8.23486C28.2354 11.4831 30.8689 14.1172 34.1178 14.1172C37.3666 14.1172 40.0001 11.4831 40.0001 8.23486C40.0002 4.98604 37.3667 2.35254 34.1178 2.35254ZM34.1178 12.3526C31.8478 12.3526 30.0001 10.505 30.0001 8.23496C30.0001 5.96484 31.8478 4.11729 34.1178 4.11729C36.3878 4.11729 38.2354 5.96494 38.2354 8.23496C38.2355 10.5051 36.3879 12.3526 34.1178 12.3526Z" fill="#343437"/>
<path d="M34.7056 35.2939C31.4579 35.2939 28.8232 37.9274 28.8232 41.1763C28.8232 44.4245 31.458 47.0586 34.7056 47.0586C37.9544 47.0586 40.5879 44.4245 40.5879 41.1763C40.5879 37.9275 37.9544 35.2939 34.7056 35.2939ZM34.7056 45.2939C32.4355 45.2939 30.5879 43.4463 30.5879 41.1763C30.5879 38.9063 32.4355 37.0586 34.7056 37.0586C36.9756 37.0586 38.8232 38.9063 38.8232 41.1763C38.8231 43.4462 36.9755 45.2939 34.7056 45.2939Z" fill="#343437"/>
<path d="M44.1175 18.8232C41.1692 18.8232 38.7351 20.9944 38.3086 23.8232H32.2974C31.8597 20.0162 28.6303 17.0585 24.7056 17.0585C23.4015 17.0585 22.1744 17.3867 21.1003 17.962L18.1303 13.0114C19.6162 11.9437 20.5879 10.2044 20.5879 8.23486C20.5879 4.98662 17.9544 2.35254 14.7056 2.35254C11.4579 2.35254 8.82324 4.98662 8.82324 8.23486C8.82324 11.4825 11.458 14.1172 14.7056 14.1172C15.3526 14.1172 15.9726 14.009 16.5556 13.816L19.6521 18.9767C18.0649 20.3784 17.0585 22.4219 17.0585 24.7056C17.0585 27.282 18.3361 29.555 20.2891 30.9408L17.1432 36.1832C16.5607 35.9903 15.9408 35.882 15.2938 35.882C12.0461 35.882 9.41143 38.5161 9.41143 41.7644C9.41143 45.012 12.0462 47.6467 15.2938 47.6467C18.5426 47.6467 21.1761 45.0119 21.1761 41.7644C21.1761 39.7943 20.2043 38.055 18.7185 36.9878L21.8367 31.7907C22.7226 32.1501 23.6896 32.3525 24.7056 32.3525C28.6303 32.3525 31.8597 29.3949 32.2974 25.5878H38.3086C38.7351 28.4166 41.1692 30.5878 44.1175 30.5878C47.3663 30.5878 49.9998 27.953 49.9998 24.7055C49.9998 21.4573 47.3663 18.8232 44.1175 18.8232ZM14.7058 12.3526C12.4356 12.3526 10.5881 10.5049 10.5881 8.23496C10.5881 5.96504 12.4357 4.11729 14.7058 4.11729C16.9759 4.11729 18.8234 5.96494 18.8234 8.23496C18.8234 10.505 16.9759 12.3526 14.7058 12.3526ZM19.4117 41.7644C19.4116 44.0345 17.564 45.882 15.294 45.882C13.0241 45.882 11.1764 44.0344 11.1764 41.7644C11.1764 39.4943 13.024 37.6467 15.294 37.6467C17.5641 37.6467 19.4117 39.4942 19.4117 41.7644ZM24.7057 30.5879C21.4621 30.5879 18.8233 27.949 18.8233 24.7056C18.8233 21.4621 21.4622 18.8232 24.7057 18.8232C27.9491 18.8232 30.588 21.4621 30.588 24.7056C30.588 27.949 27.9493 30.5879 24.7057 30.5879ZM44.1175 28.8232C41.8475 28.8232 39.9998 26.9756 39.9998 24.7056C39.9998 22.4354 41.8475 20.5879 44.1175 20.5879C46.3875 20.5879 48.2352 22.4355 48.2352 24.7056C48.2352 26.9757 46.3874 28.8232 44.1175 28.8232Z" fill="#343437"/>
</svg>
