<svg width="1306" height="293" viewBox="0 0 1306 293" fill="none" xmlns="http://www.w3.org/2000/svg">
<g opacity="0.95">
<g opacity="0.1">
<path d="M1295.34 230.631H1302.9L1287.18 246.479C1281.49 252.22 1272.27 252.22 1266.58 246.479L1250.85 230.631H1258.4L1270.35 242.671C1273.95 246.299 1279.79 246.299 1283.4 242.671L1295.34 230.631Z" stroke="url(#paint0_linear)" stroke-width="2" stroke-miterlimit="10"/>
<path d="M1258.31 274.693H1250.75L1266.57 258.736C1272.26 252.996 1281.49 252.996 1287.18 258.736L1303 274.675H1295.44L1283.41 262.545C1279.8 258.916 1273.97 258.916 1270.36 262.545L1258.31 274.693Z" stroke="url(#paint1_linear)" stroke-width="2" stroke-miterlimit="10"/>
</g>
<g opacity="0.2">
<path d="M1243.91 210.255H1253.65L1233.38 230.688C1226.05 238.089 1214.16 238.089 1206.84 230.688L1186.57 210.255H1196.31L1211.69 225.778C1216.33 230.453 1223.87 230.453 1228.51 225.778L1243.91 210.255Z" stroke="url(#paint2_linear)" stroke-width="2" stroke-miterlimit="10"/>
<path d="M1196.2 267.042H1186.47L1206.86 246.482C1214.2 239.081 1226.08 239.081 1233.41 246.482L1253.79 267.024H1244.06L1228.55 251.374C1223.91 246.699 1216.37 246.699 1211.73 251.374L1196.2 267.042Z" stroke="url(#paint3_linear)" stroke-width="2" stroke-miterlimit="10"/>
</g>
<g opacity="0.3">
<path d="M1192.53 189.878H1204.45L1179.66 214.878C1170.69 223.921 1156.14 223.921 1147.15 214.878L1122.36 189.878H1134.28L1153.13 208.867C1158.82 214.589 1168.03 214.589 1173.72 208.867L1192.53 189.878Z" stroke="url(#paint4_linear)" stroke-width="2" stroke-miterlimit="10"/>
<path d="M1134.12 259.39H1122.19L1147.15 234.228C1156.12 225.185 1170.67 225.185 1179.66 234.228L1204.61 259.372H1192.69L1173.7 240.221C1168.01 234.499 1158.8 234.499 1153.11 240.221L1134.12 259.39Z" stroke="url(#paint5_linear)" stroke-width="2" stroke-miterlimit="10"/>
</g>
<g opacity="0.4">
<path d="M1141.11 169.501H1155.21L1125.87 199.068C1115.25 209.772 1098.04 209.772 1087.42 199.068L1058.09 169.501H1072.19L1094.48 191.974C1101.21 198.761 1112.12 198.761 1118.84 191.974L1141.11 169.501Z" stroke="url(#paint6_linear)" stroke-width="2" stroke-miterlimit="10"/>
<path d="M1071.79 251.527H1057.69L1087.19 221.762C1097.81 211.058 1115.03 211.058 1125.65 221.762L1155.17 251.509H1141.07L1118.6 228.856C1111.87 222.069 1100.96 222.069 1094.24 228.856L1071.79 251.527Z" stroke="url(#paint7_linear)" stroke-width="2" stroke-miterlimit="10"/>
</g>
<g opacity="0.5">
<path d="M1089.7 149.124H1105.97L1072.1 183.275C1059.83 195.64 1039.97 195.64 1027.7 183.275L993.832 149.124H1010.11L1035.84 175.062C1043.61 182.896 1056.19 182.896 1063.97 175.062L1089.7 149.124Z" stroke="url(#paint8_linear)" stroke-width="2" stroke-miterlimit="10"/>
<path d="M1009.92 244.087H993.65L1027.72 209.719C1039.99 197.355 1059.85 197.355 1072.12 209.719L1106.21 244.069H1089.94L1063.98 217.914C1056.21 210.08 1043.63 210.08 1035.86 217.914L1009.92 244.087Z" stroke="url(#paint9_linear)" stroke-width="2" stroke-miterlimit="10"/>
</g>
<g opacity="0.6">
<path d="M1038.3 128.747H1056.77L1018.37 167.483C1004.47 181.509 981.922 181.509 968.022 167.483L929.603 128.765H948.069L977.247 158.187C986.054 167.068 1000.33 167.068 1009.14 158.187L1038.3 128.747Z" stroke="url(#paint10_linear)" stroke-width="2" stroke-miterlimit="10"/>
<path d="M947.814 236.436H929.347L967.984 197.465C981.884 183.44 1004.43 183.44 1018.33 197.465L1056.98 236.418H1038.52L1009.1 206.761C1000.3 197.88 986.016 197.88 977.208 206.761L947.814 236.436Z" stroke="url(#paint11_linear)" stroke-width="2" stroke-miterlimit="10"/>
</g>
<g opacity="0.7">
<path d="M986.891 108.37H1007.53L964.582 151.673C949.033 167.341 923.825 167.359 908.276 151.673L865.325 108.37H885.967L918.587 141.258C928.428 151.186 944.394 151.186 954.234 141.258L986.891 108.37Z" stroke="url(#paint12_linear)" stroke-width="2" stroke-miterlimit="10"/>
<path d="M885.732 228.785H865.091L908.295 185.211C923.844 169.543 949.053 169.525 964.602 185.211L1007.82 228.767H987.182L954.29 195.608C944.449 185.68 928.483 185.68 918.643 195.608L885.732 228.785Z" stroke="url(#paint13_linear)" stroke-width="2" stroke-miterlimit="10"/>
</g>
<g opacity="0.8">
<path d="M935.475 87.9925H958.291L910.81 135.863C893.63 153.191 865.757 153.191 848.559 135.863L801.078 87.9925H823.894L859.976 124.364C870.868 135.339 888.519 135.339 899.393 124.364L935.475 87.9925Z" stroke="url(#paint14_linear)" stroke-width="2" stroke-miterlimit="10"/>
<path d="M823.639 221.133H800.822L848.593 172.956C865.773 155.628 893.646 155.628 910.844 172.956L958.633 221.115H935.817L899.445 184.454C888.554 173.48 870.902 173.48 860.029 184.454L823.639 221.133Z" stroke="url(#paint15_linear)" stroke-width="2" stroke-miterlimit="10"/>
</g>
<g opacity="0.9">
<path d="M884.08 67.6158H909.089L857.077 120.071C838.248 139.06 807.712 139.06 788.882 120.071L736.853 67.6339H761.862L801.387 107.471C813.311 119.493 832.648 119.493 844.573 107.471L884.08 67.6158Z" stroke="url(#paint16_linear)" stroke-width="2" stroke-miterlimit="10"/>
<path d="M761.536 213.483H736.527L788.865 160.703C807.695 141.714 838.231 141.714 857.06 160.703L909.416 213.465H884.407L844.556 173.302C832.631 161.28 813.294 161.28 801.37 173.302L761.536 213.483Z" stroke="url(#paint17_linear)" stroke-width="2" stroke-miterlimit="10"/>
</g>
<path d="M832.663 47.2385H859.847L803.287 104.26C782.808 124.91 749.626 124.91 729.147 104.26L672.587 47.2566H699.771L742.739 90.5779C755.715 103.647 776.737 103.647 789.695 90.5779L832.663 47.2385Z" stroke="url(#paint18_linear)" stroke-width="2" stroke-miterlimit="10"/>
<path d="M699.448 205.813H672.265L729.169 148.43C749.648 127.78 782.83 127.78 803.309 148.43L860.213 205.794H833.03L789.717 162.13C776.741 149.062 755.719 149.062 742.761 162.13L699.448 205.813Z" stroke="url(#paint19_linear)" stroke-width="2" stroke-miterlimit="10"/>
<path d="M781.257 25.0562H810.633L749.542 86.6628C727.433 108.955 691.568 108.973 669.459 86.6628L608.35 25.0742H637.708L684.12 71.8613C698.129 85.9768 720.836 85.9768 734.845 71.8613L781.257 25.0562Z" stroke="url(#paint20_linear)" stroke-width="2" stroke-miterlimit="10"/>
<path d="M637.345 196.356H607.986L669.458 134.371C691.568 112.078 727.432 112.06 749.542 134.371L811.013 196.338H781.655L734.862 149.172C720.854 135.056 698.146 135.056 684.137 149.172L637.345 196.356Z" stroke="url(#paint21_linear)" stroke-width="2" stroke-miterlimit="10"/>
<g opacity="0.1">
<path d="M10.6567 247.185H3.10348L18.8077 263.034C24.4953 268.774 33.715 268.774 39.4026 263.034L55.125 247.185H47.5717L35.6351 259.225C32.0305 262.853 26.198 262.853 22.5934 259.225L10.6567 247.185Z" stroke="url(#paint22_linear)" stroke-width="2" stroke-miterlimit="10"/>
<path d="M47.6665 291.247H55.2197L39.4068 275.29C33.7193 269.55 24.4995 269.55 18.812 275.29L2.99906 291.229H10.5523L22.5795 279.099C26.1841 275.471 32.0166 275.471 35.6211 279.099L47.6665 291.247Z" stroke="url(#paint23_linear)" stroke-width="2" stroke-miterlimit="10"/>
</g>
<g opacity="0.2">
<path d="M62.0557 217.78H52.3288L72.5795 238.213C79.9154 245.614 91.7977 245.614 99.1155 238.213L119.366 217.78H109.639L94.2612 233.304C89.6241 237.979 82.089 237.979 77.452 233.304L62.0557 217.78Z" stroke="url(#paint24_linear)" stroke-width="2" stroke-miterlimit="10"/>
<path d="M109.746 274.567H119.473L99.0952 254.008C91.7593 246.607 79.8769 246.607 72.5591 254.008L52.1816 274.549H61.9085L77.4135 258.899C82.0505 254.224 89.5856 254.224 94.2226 258.899L109.746 274.567Z" stroke="url(#paint25_linear)" stroke-width="2" stroke-miterlimit="10"/>
</g>
<g opacity="0.3">
<path d="M113.415 189.553H101.497L126.276 214.553C135.242 223.597 149.787 223.597 158.771 214.553L183.55 189.553H171.631L152.794 208.543C147.106 214.265 137.904 214.265 132.217 208.543L113.415 189.553Z" stroke="url(#paint26_linear)" stroke-width="2" stroke-miterlimit="10"/>
<path d="M171.796 259.066H183.715L158.773 233.904C149.807 224.86 135.262 224.86 126.278 233.904L101.336 259.048H113.254L132.237 239.896C137.924 234.174 147.126 234.174 152.814 239.896L171.796 259.066Z" stroke="url(#paint27_linear)" stroke-width="2" stroke-miterlimit="10"/>
</g>
<g opacity="0.4">
<path d="M164.803 169.176H150.711L180.037 198.743C190.651 209.447 207.859 209.447 218.473 198.743L247.78 169.176H233.688L211.409 191.649C204.689 198.436 193.785 198.436 187.064 191.649L164.803 169.176Z" stroke="url(#paint28_linear)" stroke-width="2" stroke-miterlimit="10"/>
<path d="M234.095 251.203H248.188L218.699 221.437C208.085 210.733 190.877 210.733 180.263 221.437L150.756 251.185H164.848L187.309 228.531C194.029 221.744 204.933 221.744 211.653 228.531L234.095 251.203Z" stroke="url(#paint29_linear)" stroke-width="2" stroke-miterlimit="10"/>
</g>
<g opacity="0.5">
<path d="M216.192 148.799H199.927L233.78 182.951C246.043 195.316 265.895 195.316 278.158 182.951L312.012 148.799H295.746L270.025 174.738C262.254 182.572 249.684 182.572 241.913 174.738L216.192 148.799Z" stroke="url(#paint30_linear)" stroke-width="2" stroke-miterlimit="10"/>
<path d="M295.927 243.763H312.192L278.139 209.395C265.877 197.03 246.025 197.03 233.762 209.395L199.691 243.745H215.956L241.895 217.59C249.665 209.756 262.236 209.756 270.007 217.59L295.927 243.763Z" stroke="url(#paint31_linear)" stroke-width="2" stroke-miterlimit="10"/>
</g>
<g opacity="0.6">
<path d="M267.562 128.423H249.105L287.487 167.159C301.38 181.184 323.913 181.184 337.806 167.159L376.206 128.441H357.749L328.586 157.863C319.783 166.744 305.51 166.744 296.707 157.863L267.562 128.423Z" stroke="url(#paint32_linear)" stroke-width="2" stroke-miterlimit="10"/>
<path d="M358.003 236.112H376.461L337.843 197.141C323.95 183.115 301.417 183.115 287.525 197.141L248.889 236.094H267.346L296.744 206.437C305.547 197.556 319.821 197.556 328.624 206.437L358.003 236.112Z" stroke="url(#paint33_linear)" stroke-width="2" stroke-miterlimit="10"/>
</g>
<g opacity="0.7">
<path d="M318.946 108.045H298.315L341.244 151.348C356.785 167.016 381.98 167.034 397.522 151.348L440.45 108.045H419.819L387.215 140.933C377.38 150.861 361.422 150.861 351.586 140.933L318.946 108.045Z" stroke="url(#paint34_linear)" stroke-width="2" stroke-miterlimit="10"/>
<path d="M420.054 228.46H440.685L397.502 184.886C381.961 169.218 356.766 169.2 341.224 184.886L298.024 228.442H318.655L351.531 195.283C361.366 185.356 377.324 185.356 387.16 195.283L420.054 228.46Z" stroke="url(#paint35_linear)" stroke-width="2" stroke-miterlimit="10"/>
</g>
<g opacity="0.8">
<path d="M370.337 87.6682H347.532L394.989 135.538C412.16 152.867 440.019 152.867 457.208 135.538L504.665 87.6682H481.86L445.797 124.04C434.911 135.015 417.268 135.015 406.4 124.04L370.337 87.6682Z" stroke="url(#paint36_linear)" stroke-width="2" stroke-miterlimit="10"/>
<path d="M482.116 220.809H504.921L457.174 172.632C440.003 155.303 412.144 155.303 394.955 172.632L347.19 220.791H369.995L406.348 184.13C417.234 173.155 434.877 173.155 445.745 184.13L482.116 220.809Z" stroke="url(#paint37_linear)" stroke-width="2" stroke-miterlimit="10"/>
</g>
<g opacity="0.9">
<path d="M421.709 67.2914H396.713L448.698 119.746C467.517 138.736 498.038 138.736 516.858 119.746L568.861 67.3095H543.865L504.36 107.147C492.441 119.169 473.114 119.169 461.196 107.147L421.709 67.2914Z" stroke="url(#paint38_linear)" stroke-width="2" stroke-miterlimit="10"/>
<path d="M544.188 213.158H569.185L516.873 160.378C498.054 141.389 467.533 141.389 448.713 160.378L396.384 213.14H421.38L461.211 172.978C473.13 160.956 492.457 160.956 504.375 172.978L544.188 213.158Z" stroke="url(#paint39_linear)" stroke-width="2" stroke-miterlimit="10"/>
</g>
<path d="M473.094 46.9141H445.924L502.456 103.936C522.924 124.586 556.089 124.586 576.557 103.936L633.089 46.9322H605.919L562.972 90.2535C550.003 103.322 528.992 103.322 516.041 90.2535L473.094 46.9141Z" stroke="url(#paint40_linear)" stroke-width="2" stroke-miterlimit="10"/>
<path d="M606.242 205.488H633.412L576.536 148.105C556.068 127.456 522.903 127.456 502.435 148.105L445.559 205.47H472.729L516.02 161.806C528.989 148.737 550 148.737 562.951 161.806L606.242 205.488Z" stroke="url(#paint41_linear)" stroke-width="2" stroke-miterlimit="10"/>
<path d="M524.476 24.7318H495.114L556.174 86.3384C578.272 108.631 614.119 108.649 636.217 86.3384L697.295 24.7498H667.951L621.563 71.5369C607.562 85.6524 584.866 85.6524 570.864 71.5369L524.476 24.7318Z" stroke="url(#paint42_linear)" stroke-width="2" stroke-miterlimit="10"/>
<path d="M668.316 196.032H697.659L636.219 134.046C614.121 111.754 578.274 111.736 556.176 134.046L494.736 196.014H524.079L570.848 148.848C584.849 134.732 607.545 134.732 621.547 148.848L668.316 196.032Z" stroke="url(#paint43_linear)" stroke-width="2" stroke-miterlimit="10"/>
</g>
<path d="M587.01 0H560.03L616.144 56.6139C636.46 77.1067 669.406 77.1067 689.722 56.6139L745.851 0.015443H718.871L676.224 43.0241C663.362 55.9962 642.488 55.9962 629.626 43.0241L587.01 0Z" fill="white"/>
<path d="M719.197 157.441H746.177L689.707 100.472C669.391 79.9789 636.461 79.9789 616.129 100.472L559.659 157.425H586.639L629.627 114.077C642.489 101.105 663.363 101.105 676.225 114.077L719.197 157.441Z" fill="white"/>
<defs>
<linearGradient id="paint0_linear" x1="1250.68" y1="240.71" x2="1303.06" y2="240.71" gradientUnits="userSpaceOnUse">
<stop stop-color="#B480FF"/>
<stop offset="0.104167" stop-color="#974CFF"/>
<stop offset="0.260417" stop-color="#5F00E6"/>
<stop offset="0.416667" stop-color="#1AA4FF"/>
<stop offset="0.552083" stop-color="#1AA4FF"/>
<stop offset="0.739583" stop-color="#B3E1FF"/>
<stop offset="1" stop-color="#19FF83"/>
</linearGradient>
<linearGradient id="paint1_linear" x1="1250.58" y1="264.564" x2="1303.17" y2="264.564" gradientUnits="userSpaceOnUse">
<stop stop-color="#B480FF"/>
<stop offset="0.104167" stop-color="#974CFF"/>
<stop offset="0.260417" stop-color="#5F00E6"/>
<stop offset="0.416667" stop-color="#1AA4FF"/>
<stop offset="0.552083" stop-color="#1AA4FF"/>
<stop offset="0.739583" stop-color="#B3E1FF"/>
<stop offset="1" stop-color="#19FF83"/>
</linearGradient>
<linearGradient id="paint2_linear" x1="1186.36" y1="223.25" x2="1253.86" y2="223.25" gradientUnits="userSpaceOnUse">
<stop stop-color="#B480FF"/>
<stop offset="0.104167" stop-color="#974CFF"/>
<stop offset="0.260417" stop-color="#5F00E6"/>
<stop offset="0.416667" stop-color="#1AA4FF"/>
<stop offset="0.552083" stop-color="#1AA4FF"/>
<stop offset="0.739583" stop-color="#B3E1FF"/>
<stop offset="1" stop-color="#19FF83"/>
</linearGradient>
<linearGradient id="paint3_linear" x1="1186.25" y1="253.99" x2="1254.01" y2="253.99" gradientUnits="userSpaceOnUse">
<stop stop-color="#B480FF"/>
<stop offset="0.104167" stop-color="#974CFF"/>
<stop offset="0.260417" stop-color="#5F00E6"/>
<stop offset="0.416667" stop-color="#1AA4FF"/>
<stop offset="0.552083" stop-color="#1AA4FF"/>
<stop offset="0.739583" stop-color="#B3E1FF"/>
<stop offset="1" stop-color="#19FF83"/>
</linearGradient>
<linearGradient id="paint4_linear" x1="1122.09" y1="205.773" x2="1204.72" y2="205.773" gradientUnits="userSpaceOnUse">
<stop stop-color="#B480FF"/>
<stop offset="0.104167" stop-color="#974CFF"/>
<stop offset="0.260417" stop-color="#5F00E6"/>
<stop offset="0.416667" stop-color="#1AA4FF"/>
<stop offset="0.552083" stop-color="#1AA4FF"/>
<stop offset="0.739583" stop-color="#B3E1FF"/>
<stop offset="1" stop-color="#19FF83"/>
</linearGradient>
<linearGradient id="paint5_linear" x1="1121.93" y1="243.422" x2="1204.88" y2="243.422" gradientUnits="userSpaceOnUse">
<stop stop-color="#B480FF"/>
<stop offset="0.104167" stop-color="#974CFF"/>
<stop offset="0.260417" stop-color="#5F00E6"/>
<stop offset="0.416667" stop-color="#1AA4FF"/>
<stop offset="0.552083" stop-color="#1AA4FF"/>
<stop offset="0.739583" stop-color="#B3E1FF"/>
<stop offset="1" stop-color="#19FF83"/>
</linearGradient>
<linearGradient id="paint6_linear" x1="1057.78" y1="188.303" x2="1155.53" y2="188.303" gradientUnits="userSpaceOnUse">
<stop stop-color="#B480FF"/>
<stop offset="0.104167" stop-color="#974CFF"/>
<stop offset="0.260417" stop-color="#5F00E6"/>
<stop offset="0.416667" stop-color="#1AA4FF"/>
<stop offset="0.552083" stop-color="#1AA4FF"/>
<stop offset="0.739583" stop-color="#B3E1FF"/>
<stop offset="1" stop-color="#19FF83"/>
</linearGradient>
<linearGradient id="paint7_linear" x1="1057.37" y1="232.635" x2="1155.48" y2="232.635" gradientUnits="userSpaceOnUse">
<stop stop-color="#B480FF"/>
<stop offset="0.104167" stop-color="#974CFF"/>
<stop offset="0.260417" stop-color="#5F00E6"/>
<stop offset="0.416667" stop-color="#1AA4FF"/>
<stop offset="0.552083" stop-color="#1AA4FF"/>
<stop offset="0.739583" stop-color="#B3E1FF"/>
<stop offset="1" stop-color="#19FF83"/>
</linearGradient>
<linearGradient id="paint8_linear" x1="993.47" y1="170.841" x2="1106.34" y2="170.841" gradientUnits="userSpaceOnUse">
<stop stop-color="#B480FF"/>
<stop offset="0.104167" stop-color="#974CFF"/>
<stop offset="0.260417" stop-color="#5F00E6"/>
<stop offset="0.416667" stop-color="#1AA4FF"/>
<stop offset="0.552083" stop-color="#1AA4FF"/>
<stop offset="0.739583" stop-color="#B3E1FF"/>
<stop offset="1" stop-color="#19FF83"/>
</linearGradient>
<linearGradient id="paint9_linear" x1="993.287" y1="222.272" x2="1106.57" y2="222.272" gradientUnits="userSpaceOnUse">
<stop stop-color="#B480FF"/>
<stop offset="0.104167" stop-color="#974CFF"/>
<stop offset="0.260417" stop-color="#5F00E6"/>
<stop offset="0.416667" stop-color="#1AA4FF"/>
<stop offset="0.552083" stop-color="#1AA4FF"/>
<stop offset="0.739583" stop-color="#B3E1FF"/>
<stop offset="1" stop-color="#19FF83"/>
</linearGradient>
<linearGradient id="paint10_linear" x1="929.192" y1="153.38" x2="1057.18" y2="153.38" gradientUnits="userSpaceOnUse">
<stop stop-color="#B480FF"/>
<stop offset="0.104167" stop-color="#974CFF"/>
<stop offset="0.260417" stop-color="#5F00E6"/>
<stop offset="0.416667" stop-color="#1AA4FF"/>
<stop offset="0.552083" stop-color="#1AA4FF"/>
<stop offset="0.739583" stop-color="#B3E1FF"/>
<stop offset="1" stop-color="#19FF83"/>
</linearGradient>
<linearGradient id="paint11_linear" x1="928.934" y1="211.697" x2="1057.4" y2="211.697" gradientUnits="userSpaceOnUse">
<stop stop-color="#B480FF"/>
<stop offset="0.104167" stop-color="#974CFF"/>
<stop offset="0.260417" stop-color="#5F00E6"/>
<stop offset="0.416667" stop-color="#1AA4FF"/>
<stop offset="0.552083" stop-color="#1AA4FF"/>
<stop offset="0.739583" stop-color="#B3E1FF"/>
<stop offset="1" stop-color="#19FF83"/>
</linearGradient>
<linearGradient id="paint12_linear" x1="864.866" y1="135.907" x2="1007.99" y2="135.907" gradientUnits="userSpaceOnUse">
<stop stop-color="#B480FF"/>
<stop offset="0.104167" stop-color="#974CFF"/>
<stop offset="0.260417" stop-color="#5F00E6"/>
<stop offset="0.416667" stop-color="#1AA4FF"/>
<stop offset="0.552083" stop-color="#1AA4FF"/>
<stop offset="0.739583" stop-color="#B3E1FF"/>
<stop offset="1" stop-color="#19FF83"/>
</linearGradient>
<linearGradient id="paint13_linear" x1="864.63" y1="201.125" x2="1008.29" y2="201.125" gradientUnits="userSpaceOnUse">
<stop stop-color="#B480FF"/>
<stop offset="0.104167" stop-color="#974CFF"/>
<stop offset="0.260417" stop-color="#5F00E6"/>
<stop offset="0.416667" stop-color="#1AA4FF"/>
<stop offset="0.552083" stop-color="#1AA4FF"/>
<stop offset="0.739583" stop-color="#B3E1FF"/>
<stop offset="1" stop-color="#19FF83"/>
</linearGradient>
<linearGradient id="paint14_linear" x1="800.57" y1="118.433" x2="958.801" y2="118.433" gradientUnits="userSpaceOnUse">
<stop stop-color="#B480FF"/>
<stop offset="0.104167" stop-color="#974CFF"/>
<stop offset="0.260417" stop-color="#5F00E6"/>
<stop offset="0.416667" stop-color="#1AA4FF"/>
<stop offset="0.552083" stop-color="#1AA4FF"/>
<stop offset="0.739583" stop-color="#B3E1FF"/>
<stop offset="1" stop-color="#19FF83"/>
</linearGradient>
<linearGradient id="paint15_linear" x1="800.312" y1="190.554" x2="959.146" y2="190.554" gradientUnits="userSpaceOnUse">
<stop stop-color="#B480FF"/>
<stop offset="0.104167" stop-color="#974CFF"/>
<stop offset="0.260417" stop-color="#5F00E6"/>
<stop offset="0.416667" stop-color="#1AA4FF"/>
<stop offset="0.552083" stop-color="#1AA4FF"/>
<stop offset="0.739583" stop-color="#B3E1FF"/>
<stop offset="1" stop-color="#19FF83"/>
</linearGradient>
<linearGradient id="paint16_linear" x1="736.296" y1="100.972" x2="909.648" y2="100.972" gradientUnits="userSpaceOnUse">
<stop stop-color="#B480FF"/>
<stop offset="0.104167" stop-color="#974CFF"/>
<stop offset="0.260417" stop-color="#5F00E6"/>
<stop offset="0.416667" stop-color="#1AA4FF"/>
<stop offset="0.552083" stop-color="#1AA4FF"/>
<stop offset="0.739583" stop-color="#B3E1FF"/>
<stop offset="1" stop-color="#19FF83"/>
</linearGradient>
<linearGradient id="paint17_linear" x1="735.969" y1="179.98" x2="909.978" y2="179.98" gradientUnits="userSpaceOnUse">
<stop stop-color="#B480FF"/>
<stop offset="0.104167" stop-color="#974CFF"/>
<stop offset="0.260417" stop-color="#5F00E6"/>
<stop offset="0.416667" stop-color="#1AA4FF"/>
<stop offset="0.552083" stop-color="#1AA4FF"/>
<stop offset="0.739583" stop-color="#B3E1FF"/>
<stop offset="1" stop-color="#19FF83"/>
</linearGradient>
<linearGradient id="paint18_linear" x1="671.982" y1="83.5017" x2="860.455" y2="83.5017" gradientUnits="userSpaceOnUse">
<stop stop-color="#B480FF"/>
<stop offset="0.104167" stop-color="#974CFF"/>
<stop offset="0.260417" stop-color="#5F00E6"/>
<stop offset="0.416667" stop-color="#1AA4FF"/>
<stop offset="0.552083" stop-color="#1AA4FF"/>
<stop offset="0.739583" stop-color="#B3E1FF"/>
<stop offset="1" stop-color="#19FF83"/>
</linearGradient>
<linearGradient id="paint19_linear" x1="671.657" y1="169.386" x2="860.824" y2="169.386" gradientUnits="userSpaceOnUse">
<stop stop-color="#B480FF"/>
<stop offset="0.104167" stop-color="#974CFF"/>
<stop offset="0.260417" stop-color="#5F00E6"/>
<stop offset="0.416667" stop-color="#1AA4FF"/>
<stop offset="0.552083" stop-color="#1AA4FF"/>
<stop offset="0.739583" stop-color="#B3E1FF"/>
<stop offset="1" stop-color="#19FF83"/>
</linearGradient>
<linearGradient id="paint20_linear" x1="607.696" y1="64.2318" x2="811.29" y2="64.2318" gradientUnits="userSpaceOnUse">
<stop stop-color="#B480FF"/>
<stop offset="0.104167" stop-color="#974CFF"/>
<stop offset="0.260417" stop-color="#5F00E6"/>
<stop offset="0.416667" stop-color="#1AA4FF"/>
<stop offset="0.552083" stop-color="#1AA4FF"/>
<stop offset="0.739583" stop-color="#B3E1FF"/>
<stop offset="1" stop-color="#19FF83"/>
</linearGradient>
<linearGradient id="paint21_linear" x1="607.33" y1="157.01" x2="811.672" y2="157.01" gradientUnits="userSpaceOnUse">
<stop stop-color="#B480FF"/>
<stop offset="0.104167" stop-color="#974CFF"/>
<stop offset="0.260417" stop-color="#5F00E6"/>
<stop offset="0.416667" stop-color="#1AA4FF"/>
<stop offset="0.552083" stop-color="#1AA4FF"/>
<stop offset="0.739583" stop-color="#B3E1FF"/>
<stop offset="1" stop-color="#19FF83"/>
</linearGradient>
<linearGradient id="paint22_linear" x1="55.2931" y1="257.265" x2="2.93461" y2="257.265" gradientUnits="userSpaceOnUse">
<stop stop-color="#B480FF"/>
<stop offset="0.104167" stop-color="#974CFF"/>
<stop offset="0.260417" stop-color="#5F00E6"/>
<stop offset="0.416667" stop-color="#1AA4FF"/>
<stop offset="0.552083" stop-color="#1AA4FF"/>
<stop offset="0.739583" stop-color="#B3E1FF"/>
<stop offset="1" stop-color="#19FF83"/>
</linearGradient>
<linearGradient id="paint23_linear" x1="55.3885" y1="281.119" x2="2.82954" y2="281.119" gradientUnits="userSpaceOnUse">
<stop stop-color="#B480FF"/>
<stop offset="0.104167" stop-color="#974CFF"/>
<stop offset="0.260417" stop-color="#5F00E6"/>
<stop offset="0.416667" stop-color="#1AA4FF"/>
<stop offset="0.552083" stop-color="#1AA4FF"/>
<stop offset="0.739583" stop-color="#B3E1FF"/>
<stop offset="1" stop-color="#19FF83"/>
</linearGradient>
<linearGradient id="paint24_linear" x1="119.583" y1="230.775" x2="52.1112" y2="230.775" gradientUnits="userSpaceOnUse">
<stop stop-color="#B480FF"/>
<stop offset="0.104167" stop-color="#974CFF"/>
<stop offset="0.260417" stop-color="#5F00E6"/>
<stop offset="0.416667" stop-color="#1AA4FF"/>
<stop offset="0.552083" stop-color="#1AA4FF"/>
<stop offset="0.739583" stop-color="#B3E1FF"/>
<stop offset="1" stop-color="#19FF83"/>
</linearGradient>
<linearGradient id="paint25_linear" x1="119.69" y1="261.515" x2="51.9632" y2="261.515" gradientUnits="userSpaceOnUse">
<stop stop-color="#B480FF"/>
<stop offset="0.104167" stop-color="#974CFF"/>
<stop offset="0.260417" stop-color="#5F00E6"/>
<stop offset="0.416667" stop-color="#1AA4FF"/>
<stop offset="0.552083" stop-color="#1AA4FF"/>
<stop offset="0.739583" stop-color="#B3E1FF"/>
<stop offset="1" stop-color="#19FF83"/>
</linearGradient>
<linearGradient id="paint26_linear" x1="183.815" y1="205.448" x2="101.23" y2="205.448" gradientUnits="userSpaceOnUse">
<stop stop-color="#B480FF"/>
<stop offset="0.104167" stop-color="#974CFF"/>
<stop offset="0.260417" stop-color="#5F00E6"/>
<stop offset="0.416667" stop-color="#1AA4FF"/>
<stop offset="0.552083" stop-color="#1AA4FF"/>
<stop offset="0.739583" stop-color="#B3E1FF"/>
<stop offset="1" stop-color="#19FF83"/>
</linearGradient>
<linearGradient id="paint27_linear" x1="183.981" y1="243.097" x2="101.068" y2="243.097" gradientUnits="userSpaceOnUse">
<stop stop-color="#B480FF"/>
<stop offset="0.104167" stop-color="#974CFF"/>
<stop offset="0.260417" stop-color="#5F00E6"/>
<stop offset="0.416667" stop-color="#1AA4FF"/>
<stop offset="0.552083" stop-color="#1AA4FF"/>
<stop offset="0.739583" stop-color="#B3E1FF"/>
<stop offset="1" stop-color="#19FF83"/>
</linearGradient>
<linearGradient id="paint28_linear" x1="248.094" y1="187.978" x2="150.396" y2="187.978" gradientUnits="userSpaceOnUse">
<stop stop-color="#B480FF"/>
<stop offset="0.104167" stop-color="#974CFF"/>
<stop offset="0.260417" stop-color="#5F00E6"/>
<stop offset="0.416667" stop-color="#1AA4FF"/>
<stop offset="0.552083" stop-color="#1AA4FF"/>
<stop offset="0.739583" stop-color="#B3E1FF"/>
<stop offset="1" stop-color="#19FF83"/>
</linearGradient>
<linearGradient id="paint29_linear" x1="248.502" y1="232.311" x2="150.44" y2="232.311" gradientUnits="userSpaceOnUse">
<stop stop-color="#B480FF"/>
<stop offset="0.104167" stop-color="#974CFF"/>
<stop offset="0.260417" stop-color="#5F00E6"/>
<stop offset="0.416667" stop-color="#1AA4FF"/>
<stop offset="0.552083" stop-color="#1AA4FF"/>
<stop offset="0.739583" stop-color="#B3E1FF"/>
<stop offset="1" stop-color="#19FF83"/>
</linearGradient>
<linearGradient id="paint30_linear" x1="312.374" y1="170.517" x2="199.563" y2="170.517" gradientUnits="userSpaceOnUse">
<stop stop-color="#B480FF"/>
<stop offset="0.104167" stop-color="#974CFF"/>
<stop offset="0.260417" stop-color="#5F00E6"/>
<stop offset="0.416667" stop-color="#1AA4FF"/>
<stop offset="0.552083" stop-color="#1AA4FF"/>
<stop offset="0.739583" stop-color="#B3E1FF"/>
<stop offset="1" stop-color="#19FF83"/>
</linearGradient>
<linearGradient id="paint31_linear" x1="312.556" y1="221.947" x2="199.326" y2="221.947" gradientUnits="userSpaceOnUse">
<stop stop-color="#B480FF"/>
<stop offset="0.104167" stop-color="#974CFF"/>
<stop offset="0.260417" stop-color="#5F00E6"/>
<stop offset="0.416667" stop-color="#1AA4FF"/>
<stop offset="0.552083" stop-color="#1AA4FF"/>
<stop offset="0.739583" stop-color="#B3E1FF"/>
<stop offset="1" stop-color="#19FF83"/>
</linearGradient>
<linearGradient id="paint32_linear" x1="376.617" y1="153.056" x2="248.692" y2="153.056" gradientUnits="userSpaceOnUse">
<stop stop-color="#B480FF"/>
<stop offset="0.104167" stop-color="#974CFF"/>
<stop offset="0.260417" stop-color="#5F00E6"/>
<stop offset="0.416667" stop-color="#1AA4FF"/>
<stop offset="0.552083" stop-color="#1AA4FF"/>
<stop offset="0.739583" stop-color="#B3E1FF"/>
<stop offset="1" stop-color="#19FF83"/>
</linearGradient>
<linearGradient id="paint33_linear" x1="376.873" y1="211.373" x2="248.475" y2="211.373" gradientUnits="userSpaceOnUse">
<stop stop-color="#B480FF"/>
<stop offset="0.104167" stop-color="#974CFF"/>
<stop offset="0.260417" stop-color="#5F00E6"/>
<stop offset="0.416667" stop-color="#1AA4FF"/>
<stop offset="0.552083" stop-color="#1AA4FF"/>
<stop offset="0.739583" stop-color="#B3E1FF"/>
<stop offset="1" stop-color="#19FF83"/>
</linearGradient>
<linearGradient id="paint34_linear" x1="440.909" y1="135.582" x2="297.854" y2="135.582" gradientUnits="userSpaceOnUse">
<stop stop-color="#B480FF"/>
<stop offset="0.104167" stop-color="#974CFF"/>
<stop offset="0.260417" stop-color="#5F00E6"/>
<stop offset="0.416667" stop-color="#1AA4FF"/>
<stop offset="0.552083" stop-color="#1AA4FF"/>
<stop offset="0.739583" stop-color="#B3E1FF"/>
<stop offset="1" stop-color="#19FF83"/>
</linearGradient>
<linearGradient id="paint35_linear" x1="441.146" y1="200.801" x2="297.561" y2="200.801" gradientUnits="userSpaceOnUse">
<stop stop-color="#B480FF"/>
<stop offset="0.104167" stop-color="#974CFF"/>
<stop offset="0.260417" stop-color="#5F00E6"/>
<stop offset="0.416667" stop-color="#1AA4FF"/>
<stop offset="0.552083" stop-color="#1AA4FF"/>
<stop offset="0.739583" stop-color="#B3E1FF"/>
<stop offset="1" stop-color="#19FF83"/>
</linearGradient>
<linearGradient id="paint36_linear" x1="505.173" y1="118.109" x2="347.022" y2="118.109" gradientUnits="userSpaceOnUse">
<stop stop-color="#B480FF"/>
<stop offset="0.104167" stop-color="#974CFF"/>
<stop offset="0.260417" stop-color="#5F00E6"/>
<stop offset="0.416667" stop-color="#1AA4FF"/>
<stop offset="0.552083" stop-color="#1AA4FF"/>
<stop offset="0.739583" stop-color="#B3E1FF"/>
<stop offset="1" stop-color="#19FF83"/>
</linearGradient>
<linearGradient id="paint37_linear" x1="505.431" y1="190.229" x2="346.678" y2="190.229" gradientUnits="userSpaceOnUse">
<stop stop-color="#B480FF"/>
<stop offset="0.104167" stop-color="#974CFF"/>
<stop offset="0.260417" stop-color="#5F00E6"/>
<stop offset="0.416667" stop-color="#1AA4FF"/>
<stop offset="0.552083" stop-color="#1AA4FF"/>
<stop offset="0.739583" stop-color="#B3E1FF"/>
<stop offset="1" stop-color="#19FF83"/>
</linearGradient>
<linearGradient id="paint38_linear" x1="569.418" y1="100.648" x2="396.154" y2="100.648" gradientUnits="userSpaceOnUse">
<stop stop-color="#B480FF"/>
<stop offset="0.104167" stop-color="#974CFF"/>
<stop offset="0.260417" stop-color="#5F00E6"/>
<stop offset="0.416667" stop-color="#1AA4FF"/>
<stop offset="0.552083" stop-color="#1AA4FF"/>
<stop offset="0.739583" stop-color="#B3E1FF"/>
<stop offset="1" stop-color="#19FF83"/>
</linearGradient>
<linearGradient id="paint39_linear" x1="569.743" y1="179.655" x2="395.823" y2="179.655" gradientUnits="userSpaceOnUse">
<stop stop-color="#B480FF"/>
<stop offset="0.104167" stop-color="#974CFF"/>
<stop offset="0.260417" stop-color="#5F00E6"/>
<stop offset="0.416667" stop-color="#1AA4FF"/>
<stop offset="0.552083" stop-color="#1AA4FF"/>
<stop offset="0.739583" stop-color="#B3E1FF"/>
<stop offset="1" stop-color="#19FF83"/>
</linearGradient>
<linearGradient id="paint40_linear" x1="633.694" y1="83.1773" x2="445.316" y2="83.1773" gradientUnits="userSpaceOnUse">
<stop stop-color="#B480FF"/>
<stop offset="0.104167" stop-color="#974CFF"/>
<stop offset="0.260417" stop-color="#5F00E6"/>
<stop offset="0.416667" stop-color="#1AA4FF"/>
<stop offset="0.552083" stop-color="#1AA4FF"/>
<stop offset="0.739583" stop-color="#B3E1FF"/>
<stop offset="1" stop-color="#19FF83"/>
</linearGradient>
<linearGradient id="paint41_linear" x1="634.019" y1="169.062" x2="444.949" y2="169.062" gradientUnits="userSpaceOnUse">
<stop stop-color="#B480FF"/>
<stop offset="0.104167" stop-color="#974CFF"/>
<stop offset="0.260417" stop-color="#5F00E6"/>
<stop offset="0.416667" stop-color="#1AA4FF"/>
<stop offset="0.552083" stop-color="#1AA4FF"/>
<stop offset="0.739583" stop-color="#B3E1FF"/>
<stop offset="1" stop-color="#19FF83"/>
</linearGradient>
<linearGradient id="paint42_linear" x1="697.948" y1="63.9074" x2="494.458" y2="63.9074" gradientUnits="userSpaceOnUse">
<stop stop-color="#B480FF"/>
<stop offset="0.104167" stop-color="#974CFF"/>
<stop offset="0.260417" stop-color="#5F00E6"/>
<stop offset="0.416667" stop-color="#1AA4FF"/>
<stop offset="0.552083" stop-color="#1AA4FF"/>
<stop offset="0.739583" stop-color="#B3E1FF"/>
<stop offset="1" stop-color="#19FF83"/>
</linearGradient>
<linearGradient id="paint43_linear" x1="698.315" y1="156.685" x2="494.077" y2="156.685" gradientUnits="userSpaceOnUse">
<stop stop-color="#B480FF"/>
<stop offset="0.104167" stop-color="#974CFF"/>
<stop offset="0.260417" stop-color="#5F00E6"/>
<stop offset="0.416667" stop-color="#1AA4FF"/>
<stop offset="0.552083" stop-color="#1AA4FF"/>
<stop offset="0.739583" stop-color="#B3E1FF"/>
<stop offset="1" stop-color="#19FF83"/>
</linearGradient>
</defs>
</svg>
