<svg width="308" height="818" viewBox="0 0 308 818" fill="none" xmlns="http://www.w3.org/2000/svg">
<mask id="mask0_195_23701" style="mask-type:alpha" maskUnits="userSpaceOnUse" x="0" y="0" width="308" height="818">
<rect x="0.5" y="0.5" width="307" height="817" fill="#C4C4C4" stroke="url(#paint0_linear_195_23701)"/>
</mask>
<g mask="url(#mask0_195_23701)">
<path d="M2348.79 -468.641L2176.64 -298.43C2124.75 -247.048 2124.75 -163.792 2176.64 -112.41L2348.66 57.6726L2348.66 57.1626L2575.25 281.177C2657.24 362.266 2657.24 493.717 2575.25 574.806L2348.66 798.821L2338.97 808.255L2115.05 1034.56C2033.96 1116.55 1902.49 1116.55 1821.39 1034.56L1597.35 808L1597.86 808L1428.14 636.515C1376.75 584.623 1293.48 584.623 1242.1 636.515L1071.87 808.638L1071.74 808.638L848.334 1034.56C767.235 1116.55 635.769 1116.55 554.67 1034.56L330.629 808L322.085 800.095L95.4935 576.208C13.5023 495.119 13.5023 363.668 95.4936 282.579L322.213 58.9474L494.356 -111.263C546.254 -162.645 546.254 -245.901 494.356 -297.283L322.34 -467.366L322.34 -466.856L95.7487 -690.87C13.7575 -771.959 13.7575 -903.41 95.7487 -984.499L322.341 -1208.51L332.032 -1217.95L556.073 -1444.51C637.172 -1526.49 768.638 -1526.49 849.737 -1444.51L1073.65 -1217.82L1073.01 -1217.82L1242.73 -1046.34C1294.12 -994.444 1377.39 -994.444 1428.78 -1046.34L1599.01 -1218.46L1599.39 -1218.46L1822.92 -1444.39C1904.02 -1526.37 2035.49 -1526.37 2116.58 -1444.39L2340.37 -1217.82L2348.91 -1209.92L2575.51 -985.901C2657.5 -904.812 2657.5 -773.362 2575.51 -692.273L2348.91 -468.258L2348.79 -468.641Z" stroke="url(#paint1_linear_195_23701)" stroke-width="1.75" stroke-miterlimit="10" stroke-linecap="round"/>
<path d="M2348.79 -468.641L2176.64 -298.43C2124.75 -247.048 2124.75 -163.792 2176.64 -112.41L2348.66 57.6726L2348.66 57.1626L2575.25 281.177C2657.24 362.266 2657.24 493.717 2575.25 574.806L2348.66 798.821L2338.97 808.255L2115.05 1034.56C2033.96 1116.55 1902.49 1116.55 1821.39 1034.56L1597.35 808L1597.86 808L1428.14 636.515C1376.75 584.623 1293.48 584.623 1242.1 636.515L1071.87 808.638L1071.74 808.638L848.334 1034.56C767.235 1116.55 635.769 1116.55 554.67 1034.56L330.629 808L322.085 800.095L95.4935 576.208C13.5023 495.119 13.5023 363.668 95.4936 282.579L322.213 58.9474L494.356 -111.263C546.254 -162.645 546.254 -245.901 494.356 -297.283L322.34 -467.366L322.34 -466.856L95.7487 -690.87C13.7575 -771.959 13.7575 -903.41 95.7487 -984.499L322.341 -1208.51L332.032 -1217.95L556.073 -1444.51C637.172 -1526.49 768.638 -1526.49 849.737 -1444.51L1073.65 -1217.82L1073.01 -1217.82L1242.73 -1046.34C1294.12 -994.444 1377.39 -994.444 1428.78 -1046.34L1599.01 -1218.46L1599.39 -1218.46L1822.92 -1444.39C1904.02 -1526.37 2035.49 -1526.37 2116.58 -1444.39L2340.37 -1217.82L2348.91 -1209.92L2575.51 -985.901C2657.5 -904.812 2657.5 -773.362 2575.51 -692.273L2348.91 -468.258L2348.79 -468.641Z" stroke="url(#paint2_linear_195_23701)" stroke-width="1.75" stroke-miterlimit="10" stroke-linecap="round"/>
<path d="M2339.73 -466.345L2169.25 -297.665C2117.73 -246.793 2117.73 -164.302 2169.25 -113.43L2339.73 55.1229L2339.73 54.6129L2564.28 276.587C2645.51 356.911 2645.51 487.215 2564.28 567.539L2339.73 789.513L2330.17 798.821L2108.04 1023.47C2027.71 1104.69 1897.39 1104.69 1817.05 1023.47L1595.05 798.948L1595.56 798.948L1427.5 628.993C1376.62 577.483 1294.12 577.483 1243.24 628.993L1074.54 799.458L1074.16 799.458L852.669 1023.47C772.336 1104.69 642.017 1104.69 561.683 1023.47L339.682 798.948L331.139 791.17L106.715 569.196C25.4885 488.872 25.4885 358.569 106.715 278.245L331.394 56.5251L501.879 -112.155C553.395 -163.027 553.395 -245.519 501.879 -296.39L331.394 -464.943L331.394 -464.433L106.842 -686.408C25.6161 -766.732 25.6162 -897.035 106.842 -977.359L331.394 -1199.33L340.957 -1208.64L562.959 -1433.17C643.292 -1514.38 773.611 -1514.38 853.945 -1433.17L1075.95 -1208.64L1075.44 -1208.64L1243.63 -1038.69C1294.5 -987.176 1377.01 -987.176 1427.88 -1038.69L1596.58 -1209.15L1596.97 -1209.15L1818.46 -1433.04C1898.79 -1514.25 2029.11 -1514.25 2109.44 -1433.04L2331.44 -1208.51L2339.99 -1200.74L2564.54 -978.761C2645.77 -898.437 2645.77 -768.134 2564.54 -687.81L2339.99 -465.835L2339.73 -466.345Z" stroke="url(#paint3_linear_195_23701)" stroke-width="1.75" stroke-miterlimit="10" stroke-linecap="round"/>
<path d="M2339.73 -466.345L2169.25 -297.665C2117.73 -246.793 2117.73 -164.302 2169.25 -113.43L2339.73 55.1229L2339.73 54.6129L2564.28 276.587C2645.51 356.911 2645.51 487.215 2564.28 567.539L2339.73 789.513L2330.17 798.821L2108.04 1023.47C2027.71 1104.69 1897.39 1104.69 1817.05 1023.47L1595.05 798.948L1595.56 798.948L1427.5 628.993C1376.62 577.483 1294.12 577.483 1243.24 628.993L1074.54 799.458L1074.16 799.458L852.669 1023.47C772.336 1104.69 642.017 1104.69 561.683 1023.47L339.682 798.948L331.139 791.17L106.715 569.196C25.4885 488.872 25.4885 358.569 106.715 278.245L331.394 56.5251L501.879 -112.155C553.395 -163.027 553.395 -245.519 501.879 -296.39L331.394 -464.943L331.394 -464.433L106.842 -686.408C25.6161 -766.732 25.6162 -897.035 106.842 -977.359L331.394 -1199.33L340.957 -1208.64L562.959 -1433.17C643.292 -1514.38 773.611 -1514.38 853.945 -1433.17L1075.95 -1208.64L1075.44 -1208.64L1243.63 -1038.69C1294.5 -987.176 1377.01 -987.176 1427.88 -1038.69L1596.58 -1209.15L1596.97 -1209.15L1818.46 -1433.04C1898.79 -1514.25 2029.11 -1514.25 2109.44 -1433.04L2331.44 -1208.51L2339.99 -1200.74L2564.54 -978.761C2645.77 -898.437 2645.77 -768.134 2564.54 -687.81L2339.99 -465.835L2339.73 -466.345Z" stroke="url(#paint4_linear_195_23701)" stroke-width="1.75" stroke-miterlimit="10" stroke-linecap="round"/>
<path d="M2330.55 -463.923L2161.6 -296.772C2110.59 -246.283 2110.59 -164.557 2161.6 -114.195L2330.55 52.8283L2330.55 52.3183L2553.06 272.253C2633.65 351.94 2633.65 480.968 2553.06 560.654L2330.55 780.589L2321.12 789.769L2101.03 1012.25C2021.33 1092.83 1892.29 1092.83 1812.59 1012.25L1592.63 789.769L1593.14 789.769L1426.48 621.343C1375.98 570.344 1294.25 570.344 1243.88 621.343L1076.84 790.406L1076.46 790.406L857.004 1012.25C777.308 1092.83 648.264 1092.83 568.568 1012.25L348.735 789.896L340.319 782.246L117.808 562.184C37.2191 482.498 37.2192 353.469 117.808 273.783L340.447 54.103L509.402 -112.92C560.408 -163.409 560.408 -245.136 509.402 -295.497L340.447 -462.52L340.447 -462.01L117.935 -681.945C37.3468 -761.632 37.3468 -890.66 117.935 -970.347L340.447 -1190.28L349.883 -1199.46L569.844 -1421.95C649.54 -1502.52 778.584 -1502.52 858.28 -1421.95L1078.24 -1199.46L1077.73 -1199.46L1244.39 -1031.04C1294.89 -980.036 1376.62 -980.036 1426.99 -1031.04L1594.16 -1199.97L1594.54 -1199.97L1813.99 -1421.95C1893.69 -1502.52 2022.73 -1502.52 2102.43 -1421.95L2322.39 -1199.46L2330.81 -1191.81L2553.32 -971.876C2633.91 -892.19 2633.91 -763.161 2553.32 -683.475L2330.81 -463.54L2330.55 -463.923Z" stroke="url(#paint5_linear_195_23701)" stroke-width="1.75" stroke-miterlimit="10" stroke-linecap="round"/>
<path d="M2330.55 -463.923L2161.6 -296.772C2110.59 -246.283 2110.59 -164.557 2161.6 -114.195L2330.55 52.8283L2330.55 52.3183L2553.06 272.253C2633.65 351.94 2633.65 480.968 2553.06 560.654L2330.55 780.589L2321.12 789.769L2101.03 1012.25C2021.33 1092.83 1892.29 1092.83 1812.59 1012.25L1592.63 789.769L1593.14 789.769L1426.48 621.343C1375.98 570.344 1294.25 570.344 1243.88 621.343L1076.84 790.406L1076.46 790.406L857.004 1012.25C777.308 1092.83 648.264 1092.83 568.568 1012.25L348.735 789.896L340.319 782.246L117.808 562.184C37.2191 482.498 37.2192 353.469 117.808 273.783L340.447 54.103L509.402 -112.92C560.408 -163.409 560.408 -245.136 509.402 -295.497L340.447 -462.52L340.447 -462.01L117.935 -681.945C37.3468 -761.632 37.3468 -890.66 117.935 -970.347L340.447 -1190.28L349.883 -1199.46L569.844 -1421.95C649.54 -1502.52 778.584 -1502.52 858.28 -1421.95L1078.24 -1199.46L1077.73 -1199.46L1244.39 -1031.04C1294.89 -980.036 1376.62 -980.036 1426.99 -1031.04L1594.16 -1199.97L1594.54 -1199.97L1813.99 -1421.95C1893.69 -1502.52 2022.73 -1502.52 2102.43 -1421.95L2322.39 -1199.46L2330.81 -1191.81L2553.32 -971.876C2633.91 -892.19 2633.91 -763.161 2553.32 -683.475L2330.81 -463.54L2330.55 -463.923Z" stroke="url(#paint6_linear_195_23701)" stroke-width="1.75" stroke-miterlimit="10" stroke-linecap="round"/>
<path d="M2321.5 -461.499L2154.07 -296.007C2103.58 -246.027 2103.58 -165.066 2154.07 -115.086L2321.5 50.4064L2321.5 49.8964L2541.97 267.791C2621.79 346.713 2621.79 474.593 2541.97 553.515L2321.5 771.409L2312.06 780.589L2094.01 1001.16C2015.08 1080.98 1887.19 1080.98 1808.26 1001.16L1590.34 780.717L1590.85 780.717L1425.72 613.821C1375.73 563.332 1294.76 563.332 1244.77 613.821L1079.26 781.227L1078.88 781.227L861.468 1001.16C782.537 1080.98 654.641 1080.98 575.71 1001.16L357.661 780.716L349.245 773.067L128.902 555.172C49.0784 476.25 49.0784 348.37 128.902 269.448L349.501 51.8086L516.926 -113.812C567.421 -163.791 567.421 -244.752 516.926 -294.732L349.501 -460.225L349.501 -459.715L129.03 -677.609C49.206 -756.531 49.2061 -884.412 129.03 -963.333L349.501 -1181.23L358.937 -1190.41L576.985 -1410.85C655.916 -1490.67 783.812 -1490.67 862.743 -1410.85L1080.66 -1190.53L1080.15 -1190.53L1245.16 -1023.64C1295.14 -973.15 1376.11 -973.15 1426.1 -1023.64L1591.74 -1191.04L1592.12 -1191.04L1809.53 -1410.98C1888.46 -1490.79 2016.36 -1490.79 2095.29 -1410.98L2313.21 -1190.53L2321.63 -1182.88L2542.1 -964.99C2621.92 -886.069 2621.92 -758.188 2542.1 -679.266L2321.63 -461.372L2321.5 -461.499Z" stroke="url(#paint7_linear_195_23701)" stroke-width="1.75" stroke-miterlimit="10" stroke-linecap="round"/>
<path d="M2321.5 -461.499L2154.07 -296.007C2103.58 -246.027 2103.58 -165.066 2154.07 -115.086L2321.5 50.4064L2321.5 49.8964L2541.97 267.791C2621.79 346.713 2621.79 474.593 2541.97 553.515L2321.5 771.409L2312.06 780.589L2094.01 1001.16C2015.08 1080.98 1887.19 1080.98 1808.26 1001.16L1590.34 780.717L1590.85 780.717L1425.72 613.821C1375.73 563.332 1294.76 563.332 1244.77 613.821L1079.26 781.227L1078.88 781.227L861.468 1001.16C782.537 1080.98 654.641 1080.98 575.71 1001.16L357.661 780.716L349.245 773.067L128.902 555.172C49.0784 476.25 49.0784 348.37 128.902 269.448L349.501 51.8086L516.926 -113.812C567.421 -163.791 567.421 -244.752 516.926 -294.732L349.501 -460.225L349.501 -459.715L129.03 -677.609C49.206 -756.531 49.2061 -884.412 129.03 -963.333L349.501 -1181.23L358.937 -1190.41L576.985 -1410.85C655.916 -1490.67 783.812 -1490.67 862.743 -1410.85L1080.66 -1190.53L1080.15 -1190.53L1245.16 -1023.64C1295.14 -973.15 1376.11 -973.15 1426.1 -1023.64L1591.74 -1191.04L1592.12 -1191.04L1809.53 -1410.98C1888.46 -1490.79 2016.36 -1490.79 2095.29 -1410.98L2313.21 -1190.53L2321.63 -1182.88L2542.1 -964.99C2621.92 -886.069 2621.92 -758.188 2542.1 -679.266L2321.63 -461.372L2321.5 -461.499Z" stroke="url(#paint8_linear_195_23701)" stroke-width="1.75" stroke-miterlimit="10" stroke-linecap="round"/>
<path d="M2312.45 -459.205L2146.55 -295.115C2096.44 -245.645 2096.44 -165.321 2146.55 -115.852L2312.45 48.1111L2312.45 47.6011L2530.88 263.583C2609.94 341.74 2609.94 468.473 2530.88 546.63L2312.45 762.612L2303.14 771.664L2087 989.941C2008.84 1068.99 1882.09 1068.99 1803.92 989.941L1587.91 771.537L1588.42 771.537L1424.95 606.299C1375.48 556.192 1295.14 556.192 1245.67 606.299L1081.56 772.174L1081.17 772.174L865.677 990.069C787.511 1069.12 660.762 1069.12 582.596 990.069L366.588 771.664L358.3 764.142L140.124 548.159C61.0655 470.003 61.0656 343.269 140.124 265.113L358.682 49.5133L524.578 -114.577C574.691 -164.046 574.691 -244.37 524.578 -293.84L358.682 -457.93L358.682 -457.42L140.252 -673.402C61.1932 -751.559 61.1932 -878.292 140.252 -956.449L358.683 -1172.43L367.991 -1181.48L583.999 -1399.89C662.165 -1478.94 788.914 -1478.94 867.079 -1399.89L1083.09 -1181.48L1082.58 -1181.48L1246.18 -1016.12C1295.65 -966.011 1375.99 -966.011 1425.46 -1016.12L1589.57 -1181.99L1589.95 -1181.99L1805.45 -1399.89C1883.62 -1478.94 2010.37 -1478.94 2088.53 -1399.89L2304.54 -1181.48L2312.83 -1173.96L2531.26 -957.978C2610.32 -879.822 2610.32 -753.088 2531.26 -674.932L2312.83 -458.95L2312.45 -459.205Z" stroke="url(#paint9_linear_195_23701)" stroke-width="1.75" stroke-miterlimit="10" stroke-linecap="round"/>
<path d="M2312.45 -459.205L2146.55 -295.115C2096.44 -245.645 2096.44 -165.321 2146.55 -115.852L2312.45 48.1111L2312.45 47.6011L2530.88 263.583C2609.94 341.74 2609.94 468.473 2530.88 546.63L2312.45 762.612L2303.14 771.664L2087 989.941C2008.84 1068.99 1882.09 1068.99 1803.92 989.941L1587.91 771.537L1588.42 771.537L1424.95 606.299C1375.48 556.192 1295.14 556.192 1245.67 606.299L1081.56 772.174L1081.17 772.174L865.677 990.069C787.511 1069.12 660.762 1069.12 582.596 990.069L366.588 771.664L358.3 764.142L140.124 548.159C61.0655 470.003 61.0656 343.269 140.124 265.113L358.682 49.5133L524.578 -114.577C574.691 -164.046 574.691 -244.37 524.578 -293.84L358.682 -457.93L358.682 -457.42L140.252 -673.402C61.1932 -751.559 61.1932 -878.292 140.252 -956.449L358.683 -1172.43L367.991 -1181.48L583.999 -1399.89C662.165 -1478.94 788.914 -1478.94 867.079 -1399.89L1083.09 -1181.48L1082.58 -1181.48L1246.18 -1016.12C1295.65 -966.011 1375.99 -966.011 1425.46 -1016.12L1589.57 -1181.99L1589.95 -1181.99L1805.45 -1399.89C1883.62 -1478.94 2010.37 -1478.94 2088.53 -1399.89L2304.54 -1181.48L2312.83 -1173.96L2531.26 -957.978C2610.32 -879.822 2610.32 -753.088 2531.26 -674.932L2312.83 -458.95L2312.45 -459.205Z" stroke="url(#paint10_linear_195_23701)" stroke-width="1.75" stroke-miterlimit="10" stroke-linecap="round"/>
<path d="M2303.27 -456.783L2138.9 -294.223C2089.3 -245.136 2089.3 -165.705 2138.9 -116.618L2303.27 45.6875L2303.27 45.1775L2519.66 259.12C2597.95 336.511 2597.95 462.097 2519.66 539.489L2303.27 753.431L2294.08 762.356L2080.12 978.72C2002.72 1057 1877.11 1057 1799.71 978.72L1585.62 762.483L1586.13 762.483L1424.06 598.648C1374.97 549.051 1295.53 549.051 1246.43 598.648L1083.98 762.993L1083.6 762.993L870.267 978.848C792.866 1057.13 667.265 1057.13 589.864 978.848L375.897 762.483L367.736 754.96L151.345 541.018C73.0517 463.627 73.0517 338.041 151.345 260.649L367.863 46.9622L532.228 -115.598C581.831 -164.685 581.831 -244.116 532.228 -293.203L367.991 -455.636L367.991 -455.126L151.6 -669.068C73.3069 -746.46 73.3069 -872.046 151.6 -949.437L367.991 -1163.38L377.172 -1172.3L591.012 -1388.67C668.413 -1466.95 794.014 -1466.95 871.415 -1388.67L1085.38 -1172.3L1084.87 -1172.3L1246.94 -1008.47C1296.04 -958.872 1375.48 -958.872 1424.57 -1008.47L1587.15 -1172.81L1587.53 -1172.81L1800.99 -1388.67C1878.39 -1466.95 2003.99 -1466.95 2081.39 -1388.67L2295.36 -1172.3L2303.52 -1164.78L2519.91 -950.839C2598.2 -873.448 2598.2 -747.862 2519.91 -670.471L2303.52 -456.528L2303.27 -456.783Z" stroke="url(#paint11_linear_195_23701)" stroke-width="1.75" stroke-miterlimit="10" stroke-linecap="round"/>
<path d="M2303.27 -456.783L2138.9 -294.223C2089.3 -245.136 2089.3 -165.705 2138.9 -116.618L2303.27 45.6875L2303.27 45.1775L2519.66 259.12C2597.95 336.511 2597.95 462.097 2519.66 539.489L2303.27 753.431L2294.08 762.356L2080.12 978.72C2002.72 1057 1877.11 1057 1799.71 978.72L1585.62 762.483L1586.13 762.483L1424.06 598.648C1374.97 549.051 1295.53 549.051 1246.43 598.648L1083.98 762.993L1083.6 762.993L870.267 978.848C792.866 1057.13 667.265 1057.13 589.864 978.848L375.897 762.483L367.736 754.96L151.345 541.018C73.0517 463.627 73.0517 338.041 151.345 260.649L367.863 46.9622L532.228 -115.598C581.831 -164.685 581.831 -244.116 532.228 -293.203L367.991 -455.636L367.991 -455.126L151.6 -669.068C73.3069 -746.46 73.3069 -872.046 151.6 -949.437L367.991 -1163.38L377.172 -1172.3L591.012 -1388.67C668.413 -1466.95 794.014 -1466.95 871.415 -1388.67L1085.38 -1172.3L1084.87 -1172.3L1246.94 -1008.47C1296.04 -958.872 1375.48 -958.872 1424.57 -1008.47L1587.15 -1172.81L1587.53 -1172.81L1800.99 -1388.67C1878.39 -1466.95 2003.99 -1466.95 2081.39 -1388.67L2295.36 -1172.3L2303.52 -1164.78L2519.91 -950.839C2598.2 -873.448 2598.2 -747.862 2519.91 -670.471L2303.52 -456.528L2303.27 -456.783Z" stroke="url(#paint12_linear_195_23701)" stroke-width="1.75" stroke-miterlimit="10" stroke-linecap="round"/>
<path d="M2294.21 -454.489L2131.38 -293.458C2082.28 -244.881 2082.28 -166.087 2131.38 -117.51L2294.08 43.3926L2294.08 42.8826L2508.43 254.785C2585.96 331.539 2585.96 455.85 2508.43 532.604L2294.08 744.506L2284.9 753.431L2072.98 967.756C1996.21 1045.27 1871.89 1045.27 1795.12 967.756L1583.2 753.431L1583.71 753.431L1423.17 591.125C1374.58 542.038 1295.78 542.038 1247.2 591.125L1086.4 753.941L1086.02 753.941L874.603 967.755C797.839 1045.27 673.513 1045.27 596.75 967.755L384.823 753.431L376.662 746.036L162.311 534.133C84.783 457.379 84.7831 333.069 162.311 256.315L376.789 44.6674L539.624 -116.363C588.717 -164.94 588.717 -243.734 539.624 -292.311L376.917 -453.214L376.917 -452.704L162.567 -664.606C85.0382 -741.36 85.0382 -865.671 162.567 -942.425L376.917 -1154.33L386.098 -1163.25L598.026 -1377.58C674.789 -1455.1 799.115 -1455.1 875.878 -1377.58L1087.81 -1163.25L1087.3 -1163.25L1247.71 -1000.95C1296.29 -951.86 1375.09 -951.86 1423.68 -1000.95L1584.73 -1163.76L1585.11 -1163.76L1796.53 -1377.58C1873.29 -1455.1 1997.62 -1455.1 2074.38 -1377.58L2286.31 -1163.25L2294.47 -1155.86L2508.82 -943.955C2586.35 -867.201 2586.35 -742.89 2508.82 -666.136L2294.34 -454.106L2294.21 -454.489Z" stroke="url(#paint13_linear_195_23701)" stroke-width="1.75" stroke-miterlimit="10" stroke-linecap="round"/>
<path d="M2294.21 -454.489L2131.38 -293.458C2082.28 -244.881 2082.28 -166.087 2131.38 -117.51L2294.08 43.3926L2294.08 42.8826L2508.43 254.785C2585.96 331.539 2585.96 455.85 2508.43 532.604L2294.08 744.506L2284.9 753.431L2072.98 967.756C1996.21 1045.27 1871.89 1045.27 1795.12 967.756L1583.2 753.431L1583.71 753.431L1423.17 591.125C1374.58 542.038 1295.78 542.038 1247.2 591.125L1086.4 753.941L1086.02 753.941L874.603 967.755C797.839 1045.27 673.513 1045.27 596.75 967.755L384.823 753.431L376.662 746.036L162.311 534.133C84.783 457.379 84.7831 333.069 162.311 256.315L376.789 44.6674L539.624 -116.363C588.717 -164.94 588.717 -243.734 539.624 -292.311L376.917 -453.214L376.917 -452.704L162.567 -664.606C85.0382 -741.36 85.0382 -865.671 162.567 -942.425L376.917 -1154.33L386.098 -1163.25L598.026 -1377.58C674.789 -1455.1 799.115 -1455.1 875.878 -1377.58L1087.81 -1163.25L1087.3 -1163.25L1247.71 -1000.95C1296.29 -951.86 1375.09 -951.86 1423.68 -1000.95L1584.73 -1163.76L1585.11 -1163.76L1796.53 -1377.58C1873.29 -1455.1 1997.62 -1455.1 2074.38 -1377.58L2286.31 -1163.25L2294.47 -1155.86L2508.82 -943.955C2586.35 -867.201 2586.35 -742.89 2508.82 -666.136L2294.34 -454.106L2294.21 -454.489Z" stroke="url(#paint14_linear_195_23701)" stroke-width="1.75" stroke-miterlimit="10" stroke-linecap="round"/>
<path d="M2285.03 -452.065L2123.73 -292.565C2075.02 -244.498 2075.02 -166.469 2123.73 -118.274L2284.9 41.0986L2284.9 40.5885L2497.21 250.451C2574.1 326.44 2574.1 449.603 2497.21 525.592L2285.03 735.454L2275.98 744.252L2066.09 956.536C1990.09 1033.42 1866.91 1033.42 1790.91 956.536L1581.03 744.252L1581.54 744.252L1422.4 583.604C1374.33 534.899 1296.29 534.899 1248.09 583.604L1088.7 744.762L1088.44 744.762L878.938 956.536C802.939 1033.42 679.761 1033.42 603.763 956.536L393.876 744.251L385.842 736.857L173.532 526.994C96.6417 451.005 96.6417 327.842 173.532 251.853L385.97 42.2457L547.275 -117.255C595.985 -165.321 595.985 -243.35 547.275 -291.545L386.098 -450.918L386.098 -450.535L173.788 -660.398C96.8968 -736.387 96.8969 -859.55 173.788 -935.539L386.098 -1145.4L395.151 -1154.2L605.039 -1366.36C681.037 -1443.24 804.215 -1443.24 880.213 -1366.36L1090.1 -1154.07L1089.59 -1154.07L1248.6 -993.295C1296.67 -944.591 1374.71 -944.591 1422.91 -993.295L1582.43 -1154.58L1582.69 -1154.58L1792.06 -1366.36C1868.06 -1443.24 1991.24 -1443.24 2067.24 -1366.36L2277.12 -1154.07L2285.16 -1146.68L2497.47 -936.814C2574.36 -860.825 2574.36 -737.661 2497.47 -661.672L2285.16 -451.81L2285.03 -452.065Z" stroke="url(#paint15_linear_195_23701)" stroke-width="1.75" stroke-miterlimit="10" stroke-linecap="round"/>
<path d="M2285.03 -452.065L2123.73 -292.565C2075.02 -244.498 2075.02 -166.469 2123.73 -118.274L2284.9 41.0986L2284.9 40.5885L2497.21 250.451C2574.1 326.44 2574.1 449.603 2497.21 525.592L2285.03 735.454L2275.98 744.252L2066.09 956.536C1990.09 1033.42 1866.91 1033.42 1790.91 956.536L1581.03 744.252L1581.54 744.252L1422.4 583.604C1374.33 534.899 1296.29 534.899 1248.09 583.604L1088.7 744.762L1088.44 744.762L878.938 956.536C802.939 1033.42 679.761 1033.42 603.763 956.536L393.876 744.251L385.842 736.857L173.532 526.994C96.6417 451.005 96.6417 327.842 173.532 251.853L385.97 42.2457L547.275 -117.255C595.985 -165.321 595.985 -243.35 547.275 -291.545L386.098 -450.918L386.098 -450.535L173.788 -660.398C96.8968 -736.387 96.8969 -859.55 173.788 -935.539L386.098 -1145.4L395.151 -1154.2L605.039 -1366.36C681.037 -1443.24 804.215 -1443.24 880.213 -1366.36L1090.1 -1154.07L1089.59 -1154.07L1248.6 -993.295C1296.67 -944.591 1374.71 -944.591 1422.91 -993.295L1582.43 -1154.58L1582.69 -1154.58L1792.06 -1366.36C1868.06 -1443.24 1991.24 -1443.24 2067.24 -1366.36L2277.12 -1154.07L2285.16 -1146.68L2497.47 -936.814C2574.36 -860.825 2574.36 -737.661 2497.47 -661.672L2285.16 -451.81L2285.03 -452.065Z" stroke="url(#paint16_linear_195_23701)" stroke-width="1.75" stroke-miterlimit="10" stroke-linecap="round"/>
<path d="M2275.98 -449.643L2116.2 -291.672C2068 -243.988 2068 -166.724 2116.2 -119.04L2275.85 38.8034L2275.85 38.421L2486.12 246.243C2562.24 321.467 2562.24 443.483 2486.12 518.707L2275.85 726.53L2266.92 735.199L2059.08 945.444C1983.84 1021.56 1861.81 1021.56 1786.58 945.444L1578.73 735.199L1579.24 735.199L1421.76 575.954C1374.07 527.759 1296.8 527.759 1249.11 575.954L1091.12 735.709L1090.86 735.709L883.4 945.444C808.167 1021.56 686.137 1021.56 610.903 945.444L403.056 735.199L395.15 727.932L184.88 520.109C108.755 444.885 108.755 322.87 184.88 247.646L395.278 40.0782L555.053 -117.892C603.253 -165.577 603.253 -242.841 555.053 -290.525L395.406 -448.368L395.406 -447.985L185.136 -655.808C109.01 -731.032 109.01 -853.048 185.136 -928.272L395.406 -1136.09L404.332 -1144.76L612.179 -1355.01C687.412 -1431.13 809.443 -1431.13 884.676 -1355.01L1092.52 -1144.76L1092.01 -1144.76L1249.36 -985.773C1297.05 -937.579 1374.33 -937.579 1422.02 -985.773L1580.01 -1145.53L1580.26 -1145.53L1787.73 -1355.26C1862.96 -1431.38 1984.99 -1431.38 2060.22 -1355.26L2268.07 -1145.02L2275.98 -1137.75L2486.25 -929.929C2562.37 -854.705 2562.37 -732.689 2486.25 -657.465L2275.98 -449.643V-449.643Z" stroke="url(#paint17_linear_195_23701)" stroke-width="1.75" stroke-miterlimit="10" stroke-linecap="round"/>
<path d="M2275.98 -449.643L2116.2 -291.672C2068 -243.988 2068 -166.724 2116.2 -119.04L2275.85 38.8034L2275.85 38.421L2486.12 246.243C2562.24 321.467 2562.24 443.483 2486.12 518.707L2275.85 726.53L2266.92 735.199L2059.08 945.444C1983.84 1021.56 1861.81 1021.56 1786.58 945.444L1578.73 735.199L1579.24 735.199L1421.76 575.954C1374.07 527.759 1296.8 527.759 1249.11 575.954L1091.12 735.709L1090.86 735.709L883.4 945.444C808.167 1021.56 686.137 1021.56 610.903 945.444L403.056 735.199L395.15 727.932L184.88 520.109C108.755 444.885 108.755 322.87 184.88 247.646L395.278 40.0782L555.053 -117.892C603.253 -165.577 603.253 -242.841 555.053 -290.525L395.406 -448.368L395.406 -447.985L185.136 -655.808C109.01 -731.032 109.01 -853.048 185.136 -928.272L395.406 -1136.09L404.332 -1144.76L612.179 -1355.01C687.412 -1431.13 809.443 -1431.13 884.676 -1355.01L1092.52 -1144.76L1092.01 -1144.76L1249.36 -985.773C1297.05 -937.579 1374.33 -937.579 1422.02 -985.773L1580.01 -1145.53L1580.26 -1145.53L1787.73 -1355.26C1862.96 -1431.38 1984.99 -1431.38 2060.22 -1355.26L2268.07 -1145.02L2275.98 -1137.75L2486.25 -929.929C2562.37 -854.705 2562.37 -732.689 2486.25 -657.465L2275.98 -449.643V-449.643Z" stroke="url(#paint18_linear_195_23701)" stroke-width="1.75" stroke-miterlimit="10" stroke-linecap="round"/>
<path d="M2266.79 -447.348L2108.68 -290.908C2060.99 -243.733 2060.99 -167.234 2108.68 -120.06L2266.79 36.2529L2266.79 35.8704L2475.02 241.78C2550.38 316.367 2550.38 437.108 2475.02 511.694L2266.79 717.604L2257.87 726.274L2051.93 934.479C1977.34 1009.83 1856.58 1009.83 1781.99 934.479L1576.05 726.274L1576.56 726.274L1420.74 568.431C1373.56 520.747 1297.05 520.747 1249.87 568.431L1093.41 726.529L1093.16 726.529L887.734 934.224C813.139 1009.58 692.383 1009.58 617.788 934.224L411.853 726.019L403.947 718.751L195.718 512.841C120.357 438.255 120.357 317.514 195.718 242.928L404.075 37.2727L562.192 -119.168C609.882 -166.342 609.882 -242.841 562.192 -290.016L404.075 -446.329L404.075 -445.946L195.845 -651.856C120.485 -726.443 120.485 -847.184 195.845 -921.77L404.203 -1127.3L413.129 -1135.97L619.063 -1344.04C693.659 -1419.4 814.414 -1419.4 889.01 -1344.04L1094.94 -1135.84L1094.43 -1135.84L1250.26 -978.252C1297.44 -930.567 1373.94 -930.567 1421.12 -978.252L1577.58 -1136.35L1577.84 -1136.35L1783.26 -1344.04C1857.86 -1419.4 1978.61 -1419.4 2053.21 -1344.04L2259.14 -1135.84L2267.05 -1128.57L2475.28 -922.662C2550.64 -848.076 2550.64 -727.335 2475.28 -652.748L2267.05 -446.838L2266.79 -447.348Z" stroke="url(#paint19_linear_195_23701)" stroke-width="1.75" stroke-miterlimit="10" stroke-linecap="round"/>
<path d="M2266.79 -447.348L2108.68 -290.908C2060.99 -243.733 2060.99 -167.234 2108.68 -120.06L2266.79 36.2529L2266.79 35.8704L2475.02 241.78C2550.38 316.367 2550.38 437.108 2475.02 511.694L2266.79 717.604L2257.87 726.274L2051.93 934.479C1977.34 1009.83 1856.58 1009.83 1781.99 934.479L1576.05 726.274L1576.56 726.274L1420.74 568.431C1373.56 520.747 1297.05 520.747 1249.87 568.431L1093.41 726.529L1093.16 726.529L887.734 934.224C813.139 1009.58 692.383 1009.58 617.788 934.224L411.853 726.019L403.947 718.751L195.718 512.841C120.357 438.255 120.357 317.514 195.718 242.928L404.075 37.2727L562.192 -119.168C609.882 -166.342 609.882 -242.841 562.192 -290.016L404.075 -446.329L404.075 -445.946L195.845 -651.856C120.485 -726.443 120.485 -847.184 195.845 -921.77L404.203 -1127.3L413.129 -1135.97L619.063 -1344.04C693.659 -1419.4 814.414 -1419.4 889.01 -1344.04L1094.94 -1135.84L1094.43 -1135.84L1250.26 -978.252C1297.44 -930.567 1373.94 -930.567 1421.12 -978.252L1577.58 -1136.35L1577.84 -1136.35L1783.26 -1344.04C1857.86 -1419.4 1978.61 -1419.4 2053.21 -1344.04L2259.14 -1135.84L2267.05 -1128.57L2475.28 -922.662C2550.64 -848.076 2550.64 -727.335 2475.28 -652.748L2267.05 -446.838L2266.79 -447.348Z" stroke="url(#paint20_linear_195_23701)" stroke-width="1.75" stroke-miterlimit="10" stroke-linecap="round"/>
<path d="M2257.74 -444.925L2101.16 -290.014C2053.85 -243.222 2053.85 -167.488 2101.16 -120.824L2257.62 33.9591L2257.62 33.5766L2463.8 237.447C2538.4 311.268 2538.4 430.862 2463.8 504.683L2257.62 708.425L2248.82 716.968L2044.92 923.133C1971.09 997.719 1851.48 997.719 1777.65 923.133L1573.76 716.968L1574.27 716.968L1419.85 560.91C1373.05 513.608 1297.31 513.608 1250.64 560.91L1095.84 717.478L1095.58 717.478L892.072 923.132C818.241 997.719 698.633 997.719 624.803 923.132L420.909 716.968L413.13 709.828L206.941 505.958C132.345 432.136 132.345 312.543 206.941 238.721L413.258 35.1064L569.845 -119.804C617.152 -166.596 617.152 -242.33 569.845 -288.994L413.258 -443.777L413.258 -443.395L207.196 -647.137C132.601 -720.959 132.601 -840.552 207.196 -914.374L413.386 -1118.24L422.184 -1126.79L626.078 -1332.95C699.909 -1407.54 819.517 -1407.54 893.347 -1332.95L1097.24 -1126.79L1096.73 -1126.79L1251.15 -970.728C1297.95 -923.426 1373.69 -923.426 1420.36 -970.728L1575.29 -1127.3L1575.54 -1127.3L1778.93 -1332.95C1852.76 -1407.54 1972.37 -1407.54 2046.2 -1332.95L2250.09 -1126.79L2257.87 -1119.65L2464.06 -915.776C2538.66 -841.954 2538.66 -722.361 2464.06 -648.539L2257.87 -444.67L2257.74 -444.925Z" stroke="url(#paint21_linear_195_23701)" stroke-width="1.75" stroke-miterlimit="10" stroke-linecap="round"/>
<path d="M2257.74 -444.925L2101.16 -290.014C2053.85 -243.222 2053.85 -167.488 2101.16 -120.824L2257.62 33.9591L2257.62 33.5766L2463.8 237.447C2538.4 311.268 2538.4 430.862 2463.8 504.683L2257.62 708.425L2248.82 716.968L2044.92 923.133C1971.09 997.719 1851.48 997.719 1777.65 923.133L1573.76 716.968L1574.27 716.968L1419.85 560.91C1373.05 513.608 1297.31 513.608 1250.64 560.91L1095.84 717.478L1095.58 717.478L892.072 923.132C818.241 997.719 698.633 997.719 624.803 923.132L420.909 716.968L413.13 709.828L206.941 505.958C132.345 432.136 132.345 312.543 206.941 238.721L413.258 35.1064L569.845 -119.804C617.152 -166.596 617.152 -242.33 569.845 -288.994L413.258 -443.777L413.258 -443.395L207.196 -647.137C132.601 -720.959 132.601 -840.552 207.196 -914.374L413.386 -1118.24L422.184 -1126.79L626.078 -1332.95C699.909 -1407.54 819.517 -1407.54 893.347 -1332.95L1097.24 -1126.79L1096.73 -1126.79L1251.15 -970.728C1297.95 -923.426 1373.69 -923.426 1420.36 -970.728L1575.29 -1127.3L1575.54 -1127.3L1778.93 -1332.95C1852.76 -1407.54 1972.37 -1407.54 2046.2 -1332.95L2250.09 -1126.79L2257.87 -1119.65L2464.06 -915.776C2538.66 -841.954 2538.66 -722.361 2464.06 -648.539L2257.87 -444.67L2257.74 -444.925Z" stroke="url(#paint22_linear_195_23701)" stroke-width="1.75" stroke-miterlimit="10" stroke-linecap="round"/>
<path d="M2248.56 -442.632L2093.5 -289.251C2046.71 -242.969 2046.71 -168 2093.5 -121.718L2248.56 31.5348L2248.56 31.1523L2452.71 232.982C2526.54 306.039 2526.54 424.485 2452.71 497.541L2248.56 699.371L2239.89 707.786L2038.04 911.911C1964.97 985.732 1846.51 985.732 1773.45 911.911L1571.59 707.786L1572.1 707.786L1419.21 553.258C1372.92 506.466 1297.95 506.466 1251.66 553.258L1098.13 708.296L1097.88 708.296L896.534 912.038C823.468 985.86 705.008 985.86 631.943 912.038L430.089 707.913L422.31 700.901L218.161 499.071C144.331 426.014 144.331 307.568 218.161 234.512L422.438 32.937L577.495 -120.443C624.292 -166.725 624.292 -241.694 577.495 -287.976L422.438 -441.357L422.438 -440.974L218.289 -642.804C144.458 -715.861 144.458 -834.307 218.289 -907.363L422.438 -1109.19L431.109 -1117.61L633.091 -1321.73C706.156 -1395.55 824.616 -1395.55 897.682 -1321.73L1099.54 -1117.61L1099.03 -1117.61L1251.91 -963.08C1298.2 -916.288 1373.18 -916.288 1419.47 -963.08L1572.87 -1118.12L1573.12 -1118.12L1774.47 -1321.73C1847.53 -1395.55 1965.99 -1395.55 2039.06 -1321.73L2241.04 -1117.61L2248.82 -1110.6L2452.97 -908.766C2526.8 -835.709 2526.8 -717.263 2452.97 -644.206L2248.69 -442.377L2248.56 -442.632Z" stroke="url(#paint23_linear_195_23701)" stroke-width="1.75" stroke-miterlimit="10" stroke-linecap="round"/>
<path d="M2248.56 -442.632L2093.5 -289.251C2046.71 -242.969 2046.71 -168 2093.5 -121.718L2248.56 31.5348L2248.56 31.1523L2452.71 232.982C2526.54 306.039 2526.54 424.485 2452.71 497.541L2248.56 699.371L2239.89 707.786L2038.04 911.911C1964.97 985.732 1846.51 985.732 1773.45 911.911L1571.59 707.786L1572.1 707.786L1419.21 553.258C1372.92 506.466 1297.95 506.466 1251.66 553.258L1098.13 708.296L1097.88 708.296L896.534 912.038C823.468 985.86 705.008 985.86 631.943 912.038L430.089 707.913L422.31 700.901L218.161 499.071C144.331 426.014 144.331 307.568 218.161 234.512L422.438 32.937L577.495 -120.443C624.292 -166.725 624.292 -241.694 577.495 -287.976L422.438 -441.357L422.438 -440.974L218.289 -642.804C144.458 -715.861 144.458 -834.307 218.289 -907.363L422.438 -1109.19L431.109 -1117.61L633.091 -1321.73C706.156 -1395.55 824.616 -1395.55 897.682 -1321.73L1099.54 -1117.61L1099.03 -1117.61L1251.91 -963.08C1298.2 -916.288 1373.18 -916.288 1419.47 -963.08L1572.87 -1118.12L1573.12 -1118.12L1774.47 -1321.73C1847.53 -1395.55 1965.99 -1395.55 2039.06 -1321.73L2241.04 -1117.61L2248.82 -1110.6L2452.97 -908.766C2526.8 -835.709 2526.8 -717.263 2452.97 -644.206L2248.69 -442.377L2248.56 -442.632Z" stroke="url(#paint24_linear_195_23701)" stroke-width="1.75" stroke-miterlimit="10" stroke-linecap="round"/>
<path d="M2239.51 -440.209L2085.98 -288.358C2039.69 -242.587 2039.69 -168.255 2085.98 -122.483L2239.38 29.24L2239.38 28.8575L2441.49 228.647C2514.68 300.939 2514.68 418.237 2441.49 490.657L2239.38 690.446L2230.71 698.861L2030.9 900.946C1958.6 974.13 1841.28 974.13 1768.85 900.946L1569.04 698.861L1569.55 698.861L1418.19 545.863C1372.41 499.581 1298.07 499.581 1252.3 545.863L1100.56 699.244L1100.3 699.244L900.869 900.819C828.569 974.003 711.257 974.003 638.829 900.818L439.015 698.734L431.364 691.721L229.255 491.931C156.062 419.64 156.062 302.341 229.255 229.922L431.492 30.3873L585.018 -121.336C631.306 -167.108 631.306 -241.439 585.018 -287.211L431.492 -438.934L431.492 -438.552L229.383 -638.342C156.19 -710.633 156.19 -827.932 229.383 -900.351L431.619 -1100.14L440.29 -1108.56L640.104 -1310.64C712.405 -1383.82 829.717 -1383.82 902.145 -1310.64L1101.96 -1108.56L1101.45 -1108.56L1252.81 -955.557C1298.58 -909.276 1372.93 -909.276 1418.7 -955.557L1570.57 -1109.07L1570.83 -1109.07L1770.26 -1310.64C1842.56 -1383.82 1959.87 -1383.82 2032.3 -1310.64L2232.11 -1108.56L2239.76 -1101.54L2441.87 -901.753C2515.07 -829.461 2515.07 -712.163 2441.87 -639.744L2239.76 -439.954L2239.51 -440.209Z" stroke="url(#paint25_linear_195_23701)" stroke-width="1.75" stroke-miterlimit="10" stroke-linecap="round"/>
<path d="M2239.51 -440.209L2085.98 -288.358C2039.69 -242.587 2039.69 -168.255 2085.98 -122.483L2239.38 29.24L2239.38 28.8575L2441.49 228.647C2514.68 300.939 2514.68 418.237 2441.49 490.657L2239.38 690.446L2230.71 698.861L2030.9 900.946C1958.6 974.13 1841.28 974.13 1768.85 900.946L1569.04 698.861L1569.55 698.861L1418.19 545.863C1372.41 499.581 1298.07 499.581 1252.3 545.863L1100.56 699.244L1100.3 699.244L900.869 900.819C828.569 974.003 711.257 974.003 638.829 900.818L439.015 698.734L431.364 691.721L229.255 491.931C156.062 419.64 156.062 302.341 229.255 229.922L431.492 30.3873L585.018 -121.336C631.306 -167.108 631.306 -241.439 585.018 -287.211L431.492 -438.934L431.492 -438.552L229.383 -638.342C156.19 -710.633 156.19 -827.932 229.383 -900.351L431.619 -1100.14L440.29 -1108.56L640.104 -1310.64C712.405 -1383.82 829.717 -1383.82 902.145 -1310.64L1101.96 -1108.56L1101.45 -1108.56L1252.81 -955.557C1298.58 -909.276 1372.93 -909.276 1418.7 -955.557L1570.57 -1109.07L1570.83 -1109.07L1770.26 -1310.64C1842.56 -1383.82 1959.87 -1383.82 2032.3 -1310.64L2232.11 -1108.56L2239.76 -1101.54L2441.87 -901.753C2515.07 -829.461 2515.07 -712.163 2441.87 -639.744L2239.76 -439.954L2239.51 -440.209Z" stroke="url(#paint26_linear_195_23701)" stroke-width="1.75" stroke-miterlimit="10" stroke-linecap="round"/>
<path d="M2230.45 -437.786L2078.46 -287.465C2032.55 -242.076 2032.55 -168.637 2078.46 -123.248L2230.33 26.9456L2230.33 26.5631L2430.4 224.313C2502.82 295.967 2502.82 411.991 2430.4 483.645L2230.33 681.395L2221.78 689.682L2024.01 889.727C1952.35 962.146 1836.31 962.146 1764.65 889.727L1566.87 689.682L1567.38 689.682L1417.56 538.214C1372.16 492.314 1298.71 492.314 1253.32 538.214L1102.98 690.064L1102.72 690.064L905.206 889.727C833.543 962.146 717.506 962.146 645.843 889.727L448.069 689.682L440.546 682.797L240.477 485.047C168.049 413.393 168.049 297.369 240.477 225.715L440.674 28.2203L592.67 -122.1C638.575 -167.49 638.575 -240.929 592.67 -286.318L440.801 -436.511L440.801 -436.129L240.732 -633.879C168.305 -705.533 168.305 -821.556 240.732 -893.21L440.801 -1090.96L449.345 -1099.25L646.991 -1299.42C718.653 -1371.84 834.691 -1371.84 906.354 -1299.42L1104.13 -1099.38L1103.62 -1099.38L1253.45 -947.907C1298.84 -902.008 1372.29 -902.008 1417.68 -947.907L1568.02 -1099.89L1568.28 -1099.89L1765.67 -1299.42C1837.33 -1371.84 1953.37 -1371.84 2025.03 -1299.42L2222.8 -1099.37L2230.33 -1092.49L2430.4 -894.74C2502.82 -823.086 2502.82 -707.062 2430.4 -635.408L2230.58 -437.531L2230.45 -437.786Z" stroke="url(#paint27_linear_195_23701)" stroke-width="1.75" stroke-miterlimit="10" stroke-linecap="round"/>
<path d="M2230.45 -437.786L2078.46 -287.465C2032.55 -242.076 2032.55 -168.637 2078.46 -123.248L2230.33 26.9456L2230.33 26.5631L2430.4 224.313C2502.82 295.967 2502.82 411.991 2430.4 483.645L2230.33 681.395L2221.78 689.682L2024.01 889.727C1952.35 962.146 1836.31 962.146 1764.65 889.727L1566.87 689.682L1567.38 689.682L1417.56 538.214C1372.16 492.314 1298.71 492.314 1253.32 538.214L1102.98 690.064L1102.72 690.064L905.206 889.727C833.543 962.146 717.506 962.146 645.843 889.727L448.069 689.682L440.546 682.797L240.477 485.047C168.049 413.393 168.049 297.369 240.477 225.715L440.674 28.2203L592.67 -122.1C638.575 -167.49 638.575 -240.929 592.67 -286.318L440.801 -436.511L440.801 -436.129L240.732 -633.879C168.305 -705.533 168.305 -821.556 240.732 -893.21L440.801 -1090.96L449.345 -1099.25L646.991 -1299.42C718.653 -1371.84 834.691 -1371.84 906.354 -1299.42L1104.13 -1099.38L1103.62 -1099.38L1253.45 -947.907C1298.84 -902.008 1372.29 -902.008 1417.68 -947.907L1568.02 -1099.89L1568.28 -1099.89L1765.67 -1299.42C1837.33 -1371.84 1953.37 -1371.84 2025.03 -1299.42L2222.8 -1099.37L2230.33 -1092.49L2430.4 -894.74C2502.82 -823.086 2502.82 -707.062 2430.4 -635.408L2230.58 -437.531L2230.45 -437.786Z" stroke="url(#paint28_linear_195_23701)" stroke-width="1.75" stroke-miterlimit="10" stroke-linecap="round"/>
<path d="M2221.27 -435.491L2070.81 -286.7C2025.41 -241.821 2025.41 -169.019 2070.81 -124.14L2221.15 24.5233L2221.15 24.1408L2419.17 219.978C2490.84 290.867 2490.84 405.743 2419.17 476.632L2221.15 672.47L2212.73 680.63L2016.87 878.635C1945.97 950.289 1831.08 950.289 1760.18 878.635L1564.32 680.63L1564.83 680.63L1416.53 530.692C1371.65 485.302 1298.84 485.302 1253.95 530.692L1105.15 681.14L1104.89 681.14L909.668 878.507C838.771 950.161 723.881 950.161 652.983 878.507L457.122 680.502L449.599 673.617L251.57 477.907C179.908 407.018 179.908 292.142 251.57 221.253L449.727 25.6706L600.193 -123.12C645.588 -167.999 645.588 -240.801 600.193 -285.68L449.854 -434.343L449.854 -433.961L251.825 -629.671C180.163 -700.56 180.163 -815.436 251.826 -886.325L449.854 -1082.16L458.27 -1090.32L654.131 -1288.33C725.029 -1359.98 839.918 -1359.98 910.816 -1288.33L1106.55 -1090.32L1106.04 -1090.32L1254.34 -940.384C1299.22 -894.995 1372.03 -894.995 1416.92 -940.384L1565.73 -1090.83L1565.98 -1090.83L1761.33 -1288.33C1832.23 -1359.98 1947.12 -1359.98 2018.02 -1288.33L2213.88 -1090.32L2221.4 -1083.44L2419.43 -887.6C2491.09 -816.711 2491.09 -701.835 2419.43 -630.945L2221.4 -435.108L2221.27 -435.491Z" stroke="url(#paint29_linear_195_23701)" stroke-width="1.75" stroke-miterlimit="10" stroke-linecap="round"/>
<path d="M2221.27 -435.491L2070.81 -286.7C2025.41 -241.821 2025.41 -169.019 2070.81 -124.14L2221.15 24.5233L2221.15 24.1408L2419.17 219.978C2490.84 290.867 2490.84 405.743 2419.17 476.632L2221.15 672.47L2212.73 680.63L2016.87 878.635C1945.97 950.289 1831.08 950.289 1760.18 878.635L1564.32 680.63L1564.83 680.63L1416.53 530.692C1371.65 485.302 1298.84 485.302 1253.95 530.692L1105.15 681.14L1104.89 681.14L909.668 878.507C838.771 950.161 723.881 950.161 652.983 878.507L457.122 680.502L449.599 673.617L251.57 477.907C179.908 407.018 179.908 292.142 251.57 221.253L449.727 25.6706L600.193 -123.12C645.588 -167.999 645.588 -240.801 600.193 -285.68L449.854 -434.343L449.854 -433.961L251.825 -629.671C180.163 -700.56 180.163 -815.436 251.826 -886.325L449.854 -1082.16L458.27 -1090.32L654.131 -1288.33C725.029 -1359.98 839.918 -1359.98 910.816 -1288.33L1106.55 -1090.32L1106.04 -1090.32L1254.34 -940.384C1299.22 -894.995 1372.03 -894.995 1416.92 -940.384L1565.73 -1090.83L1565.98 -1090.83L1761.33 -1288.33C1832.23 -1359.98 1947.12 -1359.98 2018.02 -1288.33L2213.88 -1090.32L2221.4 -1083.44L2419.43 -887.6C2491.09 -816.711 2491.09 -701.835 2419.43 -630.945L2221.4 -435.108L2221.27 -435.491Z" stroke="url(#paint30_linear_195_23701)" stroke-width="1.75" stroke-miterlimit="10" stroke-linecap="round"/>
<path d="M2212.22 -433.068L2063.28 -285.808C2018.4 -241.438 2018.4 -169.402 2063.28 -124.905L2212.09 22.2283L2212.09 21.8459L2408.08 215.643C2478.98 285.767 2478.98 399.496 2408.08 469.62L2212.09 663.418L2203.68 671.577L2009.86 867.542C1939.72 938.431 1825.98 938.431 1755.85 867.542L1562.03 671.577L1562.54 671.577L1415.77 523.169C1371.4 478.29 1299.35 478.29 1254.85 523.169L1107.7 671.96L1107.44 671.96L914.004 867.415C843.871 938.304 730.129 938.304 659.996 867.415L466.176 671.45L458.78 664.692L262.791 470.895C191.894 400.771 191.894 287.042 262.791 216.918L458.907 23.3756L607.716 -123.885C652.601 -168.254 652.601 -240.291 607.716 -284.788L458.908 -431.921L458.908 -431.539L262.919 -625.336C192.021 -695.46 192.021 -809.189 262.919 -879.313L458.908 -1073.11L467.324 -1081.27L661.144 -1277.24C731.277 -1348.12 845.019 -1348.12 915.152 -1277.24L1108.97 -1081.27L1108.46 -1081.27L1255.23 -932.862C1299.61 -887.983 1371.65 -887.983 1416.15 -932.862L1563.43 -1081.78L1563.69 -1081.78L1757 -1277.23C1827.13 -1348.12 1940.87 -1348.12 2011 -1277.23L2204.82 -1081.27L2212.22 -1074.51L2408.21 -880.715C2479.11 -810.591 2479.11 -696.862 2408.21 -626.738L2212.22 -432.941L2212.22 -433.068Z" stroke="url(#paint31_linear_195_23701)" stroke-width="1.75" stroke-miterlimit="10" stroke-linecap="round"/>
<path d="M2212.22 -433.068L2063.28 -285.808C2018.4 -241.438 2018.4 -169.402 2063.28 -124.905L2212.09 22.2283L2212.09 21.8459L2408.08 215.643C2478.98 285.767 2478.98 399.496 2408.08 469.62L2212.09 663.418L2203.68 671.577L2009.86 867.542C1939.72 938.431 1825.98 938.431 1755.85 867.542L1562.03 671.577L1562.54 671.577L1415.77 523.169C1371.4 478.29 1299.35 478.29 1254.85 523.169L1107.7 671.96L1107.44 671.96L914.004 867.415C843.871 938.304 730.129 938.304 659.996 867.415L466.176 671.45L458.78 664.692L262.791 470.895C191.894 400.771 191.894 287.042 262.791 216.918L458.907 23.3756L607.716 -123.885C652.601 -168.254 652.601 -240.291 607.716 -284.788L458.908 -431.921L458.908 -431.539L262.919 -625.336C192.021 -695.46 192.021 -809.189 262.919 -879.313L458.908 -1073.11L467.324 -1081.27L661.144 -1277.24C731.277 -1348.12 845.019 -1348.12 915.152 -1277.24L1108.97 -1081.27L1108.46 -1081.27L1255.23 -932.862C1299.61 -887.983 1371.65 -887.983 1416.15 -932.862L1563.43 -1081.78L1563.69 -1081.78L1757 -1277.23C1827.13 -1348.12 1940.87 -1348.12 2011 -1277.23L2204.82 -1081.27L2212.22 -1074.51L2408.21 -880.715C2479.11 -810.591 2479.11 -696.862 2408.21 -626.738L2212.22 -432.941L2212.22 -433.068Z" stroke="url(#paint32_linear_195_23701)" stroke-width="1.75" stroke-miterlimit="10" stroke-linecap="round"/>
<path d="M2203.04 -430.774L2055.76 -285.044C2011.26 -241.057 2011.26 -169.785 2055.76 -125.798L2203.04 19.8049L2203.04 19.4224L2396.99 211.18C2467.25 280.539 2467.25 393.12 2396.99 462.607L2203.04 654.364L2194.75 662.396L2002.97 856.321C1933.6 926.573 1821.01 926.573 1751.51 856.321L1559.73 662.396L1560.24 662.396L1415.01 515.518C1371.01 471.021 1299.73 471.021 1255.74 515.518L1109.99 662.779L1109.74 662.779L918.34 856.194C848.972 926.445 736.377 926.445 666.883 856.194L475.102 662.269L467.706 655.511L273.886 463.881C203.625 394.522 203.626 281.941 273.886 212.455L467.961 20.9521L615.24 -124.778C659.742 -168.765 659.742 -240.037 615.24 -284.024L467.961 -429.627L467.961 -429.244L274.013 -621.002C203.753 -690.361 203.753 -802.942 274.013 -872.429L467.961 -1064.19L476.25 -1072.22L668.03 -1266.14C737.398 -1336.39 849.992 -1336.39 919.487 -1266.14L1111.27 -1072.09L1110.76 -1072.09L1256 -925.213C1299.99 -880.716 1371.27 -880.716 1415.26 -925.213L1561.01 -1072.47L1561.26 -1072.47L1752.66 -1265.89C1822.03 -1336.14 1934.62 -1336.14 2004.12 -1265.89L2195.9 -1071.96L2203.29 -1065.21L2397.12 -873.576C2467.38 -804.217 2467.38 -691.636 2397.12 -622.149L2203.17 -430.392L2203.04 -430.774Z" stroke="url(#paint33_linear_195_23701)" stroke-width="1.75" stroke-miterlimit="10" stroke-linecap="round"/>
<path d="M2203.04 -430.774L2055.76 -285.044C2011.26 -241.057 2011.26 -169.785 2055.76 -125.798L2203.04 19.8049L2203.04 19.4224L2396.99 211.18C2467.25 280.539 2467.25 393.12 2396.99 462.607L2203.04 654.364L2194.75 662.396L2002.97 856.321C1933.6 926.573 1821.01 926.573 1751.51 856.321L1559.73 662.396L1560.24 662.396L1415.01 515.518C1371.01 471.021 1299.73 471.021 1255.74 515.518L1109.99 662.779L1109.74 662.779L918.34 856.194C848.972 926.445 736.377 926.445 666.883 856.194L475.102 662.269L467.706 655.511L273.886 463.881C203.625 394.522 203.626 281.941 273.886 212.455L467.961 20.9521L615.24 -124.778C659.742 -168.765 659.742 -240.037 615.24 -284.024L467.961 -429.627L467.961 -429.244L274.013 -621.002C203.753 -690.361 203.753 -802.942 274.013 -872.429L467.961 -1064.19L476.25 -1072.22L668.03 -1266.14C737.398 -1336.39 849.992 -1336.39 919.487 -1266.14L1111.27 -1072.09L1110.76 -1072.09L1256 -925.213C1299.99 -880.716 1371.27 -880.716 1415.26 -925.213L1561.01 -1072.47L1561.26 -1072.47L1752.66 -1265.89C1822.03 -1336.14 1934.62 -1336.14 2004.12 -1265.89L2195.9 -1071.96L2203.29 -1065.21L2397.12 -873.576C2467.38 -804.217 2467.38 -691.636 2397.12 -622.149L2203.17 -430.392L2203.04 -430.774Z" stroke="url(#paint34_linear_195_23701)" stroke-width="1.75" stroke-miterlimit="10" stroke-linecap="round"/>
<path d="M2193.98 -428.352L2048.24 -284.151C2004.24 -240.674 2004.24 -170.167 2048.24 -126.563L2193.98 17.5103L2193.98 17.1278L2385.89 206.845C2455.39 275.567 2455.39 386.873 2385.89 455.595L2193.86 645.312L2185.7 653.217L1995.96 845.102C1927.23 914.589 1815.91 914.589 1747.18 845.102L1557.44 653.217L1557.95 653.217L1414.24 507.869C1370.76 463.882 1300.24 463.882 1256.63 507.869L1112.41 653.727L1112.16 653.727L922.801 845.102C854.071 914.589 742.752 914.589 674.022 845.102L484.282 653.217L477.013 646.587L284.978 456.869C215.483 388.148 215.483 276.842 284.978 208.12L477.013 18.6575L622.889 -125.543C666.881 -169.02 666.881 -239.527 622.889 -283.131L477.141 -427.204L477.141 -426.822L285.233 -616.539C215.738 -685.261 215.738 -796.567 285.233 -865.289L477.141 -1055.01L485.302 -1062.91L675.042 -1254.8C743.772 -1324.28 855.092 -1324.28 923.821 -1254.8L1113.56 -1062.91L1113.05 -1062.91L1256.76 -917.563C1300.24 -873.576 1370.76 -873.576 1414.37 -917.563L1558.58 -1063.29L1558.84 -1063.29L1748.2 -1254.67C1816.93 -1324.15 1928.25 -1324.15 1996.98 -1254.67L2186.72 -1062.78L2193.98 -1056.15L2385.89 -866.436C2455.39 -797.714 2455.39 -686.408 2385.89 -617.687L2193.98 -427.969L2193.98 -428.352Z" stroke="url(#paint35_linear_195_23701)" stroke-width="1.75" stroke-miterlimit="10" stroke-linecap="round"/>
<path d="M2193.98 -428.352L2048.24 -284.151C2004.24 -240.674 2004.24 -170.167 2048.24 -126.563L2193.98 17.5103L2193.98 17.1278L2385.89 206.845C2455.39 275.567 2455.39 386.873 2385.89 455.595L2193.86 645.312L2185.7 653.217L1995.96 845.102C1927.23 914.589 1815.91 914.589 1747.18 845.102L1557.44 653.217L1557.95 653.217L1414.24 507.869C1370.76 463.882 1300.24 463.882 1256.63 507.869L1112.41 653.727L1112.16 653.727L922.801 845.102C854.071 914.589 742.752 914.589 674.022 845.102L484.282 653.217L477.013 646.587L284.978 456.869C215.483 388.148 215.483 276.842 284.978 208.12L477.013 18.6575L622.889 -125.543C666.881 -169.02 666.881 -239.527 622.889 -283.131L477.141 -427.204L477.141 -426.822L285.233 -616.539C215.738 -685.261 215.738 -796.567 285.233 -865.289L477.141 -1055.01L485.302 -1062.91L675.042 -1254.8C743.772 -1324.28 855.092 -1324.28 923.821 -1254.8L1113.56 -1062.91L1113.05 -1062.91L1256.76 -917.563C1300.24 -873.576 1370.76 -873.576 1414.37 -917.563L1558.58 -1063.29L1558.84 -1063.29L1748.2 -1254.67C1816.93 -1324.15 1928.25 -1324.15 1996.98 -1254.67L2186.72 -1062.78L2193.98 -1056.15L2385.89 -866.436C2455.39 -797.714 2455.39 -686.408 2385.89 -617.687L2193.98 -427.969L2193.98 -428.352Z" stroke="url(#paint36_linear_195_23701)" stroke-width="1.75" stroke-miterlimit="10" stroke-linecap="round"/>
<path d="M2184.81 -425.929L2040.59 -283.258C1997.11 -240.163 1997.11 -170.422 2040.59 -127.455L2184.81 15.0882L2184.81 14.7057L2374.67 202.383C2443.4 270.34 2443.4 380.498 2374.67 448.455L2184.81 636.132L2176.64 644.037L1988.82 833.882C1920.85 902.604 1810.68 902.604 1742.72 833.882L1555.02 644.165L1555.53 644.165L1413.35 500.347C1370.25 456.87 1300.5 456.87 1257.53 500.347L1114.71 644.547L1114.46 644.547L927.138 834.01C859.173 902.731 749.002 902.731 681.037 834.01L493.209 644.165L486.069 637.535L296.201 449.857C227.471 381.901 227.471 271.742 296.201 203.785L486.196 16.2355L630.414 -126.435C673.896 -169.53 673.896 -239.271 630.414 -282.238L486.196 -424.781L486.196 -424.399L296.328 -612.204C227.599 -680.16 227.599 -790.319 296.328 -858.276L486.196 -1046.08L494.357 -1053.99L682.057 -1243.83C750.022 -1312.55 860.194 -1312.55 928.159 -1243.83L1115.99 -1053.99L1115.48 -1053.99L1257.65 -910.167C1300.75 -866.69 1370.5 -866.69 1413.48 -910.167L1556.16 -1054.37L1556.42 -1054.37L1743.74 -1243.83C1811.7 -1312.55 1921.87 -1312.55 1989.84 -1243.83L2177.67 -1053.99L2184.81 -1047.36L2374.8 -859.55C2443.53 -791.594 2443.53 -681.435 2374.8 -613.478L2184.93 -425.673L2184.81 -425.929Z" stroke="url(#paint37_linear_195_23701)" stroke-width="1.75" stroke-miterlimit="10" stroke-linecap="round"/>
<path d="M2184.81 -425.929L2040.59 -283.258C1997.11 -240.163 1997.11 -170.422 2040.59 -127.455L2184.81 15.0882L2184.81 14.7057L2374.67 202.383C2443.4 270.34 2443.4 380.498 2374.67 448.455L2184.81 636.132L2176.64 644.037L1988.82 833.882C1920.85 902.604 1810.68 902.604 1742.72 833.882L1555.02 644.165L1555.53 644.165L1413.35 500.347C1370.25 456.87 1300.5 456.87 1257.53 500.347L1114.71 644.547L1114.46 644.547L927.138 834.01C859.173 902.731 749.002 902.731 681.037 834.01L493.209 644.165L486.069 637.535L296.201 449.857C227.471 381.901 227.471 271.742 296.201 203.785L486.196 16.2355L630.414 -126.435C673.896 -169.53 673.896 -239.271 630.414 -282.238L486.196 -424.781L486.196 -424.399L296.328 -612.204C227.599 -680.16 227.599 -790.319 296.328 -858.276L486.196 -1046.08L494.357 -1053.99L682.057 -1243.83C750.022 -1312.55 860.194 -1312.55 928.159 -1243.83L1115.99 -1053.99L1115.48 -1053.99L1257.65 -910.167C1300.75 -866.69 1370.5 -866.69 1413.48 -910.167L1556.16 -1054.37L1556.42 -1054.37L1743.74 -1243.83C1811.7 -1312.55 1921.87 -1312.55 1989.84 -1243.83L2177.67 -1053.99L2184.81 -1047.36L2374.8 -859.55C2443.53 -791.594 2443.53 -681.435 2374.8 -613.478L2184.93 -425.673L2184.81 -425.929Z" stroke="url(#paint38_linear_195_23701)" stroke-width="1.75" stroke-miterlimit="10" stroke-linecap="round"/>
<path d="M2175.75 -423.634L2033.06 -282.493C1989.96 -239.909 1989.96 -170.932 2033.06 -128.348L2175.75 12.6655L2175.75 12.283L2363.45 198.048C2431.42 265.24 2431.42 374.251 2363.45 441.57L2175.62 627.335L2167.59 635.112L1981.8 822.918C1914.6 890.874 1805.58 890.874 1738.25 822.917L1552.47 635.112L1552.98 635.112L1412.33 492.824C1369.74 449.73 1300.75 449.73 1258.16 492.824L1117.13 635.495L1116.88 635.495L931.474 822.79C864.274 890.746 755.25 890.746 687.923 822.79L502.135 634.985L494.995 628.482L307.167 442.717C239.202 375.526 239.202 266.515 307.167 199.195L495.25 13.8128L637.937 -127.328C681.037 -169.912 681.037 -238.889 637.937 -281.473L495.377 -422.487L495.377 -422.104L307.55 -607.869C239.585 -675.061 239.585 -784.072 307.55 -851.391L495.377 -1037.03L503.411 -1044.81L689.198 -1232.61C756.398 -1300.57 865.422 -1300.57 932.749 -1232.61L1118.54 -1044.81L1118.03 -1044.81L1258.67 -902.518C1301.26 -859.423 1370.25 -859.423 1412.84 -902.518L1554 -1045.19L1554.25 -1045.19L1739.53 -1232.61C1806.73 -1300.57 1915.75 -1300.57 1983.08 -1232.61L2168.87 -1044.81L2176.01 -1038.3L2363.83 -852.538C2431.8 -785.347 2431.8 -676.335 2363.83 -609.016L2176.01 -423.251L2175.75 -423.634Z" stroke="url(#paint39_linear_195_23701)" stroke-width="1.75" stroke-miterlimit="10" stroke-linecap="round"/>
<path d="M2175.75 -423.634L2033.06 -282.493C1989.96 -239.909 1989.96 -170.932 2033.06 -128.348L2175.75 12.6655L2175.75 12.283L2363.45 198.048C2431.42 265.24 2431.42 374.251 2363.45 441.57L2175.62 627.335L2167.59 635.112L1981.8 822.918C1914.6 890.874 1805.58 890.874 1738.25 822.917L1552.47 635.112L1552.98 635.112L1412.33 492.824C1369.74 449.73 1300.75 449.73 1258.16 492.824L1117.13 635.495L1116.88 635.495L931.474 822.79C864.274 890.746 755.25 890.746 687.923 822.79L502.135 634.985L494.995 628.482L307.167 442.717C239.202 375.526 239.202 266.515 307.167 199.195L495.25 13.8128L637.937 -127.328C681.037 -169.912 681.037 -238.889 637.937 -281.473L495.377 -422.487L495.377 -422.104L307.55 -607.869C239.585 -675.061 239.585 -784.072 307.55 -851.391L495.377 -1037.03L503.411 -1044.81L689.198 -1232.61C756.398 -1300.57 865.422 -1300.57 932.749 -1232.61L1118.54 -1044.81L1118.03 -1044.81L1258.67 -902.518C1301.26 -859.423 1370.25 -859.423 1412.84 -902.518L1554 -1045.19L1554.25 -1045.19L1739.53 -1232.61C1806.73 -1300.57 1915.75 -1300.57 1983.08 -1232.61L2168.87 -1044.81L2176.01 -1038.3L2363.83 -852.538C2431.8 -785.347 2431.8 -676.335 2363.83 -609.016L2176.01 -423.251L2175.75 -423.634Z" stroke="url(#paint40_linear_195_23701)" stroke-width="1.75" stroke-miterlimit="10" stroke-linecap="round"/>
<path d="M2166.57 -421.211L2025.54 -281.728C1982.95 -239.653 1982.95 -171.314 2025.54 -129.24L2166.57 10.2436L2166.57 9.86112L2352.36 193.586C2419.56 260.14 2419.56 367.877 2352.36 434.431L2166.57 618.156L2158.66 625.806L1974.92 811.571C1908.36 878.762 1800.61 878.762 1734.04 811.571L1550.3 625.806L1550.81 625.806L1411.69 485.175C1369.61 442.59 1301.26 442.59 1259.18 485.175L1119.56 626.316L1119.3 626.316L935.936 811.698C869.374 878.89 761.625 878.89 695.063 811.698L511.316 625.933L504.302 619.558L318.515 435.833C251.315 369.279 251.315 261.543 318.515 194.988L504.43 11.5184L645.588 -128.092C688.177 -170.167 688.177 -238.506 645.588 -280.58L504.558 -420.064L504.558 -419.681L318.77 -603.406C251.571 -669.96 251.571 -777.696 318.77 -844.251L504.558 -1027.98L512.463 -1035.63L696.211 -1221.39C762.773 -1288.58 870.522 -1288.58 937.084 -1221.39L1120.83 -1035.63L1120.19 -1035.63L1259.31 -894.995C1301.39 -852.41 1369.74 -852.41 1411.82 -894.995L1551.44 -1036.14L1551.7 -1036.14L1735.06 -1221.52C1801.63 -1288.71 1909.38 -1288.71 1975.94 -1221.52L2159.68 -1035.75L2166.7 -1029.38L2352.49 -845.525C2419.69 -778.971 2419.69 -671.235 2352.49 -604.681L2166.7 -420.956L2166.57 -421.211Z" stroke="url(#paint41_linear_195_23701)" stroke-width="1.75" stroke-miterlimit="10" stroke-linecap="round"/>
<path d="M2166.57 -421.211L2025.54 -281.728C1982.95 -239.653 1982.95 -171.314 2025.54 -129.24L2166.57 10.2436L2166.57 9.86112L2352.36 193.586C2419.56 260.14 2419.56 367.877 2352.36 434.431L2166.57 618.156L2158.66 625.806L1974.92 811.571C1908.36 878.762 1800.61 878.762 1734.04 811.571L1550.3 625.806L1550.81 625.806L1411.69 485.175C1369.61 442.59 1301.26 442.59 1259.18 485.175L1119.56 626.316L1119.3 626.316L935.936 811.698C869.374 878.89 761.625 878.89 695.063 811.698L511.316 625.933L504.302 619.558L318.515 435.833C251.315 369.279 251.315 261.543 318.515 194.988L504.43 11.5184L645.588 -128.092C688.177 -170.167 688.177 -238.506 645.588 -280.58L504.558 -420.064L504.558 -419.681L318.77 -603.406C251.571 -669.96 251.571 -777.696 318.77 -844.251L504.558 -1027.98L512.463 -1035.63L696.211 -1221.39C762.773 -1288.58 870.522 -1288.58 937.084 -1221.39L1120.83 -1035.63L1120.19 -1035.63L1259.31 -894.995C1301.39 -852.41 1369.74 -852.41 1411.82 -894.995L1551.44 -1036.14L1551.7 -1036.14L1735.06 -1221.52C1801.63 -1288.71 1909.38 -1288.71 1975.94 -1221.52L2159.68 -1035.75L2166.7 -1029.38L2352.49 -845.525C2419.69 -778.971 2419.69 -671.235 2352.49 -604.681L2166.7 -420.956L2166.57 -421.211Z" stroke="url(#paint42_linear_195_23701)" stroke-width="1.75" stroke-miterlimit="10" stroke-linecap="round"/>
<path d="M2157.52 -418.915L2017.89 -280.834C1975.81 -239.142 1975.81 -171.696 2017.89 -130.004L2157.39 7.94957L2157.39 7.56701L2341.14 189.252C2407.7 255.041 2407.7 361.63 2341.14 427.419L2157.52 609.232L2149.61 616.882L1967.91 800.479C1902.11 867.033 1795.51 867.033 1729.71 800.479L1548 616.754L1548.51 616.754L1410.93 477.653C1369.23 435.579 1301.77 435.579 1260.08 477.653L1121.85 617.264L1121.6 617.264L940.273 800.479C874.476 867.033 767.874 867.033 702.077 800.479L520.371 616.754L513.357 610.379L329.61 428.694C263.048 362.905 263.048 256.316 329.61 190.527L513.485 9.09679L653.112 -128.984C695.192 -170.676 695.192 -238.122 653.112 -279.814L513.612 -417.768L513.612 -417.385L329.865 -599.07C263.303 -664.859 263.303 -771.448 329.865 -837.237L513.613 -1018.92L521.518 -1026.57L703.225 -1210.3C769.022 -1276.85 875.624 -1276.85 941.421 -1210.3L1123.13 -1026.57L1122.62 -1026.57L1260.21 -887.471C1301.9 -845.397 1369.36 -845.397 1411.05 -887.471L1549.15 -1027.08L1549.41 -1027.08L1730.73 -1210.42C1796.53 -1276.98 1903.13 -1276.98 1968.93 -1210.42L2150.63 -1026.57L2157.65 -1020.2L2341.39 -838.512C2407.96 -772.723 2407.96 -666.134 2341.39 -600.345L2157.65 -418.66L2157.52 -418.915Z" stroke="url(#paint43_linear_195_23701)" stroke-width="1.75" stroke-miterlimit="10" stroke-linecap="round"/>
<path d="M2157.52 -418.915L2017.89 -280.834C1975.81 -239.142 1975.81 -171.696 2017.89 -130.004L2157.39 7.94957L2157.39 7.56701L2341.14 189.252C2407.7 255.041 2407.7 361.63 2341.14 427.419L2157.52 609.232L2149.61 616.882L1967.91 800.479C1902.11 867.033 1795.51 867.033 1729.71 800.479L1548 616.754L1548.51 616.754L1410.93 477.653C1369.23 435.579 1301.77 435.579 1260.08 477.653L1121.85 617.264L1121.6 617.264L940.273 800.479C874.476 867.033 767.874 867.033 702.077 800.479L520.371 616.754L513.357 610.379L329.61 428.694C263.048 362.905 263.048 256.316 329.61 190.527L513.485 9.09679L653.112 -128.984C695.192 -170.676 695.192 -238.122 653.112 -279.814L513.612 -417.768L513.612 -417.385L329.865 -599.07C263.303 -664.859 263.303 -771.448 329.865 -837.237L513.613 -1018.92L521.518 -1026.57L703.225 -1210.3C769.022 -1276.85 875.624 -1276.85 941.421 -1210.3L1123.13 -1026.57L1122.62 -1026.57L1260.21 -887.471C1301.9 -845.397 1369.36 -845.397 1411.05 -887.471L1549.15 -1027.08L1549.41 -1027.08L1730.73 -1210.42C1796.53 -1276.98 1903.13 -1276.98 1968.93 -1210.42L2150.63 -1026.57L2157.65 -1020.2L2341.39 -838.512C2407.96 -772.723 2407.96 -666.134 2341.39 -600.345L2157.65 -418.66L2157.52 -418.915Z" stroke="url(#paint44_linear_195_23701)" stroke-width="1.75" stroke-miterlimit="10" stroke-linecap="round"/>
<path d="M2148.34 -416.494L2010.24 -279.944C1968.54 -238.762 1968.54 -171.953 2010.24 -130.771L2148.21 5.65262L2148.21 5.27014L2329.92 184.915C2395.71 249.94 2395.71 355.381 2329.92 420.405L2148.21 600.05L2140.43 607.572L1960.76 789.257C1895.73 855.047 1790.28 855.047 1725.25 789.257L1545.58 607.572L1546.09 607.572L1410.03 470.001C1368.84 428.31 1302.03 428.31 1260.84 470.001L1124.27 608.082L1124.02 608.082L944.734 789.385C879.702 855.174 774.249 855.174 709.217 789.385L529.55 607.7L522.664 601.452L340.957 421.807C275.16 356.783 275.16 251.342 340.957 186.318L522.792 6.92739L660.889 -129.623C702.586 -170.805 702.586 -237.614 660.889 -278.796L522.919 -415.22L522.919 -414.837L341.212 -594.482C275.415 -659.506 275.415 -764.948 341.212 -829.972L522.664 -1010L530.443 -1017.52L710.11 -1199.21C775.142 -1265 880.595 -1265 945.627 -1199.21L1125.29 -1017.52L1124.78 -1017.52L1260.84 -879.951C1302.03 -838.259 1368.85 -838.259 1410.03 -879.951L1546.6 -1018.03L1546.85 -1018.03L1726.14 -1199.33C1791.17 -1265.12 1896.62 -1265.12 1961.66 -1199.33L2141.58 -1017.52L2148.46 -1011.27L2330.3 -831.501C2396.1 -766.477 2396.1 -661.036 2330.3 -596.012L2148.59 -416.367L2148.34 -416.494Z" stroke="url(#paint45_linear_195_23701)" stroke-width="1.75" stroke-miterlimit="10" stroke-linecap="round"/>
<path d="M2148.34 -416.494L2010.24 -279.944C1968.54 -238.762 1968.54 -171.953 2010.24 -130.771L2148.21 5.65262L2148.21 5.27014L2329.92 184.915C2395.71 249.94 2395.71 355.381 2329.92 420.405L2148.21 600.05L2140.43 607.572L1960.76 789.257C1895.73 855.047 1790.28 855.047 1725.25 789.257L1545.58 607.572L1546.09 607.572L1410.03 470.001C1368.84 428.31 1302.03 428.31 1260.84 470.001L1124.27 608.082L1124.02 608.082L944.734 789.385C879.702 855.174 774.249 855.174 709.217 789.385L529.55 607.7L522.664 601.452L340.957 421.807C275.16 356.783 275.16 251.342 340.957 186.318L522.792 6.92739L660.889 -129.623C702.586 -170.805 702.586 -237.614 660.889 -278.796L522.919 -415.22L522.919 -414.837L341.212 -594.482C275.415 -659.506 275.415 -764.948 341.212 -829.972L522.664 -1010L530.443 -1017.52L710.11 -1199.21C775.142 -1265 880.595 -1265 945.627 -1199.21L1125.29 -1017.52L1124.78 -1017.52L1260.84 -879.951C1302.03 -838.259 1368.85 -838.259 1410.03 -879.951L1546.6 -1018.03L1546.85 -1018.03L1726.14 -1199.33C1791.17 -1265.12 1896.62 -1265.12 1961.66 -1199.33L2141.58 -1017.52L2148.46 -1011.27L2330.3 -831.501C2396.1 -766.477 2396.1 -661.036 2330.3 -596.012L2148.59 -416.367L2148.34 -416.494Z" stroke="url(#paint46_linear_195_23701)" stroke-width="1.75" stroke-miterlimit="10" stroke-linecap="round"/>
<path d="M2139.28 -414.072L2002.84 -279.052C1961.66 -238.38 1961.66 -172.336 2002.84 -131.536L2139.28 3.35711L2139.28 2.97463L2318.95 180.707C2383.98 244.967 2383.98 349.26 2318.95 413.647L2139.28 591.38L2131.63 598.774L1953.88 778.42C1889.61 843.444 1785.3 843.444 1720.91 778.42L1543.16 598.774L1543.54 598.774L1409.01 462.734C1368.33 421.552 1302.28 421.552 1261.48 462.734L1126.57 599.029L1126.31 599.029L949.07 778.292C884.803 843.316 780.497 843.316 716.102 778.292L538.348 598.647L531.59 592.399L351.923 414.667C286.891 350.407 286.892 246.114 351.923 181.727L531.718 4.2494L668.285 -130.771C709.472 -171.443 709.472 -237.487 668.285 -278.287L531.845 -413.18L531.845 -412.798L352.179 -590.53C287.147 -654.79 287.147 -759.083 352.179 -823.47L531.845 -1001.2L539.496 -1008.6L717.25 -1188.24C781.517 -1253.27 885.823 -1253.27 950.218 -1188.24L1127.97 -1008.6L1127.59 -1008.6L1261.86 -872.302C1302.54 -831.12 1368.59 -831.12 1409.39 -872.302L1544.43 -1008.72L1544.69 -1008.72L1721.93 -1187.99C1786.2 -1253.01 1890.5 -1253.01 1954.9 -1187.99L2132.65 -1008.34L2139.41 -1002.09L2319.08 -824.362C2384.11 -760.103 2384.11 -655.809 2319.08 -591.423L2139.41 -413.69L2139.28 -414.072Z" stroke="url(#paint47_linear_195_23701)" stroke-width="1.75" stroke-miterlimit="10" stroke-linecap="round"/>
<path d="M2139.28 -414.072L2002.84 -279.052C1961.66 -238.38 1961.66 -172.336 2002.84 -131.536L2139.28 3.35711L2139.28 2.97463L2318.95 180.707C2383.98 244.967 2383.98 349.26 2318.95 413.647L2139.28 591.38L2131.63 598.774L1953.88 778.42C1889.61 843.444 1785.3 843.444 1720.91 778.42L1543.16 598.774L1543.54 598.774L1409.01 462.734C1368.33 421.552 1302.28 421.552 1261.48 462.734L1126.57 599.029L1126.31 599.029L949.07 778.292C884.803 843.316 780.497 843.316 716.102 778.292L538.348 598.647L531.59 592.399L351.923 414.667C286.891 350.407 286.892 246.114 351.923 181.727L531.718 4.2494L668.285 -130.771C709.472 -171.443 709.472 -237.487 668.285 -278.287L531.845 -413.18L531.845 -412.798L352.179 -590.53C287.147 -654.79 287.147 -759.083 352.179 -823.47L531.845 -1001.2L539.496 -1008.6L717.25 -1188.24C781.517 -1253.27 885.823 -1253.27 950.218 -1188.24L1127.97 -1008.6L1127.59 -1008.6L1261.86 -872.302C1302.54 -831.12 1368.59 -831.12 1409.39 -872.302L1544.43 -1008.72L1544.69 -1008.72L1721.93 -1187.99C1786.2 -1253.01 1890.5 -1253.01 1954.9 -1187.99L2132.65 -1008.34L2139.41 -1002.09L2319.08 -824.362C2384.11 -760.103 2384.11 -655.809 2319.08 -591.423L2139.41 -413.69L2139.28 -414.072Z" stroke="url(#paint48_linear_195_23701)" stroke-width="1.75" stroke-miterlimit="10" stroke-linecap="round"/>
<path d="M2130.23 -411.776L1995.32 -278.286C1954.64 -237.996 1954.64 -172.717 1995.32 -132.428L2130.1 0.935825L2130.1 0.553268L2307.73 176.246C2372 239.868 2372 342.886 2307.73 406.508L2130.1 582.073L2122.58 589.468L1946.86 767.073C1883.24 831.333 1780.2 831.333 1716.57 767.073L1540.86 589.468L1541.24 589.468L1408.25 454.957C1367.95 414.285 1302.67 414.285 1262.37 454.957L1128.99 589.851L1128.74 589.851L953.406 767.073C889.776 831.332 786.745 831.332 723.116 767.073L547.402 589.468L540.644 583.348L363.018 407.655C298.751 344.034 298.751 241.015 363.018 177.393L540.772 1.95559L675.681 -131.535C716.358 -171.825 716.358 -237.104 675.681 -277.393L540.772 -410.757L540.772 -410.374L363.145 -586.067C298.878 -649.689 298.878 -752.707 363.145 -816.329L540.772 -992.022L548.295 -999.417L724.009 -1177.02C787.638 -1241.28 890.669 -1241.28 954.299 -1177.02L1130.01 -999.416L1129.63 -999.416L1262.63 -864.906C1302.92 -824.234 1368.21 -824.234 1408.5 -864.906L1542.01 -999.799L1542.26 -999.799L1717.6 -1177.02C1781.22 -1241.28 1884.26 -1241.28 1947.89 -1177.02L2123.6 -999.416L2130.36 -993.296L2307.98 -817.476C2372.25 -753.854 2372.25 -650.836 2307.98 -587.214L2130.36 -411.521L2130.23 -411.776Z" stroke="url(#paint49_linear_195_23701)" stroke-width="1.75" stroke-miterlimit="10" stroke-linecap="round"/>
<path d="M2130.23 -411.776L1995.32 -278.286C1954.64 -237.996 1954.64 -172.717 1995.32 -132.428L2130.1 0.935825L2130.1 0.553268L2307.73 176.246C2372 239.868 2372 342.886 2307.73 406.508L2130.1 582.073L2122.58 589.468L1946.86 767.073C1883.24 831.333 1780.2 831.333 1716.57 767.073L1540.86 589.468L1541.24 589.468L1408.25 454.957C1367.95 414.285 1302.67 414.285 1262.37 454.957L1128.99 589.851L1128.74 589.851L953.406 767.073C889.776 831.332 786.745 831.332 723.116 767.073L547.402 589.468L540.644 583.348L363.018 407.655C298.751 344.034 298.751 241.015 363.018 177.393L540.772 1.95559L675.681 -131.535C716.358 -171.825 716.358 -237.104 675.681 -277.393L540.772 -410.757L540.772 -410.374L363.145 -586.067C298.878 -649.689 298.878 -752.707 363.145 -816.329L540.772 -992.022L548.295 -999.417L724.009 -1177.02C787.638 -1241.28 890.669 -1241.28 954.299 -1177.02L1130.01 -999.416L1129.63 -999.416L1262.63 -864.906C1302.92 -824.234 1368.21 -824.234 1408.5 -864.906L1542.01 -999.799L1542.26 -999.799L1717.6 -1177.02C1781.22 -1241.28 1884.26 -1241.28 1947.89 -1177.02L2123.6 -999.416L2130.36 -993.296L2307.98 -817.476C2372.25 -753.854 2372.25 -650.836 2307.98 -587.214L2130.36 -411.521L2130.23 -411.776Z" stroke="url(#paint50_linear_195_23701)" stroke-width="1.75" stroke-miterlimit="10" stroke-linecap="round"/>
</g>
<defs>
<linearGradient id="paint0_linear_195_23701" x1="-0.995234" y1="409.097" x2="309" y2="409.097" gradientUnits="userSpaceOnUse">
<stop stop-color="#B480FF"/>
<stop offset="0.328125" stop-color="#5F00E6"/>
<stop offset="0.614583" stop-color="#1AA4FF"/>
<stop offset="1" stop-color="#19FF83"/>
</linearGradient>
<linearGradient id="paint1_linear_195_23701" x1="1335.81" y1="1104.46" x2="1335.81" y2="-1514.45" gradientUnits="userSpaceOnUse">
<stop stop-color="#B480FF"/>
<stop offset="0.328125" stop-color="#5F00E6"/>
<stop offset="0.614583" stop-color="#1AA4FF"/>
<stop offset="1" stop-color="#19FF83"/>
</linearGradient>
<linearGradient id="paint2_linear_195_23701" x1="1335.81" y1="1104.46" x2="1335.81" y2="-1514.45" gradientUnits="userSpaceOnUse">
<stop stop-color="#B480FF"/>
<stop offset="0.328125" stop-color="#5F00E6"/>
<stop offset="0.614583" stop-color="#1AA4FF"/>
<stop offset="1" stop-color="#19FF83"/>
</linearGradient>
<linearGradient id="paint3_linear_195_23701" x1="1335.93" y1="1092.72" x2="1335.93" y2="-1502.45" gradientUnits="userSpaceOnUse">
<stop stop-color="#B480FF"/>
<stop offset="0.328125" stop-color="#5F00E6"/>
<stop offset="0.614583" stop-color="#1AA4FF"/>
<stop offset="1" stop-color="#19FF83"/>
</linearGradient>
<linearGradient id="paint4_linear_195_23701" x1="1335.93" y1="1092.72" x2="1335.93" y2="-1502.45" gradientUnits="userSpaceOnUse">
<stop stop-color="#B480FF"/>
<stop offset="0.328125" stop-color="#5F00E6"/>
<stop offset="0.614583" stop-color="#1AA4FF"/>
<stop offset="1" stop-color="#19FF83"/>
</linearGradient>
<linearGradient id="paint5_linear_195_23701" x1="1335.87" y1="1080.94" x2="1335.87" y2="-1490.67" gradientUnits="userSpaceOnUse">
<stop stop-color="#B480FF"/>
<stop offset="0.328125" stop-color="#5F00E6"/>
<stop offset="0.614583" stop-color="#1AA4FF"/>
<stop offset="1" stop-color="#19FF83"/>
</linearGradient>
<linearGradient id="paint6_linear_195_23701" x1="1335.87" y1="1080.94" x2="1335.87" y2="-1490.67" gradientUnits="userSpaceOnUse">
<stop stop-color="#B480FF"/>
<stop offset="0.328125" stop-color="#5F00E6"/>
<stop offset="0.614583" stop-color="#1AA4FF"/>
<stop offset="1" stop-color="#19FF83"/>
</linearGradient>
<linearGradient id="paint7_linear_195_23701" x1="1335.8" y1="1069.2" x2="1335.8" y2="-1479.06" gradientUnits="userSpaceOnUse">
<stop stop-color="#B480FF"/>
<stop offset="0.328125" stop-color="#5F00E6"/>
<stop offset="0.614583" stop-color="#1AA4FF"/>
<stop offset="1" stop-color="#19FF83"/>
</linearGradient>
<linearGradient id="paint8_linear_195_23701" x1="1335.8" y1="1069.2" x2="1335.8" y2="-1479.06" gradientUnits="userSpaceOnUse">
<stop stop-color="#B480FF"/>
<stop offset="0.328125" stop-color="#5F00E6"/>
<stop offset="0.614583" stop-color="#1AA4FF"/>
<stop offset="1" stop-color="#19FF83"/>
</linearGradient>
<linearGradient id="paint9_linear_195_23701" x1="1335.99" y1="1057.46" x2="1335.99" y2="-1467.32" gradientUnits="userSpaceOnUse">
<stop stop-color="#B480FF"/>
<stop offset="0.328125" stop-color="#5F00E6"/>
<stop offset="0.614583" stop-color="#1AA4FF"/>
<stop offset="1" stop-color="#19FF83"/>
</linearGradient>
<linearGradient id="paint10_linear_195_23701" x1="1335.99" y1="1057.46" x2="1335.99" y2="-1467.32" gradientUnits="userSpaceOnUse">
<stop stop-color="#B480FF"/>
<stop offset="0.328125" stop-color="#5F00E6"/>
<stop offset="0.614583" stop-color="#1AA4FF"/>
<stop offset="1" stop-color="#19FF83"/>
</linearGradient>
<linearGradient id="paint11_linear_195_23701" x1="1335.92" y1="1045.59" x2="1335.92" y2="-1455.45" gradientUnits="userSpaceOnUse">
<stop stop-color="#B480FF"/>
<stop offset="0.328125" stop-color="#5F00E6"/>
<stop offset="0.614583" stop-color="#1AA4FF"/>
<stop offset="1" stop-color="#19FF83"/>
</linearGradient>
<linearGradient id="paint12_linear_195_23701" x1="1335.92" y1="1045.59" x2="1335.92" y2="-1455.45" gradientUnits="userSpaceOnUse">
<stop stop-color="#B480FF"/>
<stop offset="0.328125" stop-color="#5F00E6"/>
<stop offset="0.614583" stop-color="#1AA4FF"/>
<stop offset="1" stop-color="#19FF83"/>
</linearGradient>
<linearGradient id="paint13_linear_195_23701" x1="1335.86" y1="1033.85" x2="1335.86" y2="-1443.71" gradientUnits="userSpaceOnUse">
<stop stop-color="#B480FF"/>
<stop offset="0.328125" stop-color="#5F00E6"/>
<stop offset="0.614583" stop-color="#1AA4FF"/>
<stop offset="1" stop-color="#19FF83"/>
</linearGradient>
<linearGradient id="paint14_linear_195_23701" x1="1335.86" y1="1033.85" x2="1335.86" y2="-1443.71" gradientUnits="userSpaceOnUse">
<stop stop-color="#B480FF"/>
<stop offset="0.328125" stop-color="#5F00E6"/>
<stop offset="0.614583" stop-color="#1AA4FF"/>
<stop offset="1" stop-color="#19FF83"/>
</linearGradient>
<linearGradient id="paint15_linear_195_23701" x1="1335.79" y1="1022.08" x2="1335.79" y2="-1431.93" gradientUnits="userSpaceOnUse">
<stop stop-color="#B480FF"/>
<stop offset="0.328125" stop-color="#5F00E6"/>
<stop offset="0.614583" stop-color="#1AA4FF"/>
<stop offset="1" stop-color="#19FF83"/>
</linearGradient>
<linearGradient id="paint16_linear_195_23701" x1="1335.79" y1="1022.08" x2="1335.79" y2="-1431.93" gradientUnits="userSpaceOnUse">
<stop stop-color="#B480FF"/>
<stop offset="0.328125" stop-color="#5F00E6"/>
<stop offset="0.614583" stop-color="#1AA4FF"/>
<stop offset="1" stop-color="#19FF83"/>
</linearGradient>
<linearGradient id="paint17_linear_195_23701" x1="1335.85" y1="1010.33" x2="1335.85" y2="-1420.19" gradientUnits="userSpaceOnUse">
<stop stop-color="#B480FF"/>
<stop offset="0.328125" stop-color="#5F00E6"/>
<stop offset="0.614583" stop-color="#1AA4FF"/>
<stop offset="1" stop-color="#19FF83"/>
</linearGradient>
<linearGradient id="paint18_linear_195_23701" x1="1335.85" y1="1010.33" x2="1335.85" y2="-1420.19" gradientUnits="userSpaceOnUse">
<stop stop-color="#B480FF"/>
<stop offset="0.328125" stop-color="#5F00E6"/>
<stop offset="0.614583" stop-color="#1AA4FF"/>
<stop offset="1" stop-color="#19FF83"/>
</linearGradient>
<linearGradient id="paint19_linear_195_23701" x1="1335.78" y1="998.72" x2="1335.78" y2="-1408.32" gradientUnits="userSpaceOnUse">
<stop stop-color="#B480FF"/>
<stop offset="0.328125" stop-color="#5F00E6"/>
<stop offset="0.614583" stop-color="#1AA4FF"/>
<stop offset="1" stop-color="#19FF83"/>
</linearGradient>
<linearGradient id="paint20_linear_195_23701" x1="1335.78" y1="998.72" x2="1335.78" y2="-1408.32" gradientUnits="userSpaceOnUse">
<stop stop-color="#B480FF"/>
<stop offset="0.328125" stop-color="#5F00E6"/>
<stop offset="0.614583" stop-color="#1AA4FF"/>
<stop offset="1" stop-color="#19FF83"/>
</linearGradient>
<linearGradient id="paint21_linear_195_23701" x1="1335.78" y1="986.724" x2="1335.78" y2="-1396.58" gradientUnits="userSpaceOnUse">
<stop stop-color="#B480FF"/>
<stop offset="0.328125" stop-color="#5F00E6"/>
<stop offset="0.614583" stop-color="#1AA4FF"/>
<stop offset="1" stop-color="#19FF83"/>
</linearGradient>
<linearGradient id="paint22_linear_195_23701" x1="1335.78" y1="986.724" x2="1335.78" y2="-1396.58" gradientUnits="userSpaceOnUse">
<stop stop-color="#B480FF"/>
<stop offset="0.328125" stop-color="#5F00E6"/>
<stop offset="0.614583" stop-color="#1AA4FF"/>
<stop offset="1" stop-color="#19FF83"/>
</linearGradient>
<linearGradient id="paint23_linear_195_23701" x1="1335.84" y1="974.98" x2="1335.84" y2="-1384.71" gradientUnits="userSpaceOnUse">
<stop stop-color="#B480FF"/>
<stop offset="0.328125" stop-color="#5F00E6"/>
<stop offset="0.614583" stop-color="#1AA4FF"/>
<stop offset="1" stop-color="#19FF83"/>
</linearGradient>
<linearGradient id="paint24_linear_195_23701" x1="1335.84" y1="974.98" x2="1335.84" y2="-1384.71" gradientUnits="userSpaceOnUse">
<stop stop-color="#B480FF"/>
<stop offset="0.328125" stop-color="#5F00E6"/>
<stop offset="0.614583" stop-color="#1AA4FF"/>
<stop offset="1" stop-color="#19FF83"/>
</linearGradient>
<linearGradient id="paint25_linear_195_23701" x1="1335.84" y1="963.335" x2="1335.84" y2="-1373.06" gradientUnits="userSpaceOnUse">
<stop stop-color="#B480FF"/>
<stop offset="0.328125" stop-color="#5F00E6"/>
<stop offset="0.614583" stop-color="#1AA4FF"/>
<stop offset="1" stop-color="#19FF83"/>
</linearGradient>
<linearGradient id="paint26_linear_195_23701" x1="1335.84" y1="963.335" x2="1335.84" y2="-1373.06" gradientUnits="userSpaceOnUse">
<stop stop-color="#B480FF"/>
<stop offset="0.328125" stop-color="#5F00E6"/>
<stop offset="0.614583" stop-color="#1AA4FF"/>
<stop offset="1" stop-color="#19FF83"/>
</linearGradient>
<linearGradient id="paint27_linear_195_23701" x1="1335.71" y1="951.466" x2="1335.71" y2="-1361.19" gradientUnits="userSpaceOnUse">
<stop stop-color="#B480FF"/>
<stop offset="0.328125" stop-color="#5F00E6"/>
<stop offset="0.614583" stop-color="#1AA4FF"/>
<stop offset="1" stop-color="#19FF83"/>
</linearGradient>
<linearGradient id="paint28_linear_195_23701" x1="1335.71" y1="951.466" x2="1335.71" y2="-1361.19" gradientUnits="userSpaceOnUse">
<stop stop-color="#B480FF"/>
<stop offset="0.328125" stop-color="#5F00E6"/>
<stop offset="0.614583" stop-color="#1AA4FF"/>
<stop offset="1" stop-color="#19FF83"/>
</linearGradient>
<linearGradient id="paint29_linear_195_23701" x1="1335.77" y1="939.725" x2="1335.77" y2="-1349.45" gradientUnits="userSpaceOnUse">
<stop stop-color="#B480FF"/>
<stop offset="0.328125" stop-color="#5F00E6"/>
<stop offset="0.614583" stop-color="#1AA4FF"/>
<stop offset="1" stop-color="#19FF83"/>
</linearGradient>
<linearGradient id="paint30_linear_195_23701" x1="1335.77" y1="939.725" x2="1335.77" y2="-1349.45" gradientUnits="userSpaceOnUse">
<stop stop-color="#B480FF"/>
<stop offset="0.328125" stop-color="#5F00E6"/>
<stop offset="0.614583" stop-color="#1AA4FF"/>
<stop offset="1" stop-color="#19FF83"/>
</linearGradient>
<linearGradient id="paint31_linear_195_23701" x1="1335.77" y1="927.983" x2="1335.77" y2="-1337.71" gradientUnits="userSpaceOnUse">
<stop stop-color="#B480FF"/>
<stop offset="0.328125" stop-color="#5F00E6"/>
<stop offset="0.614583" stop-color="#1AA4FF"/>
<stop offset="1" stop-color="#19FF83"/>
</linearGradient>
<linearGradient id="paint32_linear_195_23701" x1="1335.77" y1="927.983" x2="1335.77" y2="-1337.71" gradientUnits="userSpaceOnUse">
<stop stop-color="#B480FF"/>
<stop offset="0.328125" stop-color="#5F00E6"/>
<stop offset="0.614583" stop-color="#1AA4FF"/>
<stop offset="1" stop-color="#19FF83"/>
</linearGradient>
<linearGradient id="paint33_linear_195_23701" x1="1335.76" y1="916.209" x2="1335.77" y2="-1326.06" gradientUnits="userSpaceOnUse">
<stop stop-color="#B480FF"/>
<stop offset="0.328125" stop-color="#5F00E6"/>
<stop offset="0.614583" stop-color="#1AA4FF"/>
<stop offset="1" stop-color="#19FF83"/>
</linearGradient>
<linearGradient id="paint34_linear_195_23701" x1="1335.76" y1="916.209" x2="1335.77" y2="-1326.06" gradientUnits="userSpaceOnUse">
<stop stop-color="#B480FF"/>
<stop offset="0.328125" stop-color="#5F00E6"/>
<stop offset="0.614583" stop-color="#1AA4FF"/>
<stop offset="1" stop-color="#19FF83"/>
</linearGradient>
<linearGradient id="paint35_linear_195_23701" x1="1335.7" y1="904.339" x2="1335.7" y2="-1314.07" gradientUnits="userSpaceOnUse">
<stop stop-color="#B480FF"/>
<stop offset="0.328125" stop-color="#5F00E6"/>
<stop offset="0.614583" stop-color="#1AA4FF"/>
<stop offset="1" stop-color="#19FF83"/>
</linearGradient>
<linearGradient id="paint36_linear_195_23701" x1="1335.7" y1="904.339" x2="1335.7" y2="-1314.07" gradientUnits="userSpaceOnUse">
<stop stop-color="#B480FF"/>
<stop offset="0.328125" stop-color="#5F00E6"/>
<stop offset="0.614583" stop-color="#1AA4FF"/>
<stop offset="1" stop-color="#19FF83"/>
</linearGradient>
<linearGradient id="paint37_linear_195_23701" x1="1335.76" y1="892.598" x2="1335.76" y2="-1302.45" gradientUnits="userSpaceOnUse">
<stop stop-color="#B480FF"/>
<stop offset="0.328125" stop-color="#5F00E6"/>
<stop offset="0.614583" stop-color="#1AA4FF"/>
<stop offset="1" stop-color="#19FF83"/>
</linearGradient>
<linearGradient id="paint38_linear_195_23701" x1="1335.76" y1="892.598" x2="1335.76" y2="-1302.45" gradientUnits="userSpaceOnUse">
<stop stop-color="#B480FF"/>
<stop offset="0.328125" stop-color="#5F00E6"/>
<stop offset="0.614583" stop-color="#1AA4FF"/>
<stop offset="1" stop-color="#19FF83"/>
</linearGradient>
<linearGradient id="paint39_linear_195_23701" x1="1335.76" y1="880.856" x2="1335.76" y2="-1290.58" gradientUnits="userSpaceOnUse">
<stop stop-color="#B480FF"/>
<stop offset="0.328125" stop-color="#5F00E6"/>
<stop offset="0.614583" stop-color="#1AA4FF"/>
<stop offset="1" stop-color="#19FF83"/>
</linearGradient>
<linearGradient id="paint40_linear_195_23701" x1="1335.76" y1="880.856" x2="1335.76" y2="-1290.58" gradientUnits="userSpaceOnUse">
<stop stop-color="#B480FF"/>
<stop offset="0.328125" stop-color="#5F00E6"/>
<stop offset="0.614583" stop-color="#1AA4FF"/>
<stop offset="1" stop-color="#19FF83"/>
</linearGradient>
<linearGradient id="paint41_linear_195_23701" x1="1335.75" y1="868.987" x2="1335.75" y2="-1278.84" gradientUnits="userSpaceOnUse">
<stop stop-color="#B480FF"/>
<stop offset="0.328125" stop-color="#5F00E6"/>
<stop offset="0.614583" stop-color="#1AA4FF"/>
<stop offset="1" stop-color="#19FF83"/>
</linearGradient>
<linearGradient id="paint42_linear_195_23701" x1="1335.75" y1="868.987" x2="1335.75" y2="-1278.84" gradientUnits="userSpaceOnUse">
<stop stop-color="#B480FF"/>
<stop offset="0.328125" stop-color="#5F00E6"/>
<stop offset="0.614583" stop-color="#1AA4FF"/>
<stop offset="1" stop-color="#19FF83"/>
</linearGradient>
<linearGradient id="paint43_linear_195_23701" x1="1335.75" y1="857.215" x2="1335.75" y2="-1267.19" gradientUnits="userSpaceOnUse">
<stop stop-color="#B480FF"/>
<stop offset="0.328125" stop-color="#5F00E6"/>
<stop offset="0.614583" stop-color="#1AA4FF"/>
<stop offset="1" stop-color="#19FF83"/>
</linearGradient>
<linearGradient id="paint44_linear_195_23701" x1="1335.75" y1="857.215" x2="1335.75" y2="-1267.19" gradientUnits="userSpaceOnUse">
<stop stop-color="#B480FF"/>
<stop offset="0.328125" stop-color="#5F00E6"/>
<stop offset="0.614583" stop-color="#1AA4FF"/>
<stop offset="1" stop-color="#19FF83"/>
</linearGradient>
<linearGradient id="paint45_linear_195_23701" x1="1335.88" y1="845.472" x2="1335.88" y2="-1255.45" gradientUnits="userSpaceOnUse">
<stop stop-color="#B480FF"/>
<stop offset="0.328125" stop-color="#5F00E6"/>
<stop offset="0.614583" stop-color="#1AA4FF"/>
<stop offset="1" stop-color="#19FF83"/>
</linearGradient>
<linearGradient id="paint46_linear_195_23701" x1="1335.88" y1="845.472" x2="1335.88" y2="-1255.45" gradientUnits="userSpaceOnUse">
<stop stop-color="#B480FF"/>
<stop offset="0.328125" stop-color="#5F00E6"/>
<stop offset="0.614583" stop-color="#1AA4FF"/>
<stop offset="1" stop-color="#19FF83"/>
</linearGradient>
<linearGradient id="paint47_linear_195_23701" x1="1335.74" y1="833.858" x2="1335.74" y2="-1243.71" gradientUnits="userSpaceOnUse">
<stop stop-color="#B480FF"/>
<stop offset="0.328125" stop-color="#5F00E6"/>
<stop offset="0.614583" stop-color="#1AA4FF"/>
<stop offset="1" stop-color="#19FF83"/>
</linearGradient>
<linearGradient id="paint48_linear_195_23701" x1="1335.74" y1="833.858" x2="1335.74" y2="-1243.71" gradientUnits="userSpaceOnUse">
<stop stop-color="#B480FF"/>
<stop offset="0.328125" stop-color="#5F00E6"/>
<stop offset="0.614583" stop-color="#1AA4FF"/>
<stop offset="1" stop-color="#19FF83"/>
</linearGradient>
<linearGradient id="paint49_linear_195_23701" x1="1335.74" y1="821.861" x2="1335.74" y2="-1231.84" gradientUnits="userSpaceOnUse">
<stop stop-color="#B480FF"/>
<stop offset="0.328125" stop-color="#5F00E6"/>
<stop offset="0.614583" stop-color="#1AA4FF"/>
<stop offset="1" stop-color="#19FF83"/>
</linearGradient>
<linearGradient id="paint50_linear_195_23701" x1="1335.74" y1="821.861" x2="1335.74" y2="-1231.84" gradientUnits="userSpaceOnUse">
<stop stop-color="#B480FF"/>
<stop offset="0.328125" stop-color="#5F00E6"/>
<stop offset="0.614583" stop-color="#1AA4FF"/>
<stop offset="1" stop-color="#19FF83"/>
</linearGradient>
</defs>
</svg>
