<svg width="295" height="580" viewBox="0 0 295 580" fill="none" xmlns="http://www.w3.org/2000/svg">
<path d="M2315.79 519.359L2143.64 689.57C2091.75 740.952 2091.75 824.208 2143.64 875.59L2315.66 1045.67L2315.66 1045.16L2542.25 1269.18C2624.24 1350.27 2624.24 1481.72 2542.25 1562.81L2315.66 1786.82L2305.97 1796.26L2082.05 2022.56C2000.96 2104.55 1869.49 2104.55 1788.39 2022.56L1564.35 1796L1564.86 1796L1395.14 1624.52C1343.75 1572.62 1260.48 1572.62 1209.1 1624.51L1038.87 1796.64L1038.74 1796.64L815.334 2022.56C734.235 2104.55 602.769 2104.55 521.67 2022.56L297.629 1796L289.085 1788.1L62.4935 1564.21C-19.4977 1483.12 -19.4977 1351.67 62.4936 1270.58L289.213 1046.95L461.356 876.737C513.254 825.355 513.254 742.099 461.356 690.717L289.34 520.634L289.34 521.144L62.7487 297.13C-19.2425 216.041 -19.2425 84.5898 62.7487 3.50086L289.341 -220.514L299.032 -229.949L523.073 -456.513C604.172 -538.495 735.638 -538.495 816.737 -456.513L1040.65 -229.821L1040.01 -229.821L1209.73 -58.3357C1261.12 -6.44385 1344.39 -6.44384 1395.78 -58.3357L1566.01 -230.458L1566.39 -230.458L1789.92 -456.385C1871.02 -538.367 2002.49 -538.367 2083.58 -456.385L2307.37 -229.821L2315.91 -221.916L2542.51 2.09874C2624.5 83.1877 2624.5 214.638 2542.51 295.727L2315.91 519.742L2315.79 519.359Z" stroke="url(#paint0_linear_571_4503)" stroke-width="1.75" stroke-miterlimit="10" stroke-linecap="round"/>
<path d="M2315.79 519.359L2143.64 689.57C2091.75 740.952 2091.75 824.208 2143.64 875.59L2315.66 1045.67L2315.66 1045.16L2542.25 1269.18C2624.24 1350.27 2624.24 1481.72 2542.25 1562.81L2315.66 1786.82L2305.97 1796.26L2082.05 2022.56C2000.96 2104.55 1869.49 2104.55 1788.39 2022.56L1564.35 1796L1564.86 1796L1395.14 1624.52C1343.75 1572.62 1260.48 1572.62 1209.1 1624.51L1038.87 1796.64L1038.74 1796.64L815.334 2022.56C734.235 2104.55 602.769 2104.55 521.67 2022.56L297.629 1796L289.085 1788.1L62.4935 1564.21C-19.4977 1483.12 -19.4977 1351.67 62.4936 1270.58L289.213 1046.95L461.356 876.737C513.254 825.355 513.254 742.099 461.356 690.717L289.34 520.634L289.34 521.144L62.7487 297.13C-19.2425 216.041 -19.2425 84.5898 62.7487 3.50086L289.341 -220.514L299.032 -229.949L523.073 -456.513C604.172 -538.495 735.638 -538.495 816.737 -456.513L1040.65 -229.821L1040.01 -229.821L1209.73 -58.3357C1261.12 -6.44385 1344.39 -6.44384 1395.78 -58.3357L1566.01 -230.458L1566.39 -230.458L1789.92 -456.385C1871.02 -538.367 2002.49 -538.367 2083.58 -456.385L2307.37 -229.821L2315.91 -221.916L2542.51 2.09874C2624.5 83.1877 2624.5 214.638 2542.51 295.727L2315.91 519.742L2315.79 519.359Z" stroke="url(#paint1_linear_571_4503)" stroke-width="1.75" stroke-miterlimit="10" stroke-linecap="round"/>
<path d="M2306.74 521.655L2136.25 690.335C2084.73 741.207 2084.73 823.698 2136.25 874.57L2306.73 1043.12L2306.73 1042.61L2531.29 1264.59C2612.51 1344.91 2612.51 1475.21 2531.29 1555.54L2306.73 1777.51L2297.17 1786.82L2075.04 2011.47C1994.71 2092.69 1864.39 2092.69 1784.06 2011.47L1562.06 1786.95L1562.57 1786.95L1394.5 1616.99C1343.62 1565.48 1261.12 1565.48 1210.25 1616.99L1041.54 1787.46L1041.16 1787.46L819.671 2011.47C739.338 2092.69 609.019 2092.69 528.685 2011.47L306.684 1786.95L298.14 1779.17L73.7166 1557.2C-7.50959 1476.87 -7.50957 1346.57 73.7166 1266.24L298.396 1044.53L468.881 875.845C520.397 824.973 520.397 742.481 468.881 691.61L298.396 523.057L298.396 523.567L73.8443 301.592C-7.3819 221.268 -7.38189 90.9648 73.8443 10.6409L298.396 -211.334L307.959 -220.641L529.961 -445.166C610.294 -526.382 740.613 -526.382 820.947 -445.166L1042.95 -220.641L1042.44 -220.641L1210.63 -50.6856C1261.51 0.823706 1344.01 0.823716 1394.89 -50.6856L1563.59 -221.151L1563.97 -221.151L1785.46 -445.038C1865.79 -526.254 1996.11 -526.254 2076.45 -445.038L2298.45 -220.513L2306.99 -212.736L2531.54 9.23876C2612.77 89.5627 2612.77 219.866 2531.54 300.19L2306.99 522.165L2306.74 521.655Z" stroke="url(#paint2_linear_571_4503)" stroke-width="1.75" stroke-miterlimit="10" stroke-linecap="round"/>
<path d="M2306.74 521.655L2136.25 690.335C2084.73 741.207 2084.73 823.698 2136.25 874.57L2306.73 1043.12L2306.73 1042.61L2531.29 1264.59C2612.51 1344.91 2612.51 1475.21 2531.29 1555.54L2306.73 1777.51L2297.17 1786.82L2075.04 2011.47C1994.71 2092.69 1864.39 2092.69 1784.06 2011.47L1562.06 1786.95L1562.57 1786.95L1394.5 1616.99C1343.62 1565.48 1261.12 1565.48 1210.25 1616.99L1041.54 1787.46L1041.16 1787.46L819.671 2011.47C739.338 2092.69 609.019 2092.69 528.685 2011.47L306.684 1786.95L298.14 1779.17L73.7166 1557.2C-7.50959 1476.87 -7.50957 1346.57 73.7166 1266.24L298.396 1044.53L468.881 875.845C520.397 824.973 520.397 742.481 468.881 691.61L298.396 523.057L298.396 523.567L73.8443 301.592C-7.3819 221.268 -7.38189 90.9648 73.8443 10.6409L298.396 -211.334L307.959 -220.641L529.961 -445.166C610.294 -526.382 740.613 -526.382 820.947 -445.166L1042.95 -220.641L1042.44 -220.641L1210.63 -50.6856C1261.51 0.823706 1344.01 0.823716 1394.89 -50.6856L1563.59 -221.151L1563.97 -221.151L1785.46 -445.038C1865.79 -526.254 1996.11 -526.254 2076.45 -445.038L2298.45 -220.513L2306.99 -212.736L2531.54 9.23876C2612.77 89.5627 2612.77 219.866 2531.54 300.19L2306.99 522.165L2306.74 521.655Z" stroke="url(#paint3_linear_571_4503)" stroke-width="1.75" stroke-miterlimit="10" stroke-linecap="round"/>
<path d="M2297.55 524.077L2128.6 691.228C2077.59 741.717 2077.59 823.443 2128.6 873.805L2297.55 1040.83L2297.55 1040.32L2520.06 1260.25C2600.65 1339.94 2600.65 1468.97 2520.06 1548.65L2297.55 1768.59L2288.12 1777.77L2068.03 2000.25C1988.33 2080.83 1859.29 2080.83 1779.59 2000.25L1559.63 1777.77L1560.14 1777.77L1393.48 1609.34C1342.99 1558.34 1261.25 1558.34 1210.88 1609.34L1043.84 1778.41L1043.46 1778.41L824.005 2000.25C744.309 2080.83 615.265 2080.83 535.569 2000.25L315.736 1777.9L307.32 1770.25L84.8087 1550.18C4.22011 1470.5 4.22013 1341.47 84.8088 1261.78L307.448 1042.1L476.403 875.08C527.409 824.591 527.409 742.864 476.403 692.503L307.448 525.48L307.448 525.99L84.9364 306.055C4.34778 226.368 4.3478 97.34 84.9364 17.6535L307.448 -202.281L316.884 -211.461L536.845 -433.946C616.541 -514.525 745.585 -514.525 825.281 -433.946L1045.24 -211.461L1044.73 -211.461L1211.39 -43.0356C1261.89 7.9638 1343.62 7.96381 1393.99 -43.0355L1561.16 -211.971L1561.54 -211.971L1781 -433.945C1860.69 -514.524 1989.74 -514.524 2069.43 -433.945L2289.39 -211.461L2297.81 -203.811L2520.32 16.1239C2600.91 95.8104 2600.91 224.839 2520.32 304.525L2297.81 524.46L2297.55 524.077Z" stroke="url(#paint4_linear_571_4503)" stroke-width="1.75" stroke-miterlimit="10" stroke-linecap="round"/>
<path d="M2297.55 524.077L2128.6 691.228C2077.59 741.717 2077.59 823.443 2128.6 873.805L2297.55 1040.83L2297.55 1040.32L2520.06 1260.25C2600.65 1339.94 2600.65 1468.97 2520.06 1548.65L2297.55 1768.59L2288.12 1777.77L2068.03 2000.25C1988.33 2080.83 1859.29 2080.83 1779.59 2000.25L1559.63 1777.77L1560.14 1777.77L1393.48 1609.34C1342.99 1558.34 1261.25 1558.34 1210.88 1609.34L1043.84 1778.41L1043.46 1778.41L824.005 2000.25C744.309 2080.83 615.265 2080.83 535.569 2000.25L315.736 1777.9L307.32 1770.25L84.8087 1550.18C4.22011 1470.5 4.22013 1341.47 84.8088 1261.78L307.448 1042.1L476.403 875.08C527.409 824.591 527.409 742.864 476.403 692.503L307.448 525.48L307.448 525.99L84.9364 306.055C4.34778 226.368 4.3478 97.34 84.9364 17.6535L307.448 -202.281L316.884 -211.461L536.845 -433.946C616.541 -514.525 745.585 -514.525 825.281 -433.946L1045.24 -211.461L1044.73 -211.461L1211.39 -43.0356C1261.89 7.9638 1343.62 7.96381 1393.99 -43.0355L1561.16 -211.971L1561.54 -211.971L1781 -433.945C1860.69 -514.524 1989.74 -514.524 2069.43 -433.945L2289.39 -211.461L2297.81 -203.811L2520.32 16.1239C2600.91 95.8104 2600.91 224.839 2520.32 304.525L2297.81 524.46L2297.55 524.077Z" stroke="url(#paint5_linear_571_4503)" stroke-width="1.75" stroke-miterlimit="10" stroke-linecap="round"/>
<path d="M2288.5 526.501L2121.07 691.993C2070.58 741.973 2070.58 822.934 2121.07 872.914L2288.5 1038.41L2288.5 1037.9L2508.97 1255.79C2588.79 1334.71 2588.79 1462.59 2508.97 1541.51L2288.5 1759.41L2279.06 1768.59L2061.01 1989.16C1982.08 2068.98 1854.18 2068.98 1775.25 1989.16L1557.33 1768.72L1557.84 1768.72L1392.71 1601.82C1342.73 1551.33 1261.76 1551.33 1211.77 1601.82L1046.26 1769.23L1045.88 1769.23L828.465 1989.16C749.534 2068.98 621.638 2068.98 542.707 1989.16L324.658 1768.72L316.242 1761.07L95.899 1543.17C16.0754 1464.25 16.0755 1336.37 95.899 1257.45L316.498 1039.81L483.923 874.188C534.418 824.209 534.418 743.248 483.923 693.268L316.498 527.775L316.498 528.285L96.0266 310.391C16.2031 231.469 16.2031 103.588 96.0267 24.667L316.498 -193.228L325.934 -202.407L543.982 -422.852C622.913 -502.666 750.809 -502.666 829.74 -422.852L1047.66 -202.535L1047.15 -202.535L1212.15 -35.6395C1262.14 14.8498 1343.11 14.8499 1393.1 -35.6395L1558.74 -203.045L1559.12 -203.045L1776.53 -422.979C1855.46 -502.793 1983.36 -502.793 2062.29 -422.979L2280.21 -202.535L2288.62 -194.885L2509.09 23.0099C2588.92 101.931 2588.92 229.812 2509.09 308.734L2288.62 526.628L2288.5 526.501Z" stroke="url(#paint6_linear_571_4503)" stroke-width="1.75" stroke-miterlimit="10" stroke-linecap="round"/>
<path d="M2288.5 526.501L2121.07 691.993C2070.58 741.973 2070.58 822.934 2121.07 872.914L2288.5 1038.41L2288.5 1037.9L2508.97 1255.79C2588.79 1334.71 2588.79 1462.59 2508.97 1541.51L2288.5 1759.41L2279.06 1768.59L2061.01 1989.16C1982.08 2068.98 1854.18 2068.98 1775.25 1989.16L1557.33 1768.72L1557.84 1768.72L1392.71 1601.82C1342.73 1551.33 1261.76 1551.33 1211.77 1601.82L1046.26 1769.23L1045.88 1769.23L828.465 1989.16C749.534 2068.98 621.638 2068.98 542.707 1989.16L324.658 1768.72L316.242 1761.07L95.899 1543.17C16.0754 1464.25 16.0755 1336.37 95.899 1257.45L316.498 1039.81L483.923 874.188C534.418 824.209 534.418 743.248 483.923 693.268L316.498 527.775L316.498 528.285L96.0266 310.391C16.2031 231.469 16.2031 103.588 96.0267 24.667L316.498 -193.228L325.934 -202.407L543.982 -422.852C622.913 -502.666 750.809 -502.666 829.74 -422.852L1047.66 -202.535L1047.15 -202.535L1212.15 -35.6395C1262.14 14.8498 1343.11 14.8499 1393.1 -35.6395L1558.74 -203.045L1559.12 -203.045L1776.53 -422.979C1855.46 -502.793 1983.36 -502.793 2062.29 -422.979L2280.21 -202.535L2288.62 -194.885L2509.09 23.0099C2588.92 101.931 2588.92 229.812 2509.09 308.734L2288.62 526.628L2288.5 526.501Z" stroke="url(#paint7_linear_571_4503)" stroke-width="1.75" stroke-miterlimit="10" stroke-linecap="round"/>
<path d="M2279.44 528.795L2113.55 692.885C2063.44 742.355 2063.44 822.679 2113.55 872.148L2279.44 1036.11L2279.44 1035.6L2497.88 1251.58C2576.93 1329.74 2576.93 1456.47 2497.88 1534.63L2279.44 1750.61L2270.14 1759.66L2054 1977.94C1975.83 2056.99 1849.09 2056.99 1770.92 1977.94L1554.91 1759.54L1555.42 1759.54L1391.95 1594.3C1342.47 1544.19 1262.14 1544.19 1212.67 1594.3L1048.56 1760.17L1048.17 1760.17L832.675 1978.07C754.509 2057.12 627.76 2057.12 549.594 1978.07L333.586 1759.66L325.298 1752.14L107.122 1536.16C28.0636 1458 28.0636 1331.27 107.122 1253.11L325.68 1037.51L491.576 873.423C541.689 823.954 541.689 743.63 491.576 694.16L325.681 530.07L325.681 530.58L107.25 314.598C28.1913 236.441 28.1913 109.708 107.25 31.5513L325.681 -184.431L334.989 -193.483L550.997 -411.888C629.163 -490.937 755.912 -490.937 834.077 -411.888L1050.09 -193.483L1049.58 -193.483L1213.18 -28.1179C1262.65 21.989 1342.98 21.989 1392.46 -28.1179L1556.57 -193.993L1556.95 -193.993L1772.45 -411.888C1850.62 -490.937 1977.36 -490.937 2055.53 -411.888L2271.54 -193.483L2279.83 -185.961L2498.26 30.0217C2577.32 108.178 2577.32 234.912 2498.26 313.068L2279.83 529.05L2279.44 528.795Z" stroke="url(#paint8_linear_571_4503)" stroke-width="1.75" stroke-miterlimit="10" stroke-linecap="round"/>
<path d="M2279.44 528.795L2113.55 692.885C2063.44 742.355 2063.44 822.679 2113.55 872.148L2279.44 1036.11L2279.44 1035.6L2497.88 1251.58C2576.93 1329.74 2576.93 1456.47 2497.88 1534.63L2279.44 1750.61L2270.14 1759.66L2054 1977.94C1975.83 2056.99 1849.09 2056.99 1770.92 1977.94L1554.91 1759.54L1555.42 1759.54L1391.95 1594.3C1342.47 1544.19 1262.14 1544.19 1212.67 1594.3L1048.56 1760.17L1048.17 1760.17L832.675 1978.07C754.509 2057.12 627.76 2057.12 549.594 1978.07L333.586 1759.66L325.298 1752.14L107.122 1536.16C28.0636 1458 28.0636 1331.27 107.122 1253.11L325.68 1037.51L491.576 873.423C541.689 823.954 541.689 743.63 491.576 694.16L325.681 530.07L325.681 530.58L107.25 314.598C28.1913 236.441 28.1913 109.708 107.25 31.5513L325.681 -184.431L334.989 -193.483L550.997 -411.888C629.163 -490.937 755.912 -490.937 834.077 -411.888L1050.09 -193.483L1049.58 -193.483L1213.18 -28.1179C1262.65 21.989 1342.98 21.989 1392.46 -28.1179L1556.57 -193.993L1556.95 -193.993L1772.45 -411.888C1850.62 -490.937 1977.36 -490.937 2055.53 -411.888L2271.54 -193.483L2279.83 -185.961L2498.26 30.0217C2577.32 108.178 2577.32 234.912 2498.26 313.068L2279.83 529.05L2279.44 528.795Z" stroke="url(#paint9_linear_571_4503)" stroke-width="1.75" stroke-miterlimit="10" stroke-linecap="round"/>
<path d="M2270.27 531.217L2105.9 693.777C2056.3 742.864 2056.3 822.295 2105.9 871.382L2270.27 1033.69L2270.27 1033.18L2486.66 1247.12C2564.95 1324.51 2564.95 1450.1 2486.66 1527.49L2270.27 1741.43L2261.08 1750.36L2047.12 1966.72C1969.72 2045 1844.11 2045 1766.71 1966.72L1552.62 1750.48L1553.13 1750.48L1391.06 1586.65C1341.97 1537.05 1262.53 1537.05 1213.43 1586.65L1050.98 1750.99L1050.6 1750.99L837.267 1966.85C759.866 2045.13 634.265 2045.13 556.864 1966.85L342.897 1750.48L334.736 1742.96L118.345 1529.02C40.0517 1451.63 40.0517 1326.04 118.345 1248.65L334.863 1034.96L499.228 872.402C548.831 823.315 548.831 743.884 499.228 694.797L334.991 532.364L334.991 532.874L118.6 318.932C40.3069 241.54 40.3069 115.954 118.6 38.5627L334.991 -175.38L344.172 -184.304L558.012 -400.669C635.413 -478.953 761.014 -478.953 838.415 -400.669L1052.38 -184.304L1051.87 -184.304L1213.94 -20.4689C1263.04 29.1279 1342.48 29.128 1391.57 -20.4689L1554.15 -184.814L1554.53 -184.814L1767.99 -400.669C1845.39 -478.953 1970.99 -478.953 2048.39 -400.669L2262.36 -184.304L2270.52 -176.782L2486.91 37.1606C2565.2 114.552 2565.2 240.138 2486.91 317.529L2270.52 531.472L2270.27 531.217Z" stroke="url(#paint10_linear_571_4503)" stroke-width="1.75" stroke-miterlimit="10" stroke-linecap="round"/>
<path d="M2270.27 531.217L2105.9 693.777C2056.3 742.864 2056.3 822.295 2105.9 871.382L2270.27 1033.69L2270.27 1033.18L2486.66 1247.12C2564.95 1324.51 2564.95 1450.1 2486.66 1527.49L2270.27 1741.43L2261.08 1750.36L2047.12 1966.72C1969.72 2045 1844.11 2045 1766.71 1966.72L1552.62 1750.48L1553.13 1750.48L1391.06 1586.65C1341.97 1537.05 1262.53 1537.05 1213.43 1586.65L1050.98 1750.99L1050.6 1750.99L837.267 1966.85C759.866 2045.13 634.265 2045.13 556.864 1966.85L342.897 1750.48L334.736 1742.96L118.345 1529.02C40.0517 1451.63 40.0517 1326.04 118.345 1248.65L334.863 1034.96L499.228 872.402C548.831 823.315 548.831 743.884 499.228 694.797L334.991 532.364L334.991 532.874L118.6 318.932C40.3069 241.54 40.3069 115.954 118.6 38.5627L334.991 -175.38L344.172 -184.304L558.012 -400.669C635.413 -478.953 761.014 -478.953 838.415 -400.669L1052.38 -184.304L1051.87 -184.304L1213.94 -20.4689C1263.04 29.1279 1342.48 29.128 1391.57 -20.4689L1554.15 -184.814L1554.53 -184.814L1767.99 -400.669C1845.39 -478.953 1970.99 -478.953 2048.39 -400.669L2262.36 -184.304L2270.52 -176.782L2486.91 37.1606C2565.2 114.552 2565.2 240.138 2486.91 317.529L2270.52 531.472L2270.27 531.217Z" stroke="url(#paint11_linear_571_4503)" stroke-width="1.75" stroke-miterlimit="10" stroke-linecap="round"/>
<path d="M2261.21 533.511L2098.38 694.542C2049.28 743.119 2049.28 821.913 2098.38 870.49L2261.08 1031.39L2261.08 1030.88L2475.43 1242.78C2552.96 1319.54 2552.96 1443.85 2475.43 1520.6L2261.08 1732.51L2251.9 1741.43L2039.97 1955.76C1963.21 2033.27 1838.89 2033.27 1762.12 1955.76L1550.19 1741.43L1550.71 1741.43L1390.17 1579.13C1341.58 1530.04 1262.78 1530.04 1214.2 1579.13L1053.4 1741.94L1053.02 1741.94L841.602 1955.76C764.838 2033.27 640.512 2033.27 563.749 1955.76L351.822 1741.43L343.661 1734.04L129.31 1522.13C51.7821 1445.38 51.7821 1321.07 129.31 1244.31L343.788 1032.67L506.623 871.637C555.716 823.06 555.716 744.266 506.623 695.689L343.916 534.786L343.916 535.296L129.566 323.394C52.0372 246.64 52.0373 122.329 129.566 45.5751L343.916 -166.327L353.097 -175.252L565.025 -389.577C641.788 -467.096 766.114 -467.096 842.877 -389.577L1054.8 -175.252L1054.29 -175.252L1214.71 -12.9465C1263.29 36.1403 1342.09 36.1403 1390.68 -12.9465L1551.73 -175.762L1552.11 -175.762L1763.53 -389.577C1840.29 -467.096 1964.61 -467.096 2041.38 -389.577L2253.31 -175.252L2261.47 -167.857L2475.82 44.0455C2553.35 120.799 2553.35 245.11 2475.82 321.864L2261.34 533.894L2261.21 533.511Z" stroke="url(#paint12_linear_571_4503)" stroke-width="1.75" stroke-miterlimit="10" stroke-linecap="round"/>
<path d="M2261.21 533.511L2098.38 694.542C2049.28 743.119 2049.28 821.913 2098.38 870.49L2261.08 1031.39L2261.08 1030.88L2475.43 1242.78C2552.96 1319.54 2552.96 1443.85 2475.43 1520.6L2261.08 1732.51L2251.9 1741.43L2039.97 1955.76C1963.21 2033.27 1838.89 2033.27 1762.12 1955.76L1550.19 1741.43L1550.71 1741.43L1390.17 1579.13C1341.58 1530.04 1262.78 1530.04 1214.2 1579.13L1053.4 1741.94L1053.02 1741.94L841.602 1955.76C764.838 2033.27 640.512 2033.27 563.749 1955.76L351.822 1741.43L343.661 1734.04L129.31 1522.13C51.7821 1445.38 51.7821 1321.07 129.31 1244.31L343.788 1032.67L506.623 871.637C555.716 823.06 555.716 744.266 506.623 695.689L343.916 534.786L343.916 535.296L129.566 323.394C52.0372 246.64 52.0373 122.329 129.566 45.5751L343.916 -166.327L353.097 -175.252L565.025 -389.577C641.788 -467.096 766.114 -467.096 842.877 -389.577L1054.8 -175.252L1054.29 -175.252L1214.71 -12.9465C1263.29 36.1403 1342.09 36.1403 1390.68 -12.9465L1551.73 -175.762L1552.11 -175.762L1763.53 -389.577C1840.29 -467.096 1964.61 -467.096 2041.38 -389.577L2253.31 -175.252L2261.47 -167.857L2475.82 44.0455C2553.35 120.799 2553.35 245.11 2475.82 321.864L2261.34 533.894L2261.21 533.511Z" stroke="url(#paint13_linear_571_4503)" stroke-width="1.75" stroke-miterlimit="10" stroke-linecap="round"/>
<path d="M2252.03 535.935L2090.73 695.435C2042.02 743.502 2042.02 821.531 2090.73 869.726L2251.91 1029.1L2251.91 1028.59L2464.22 1238.45C2541.11 1314.44 2541.11 1437.6 2464.22 1513.59L2252.03 1723.45L2242.98 1732.25L2033.09 1944.54C1957.09 2021.42 1833.92 2021.42 1757.92 1944.54L1548.03 1732.25L1548.54 1732.25L1389.4 1571.6C1341.33 1522.9 1263.29 1522.9 1215.09 1571.6L1055.7 1732.76L1055.45 1732.76L845.941 1944.54C769.942 2021.42 646.764 2021.42 570.766 1944.54L360.879 1732.25L352.845 1724.86L140.535 1514.99C63.6446 1439.01 63.6446 1315.84 140.535 1239.85L352.973 1030.25L514.278 870.745C562.988 822.679 562.988 744.65 514.278 696.455L353.101 537.082L353.101 537.465L140.79 327.602C63.8998 251.613 63.8998 128.45 140.791 52.4612L353.101 -157.401L362.154 -166.198L572.042 -378.356C648.04 -455.237 771.218 -455.237 847.216 -378.356L1057.1 -166.071L1056.59 -166.071L1215.6 -5.29549C1263.68 43.4089 1341.71 43.4089 1389.91 -5.29547L1549.43 -166.581L1549.69 -166.581L1759.07 -378.355C1835.06 -455.237 1958.24 -455.237 2034.24 -378.355L2244.13 -166.071L2252.16 -158.676L2464.47 51.1865C2541.36 127.175 2541.36 250.339 2464.47 326.328L2252.16 536.19L2252.03 535.935Z" stroke="url(#paint14_linear_571_4503)" stroke-width="1.75" stroke-miterlimit="10" stroke-linecap="round"/>
<path d="M2252.03 535.935L2090.73 695.435C2042.02 743.502 2042.02 821.531 2090.73 869.726L2251.91 1029.1L2251.91 1028.59L2464.22 1238.45C2541.11 1314.44 2541.11 1437.6 2464.22 1513.59L2252.03 1723.45L2242.98 1732.25L2033.09 1944.54C1957.09 2021.42 1833.92 2021.42 1757.92 1944.54L1548.03 1732.25L1548.54 1732.25L1389.4 1571.6C1341.33 1522.9 1263.29 1522.9 1215.09 1571.6L1055.7 1732.76L1055.45 1732.76L845.941 1944.54C769.942 2021.42 646.764 2021.42 570.766 1944.54L360.879 1732.25L352.845 1724.86L140.535 1514.99C63.6446 1439.01 63.6446 1315.84 140.535 1239.85L352.973 1030.25L514.278 870.745C562.988 822.679 562.988 744.65 514.278 696.455L353.101 537.082L353.101 537.465L140.79 327.602C63.8998 251.613 63.8998 128.45 140.791 52.4612L353.101 -157.401L362.154 -166.198L572.042 -378.356C648.04 -455.237 771.218 -455.237 847.216 -378.356L1057.1 -166.071L1056.59 -166.071L1215.6 -5.29549C1263.68 43.4089 1341.71 43.4089 1389.91 -5.29547L1549.43 -166.581L1549.69 -166.581L1759.07 -378.355C1835.06 -455.237 1958.24 -455.237 2034.24 -378.355L2244.13 -166.071L2252.16 -158.676L2464.47 51.1865C2541.36 127.175 2541.36 250.339 2464.47 326.328L2252.16 536.19L2252.03 535.935Z" stroke="url(#paint15_linear_571_4503)" stroke-width="1.75" stroke-miterlimit="10" stroke-linecap="round"/>
<path d="M2242.98 538.357L2083.21 696.328C2035.01 744.012 2035 821.276 2083.21 868.96L2242.85 1026.8L2242.85 1026.42L2453.12 1234.24C2529.25 1309.47 2529.25 1431.48 2453.12 1506.71L2242.85 1714.53L2233.93 1723.2L2026.08 1933.44C1950.85 2009.56 1828.82 2009.56 1753.58 1933.44L1545.74 1723.2L1546.25 1723.2L1388.77 1563.95C1341.08 1515.76 1263.8 1515.76 1216.11 1563.95L1058.12 1723.71L1057.87 1723.71L850.403 1933.44C775.17 2009.56 653.139 2009.56 577.906 1933.44L370.059 1723.2L362.153 1715.93L151.883 1508.11C75.7577 1432.89 75.7577 1310.87 151.883 1235.65L362.281 1028.08L522.056 870.108C570.256 822.423 570.256 745.159 522.056 697.475L362.409 539.632L362.409 540.015L152.139 332.192C76.0129 256.968 76.0129 134.952 152.139 59.7283L362.409 -148.094L371.335 -156.764L579.182 -367.009C654.415 -443.125 776.445 -443.125 851.679 -367.009L1059.53 -156.764L1059.02 -156.764L1216.37 2.22668C1264.06 50.4211 1341.33 50.4211 1389.02 2.2267L1547.01 -157.529L1547.27 -157.529L1754.73 -367.264C1829.96 -443.38 1951.99 -443.38 2027.23 -367.263L2235.07 -157.019L2242.98 -149.751L2453.25 58.0712C2529.38 133.295 2529.38 255.311 2453.25 330.535L2242.98 538.357V538.357Z" stroke="url(#paint16_linear_571_4503)" stroke-width="1.75" stroke-miterlimit="10" stroke-linecap="round"/>
<path d="M2242.98 538.357L2083.21 696.328C2035.01 744.012 2035 821.276 2083.21 868.96L2242.85 1026.8L2242.85 1026.42L2453.12 1234.24C2529.25 1309.47 2529.25 1431.48 2453.12 1506.71L2242.85 1714.53L2233.93 1723.2L2026.08 1933.44C1950.85 2009.56 1828.82 2009.56 1753.58 1933.44L1545.74 1723.2L1546.25 1723.2L1388.77 1563.95C1341.08 1515.76 1263.8 1515.76 1216.11 1563.95L1058.12 1723.71L1057.87 1723.71L850.403 1933.44C775.17 2009.56 653.139 2009.56 577.906 1933.44L370.059 1723.2L362.153 1715.93L151.883 1508.11C75.7577 1432.89 75.7577 1310.87 151.883 1235.65L362.281 1028.08L522.056 870.108C570.256 822.423 570.256 745.159 522.056 697.475L362.409 539.632L362.409 540.015L152.139 332.192C76.0129 256.968 76.0129 134.952 152.139 59.7283L362.409 -148.094L371.335 -156.764L579.182 -367.009C654.415 -443.125 776.445 -443.125 851.679 -367.009L1059.53 -156.764L1059.02 -156.764L1216.37 2.22668C1264.06 50.4211 1341.33 50.4211 1389.02 2.2267L1547.01 -157.529L1547.27 -157.529L1754.73 -367.264C1829.96 -443.38 1951.99 -443.38 2027.23 -367.263L2235.07 -157.019L2242.98 -149.751L2453.25 58.0712C2529.38 133.295 2529.38 255.311 2453.25 330.535L2242.98 538.357V538.357Z" stroke="url(#paint17_linear_571_4503)" stroke-width="1.75" stroke-miterlimit="10" stroke-linecap="round"/>
<path d="M2233.79 540.652L2075.68 697.092C2027.99 744.267 2027.99 820.766 2075.68 867.94L2233.79 1024.25L2233.79 1023.87L2442.02 1229.78C2517.38 1304.37 2517.38 1425.11 2442.02 1499.69L2233.79 1705.6L2224.87 1714.27L2018.93 1922.48C1944.34 1997.83 1823.58 1997.83 1748.99 1922.48L1543.05 1714.27L1543.56 1714.27L1387.74 1556.43C1340.56 1508.75 1264.05 1508.75 1216.87 1556.43L1060.41 1714.53L1060.16 1714.53L854.732 1922.22C780.137 1997.58 659.381 1997.58 584.786 1922.22L378.851 1714.02L370.946 1706.75L162.716 1500.84C87.3552 1426.25 87.3553 1305.51 162.716 1230.93L371.073 1025.27L529.19 868.832C576.88 821.658 576.88 745.159 529.19 697.984L371.073 541.671L371.073 542.054L162.843 336.144C87.4829 261.557 87.4829 140.816 162.844 66.2299L371.201 -139.297L380.127 -147.967L586.061 -356.045C660.657 -431.396 781.412 -431.396 856.008 -356.044L1061.94 -147.84L1061.43 -147.84L1217.25 9.74837C1264.43 57.4328 1340.94 57.4328 1388.12 9.7484L1544.58 -148.35L1544.84 -148.35L1750.26 -356.044C1824.86 -431.396 1945.61 -431.396 2020.21 -356.044L2226.14 -147.839L2234.05 -140.572L2442.28 65.3378C2517.64 139.924 2517.64 260.665 2442.28 335.252L2234.05 541.162L2233.79 540.652Z" stroke="url(#paint18_linear_571_4503)" stroke-width="1.75" stroke-miterlimit="10" stroke-linecap="round"/>
<path d="M2233.79 540.652L2075.68 697.092C2027.99 744.267 2027.99 820.766 2075.68 867.94L2233.79 1024.25L2233.79 1023.87L2442.02 1229.78C2517.38 1304.37 2517.38 1425.11 2442.02 1499.69L2233.79 1705.6L2224.87 1714.27L2018.93 1922.48C1944.34 1997.83 1823.58 1997.83 1748.99 1922.48L1543.05 1714.27L1543.56 1714.27L1387.74 1556.43C1340.56 1508.75 1264.05 1508.75 1216.87 1556.43L1060.41 1714.53L1060.16 1714.53L854.732 1922.22C780.137 1997.58 659.381 1997.58 584.786 1922.22L378.851 1714.02L370.946 1706.75L162.716 1500.84C87.3552 1426.25 87.3553 1305.51 162.716 1230.93L371.073 1025.27L529.19 868.832C576.88 821.658 576.88 745.159 529.19 697.984L371.073 541.671L371.073 542.054L162.843 336.144C87.4829 261.557 87.4829 140.816 162.844 66.2299L371.201 -139.297L380.127 -147.967L586.061 -356.045C660.657 -431.396 781.412 -431.396 856.008 -356.044L1061.94 -147.84L1061.43 -147.84L1217.25 9.74837C1264.43 57.4328 1340.94 57.4328 1388.12 9.7484L1544.58 -148.35L1544.84 -148.35L1750.26 -356.044C1824.86 -431.396 1945.61 -431.396 2020.21 -356.044L2226.14 -147.839L2234.05 -140.572L2442.28 65.3378C2517.64 139.924 2517.64 260.665 2442.28 335.252L2234.05 541.162L2233.79 540.652Z" stroke="url(#paint19_linear_571_4503)" stroke-width="1.75" stroke-miterlimit="10" stroke-linecap="round"/>
<path d="M2224.74 543.075L2068.15 697.986C2020.85 744.778 2020.85 820.512 2068.15 867.176L2224.61 1021.96L2224.61 1021.58L2430.8 1225.45C2505.4 1299.27 2505.4 1418.86 2430.8 1492.68L2224.61 1696.43L2215.81 1704.97L2011.92 1911.13C1938.09 1985.72 1818.48 1985.72 1744.65 1911.13L1540.76 1704.97L1541.27 1704.97L1386.85 1548.91C1340.05 1501.61 1264.31 1501.61 1217.64 1548.91L1062.84 1705.48L1062.58 1705.48L859.07 1911.13C785.239 1985.72 665.631 1985.72 591.801 1911.13L387.907 1704.97L380.128 1697.83L173.939 1493.96C99.3434 1420.14 99.3434 1300.54 173.939 1226.72L380.256 1023.11L536.843 868.196C584.15 821.404 584.15 745.67 536.843 699.006L380.256 544.223L380.256 544.605L174.194 340.863C99.5986 267.041 99.5986 147.448 174.194 73.6262L380.384 -130.244L389.182 -138.786L593.076 -344.951C666.907 -419.537 786.515 -419.537 860.345 -344.951L1064.24 -138.786L1063.73 -138.786L1218.15 17.2721C1264.95 64.574 1340.69 64.574 1387.36 17.2721L1542.29 -139.296L1542.54 -139.296L1745.93 -344.951C1819.76 -419.537 1939.37 -419.537 2013.2 -344.951L2217.09 -138.786L2224.87 -131.646L2431.06 72.224C2505.65 146.046 2505.65 265.639 2431.06 339.461L2224.87 543.33L2224.74 543.075Z" stroke="url(#paint20_linear_571_4503)" stroke-width="1.75" stroke-miterlimit="10" stroke-linecap="round"/>
<path d="M2224.74 543.075L2068.15 697.986C2020.85 744.778 2020.85 820.512 2068.15 867.176L2224.61 1021.96L2224.61 1021.58L2430.8 1225.45C2505.4 1299.27 2505.4 1418.86 2430.8 1492.68L2224.61 1696.43L2215.81 1704.97L2011.92 1911.13C1938.09 1985.72 1818.48 1985.72 1744.65 1911.13L1540.76 1704.97L1541.27 1704.97L1386.85 1548.91C1340.05 1501.61 1264.31 1501.61 1217.64 1548.91L1062.84 1705.48L1062.58 1705.48L859.07 1911.13C785.239 1985.72 665.631 1985.72 591.801 1911.13L387.907 1704.97L380.128 1697.83L173.939 1493.96C99.3434 1420.14 99.3434 1300.54 173.939 1226.72L380.256 1023.11L536.843 868.196C584.15 821.404 584.15 745.67 536.843 699.006L380.256 544.223L380.256 544.605L174.194 340.863C99.5986 267.041 99.5986 147.448 174.194 73.6262L380.384 -130.244L389.182 -138.786L593.076 -344.951C666.907 -419.537 786.515 -419.537 860.345 -344.951L1064.24 -138.786L1063.73 -138.786L1218.15 17.2721C1264.95 64.574 1340.69 64.574 1387.36 17.2721L1542.29 -139.296L1542.54 -139.296L1745.93 -344.951C1819.76 -419.537 1939.37 -419.537 2013.2 -344.951L2217.09 -138.786L2224.87 -131.646L2431.06 72.224C2505.65 146.046 2505.65 265.639 2431.06 339.461L2224.87 543.33L2224.74 543.075Z" stroke="url(#paint21_linear_571_4503)" stroke-width="1.75" stroke-miterlimit="10" stroke-linecap="round"/>
<path d="M2215.56 545.368L2060.51 698.749C2013.71 745.031 2013.71 820 2060.51 866.282L2215.56 1019.53L2215.56 1019.15L2419.71 1220.98C2493.54 1294.04 2493.54 1412.48 2419.71 1485.54L2215.56 1687.37L2206.89 1695.79L2005.04 1899.91C1931.97 1973.73 1813.51 1973.73 1740.45 1899.91L1538.59 1695.79L1539.1 1695.79L1386.21 1541.26C1339.93 1494.47 1264.95 1494.47 1218.66 1541.26L1065.13 1696.3L1064.88 1696.3L863.535 1900.04C790.469 1973.86 672.009 1973.86 598.944 1900.04L397.09 1695.91L389.311 1688.9L185.162 1487.07C111.332 1414.01 111.332 1295.57 185.162 1222.51L389.439 1020.94L544.496 867.557C591.293 821.275 591.293 746.306 544.496 700.024L389.439 546.643L389.439 547.026L185.29 345.196C111.459 272.139 111.459 153.693 185.29 80.6366L389.439 -121.193L398.11 -129.608L600.092 -333.733C673.157 -407.555 791.617 -407.555 864.683 -333.733L1066.54 -129.608L1066.03 -129.608L1218.92 24.92C1265.2 71.7119 1340.18 71.7119 1386.47 24.92L1539.87 -130.118L1540.12 -130.118L1741.47 -333.733C1814.53 -407.554 1932.99 -407.554 2006.06 -333.733L2208.04 -129.608L2215.82 -122.596L2419.97 79.2344C2493.8 152.291 2493.8 270.737 2419.97 343.794L2215.69 545.623L2215.56 545.368Z" stroke="url(#paint22_linear_571_4503)" stroke-width="1.75" stroke-miterlimit="10" stroke-linecap="round"/>
<path d="M2215.56 545.368L2060.51 698.749C2013.71 745.031 2013.71 820 2060.51 866.282L2215.56 1019.53L2215.56 1019.15L2419.71 1220.98C2493.54 1294.04 2493.54 1412.48 2419.71 1485.54L2215.56 1687.37L2206.89 1695.79L2005.04 1899.91C1931.97 1973.73 1813.51 1973.73 1740.45 1899.91L1538.59 1695.79L1539.1 1695.79L1386.21 1541.26C1339.93 1494.47 1264.95 1494.47 1218.66 1541.26L1065.13 1696.3L1064.88 1696.3L863.535 1900.04C790.469 1973.86 672.009 1973.86 598.944 1900.04L397.09 1695.91L389.311 1688.9L185.162 1487.07C111.332 1414.01 111.332 1295.57 185.162 1222.51L389.439 1020.94L544.496 867.557C591.293 821.275 591.293 746.306 544.496 700.024L389.439 546.643L389.439 547.026L185.29 345.196C111.459 272.139 111.459 153.693 185.29 80.6366L389.439 -121.193L398.11 -129.608L600.092 -333.733C673.157 -407.555 791.617 -407.555 864.683 -333.733L1066.54 -129.608L1066.03 -129.608L1218.92 24.92C1265.2 71.7119 1340.18 71.7119 1386.47 24.92L1539.87 -130.118L1540.12 -130.118L1741.47 -333.733C1814.53 -407.554 1932.99 -407.554 2006.06 -333.733L2208.04 -129.608L2215.82 -122.596L2419.97 79.2344C2493.8 152.291 2493.8 270.737 2419.97 343.794L2215.69 545.623L2215.56 545.368Z" stroke="url(#paint23_linear_571_4503)" stroke-width="1.75" stroke-miterlimit="10" stroke-linecap="round"/>
<path d="M2206.51 547.791L2052.98 699.642C2006.69 745.413 2006.69 819.745 2052.98 865.517L2206.38 1017.24L2206.38 1016.86L2408.49 1216.65C2481.68 1288.94 2481.68 1406.24 2408.49 1478.66L2206.38 1678.45L2197.71 1686.86L1997.89 1888.95C1925.59 1962.13 1808.28 1962.13 1735.85 1888.95L1536.04 1686.86L1536.55 1686.86L1385.19 1533.86C1339.41 1487.58 1265.07 1487.58 1219.3 1533.86L1067.55 1687.24L1067.3 1687.24L867.868 1888.82C795.568 1962 678.256 1962 605.828 1888.82L406.014 1686.73L398.363 1679.72L196.254 1479.93C123.061 1407.64 123.061 1290.34 196.254 1217.92L398.491 1018.39L552.017 866.664C598.305 820.892 598.305 746.561 552.017 700.789L398.491 549.066L398.491 549.448L196.382 349.658C123.189 277.367 123.189 160.068 196.382 87.6493L398.618 -112.141L407.289 -120.556L607.103 -322.64C679.404 -395.824 796.716 -395.824 869.144 -322.64L1068.96 -120.555L1068.45 -120.556L1219.81 32.4425C1265.58 78.7244 1339.92 78.7245 1385.7 32.4426L1537.57 -121.065L1537.83 -121.065L1737.26 -322.64C1809.56 -395.824 1926.87 -395.824 1999.3 -322.64L2199.11 -120.555L2206.76 -113.543L2408.87 86.2471C2482.06 158.539 2482.06 275.837 2408.87 348.256L2206.76 548.046L2206.51 547.791Z" stroke="url(#paint24_linear_571_4503)" stroke-width="1.75" stroke-miterlimit="10" stroke-linecap="round"/>
<path d="M2206.51 547.791L2052.98 699.642C2006.69 745.413 2006.69 819.745 2052.98 865.517L2206.38 1017.24L2206.38 1016.86L2408.49 1216.65C2481.68 1288.94 2481.68 1406.24 2408.49 1478.66L2206.38 1678.45L2197.71 1686.86L1997.89 1888.95C1925.59 1962.13 1808.28 1962.13 1735.85 1888.95L1536.04 1686.86L1536.55 1686.86L1385.19 1533.86C1339.41 1487.58 1265.07 1487.58 1219.3 1533.86L1067.55 1687.24L1067.3 1687.24L867.868 1888.82C795.568 1962 678.256 1962 605.828 1888.82L406.014 1686.73L398.363 1679.72L196.254 1479.93C123.061 1407.64 123.061 1290.34 196.254 1217.92L398.491 1018.39L552.017 866.664C598.305 820.892 598.305 746.561 552.017 700.789L398.491 549.066L398.491 549.448L196.382 349.658C123.189 277.367 123.189 160.068 196.382 87.6493L398.618 -112.141L407.289 -120.556L607.103 -322.64C679.404 -395.824 796.716 -395.824 869.144 -322.64L1068.96 -120.555L1068.45 -120.556L1219.81 32.4425C1265.58 78.7244 1339.92 78.7245 1385.7 32.4426L1537.57 -121.065L1537.83 -121.065L1737.26 -322.64C1809.56 -395.824 1926.87 -395.824 1999.3 -322.64L2199.11 -120.555L2206.76 -113.543L2408.87 86.2471C2482.06 158.539 2482.06 275.837 2408.87 348.256L2206.76 548.046L2206.51 547.791Z" stroke="url(#paint25_linear_571_4503)" stroke-width="1.75" stroke-miterlimit="10" stroke-linecap="round"/>
<path d="M2197.45 550.214L2045.46 700.535C1999.55 745.924 1999.55 819.363 2045.46 864.752L2197.33 1014.95L2197.33 1014.56L2397.4 1212.31C2469.82 1283.97 2469.82 1399.99 2397.4 1471.64L2197.33 1669.39L2188.78 1677.68L1991.01 1877.73C1919.35 1950.15 1803.31 1950.15 1731.65 1877.73L1533.87 1677.68L1534.38 1677.68L1384.56 1526.21C1339.16 1480.31 1265.71 1480.31 1220.32 1526.21L1069.98 1678.06L1069.72 1678.06L872.206 1877.73C800.543 1950.15 684.506 1950.15 612.843 1877.73L415.069 1677.68L407.546 1670.8L207.477 1473.05C135.049 1401.39 135.049 1285.37 207.477 1213.72L407.674 1016.22L559.67 865.9C605.575 820.51 605.575 747.071 559.67 701.682L407.801 551.489L407.801 551.871L207.732 354.121C135.305 282.467 135.305 166.444 207.732 94.7896L407.801 -102.96L416.345 -111.248L613.991 -311.42C685.653 -383.839 801.691 -383.839 873.354 -311.42L1071.13 -111.375L1070.62 -111.375L1220.45 40.0929C1265.84 85.9923 1339.29 85.9923 1384.68 40.0929L1535.02 -111.885L1535.28 -111.885L1732.67 -311.42C1804.33 -383.839 1920.37 -383.839 1992.03 -311.42L2189.8 -111.375L2197.33 -104.49L2397.4 93.26C2469.82 164.914 2469.82 280.938 2397.4 352.592L2197.58 550.469L2197.45 550.214Z" stroke="url(#paint26_linear_571_4503)" stroke-width="1.75" stroke-miterlimit="10" stroke-linecap="round"/>
<path d="M2197.45 550.214L2045.46 700.535C1999.55 745.924 1999.55 819.363 2045.46 864.752L2197.33 1014.95L2197.33 1014.56L2397.4 1212.31C2469.82 1283.97 2469.82 1399.99 2397.4 1471.64L2197.33 1669.39L2188.78 1677.68L1991.01 1877.73C1919.35 1950.15 1803.31 1950.15 1731.65 1877.73L1533.87 1677.68L1534.38 1677.68L1384.56 1526.21C1339.16 1480.31 1265.71 1480.31 1220.32 1526.21L1069.98 1678.06L1069.72 1678.06L872.206 1877.73C800.543 1950.15 684.506 1950.15 612.843 1877.73L415.069 1677.68L407.546 1670.8L207.477 1473.05C135.049 1401.39 135.049 1285.37 207.477 1213.72L407.674 1016.22L559.67 865.9C605.575 820.51 605.575 747.071 559.67 701.682L407.801 551.489L407.801 551.871L207.732 354.121C135.305 282.467 135.305 166.444 207.732 94.7896L407.801 -102.96L416.345 -111.248L613.991 -311.42C685.653 -383.839 801.691 -383.839 873.354 -311.42L1071.13 -111.375L1070.62 -111.375L1220.45 40.0929C1265.84 85.9923 1339.29 85.9923 1384.68 40.0929L1535.02 -111.885L1535.28 -111.885L1732.67 -311.42C1804.33 -383.839 1920.37 -383.839 1992.03 -311.42L2189.8 -111.375L2197.33 -104.49L2397.4 93.26C2469.82 164.914 2469.82 280.938 2397.4 352.592L2197.58 550.469L2197.45 550.214Z" stroke="url(#paint27_linear_571_4503)" stroke-width="1.75" stroke-miterlimit="10" stroke-linecap="round"/>
<path d="M2188.27 552.509L2037.8 701.3C1992.41 746.179 1992.41 818.981 2037.8 863.86L2188.14 1012.52L2188.14 1012.14L2386.17 1207.98C2457.83 1278.87 2457.83 1393.74 2386.17 1464.63L2188.14 1660.47L2179.73 1668.63L1983.87 1866.63C1912.97 1938.29 1798.08 1938.29 1727.18 1866.63L1531.32 1668.63L1531.83 1668.63L1383.53 1518.69C1338.65 1473.3 1265.84 1473.3 1220.95 1518.69L1072.14 1669.14L1071.89 1669.14L876.665 1866.51C805.768 1938.16 690.878 1938.16 619.98 1866.51L424.119 1668.5L416.596 1661.62L218.567 1465.91C146.905 1395.02 146.905 1280.14 218.567 1209.25L416.724 1013.67L567.19 864.88C612.585 820.001 612.585 747.199 567.19 702.32L416.851 553.657L416.851 554.039L218.823 358.329C147.16 287.44 147.16 172.564 218.823 101.675L416.851 -94.1624L425.267 -102.322L621.128 -300.327C692.026 -371.981 806.915 -371.981 877.813 -300.327L1073.55 -102.322L1073.04 -102.322L1221.33 47.6158C1266.22 93.0052 1339.03 93.0052 1383.91 47.6158L1532.72 -102.832L1532.98 -102.832L1728.33 -300.327C1799.23 -371.981 1914.12 -371.981 1985.01 -300.327L2180.87 -102.322L2188.4 -95.4372L2386.43 100.4C2458.09 171.289 2458.09 286.165 2386.43 357.055L2188.4 552.892L2188.27 552.509Z" stroke="url(#paint28_linear_571_4503)" stroke-width="1.75" stroke-miterlimit="10" stroke-linecap="round"/>
<path d="M2188.27 552.509L2037.8 701.3C1992.41 746.179 1992.41 818.981 2037.8 863.86L2188.14 1012.52L2188.14 1012.14L2386.17 1207.98C2457.83 1278.87 2457.83 1393.74 2386.17 1464.63L2188.14 1660.47L2179.73 1668.63L1983.87 1866.63C1912.97 1938.29 1798.08 1938.29 1727.18 1866.63L1531.32 1668.63L1531.83 1668.63L1383.53 1518.69C1338.65 1473.3 1265.84 1473.3 1220.95 1518.69L1072.14 1669.14L1071.89 1669.14L876.665 1866.51C805.768 1938.16 690.878 1938.16 619.98 1866.51L424.119 1668.5L416.596 1661.62L218.567 1465.91C146.905 1395.02 146.905 1280.14 218.567 1209.25L416.724 1013.67L567.19 864.88C612.585 820.001 612.585 747.199 567.19 702.32L416.851 553.657L416.851 554.039L218.823 358.329C147.16 287.44 147.16 172.564 218.823 101.675L416.851 -94.1624L425.267 -102.322L621.128 -300.327C692.026 -371.981 806.915 -371.981 877.813 -300.327L1073.55 -102.322L1073.04 -102.322L1221.33 47.6158C1266.22 93.0052 1339.03 93.0052 1383.91 47.6158L1532.72 -102.832L1532.98 -102.832L1728.33 -300.327C1799.23 -371.981 1914.12 -371.981 1985.01 -300.327L2180.87 -102.322L2188.4 -95.4372L2386.43 100.4C2458.09 171.289 2458.09 286.165 2386.43 357.055L2188.4 552.892L2188.27 552.509Z" stroke="url(#paint29_linear_571_4503)" stroke-width="1.75" stroke-miterlimit="10" stroke-linecap="round"/>
<path d="M2179.22 554.932L2030.28 702.192C1985.4 746.562 1985.4 818.598 2030.28 863.095L2179.09 1010.23L2179.09 1009.85L2375.08 1203.64C2445.98 1273.77 2445.98 1387.5 2375.08 1457.62L2179.09 1651.42L2170.68 1659.58L1976.85 1855.54C1906.72 1926.43 1792.98 1926.43 1722.85 1855.54L1529.03 1659.58L1529.54 1659.58L1382.77 1511.17C1338.39 1466.29 1266.35 1466.29 1221.85 1511.17L1074.7 1659.96L1074.44 1659.96L881.003 1855.41C810.87 1926.3 697.128 1926.3 626.995 1855.41L433.175 1659.45L425.779 1652.69L229.79 1458.89C158.893 1388.77 158.893 1275.04 229.79 1204.92L425.906 1011.38L574.715 864.115C619.6 819.746 619.6 747.709 574.715 703.212L425.907 556.079L425.907 556.461L229.918 362.664C159.021 292.54 159.021 178.811 229.918 108.687L425.907 -85.1103L434.323 -93.2702L628.143 -289.235C698.276 -360.124 812.018 -360.124 882.151 -289.235L1075.97 -93.2701L1075.46 -93.2701L1222.23 55.138C1266.6 100.017 1338.65 100.017 1383.15 55.138L1530.43 -93.7801L1530.69 -93.7801L1724 -289.235C1794.13 -360.124 1907.87 -360.124 1978 -289.235L2171.82 -93.27L2179.22 -86.5125L2375.21 107.285C2446.11 177.409 2446.11 291.138 2375.21 361.262L2179.22 555.059L2179.22 554.932Z" stroke="url(#paint30_linear_571_4503)" stroke-width="1.75" stroke-miterlimit="10" stroke-linecap="round"/>
<path d="M2179.22 554.932L2030.28 702.192C1985.4 746.562 1985.4 818.598 2030.28 863.095L2179.09 1010.23L2179.09 1009.85L2375.08 1203.64C2445.98 1273.77 2445.98 1387.5 2375.08 1457.62L2179.09 1651.42L2170.68 1659.58L1976.85 1855.54C1906.72 1926.43 1792.98 1926.43 1722.85 1855.54L1529.03 1659.58L1529.54 1659.58L1382.77 1511.17C1338.39 1466.29 1266.35 1466.29 1221.85 1511.17L1074.7 1659.96L1074.44 1659.96L881.003 1855.41C810.87 1926.3 697.128 1926.3 626.995 1855.41L433.175 1659.45L425.779 1652.69L229.79 1458.89C158.893 1388.77 158.893 1275.04 229.79 1204.92L425.906 1011.38L574.715 864.115C619.6 819.746 619.6 747.709 574.715 703.212L425.907 556.079L425.907 556.461L229.918 362.664C159.021 292.54 159.021 178.811 229.918 108.687L425.907 -85.1103L434.323 -93.2702L628.143 -289.235C698.276 -360.124 812.018 -360.124 882.151 -289.235L1075.97 -93.2701L1075.46 -93.2701L1222.23 55.138C1266.6 100.017 1338.65 100.017 1383.15 55.138L1530.43 -93.7801L1530.69 -93.7801L1724 -289.235C1794.13 -360.124 1907.87 -360.124 1978 -289.235L2171.82 -93.27L2179.22 -86.5125L2375.21 107.285C2446.11 177.409 2446.11 291.138 2375.21 361.262L2179.22 555.059L2179.22 554.932Z" stroke="url(#paint31_linear_571_4503)" stroke-width="1.75" stroke-miterlimit="10" stroke-linecap="round"/>
<path d="M2170.04 557.226L2022.76 702.956C1978.26 746.943 1978.26 818.215 2022.76 862.202L2170.04 1007.8L2170.04 1007.42L2363.99 1199.18C2434.25 1268.54 2434.25 1381.12 2363.99 1450.61L2170.04 1642.36L2161.75 1650.4L1969.97 1844.32C1900.6 1914.57 1788.01 1914.57 1718.51 1844.32L1526.73 1650.4L1527.24 1650.4L1382 1503.52C1338.01 1459.02 1266.73 1459.02 1222.74 1503.52L1076.99 1650.78L1076.73 1650.78L885.337 1844.19C815.969 1914.45 703.375 1914.45 633.88 1844.19L442.099 1650.27L434.703 1643.51L240.883 1451.88C170.623 1382.52 170.623 1269.94 240.883 1200.45L434.958 1008.95L582.237 863.222C626.739 819.235 626.739 747.963 582.237 703.976L434.958 558.373L434.958 558.756L241.01 366.998C170.75 297.639 170.75 185.058 241.01 115.571L434.959 -76.186L443.247 -84.2185L635.028 -278.143C704.395 -348.395 816.99 -348.395 886.484 -278.143L1078.27 -84.0908L1077.75 -84.0908L1222.99 62.7872C1266.99 107.284 1338.27 107.284 1382.26 62.7873L1528.01 -84.4733L1528.26 -84.4733L1719.66 -277.888C1789.03 -348.14 1901.62 -348.14 1971.12 -277.888L2162.9 -83.9632L2170.29 -77.2058L2364.11 114.424C2434.37 183.783 2434.37 296.364 2364.11 365.851L2170.16 557.608L2170.04 557.226Z" stroke="url(#paint32_linear_571_4503)" stroke-width="1.75" stroke-miterlimit="10" stroke-linecap="round"/>
<path d="M2170.04 557.226L2022.76 702.956C1978.26 746.943 1978.26 818.215 2022.76 862.202L2170.04 1007.8L2170.04 1007.42L2363.99 1199.18C2434.25 1268.54 2434.25 1381.12 2363.99 1450.61L2170.04 1642.36L2161.75 1650.4L1969.97 1844.32C1900.6 1914.57 1788.01 1914.57 1718.51 1844.32L1526.73 1650.4L1527.24 1650.4L1382 1503.52C1338.01 1459.02 1266.73 1459.02 1222.74 1503.52L1076.99 1650.78L1076.73 1650.78L885.337 1844.19C815.969 1914.45 703.375 1914.45 633.88 1844.19L442.099 1650.27L434.703 1643.51L240.883 1451.88C170.623 1382.52 170.623 1269.94 240.883 1200.45L434.958 1008.95L582.237 863.222C626.739 819.235 626.739 747.963 582.237 703.976L434.958 558.373L434.958 558.756L241.01 366.998C170.75 297.639 170.75 185.058 241.01 115.571L434.959 -76.186L443.247 -84.2185L635.028 -278.143C704.395 -348.395 816.99 -348.395 886.484 -278.143L1078.27 -84.0908L1077.75 -84.0908L1222.99 62.7872C1266.99 107.284 1338.27 107.284 1382.26 62.7873L1528.01 -84.4733L1528.26 -84.4733L1719.66 -277.888C1789.03 -348.14 1901.62 -348.14 1971.12 -277.888L2162.9 -83.9632L2170.29 -77.2058L2364.11 114.424C2434.37 183.783 2434.37 296.364 2364.11 365.851L2170.16 557.608L2170.04 557.226Z" stroke="url(#paint33_linear_571_4503)" stroke-width="1.75" stroke-miterlimit="10" stroke-linecap="round"/>
<path d="M2160.99 559.648L2015.24 703.849C1971.25 747.326 1971.25 817.833 2015.24 861.437L2160.99 1005.51L2160.99 1005.13L2352.9 1194.85C2422.39 1263.57 2422.39 1374.87 2352.9 1443.59L2160.86 1633.31L2152.7 1641.22L1962.96 1833.1C1894.23 1902.59 1782.91 1902.59 1714.18 1833.1L1524.44 1641.22L1524.95 1641.22L1381.24 1495.87C1337.76 1451.88 1267.24 1451.88 1223.63 1495.87L1079.42 1641.73L1079.16 1641.73L889.804 1833.1C821.074 1902.59 709.755 1902.59 641.025 1833.1L451.284 1641.22L444.016 1634.59L251.981 1444.87C182.486 1376.15 182.486 1264.84 251.981 1196.12L444.016 1006.66L589.892 862.457C633.884 818.98 633.884 748.473 589.892 704.869L444.144 560.796L444.144 561.178L252.236 371.461C182.741 302.739 182.741 191.433 252.236 122.711L444.144 -67.0061L452.305 -74.911L642.045 -266.796C710.775 -336.283 822.094 -336.283 890.824 -266.796L1080.56 -74.9109L1080.05 -74.9109L1223.76 70.4373C1267.24 114.424 1337.76 114.424 1381.37 70.4373L1525.59 -75.2934L1525.84 -75.2934L1715.2 -266.668C1783.93 -336.155 1895.25 -336.155 1963.98 -266.668L2153.72 -74.7833L2160.99 -68.1533L2352.9 121.564C2422.39 190.286 2422.39 301.592 2352.9 370.313L2160.99 560.031L2160.99 559.648Z" stroke="url(#paint34_linear_571_4503)" stroke-width="1.75" stroke-miterlimit="10" stroke-linecap="round"/>
<path d="M2160.99 559.648L2015.24 703.849C1971.25 747.326 1971.25 817.833 2015.24 861.437L2160.99 1005.51L2160.99 1005.13L2352.9 1194.85C2422.39 1263.57 2422.39 1374.87 2352.9 1443.59L2160.86 1633.31L2152.7 1641.22L1962.96 1833.1C1894.23 1902.59 1782.91 1902.59 1714.18 1833.1L1524.44 1641.22L1524.95 1641.22L1381.24 1495.87C1337.76 1451.88 1267.24 1451.88 1223.63 1495.87L1079.42 1641.73L1079.16 1641.73L889.804 1833.1C821.074 1902.59 709.755 1902.59 641.025 1833.1L451.284 1641.22L444.016 1634.59L251.981 1444.87C182.486 1376.15 182.486 1264.84 251.981 1196.12L444.016 1006.66L589.892 862.457C633.884 818.98 633.884 748.473 589.892 704.869L444.144 560.796L444.144 561.178L252.236 371.461C182.741 302.739 182.741 191.433 252.236 122.711L444.144 -67.0061L452.305 -74.911L642.045 -266.796C710.775 -336.283 822.094 -336.283 890.824 -266.796L1080.56 -74.9109L1080.05 -74.9109L1223.76 70.4373C1267.24 114.424 1337.76 114.424 1381.37 70.4373L1525.59 -75.2934L1525.84 -75.2934L1715.2 -266.668C1783.93 -336.155 1895.25 -336.155 1963.98 -266.668L2153.72 -74.7833L2160.99 -68.1533L2352.9 121.564C2422.39 190.286 2422.39 301.592 2352.9 370.313L2160.99 560.031L2160.99 559.648Z" stroke="url(#paint35_linear_571_4503)" stroke-width="1.75" stroke-miterlimit="10" stroke-linecap="round"/>
<path d="M2151.81 562.071L2007.59 704.742C1964.11 747.837 1964.11 817.578 2007.59 860.545L2151.81 1003.09L2151.81 1002.71L2341.68 1190.38C2410.41 1258.34 2410.41 1368.5 2341.68 1436.45L2151.81 1624.13L2143.65 1632.04L1955.82 1821.88C1887.86 1890.6 1777.68 1890.6 1709.72 1821.88L1522.02 1632.16L1522.53 1632.16L1380.35 1488.35C1337.25 1444.87 1267.5 1444.87 1224.53 1488.35L1081.71 1632.55L1081.46 1632.55L894.141 1822.01C826.176 1890.73 716.005 1890.73 648.04 1822.01L460.212 1632.16L453.072 1625.53L263.204 1437.86C194.474 1369.9 194.474 1259.74 263.204 1191.79L453.199 1004.24L597.417 861.565C640.899 818.47 640.899 748.729 597.417 705.762L453.199 563.219L453.199 563.601L263.331 375.796C194.601 307.84 194.602 197.681 263.331 129.724L453.199 -58.0806L461.36 -65.9854L649.06 -255.83C717.025 -324.552 827.197 -324.552 895.162 -255.83L1082.99 -65.9853L1082.48 -65.9853L1224.66 77.8328C1267.76 121.31 1337.51 121.31 1380.48 77.8329L1523.17 -66.3678L1523.42 -66.3678L1710.74 -255.83C1778.7 -324.552 1888.88 -324.552 1956.84 -255.83L2144.67 -65.9852L2151.81 -59.3554L2341.8 128.45C2410.53 196.406 2410.53 306.565 2341.8 374.522L2151.94 562.327L2151.81 562.071Z" stroke="url(#paint36_linear_571_4503)" stroke-width="1.75" stroke-miterlimit="10" stroke-linecap="round"/>
<path d="M2151.81 562.071L2007.59 704.742C1964.11 747.837 1964.11 817.578 2007.59 860.545L2151.81 1003.09L2151.81 1002.71L2341.68 1190.38C2410.41 1258.34 2410.41 1368.5 2341.68 1436.45L2151.81 1624.13L2143.65 1632.04L1955.82 1821.88C1887.86 1890.6 1777.68 1890.6 1709.72 1821.88L1522.02 1632.16L1522.53 1632.16L1380.35 1488.35C1337.25 1444.87 1267.5 1444.87 1224.53 1488.35L1081.71 1632.55L1081.46 1632.55L894.141 1822.01C826.176 1890.73 716.005 1890.73 648.04 1822.01L460.212 1632.16L453.072 1625.53L263.204 1437.86C194.474 1369.9 194.474 1259.74 263.204 1191.79L453.199 1004.24L597.417 861.565C640.899 818.47 640.899 748.729 597.417 705.762L453.199 563.219L453.199 563.601L263.331 375.796C194.601 307.84 194.602 197.681 263.331 129.724L453.199 -58.0806L461.36 -65.9854L649.06 -255.83C717.025 -324.552 827.197 -324.552 895.162 -255.83L1082.99 -65.9853L1082.48 -65.9853L1224.66 77.8328C1267.76 121.31 1337.51 121.31 1380.48 77.8329L1523.17 -66.3678L1523.42 -66.3678L1710.74 -255.83C1778.7 -324.552 1888.88 -324.552 1956.84 -255.83L2144.67 -65.9852L2151.81 -59.3554L2341.8 128.45C2410.53 196.406 2410.53 306.565 2341.8 374.522L2151.94 562.327L2151.81 562.071Z" stroke="url(#paint37_linear_571_4503)" stroke-width="1.75" stroke-miterlimit="10" stroke-linecap="round"/>
<path d="M2142.75 564.366L2000.07 705.507C1956.97 748.091 1956.97 817.068 2000.07 859.652L2142.75 1000.67L2142.75 1000.28L2330.45 1186.05C2398.42 1253.24 2398.42 1362.25 2330.45 1429.57L2142.63 1615.34L2134.59 1623.11L1948.81 1810.92C1881.61 1878.87 1772.58 1878.87 1705.25 1810.92L1519.47 1623.11L1519.98 1623.11L1379.33 1480.82C1336.74 1437.73 1267.76 1437.73 1225.17 1480.82L1084.14 1623.49L1083.88 1623.49L898.476 1810.79C831.276 1878.75 722.252 1878.75 654.925 1810.79L469.137 1622.98L461.997 1616.48L274.169 1430.72C206.204 1363.53 206.204 1254.51 274.169 1187.2L462.252 1001.81L604.939 860.672C648.039 818.088 648.039 749.111 604.939 706.527L462.379 565.513L462.379 565.896L274.552 380.131C206.587 312.939 206.587 203.928 274.552 136.609L462.379 -49.0285L470.413 -56.806L656.2 -244.611C723.4 -312.568 832.424 -312.568 899.751 -244.611L1085.54 -56.806L1085.03 -56.806L1225.68 85.4824C1268.27 128.577 1337.25 128.577 1379.84 85.4824L1521 -57.1883L1521.25 -57.1883L1706.53 -244.611C1773.73 -312.567 1882.75 -312.567 1950.08 -244.611L2135.87 -56.8058L2143.01 -50.3033L2330.84 135.462C2398.8 202.653 2398.8 311.665 2330.84 378.984L2143.01 564.749L2142.75 564.366Z" stroke="url(#paint38_linear_571_4503)" stroke-width="1.75" stroke-miterlimit="10" stroke-linecap="round"/>
<path d="M2142.75 564.366L2000.07 705.507C1956.97 748.091 1956.97 817.068 2000.07 859.652L2142.75 1000.67L2142.75 1000.28L2330.45 1186.05C2398.42 1253.24 2398.42 1362.25 2330.45 1429.57L2142.63 1615.34L2134.59 1623.11L1948.81 1810.92C1881.61 1878.87 1772.58 1878.87 1705.25 1810.92L1519.47 1623.11L1519.98 1623.11L1379.33 1480.82C1336.74 1437.73 1267.76 1437.73 1225.17 1480.82L1084.14 1623.49L1083.88 1623.49L898.476 1810.79C831.276 1878.75 722.252 1878.75 654.925 1810.79L469.137 1622.98L461.997 1616.48L274.169 1430.72C206.204 1363.53 206.204 1254.51 274.169 1187.2L462.252 1001.81L604.939 860.672C648.039 818.088 648.039 749.111 604.939 706.527L462.379 565.513L462.379 565.896L274.552 380.131C206.587 312.939 206.587 203.928 274.552 136.609L462.379 -49.0285L470.413 -56.806L656.2 -244.611C723.4 -312.568 832.424 -312.568 899.751 -244.611L1085.54 -56.806L1085.03 -56.806L1225.68 85.4824C1268.27 128.577 1337.25 128.577 1379.84 85.4824L1521 -57.1883L1521.25 -57.1883L1706.53 -244.611C1773.73 -312.567 1882.75 -312.567 1950.08 -244.611L2135.87 -56.8058L2143.01 -50.3033L2330.84 135.462C2398.8 202.653 2398.8 311.665 2330.84 378.984L2143.01 564.749L2142.75 564.366Z" stroke="url(#paint39_linear_571_4503)" stroke-width="1.75" stroke-miterlimit="10" stroke-linecap="round"/>
<path d="M2133.57 566.789L1992.54 706.272C1949.95 748.347 1949.95 816.686 1992.54 858.76L2133.57 998.244L2133.57 997.861L2319.36 1181.59C2386.56 1248.14 2386.56 1355.88 2319.36 1422.43L2133.57 1606.16L2125.67 1613.81L1941.92 1799.57C1875.36 1866.76 1767.61 1866.76 1701.05 1799.57L1517.3 1613.81L1517.81 1613.81L1378.69 1473.17C1336.61 1430.59 1268.26 1430.59 1226.19 1473.17L1086.56 1614.32L1086.3 1614.32L902.938 1799.7C836.376 1866.89 728.627 1866.89 662.065 1799.7L478.318 1613.93L471.304 1607.56L285.517 1423.83C218.317 1357.28 218.317 1249.54 285.517 1182.99L471.432 999.518L612.59 859.908C655.179 817.833 655.179 749.494 612.59 707.42L471.56 567.936L471.56 568.319L285.772 384.594C218.572 318.04 218.573 210.304 285.772 143.749L471.56 -39.9757L479.465 -47.6256L663.213 -233.391C729.775 -300.582 837.524 -300.582 904.086 -233.391L1087.83 -47.6255L1087.2 -47.6255L1226.31 93.0051C1268.39 135.59 1336.74 135.59 1378.82 93.0051L1518.45 -48.1355L1518.7 -48.1355L1702.07 -233.518C1768.63 -300.71 1876.38 -300.71 1942.94 -233.518L2126.69 -47.7529L2133.7 -41.3779L2319.49 142.475C2386.69 209.029 2386.69 316.765 2319.49 383.319L2133.7 567.044L2133.57 566.789Z" stroke="url(#paint40_linear_571_4503)" stroke-width="1.75" stroke-miterlimit="10" stroke-linecap="round"/>
<path d="M2133.57 566.789L1992.54 706.272C1949.95 748.347 1949.95 816.686 1992.54 858.76L2133.57 998.244L2133.57 997.861L2319.36 1181.59C2386.56 1248.14 2386.56 1355.88 2319.36 1422.43L2133.57 1606.16L2125.67 1613.81L1941.92 1799.57C1875.36 1866.76 1767.61 1866.76 1701.05 1799.57L1517.3 1613.81L1517.81 1613.81L1378.69 1473.17C1336.61 1430.59 1268.26 1430.59 1226.19 1473.17L1086.56 1614.32L1086.3 1614.32L902.938 1799.7C836.376 1866.89 728.627 1866.89 662.065 1799.7L478.318 1613.93L471.304 1607.56L285.517 1423.83C218.317 1357.28 218.317 1249.54 285.517 1182.99L471.432 999.518L612.59 859.908C655.179 817.833 655.179 749.494 612.59 707.42L471.56 567.936L471.56 568.319L285.772 384.594C218.572 318.04 218.573 210.304 285.772 143.749L471.56 -39.9757L479.465 -47.6256L663.213 -233.391C729.775 -300.582 837.524 -300.582 904.086 -233.391L1087.83 -47.6255L1087.2 -47.6255L1226.31 93.0051C1268.39 135.59 1336.74 135.59 1378.82 93.0051L1518.45 -48.1355L1518.7 -48.1355L1702.07 -233.518C1768.63 -300.71 1876.38 -300.71 1942.94 -233.518L2126.69 -47.7529L2133.7 -41.3779L2319.49 142.475C2386.69 209.029 2386.69 316.765 2319.49 383.319L2133.7 567.044L2133.57 566.789Z" stroke="url(#paint41_linear_571_4503)" stroke-width="1.75" stroke-miterlimit="10" stroke-linecap="round"/>
<path d="M2124.52 569.085L1984.89 707.166C1942.81 748.858 1942.81 816.304 1984.89 857.996L2124.39 995.95L2124.39 995.567L2308.14 1177.25C2374.7 1243.04 2374.7 1349.63 2308.14 1415.42L2124.52 1597.23L2116.61 1604.88L1934.9 1788.48C1869.11 1855.03 1762.51 1855.03 1696.71 1788.48L1515 1604.75L1515.51 1604.75L1377.93 1465.65C1336.23 1423.58 1268.77 1423.58 1227.08 1465.65L1088.85 1605.26L1088.6 1605.26L907.272 1788.48C841.475 1855.03 734.874 1855.03 669.076 1788.48L487.37 1604.75L480.356 1598.38L296.609 1416.69C230.047 1350.9 230.047 1244.32 296.609 1178.53L480.484 997.097L620.111 859.016C662.191 817.324 662.191 749.878 620.111 708.186L480.611 570.232L480.611 570.615L296.864 388.93C230.302 323.141 230.302 216.552 296.864 150.763L480.612 -30.9222L488.517 -38.5721L670.224 -222.297C736.021 -288.851 842.623 -288.851 908.42 -222.297L1090.13 -38.572L1089.62 -38.572L1227.2 100.529C1268.9 142.603 1336.36 142.603 1378.05 100.529L1516.15 -39.082L1516.41 -39.082L1697.73 -222.424C1763.53 -288.979 1870.13 -288.979 1935.92 -222.424L2117.63 -38.5719L2124.65 -32.197L2308.39 149.488C2374.95 215.277 2374.95 321.866 2308.39 387.655L2124.65 569.34L2124.52 569.085Z" stroke="url(#paint42_linear_571_4503)" stroke-width="1.75" stroke-miterlimit="10" stroke-linecap="round"/>
<path d="M2124.52 569.085L1984.89 707.166C1942.81 748.858 1942.81 816.304 1984.89 857.996L2124.39 995.95L2124.39 995.567L2308.14 1177.25C2374.7 1243.04 2374.7 1349.63 2308.14 1415.42L2124.52 1597.23L2116.61 1604.88L1934.9 1788.48C1869.11 1855.03 1762.51 1855.03 1696.71 1788.48L1515 1604.75L1515.51 1604.75L1377.93 1465.65C1336.23 1423.58 1268.77 1423.58 1227.08 1465.65L1088.85 1605.26L1088.6 1605.26L907.272 1788.48C841.475 1855.03 734.874 1855.03 669.076 1788.48L487.37 1604.75L480.356 1598.38L296.609 1416.69C230.047 1350.9 230.047 1244.32 296.609 1178.53L480.484 997.097L620.111 859.016C662.191 817.324 662.191 749.878 620.111 708.186L480.611 570.232L480.611 570.615L296.864 388.93C230.302 323.141 230.302 216.552 296.864 150.763L480.612 -30.9222L488.517 -38.5721L670.224 -222.297C736.021 -288.851 842.623 -288.851 908.42 -222.297L1090.13 -38.572L1089.62 -38.572L1227.2 100.529C1268.9 142.603 1336.36 142.603 1378.05 100.529L1516.15 -39.082L1516.41 -39.082L1697.73 -222.424C1763.53 -288.979 1870.13 -288.979 1935.92 -222.424L2117.63 -38.5719L2124.65 -32.197L2308.39 149.488C2374.95 215.277 2374.95 321.866 2308.39 387.655L2124.65 569.34L2124.52 569.085Z" stroke="url(#paint43_linear_571_4503)" stroke-width="1.75" stroke-miterlimit="10" stroke-linecap="round"/>
<path d="M2115.34 571.506L1977.24 708.056C1935.54 749.238 1935.54 816.047 1977.24 857.229L2115.21 993.653L2115.21 993.27L2296.92 1172.92C2362.71 1237.94 2362.71 1343.38 2296.92 1408.4L2115.21 1588.05L2107.43 1595.57L1927.76 1777.26C1862.73 1843.05 1757.28 1843.05 1692.25 1777.26L1512.58 1595.57L1513.09 1595.57L1377.03 1458C1335.84 1416.31 1269.03 1416.31 1227.84 1458L1091.27 1596.08L1091.02 1596.08L911.734 1777.38C846.702 1843.17 741.249 1843.17 676.217 1777.38L496.55 1595.7L489.664 1589.45L307.957 1409.81C242.16 1344.78 242.16 1239.34 307.957 1174.32L489.792 994.927L627.889 858.377C669.586 817.195 669.586 750.386 627.889 709.204L489.919 572.78L489.919 573.163L308.212 393.518C242.415 328.494 242.415 223.052 308.212 158.028L489.664 -21.9993L497.443 -29.5218L677.11 -211.207C742.142 -276.996 847.595 -276.996 912.627 -211.207L1092.29 -29.5217L1091.78 -29.5217L1227.84 108.049C1269.03 149.741 1335.85 149.741 1377.03 108.049L1513.6 -30.0317L1513.85 -30.0317L1693.14 -211.334C1758.17 -277.123 1863.62 -277.123 1928.66 -211.334L2108.58 -29.5216L2115.46 -23.2741L2297.3 156.499C2363.1 221.523 2363.1 326.964 2297.3 391.988L2115.59 571.633L2115.34 571.506Z" stroke="url(#paint44_linear_571_4503)" stroke-width="1.75" stroke-miterlimit="10" stroke-linecap="round"/>
<path d="M2115.34 571.506L1977.24 708.056C1935.54 749.238 1935.54 816.047 1977.24 857.229L2115.21 993.653L2115.21 993.27L2296.92 1172.92C2362.71 1237.94 2362.71 1343.38 2296.92 1408.4L2115.21 1588.05L2107.43 1595.57L1927.76 1777.26C1862.73 1843.05 1757.28 1843.05 1692.25 1777.26L1512.58 1595.57L1513.09 1595.57L1377.03 1458C1335.84 1416.31 1269.03 1416.31 1227.84 1458L1091.27 1596.08L1091.02 1596.08L911.734 1777.38C846.702 1843.17 741.249 1843.17 676.217 1777.38L496.55 1595.7L489.664 1589.45L307.957 1409.81C242.16 1344.78 242.16 1239.34 307.957 1174.32L489.792 994.927L627.889 858.377C669.586 817.195 669.586 750.386 627.889 709.204L489.919 572.78L489.919 573.163L308.212 393.518C242.415 328.494 242.415 223.052 308.212 158.028L489.664 -21.9993L497.443 -29.5218L677.11 -211.207C742.142 -276.996 847.595 -276.996 912.627 -211.207L1092.29 -29.5217L1091.78 -29.5217L1227.84 108.049C1269.03 149.741 1335.85 149.741 1377.03 108.049L1513.6 -30.0317L1513.85 -30.0317L1693.14 -211.334C1758.17 -277.123 1863.62 -277.123 1928.66 -211.334L2108.58 -29.5216L2115.46 -23.2741L2297.3 156.499C2363.1 221.523 2363.1 326.964 2297.3 391.988L2115.59 571.633L2115.34 571.506Z" stroke="url(#paint45_linear_571_4503)" stroke-width="1.75" stroke-miterlimit="10" stroke-linecap="round"/>
<path d="M2106.28 573.928L1969.84 708.948C1928.65 749.62 1928.65 815.664 1969.84 856.464L2106.28 991.357L2106.28 990.975L2285.95 1168.71C2350.98 1232.97 2350.98 1337.26 2285.95 1401.65L2106.28 1579.38L2098.63 1586.77L1920.88 1766.42C1856.61 1831.44 1752.3 1831.44 1687.91 1766.42L1510.15 1586.77L1510.54 1586.77L1376.01 1450.73C1335.33 1409.55 1269.28 1409.55 1228.48 1450.73L1093.57 1587.03L1093.31 1587.03L916.069 1766.29C851.802 1831.32 747.496 1831.32 683.101 1766.29L505.347 1586.65L498.589 1580.4L318.922 1402.67C253.891 1338.41 253.891 1234.11 318.922 1169.73L498.717 992.249L635.284 857.229C676.471 816.557 676.471 750.513 635.284 709.713L498.844 574.82L498.844 575.202L319.178 397.47C254.146 333.21 254.146 228.917 319.178 164.53L498.844 -13.2027L506.495 -20.5976L684.249 -200.243C748.516 -265.267 852.822 -265.267 917.217 -200.243L1094.97 -20.5975L1094.59 -20.5975L1228.86 115.698C1269.54 156.88 1335.59 156.88 1376.39 115.698L1511.43 -20.7248L1511.69 -20.7248L1688.93 -199.988C1753.2 -265.012 1857.5 -265.012 1921.9 -199.988L2099.65 -20.3422L2106.41 -14.0949L2286.08 163.638C2351.11 227.897 2351.11 332.191 2286.08 396.577L2106.41 574.31L2106.28 573.928Z" stroke="url(#paint46_linear_571_4503)" stroke-width="1.75" stroke-miterlimit="10" stroke-linecap="round"/>
<path d="M2106.28 573.928L1969.84 708.948C1928.65 749.62 1928.65 815.664 1969.84 856.464L2106.28 991.357L2106.28 990.975L2285.95 1168.71C2350.98 1232.97 2350.98 1337.26 2285.95 1401.65L2106.28 1579.38L2098.63 1586.77L1920.88 1766.42C1856.61 1831.44 1752.3 1831.44 1687.91 1766.42L1510.15 1586.77L1510.54 1586.77L1376.01 1450.73C1335.33 1409.55 1269.28 1409.55 1228.48 1450.73L1093.57 1587.03L1093.31 1587.03L916.069 1766.29C851.802 1831.32 747.496 1831.32 683.101 1766.29L505.347 1586.65L498.589 1580.4L318.922 1402.67C253.891 1338.41 253.891 1234.11 318.922 1169.73L498.717 992.249L635.284 857.229C676.471 816.557 676.471 750.513 635.284 709.713L498.844 574.82L498.844 575.202L319.178 397.47C254.146 333.21 254.146 228.917 319.178 164.53L498.844 -13.2027L506.495 -20.5976L684.249 -200.243C748.516 -265.267 852.822 -265.267 917.217 -200.243L1094.97 -20.5975L1094.59 -20.5975L1228.86 115.698C1269.54 156.88 1335.59 156.88 1376.39 115.698L1511.43 -20.7248L1511.69 -20.7248L1688.93 -199.988C1753.2 -265.012 1857.5 -265.012 1921.9 -199.988L2099.65 -20.3422L2106.41 -14.0949L2286.08 163.638C2351.11 227.897 2351.11 332.191 2286.08 396.577L2106.41 574.31L2106.28 573.928Z" stroke="url(#paint47_linear_571_4503)" stroke-width="1.75" stroke-miterlimit="10" stroke-linecap="round"/>
<path d="M2097.23 576.224L1962.32 709.714C1921.65 750.004 1921.65 815.283 1962.32 855.572L2097.1 988.936L2097.1 988.553L2274.73 1164.25C2339 1227.87 2339 1330.89 2274.73 1394.51L2097.1 1570.07L2089.58 1577.47L1913.87 1755.07C1850.24 1819.33 1747.21 1819.33 1683.58 1755.07L1507.86 1577.47L1508.25 1577.47L1375.25 1442.96C1334.96 1402.29 1269.67 1402.29 1229.37 1442.96L1096 1577.85L1095.74 1577.85L920.409 1755.07C856.779 1819.33 753.748 1819.33 690.119 1755.07L514.405 1577.47L507.647 1571.35L330.021 1395.66C265.754 1332.03 265.754 1229.01 330.021 1165.39L507.775 989.956L642.684 856.465C683.361 816.175 683.361 750.896 642.684 710.607L507.775 577.243L507.775 577.626L330.148 401.933C265.881 338.311 265.881 235.293 330.148 171.671L507.775 -4.02171L515.298 -11.4165L691.012 -189.022C754.641 -253.281 857.672 -253.281 921.302 -189.022L1097.02 -11.4164L1096.63 -11.4164L1229.63 123.094C1269.92 163.766 1335.21 163.766 1375.51 123.094L1509.01 -11.7989L1509.27 -11.7989L1684.6 -189.022C1748.23 -253.281 1851.26 -253.281 1914.89 -189.022L2090.6 -11.4163L2097.36 -5.29648L2274.99 170.524C2339.25 234.146 2339.25 337.164 2274.99 400.786L2097.36 576.479L2097.23 576.224Z" stroke="url(#paint48_linear_571_4503)" stroke-width="1.75" stroke-miterlimit="10" stroke-linecap="round"/>
<path d="M2097.23 576.224L1962.32 709.714C1921.65 750.004 1921.65 815.283 1962.32 855.572L2097.1 988.936L2097.1 988.553L2274.73 1164.25C2339 1227.87 2339 1330.89 2274.73 1394.51L2097.1 1570.07L2089.58 1577.47L1913.87 1755.07C1850.24 1819.33 1747.21 1819.33 1683.58 1755.07L1507.86 1577.47L1508.25 1577.47L1375.25 1442.96C1334.96 1402.29 1269.67 1402.29 1229.37 1442.96L1096 1577.85L1095.74 1577.85L920.409 1755.07C856.779 1819.33 753.748 1819.33 690.119 1755.07L514.405 1577.47L507.647 1571.35L330.021 1395.66C265.754 1332.03 265.754 1229.01 330.021 1165.39L507.775 989.956L642.684 856.465C683.361 816.175 683.361 750.896 642.684 710.607L507.775 577.243L507.775 577.626L330.148 401.933C265.881 338.311 265.881 235.293 330.148 171.671L507.775 -4.02171L515.298 -11.4165L691.012 -189.022C754.641 -253.281 857.672 -253.281 921.302 -189.022L1097.02 -11.4164L1096.63 -11.4164L1229.63 123.094C1269.92 163.766 1335.21 163.766 1375.51 123.094L1509.01 -11.7989L1509.27 -11.7989L1684.6 -189.022C1748.23 -253.281 1851.26 -253.281 1914.89 -189.022L2090.6 -11.4163L2097.36 -5.29648L2274.99 170.524C2339.25 234.146 2339.25 337.164 2274.99 400.786L2097.36 576.479L2097.23 576.224Z" stroke="url(#paint49_linear_571_4503)" stroke-width="1.75" stroke-miterlimit="10" stroke-linecap="round"/>
<path d="M2088.05 578.646L1954.67 710.607C1914.37 750.386 1914.37 814.901 1954.67 854.808L2088.05 986.513L2088.05 986.131L2263.63 1159.78C2327.26 1222.64 2327.26 1324.51 2263.63 1387.37L2088.05 1561.02L2080.52 1568.29L1906.85 1743.85C1843.99 1807.48 1742.1 1807.48 1679.24 1743.85L1505.56 1568.29L1505.95 1568.29L1374.48 1435.31C1334.7 1395.02 1270.17 1395.02 1230.26 1435.31L1098.29 1568.8L1098.03 1568.8L924.868 1743.98C862.003 1807.6 760.12 1807.6 697.256 1743.98L523.582 1568.42L516.951 1562.3L341.238 1388.64C277.608 1325.79 277.608 1223.92 341.238 1161.06L516.952 987.661L650.331 855.7C690.625 815.92 690.625 751.406 650.331 711.499L516.952 579.666L516.952 580.048L341.365 406.396C277.736 343.539 277.736 241.668 341.365 178.811L516.952 5.15837L524.475 -2.10913L698.149 -177.674C761.013 -241.296 862.896 -241.296 925.76 -177.674L1099.43 -2.10905L1099.05 -2.10905L1230.52 130.872C1270.3 171.161 1334.82 171.161 1374.74 130.872L1506.71 -2.4914L1506.97 -2.4914L1680.26 -177.674C1743.12 -241.296 1845.01 -241.296 1907.87 -177.674L2081.54 -2.10893L2088.18 4.01106L2263.76 177.664C2327.39 240.52 2327.39 342.392 2263.76 405.248L2088.17 578.901L2088.05 578.646Z" stroke="url(#paint50_linear_571_4503)" stroke-width="1.75" stroke-miterlimit="10" stroke-linecap="round"/>
<path d="M2088.05 578.646L1954.67 710.607C1914.37 750.386 1914.37 814.901 1954.67 854.808L2088.05 986.513L2088.05 986.131L2263.63 1159.78C2327.26 1222.64 2327.26 1324.51 2263.63 1387.37L2088.05 1561.02L2080.52 1568.29L1906.85 1743.85C1843.99 1807.48 1742.1 1807.48 1679.24 1743.85L1505.56 1568.29L1505.95 1568.29L1374.48 1435.31C1334.7 1395.02 1270.17 1395.02 1230.26 1435.31L1098.29 1568.8L1098.03 1568.8L924.868 1743.98C862.003 1807.6 760.12 1807.6 697.256 1743.98L523.582 1568.42L516.951 1562.3L341.238 1388.64C277.608 1325.79 277.608 1223.92 341.238 1161.06L516.952 987.661L650.331 855.7C690.625 815.92 690.625 751.406 650.331 711.499L516.952 579.666L516.952 580.048L341.365 406.396C277.736 343.539 277.736 241.668 341.365 178.811L516.952 5.15837L524.475 -2.10913L698.149 -177.674C761.013 -241.296 862.896 -241.296 925.76 -177.674L1099.43 -2.10905L1099.05 -2.10905L1230.52 130.872C1270.3 171.161 1334.82 171.161 1374.74 130.872L1506.71 -2.4914L1506.97 -2.4914L1680.26 -177.674C1743.12 -241.296 1845.01 -241.296 1907.87 -177.674L2081.54 -2.10893L2088.18 4.01106L2263.76 177.664C2327.39 240.52 2327.39 342.392 2263.76 405.248L2088.17 578.901L2088.05 578.646Z" stroke="url(#paint51_linear_571_4503)" stroke-width="1.75" stroke-miterlimit="10" stroke-linecap="round"/>
<path d="M2079 580.942L1947.15 711.373C1907.36 750.77 1907.36 814.519 1947.15 853.916L2079 984.219L2079 983.837L2252.54 1155.45C2315.41 1217.54 2315.41 1318.26 2252.54 1380.48L2079 1552.1L2071.6 1559.24L1899.97 1732.76C1837.87 1795.62 1737.13 1795.62 1674.91 1732.76L1503.27 1559.24L1503.66 1559.24L1373.72 1427.79C1334.32 1388.01 1270.56 1388.01 1231.16 1427.79L1100.71 1559.62L1100.46 1559.62L929.207 1732.76C867.108 1795.62 766.372 1795.62 704.146 1732.76L532.512 1559.24L525.882 1553.24L352.336 1381.63C289.472 1319.54 289.472 1218.82 352.336 1156.6L526.009 985.239L657.858 854.808C697.643 815.411 697.643 751.662 657.858 712.265L526.137 582.089L526.137 582.472L352.591 410.859C289.727 348.767 289.727 248.044 352.591 185.824L526.137 14.0842L533.533 6.94418L705.166 -166.581C767.265 -229.438 868.001 -229.438 930.228 -166.581L1101.86 6.94426L1101.48 6.94426L1231.41 138.395C1270.82 178.175 1334.57 178.175 1373.98 138.395L1504.42 6.56191L1504.68 6.56191L1675.93 -166.581C1738.03 -229.438 1838.76 -229.438 1900.99 -166.581L2072.62 6.94439L2079.25 12.9369L2252.67 184.55C2315.54 246.641 2315.54 347.365 2252.67 409.584L2079.13 581.197L2079 580.942Z" stroke="url(#paint52_linear_571_4503)" stroke-width="1.75" stroke-miterlimit="10" stroke-linecap="round"/>
<path d="M2079 580.942L1947.15 711.373C1907.36 750.77 1907.36 814.519 1947.15 853.916L2079 984.219L2079 983.837L2252.54 1155.45C2315.41 1217.54 2315.41 1318.26 2252.54 1380.48L2079 1552.1L2071.6 1559.24L1899.97 1732.76C1837.87 1795.62 1737.13 1795.62 1674.91 1732.76L1503.27 1559.24L1503.66 1559.24L1373.72 1427.79C1334.32 1388.01 1270.56 1388.01 1231.16 1427.79L1100.71 1559.62L1100.46 1559.62L929.207 1732.76C867.108 1795.62 766.372 1795.62 704.146 1732.76L532.512 1559.24L525.882 1553.24L352.336 1381.63C289.472 1319.54 289.472 1218.82 352.336 1156.6L526.009 985.239L657.858 854.808C697.643 815.411 697.643 751.662 657.858 712.265L526.137 582.089L526.137 582.472L352.591 410.859C289.727 348.767 289.727 248.044 352.591 185.824L526.137 14.0842L533.533 6.94418L705.166 -166.581C767.265 -229.438 868.001 -229.438 930.228 -166.581L1101.86 6.94426L1101.48 6.94426L1231.41 138.395C1270.82 178.175 1334.57 178.175 1373.98 138.395L1504.42 6.56191L1504.68 6.56191L1675.93 -166.581C1738.03 -229.438 1838.76 -229.438 1900.99 -166.581L2072.62 6.94439L2079.25 12.9369L2252.67 184.55C2315.54 246.641 2315.54 347.365 2252.67 409.584L2079.13 581.197L2079 580.942Z" stroke="url(#paint53_linear_571_4503)" stroke-width="1.75" stroke-miterlimit="10" stroke-linecap="round"/>
<defs>
<linearGradient id="paint0_linear_571_4503" x1="1302.81" y1="2092.46" x2="1302.81" y2="-526.446" gradientUnits="userSpaceOnUse">
<stop offset="0.265625" stop-color="#D91AFF"/>
<stop offset="1" stop-color="#1AA4FF"/>
</linearGradient>
<linearGradient id="paint1_linear_571_4503" x1="1302.81" y1="2092.46" x2="1302.81" y2="-526.446" gradientUnits="userSpaceOnUse">
<stop offset="0.265625" stop-color="#D91AFF"/>
<stop offset="1" stop-color="#1AA4FF"/>
</linearGradient>
<linearGradient id="paint2_linear_571_4503" x1="1302.93" y1="2080.72" x2="1302.94" y2="-514.448" gradientUnits="userSpaceOnUse">
<stop offset="0.265625" stop-color="#D91AFF"/>
<stop offset="1" stop-color="#1AA4FF"/>
</linearGradient>
<linearGradient id="paint3_linear_571_4503" x1="1302.93" y1="2080.72" x2="1302.94" y2="-514.448" gradientUnits="userSpaceOnUse">
<stop offset="0.265625" stop-color="#D91AFF"/>
<stop offset="1" stop-color="#1AA4FF"/>
</linearGradient>
<linearGradient id="paint4_linear_571_4503" x1="1302.87" y1="2068.94" x2="1302.87" y2="-502.674" gradientUnits="userSpaceOnUse">
<stop offset="0.265625" stop-color="#D91AFF"/>
<stop offset="1" stop-color="#1AA4FF"/>
</linearGradient>
<linearGradient id="paint5_linear_571_4503" x1="1302.87" y1="2068.94" x2="1302.87" y2="-502.674" gradientUnits="userSpaceOnUse">
<stop offset="0.265625" stop-color="#D91AFF"/>
<stop offset="1" stop-color="#1AA4FF"/>
</linearGradient>
<linearGradient id="paint6_linear_571_4503" x1="1302.8" y1="2057.2" x2="1302.8" y2="-491.059" gradientUnits="userSpaceOnUse">
<stop offset="0.265625" stop-color="#D91AFF"/>
<stop offset="1" stop-color="#1AA4FF"/>
</linearGradient>
<linearGradient id="paint7_linear_571_4503" x1="1302.8" y1="2057.2" x2="1302.8" y2="-491.059" gradientUnits="userSpaceOnUse">
<stop offset="0.265625" stop-color="#D91AFF"/>
<stop offset="1" stop-color="#1AA4FF"/>
</linearGradient>
<linearGradient id="paint8_linear_571_4503" x1="1302.99" y1="2045.46" x2="1302.99" y2="-479.318" gradientUnits="userSpaceOnUse">
<stop offset="0.265625" stop-color="#D91AFF"/>
<stop offset="1" stop-color="#1AA4FF"/>
</linearGradient>
<linearGradient id="paint9_linear_571_4503" x1="1302.99" y1="2045.46" x2="1302.99" y2="-479.318" gradientUnits="userSpaceOnUse">
<stop offset="0.265625" stop-color="#D91AFF"/>
<stop offset="1" stop-color="#1AA4FF"/>
</linearGradient>
<linearGradient id="paint10_linear_571_4503" x1="1302.92" y1="2033.59" x2="1302.92" y2="-467.449" gradientUnits="userSpaceOnUse">
<stop offset="0.265625" stop-color="#D91AFF"/>
<stop offset="1" stop-color="#1AA4FF"/>
</linearGradient>
<linearGradient id="paint11_linear_571_4503" x1="1302.92" y1="2033.59" x2="1302.92" y2="-467.449" gradientUnits="userSpaceOnUse">
<stop offset="0.265625" stop-color="#D91AFF"/>
<stop offset="1" stop-color="#1AA4FF"/>
</linearGradient>
<linearGradient id="paint12_linear_571_4503" x1="1302.86" y1="2021.85" x2="1302.86" y2="-455.707" gradientUnits="userSpaceOnUse">
<stop offset="0.265625" stop-color="#D91AFF"/>
<stop offset="1" stop-color="#1AA4FF"/>
</linearGradient>
<linearGradient id="paint13_linear_571_4503" x1="1302.86" y1="2021.85" x2="1302.86" y2="-455.707" gradientUnits="userSpaceOnUse">
<stop offset="0.265625" stop-color="#D91AFF"/>
<stop offset="1" stop-color="#1AA4FF"/>
</linearGradient>
<linearGradient id="paint14_linear_571_4503" x1="1302.79" y1="2010.08" x2="1302.79" y2="-443.932" gradientUnits="userSpaceOnUse">
<stop offset="0.265625" stop-color="#D91AFF"/>
<stop offset="1" stop-color="#1AA4FF"/>
</linearGradient>
<linearGradient id="paint15_linear_571_4503" x1="1302.79" y1="2010.08" x2="1302.79" y2="-443.932" gradientUnits="userSpaceOnUse">
<stop offset="0.265625" stop-color="#D91AFF"/>
<stop offset="1" stop-color="#1AA4FF"/>
</linearGradient>
<linearGradient id="paint16_linear_571_4503" x1="1302.85" y1="1998.33" x2="1302.85" y2="-432.19" gradientUnits="userSpaceOnUse">
<stop offset="0.265625" stop-color="#D91AFF"/>
<stop offset="1" stop-color="#1AA4FF"/>
</linearGradient>
<linearGradient id="paint17_linear_571_4503" x1="1302.85" y1="1998.33" x2="1302.85" y2="-432.19" gradientUnits="userSpaceOnUse">
<stop offset="0.265625" stop-color="#D91AFF"/>
<stop offset="1" stop-color="#1AA4FF"/>
</linearGradient>
<linearGradient id="paint18_linear_571_4503" x1="1302.78" y1="1986.72" x2="1302.78" y2="-420.322" gradientUnits="userSpaceOnUse">
<stop offset="0.265625" stop-color="#D91AFF"/>
<stop offset="1" stop-color="#1AA4FF"/>
</linearGradient>
<linearGradient id="paint19_linear_571_4503" x1="1302.78" y1="1986.72" x2="1302.78" y2="-420.322" gradientUnits="userSpaceOnUse">
<stop offset="0.265625" stop-color="#D91AFF"/>
<stop offset="1" stop-color="#1AA4FF"/>
</linearGradient>
<linearGradient id="paint20_linear_571_4503" x1="1302.78" y1="1974.72" x2="1302.78" y2="-408.578" gradientUnits="userSpaceOnUse">
<stop offset="0.265625" stop-color="#D91AFF"/>
<stop offset="1" stop-color="#1AA4FF"/>
</linearGradient>
<linearGradient id="paint21_linear_571_4503" x1="1302.78" y1="1974.72" x2="1302.78" y2="-408.578" gradientUnits="userSpaceOnUse">
<stop offset="0.265625" stop-color="#D91AFF"/>
<stop offset="1" stop-color="#1AA4FF"/>
</linearGradient>
<linearGradient id="paint22_linear_571_4503" x1="1302.84" y1="1962.98" x2="1302.84" y2="-396.71" gradientUnits="userSpaceOnUse">
<stop offset="0.265625" stop-color="#D91AFF"/>
<stop offset="1" stop-color="#1AA4FF"/>
</linearGradient>
<linearGradient id="paint23_linear_571_4503" x1="1302.84" y1="1962.98" x2="1302.84" y2="-396.71" gradientUnits="userSpaceOnUse">
<stop offset="0.265625" stop-color="#D91AFF"/>
<stop offset="1" stop-color="#1AA4FF"/>
</linearGradient>
<linearGradient id="paint24_linear_571_4503" x1="1302.84" y1="1951.34" x2="1302.84" y2="-385.064" gradientUnits="userSpaceOnUse">
<stop offset="0.265625" stop-color="#D91AFF"/>
<stop offset="1" stop-color="#1AA4FF"/>
</linearGradient>
<linearGradient id="paint25_linear_571_4503" x1="1302.84" y1="1951.34" x2="1302.84" y2="-385.064" gradientUnits="userSpaceOnUse">
<stop offset="0.265625" stop-color="#D91AFF"/>
<stop offset="1" stop-color="#1AA4FF"/>
</linearGradient>
<linearGradient id="paint26_linear_571_4503" x1="1302.71" y1="1939.47" x2="1302.71" y2="-373.193" gradientUnits="userSpaceOnUse">
<stop offset="0.265625" stop-color="#D91AFF"/>
<stop offset="1" stop-color="#1AA4FF"/>
</linearGradient>
<linearGradient id="paint27_linear_571_4503" x1="1302.71" y1="1939.47" x2="1302.71" y2="-373.193" gradientUnits="userSpaceOnUse">
<stop offset="0.265625" stop-color="#D91AFF"/>
<stop offset="1" stop-color="#1AA4FF"/>
</linearGradient>
<linearGradient id="paint28_linear_571_4503" x1="1302.77" y1="1927.72" x2="1302.77" y2="-361.451" gradientUnits="userSpaceOnUse">
<stop offset="0.265625" stop-color="#D91AFF"/>
<stop offset="1" stop-color="#1AA4FF"/>
</linearGradient>
<linearGradient id="paint29_linear_571_4503" x1="1302.77" y1="1927.72" x2="1302.77" y2="-361.451" gradientUnits="userSpaceOnUse">
<stop offset="0.265625" stop-color="#D91AFF"/>
<stop offset="1" stop-color="#1AA4FF"/>
</linearGradient>
<linearGradient id="paint30_linear_571_4503" x1="1302.77" y1="1915.98" x2="1302.77" y2="-349.709" gradientUnits="userSpaceOnUse">
<stop offset="0.265625" stop-color="#D91AFF"/>
<stop offset="1" stop-color="#1AA4FF"/>
</linearGradient>
<linearGradient id="paint31_linear_571_4503" x1="1302.77" y1="1915.98" x2="1302.77" y2="-349.709" gradientUnits="userSpaceOnUse">
<stop offset="0.265625" stop-color="#D91AFF"/>
<stop offset="1" stop-color="#1AA4FF"/>
</linearGradient>
<linearGradient id="paint32_linear_571_4503" x1="1302.76" y1="1904.21" x2="1302.76" y2="-338.064" gradientUnits="userSpaceOnUse">
<stop offset="0.265625" stop-color="#D91AFF"/>
<stop offset="1" stop-color="#1AA4FF"/>
</linearGradient>
<linearGradient id="paint33_linear_571_4503" x1="1302.76" y1="1904.21" x2="1302.76" y2="-338.064" gradientUnits="userSpaceOnUse">
<stop offset="0.265625" stop-color="#D91AFF"/>
<stop offset="1" stop-color="#1AA4FF"/>
</linearGradient>
<linearGradient id="paint34_linear_571_4503" x1="1302.7" y1="1892.34" x2="1302.7" y2="-326.066" gradientUnits="userSpaceOnUse">
<stop offset="0.265625" stop-color="#D91AFF"/>
<stop offset="1" stop-color="#1AA4FF"/>
</linearGradient>
<linearGradient id="paint35_linear_571_4503" x1="1302.7" y1="1892.34" x2="1302.7" y2="-326.066" gradientUnits="userSpaceOnUse">
<stop offset="0.265625" stop-color="#D91AFF"/>
<stop offset="1" stop-color="#1AA4FF"/>
</linearGradient>
<linearGradient id="paint36_linear_571_4503" x1="1302.76" y1="1880.6" x2="1302.76" y2="-314.452" gradientUnits="userSpaceOnUse">
<stop offset="0.265625" stop-color="#D91AFF"/>
<stop offset="1" stop-color="#1AA4FF"/>
</linearGradient>
<linearGradient id="paint37_linear_571_4503" x1="1302.76" y1="1880.6" x2="1302.76" y2="-314.452" gradientUnits="userSpaceOnUse">
<stop offset="0.265625" stop-color="#D91AFF"/>
<stop offset="1" stop-color="#1AA4FF"/>
</linearGradient>
<linearGradient id="paint38_linear_571_4503" x1="1302.76" y1="1868.86" x2="1302.76" y2="-302.582" gradientUnits="userSpaceOnUse">
<stop offset="0.265625" stop-color="#D91AFF"/>
<stop offset="1" stop-color="#1AA4FF"/>
</linearGradient>
<linearGradient id="paint39_linear_571_4503" x1="1302.76" y1="1868.86" x2="1302.76" y2="-302.582" gradientUnits="userSpaceOnUse">
<stop offset="0.265625" stop-color="#D91AFF"/>
<stop offset="1" stop-color="#1AA4FF"/>
</linearGradient>
<linearGradient id="paint40_linear_571_4503" x1="1302.76" y1="1856.99" x2="1302.76" y2="-290.84" gradientUnits="userSpaceOnUse">
<stop offset="0.265625" stop-color="#D91AFF"/>
<stop offset="1" stop-color="#1AA4FF"/>
</linearGradient>
<linearGradient id="paint41_linear_571_4503" x1="1302.76" y1="1856.99" x2="1302.76" y2="-290.84" gradientUnits="userSpaceOnUse">
<stop offset="0.265625" stop-color="#D91AFF"/>
<stop offset="1" stop-color="#1AA4FF"/>
</linearGradient>
<linearGradient id="paint42_linear_571_4503" x1="1302.75" y1="1845.22" x2="1302.75" y2="-279.192" gradientUnits="userSpaceOnUse">
<stop offset="0.265625" stop-color="#D91AFF"/>
<stop offset="1" stop-color="#1AA4FF"/>
</linearGradient>
<linearGradient id="paint43_linear_571_4503" x1="1302.75" y1="1845.22" x2="1302.75" y2="-279.192" gradientUnits="userSpaceOnUse">
<stop offset="0.265625" stop-color="#D91AFF"/>
<stop offset="1" stop-color="#1AA4FF"/>
</linearGradient>
<linearGradient id="paint44_linear_571_4503" x1="1302.88" y1="1833.47" x2="1302.88" y2="-267.452" gradientUnits="userSpaceOnUse">
<stop offset="0.265625" stop-color="#D91AFF"/>
<stop offset="1" stop-color="#1AA4FF"/>
</linearGradient>
<linearGradient id="paint45_linear_571_4503" x1="1302.88" y1="1833.47" x2="1302.88" y2="-267.452" gradientUnits="userSpaceOnUse">
<stop offset="0.265625" stop-color="#D91AFF"/>
<stop offset="1" stop-color="#1AA4FF"/>
</linearGradient>
<linearGradient id="paint46_linear_571_4503" x1="1302.74" y1="1821.86" x2="1302.74" y2="-255.712" gradientUnits="userSpaceOnUse">
<stop offset="0.265625" stop-color="#D91AFF"/>
<stop offset="1" stop-color="#1AA4FF"/>
</linearGradient>
<linearGradient id="paint47_linear_571_4503" x1="1302.74" y1="1821.86" x2="1302.74" y2="-255.712" gradientUnits="userSpaceOnUse">
<stop offset="0.265625" stop-color="#D91AFF"/>
<stop offset="1" stop-color="#1AA4FF"/>
</linearGradient>
<linearGradient id="paint48_linear_571_4503" x1="1302.75" y1="1809.86" x2="1302.75" y2="-243.84" gradientUnits="userSpaceOnUse">
<stop offset="0.265625" stop-color="#D91AFF"/>
<stop offset="1" stop-color="#1AA4FF"/>
</linearGradient>
<linearGradient id="paint49_linear_571_4503" x1="1302.75" y1="1809.86" x2="1302.75" y2="-243.84" gradientUnits="userSpaceOnUse">
<stop offset="0.265625" stop-color="#D91AFF"/>
<stop offset="1" stop-color="#1AA4FF"/>
</linearGradient>
<linearGradient id="paint50_linear_571_4503" x1="1302.74" y1="1798.22" x2="1302.74" y2="-231.938" gradientUnits="userSpaceOnUse">
<stop offset="0.265625" stop-color="#D91AFF"/>
<stop offset="1" stop-color="#1AA4FF"/>
</linearGradient>
<linearGradient id="paint51_linear_571_4503" x1="1302.74" y1="1798.22" x2="1302.74" y2="-231.938" gradientUnits="userSpaceOnUse">
<stop offset="0.265625" stop-color="#D91AFF"/>
<stop offset="1" stop-color="#1AA4FF"/>
</linearGradient>
<linearGradient id="paint52_linear_571_4503" x1="1302.74" y1="1786.35" x2="1302.74" y2="-220.195" gradientUnits="userSpaceOnUse">
<stop offset="0.265625" stop-color="#D91AFF"/>
<stop offset="1" stop-color="#1AA4FF"/>
</linearGradient>
<linearGradient id="paint53_linear_571_4503" x1="1302.74" y1="1786.35" x2="1302.74" y2="-220.195" gradientUnits="userSpaceOnUse">
<stop offset="0.265625" stop-color="#D91AFF"/>
<stop offset="1" stop-color="#1AA4FF"/>
</linearGradient>
</defs>
</svg>
