<svg width="262" height="40" viewBox="0 0 262 40" fill="none" xmlns="http://www.w3.org/2000/svg">
<g clip-path="url(#clip0_1103_1536)">
<path d="M17.5083 22.6491C16.7521 22.2108 15.8991 22.0844 15.054 22.0568C14.3452 22.0331 13.2888 21.5789 13.2888 20.2797C13.2929 19.8117 13.4798 19.3639 13.8096 19.0318C14.1394 18.6998 14.586 18.5099 15.054 18.5027C15.8991 18.473 16.7521 18.3467 17.5083 17.9103C18.1873 17.5171 18.7509 16.9522 19.1426 16.2723C19.5342 15.5924 19.7401 14.8214 19.7395 14.0368C19.7389 13.2521 19.5319 12.4814 19.1392 11.8021C18.7466 11.1228 18.1821 10.5587 17.5025 10.1665C16.8229 9.77438 16.0521 9.56791 15.2674 9.56787C14.4828 9.56784 13.712 9.77423 13.0323 10.1663C12.3527 10.5585 11.7882 11.1225 11.3955 11.8018C11.0027 12.4811 10.7957 13.2517 10.795 14.0364C10.795 14.9032 11.103 15.7009 11.4979 16.4413C11.8277 17.0633 11.9955 18.2183 10.8602 18.8719C10.4498 19.1002 9.96633 19.1587 9.51341 19.0346C9.06049 18.9106 8.67422 18.614 8.43746 18.2085C7.9932 17.4976 7.45021 16.8263 6.70583 16.3979C6.02593 16.0057 5.25481 15.7993 4.46992 15.7996C3.68503 15.7998 2.91402 16.0066 2.23437 16.3992C1.55471 16.7918 0.990343 17.3563 0.597966 18.0361C0.205589 18.7159 -0.000976562 19.4869 -0.000976562 20.2718C-0.000976562 21.0567 0.205589 21.8278 0.597966 22.5075C0.990343 23.1873 1.55471 23.7519 2.23437 24.1444C2.91402 24.537 3.68503 24.7438 4.46992 24.744C5.25481 24.7443 6.02593 24.5379 6.70583 24.1458C7.45613 23.7114 7.9932 23.046 8.43746 22.3352C8.80274 21.7428 9.71298 21.0083 10.8602 21.6717C11.2631 21.9131 11.5554 22.3028 11.6742 22.7572C11.7931 23.2117 11.7291 23.6946 11.496 24.1023C11.1011 24.8428 10.795 25.6405 10.795 26.5073C10.7951 27.2926 11.0018 28.064 11.3944 28.7441C11.7871 29.4241 12.3518 29.9889 13.0318 30.3816C13.7119 30.7743 14.4833 30.981 15.2686 30.9812C16.0538 30.9813 16.8253 30.7747 17.5055 30.3822C18.1856 29.9897 18.7505 29.4251 19.1433 28.7452C19.5362 28.0652 19.7431 27.2939 19.7434 26.5086C19.7437 25.7233 19.5373 24.9518 19.145 24.2715C18.7526 23.5913 18.1882 23.0263 17.5083 22.6333V22.6491Z" fill="#008CFF"/>
<path d="M25.8975 13.4932H29.0112V14.9622C29.4264 14.457 29.9481 14.0498 30.5389 13.7696C31.1298 13.4893 31.7752 13.343 32.4291 13.3412C32.8726 13.3245 33.3161 13.3758 33.7441 13.4932V17.0473C33.7441 17.0473 33.3137 16.8953 32.2771 16.8953C30.5 16.8953 29.3153 18.08 29.3153 19.857V27.1133H25.8975V13.4932ZM42.6313 13.4932H45.7451V14.8102C46.8082 13.8716 48.1753 13.3497 49.5934 13.3412C53.0112 13.3412 55.973 16.3029 55.973 20.3032C55.973 24.3036 53.0112 27.2653 49.5934 27.2653C48.2875 27.2686 47.0259 26.7914 46.0492 25.9246V32.0001H42.6313V13.4932ZM52.5551 20.3032C52.5551 18.076 51.0861 16.607 49.1629 16.607C47.2398 16.607 45.7451 18.0701 45.7451 20.3032C45.7451 22.5364 47.2378 23.9936 49.1649 23.9936C51.092 23.9936 52.5551 22.5324 52.5551 20.3032ZM58.4786 13.4932H61.5924V14.8102C62.6558 13.8721 64.0227 13.3503 65.4407 13.3412C68.8585 13.3412 71.8203 16.3029 71.8203 20.3032C71.8203 24.3036 68.8585 27.2653 65.4407 27.2653C64.135 27.2675 62.8738 26.7905 61.8965 25.9246V32.0001H58.4786V13.4932ZM68.4044 20.3032C68.4044 18.076 66.9354 16.607 65.0103 16.607C63.0851 16.607 61.5924 18.0701 61.5924 20.3032C61.5924 22.5364 63.0871 23.9936 65.0103 23.9936C66.9334 23.9936 68.4044 22.5324 68.4044 20.3032ZM74.3279 8.45626H77.7457V27.1133H74.3279V8.45626ZM80.2514 20.3032C80.2514 16.4569 83.3652 13.3412 87.0614 13.3412C90.6293 13.3412 93.5911 16.1528 93.5911 20.3032C93.5768 20.7542 93.5259 21.2032 93.439 21.6459H83.9476C84.2517 22.9629 85.2982 23.9936 87.0614 23.9936C88.6568 23.9936 89.2906 23.261 89.2906 23.261H92.9869C92.3017 25.0381 90.1752 27.2594 87.0634 27.2594C83.3652 27.2653 80.2514 24.1515 80.2514 20.3032ZM90.3213 19.2666C90.1659 18.5153 89.7563 17.8405 89.1614 17.3561C88.5665 16.8716 87.8227 16.6071 87.0555 16.6071C86.2883 16.6071 85.5445 16.8716 84.9496 17.3561C84.3547 17.8405 83.9451 18.5153 83.7897 19.2666H90.3213ZM35.7383 9.92331C35.7383 9.40959 35.9424 8.91691 36.3057 8.55366C36.6689 8.1904 37.1616 7.98633 37.6753 7.98633C38.189 7.98633 38.6817 8.1904 39.045 8.55366C39.4082 8.91691 39.6123 9.40959 39.6123 9.92331C39.6123 10.437 39.4082 10.9297 39.045 11.293C38.6817 11.6562 38.189 11.8603 37.6753 11.8603C37.1616 11.8603 36.6689 11.6562 36.3057 11.293C35.9424 10.9297 35.7383 10.437 35.7383 9.92331ZM35.9674 13.4932H39.3912V27.1172H35.9733L35.9674 13.4932Z" fill="#FAFAFA"/>
</g>
<defs>
<clipPath id="clip0_1103_1536">
<rect width="93.5931" height="24" fill="white" transform="translate(0 8)"/>
</clipPath>
</defs>
</svg>
