<svg width="262" height="40" viewBox="0 0 262 40" fill="none" xmlns="http://www.w3.org/2000/svg">
<path d="M11.6279 33C11.6279 33 22.7559 29.221 22.7559 15.3242V10.3262C22.7559 9.78634 22.3379 9.33356 21.798 9.29873C19.778 9.21166 14.9889 8.7937 11.6279 7C8.26691 8.7937 3.4779 9.21166 1.4578 9.29873C0.91795 9.33356 0.5 9.78634 0.5 10.3262V15.3242C0.5 29.221 11.6279 33 11.6279 33Z" fill="#009FE8"/>
<path d="M16.121 17.1561C15.9817 15.641 14.693 15.1186 13.0386 14.9618V12.8372H11.7499V14.8922C11.4191 14.8922 11.0534 14.8922 10.7051 14.8922V12.8198H9.41639L9.4338 14.927C9.15517 14.927 6.85645 14.9444 6.85645 14.9444V16.2853H8.49342V23.0596H7.04801L7.03059 24.6095C7.03059 24.6095 9.0681 24.5921 9.36415 24.6095V26.7341H10.6354V24.6269C10.9837 24.6443 11.332 24.6443 11.6629 24.6443V26.7341H12.9516V24.6095C15.111 24.505 16.6086 23.9652 16.8176 21.9451C16.9743 20.3255 16.2255 19.5767 15.0065 19.2806C15.7553 18.9323 16.2255 18.2706 16.121 17.1561ZM14.2925 21.6839C14.2751 23.2686 11.5758 23.077 10.7225 23.077V20.2559C11.5758 20.2559 14.3099 20.0295 14.2925 21.6839ZM13.7178 17.7133C13.7004 19.1587 11.4539 18.9846 10.7399 18.9672V16.4072C11.4539 16.4072 13.7352 16.1983 13.7178 17.7133Z" fill="white"/>
<path d="M44.8548 24.2406C44.8548 25.3551 44.6284 26.2781 44.193 27.0269C43.7576 27.7757 43.1656 28.3853 42.4516 28.838C41.7201 29.2908 40.9017 29.6217 39.9787 29.8307C39.0557 30.0222 38.0979 30.1267 37.1401 30.1267H29.0771V9.87354H37.1401C37.9238 9.87354 38.7248 9.96061 39.5433 10.1173C40.3618 10.2741 41.1106 10.5527 41.7724 10.9532C42.4341 11.3538 42.974 11.8762 43.4094 12.538C43.8273 13.1997 44.0363 14.053 44.0363 15.0805C44.0363 16.2124 43.7402 17.1354 43.1133 17.8668C42.5038 18.5982 41.7027 19.1381 40.7101 19.4516V19.5038C41.2848 19.6083 41.8246 19.7824 42.3297 20.0437C42.8347 20.3049 43.27 20.6358 43.6357 21.0363C44.0015 21.4368 44.2975 21.907 44.5239 22.4469C44.7329 22.9693 44.8548 23.5614 44.8548 24.2406ZM39.2995 15.7423C39.2995 15.0631 39.0383 14.5581 38.5159 14.2446C37.9934 13.9311 37.2098 13.7744 36.1823 13.7744H33.7791V17.9539H36.4087C37.3317 17.9539 38.0282 17.7624 38.5333 17.3966C39.0557 17.0135 39.2995 16.4563 39.2995 15.7423ZM39.9613 23.7704C39.9613 22.9345 39.6478 22.3424 39.0209 22.0289C38.394 21.6981 37.5581 21.5413 36.4958 21.5413H33.7791V26.1736H36.5306C36.9137 26.1736 37.3142 26.1388 37.7148 26.0691C38.1153 25.9995 38.4984 25.8776 38.8293 25.7208C39.1602 25.5467 39.4388 25.3029 39.6478 24.9894C39.8568 24.6759 39.9613 24.2754 39.9613 23.7704Z" fill="white"/>
<path d="M51.351 11.3394C51.351 11.7051 51.2813 12.036 51.142 12.3495C51.0027 12.6629 50.8111 12.9415 50.5673 13.1679C50.3235 13.3943 50.0449 13.5685 49.714 13.7078C49.3831 13.8471 49.0349 13.8993 48.6692 13.8993C47.9029 13.8993 47.276 13.6555 46.7535 13.1331C46.2311 12.6281 45.9873 12.0186 45.9873 11.322C45.9873 10.9737 46.057 10.6428 46.1963 10.3294C46.3356 10.0159 46.5272 9.73726 46.771 9.51087C47.0148 9.28448 47.3108 9.09292 47.6243 8.95361C47.9552 8.81429 48.3034 8.74463 48.6866 8.74463C49.0523 8.74463 49.4006 8.81429 49.7314 8.93619C50.0623 9.07551 50.3584 9.24965 50.5848 9.47604C50.8286 9.70243 51.0201 9.98106 51.1594 10.2945C51.2813 10.6254 51.351 10.9737 51.351 11.3394ZM46.3182 15.8846H51.0201V30.1298H46.3182V15.8846Z" fill="white"/>
<path d="M59.5186 19.3662V24.817C59.5186 25.4962 59.6405 25.9838 59.9017 26.3321C60.1629 26.6629 60.6157 26.8371 61.2949 26.8371C61.5213 26.8371 61.7651 26.8197 62.0263 26.7848C62.2875 26.75 62.4965 26.6978 62.6706 26.6107L62.7229 30.0414C62.392 30.1633 61.9915 30.2503 61.4864 30.3374C60.9814 30.4245 60.4938 30.4593 59.9888 30.4593C59.031 30.4593 58.2299 30.3374 57.5856 30.0936C56.9412 29.8498 56.4188 29.5189 56.0182 29.0661C55.6351 28.6134 55.3391 28.0909 55.1649 27.464C54.9908 26.8371 54.9037 26.1579 54.9037 25.3917V19.3662H52.6572V15.8833H54.9211V12.1392H59.536V15.8833H62.8796V19.3662H59.5186Z" fill="white"/>
<path d="M79.8587 30.1643C78.5352 30.4952 77.0898 30.6519 75.5225 30.6519C73.9029 30.6519 72.4052 30.3907 71.0469 29.8857C69.6886 29.3632 68.5044 28.6492 67.5292 27.7088C66.5539 26.7684 65.7703 25.6539 65.2304 24.3478C64.6732 23.0417 64.3945 21.5789 64.3945 19.9767C64.3945 18.3572 64.6732 16.8944 65.2478 15.5709C65.8051 14.2473 66.5888 13.1328 67.5814 12.2098C68.574 11.2869 69.7408 10.5729 71.0643 10.0853C72.4052 9.59765 73.8332 9.33643 75.3831 9.33643C76.9853 9.33643 78.4655 9.58023 79.8413 10.0678C81.217 10.5554 82.3316 11.1998 83.1849 12.0357L80.1025 15.5534C79.6323 14.9962 78.988 14.5434 78.2217 14.1951C77.4381 13.8468 76.5499 13.6727 75.5573 13.6727C74.704 13.6727 73.9029 13.8294 73.1889 14.1429C72.4575 14.4563 71.8306 14.8917 71.3081 15.4664C70.7683 16.0236 70.3503 16.7028 70.0717 17.469C69.7756 18.2353 69.6189 19.0886 69.6189 19.9942C69.6189 20.9345 69.7582 21.7879 70.0194 22.5715C70.2807 23.3552 70.6812 24.0343 71.2036 24.5916C71.7261 25.1489 72.3704 25.6017 73.1541 25.9151C73.9203 26.2286 74.8085 26.3853 75.8011 26.3853C76.3758 26.3853 76.9156 26.3505 77.4381 26.2634C77.9431 26.1763 78.4307 26.037 78.8661 25.8455V22.1536H75V18.1656H83.359V28.893C82.3316 29.4155 81.1822 29.8334 79.8587 30.1643Z" fill="white"/>
<path d="M100.093 22.9513C100.093 24.1181 99.8844 25.163 99.4665 26.1208C99.0485 27.0612 98.4738 27.8622 97.7424 28.524C97.011 29.1858 96.1751 29.6908 95.2173 30.0565C94.2595 30.4222 93.2494 30.5963 92.1523 30.5963C91.09 30.5963 90.0626 30.4222 89.1048 30.0565C88.147 29.6908 87.2936 29.1858 86.5796 28.524C85.8657 27.8622 85.291 27.0612 84.873 26.1208C84.4551 25.1804 84.2461 24.1181 84.2461 22.9513C84.2461 21.7846 84.4551 20.7397 84.873 19.7993C85.291 18.8589 85.8657 18.0752 86.5796 17.4309C87.2936 16.7866 88.1295 16.2815 89.1048 15.9507C90.0626 15.6024 91.09 15.4282 92.1523 15.4282C93.232 15.4282 94.2595 15.6024 95.2173 15.9507C96.1751 16.299 97.011 16.7866 97.7424 17.4309C98.4738 18.0752 99.0311 18.8763 99.4665 19.7993C99.8844 20.7397 100.093 21.7846 100.093 22.9513ZM95.583 22.9513C95.583 22.4985 95.5133 22.0458 95.3566 21.6104C95.1999 21.175 94.9909 20.7919 94.6949 20.4436C94.4162 20.1128 94.0505 19.8341 93.6326 19.6251C93.2146 19.4162 92.727 19.3117 92.1697 19.3117C91.6125 19.3117 91.1249 19.4162 90.7069 19.6251C90.289 19.8341 89.9407 20.1128 89.662 20.4436C89.3834 20.7745 89.1744 21.1576 89.0351 21.6104C88.8958 22.0458 88.8261 22.4985 88.8261 22.9513C88.8261 23.4041 88.8958 23.8569 89.0351 24.2923C89.1744 24.7276 89.3834 25.1282 89.6794 25.4764C89.9581 25.8247 90.3238 26.1208 90.7417 26.3298C91.1597 26.5387 91.6473 26.6432 92.2046 26.6432C92.7618 26.6432 93.2494 26.5387 93.6674 26.3298C94.0853 26.1208 94.4336 25.8422 94.7297 25.4764C95.0083 25.1282 95.2347 24.7276 95.374 24.2923C95.5133 23.8569 95.583 23.4041 95.583 22.9513Z" fill="white"/>
<path d="M102.479 27.3428C103.367 27.3428 104.116 28.0394 104.116 28.9623C104.116 29.9027 103.349 30.5993 102.479 30.5993C101.59 30.5993 100.824 29.9027 100.824 28.9623C100.824 28.0219 101.573 27.3428 102.479 27.3428ZM102.479 27.604C101.73 27.604 101.138 28.1961 101.138 28.9623C101.138 29.7634 101.73 30.3207 102.479 30.3207C103.227 30.3207 103.802 29.746 103.802 28.9623C103.802 28.1787 103.21 27.604 102.479 27.604ZM102.13 29.9027H101.834V28.0219H102.548C103.001 28.0219 103.21 28.1961 103.21 28.5618C103.21 28.8927 103.001 29.0494 102.722 29.0842L103.262 29.9027H102.949L102.444 29.0842H102.113V29.9027H102.13ZM102.13 28.8578H102.479C102.827 28.8578 102.949 28.7534 102.949 28.5444C102.949 28.3702 102.862 28.2657 102.531 28.2657H102.148V28.8578H102.13Z" fill="white"/>
</svg>
