<svg width="100" height="24" viewBox="0 0 100 24" fill="none" xmlns="http://www.w3.org/2000/svg">
<path d="M98.2231 18.1525H100L95.3208 11.6678L99.3415 6.07983H97.5611L94.2581 10.6603L90.9412 6.07983H89.1573L93.178 11.6678L88.5023 18.1525H90.2896L94.2581 12.6719L98.2231 18.1525Z" fill="white"/>
<path fill-rule="evenodd" clip-rule="evenodd" d="M36.149 2.13272C36.1601 1.71968 36.0469 1.31274 35.8241 0.96392C35.6012 0.615098 35.2787 0.340241 34.8978 0.174486C34.517 0.00873034 34.095 -0.0403931 33.6859 0.033395C33.2768 0.107183 32.8991 0.300531 32.6011 0.588721C32.3031 0.876911 32.0984 1.24685 32.0131 1.65125C31.9279 2.05565 31.9659 2.47613 32.1223 2.85895C32.2788 3.24177 32.5466 3.56953 32.8915 3.80034C33.2363 4.03114 33.6427 4.1545 34.0585 4.15465C34.3301 4.1611 34.6003 4.11362 34.8532 4.01498C35.1061 3.91635 35.3366 3.76855 35.5313 3.58024C35.726 3.39194 35.8809 3.16691 35.987 2.91835C36.093 2.66979 36.1481 2.4027 36.149 2.13272ZM32.4697 6.34276V18.1454H35.6577V6.34276H32.4697ZM29.3061 9.00866C29.693 8.99906 30.0795 9.0398 30.4558 9.12983L30.8042 6.17657C30.4476 6.11425 30.0862 6.08297 29.7242 6.08309C28.2782 6.08309 26.9786 6.64397 26.2679 7.51991V6.34276H23.2018V18.1489H26.3933V11.5361C26.4107 10.1512 27.9054 9.00866 29.3061 9.00866ZM45.0754 6.08309C43.8096 6.06674 42.5776 6.4891 41.5912 7.27755V6.34276H38.5321V24H41.7202V17.3179C42.6266 18.0301 43.7528 18.4092 44.9082 18.3912C45.7598 18.392 46.6019 18.2134 47.379 17.8673C48.1561 17.5212 48.8506 17.0154 49.4167 16.3832C50.403 15.2225 50.9349 13.7474 50.9149 12.2285C50.9149 8.7663 48.3122 6.08309 45.0754 6.08309ZM44.6887 15.5141C42.7062 15.5141 41.4066 14.157 41.4066 12.2597C41.4066 10.3624 42.7062 9.00173 44.6887 9.00173C46.3785 9.00173 47.7513 10.4593 47.7513 12.2597C47.7513 14.06 46.3785 15.5141 44.6887 15.5141ZM67.078 18.1454H70.266V0.834392H67.078V18.1454ZM83.2759 16.2724C82.6612 16.9498 81.9081 17.4893 81.067 17.8546C80.2258 18.22 79.316 18.403 78.398 18.3912C74.8407 18.3912 72.1683 15.9677 72.1683 12.2493C72.1683 8.95672 74.4226 6.08309 77.9555 6.08309C81.2411 6.08309 83.572 8.85286 83.572 12.1281C83.5755 12.4298 83.551 12.7311 83.4989 13.0283H75.2623C75.3413 13.8129 75.7167 14.5385 76.3128 15.0589C76.909 15.5794 77.6815 15.8559 78.4747 15.8327C79.0402 15.8166 79.5966 15.6876 80.1108 15.4532C80.625 15.2189 81.0865 14.884 81.4676 14.4686L83.2759 16.2724ZM80.3109 10.7121C80.2426 10.1392 79.965 9.61119 79.5308 9.22826C79.0966 8.84533 78.5361 8.63413 77.9555 8.63474C77.3534 8.63108 76.7688 8.83671 76.3031 9.21605C75.8373 9.5954 75.5197 10.1246 75.4051 10.7121H80.3109ZM55.8694 7.27755C56.855 6.48781 58.0875 6.06528 59.3535 6.08309C62.5903 6.08309 65.193 8.76284 65.1965 12.2527C65.2162 13.771 64.6857 15.2457 63.7018 16.4074C63.1342 17.038 62.4387 17.542 61.6611 17.8863C60.8834 18.2306 60.0412 18.4074 59.1898 18.4051C58.0333 18.4236 56.9058 18.0444 55.9983 17.3318V24H52.8103V6.34276H55.8729L55.8694 7.27755ZM55.6847 12.2597C55.6648 12.6929 55.7362 13.1255 55.8942 13.5297C56.0522 13.934 56.2933 14.301 56.6023 14.6074C56.9112 14.9137 57.2811 15.1526 57.6882 15.3087C58.0954 15.4649 58.5309 15.5348 58.9668 15.5141C60.6566 15.5141 62.0294 14.0566 62.0294 12.2597C62.0294 10.4628 60.6601 9.00173 58.9703 9.00173C56.9878 9.00173 55.6847 10.3624 55.6847 12.2597Z" fill="white"/>
<path d="M16.6481 13.4542C15.9282 13.0794 15.1264 12.8868 14.3138 12.8933C14.0923 12.8966 13.8724 12.8556 13.6672 12.7729C13.462 12.6902 13.2755 12.5674 13.1189 12.4118C12.9623 12.2562 12.8387 12.0709 12.7555 11.867C12.6723 11.663 12.6311 11.4446 12.6344 11.2245C12.6407 10.7835 12.8195 10.3623 13.133 10.0502C13.4465 9.73802 13.87 9.55943 14.3138 9.55227C15.1265 9.55924 15.9284 9.36658 16.6481 8.99139C17.2952 8.62058 17.8326 8.087 18.2063 7.44433C18.58 6.80165 18.7768 6.07253 18.777 5.33029C18.7771 4.58805 18.5806 3.85885 18.2072 3.21601C17.8338 2.57318 17.2966 2.03939 16.6497 1.6683C16.0028 1.29721 15.269 1.10191 14.522 1.10205C13.7751 1.10219 13.0413 1.29775 12.3946 1.66907C11.7478 2.0404 11.2108 2.57439 10.8376 3.21736C10.4644 3.86033 10.2682 4.5896 10.2686 5.33184C10.2979 6.13244 10.5278 6.91311 10.9376 7.60305C11.2546 8.19163 11.4184 9.28222 10.3348 9.90195C9.94319 10.1208 9.48064 10.1777 9.0471 10.0604C8.61357 9.94319 8.24386 9.66117 8.01785 9.2753C7.62023 8.57897 7.05523 7.99137 6.37332 7.56497C5.72709 7.19485 4.99423 7.00022 4.24834 7.00063C3.50246 7.00104 2.76981 7.19647 2.12399 7.5673C1.47817 7.93813 0.941918 8.47129 0.569093 9.11325C0.196269 9.7552 0 10.4833 0 11.2245C0 11.9657 0.196269 12.6938 0.569093 13.3358C0.941918 13.9777 1.47817 14.5109 2.12399 14.8817C2.76981 15.2526 3.50246 15.448 4.24834 15.4484C4.99423 15.4488 5.72709 15.2542 6.37332 14.8841C7.05523 14.4577 7.62023 13.8701 8.01785 13.1737C8.12431 12.9785 8.26944 12.8068 8.4445 12.6688C8.61956 12.5308 8.82092 12.4295 9.03644 12.371C9.25197 12.3124 9.47719 12.2978 9.69854 12.3281C9.91989 12.3584 10.1328 12.4328 10.3244 12.5471C10.7082 12.7743 10.9866 13.1425 11.0994 13.572C11.2122 14.0015 11.1503 14.4579 10.9271 14.8425C10.5199 15.5336 10.2902 16.3136 10.2582 17.1137C10.2588 17.8552 10.4557 18.5835 10.8291 19.2255C11.2024 19.8674 11.7392 20.4005 12.3854 20.7712C13.0316 21.142 13.7646 21.3372 14.5108 21.3375C15.257 21.3378 15.9901 21.143 16.6366 20.7728C17.2831 20.4025 17.8203 19.8698 18.1941 19.2281C18.5679 18.5864 18.7653 17.8582 18.7665 17.1168C18.7677 16.3753 18.5726 15.6465 18.2007 15.0037C17.8289 14.3608 17.2935 13.8264 16.6481 13.4542Z" fill="url(#paint0_linear)"/>
<defs>
<linearGradient id="paint0_linear" x1="0.718512" y1="0.335884" x2="20.8958" y2="19.0551" gradientUnits="userSpaceOnUse">
<stop stop-color="#1DB4FF"/>
<stop offset="1" stop-color="#0F72E5"/>
</linearGradient>
</defs>
</svg>
