<svg width="701" height="123" fill="none" xmlns="http://www.w3.org/2000/svg"><path d="M466.64 27.85v62.3h34.53v4.9h-39.7v-67.2h5.17Zm92.13 45.95-18-40.95-18 40.95h36Zm9.4 21.34-7.38-16.55h-40l-7.28 16.55h-5.54l30-67.3h5.66l30 67.3h-5.46ZM241.6 27.4a33.96 33.96 0 0 0-31.4 21.03 34.11 34.11 0 0 0 7.37 37.11 33.98 33.98 0 0 0 58.04-24.08 34.12 34.12 0 0 0-21-31.46 33.95 33.95 0 0 0-13-2.6Zm0 53.76a19.62 19.62 0 0 1-18.16-12.14 19.71 19.71 0 0 1 4.27-21.45 19.63 19.63 0 0 1 33.52 13.95 19.7 19.7 0 0 1-19.62 19.64ZM359.35 27.4l-14.26 45.1-15.58-45.1h-9.68l-15.14 45.1-14.7-45.1h-16.31l24.95 68.11h12l8.28-21.34 5.8-17.75 5.9 17.63 8.42 21.46h12l24.48-68.11h-16.16Zm-212.85 0v13.56h22.96V95.6h14.66V40.97h23.62V27.4h-61.24ZM673.64 58.1c-11.33-2.15-20.5-4.15-20.5-12.68 0-10.78 12.45-13.65 20.3-13.65 7.56 0 15.42 1.23 20.3 9.1l4.22-2.57c-6.64-10.01-14.94-11.43-24.51-11.43-11.02 0-25.8 4.38-25.5 18.6 0 12.45 12.56 14.93 24.8 17.32 11.05 2.14 22.13 4.34 22 14.44 0 12.02-13.14 14.22-21.37 14.22-8.21 0-18.8-4-22.87-12.22l-4.54 2.29c5.2 10.3 17.08 14.64 27.51 14.64 11.23 0 26.44-3.65 26.52-18.85-.04-14.52-13.41-16.8-26.36-19.21Zm-49.67 2.56a14.8 14.8 0 0 0 10.9-14.44c0-12.78-10.72-18.37-22-18.37h-27.52v67.29h27.52c11.5 0 24.34-3.73 24.34-17.59a17.17 17.17 0 0 0-13.24-16.89Zm-33.42-28.39h22.32c8.34 0 17.14 4.15 17.14 14.03 0 9.87-8.42 12.02-16.46 12.02h-23V32.27Zm22.32 57.88h-22.32v-26.9h23c8.98 0 18.48 3.72 18.6 14.22.12 10.5-10.86 12.68-19.28 12.68ZM406.9 27.4a33.96 33.96 0 0 0-31.41 21.03 34.11 34.11 0 0 0 7.37 37.11 33.98 33.98 0 0 0 58.04-24.08c0-9.03-3.58-17.7-9.96-24.08a33.97 33.97 0 0 0-24.04-9.97Zm0 53.76A19.62 19.62 0 0 1 388.75 69a19.7 19.7 0 0 1 14.34-26.82 19.6 19.6 0 0 1 20.16 8.4 19.7 19.7 0 0 1-16.35 30.58ZM72 16.6a.66.66 0 0 0 .7 1.13c7.3-3.7 19.58-8.7 25.44-2.58 7.5 7.8-9.72 32.23-9.72 32.23l6.72 14.48s16.27-20.41 21.55-38.32C120.25 11.42 119.21 0 107.8 0 100.53 0 89.1 4.63 72 16.6Z" fill="#151718"/><path d="M1.46 20.5a61.17 61.17 0 0 0 11.02 29.36.76.76 0 1 0 1.32-.76 34.48 34.48 0 0 1-3.1-8.45 12.86 12.86 0 0 1 1.08-9.78c4.58-6.85 16.5-3.7 24.72.26C59.3 42.07 76.88 62.5 76.88 62.5c-28 32.68-55.34 45.26-63.86 37.05-5.36-5.15-2-16.03.5-22.04a.52.52 0 0 0-.9-.48c-27.28 41.53-5.72 52.33 21.16 38.56C60 102.17 79.32 80.78 85.56 73.32c6.88 9.5 18 28.49 10.54 36.26-5.36 5.63-16.3 1.67-23.5-1.64a.6.6 0 0 0-.8.66c.01.14.09.27.2.36 15.18 10.8 51.07 25.67 48.31-.8C118 84.78 84.98 46.08 57.14 26.44 40 14.26 23.28 6.54 12.72 6.54c-7.8 0-12.28 4.2-11.26 14.01" fill="#151718"/></svg>