<svg width="85" height="30" viewBox="0 0 85 30" fill="none" xmlns="http://www.w3.org/2000/svg">
<path d="M84.4977 7.10033H80.1281L77.5993 17.9414L77.2447 19.4291C77.0007 19.4967 76.7568 19.5642 76.5127 19.6096C76.069 19.6996 75.6034 19.7446 75.1157 19.7446C74.5609 19.7446 74.1176 19.6547 73.7848 19.4967C73.474 19.339 73.2301 19.1138 73.097 18.798C72.9638 18.5049 72.9195 18.1444 72.9416 17.7388C72.9638 17.3332 73.0525 16.8822 73.1634 16.4318L74.4942 10.7967L75.3591 7.05543H70.9008L68.8825 15.7101C68.6384 16.7466 68.5054 17.7386 68.461 18.6854C68.4165 19.6318 68.5719 20.4433 68.8825 21.1871C69.1932 21.9084 69.7474 22.4717 70.5017 22.8998C71.2558 23.3282 72.3427 23.5306 73.7181 23.5306C74.672 23.5306 75.5147 23.441 76.2246 23.2829C76.2468 23.2829 76.2911 23.2606 76.3133 23.2606C76.1137 24.1619 75.7144 24.883 75.0931 25.4468C74.4499 26.0103 73.5182 26.3033 72.276 26.3033C71.7437 26.3033 71.2558 26.2807 70.8121 26.2135L69.9471 29.8873C70.524 29.9549 71.1673 30 71.8769 30C73.2077 30 74.361 29.8423 75.3591 29.549C76.3573 29.2333 77.2005 28.7828 77.9321 28.1516C78.6419 27.5204 79.2408 26.7316 79.7287 25.8077C80.2165 24.8611 80.5935 23.7563 80.8819 22.4492L83.8985 9.55701L84.4977 7.10033ZM66.1988 16.3635C65.9325 17.4906 65.8438 18.64 65.9547 19.767C66.0656 20.9164 66.5093 22.6518 66.9308 23.5308H62.7164C62.2064 22.6521 62.2287 22.2238 62.1179 21.9534C61.5631 22.4043 60.9646 22.7873 60.2991 23.0805C59.6337 23.3736 58.9016 23.5313 58.0588 23.5313C57.0827 23.5313 56.24 23.3509 55.5524 23.0129C54.8648 22.675 54.2881 22.2016 53.8444 21.6154C53.4006 21.0292 53.0905 20.353 52.8904 19.5642C52.6908 18.7753 52.6021 17.9414 52.6021 17.0401C52.6021 15.6648 52.8462 14.3804 53.3122 13.1634C53.7999 11.9463 54.4653 10.8867 55.3085 9.98532C56.1513 9.0838 58.2142 7.07796 61.5855 7.07796H68.3507L66.1988 16.3635ZM63.1158 10.8416C61.0753 10.8416 60.698 10.8416 59.8555 11.2701C59.2566 11.5856 58.7684 12.0589 58.347 12.5997C57.9257 13.1405 57.5707 13.7717 57.3268 14.4931C57.0829 15.2143 56.9496 15.9579 56.9496 16.7244C56.9496 17.671 57.1052 18.4372 57.4155 19.0007C57.7258 19.5642 58.3027 19.8346 59.1455 19.8346C59.5894 19.8346 60.0104 19.7446 60.3657 19.5642C60.7203 19.3837 61.1195 19.0911 61.519 18.6628C61.5635 18.1671 61.6298 17.6485 61.7185 17.108C61.8071 16.5667 61.9181 16.0484 62.007 15.5976L63.1158 10.8416ZM51.4045 13.6139C51.4045 15.079 51.1604 16.4086 50.6945 17.6258C50.2288 18.8428 49.5634 19.8796 48.7204 20.7588C47.8774 21.638 46.8795 22.314 45.7039 22.8101C44.5284 23.3055 43.2641 23.5535 41.8889 23.5535C41.2234 23.5535 40.558 23.4859 39.8702 23.3732L38.5397 28.805H34.1698L39.2491 7.12252H45.0826C46.1921 7.12252 47.1454 7.30296 47.9217 7.64062C48.7202 7.97863 49.3635 8.45218 49.8959 9.03839C50.4061 9.62444 50.7829 10.323 51.0268 11.1118C51.2936 11.8783 51.4045 12.7124 51.4045 13.6139ZM40.6911 19.767C41.0235 19.8569 41.4452 19.8797 41.9332 19.8797C42.7095 19.8797 43.3973 19.7443 44.0402 19.4512C44.6611 19.1582 45.2158 18.7525 45.6593 18.2344C46.1032 17.7159 46.4357 17.0848 46.7019 16.3635C46.9459 15.642 47.0791 14.8307 47.0791 13.9519C47.0791 13.0951 46.9015 12.3515 46.5245 11.7653C46.1474 11.1571 45.5045 10.8414 44.5729 10.8414H42.8426L40.6911 19.767ZM31.5084 19.767C30.9537 19.767 30.5105 19.6768 30.1776 19.5191C29.8669 19.3614 29.6228 19.136 29.49 18.8202C29.3567 18.5273 29.3124 18.1667 29.3347 17.761C29.3567 17.3552 29.4454 16.9044 29.5563 16.4537L30.887 10.8191H35.8555L36.765 7.07762H31.7742L32.9275 2.34436L28.2695 3.0878L25.3195 15.7548C25.0754 16.7913 24.9423 17.7835 24.898 18.7297C24.8535 19.6763 25.0089 20.4882 25.3195 21.2317C25.6299 21.9529 26.1845 22.5163 26.9386 22.9446C27.6927 23.3729 28.7797 23.5755 30.1549 23.5755C31.1088 23.5755 31.9514 23.4855 32.6614 23.3276C32.7279 23.3048 32.8388 23.2824 32.9051 23.26L33.8147 19.4058C33.504 19.5184 33.1936 19.5864 32.9051 19.6309C32.4621 19.7217 31.9961 19.767 31.5084 19.767ZM20.396 7.10033L16.5365 23.5533H20.9061L24.7432 7.10033H20.396ZM25.2091 5.20681L25.8745 2.34436H21.505L20.8395 5.20681H25.2091ZM10.7252 7.12252C11.6567 7.12252 12.4774 7.30296 13.165 7.64062C13.8526 7.97863 14.4072 8.42947 14.8728 9.01569C15.3165 9.60191 15.6492 10.2781 15.8709 11.0444C16.0927 11.8104 16.2035 12.6446 16.2035 13.5462C16.2035 14.921 15.9596 16.2058 15.4494 17.4453C14.9392 18.6625 14.2738 19.7443 13.4089 20.6456C12.5439 21.5471 11.5235 22.2687 10.3481 22.787C9.17243 23.3053 7.90809 23.5757 6.53305 23.5757C6.35548 23.5757 6.04503 23.5757 5.60152 23.5533C5.15784 23.5533 4.64781 23.5081 4.09326 23.418C3.51653 23.328 2.91762 23.2151 2.29654 23.0576C1.67676 22.9044 1.07459 22.6853 0.5 22.4039L5.57917 0.721588L10.1263 0L8.32959 7.68552C8.72875 7.50542 9.08372 7.37005 9.48305 7.28008C9.86003 7.16776 10.2815 7.12252 10.7252 7.12252ZM6.91003 19.8797C7.59764 19.8797 8.24089 19.7217 8.8398 19.3614C9.44668 19.0195 9.98171 18.5601 10.4146 18.009C10.8583 17.4453 11.2131 16.7917 11.4572 16.0928C11.7011 15.3715 11.8341 14.6281 11.8341 13.8618C11.8341 12.915 11.6789 12.1716 11.3683 11.6304C11.0578 11.0895 10.4146 10.8416 9.57175 10.8416C9.30548 10.8416 9.0172 10.8643 8.57352 10.977C8.12985 11.0669 7.75287 11.2926 7.39806 11.6079L5.49047 19.7895C6.0672 19.8797 6.2446 19.902 6.4 19.902C6.51087 19.8797 6.68828 19.8797 6.91003 19.8797Z" fill="white"/>
</svg>
