<svg width="308" height="819" viewBox="0 0 308 819" fill="none" xmlns="http://www.w3.org/2000/svg">
<mask id="mask0_571_4806" style="mask-type:alpha" maskUnits="userSpaceOnUse" x="0" y="0" width="308" height="819">
<rect x="-0.5" y="0.5" width="307" height="817" transform="matrix(-1 1.74964e-07 1.74964e-07 1 307 0.996094)" fill="#C4C4C4" stroke="url(#paint0_linear_571_4806)"/>
</mask>
<g mask="url(#mask0_571_4806)">
<path d="M-2040.79 -467.644L-1868.64 -297.434C-1816.75 -246.052 -1816.75 -162.796 -1868.64 -111.414L-2040.66 58.6687L-2040.66 58.1587L-2267.25 282.173C-2349.24 363.262 -2349.24 494.713 -2267.25 575.802L-2040.66 799.817L-2030.97 809.252L-1807.05 1035.56C-1725.96 1117.54 -1594.49 1117.54 -1513.39 1035.56L-1289.35 808.996L-1289.86 808.996L-1120.14 637.511C-1068.75 585.619 -985.484 585.619 -934.096 637.511L-763.865 809.634L-763.738 809.634L-540.334 1035.56C-459.235 1117.54 -327.769 1117.54 -246.67 1035.56L-22.6286 808.996L-14.0852 801.091L212.506 577.204C294.498 496.115 294.498 364.664 212.506 283.575L-14.2128 59.9435L-186.356 -110.267C-238.254 -161.649 -238.254 -244.905 -186.356 -296.287L-14.3404 -466.37L-14.3404 -465.86L212.251 -689.874C294.243 -770.963 294.243 -902.414 212.251 -983.503L-14.3405 -1207.52L-24.0315 -1216.95L-248.073 -1443.52C-329.172 -1525.5 -460.638 -1525.5 -541.737 -1443.52L-765.651 -1216.82L-765.013 -1216.82L-934.734 -1045.34C-986.122 -993.448 -1069.39 -993.448 -1120.78 -1045.34L-1291.01 -1217.46L-1291.39 -1217.46L-1514.92 -1443.39C-1596.02 -1525.37 -1727.49 -1525.37 -1808.58 -1443.39L-2032.37 -1216.82L-2040.91 -1208.92L-2267.51 -984.905C-2349.5 -903.816 -2349.5 -772.365 -2267.51 -691.277L-2040.91 -467.262L-2040.79 -467.644Z" stroke="url(#paint1_linear_571_4806)" stroke-width="1.75" stroke-miterlimit="10" stroke-linecap="round"/>
<path d="M-2040.79 -467.644L-1868.64 -297.434C-1816.75 -246.052 -1816.75 -162.796 -1868.64 -111.414L-2040.66 58.6687L-2040.66 58.1587L-2267.25 282.173C-2349.24 363.262 -2349.24 494.713 -2267.25 575.802L-2040.66 799.817L-2030.97 809.252L-1807.05 1035.56C-1725.96 1117.54 -1594.49 1117.54 -1513.39 1035.56L-1289.35 808.996L-1289.86 808.996L-1120.14 637.511C-1068.75 585.619 -985.484 585.619 -934.096 637.511L-763.865 809.634L-763.738 809.634L-540.334 1035.56C-459.235 1117.54 -327.769 1117.54 -246.67 1035.56L-22.6286 808.996L-14.0852 801.091L212.506 577.204C294.498 496.115 294.498 364.664 212.506 283.575L-14.2128 59.9435L-186.356 -110.267C-238.254 -161.649 -238.254 -244.905 -186.356 -296.287L-14.3404 -466.37L-14.3404 -465.86L212.251 -689.874C294.243 -770.963 294.243 -902.414 212.251 -983.503L-14.3405 -1207.52L-24.0315 -1216.95L-248.073 -1443.52C-329.172 -1525.5 -460.638 -1525.5 -541.737 -1443.52L-765.651 -1216.82L-765.013 -1216.82L-934.734 -1045.34C-986.122 -993.448 -1069.39 -993.448 -1120.78 -1045.34L-1291.01 -1217.46L-1291.39 -1217.46L-1514.92 -1443.39C-1596.02 -1525.37 -1727.49 -1525.37 -1808.58 -1443.39L-2032.37 -1216.82L-2040.91 -1208.92L-2267.51 -984.905C-2349.5 -903.816 -2349.5 -772.365 -2267.51 -691.277L-2040.91 -467.262L-2040.79 -467.644Z" stroke="url(#paint2_linear_571_4806)" stroke-width="1.75" stroke-miterlimit="10" stroke-linecap="round"/>
<path d="M-2031.74 -465.349L-1861.25 -296.669C-1809.73 -245.797 -1809.73 -163.306 -1861.25 -112.434L-2031.73 56.119L-2031.73 55.609L-2256.29 277.584C-2337.51 357.908 -2337.51 488.211 -2256.29 568.535L-2031.73 790.509L-2022.17 799.817L-1800.04 1024.47C-1719.71 1105.69 -1589.39 1105.69 -1509.06 1024.47L-1287.06 799.944L-1287.57 799.944L-1119.5 629.989C-1068.62 578.48 -986.123 578.48 -935.245 629.989L-766.545 800.454L-766.162 800.454L-544.671 1024.47C-464.338 1105.69 -334.019 1105.69 -253.685 1024.47L-31.6839 799.944L-23.1405 792.167L201.283 570.192C282.51 489.868 282.51 359.565 201.283 279.241L-23.3956 57.5212L-193.881 -111.159C-245.397 -162.031 -245.397 -244.523 -193.881 -295.394L-23.3957 -463.947L-23.3957 -463.437L201.156 -685.412C282.382 -765.736 282.382 -896.039 201.156 -976.363L-23.3958 -1198.34L-32.9593 -1207.65L-254.961 -1432.17C-335.294 -1513.39 -465.613 -1513.39 -545.947 -1432.17L-767.948 -1207.64L-767.438 -1207.64L-935.628 -1037.69C-986.506 -986.18 -1069.01 -986.18 -1119.89 -1037.69L-1288.59 -1208.15L-1288.97 -1208.15L-1510.46 -1432.04C-1590.79 -1513.26 -1721.11 -1513.26 -1801.45 -1432.04L-2023.45 -1207.52L-2031.99 -1199.74L-2256.54 -977.765C-2337.77 -897.441 -2337.77 -767.138 -2256.54 -686.814L-2031.99 -464.839L-2031.74 -465.349Z" stroke="url(#paint3_linear_571_4806)" stroke-width="1.75" stroke-miterlimit="10" stroke-linecap="round"/>
<path d="M-2031.74 -465.349L-1861.25 -296.669C-1809.73 -245.797 -1809.73 -163.306 -1861.25 -112.434L-2031.73 56.119L-2031.73 55.609L-2256.29 277.584C-2337.51 357.908 -2337.51 488.211 -2256.29 568.535L-2031.73 790.509L-2022.17 799.817L-1800.04 1024.47C-1719.71 1105.69 -1589.39 1105.69 -1509.06 1024.47L-1287.06 799.944L-1287.57 799.944L-1119.5 629.989C-1068.62 578.48 -986.123 578.48 -935.245 629.989L-766.545 800.454L-766.162 800.454L-544.671 1024.47C-464.338 1105.69 -334.019 1105.69 -253.685 1024.47L-31.6839 799.944L-23.1405 792.167L201.283 570.192C282.51 489.868 282.51 359.565 201.283 279.241L-23.3956 57.5212L-193.881 -111.159C-245.397 -162.031 -245.397 -244.523 -193.881 -295.394L-23.3957 -463.947L-23.3957 -463.437L201.156 -685.412C282.382 -765.736 282.382 -896.039 201.156 -976.363L-23.3958 -1198.34L-32.9593 -1207.65L-254.961 -1432.17C-335.294 -1513.39 -465.613 -1513.39 -545.947 -1432.17L-767.948 -1207.64L-767.438 -1207.64L-935.628 -1037.69C-986.506 -986.18 -1069.01 -986.18 -1119.89 -1037.69L-1288.59 -1208.15L-1288.97 -1208.15L-1510.46 -1432.04C-1590.79 -1513.26 -1721.11 -1513.26 -1801.45 -1432.04L-2023.45 -1207.52L-2031.99 -1199.74L-2256.54 -977.765C-2337.77 -897.441 -2337.77 -767.138 -2256.54 -686.814L-2031.99 -464.839L-2031.74 -465.349Z" stroke="url(#paint4_linear_571_4806)" stroke-width="1.75" stroke-miterlimit="10" stroke-linecap="round"/>
<path d="M-2022.55 -462.926L-1853.6 -295.776C-1802.59 -245.287 -1802.59 -163.56 -1853.6 -113.199L-2022.55 53.8243L-2022.55 53.3144L-2245.06 273.249C-2325.65 352.936 -2325.65 481.964 -2245.06 561.65L-2022.55 781.585L-2013.12 790.765L-1793.03 1013.25C-1713.33 1093.83 -1584.29 1093.83 -1504.59 1013.25L-1284.63 790.765L-1285.14 790.765L-1118.48 622.34C-1067.99 571.34 -986.25 571.34 -935.882 622.339L-768.839 791.402L-768.456 791.402L-549.005 1013.25C-469.309 1093.83 -340.265 1093.83 -260.569 1013.25L-40.7359 790.892L-32.32 783.242L190.191 563.18C270.78 483.494 270.78 354.465 190.191 274.779L-32.4476 55.0991L-201.403 -111.924C-252.409 -162.413 -252.409 -244.14 -201.403 -294.501L-32.4477 -461.524L-32.4477 -461.014L190.064 -680.949C270.652 -760.635 270.652 -889.664 190.064 -969.35L-32.4478 -1189.29L-41.8838 -1198.46L-261.845 -1420.95C-341.541 -1501.53 -470.585 -1501.53 -550.281 -1420.95L-770.242 -1198.46L-769.732 -1198.46L-936.392 -1030.04C-986.887 -979.04 -1068.62 -979.04 -1118.99 -1030.04L-1286.16 -1198.97L-1286.54 -1198.97L-1506 -1420.95C-1585.69 -1501.53 -1714.74 -1501.53 -1794.43 -1420.95L-2014.39 -1198.46L-2022.81 -1190.81L-2245.32 -970.88C-2325.91 -891.194 -2325.91 -762.165 -2245.32 -682.479L-2022.81 -462.544L-2022.55 -462.926Z" stroke="url(#paint5_linear_571_4806)" stroke-width="1.75" stroke-miterlimit="10" stroke-linecap="round"/>
<path d="M-2022.55 -462.926L-1853.6 -295.776C-1802.59 -245.287 -1802.59 -163.56 -1853.6 -113.199L-2022.55 53.8243L-2022.55 53.3144L-2245.06 273.249C-2325.65 352.936 -2325.65 481.964 -2245.06 561.65L-2022.55 781.585L-2013.12 790.765L-1793.03 1013.25C-1713.33 1093.83 -1584.29 1093.83 -1504.59 1013.25L-1284.63 790.765L-1285.14 790.765L-1118.48 622.34C-1067.99 571.34 -986.25 571.34 -935.882 622.339L-768.839 791.402L-768.456 791.402L-549.005 1013.25C-469.309 1093.83 -340.265 1093.83 -260.569 1013.25L-40.7359 790.892L-32.32 783.242L190.191 563.18C270.78 483.494 270.78 354.465 190.191 274.779L-32.4476 55.0991L-201.403 -111.924C-252.409 -162.413 -252.409 -244.14 -201.403 -294.501L-32.4477 -461.524L-32.4477 -461.014L190.064 -680.949C270.652 -760.635 270.652 -889.664 190.064 -969.35L-32.4478 -1189.29L-41.8838 -1198.46L-261.845 -1420.95C-341.541 -1501.53 -470.585 -1501.53 -550.281 -1420.95L-770.242 -1198.46L-769.732 -1198.46L-936.392 -1030.04C-986.887 -979.04 -1068.62 -979.04 -1118.99 -1030.04L-1286.16 -1198.97L-1286.54 -1198.97L-1506 -1420.95C-1585.69 -1501.53 -1714.74 -1501.53 -1794.43 -1420.95L-2014.39 -1198.46L-2022.81 -1190.81L-2245.32 -970.88C-2325.91 -891.194 -2325.91 -762.165 -2245.32 -682.479L-2022.81 -462.544L-2022.55 -462.926Z" stroke="url(#paint6_linear_571_4806)" stroke-width="1.75" stroke-miterlimit="10" stroke-linecap="round"/>
<path d="M-2013.5 -460.503L-1846.07 -295.01C-1795.58 -245.031 -1795.58 -164.07 -1846.07 -114.09L-2013.5 51.4025L-2013.5 50.8925L-2233.97 268.787C-2313.79 347.709 -2313.79 475.589 -2233.97 554.511L-2013.5 772.405L-2004.06 781.585L-1786.01 1002.16C-1707.08 1081.97 -1579.18 1081.97 -1500.25 1002.16L-1282.33 781.713L-1282.84 781.713L-1117.71 614.817C-1067.73 564.328 -986.756 564.328 -936.771 614.817L-771.258 782.223L-770.875 782.223L-553.465 1002.16C-474.534 1081.97 -346.638 1081.97 -267.707 1002.16L-49.6584 781.713L-41.2425 774.063L179.101 556.168C258.925 477.247 258.925 349.366 179.101 270.444L-41.4976 52.8047L-208.923 -112.816C-259.418 -162.795 -259.418 -243.756 -208.923 -293.736L-41.4977 -459.229L-41.4977 -458.719L178.973 -676.613C258.797 -755.535 258.797 -883.415 178.973 -962.337L-41.4978 -1180.23L-50.9338 -1189.41L-268.982 -1409.86C-347.913 -1489.67 -475.809 -1489.67 -554.74 -1409.86L-772.661 -1189.54L-772.151 -1189.54L-937.153 -1022.64C-987.139 -972.154 -1068.11 -972.154 -1118.1 -1022.64L-1283.74 -1190.05L-1284.12 -1190.05L-1501.53 -1409.98C-1580.46 -1489.8 -1708.36 -1489.8 -1787.29 -1409.98L-2005.21 -1189.54L-2013.62 -1181.89L-2234.09 -963.994C-2313.92 -885.073 -2313.92 -757.192 -2234.09 -678.27L-2013.62 -460.376L-2013.5 -460.503Z" stroke="url(#paint7_linear_571_4806)" stroke-width="1.75" stroke-miterlimit="10" stroke-linecap="round"/>
<path d="M-2013.5 -460.503L-1846.07 -295.01C-1795.58 -245.031 -1795.58 -164.07 -1846.07 -114.09L-2013.5 51.4025L-2013.5 50.8925L-2233.97 268.787C-2313.79 347.709 -2313.79 475.589 -2233.97 554.511L-2013.5 772.405L-2004.06 781.585L-1786.01 1002.16C-1707.08 1081.97 -1579.18 1081.97 -1500.25 1002.16L-1282.33 781.713L-1282.84 781.713L-1117.71 614.817C-1067.73 564.328 -986.756 564.328 -936.771 614.817L-771.258 782.223L-770.875 782.223L-553.465 1002.16C-474.534 1081.97 -346.638 1081.97 -267.707 1002.16L-49.6584 781.713L-41.2425 774.063L179.101 556.168C258.925 477.247 258.925 349.366 179.101 270.444L-41.4976 52.8047L-208.923 -112.816C-259.418 -162.795 -259.418 -243.756 -208.923 -293.736L-41.4977 -459.229L-41.4977 -458.719L178.973 -676.613C258.797 -755.535 258.797 -883.415 178.973 -962.337L-41.4978 -1180.23L-50.9338 -1189.41L-268.982 -1409.86C-347.913 -1489.67 -475.809 -1489.67 -554.74 -1409.86L-772.661 -1189.54L-772.151 -1189.54L-937.153 -1022.64C-987.139 -972.154 -1068.11 -972.154 -1118.1 -1022.64L-1283.74 -1190.05L-1284.12 -1190.05L-1501.53 -1409.98C-1580.46 -1489.8 -1708.36 -1489.8 -1787.29 -1409.98L-2005.21 -1189.54L-2013.62 -1181.89L-2234.09 -963.994C-2313.92 -885.073 -2313.92 -757.192 -2234.09 -678.27L-2013.62 -460.376L-2013.5 -460.503Z" stroke="url(#paint8_linear_571_4806)" stroke-width="1.75" stroke-miterlimit="10" stroke-linecap="round"/>
<path d="M-2004.44 -458.209L-1838.55 -294.118C-1788.44 -244.649 -1788.44 -164.325 -1838.55 -114.856L-2004.44 49.1072L-2004.44 48.5972L-2222.88 264.579C-2301.93 342.736 -2301.93 469.469 -2222.88 547.626L-2004.44 763.608L-1995.14 772.66L-1779 990.938C-1700.83 1069.99 -1574.09 1069.99 -1495.92 990.938L-1279.91 772.533L-1280.42 772.533L-1116.95 607.295C-1067.47 557.188 -987.141 557.188 -937.665 607.295L-773.555 773.17L-773.173 773.17L-557.675 991.065C-479.509 1070.11 -352.76 1070.11 -274.594 991.065L-58.5862 772.66L-50.2978 765.138L167.878 549.156C246.936 470.999 246.936 344.266 167.878 266.109L-50.6805 50.5094L-216.576 -113.581C-266.689 -163.05 -266.689 -243.374 -216.576 -292.844L-50.6805 -456.934L-50.6805 -456.424L167.75 -672.406C246.809 -750.563 246.809 -877.296 167.75 -955.453L-50.6806 -1171.43L-59.9891 -1180.49L-275.997 -1398.89C-354.163 -1477.94 -480.912 -1477.94 -559.077 -1398.89L-775.086 -1180.49L-774.576 -1180.49L-938.175 -1015.12C-987.651 -965.015 -1067.98 -965.015 -1117.46 -1015.12L-1281.57 -1181L-1281.95 -1181L-1497.45 -1398.89C-1575.62 -1477.94 -1702.36 -1477.94 -1780.53 -1398.89L-1996.54 -1180.49L-2004.83 -1172.96L-2223.26 -956.982C-2302.32 -878.826 -2302.32 -752.092 -2223.26 -673.936L-2004.83 -457.954L-2004.44 -458.209Z" stroke="url(#paint9_linear_571_4806)" stroke-width="1.75" stroke-miterlimit="10" stroke-linecap="round"/>
<path d="M-2004.44 -458.209L-1838.55 -294.118C-1788.44 -244.649 -1788.44 -164.325 -1838.55 -114.856L-2004.44 49.1072L-2004.44 48.5972L-2222.88 264.579C-2301.93 342.736 -2301.93 469.469 -2222.88 547.626L-2004.44 763.608L-1995.14 772.66L-1779 990.938C-1700.83 1069.99 -1574.09 1069.99 -1495.92 990.938L-1279.91 772.533L-1280.42 772.533L-1116.95 607.295C-1067.47 557.188 -987.141 557.188 -937.665 607.295L-773.555 773.17L-773.173 773.17L-557.675 991.065C-479.509 1070.11 -352.76 1070.11 -274.594 991.065L-58.5862 772.66L-50.2978 765.138L167.878 549.156C246.936 470.999 246.936 344.266 167.878 266.109L-50.6805 50.5094L-216.576 -113.581C-266.689 -163.05 -266.689 -243.374 -216.576 -292.844L-50.6805 -456.934L-50.6805 -456.424L167.75 -672.406C246.809 -750.563 246.809 -877.296 167.75 -955.453L-50.6806 -1171.43L-59.9891 -1180.49L-275.997 -1398.89C-354.163 -1477.94 -480.912 -1477.94 -559.077 -1398.89L-775.086 -1180.49L-774.576 -1180.49L-938.175 -1015.12C-987.651 -965.015 -1067.98 -965.015 -1117.46 -1015.12L-1281.57 -1181L-1281.95 -1181L-1497.45 -1398.89C-1575.62 -1477.94 -1702.36 -1477.94 -1780.53 -1398.89L-1996.54 -1180.49L-2004.83 -1172.96L-2223.26 -956.982C-2302.32 -878.826 -2302.32 -752.092 -2223.26 -673.936L-2004.83 -457.954L-2004.44 -458.209Z" stroke="url(#paint10_linear_571_4806)" stroke-width="1.75" stroke-miterlimit="10" stroke-linecap="round"/>
<path d="M-1995.27 -455.787L-1830.9 -293.227C-1781.3 -244.14 -1781.3 -164.709 -1830.9 -115.622L-1995.27 46.6836L-1995.27 46.1735L-2211.66 260.116C-2289.95 337.507 -2289.95 463.093 -2211.66 540.485L-1995.27 754.427L-1986.08 763.352L-1772.12 979.716C-1694.72 1058 -1569.11 1058 -1491.71 979.716L-1277.62 763.479L-1278.13 763.479L-1116.06 599.644C-1066.97 550.047 -987.525 550.047 -938.432 599.644L-775.98 763.989L-775.597 763.989L-562.267 979.844C-484.866 1058.13 -359.265 1058.13 -281.864 979.844L-67.8966 763.479L-59.7357 755.957L156.655 542.014C234.948 464.623 234.948 339.037 156.655 261.645L-59.8633 47.9583L-224.228 -114.602C-273.831 -163.689 -273.831 -243.12 -224.228 -292.207L-59.9909 -454.64L-59.9909 -454.13L156.4 -668.072C234.693 -745.464 234.693 -871.05 156.4 -948.441L-59.991 -1162.38L-69.172 -1171.31L-283.012 -1387.67C-360.413 -1465.96 -486.014 -1465.96 -563.415 -1387.67L-777.383 -1171.31L-776.873 -1171.31L-938.943 -1007.47C-988.035 -957.876 -1067.48 -957.876 -1116.57 -1007.47L-1279.15 -1171.82L-1279.53 -1171.82L-1492.99 -1387.67C-1570.39 -1465.96 -1695.99 -1465.96 -1773.39 -1387.67L-1987.36 -1171.31L-1995.52 -1163.79L-2211.91 -949.843C-2290.2 -872.452 -2290.2 -746.866 -2211.91 -669.474L-1995.52 -455.532L-1995.27 -455.787Z" stroke="url(#paint11_linear_571_4806)" stroke-width="1.75" stroke-miterlimit="10" stroke-linecap="round"/>
<path d="M-1995.27 -455.787L-1830.9 -293.227C-1781.3 -244.14 -1781.3 -164.709 -1830.9 -115.622L-1995.27 46.6836L-1995.27 46.1735L-2211.66 260.116C-2289.95 337.507 -2289.95 463.093 -2211.66 540.485L-1995.27 754.427L-1986.08 763.352L-1772.12 979.716C-1694.72 1058 -1569.11 1058 -1491.71 979.716L-1277.62 763.479L-1278.13 763.479L-1116.06 599.644C-1066.97 550.047 -987.525 550.047 -938.432 599.644L-775.98 763.989L-775.597 763.989L-562.267 979.844C-484.866 1058.13 -359.265 1058.13 -281.864 979.844L-67.8966 763.479L-59.7357 755.957L156.655 542.014C234.948 464.623 234.948 339.037 156.655 261.645L-59.8633 47.9583L-224.228 -114.602C-273.831 -163.689 -273.831 -243.12 -224.228 -292.207L-59.9909 -454.64L-59.9909 -454.13L156.4 -668.072C234.693 -745.464 234.693 -871.05 156.4 -948.441L-59.991 -1162.38L-69.172 -1171.31L-283.012 -1387.67C-360.413 -1465.96 -486.014 -1465.96 -563.415 -1387.67L-777.383 -1171.31L-776.873 -1171.31L-938.943 -1007.47C-988.035 -957.876 -1067.48 -957.876 -1116.57 -1007.47L-1279.15 -1171.82L-1279.53 -1171.82L-1492.99 -1387.67C-1570.39 -1465.96 -1695.99 -1465.96 -1773.39 -1387.67L-1987.36 -1171.31L-1995.52 -1163.79L-2211.91 -949.843C-2290.2 -872.452 -2290.2 -746.866 -2211.91 -669.474L-1995.52 -455.532L-1995.27 -455.787Z" stroke="url(#paint12_linear_571_4806)" stroke-width="1.75" stroke-miterlimit="10" stroke-linecap="round"/>
<path d="M-1986.21 -453.492L-1823.38 -292.462C-1774.28 -243.885 -1774.28 -165.091 -1823.38 -116.514L-1986.08 44.3887L-1986.08 43.8787L-2200.43 255.781C-2277.96 332.535 -2277.96 456.846 -2200.43 533.6L-1986.08 745.502L-1976.9 754.427L-1764.97 968.752C-1688.21 1046.27 -1563.89 1046.27 -1487.12 968.752L-1275.19 754.427L-1275.71 754.427L-1115.17 592.121C-1066.58 543.035 -987.779 543.035 -939.196 592.121L-778.402 754.937L-778.019 754.937L-566.602 968.751C-489.838 1046.27 -365.512 1046.27 -288.749 968.751L-76.8216 754.427L-68.6608 747.032L145.69 535.13C223.218 458.376 223.218 334.065 145.69 257.311L-68.7884 45.6635L-231.623 -115.367C-280.716 -163.944 -280.716 -242.738 -231.623 -291.315L-68.916 -452.218L-68.916 -451.708L145.434 -663.61C222.963 -740.364 222.963 -864.675 145.434 -941.429L-68.9161 -1153.33L-78.097 -1162.26L-290.025 -1376.58C-366.788 -1454.1 -491.114 -1454.1 -567.877 -1376.58L-779.805 -1162.26L-779.295 -1162.26L-939.707 -999.95C-988.289 -950.864 -1067.09 -950.864 -1115.68 -999.95L-1276.73 -1162.77L-1277.11 -1162.77L-1488.53 -1376.58C-1565.29 -1454.1 -1689.61 -1454.1 -1766.38 -1376.58L-1978.31 -1162.26L-1986.47 -1154.86L-2200.82 -942.958C-2278.35 -866.204 -2278.35 -741.894 -2200.82 -665.14L-1986.34 -453.11L-1986.21 -453.492Z" stroke="url(#paint13_linear_571_4806)" stroke-width="1.75" stroke-miterlimit="10" stroke-linecap="round"/>
<path d="M-1986.21 -453.492L-1823.38 -292.462C-1774.28 -243.885 -1774.28 -165.091 -1823.38 -116.514L-1986.08 44.3887L-1986.08 43.8787L-2200.43 255.781C-2277.96 332.535 -2277.96 456.846 -2200.43 533.6L-1986.08 745.502L-1976.9 754.427L-1764.97 968.752C-1688.21 1046.27 -1563.89 1046.27 -1487.12 968.752L-1275.19 754.427L-1275.71 754.427L-1115.17 592.121C-1066.58 543.035 -987.779 543.035 -939.196 592.121L-778.402 754.937L-778.019 754.937L-566.602 968.751C-489.838 1046.27 -365.512 1046.27 -288.749 968.751L-76.8216 754.427L-68.6608 747.032L145.69 535.13C223.218 458.376 223.218 334.065 145.69 257.311L-68.7884 45.6635L-231.623 -115.367C-280.716 -163.944 -280.716 -242.738 -231.623 -291.315L-68.916 -452.218L-68.916 -451.708L145.434 -663.61C222.963 -740.364 222.963 -864.675 145.434 -941.429L-68.9161 -1153.33L-78.097 -1162.26L-290.025 -1376.58C-366.788 -1454.1 -491.114 -1454.1 -567.877 -1376.58L-779.805 -1162.26L-779.295 -1162.26L-939.707 -999.95C-988.289 -950.864 -1067.09 -950.864 -1115.68 -999.95L-1276.73 -1162.77L-1277.11 -1162.77L-1488.53 -1376.58C-1565.29 -1454.1 -1689.61 -1454.1 -1766.38 -1376.58L-1978.31 -1162.26L-1986.47 -1154.86L-2200.82 -942.958C-2278.35 -866.204 -2278.35 -741.894 -2200.82 -665.14L-1986.34 -453.11L-1986.21 -453.492Z" stroke="url(#paint14_linear_571_4806)" stroke-width="1.75" stroke-miterlimit="10" stroke-linecap="round"/>
<path d="M-1977.03 -451.069L-1815.73 -291.569C-1767.02 -243.502 -1767.02 -165.473 -1815.73 -117.278L-1976.91 42.0946L-1976.91 41.5846L-2189.22 251.447C-2266.11 327.436 -2266.11 450.599 -2189.22 526.588L-1977.03 736.45L-1967.98 745.248L-1758.09 957.533C-1682.09 1034.41 -1558.92 1034.41 -1482.92 957.532L-1273.03 745.248L-1273.54 745.248L-1114.4 584.6C-1066.33 535.895 -988.293 535.895 -940.092 584.6L-780.7 745.758L-780.445 745.758L-570.941 957.532C-494.942 1034.41 -371.764 1034.41 -295.766 957.532L-85.8788 745.248L-77.8454 737.853L134.465 527.99C211.355 452.001 211.355 328.838 134.465 252.849L-77.973 43.2418L-239.278 -116.259C-287.988 -164.325 -287.988 -242.354 -239.278 -290.549L-78.1006 -449.922L-78.1006 -449.539L134.21 -659.401C211.1 -735.39 211.1 -858.554 134.209 -934.543L-78.1007 -1144.4L-87.1542 -1153.2L-297.042 -1365.36C-373.04 -1442.24 -496.218 -1442.24 -572.216 -1365.36L-782.103 -1153.07L-781.593 -1153.07L-940.603 -992.299C-988.675 -943.595 -1066.71 -943.595 -1114.91 -992.299L-1274.43 -1153.58L-1274.69 -1153.58L-1484.07 -1365.36C-1560.06 -1442.24 -1683.24 -1442.24 -1759.24 -1365.36L-1969.13 -1153.07L-1977.16 -1145.68L-2189.47 -935.817C-2266.36 -859.828 -2266.36 -736.665 -2189.47 -660.676L-1977.16 -450.814L-1977.03 -451.069Z" stroke="url(#paint15_linear_571_4806)" stroke-width="1.75" stroke-miterlimit="10" stroke-linecap="round"/>
<path d="M-1977.03 -451.069L-1815.73 -291.569C-1767.02 -243.502 -1767.02 -165.473 -1815.73 -117.278L-1976.91 42.0946L-1976.91 41.5846L-2189.22 251.447C-2266.11 327.436 -2266.11 450.599 -2189.22 526.588L-1977.03 736.45L-1967.98 745.248L-1758.09 957.533C-1682.09 1034.41 -1558.92 1034.41 -1482.92 957.532L-1273.03 745.248L-1273.54 745.248L-1114.4 584.6C-1066.33 535.895 -988.293 535.895 -940.092 584.6L-780.7 745.758L-780.445 745.758L-570.941 957.532C-494.942 1034.41 -371.764 1034.41 -295.766 957.532L-85.8788 745.248L-77.8454 737.853L134.465 527.99C211.355 452.001 211.355 328.838 134.465 252.849L-77.973 43.2418L-239.278 -116.259C-287.988 -164.325 -287.988 -242.354 -239.278 -290.549L-78.1006 -449.922L-78.1006 -449.539L134.21 -659.401C211.1 -735.39 211.1 -858.554 134.209 -934.543L-78.1007 -1144.4L-87.1542 -1153.2L-297.042 -1365.36C-373.04 -1442.24 -496.218 -1442.24 -572.216 -1365.36L-782.103 -1153.07L-781.593 -1153.07L-940.603 -992.299C-988.675 -943.595 -1066.71 -943.595 -1114.91 -992.299L-1274.43 -1153.58L-1274.69 -1153.58L-1484.07 -1365.36C-1560.06 -1442.24 -1683.24 -1442.24 -1759.24 -1365.36L-1969.13 -1153.07L-1977.16 -1145.68L-2189.47 -935.817C-2266.36 -859.828 -2266.36 -736.665 -2189.47 -660.676L-1977.16 -450.814L-1977.03 -451.069Z" stroke="url(#paint16_linear_571_4806)" stroke-width="1.75" stroke-miterlimit="10" stroke-linecap="round"/>
<path d="M-1967.98 -448.647L-1808.21 -290.676C-1760.01 -242.992 -1760 -165.728 -1808.21 -118.043L-1967.85 39.7995L-1967.85 39.4171L-2178.12 247.239C-2254.25 322.463 -2254.25 444.479 -2178.12 519.703L-1967.85 727.526L-1958.93 736.195L-1751.08 946.44C-1675.85 1022.56 -1553.82 1022.56 -1478.58 946.44L-1270.74 736.195L-1271.25 736.195L-1113.77 576.95C-1066.08 528.756 -988.802 528.756 -941.112 576.95L-783.123 736.705L-782.868 736.705L-575.403 946.44C-500.17 1022.56 -378.139 1022.56 -302.906 946.44L-95.0592 736.195L-87.1533 728.928L123.117 521.106C199.242 445.881 199.242 323.866 123.117 248.642L-87.2809 41.0743L-247.056 -116.896C-295.256 -164.58 -295.256 -241.844 -247.056 -289.529L-87.4085 -447.372L-87.4085 -446.989L122.861 -654.812C198.987 -730.036 198.987 -852.052 122.861 -927.276L-87.4086 -1135.1L-96.3346 -1143.77L-304.182 -1354.01C-379.415 -1430.13 -501.445 -1430.13 -576.679 -1354.01L-784.526 -1143.77L-784.016 -1143.77L-941.368 -984.777C-989.058 -936.583 -1066.33 -936.583 -1114.02 -984.777L-1272.01 -1144.53L-1272.27 -1144.53L-1479.73 -1354.27C-1554.96 -1430.38 -1676.99 -1430.38 -1752.23 -1354.27L-1960.07 -1144.02L-1967.98 -1136.76L-2178.25 -928.933C-2254.38 -853.709 -2254.38 -731.693 -2178.25 -656.469L-1967.98 -448.647V-448.647Z" stroke="url(#paint17_linear_571_4806)" stroke-width="1.75" stroke-miterlimit="10" stroke-linecap="round"/>
<path d="M-1967.98 -448.647L-1808.21 -290.676C-1760.01 -242.992 -1760 -165.728 -1808.21 -118.043L-1967.85 39.7995L-1967.85 39.4171L-2178.12 247.239C-2254.25 322.463 -2254.25 444.479 -2178.12 519.703L-1967.85 727.526L-1958.93 736.195L-1751.08 946.44C-1675.85 1022.56 -1553.82 1022.56 -1478.58 946.44L-1270.74 736.195L-1271.25 736.195L-1113.77 576.95C-1066.08 528.756 -988.802 528.756 -941.112 576.95L-783.123 736.705L-782.868 736.705L-575.403 946.44C-500.17 1022.56 -378.139 1022.56 -302.906 946.44L-95.0592 736.195L-87.1533 728.928L123.117 521.106C199.242 445.881 199.242 323.866 123.117 248.642L-87.2809 41.0743L-247.056 -116.896C-295.256 -164.58 -295.256 -241.844 -247.056 -289.529L-87.4085 -447.372L-87.4085 -446.989L122.861 -654.812C198.987 -730.036 198.987 -852.052 122.861 -927.276L-87.4086 -1135.1L-96.3346 -1143.77L-304.182 -1354.01C-379.415 -1430.13 -501.445 -1430.13 -576.679 -1354.01L-784.526 -1143.77L-784.016 -1143.77L-941.368 -984.777C-989.058 -936.583 -1066.33 -936.583 -1114.02 -984.777L-1272.01 -1144.53L-1272.27 -1144.53L-1479.73 -1354.27C-1554.96 -1430.38 -1676.99 -1430.38 -1752.23 -1354.27L-1960.07 -1144.02L-1967.98 -1136.76L-2178.25 -928.933C-2254.38 -853.709 -2254.38 -731.693 -2178.25 -656.469L-1967.98 -448.647V-448.647Z" stroke="url(#paint18_linear_571_4806)" stroke-width="1.75" stroke-miterlimit="10" stroke-linecap="round"/>
<path d="M-1958.79 -446.352L-1800.68 -289.912C-1752.99 -242.737 -1752.99 -166.238 -1800.68 -119.064L-1958.79 37.249L-1958.79 36.8665L-2167.02 242.776C-2242.38 317.363 -2242.38 438.104 -2167.02 512.69L-1958.79 718.6L-1949.87 727.27L-1743.93 935.475C-1669.34 1010.83 -1548.58 1010.83 -1473.99 935.475L-1268.05 727.27L-1268.56 727.27L-1112.74 569.427C-1065.56 521.743 -989.051 521.743 -941.871 569.427L-785.412 727.525L-785.157 727.525L-579.732 935.22C-505.137 1010.57 -384.381 1010.57 -309.786 935.22L-103.851 727.015L-95.9455 719.747L112.284 513.838C187.645 439.251 187.645 318.51 112.284 243.924L-96.0731 38.2688L-254.19 -118.172C-301.88 -165.346 -301.88 -241.845 -254.19 -289.02L-96.0732 -445.333L-96.0732 -444.95L112.157 -650.86C187.517 -725.446 187.517 -846.187 112.156 -920.774L-96.2008 -1126.3L-105.127 -1134.97L-311.061 -1343.05C-385.657 -1418.4 -506.412 -1418.4 -581.008 -1343.05L-786.942 -1134.84L-786.432 -1134.84L-942.254 -977.256C-989.434 -929.571 -1065.94 -929.571 -1113.12 -977.256L-1269.58 -1135.35L-1269.84 -1135.35L-1475.26 -1343.05C-1549.86 -1418.4 -1670.61 -1418.4 -1745.21 -1343.05L-1951.14 -1134.84L-1959.05 -1127.58L-2167.28 -921.666C-2242.64 -847.08 -2242.64 -726.339 -2167.28 -651.752L-1959.05 -445.842L-1958.79 -446.352Z" stroke="url(#paint19_linear_571_4806)" stroke-width="1.75" stroke-miterlimit="10" stroke-linecap="round"/>
<path d="M-1958.79 -446.352L-1800.68 -289.912C-1752.99 -242.737 -1752.99 -166.238 -1800.68 -119.064L-1958.79 37.249L-1958.79 36.8665L-2167.02 242.776C-2242.38 317.363 -2242.38 438.104 -2167.02 512.69L-1958.79 718.6L-1949.87 727.27L-1743.93 935.475C-1669.34 1010.83 -1548.58 1010.83 -1473.99 935.475L-1268.05 727.27L-1268.56 727.27L-1112.74 569.427C-1065.56 521.743 -989.051 521.743 -941.871 569.427L-785.412 727.525L-785.157 727.525L-579.732 935.22C-505.137 1010.57 -384.381 1010.57 -309.786 935.22L-103.851 727.015L-95.9455 719.747L112.284 513.838C187.645 439.251 187.645 318.51 112.284 243.924L-96.0731 38.2688L-254.19 -118.172C-301.88 -165.346 -301.88 -241.845 -254.19 -289.02L-96.0732 -445.333L-96.0732 -444.95L112.157 -650.86C187.517 -725.446 187.517 -846.187 112.156 -920.774L-96.2008 -1126.3L-105.127 -1134.97L-311.061 -1343.05C-385.657 -1418.4 -506.412 -1418.4 -581.008 -1343.05L-786.942 -1134.84L-786.432 -1134.84L-942.254 -977.256C-989.434 -929.571 -1065.94 -929.571 -1113.12 -977.256L-1269.58 -1135.35L-1269.84 -1135.35L-1475.26 -1343.05C-1549.86 -1418.4 -1670.61 -1418.4 -1745.21 -1343.05L-1951.14 -1134.84L-1959.05 -1127.58L-2167.28 -921.666C-2242.64 -847.08 -2242.64 -726.339 -2167.28 -651.752L-1959.05 -445.842L-1958.79 -446.352Z" stroke="url(#paint20_linear_571_4806)" stroke-width="1.75" stroke-miterlimit="10" stroke-linecap="round"/>
<path d="M-1949.74 -443.929L-1793.15 -289.018C-1745.85 -242.226 -1745.85 -166.492 -1793.15 -119.828L-1949.61 34.9552L-1949.61 34.5727L-2155.8 238.443C-2230.4 312.264 -2230.4 431.858 -2155.8 505.679L-1949.61 709.421L-1940.81 717.964L-1736.92 924.129C-1663.09 998.715 -1543.48 998.715 -1469.65 924.129L-1265.76 717.964L-1266.27 717.964L-1111.85 561.906C-1065.05 514.604 -989.308 514.604 -942.638 561.906L-787.837 718.474L-787.581 718.474L-584.07 924.129C-510.239 998.715 -390.631 998.715 -316.801 924.129L-112.907 717.964L-105.128 710.824L101.061 506.954C175.657 433.132 175.657 313.539 101.061 239.717L-105.256 36.1025L-261.843 -118.808C-309.15 -165.6 -309.15 -241.334 -261.843 -287.998L-105.256 -442.781L-105.256 -442.399L100.806 -646.141C175.401 -719.963 175.401 -839.556 100.806 -913.378L-105.384 -1117.25L-114.182 -1125.79L-318.076 -1331.95C-391.907 -1406.54 -511.515 -1406.54 -585.345 -1331.95L-789.239 -1125.79L-788.729 -1125.79L-943.148 -969.732C-989.946 -922.43 -1065.69 -922.43 -1112.36 -969.732L-1267.29 -1126.3L-1267.54 -1126.3L-1470.93 -1331.95C-1544.76 -1406.54 -1664.37 -1406.54 -1738.2 -1331.95L-1942.09 -1125.79L-1949.87 -1118.65L-2156.06 -914.78C-2230.65 -840.958 -2230.65 -721.365 -2156.06 -647.543L-1949.87 -443.673L-1949.74 -443.929Z" stroke="url(#paint21_linear_571_4806)" stroke-width="1.75" stroke-miterlimit="10" stroke-linecap="round"/>
<path d="M-1949.74 -443.929L-1793.15 -289.018C-1745.85 -242.226 -1745.85 -166.492 -1793.15 -119.828L-1949.61 34.9552L-1949.61 34.5727L-2155.8 238.443C-2230.4 312.264 -2230.4 431.858 -2155.8 505.679L-1949.61 709.421L-1940.81 717.964L-1736.92 924.129C-1663.09 998.715 -1543.48 998.715 -1469.65 924.129L-1265.76 717.964L-1266.27 717.964L-1111.85 561.906C-1065.05 514.604 -989.308 514.604 -942.638 561.906L-787.837 718.474L-787.581 718.474L-584.07 924.129C-510.239 998.715 -390.631 998.715 -316.801 924.129L-112.907 717.964L-105.128 710.824L101.061 506.954C175.657 433.132 175.657 313.539 101.061 239.717L-105.256 36.1025L-261.843 -118.808C-309.15 -165.6 -309.15 -241.334 -261.843 -287.998L-105.256 -442.781L-105.256 -442.399L100.806 -646.141C175.401 -719.963 175.401 -839.556 100.806 -913.378L-105.384 -1117.25L-114.182 -1125.79L-318.076 -1331.95C-391.907 -1406.54 -511.515 -1406.54 -585.345 -1331.95L-789.239 -1125.79L-788.729 -1125.79L-943.148 -969.732C-989.946 -922.43 -1065.69 -922.43 -1112.36 -969.732L-1267.29 -1126.3L-1267.54 -1126.3L-1470.93 -1331.95C-1544.76 -1406.54 -1664.37 -1406.54 -1738.2 -1331.95L-1942.09 -1125.79L-1949.87 -1118.65L-2156.06 -914.78C-2230.65 -840.958 -2230.65 -721.365 -2156.06 -647.543L-1949.87 -443.673L-1949.74 -443.929Z" stroke="url(#paint22_linear_571_4806)" stroke-width="1.75" stroke-miterlimit="10" stroke-linecap="round"/>
<path d="M-1940.56 -441.636L-1785.51 -288.255C-1738.71 -241.973 -1738.71 -167.004 -1785.51 -120.722L-1940.56 32.5309L-1940.56 32.1484L-2144.71 233.978C-2218.54 307.035 -2218.54 425.481 -2144.71 498.537L-1940.56 700.367L-1931.89 708.782L-1730.04 912.907C-1656.97 986.729 -1538.51 986.728 -1465.45 912.907L-1263.59 708.782L-1264.1 708.782L-1111.21 554.254C-1064.93 507.462 -989.948 507.462 -943.66 554.254L-790.134 709.292L-789.879 709.292L-588.535 913.034C-515.469 986.856 -397.009 986.856 -323.944 913.034L-122.09 708.909L-114.311 701.897L89.8381 500.067C163.668 427.011 163.668 308.565 89.838 235.508L-114.439 33.9331L-269.496 -119.447C-316.293 -165.729 -316.293 -240.698 -269.496 -286.98L-114.439 -440.361L-114.439 -439.978L89.7104 -641.808C163.541 -714.865 163.541 -833.311 89.7104 -906.367L-114.439 -1108.2L-123.11 -1116.61L-325.092 -1320.74C-398.157 -1394.56 -516.617 -1394.56 -589.683 -1320.74L-791.537 -1116.61L-791.027 -1116.61L-943.915 -962.084C-990.203 -915.292 -1065.18 -915.292 -1111.47 -962.084L-1264.87 -1117.12L-1265.12 -1117.12L-1466.47 -1320.74C-1539.53 -1394.56 -1657.99 -1394.56 -1731.06 -1320.74L-1933.04 -1116.61L-1940.82 -1109.6L-2144.97 -907.769C-2218.8 -834.713 -2218.8 -716.267 -2144.97 -643.21L-1940.69 -441.381L-1940.56 -441.636Z" stroke="url(#paint23_linear_571_4806)" stroke-width="1.75" stroke-miterlimit="10" stroke-linecap="round"/>
<path d="M-1940.56 -441.636L-1785.51 -288.255C-1738.71 -241.973 -1738.71 -167.004 -1785.51 -120.722L-1940.56 32.5309L-1940.56 32.1484L-2144.71 233.978C-2218.54 307.035 -2218.54 425.481 -2144.71 498.537L-1940.56 700.367L-1931.89 708.782L-1730.04 912.907C-1656.97 986.729 -1538.51 986.728 -1465.45 912.907L-1263.59 708.782L-1264.1 708.782L-1111.21 554.254C-1064.93 507.462 -989.948 507.462 -943.66 554.254L-790.134 709.292L-789.879 709.292L-588.535 913.034C-515.469 986.856 -397.009 986.856 -323.944 913.034L-122.09 708.909L-114.311 701.897L89.8381 500.067C163.668 427.011 163.668 308.565 89.838 235.508L-114.439 33.9331L-269.496 -119.447C-316.293 -165.729 -316.293 -240.698 -269.496 -286.98L-114.439 -440.361L-114.439 -439.978L89.7104 -641.808C163.541 -714.865 163.541 -833.311 89.7104 -906.367L-114.439 -1108.2L-123.11 -1116.61L-325.092 -1320.74C-398.157 -1394.56 -516.617 -1394.56 -589.683 -1320.74L-791.537 -1116.61L-791.027 -1116.61L-943.915 -962.084C-990.203 -915.292 -1065.18 -915.292 -1111.47 -962.084L-1264.87 -1117.12L-1265.12 -1117.12L-1466.47 -1320.74C-1539.53 -1394.56 -1657.99 -1394.56 -1731.06 -1320.74L-1933.04 -1116.61L-1940.82 -1109.6L-2144.97 -907.769C-2218.8 -834.713 -2218.8 -716.267 -2144.97 -643.21L-1940.69 -441.381L-1940.56 -441.636Z" stroke="url(#paint24_linear_571_4806)" stroke-width="1.75" stroke-miterlimit="10" stroke-linecap="round"/>
<path d="M-1931.51 -439.213L-1777.98 -287.362C-1731.69 -241.59 -1731.69 -167.259 -1777.98 -121.487L-1931.38 30.2361L-1931.38 29.8536L-2133.49 229.644C-2206.68 301.935 -2206.68 419.234 -2133.49 491.653L-1931.38 691.443L-1922.71 699.857L-1722.89 901.942C-1650.59 975.126 -1533.28 975.126 -1460.85 901.942L-1261.04 699.857L-1261.55 699.857L-1110.19 546.859C-1064.41 500.577 -990.074 500.577 -944.296 546.859L-792.555 700.24L-792.3 700.24L-592.868 901.815C-520.568 974.999 -403.256 974.999 -330.828 901.815L-131.014 699.73L-123.363 692.717L78.7459 492.927C151.939 420.636 151.939 303.337 78.7459 230.918L-123.491 31.3834L-277.017 -120.34C-323.305 -166.112 -323.305 -240.443 -277.017 -286.215L-123.491 -437.938L-123.491 -437.556L78.6183 -637.346C151.811 -709.637 151.811 -826.936 78.6182 -899.355L-123.618 -1099.14L-132.289 -1107.56L-332.103 -1309.64C-404.404 -1382.83 -521.716 -1382.83 -594.144 -1309.64L-793.958 -1107.56L-793.448 -1107.56L-944.806 -954.561C-990.584 -908.279 -1064.92 -908.279 -1110.7 -954.561L-1262.57 -1108.07L-1262.83 -1108.07L-1462.26 -1309.64C-1534.56 -1382.83 -1651.87 -1382.83 -1724.3 -1309.64L-1924.11 -1107.56L-1931.76 -1100.55L-2133.87 -900.757C-2207.06 -828.465 -2207.06 -711.167 -2133.87 -638.748L-1931.76 -438.958L-1931.51 -439.213Z" stroke="url(#paint25_linear_571_4806)" stroke-width="1.75" stroke-miterlimit="10" stroke-linecap="round"/>
<path d="M-1931.51 -439.213L-1777.98 -287.362C-1731.69 -241.59 -1731.69 -167.259 -1777.98 -121.487L-1931.38 30.2361L-1931.38 29.8536L-2133.49 229.644C-2206.68 301.935 -2206.68 419.234 -2133.49 491.653L-1931.38 691.443L-1922.71 699.857L-1722.89 901.942C-1650.59 975.126 -1533.28 975.126 -1460.85 901.942L-1261.04 699.857L-1261.55 699.857L-1110.19 546.859C-1064.41 500.577 -990.074 500.577 -944.296 546.859L-792.555 700.24L-792.3 700.24L-592.868 901.815C-520.568 974.999 -403.256 974.999 -330.828 901.815L-131.014 699.73L-123.363 692.717L78.7459 492.927C151.939 420.636 151.939 303.337 78.7459 230.918L-123.491 31.3834L-277.017 -120.34C-323.305 -166.112 -323.305 -240.443 -277.017 -286.215L-123.491 -437.938L-123.491 -437.556L78.6183 -637.346C151.811 -709.637 151.811 -826.936 78.6182 -899.355L-123.618 -1099.14L-132.289 -1107.56L-332.103 -1309.64C-404.404 -1382.83 -521.716 -1382.83 -594.144 -1309.64L-793.958 -1107.56L-793.448 -1107.56L-944.806 -954.561C-990.584 -908.279 -1064.92 -908.279 -1110.7 -954.561L-1262.57 -1108.07L-1262.83 -1108.07L-1462.26 -1309.64C-1534.56 -1382.83 -1651.87 -1382.83 -1724.3 -1309.64L-1924.11 -1107.56L-1931.76 -1100.55L-2133.87 -900.757C-2207.06 -828.465 -2207.06 -711.167 -2133.87 -638.748L-1931.76 -438.958L-1931.51 -439.213Z" stroke="url(#paint26_linear_571_4806)" stroke-width="1.75" stroke-miterlimit="10" stroke-linecap="round"/>
<path d="M-1922.45 -436.79L-1770.46 -286.469C-1724.55 -241.08 -1724.55 -167.641 -1770.46 -122.251L-1922.33 27.9417L-1922.33 27.5592L-2122.4 225.309C-2194.82 296.963 -2194.82 412.987 -2122.4 484.641L-1922.33 682.391L-1913.78 690.678L-1716.01 890.723C-1644.35 963.142 -1528.31 963.142 -1456.65 890.723L-1258.87 690.678L-1259.38 690.678L-1109.56 539.21C-1064.16 493.311 -990.713 493.311 -945.318 539.21L-794.979 691.06L-794.724 691.06L-597.206 890.723C-525.543 963.142 -409.506 963.142 -337.843 890.723L-140.069 690.678L-132.546 683.793L67.5229 486.043C139.951 414.389 139.951 298.365 67.5228 226.711L-132.674 29.2164L-284.67 -121.104C-330.575 -166.494 -330.575 -239.933 -284.67 -285.322L-132.801 -435.515L-132.801 -435.133L67.2677 -632.883C139.695 -704.537 139.695 -820.56 67.2677 -892.214L-132.801 -1089.96L-141.345 -1098.25L-338.991 -1298.42C-410.653 -1370.84 -526.691 -1370.84 -598.354 -1298.42L-796.127 -1098.38L-795.617 -1098.38L-945.446 -946.911C-990.84 -901.012 -1064.29 -901.012 -1109.68 -946.911L-1260.02 -1098.89L-1260.28 -1098.89L-1457.67 -1298.42C-1529.33 -1370.84 -1645.37 -1370.84 -1717.03 -1298.42L-1914.8 -1098.38L-1922.33 -1091.49L-2122.4 -893.744C-2194.82 -822.09 -2194.82 -706.066 -2122.4 -634.412L-1922.58 -436.535L-1922.45 -436.79Z" stroke="url(#paint27_linear_571_4806)" stroke-width="1.75" stroke-miterlimit="10" stroke-linecap="round"/>
<path d="M-1922.45 -436.79L-1770.46 -286.469C-1724.55 -241.08 -1724.55 -167.641 -1770.46 -122.251L-1922.33 27.9417L-1922.33 27.5592L-2122.4 225.309C-2194.82 296.963 -2194.82 412.987 -2122.4 484.641L-1922.33 682.391L-1913.78 690.678L-1716.01 890.723C-1644.35 963.142 -1528.31 963.142 -1456.65 890.723L-1258.87 690.678L-1259.38 690.678L-1109.56 539.21C-1064.16 493.311 -990.713 493.311 -945.318 539.21L-794.979 691.06L-794.724 691.06L-597.206 890.723C-525.543 963.142 -409.506 963.142 -337.843 890.723L-140.069 690.678L-132.546 683.793L67.5229 486.043C139.951 414.389 139.951 298.365 67.5228 226.711L-132.674 29.2164L-284.67 -121.104C-330.575 -166.494 -330.575 -239.933 -284.67 -285.322L-132.801 -435.515L-132.801 -435.133L67.2677 -632.883C139.695 -704.537 139.695 -820.56 67.2677 -892.214L-132.801 -1089.96L-141.345 -1098.25L-338.991 -1298.42C-410.653 -1370.84 -526.691 -1370.84 -598.354 -1298.42L-796.127 -1098.38L-795.617 -1098.38L-945.446 -946.911C-990.84 -901.012 -1064.29 -901.012 -1109.68 -946.911L-1260.02 -1098.89L-1260.28 -1098.89L-1457.67 -1298.42C-1529.33 -1370.84 -1645.37 -1370.84 -1717.03 -1298.42L-1914.8 -1098.38L-1922.33 -1091.49L-2122.4 -893.744C-2194.82 -822.09 -2194.82 -706.066 -2122.4 -634.412L-1922.58 -436.535L-1922.45 -436.79Z" stroke="url(#paint28_linear_571_4806)" stroke-width="1.75" stroke-miterlimit="10" stroke-linecap="round"/>
<path d="M-1913.27 -434.495L-1762.8 -285.704C-1717.41 -240.825 -1717.41 -168.023 -1762.8 -123.144L-1913.14 25.5194L-1913.14 25.1369L-2111.17 220.974C-2182.83 291.863 -2182.83 406.739 -2111.17 477.629L-1913.14 673.466L-1904.73 681.626L-1708.87 879.631C-1637.97 951.285 -1523.08 951.285 -1452.18 879.631L-1256.32 681.626L-1256.83 681.626L-1108.53 531.688C-1063.65 486.298 -990.837 486.298 -945.952 531.688L-797.144 682.136L-796.889 682.136L-601.665 879.503C-530.768 951.157 -415.878 951.157 -344.98 879.503L-149.119 681.498L-141.596 674.613L56.4326 478.903C128.095 408.014 128.095 293.138 56.4326 222.249L-141.724 26.6666L-292.19 -122.124C-337.585 -167.003 -337.585 -239.805 -292.19 -284.684L-141.851 -433.347L-141.851 -432.965L56.1775 -628.675C127.84 -699.564 127.84 -814.44 56.1774 -885.329L-141.851 -1081.17L-150.267 -1089.33L-346.128 -1287.33C-417.026 -1358.99 -531.915 -1358.99 -602.813 -1287.33L-798.546 -1089.33L-798.036 -1089.33L-946.335 -939.388C-991.22 -893.999 -1064.03 -893.999 -1108.91 -939.388L-1257.72 -1089.84L-1257.98 -1089.84L-1453.33 -1287.33C-1524.23 -1358.99 -1639.12 -1358.99 -1710.01 -1287.33L-1905.87 -1089.33L-1913.4 -1082.44L-2111.43 -886.604C-2183.09 -815.715 -2183.09 -700.838 -2111.43 -629.949L-1913.4 -434.112L-1913.27 -434.495Z" stroke="url(#paint29_linear_571_4806)" stroke-width="1.75" stroke-miterlimit="10" stroke-linecap="round"/>
<path d="M-1913.27 -434.495L-1762.8 -285.704C-1717.41 -240.825 -1717.41 -168.023 -1762.8 -123.144L-1913.14 25.5194L-1913.14 25.1369L-2111.17 220.974C-2182.83 291.863 -2182.83 406.739 -2111.17 477.629L-1913.14 673.466L-1904.73 681.626L-1708.87 879.631C-1637.97 951.285 -1523.08 951.285 -1452.18 879.631L-1256.32 681.626L-1256.83 681.626L-1108.53 531.688C-1063.65 486.298 -990.837 486.298 -945.952 531.688L-797.144 682.136L-796.889 682.136L-601.665 879.503C-530.768 951.157 -415.878 951.157 -344.98 879.503L-149.119 681.498L-141.596 674.613L56.4326 478.903C128.095 408.014 128.095 293.138 56.4326 222.249L-141.724 26.6666L-292.19 -122.124C-337.585 -167.003 -337.585 -239.805 -292.19 -284.684L-141.851 -433.347L-141.851 -432.965L56.1775 -628.675C127.84 -699.564 127.84 -814.44 56.1774 -885.329L-141.851 -1081.17L-150.267 -1089.33L-346.128 -1287.33C-417.026 -1358.99 -531.915 -1358.99 -602.813 -1287.33L-798.546 -1089.33L-798.036 -1089.33L-946.335 -939.388C-991.22 -893.999 -1064.03 -893.999 -1108.91 -939.388L-1257.72 -1089.84L-1257.98 -1089.84L-1453.33 -1287.33C-1524.23 -1358.99 -1639.12 -1358.99 -1710.01 -1287.33L-1905.87 -1089.33L-1913.4 -1082.44L-2111.43 -886.604C-2183.09 -815.715 -2183.09 -700.838 -2111.43 -629.949L-1913.4 -434.112L-1913.27 -434.495Z" stroke="url(#paint30_linear_571_4806)" stroke-width="1.75" stroke-miterlimit="10" stroke-linecap="round"/>
<path d="M-1904.22 -432.072L-1755.28 -284.812C-1710.4 -240.442 -1710.4 -168.406 -1755.28 -123.909L-1904.09 23.2244L-1904.09 22.842L-2100.08 216.639C-2170.98 286.764 -2170.98 400.492 -2100.08 470.616L-1904.09 664.414L-1895.68 672.574L-1701.85 868.539C-1631.72 939.428 -1517.98 939.428 -1447.85 868.538L-1254.03 672.573L-1254.54 672.573L-1107.77 524.165C-1063.39 479.286 -991.349 479.286 -946.847 524.165L-799.696 672.956L-799.441 672.956L-606.003 868.411C-535.87 939.3 -422.128 939.3 -351.995 868.411L-158.175 672.446L-150.779 665.688L45.2096 471.891C116.107 401.767 116.107 288.038 45.2095 217.914L-150.906 24.3717L-299.715 -122.889C-344.6 -167.258 -344.6 -239.295 -299.715 -283.792L-150.907 -430.925L-150.907 -430.543L45.0819 -624.34C115.979 -694.464 115.979 -808.193 45.0819 -878.317L-150.907 -1072.11L-159.323 -1080.27L-353.143 -1276.24C-423.276 -1347.13 -537.018 -1347.13 -607.151 -1276.24L-800.971 -1080.27L-800.461 -1080.27L-947.229 -931.866C-991.604 -886.986 -1063.65 -886.986 -1108.15 -931.866L-1255.43 -1080.78L-1255.69 -1080.78L-1449 -1276.24C-1519.13 -1347.13 -1632.87 -1347.13 -1703 -1276.24L-1896.82 -1080.27L-1904.22 -1073.52L-2100.21 -879.719C-2171.11 -809.595 -2171.11 -695.866 -2100.21 -625.742L-1904.22 -431.945L-1904.22 -432.072Z" stroke="url(#paint31_linear_571_4806)" stroke-width="1.75" stroke-miterlimit="10" stroke-linecap="round"/>
<path d="M-1904.22 -432.072L-1755.28 -284.812C-1710.4 -240.442 -1710.4 -168.406 -1755.28 -123.909L-1904.09 23.2244L-1904.09 22.842L-2100.08 216.639C-2170.98 286.764 -2170.98 400.492 -2100.08 470.616L-1904.09 664.414L-1895.68 672.574L-1701.85 868.539C-1631.72 939.428 -1517.98 939.428 -1447.85 868.538L-1254.03 672.573L-1254.54 672.573L-1107.77 524.165C-1063.39 479.286 -991.349 479.286 -946.847 524.165L-799.696 672.956L-799.441 672.956L-606.003 868.411C-535.87 939.3 -422.128 939.3 -351.995 868.411L-158.175 672.446L-150.779 665.688L45.2096 471.891C116.107 401.767 116.107 288.038 45.2095 217.914L-150.906 24.3717L-299.715 -122.889C-344.6 -167.258 -344.6 -239.295 -299.715 -283.792L-150.907 -430.925L-150.907 -430.543L45.0819 -624.34C115.979 -694.464 115.979 -808.193 45.0819 -878.317L-150.907 -1072.11L-159.323 -1080.27L-353.143 -1276.24C-423.276 -1347.13 -537.018 -1347.13 -607.151 -1276.24L-800.971 -1080.27L-800.461 -1080.27L-947.229 -931.866C-991.604 -886.986 -1063.65 -886.986 -1108.15 -931.866L-1255.43 -1080.78L-1255.69 -1080.78L-1449 -1276.24C-1519.13 -1347.13 -1632.87 -1347.13 -1703 -1276.24L-1896.82 -1080.27L-1904.22 -1073.52L-2100.21 -879.719C-2171.11 -809.595 -2171.11 -695.866 -2100.21 -625.742L-1904.22 -431.945L-1904.22 -432.072Z" stroke="url(#paint32_linear_571_4806)" stroke-width="1.75" stroke-miterlimit="10" stroke-linecap="round"/>
<path d="M-1895.04 -429.778L-1747.76 -284.048C-1703.26 -240.061 -1703.26 -168.789 -1747.76 -124.802L-1895.04 20.801L-1895.04 20.4185L-2088.99 212.176C-2159.25 281.535 -2159.25 394.116 -2088.99 463.603L-1895.04 655.36L-1886.75 663.393L-1694.97 857.317C-1625.6 927.569 -1513.01 927.569 -1443.51 857.317L-1251.73 663.392L-1252.24 663.392L-1107 516.514C-1063.01 472.017 -991.73 472.017 -947.738 516.514L-801.99 663.775L-801.735 663.775L-610.337 857.19C-540.969 927.441 -428.375 927.441 -358.88 857.19L-167.099 663.265L-159.703 656.507L34.1174 464.877C104.377 395.518 104.377 282.937 34.1174 213.451L-159.958 21.9482L-307.237 -123.782C-351.739 -167.769 -351.739 -239.041 -307.237 -283.028L-159.958 -428.631L-159.958 -428.248L33.9898 -620.006C104.25 -689.365 104.25 -801.946 33.9897 -871.432L-159.959 -1063.19L-168.247 -1071.22L-360.028 -1265.15C-429.395 -1335.4 -541.99 -1335.4 -611.484 -1265.15L-803.265 -1071.09L-802.755 -1071.09L-947.993 -924.217C-991.985 -879.72 -1063.27 -879.72 -1107.26 -924.217L-1253.01 -1071.48L-1253.26 -1071.48L-1444.66 -1264.89C-1514.03 -1335.14 -1626.62 -1335.14 -1696.12 -1264.89L-1887.9 -1070.97L-1895.29 -1064.21L-2089.11 -872.58C-2159.37 -803.221 -2159.37 -690.64 -2089.11 -621.153L-1895.16 -429.396L-1895.04 -429.778Z" stroke="url(#paint33_linear_571_4806)" stroke-width="1.75" stroke-miterlimit="10" stroke-linecap="round"/>
<path d="M-1895.04 -429.778L-1747.76 -284.048C-1703.26 -240.061 -1703.26 -168.789 -1747.76 -124.802L-1895.04 20.801L-1895.04 20.4185L-2088.99 212.176C-2159.25 281.535 -2159.25 394.116 -2088.99 463.603L-1895.04 655.36L-1886.75 663.393L-1694.97 857.317C-1625.6 927.569 -1513.01 927.569 -1443.51 857.317L-1251.73 663.392L-1252.24 663.392L-1107 516.514C-1063.01 472.017 -991.73 472.017 -947.738 516.514L-801.99 663.775L-801.735 663.775L-610.337 857.19C-540.969 927.441 -428.375 927.441 -358.88 857.19L-167.099 663.265L-159.703 656.507L34.1174 464.877C104.377 395.518 104.377 282.937 34.1174 213.451L-159.958 21.9482L-307.237 -123.782C-351.739 -167.769 -351.739 -239.041 -307.237 -283.028L-159.958 -428.631L-159.958 -428.248L33.9898 -620.006C104.25 -689.365 104.25 -801.946 33.9897 -871.432L-159.959 -1063.19L-168.247 -1071.22L-360.028 -1265.15C-429.395 -1335.4 -541.99 -1335.4 -611.484 -1265.15L-803.265 -1071.09L-802.755 -1071.09L-947.993 -924.217C-991.985 -879.72 -1063.27 -879.72 -1107.26 -924.217L-1253.01 -1071.48L-1253.26 -1071.48L-1444.66 -1264.89C-1514.03 -1335.14 -1626.62 -1335.14 -1696.12 -1264.89L-1887.9 -1070.97L-1895.29 -1064.21L-2089.11 -872.58C-2159.37 -803.221 -2159.37 -690.64 -2089.11 -621.153L-1895.16 -429.396L-1895.04 -429.778Z" stroke="url(#paint34_linear_571_4806)" stroke-width="1.75" stroke-miterlimit="10" stroke-linecap="round"/>
<path d="M-1885.99 -427.355L-1740.24 -283.155C-1696.25 -239.678 -1696.25 -169.171 -1740.24 -125.567L-1885.99 18.5064L-1885.99 18.1239L-2077.9 207.841C-2147.39 276.563 -2147.39 387.869 -2077.9 456.591L-1885.86 646.308L-1877.7 654.213L-1687.96 846.098C-1619.23 915.585 -1507.91 915.585 -1439.18 846.098L-1249.44 654.213L-1249.95 654.213L-1106.24 508.865C-1062.76 464.878 -992.244 464.878 -948.635 508.865L-804.417 654.723L-804.162 654.723L-614.804 846.098C-546.074 915.585 -434.755 915.585 -366.025 846.098L-176.284 654.213L-169.016 647.583L23.0194 457.865C92.5143 389.144 92.5143 277.838 23.0193 209.116L-169.016 19.6536L-314.892 -124.547C-358.884 -168.024 -358.884 -238.531 -314.892 -282.135L-169.144 -426.208L-169.144 -425.826L22.7642 -615.543C92.2591 -684.265 92.2591 -795.571 22.7642 -864.292L-169.144 -1054.01L-177.305 -1061.91L-367.045 -1253.8C-435.775 -1323.29 -547.094 -1323.29 -615.824 -1253.8L-805.565 -1061.91L-805.055 -1061.91L-948.762 -916.567C-992.245 -872.58 -1062.76 -872.58 -1106.37 -916.567L-1250.59 -1062.3L-1250.84 -1062.3L-1440.2 -1253.67C-1508.93 -1323.16 -1620.25 -1323.16 -1688.98 -1253.67L-1878.72 -1061.79L-1885.99 -1055.16L-2077.9 -865.44C-2147.39 -796.718 -2147.39 -685.412 -2077.9 -616.69L-1885.99 -426.973L-1885.99 -427.355Z" stroke="url(#paint35_linear_571_4806)" stroke-width="1.75" stroke-miterlimit="10" stroke-linecap="round"/>
<path d="M-1885.99 -427.355L-1740.24 -283.155C-1696.25 -239.678 -1696.25 -169.171 -1740.24 -125.567L-1885.99 18.5064L-1885.99 18.1239L-2077.9 207.841C-2147.39 276.563 -2147.39 387.869 -2077.9 456.591L-1885.86 646.308L-1877.7 654.213L-1687.96 846.098C-1619.23 915.585 -1507.91 915.585 -1439.18 846.098L-1249.44 654.213L-1249.95 654.213L-1106.24 508.865C-1062.76 464.878 -992.244 464.878 -948.635 508.865L-804.417 654.723L-804.162 654.723L-614.804 846.098C-546.074 915.585 -434.755 915.585 -366.025 846.098L-176.284 654.213L-169.016 647.583L23.0194 457.865C92.5143 389.144 92.5143 277.838 23.0193 209.116L-169.016 19.6536L-314.892 -124.547C-358.884 -168.024 -358.884 -238.531 -314.892 -282.135L-169.144 -426.208L-169.144 -425.826L22.7642 -615.543C92.2591 -684.265 92.2591 -795.571 22.7642 -864.292L-169.144 -1054.01L-177.305 -1061.91L-367.045 -1253.8C-435.775 -1323.29 -547.094 -1323.29 -615.824 -1253.8L-805.565 -1061.91L-805.055 -1061.91L-948.762 -916.567C-992.245 -872.58 -1062.76 -872.58 -1106.37 -916.567L-1250.59 -1062.3L-1250.84 -1062.3L-1440.2 -1253.67C-1508.93 -1323.16 -1620.25 -1323.16 -1688.98 -1253.67L-1878.72 -1061.79L-1885.99 -1055.16L-2077.9 -865.44C-2147.39 -796.718 -2147.39 -685.412 -2077.9 -616.69L-1885.99 -426.973L-1885.99 -427.355Z" stroke="url(#paint36_linear_571_4806)" stroke-width="1.75" stroke-miterlimit="10" stroke-linecap="round"/>
<path d="M-1876.81 -424.932L-1732.59 -282.262C-1689.11 -239.167 -1689.11 -169.426 -1732.59 -126.459L-1876.81 16.0843L-1876.81 15.7018L-2066.68 203.379C-2135.41 271.336 -2135.41 381.494 -2066.68 449.451L-1876.81 637.129L-1868.65 645.033L-1680.82 834.878C-1612.86 903.6 -1502.68 903.6 -1434.72 834.878L-1247.02 645.161L-1247.53 645.161L-1105.35 501.343C-1062.25 457.866 -992.501 457.866 -949.529 501.343L-806.714 645.543L-806.459 645.543L-619.141 835.006C-551.176 903.727 -441.005 903.727 -373.04 835.006L-185.212 645.161L-178.072 638.531L11.7963 450.853C80.5261 382.897 80.5261 272.738 11.7963 204.782L-178.199 17.2316L-322.417 -125.439C-365.899 -168.533 -365.899 -238.275 -322.417 -281.242L-178.199 -423.785L-178.199 -423.403L11.6687 -611.208C80.3985 -679.164 80.3985 -789.323 11.6686 -857.279L-178.199 -1045.08L-186.36 -1052.99L-374.06 -1242.83C-442.025 -1311.56 -552.197 -1311.56 -620.162 -1242.83L-807.989 -1052.99L-807.479 -1052.99L-949.657 -909.171C-992.756 -865.694 -1062.51 -865.694 -1105.48 -909.171L-1248.17 -1053.37L-1248.42 -1053.37L-1435.74 -1242.83C-1503.7 -1311.56 -1613.88 -1311.56 -1681.84 -1242.83L-1869.67 -1052.99L-1876.81 -1046.36L-2066.8 -858.554C-2135.53 -790.598 -2135.53 -680.439 -2066.8 -612.482L-1876.94 -424.677L-1876.81 -424.932Z" stroke="url(#paint37_linear_571_4806)" stroke-width="1.75" stroke-miterlimit="10" stroke-linecap="round"/>
<path d="M-1876.81 -424.932L-1732.59 -282.262C-1689.11 -239.167 -1689.11 -169.426 -1732.59 -126.459L-1876.81 16.0843L-1876.81 15.7018L-2066.68 203.379C-2135.41 271.336 -2135.41 381.494 -2066.68 449.451L-1876.81 637.129L-1868.65 645.033L-1680.82 834.878C-1612.86 903.6 -1502.68 903.6 -1434.72 834.878L-1247.02 645.161L-1247.53 645.161L-1105.35 501.343C-1062.25 457.866 -992.501 457.866 -949.529 501.343L-806.714 645.543L-806.459 645.543L-619.141 835.006C-551.176 903.727 -441.005 903.727 -373.04 835.006L-185.212 645.161L-178.072 638.531L11.7963 450.853C80.5261 382.897 80.5261 272.738 11.7963 204.782L-178.199 17.2316L-322.417 -125.439C-365.899 -168.533 -365.899 -238.275 -322.417 -281.242L-178.199 -423.785L-178.199 -423.403L11.6687 -611.208C80.3985 -679.164 80.3985 -789.323 11.6686 -857.279L-178.199 -1045.08L-186.36 -1052.99L-374.06 -1242.83C-442.025 -1311.56 -552.197 -1311.56 -620.162 -1242.83L-807.989 -1052.99L-807.479 -1052.99L-949.657 -909.171C-992.756 -865.694 -1062.51 -865.694 -1105.48 -909.171L-1248.17 -1053.37L-1248.42 -1053.37L-1435.74 -1242.83C-1503.7 -1311.56 -1613.88 -1311.56 -1681.84 -1242.83L-1869.67 -1052.99L-1876.81 -1046.36L-2066.8 -858.554C-2135.53 -790.598 -2135.53 -680.439 -2066.8 -612.482L-1876.94 -424.677L-1876.81 -424.932Z" stroke="url(#paint38_linear_571_4806)" stroke-width="1.75" stroke-miterlimit="10" stroke-linecap="round"/>
<path d="M-1867.75 -422.638L-1725.07 -281.497C-1681.97 -238.913 -1681.97 -169.936 -1725.07 -127.352L-1867.75 13.6616L-1867.75 13.2791L-2055.45 199.044C-2123.42 266.236 -2123.42 375.247 -2055.45 442.566L-1867.63 628.331L-1859.59 636.109L-1673.81 823.914C-1606.61 891.87 -1497.58 891.87 -1430.25 823.914L-1244.47 636.108L-1244.98 636.108L-1104.33 493.82C-1061.74 450.726 -992.755 450.726 -950.166 493.82L-809.136 636.491L-808.881 636.491L-623.476 823.786C-556.276 891.743 -447.252 891.743 -379.925 823.786L-194.137 635.981L-186.997 629.478L0.831057 443.713C68.7958 376.522 68.7958 267.511 0.831025 200.191L-187.252 14.8089L-329.939 -126.332C-373.039 -168.916 -373.039 -237.893 -329.939 -280.477L-187.379 -421.49L-187.379 -421.108L0.448375 -606.873C68.4131 -674.065 68.4131 -783.076 0.448343 -850.395L-187.379 -1036.03L-195.413 -1043.81L-381.2 -1231.61C-448.4 -1299.57 -557.424 -1299.57 -624.751 -1231.61L-810.538 -1043.81L-810.028 -1043.81L-950.676 -901.522C-993.265 -858.427 -1062.25 -858.427 -1104.84 -901.522L-1246 -1044.19L-1246.25 -1044.19L-1431.53 -1231.61C-1498.73 -1299.57 -1607.75 -1299.57 -1675.08 -1231.61L-1860.87 -1043.81L-1868.01 -1037.31L-2055.84 -851.542C-2123.8 -784.35 -2123.8 -675.339 -2055.84 -608.02L-1868.01 -422.255L-1867.75 -422.638Z" stroke="url(#paint39_linear_571_4806)" stroke-width="1.75" stroke-miterlimit="10" stroke-linecap="round"/>
<path d="M-1867.75 -422.638L-1725.07 -281.497C-1681.97 -238.913 -1681.97 -169.936 -1725.07 -127.352L-1867.75 13.6616L-1867.75 13.2791L-2055.45 199.044C-2123.42 266.236 -2123.42 375.247 -2055.45 442.566L-1867.63 628.331L-1859.59 636.109L-1673.81 823.914C-1606.61 891.87 -1497.58 891.87 -1430.25 823.914L-1244.47 636.108L-1244.98 636.108L-1104.33 493.82C-1061.74 450.726 -992.755 450.726 -950.166 493.82L-809.136 636.491L-808.881 636.491L-623.476 823.786C-556.276 891.743 -447.252 891.743 -379.925 823.786L-194.137 635.981L-186.997 629.478L0.831057 443.713C68.7958 376.522 68.7958 267.511 0.831025 200.191L-187.252 14.8089L-329.939 -126.332C-373.039 -168.916 -373.039 -237.893 -329.939 -280.477L-187.379 -421.49L-187.379 -421.108L0.448375 -606.873C68.4131 -674.065 68.4131 -783.076 0.448343 -850.395L-187.379 -1036.03L-195.413 -1043.81L-381.2 -1231.61C-448.4 -1299.57 -557.424 -1299.57 -624.751 -1231.61L-810.538 -1043.81L-810.028 -1043.81L-950.676 -901.522C-993.265 -858.427 -1062.25 -858.427 -1104.84 -901.522L-1246 -1044.19L-1246.25 -1044.19L-1431.53 -1231.61C-1498.73 -1299.57 -1607.75 -1299.57 -1675.08 -1231.61L-1860.87 -1043.81L-1868.01 -1037.31L-2055.84 -851.542C-2123.8 -784.35 -2123.8 -675.339 -2055.84 -608.02L-1868.01 -422.255L-1867.75 -422.638Z" stroke="url(#paint40_linear_571_4806)" stroke-width="1.75" stroke-miterlimit="10" stroke-linecap="round"/>
<path d="M-1858.57 -420.215L-1717.54 -280.732C-1674.95 -238.657 -1674.95 -170.318 -1717.54 -128.244L-1858.57 11.2397L-1858.57 10.8572L-2044.36 194.582C-2111.56 261.137 -2111.56 368.873 -2044.36 435.427L-1858.57 619.152L-1850.67 626.802L-1666.92 812.567C-1600.36 879.759 -1492.61 879.758 -1426.05 812.567L-1242.3 626.802L-1242.81 626.802L-1103.69 486.171C-1061.61 443.587 -993.265 443.587 -951.185 486.171L-811.558 627.312L-811.303 627.312L-627.938 812.694C-561.376 879.886 -453.627 879.886 -387.065 812.694L-203.318 626.929L-196.304 620.554L-10.517 436.829C56.6827 370.275 56.6827 262.539 -10.517 195.985L-196.432 12.5145L-337.59 -127.096C-380.179 -169.171 -380.179 -237.51 -337.59 -279.584L-196.56 -419.068L-196.56 -418.685L-10.7722 -602.41C56.4275 -668.964 56.4275 -776.7 -10.7722 -843.255L-196.56 -1026.98L-204.465 -1034.63L-388.213 -1220.39C-454.775 -1287.59 -562.524 -1287.59 -629.086 -1220.39L-812.833 -1034.63L-812.195 -1034.63L-951.313 -893.999C-993.392 -851.414 -1061.74 -851.414 -1103.82 -893.999L-1243.45 -1035.14L-1243.7 -1035.14L-1427.07 -1220.52C-1493.63 -1287.71 -1601.38 -1287.71 -1667.94 -1220.52L-1851.69 -1034.76L-1858.7 -1028.38L-2044.49 -844.529C-2111.69 -777.975 -2111.69 -670.239 -2044.49 -603.685L-1858.7 -419.96L-1858.57 -420.215Z" stroke="url(#paint41_linear_571_4806)" stroke-width="1.75" stroke-miterlimit="10" stroke-linecap="round"/>
<path d="M-1858.57 -420.215L-1717.54 -280.732C-1674.95 -238.657 -1674.95 -170.318 -1717.54 -128.244L-1858.57 11.2397L-1858.57 10.8572L-2044.36 194.582C-2111.56 261.137 -2111.56 368.873 -2044.36 435.427L-1858.57 619.152L-1850.67 626.802L-1666.92 812.567C-1600.36 879.759 -1492.61 879.758 -1426.05 812.567L-1242.3 626.802L-1242.81 626.802L-1103.69 486.171C-1061.61 443.587 -993.265 443.587 -951.185 486.171L-811.558 627.312L-811.303 627.312L-627.938 812.694C-561.376 879.886 -453.627 879.886 -387.065 812.694L-203.318 626.929L-196.304 620.554L-10.517 436.829C56.6827 370.275 56.6827 262.539 -10.517 195.985L-196.432 12.5145L-337.59 -127.096C-380.179 -169.171 -380.179 -237.51 -337.59 -279.584L-196.56 -419.068L-196.56 -418.685L-10.7722 -602.41C56.4275 -668.964 56.4275 -776.7 -10.7722 -843.255L-196.56 -1026.98L-204.465 -1034.63L-388.213 -1220.39C-454.775 -1287.59 -562.524 -1287.59 -629.086 -1220.39L-812.833 -1034.63L-812.195 -1034.63L-951.313 -893.999C-993.392 -851.414 -1061.74 -851.414 -1103.82 -893.999L-1243.45 -1035.14L-1243.7 -1035.14L-1427.07 -1220.52C-1493.63 -1287.71 -1601.38 -1287.71 -1667.94 -1220.52L-1851.69 -1034.76L-1858.7 -1028.38L-2044.49 -844.529C-2111.69 -777.975 -2111.69 -670.239 -2044.49 -603.685L-1858.7 -419.96L-1858.57 -420.215Z" stroke="url(#paint42_linear_571_4806)" stroke-width="1.75" stroke-miterlimit="10" stroke-linecap="round"/>
<path d="M-1849.52 -417.919L-1709.89 -279.838C-1667.81 -238.146 -1667.81 -170.7 -1709.89 -129.008L-1849.39 8.94566L-1849.39 8.56311L-2033.14 190.248C-2099.7 256.037 -2099.7 362.626 -2033.14 428.415L-1849.52 610.228L-1841.61 617.878L-1659.9 801.475C-1594.11 868.029 -1487.51 868.029 -1421.71 801.475L-1240 617.75L-1240.51 617.75L-1102.93 478.649C-1061.23 436.575 -993.773 436.575 -952.076 478.649L-813.852 618.26L-813.596 618.26L-632.272 801.475C-566.475 868.029 -459.874 868.029 -394.076 801.475L-212.37 617.75L-205.356 611.375L-21.6092 429.69C44.953 363.901 44.953 257.312 -21.6092 191.523L-205.484 10.0929L-345.111 -127.988C-387.191 -169.68 -387.191 -237.126 -345.111 -278.818L-205.611 -416.772L-205.611 -416.389L-21.8643 -598.074C44.6978 -663.863 44.6978 -770.452 -21.8643 -836.241L-205.612 -1017.93L-213.517 -1025.58L-395.224 -1209.3C-461.021 -1275.86 -567.623 -1275.86 -633.42 -1209.3L-815.127 -1025.58L-814.617 -1025.58L-952.204 -886.475C-993.901 -844.401 -1061.36 -844.401 -1103.05 -886.475L-1241.15 -1026.09L-1241.41 -1026.09L-1422.73 -1209.43C-1488.53 -1275.98 -1595.13 -1275.98 -1660.92 -1209.43L-1842.63 -1025.58L-1849.65 -1019.2L-2033.39 -837.516C-2099.95 -771.727 -2099.95 -665.138 -2033.39 -599.349L-1849.65 -417.664L-1849.52 -417.919Z" stroke="url(#paint43_linear_571_4806)" stroke-width="1.75" stroke-miterlimit="10" stroke-linecap="round"/>
<path d="M-1849.52 -417.919L-1709.89 -279.838C-1667.81 -238.146 -1667.81 -170.7 -1709.89 -129.008L-1849.39 8.94566L-1849.39 8.56311L-2033.14 190.248C-2099.7 256.037 -2099.7 362.626 -2033.14 428.415L-1849.52 610.228L-1841.61 617.878L-1659.9 801.475C-1594.11 868.029 -1487.51 868.029 -1421.71 801.475L-1240 617.75L-1240.51 617.75L-1102.93 478.649C-1061.23 436.575 -993.773 436.575 -952.076 478.649L-813.852 618.26L-813.596 618.26L-632.272 801.475C-566.475 868.029 -459.874 868.029 -394.076 801.475L-212.37 617.75L-205.356 611.375L-21.6092 429.69C44.953 363.901 44.953 257.312 -21.6092 191.523L-205.484 10.0929L-345.111 -127.988C-387.191 -169.68 -387.191 -237.126 -345.111 -278.818L-205.611 -416.772L-205.611 -416.389L-21.8643 -598.074C44.6978 -663.863 44.6978 -770.452 -21.8643 -836.241L-205.612 -1017.93L-213.517 -1025.58L-395.224 -1209.3C-461.021 -1275.86 -567.623 -1275.86 -633.42 -1209.3L-815.127 -1025.58L-814.617 -1025.58L-952.204 -886.475C-993.901 -844.401 -1061.36 -844.401 -1103.05 -886.475L-1241.15 -1026.09L-1241.41 -1026.09L-1422.73 -1209.43C-1488.53 -1275.98 -1595.13 -1275.98 -1660.92 -1209.43L-1842.63 -1025.58L-1849.65 -1019.2L-2033.39 -837.516C-2099.95 -771.727 -2099.95 -665.138 -2033.39 -599.349L-1849.65 -417.664L-1849.52 -417.919Z" stroke="url(#paint44_linear_571_4806)" stroke-width="1.75" stroke-miterlimit="10" stroke-linecap="round"/>
<path d="M-1840.34 -415.498L-1702.24 -278.948C-1660.54 -237.766 -1660.54 -170.956 -1702.24 -129.775L-1840.21 6.64871L-1840.21 6.26623L-2021.92 185.911C-2087.71 250.936 -2087.71 356.377 -2021.92 421.401L-1840.21 601.046L-1832.43 608.568L-1652.76 790.254C-1587.73 856.043 -1482.28 856.043 -1417.25 790.253L-1237.58 608.568L-1238.09 608.568L-1102.03 470.998C-1060.84 429.306 -994.028 429.306 -952.841 470.998L-816.274 609.078L-816.019 609.078L-636.734 790.381C-571.702 856.17 -466.249 856.17 -401.217 790.381L-221.55 608.696L-214.664 602.448L-32.9572 422.803C32.8398 357.779 32.8398 252.338 -32.9572 187.314L-214.792 7.92348L-352.889 -128.627C-394.586 -169.809 -394.586 -236.618 -352.889 -277.8L-214.919 -414.223L-214.919 -413.841L-33.2124 -593.486C32.5846 -658.51 32.5846 -763.952 -33.2124 -828.976L-214.664 -1009L-222.443 -1016.53L-402.11 -1198.21C-467.142 -1264 -572.595 -1264 -637.627 -1198.21L-817.294 -1016.53L-816.784 -1016.53L-952.841 -878.955C-994.028 -837.263 -1060.85 -837.263 -1102.03 -878.955L-1238.6 -1017.04L-1238.85 -1017.04L-1418.14 -1198.34C-1483.17 -1264.13 -1588.62 -1264.13 -1653.66 -1198.34L-1833.58 -1016.53L-1840.46 -1010.28L-2022.3 -830.505C-2088.1 -765.481 -2088.1 -660.04 -2022.3 -595.016L-1840.59 -415.371L-1840.34 -415.498Z" stroke="url(#paint45_linear_571_4806)" stroke-width="1.75" stroke-miterlimit="10" stroke-linecap="round"/>
<path d="M-1840.34 -415.498L-1702.24 -278.948C-1660.54 -237.766 -1660.54 -170.956 -1702.24 -129.775L-1840.21 6.64871L-1840.21 6.26623L-2021.92 185.911C-2087.71 250.936 -2087.71 356.377 -2021.92 421.401L-1840.21 601.046L-1832.43 608.568L-1652.76 790.254C-1587.73 856.043 -1482.28 856.043 -1417.25 790.253L-1237.58 608.568L-1238.09 608.568L-1102.03 470.998C-1060.84 429.306 -994.028 429.306 -952.841 470.998L-816.274 609.078L-816.019 609.078L-636.734 790.381C-571.702 856.17 -466.249 856.17 -401.217 790.381L-221.55 608.696L-214.664 602.448L-32.9572 422.803C32.8398 357.779 32.8398 252.338 -32.9572 187.314L-214.792 7.92348L-352.889 -128.627C-394.586 -169.809 -394.586 -236.618 -352.889 -277.8L-214.919 -414.223L-214.919 -413.841L-33.2124 -593.486C32.5846 -658.51 32.5846 -763.952 -33.2124 -828.976L-214.664 -1009L-222.443 -1016.53L-402.11 -1198.21C-467.142 -1264 -572.595 -1264 -637.627 -1198.21L-817.294 -1016.53L-816.784 -1016.53L-952.841 -878.955C-994.028 -837.263 -1060.85 -837.263 -1102.03 -878.955L-1238.6 -1017.04L-1238.85 -1017.04L-1418.14 -1198.34C-1483.17 -1264.13 -1588.62 -1264.13 -1653.66 -1198.34L-1833.58 -1016.53L-1840.46 -1010.28L-2022.3 -830.505C-2088.1 -765.481 -2088.1 -660.04 -2022.3 -595.016L-1840.59 -415.371L-1840.34 -415.498Z" stroke="url(#paint46_linear_571_4806)" stroke-width="1.75" stroke-miterlimit="10" stroke-linecap="round"/>
<path d="M-1831.28 -413.076L-1694.84 -278.056C-1653.65 -237.384 -1653.65 -171.34 -1694.84 -130.54L-1831.28 4.3532L-1831.28 3.97072L-2010.95 181.703C-2075.98 245.963 -2075.98 350.256 -2010.95 414.643L-1831.28 592.376L-1823.63 599.771L-1645.88 779.416C-1581.61 844.44 -1477.3 844.44 -1412.91 779.416L-1235.15 599.77L-1235.54 599.77L-1101.01 463.73C-1060.33 422.548 -994.282 422.548 -953.477 463.73L-818.568 600.025L-818.313 600.025L-641.069 779.288C-576.802 844.312 -472.496 844.312 -408.101 779.288L-230.347 599.643L-223.589 593.395L-43.9225 415.663C21.1095 351.404 21.1095 247.11 -43.9225 182.723L-223.717 5.24549L-360.284 -129.775C-401.471 -170.447 -401.471 -236.491 -360.284 -277.291L-223.844 -412.184L-223.844 -411.802L-44.1776 -589.534C20.8543 -653.793 20.8543 -758.087 -44.1777 -822.474L-223.844 -1000.21L-231.495 -1007.6L-409.249 -1187.25C-473.516 -1252.27 -577.822 -1252.27 -642.217 -1187.25L-819.971 -1007.6L-819.588 -1007.6L-953.86 -871.306C-994.537 -830.124 -1060.59 -830.124 -1101.39 -871.305L-1236.43 -1007.73L-1236.69 -1007.73L-1413.93 -1186.99C-1478.2 -1252.02 -1582.5 -1252.02 -1646.9 -1186.99L-1824.65 -1007.35L-1831.41 -1001.1L-2011.08 -823.366C-2076.11 -759.107 -2076.11 -654.813 -2011.08 -590.426L-1831.41 -412.694L-1831.28 -413.076Z" stroke="url(#paint47_linear_571_4806)" stroke-width="1.75" stroke-miterlimit="10" stroke-linecap="round"/>
<path d="M-1831.28 -413.076L-1694.84 -278.056C-1653.65 -237.384 -1653.65 -171.34 -1694.84 -130.54L-1831.28 4.3532L-1831.28 3.97072L-2010.95 181.703C-2075.98 245.963 -2075.98 350.256 -2010.95 414.643L-1831.28 592.376L-1823.63 599.771L-1645.88 779.416C-1581.61 844.44 -1477.3 844.44 -1412.91 779.416L-1235.15 599.77L-1235.54 599.77L-1101.01 463.73C-1060.33 422.548 -994.282 422.548 -953.477 463.73L-818.568 600.025L-818.313 600.025L-641.069 779.288C-576.802 844.312 -472.496 844.312 -408.101 779.288L-230.347 599.643L-223.589 593.395L-43.9225 415.663C21.1095 351.404 21.1095 247.11 -43.9225 182.723L-223.717 5.24549L-360.284 -129.775C-401.471 -170.447 -401.471 -236.491 -360.284 -277.291L-223.844 -412.184L-223.844 -411.802L-44.1776 -589.534C20.8543 -653.793 20.8543 -758.087 -44.1777 -822.474L-223.844 -1000.21L-231.495 -1007.6L-409.249 -1187.25C-473.516 -1252.27 -577.822 -1252.27 -642.217 -1187.25L-819.971 -1007.6L-819.588 -1007.6L-953.86 -871.306C-994.537 -830.124 -1060.59 -830.124 -1101.39 -871.305L-1236.43 -1007.73L-1236.69 -1007.73L-1413.93 -1186.99C-1478.2 -1252.02 -1582.5 -1252.02 -1646.9 -1186.99L-1824.65 -1007.35L-1831.41 -1001.1L-2011.08 -823.366C-2076.11 -759.107 -2076.11 -654.813 -2011.08 -590.426L-1831.41 -412.694L-1831.28 -413.076Z" stroke="url(#paint48_linear_571_4806)" stroke-width="1.75" stroke-miterlimit="10" stroke-linecap="round"/>
<path d="M-1822.23 -410.78L-1687.32 -277.29C-1646.65 -237 -1646.65 -171.721 -1687.32 -131.431L-1822.1 1.93192L-1822.1 1.54936L-1999.73 177.242C-2064 240.864 -2064 343.883 -1999.73 407.504L-1822.1 583.069L-1814.58 590.464L-1638.87 768.07C-1575.24 832.329 -1472.21 832.329 -1408.58 768.069L-1232.86 590.464L-1233.25 590.464L-1100.25 455.953C-1059.96 415.281 -994.669 415.281 -954.374 455.953L-820.995 590.847L-820.74 590.847L-645.409 768.069C-581.779 832.329 -478.748 832.329 -415.119 768.069L-239.405 590.464L-232.647 584.344L-55.0205 408.651C9.24634 345.03 9.24633 242.011 -55.0206 178.389L-232.775 2.95168L-367.684 -130.539C-408.361 -170.829 -408.361 -236.108 -367.684 -276.397L-232.775 -409.761L-232.775 -409.378L-55.1481 -585.071C9.11873 -648.693 9.11872 -751.711 -55.1482 -815.333L-232.775 -991.026L-240.298 -998.42L-416.012 -1176.03C-479.641 -1240.28 -582.672 -1240.28 -646.302 -1176.03L-822.015 -998.42L-821.633 -998.42L-954.63 -863.91C-994.924 -823.238 -1060.21 -823.238 -1100.51 -863.91L-1234.01 -998.803L-1234.27 -998.803L-1409.6 -1176.03C-1473.23 -1240.28 -1576.26 -1240.28 -1639.89 -1176.03L-1815.6 -998.42L-1822.36 -992.3L-1999.99 -816.48C-2064.25 -752.858 -2064.25 -649.84 -1999.99 -586.218L-1822.36 -410.525L-1822.23 -410.78Z" stroke="url(#paint49_linear_571_4806)" stroke-width="1.75" stroke-miterlimit="10" stroke-linecap="round"/>
<path d="M-1822.23 -410.78L-1687.32 -277.29C-1646.65 -237 -1646.65 -171.721 -1687.32 -131.431L-1822.1 1.93192L-1822.1 1.54936L-1999.73 177.242C-2064 240.864 -2064 343.883 -1999.73 407.504L-1822.1 583.069L-1814.58 590.464L-1638.87 768.07C-1575.24 832.329 -1472.21 832.329 -1408.58 768.069L-1232.86 590.464L-1233.25 590.464L-1100.25 455.953C-1059.96 415.281 -994.669 415.281 -954.374 455.953L-820.995 590.847L-820.74 590.847L-645.409 768.069C-581.779 832.329 -478.748 832.329 -415.119 768.069L-239.405 590.464L-232.647 584.344L-55.0205 408.651C9.24634 345.03 9.24633 242.011 -55.0206 178.389L-232.775 2.95168L-367.684 -130.539C-408.361 -170.829 -408.361 -236.108 -367.684 -276.397L-232.775 -409.761L-232.775 -409.378L-55.1481 -585.071C9.11873 -648.693 9.11872 -751.711 -55.1482 -815.333L-232.775 -991.026L-240.298 -998.42L-416.012 -1176.03C-479.641 -1240.28 -582.672 -1240.28 -646.302 -1176.03L-822.015 -998.42L-821.633 -998.42L-954.63 -863.91C-994.924 -823.238 -1060.21 -823.238 -1100.51 -863.91L-1234.01 -998.803L-1234.27 -998.803L-1409.6 -1176.03C-1473.23 -1240.28 -1576.26 -1240.28 -1639.89 -1176.03L-1815.6 -998.42L-1822.36 -992.3L-1999.99 -816.48C-2064.25 -752.858 -2064.25 -649.84 -1999.99 -586.218L-1822.36 -410.525L-1822.23 -410.78Z" stroke="url(#paint50_linear_571_4806)" stroke-width="1.75" stroke-miterlimit="10" stroke-linecap="round"/>
</g>
<defs>
<linearGradient id="paint0_linear_571_4806" x1="0.00353332" y1="408.962" x2="308.006" y2="408.962" gradientUnits="userSpaceOnUse">
<stop stop-color="#FEFF01"/>
<stop offset="0.3082" stop-color="#FF2D9A"/>
<stop offset="0.6401" stop-color="#E24CFF"/>
<stop offset="1" stop-color="#9A52FF"/>
</linearGradient>
<linearGradient id="paint1_linear_571_4806" x1="-1027.38" y1="1097.02" x2="-1027.38" y2="-1505.06" gradientUnits="userSpaceOnUse">
<stop stop-color="#FEFF01"/>
<stop offset="0.3082" stop-color="#FF2D9A"/>
<stop offset="0.6401" stop-color="#E24CFF"/>
<stop offset="1" stop-color="#9A52FF"/>
</linearGradient>
<linearGradient id="paint2_linear_571_4806" x1="-1027.38" y1="1097.02" x2="-1027.38" y2="-1505.06" gradientUnits="userSpaceOnUse">
<stop stop-color="#FEFF01"/>
<stop offset="0.3082" stop-color="#FF2D9A"/>
<stop offset="0.6401" stop-color="#E24CFF"/>
<stop offset="1" stop-color="#9A52FF"/>
</linearGradient>
<linearGradient id="paint3_linear_571_4806" x1="-1027.51" y1="1085.35" x2="-1027.51" y2="-1493.13" gradientUnits="userSpaceOnUse">
<stop stop-color="#FEFF01"/>
<stop offset="0.3082" stop-color="#FF2D9A"/>
<stop offset="0.6401" stop-color="#E24CFF"/>
<stop offset="1" stop-color="#9A52FF"/>
</linearGradient>
<linearGradient id="paint4_linear_571_4806" x1="-1027.51" y1="1085.35" x2="-1027.51" y2="-1493.13" gradientUnits="userSpaceOnUse">
<stop stop-color="#FEFF01"/>
<stop offset="0.3082" stop-color="#FF2D9A"/>
<stop offset="0.6401" stop-color="#E24CFF"/>
<stop offset="1" stop-color="#9A52FF"/>
</linearGradient>
<linearGradient id="paint5_linear_571_4806" x1="-1027.45" y1="1073.65" x2="-1027.45" y2="-1481.44" gradientUnits="userSpaceOnUse">
<stop stop-color="#FEFF01"/>
<stop offset="0.3082" stop-color="#FF2D9A"/>
<stop offset="0.6401" stop-color="#E24CFF"/>
<stop offset="1" stop-color="#9A52FF"/>
</linearGradient>
<linearGradient id="paint6_linear_571_4806" x1="-1027.45" y1="1073.65" x2="-1027.45" y2="-1481.44" gradientUnits="userSpaceOnUse">
<stop stop-color="#FEFF01"/>
<stop offset="0.3082" stop-color="#FF2D9A"/>
<stop offset="0.6401" stop-color="#E24CFF"/>
<stop offset="1" stop-color="#9A52FF"/>
</linearGradient>
<linearGradient id="paint7_linear_571_4806" x1="-1027.38" y1="1061.99" x2="-1027.38" y2="-1469.9" gradientUnits="userSpaceOnUse">
<stop stop-color="#FEFF01"/>
<stop offset="0.3082" stop-color="#FF2D9A"/>
<stop offset="0.6401" stop-color="#E24CFF"/>
<stop offset="1" stop-color="#9A52FF"/>
</linearGradient>
<linearGradient id="paint8_linear_571_4806" x1="-1027.38" y1="1061.99" x2="-1027.38" y2="-1469.9" gradientUnits="userSpaceOnUse">
<stop stop-color="#FEFF01"/>
<stop offset="0.3082" stop-color="#FF2D9A"/>
<stop offset="0.6401" stop-color="#E24CFF"/>
<stop offset="1" stop-color="#9A52FF"/>
</linearGradient>
<linearGradient id="paint9_linear_571_4806" x1="-1027.57" y1="1050.32" x2="-1027.57" y2="-1458.23" gradientUnits="userSpaceOnUse">
<stop stop-color="#FEFF01"/>
<stop offset="0.3082" stop-color="#FF2D9A"/>
<stop offset="0.6401" stop-color="#E24CFF"/>
<stop offset="1" stop-color="#9A52FF"/>
</linearGradient>
<linearGradient id="paint10_linear_571_4806" x1="-1027.57" y1="1050.32" x2="-1027.57" y2="-1458.23" gradientUnits="userSpaceOnUse">
<stop stop-color="#FEFF01"/>
<stop offset="0.3082" stop-color="#FF2D9A"/>
<stop offset="0.6401" stop-color="#E24CFF"/>
<stop offset="1" stop-color="#9A52FF"/>
</linearGradient>
<linearGradient id="paint11_linear_571_4806" x1="-1027.51" y1="1038.53" x2="-1027.51" y2="-1446.44" gradientUnits="userSpaceOnUse">
<stop stop-color="#FEFF01"/>
<stop offset="0.3082" stop-color="#FF2D9A"/>
<stop offset="0.6401" stop-color="#E24CFF"/>
<stop offset="1" stop-color="#9A52FF"/>
</linearGradient>
<linearGradient id="paint12_linear_571_4806" x1="-1027.51" y1="1038.53" x2="-1027.51" y2="-1446.44" gradientUnits="userSpaceOnUse">
<stop stop-color="#FEFF01"/>
<stop offset="0.3082" stop-color="#FF2D9A"/>
<stop offset="0.6401" stop-color="#E24CFF"/>
<stop offset="1" stop-color="#9A52FF"/>
</linearGradient>
<linearGradient id="paint13_linear_571_4806" x1="-1027.45" y1="1026.86" x2="-1027.45" y2="-1434.77" gradientUnits="userSpaceOnUse">
<stop stop-color="#FEFF01"/>
<stop offset="0.3082" stop-color="#FF2D9A"/>
<stop offset="0.6401" stop-color="#E24CFF"/>
<stop offset="1" stop-color="#9A52FF"/>
</linearGradient>
<linearGradient id="paint14_linear_571_4806" x1="-1027.45" y1="1026.86" x2="-1027.45" y2="-1434.77" gradientUnits="userSpaceOnUse">
<stop stop-color="#FEFF01"/>
<stop offset="0.3082" stop-color="#FF2D9A"/>
<stop offset="0.6401" stop-color="#E24CFF"/>
<stop offset="1" stop-color="#9A52FF"/>
</linearGradient>
<linearGradient id="paint15_linear_571_4806" x1="-1027.39" y1="1015.17" x2="-1027.39" y2="-1423.07" gradientUnits="userSpaceOnUse">
<stop stop-color="#FEFF01"/>
<stop offset="0.3082" stop-color="#FF2D9A"/>
<stop offset="0.6401" stop-color="#E24CFF"/>
<stop offset="1" stop-color="#9A52FF"/>
</linearGradient>
<linearGradient id="paint16_linear_571_4806" x1="-1027.39" y1="1015.17" x2="-1027.39" y2="-1423.07" gradientUnits="userSpaceOnUse">
<stop stop-color="#FEFF01"/>
<stop offset="0.3082" stop-color="#FF2D9A"/>
<stop offset="0.6401" stop-color="#E24CFF"/>
<stop offset="1" stop-color="#9A52FF"/>
</linearGradient>
<linearGradient id="paint17_linear_571_4806" x1="-1027.45" y1="1003.5" x2="-1027.45" y2="-1411.4" gradientUnits="userSpaceOnUse">
<stop stop-color="#FEFF01"/>
<stop offset="0.3082" stop-color="#FF2D9A"/>
<stop offset="0.6401" stop-color="#E24CFF"/>
<stop offset="1" stop-color="#9A52FF"/>
</linearGradient>
<linearGradient id="paint18_linear_571_4806" x1="-1027.45" y1="1003.5" x2="-1027.45" y2="-1411.4" gradientUnits="userSpaceOnUse">
<stop stop-color="#FEFF01"/>
<stop offset="0.3082" stop-color="#FF2D9A"/>
<stop offset="0.6401" stop-color="#E24CFF"/>
<stop offset="1" stop-color="#9A52FF"/>
</linearGradient>
<linearGradient id="paint19_linear_571_4806" x1="-1027.39" y1="991.961" x2="-1027.39" y2="-1399.61" gradientUnits="userSpaceOnUse">
<stop stop-color="#FEFF01"/>
<stop offset="0.3082" stop-color="#FF2D9A"/>
<stop offset="0.6401" stop-color="#E24CFF"/>
<stop offset="1" stop-color="#9A52FF"/>
</linearGradient>
<linearGradient id="paint20_linear_571_4806" x1="-1027.39" y1="991.961" x2="-1027.39" y2="-1399.61" gradientUnits="userSpaceOnUse">
<stop stop-color="#FEFF01"/>
<stop offset="0.3082" stop-color="#FF2D9A"/>
<stop offset="0.6401" stop-color="#E24CFF"/>
<stop offset="1" stop-color="#9A52FF"/>
</linearGradient>
<linearGradient id="paint21_linear_571_4806" x1="-1027.39" y1="980.041" x2="-1027.39" y2="-1387.94" gradientUnits="userSpaceOnUse">
<stop stop-color="#FEFF01"/>
<stop offset="0.3082" stop-color="#FF2D9A"/>
<stop offset="0.6401" stop-color="#E24CFF"/>
<stop offset="1" stop-color="#9A52FF"/>
</linearGradient>
<linearGradient id="paint22_linear_571_4806" x1="-1027.39" y1="980.041" x2="-1027.39" y2="-1387.94" gradientUnits="userSpaceOnUse">
<stop stop-color="#FEFF01"/>
<stop offset="0.3082" stop-color="#FF2D9A"/>
<stop offset="0.6401" stop-color="#E24CFF"/>
<stop offset="1" stop-color="#9A52FF"/>
</linearGradient>
<linearGradient id="paint23_linear_571_4806" x1="-1027.46" y1="968.374" x2="-1027.46" y2="-1376.15" gradientUnits="userSpaceOnUse">
<stop stop-color="#FEFF01"/>
<stop offset="0.3082" stop-color="#FF2D9A"/>
<stop offset="0.6401" stop-color="#E24CFF"/>
<stop offset="1" stop-color="#9A52FF"/>
</linearGradient>
<linearGradient id="paint24_linear_571_4806" x1="-1027.46" y1="968.374" x2="-1027.46" y2="-1376.15" gradientUnits="userSpaceOnUse">
<stop stop-color="#FEFF01"/>
<stop offset="0.3082" stop-color="#FF2D9A"/>
<stop offset="0.6401" stop-color="#E24CFF"/>
<stop offset="1" stop-color="#9A52FF"/>
</linearGradient>
<linearGradient id="paint25_linear_571_4806" x1="-1027.45" y1="956.804" x2="-1027.46" y2="-1364.58" gradientUnits="userSpaceOnUse">
<stop stop-color="#FEFF01"/>
<stop offset="0.3082" stop-color="#FF2D9A"/>
<stop offset="0.6401" stop-color="#E24CFF"/>
<stop offset="1" stop-color="#9A52FF"/>
</linearGradient>
<linearGradient id="paint26_linear_571_4806" x1="-1027.45" y1="956.804" x2="-1027.46" y2="-1364.58" gradientUnits="userSpaceOnUse">
<stop stop-color="#FEFF01"/>
<stop offset="0.3082" stop-color="#FF2D9A"/>
<stop offset="0.6401" stop-color="#E24CFF"/>
<stop offset="1" stop-color="#9A52FF"/>
</linearGradient>
<linearGradient id="paint27_linear_571_4806" x1="-1027.33" y1="945.011" x2="-1027.33" y2="-1352.79" gradientUnits="userSpaceOnUse">
<stop stop-color="#FEFF01"/>
<stop offset="0.3082" stop-color="#FF2D9A"/>
<stop offset="0.6401" stop-color="#E24CFF"/>
<stop offset="1" stop-color="#9A52FF"/>
</linearGradient>
<linearGradient id="paint28_linear_571_4806" x1="-1027.33" y1="945.011" x2="-1027.33" y2="-1352.79" gradientUnits="userSpaceOnUse">
<stop stop-color="#FEFF01"/>
<stop offset="0.3082" stop-color="#FF2D9A"/>
<stop offset="0.6401" stop-color="#E24CFF"/>
<stop offset="1" stop-color="#9A52FF"/>
</linearGradient>
<linearGradient id="paint29_linear_571_4806" x1="-1027.39" y1="933.345" x2="-1027.39" y2="-1341.12" gradientUnits="userSpaceOnUse">
<stop stop-color="#FEFF01"/>
<stop offset="0.3082" stop-color="#FF2D9A"/>
<stop offset="0.6401" stop-color="#E24CFF"/>
<stop offset="1" stop-color="#9A52FF"/>
</linearGradient>
<linearGradient id="paint30_linear_571_4806" x1="-1027.39" y1="933.345" x2="-1027.39" y2="-1341.12" gradientUnits="userSpaceOnUse">
<stop stop-color="#FEFF01"/>
<stop offset="0.3082" stop-color="#FF2D9A"/>
<stop offset="0.6401" stop-color="#E24CFF"/>
<stop offset="1" stop-color="#9A52FF"/>
</linearGradient>
<linearGradient id="paint31_linear_571_4806" x1="-1027.39" y1="921.679" x2="-1027.39" y2="-1329.45" gradientUnits="userSpaceOnUse">
<stop stop-color="#FEFF01"/>
<stop offset="0.3082" stop-color="#FF2D9A"/>
<stop offset="0.6401" stop-color="#E24CFF"/>
<stop offset="1" stop-color="#9A52FF"/>
</linearGradient>
<linearGradient id="paint32_linear_571_4806" x1="-1027.39" y1="921.679" x2="-1027.39" y2="-1329.45" gradientUnits="userSpaceOnUse">
<stop stop-color="#FEFF01"/>
<stop offset="0.3082" stop-color="#FF2D9A"/>
<stop offset="0.6401" stop-color="#E24CFF"/>
<stop offset="1" stop-color="#9A52FF"/>
</linearGradient>
<linearGradient id="paint33_linear_571_4806" x1="-1027.39" y1="909.98" x2="-1027.39" y2="-1317.88" gradientUnits="userSpaceOnUse">
<stop stop-color="#FEFF01"/>
<stop offset="0.3082" stop-color="#FF2D9A"/>
<stop offset="0.6401" stop-color="#E24CFF"/>
<stop offset="1" stop-color="#9A52FF"/>
</linearGradient>
<linearGradient id="paint34_linear_571_4806" x1="-1027.39" y1="909.98" x2="-1027.39" y2="-1317.88" gradientUnits="userSpaceOnUse">
<stop stop-color="#FEFF01"/>
<stop offset="0.3082" stop-color="#FF2D9A"/>
<stop offset="0.6401" stop-color="#E24CFF"/>
<stop offset="1" stop-color="#9A52FF"/>
</linearGradient>
<linearGradient id="paint35_linear_571_4806" x1="-1027.34" y1="898.188" x2="-1027.34" y2="-1305.96" gradientUnits="userSpaceOnUse">
<stop stop-color="#FEFF01"/>
<stop offset="0.3082" stop-color="#FF2D9A"/>
<stop offset="0.6401" stop-color="#E24CFF"/>
<stop offset="1" stop-color="#9A52FF"/>
</linearGradient>
<linearGradient id="paint36_linear_571_4806" x1="-1027.34" y1="898.188" x2="-1027.34" y2="-1305.96" gradientUnits="userSpaceOnUse">
<stop stop-color="#FEFF01"/>
<stop offset="0.3082" stop-color="#FF2D9A"/>
<stop offset="0.6401" stop-color="#E24CFF"/>
<stop offset="1" stop-color="#9A52FF"/>
</linearGradient>
<linearGradient id="paint37_linear_571_4806" x1="-1027.4" y1="886.522" x2="-1027.4" y2="-1294.42" gradientUnits="userSpaceOnUse">
<stop stop-color="#FEFF01"/>
<stop offset="0.3082" stop-color="#FF2D9A"/>
<stop offset="0.6401" stop-color="#E24CFF"/>
<stop offset="1" stop-color="#9A52FF"/>
</linearGradient>
<linearGradient id="paint38_linear_571_4806" x1="-1027.4" y1="886.522" x2="-1027.4" y2="-1294.42" gradientUnits="userSpaceOnUse">
<stop stop-color="#FEFF01"/>
<stop offset="0.3082" stop-color="#FF2D9A"/>
<stop offset="0.6401" stop-color="#E24CFF"/>
<stop offset="1" stop-color="#9A52FF"/>
</linearGradient>
<linearGradient id="paint39_linear_571_4806" x1="-1027.4" y1="874.856" x2="-1027.4" y2="-1282.63" gradientUnits="userSpaceOnUse">
<stop stop-color="#FEFF01"/>
<stop offset="0.3082" stop-color="#FF2D9A"/>
<stop offset="0.6401" stop-color="#E24CFF"/>
<stop offset="1" stop-color="#9A52FF"/>
</linearGradient>
<linearGradient id="paint40_linear_571_4806" x1="-1027.4" y1="874.856" x2="-1027.4" y2="-1282.63" gradientUnits="userSpaceOnUse">
<stop stop-color="#FEFF01"/>
<stop offset="0.3082" stop-color="#FF2D9A"/>
<stop offset="0.6401" stop-color="#E24CFF"/>
<stop offset="1" stop-color="#9A52FF"/>
</linearGradient>
<linearGradient id="paint41_linear_571_4806" x1="-1027.4" y1="863.064" x2="-1027.4" y2="-1270.96" gradientUnits="userSpaceOnUse">
<stop stop-color="#FEFF01"/>
<stop offset="0.3082" stop-color="#FF2D9A"/>
<stop offset="0.6401" stop-color="#E24CFF"/>
<stop offset="1" stop-color="#9A52FF"/>
</linearGradient>
<linearGradient id="paint42_linear_571_4806" x1="-1027.4" y1="863.064" x2="-1027.4" y2="-1270.96" gradientUnits="userSpaceOnUse">
<stop stop-color="#FEFF01"/>
<stop offset="0.3082" stop-color="#FF2D9A"/>
<stop offset="0.6401" stop-color="#E24CFF"/>
<stop offset="1" stop-color="#9A52FF"/>
</linearGradient>
<linearGradient id="paint43_linear_571_4806" x1="-1027.4" y1="851.367" x2="-1027.4" y2="-1259.39" gradientUnits="userSpaceOnUse">
<stop stop-color="#FEFF01"/>
<stop offset="0.3082" stop-color="#FF2D9A"/>
<stop offset="0.6401" stop-color="#E24CFF"/>
<stop offset="1" stop-color="#9A52FF"/>
</linearGradient>
<linearGradient id="paint44_linear_571_4806" x1="-1027.4" y1="851.367" x2="-1027.4" y2="-1259.39" gradientUnits="userSpaceOnUse">
<stop stop-color="#FEFF01"/>
<stop offset="0.3082" stop-color="#FF2D9A"/>
<stop offset="0.6401" stop-color="#E24CFF"/>
<stop offset="1" stop-color="#9A52FF"/>
</linearGradient>
<linearGradient id="paint45_linear_571_4806" x1="-1027.53" y1="839.699" x2="-1027.53" y2="-1247.72" gradientUnits="userSpaceOnUse">
<stop stop-color="#FEFF01"/>
<stop offset="0.3082" stop-color="#FF2D9A"/>
<stop offset="0.6401" stop-color="#E24CFF"/>
<stop offset="1" stop-color="#9A52FF"/>
</linearGradient>
<linearGradient id="paint46_linear_571_4806" x1="-1027.53" y1="839.699" x2="-1027.53" y2="-1247.72" gradientUnits="userSpaceOnUse">
<stop stop-color="#FEFF01"/>
<stop offset="0.3082" stop-color="#FF2D9A"/>
<stop offset="0.6401" stop-color="#E24CFF"/>
<stop offset="1" stop-color="#9A52FF"/>
</linearGradient>
<linearGradient id="paint47_linear_571_4806" x1="-1027.4" y1="828.16" x2="-1027.4" y2="-1236.06" gradientUnits="userSpaceOnUse">
<stop stop-color="#FEFF01"/>
<stop offset="0.3082" stop-color="#FF2D9A"/>
<stop offset="0.6401" stop-color="#E24CFF"/>
<stop offset="1" stop-color="#9A52FF"/>
</linearGradient>
<linearGradient id="paint48_linear_571_4806" x1="-1027.4" y1="828.16" x2="-1027.4" y2="-1236.06" gradientUnits="userSpaceOnUse">
<stop stop-color="#FEFF01"/>
<stop offset="0.3082" stop-color="#FF2D9A"/>
<stop offset="0.6401" stop-color="#E24CFF"/>
<stop offset="1" stop-color="#9A52FF"/>
</linearGradient>
<linearGradient id="paint49_linear_571_4806" x1="-1027.41" y1="816.24" x2="-1027.41" y2="-1224.26" gradientUnits="userSpaceOnUse">
<stop stop-color="#FEFF01"/>
<stop offset="0.3082" stop-color="#FF2D9A"/>
<stop offset="0.6401" stop-color="#E24CFF"/>
<stop offset="1" stop-color="#9A52FF"/>
</linearGradient>
<linearGradient id="paint50_linear_571_4806" x1="-1027.41" y1="816.24" x2="-1027.41" y2="-1224.26" gradientUnits="userSpaceOnUse">
<stop stop-color="#FEFF01"/>
<stop offset="0.3082" stop-color="#FF2D9A"/>
<stop offset="0.6401" stop-color="#E24CFF"/>
<stop offset="1" stop-color="#9A52FF"/>
</linearGradient>
</defs>
</svg>
