<svg width="120" height="30" viewBox="0 0 120 30" fill="none" xmlns="http://www.w3.org/2000/svg">
<g clip-path="url(#clip0)">
<path d="M20.7262 1.98544e-05H9.41992V15.5177H24.6852V4.01517C24.6852 3.48683 24.5827 2.96368 24.3836 2.47572C24.1845 1.98775 23.8927 1.54456 23.5249 1.17156C23.1571 0.79855 22.7205 0.50306 22.2403 0.302024C21.76 0.100987 21.2455 -0.0016416 20.7262 1.98544e-05Z" fill="white"/>
<path d="M5.89513 0H3.94663C2.89992 0 1.89608 0.423024 1.15594 1.17601C0.415805 1.929 0 2.95027 0 4.01515L0 5.99747H5.89513V0Z" fill="white"/>
<path d="M0 9.5835H5.89513V15.581H0V9.5835Z" fill="white"/>
<path d="M18.8396 25.1135H20.7881C21.3074 25.1135 21.8216 25.0092 22.3013 24.8066C22.7809 24.6041 23.2165 24.3072 23.5832 23.933C23.9498 23.5588 24.2403 23.1147 24.4379 22.6261C24.6355 22.1375 24.7364 21.614 24.7347 21.0857V19.1665H18.8396V25.1135Z" fill="white"/>
<path d="M9.41992 19.1665H15.315V25.164H9.41992V19.1665Z" fill="white"/>
<path d="M0 19.1665V21.1488C0 22.2137 0.415805 23.235 1.15594 23.988C1.89608 24.741 2.89992 25.164 3.94663 25.164H5.89513V19.1665H0Z" fill="white"/>
<path d="M39.7518 1.60376H37.4434V23.5608H49.668V21.4649H39.7518V1.60376Z" fill="white"/>
<path d="M57.0898 7.42407C52.5971 7.42407 49.4324 10.8205 49.4324 15.7069V16.2625C49.506 18.3294 50.3619 20.2875 51.8213 21.7275C53.2807 23.1675 55.2306 23.9781 57.2636 23.9897H57.5614C59.6641 23.986 61.6968 23.2205 63.2952 21.8306V21.7675L62.2527 20.0377L62.141 20.1008C60.9002 21.2785 59.2708 21.9407 57.5739 21.9569C56.7978 21.9745 56.0264 21.8309 55.3068 21.5349C54.5872 21.2389 53.9345 20.7967 53.3885 20.2354C52.8426 19.6741 52.4149 19.0054 52.1315 18.2702C51.8482 17.5349 51.7153 16.7487 51.7408 15.9594H63.4069V15.8332C63.4069 15.8332 63.4069 15.0882 63.4069 14.7221C63.5186 10.265 60.9744 7.42407 57.0898 7.42407ZM51.8649 13.9771C52.0141 12.7094 52.6164 11.5419 53.557 10.6967C54.4976 9.85156 55.7108 9.38781 56.9657 9.39377C58.9142 9.39377 61.0489 10.5806 61.2226 13.9771H51.8649Z" fill="white"/>
<path d="M76.947 9.28053V10.1012C76.4615 9.27841 75.7761 8.59649 74.9567 8.12107C74.1372 7.64565 73.2114 7.39271 72.2681 7.38659H71.9826C67.8498 7.38659 64.9954 10.7199 64.9954 15.6063C64.9954 20.4927 67.7257 23.9017 71.7965 23.9017C72.833 23.952 73.8632 23.7126 74.7755 23.2096C75.6878 22.7066 76.4473 21.9591 76.9718 21.0482V23.4598H79.1561V1.60376H76.947V9.28053ZM72.206 21.831C69.3516 21.831 67.4651 19.3058 67.4651 15.6442C67.4651 11.9825 69.4632 9.52043 72.2681 9.52043C74.5889 9.52043 76.947 11.4396 76.947 15.6442C76.947 20.2022 74.4648 21.831 72.1564 21.831H72.206Z" fill="white"/>
<path d="M92.5227 9.58282V9.70908C92.0883 8.96413 90.7604 7.3606 87.5584 7.3606C83.4876 7.3606 80.8069 10.5172 80.8069 15.3404C80.8069 20.1636 83.6117 23.4338 87.7445 23.4338C88.6963 23.5057 89.649 23.3077 90.4969 22.8619C91.3448 22.4162 92.0546 21.74 92.5475 20.9086V23.0803C92.5475 26.1106 90.6611 27.8404 87.3101 27.8404C85.8659 27.8498 84.4404 27.5078 83.1525 26.8429L83.0408 26.7798L82.1845 28.699L82.3086 28.7621C83.8716 29.5683 85.5951 30.0002 87.3474 30.0247C90.9341 30.0247 94.7939 28.1687 94.7939 23.0298V7.87827H92.5227V9.58282ZM88.0176 21.4641C85.039 21.4641 83.0532 19.1156 83.0532 15.4667C83.0532 11.8177 84.7535 9.64595 87.6701 9.64595C90.8845 9.64595 92.411 11.5651 92.411 15.4667C92.411 19.3682 90.9341 21.4641 88.0176 21.4641Z" fill="white"/>
<path d="M103.953 7.42407C99.4477 7.42407 96.345 10.8205 96.345 15.6438V16.1993C96.4095 18.2884 97.2708 20.2698 98.7465 21.724C100.222 23.1781 102.196 23.9908 104.251 23.9897H104.561C106.657 23.9776 108.68 23.2078 110.27 21.818L109.215 19.9746H109.091C107.854 21.1514 106.229 21.8137 104.536 21.8306C103.76 21.8482 102.988 21.7046 102.267 21.4087C101.547 21.1129 100.894 20.6709 100.347 20.1098C99.7997 19.5486 99.3708 18.8801 99.0861 18.1448C98.8014 17.4096 98.6668 16.623 98.6906 15.8332H110.456V15.7069C110.456 15.7069 110.456 14.962 110.456 14.5958C110.456 10.265 107.899 7.42407 103.953 7.42407ZM98.7775 13.9771C98.9296 12.7084 99.5344 11.5407 100.477 10.6957C101.42 9.85078 102.634 9.38746 103.891 9.39377C105.827 9.39377 107.961 10.5806 108.135 13.9771H98.7775Z" fill="white"/>
<path d="M119.938 7.72685C119.628 7.72685 119.392 7.72685 119.082 7.60059C118.009 7.63204 116.972 7.99936 116.113 8.65241C115.253 9.30546 114.613 10.2124 114.279 11.2496V7.72685H112.032V23.3708V23.497H114.341V16.8809C114.349 15.8639 114.512 14.8544 114.825 13.8885C115.557 11.4768 117.195 9.93644 119.144 9.93644C119.387 9.91138 119.632 9.91138 119.876 9.93644H120V7.72685H119.938Z" fill="white"/>
</g>
<defs>
<clipPath id="clip0">
<rect width="120" height="30" fill="white"/>
</clipPath>
</defs>
</svg>
